<?xml version="1.0" encoding="utf-8" standalone="no"?>
<!DOCTYPE svg PUBLIC "-//W3C//DTD SVG 1.1//EN"
  "http://www.w3.org/Graphics/SVG/1.1/DTD/svg11.dtd">
<!-- Created with matplotlib (https://matplotlib.org/) -->
<svg height="720pt" version="1.1" viewBox="0 0 720 720" width="720pt" xmlns="http://www.w3.org/2000/svg" xmlns:xlink="http://www.w3.org/1999/xlink">
 <metadata>
  <rdf:RDF xmlns:cc="http://creativecommons.org/ns#" xmlns:dc="http://purl.org/dc/elements/1.1/" xmlns:rdf="http://www.w3.org/1999/02/22-rdf-syntax-ns#">
   <cc:Work>
    <dc:type rdf:resource="http://purl.org/dc/dcmitype/StillImage"/>
    <dc:date>2022-10-11T20:59:03.429253</dc:date>
    <dc:format>image/svg+xml</dc:format>
    <dc:creator>
     <cc:Agent>
      <dc:title>Matplotlib v3.3.2, https://matplotlib.org/</dc:title>
     </cc:Agent>
    </dc:creator>
   </cc:Work>
  </rdf:RDF>
 </metadata>
 <defs>
  <style type="text/css">*{stroke-linecap:butt;stroke-linejoin:round;}</style>
 </defs>
 <g id="figure_1">
  <g id="patch_1">
   <path d="M 0 720 
L 720 720 
L 720 0 
L 0 0 
z
" style="fill:none;"/>
  </g>
  <g id="axes_1">
   <g id="patch_2">
    <path d="M 90 630 
L 648 630 
L 648 86.4 
L 90 86.4 
z
" style="fill:#ffffff;"/>
   </g>
   <g id="matplotlib.axis_1">
    <g id="xtick_1">
     <g id="line2d_1">
      <path clip-path="url(#p6f66de676c)" d="M 115.363636 630 
L 115.363636 86.4 
" style="fill:none;stroke:#b0b0b0;stroke-linecap:square;stroke-width:0.8;"/>
     </g>
     <g id="line2d_2">
      <defs>
       <path d="M 0 0 
L 0 3.5 
" id="m52ddb37ec5" style="stroke:#000000;stroke-width:0.8;"/>
      </defs>
      <g>
       <use style="stroke:#000000;stroke-width:0.8;" x="115.363636" xlink:href="#m52ddb37ec5" y="630"/>
      </g>
     </g>
     <g id="text_1">
      <!-- 0 -->
      <g transform="translate(112.182386 644.598438)scale(0.1 -0.1)">
       <defs>
        <path d="M 31.78125 66.40625 
Q 24.171875 66.40625 20.328125 58.90625 
Q 16.5 51.421875 16.5 36.375 
Q 16.5 21.390625 20.328125 13.890625 
Q 24.171875 6.390625 31.78125 6.390625 
Q 39.453125 6.390625 43.28125 13.890625 
Q 47.125 21.390625 47.125 36.375 
Q 47.125 51.421875 43.28125 58.90625 
Q 39.453125 66.40625 31.78125 66.40625 
z
M 31.78125 74.21875 
Q 44.046875 74.21875 50.515625 64.515625 
Q 56.984375 54.828125 56.984375 36.375 
Q 56.984375 17.96875 50.515625 8.265625 
Q 44.046875 -1.421875 31.78125 -1.421875 
Q 19.53125 -1.421875 13.0625 8.265625 
Q 6.59375 17.96875 6.59375 36.375 
Q 6.59375 54.828125 13.0625 64.515625 
Q 19.53125 74.21875 31.78125 74.21875 
z
" id="DejaVuSans-48"/>
       </defs>
       <use xlink:href="#DejaVuSans-48"/>
      </g>
     </g>
    </g>
    <g id="xtick_2">
     <g id="line2d_3">
      <path clip-path="url(#p6f66de676c)" d="M 183.914005 630 
L 183.914005 86.4 
" style="fill:none;stroke:#b0b0b0;stroke-linecap:square;stroke-width:0.8;"/>
     </g>
     <g id="line2d_4">
      <g>
       <use style="stroke:#000000;stroke-width:0.8;" x="183.914005" xlink:href="#m52ddb37ec5" y="630"/>
      </g>
     </g>
     <g id="text_2">
      <!-- 20 -->
      <g transform="translate(177.551505 644.598438)scale(0.1 -0.1)">
       <defs>
        <path d="M 19.1875 8.296875 
L 53.609375 8.296875 
L 53.609375 0 
L 7.328125 0 
L 7.328125 8.296875 
Q 12.9375 14.109375 22.625 23.890625 
Q 32.328125 33.6875 34.8125 36.53125 
Q 39.546875 41.84375 41.421875 45.53125 
Q 43.3125 49.21875 43.3125 52.78125 
Q 43.3125 58.59375 39.234375 62.25 
Q 35.15625 65.921875 28.609375 65.921875 
Q 23.96875 65.921875 18.8125 64.3125 
Q 13.671875 62.703125 7.8125 59.421875 
L 7.8125 69.390625 
Q 13.765625 71.78125 18.9375 73 
Q 24.125 74.21875 28.421875 74.21875 
Q 39.75 74.21875 46.484375 68.546875 
Q 53.21875 62.890625 53.21875 53.421875 
Q 53.21875 48.921875 51.53125 44.890625 
Q 49.859375 40.875 45.40625 35.40625 
Q 44.1875 33.984375 37.640625 27.21875 
Q 31.109375 20.453125 19.1875 8.296875 
z
" id="DejaVuSans-50"/>
       </defs>
       <use xlink:href="#DejaVuSans-50"/>
       <use x="63.623047" xlink:href="#DejaVuSans-48"/>
      </g>
     </g>
    </g>
    <g id="xtick_3">
     <g id="line2d_5">
      <path clip-path="url(#p6f66de676c)" d="M 252.464373 630 
L 252.464373 86.4 
" style="fill:none;stroke:#b0b0b0;stroke-linecap:square;stroke-width:0.8;"/>
     </g>
     <g id="line2d_6">
      <g>
       <use style="stroke:#000000;stroke-width:0.8;" x="252.464373" xlink:href="#m52ddb37ec5" y="630"/>
      </g>
     </g>
     <g id="text_3">
      <!-- 40 -->
      <g transform="translate(246.101873 644.598438)scale(0.1 -0.1)">
       <defs>
        <path d="M 37.796875 64.3125 
L 12.890625 25.390625 
L 37.796875 25.390625 
z
M 35.203125 72.90625 
L 47.609375 72.90625 
L 47.609375 25.390625 
L 58.015625 25.390625 
L 58.015625 17.1875 
L 47.609375 17.1875 
L 47.609375 0 
L 37.796875 0 
L 37.796875 17.1875 
L 4.890625 17.1875 
L 4.890625 26.703125 
z
" id="DejaVuSans-52"/>
       </defs>
       <use xlink:href="#DejaVuSans-52"/>
       <use x="63.623047" xlink:href="#DejaVuSans-48"/>
      </g>
     </g>
    </g>
    <g id="xtick_4">
     <g id="line2d_7">
      <path clip-path="url(#p6f66de676c)" d="M 321.014742 630 
L 321.014742 86.4 
" style="fill:none;stroke:#b0b0b0;stroke-linecap:square;stroke-width:0.8;"/>
     </g>
     <g id="line2d_8">
      <g>
       <use style="stroke:#000000;stroke-width:0.8;" x="321.014742" xlink:href="#m52ddb37ec5" y="630"/>
      </g>
     </g>
     <g id="text_4">
      <!-- 60 -->
      <g transform="translate(314.652242 644.598438)scale(0.1 -0.1)">
       <defs>
        <path d="M 33.015625 40.375 
Q 26.375 40.375 22.484375 35.828125 
Q 18.609375 31.296875 18.609375 23.390625 
Q 18.609375 15.53125 22.484375 10.953125 
Q 26.375 6.390625 33.015625 6.390625 
Q 39.65625 6.390625 43.53125 10.953125 
Q 47.40625 15.53125 47.40625 23.390625 
Q 47.40625 31.296875 43.53125 35.828125 
Q 39.65625 40.375 33.015625 40.375 
z
M 52.59375 71.296875 
L 52.59375 62.3125 
Q 48.875 64.0625 45.09375 64.984375 
Q 41.3125 65.921875 37.59375 65.921875 
Q 27.828125 65.921875 22.671875 59.328125 
Q 17.53125 52.734375 16.796875 39.40625 
Q 19.671875 43.65625 24.015625 45.921875 
Q 28.375 48.1875 33.59375 48.1875 
Q 44.578125 48.1875 50.953125 41.515625 
Q 57.328125 34.859375 57.328125 23.390625 
Q 57.328125 12.15625 50.6875 5.359375 
Q 44.046875 -1.421875 33.015625 -1.421875 
Q 20.359375 -1.421875 13.671875 8.265625 
Q 6.984375 17.96875 6.984375 36.375 
Q 6.984375 53.65625 15.1875 63.9375 
Q 23.390625 74.21875 37.203125 74.21875 
Q 40.921875 74.21875 44.703125 73.484375 
Q 48.484375 72.75 52.59375 71.296875 
z
" id="DejaVuSans-54"/>
       </defs>
       <use xlink:href="#DejaVuSans-54"/>
       <use x="63.623047" xlink:href="#DejaVuSans-48"/>
      </g>
     </g>
    </g>
    <g id="xtick_5">
     <g id="line2d_9">
      <path clip-path="url(#p6f66de676c)" d="M 389.565111 630 
L 389.565111 86.4 
" style="fill:none;stroke:#b0b0b0;stroke-linecap:square;stroke-width:0.8;"/>
     </g>
     <g id="line2d_10">
      <g>
       <use style="stroke:#000000;stroke-width:0.8;" x="389.565111" xlink:href="#m52ddb37ec5" y="630"/>
      </g>
     </g>
     <g id="text_5">
      <!-- 80 -->
      <g transform="translate(383.202611 644.598438)scale(0.1 -0.1)">
       <defs>
        <path d="M 31.78125 34.625 
Q 24.75 34.625 20.71875 30.859375 
Q 16.703125 27.09375 16.703125 20.515625 
Q 16.703125 13.921875 20.71875 10.15625 
Q 24.75 6.390625 31.78125 6.390625 
Q 38.8125 6.390625 42.859375 10.171875 
Q 46.921875 13.96875 46.921875 20.515625 
Q 46.921875 27.09375 42.890625 30.859375 
Q 38.875 34.625 31.78125 34.625 
z
M 21.921875 38.8125 
Q 15.578125 40.375 12.03125 44.71875 
Q 8.5 49.078125 8.5 55.328125 
Q 8.5 64.0625 14.71875 69.140625 
Q 20.953125 74.21875 31.78125 74.21875 
Q 42.671875 74.21875 48.875 69.140625 
Q 55.078125 64.0625 55.078125 55.328125 
Q 55.078125 49.078125 51.53125 44.71875 
Q 48 40.375 41.703125 38.8125 
Q 48.828125 37.15625 52.796875 32.3125 
Q 56.78125 27.484375 56.78125 20.515625 
Q 56.78125 9.90625 50.3125 4.234375 
Q 43.84375 -1.421875 31.78125 -1.421875 
Q 19.734375 -1.421875 13.25 4.234375 
Q 6.78125 9.90625 6.78125 20.515625 
Q 6.78125 27.484375 10.78125 32.3125 
Q 14.796875 37.15625 21.921875 38.8125 
z
M 18.3125 54.390625 
Q 18.3125 48.734375 21.84375 45.5625 
Q 25.390625 42.390625 31.78125 42.390625 
Q 38.140625 42.390625 41.71875 45.5625 
Q 45.3125 48.734375 45.3125 54.390625 
Q 45.3125 60.0625 41.71875 63.234375 
Q 38.140625 66.40625 31.78125 66.40625 
Q 25.390625 66.40625 21.84375 63.234375 
Q 18.3125 60.0625 18.3125 54.390625 
z
" id="DejaVuSans-56"/>
       </defs>
       <use xlink:href="#DejaVuSans-56"/>
       <use x="63.623047" xlink:href="#DejaVuSans-48"/>
      </g>
     </g>
    </g>
    <g id="xtick_6">
     <g id="line2d_11">
      <path clip-path="url(#p6f66de676c)" d="M 458.115479 630 
L 458.115479 86.4 
" style="fill:none;stroke:#b0b0b0;stroke-linecap:square;stroke-width:0.8;"/>
     </g>
     <g id="line2d_12">
      <g>
       <use style="stroke:#000000;stroke-width:0.8;" x="458.115479" xlink:href="#m52ddb37ec5" y="630"/>
      </g>
     </g>
     <g id="text_6">
      <!-- 100 -->
      <g transform="translate(448.571729 644.598438)scale(0.1 -0.1)">
       <defs>
        <path d="M 12.40625 8.296875 
L 28.515625 8.296875 
L 28.515625 63.921875 
L 10.984375 60.40625 
L 10.984375 69.390625 
L 28.421875 72.90625 
L 38.28125 72.90625 
L 38.28125 8.296875 
L 54.390625 8.296875 
L 54.390625 0 
L 12.40625 0 
z
" id="DejaVuSans-49"/>
       </defs>
       <use xlink:href="#DejaVuSans-49"/>
       <use x="63.623047" xlink:href="#DejaVuSans-48"/>
       <use x="127.246094" xlink:href="#DejaVuSans-48"/>
      </g>
     </g>
    </g>
    <g id="xtick_7">
     <g id="line2d_13">
      <path clip-path="url(#p6f66de676c)" d="M 526.665848 630 
L 526.665848 86.4 
" style="fill:none;stroke:#b0b0b0;stroke-linecap:square;stroke-width:0.8;"/>
     </g>
     <g id="line2d_14">
      <g>
       <use style="stroke:#000000;stroke-width:0.8;" x="526.665848" xlink:href="#m52ddb37ec5" y="630"/>
      </g>
     </g>
     <g id="text_7">
      <!-- 120 -->
      <g transform="translate(517.122098 644.598438)scale(0.1 -0.1)">
       <use xlink:href="#DejaVuSans-49"/>
       <use x="63.623047" xlink:href="#DejaVuSans-50"/>
       <use x="127.246094" xlink:href="#DejaVuSans-48"/>
      </g>
     </g>
    </g>
    <g id="xtick_8">
     <g id="line2d_15">
      <path clip-path="url(#p6f66de676c)" d="M 595.216216 630 
L 595.216216 86.4 
" style="fill:none;stroke:#b0b0b0;stroke-linecap:square;stroke-width:0.8;"/>
     </g>
     <g id="line2d_16">
      <g>
       <use style="stroke:#000000;stroke-width:0.8;" x="595.216216" xlink:href="#m52ddb37ec5" y="630"/>
      </g>
     </g>
     <g id="text_8">
      <!-- 140 -->
      <g transform="translate(585.672466 644.598438)scale(0.1 -0.1)">
       <use xlink:href="#DejaVuSans-49"/>
       <use x="63.623047" xlink:href="#DejaVuSans-52"/>
       <use x="127.246094" xlink:href="#DejaVuSans-48"/>
      </g>
     </g>
    </g>
    <g id="text_9">
     <!-- Days -->
     <g transform="translate(356.521875 658.276562)scale(0.1 -0.1)">
      <defs>
       <path d="M 19.671875 64.796875 
L 19.671875 8.109375 
L 31.59375 8.109375 
Q 46.6875 8.109375 53.6875 14.9375 
Q 60.6875 21.78125 60.6875 36.53125 
Q 60.6875 51.171875 53.6875 57.984375 
Q 46.6875 64.796875 31.59375 64.796875 
z
M 9.8125 72.90625 
L 30.078125 72.90625 
Q 51.265625 72.90625 61.171875 64.09375 
Q 71.09375 55.28125 71.09375 36.53125 
Q 71.09375 17.671875 61.125 8.828125 
Q 51.171875 0 30.078125 0 
L 9.8125 0 
z
" id="DejaVuSans-68"/>
       <path d="M 34.28125 27.484375 
Q 23.390625 27.484375 19.1875 25 
Q 14.984375 22.515625 14.984375 16.5 
Q 14.984375 11.71875 18.140625 8.90625 
Q 21.296875 6.109375 26.703125 6.109375 
Q 34.1875 6.109375 38.703125 11.40625 
Q 43.21875 16.703125 43.21875 25.484375 
L 43.21875 27.484375 
z
M 52.203125 31.203125 
L 52.203125 0 
L 43.21875 0 
L 43.21875 8.296875 
Q 40.140625 3.328125 35.546875 0.953125 
Q 30.953125 -1.421875 24.3125 -1.421875 
Q 15.921875 -1.421875 10.953125 3.296875 
Q 6 8.015625 6 15.921875 
Q 6 25.140625 12.171875 29.828125 
Q 18.359375 34.515625 30.609375 34.515625 
L 43.21875 34.515625 
L 43.21875 35.40625 
Q 43.21875 41.609375 39.140625 45 
Q 35.0625 48.390625 27.6875 48.390625 
Q 23 48.390625 18.546875 47.265625 
Q 14.109375 46.140625 10.015625 43.890625 
L 10.015625 52.203125 
Q 14.9375 54.109375 19.578125 55.046875 
Q 24.21875 56 28.609375 56 
Q 40.484375 56 46.34375 49.84375 
Q 52.203125 43.703125 52.203125 31.203125 
z
" id="DejaVuSans-97"/>
       <path d="M 32.171875 -5.078125 
Q 28.375 -14.84375 24.75 -17.8125 
Q 21.140625 -20.796875 15.09375 -20.796875 
L 7.90625 -20.796875 
L 7.90625 -13.28125 
L 13.1875 -13.28125 
Q 16.890625 -13.28125 18.9375 -11.515625 
Q 21 -9.765625 23.484375 -3.21875 
L 25.09375 0.875 
L 2.984375 54.6875 
L 12.5 54.6875 
L 29.59375 11.921875 
L 46.6875 54.6875 
L 56.203125 54.6875 
z
" id="DejaVuSans-121"/>
       <path d="M 44.28125 53.078125 
L 44.28125 44.578125 
Q 40.484375 46.53125 36.375 47.5 
Q 32.28125 48.484375 27.875 48.484375 
Q 21.1875 48.484375 17.84375 46.4375 
Q 14.5 44.390625 14.5 40.28125 
Q 14.5 37.15625 16.890625 35.375 
Q 19.28125 33.59375 26.515625 31.984375 
L 29.59375 31.296875 
Q 39.15625 29.25 43.1875 25.515625 
Q 47.21875 21.78125 47.21875 15.09375 
Q 47.21875 7.46875 41.1875 3.015625 
Q 35.15625 -1.421875 24.609375 -1.421875 
Q 20.21875 -1.421875 15.453125 -0.5625 
Q 10.6875 0.296875 5.421875 2 
L 5.421875 11.28125 
Q 10.40625 8.6875 15.234375 7.390625 
Q 20.0625 6.109375 24.8125 6.109375 
Q 31.15625 6.109375 34.5625 8.28125 
Q 37.984375 10.453125 37.984375 14.40625 
Q 37.984375 18.0625 35.515625 20.015625 
Q 33.0625 21.96875 24.703125 23.78125 
L 21.578125 24.515625 
Q 13.234375 26.265625 9.515625 29.90625 
Q 5.8125 33.546875 5.8125 39.890625 
Q 5.8125 47.609375 11.28125 51.796875 
Q 16.75 56 26.8125 56 
Q 31.78125 56 36.171875 55.265625 
Q 40.578125 54.546875 44.28125 53.078125 
z
" id="DejaVuSans-115"/>
      </defs>
      <use xlink:href="#DejaVuSans-68"/>
      <use x="77.001953" xlink:href="#DejaVuSans-97"/>
      <use x="138.28125" xlink:href="#DejaVuSans-121"/>
      <use x="197.460938" xlink:href="#DejaVuSans-115"/>
     </g>
    </g>
   </g>
   <g id="matplotlib.axis_2">
    <g id="ytick_1">
     <g id="line2d_17">
      <path clip-path="url(#p6f66de676c)" d="M 90 607.446664 
L 648 607.446664 
" style="fill:none;stroke:#b0b0b0;stroke-linecap:square;stroke-width:0.8;"/>
     </g>
     <g id="line2d_18">
      <defs>
       <path d="M 0 0 
L -3.5 0 
" id="m18207f1421" style="stroke:#000000;stroke-width:0.8;"/>
      </defs>
      <g>
       <use style="stroke:#000000;stroke-width:0.8;" x="90" xlink:href="#m18207f1421" y="607.446664"/>
      </g>
     </g>
     <g id="text_10">
      <!-- 0 -->
      <g transform="translate(76.6375 611.245883)scale(0.1 -0.1)">
       <use xlink:href="#DejaVuSans-48"/>
      </g>
     </g>
    </g>
    <g id="ytick_2">
     <g id="line2d_19">
      <path clip-path="url(#p6f66de676c)" d="M 90 530.455403 
L 648 530.455403 
" style="fill:none;stroke:#b0b0b0;stroke-linecap:square;stroke-width:0.8;"/>
     </g>
     <g id="line2d_20">
      <g>
       <use style="stroke:#000000;stroke-width:0.8;" x="90" xlink:href="#m18207f1421" y="530.455403"/>
      </g>
     </g>
     <g id="text_11">
      <!-- 500 -->
      <g transform="translate(63.9125 534.254621)scale(0.1 -0.1)">
       <defs>
        <path d="M 10.796875 72.90625 
L 49.515625 72.90625 
L 49.515625 64.59375 
L 19.828125 64.59375 
L 19.828125 46.734375 
Q 21.96875 47.46875 24.109375 47.828125 
Q 26.265625 48.1875 28.421875 48.1875 
Q 40.625 48.1875 47.75 41.5 
Q 54.890625 34.8125 54.890625 23.390625 
Q 54.890625 11.625 47.5625 5.09375 
Q 40.234375 -1.421875 26.90625 -1.421875 
Q 22.3125 -1.421875 17.546875 -0.640625 
Q 12.796875 0.140625 7.71875 1.703125 
L 7.71875 11.625 
Q 12.109375 9.234375 16.796875 8.0625 
Q 21.484375 6.890625 26.703125 6.890625 
Q 35.15625 6.890625 40.078125 11.328125 
Q 45.015625 15.765625 45.015625 23.390625 
Q 45.015625 31 40.078125 35.4375 
Q 35.15625 39.890625 26.703125 39.890625 
Q 22.75 39.890625 18.8125 39.015625 
Q 14.890625 38.140625 10.796875 36.28125 
z
" id="DejaVuSans-53"/>
       </defs>
       <use xlink:href="#DejaVuSans-53"/>
       <use x="63.623047" xlink:href="#DejaVuSans-48"/>
       <use x="127.246094" xlink:href="#DejaVuSans-48"/>
      </g>
     </g>
    </g>
    <g id="ytick_3">
     <g id="line2d_21">
      <path clip-path="url(#p6f66de676c)" d="M 90 453.464141 
L 648 453.464141 
" style="fill:none;stroke:#b0b0b0;stroke-linecap:square;stroke-width:0.8;"/>
     </g>
     <g id="line2d_22">
      <g>
       <use style="stroke:#000000;stroke-width:0.8;" x="90" xlink:href="#m18207f1421" y="453.464141"/>
      </g>
     </g>
     <g id="text_12">
      <!-- 1000 -->
      <g transform="translate(57.55 457.26336)scale(0.1 -0.1)">
       <use xlink:href="#DejaVuSans-49"/>
       <use x="63.623047" xlink:href="#DejaVuSans-48"/>
       <use x="127.246094" xlink:href="#DejaVuSans-48"/>
       <use x="190.869141" xlink:href="#DejaVuSans-48"/>
      </g>
     </g>
    </g>
    <g id="ytick_4">
     <g id="line2d_23">
      <path clip-path="url(#p6f66de676c)" d="M 90 376.472879 
L 648 376.472879 
" style="fill:none;stroke:#b0b0b0;stroke-linecap:square;stroke-width:0.8;"/>
     </g>
     <g id="line2d_24">
      <g>
       <use style="stroke:#000000;stroke-width:0.8;" x="90" xlink:href="#m18207f1421" y="376.472879"/>
      </g>
     </g>
     <g id="text_13">
      <!-- 1500 -->
      <g transform="translate(57.55 380.272098)scale(0.1 -0.1)">
       <use xlink:href="#DejaVuSans-49"/>
       <use x="63.623047" xlink:href="#DejaVuSans-53"/>
       <use x="127.246094" xlink:href="#DejaVuSans-48"/>
       <use x="190.869141" xlink:href="#DejaVuSans-48"/>
      </g>
     </g>
    </g>
    <g id="ytick_5">
     <g id="line2d_25">
      <path clip-path="url(#p6f66de676c)" d="M 90 299.481618 
L 648 299.481618 
" style="fill:none;stroke:#b0b0b0;stroke-linecap:square;stroke-width:0.8;"/>
     </g>
     <g id="line2d_26">
      <g>
       <use style="stroke:#000000;stroke-width:0.8;" x="90" xlink:href="#m18207f1421" y="299.481618"/>
      </g>
     </g>
     <g id="text_14">
      <!-- 2000 -->
      <g transform="translate(57.55 303.280836)scale(0.1 -0.1)">
       <use xlink:href="#DejaVuSans-50"/>
       <use x="63.623047" xlink:href="#DejaVuSans-48"/>
       <use x="127.246094" xlink:href="#DejaVuSans-48"/>
       <use x="190.869141" xlink:href="#DejaVuSans-48"/>
      </g>
     </g>
    </g>
    <g id="ytick_6">
     <g id="line2d_27">
      <path clip-path="url(#p6f66de676c)" d="M 90 222.490356 
L 648 222.490356 
" style="fill:none;stroke:#b0b0b0;stroke-linecap:square;stroke-width:0.8;"/>
     </g>
     <g id="line2d_28">
      <g>
       <use style="stroke:#000000;stroke-width:0.8;" x="90" xlink:href="#m18207f1421" y="222.490356"/>
      </g>
     </g>
     <g id="text_15">
      <!-- 2500 -->
      <g transform="translate(57.55 226.289575)scale(0.1 -0.1)">
       <use xlink:href="#DejaVuSans-50"/>
       <use x="63.623047" xlink:href="#DejaVuSans-53"/>
       <use x="127.246094" xlink:href="#DejaVuSans-48"/>
       <use x="190.869141" xlink:href="#DejaVuSans-48"/>
      </g>
     </g>
    </g>
    <g id="ytick_7">
     <g id="line2d_29">
      <path clip-path="url(#p6f66de676c)" d="M 90 145.499094 
L 648 145.499094 
" style="fill:none;stroke:#b0b0b0;stroke-linecap:square;stroke-width:0.8;"/>
     </g>
     <g id="line2d_30">
      <g>
       <use style="stroke:#000000;stroke-width:0.8;" x="90" xlink:href="#m18207f1421" y="145.499094"/>
      </g>
     </g>
     <g id="text_16">
      <!-- 3000 -->
      <g transform="translate(57.55 149.298313)scale(0.1 -0.1)">
       <defs>
        <path d="M 40.578125 39.3125 
Q 47.65625 37.796875 51.625 33 
Q 55.609375 28.21875 55.609375 21.1875 
Q 55.609375 10.40625 48.1875 4.484375 
Q 40.765625 -1.421875 27.09375 -1.421875 
Q 22.515625 -1.421875 17.65625 -0.515625 
Q 12.796875 0.390625 7.625 2.203125 
L 7.625 11.71875 
Q 11.71875 9.328125 16.59375 8.109375 
Q 21.484375 6.890625 26.8125 6.890625 
Q 36.078125 6.890625 40.9375 10.546875 
Q 45.796875 14.203125 45.796875 21.1875 
Q 45.796875 27.640625 41.28125 31.265625 
Q 36.765625 34.90625 28.71875 34.90625 
L 20.21875 34.90625 
L 20.21875 43.015625 
L 29.109375 43.015625 
Q 36.375 43.015625 40.234375 45.921875 
Q 44.09375 48.828125 44.09375 54.296875 
Q 44.09375 59.90625 40.109375 62.90625 
Q 36.140625 65.921875 28.71875 65.921875 
Q 24.65625 65.921875 20.015625 65.03125 
Q 15.375 64.15625 9.8125 62.3125 
L 9.8125 71.09375 
Q 15.4375 72.65625 20.34375 73.4375 
Q 25.25 74.21875 29.59375 74.21875 
Q 40.828125 74.21875 47.359375 69.109375 
Q 53.90625 64.015625 53.90625 55.328125 
Q 53.90625 49.265625 50.4375 45.09375 
Q 46.96875 40.921875 40.578125 39.3125 
z
" id="DejaVuSans-51"/>
       </defs>
       <use xlink:href="#DejaVuSans-51"/>
       <use x="63.623047" xlink:href="#DejaVuSans-48"/>
       <use x="127.246094" xlink:href="#DejaVuSans-48"/>
       <use x="190.869141" xlink:href="#DejaVuSans-48"/>
      </g>
     </g>
    </g>
    <g id="text_17">
     <!-- Cumulative cases -->
     <g transform="translate(51.470312 402.425781)rotate(-90)scale(0.1 -0.1)">
      <defs>
       <path d="M 64.40625 67.28125 
L 64.40625 56.890625 
Q 59.421875 61.53125 53.78125 63.8125 
Q 48.140625 66.109375 41.796875 66.109375 
Q 29.296875 66.109375 22.65625 58.46875 
Q 16.015625 50.828125 16.015625 36.375 
Q 16.015625 21.96875 22.65625 14.328125 
Q 29.296875 6.6875 41.796875 6.6875 
Q 48.140625 6.6875 53.78125 8.984375 
Q 59.421875 11.28125 64.40625 15.921875 
L 64.40625 5.609375 
Q 59.234375 2.09375 53.4375 0.328125 
Q 47.65625 -1.421875 41.21875 -1.421875 
Q 24.65625 -1.421875 15.125 8.703125 
Q 5.609375 18.84375 5.609375 36.375 
Q 5.609375 53.953125 15.125 64.078125 
Q 24.65625 74.21875 41.21875 74.21875 
Q 47.75 74.21875 53.53125 72.484375 
Q 59.328125 70.75 64.40625 67.28125 
z
" id="DejaVuSans-67"/>
       <path d="M 8.5 21.578125 
L 8.5 54.6875 
L 17.484375 54.6875 
L 17.484375 21.921875 
Q 17.484375 14.15625 20.5 10.265625 
Q 23.53125 6.390625 29.59375 6.390625 
Q 36.859375 6.390625 41.078125 11.03125 
Q 45.3125 15.671875 45.3125 23.6875 
L 45.3125 54.6875 
L 54.296875 54.6875 
L 54.296875 0 
L 45.3125 0 
L 45.3125 8.40625 
Q 42.046875 3.421875 37.71875 1 
Q 33.40625 -1.421875 27.6875 -1.421875 
Q 18.265625 -1.421875 13.375 4.4375 
Q 8.5 10.296875 8.5 21.578125 
z
M 31.109375 56 
z
" id="DejaVuSans-117"/>
       <path d="M 52 44.1875 
Q 55.375 50.25 60.0625 53.125 
Q 64.75 56 71.09375 56 
Q 79.640625 56 84.28125 50.015625 
Q 88.921875 44.046875 88.921875 33.015625 
L 88.921875 0 
L 79.890625 0 
L 79.890625 32.71875 
Q 79.890625 40.578125 77.09375 44.375 
Q 74.3125 48.1875 68.609375 48.1875 
Q 61.625 48.1875 57.5625 43.546875 
Q 53.515625 38.921875 53.515625 30.90625 
L 53.515625 0 
L 44.484375 0 
L 44.484375 32.71875 
Q 44.484375 40.625 41.703125 44.40625 
Q 38.921875 48.1875 33.109375 48.1875 
Q 26.21875 48.1875 22.15625 43.53125 
Q 18.109375 38.875 18.109375 30.90625 
L 18.109375 0 
L 9.078125 0 
L 9.078125 54.6875 
L 18.109375 54.6875 
L 18.109375 46.1875 
Q 21.1875 51.21875 25.484375 53.609375 
Q 29.78125 56 35.6875 56 
Q 41.65625 56 45.828125 52.96875 
Q 50 49.953125 52 44.1875 
z
" id="DejaVuSans-109"/>
       <path d="M 9.421875 75.984375 
L 18.40625 75.984375 
L 18.40625 0 
L 9.421875 0 
z
" id="DejaVuSans-108"/>
       <path d="M 18.3125 70.21875 
L 18.3125 54.6875 
L 36.8125 54.6875 
L 36.8125 47.703125 
L 18.3125 47.703125 
L 18.3125 18.015625 
Q 18.3125 11.328125 20.140625 9.421875 
Q 21.96875 7.515625 27.59375 7.515625 
L 36.8125 7.515625 
L 36.8125 0 
L 27.59375 0 
Q 17.1875 0 13.234375 3.875 
Q 9.28125 7.765625 9.28125 18.015625 
L 9.28125 47.703125 
L 2.6875 47.703125 
L 2.6875 54.6875 
L 9.28125 54.6875 
L 9.28125 70.21875 
z
" id="DejaVuSans-116"/>
       <path d="M 9.421875 54.6875 
L 18.40625 54.6875 
L 18.40625 0 
L 9.421875 0 
z
M 9.421875 75.984375 
L 18.40625 75.984375 
L 18.40625 64.59375 
L 9.421875 64.59375 
z
" id="DejaVuSans-105"/>
       <path d="M 2.984375 54.6875 
L 12.5 54.6875 
L 29.59375 8.796875 
L 46.6875 54.6875 
L 56.203125 54.6875 
L 35.6875 0 
L 23.484375 0 
z
" id="DejaVuSans-118"/>
       <path d="M 56.203125 29.59375 
L 56.203125 25.203125 
L 14.890625 25.203125 
Q 15.484375 15.921875 20.484375 11.0625 
Q 25.484375 6.203125 34.421875 6.203125 
Q 39.59375 6.203125 44.453125 7.46875 
Q 49.3125 8.734375 54.109375 11.28125 
L 54.109375 2.78125 
Q 49.265625 0.734375 44.1875 -0.34375 
Q 39.109375 -1.421875 33.890625 -1.421875 
Q 20.796875 -1.421875 13.15625 6.1875 
Q 5.515625 13.8125 5.515625 26.8125 
Q 5.515625 40.234375 12.765625 48.109375 
Q 20.015625 56 32.328125 56 
Q 43.359375 56 49.78125 48.890625 
Q 56.203125 41.796875 56.203125 29.59375 
z
M 47.21875 32.234375 
Q 47.125 39.59375 43.09375 43.984375 
Q 39.0625 48.390625 32.421875 48.390625 
Q 24.90625 48.390625 20.390625 44.140625 
Q 15.875 39.890625 15.1875 32.171875 
z
" id="DejaVuSans-101"/>
       <path id="DejaVuSans-32"/>
       <path d="M 48.78125 52.59375 
L 48.78125 44.1875 
Q 44.96875 46.296875 41.140625 47.34375 
Q 37.3125 48.390625 33.40625 48.390625 
Q 24.65625 48.390625 19.8125 42.84375 
Q 14.984375 37.3125 14.984375 27.296875 
Q 14.984375 17.28125 19.8125 11.734375 
Q 24.65625 6.203125 33.40625 6.203125 
Q 37.3125 6.203125 41.140625 7.25 
Q 44.96875 8.296875 48.78125 10.40625 
L 48.78125 2.09375 
Q 45.015625 0.34375 40.984375 -0.53125 
Q 36.96875 -1.421875 32.421875 -1.421875 
Q 20.0625 -1.421875 12.78125 6.34375 
Q 5.515625 14.109375 5.515625 27.296875 
Q 5.515625 40.671875 12.859375 48.328125 
Q 20.21875 56 33.015625 56 
Q 37.15625 56 41.109375 55.140625 
Q 45.0625 54.296875 48.78125 52.59375 
z
" id="DejaVuSans-99"/>
      </defs>
      <use xlink:href="#DejaVuSans-67"/>
      <use x="69.824219" xlink:href="#DejaVuSans-117"/>
      <use x="133.203125" xlink:href="#DejaVuSans-109"/>
      <use x="230.615234" xlink:href="#DejaVuSans-117"/>
      <use x="293.994141" xlink:href="#DejaVuSans-108"/>
      <use x="321.777344" xlink:href="#DejaVuSans-97"/>
      <use x="383.056641" xlink:href="#DejaVuSans-116"/>
      <use x="422.265625" xlink:href="#DejaVuSans-105"/>
      <use x="450.048828" xlink:href="#DejaVuSans-118"/>
      <use x="509.228516" xlink:href="#DejaVuSans-101"/>
      <use x="570.751953" xlink:href="#DejaVuSans-32"/>
      <use x="602.539062" xlink:href="#DejaVuSans-99"/>
      <use x="657.519531" xlink:href="#DejaVuSans-97"/>
      <use x="718.798828" xlink:href="#DejaVuSans-115"/>
      <use x="770.898438" xlink:href="#DejaVuSans-101"/>
      <use x="832.421875" xlink:href="#DejaVuSans-115"/>
     </g>
    </g>
   </g>
   <g id="line2d_31">
    <path clip-path="url(#p6f66de676c)" d="M 115.363636 605.290909 
L 125.646192 604.643754 
L 135.928747 603.803787 
L 146.211302 602.714571 
L 153.066339 601.815032 
L 159.921376 600.746881 
L 166.776413 599.479497 
L 173.63145 597.977108 
L 180.486486 596.198084 
L 187.341523 594.094217 
L 194.19656 591.609998 
L 201.051597 588.681965 
L 204.479115 587.029376 
L 207.906634 585.238174 
L 211.334152 583.29799 
L 214.761671 581.197914 
L 218.189189 578.926499 
L 221.616708 576.471788 
L 225.044226 573.821353 
L 228.471744 570.962336 
L 231.899263 567.881519 
L 235.326781 564.565402 
L 238.7543 561.000304 
L 242.181818 557.172483 
L 245.609337 553.068278 
L 249.036855 548.674278 
L 252.464373 543.977509 
L 255.891892 538.96565 
L 259.31941 533.627273 
L 262.746929 527.952098 
L 266.174447 521.931276 
L 269.601966 515.557681 
L 273.029484 508.82621 
L 276.457002 501.734093 
L 279.884521 494.281188 
L 283.312039 486.470265 
L 286.739558 478.307264 
L 290.167076 469.80151 
L 293.594595 460.96588 
L 300.449631 442.374854 
L 307.304668 422.71048 
L 314.159705 402.204567 
L 324.44226 370.487075 
L 338.152334 328.080549 
L 345.007371 307.548475 
L 351.862408 287.848347 
L 358.717445 269.213908 
L 362.144963 260.354369 
L 365.572482 251.823602 
L 369 243.634756 
L 372.427518 235.797413 
L 375.855037 228.317759 
L 379.282555 221.19879 
L 382.710074 214.440571 
L 386.137592 208.040518 
L 389.565111 201.993692 
L 392.992629 196.293105 
L 396.420147 190.930026 
L 399.847666 185.894274 
L 403.275184 181.174494 
L 406.702703 176.758424 
L 410.130221 172.633132 
L 413.55774 168.785231 
L 416.985258 165.201073 
L 420.412776 161.866918 
L 423.840295 158.769075 
L 427.267813 155.894028 
L 430.695332 153.228533 
L 434.12285 150.759705 
L 437.550369 148.47508 
L 440.977887 146.362666 
L 444.405405 144.410977 
L 447.832924 142.609062 
L 451.260442 140.946513 
L 458.115479 138.000649 
L 464.970516 135.501119 
L 471.825553 133.384154 
L 478.68059 131.593961 
L 485.535627 130.082072 
L 492.390663 128.806627 
L 499.2457 127.731647 
L 506.100737 126.826334 
L 516.383292 125.730096 
L 526.665848 124.884694 
L 536.948403 124.233336 
L 550.658477 123.59182 
L 567.796069 123.049132 
L 588.361179 122.645461 
L 615.781327 122.351624 
L 622.636364 122.305173 
L 622.636364 122.305173 
" style="fill:none;stroke:#1f77b4;stroke-linecap:square;stroke-width:1.5;"/>
   </g>
   <g id="line2d_32">
    <path clip-path="url(#p6f66de676c)" d="M 115.363636 605.290909 
L 125.646192 604.643754 
L 135.928747 603.803787 
L 146.211302 602.714571 
L 153.066339 601.815032 
L 159.921376 600.74688 
L 166.776413 599.479497 
L 173.63145 597.977107 
L 180.486486 596.198084 
L 187.341523 594.094217 
L 194.19656 591.609998 
L 201.051597 588.681964 
L 204.479115 587.029376 
L 207.906634 585.238173 
L 211.334152 583.297989 
L 214.761671 581.197913 
L 218.189189 578.926497 
L 221.616708 576.471787 
L 225.044226 573.821351 
L 228.471744 570.962334 
L 231.899263 567.881517 
L 235.326781 564.5654 
L 238.7543 561.000302 
L 242.181818 557.17248 
L 245.609337 553.068275 
L 249.036855 548.674274 
L 252.464373 543.977505 
L 255.891892 538.965646 
L 259.31941 533.627269 
L 262.746929 527.952094 
L 266.174447 521.931271 
L 269.601966 515.557675 
L 273.029484 508.826204 
L 276.457002 501.734086 
L 279.884521 494.281181 
L 283.312039 486.470258 
L 286.739558 478.307257 
L 290.167076 469.801502 
L 293.594595 460.965872 
L 300.449631 442.374845 
L 307.304668 422.71047 
L 314.159705 402.204557 
L 324.44226 370.487064 
L 338.152334 328.080539 
L 345.007371 307.548465 
L 351.862408 287.848338 
L 358.717445 269.2139 
L 362.144963 260.354362 
L 365.572482 251.823595 
L 369 243.634749 
L 372.427518 235.797407 
L 375.855037 228.317753 
L 379.282555 221.198785 
L 382.710074 214.440567 
L 386.137592 208.040515 
L 389.565111 201.993689 
L 392.992629 196.293102 
L 396.420147 190.930025 
L 399.847666 185.894273 
L 403.275184 181.174493 
L 406.702703 176.758424 
L 410.130221 172.633132 
L 413.55774 168.785232 
L 416.985258 165.201075 
L 420.412776 161.86692 
L 423.840295 158.769078 
L 427.267813 155.894031 
L 430.695332 153.228536 
L 434.12285 150.759708 
L 437.550369 148.475084 
L 440.977887 146.36267 
L 444.405405 144.410982 
L 447.832924 142.609067 
L 451.260442 140.946519 
L 458.115479 138.000655 
L 464.970516 135.501126 
L 471.825553 133.384161 
L 478.68059 131.593968 
L 485.535627 130.08208 
L 492.390663 128.806635 
L 499.2457 127.731655 
L 506.100737 126.826342 
L 516.383292 125.730105 
L 526.665848 124.884702 
L 536.948403 124.233345 
L 550.658477 123.591828 
L 567.796069 123.049141 
L 588.361179 122.64547 
L 615.781327 122.351634 
L 622.636364 122.305182 
L 622.636364 122.305182 
" style="fill:none;stroke:#ff7f0e;stroke-linecap:square;stroke-width:1.5;"/>
   </g>
   <g id="line2d_33">
    <path clip-path="url(#p6f66de676c)" d="M 115.363636 605.290909 
L 125.646192 604.489936 
L 135.928747 603.458701 
L 146.211302 602.1326 
L 153.066339 601.045192 
L 159.921376 599.761657 
L 166.776413 598.248116 
L 173.63145 596.465425 
L 180.486486 594.368598 
L 187.341523 591.906246 
L 194.19656 589.020106 
L 197.624079 587.397946 
L 201.051597 585.644719 
L 204.479115 583.751106 
L 207.906634 581.70734 
L 211.334152 579.503236 
L 214.761671 577.128209 
L 218.189189 574.571321 
L 221.616708 571.821322 
L 225.044226 568.866721 
L 228.471744 565.695856 
L 231.899263 562.296992 
L 235.326781 558.65843 
L 238.7543 554.768631 
L 242.181818 550.616364 
L 245.609337 546.190871 
L 249.036855 541.482043 
L 252.464373 536.480625 
L 255.891892 531.178424 
L 259.31941 525.568533 
L 262.746929 519.645566 
L 266.174447 513.405891 
L 269.601966 506.847867 
L 273.029484 499.972059 
L 276.457002 492.781452 
L 279.884521 485.28163 
L 283.312039 477.48092 
L 290.167076 461.024463 
L 297.022113 443.536339 
L 303.87715 425.185799 
L 310.732187 406.181967 
L 324.44226 367.192409 
L 334.724816 338.114545 
L 341.579853 319.275715 
L 348.434889 301.126179 
L 355.289926 283.840604 
L 362.144963 267.551385 
L 365.572482 259.80996 
L 369 252.347856 
L 372.427518 245.169913 
L 375.855037 238.278716 
L 379.282555 231.674785 
L 382.710074 225.356776 
L 386.137592 219.321688 
L 389.565111 213.565075 
L 392.992629 208.081248 
L 396.420147 202.86348 
L 399.847666 197.904187 
L 403.275184 193.195104 
L 406.702703 188.727449 
L 410.130221 184.492062 
L 413.55774 180.479537 
L 416.985258 176.680333 
L 420.412776 173.084876 
L 423.840295 169.683638 
L 427.267813 166.467212 
L 430.695332 163.426367 
L 434.12285 160.552101 
L 437.550369 157.835672 
L 440.977887 155.26863 
L 447.832924 150.550494 
L 454.687961 146.336594 
L 461.542998 142.571264 
L 468.398034 139.204233 
L 475.253071 136.190425 
L 482.108108 133.489638 
L 488.963145 131.066169 
L 495.818182 128.888411 
L 502.673219 126.92845 
L 509.528256 125.161673 
L 516.383292 123.566402 
L 526.665848 121.45396 
L 536.948403 119.629966 
L 547.230958 118.048953 
L 557.513514 116.673313 
L 571.223587 115.105505 
L 584.933661 113.788264 
L 598.643735 112.674702 
L 615.781327 111.513538 
L 622.636364 111.109091 
L 622.636364 111.109091 
" style="fill:none;stroke:#2ca02c;stroke-linecap:square;stroke-width:1.5;"/>
   </g>
   <g id="line2d_34">
    <path clip-path="url(#p6f66de676c)" d="M 115.363636 605.290909 
L 125.646192 604.489936 
L 135.928747 603.458701 
L 146.211302 602.1326 
L 153.066339 601.045192 
L 159.921376 599.761657 
L 166.776413 598.248116 
L 173.63145 596.465425 
L 180.486486 594.368598 
L 187.341523 591.906246 
L 194.19656 589.020107 
L 197.624079 587.397946 
L 201.051597 585.64472 
L 204.479115 583.751106 
L 207.906634 581.707341 
L 211.334152 579.503236 
L 214.761671 577.12821 
L 218.189189 574.571322 
L 221.616708 571.821323 
L 225.044226 568.866722 
L 228.471744 565.695857 
L 231.899263 562.296994 
L 235.326781 558.658432 
L 238.7543 554.768633 
L 242.181818 550.616366 
L 245.609337 546.190872 
L 249.036855 541.482045 
L 252.464373 536.480627 
L 255.891892 531.178426 
L 259.31941 525.568535 
L 262.746929 519.645568 
L 266.174447 513.405894 
L 269.601966 506.84787 
L 273.029484 499.972062 
L 276.457002 492.781456 
L 279.884521 485.281634 
L 283.312039 477.480924 
L 290.167076 461.024468 
L 297.022113 443.536345 
L 303.87715 425.185805 
L 310.732187 406.181975 
L 324.44226 367.192418 
L 334.724816 338.114554 
L 341.579853 319.275725 
L 348.434889 301.12619 
L 355.289926 283.840615 
L 362.144963 267.551397 
L 365.572482 259.809972 
L 369 252.347868 
L 372.427518 245.169925 
L 375.855037 238.278728 
L 379.282555 231.674798 
L 382.710074 225.356789 
L 386.137592 219.321701 
L 389.565111 213.565087 
L 392.992629 208.081261 
L 396.420147 202.863493 
L 399.847666 197.904199 
L 403.275184 193.195117 
L 406.702703 188.727462 
L 410.130221 184.492075 
L 413.55774 180.47955 
L 416.985258 176.680346 
L 420.412776 173.084889 
L 423.840295 169.683651 
L 427.267813 166.467224 
L 430.695332 163.42638 
L 434.12285 160.552114 
L 437.550369 157.835685 
L 440.977887 155.268643 
L 447.832924 150.550507 
L 454.687961 146.336607 
L 461.542998 142.571277 
L 468.398034 139.204246 
L 475.253071 136.190438 
L 482.108108 133.489651 
L 488.963145 131.066181 
L 495.818182 128.888423 
L 502.673219 126.928462 
L 509.528256 125.161686 
L 516.383292 123.566415 
L 526.665848 121.453973 
L 536.948403 119.629979 
L 547.230958 118.048966 
L 557.513514 116.673326 
L 571.223587 115.105517 
L 584.933661 113.788277 
L 598.643735 112.674715 
L 615.781327 111.51355 
L 622.636364 111.109103 
L 622.636364 111.109103 
" style="fill:none;stroke:#d62728;stroke-linecap:square;stroke-width:1.5;"/>
   </g>
   <g id="line2d_35">
    <path clip-path="url(#p6f66de676c)" d="M 115.363636 605.290909 
L 122.218673 605.18939 
L 129.07371 604.915393 
L 139.356265 604.233733 
L 149.638821 603.236764 
L 156.493857 602.379227 
L 163.348894 601.342993 
L 170.203931 600.099209 
L 177.058968 598.612105 
L 183.914005 596.838699 
L 190.769042 594.728252 
L 197.624079 592.221605 
L 201.051597 590.798749 
L 204.479115 589.250501 
L 207.906634 587.56681 
L 211.334152 585.736997 
L 214.761671 583.749749 
L 218.189189 581.593123 
L 221.616708 579.254567 
L 225.044226 576.720938 
L 228.471744 573.978547 
L 231.899263 571.013215 
L 235.326781 567.810344 
L 238.7543 564.355012 
L 242.181818 560.632092 
L 245.609337 556.626396 
L 249.036855 552.32284 
L 252.464373 547.706644 
L 255.891892 542.763564 
L 259.31941 537.480142 
L 262.746929 531.843995 
L 266.174447 525.844126 
L 269.601966 519.471256 
L 273.029484 512.718175 
L 276.457002 505.580101 
L 279.884521 498.05504 
L 283.312039 490.144132 
L 286.739558 481.851976 
L 290.167076 473.18692 
L 293.594595 464.161291 
L 300.449631 445.098446 
L 307.304668 424.845901 
L 314.159705 403.651102 
L 324.44226 370.768121 
L 338.152334 326.744725 
L 345.007371 305.463639 
L 351.862408 285.100978 
L 358.717445 265.917387 
L 362.144963 256.831747 
L 365.572482 248.109158 
L 369 239.76349 
L 372.427518 231.804471 
L 375.855037 224.237893 
L 379.282555 217.065882 
L 382.710074 210.287208 
L 386.137592 203.897628 
L 389.565111 197.890254 
L 392.992629 192.255921 
L 396.420147 186.983552 
L 399.847666 182.060512 
L 403.275184 177.472943 
L 406.702703 173.20607 
L 410.130221 169.244485 
L 413.55774 165.572397 
L 416.985258 162.173853 
L 420.412776 159.032928 
L 423.840295 156.133888 
L 427.267813 153.461326 
L 430.695332 151.000265 
L 434.12285 148.73625 
L 437.550369 146.655411 
L 440.977887 144.744509 
L 444.405405 142.990968 
L 447.832924 141.382896 
L 451.260442 139.909086 
L 458.115479 137.322843 
L 464.970516 135.15606 
L 471.825553 133.342703 
L 478.68059 131.82606 
L 485.535627 130.55779 
L 492.390663 129.49695 
L 499.2457 128.609045 
L 509.528256 127.539457 
L 519.810811 126.716578 
L 533.520885 125.902366 
L 547.230958 125.319779 
L 564.36855 124.812021 
L 588.361179 124.360164 
L 619.208845 124.027496 
L 622.636364 124.001198 
L 622.636364 124.001198 
" style="fill:none;stroke:#9467bd;stroke-linecap:square;stroke-width:1.5;"/>
   </g>
   <g id="line2d_36">
    <path clip-path="url(#p6f66de676c)" d="M 115.363636 605.290909 
L 122.218673 605.18939 
L 129.07371 604.915393 
L 139.356265 604.233733 
L 149.638821 603.236764 
L 156.493857 602.379227 
L 163.348894 601.342993 
L 170.203931 600.099209 
L 177.058968 598.612105 
L 183.914005 596.838699 
L 190.769042 594.728252 
L 197.624079 592.221605 
L 201.051597 590.798749 
L 204.479115 589.250501 
L 207.906634 587.56681 
L 211.334152 585.736997 
L 214.761671 583.749749 
L 218.189189 581.593123 
L 221.616708 579.254567 
L 225.044226 576.720938 
L 228.471744 573.978547 
L 231.899263 571.013215 
L 235.326781 567.810344 
L 238.7543 564.355012 
L 242.181818 560.632092 
L 245.609337 556.626396 
L 249.036855 552.322839 
L 252.464373 547.706644 
L 255.891892 542.763564 
L 259.31941 537.480142 
L 262.746929 531.843995 
L 266.174447 525.844126 
L 269.601966 519.471256 
L 273.029484 512.718175 
L 276.457002 505.580101 
L 279.884521 498.05504 
L 283.312039 490.144131 
L 286.739558 481.851976 
L 290.167076 473.18692 
L 293.594595 464.161291 
L 300.449631 445.098446 
L 307.304668 424.845901 
L 314.159705 403.651102 
L 324.44226 370.768121 
L 338.152334 326.744725 
L 345.007371 305.463639 
L 351.862408 285.100978 
L 358.717445 265.917387 
L 362.144963 256.831747 
L 365.572482 248.109159 
L 369 239.763491 
L 372.427518 231.804471 
L 375.855037 224.237894 
L 379.282555 217.065883 
L 382.710074 210.287209 
L 386.137592 203.897629 
L 389.565111 197.890255 
L 392.992629 192.255922 
L 396.420147 186.983553 
L 399.847666 182.060513 
L 403.275184 177.472944 
L 406.702703 173.206071 
L 410.130221 169.244486 
L 413.55774 165.572398 
L 416.985258 162.173854 
L 420.412776 159.032929 
L 423.840295 156.13389 
L 427.267813 153.461327 
L 430.695332 151.000267 
L 434.12285 148.736252 
L 437.550369 146.655413 
L 440.977887 144.74451 
L 444.405405 142.99097 
L 447.832924 141.382897 
L 451.260442 139.909087 
L 458.115479 137.322845 
L 464.970516 135.156061 
L 471.825553 133.342705 
L 478.68059 131.826062 
L 485.535627 130.557792 
L 492.390663 129.496952 
L 499.2457 128.609047 
L 509.528256 127.539459 
L 519.810811 126.716579 
L 533.520885 125.902368 
L 547.230958 125.319781 
L 564.36855 124.812023 
L 588.361179 124.360166 
L 619.208845 124.027498 
L 622.636364 124.0012 
L 622.636364 124.0012 
" style="fill:none;stroke:#8c564b;stroke-linecap:square;stroke-width:1.5;"/>
   </g>
   <g id="line2d_37">
    <path clip-path="url(#p6f66de676c)" d="M 115.363636 605.290909 
L 122.218673 605.191152 
L 129.07371 604.921055 
L 139.356265 604.246948 
L 149.638821 603.258759 
L 156.493857 602.407874 
L 163.348894 601.379183 
L 170.203931 600.144109 
L 177.058968 598.667192 
L 183.914005 596.905794 
L 190.769042 594.80955 
L 197.624079 592.319715 
L 201.051597 590.906381 
L 204.479115 589.368478 
L 207.906634 587.696016 
L 211.334152 585.878377 
L 214.761671 583.904312 
L 218.189189 581.761943 
L 221.616708 579.43878 
L 225.044226 576.921741 
L 228.471744 574.197197 
L 231.899263 571.251023 
L 235.326781 568.068668 
L 238.7543 564.635252 
L 242.181818 560.935678 
L 245.609337 556.954773 
L 249.036855 552.677454 
L 252.464373 548.088926 
L 255.891892 543.1749 
L 259.31941 537.921855 
L 262.746929 532.317311 
L 266.174447 526.350143 
L 269.601966 520.010907 
L 273.029484 513.292189 
L 276.457002 506.188963 
L 279.884521 498.698944 
L 283.312039 490.822942 
L 286.739558 482.56518 
L 290.167076 473.933588 
L 293.594595 464.940037 
L 297.022113 455.600515 
L 303.87715 435.968544 
L 310.732187 415.249025 
L 317.587224 393.714837 
L 345.007371 306.22812 
L 351.862408 285.761553 
L 358.717445 266.45121 
L 362.144963 257.294732 
L 365.572482 248.497031 
L 369 240.072544 
L 372.427518 232.031593 
L 375.855037 224.380575 
L 379.282555 217.122219 
L 382.710074 210.255887 
L 386.137592 203.77791 
L 389.565111 197.681948 
L 392.992629 191.959346 
L 396.420147 186.599501 
L 399.847666 181.590211 
L 403.275184 176.918004 
L 406.702703 172.568447 
L 410.130221 168.526427 
L 413.55774 164.776403 
L 416.985258 161.302628 
L 420.412776 158.089343 
L 423.840295 155.12094 
L 427.267813 152.382098 
L 430.695332 149.8579 
L 434.12285 147.533914 
L 437.550369 145.396269 
L 440.977887 143.431702 
L 444.405405 141.627592 
L 447.832924 139.971983 
L 451.260442 138.45359 
L 458.115479 135.786674 
L 464.970516 133.549838 
L 471.825553 131.676131 
L 478.68059 130.107885 
L 485.535627 128.795806 
L 492.390663 127.69803 
L 499.2457 126.779195 
L 509.528256 125.672736 
L 519.810811 124.822317 
L 533.520885 123.98246 
L 547.230958 123.383452 
L 564.36855 122.86388 
L 588.361179 122.405175 
L 619.208845 122.071659 
L 622.636364 122.045534 
L 622.636364 122.045534 
" style="fill:none;stroke:#e377c2;stroke-linecap:square;stroke-width:1.5;"/>
   </g>
   <g id="line2d_38">
    <path clip-path="url(#p6f66de676c)" d="M 115.363636 605.290909 
L 122.218673 605.207938 
L 132.501229 604.804051 
L 142.783784 604.087333 
L 149.638821 603.427149 
L 156.493857 602.603124 
L 163.348894 601.591628 
L 170.203931 600.361808 
L 177.058968 598.875306 
L 183.914005 597.085745 
L 190.769042 594.938053 
L 197.624079 592.367759 
L 201.051597 590.901253 
L 204.479115 589.300336 
L 207.906634 587.554049 
L 211.334152 585.650772 
L 214.761671 583.578234 
L 218.189189 581.323535 
L 221.616708 578.873191 
L 225.044226 576.213178 
L 228.471744 573.329017 
L 231.899263 570.205862 
L 235.326781 566.828627 
L 238.7543 563.182127 
L 242.181818 559.251262 
L 245.609337 555.021216 
L 249.036855 550.477701 
L 252.464373 545.607219 
L 255.891892 540.397362 
L 259.31941 534.837133 
L 262.746929 528.917283 
L 266.174447 522.630672 
L 269.601966 515.972619 
L 273.029484 508.941258 
L 276.457002 501.537867 
L 279.884521 493.767159 
L 283.312039 485.637533 
L 286.739558 477.161251 
L 290.167076 468.354545 
L 297.022113 449.834581 
L 303.87715 430.284714 
L 310.732187 409.965546 
L 324.44226 368.240031 
L 334.724816 337.251418 
L 341.579853 317.294873 
L 348.434889 298.186362 
L 355.289926 280.113374 
L 358.717445 271.508786 
L 362.144963 263.208643 
L 365.572482 255.221353 
L 369 247.55239 
L 372.427518 240.204531 
L 375.855037 233.178118 
L 379.282555 226.471327 
L 382.710074 220.080442 
L 386.137592 214.000117 
L 389.565111 208.223632 
L 392.992629 202.743135 
L 396.420147 197.54986 
L 399.847666 192.634327 
L 403.275184 187.986529 
L 406.702703 183.596085 
L 410.130221 179.452386 
L 413.55774 175.544711 
L 416.985258 171.862336 
L 420.412776 168.394616 
L 423.840295 165.13106 
L 427.267813 162.06139 
L 430.695332 159.175586 
L 434.12285 156.463924 
L 437.550369 153.917007 
L 440.977887 151.52578 
L 444.405405 149.281546 
L 447.832924 147.175976 
L 454.687961 143.349353 
L 461.542998 139.986633 
L 468.398034 137.034278 
L 475.253071 134.44421 
L 482.108108 132.173455 
L 488.963145 130.183747 
L 495.818182 128.44112 
L 502.673219 126.9155 
L 509.528256 125.580315 
L 516.383292 124.41213 
L 526.665848 122.928517 
L 536.948403 121.715328 
L 547.230958 120.723611 
L 560.941032 119.67738 
L 574.651106 118.878232 
L 591.788698 118.139371 
L 612.353808 117.526111 
L 622.636364 117.300831 
L 622.636364 117.300831 
" style="fill:none;stroke:#7f7f7f;stroke-linecap:square;stroke-width:1.5;"/>
   </g>
   <g id="line2d_39">
    <path clip-path="url(#p6f66de676c)" d="M 115.363636 605.290909 
L 122.218673 605.211104 
L 132.501229 604.822744 
L 142.783784 604.13385 
L 149.638821 603.49949 
L 156.493857 602.707855 
L 163.348894 601.736235 
L 170.203931 600.554923 
L 177.058968 599.126911 
L 183.914005 597.407341 
L 190.769042 595.34279 
L 197.624079 592.870477 
L 201.051597 591.459039 
L 204.479115 589.917491 
L 207.906634 588.235034 
L 211.334152 586.400174 
L 214.761671 584.400726 
L 218.189189 582.223821 
L 221.616708 579.855934 
L 225.044226 577.28292 
L 228.471744 574.490075 
L 231.899263 571.46221 
L 235.326781 568.183752 
L 238.7543 564.638872 
L 242.181818 560.811639 
L 245.609337 556.686207 
L 249.036855 552.247032 
L 252.464373 547.479126 
L 255.891892 542.368339 
L 259.31941 536.901678 
L 262.746929 531.067649 
L 266.174447 524.856623 
L 269.601966 518.261224 
L 273.029484 511.276712 
L 276.457002 503.901367 
L 279.884521 496.136856 
L 283.312039 487.988557 
L 286.739558 479.465842 
L 290.167076 470.582278 
L 293.594595 461.355758 
L 300.449631 441.967093 
L 307.304668 421.527675 
L 314.159705 400.324379 
L 338.152334 325.011191 
L 345.007371 304.579003 
L 351.862408 285.155645 
L 355.289926 275.8867 
L 358.717445 266.939315 
L 362.144963 258.328332 
L 365.572482 250.06477 
L 369 242.156031 
L 372.427518 234.606154 
L 375.855037 227.416111 
L 379.282555 220.584121 
L 382.710074 214.105979 
L 386.137592 207.975392 
L 389.565111 202.184294 
L 392.992629 196.723155 
L 396.420147 191.581274 
L 399.847666 186.747037 
L 403.275184 182.20816 
L 406.702703 177.9519 
L 410.130221 173.965244 
L 413.55774 170.235067 
L 416.985258 166.748273 
L 420.412776 163.49191 
L 423.840295 160.453262 
L 427.267813 157.619928 
L 430.695332 154.979882 
L 434.12285 152.521519 
L 437.550369 150.233688 
L 440.977887 148.105715 
L 444.405405 146.12742 
L 447.832924 144.289118 
L 454.687961 140.996245 
L 461.542998 138.159478 
L 468.398034 135.718737 
L 475.253071 133.620992 
L 482.108108 131.819691 
L 488.963145 130.274145 
L 495.818182 128.948923 
L 502.673219 127.813261 
L 512.955774 126.407916 
L 523.238329 125.294845 
L 533.520885 124.413895 
L 547.230958 123.518841 
L 560.941032 122.864559 
L 578.078624 122.288723 
L 598.643735 121.838945 
L 622.636364 121.523154 
L 622.636364 121.523154 
" style="fill:none;stroke:#bcbd22;stroke-linecap:square;stroke-width:1.5;"/>
   </g>
   <g id="line2d_40">
    <path clip-path="url(#p6f66de676c)" d="M 115.363636 605.290909 
L 118.791155 604.520996 
L 129.07371 604.520996 
L 132.501229 603.597101 
L 142.783784 603.597101 
L 146.211302 602.519224 
L 153.066339 602.519224 
L 156.493857 602.365241 
L 166.776413 602.365241 
L 170.203931 602.211259 
L 173.63145 602.211259 
L 177.058968 602.057276 
L 201.051597 602.057276 
L 204.479115 601.749311 
L 207.906634 601.287363 
L 211.334152 601.287363 
L 218.189189 600.979398 
L 221.616708 600.979398 
L 225.044226 600.825416 
L 231.899263 600.825416 
L 235.326781 600.209486 
L 238.7543 600.055503 
L 242.181818 599.747538 
L 249.036855 599.747538 
L 252.464373 599.285591 
L 255.891892 598.361696 
L 259.31941 596.667888 
L 262.746929 595.897975 
L 266.174447 594.820097 
L 276.457002 580.191758 
L 279.884521 574.802369 
L 283.312039 565.563418 
L 286.739558 557.864292 
L 290.167076 544.159847 
L 293.594595 515.211133 
L 297.022113 496.425265 
L 303.87715 463.626988 
L 307.304668 446.534927 
L 310.732187 432.522518 
L 314.159705 415.738423 
L 317.587224 393.718922 
L 321.014742 372.777299 
L 324.44226 353.221518 
L 327.869779 334.743615 
L 334.724816 302.869233 
L 338.152334 289.164788 
L 341.579853 273.458571 
L 345.007371 265.605462 
L 348.434889 259.754127 
L 351.862408 242.662066 
L 355.289926 234.34701 
L 358.717445 226.647884 
L 362.144963 219.71867 
L 365.572482 214.637247 
L 369 210.325736 
L 372.427518 205.090331 
L 379.282555 196.005362 
L 382.710074 191.693851 
L 389.565111 181.684987 
L 392.992629 177.527459 
L 396.420147 174.601791 
L 399.847666 172.292053 
L 403.275184 170.29028 
L 406.702703 167.980543 
L 410.130221 159.819469 
L 413.55774 157.509731 
L 416.985258 156.123888 
L 420.412776 155.046011 
L 423.840295 153.660168 
L 427.267813 152.58229 
L 434.12285 150.7345 
L 437.550369 150.272552 
L 440.977887 147.500867 
L 447.832924 147.192902 
L 451.260442 146.730954 
L 454.687961 145.499094 
L 458.115479 144.883164 
L 461.542998 144.113251 
L 464.970516 143.189356 
L 468.398034 142.881391 
L 471.825553 142.881391 
L 475.253071 142.727409 
L 478.68059 141.649531 
L 482.108108 141.649531 
L 488.963145 140.725636 
L 492.390663 140.417671 
L 495.818182 140.263688 
L 499.2457 139.801741 
L 502.673219 139.801741 
L 506.100737 139.339793 
L 509.528256 139.339793 
L 512.955774 139.031828 
L 516.383292 138.569881 
L 519.810811 137.184038 
L 526.665848 133.796422 
L 530.093366 133.64244 
L 533.520885 133.02651 
L 543.80344 132.564562 
L 547.230958 129.946859 
L 550.658477 129.792877 
L 554.085995 129.484912 
L 557.513514 128.253051 
L 560.941032 127.175174 
L 564.36855 126.867209 
L 567.796069 126.251279 
L 571.223587 126.251279 
L 574.651106 125.635349 
L 578.078624 124.865436 
L 581.506143 124.711453 
L 591.788698 124.711453 
L 595.216216 123.787558 
L 598.643735 123.017646 
L 605.498771 122.709681 
L 608.92629 122.247733 
L 612.353808 121.47782 
L 619.208845 121.169855 
L 622.636364 120.553925 
L 622.636364 120.553925 
" style="fill:none;stroke:#17becf;stroke-dasharray:14.8,6.4;stroke-dashoffset:0;stroke-width:4;"/>
   </g>
   <g id="patch_3">
    <path d="M 90 630 
L 90 86.4 
" style="fill:none;stroke:#000000;stroke-linecap:square;stroke-linejoin:miter;stroke-width:0.8;"/>
   </g>
   <g id="patch_4">
    <path d="M 648 630 
L 648 86.4 
" style="fill:none;stroke:#000000;stroke-linecap:square;stroke-linejoin:miter;stroke-width:0.8;"/>
   </g>
   <g id="patch_5">
    <path d="M 90 630 
L 648 630 
" style="fill:none;stroke:#000000;stroke-linecap:square;stroke-linejoin:miter;stroke-width:0.8;"/>
   </g>
   <g id="patch_6">
    <path d="M 90 86.4 
L 648 86.4 
" style="fill:none;stroke:#000000;stroke-linecap:square;stroke-linejoin:miter;stroke-width:0.8;"/>
   </g>
   <g id="text_18">
    <!-- Thailand relative err =  -->
    <g transform="translate(299.429062 80.4)scale(0.12 -0.12)">
     <defs>
      <path d="M -0.296875 72.90625 
L 61.375 72.90625 
L 61.375 64.59375 
L 35.5 64.59375 
L 35.5 0 
L 25.59375 0 
L 25.59375 64.59375 
L -0.296875 64.59375 
z
" id="DejaVuSans-84"/>
      <path d="M 54.890625 33.015625 
L 54.890625 0 
L 45.90625 0 
L 45.90625 32.71875 
Q 45.90625 40.484375 42.875 44.328125 
Q 39.84375 48.1875 33.796875 48.1875 
Q 26.515625 48.1875 22.3125 43.546875 
Q 18.109375 38.921875 18.109375 30.90625 
L 18.109375 0 
L 9.078125 0 
L 9.078125 75.984375 
L 18.109375 75.984375 
L 18.109375 46.1875 
Q 21.34375 51.125 25.703125 53.5625 
Q 30.078125 56 35.796875 56 
Q 45.21875 56 50.046875 50.171875 
Q 54.890625 44.34375 54.890625 33.015625 
z
" id="DejaVuSans-104"/>
      <path d="M 54.890625 33.015625 
L 54.890625 0 
L 45.90625 0 
L 45.90625 32.71875 
Q 45.90625 40.484375 42.875 44.328125 
Q 39.84375 48.1875 33.796875 48.1875 
Q 26.515625 48.1875 22.3125 43.546875 
Q 18.109375 38.921875 18.109375 30.90625 
L 18.109375 0 
L 9.078125 0 
L 9.078125 54.6875 
L 18.109375 54.6875 
L 18.109375 46.1875 
Q 21.34375 51.125 25.703125 53.5625 
Q 30.078125 56 35.796875 56 
Q 45.21875 56 50.046875 50.171875 
Q 54.890625 44.34375 54.890625 33.015625 
z
" id="DejaVuSans-110"/>
      <path d="M 45.40625 46.390625 
L 45.40625 75.984375 
L 54.390625 75.984375 
L 54.390625 0 
L 45.40625 0 
L 45.40625 8.203125 
Q 42.578125 3.328125 38.25 0.953125 
Q 33.9375 -1.421875 27.875 -1.421875 
Q 17.96875 -1.421875 11.734375 6.484375 
Q 5.515625 14.40625 5.515625 27.296875 
Q 5.515625 40.1875 11.734375 48.09375 
Q 17.96875 56 27.875 56 
Q 33.9375 56 38.25 53.625 
Q 42.578125 51.265625 45.40625 46.390625 
z
M 14.796875 27.296875 
Q 14.796875 17.390625 18.875 11.75 
Q 22.953125 6.109375 30.078125 6.109375 
Q 37.203125 6.109375 41.296875 11.75 
Q 45.40625 17.390625 45.40625 27.296875 
Q 45.40625 37.203125 41.296875 42.84375 
Q 37.203125 48.484375 30.078125 48.484375 
Q 22.953125 48.484375 18.875 42.84375 
Q 14.796875 37.203125 14.796875 27.296875 
z
" id="DejaVuSans-100"/>
      <path d="M 41.109375 46.296875 
Q 39.59375 47.171875 37.8125 47.578125 
Q 36.03125 48 33.890625 48 
Q 26.265625 48 22.1875 43.046875 
Q 18.109375 38.09375 18.109375 28.8125 
L 18.109375 0 
L 9.078125 0 
L 9.078125 54.6875 
L 18.109375 54.6875 
L 18.109375 46.1875 
Q 20.953125 51.171875 25.484375 53.578125 
Q 30.03125 56 36.53125 56 
Q 37.453125 56 38.578125 55.875 
Q 39.703125 55.765625 41.0625 55.515625 
z
" id="DejaVuSans-114"/>
      <path d="M 10.59375 45.40625 
L 73.1875 45.40625 
L 73.1875 37.203125 
L 10.59375 37.203125 
z
M 10.59375 25.484375 
L 73.1875 25.484375 
L 73.1875 17.1875 
L 10.59375 17.1875 
z
" id="DejaVuSans-61"/>
     </defs>
     <use xlink:href="#DejaVuSans-84"/>
     <use x="61.083984" xlink:href="#DejaVuSans-104"/>
     <use x="124.462891" xlink:href="#DejaVuSans-97"/>
     <use x="185.742188" xlink:href="#DejaVuSans-105"/>
     <use x="213.525391" xlink:href="#DejaVuSans-108"/>
     <use x="241.308594" xlink:href="#DejaVuSans-97"/>
     <use x="302.587891" xlink:href="#DejaVuSans-110"/>
     <use x="365.966797" xlink:href="#DejaVuSans-100"/>
     <use x="429.443359" xlink:href="#DejaVuSans-32"/>
     <use x="461.230469" xlink:href="#DejaVuSans-114"/>
     <use x="500.09375" xlink:href="#DejaVuSans-101"/>
     <use x="561.617188" xlink:href="#DejaVuSans-108"/>
     <use x="589.400391" xlink:href="#DejaVuSans-97"/>
     <use x="650.679688" xlink:href="#DejaVuSans-116"/>
     <use x="689.888672" xlink:href="#DejaVuSans-105"/>
     <use x="717.671875" xlink:href="#DejaVuSans-118"/>
     <use x="776.851562" xlink:href="#DejaVuSans-101"/>
     <use x="838.375" xlink:href="#DejaVuSans-32"/>
     <use x="870.162109" xlink:href="#DejaVuSans-101"/>
     <use x="931.685547" xlink:href="#DejaVuSans-114"/>
     <use x="971.048828" xlink:href="#DejaVuSans-114"/>
     <use x="1012.162109" xlink:href="#DejaVuSans-32"/>
     <use x="1043.949219" xlink:href="#DejaVuSans-61"/>
     <use x="1127.738281" xlink:href="#DejaVuSans-32"/>
    </g>
   </g>
   <g id="legend_1">
    <g id="patch_7">
     <path d="M 97 226.503125 
L 185.6 226.503125 
Q 187.6 226.503125 187.6 224.503125 
L 187.6 93.4 
Q 187.6 91.4 185.6 91.4 
L 97 91.4 
Q 95 91.4 95 93.4 
L 95 224.503125 
Q 95 226.503125 97 226.503125 
z
" style="fill:#ffffff;opacity:0.8;stroke:#cccccc;stroke-linejoin:miter;"/>
    </g>
    <g id="line2d_41">
     <path d="M 99 99.498438 
L 119 99.498438 
" style="fill:none;stroke:#1f77b4;stroke-linecap:square;stroke-width:1.5;"/>
    </g>
    <g id="line2d_42"/>
    <g id="text_19">
     <!-- SI -->
     <g transform="translate(127 102.998438)scale(0.1 -0.1)">
      <defs>
       <path d="M 53.515625 70.515625 
L 53.515625 60.890625 
Q 47.90625 63.578125 42.921875 64.890625 
Q 37.9375 66.21875 33.296875 66.21875 
Q 25.25 66.21875 20.875 63.09375 
Q 16.5 59.96875 16.5 54.203125 
Q 16.5 49.359375 19.40625 46.890625 
Q 22.3125 44.4375 30.421875 42.921875 
L 36.375 41.703125 
Q 47.40625 39.59375 52.65625 34.296875 
Q 57.90625 29 57.90625 20.125 
Q 57.90625 9.515625 50.796875 4.046875 
Q 43.703125 -1.421875 29.984375 -1.421875 
Q 24.8125 -1.421875 18.96875 -0.25 
Q 13.140625 0.921875 6.890625 3.21875 
L 6.890625 13.375 
Q 12.890625 10.015625 18.65625 8.296875 
Q 24.421875 6.59375 29.984375 6.59375 
Q 38.421875 6.59375 43.015625 9.90625 
Q 47.609375 13.234375 47.609375 19.390625 
Q 47.609375 24.75 44.3125 27.78125 
Q 41.015625 30.8125 33.5 32.328125 
L 27.484375 33.5 
Q 16.453125 35.6875 11.515625 40.375 
Q 6.59375 45.0625 6.59375 53.421875 
Q 6.59375 63.09375 13.40625 68.65625 
Q 20.21875 74.21875 32.171875 74.21875 
Q 37.3125 74.21875 42.625 73.28125 
Q 47.953125 72.359375 53.515625 70.515625 
z
" id="DejaVuSans-83"/>
       <path d="M 9.8125 72.90625 
L 19.671875 72.90625 
L 19.671875 0 
L 9.8125 0 
z
" id="DejaVuSans-73"/>
      </defs>
      <use xlink:href="#DejaVuSans-83"/>
      <use x="63.476562" xlink:href="#DejaVuSans-73"/>
     </g>
    </g>
    <g id="line2d_43">
     <path d="M 99 114.176563 
L 119 114.176563 
" style="fill:none;stroke:#ff7f0e;stroke-linecap:square;stroke-width:1.5;"/>
    </g>
    <g id="line2d_44"/>
    <g id="text_20">
     <!-- BD -->
     <g transform="translate(127 117.676563)scale(0.1 -0.1)">
      <defs>
       <path d="M 19.671875 34.8125 
L 19.671875 8.109375 
L 35.5 8.109375 
Q 43.453125 8.109375 47.28125 11.40625 
Q 51.125 14.703125 51.125 21.484375 
Q 51.125 28.328125 47.28125 31.5625 
Q 43.453125 34.8125 35.5 34.8125 
z
M 19.671875 64.796875 
L 19.671875 42.828125 
L 34.28125 42.828125 
Q 41.5 42.828125 45.03125 45.53125 
Q 48.578125 48.25 48.578125 53.8125 
Q 48.578125 59.328125 45.03125 62.0625 
Q 41.5 64.796875 34.28125 64.796875 
z
M 9.8125 72.90625 
L 35.015625 72.90625 
Q 46.296875 72.90625 52.390625 68.21875 
Q 58.5 63.53125 58.5 54.890625 
Q 58.5 48.1875 55.375 44.234375 
Q 52.25 40.28125 46.1875 39.3125 
Q 53.46875 37.75 57.5 32.78125 
Q 61.53125 27.828125 61.53125 20.40625 
Q 61.53125 10.640625 54.890625 5.3125 
Q 48.25 0 35.984375 0 
L 9.8125 0 
z
" id="DejaVuSans-66"/>
      </defs>
      <use xlink:href="#DejaVuSans-66"/>
      <use x="68.603516" xlink:href="#DejaVuSans-68"/>
     </g>
    </g>
    <g id="line2d_45">
     <path d="M 99 128.854688 
L 119 128.854688 
" style="fill:none;stroke:#2ca02c;stroke-linecap:square;stroke-width:1.5;"/>
    </g>
    <g id="line2d_46"/>
    <g id="text_21">
     <!-- SIR -->
     <g transform="translate(127 132.354688)scale(0.1 -0.1)">
      <defs>
       <path d="M 44.390625 34.1875 
Q 47.5625 33.109375 50.5625 29.59375 
Q 53.5625 26.078125 56.59375 19.921875 
L 66.609375 0 
L 56 0 
L 46.6875 18.703125 
Q 43.0625 26.03125 39.671875 28.421875 
Q 36.28125 30.8125 30.421875 30.8125 
L 19.671875 30.8125 
L 19.671875 0 
L 9.8125 0 
L 9.8125 72.90625 
L 32.078125 72.90625 
Q 44.578125 72.90625 50.734375 67.671875 
Q 56.890625 62.453125 56.890625 51.90625 
Q 56.890625 45.015625 53.6875 40.46875 
Q 50.484375 35.9375 44.390625 34.1875 
z
M 19.671875 64.796875 
L 19.671875 38.921875 
L 32.078125 38.921875 
Q 39.203125 38.921875 42.84375 42.21875 
Q 46.484375 45.515625 46.484375 51.90625 
Q 46.484375 58.296875 42.84375 61.546875 
Q 39.203125 64.796875 32.078125 64.796875 
z
" id="DejaVuSans-82"/>
      </defs>
      <use xlink:href="#DejaVuSans-83"/>
      <use x="63.476562" xlink:href="#DejaVuSans-73"/>
      <use x="92.96875" xlink:href="#DejaVuSans-82"/>
     </g>
    </g>
    <g id="line2d_47">
     <path d="M 99 143.532812 
L 119 143.532812 
" style="fill:none;stroke:#d62728;stroke-linecap:square;stroke-width:1.5;"/>
    </g>
    <g id="line2d_48"/>
    <g id="text_22">
     <!-- eSIR -->
     <g transform="translate(127 147.032812)scale(0.1 -0.1)">
      <use xlink:href="#DejaVuSans-101"/>
      <use x="61.523438" xlink:href="#DejaVuSans-83"/>
      <use x="125" xlink:href="#DejaVuSans-73"/>
      <use x="154.492188" xlink:href="#DejaVuSans-82"/>
     </g>
    </g>
    <g id="line2d_49">
     <path d="M 99 158.210938 
L 119 158.210938 
" style="fill:none;stroke:#9467bd;stroke-linecap:square;stroke-width:1.5;"/>
    </g>
    <g id="line2d_50"/>
    <g id="text_23">
     <!-- SEIR -->
     <g transform="translate(127 161.710938)scale(0.1 -0.1)">
      <defs>
       <path d="M 9.8125 72.90625 
L 55.90625 72.90625 
L 55.90625 64.59375 
L 19.671875 64.59375 
L 19.671875 43.015625 
L 54.390625 43.015625 
L 54.390625 34.71875 
L 19.671875 34.71875 
L 19.671875 8.296875 
L 56.78125 8.296875 
L 56.78125 0 
L 9.8125 0 
z
" id="DejaVuSans-69"/>
      </defs>
      <use xlink:href="#DejaVuSans-83"/>
      <use x="63.476562" xlink:href="#DejaVuSans-69"/>
      <use x="126.660156" xlink:href="#DejaVuSans-73"/>
      <use x="156.152344" xlink:href="#DejaVuSans-82"/>
     </g>
    </g>
    <g id="line2d_51">
     <path d="M 99 172.889063 
L 119 172.889063 
" style="fill:none;stroke:#8c564b;stroke-linecap:square;stroke-width:1.5;"/>
    </g>
    <g id="line2d_52"/>
    <g id="text_24">
     <!-- eSEIR -->
     <g transform="translate(127 176.389063)scale(0.1 -0.1)">
      <use xlink:href="#DejaVuSans-101"/>
      <use x="61.523438" xlink:href="#DejaVuSans-83"/>
      <use x="125" xlink:href="#DejaVuSans-69"/>
      <use x="188.183594" xlink:href="#DejaVuSans-73"/>
      <use x="217.675781" xlink:href="#DejaVuSans-82"/>
     </g>
    </g>
    <g id="line2d_53">
     <path d="M 99 187.567188 
L 119 187.567188 
" style="fill:none;stroke:#e377c2;stroke-linecap:square;stroke-width:1.5;"/>
    </g>
    <g id="line2d_54"/>
    <g id="text_25">
     <!-- SEIUR -->
     <g transform="translate(127 191.067188)scale(0.1 -0.1)">
      <defs>
       <path d="M 8.6875 72.90625 
L 18.609375 72.90625 
L 18.609375 28.609375 
Q 18.609375 16.890625 22.84375 11.734375 
Q 27.09375 6.59375 36.625 6.59375 
Q 46.09375 6.59375 50.34375 11.734375 
Q 54.59375 16.890625 54.59375 28.609375 
L 54.59375 72.90625 
L 64.5 72.90625 
L 64.5 27.390625 
Q 64.5 13.140625 57.4375 5.859375 
Q 50.390625 -1.421875 36.625 -1.421875 
Q 22.796875 -1.421875 15.734375 5.859375 
Q 8.6875 13.140625 8.6875 27.390625 
z
" id="DejaVuSans-85"/>
      </defs>
      <use xlink:href="#DejaVuSans-83"/>
      <use x="63.476562" xlink:href="#DejaVuSans-69"/>
      <use x="126.660156" xlink:href="#DejaVuSans-73"/>
      <use x="156.152344" xlink:href="#DejaVuSans-85"/>
      <use x="229.345703" xlink:href="#DejaVuSans-82"/>
     </g>
    </g>
    <g id="line2d_55">
     <path d="M 99 202.245312 
L 119 202.245312 
" style="fill:none;stroke:#7f7f7f;stroke-linecap:square;stroke-width:1.5;"/>
    </g>
    <g id="line2d_56"/>
    <g id="text_26">
     <!-- eSEIUR -->
     <g transform="translate(127 205.745312)scale(0.1 -0.1)">
      <use xlink:href="#DejaVuSans-101"/>
      <use x="61.523438" xlink:href="#DejaVuSans-83"/>
      <use x="125" xlink:href="#DejaVuSans-69"/>
      <use x="188.183594" xlink:href="#DejaVuSans-73"/>
      <use x="217.675781" xlink:href="#DejaVuSans-85"/>
      <use x="290.869141" xlink:href="#DejaVuSans-82"/>
     </g>
    </g>
    <g id="line2d_57">
     <path d="M 99 216.923437 
L 119 216.923437 
" style="fill:none;stroke:#bcbd22;stroke-linecap:square;stroke-width:1.5;"/>
    </g>
    <g id="line2d_58"/>
    <g id="text_27">
     <!-- eSEIUR$^{range}$ -->
     <g transform="translate(127 220.423437)scale(0.1 -0.1)">
      <defs>
       <path d="M 44.578125 46.390625 
Q 43.21875 47.125 41.453125 47.515625 
Q 39.703125 47.90625 37.703125 47.90625 
Q 30.515625 47.90625 25.140625 42.453125 
Q 19.78125 37.015625 18.015625 27.875 
L 12.5 0 
L 3.515625 0 
L 14.203125 54.6875 
L 23.1875 54.6875 
L 21.484375 46.1875 
Q 25.046875 50.921875 30 53.453125 
Q 34.96875 56 40.578125 56 
Q 42.046875 56 43.453125 55.828125 
Q 44.875 55.671875 46.296875 55.28125 
z
" id="DejaVuSans-Oblique-114"/>
       <path d="M 53.71875 31.203125 
L 47.609375 0 
L 38.625 0 
L 40.28125 8.296875 
Q 36.328125 3.421875 31.265625 1 
Q 26.21875 -1.421875 20.015625 -1.421875 
Q 13.03125 -1.421875 8.5625 2.84375 
Q 4.109375 7.125 4.109375 13.8125 
Q 4.109375 23.390625 11.75 28.953125 
Q 19.390625 34.515625 32.8125 34.515625 
L 45.3125 34.515625 
L 45.796875 36.921875 
Q 45.90625 37.3125 45.953125 37.765625 
Q 46 38.234375 46 39.203125 
Q 46 43.5625 42.453125 45.96875 
Q 38.921875 48.390625 32.515625 48.390625 
Q 28.125 48.390625 23.5 47.265625 
Q 18.890625 46.140625 14.015625 43.890625 
L 15.578125 52.203125 
Q 20.65625 54.109375 25.515625 55.046875 
Q 30.375 56 34.90625 56 
Q 44.578125 56 49.625 51.796875 
Q 54.6875 47.609375 54.6875 39.59375 
Q 54.6875 37.984375 54.4375 35.8125 
Q 54.203125 33.640625 53.71875 31.203125 
z
M 44 27.484375 
L 35.015625 27.484375 
Q 23.96875 27.484375 18.671875 24.53125 
Q 13.375 21.578125 13.375 15.375 
Q 13.375 11.078125 16.078125 8.640625 
Q 18.796875 6.203125 23.578125 6.203125 
Q 30.90625 6.203125 36.375 11.453125 
Q 41.84375 16.703125 43.609375 25.484375 
z
" id="DejaVuSans-Oblique-97"/>
       <path d="M 55.71875 33.015625 
L 49.3125 0 
L 40.28125 0 
L 46.6875 32.671875 
Q 47.125 34.96875 47.359375 36.71875 
Q 47.609375 38.484375 47.609375 39.5 
Q 47.609375 43.609375 45.015625 45.890625 
Q 42.4375 48.1875 37.796875 48.1875 
Q 30.5625 48.1875 25.34375 43.375 
Q 20.125 38.578125 18.5 30.328125 
L 12.5 0 
L 3.515625 0 
L 14.109375 54.6875 
L 23.09375 54.6875 
L 21.296875 46.09375 
Q 25.046875 50.828125 30.3125 53.40625 
Q 35.59375 56 41.40625 56 
Q 48.640625 56 52.609375 52.09375 
Q 56.59375 48.1875 56.59375 41.109375 
Q 56.59375 39.359375 56.375 37.359375 
Q 56.15625 35.359375 55.71875 33.015625 
z
" id="DejaVuSans-Oblique-110"/>
       <path d="M 59.625 54.6875 
L 50.296875 6.78125 
Q 47.609375 -7.125 40.015625 -13.953125 
Q 32.421875 -20.796875 19.578125 -20.796875 
Q 14.84375 -20.796875 10.78125 -20.09375 
Q 6.734375 -19.390625 3.21875 -17.921875 
L 4.890625 -9.1875 
Q 8.203125 -11.328125 11.90625 -12.34375 
Q 15.625 -13.375 19.828125 -13.375 
Q 28.375 -13.375 33.859375 -8.703125 
Q 39.359375 -4.046875 41.109375 4.6875 
L 41.890625 8.796875 
Q 38.140625 4.5 33.15625 2.25 
Q 28.171875 0 22.40625 0 
Q 14.109375 0 9.34375 5.484375 
Q 4.59375 10.984375 4.59375 20.609375 
Q 4.59375 28.171875 7.46875 35.421875 
Q 10.359375 42.671875 15.578125 48.296875 
Q 19.046875 52 23.65625 54 
Q 28.265625 56 33.296875 56 
Q 38.8125 56 42.90625 53.4375 
Q 47.015625 50.875 49.03125 46.1875 
L 50.59375 54.6875 
z
M 46.09375 34.625 
Q 46.09375 41.265625 42.96875 44.875 
Q 39.84375 48.484375 34.078125 48.484375 
Q 30.515625 48.484375 27.296875 47.0625 
Q 24.078125 45.65625 21.78125 43.109375 
Q 18.0625 38.921875 15.984375 33.234375 
Q 13.921875 27.546875 13.921875 21.484375 
Q 13.921875 14.75 17.0625 11.125 
Q 20.21875 7.515625 26.125 7.515625 
Q 34.671875 7.515625 40.375 15.25 
Q 46.09375 23 46.09375 34.625 
z
" id="DejaVuSans-Oblique-103"/>
       <path d="M 48.09375 32.234375 
Q 48.25 33.015625 48.3125 33.84375 
Q 48.390625 34.671875 48.390625 35.5 
Q 48.390625 41.453125 44.890625 44.921875 
Q 41.40625 48.390625 35.40625 48.390625 
Q 28.71875 48.390625 23.578125 44.15625 
Q 18.453125 39.9375 15.828125 32.171875 
z
M 55.90625 25.203125 
L 14.109375 25.203125 
Q 13.8125 23.34375 13.71875 22.265625 
Q 13.625 21.1875 13.625 20.40625 
Q 13.625 13.625 17.796875 9.90625 
Q 21.96875 6.203125 29.59375 6.203125 
Q 35.453125 6.203125 40.671875 7.515625 
Q 45.90625 8.84375 50.390625 11.375 
L 48.6875 2.484375 
Q 43.84375 0.53125 38.6875 -0.4375 
Q 33.546875 -1.421875 28.21875 -1.421875 
Q 16.84375 -1.421875 10.71875 4.015625 
Q 4.59375 9.46875 4.59375 19.484375 
Q 4.59375 28.03125 7.640625 35.375 
Q 10.6875 42.71875 16.609375 48.484375 
Q 20.40625 52.09375 25.65625 54.046875 
Q 30.90625 56 36.8125 56 
Q 46.09375 56 51.578125 50.4375 
Q 57.078125 44.875 57.078125 35.5 
Q 57.078125 33.25 56.78125 30.6875 
Q 56.5 28.125 55.90625 25.203125 
z
" id="DejaVuSans-Oblique-101"/>
      </defs>
      <use transform="translate(0 0.51875)" xlink:href="#DejaVuSans-101"/>
      <use transform="translate(61.523438 0.51875)" xlink:href="#DejaVuSans-83"/>
      <use transform="translate(125 0.51875)" xlink:href="#DejaVuSans-69"/>
      <use transform="translate(188.183594 0.51875)" xlink:href="#DejaVuSans-73"/>
      <use transform="translate(217.675781 0.51875)" xlink:href="#DejaVuSans-85"/>
      <use transform="translate(288.619141 0.51875)" xlink:href="#DejaVuSans-82"/>
      <use transform="translate(359.058594 38.8)scale(0.7)" xlink:href="#DejaVuSans-Oblique-114"/>
      <use transform="translate(387.837891 38.8)scale(0.7)" xlink:href="#DejaVuSans-Oblique-97"/>
      <use transform="translate(430.733398 38.8)scale(0.7)" xlink:href="#DejaVuSans-Oblique-110"/>
      <use transform="translate(475.098633 38.8)scale(0.7)" xlink:href="#DejaVuSans-Oblique-103"/>
      <use transform="translate(519.532227 38.8)scale(0.7)" xlink:href="#DejaVuSans-Oblique-101"/>
     </g>
    </g>
   </g>
  </g>
 </g>
 <defs>
  <clipPath id="p6f66de676c">
   <rect height="543.6" width="558" x="90" y="86.4"/>
  </clipPath>
 </defs>
</svg>
