<?xml version="1.0" encoding="utf-8" standalone="no"?>
<!DOCTYPE svg PUBLIC "-//W3C//DTD SVG 1.1//EN"
  "http://www.w3.org/Graphics/SVG/1.1/DTD/svg11.dtd">
<!-- Created with matplotlib (https://matplotlib.org/) -->
<svg height="720pt" version="1.1" viewBox="0 0 720 720" width="720pt" xmlns="http://www.w3.org/2000/svg" xmlns:xlink="http://www.w3.org/1999/xlink">
 <metadata>
  <rdf:RDF xmlns:cc="http://creativecommons.org/ns#" xmlns:dc="http://purl.org/dc/elements/1.1/" xmlns:rdf="http://www.w3.org/1999/02/22-rdf-syntax-ns#">
   <cc:Work>
    <dc:type rdf:resource="http://purl.org/dc/dcmitype/StillImage"/>
    <dc:date>2022-10-11T20:58:49.014820</dc:date>
    <dc:format>image/svg+xml</dc:format>
    <dc:creator>
     <cc:Agent>
      <dc:title>Matplotlib v3.3.2, https://matplotlib.org/</dc:title>
     </cc:Agent>
    </dc:creator>
   </cc:Work>
  </rdf:RDF>
 </metadata>
 <defs>
  <style type="text/css">*{stroke-linecap:butt;stroke-linejoin:round;}</style>
 </defs>
 <g id="figure_1">
  <g id="patch_1">
   <path d="M 0 720 
L 720 720 
L 720 0 
L 0 0 
z
" style="fill:none;"/>
  </g>
  <g id="axes_1">
   <g id="patch_2">
    <path d="M 90 630 
L 648 630 
L 648 86.4 
L 90 86.4 
z
" style="fill:#ffffff;"/>
   </g>
   <g id="matplotlib.axis_1">
    <g id="xtick_1">
     <g id="line2d_1">
      <path clip-path="url(#p8a762cd37a)" d="M 115.363636 630 
L 115.363636 86.4 
" style="fill:none;stroke:#b0b0b0;stroke-linecap:square;stroke-width:0.8;"/>
     </g>
     <g id="line2d_2">
      <defs>
       <path d="M 0 0 
L 0 3.5 
" id="m4c7fc69228" style="stroke:#000000;stroke-width:0.8;"/>
      </defs>
      <g>
       <use style="stroke:#000000;stroke-width:0.8;" x="115.363636" xlink:href="#m4c7fc69228" y="630"/>
      </g>
     </g>
     <g id="text_1">
      <!-- 0 -->
      <g transform="translate(112.182386 644.598438)scale(0.1 -0.1)">
       <defs>
        <path d="M 31.78125 66.40625 
Q 24.171875 66.40625 20.328125 58.90625 
Q 16.5 51.421875 16.5 36.375 
Q 16.5 21.390625 20.328125 13.890625 
Q 24.171875 6.390625 31.78125 6.390625 
Q 39.453125 6.390625 43.28125 13.890625 
Q 47.125 21.390625 47.125 36.375 
Q 47.125 51.421875 43.28125 58.90625 
Q 39.453125 66.40625 31.78125 66.40625 
z
M 31.78125 74.21875 
Q 44.046875 74.21875 50.515625 64.515625 
Q 56.984375 54.828125 56.984375 36.375 
Q 56.984375 17.96875 50.515625 8.265625 
Q 44.046875 -1.421875 31.78125 -1.421875 
Q 19.53125 -1.421875 13.0625 8.265625 
Q 6.59375 17.96875 6.59375 36.375 
Q 6.59375 54.828125 13.0625 64.515625 
Q 19.53125 74.21875 31.78125 74.21875 
z
" id="DejaVuSans-48"/>
       </defs>
       <use xlink:href="#DejaVuSans-48"/>
      </g>
     </g>
    </g>
    <g id="xtick_2">
     <g id="line2d_3">
      <path clip-path="url(#p8a762cd37a)" d="M 189.962567 630 
L 189.962567 86.4 
" style="fill:none;stroke:#b0b0b0;stroke-linecap:square;stroke-width:0.8;"/>
     </g>
     <g id="line2d_4">
      <g>
       <use style="stroke:#000000;stroke-width:0.8;" x="189.962567" xlink:href="#m4c7fc69228" y="630"/>
      </g>
     </g>
     <g id="text_2">
      <!-- 20 -->
      <g transform="translate(183.600067 644.598438)scale(0.1 -0.1)">
       <defs>
        <path d="M 19.1875 8.296875 
L 53.609375 8.296875 
L 53.609375 0 
L 7.328125 0 
L 7.328125 8.296875 
Q 12.9375 14.109375 22.625 23.890625 
Q 32.328125 33.6875 34.8125 36.53125 
Q 39.546875 41.84375 41.421875 45.53125 
Q 43.3125 49.21875 43.3125 52.78125 
Q 43.3125 58.59375 39.234375 62.25 
Q 35.15625 65.921875 28.609375 65.921875 
Q 23.96875 65.921875 18.8125 64.3125 
Q 13.671875 62.703125 7.8125 59.421875 
L 7.8125 69.390625 
Q 13.765625 71.78125 18.9375 73 
Q 24.125 74.21875 28.421875 74.21875 
Q 39.75 74.21875 46.484375 68.546875 
Q 53.21875 62.890625 53.21875 53.421875 
Q 53.21875 48.921875 51.53125 44.890625 
Q 49.859375 40.875 45.40625 35.40625 
Q 44.1875 33.984375 37.640625 27.21875 
Q 31.109375 20.453125 19.1875 8.296875 
z
" id="DejaVuSans-50"/>
       </defs>
       <use xlink:href="#DejaVuSans-50"/>
       <use x="63.623047" xlink:href="#DejaVuSans-48"/>
      </g>
     </g>
    </g>
    <g id="xtick_3">
     <g id="line2d_5">
      <path clip-path="url(#p8a762cd37a)" d="M 264.561497 630 
L 264.561497 86.4 
" style="fill:none;stroke:#b0b0b0;stroke-linecap:square;stroke-width:0.8;"/>
     </g>
     <g id="line2d_6">
      <g>
       <use style="stroke:#000000;stroke-width:0.8;" x="264.561497" xlink:href="#m4c7fc69228" y="630"/>
      </g>
     </g>
     <g id="text_3">
      <!-- 40 -->
      <g transform="translate(258.198997 644.598438)scale(0.1 -0.1)">
       <defs>
        <path d="M 37.796875 64.3125 
L 12.890625 25.390625 
L 37.796875 25.390625 
z
M 35.203125 72.90625 
L 47.609375 72.90625 
L 47.609375 25.390625 
L 58.015625 25.390625 
L 58.015625 17.1875 
L 47.609375 17.1875 
L 47.609375 0 
L 37.796875 0 
L 37.796875 17.1875 
L 4.890625 17.1875 
L 4.890625 26.703125 
z
" id="DejaVuSans-52"/>
       </defs>
       <use xlink:href="#DejaVuSans-52"/>
       <use x="63.623047" xlink:href="#DejaVuSans-48"/>
      </g>
     </g>
    </g>
    <g id="xtick_4">
     <g id="line2d_7">
      <path clip-path="url(#p8a762cd37a)" d="M 339.160428 630 
L 339.160428 86.4 
" style="fill:none;stroke:#b0b0b0;stroke-linecap:square;stroke-width:0.8;"/>
     </g>
     <g id="line2d_8">
      <g>
       <use style="stroke:#000000;stroke-width:0.8;" x="339.160428" xlink:href="#m4c7fc69228" y="630"/>
      </g>
     </g>
     <g id="text_4">
      <!-- 60 -->
      <g transform="translate(332.797928 644.598438)scale(0.1 -0.1)">
       <defs>
        <path d="M 33.015625 40.375 
Q 26.375 40.375 22.484375 35.828125 
Q 18.609375 31.296875 18.609375 23.390625 
Q 18.609375 15.53125 22.484375 10.953125 
Q 26.375 6.390625 33.015625 6.390625 
Q 39.65625 6.390625 43.53125 10.953125 
Q 47.40625 15.53125 47.40625 23.390625 
Q 47.40625 31.296875 43.53125 35.828125 
Q 39.65625 40.375 33.015625 40.375 
z
M 52.59375 71.296875 
L 52.59375 62.3125 
Q 48.875 64.0625 45.09375 64.984375 
Q 41.3125 65.921875 37.59375 65.921875 
Q 27.828125 65.921875 22.671875 59.328125 
Q 17.53125 52.734375 16.796875 39.40625 
Q 19.671875 43.65625 24.015625 45.921875 
Q 28.375 48.1875 33.59375 48.1875 
Q 44.578125 48.1875 50.953125 41.515625 
Q 57.328125 34.859375 57.328125 23.390625 
Q 57.328125 12.15625 50.6875 5.359375 
Q 44.046875 -1.421875 33.015625 -1.421875 
Q 20.359375 -1.421875 13.671875 8.265625 
Q 6.984375 17.96875 6.984375 36.375 
Q 6.984375 53.65625 15.1875 63.9375 
Q 23.390625 74.21875 37.203125 74.21875 
Q 40.921875 74.21875 44.703125 73.484375 
Q 48.484375 72.75 52.59375 71.296875 
z
" id="DejaVuSans-54"/>
       </defs>
       <use xlink:href="#DejaVuSans-54"/>
       <use x="63.623047" xlink:href="#DejaVuSans-48"/>
      </g>
     </g>
    </g>
    <g id="xtick_5">
     <g id="line2d_9">
      <path clip-path="url(#p8a762cd37a)" d="M 413.759358 630 
L 413.759358 86.4 
" style="fill:none;stroke:#b0b0b0;stroke-linecap:square;stroke-width:0.8;"/>
     </g>
     <g id="line2d_10">
      <g>
       <use style="stroke:#000000;stroke-width:0.8;" x="413.759358" xlink:href="#m4c7fc69228" y="630"/>
      </g>
     </g>
     <g id="text_5">
      <!-- 80 -->
      <g transform="translate(407.396858 644.598438)scale(0.1 -0.1)">
       <defs>
        <path d="M 31.78125 34.625 
Q 24.75 34.625 20.71875 30.859375 
Q 16.703125 27.09375 16.703125 20.515625 
Q 16.703125 13.921875 20.71875 10.15625 
Q 24.75 6.390625 31.78125 6.390625 
Q 38.8125 6.390625 42.859375 10.171875 
Q 46.921875 13.96875 46.921875 20.515625 
Q 46.921875 27.09375 42.890625 30.859375 
Q 38.875 34.625 31.78125 34.625 
z
M 21.921875 38.8125 
Q 15.578125 40.375 12.03125 44.71875 
Q 8.5 49.078125 8.5 55.328125 
Q 8.5 64.0625 14.71875 69.140625 
Q 20.953125 74.21875 31.78125 74.21875 
Q 42.671875 74.21875 48.875 69.140625 
Q 55.078125 64.0625 55.078125 55.328125 
Q 55.078125 49.078125 51.53125 44.71875 
Q 48 40.375 41.703125 38.8125 
Q 48.828125 37.15625 52.796875 32.3125 
Q 56.78125 27.484375 56.78125 20.515625 
Q 56.78125 9.90625 50.3125 4.234375 
Q 43.84375 -1.421875 31.78125 -1.421875 
Q 19.734375 -1.421875 13.25 4.234375 
Q 6.78125 9.90625 6.78125 20.515625 
Q 6.78125 27.484375 10.78125 32.3125 
Q 14.796875 37.15625 21.921875 38.8125 
z
M 18.3125 54.390625 
Q 18.3125 48.734375 21.84375 45.5625 
Q 25.390625 42.390625 31.78125 42.390625 
Q 38.140625 42.390625 41.71875 45.5625 
Q 45.3125 48.734375 45.3125 54.390625 
Q 45.3125 60.0625 41.71875 63.234375 
Q 38.140625 66.40625 31.78125 66.40625 
Q 25.390625 66.40625 21.84375 63.234375 
Q 18.3125 60.0625 18.3125 54.390625 
z
" id="DejaVuSans-56"/>
       </defs>
       <use xlink:href="#DejaVuSans-56"/>
       <use x="63.623047" xlink:href="#DejaVuSans-48"/>
      </g>
     </g>
    </g>
    <g id="xtick_6">
     <g id="line2d_11">
      <path clip-path="url(#p8a762cd37a)" d="M 488.358289 630 
L 488.358289 86.4 
" style="fill:none;stroke:#b0b0b0;stroke-linecap:square;stroke-width:0.8;"/>
     </g>
     <g id="line2d_12">
      <g>
       <use style="stroke:#000000;stroke-width:0.8;" x="488.358289" xlink:href="#m4c7fc69228" y="630"/>
      </g>
     </g>
     <g id="text_6">
      <!-- 100 -->
      <g transform="translate(478.814539 644.598438)scale(0.1 -0.1)">
       <defs>
        <path d="M 12.40625 8.296875 
L 28.515625 8.296875 
L 28.515625 63.921875 
L 10.984375 60.40625 
L 10.984375 69.390625 
L 28.421875 72.90625 
L 38.28125 72.90625 
L 38.28125 8.296875 
L 54.390625 8.296875 
L 54.390625 0 
L 12.40625 0 
z
" id="DejaVuSans-49"/>
       </defs>
       <use xlink:href="#DejaVuSans-49"/>
       <use x="63.623047" xlink:href="#DejaVuSans-48"/>
       <use x="127.246094" xlink:href="#DejaVuSans-48"/>
      </g>
     </g>
    </g>
    <g id="xtick_7">
     <g id="line2d_13">
      <path clip-path="url(#p8a762cd37a)" d="M 562.957219 630 
L 562.957219 86.4 
" style="fill:none;stroke:#b0b0b0;stroke-linecap:square;stroke-width:0.8;"/>
     </g>
     <g id="line2d_14">
      <g>
       <use style="stroke:#000000;stroke-width:0.8;" x="562.957219" xlink:href="#m4c7fc69228" y="630"/>
      </g>
     </g>
     <g id="text_7">
      <!-- 120 -->
      <g transform="translate(553.413469 644.598438)scale(0.1 -0.1)">
       <use xlink:href="#DejaVuSans-49"/>
       <use x="63.623047" xlink:href="#DejaVuSans-50"/>
       <use x="127.246094" xlink:href="#DejaVuSans-48"/>
      </g>
     </g>
    </g>
    <g id="xtick_8">
     <g id="line2d_15">
      <path clip-path="url(#p8a762cd37a)" d="M 637.55615 630 
L 637.55615 86.4 
" style="fill:none;stroke:#b0b0b0;stroke-linecap:square;stroke-width:0.8;"/>
     </g>
     <g id="line2d_16">
      <g>
       <use style="stroke:#000000;stroke-width:0.8;" x="637.55615" xlink:href="#m4c7fc69228" y="630"/>
      </g>
     </g>
     <g id="text_8">
      <!-- 140 -->
      <g transform="translate(628.0124 644.598438)scale(0.1 -0.1)">
       <use xlink:href="#DejaVuSans-49"/>
       <use x="63.623047" xlink:href="#DejaVuSans-52"/>
       <use x="127.246094" xlink:href="#DejaVuSans-48"/>
      </g>
     </g>
    </g>
    <g id="text_9">
     <!-- Days -->
     <g transform="translate(356.521875 658.276562)scale(0.1 -0.1)">
      <defs>
       <path d="M 19.671875 64.796875 
L 19.671875 8.109375 
L 31.59375 8.109375 
Q 46.6875 8.109375 53.6875 14.9375 
Q 60.6875 21.78125 60.6875 36.53125 
Q 60.6875 51.171875 53.6875 57.984375 
Q 46.6875 64.796875 31.59375 64.796875 
z
M 9.8125 72.90625 
L 30.078125 72.90625 
Q 51.265625 72.90625 61.171875 64.09375 
Q 71.09375 55.28125 71.09375 36.53125 
Q 71.09375 17.671875 61.125 8.828125 
Q 51.171875 0 30.078125 0 
L 9.8125 0 
z
" id="DejaVuSans-68"/>
       <path d="M 34.28125 27.484375 
Q 23.390625 27.484375 19.1875 25 
Q 14.984375 22.515625 14.984375 16.5 
Q 14.984375 11.71875 18.140625 8.90625 
Q 21.296875 6.109375 26.703125 6.109375 
Q 34.1875 6.109375 38.703125 11.40625 
Q 43.21875 16.703125 43.21875 25.484375 
L 43.21875 27.484375 
z
M 52.203125 31.203125 
L 52.203125 0 
L 43.21875 0 
L 43.21875 8.296875 
Q 40.140625 3.328125 35.546875 0.953125 
Q 30.953125 -1.421875 24.3125 -1.421875 
Q 15.921875 -1.421875 10.953125 3.296875 
Q 6 8.015625 6 15.921875 
Q 6 25.140625 12.171875 29.828125 
Q 18.359375 34.515625 30.609375 34.515625 
L 43.21875 34.515625 
L 43.21875 35.40625 
Q 43.21875 41.609375 39.140625 45 
Q 35.0625 48.390625 27.6875 48.390625 
Q 23 48.390625 18.546875 47.265625 
Q 14.109375 46.140625 10.015625 43.890625 
L 10.015625 52.203125 
Q 14.9375 54.109375 19.578125 55.046875 
Q 24.21875 56 28.609375 56 
Q 40.484375 56 46.34375 49.84375 
Q 52.203125 43.703125 52.203125 31.203125 
z
" id="DejaVuSans-97"/>
       <path d="M 32.171875 -5.078125 
Q 28.375 -14.84375 24.75 -17.8125 
Q 21.140625 -20.796875 15.09375 -20.796875 
L 7.90625 -20.796875 
L 7.90625 -13.28125 
L 13.1875 -13.28125 
Q 16.890625 -13.28125 18.9375 -11.515625 
Q 21 -9.765625 23.484375 -3.21875 
L 25.09375 0.875 
L 2.984375 54.6875 
L 12.5 54.6875 
L 29.59375 11.921875 
L 46.6875 54.6875 
L 56.203125 54.6875 
z
" id="DejaVuSans-121"/>
       <path d="M 44.28125 53.078125 
L 44.28125 44.578125 
Q 40.484375 46.53125 36.375 47.5 
Q 32.28125 48.484375 27.875 48.484375 
Q 21.1875 48.484375 17.84375 46.4375 
Q 14.5 44.390625 14.5 40.28125 
Q 14.5 37.15625 16.890625 35.375 
Q 19.28125 33.59375 26.515625 31.984375 
L 29.59375 31.296875 
Q 39.15625 29.25 43.1875 25.515625 
Q 47.21875 21.78125 47.21875 15.09375 
Q 47.21875 7.46875 41.1875 3.015625 
Q 35.15625 -1.421875 24.609375 -1.421875 
Q 20.21875 -1.421875 15.453125 -0.5625 
Q 10.6875 0.296875 5.421875 2 
L 5.421875 11.28125 
Q 10.40625 8.6875 15.234375 7.390625 
Q 20.0625 6.109375 24.8125 6.109375 
Q 31.15625 6.109375 34.5625 8.28125 
Q 37.984375 10.453125 37.984375 14.40625 
Q 37.984375 18.0625 35.515625 20.015625 
Q 33.0625 21.96875 24.703125 23.78125 
L 21.578125 24.515625 
Q 13.234375 26.265625 9.515625 29.90625 
Q 5.8125 33.546875 5.8125 39.890625 
Q 5.8125 47.609375 11.28125 51.796875 
Q 16.75 56 26.8125 56 
Q 31.78125 56 36.171875 55.265625 
Q 40.578125 54.546875 44.28125 53.078125 
z
" id="DejaVuSans-115"/>
      </defs>
      <use xlink:href="#DejaVuSans-68"/>
      <use x="77.001953" xlink:href="#DejaVuSans-97"/>
      <use x="138.28125" xlink:href="#DejaVuSans-121"/>
      <use x="197.460938" xlink:href="#DejaVuSans-115"/>
     </g>
    </g>
   </g>
   <g id="matplotlib.axis_2">
    <g id="ytick_1">
     <g id="line2d_17">
      <path clip-path="url(#p8a762cd37a)" d="M 90 605.840026 
L 648 605.840026 
" style="fill:none;stroke:#b0b0b0;stroke-linecap:square;stroke-width:0.8;"/>
     </g>
     <g id="line2d_18">
      <defs>
       <path d="M 0 0 
L -3.5 0 
" id="m46e64eaa45" style="stroke:#000000;stroke-width:0.8;"/>
      </defs>
      <g>
       <use style="stroke:#000000;stroke-width:0.8;" x="90" xlink:href="#m46e64eaa45" y="605.840026"/>
      </g>
     </g>
     <g id="text_10">
      <!-- 0 -->
      <g transform="translate(76.6375 609.639245)scale(0.1 -0.1)">
       <use xlink:href="#DejaVuSans-48"/>
      </g>
     </g>
    </g>
    <g id="ytick_2">
     <g id="line2d_19">
      <path clip-path="url(#p8a762cd37a)" d="M 90 537.200442 
L 648 537.200442 
" style="fill:none;stroke:#b0b0b0;stroke-linecap:square;stroke-width:0.8;"/>
     </g>
     <g id="line2d_20">
      <g>
       <use style="stroke:#000000;stroke-width:0.8;" x="90" xlink:href="#m46e64eaa45" y="537.200442"/>
      </g>
     </g>
     <g id="text_11">
      <!-- 2500 -->
      <g transform="translate(57.55 540.999661)scale(0.1 -0.1)">
       <defs>
        <path d="M 10.796875 72.90625 
L 49.515625 72.90625 
L 49.515625 64.59375 
L 19.828125 64.59375 
L 19.828125 46.734375 
Q 21.96875 47.46875 24.109375 47.828125 
Q 26.265625 48.1875 28.421875 48.1875 
Q 40.625 48.1875 47.75 41.5 
Q 54.890625 34.8125 54.890625 23.390625 
Q 54.890625 11.625 47.5625 5.09375 
Q 40.234375 -1.421875 26.90625 -1.421875 
Q 22.3125 -1.421875 17.546875 -0.640625 
Q 12.796875 0.140625 7.71875 1.703125 
L 7.71875 11.625 
Q 12.109375 9.234375 16.796875 8.0625 
Q 21.484375 6.890625 26.703125 6.890625 
Q 35.15625 6.890625 40.078125 11.328125 
Q 45.015625 15.765625 45.015625 23.390625 
Q 45.015625 31 40.078125 35.4375 
Q 35.15625 39.890625 26.703125 39.890625 
Q 22.75 39.890625 18.8125 39.015625 
Q 14.890625 38.140625 10.796875 36.28125 
z
" id="DejaVuSans-53"/>
       </defs>
       <use xlink:href="#DejaVuSans-50"/>
       <use x="63.623047" xlink:href="#DejaVuSans-53"/>
       <use x="127.246094" xlink:href="#DejaVuSans-48"/>
       <use x="190.869141" xlink:href="#DejaVuSans-48"/>
      </g>
     </g>
    </g>
    <g id="ytick_3">
     <g id="line2d_21">
      <path clip-path="url(#p8a762cd37a)" d="M 90 468.560859 
L 648 468.560859 
" style="fill:none;stroke:#b0b0b0;stroke-linecap:square;stroke-width:0.8;"/>
     </g>
     <g id="line2d_22">
      <g>
       <use style="stroke:#000000;stroke-width:0.8;" x="90" xlink:href="#m46e64eaa45" y="468.560859"/>
      </g>
     </g>
     <g id="text_12">
      <!-- 5000 -->
      <g transform="translate(57.55 472.360077)scale(0.1 -0.1)">
       <use xlink:href="#DejaVuSans-53"/>
       <use x="63.623047" xlink:href="#DejaVuSans-48"/>
       <use x="127.246094" xlink:href="#DejaVuSans-48"/>
       <use x="190.869141" xlink:href="#DejaVuSans-48"/>
      </g>
     </g>
    </g>
    <g id="ytick_4">
     <g id="line2d_23">
      <path clip-path="url(#p8a762cd37a)" d="M 90 399.921275 
L 648 399.921275 
" style="fill:none;stroke:#b0b0b0;stroke-linecap:square;stroke-width:0.8;"/>
     </g>
     <g id="line2d_24">
      <g>
       <use style="stroke:#000000;stroke-width:0.8;" x="90" xlink:href="#m46e64eaa45" y="399.921275"/>
      </g>
     </g>
     <g id="text_13">
      <!-- 7500 -->
      <g transform="translate(57.55 403.720494)scale(0.1 -0.1)">
       <defs>
        <path d="M 8.203125 72.90625 
L 55.078125 72.90625 
L 55.078125 68.703125 
L 28.609375 0 
L 18.3125 0 
L 43.21875 64.59375 
L 8.203125 64.59375 
z
" id="DejaVuSans-55"/>
       </defs>
       <use xlink:href="#DejaVuSans-55"/>
       <use x="63.623047" xlink:href="#DejaVuSans-53"/>
       <use x="127.246094" xlink:href="#DejaVuSans-48"/>
       <use x="190.869141" xlink:href="#DejaVuSans-48"/>
      </g>
     </g>
    </g>
    <g id="ytick_5">
     <g id="line2d_25">
      <path clip-path="url(#p8a762cd37a)" d="M 90 331.281691 
L 648 331.281691 
" style="fill:none;stroke:#b0b0b0;stroke-linecap:square;stroke-width:0.8;"/>
     </g>
     <g id="line2d_26">
      <g>
       <use style="stroke:#000000;stroke-width:0.8;" x="90" xlink:href="#m46e64eaa45" y="331.281691"/>
      </g>
     </g>
     <g id="text_14">
      <!-- 10000 -->
      <g transform="translate(51.1875 335.08091)scale(0.1 -0.1)">
       <use xlink:href="#DejaVuSans-49"/>
       <use x="63.623047" xlink:href="#DejaVuSans-48"/>
       <use x="127.246094" xlink:href="#DejaVuSans-48"/>
       <use x="190.869141" xlink:href="#DejaVuSans-48"/>
       <use x="254.492188" xlink:href="#DejaVuSans-48"/>
      </g>
     </g>
    </g>
    <g id="ytick_6">
     <g id="line2d_27">
      <path clip-path="url(#p8a762cd37a)" d="M 90 262.642108 
L 648 262.642108 
" style="fill:none;stroke:#b0b0b0;stroke-linecap:square;stroke-width:0.8;"/>
     </g>
     <g id="line2d_28">
      <g>
       <use style="stroke:#000000;stroke-width:0.8;" x="90" xlink:href="#m46e64eaa45" y="262.642108"/>
      </g>
     </g>
     <g id="text_15">
      <!-- 12500 -->
      <g transform="translate(51.1875 266.441327)scale(0.1 -0.1)">
       <use xlink:href="#DejaVuSans-49"/>
       <use x="63.623047" xlink:href="#DejaVuSans-50"/>
       <use x="127.246094" xlink:href="#DejaVuSans-53"/>
       <use x="190.869141" xlink:href="#DejaVuSans-48"/>
       <use x="254.492188" xlink:href="#DejaVuSans-48"/>
      </g>
     </g>
    </g>
    <g id="ytick_7">
     <g id="line2d_29">
      <path clip-path="url(#p8a762cd37a)" d="M 90 194.002524 
L 648 194.002524 
" style="fill:none;stroke:#b0b0b0;stroke-linecap:square;stroke-width:0.8;"/>
     </g>
     <g id="line2d_30">
      <g>
       <use style="stroke:#000000;stroke-width:0.8;" x="90" xlink:href="#m46e64eaa45" y="194.002524"/>
      </g>
     </g>
     <g id="text_16">
      <!-- 15000 -->
      <g transform="translate(51.1875 197.801743)scale(0.1 -0.1)">
       <use xlink:href="#DejaVuSans-49"/>
       <use x="63.623047" xlink:href="#DejaVuSans-53"/>
       <use x="127.246094" xlink:href="#DejaVuSans-48"/>
       <use x="190.869141" xlink:href="#DejaVuSans-48"/>
       <use x="254.492188" xlink:href="#DejaVuSans-48"/>
      </g>
     </g>
    </g>
    <g id="ytick_8">
     <g id="line2d_31">
      <path clip-path="url(#p8a762cd37a)" d="M 90 125.362941 
L 648 125.362941 
" style="fill:none;stroke:#b0b0b0;stroke-linecap:square;stroke-width:0.8;"/>
     </g>
     <g id="line2d_32">
      <g>
       <use style="stroke:#000000;stroke-width:0.8;" x="90" xlink:href="#m46e64eaa45" y="125.362941"/>
      </g>
     </g>
     <g id="text_17">
      <!-- 17500 -->
      <g transform="translate(51.1875 129.16216)scale(0.1 -0.1)">
       <use xlink:href="#DejaVuSans-49"/>
       <use x="63.623047" xlink:href="#DejaVuSans-55"/>
       <use x="127.246094" xlink:href="#DejaVuSans-53"/>
       <use x="190.869141" xlink:href="#DejaVuSans-48"/>
       <use x="254.492188" xlink:href="#DejaVuSans-48"/>
      </g>
     </g>
    </g>
    <g id="text_18">
     <!-- Cumulative cases -->
     <g transform="translate(45.107812 402.425781)rotate(-90)scale(0.1 -0.1)">
      <defs>
       <path d="M 64.40625 67.28125 
L 64.40625 56.890625 
Q 59.421875 61.53125 53.78125 63.8125 
Q 48.140625 66.109375 41.796875 66.109375 
Q 29.296875 66.109375 22.65625 58.46875 
Q 16.015625 50.828125 16.015625 36.375 
Q 16.015625 21.96875 22.65625 14.328125 
Q 29.296875 6.6875 41.796875 6.6875 
Q 48.140625 6.6875 53.78125 8.984375 
Q 59.421875 11.28125 64.40625 15.921875 
L 64.40625 5.609375 
Q 59.234375 2.09375 53.4375 0.328125 
Q 47.65625 -1.421875 41.21875 -1.421875 
Q 24.65625 -1.421875 15.125 8.703125 
Q 5.609375 18.84375 5.609375 36.375 
Q 5.609375 53.953125 15.125 64.078125 
Q 24.65625 74.21875 41.21875 74.21875 
Q 47.75 74.21875 53.53125 72.484375 
Q 59.328125 70.75 64.40625 67.28125 
z
" id="DejaVuSans-67"/>
       <path d="M 8.5 21.578125 
L 8.5 54.6875 
L 17.484375 54.6875 
L 17.484375 21.921875 
Q 17.484375 14.15625 20.5 10.265625 
Q 23.53125 6.390625 29.59375 6.390625 
Q 36.859375 6.390625 41.078125 11.03125 
Q 45.3125 15.671875 45.3125 23.6875 
L 45.3125 54.6875 
L 54.296875 54.6875 
L 54.296875 0 
L 45.3125 0 
L 45.3125 8.40625 
Q 42.046875 3.421875 37.71875 1 
Q 33.40625 -1.421875 27.6875 -1.421875 
Q 18.265625 -1.421875 13.375 4.4375 
Q 8.5 10.296875 8.5 21.578125 
z
M 31.109375 56 
z
" id="DejaVuSans-117"/>
       <path d="M 52 44.1875 
Q 55.375 50.25 60.0625 53.125 
Q 64.75 56 71.09375 56 
Q 79.640625 56 84.28125 50.015625 
Q 88.921875 44.046875 88.921875 33.015625 
L 88.921875 0 
L 79.890625 0 
L 79.890625 32.71875 
Q 79.890625 40.578125 77.09375 44.375 
Q 74.3125 48.1875 68.609375 48.1875 
Q 61.625 48.1875 57.5625 43.546875 
Q 53.515625 38.921875 53.515625 30.90625 
L 53.515625 0 
L 44.484375 0 
L 44.484375 32.71875 
Q 44.484375 40.625 41.703125 44.40625 
Q 38.921875 48.1875 33.109375 48.1875 
Q 26.21875 48.1875 22.15625 43.53125 
Q 18.109375 38.875 18.109375 30.90625 
L 18.109375 0 
L 9.078125 0 
L 9.078125 54.6875 
L 18.109375 54.6875 
L 18.109375 46.1875 
Q 21.1875 51.21875 25.484375 53.609375 
Q 29.78125 56 35.6875 56 
Q 41.65625 56 45.828125 52.96875 
Q 50 49.953125 52 44.1875 
z
" id="DejaVuSans-109"/>
       <path d="M 9.421875 75.984375 
L 18.40625 75.984375 
L 18.40625 0 
L 9.421875 0 
z
" id="DejaVuSans-108"/>
       <path d="M 18.3125 70.21875 
L 18.3125 54.6875 
L 36.8125 54.6875 
L 36.8125 47.703125 
L 18.3125 47.703125 
L 18.3125 18.015625 
Q 18.3125 11.328125 20.140625 9.421875 
Q 21.96875 7.515625 27.59375 7.515625 
L 36.8125 7.515625 
L 36.8125 0 
L 27.59375 0 
Q 17.1875 0 13.234375 3.875 
Q 9.28125 7.765625 9.28125 18.015625 
L 9.28125 47.703125 
L 2.6875 47.703125 
L 2.6875 54.6875 
L 9.28125 54.6875 
L 9.28125 70.21875 
z
" id="DejaVuSans-116"/>
       <path d="M 9.421875 54.6875 
L 18.40625 54.6875 
L 18.40625 0 
L 9.421875 0 
z
M 9.421875 75.984375 
L 18.40625 75.984375 
L 18.40625 64.59375 
L 9.421875 64.59375 
z
" id="DejaVuSans-105"/>
       <path d="M 2.984375 54.6875 
L 12.5 54.6875 
L 29.59375 8.796875 
L 46.6875 54.6875 
L 56.203125 54.6875 
L 35.6875 0 
L 23.484375 0 
z
" id="DejaVuSans-118"/>
       <path d="M 56.203125 29.59375 
L 56.203125 25.203125 
L 14.890625 25.203125 
Q 15.484375 15.921875 20.484375 11.0625 
Q 25.484375 6.203125 34.421875 6.203125 
Q 39.59375 6.203125 44.453125 7.46875 
Q 49.3125 8.734375 54.109375 11.28125 
L 54.109375 2.78125 
Q 49.265625 0.734375 44.1875 -0.34375 
Q 39.109375 -1.421875 33.890625 -1.421875 
Q 20.796875 -1.421875 13.15625 6.1875 
Q 5.515625 13.8125 5.515625 26.8125 
Q 5.515625 40.234375 12.765625 48.109375 
Q 20.015625 56 32.328125 56 
Q 43.359375 56 49.78125 48.890625 
Q 56.203125 41.796875 56.203125 29.59375 
z
M 47.21875 32.234375 
Q 47.125 39.59375 43.09375 43.984375 
Q 39.0625 48.390625 32.421875 48.390625 
Q 24.90625 48.390625 20.390625 44.140625 
Q 15.875 39.890625 15.1875 32.171875 
z
" id="DejaVuSans-101"/>
       <path id="DejaVuSans-32"/>
       <path d="M 48.78125 52.59375 
L 48.78125 44.1875 
Q 44.96875 46.296875 41.140625 47.34375 
Q 37.3125 48.390625 33.40625 48.390625 
Q 24.65625 48.390625 19.8125 42.84375 
Q 14.984375 37.3125 14.984375 27.296875 
Q 14.984375 17.28125 19.8125 11.734375 
Q 24.65625 6.203125 33.40625 6.203125 
Q 37.3125 6.203125 41.140625 7.25 
Q 44.96875 8.296875 48.78125 10.40625 
L 48.78125 2.09375 
Q 45.015625 0.34375 40.984375 -0.53125 
Q 36.96875 -1.421875 32.421875 -1.421875 
Q 20.0625 -1.421875 12.78125 6.34375 
Q 5.515625 14.109375 5.515625 27.296875 
Q 5.515625 40.671875 12.859375 48.328125 
Q 20.21875 56 33.015625 56 
Q 37.15625 56 41.109375 55.140625 
Q 45.0625 54.296875 48.78125 52.59375 
z
" id="DejaVuSans-99"/>
      </defs>
      <use xlink:href="#DejaVuSans-67"/>
      <use x="69.824219" xlink:href="#DejaVuSans-117"/>
      <use x="133.203125" xlink:href="#DejaVuSans-109"/>
      <use x="230.615234" xlink:href="#DejaVuSans-117"/>
      <use x="293.994141" xlink:href="#DejaVuSans-108"/>
      <use x="321.777344" xlink:href="#DejaVuSans-97"/>
      <use x="383.056641" xlink:href="#DejaVuSans-116"/>
      <use x="422.265625" xlink:href="#DejaVuSans-105"/>
      <use x="450.048828" xlink:href="#DejaVuSans-118"/>
      <use x="509.228516" xlink:href="#DejaVuSans-101"/>
      <use x="570.751953" xlink:href="#DejaVuSans-32"/>
      <use x="602.539062" xlink:href="#DejaVuSans-99"/>
      <use x="657.519531" xlink:href="#DejaVuSans-97"/>
      <use x="718.798828" xlink:href="#DejaVuSans-115"/>
      <use x="770.898438" xlink:href="#DejaVuSans-101"/>
      <use x="832.421875" xlink:href="#DejaVuSans-115"/>
     </g>
    </g>
   </g>
   <g id="line2d_33">
    <path clip-path="url(#p8a762cd37a)" d="M 115.363636 605.290909 
L 137.743316 604.891325 
L 156.393048 604.34441 
L 171.312834 603.688374 
L 182.502674 603.014701 
L 193.692513 602.131757 
L 204.882353 600.975724 
L 212.342246 600.01352 
L 219.802139 598.863805 
L 227.262032 597.491257 
L 234.721925 595.854421 
L 242.181818 593.904874 
L 249.641711 591.586363 
L 257.101604 588.833987 
L 260.831551 587.272276 
L 264.561497 585.573489 
L 268.291444 583.726802 
L 272.02139 581.720763 
L 275.751337 579.543301 
L 279.481283 577.181745 
L 283.21123 574.622854 
L 286.941176 571.852863 
L 290.671123 568.857549 
L 294.40107 565.62231 
L 298.131016 562.132268 
L 301.860963 558.372402 
L 305.590909 554.3277 
L 309.320856 549.983339 
L 313.050802 545.324901 
L 316.780749 540.338612 
L 320.510695 535.011612 
L 324.240642 529.332255 
L 327.970588 523.290429 
L 331.700535 516.877898 
L 335.430481 510.088658 
L 339.160428 502.919297 
L 342.890374 495.369346 
L 346.620321 487.441617 
L 350.350267 479.142508 
L 354.080214 470.482258 
L 357.81016 461.475147 
L 361.540107 452.139617 
L 369 432.57797 
L 376.459893 412.026774 
L 383.919786 390.773289 
L 406.299465 326.205544 
L 413.759358 305.577485 
L 421.219251 285.914966 
L 424.949198 276.521752 
L 428.679144 267.453134 
L 432.409091 258.72832 
L 436.139037 250.362344 
L 439.868984 242.366172 
L 443.59893 234.746884 
L 447.328877 227.507926 
L 451.058824 220.649406 
L 454.78877 214.168422 
L 458.518717 208.059417 
L 462.248663 202.314536 
L 465.97861 196.923985 
L 469.708556 191.876372 
L 473.438503 187.159036 
L 477.168449 182.75835 
L 480.898396 178.659993 
L 484.628342 174.849202 
L 488.358289 171.310983 
L 492.088235 168.030305 
L 495.818182 164.992253 
L 499.548128 162.182167 
L 503.278075 159.585748 
L 507.008021 157.18914 
L 510.737968 154.979005 
L 514.467914 152.942564 
L 518.197861 151.067635 
L 521.927807 149.342651 
L 525.657754 147.756674 
L 533.117647 144.961107 
L 540.57754 142.605789 
L 548.037433 140.624994 
L 555.497326 138.961712 
L 562.957219 137.566839 
L 570.417112 136.39832 
L 577.877005 135.420305 
L 589.066845 134.245188 
L 600.256684 133.347603 
L 611.446524 132.662722 
L 622.636364 132.140557 
L 622.636364 132.140557 
" style="fill:none;stroke:#1f77b4;stroke-linecap:square;stroke-width:1.5;"/>
   </g>
   <g id="line2d_34">
    <path clip-path="url(#p8a762cd37a)" d="M 115.363636 605.290909 
L 137.743316 604.891325 
L 156.393048 604.34441 
L 171.312834 603.688374 
L 182.502674 603.014701 
L 193.692513 602.131757 
L 204.882353 600.975724 
L 212.342246 600.01352 
L 219.802139 598.863805 
L 227.262032 597.491257 
L 234.721925 595.854422 
L 242.181818 593.904875 
L 249.641711 591.586364 
L 257.101604 588.833989 
L 260.831551 587.272278 
L 264.561497 585.573491 
L 268.291444 583.726805 
L 272.02139 581.720766 
L 275.751337 579.543304 
L 279.481283 577.181748 
L 283.21123 574.622857 
L 286.941176 571.852867 
L 290.671123 568.857554 
L 294.40107 565.622314 
L 298.131016 562.132273 
L 301.860963 558.372408 
L 305.590909 554.327706 
L 309.320856 549.983345 
L 313.050802 545.324908 
L 316.780749 540.338619 
L 320.510695 535.01162 
L 324.240642 529.332264 
L 327.970588 523.290439 
L 331.700535 516.877908 
L 335.430481 510.088669 
L 339.160428 502.919309 
L 342.890374 495.369359 
L 346.620321 487.441631 
L 350.350267 479.142522 
L 354.080214 470.482273 
L 357.81016 461.475163 
L 361.540107 452.139634 
L 369 432.577989 
L 376.459893 412.026793 
L 383.919786 390.773309 
L 406.299465 326.205564 
L 413.759358 305.577505 
L 421.219251 285.914984 
L 424.949198 276.52177 
L 428.679144 267.453151 
L 432.409091 258.728336 
L 436.139037 250.362359 
L 439.868984 242.366186 
L 443.59893 234.746897 
L 447.328877 227.507938 
L 451.058824 220.649417 
L 454.78877 214.168432 
L 458.518717 208.059426 
L 462.248663 202.314544 
L 465.97861 196.923992 
L 469.708556 191.876378 
L 473.438503 187.159042 
L 477.168449 182.758355 
L 480.898396 178.659997 
L 484.628342 174.849205 
L 488.358289 171.310985 
L 492.088235 168.030306 
L 495.818182 164.992254 
L 499.548128 162.182167 
L 503.278075 159.585747 
L 507.008021 157.189139 
L 510.737968 154.979003 
L 514.467914 152.942561 
L 518.197861 151.067632 
L 521.927807 149.342648 
L 525.657754 147.75667 
L 533.117647 144.961102 
L 540.57754 142.605784 
L 548.037433 140.624988 
L 555.497326 138.961706 
L 562.957219 137.566832 
L 570.417112 136.398313 
L 577.877005 135.420297 
L 589.066845 134.24518 
L 600.256684 133.347595 
L 611.446524 132.662714 
L 622.636364 132.140548 
L 622.636364 132.140548 
" style="fill:none;stroke:#ff7f0e;stroke-linecap:square;stroke-width:1.5;"/>
   </g>
   <g id="line2d_35">
    <path clip-path="url(#p8a762cd37a)" d="M 115.363636 605.290909 
L 137.743316 604.800537 
L 152.663102 604.294716 
L 167.582888 603.574418 
L 178.772727 602.840716 
L 189.962567 601.885957 
L 201.152406 600.644981 
L 208.612299 599.618365 
L 216.072193 598.397872 
L 223.532086 596.948317 
L 230.991979 595.228721 
L 238.451872 593.191601 
L 245.911765 590.782284 
L 253.371658 587.938287 
L 257.101604 586.331505 
L 260.831551 584.588858 
L 264.561497 582.700178 
L 268.291444 580.654774 
L 272.02139 578.441451 
L 275.751337 576.048544 
L 279.481283 573.463954 
L 283.21123 570.675205 
L 286.941176 567.669517 
L 290.671123 564.433893 
L 294.40107 560.955229 
L 298.131016 557.220442 
L 301.860963 553.216621 
L 305.590909 548.931205 
L 309.320856 544.352174 
L 313.050802 539.468273 
L 316.780749 534.269251 
L 320.510695 528.74612 
L 324.240642 522.891426 
L 327.970588 516.699533 
L 331.700535 510.16691 
L 335.430481 503.292405 
L 339.160428 496.077514 
L 342.890374 488.526625 
L 346.620321 480.647217 
L 350.350267 472.450022 
L 354.080214 463.949132 
L 361.540107 446.109541 
L 369 427.307731 
L 376.459893 407.770832 
L 387.649733 377.673052 
L 402.569519 337.586247 
L 410.029412 318.194401 
L 417.489305 299.562185 
L 424.949198 281.880478 
L 428.679144 273.4422 
L 432.409091 265.290586 
L 436.139037 257.435494 
L 439.868984 249.883858 
L 443.59893 242.639872 
L 447.328877 235.705203 
L 451.058824 229.079231 
L 454.78877 222.759297 
L 458.518717 216.740958 
L 462.248663 211.018242 
L 465.97861 205.58389 
L 469.708556 200.429587 
L 473.438503 195.546183 
L 477.168449 190.923886 
L 480.898396 186.552445 
L 484.628342 182.421305 
L 488.358289 178.519751 
L 492.088235 174.837024 
L 495.818182 171.362425 
L 499.548128 168.085401 
L 503.278075 164.995616 
L 507.008021 162.083003 
L 510.737968 159.337812 
L 514.467914 156.750644 
L 518.197861 154.31247 
L 521.927807 152.014651 
L 529.387701 147.807514 
L 536.847594 144.068099 
L 544.307487 140.741553 
L 551.76738 137.779012 
L 559.227273 135.137183 
L 566.687166 132.777875 
L 574.147059 130.667497 
L 581.606952 128.776575 
L 589.066845 127.079283 
L 596.526738 125.553017 
L 607.716578 123.541706 
L 618.906417 121.814622 
L 622.636364 121.29381 
L 622.636364 121.29381 
" style="fill:none;stroke:#2ca02c;stroke-linecap:square;stroke-width:1.5;"/>
   </g>
   <g id="line2d_36">
    <path clip-path="url(#p8a762cd37a)" d="M 115.363636 605.290909 
L 137.743316 604.800537 
L 152.663102 604.294716 
L 167.582888 603.574418 
L 178.772727 602.840716 
L 189.962567 601.885957 
L 201.152406 600.644981 
L 208.612299 599.618365 
L 216.072193 598.397872 
L 223.532086 596.948317 
L 230.991979 595.22872 
L 238.451872 593.1916 
L 245.911765 590.782283 
L 253.371658 587.938287 
L 257.101604 586.331504 
L 260.831551 584.588858 
L 264.561497 582.700178 
L 268.291444 580.654773 
L 272.02139 578.44145 
L 275.751337 576.048543 
L 279.481283 573.463953 
L 283.21123 570.675204 
L 286.941176 567.669516 
L 290.671123 564.433892 
L 294.40107 560.955228 
L 298.131016 557.22044 
L 301.860963 553.21662 
L 305.590909 548.931203 
L 309.320856 544.352172 
L 313.050802 539.468271 
L 316.780749 534.269249 
L 320.510695 528.746117 
L 324.240642 522.891423 
L 327.970588 516.69953 
L 331.700535 510.166907 
L 335.430481 503.292401 
L 339.160428 496.077511 
L 342.890374 488.526621 
L 346.620321 480.647212 
L 350.350267 472.450018 
L 354.080214 463.949127 
L 361.540107 446.109536 
L 369 427.307725 
L 376.459893 407.770825 
L 387.649733 377.673045 
L 402.569519 337.586239 
L 410.029412 318.194393 
L 417.489305 299.562177 
L 424.949198 281.88047 
L 428.679144 273.442192 
L 432.409091 265.290577 
L 436.139037 257.435485 
L 439.868984 249.88385 
L 443.59893 242.639863 
L 447.328877 235.705195 
L 451.058824 229.079223 
L 454.78877 222.759289 
L 458.518717 216.74095 
L 462.248663 211.018234 
L 465.97861 205.583882 
L 469.708556 200.429579 
L 473.438503 195.546175 
L 477.168449 190.923879 
L 480.898396 186.552437 
L 484.628342 182.421298 
L 488.358289 178.519744 
L 492.088235 174.837016 
L 495.818182 171.362418 
L 499.548128 168.085394 
L 503.278075 164.995609 
L 507.008021 162.082996 
L 510.737968 159.337805 
L 514.467914 156.750637 
L 518.197861 154.312463 
L 521.927807 152.014644 
L 529.387701 147.807507 
L 536.847594 144.068092 
L 544.307487 140.741547 
L 551.76738 137.779005 
L 559.227273 135.137177 
L 566.687166 132.777869 
L 574.147059 130.667491 
L 581.606952 128.776568 
L 589.066845 127.079277 
L 596.526738 125.553011 
L 607.716578 123.5417 
L 618.906417 121.814616 
L 622.636364 121.293804 
L 622.636364 121.293804 
" style="fill:none;stroke:#d62728;stroke-linecap:square;stroke-width:1.5;"/>
   </g>
   <g id="line2d_37">
    <path clip-path="url(#p8a762cd37a)" d="M 115.363636 605.290909 
L 130.283422 605.184539 
L 148.933155 604.819207 
L 163.852941 604.338394 
L 178.772727 603.632557 
L 189.962567 602.901117 
L 201.152406 601.93672 
L 208.612299 601.129579 
L 216.072193 600.160783 
L 223.532086 598.99887 
L 230.991979 597.606619 
L 238.451872 595.940174 
L 245.911765 593.948103 
L 253.371658 591.570441 
L 257.101604 590.215708 
L 260.831551 588.737754 
L 264.561497 587.126285 
L 268.291444 585.370329 
L 272.02139 583.458221 
L 275.751337 581.377607 
L 279.481283 579.115447 
L 283.21123 576.658038 
L 286.941176 573.991052 
L 290.671123 571.099582 
L 294.40107 567.968219 
L 298.131016 564.581145 
L 301.860963 560.922253 
L 305.590909 556.975294 
L 309.320856 552.724056 
L 313.050802 548.152577 
L 316.780749 543.245388 
L 320.510695 537.987796 
L 324.240642 532.366194 
L 327.970588 526.368409 
L 331.700535 519.984075 
L 335.430481 513.205026 
L 339.160428 506.025707 
L 342.890374 498.443582 
L 346.620321 490.459537 
L 350.350267 482.078255 
L 354.080214 473.308549 
L 357.81016 464.16364 
L 361.540107 454.661353 
L 369 434.679467 
L 376.459893 413.598634 
L 383.919786 391.722571 
L 406.299465 325.030963 
L 413.759358 303.737049 
L 421.219251 283.493213 
L 424.949198 273.850633 
L 428.679144 264.564135 
L 432.409091 255.655077 
L 436.139037 247.139957 
L 439.868984 239.030528 
L 443.59893 231.334002 
L 447.328877 224.053343 
L 451.058824 217.187627 
L 454.78877 210.732432 
L 458.518717 204.680273 
L 462.248663 199.021034 
L 465.97861 193.742406 
L 469.708556 188.830307 
L 473.438503 184.269274 
L 477.168449 180.042841 
L 480.898396 176.13386 
L 484.628342 172.524806 
L 488.358289 169.19803 
L 492.088235 166.135982 
L 495.818182 163.321396 
L 499.548128 160.737439 
L 503.278075 158.367834 
L 507.008021 156.196948 
L 510.737968 154.209867 
L 514.467914 152.392433 
L 518.197861 150.731281 
L 521.927807 149.213843 
L 525.657754 147.828353 
L 533.117647 145.410067 
L 540.57754 143.39766 
L 548.037433 141.723737 
L 555.497326 140.331161 
L 562.957219 139.171858 
L 570.417112 138.205628 
L 581.606952 137.046715 
L 592.796791 136.158606 
L 603.986631 135.474033 
L 618.906417 134.792956 
L 622.636364 134.654822 
L 622.636364 134.654822 
" style="fill:none;stroke:#9467bd;stroke-linecap:square;stroke-width:1.5;"/>
   </g>
   <g id="line2d_38">
    <path clip-path="url(#p8a762cd37a)" d="M 115.363636 605.290909 
L 130.283422 605.184539 
L 148.933155 604.819207 
L 163.852941 604.338394 
L 178.772727 603.632557 
L 189.962567 602.901117 
L 201.152406 601.93672 
L 208.612299 601.129579 
L 216.072193 600.160783 
L 223.532086 598.99887 
L 230.991979 597.60662 
L 238.451872 595.940174 
L 245.911765 593.948103 
L 253.371658 591.570441 
L 257.101604 590.215708 
L 260.831551 588.737754 
L 264.561497 587.126285 
L 268.291444 585.370329 
L 272.02139 583.458221 
L 275.751337 581.377607 
L 279.481283 579.115447 
L 283.21123 576.658038 
L 286.941176 573.991051 
L 290.671123 571.099581 
L 294.40107 567.968218 
L 298.131016 564.581144 
L 301.860963 560.922251 
L 305.590909 556.975292 
L 309.320856 552.724053 
L 313.050802 548.152574 
L 316.780749 543.245385 
L 320.510695 537.987792 
L 324.240642 532.36619 
L 327.970588 526.368404 
L 331.700535 519.98407 
L 335.430481 513.20502 
L 339.160428 506.025701 
L 342.890374 498.443576 
L 346.620321 490.45953 
L 350.350267 482.078247 
L 354.080214 473.308541 
L 357.81016 464.163632 
L 361.540107 454.661344 
L 369 434.679457 
L 376.459893 413.598623 
L 383.919786 391.72256 
L 406.299465 325.030952 
L 413.759358 303.737039 
L 421.219251 283.493205 
L 424.949198 273.850625 
L 428.679144 264.564127 
L 432.409091 255.65507 
L 436.139037 247.139951 
L 439.868984 239.030523 
L 443.59893 231.333997 
L 447.328877 224.053339 
L 451.058824 217.187623 
L 454.78877 210.732429 
L 458.518717 204.68027 
L 462.248663 199.021032 
L 465.97861 193.742405 
L 469.708556 188.830306 
L 473.438503 184.269274 
L 477.168449 180.042841 
L 480.898396 176.133861 
L 484.628342 172.524807 
L 488.358289 169.198031 
L 492.088235 166.135984 
L 495.818182 163.321399 
L 499.548128 160.737442 
L 503.278075 158.367836 
L 507.008021 156.196951 
L 510.737968 154.20987 
L 514.467914 152.392437 
L 518.197861 150.731285 
L 521.927807 149.213847 
L 525.657754 147.828357 
L 533.117647 145.410071 
L 540.57754 143.397665 
L 548.037433 141.723742 
L 555.497326 140.331166 
L 562.957219 139.171864 
L 570.417112 138.205634 
L 581.606952 137.046721 
L 592.796791 136.158612 
L 603.986631 135.47404 
L 618.906417 134.792963 
L 622.636364 134.654829 
L 622.636364 134.654829 
" style="fill:none;stroke:#8c564b;stroke-linecap:square;stroke-width:1.5;"/>
   </g>
   <g id="line2d_39">
    <path clip-path="url(#p8a762cd37a)" d="M 115.363636 605.290909 
L 130.283422 605.164998 
L 148.933155 604.751237 
L 163.852941 604.217924 
L 178.772727 603.441513 
L 189.962567 602.640554 
L 201.152406 601.587927 
L 208.612299 600.709195 
L 216.072193 599.656672 
L 223.532086 598.397035 
L 230.991979 596.891011 
L 238.451872 595.092513 
L 245.911765 592.947738 
L 253.371658 590.394265 
L 257.101604 588.942198 
L 260.831551 587.360229 
L 264.561497 585.637791 
L 268.291444 583.763659 
L 272.02139 581.725949 
L 275.751337 579.512129 
L 279.481283 577.109034 
L 283.21123 574.502904 
L 286.941176 571.679433 
L 290.671123 568.623831 
L 294.40107 565.32092 
L 298.131016 561.755242 
L 301.860963 557.911199 
L 305.590909 553.773219 
L 309.320856 549.325955 
L 313.050802 544.554514 
L 316.780749 539.444716 
L 320.510695 533.98339 
L 324.240642 528.158693 
L 327.970588 521.960465 
L 331.700535 515.380589 
L 335.430481 508.413381 
L 339.160428 501.055974 
L 342.890374 493.308695 
L 346.620321 485.175422 
L 350.350267 476.663906 
L 354.080214 467.786034 
L 357.81016 458.558029 
L 365.270053 439.138756 
L 372.729947 418.624207 
L 380.18984 397.297734 
L 406.299465 321.341041 
L 413.759358 300.771198 
L 421.219251 281.292055 
L 424.949198 272.035656 
L 428.679144 263.132042 
L 432.409091 254.598487 
L 436.139037 246.447757 
L 439.868984 238.68827 
L 443.59893 231.324352 
L 447.328877 224.356549 
L 451.058824 217.781994 
L 454.78877 211.594793 
L 458.518717 205.78644 
L 462.248663 200.34622 
L 465.97861 195.26161 
L 469.708556 190.518661 
L 473.438503 186.102348 
L 477.168449 181.996898 
L 480.898396 178.186071 
L 484.628342 174.653422 
L 488.358289 171.382515 
L 492.088235 168.357108 
L 495.818182 165.561305 
L 499.548128 162.97968 
L 503.278075 160.597371 
L 507.008021 158.40015 
L 510.737968 156.374476 
L 514.467914 154.507525 
L 518.197861 152.787206 
L 521.927807 151.202167 
L 529.387701 148.39615 
L 536.847594 146.012947 
L 544.307487 143.986672 
L 551.76738 142.261094 
L 559.227273 140.788554 
L 566.687166 139.528871 
L 574.147059 138.448301 
L 585.336898 137.10277 
L 596.526738 136.021205 
L 607.716578 135.145213 
L 622.636364 134.22157 
L 622.636364 134.22157 
" style="fill:none;stroke:#e377c2;stroke-linecap:square;stroke-width:1.5;"/>
   </g>
   <g id="line2d_40">
    <path clip-path="url(#p8a762cd37a)" d="M 115.363636 605.290909 
L 134.013369 605.151576 
L 152.663102 604.755844 
L 167.582888 604.223647 
L 178.772727 603.65618 
L 189.962567 602.896466 
L 201.152406 601.884656 
L 208.612299 601.031887 
L 216.072193 600.003142 
L 223.532086 598.763646 
L 230.991979 597.27223 
L 238.451872 595.480418 
L 245.911765 593.33149 
L 253.371658 590.759591 
L 257.101604 589.291757 
L 260.831551 587.688966 
L 264.561497 585.940119 
L 268.291444 584.03346 
L 272.02139 581.956585 
L 275.751337 579.696471 
L 279.481283 577.239515 
L 283.21123 574.571591 
L 286.941176 571.678127 
L 290.671123 568.54421 
L 294.40107 565.154709 
L 298.131016 561.494432 
L 301.860963 557.548306 
L 305.590909 553.301595 
L 309.320856 548.740145 
L 313.050802 543.850659 
L 316.780749 538.621001 
L 320.510695 533.040526 
L 324.240642 527.100425 
L 327.970588 520.794083 
L 331.700535 514.11744 
L 335.430481 507.069332 
L 339.160428 499.651821 
L 342.890374 491.870475 
L 346.620321 483.734599 
L 350.350267 475.257393 
L 354.080214 466.456029 
L 361.540107 447.969176 
L 369 428.487611 
L 376.459893 408.276522 
L 406.299465 326.310433 
L 413.759358 307.023637 
L 421.219251 288.694561 
L 424.949198 279.938335 
L 428.679144 271.473787 
L 432.409091 263.311469 
L 436.139037 255.458894 
L 439.868984 247.920756 
L 443.59893 240.699175 
L 447.328877 233.793954 
L 451.058824 227.202847 
L 454.78877 220.921826 
L 458.518717 214.945335 
L 462.248663 209.266539 
L 465.97861 203.877547 
L 469.708556 198.76963 
L 473.438503 193.933405 
L 477.168449 189.35901 
L 480.898396 185.036252 
L 484.628342 180.95474 
L 488.358289 177.103998 
L 492.088235 173.473561 
L 495.818182 170.053055 
L 499.548128 166.832266 
L 503.278075 163.801194 
L 507.008021 160.950095 
L 510.737968 158.269517 
L 514.467914 155.750324 
L 518.197861 153.383717 
L 521.927807 151.16124 
L 525.657754 149.074797 
L 533.117647 145.279404 
L 540.57754 141.939864 
L 548.037433 139.004046 
L 555.497326 136.425088 
L 562.957219 134.161056 
L 570.417112 132.174568 
L 577.877005 130.432396 
L 585.336898 128.905085 
L 592.796791 127.566573 
L 600.256684 126.393845 
L 611.446524 124.90187 
L 622.636364 123.679229 
L 622.636364 123.679229 
" style="fill:none;stroke:#7f7f7f;stroke-linecap:square;stroke-width:1.5;"/>
   </g>
   <g id="line2d_41">
    <path clip-path="url(#p8a762cd37a)" d="M 115.363636 605.290909 
L 134.013369 605.174715 
L 152.663102 604.831407 
L 167.582888 604.357084 
L 182.502674 603.633221 
L 193.692513 602.862201 
L 204.882353 601.823964 
L 212.342246 600.940964 
L 219.802139 599.867952 
L 227.262032 598.565819 
L 234.721925 596.988056 
L 242.181818 595.07971 
L 249.641711 592.776358 
L 253.371658 591.453604 
L 257.101604 590.003195 
L 260.831551 588.414049 
L 264.561497 586.674374 
L 268.291444 584.771682 
L 272.02139 582.692805 
L 275.751337 580.423934 
L 279.481283 577.950682 
L 283.21123 575.258158 
L 286.941176 572.331077 
L 290.671123 569.153891 
L 294.40107 565.710957 
L 298.131016 561.986735 
L 301.860963 557.966021 
L 305.590909 553.634213 
L 309.320856 548.977615 
L 313.050802 543.983769 
L 316.780749 538.641808 
L 320.510695 532.942837 
L 324.240642 526.880308 
L 327.970588 520.450404 
L 331.700535 513.652396 
L 335.430481 506.488966 
L 339.160428 498.966475 
L 342.890374 491.095166 
L 346.620321 482.889278 
L 350.350267 474.367059 
L 357.81016 456.465968 
L 365.270053 437.611532 
L 372.729947 418.069744 
L 398.839572 348.529506 
L 406.299465 329.475495 
L 413.759358 311.185911 
L 421.219251 293.803059 
L 428.679144 277.421198 
L 432.409091 269.623224 
L 436.139037 262.091878 
L 439.868984 254.828123 
L 443.59893 247.831201 
L 447.328877 241.098866 
L 451.058824 234.627615 
L 454.78877 228.412895 
L 458.518717 222.449294 
L 462.248663 216.730718 
L 465.97861 211.25054 
L 469.708556 206.001735 
L 473.438503 200.976996 
L 477.168449 196.168835 
L 480.898396 191.569664 
L 484.628342 187.171871 
L 488.358289 182.967871 
L 492.088235 178.950161 
L 495.818182 175.111354 
L 499.548128 171.444211 
L 503.278075 167.941664 
L 507.008021 164.596837 
L 514.467914 158.353848 
L 521.927807 152.664419 
L 529.387701 147.481233 
L 536.847594 142.760487 
L 544.307487 138.4618 
L 551.76738 134.548056 
L 559.227273 130.985224 
L 566.687166 127.742155 
L 574.147059 124.790377 
L 581.606952 122.103886 
L 589.066845 119.65896 
L 596.526738 117.433962 
L 603.986631 115.409172 
L 611.446524 113.566621 
L 618.906417 111.889941 
L 622.636364 111.109091 
L 622.636364 111.109091 
" style="fill:none;stroke:#bcbd22;stroke-linecap:square;stroke-width:1.5;"/>
   </g>
   <g id="line2d_42">
    <path clip-path="url(#p8a762cd37a)" d="M 115.363636 605.290909 
L 145.203209 605.181086 
L 160.122995 604.933983 
L 171.312834 604.192676 
L 175.042781 604.000485 
L 178.772727 603.671015 
L 186.23262 603.231722 
L 189.962567 602.764972 
L 193.692513 602.078577 
L 204.882353 601.090167 
L 208.612299 600.568506 
L 212.342246 599.854654 
L 216.072193 599.360449 
L 219.802139 599.113347 
L 223.532086 598.728965 
L 230.991979 597.658187 
L 238.451872 595.818647 
L 242.181818 594.308576 
L 245.911765 593.045607 
L 249.641711 592.139565 
L 253.371658 591.370802 
L 260.831551 588.268292 
L 264.561497 586.730766 
L 268.291444 585.7149 
L 272.02139 584.012638 
L 275.751337 583.161507 
L 279.481283 582.694758 
L 283.21123 581.321967 
L 286.941176 580.361012 
L 290.671123 579.262779 
L 294.40107 577.780164 
L 298.131016 576.764298 
L 301.860963 575.528786 
L 305.590909 574.430552 
L 309.320856 572.426276 
L 313.050802 569.763061 
L 316.780749 566.962566 
L 320.510695 563.832601 
L 324.240642 558.396346 
L 327.970588 553.481751 
L 331.700535 550.900903 
L 335.430481 543.927121 
L 342.890374 528.469487 
L 346.620321 519.244327 
L 350.350267 509.058213 
L 354.080214 499.421215 
L 357.81016 492.99655 
L 361.540107 482.700613 
L 365.270053 468.011742 
L 369 451.702977 
L 372.729947 434.241067 
L 376.459893 414.994528 
L 380.18984 400.662583 
L 383.919786 392.425833 
L 387.649733 378.588092 
L 398.839572 332.434836 
L 402.569519 316.235895 
L 406.299465 306.18706 
L 410.029412 296.742253 
L 413.759358 286.226669 
L 417.489305 275.354159 
L 421.219251 263.493239 
L 424.949198 252.922743 
L 428.679144 243.807406 
L 432.409091 237.794579 
L 436.139037 233.099631 
L 439.868984 225.302174 
L 443.59893 219.371714 
L 447.328877 213.660901 
L 451.058824 206.138003 
L 454.78877 197.818885 
L 458.518717 192.327719 
L 462.248663 187.715138 
L 465.97861 184.283159 
L 473.438503 178.819448 
L 477.168449 176.430791 
L 480.898396 173.27337 
L 484.628342 171.378918 
L 488.358289 170.363052 
L 492.088235 167.974394 
L 495.818182 166.601603 
L 499.548128 163.910931 
L 507.008021 161.000613 
L 510.737968 160.341673 
L 514.467914 159.43563 
L 518.197861 158.666867 
L 521.927807 157.733368 
L 525.657754 156.607679 
L 533.117647 155.289799 
L 536.847594 154.16411 
L 540.57754 153.587538 
L 548.037433 152.050011 
L 551.76738 150.128103 
L 555.497326 148.068915 
L 559.227273 146.888314 
L 566.687166 144.93895 
L 570.417112 143.566158 
L 574.147059 142.742483 
L 589.066845 138.02008 
L 592.796791 137.443507 
L 596.526738 136.04326 
L 600.256684 135.082306 
L 603.986631 133.956617 
L 607.716578 132.226899 
L 611.446524 131.046298 
L 615.176471 128.959655 
L 618.906417 127.037747 
L 622.636364 125.802234 
L 622.636364 125.802234 
" style="fill:none;stroke:#17becf;stroke-dasharray:14.8,6.4;stroke-dashoffset:0;stroke-width:4;"/>
   </g>
   <g id="patch_3">
    <path d="M 90 630 
L 90 86.4 
" style="fill:none;stroke:#000000;stroke-linecap:square;stroke-linejoin:miter;stroke-width:0.8;"/>
   </g>
   <g id="patch_4">
    <path d="M 648 630 
L 648 86.4 
" style="fill:none;stroke:#000000;stroke-linecap:square;stroke-linejoin:miter;stroke-width:0.8;"/>
   </g>
   <g id="patch_5">
    <path d="M 90 630 
L 648 630 
" style="fill:none;stroke:#000000;stroke-linecap:square;stroke-linejoin:miter;stroke-width:0.8;"/>
   </g>
   <g id="patch_6">
    <path d="M 90 86.4 
L 648 86.4 
" style="fill:none;stroke:#000000;stroke-linecap:square;stroke-linejoin:miter;stroke-width:0.8;"/>
   </g>
   <g id="text_19">
    <!-- Japan relative err =  -->
    <g transform="translate(308.46 80.4)scale(0.12 -0.12)">
     <defs>
      <path d="M 9.8125 72.90625 
L 19.671875 72.90625 
L 19.671875 5.078125 
Q 19.671875 -8.109375 14.671875 -14.0625 
Q 9.671875 -20.015625 -1.421875 -20.015625 
L -5.171875 -20.015625 
L -5.171875 -11.71875 
L -2.09375 -11.71875 
Q 4.4375 -11.71875 7.125 -8.046875 
Q 9.8125 -4.390625 9.8125 5.078125 
z
" id="DejaVuSans-74"/>
      <path d="M 18.109375 8.203125 
L 18.109375 -20.796875 
L 9.078125 -20.796875 
L 9.078125 54.6875 
L 18.109375 54.6875 
L 18.109375 46.390625 
Q 20.953125 51.265625 25.265625 53.625 
Q 29.59375 56 35.59375 56 
Q 45.5625 56 51.78125 48.09375 
Q 58.015625 40.1875 58.015625 27.296875 
Q 58.015625 14.40625 51.78125 6.484375 
Q 45.5625 -1.421875 35.59375 -1.421875 
Q 29.59375 -1.421875 25.265625 0.953125 
Q 20.953125 3.328125 18.109375 8.203125 
z
M 48.6875 27.296875 
Q 48.6875 37.203125 44.609375 42.84375 
Q 40.53125 48.484375 33.40625 48.484375 
Q 26.265625 48.484375 22.1875 42.84375 
Q 18.109375 37.203125 18.109375 27.296875 
Q 18.109375 17.390625 22.1875 11.75 
Q 26.265625 6.109375 33.40625 6.109375 
Q 40.53125 6.109375 44.609375 11.75 
Q 48.6875 17.390625 48.6875 27.296875 
z
" id="DejaVuSans-112"/>
      <path d="M 54.890625 33.015625 
L 54.890625 0 
L 45.90625 0 
L 45.90625 32.71875 
Q 45.90625 40.484375 42.875 44.328125 
Q 39.84375 48.1875 33.796875 48.1875 
Q 26.515625 48.1875 22.3125 43.546875 
Q 18.109375 38.921875 18.109375 30.90625 
L 18.109375 0 
L 9.078125 0 
L 9.078125 54.6875 
L 18.109375 54.6875 
L 18.109375 46.1875 
Q 21.34375 51.125 25.703125 53.5625 
Q 30.078125 56 35.796875 56 
Q 45.21875 56 50.046875 50.171875 
Q 54.890625 44.34375 54.890625 33.015625 
z
" id="DejaVuSans-110"/>
      <path d="M 41.109375 46.296875 
Q 39.59375 47.171875 37.8125 47.578125 
Q 36.03125 48 33.890625 48 
Q 26.265625 48 22.1875 43.046875 
Q 18.109375 38.09375 18.109375 28.8125 
L 18.109375 0 
L 9.078125 0 
L 9.078125 54.6875 
L 18.109375 54.6875 
L 18.109375 46.1875 
Q 20.953125 51.171875 25.484375 53.578125 
Q 30.03125 56 36.53125 56 
Q 37.453125 56 38.578125 55.875 
Q 39.703125 55.765625 41.0625 55.515625 
z
" id="DejaVuSans-114"/>
      <path d="M 10.59375 45.40625 
L 73.1875 45.40625 
L 73.1875 37.203125 
L 10.59375 37.203125 
z
M 10.59375 25.484375 
L 73.1875 25.484375 
L 73.1875 17.1875 
L 10.59375 17.1875 
z
" id="DejaVuSans-61"/>
     </defs>
     <use xlink:href="#DejaVuSans-74"/>
     <use x="29.492188" xlink:href="#DejaVuSans-97"/>
     <use x="90.771484" xlink:href="#DejaVuSans-112"/>
     <use x="154.248047" xlink:href="#DejaVuSans-97"/>
     <use x="215.527344" xlink:href="#DejaVuSans-110"/>
     <use x="278.90625" xlink:href="#DejaVuSans-32"/>
     <use x="310.693359" xlink:href="#DejaVuSans-114"/>
     <use x="349.556641" xlink:href="#DejaVuSans-101"/>
     <use x="411.080078" xlink:href="#DejaVuSans-108"/>
     <use x="438.863281" xlink:href="#DejaVuSans-97"/>
     <use x="500.142578" xlink:href="#DejaVuSans-116"/>
     <use x="539.351562" xlink:href="#DejaVuSans-105"/>
     <use x="567.134766" xlink:href="#DejaVuSans-118"/>
     <use x="626.314453" xlink:href="#DejaVuSans-101"/>
     <use x="687.837891" xlink:href="#DejaVuSans-32"/>
     <use x="719.625" xlink:href="#DejaVuSans-101"/>
     <use x="781.148438" xlink:href="#DejaVuSans-114"/>
     <use x="820.511719" xlink:href="#DejaVuSans-114"/>
     <use x="861.625" xlink:href="#DejaVuSans-32"/>
     <use x="893.412109" xlink:href="#DejaVuSans-61"/>
     <use x="977.201172" xlink:href="#DejaVuSans-32"/>
    </g>
   </g>
   <g id="legend_1">
    <g id="patch_7">
     <path d="M 97 226.503125 
L 185.6 226.503125 
Q 187.6 226.503125 187.6 224.503125 
L 187.6 93.4 
Q 187.6 91.4 185.6 91.4 
L 97 91.4 
Q 95 91.4 95 93.4 
L 95 224.503125 
Q 95 226.503125 97 226.503125 
z
" style="fill:#ffffff;opacity:0.8;stroke:#cccccc;stroke-linejoin:miter;"/>
    </g>
    <g id="line2d_43">
     <path d="M 99 99.498438 
L 119 99.498438 
" style="fill:none;stroke:#1f77b4;stroke-linecap:square;stroke-width:1.5;"/>
    </g>
    <g id="line2d_44"/>
    <g id="text_20">
     <!-- SI -->
     <g transform="translate(127 102.998438)scale(0.1 -0.1)">
      <defs>
       <path d="M 53.515625 70.515625 
L 53.515625 60.890625 
Q 47.90625 63.578125 42.921875 64.890625 
Q 37.9375 66.21875 33.296875 66.21875 
Q 25.25 66.21875 20.875 63.09375 
Q 16.5 59.96875 16.5 54.203125 
Q 16.5 49.359375 19.40625 46.890625 
Q 22.3125 44.4375 30.421875 42.921875 
L 36.375 41.703125 
Q 47.40625 39.59375 52.65625 34.296875 
Q 57.90625 29 57.90625 20.125 
Q 57.90625 9.515625 50.796875 4.046875 
Q 43.703125 -1.421875 29.984375 -1.421875 
Q 24.8125 -1.421875 18.96875 -0.25 
Q 13.140625 0.921875 6.890625 3.21875 
L 6.890625 13.375 
Q 12.890625 10.015625 18.65625 8.296875 
Q 24.421875 6.59375 29.984375 6.59375 
Q 38.421875 6.59375 43.015625 9.90625 
Q 47.609375 13.234375 47.609375 19.390625 
Q 47.609375 24.75 44.3125 27.78125 
Q 41.015625 30.8125 33.5 32.328125 
L 27.484375 33.5 
Q 16.453125 35.6875 11.515625 40.375 
Q 6.59375 45.0625 6.59375 53.421875 
Q 6.59375 63.09375 13.40625 68.65625 
Q 20.21875 74.21875 32.171875 74.21875 
Q 37.3125 74.21875 42.625 73.28125 
Q 47.953125 72.359375 53.515625 70.515625 
z
" id="DejaVuSans-83"/>
       <path d="M 9.8125 72.90625 
L 19.671875 72.90625 
L 19.671875 0 
L 9.8125 0 
z
" id="DejaVuSans-73"/>
      </defs>
      <use xlink:href="#DejaVuSans-83"/>
      <use x="63.476562" xlink:href="#DejaVuSans-73"/>
     </g>
    </g>
    <g id="line2d_45">
     <path d="M 99 114.176563 
L 119 114.176563 
" style="fill:none;stroke:#ff7f0e;stroke-linecap:square;stroke-width:1.5;"/>
    </g>
    <g id="line2d_46"/>
    <g id="text_21">
     <!-- BD -->
     <g transform="translate(127 117.676563)scale(0.1 -0.1)">
      <defs>
       <path d="M 19.671875 34.8125 
L 19.671875 8.109375 
L 35.5 8.109375 
Q 43.453125 8.109375 47.28125 11.40625 
Q 51.125 14.703125 51.125 21.484375 
Q 51.125 28.328125 47.28125 31.5625 
Q 43.453125 34.8125 35.5 34.8125 
z
M 19.671875 64.796875 
L 19.671875 42.828125 
L 34.28125 42.828125 
Q 41.5 42.828125 45.03125 45.53125 
Q 48.578125 48.25 48.578125 53.8125 
Q 48.578125 59.328125 45.03125 62.0625 
Q 41.5 64.796875 34.28125 64.796875 
z
M 9.8125 72.90625 
L 35.015625 72.90625 
Q 46.296875 72.90625 52.390625 68.21875 
Q 58.5 63.53125 58.5 54.890625 
Q 58.5 48.1875 55.375 44.234375 
Q 52.25 40.28125 46.1875 39.3125 
Q 53.46875 37.75 57.5 32.78125 
Q 61.53125 27.828125 61.53125 20.40625 
Q 61.53125 10.640625 54.890625 5.3125 
Q 48.25 0 35.984375 0 
L 9.8125 0 
z
" id="DejaVuSans-66"/>
      </defs>
      <use xlink:href="#DejaVuSans-66"/>
      <use x="68.603516" xlink:href="#DejaVuSans-68"/>
     </g>
    </g>
    <g id="line2d_47">
     <path d="M 99 128.854688 
L 119 128.854688 
" style="fill:none;stroke:#2ca02c;stroke-linecap:square;stroke-width:1.5;"/>
    </g>
    <g id="line2d_48"/>
    <g id="text_22">
     <!-- SIR -->
     <g transform="translate(127 132.354688)scale(0.1 -0.1)">
      <defs>
       <path d="M 44.390625 34.1875 
Q 47.5625 33.109375 50.5625 29.59375 
Q 53.5625 26.078125 56.59375 19.921875 
L 66.609375 0 
L 56 0 
L 46.6875 18.703125 
Q 43.0625 26.03125 39.671875 28.421875 
Q 36.28125 30.8125 30.421875 30.8125 
L 19.671875 30.8125 
L 19.671875 0 
L 9.8125 0 
L 9.8125 72.90625 
L 32.078125 72.90625 
Q 44.578125 72.90625 50.734375 67.671875 
Q 56.890625 62.453125 56.890625 51.90625 
Q 56.890625 45.015625 53.6875 40.46875 
Q 50.484375 35.9375 44.390625 34.1875 
z
M 19.671875 64.796875 
L 19.671875 38.921875 
L 32.078125 38.921875 
Q 39.203125 38.921875 42.84375 42.21875 
Q 46.484375 45.515625 46.484375 51.90625 
Q 46.484375 58.296875 42.84375 61.546875 
Q 39.203125 64.796875 32.078125 64.796875 
z
" id="DejaVuSans-82"/>
      </defs>
      <use xlink:href="#DejaVuSans-83"/>
      <use x="63.476562" xlink:href="#DejaVuSans-73"/>
      <use x="92.96875" xlink:href="#DejaVuSans-82"/>
     </g>
    </g>
    <g id="line2d_49">
     <path d="M 99 143.532812 
L 119 143.532812 
" style="fill:none;stroke:#d62728;stroke-linecap:square;stroke-width:1.5;"/>
    </g>
    <g id="line2d_50"/>
    <g id="text_23">
     <!-- eSIR -->
     <g transform="translate(127 147.032812)scale(0.1 -0.1)">
      <use xlink:href="#DejaVuSans-101"/>
      <use x="61.523438" xlink:href="#DejaVuSans-83"/>
      <use x="125" xlink:href="#DejaVuSans-73"/>
      <use x="154.492188" xlink:href="#DejaVuSans-82"/>
     </g>
    </g>
    <g id="line2d_51">
     <path d="M 99 158.210938 
L 119 158.210938 
" style="fill:none;stroke:#9467bd;stroke-linecap:square;stroke-width:1.5;"/>
    </g>
    <g id="line2d_52"/>
    <g id="text_24">
     <!-- SEIR -->
     <g transform="translate(127 161.710938)scale(0.1 -0.1)">
      <defs>
       <path d="M 9.8125 72.90625 
L 55.90625 72.90625 
L 55.90625 64.59375 
L 19.671875 64.59375 
L 19.671875 43.015625 
L 54.390625 43.015625 
L 54.390625 34.71875 
L 19.671875 34.71875 
L 19.671875 8.296875 
L 56.78125 8.296875 
L 56.78125 0 
L 9.8125 0 
z
" id="DejaVuSans-69"/>
      </defs>
      <use xlink:href="#DejaVuSans-83"/>
      <use x="63.476562" xlink:href="#DejaVuSans-69"/>
      <use x="126.660156" xlink:href="#DejaVuSans-73"/>
      <use x="156.152344" xlink:href="#DejaVuSans-82"/>
     </g>
    </g>
    <g id="line2d_53">
     <path d="M 99 172.889063 
L 119 172.889063 
" style="fill:none;stroke:#8c564b;stroke-linecap:square;stroke-width:1.5;"/>
    </g>
    <g id="line2d_54"/>
    <g id="text_25">
     <!-- eSEIR -->
     <g transform="translate(127 176.389063)scale(0.1 -0.1)">
      <use xlink:href="#DejaVuSans-101"/>
      <use x="61.523438" xlink:href="#DejaVuSans-83"/>
      <use x="125" xlink:href="#DejaVuSans-69"/>
      <use x="188.183594" xlink:href="#DejaVuSans-73"/>
      <use x="217.675781" xlink:href="#DejaVuSans-82"/>
     </g>
    </g>
    <g id="line2d_55">
     <path d="M 99 187.567188 
L 119 187.567188 
" style="fill:none;stroke:#e377c2;stroke-linecap:square;stroke-width:1.5;"/>
    </g>
    <g id="line2d_56"/>
    <g id="text_26">
     <!-- SEIUR -->
     <g transform="translate(127 191.067188)scale(0.1 -0.1)">
      <defs>
       <path d="M 8.6875 72.90625 
L 18.609375 72.90625 
L 18.609375 28.609375 
Q 18.609375 16.890625 22.84375 11.734375 
Q 27.09375 6.59375 36.625 6.59375 
Q 46.09375 6.59375 50.34375 11.734375 
Q 54.59375 16.890625 54.59375 28.609375 
L 54.59375 72.90625 
L 64.5 72.90625 
L 64.5 27.390625 
Q 64.5 13.140625 57.4375 5.859375 
Q 50.390625 -1.421875 36.625 -1.421875 
Q 22.796875 -1.421875 15.734375 5.859375 
Q 8.6875 13.140625 8.6875 27.390625 
z
" id="DejaVuSans-85"/>
      </defs>
      <use xlink:href="#DejaVuSans-83"/>
      <use x="63.476562" xlink:href="#DejaVuSans-69"/>
      <use x="126.660156" xlink:href="#DejaVuSans-73"/>
      <use x="156.152344" xlink:href="#DejaVuSans-85"/>
      <use x="229.345703" xlink:href="#DejaVuSans-82"/>
     </g>
    </g>
    <g id="line2d_57">
     <path d="M 99 202.245312 
L 119 202.245312 
" style="fill:none;stroke:#7f7f7f;stroke-linecap:square;stroke-width:1.5;"/>
    </g>
    <g id="line2d_58"/>
    <g id="text_27">
     <!-- eSEIUR -->
     <g transform="translate(127 205.745312)scale(0.1 -0.1)">
      <use xlink:href="#DejaVuSans-101"/>
      <use x="61.523438" xlink:href="#DejaVuSans-83"/>
      <use x="125" xlink:href="#DejaVuSans-69"/>
      <use x="188.183594" xlink:href="#DejaVuSans-73"/>
      <use x="217.675781" xlink:href="#DejaVuSans-85"/>
      <use x="290.869141" xlink:href="#DejaVuSans-82"/>
     </g>
    </g>
    <g id="line2d_59">
     <path d="M 99 216.923437 
L 119 216.923437 
" style="fill:none;stroke:#bcbd22;stroke-linecap:square;stroke-width:1.5;"/>
    </g>
    <g id="line2d_60"/>
    <g id="text_28">
     <!-- eSEIUR$^{range}$ -->
     <g transform="translate(127 220.423437)scale(0.1 -0.1)">
      <defs>
       <path d="M 44.578125 46.390625 
Q 43.21875 47.125 41.453125 47.515625 
Q 39.703125 47.90625 37.703125 47.90625 
Q 30.515625 47.90625 25.140625 42.453125 
Q 19.78125 37.015625 18.015625 27.875 
L 12.5 0 
L 3.515625 0 
L 14.203125 54.6875 
L 23.1875 54.6875 
L 21.484375 46.1875 
Q 25.046875 50.921875 30 53.453125 
Q 34.96875 56 40.578125 56 
Q 42.046875 56 43.453125 55.828125 
Q 44.875 55.671875 46.296875 55.28125 
z
" id="DejaVuSans-Oblique-114"/>
       <path d="M 53.71875 31.203125 
L 47.609375 0 
L 38.625 0 
L 40.28125 8.296875 
Q 36.328125 3.421875 31.265625 1 
Q 26.21875 -1.421875 20.015625 -1.421875 
Q 13.03125 -1.421875 8.5625 2.84375 
Q 4.109375 7.125 4.109375 13.8125 
Q 4.109375 23.390625 11.75 28.953125 
Q 19.390625 34.515625 32.8125 34.515625 
L 45.3125 34.515625 
L 45.796875 36.921875 
Q 45.90625 37.3125 45.953125 37.765625 
Q 46 38.234375 46 39.203125 
Q 46 43.5625 42.453125 45.96875 
Q 38.921875 48.390625 32.515625 48.390625 
Q 28.125 48.390625 23.5 47.265625 
Q 18.890625 46.140625 14.015625 43.890625 
L 15.578125 52.203125 
Q 20.65625 54.109375 25.515625 55.046875 
Q 30.375 56 34.90625 56 
Q 44.578125 56 49.625 51.796875 
Q 54.6875 47.609375 54.6875 39.59375 
Q 54.6875 37.984375 54.4375 35.8125 
Q 54.203125 33.640625 53.71875 31.203125 
z
M 44 27.484375 
L 35.015625 27.484375 
Q 23.96875 27.484375 18.671875 24.53125 
Q 13.375 21.578125 13.375 15.375 
Q 13.375 11.078125 16.078125 8.640625 
Q 18.796875 6.203125 23.578125 6.203125 
Q 30.90625 6.203125 36.375 11.453125 
Q 41.84375 16.703125 43.609375 25.484375 
z
" id="DejaVuSans-Oblique-97"/>
       <path d="M 55.71875 33.015625 
L 49.3125 0 
L 40.28125 0 
L 46.6875 32.671875 
Q 47.125 34.96875 47.359375 36.71875 
Q 47.609375 38.484375 47.609375 39.5 
Q 47.609375 43.609375 45.015625 45.890625 
Q 42.4375 48.1875 37.796875 48.1875 
Q 30.5625 48.1875 25.34375 43.375 
Q 20.125 38.578125 18.5 30.328125 
L 12.5 0 
L 3.515625 0 
L 14.109375 54.6875 
L 23.09375 54.6875 
L 21.296875 46.09375 
Q 25.046875 50.828125 30.3125 53.40625 
Q 35.59375 56 41.40625 56 
Q 48.640625 56 52.609375 52.09375 
Q 56.59375 48.1875 56.59375 41.109375 
Q 56.59375 39.359375 56.375 37.359375 
Q 56.15625 35.359375 55.71875 33.015625 
z
" id="DejaVuSans-Oblique-110"/>
       <path d="M 59.625 54.6875 
L 50.296875 6.78125 
Q 47.609375 -7.125 40.015625 -13.953125 
Q 32.421875 -20.796875 19.578125 -20.796875 
Q 14.84375 -20.796875 10.78125 -20.09375 
Q 6.734375 -19.390625 3.21875 -17.921875 
L 4.890625 -9.1875 
Q 8.203125 -11.328125 11.90625 -12.34375 
Q 15.625 -13.375 19.828125 -13.375 
Q 28.375 -13.375 33.859375 -8.703125 
Q 39.359375 -4.046875 41.109375 4.6875 
L 41.890625 8.796875 
Q 38.140625 4.5 33.15625 2.25 
Q 28.171875 0 22.40625 0 
Q 14.109375 0 9.34375 5.484375 
Q 4.59375 10.984375 4.59375 20.609375 
Q 4.59375 28.171875 7.46875 35.421875 
Q 10.359375 42.671875 15.578125 48.296875 
Q 19.046875 52 23.65625 54 
Q 28.265625 56 33.296875 56 
Q 38.8125 56 42.90625 53.4375 
Q 47.015625 50.875 49.03125 46.1875 
L 50.59375 54.6875 
z
M 46.09375 34.625 
Q 46.09375 41.265625 42.96875 44.875 
Q 39.84375 48.484375 34.078125 48.484375 
Q 30.515625 48.484375 27.296875 47.0625 
Q 24.078125 45.65625 21.78125 43.109375 
Q 18.0625 38.921875 15.984375 33.234375 
Q 13.921875 27.546875 13.921875 21.484375 
Q 13.921875 14.75 17.0625 11.125 
Q 20.21875 7.515625 26.125 7.515625 
Q 34.671875 7.515625 40.375 15.25 
Q 46.09375 23 46.09375 34.625 
z
" id="DejaVuSans-Oblique-103"/>
       <path d="M 48.09375 32.234375 
Q 48.25 33.015625 48.3125 33.84375 
Q 48.390625 34.671875 48.390625 35.5 
Q 48.390625 41.453125 44.890625 44.921875 
Q 41.40625 48.390625 35.40625 48.390625 
Q 28.71875 48.390625 23.578125 44.15625 
Q 18.453125 39.9375 15.828125 32.171875 
z
M 55.90625 25.203125 
L 14.109375 25.203125 
Q 13.8125 23.34375 13.71875 22.265625 
Q 13.625 21.1875 13.625 20.40625 
Q 13.625 13.625 17.796875 9.90625 
Q 21.96875 6.203125 29.59375 6.203125 
Q 35.453125 6.203125 40.671875 7.515625 
Q 45.90625 8.84375 50.390625 11.375 
L 48.6875 2.484375 
Q 43.84375 0.53125 38.6875 -0.4375 
Q 33.546875 -1.421875 28.21875 -1.421875 
Q 16.84375 -1.421875 10.71875 4.015625 
Q 4.59375 9.46875 4.59375 19.484375 
Q 4.59375 28.03125 7.640625 35.375 
Q 10.6875 42.71875 16.609375 48.484375 
Q 20.40625 52.09375 25.65625 54.046875 
Q 30.90625 56 36.8125 56 
Q 46.09375 56 51.578125 50.4375 
Q 57.078125 44.875 57.078125 35.5 
Q 57.078125 33.25 56.78125 30.6875 
Q 56.5 28.125 55.90625 25.203125 
z
" id="DejaVuSans-Oblique-101"/>
      </defs>
      <use transform="translate(0 0.51875)" xlink:href="#DejaVuSans-101"/>
      <use transform="translate(61.523438 0.51875)" xlink:href="#DejaVuSans-83"/>
      <use transform="translate(125 0.51875)" xlink:href="#DejaVuSans-69"/>
      <use transform="translate(188.183594 0.51875)" xlink:href="#DejaVuSans-73"/>
      <use transform="translate(217.675781 0.51875)" xlink:href="#DejaVuSans-85"/>
      <use transform="translate(288.619141 0.51875)" xlink:href="#DejaVuSans-82"/>
      <use transform="translate(359.058594 38.8)scale(0.7)" xlink:href="#DejaVuSans-Oblique-114"/>
      <use transform="translate(387.837891 38.8)scale(0.7)" xlink:href="#DejaVuSans-Oblique-97"/>
      <use transform="translate(430.733398 38.8)scale(0.7)" xlink:href="#DejaVuSans-Oblique-110"/>
      <use transform="translate(475.098633 38.8)scale(0.7)" xlink:href="#DejaVuSans-Oblique-103"/>
      <use transform="translate(519.532227 38.8)scale(0.7)" xlink:href="#DejaVuSans-Oblique-101"/>
     </g>
    </g>
   </g>
  </g>
 </g>
 <defs>
  <clipPath id="p8a762cd37a">
   <rect height="543.6" width="558" x="90" y="86.4"/>
  </clipPath>
 </defs>
</svg>
