<?xml version="1.0" encoding="utf-8" standalone="no"?>
<!DOCTYPE svg PUBLIC "-//W3C//DTD SVG 1.1//EN"
  "http://www.w3.org/Graphics/SVG/1.1/DTD/svg11.dtd">
<!-- Created with matplotlib (https://matplotlib.org/) -->
<svg height="720pt" version="1.1" viewBox="0 0 720 720" width="720pt" xmlns="http://www.w3.org/2000/svg" xmlns:xlink="http://www.w3.org/1999/xlink">
 <metadata>
  <rdf:RDF xmlns:cc="http://creativecommons.org/ns#" xmlns:dc="http://purl.org/dc/elements/1.1/" xmlns:rdf="http://www.w3.org/1999/02/22-rdf-syntax-ns#">
   <cc:Work>
    <dc:type rdf:resource="http://purl.org/dc/dcmitype/StillImage"/>
    <dc:date>2022-10-11T20:59:03.995044</dc:date>
    <dc:format>image/svg+xml</dc:format>
    <dc:creator>
     <cc:Agent>
      <dc:title>Matplotlib v3.3.2, https://matplotlib.org/</dc:title>
     </cc:Agent>
    </dc:creator>
   </cc:Work>
  </rdf:RDF>
 </metadata>
 <defs>
  <style type="text/css">*{stroke-linecap:butt;stroke-linejoin:round;}</style>
 </defs>
 <g id="figure_1">
  <g id="patch_1">
   <path d="M 0 720 
L 720 720 
L 720 0 
L 0 0 
z
" style="fill:none;"/>
  </g>
  <g id="axes_1">
   <g id="patch_2">
    <path d="M 90 630 
L 648 630 
L 648 86.4 
L 90 86.4 
z
" style="fill:#ffffff;"/>
   </g>
   <g id="matplotlib.axis_1">
    <g id="xtick_1">
     <g id="line2d_1">
      <path clip-path="url(#pf6b58996ec)" d="M 115.363636 630 
L 115.363636 86.4 
" style="fill:none;stroke:#b0b0b0;stroke-linecap:square;stroke-width:0.8;"/>
     </g>
     <g id="line2d_2">
      <defs>
       <path d="M 0 0 
L 0 3.5 
" id="m2e83ba17d2" style="stroke:#000000;stroke-width:0.8;"/>
      </defs>
      <g>
       <use style="stroke:#000000;stroke-width:0.8;" x="115.363636" xlink:href="#m2e83ba17d2" y="630"/>
      </g>
     </g>
     <g id="text_1">
      <!-- 0 -->
      <g transform="translate(112.182386 644.598438)scale(0.1 -0.1)">
       <defs>
        <path d="M 31.78125 66.40625 
Q 24.171875 66.40625 20.328125 58.90625 
Q 16.5 51.421875 16.5 36.375 
Q 16.5 21.390625 20.328125 13.890625 
Q 24.171875 6.390625 31.78125 6.390625 
Q 39.453125 6.390625 43.28125 13.890625 
Q 47.125 21.390625 47.125 36.375 
Q 47.125 51.421875 43.28125 58.90625 
Q 39.453125 66.40625 31.78125 66.40625 
z
M 31.78125 74.21875 
Q 44.046875 74.21875 50.515625 64.515625 
Q 56.984375 54.828125 56.984375 36.375 
Q 56.984375 17.96875 50.515625 8.265625 
Q 44.046875 -1.421875 31.78125 -1.421875 
Q 19.53125 -1.421875 13.0625 8.265625 
Q 6.59375 17.96875 6.59375 36.375 
Q 6.59375 54.828125 13.0625 64.515625 
Q 19.53125 74.21875 31.78125 74.21875 
z
" id="DejaVuSans-48"/>
       </defs>
       <use xlink:href="#DejaVuSans-48"/>
      </g>
     </g>
    </g>
    <g id="xtick_2">
     <g id="line2d_3">
      <path clip-path="url(#pf6b58996ec)" d="M 189.962567 630 
L 189.962567 86.4 
" style="fill:none;stroke:#b0b0b0;stroke-linecap:square;stroke-width:0.8;"/>
     </g>
     <g id="line2d_4">
      <g>
       <use style="stroke:#000000;stroke-width:0.8;" x="189.962567" xlink:href="#m2e83ba17d2" y="630"/>
      </g>
     </g>
     <g id="text_2">
      <!-- 10 -->
      <g transform="translate(183.600067 644.598438)scale(0.1 -0.1)">
       <defs>
        <path d="M 12.40625 8.296875 
L 28.515625 8.296875 
L 28.515625 63.921875 
L 10.984375 60.40625 
L 10.984375 69.390625 
L 28.421875 72.90625 
L 38.28125 72.90625 
L 38.28125 8.296875 
L 54.390625 8.296875 
L 54.390625 0 
L 12.40625 0 
z
" id="DejaVuSans-49"/>
       </defs>
       <use xlink:href="#DejaVuSans-49"/>
       <use x="63.623047" xlink:href="#DejaVuSans-48"/>
      </g>
     </g>
    </g>
    <g id="xtick_3">
     <g id="line2d_5">
      <path clip-path="url(#pf6b58996ec)" d="M 264.561497 630 
L 264.561497 86.4 
" style="fill:none;stroke:#b0b0b0;stroke-linecap:square;stroke-width:0.8;"/>
     </g>
     <g id="line2d_6">
      <g>
       <use style="stroke:#000000;stroke-width:0.8;" x="264.561497" xlink:href="#m2e83ba17d2" y="630"/>
      </g>
     </g>
     <g id="text_3">
      <!-- 20 -->
      <g transform="translate(258.198997 644.598438)scale(0.1 -0.1)">
       <defs>
        <path d="M 19.1875 8.296875 
L 53.609375 8.296875 
L 53.609375 0 
L 7.328125 0 
L 7.328125 8.296875 
Q 12.9375 14.109375 22.625 23.890625 
Q 32.328125 33.6875 34.8125 36.53125 
Q 39.546875 41.84375 41.421875 45.53125 
Q 43.3125 49.21875 43.3125 52.78125 
Q 43.3125 58.59375 39.234375 62.25 
Q 35.15625 65.921875 28.609375 65.921875 
Q 23.96875 65.921875 18.8125 64.3125 
Q 13.671875 62.703125 7.8125 59.421875 
L 7.8125 69.390625 
Q 13.765625 71.78125 18.9375 73 
Q 24.125 74.21875 28.421875 74.21875 
Q 39.75 74.21875 46.484375 68.546875 
Q 53.21875 62.890625 53.21875 53.421875 
Q 53.21875 48.921875 51.53125 44.890625 
Q 49.859375 40.875 45.40625 35.40625 
Q 44.1875 33.984375 37.640625 27.21875 
Q 31.109375 20.453125 19.1875 8.296875 
z
" id="DejaVuSans-50"/>
       </defs>
       <use xlink:href="#DejaVuSans-50"/>
       <use x="63.623047" xlink:href="#DejaVuSans-48"/>
      </g>
     </g>
    </g>
    <g id="xtick_4">
     <g id="line2d_7">
      <path clip-path="url(#pf6b58996ec)" d="M 339.160428 630 
L 339.160428 86.4 
" style="fill:none;stroke:#b0b0b0;stroke-linecap:square;stroke-width:0.8;"/>
     </g>
     <g id="line2d_8">
      <g>
       <use style="stroke:#000000;stroke-width:0.8;" x="339.160428" xlink:href="#m2e83ba17d2" y="630"/>
      </g>
     </g>
     <g id="text_4">
      <!-- 30 -->
      <g transform="translate(332.797928 644.598438)scale(0.1 -0.1)">
       <defs>
        <path d="M 40.578125 39.3125 
Q 47.65625 37.796875 51.625 33 
Q 55.609375 28.21875 55.609375 21.1875 
Q 55.609375 10.40625 48.1875 4.484375 
Q 40.765625 -1.421875 27.09375 -1.421875 
Q 22.515625 -1.421875 17.65625 -0.515625 
Q 12.796875 0.390625 7.625 2.203125 
L 7.625 11.71875 
Q 11.71875 9.328125 16.59375 8.109375 
Q 21.484375 6.890625 26.8125 6.890625 
Q 36.078125 6.890625 40.9375 10.546875 
Q 45.796875 14.203125 45.796875 21.1875 
Q 45.796875 27.640625 41.28125 31.265625 
Q 36.765625 34.90625 28.71875 34.90625 
L 20.21875 34.90625 
L 20.21875 43.015625 
L 29.109375 43.015625 
Q 36.375 43.015625 40.234375 45.921875 
Q 44.09375 48.828125 44.09375 54.296875 
Q 44.09375 59.90625 40.109375 62.90625 
Q 36.140625 65.921875 28.71875 65.921875 
Q 24.65625 65.921875 20.015625 65.03125 
Q 15.375 64.15625 9.8125 62.3125 
L 9.8125 71.09375 
Q 15.4375 72.65625 20.34375 73.4375 
Q 25.25 74.21875 29.59375 74.21875 
Q 40.828125 74.21875 47.359375 69.109375 
Q 53.90625 64.015625 53.90625 55.328125 
Q 53.90625 49.265625 50.4375 45.09375 
Q 46.96875 40.921875 40.578125 39.3125 
z
" id="DejaVuSans-51"/>
       </defs>
       <use xlink:href="#DejaVuSans-51"/>
       <use x="63.623047" xlink:href="#DejaVuSans-48"/>
      </g>
     </g>
    </g>
    <g id="xtick_5">
     <g id="line2d_9">
      <path clip-path="url(#pf6b58996ec)" d="M 413.759358 630 
L 413.759358 86.4 
" style="fill:none;stroke:#b0b0b0;stroke-linecap:square;stroke-width:0.8;"/>
     </g>
     <g id="line2d_10">
      <g>
       <use style="stroke:#000000;stroke-width:0.8;" x="413.759358" xlink:href="#m2e83ba17d2" y="630"/>
      </g>
     </g>
     <g id="text_5">
      <!-- 40 -->
      <g transform="translate(407.396858 644.598438)scale(0.1 -0.1)">
       <defs>
        <path d="M 37.796875 64.3125 
L 12.890625 25.390625 
L 37.796875 25.390625 
z
M 35.203125 72.90625 
L 47.609375 72.90625 
L 47.609375 25.390625 
L 58.015625 25.390625 
L 58.015625 17.1875 
L 47.609375 17.1875 
L 47.609375 0 
L 37.796875 0 
L 37.796875 17.1875 
L 4.890625 17.1875 
L 4.890625 26.703125 
z
" id="DejaVuSans-52"/>
       </defs>
       <use xlink:href="#DejaVuSans-52"/>
       <use x="63.623047" xlink:href="#DejaVuSans-48"/>
      </g>
     </g>
    </g>
    <g id="xtick_6">
     <g id="line2d_11">
      <path clip-path="url(#pf6b58996ec)" d="M 488.358289 630 
L 488.358289 86.4 
" style="fill:none;stroke:#b0b0b0;stroke-linecap:square;stroke-width:0.8;"/>
     </g>
     <g id="line2d_12">
      <g>
       <use style="stroke:#000000;stroke-width:0.8;" x="488.358289" xlink:href="#m2e83ba17d2" y="630"/>
      </g>
     </g>
     <g id="text_6">
      <!-- 50 -->
      <g transform="translate(481.995789 644.598438)scale(0.1 -0.1)">
       <defs>
        <path d="M 10.796875 72.90625 
L 49.515625 72.90625 
L 49.515625 64.59375 
L 19.828125 64.59375 
L 19.828125 46.734375 
Q 21.96875 47.46875 24.109375 47.828125 
Q 26.265625 48.1875 28.421875 48.1875 
Q 40.625 48.1875 47.75 41.5 
Q 54.890625 34.8125 54.890625 23.390625 
Q 54.890625 11.625 47.5625 5.09375 
Q 40.234375 -1.421875 26.90625 -1.421875 
Q 22.3125 -1.421875 17.546875 -0.640625 
Q 12.796875 0.140625 7.71875 1.703125 
L 7.71875 11.625 
Q 12.109375 9.234375 16.796875 8.0625 
Q 21.484375 6.890625 26.703125 6.890625 
Q 35.15625 6.890625 40.078125 11.328125 
Q 45.015625 15.765625 45.015625 23.390625 
Q 45.015625 31 40.078125 35.4375 
Q 35.15625 39.890625 26.703125 39.890625 
Q 22.75 39.890625 18.8125 39.015625 
Q 14.890625 38.140625 10.796875 36.28125 
z
" id="DejaVuSans-53"/>
       </defs>
       <use xlink:href="#DejaVuSans-53"/>
       <use x="63.623047" xlink:href="#DejaVuSans-48"/>
      </g>
     </g>
    </g>
    <g id="xtick_7">
     <g id="line2d_13">
      <path clip-path="url(#pf6b58996ec)" d="M 562.957219 630 
L 562.957219 86.4 
" style="fill:none;stroke:#b0b0b0;stroke-linecap:square;stroke-width:0.8;"/>
     </g>
     <g id="line2d_14">
      <g>
       <use style="stroke:#000000;stroke-width:0.8;" x="562.957219" xlink:href="#m2e83ba17d2" y="630"/>
      </g>
     </g>
     <g id="text_7">
      <!-- 60 -->
      <g transform="translate(556.594719 644.598438)scale(0.1 -0.1)">
       <defs>
        <path d="M 33.015625 40.375 
Q 26.375 40.375 22.484375 35.828125 
Q 18.609375 31.296875 18.609375 23.390625 
Q 18.609375 15.53125 22.484375 10.953125 
Q 26.375 6.390625 33.015625 6.390625 
Q 39.65625 6.390625 43.53125 10.953125 
Q 47.40625 15.53125 47.40625 23.390625 
Q 47.40625 31.296875 43.53125 35.828125 
Q 39.65625 40.375 33.015625 40.375 
z
M 52.59375 71.296875 
L 52.59375 62.3125 
Q 48.875 64.0625 45.09375 64.984375 
Q 41.3125 65.921875 37.59375 65.921875 
Q 27.828125 65.921875 22.671875 59.328125 
Q 17.53125 52.734375 16.796875 39.40625 
Q 19.671875 43.65625 24.015625 45.921875 
Q 28.375 48.1875 33.59375 48.1875 
Q 44.578125 48.1875 50.953125 41.515625 
Q 57.328125 34.859375 57.328125 23.390625 
Q 57.328125 12.15625 50.6875 5.359375 
Q 44.046875 -1.421875 33.015625 -1.421875 
Q 20.359375 -1.421875 13.671875 8.265625 
Q 6.984375 17.96875 6.984375 36.375 
Q 6.984375 53.65625 15.1875 63.9375 
Q 23.390625 74.21875 37.203125 74.21875 
Q 40.921875 74.21875 44.703125 73.484375 
Q 48.484375 72.75 52.59375 71.296875 
z
" id="DejaVuSans-54"/>
       </defs>
       <use xlink:href="#DejaVuSans-54"/>
       <use x="63.623047" xlink:href="#DejaVuSans-48"/>
      </g>
     </g>
    </g>
    <g id="xtick_8">
     <g id="line2d_15">
      <path clip-path="url(#pf6b58996ec)" d="M 637.55615 630 
L 637.55615 86.4 
" style="fill:none;stroke:#b0b0b0;stroke-linecap:square;stroke-width:0.8;"/>
     </g>
     <g id="line2d_16">
      <g>
       <use style="stroke:#000000;stroke-width:0.8;" x="637.55615" xlink:href="#m2e83ba17d2" y="630"/>
      </g>
     </g>
     <g id="text_8">
      <!-- 70 -->
      <g transform="translate(631.19365 644.598438)scale(0.1 -0.1)">
       <defs>
        <path d="M 8.203125 72.90625 
L 55.078125 72.90625 
L 55.078125 68.703125 
L 28.609375 0 
L 18.3125 0 
L 43.21875 64.59375 
L 8.203125 64.59375 
z
" id="DejaVuSans-55"/>
       </defs>
       <use xlink:href="#DejaVuSans-55"/>
       <use x="63.623047" xlink:href="#DejaVuSans-48"/>
      </g>
     </g>
    </g>
    <g id="text_9">
     <!-- Days -->
     <g transform="translate(356.521875 658.276562)scale(0.1 -0.1)">
      <defs>
       <path d="M 19.671875 64.796875 
L 19.671875 8.109375 
L 31.59375 8.109375 
Q 46.6875 8.109375 53.6875 14.9375 
Q 60.6875 21.78125 60.6875 36.53125 
Q 60.6875 51.171875 53.6875 57.984375 
Q 46.6875 64.796875 31.59375 64.796875 
z
M 9.8125 72.90625 
L 30.078125 72.90625 
Q 51.265625 72.90625 61.171875 64.09375 
Q 71.09375 55.28125 71.09375 36.53125 
Q 71.09375 17.671875 61.125 8.828125 
Q 51.171875 0 30.078125 0 
L 9.8125 0 
z
" id="DejaVuSans-68"/>
       <path d="M 34.28125 27.484375 
Q 23.390625 27.484375 19.1875 25 
Q 14.984375 22.515625 14.984375 16.5 
Q 14.984375 11.71875 18.140625 8.90625 
Q 21.296875 6.109375 26.703125 6.109375 
Q 34.1875 6.109375 38.703125 11.40625 
Q 43.21875 16.703125 43.21875 25.484375 
L 43.21875 27.484375 
z
M 52.203125 31.203125 
L 52.203125 0 
L 43.21875 0 
L 43.21875 8.296875 
Q 40.140625 3.328125 35.546875 0.953125 
Q 30.953125 -1.421875 24.3125 -1.421875 
Q 15.921875 -1.421875 10.953125 3.296875 
Q 6 8.015625 6 15.921875 
Q 6 25.140625 12.171875 29.828125 
Q 18.359375 34.515625 30.609375 34.515625 
L 43.21875 34.515625 
L 43.21875 35.40625 
Q 43.21875 41.609375 39.140625 45 
Q 35.0625 48.390625 27.6875 48.390625 
Q 23 48.390625 18.546875 47.265625 
Q 14.109375 46.140625 10.015625 43.890625 
L 10.015625 52.203125 
Q 14.9375 54.109375 19.578125 55.046875 
Q 24.21875 56 28.609375 56 
Q 40.484375 56 46.34375 49.84375 
Q 52.203125 43.703125 52.203125 31.203125 
z
" id="DejaVuSans-97"/>
       <path d="M 32.171875 -5.078125 
Q 28.375 -14.84375 24.75 -17.8125 
Q 21.140625 -20.796875 15.09375 -20.796875 
L 7.90625 -20.796875 
L 7.90625 -13.28125 
L 13.1875 -13.28125 
Q 16.890625 -13.28125 18.9375 -11.515625 
Q 21 -9.765625 23.484375 -3.21875 
L 25.09375 0.875 
L 2.984375 54.6875 
L 12.5 54.6875 
L 29.59375 11.921875 
L 46.6875 54.6875 
L 56.203125 54.6875 
z
" id="DejaVuSans-121"/>
       <path d="M 44.28125 53.078125 
L 44.28125 44.578125 
Q 40.484375 46.53125 36.375 47.5 
Q 32.28125 48.484375 27.875 48.484375 
Q 21.1875 48.484375 17.84375 46.4375 
Q 14.5 44.390625 14.5 40.28125 
Q 14.5 37.15625 16.890625 35.375 
Q 19.28125 33.59375 26.515625 31.984375 
L 29.59375 31.296875 
Q 39.15625 29.25 43.1875 25.515625 
Q 47.21875 21.78125 47.21875 15.09375 
Q 47.21875 7.46875 41.1875 3.015625 
Q 35.15625 -1.421875 24.609375 -1.421875 
Q 20.21875 -1.421875 15.453125 -0.5625 
Q 10.6875 0.296875 5.421875 2 
L 5.421875 11.28125 
Q 10.40625 8.6875 15.234375 7.390625 
Q 20.0625 6.109375 24.8125 6.109375 
Q 31.15625 6.109375 34.5625 8.28125 
Q 37.984375 10.453125 37.984375 14.40625 
Q 37.984375 18.0625 35.515625 20.015625 
Q 33.0625 21.96875 24.703125 23.78125 
L 21.578125 24.515625 
Q 13.234375 26.265625 9.515625 29.90625 
Q 5.8125 33.546875 5.8125 39.890625 
Q 5.8125 47.609375 11.28125 51.796875 
Q 16.75 56 26.8125 56 
Q 31.78125 56 36.171875 55.265625 
Q 40.578125 54.546875 44.28125 53.078125 
z
" id="DejaVuSans-115"/>
      </defs>
      <use xlink:href="#DejaVuSans-68"/>
      <use x="77.001953" xlink:href="#DejaVuSans-97"/>
      <use x="138.28125" xlink:href="#DejaVuSans-121"/>
      <use x="197.460938" xlink:href="#DejaVuSans-115"/>
     </g>
    </g>
   </g>
   <g id="matplotlib.axis_2">
    <g id="ytick_1">
     <g id="line2d_17">
      <path clip-path="url(#pf6b58996ec)" d="M 90 613.787799 
L 648 613.787799 
" style="fill:none;stroke:#b0b0b0;stroke-linecap:square;stroke-width:0.8;"/>
     </g>
     <g id="line2d_18">
      <defs>
       <path d="M 0 0 
L -3.5 0 
" id="m87ace05951" style="stroke:#000000;stroke-width:0.8;"/>
      </defs>
      <g>
       <use style="stroke:#000000;stroke-width:0.8;" x="90" xlink:href="#m87ace05951" y="613.787799"/>
      </g>
     </g>
     <g id="text_10">
      <!-- 0 -->
      <g transform="translate(76.6375 617.587018)scale(0.1 -0.1)">
       <use xlink:href="#DejaVuSans-48"/>
      </g>
     </g>
    </g>
    <g id="ytick_2">
     <g id="line2d_19">
      <path clip-path="url(#pf6b58996ec)" d="M 90 519.377907 
L 648 519.377907 
" style="fill:none;stroke:#b0b0b0;stroke-linecap:square;stroke-width:0.8;"/>
     </g>
     <g id="line2d_20">
      <g>
       <use style="stroke:#000000;stroke-width:0.8;" x="90" xlink:href="#m87ace05951" y="519.377907"/>
      </g>
     </g>
     <g id="text_11">
      <!-- 200 -->
      <g transform="translate(63.9125 523.177126)scale(0.1 -0.1)">
       <use xlink:href="#DejaVuSans-50"/>
       <use x="63.623047" xlink:href="#DejaVuSans-48"/>
       <use x="127.246094" xlink:href="#DejaVuSans-48"/>
      </g>
     </g>
    </g>
    <g id="ytick_3">
     <g id="line2d_21">
      <path clip-path="url(#pf6b58996ec)" d="M 90 424.968016 
L 648 424.968016 
" style="fill:none;stroke:#b0b0b0;stroke-linecap:square;stroke-width:0.8;"/>
     </g>
     <g id="line2d_22">
      <g>
       <use style="stroke:#000000;stroke-width:0.8;" x="90" xlink:href="#m87ace05951" y="424.968016"/>
      </g>
     </g>
     <g id="text_12">
      <!-- 400 -->
      <g transform="translate(63.9125 428.767234)scale(0.1 -0.1)">
       <use xlink:href="#DejaVuSans-52"/>
       <use x="63.623047" xlink:href="#DejaVuSans-48"/>
       <use x="127.246094" xlink:href="#DejaVuSans-48"/>
      </g>
     </g>
    </g>
    <g id="ytick_4">
     <g id="line2d_23">
      <path clip-path="url(#pf6b58996ec)" d="M 90 330.558124 
L 648 330.558124 
" style="fill:none;stroke:#b0b0b0;stroke-linecap:square;stroke-width:0.8;"/>
     </g>
     <g id="line2d_24">
      <g>
       <use style="stroke:#000000;stroke-width:0.8;" x="90" xlink:href="#m87ace05951" y="330.558124"/>
      </g>
     </g>
     <g id="text_13">
      <!-- 600 -->
      <g transform="translate(63.9125 334.357342)scale(0.1 -0.1)">
       <use xlink:href="#DejaVuSans-54"/>
       <use x="63.623047" xlink:href="#DejaVuSans-48"/>
       <use x="127.246094" xlink:href="#DejaVuSans-48"/>
      </g>
     </g>
    </g>
    <g id="ytick_5">
     <g id="line2d_25">
      <path clip-path="url(#pf6b58996ec)" d="M 90 236.148232 
L 648 236.148232 
" style="fill:none;stroke:#b0b0b0;stroke-linecap:square;stroke-width:0.8;"/>
     </g>
     <g id="line2d_26">
      <g>
       <use style="stroke:#000000;stroke-width:0.8;" x="90" xlink:href="#m87ace05951" y="236.148232"/>
      </g>
     </g>
     <g id="text_14">
      <!-- 800 -->
      <g transform="translate(63.9125 239.94745)scale(0.1 -0.1)">
       <defs>
        <path d="M 31.78125 34.625 
Q 24.75 34.625 20.71875 30.859375 
Q 16.703125 27.09375 16.703125 20.515625 
Q 16.703125 13.921875 20.71875 10.15625 
Q 24.75 6.390625 31.78125 6.390625 
Q 38.8125 6.390625 42.859375 10.171875 
Q 46.921875 13.96875 46.921875 20.515625 
Q 46.921875 27.09375 42.890625 30.859375 
Q 38.875 34.625 31.78125 34.625 
z
M 21.921875 38.8125 
Q 15.578125 40.375 12.03125 44.71875 
Q 8.5 49.078125 8.5 55.328125 
Q 8.5 64.0625 14.71875 69.140625 
Q 20.953125 74.21875 31.78125 74.21875 
Q 42.671875 74.21875 48.875 69.140625 
Q 55.078125 64.0625 55.078125 55.328125 
Q 55.078125 49.078125 51.53125 44.71875 
Q 48 40.375 41.703125 38.8125 
Q 48.828125 37.15625 52.796875 32.3125 
Q 56.78125 27.484375 56.78125 20.515625 
Q 56.78125 9.90625 50.3125 4.234375 
Q 43.84375 -1.421875 31.78125 -1.421875 
Q 19.734375 -1.421875 13.25 4.234375 
Q 6.78125 9.90625 6.78125 20.515625 
Q 6.78125 27.484375 10.78125 32.3125 
Q 14.796875 37.15625 21.921875 38.8125 
z
M 18.3125 54.390625 
Q 18.3125 48.734375 21.84375 45.5625 
Q 25.390625 42.390625 31.78125 42.390625 
Q 38.140625 42.390625 41.71875 45.5625 
Q 45.3125 48.734375 45.3125 54.390625 
Q 45.3125 60.0625 41.71875 63.234375 
Q 38.140625 66.40625 31.78125 66.40625 
Q 25.390625 66.40625 21.84375 63.234375 
Q 18.3125 60.0625 18.3125 54.390625 
z
" id="DejaVuSans-56"/>
       </defs>
       <use xlink:href="#DejaVuSans-56"/>
       <use x="63.623047" xlink:href="#DejaVuSans-48"/>
       <use x="127.246094" xlink:href="#DejaVuSans-48"/>
      </g>
     </g>
    </g>
    <g id="ytick_6">
     <g id="line2d_27">
      <path clip-path="url(#pf6b58996ec)" d="M 90 141.73834 
L 648 141.73834 
" style="fill:none;stroke:#b0b0b0;stroke-linecap:square;stroke-width:0.8;"/>
     </g>
     <g id="line2d_28">
      <g>
       <use style="stroke:#000000;stroke-width:0.8;" x="90" xlink:href="#m87ace05951" y="141.73834"/>
      </g>
     </g>
     <g id="text_15">
      <!-- 1000 -->
      <g transform="translate(57.55 145.537559)scale(0.1 -0.1)">
       <use xlink:href="#DejaVuSans-49"/>
       <use x="63.623047" xlink:href="#DejaVuSans-48"/>
       <use x="127.246094" xlink:href="#DejaVuSans-48"/>
       <use x="190.869141" xlink:href="#DejaVuSans-48"/>
      </g>
     </g>
    </g>
    <g id="text_16">
     <!-- Cumulative cases -->
     <g transform="translate(51.470312 402.425781)rotate(-90)scale(0.1 -0.1)">
      <defs>
       <path d="M 64.40625 67.28125 
L 64.40625 56.890625 
Q 59.421875 61.53125 53.78125 63.8125 
Q 48.140625 66.109375 41.796875 66.109375 
Q 29.296875 66.109375 22.65625 58.46875 
Q 16.015625 50.828125 16.015625 36.375 
Q 16.015625 21.96875 22.65625 14.328125 
Q 29.296875 6.6875 41.796875 6.6875 
Q 48.140625 6.6875 53.78125 8.984375 
Q 59.421875 11.28125 64.40625 15.921875 
L 64.40625 5.609375 
Q 59.234375 2.09375 53.4375 0.328125 
Q 47.65625 -1.421875 41.21875 -1.421875 
Q 24.65625 -1.421875 15.125 8.703125 
Q 5.609375 18.84375 5.609375 36.375 
Q 5.609375 53.953125 15.125 64.078125 
Q 24.65625 74.21875 41.21875 74.21875 
Q 47.75 74.21875 53.53125 72.484375 
Q 59.328125 70.75 64.40625 67.28125 
z
" id="DejaVuSans-67"/>
       <path d="M 8.5 21.578125 
L 8.5 54.6875 
L 17.484375 54.6875 
L 17.484375 21.921875 
Q 17.484375 14.15625 20.5 10.265625 
Q 23.53125 6.390625 29.59375 6.390625 
Q 36.859375 6.390625 41.078125 11.03125 
Q 45.3125 15.671875 45.3125 23.6875 
L 45.3125 54.6875 
L 54.296875 54.6875 
L 54.296875 0 
L 45.3125 0 
L 45.3125 8.40625 
Q 42.046875 3.421875 37.71875 1 
Q 33.40625 -1.421875 27.6875 -1.421875 
Q 18.265625 -1.421875 13.375 4.4375 
Q 8.5 10.296875 8.5 21.578125 
z
M 31.109375 56 
z
" id="DejaVuSans-117"/>
       <path d="M 52 44.1875 
Q 55.375 50.25 60.0625 53.125 
Q 64.75 56 71.09375 56 
Q 79.640625 56 84.28125 50.015625 
Q 88.921875 44.046875 88.921875 33.015625 
L 88.921875 0 
L 79.890625 0 
L 79.890625 32.71875 
Q 79.890625 40.578125 77.09375 44.375 
Q 74.3125 48.1875 68.609375 48.1875 
Q 61.625 48.1875 57.5625 43.546875 
Q 53.515625 38.921875 53.515625 30.90625 
L 53.515625 0 
L 44.484375 0 
L 44.484375 32.71875 
Q 44.484375 40.625 41.703125 44.40625 
Q 38.921875 48.1875 33.109375 48.1875 
Q 26.21875 48.1875 22.15625 43.53125 
Q 18.109375 38.875 18.109375 30.90625 
L 18.109375 0 
L 9.078125 0 
L 9.078125 54.6875 
L 18.109375 54.6875 
L 18.109375 46.1875 
Q 21.1875 51.21875 25.484375 53.609375 
Q 29.78125 56 35.6875 56 
Q 41.65625 56 45.828125 52.96875 
Q 50 49.953125 52 44.1875 
z
" id="DejaVuSans-109"/>
       <path d="M 9.421875 75.984375 
L 18.40625 75.984375 
L 18.40625 0 
L 9.421875 0 
z
" id="DejaVuSans-108"/>
       <path d="M 18.3125 70.21875 
L 18.3125 54.6875 
L 36.8125 54.6875 
L 36.8125 47.703125 
L 18.3125 47.703125 
L 18.3125 18.015625 
Q 18.3125 11.328125 20.140625 9.421875 
Q 21.96875 7.515625 27.59375 7.515625 
L 36.8125 7.515625 
L 36.8125 0 
L 27.59375 0 
Q 17.1875 0 13.234375 3.875 
Q 9.28125 7.765625 9.28125 18.015625 
L 9.28125 47.703125 
L 2.6875 47.703125 
L 2.6875 54.6875 
L 9.28125 54.6875 
L 9.28125 70.21875 
z
" id="DejaVuSans-116"/>
       <path d="M 9.421875 54.6875 
L 18.40625 54.6875 
L 18.40625 0 
L 9.421875 0 
z
M 9.421875 75.984375 
L 18.40625 75.984375 
L 18.40625 64.59375 
L 9.421875 64.59375 
z
" id="DejaVuSans-105"/>
       <path d="M 2.984375 54.6875 
L 12.5 54.6875 
L 29.59375 8.796875 
L 46.6875 54.6875 
L 56.203125 54.6875 
L 35.6875 0 
L 23.484375 0 
z
" id="DejaVuSans-118"/>
       <path d="M 56.203125 29.59375 
L 56.203125 25.203125 
L 14.890625 25.203125 
Q 15.484375 15.921875 20.484375 11.0625 
Q 25.484375 6.203125 34.421875 6.203125 
Q 39.59375 6.203125 44.453125 7.46875 
Q 49.3125 8.734375 54.109375 11.28125 
L 54.109375 2.78125 
Q 49.265625 0.734375 44.1875 -0.34375 
Q 39.109375 -1.421875 33.890625 -1.421875 
Q 20.796875 -1.421875 13.15625 6.1875 
Q 5.515625 13.8125 5.515625 26.8125 
Q 5.515625 40.234375 12.765625 48.109375 
Q 20.015625 56 32.328125 56 
Q 43.359375 56 49.78125 48.890625 
Q 56.203125 41.796875 56.203125 29.59375 
z
M 47.21875 32.234375 
Q 47.125 39.59375 43.09375 43.984375 
Q 39.0625 48.390625 32.421875 48.390625 
Q 24.90625 48.390625 20.390625 44.140625 
Q 15.875 39.890625 15.1875 32.171875 
z
" id="DejaVuSans-101"/>
       <path id="DejaVuSans-32"/>
       <path d="M 48.78125 52.59375 
L 48.78125 44.1875 
Q 44.96875 46.296875 41.140625 47.34375 
Q 37.3125 48.390625 33.40625 48.390625 
Q 24.65625 48.390625 19.8125 42.84375 
Q 14.984375 37.3125 14.984375 27.296875 
Q 14.984375 17.28125 19.8125 11.734375 
Q 24.65625 6.203125 33.40625 6.203125 
Q 37.3125 6.203125 41.140625 7.25 
Q 44.96875 8.296875 48.78125 10.40625 
L 48.78125 2.09375 
Q 45.015625 0.34375 40.984375 -0.53125 
Q 36.96875 -1.421875 32.421875 -1.421875 
Q 20.0625 -1.421875 12.78125 6.34375 
Q 5.515625 14.109375 5.515625 27.296875 
Q 5.515625 40.671875 12.859375 48.328125 
Q 20.21875 56 33.015625 56 
Q 37.15625 56 41.109375 55.140625 
Q 45.0625 54.296875 48.78125 52.59375 
z
" id="DejaVuSans-99"/>
      </defs>
      <use xlink:href="#DejaVuSans-67"/>
      <use x="69.824219" xlink:href="#DejaVuSans-117"/>
      <use x="133.203125" xlink:href="#DejaVuSans-109"/>
      <use x="230.615234" xlink:href="#DejaVuSans-117"/>
      <use x="293.994141" xlink:href="#DejaVuSans-108"/>
      <use x="321.777344" xlink:href="#DejaVuSans-97"/>
      <use x="383.056641" xlink:href="#DejaVuSans-116"/>
      <use x="422.265625" xlink:href="#DejaVuSans-105"/>
      <use x="450.048828" xlink:href="#DejaVuSans-118"/>
      <use x="509.228516" xlink:href="#DejaVuSans-101"/>
      <use x="570.751953" xlink:href="#DejaVuSans-32"/>
      <use x="602.539062" xlink:href="#DejaVuSans-99"/>
      <use x="657.519531" xlink:href="#DejaVuSans-97"/>
      <use x="718.798828" xlink:href="#DejaVuSans-115"/>
      <use x="770.898438" xlink:href="#DejaVuSans-101"/>
      <use x="832.421875" xlink:href="#DejaVuSans-115"/>
     </g>
    </g>
   </g>
   <g id="line2d_29">
    <path clip-path="url(#pf6b58996ec)" d="M 115.363636 605.290909 
L 122.823529 603.52631 
L 130.283422 601.4051 
L 137.743316 598.859671 
L 145.203209 595.811594 
L 152.663102 592.170777 
L 160.122995 587.834996 
L 167.582888 582.690023 
L 175.042781 576.610676 
L 182.502674 569.46316 
L 189.962567 561.10912 
L 197.42246 551.411815 
L 204.882353 540.244716 
L 212.342246 527.502601 
L 219.802139 513.114777 
L 227.262032 497.059522 
L 234.721925 479.378108 
L 242.181818 460.186159 
L 249.641711 439.679747 
L 257.101604 418.133841 
L 264.561497 395.891638 
L 272.02139 373.344916 
L 279.481283 350.907424 
L 286.941176 328.98498 
L 294.40107 307.946765 
L 301.860963 288.102012 
L 309.320856 269.684941 
L 316.780749 252.848991 
L 324.240642 237.669539 
L 331.700535 224.153095 
L 339.160428 212.250371 
L 346.620321 201.870766 
L 354.080214 192.896329 
L 361.540107 185.193935 
L 369 178.625081 
L 376.459893 173.053184 
L 383.919786 168.348589 
L 391.379679 164.391675 
L 398.839572 161.074458 
L 406.299465 158.301122 
L 413.759358 155.987794 
L 421.219251 154.061853 
L 428.679144 152.460975 
L 436.139037 151.132053 
L 443.59893 150.030097 
L 451.058824 149.117175 
L 458.518717 148.361429 
L 465.97861 147.736188 
L 473.438503 147.219184 
L 480.898396 146.791862 
L 488.358289 146.43879 
L 495.818182 146.147152 
L 503.278075 145.906316 
L 510.737968 145.707472 
L 518.197861 145.543325 
L 525.657754 145.40784 
L 533.117647 145.296025 
L 540.57754 145.203752 
L 548.037433 145.127612 
L 555.497326 145.064788 
L 562.957219 145.012954 
L 570.417112 144.97019 
L 577.877005 144.934909 
L 585.336898 144.905803 
L 592.796791 144.881792 
L 600.256684 144.861984 
L 607.716578 144.845644 
L 615.176471 144.832165 
L 622.636364 144.821046 
" style="fill:none;stroke:#1f77b4;stroke-linecap:square;stroke-width:1.5;"/>
   </g>
   <g id="line2d_30">
    <path clip-path="url(#pf6b58996ec)" d="M 115.363636 605.290909 
L 122.823529 599.68747 
L 130.283422 593.554691 
L 137.743316 586.860216 
L 145.203209 579.573566 
L 152.663102 571.667124 
L 160.122995 563.117226 
L 167.582888 553.905361 
L 175.042781 544.019421 
L 182.502674 533.454974 
L 189.962567 522.216484 
L 197.42246 510.318423 
L 204.882353 497.786174 
L 212.342246 484.65666 
L 219.802139 470.978611 
L 227.262032 456.812397 
L 234.721925 442.229394 
L 242.181818 427.310855 
L 249.641711 412.146304 
L 257.101604 396.831509 
L 264.561497 381.466131 
L 272.02139 366.151153 
L 279.481283 350.98624 
L 286.941176 336.067171 
L 294.40107 321.483483 
L 301.860963 307.316445 
L 309.320856 293.637451 
L 316.780749 280.506894 
L 324.240642 267.973524 
L 331.700535 256.074285 
L 339.160428 244.834582 
L 346.620321 234.268904 
L 354.080214 224.381734 
L 361.540107 215.168654 
L 369 206.61757 
L 376.459893 198.70998 
L 383.919786 191.422229 
L 391.379679 184.726706 
L 398.839572 178.592936 
L 406.299465 172.988566 
L 413.759358 167.880209 
L 421.219251 163.234167 
L 428.679144 159.017022 
L 436.139037 155.196107 
L 443.59893 151.739869 
L 451.058824 148.618141 
L 458.518717 145.802325 
L 465.97861 143.265515 
L 473.438503 140.982554 
L 480.898396 138.930054 
L 488.358289 137.086378 
L 495.818182 135.431592 
L 503.278075 133.947397 
L 510.737968 132.617058 
L 518.197861 131.425306 
L 525.657754 130.358251 
L 533.117647 129.403283 
L 540.57754 128.548978 
L 548.037433 127.785008 
L 555.497326 127.102043 
L 562.957219 126.491674 
L 570.417112 125.946328 
L 577.877005 125.459191 
L 585.336898 125.024141 
L 592.796791 124.635683 
L 600.256684 124.288883 
L 607.716578 123.979321 
L 615.176471 123.703035 
L 622.636364 123.456477 
" style="fill:none;stroke:#ff7f0e;stroke-linecap:square;stroke-width:1.5;"/>
   </g>
   <g id="line2d_31">
    <path clip-path="url(#pf6b58996ec)" d="M 115.363636 605.290909 
L 122.823529 600.155683 
L 130.283422 594.465247 
L 137.743316 588.178637 
L 145.203209 581.256505 
L 152.663102 573.662425 
L 160.122995 565.364379 
L 167.582888 556.336415 
L 175.042781 546.5604 
L 182.502674 536.027801 
L 189.962567 524.741398 
L 197.42246 512.716788 
L 204.882353 499.983571 
L 212.342246 486.586064 
L 219.802139 472.583437 
L 227.262032 458.049182 
L 234.721925 443.069868 
L 242.181818 427.743207 
L 249.641711 412.175507 
L 257.101604 396.478655 
L 264.561497 380.766805 
L 272.02139 365.152994 
L 279.481283 349.74589 
L 286.941176 334.64688 
L 294.40107 319.947636 
L 301.860963 305.728285 
L 309.320856 292.056206 
L 316.780749 278.985466 
L 324.240642 266.55683 
L 331.700535 254.798266 
L 339.160428 243.725837 
L 346.620321 233.344871 
L 354.080214 223.651308 
L 361.540107 214.633117 
L 369 206.271722 
L 376.459893 198.543362 
L 383.919786 191.420352 
L 391.379679 184.872216 
L 398.839572 178.86667 
L 406.299465 173.370471 
L 413.759358 168.350112 
L 421.219251 163.77239 
L 428.679144 159.604855 
L 436.139037 155.816148 
L 443.59893 152.376253 
L 451.058824 149.256669 
L 458.518717 146.430518 
L 465.97861 143.872603 
L 473.438503 141.55942 
L 480.898396 139.469143 
L 488.358289 137.581584 
L 495.818182 135.878131 
L 503.278075 134.341676 
L 510.737968 132.956535 
L 518.197861 131.708366 
L 525.657754 130.584073 
L 533.117647 129.571727 
L 540.57754 128.660477 
L 548.037433 127.840466 
L 555.497326 127.102751 
L 562.957219 126.439227 
L 570.417112 125.842561 
L 577.877005 125.306116 
L 585.336898 124.823896 
L 592.796791 124.390486 
L 600.256684 124.000999 
L 607.716578 123.651027 
L 615.176471 123.336595 
L 622.636364 123.054122 
" style="fill:none;stroke:#2ca02c;stroke-linecap:square;stroke-width:1.5;"/>
   </g>
   <g id="line2d_32">
    <path clip-path="url(#pf6b58996ec)" d="M 115.363636 605.290909 
L 122.823529 601.153246 
L 130.283422 596.326942 
L 137.743316 590.758831 
L 145.203209 584.398287 
L 152.663102 577.199271 
L 160.122995 569.122678 
L 167.582888 560.138912 
L 175.042781 550.230587 
L 182.502674 539.395167 
L 189.962567 527.647344 
L 197.42246 515.020927 
L 204.882353 501.569977 
L 212.342246 487.36899 
L 219.802139 472.51196 
L 227.262032 457.110267 
L 234.721925 441.28945 
L 242.181818 425.185048 
L 249.641711 408.937801 
L 257.101604 392.688585 
L 264.561497 376.573482 
L 272.02139 360.719339 
L 279.481283 345.240133 
L 286.941176 330.234311 
L 294.40107 315.783202 
L 301.860963 301.950449 
L 309.320856 288.782345 
L 316.780749 276.308901 
L 324.240642 264.545433 
L 331.700535 253.494481 
L 339.160428 243.14786 
L 346.620321 233.488719 
L 354.080214 224.49349 
L 361.540107 216.133651 
L 369 208.377268 
L 376.459893 201.190306 
L 383.919786 194.537698 
L 391.379679 188.384209 
L 398.839572 182.695092 
L 406.299465 177.436587 
L 413.759358 172.576277 
L 421.219251 168.083324 
L 428.679144 163.928619 
L 436.139037 160.084857 
L 443.59893 156.526555 
L 451.058824 153.230031 
L 458.518717 150.173357 
L 465.97861 147.336284 
L 473.438503 144.700158 
L 480.898396 142.24783 
L 488.358289 139.96356 
L 495.818182 137.832918 
L 503.278075 135.842692 
L 510.737968 133.980792 
L 518.197861 132.236169 
L 525.657754 130.598723 
L 533.117647 129.059236 
L 540.57754 127.609287 
L 548.037433 126.241194 
L 555.497326 124.947949 
L 562.957219 123.723156 
L 570.417112 122.560984 
L 577.877005 121.456114 
L 585.336898 120.403696 
L 592.796791 119.39931 
L 600.256684 118.438922 
L 607.716578 117.518858 
L 615.176471 116.635768 
L 622.636364 115.786595 
" style="fill:none;stroke:#d62728;stroke-linecap:square;stroke-width:1.5;"/>
   </g>
   <g id="line2d_33">
    <path clip-path="url(#pf6b58996ec)" d="M 115.363636 605.290909 
L 122.823529 604.384263 
L 130.283422 602.104053 
L 137.743316 598.728349 
L 145.203209 594.267551 
L 152.663102 588.615216 
L 160.122995 581.619997 
L 167.582888 573.12995 
L 175.042781 563.027915 
L 182.502674 551.262374 
L 189.962567 537.870885 
L 197.42246 522.990336 
L 204.882353 506.849674 
L 212.342246 489.745728 
L 219.802139 472.00838 
L 227.262032 453.964502 
L 234.721925 435.909066 
L 242.181818 418.087728 
L 249.641711 400.690839 
L 257.101604 383.855909 
L 264.561497 367.674886 
L 272.02139 352.203136 
L 279.481283 337.468185 
L 286.941176 323.477232 
L 294.40107 310.223158 
L 301.860963 297.689097 
L 309.320856 285.851804 
L 316.780749 274.68408 
L 324.240642 264.156488 
L 331.700535 254.238551 
L 339.160428 244.899578 
L 346.620321 236.109221 
L 354.080214 227.837857 
L 361.540107 220.056823 
L 369 212.738567 
L 376.459893 205.856737 
L 383.919786 199.386216 
L 391.379679 193.303135 
L 398.839572 187.584856 
L 406.299465 182.209949 
L 413.759358 177.158151 
L 421.219251 172.410325 
L 428.679144 167.948412 
L 436.139037 163.755381 
L 443.59893 159.815183 
L 451.058824 156.112697 
L 458.518717 152.633685 
L 465.97861 149.364745 
L 473.438503 146.293262 
L 480.898396 143.407369 
L 488.358289 140.6959 
L 495.818182 138.148356 
L 503.278075 135.754859 
L 510.737968 133.506125 
L 518.197861 131.393423 
L 525.657754 129.408545 
L 533.117647 127.543776 
L 540.57754 125.791862 
L 548.037433 124.145986 
L 555.497326 122.599742 
L 562.957219 121.147107 
L 570.417112 119.782424 
L 577.877005 118.500374 
L 585.336898 117.295959 
L 592.796791 116.164483 
L 600.256684 115.101534 
L 607.716578 114.102966 
L 615.176471 113.164882 
L 622.636364 112.283622 
" style="fill:none;stroke:#9467bd;stroke-linecap:square;stroke-width:1.5;"/>
   </g>
   <g id="line2d_34">
    <path clip-path="url(#pf6b58996ec)" d="M 115.363636 605.290909 
L 122.823529 604.37496 
L 130.283422 602.037185 
L 137.743316 598.542464 
L 145.203209 593.909158 
L 152.663102 588.050321 
L 160.122995 580.842303 
L 167.582888 572.166025 
L 175.042781 561.9376 
L 182.502674 550.132704 
L 189.962567 536.80335 
L 197.42246 522.08376 
L 204.882353 506.183153 
L 212.342246 489.366445 
L 219.802139 471.927325 
L 227.262032 454.160086 
L 234.721925 436.336068 
L 242.181818 418.688072 
L 249.641711 401.403303 
L 257.101604 384.623233 
L 264.561497 368.447971 
L 272.02139 352.942816 
L 279.481283 338.145308 
L 286.941176 324.071752 
L 294.40107 310.722772 
L 301.860963 298.087769 
L 309.320856 286.148371 
L 316.780749 274.881031 
L 324.240642 264.258946 
L 331.700535 254.253453 
L 339.160428 244.835028 
L 346.620321 235.973992 
L 354.080214 227.641012 
L 361.540107 219.807437 
L 369 212.445521 
L 376.459893 205.528573 
L 383.919786 199.031041 
L 391.379679 192.928554 
L 398.839572 187.197938 
L 406.299465 181.817206 
L 413.759358 176.765539 
L 421.219251 172.02325 
L 428.679144 167.571749 
L 436.139037 163.393495 
L 443.59893 159.471951 
L 451.058824 155.791541 
L 458.518717 152.337598 
L 465.97861 149.096319 
L 473.438503 146.05472 
L 480.898396 143.200591 
L 488.358289 140.522453 
L 495.818182 138.009516 
L 503.278075 135.651644 
L 510.737968 133.439311 
L 518.197861 131.36357 
L 525.657754 129.416019 
L 533.117647 127.588767 
L 540.57754 125.874403 
L 548.037433 124.265972 
L 555.497326 122.75694 
L 562.957219 121.341177 
L 570.417112 120.012928 
L 577.877005 118.766791 
L 585.336898 117.597695 
L 592.796791 116.500882 
L 600.256684 115.471886 
L 607.716578 114.506516 
L 615.176471 113.600839 
L 622.636364 112.751164 
" style="fill:none;stroke:#8c564b;stroke-linecap:square;stroke-width:1.5;"/>
   </g>
   <g id="line2d_35">
    <path clip-path="url(#pf6b58996ec)" d="M 115.363636 605.290909 
L 122.823529 604.421253 
L 130.283422 602.157 
L 137.743316 598.736688 
L 145.203209 594.184028 
L 152.663102 588.417393 
L 160.122995 581.310127 
L 167.582888 572.731651 
L 175.042781 562.581254 
L 182.502674 550.817345 
L 189.962567 537.479593 
L 197.42246 522.699167 
L 204.882353 506.693287 
L 212.342246 489.744291 
L 219.802139 472.168287 
L 227.262032 454.281556 
L 234.721925 436.372496 
L 242.181818 418.683711 
L 249.641711 401.404844 
L 257.101604 384.673892 
L 264.561497 368.583648 
L 272.02139 353.190258 
L 279.481283 338.521818 
L 286.941176 324.585907 
L 294.40107 311.375683 
L 301.860963 298.874526 
L 309.320856 287.059473 
L 316.780749 275.903677 
L 324.240642 265.378128 
L 331.700535 255.452853 
L 339.160428 246.097728 
L 346.620321 237.283024 
L 354.080214 228.979762 
L 361.540107 221.159942 
L 369 213.796679 
L 376.459893 206.864276 
L 383.919786 200.338254 
L 391.379679 194.195358 
L 398.839572 188.413536 
L 406.299465 182.971909 
L 413.759358 177.850732 
L 421.219251 173.031351 
L 428.679144 168.496151 
L 436.139037 164.228514 
L 443.59893 160.212767 
L 451.058824 156.434132 
L 458.518717 152.878683 
L 465.97861 149.533298 
L 473.438503 146.385616 
L 480.898396 143.423995 
L 488.358289 140.63747 
L 495.818182 138.015718 
L 503.278075 135.54902 
L 510.737968 133.228225 
L 518.197861 131.04472 
L 525.657754 128.990399 
L 533.117647 127.057629 
L 540.57754 125.23923 
L 548.037433 123.528441 
L 555.497326 121.918903 
L 562.957219 120.404629 
L 570.417112 118.979986 
L 577.877005 117.639674 
L 585.336898 116.378704 
L 592.796791 115.192384 
L 600.256684 114.076296 
L 607.716578 113.026286 
L 615.176471 112.038444 
L 622.636364 111.109091 
" style="fill:none;stroke:#e377c2;stroke-linecap:square;stroke-width:1.5;"/>
   </g>
   <g id="line2d_36">
    <path clip-path="url(#pf6b58996ec)" d="M 115.363636 605.290909 
L 122.823529 604.419551 
L 130.283422 602.022619 
L 137.743316 598.277232 
L 145.203209 593.23753 
L 152.663102 586.895348 
L 160.122995 579.218207 
L 167.582888 570.175271 
L 175.042781 559.756143 
L 182.502674 547.984296 
L 189.962567 534.925439 
L 197.42246 520.690455 
L 204.882353 505.432786 
L 212.342246 489.340694 
L 219.802139 472.625682 
L 227.262032 455.508983 
L 234.721925 438.208188 
L 242.181818 420.925837 
L 249.641711 403.841099 
L 257.101604 387.104933 
L 264.561497 370.838456 
L 272.02139 355.133838 
L 279.481283 340.056903 
L 286.941176 325.650656 
L 294.40107 311.939134 
L 301.860963 298.931143 
L 309.320856 286.62364 
L 316.780749 275.004645 
L 324.240642 264.055654 
L 331.700535 253.753585 
L 339.160428 244.072312 
L 346.620321 234.983852 
L 354.080214 226.459268 
L 361.540107 218.46934 
L 369 210.985065 
L 376.459893 203.978017 
L 383.919786 197.420594 
L 391.379679 191.286191 
L 398.839572 185.54931 
L 406.299465 180.185627 
L 413.759358 175.172015 
L 421.219251 170.486554 
L 428.679144 166.108517 
L 436.139037 162.01834 
L 443.59893 158.197589 
L 451.058824 154.62892 
L 458.518717 151.296029 
L 465.97861 148.183604 
L 473.438503 145.277281 
L 480.898396 142.56359 
L 488.358289 140.029908 
L 495.818182 137.664413 
L 503.278075 135.456035 
L 510.737968 133.394417 
L 518.197861 131.469867 
L 525.657754 129.67332 
L 533.117647 127.996302 
L 540.57754 126.430889 
L 548.037433 124.969677 
L 555.497326 123.605745 
L 562.957219 122.332627 
L 570.417112 121.144283 
L 577.877005 120.03507 
L 585.336898 118.999719 
L 592.796791 118.033308 
L 600.256684 117.131242 
L 607.716578 116.289229 
L 615.176471 115.503263 
L 622.636364 114.769604 
" style="fill:none;stroke:#7f7f7f;stroke-linecap:square;stroke-width:1.5;"/>
   </g>
   <g id="line2d_37">
    <path clip-path="url(#pf6b58996ec)" d="M 115.363636 605.290909 
L 122.823529 604.505901 
L 130.283422 602.295507 
L 137.743316 598.768814 
L 145.203209 593.940718 
L 152.663102 587.775633 
L 160.122995 580.218666 
L 167.582888 571.220128 
L 175.042781 560.755717 
L 182.502674 548.842535 
L 189.962567 535.549856 
L 197.42246 521.003171 
L 204.882353 505.380638 
L 212.342246 488.902301 
L 219.802139 471.813959 
L 227.262032 454.368707 
L 234.721925 436.809406 
L 242.181818 419.354742 
L 249.641711 402.190275 
L 257.101604 385.464573 
L 264.561497 369.289591 
L 272.02139 353.743949 
L 279.481283 338.877798 
L 286.941176 324.718181 
L 294.40107 311.274181 
L 301.860963 298.54144 
L 309.320856 286.505922 
L 316.780749 275.146885 
L 324.240642 264.439186 
L 331.700535 254.354989 
L 339.160428 244.86503 
L 346.620321 235.939518 
L 354.080214 227.548778 
L 361.540107 219.663684 
L 369 212.255959 
L 376.459893 205.298364 
L 383.919786 198.764811 
L 391.379679 192.63042 
L 398.839572 186.871551 
L 406.299465 181.465792 
L 413.759358 176.391941 
L 421.219251 171.629969 
L 428.679144 167.160984 
L 436.139037 162.967178 
L 443.59893 159.031782 
L 451.058824 155.339012 
L 458.518717 151.874023 
L 465.97861 148.622854 
L 473.438503 145.572384 
L 480.898396 142.710284 
L 488.358289 140.02497 
L 495.818182 137.505562 
L 503.278075 135.141843 
L 510.737968 132.924218 
L 518.197861 130.843681 
L 525.657754 128.891775 
L 533.117647 127.060563 
L 540.57754 125.342593 
L 548.037433 123.730875 
L 555.497326 122.218844 
L 562.957219 120.800342 
L 570.417112 119.469589 
L 577.877005 118.221163 
L 585.336898 117.049974 
L 592.796791 115.951246 
L 600.256684 114.920499 
L 607.716578 113.953528 
L 615.176471 113.04639 
L 622.636364 112.195384 
" style="fill:none;stroke:#bcbd22;stroke-linecap:square;stroke-width:1.5;"/>
   </g>
   <g id="line2d_38">
    <path clip-path="url(#pf6b58996ec)" d="M 115.363636 605.290909 
L 122.823529 604.34681 
L 130.283422 602.458612 
L 137.743316 600.098365 
L 145.203209 595.37787 
L 152.663102 588.297129 
L 160.122995 585.464832 
L 167.582888 578.38409 
L 175.042781 571.775397 
L 182.502674 559.974161 
L 189.962567 532.123243 
L 197.42246 520.794056 
L 204.882353 506.632572 
L 212.342246 482.55805 
L 219.802139 466.508368 
L 227.262032 466.508368 
L 234.721925 427.800312 
L 242.181818 414.110878 
L 249.641711 399.005295 
L 257.101604 380.123317 
L 264.561497 352.744448 
L 272.02139 342.83141 
L 279.481283 332.446321 
L 286.941176 319.700986 
L 294.40107 317.340739 
L 301.860963 310.259997 
L 309.320856 297.042612 
L 316.780749 290.43392 
L 324.240642 280.048831 
L 331.700535 271.079892 
L 339.160428 261.166853 
L 346.620321 245.589221 
L 354.080214 225.763144 
L 361.540107 205.937066 
L 369 205.937066 
L 376.459893 198.856324 
L 383.919786 196.496077 
L 391.379679 196.496077 
L 398.839572 184.694841 
L 406.299465 180.446395 
L 413.759358 178.558198 
L 421.219251 170.533357 
L 428.679144 165.812862 
L 436.139037 157.315972 
L 443.59893 153.539576 
L 451.058824 151.179329 
L 458.518717 144.570637 
L 465.97861 142.682439 
L 473.438503 137.489895 
L 480.898396 135.601697 
L 488.358289 133.24145 
L 495.818182 131.353252 
L 503.278075 129.937103 
L 510.737968 129.465054 
L 518.197861 127.576856 
L 525.657754 126.632757 
L 533.117647 126.632757 
L 540.57754 126.632757 
L 548.037433 126.632757 
L 555.497326 126.632757 
L 562.957219 126.632757 
L 570.417112 125.216609 
L 577.877005 124.27251 
L 585.336898 124.27251 
L 592.796791 121.440213 
L 600.256684 120.968164 
L 607.716578 120.496114 
L 615.176471 120.024065 
L 622.636364 119.079966 
" style="fill:none;stroke:#17becf;stroke-dasharray:14.8,6.4;stroke-dashoffset:0;stroke-width:4;"/>
   </g>
   <g id="patch_3">
    <path d="M 90 630 
L 90 86.4 
" style="fill:none;stroke:#000000;stroke-linecap:square;stroke-linejoin:miter;stroke-width:0.8;"/>
   </g>
   <g id="patch_4">
    <path d="M 648 630 
L 648 86.4 
" style="fill:none;stroke:#000000;stroke-linecap:square;stroke-linejoin:miter;stroke-width:0.8;"/>
   </g>
   <g id="patch_5">
    <path d="M 90 630 
L 648 630 
" style="fill:none;stroke:#000000;stroke-linecap:square;stroke-linejoin:miter;stroke-width:0.8;"/>
   </g>
   <g id="patch_6">
    <path d="M 90 86.4 
L 648 86.4 
" style="fill:none;stroke:#000000;stroke-linecap:square;stroke-linejoin:miter;stroke-width:0.8;"/>
   </g>
   <g id="text_17">
    <!-- Tunisia relative err =  -->
    <g transform="translate(304.696875 80.4)scale(0.12 -0.12)">
     <defs>
      <path d="M -0.296875 72.90625 
L 61.375 72.90625 
L 61.375 64.59375 
L 35.5 64.59375 
L 35.5 0 
L 25.59375 0 
L 25.59375 64.59375 
L -0.296875 64.59375 
z
" id="DejaVuSans-84"/>
      <path d="M 54.890625 33.015625 
L 54.890625 0 
L 45.90625 0 
L 45.90625 32.71875 
Q 45.90625 40.484375 42.875 44.328125 
Q 39.84375 48.1875 33.796875 48.1875 
Q 26.515625 48.1875 22.3125 43.546875 
Q 18.109375 38.921875 18.109375 30.90625 
L 18.109375 0 
L 9.078125 0 
L 9.078125 54.6875 
L 18.109375 54.6875 
L 18.109375 46.1875 
Q 21.34375 51.125 25.703125 53.5625 
Q 30.078125 56 35.796875 56 
Q 45.21875 56 50.046875 50.171875 
Q 54.890625 44.34375 54.890625 33.015625 
z
" id="DejaVuSans-110"/>
      <path d="M 41.109375 46.296875 
Q 39.59375 47.171875 37.8125 47.578125 
Q 36.03125 48 33.890625 48 
Q 26.265625 48 22.1875 43.046875 
Q 18.109375 38.09375 18.109375 28.8125 
L 18.109375 0 
L 9.078125 0 
L 9.078125 54.6875 
L 18.109375 54.6875 
L 18.109375 46.1875 
Q 20.953125 51.171875 25.484375 53.578125 
Q 30.03125 56 36.53125 56 
Q 37.453125 56 38.578125 55.875 
Q 39.703125 55.765625 41.0625 55.515625 
z
" id="DejaVuSans-114"/>
      <path d="M 10.59375 45.40625 
L 73.1875 45.40625 
L 73.1875 37.203125 
L 10.59375 37.203125 
z
M 10.59375 25.484375 
L 73.1875 25.484375 
L 73.1875 17.1875 
L 10.59375 17.1875 
z
" id="DejaVuSans-61"/>
     </defs>
     <use xlink:href="#DejaVuSans-84"/>
     <use x="45.958984" xlink:href="#DejaVuSans-117"/>
     <use x="109.337891" xlink:href="#DejaVuSans-110"/>
     <use x="172.716797" xlink:href="#DejaVuSans-105"/>
     <use x="200.5" xlink:href="#DejaVuSans-115"/>
     <use x="252.599609" xlink:href="#DejaVuSans-105"/>
     <use x="280.382812" xlink:href="#DejaVuSans-97"/>
     <use x="341.662109" xlink:href="#DejaVuSans-32"/>
     <use x="373.449219" xlink:href="#DejaVuSans-114"/>
     <use x="412.3125" xlink:href="#DejaVuSans-101"/>
     <use x="473.835938" xlink:href="#DejaVuSans-108"/>
     <use x="501.619141" xlink:href="#DejaVuSans-97"/>
     <use x="562.898438" xlink:href="#DejaVuSans-116"/>
     <use x="602.107422" xlink:href="#DejaVuSans-105"/>
     <use x="629.890625" xlink:href="#DejaVuSans-118"/>
     <use x="689.070312" xlink:href="#DejaVuSans-101"/>
     <use x="750.59375" xlink:href="#DejaVuSans-32"/>
     <use x="782.380859" xlink:href="#DejaVuSans-101"/>
     <use x="843.904297" xlink:href="#DejaVuSans-114"/>
     <use x="883.267578" xlink:href="#DejaVuSans-114"/>
     <use x="924.380859" xlink:href="#DejaVuSans-32"/>
     <use x="956.167969" xlink:href="#DejaVuSans-61"/>
     <use x="1039.957031" xlink:href="#DejaVuSans-32"/>
    </g>
   </g>
   <g id="legend_1">
    <g id="patch_7">
     <path d="M 97 226.503125 
L 185.6 226.503125 
Q 187.6 226.503125 187.6 224.503125 
L 187.6 93.4 
Q 187.6 91.4 185.6 91.4 
L 97 91.4 
Q 95 91.4 95 93.4 
L 95 224.503125 
Q 95 226.503125 97 226.503125 
z
" style="fill:#ffffff;opacity:0.8;stroke:#cccccc;stroke-linejoin:miter;"/>
    </g>
    <g id="line2d_39">
     <path d="M 99 99.498438 
L 119 99.498438 
" style="fill:none;stroke:#1f77b4;stroke-linecap:square;stroke-width:1.5;"/>
    </g>
    <g id="line2d_40"/>
    <g id="text_18">
     <!-- SI -->
     <g transform="translate(127 102.998438)scale(0.1 -0.1)">
      <defs>
       <path d="M 53.515625 70.515625 
L 53.515625 60.890625 
Q 47.90625 63.578125 42.921875 64.890625 
Q 37.9375 66.21875 33.296875 66.21875 
Q 25.25 66.21875 20.875 63.09375 
Q 16.5 59.96875 16.5 54.203125 
Q 16.5 49.359375 19.40625 46.890625 
Q 22.3125 44.4375 30.421875 42.921875 
L 36.375 41.703125 
Q 47.40625 39.59375 52.65625 34.296875 
Q 57.90625 29 57.90625 20.125 
Q 57.90625 9.515625 50.796875 4.046875 
Q 43.703125 -1.421875 29.984375 -1.421875 
Q 24.8125 -1.421875 18.96875 -0.25 
Q 13.140625 0.921875 6.890625 3.21875 
L 6.890625 13.375 
Q 12.890625 10.015625 18.65625 8.296875 
Q 24.421875 6.59375 29.984375 6.59375 
Q 38.421875 6.59375 43.015625 9.90625 
Q 47.609375 13.234375 47.609375 19.390625 
Q 47.609375 24.75 44.3125 27.78125 
Q 41.015625 30.8125 33.5 32.328125 
L 27.484375 33.5 
Q 16.453125 35.6875 11.515625 40.375 
Q 6.59375 45.0625 6.59375 53.421875 
Q 6.59375 63.09375 13.40625 68.65625 
Q 20.21875 74.21875 32.171875 74.21875 
Q 37.3125 74.21875 42.625 73.28125 
Q 47.953125 72.359375 53.515625 70.515625 
z
" id="DejaVuSans-83"/>
       <path d="M 9.8125 72.90625 
L 19.671875 72.90625 
L 19.671875 0 
L 9.8125 0 
z
" id="DejaVuSans-73"/>
      </defs>
      <use xlink:href="#DejaVuSans-83"/>
      <use x="63.476562" xlink:href="#DejaVuSans-73"/>
     </g>
    </g>
    <g id="line2d_41">
     <path d="M 99 114.176563 
L 119 114.176563 
" style="fill:none;stroke:#ff7f0e;stroke-linecap:square;stroke-width:1.5;"/>
    </g>
    <g id="line2d_42"/>
    <g id="text_19">
     <!-- BD -->
     <g transform="translate(127 117.676563)scale(0.1 -0.1)">
      <defs>
       <path d="M 19.671875 34.8125 
L 19.671875 8.109375 
L 35.5 8.109375 
Q 43.453125 8.109375 47.28125 11.40625 
Q 51.125 14.703125 51.125 21.484375 
Q 51.125 28.328125 47.28125 31.5625 
Q 43.453125 34.8125 35.5 34.8125 
z
M 19.671875 64.796875 
L 19.671875 42.828125 
L 34.28125 42.828125 
Q 41.5 42.828125 45.03125 45.53125 
Q 48.578125 48.25 48.578125 53.8125 
Q 48.578125 59.328125 45.03125 62.0625 
Q 41.5 64.796875 34.28125 64.796875 
z
M 9.8125 72.90625 
L 35.015625 72.90625 
Q 46.296875 72.90625 52.390625 68.21875 
Q 58.5 63.53125 58.5 54.890625 
Q 58.5 48.1875 55.375 44.234375 
Q 52.25 40.28125 46.1875 39.3125 
Q 53.46875 37.75 57.5 32.78125 
Q 61.53125 27.828125 61.53125 20.40625 
Q 61.53125 10.640625 54.890625 5.3125 
Q 48.25 0 35.984375 0 
L 9.8125 0 
z
" id="DejaVuSans-66"/>
      </defs>
      <use xlink:href="#DejaVuSans-66"/>
      <use x="68.603516" xlink:href="#DejaVuSans-68"/>
     </g>
    </g>
    <g id="line2d_43">
     <path d="M 99 128.854688 
L 119 128.854688 
" style="fill:none;stroke:#2ca02c;stroke-linecap:square;stroke-width:1.5;"/>
    </g>
    <g id="line2d_44"/>
    <g id="text_20">
     <!-- SIR -->
     <g transform="translate(127 132.354688)scale(0.1 -0.1)">
      <defs>
       <path d="M 44.390625 34.1875 
Q 47.5625 33.109375 50.5625 29.59375 
Q 53.5625 26.078125 56.59375 19.921875 
L 66.609375 0 
L 56 0 
L 46.6875 18.703125 
Q 43.0625 26.03125 39.671875 28.421875 
Q 36.28125 30.8125 30.421875 30.8125 
L 19.671875 30.8125 
L 19.671875 0 
L 9.8125 0 
L 9.8125 72.90625 
L 32.078125 72.90625 
Q 44.578125 72.90625 50.734375 67.671875 
Q 56.890625 62.453125 56.890625 51.90625 
Q 56.890625 45.015625 53.6875 40.46875 
Q 50.484375 35.9375 44.390625 34.1875 
z
M 19.671875 64.796875 
L 19.671875 38.921875 
L 32.078125 38.921875 
Q 39.203125 38.921875 42.84375 42.21875 
Q 46.484375 45.515625 46.484375 51.90625 
Q 46.484375 58.296875 42.84375 61.546875 
Q 39.203125 64.796875 32.078125 64.796875 
z
" id="DejaVuSans-82"/>
      </defs>
      <use xlink:href="#DejaVuSans-83"/>
      <use x="63.476562" xlink:href="#DejaVuSans-73"/>
      <use x="92.96875" xlink:href="#DejaVuSans-82"/>
     </g>
    </g>
    <g id="line2d_45">
     <path d="M 99 143.532812 
L 119 143.532812 
" style="fill:none;stroke:#d62728;stroke-linecap:square;stroke-width:1.5;"/>
    </g>
    <g id="line2d_46"/>
    <g id="text_21">
     <!-- eSIR -->
     <g transform="translate(127 147.032812)scale(0.1 -0.1)">
      <use xlink:href="#DejaVuSans-101"/>
      <use x="61.523438" xlink:href="#DejaVuSans-83"/>
      <use x="125" xlink:href="#DejaVuSans-73"/>
      <use x="154.492188" xlink:href="#DejaVuSans-82"/>
     </g>
    </g>
    <g id="line2d_47">
     <path d="M 99 158.210938 
L 119 158.210938 
" style="fill:none;stroke:#9467bd;stroke-linecap:square;stroke-width:1.5;"/>
    </g>
    <g id="line2d_48"/>
    <g id="text_22">
     <!-- SEIR -->
     <g transform="translate(127 161.710938)scale(0.1 -0.1)">
      <defs>
       <path d="M 9.8125 72.90625 
L 55.90625 72.90625 
L 55.90625 64.59375 
L 19.671875 64.59375 
L 19.671875 43.015625 
L 54.390625 43.015625 
L 54.390625 34.71875 
L 19.671875 34.71875 
L 19.671875 8.296875 
L 56.78125 8.296875 
L 56.78125 0 
L 9.8125 0 
z
" id="DejaVuSans-69"/>
      </defs>
      <use xlink:href="#DejaVuSans-83"/>
      <use x="63.476562" xlink:href="#DejaVuSans-69"/>
      <use x="126.660156" xlink:href="#DejaVuSans-73"/>
      <use x="156.152344" xlink:href="#DejaVuSans-82"/>
     </g>
    </g>
    <g id="line2d_49">
     <path d="M 99 172.889063 
L 119 172.889063 
" style="fill:none;stroke:#8c564b;stroke-linecap:square;stroke-width:1.5;"/>
    </g>
    <g id="line2d_50"/>
    <g id="text_23">
     <!-- eSEIR -->
     <g transform="translate(127 176.389063)scale(0.1 -0.1)">
      <use xlink:href="#DejaVuSans-101"/>
      <use x="61.523438" xlink:href="#DejaVuSans-83"/>
      <use x="125" xlink:href="#DejaVuSans-69"/>
      <use x="188.183594" xlink:href="#DejaVuSans-73"/>
      <use x="217.675781" xlink:href="#DejaVuSans-82"/>
     </g>
    </g>
    <g id="line2d_51">
     <path d="M 99 187.567188 
L 119 187.567188 
" style="fill:none;stroke:#e377c2;stroke-linecap:square;stroke-width:1.5;"/>
    </g>
    <g id="line2d_52"/>
    <g id="text_24">
     <!-- SEIUR -->
     <g transform="translate(127 191.067188)scale(0.1 -0.1)">
      <defs>
       <path d="M 8.6875 72.90625 
L 18.609375 72.90625 
L 18.609375 28.609375 
Q 18.609375 16.890625 22.84375 11.734375 
Q 27.09375 6.59375 36.625 6.59375 
Q 46.09375 6.59375 50.34375 11.734375 
Q 54.59375 16.890625 54.59375 28.609375 
L 54.59375 72.90625 
L 64.5 72.90625 
L 64.5 27.390625 
Q 64.5 13.140625 57.4375 5.859375 
Q 50.390625 -1.421875 36.625 -1.421875 
Q 22.796875 -1.421875 15.734375 5.859375 
Q 8.6875 13.140625 8.6875 27.390625 
z
" id="DejaVuSans-85"/>
      </defs>
      <use xlink:href="#DejaVuSans-83"/>
      <use x="63.476562" xlink:href="#DejaVuSans-69"/>
      <use x="126.660156" xlink:href="#DejaVuSans-73"/>
      <use x="156.152344" xlink:href="#DejaVuSans-85"/>
      <use x="229.345703" xlink:href="#DejaVuSans-82"/>
     </g>
    </g>
    <g id="line2d_53">
     <path d="M 99 202.245312 
L 119 202.245312 
" style="fill:none;stroke:#7f7f7f;stroke-linecap:square;stroke-width:1.5;"/>
    </g>
    <g id="line2d_54"/>
    <g id="text_25">
     <!-- eSEIUR -->
     <g transform="translate(127 205.745312)scale(0.1 -0.1)">
      <use xlink:href="#DejaVuSans-101"/>
      <use x="61.523438" xlink:href="#DejaVuSans-83"/>
      <use x="125" xlink:href="#DejaVuSans-69"/>
      <use x="188.183594" xlink:href="#DejaVuSans-73"/>
      <use x="217.675781" xlink:href="#DejaVuSans-85"/>
      <use x="290.869141" xlink:href="#DejaVuSans-82"/>
     </g>
    </g>
    <g id="line2d_55">
     <path d="M 99 216.923437 
L 119 216.923437 
" style="fill:none;stroke:#bcbd22;stroke-linecap:square;stroke-width:1.5;"/>
    </g>
    <g id="line2d_56"/>
    <g id="text_26">
     <!-- eSEIUR$^{range}$ -->
     <g transform="translate(127 220.423437)scale(0.1 -0.1)">
      <defs>
       <path d="M 44.578125 46.390625 
Q 43.21875 47.125 41.453125 47.515625 
Q 39.703125 47.90625 37.703125 47.90625 
Q 30.515625 47.90625 25.140625 42.453125 
Q 19.78125 37.015625 18.015625 27.875 
L 12.5 0 
L 3.515625 0 
L 14.203125 54.6875 
L 23.1875 54.6875 
L 21.484375 46.1875 
Q 25.046875 50.921875 30 53.453125 
Q 34.96875 56 40.578125 56 
Q 42.046875 56 43.453125 55.828125 
Q 44.875 55.671875 46.296875 55.28125 
z
" id="DejaVuSans-Oblique-114"/>
       <path d="M 53.71875 31.203125 
L 47.609375 0 
L 38.625 0 
L 40.28125 8.296875 
Q 36.328125 3.421875 31.265625 1 
Q 26.21875 -1.421875 20.015625 -1.421875 
Q 13.03125 -1.421875 8.5625 2.84375 
Q 4.109375 7.125 4.109375 13.8125 
Q 4.109375 23.390625 11.75 28.953125 
Q 19.390625 34.515625 32.8125 34.515625 
L 45.3125 34.515625 
L 45.796875 36.921875 
Q 45.90625 37.3125 45.953125 37.765625 
Q 46 38.234375 46 39.203125 
Q 46 43.5625 42.453125 45.96875 
Q 38.921875 48.390625 32.515625 48.390625 
Q 28.125 48.390625 23.5 47.265625 
Q 18.890625 46.140625 14.015625 43.890625 
L 15.578125 52.203125 
Q 20.65625 54.109375 25.515625 55.046875 
Q 30.375 56 34.90625 56 
Q 44.578125 56 49.625 51.796875 
Q 54.6875 47.609375 54.6875 39.59375 
Q 54.6875 37.984375 54.4375 35.8125 
Q 54.203125 33.640625 53.71875 31.203125 
z
M 44 27.484375 
L 35.015625 27.484375 
Q 23.96875 27.484375 18.671875 24.53125 
Q 13.375 21.578125 13.375 15.375 
Q 13.375 11.078125 16.078125 8.640625 
Q 18.796875 6.203125 23.578125 6.203125 
Q 30.90625 6.203125 36.375 11.453125 
Q 41.84375 16.703125 43.609375 25.484375 
z
" id="DejaVuSans-Oblique-97"/>
       <path d="M 55.71875 33.015625 
L 49.3125 0 
L 40.28125 0 
L 46.6875 32.671875 
Q 47.125 34.96875 47.359375 36.71875 
Q 47.609375 38.484375 47.609375 39.5 
Q 47.609375 43.609375 45.015625 45.890625 
Q 42.4375 48.1875 37.796875 48.1875 
Q 30.5625 48.1875 25.34375 43.375 
Q 20.125 38.578125 18.5 30.328125 
L 12.5 0 
L 3.515625 0 
L 14.109375 54.6875 
L 23.09375 54.6875 
L 21.296875 46.09375 
Q 25.046875 50.828125 30.3125 53.40625 
Q 35.59375 56 41.40625 56 
Q 48.640625 56 52.609375 52.09375 
Q 56.59375 48.1875 56.59375 41.109375 
Q 56.59375 39.359375 56.375 37.359375 
Q 56.15625 35.359375 55.71875 33.015625 
z
" id="DejaVuSans-Oblique-110"/>
       <path d="M 59.625 54.6875 
L 50.296875 6.78125 
Q 47.609375 -7.125 40.015625 -13.953125 
Q 32.421875 -20.796875 19.578125 -20.796875 
Q 14.84375 -20.796875 10.78125 -20.09375 
Q 6.734375 -19.390625 3.21875 -17.921875 
L 4.890625 -9.1875 
Q 8.203125 -11.328125 11.90625 -12.34375 
Q 15.625 -13.375 19.828125 -13.375 
Q 28.375 -13.375 33.859375 -8.703125 
Q 39.359375 -4.046875 41.109375 4.6875 
L 41.890625 8.796875 
Q 38.140625 4.5 33.15625 2.25 
Q 28.171875 0 22.40625 0 
Q 14.109375 0 9.34375 5.484375 
Q 4.59375 10.984375 4.59375 20.609375 
Q 4.59375 28.171875 7.46875 35.421875 
Q 10.359375 42.671875 15.578125 48.296875 
Q 19.046875 52 23.65625 54 
Q 28.265625 56 33.296875 56 
Q 38.8125 56 42.90625 53.4375 
Q 47.015625 50.875 49.03125 46.1875 
L 50.59375 54.6875 
z
M 46.09375 34.625 
Q 46.09375 41.265625 42.96875 44.875 
Q 39.84375 48.484375 34.078125 48.484375 
Q 30.515625 48.484375 27.296875 47.0625 
Q 24.078125 45.65625 21.78125 43.109375 
Q 18.0625 38.921875 15.984375 33.234375 
Q 13.921875 27.546875 13.921875 21.484375 
Q 13.921875 14.75 17.0625 11.125 
Q 20.21875 7.515625 26.125 7.515625 
Q 34.671875 7.515625 40.375 15.25 
Q 46.09375 23 46.09375 34.625 
z
" id="DejaVuSans-Oblique-103"/>
       <path d="M 48.09375 32.234375 
Q 48.25 33.015625 48.3125 33.84375 
Q 48.390625 34.671875 48.390625 35.5 
Q 48.390625 41.453125 44.890625 44.921875 
Q 41.40625 48.390625 35.40625 48.390625 
Q 28.71875 48.390625 23.578125 44.15625 
Q 18.453125 39.9375 15.828125 32.171875 
z
M 55.90625 25.203125 
L 14.109375 25.203125 
Q 13.8125 23.34375 13.71875 22.265625 
Q 13.625 21.1875 13.625 20.40625 
Q 13.625 13.625 17.796875 9.90625 
Q 21.96875 6.203125 29.59375 6.203125 
Q 35.453125 6.203125 40.671875 7.515625 
Q 45.90625 8.84375 50.390625 11.375 
L 48.6875 2.484375 
Q 43.84375 0.53125 38.6875 -0.4375 
Q 33.546875 -1.421875 28.21875 -1.421875 
Q 16.84375 -1.421875 10.71875 4.015625 
Q 4.59375 9.46875 4.59375 19.484375 
Q 4.59375 28.03125 7.640625 35.375 
Q 10.6875 42.71875 16.609375 48.484375 
Q 20.40625 52.09375 25.65625 54.046875 
Q 30.90625 56 36.8125 56 
Q 46.09375 56 51.578125 50.4375 
Q 57.078125 44.875 57.078125 35.5 
Q 57.078125 33.25 56.78125 30.6875 
Q 56.5 28.125 55.90625 25.203125 
z
" id="DejaVuSans-Oblique-101"/>
      </defs>
      <use transform="translate(0 0.51875)" xlink:href="#DejaVuSans-101"/>
      <use transform="translate(61.523438 0.51875)" xlink:href="#DejaVuSans-83"/>
      <use transform="translate(125 0.51875)" xlink:href="#DejaVuSans-69"/>
      <use transform="translate(188.183594 0.51875)" xlink:href="#DejaVuSans-73"/>
      <use transform="translate(217.675781 0.51875)" xlink:href="#DejaVuSans-85"/>
      <use transform="translate(288.619141 0.51875)" xlink:href="#DejaVuSans-82"/>
      <use transform="translate(359.058594 38.8)scale(0.7)" xlink:href="#DejaVuSans-Oblique-114"/>
      <use transform="translate(387.837891 38.8)scale(0.7)" xlink:href="#DejaVuSans-Oblique-97"/>
      <use transform="translate(430.733398 38.8)scale(0.7)" xlink:href="#DejaVuSans-Oblique-110"/>
      <use transform="translate(475.098633 38.8)scale(0.7)" xlink:href="#DejaVuSans-Oblique-103"/>
      <use transform="translate(519.532227 38.8)scale(0.7)" xlink:href="#DejaVuSans-Oblique-101"/>
     </g>
    </g>
   </g>
  </g>
 </g>
 <defs>
  <clipPath id="pf6b58996ec">
   <rect height="543.6" width="558" x="90" y="86.4"/>
  </clipPath>
 </defs>
</svg>
