<?xml version="1.0" encoding="utf-8" standalone="no"?>
<!DOCTYPE svg PUBLIC "-//W3C//DTD SVG 1.1//EN"
  "http://www.w3.org/Graphics/SVG/1.1/DTD/svg11.dtd">
<!-- Created with matplotlib (https://matplotlib.org/) -->
<svg height="720pt" version="1.1" viewBox="0 0 720 720" width="720pt" xmlns="http://www.w3.org/2000/svg" xmlns:xlink="http://www.w3.org/1999/xlink">
 <metadata>
  <rdf:RDF xmlns:cc="http://creativecommons.org/ns#" xmlns:dc="http://purl.org/dc/elements/1.1/" xmlns:rdf="http://www.w3.org/1999/02/22-rdf-syntax-ns#">
   <cc:Work>
    <dc:type rdf:resource="http://purl.org/dc/dcmitype/StillImage"/>
    <dc:date>2022-10-11T20:58:49.719292</dc:date>
    <dc:format>image/svg+xml</dc:format>
    <dc:creator>
     <cc:Agent>
      <dc:title>Matplotlib v3.3.2, https://matplotlib.org/</dc:title>
     </cc:Agent>
    </dc:creator>
   </cc:Work>
  </rdf:RDF>
 </metadata>
 <defs>
  <style type="text/css">*{stroke-linecap:butt;stroke-linejoin:round;}</style>
 </defs>
 <g id="figure_1">
  <g id="patch_1">
   <path d="M 0 720 
L 720 720 
L 720 0 
L 0 0 
z
" style="fill:none;"/>
  </g>
  <g id="axes_1">
   <g id="patch_2">
    <path d="M 90 630 
L 648 630 
L 648 86.4 
L 90 86.4 
z
" style="fill:#ffffff;"/>
   </g>
   <g id="matplotlib.axis_1">
    <g id="xtick_1">
     <g id="line2d_1">
      <path clip-path="url(#p46614ed41d)" d="M 115.363636 630 
L 115.363636 86.4 
" style="fill:none;stroke:#b0b0b0;stroke-linecap:square;stroke-width:0.8;"/>
     </g>
     <g id="line2d_2">
      <defs>
       <path d="M 0 0 
L 0 3.5 
" id="m5b762ee34c" style="stroke:#000000;stroke-width:0.8;"/>
      </defs>
      <g>
       <use style="stroke:#000000;stroke-width:0.8;" x="115.363636" xlink:href="#m5b762ee34c" y="630"/>
      </g>
     </g>
     <g id="text_1">
      <!-- 0 -->
      <g transform="translate(112.182386 644.598438)scale(0.1 -0.1)">
       <defs>
        <path d="M 31.78125 66.40625 
Q 24.171875 66.40625 20.328125 58.90625 
Q 16.5 51.421875 16.5 36.375 
Q 16.5 21.390625 20.328125 13.890625 
Q 24.171875 6.390625 31.78125 6.390625 
Q 39.453125 6.390625 43.28125 13.890625 
Q 47.125 21.390625 47.125 36.375 
Q 47.125 51.421875 43.28125 58.90625 
Q 39.453125 66.40625 31.78125 66.40625 
z
M 31.78125 74.21875 
Q 44.046875 74.21875 50.515625 64.515625 
Q 56.984375 54.828125 56.984375 36.375 
Q 56.984375 17.96875 50.515625 8.265625 
Q 44.046875 -1.421875 31.78125 -1.421875 
Q 19.53125 -1.421875 13.0625 8.265625 
Q 6.59375 17.96875 6.59375 36.375 
Q 6.59375 54.828125 13.0625 64.515625 
Q 19.53125 74.21875 31.78125 74.21875 
z
" id="DejaVuSans-48"/>
       </defs>
       <use xlink:href="#DejaVuSans-48"/>
      </g>
     </g>
    </g>
    <g id="xtick_2">
     <g id="line2d_3">
      <path clip-path="url(#p46614ed41d)" d="M 224.454545 630 
L 224.454545 86.4 
" style="fill:none;stroke:#b0b0b0;stroke-linecap:square;stroke-width:0.8;"/>
     </g>
     <g id="line2d_4">
      <g>
       <use style="stroke:#000000;stroke-width:0.8;" x="224.454545" xlink:href="#m5b762ee34c" y="630"/>
      </g>
     </g>
     <g id="text_2">
      <!-- 20 -->
      <g transform="translate(218.092045 644.598438)scale(0.1 -0.1)">
       <defs>
        <path d="M 19.1875 8.296875 
L 53.609375 8.296875 
L 53.609375 0 
L 7.328125 0 
L 7.328125 8.296875 
Q 12.9375 14.109375 22.625 23.890625 
Q 32.328125 33.6875 34.8125 36.53125 
Q 39.546875 41.84375 41.421875 45.53125 
Q 43.3125 49.21875 43.3125 52.78125 
Q 43.3125 58.59375 39.234375 62.25 
Q 35.15625 65.921875 28.609375 65.921875 
Q 23.96875 65.921875 18.8125 64.3125 
Q 13.671875 62.703125 7.8125 59.421875 
L 7.8125 69.390625 
Q 13.765625 71.78125 18.9375 73 
Q 24.125 74.21875 28.421875 74.21875 
Q 39.75 74.21875 46.484375 68.546875 
Q 53.21875 62.890625 53.21875 53.421875 
Q 53.21875 48.921875 51.53125 44.890625 
Q 49.859375 40.875 45.40625 35.40625 
Q 44.1875 33.984375 37.640625 27.21875 
Q 31.109375 20.453125 19.1875 8.296875 
z
" id="DejaVuSans-50"/>
       </defs>
       <use xlink:href="#DejaVuSans-50"/>
       <use x="63.623047" xlink:href="#DejaVuSans-48"/>
      </g>
     </g>
    </g>
    <g id="xtick_3">
     <g id="line2d_5">
      <path clip-path="url(#p46614ed41d)" d="M 333.545455 630 
L 333.545455 86.4 
" style="fill:none;stroke:#b0b0b0;stroke-linecap:square;stroke-width:0.8;"/>
     </g>
     <g id="line2d_6">
      <g>
       <use style="stroke:#000000;stroke-width:0.8;" x="333.545455" xlink:href="#m5b762ee34c" y="630"/>
      </g>
     </g>
     <g id="text_3">
      <!-- 40 -->
      <g transform="translate(327.182955 644.598438)scale(0.1 -0.1)">
       <defs>
        <path d="M 37.796875 64.3125 
L 12.890625 25.390625 
L 37.796875 25.390625 
z
M 35.203125 72.90625 
L 47.609375 72.90625 
L 47.609375 25.390625 
L 58.015625 25.390625 
L 58.015625 17.1875 
L 47.609375 17.1875 
L 47.609375 0 
L 37.796875 0 
L 37.796875 17.1875 
L 4.890625 17.1875 
L 4.890625 26.703125 
z
" id="DejaVuSans-52"/>
       </defs>
       <use xlink:href="#DejaVuSans-52"/>
       <use x="63.623047" xlink:href="#DejaVuSans-48"/>
      </g>
     </g>
    </g>
    <g id="xtick_4">
     <g id="line2d_7">
      <path clip-path="url(#p46614ed41d)" d="M 442.636364 630 
L 442.636364 86.4 
" style="fill:none;stroke:#b0b0b0;stroke-linecap:square;stroke-width:0.8;"/>
     </g>
     <g id="line2d_8">
      <g>
       <use style="stroke:#000000;stroke-width:0.8;" x="442.636364" xlink:href="#m5b762ee34c" y="630"/>
      </g>
     </g>
     <g id="text_4">
      <!-- 60 -->
      <g transform="translate(436.273864 644.598438)scale(0.1 -0.1)">
       <defs>
        <path d="M 33.015625 40.375 
Q 26.375 40.375 22.484375 35.828125 
Q 18.609375 31.296875 18.609375 23.390625 
Q 18.609375 15.53125 22.484375 10.953125 
Q 26.375 6.390625 33.015625 6.390625 
Q 39.65625 6.390625 43.53125 10.953125 
Q 47.40625 15.53125 47.40625 23.390625 
Q 47.40625 31.296875 43.53125 35.828125 
Q 39.65625 40.375 33.015625 40.375 
z
M 52.59375 71.296875 
L 52.59375 62.3125 
Q 48.875 64.0625 45.09375 64.984375 
Q 41.3125 65.921875 37.59375 65.921875 
Q 27.828125 65.921875 22.671875 59.328125 
Q 17.53125 52.734375 16.796875 39.40625 
Q 19.671875 43.65625 24.015625 45.921875 
Q 28.375 48.1875 33.59375 48.1875 
Q 44.578125 48.1875 50.953125 41.515625 
Q 57.328125 34.859375 57.328125 23.390625 
Q 57.328125 12.15625 50.6875 5.359375 
Q 44.046875 -1.421875 33.015625 -1.421875 
Q 20.359375 -1.421875 13.671875 8.265625 
Q 6.984375 17.96875 6.984375 36.375 
Q 6.984375 53.65625 15.1875 63.9375 
Q 23.390625 74.21875 37.203125 74.21875 
Q 40.921875 74.21875 44.703125 73.484375 
Q 48.484375 72.75 52.59375 71.296875 
z
" id="DejaVuSans-54"/>
       </defs>
       <use xlink:href="#DejaVuSans-54"/>
       <use x="63.623047" xlink:href="#DejaVuSans-48"/>
      </g>
     </g>
    </g>
    <g id="xtick_5">
     <g id="line2d_9">
      <path clip-path="url(#p46614ed41d)" d="M 551.727273 630 
L 551.727273 86.4 
" style="fill:none;stroke:#b0b0b0;stroke-linecap:square;stroke-width:0.8;"/>
     </g>
     <g id="line2d_10">
      <g>
       <use style="stroke:#000000;stroke-width:0.8;" x="551.727273" xlink:href="#m5b762ee34c" y="630"/>
      </g>
     </g>
     <g id="text_5">
      <!-- 80 -->
      <g transform="translate(545.364773 644.598438)scale(0.1 -0.1)">
       <defs>
        <path d="M 31.78125 34.625 
Q 24.75 34.625 20.71875 30.859375 
Q 16.703125 27.09375 16.703125 20.515625 
Q 16.703125 13.921875 20.71875 10.15625 
Q 24.75 6.390625 31.78125 6.390625 
Q 38.8125 6.390625 42.859375 10.171875 
Q 46.921875 13.96875 46.921875 20.515625 
Q 46.921875 27.09375 42.890625 30.859375 
Q 38.875 34.625 31.78125 34.625 
z
M 21.921875 38.8125 
Q 15.578125 40.375 12.03125 44.71875 
Q 8.5 49.078125 8.5 55.328125 
Q 8.5 64.0625 14.71875 69.140625 
Q 20.953125 74.21875 31.78125 74.21875 
Q 42.671875 74.21875 48.875 69.140625 
Q 55.078125 64.0625 55.078125 55.328125 
Q 55.078125 49.078125 51.53125 44.71875 
Q 48 40.375 41.703125 38.8125 
Q 48.828125 37.15625 52.796875 32.3125 
Q 56.78125 27.484375 56.78125 20.515625 
Q 56.78125 9.90625 50.3125 4.234375 
Q 43.84375 -1.421875 31.78125 -1.421875 
Q 19.734375 -1.421875 13.25 4.234375 
Q 6.78125 9.90625 6.78125 20.515625 
Q 6.78125 27.484375 10.78125 32.3125 
Q 14.796875 37.15625 21.921875 38.8125 
z
M 18.3125 54.390625 
Q 18.3125 48.734375 21.84375 45.5625 
Q 25.390625 42.390625 31.78125 42.390625 
Q 38.140625 42.390625 41.71875 45.5625 
Q 45.3125 48.734375 45.3125 54.390625 
Q 45.3125 60.0625 41.71875 63.234375 
Q 38.140625 66.40625 31.78125 66.40625 
Q 25.390625 66.40625 21.84375 63.234375 
Q 18.3125 60.0625 18.3125 54.390625 
z
" id="DejaVuSans-56"/>
       </defs>
       <use xlink:href="#DejaVuSans-56"/>
       <use x="63.623047" xlink:href="#DejaVuSans-48"/>
      </g>
     </g>
    </g>
    <g id="text_6">
     <!-- Days -->
     <g transform="translate(356.521875 658.276562)scale(0.1 -0.1)">
      <defs>
       <path d="M 19.671875 64.796875 
L 19.671875 8.109375 
L 31.59375 8.109375 
Q 46.6875 8.109375 53.6875 14.9375 
Q 60.6875 21.78125 60.6875 36.53125 
Q 60.6875 51.171875 53.6875 57.984375 
Q 46.6875 64.796875 31.59375 64.796875 
z
M 9.8125 72.90625 
L 30.078125 72.90625 
Q 51.265625 72.90625 61.171875 64.09375 
Q 71.09375 55.28125 71.09375 36.53125 
Q 71.09375 17.671875 61.125 8.828125 
Q 51.171875 0 30.078125 0 
L 9.8125 0 
z
" id="DejaVuSans-68"/>
       <path d="M 34.28125 27.484375 
Q 23.390625 27.484375 19.1875 25 
Q 14.984375 22.515625 14.984375 16.5 
Q 14.984375 11.71875 18.140625 8.90625 
Q 21.296875 6.109375 26.703125 6.109375 
Q 34.1875 6.109375 38.703125 11.40625 
Q 43.21875 16.703125 43.21875 25.484375 
L 43.21875 27.484375 
z
M 52.203125 31.203125 
L 52.203125 0 
L 43.21875 0 
L 43.21875 8.296875 
Q 40.140625 3.328125 35.546875 0.953125 
Q 30.953125 -1.421875 24.3125 -1.421875 
Q 15.921875 -1.421875 10.953125 3.296875 
Q 6 8.015625 6 15.921875 
Q 6 25.140625 12.171875 29.828125 
Q 18.359375 34.515625 30.609375 34.515625 
L 43.21875 34.515625 
L 43.21875 35.40625 
Q 43.21875 41.609375 39.140625 45 
Q 35.0625 48.390625 27.6875 48.390625 
Q 23 48.390625 18.546875 47.265625 
Q 14.109375 46.140625 10.015625 43.890625 
L 10.015625 52.203125 
Q 14.9375 54.109375 19.578125 55.046875 
Q 24.21875 56 28.609375 56 
Q 40.484375 56 46.34375 49.84375 
Q 52.203125 43.703125 52.203125 31.203125 
z
" id="DejaVuSans-97"/>
       <path d="M 32.171875 -5.078125 
Q 28.375 -14.84375 24.75 -17.8125 
Q 21.140625 -20.796875 15.09375 -20.796875 
L 7.90625 -20.796875 
L 7.90625 -13.28125 
L 13.1875 -13.28125 
Q 16.890625 -13.28125 18.9375 -11.515625 
Q 21 -9.765625 23.484375 -3.21875 
L 25.09375 0.875 
L 2.984375 54.6875 
L 12.5 54.6875 
L 29.59375 11.921875 
L 46.6875 54.6875 
L 56.203125 54.6875 
z
" id="DejaVuSans-121"/>
       <path d="M 44.28125 53.078125 
L 44.28125 44.578125 
Q 40.484375 46.53125 36.375 47.5 
Q 32.28125 48.484375 27.875 48.484375 
Q 21.1875 48.484375 17.84375 46.4375 
Q 14.5 44.390625 14.5 40.28125 
Q 14.5 37.15625 16.890625 35.375 
Q 19.28125 33.59375 26.515625 31.984375 
L 29.59375 31.296875 
Q 39.15625 29.25 43.1875 25.515625 
Q 47.21875 21.78125 47.21875 15.09375 
Q 47.21875 7.46875 41.1875 3.015625 
Q 35.15625 -1.421875 24.609375 -1.421875 
Q 20.21875 -1.421875 15.453125 -0.5625 
Q 10.6875 0.296875 5.421875 2 
L 5.421875 11.28125 
Q 10.40625 8.6875 15.234375 7.390625 
Q 20.0625 6.109375 24.8125 6.109375 
Q 31.15625 6.109375 34.5625 8.28125 
Q 37.984375 10.453125 37.984375 14.40625 
Q 37.984375 18.0625 35.515625 20.015625 
Q 33.0625 21.96875 24.703125 23.78125 
L 21.578125 24.515625 
Q 13.234375 26.265625 9.515625 29.90625 
Q 5.8125 33.546875 5.8125 39.890625 
Q 5.8125 47.609375 11.28125 51.796875 
Q 16.75 56 26.8125 56 
Q 31.78125 56 36.171875 55.265625 
Q 40.578125 54.546875 44.28125 53.078125 
z
" id="DejaVuSans-115"/>
      </defs>
      <use xlink:href="#DejaVuSans-68"/>
      <use x="77.001953" xlink:href="#DejaVuSans-97"/>
      <use x="138.28125" xlink:href="#DejaVuSans-121"/>
      <use x="197.460938" xlink:href="#DejaVuSans-115"/>
     </g>
    </g>
   </g>
   <g id="matplotlib.axis_2">
    <g id="ytick_1">
     <g id="line2d_11">
      <path clip-path="url(#p46614ed41d)" d="M 90 606.886198 
L 648 606.886198 
" style="fill:none;stroke:#b0b0b0;stroke-linecap:square;stroke-width:0.8;"/>
     </g>
     <g id="line2d_12">
      <defs>
       <path d="M 0 0 
L -3.5 0 
" id="m645e7c00d4" style="stroke:#000000;stroke-width:0.8;"/>
      </defs>
      <g>
       <use style="stroke:#000000;stroke-width:0.8;" x="90" xlink:href="#m645e7c00d4" y="606.886198"/>
      </g>
     </g>
     <g id="text_7">
      <!-- 0 -->
      <g transform="translate(76.6375 610.685417)scale(0.1 -0.1)">
       <use xlink:href="#DejaVuSans-48"/>
      </g>
     </g>
    </g>
    <g id="ytick_2">
     <g id="line2d_13">
      <path clip-path="url(#p46614ed41d)" d="M 90 527.121763 
L 648 527.121763 
" style="fill:none;stroke:#b0b0b0;stroke-linecap:square;stroke-width:0.8;"/>
     </g>
     <g id="line2d_14">
      <g>
       <use style="stroke:#000000;stroke-width:0.8;" x="90" xlink:href="#m645e7c00d4" y="527.121763"/>
      </g>
     </g>
     <g id="text_8">
      <!-- 500 -->
      <g transform="translate(63.9125 530.920982)scale(0.1 -0.1)">
       <defs>
        <path d="M 10.796875 72.90625 
L 49.515625 72.90625 
L 49.515625 64.59375 
L 19.828125 64.59375 
L 19.828125 46.734375 
Q 21.96875 47.46875 24.109375 47.828125 
Q 26.265625 48.1875 28.421875 48.1875 
Q 40.625 48.1875 47.75 41.5 
Q 54.890625 34.8125 54.890625 23.390625 
Q 54.890625 11.625 47.5625 5.09375 
Q 40.234375 -1.421875 26.90625 -1.421875 
Q 22.3125 -1.421875 17.546875 -0.640625 
Q 12.796875 0.140625 7.71875 1.703125 
L 7.71875 11.625 
Q 12.109375 9.234375 16.796875 8.0625 
Q 21.484375 6.890625 26.703125 6.890625 
Q 35.15625 6.890625 40.078125 11.328125 
Q 45.015625 15.765625 45.015625 23.390625 
Q 45.015625 31 40.078125 35.4375 
Q 35.15625 39.890625 26.703125 39.890625 
Q 22.75 39.890625 18.8125 39.015625 
Q 14.890625 38.140625 10.796875 36.28125 
z
" id="DejaVuSans-53"/>
       </defs>
       <use xlink:href="#DejaVuSans-53"/>
       <use x="63.623047" xlink:href="#DejaVuSans-48"/>
       <use x="127.246094" xlink:href="#DejaVuSans-48"/>
      </g>
     </g>
    </g>
    <g id="ytick_3">
     <g id="line2d_15">
      <path clip-path="url(#p46614ed41d)" d="M 90 447.357328 
L 648 447.357328 
" style="fill:none;stroke:#b0b0b0;stroke-linecap:square;stroke-width:0.8;"/>
     </g>
     <g id="line2d_16">
      <g>
       <use style="stroke:#000000;stroke-width:0.8;" x="90" xlink:href="#m645e7c00d4" y="447.357328"/>
      </g>
     </g>
     <g id="text_9">
      <!-- 1000 -->
      <g transform="translate(57.55 451.156547)scale(0.1 -0.1)">
       <defs>
        <path d="M 12.40625 8.296875 
L 28.515625 8.296875 
L 28.515625 63.921875 
L 10.984375 60.40625 
L 10.984375 69.390625 
L 28.421875 72.90625 
L 38.28125 72.90625 
L 38.28125 8.296875 
L 54.390625 8.296875 
L 54.390625 0 
L 12.40625 0 
z
" id="DejaVuSans-49"/>
       </defs>
       <use xlink:href="#DejaVuSans-49"/>
       <use x="63.623047" xlink:href="#DejaVuSans-48"/>
       <use x="127.246094" xlink:href="#DejaVuSans-48"/>
       <use x="190.869141" xlink:href="#DejaVuSans-48"/>
      </g>
     </g>
    </g>
    <g id="ytick_4">
     <g id="line2d_17">
      <path clip-path="url(#p46614ed41d)" d="M 90 367.592894 
L 648 367.592894 
" style="fill:none;stroke:#b0b0b0;stroke-linecap:square;stroke-width:0.8;"/>
     </g>
     <g id="line2d_18">
      <g>
       <use style="stroke:#000000;stroke-width:0.8;" x="90" xlink:href="#m645e7c00d4" y="367.592894"/>
      </g>
     </g>
     <g id="text_10">
      <!-- 1500 -->
      <g transform="translate(57.55 371.392112)scale(0.1 -0.1)">
       <use xlink:href="#DejaVuSans-49"/>
       <use x="63.623047" xlink:href="#DejaVuSans-53"/>
       <use x="127.246094" xlink:href="#DejaVuSans-48"/>
       <use x="190.869141" xlink:href="#DejaVuSans-48"/>
      </g>
     </g>
    </g>
    <g id="ytick_5">
     <g id="line2d_19">
      <path clip-path="url(#p46614ed41d)" d="M 90 287.828459 
L 648 287.828459 
" style="fill:none;stroke:#b0b0b0;stroke-linecap:square;stroke-width:0.8;"/>
     </g>
     <g id="line2d_20">
      <g>
       <use style="stroke:#000000;stroke-width:0.8;" x="90" xlink:href="#m645e7c00d4" y="287.828459"/>
      </g>
     </g>
     <g id="text_11">
      <!-- 2000 -->
      <g transform="translate(57.55 291.627678)scale(0.1 -0.1)">
       <use xlink:href="#DejaVuSans-50"/>
       <use x="63.623047" xlink:href="#DejaVuSans-48"/>
       <use x="127.246094" xlink:href="#DejaVuSans-48"/>
       <use x="190.869141" xlink:href="#DejaVuSans-48"/>
      </g>
     </g>
    </g>
    <g id="ytick_6">
     <g id="line2d_21">
      <path clip-path="url(#p46614ed41d)" d="M 90 208.064024 
L 648 208.064024 
" style="fill:none;stroke:#b0b0b0;stroke-linecap:square;stroke-width:0.8;"/>
     </g>
     <g id="line2d_22">
      <g>
       <use style="stroke:#000000;stroke-width:0.8;" x="90" xlink:href="#m645e7c00d4" y="208.064024"/>
      </g>
     </g>
     <g id="text_12">
      <!-- 2500 -->
      <g transform="translate(57.55 211.863243)scale(0.1 -0.1)">
       <use xlink:href="#DejaVuSans-50"/>
       <use x="63.623047" xlink:href="#DejaVuSans-53"/>
       <use x="127.246094" xlink:href="#DejaVuSans-48"/>
       <use x="190.869141" xlink:href="#DejaVuSans-48"/>
      </g>
     </g>
    </g>
    <g id="ytick_7">
     <g id="line2d_23">
      <path clip-path="url(#p46614ed41d)" d="M 90 128.29959 
L 648 128.29959 
" style="fill:none;stroke:#b0b0b0;stroke-linecap:square;stroke-width:0.8;"/>
     </g>
     <g id="line2d_24">
      <g>
       <use style="stroke:#000000;stroke-width:0.8;" x="90" xlink:href="#m645e7c00d4" y="128.29959"/>
      </g>
     </g>
     <g id="text_13">
      <!-- 3000 -->
      <g transform="translate(57.55 132.098808)scale(0.1 -0.1)">
       <defs>
        <path d="M 40.578125 39.3125 
Q 47.65625 37.796875 51.625 33 
Q 55.609375 28.21875 55.609375 21.1875 
Q 55.609375 10.40625 48.1875 4.484375 
Q 40.765625 -1.421875 27.09375 -1.421875 
Q 22.515625 -1.421875 17.65625 -0.515625 
Q 12.796875 0.390625 7.625 2.203125 
L 7.625 11.71875 
Q 11.71875 9.328125 16.59375 8.109375 
Q 21.484375 6.890625 26.8125 6.890625 
Q 36.078125 6.890625 40.9375 10.546875 
Q 45.796875 14.203125 45.796875 21.1875 
Q 45.796875 27.640625 41.28125 31.265625 
Q 36.765625 34.90625 28.71875 34.90625 
L 20.21875 34.90625 
L 20.21875 43.015625 
L 29.109375 43.015625 
Q 36.375 43.015625 40.234375 45.921875 
Q 44.09375 48.828125 44.09375 54.296875 
Q 44.09375 59.90625 40.109375 62.90625 
Q 36.140625 65.921875 28.71875 65.921875 
Q 24.65625 65.921875 20.015625 65.03125 
Q 15.375 64.15625 9.8125 62.3125 
L 9.8125 71.09375 
Q 15.4375 72.65625 20.34375 73.4375 
Q 25.25 74.21875 29.59375 74.21875 
Q 40.828125 74.21875 47.359375 69.109375 
Q 53.90625 64.015625 53.90625 55.328125 
Q 53.90625 49.265625 50.4375 45.09375 
Q 46.96875 40.921875 40.578125 39.3125 
z
" id="DejaVuSans-51"/>
       </defs>
       <use xlink:href="#DejaVuSans-51"/>
       <use x="63.623047" xlink:href="#DejaVuSans-48"/>
       <use x="127.246094" xlink:href="#DejaVuSans-48"/>
       <use x="190.869141" xlink:href="#DejaVuSans-48"/>
      </g>
     </g>
    </g>
    <g id="text_14">
     <!-- Cumulative cases -->
     <g transform="translate(51.470312 402.425781)rotate(-90)scale(0.1 -0.1)">
      <defs>
       <path d="M 64.40625 67.28125 
L 64.40625 56.890625 
Q 59.421875 61.53125 53.78125 63.8125 
Q 48.140625 66.109375 41.796875 66.109375 
Q 29.296875 66.109375 22.65625 58.46875 
Q 16.015625 50.828125 16.015625 36.375 
Q 16.015625 21.96875 22.65625 14.328125 
Q 29.296875 6.6875 41.796875 6.6875 
Q 48.140625 6.6875 53.78125 8.984375 
Q 59.421875 11.28125 64.40625 15.921875 
L 64.40625 5.609375 
Q 59.234375 2.09375 53.4375 0.328125 
Q 47.65625 -1.421875 41.21875 -1.421875 
Q 24.65625 -1.421875 15.125 8.703125 
Q 5.609375 18.84375 5.609375 36.375 
Q 5.609375 53.953125 15.125 64.078125 
Q 24.65625 74.21875 41.21875 74.21875 
Q 47.75 74.21875 53.53125 72.484375 
Q 59.328125 70.75 64.40625 67.28125 
z
" id="DejaVuSans-67"/>
       <path d="M 8.5 21.578125 
L 8.5 54.6875 
L 17.484375 54.6875 
L 17.484375 21.921875 
Q 17.484375 14.15625 20.5 10.265625 
Q 23.53125 6.390625 29.59375 6.390625 
Q 36.859375 6.390625 41.078125 11.03125 
Q 45.3125 15.671875 45.3125 23.6875 
L 45.3125 54.6875 
L 54.296875 54.6875 
L 54.296875 0 
L 45.3125 0 
L 45.3125 8.40625 
Q 42.046875 3.421875 37.71875 1 
Q 33.40625 -1.421875 27.6875 -1.421875 
Q 18.265625 -1.421875 13.375 4.4375 
Q 8.5 10.296875 8.5 21.578125 
z
M 31.109375 56 
z
" id="DejaVuSans-117"/>
       <path d="M 52 44.1875 
Q 55.375 50.25 60.0625 53.125 
Q 64.75 56 71.09375 56 
Q 79.640625 56 84.28125 50.015625 
Q 88.921875 44.046875 88.921875 33.015625 
L 88.921875 0 
L 79.890625 0 
L 79.890625 32.71875 
Q 79.890625 40.578125 77.09375 44.375 
Q 74.3125 48.1875 68.609375 48.1875 
Q 61.625 48.1875 57.5625 43.546875 
Q 53.515625 38.921875 53.515625 30.90625 
L 53.515625 0 
L 44.484375 0 
L 44.484375 32.71875 
Q 44.484375 40.625 41.703125 44.40625 
Q 38.921875 48.1875 33.109375 48.1875 
Q 26.21875 48.1875 22.15625 43.53125 
Q 18.109375 38.875 18.109375 30.90625 
L 18.109375 0 
L 9.078125 0 
L 9.078125 54.6875 
L 18.109375 54.6875 
L 18.109375 46.1875 
Q 21.1875 51.21875 25.484375 53.609375 
Q 29.78125 56 35.6875 56 
Q 41.65625 56 45.828125 52.96875 
Q 50 49.953125 52 44.1875 
z
" id="DejaVuSans-109"/>
       <path d="M 9.421875 75.984375 
L 18.40625 75.984375 
L 18.40625 0 
L 9.421875 0 
z
" id="DejaVuSans-108"/>
       <path d="M 18.3125 70.21875 
L 18.3125 54.6875 
L 36.8125 54.6875 
L 36.8125 47.703125 
L 18.3125 47.703125 
L 18.3125 18.015625 
Q 18.3125 11.328125 20.140625 9.421875 
Q 21.96875 7.515625 27.59375 7.515625 
L 36.8125 7.515625 
L 36.8125 0 
L 27.59375 0 
Q 17.1875 0 13.234375 3.875 
Q 9.28125 7.765625 9.28125 18.015625 
L 9.28125 47.703125 
L 2.6875 47.703125 
L 2.6875 54.6875 
L 9.28125 54.6875 
L 9.28125 70.21875 
z
" id="DejaVuSans-116"/>
       <path d="M 9.421875 54.6875 
L 18.40625 54.6875 
L 18.40625 0 
L 9.421875 0 
z
M 9.421875 75.984375 
L 18.40625 75.984375 
L 18.40625 64.59375 
L 9.421875 64.59375 
z
" id="DejaVuSans-105"/>
       <path d="M 2.984375 54.6875 
L 12.5 54.6875 
L 29.59375 8.796875 
L 46.6875 54.6875 
L 56.203125 54.6875 
L 35.6875 0 
L 23.484375 0 
z
" id="DejaVuSans-118"/>
       <path d="M 56.203125 29.59375 
L 56.203125 25.203125 
L 14.890625 25.203125 
Q 15.484375 15.921875 20.484375 11.0625 
Q 25.484375 6.203125 34.421875 6.203125 
Q 39.59375 6.203125 44.453125 7.46875 
Q 49.3125 8.734375 54.109375 11.28125 
L 54.109375 2.78125 
Q 49.265625 0.734375 44.1875 -0.34375 
Q 39.109375 -1.421875 33.890625 -1.421875 
Q 20.796875 -1.421875 13.15625 6.1875 
Q 5.515625 13.8125 5.515625 26.8125 
Q 5.515625 40.234375 12.765625 48.109375 
Q 20.015625 56 32.328125 56 
Q 43.359375 56 49.78125 48.890625 
Q 56.203125 41.796875 56.203125 29.59375 
z
M 47.21875 32.234375 
Q 47.125 39.59375 43.09375 43.984375 
Q 39.0625 48.390625 32.421875 48.390625 
Q 24.90625 48.390625 20.390625 44.140625 
Q 15.875 39.890625 15.1875 32.171875 
z
" id="DejaVuSans-101"/>
       <path id="DejaVuSans-32"/>
       <path d="M 48.78125 52.59375 
L 48.78125 44.1875 
Q 44.96875 46.296875 41.140625 47.34375 
Q 37.3125 48.390625 33.40625 48.390625 
Q 24.65625 48.390625 19.8125 42.84375 
Q 14.984375 37.3125 14.984375 27.296875 
Q 14.984375 17.28125 19.8125 11.734375 
Q 24.65625 6.203125 33.40625 6.203125 
Q 37.3125 6.203125 41.140625 7.25 
Q 44.96875 8.296875 48.78125 10.40625 
L 48.78125 2.09375 
Q 45.015625 0.34375 40.984375 -0.53125 
Q 36.96875 -1.421875 32.421875 -1.421875 
Q 20.0625 -1.421875 12.78125 6.34375 
Q 5.515625 14.109375 5.515625 27.296875 
Q 5.515625 40.671875 12.859375 48.328125 
Q 20.21875 56 33.015625 56 
Q 37.15625 56 41.109375 55.140625 
Q 45.0625 54.296875 48.78125 52.59375 
z
" id="DejaVuSans-99"/>
      </defs>
      <use xlink:href="#DejaVuSans-67"/>
      <use x="69.824219" xlink:href="#DejaVuSans-117"/>
      <use x="133.203125" xlink:href="#DejaVuSans-109"/>
      <use x="230.615234" xlink:href="#DejaVuSans-117"/>
      <use x="293.994141" xlink:href="#DejaVuSans-108"/>
      <use x="321.777344" xlink:href="#DejaVuSans-97"/>
      <use x="383.056641" xlink:href="#DejaVuSans-116"/>
      <use x="422.265625" xlink:href="#DejaVuSans-105"/>
      <use x="450.048828" xlink:href="#DejaVuSans-118"/>
      <use x="509.228516" xlink:href="#DejaVuSans-101"/>
      <use x="570.751953" xlink:href="#DejaVuSans-32"/>
      <use x="602.539062" xlink:href="#DejaVuSans-99"/>
      <use x="657.519531" xlink:href="#DejaVuSans-97"/>
      <use x="718.798828" xlink:href="#DejaVuSans-115"/>
      <use x="770.898438" xlink:href="#DejaVuSans-101"/>
      <use x="832.421875" xlink:href="#DejaVuSans-115"/>
     </g>
    </g>
   </g>
   <g id="line2d_25">
    <path clip-path="url(#p46614ed41d)" d="M 115.363636 605.290909 
L 120.818182 604.995193 
L 126.272727 604.645463 
L 131.727273 604.232178 
L 137.181818 603.744238 
L 142.636364 603.168786 
L 148.090909 602.491001 
L 153.545455 601.693892 
L 159 600.758121 
L 164.454545 599.661861 
L 169.909091 598.380731 
L 175.363636 596.887832 
L 180.818182 595.153951 
L 186.272727 593.147968 
L 191.727273 590.837552 
L 197.181818 588.190183 
L 202.636364 585.17458 
L 208.090909 581.762541 
L 213.545455 577.931194 
L 219 573.665573 
L 224.454545 568.961342 
L 229.909091 563.82743 
L 235.363636 558.288208 
L 240.818182 552.384831 
L 246.272727 546.175364 
L 251.727273 539.73342 
L 257.181818 533.145239 
L 262.636364 526.505363 
L 268.090909 519.911332 
L 273.545455 513.458026 
L 279 507.232319 
L 284.454545 501.308685 
L 289.909091 495.74618 
L 295.363636 490.586987 
L 300.818182 485.856462 
L 306.272727 481.564408 
L 311.727273 477.707219 
L 317.181818 474.270491 
L 322.636364 471.231752 
L 328.090909 468.563055 
L 333.545455 466.233248 
L 339 464.209841 
L 344.454545 462.460458 
L 349.909091 460.953884 
L 355.363636 459.660777 
L 360.818182 458.554092 
L 366.272727 457.609292 
L 371.727273 456.804398 
L 377.181818 456.119925 
L 382.636364 455.538746 
L 388.090909 455.045915 
L 393.545455 454.628461 
L 399 454.275186 
L 404.454545 453.976459 
L 409.909091 453.724025 
L 415.363636 453.510832 
L 420.818182 453.330865 
L 426.272727 453.179008 
L 431.727273 453.050912 
L 437.181818 452.942892 
L 442.636364 452.851822 
L 448.090909 452.775059 
L 453.545455 452.710365 
L 459 452.655853 
L 464.454545 452.609923 
L 469.909091 452.57123 
L 475.363636 452.538636 
L 480.818182 452.511182 
L 486.272727 452.488058 
L 491.727273 452.468582 
L 497.181818 452.45218 
L 502.636364 452.438367 
L 508.090909 452.426735 
L 513.545455 452.416939 
L 519 452.408691 
L 524.454545 452.401745 
L 529.909091 452.395896 
L 535.363636 452.390971 
L 540.818182 452.386824 
L 546.272727 452.383332 
L 551.727273 452.380391 
L 557.181818 452.377915 
L 562.636364 452.375831 
L 568.090909 452.374075 
L 573.545455 452.372597 
L 579 452.371353 
L 584.454545 452.370305 
L 589.909091 452.369423 
L 595.363636 452.36868 
L 600.818182 452.368055 
L 606.272727 452.367528 
L 611.727273 452.367084 
L 617.181818 452.366711 
L 622.636364 452.366397 
" style="fill:none;stroke:#1f77b4;stroke-linecap:square;stroke-width:1.5;"/>
   </g>
   <g id="line2d_26">
    <path clip-path="url(#p46614ed41d)" d="M 115.363636 605.290909 
L 120.818182 598.899596 
L 126.272727 590.826453 
L 131.727273 580.713103 
L 137.181818 568.174705 
L 142.636364 552.82817 
L 148.090909 534.337179 
L 153.545455 512.474286 
L 159 487.194492 
L 164.454545 458.706352 
L 169.909091 427.518798 
L 175.363636 394.439787 
L 180.818182 360.511821 
L 186.272727 326.889337 
L 191.727273 294.68602 
L 197.181818 264.833232 
L 202.636364 237.985807 
L 208.090909 214.491566 
L 213.545455 194.417989 
L 219 177.614831 
L 224.454545 163.788819 
L 229.909091 152.57237 
L 235.363636 143.576983 
L 240.818182 136.429145 
L 246.272727 130.790944 
L 251.727273 126.369248 
L 257.181818 122.917321 
L 262.636364 120.232031 
L 268.090909 118.148882 
L 273.545455 116.536317 
L 279 115.290103 
L 284.454545 114.328246 
L 289.909091 113.586597 
L 295.363636 113.01518 
L 300.818182 112.57518 
L 306.272727 112.236527 
L 311.727273 111.975968 
L 317.181818 111.775548 
L 322.636364 111.621419 
L 328.090909 111.502907 
L 333.545455 111.411794 
L 339 111.341751 
L 344.454545 111.287909 
L 349.909091 111.246525 
L 355.363636 111.214716 
L 360.818182 111.190268 
L 366.272727 111.171478 
L 371.727273 111.157037 
L 377.181818 111.145938 
L 382.636364 111.137409 
L 388.090909 111.130853 
L 393.545455 111.125816 
L 399 111.121944 
L 404.454545 111.118968 
L 409.909091 111.116682 
L 415.363636 111.114925 
L 420.818182 111.113574 
L 426.272727 111.112536 
L 431.727273 111.111739 
L 437.181818 111.111126 
L 442.636364 111.110654 
L 448.090909 111.110292 
L 453.545455 111.110014 
L 459 111.1098 
L 464.454545 111.109636 
L 469.909091 111.10951 
L 475.363636 111.109413 
L 480.818182 111.109338 
L 486.272727 111.109281 
L 491.727273 111.109237 
L 497.181818 111.109203 
L 502.636364 111.109177 
L 508.090909 111.109157 
L 513.545455 111.109142 
L 519 111.10913 
L 524.454545 111.109121 
L 529.909091 111.109114 
L 535.363636 111.109108 
L 540.818182 111.109104 
L 546.272727 111.109101 
L 551.727273 111.109099 
L 557.181818 111.109097 
L 562.636364 111.109095 
L 568.090909 111.109094 
L 573.545455 111.109093 
L 579 111.109093 
L 584.454545 111.109092 
L 589.909091 111.109092 
L 595.363636 111.109092 
L 600.818182 111.109091 
L 606.272727 111.109091 
L 611.727273 111.109091 
L 617.181818 111.109091 
L 622.636364 111.109091 
" style="fill:none;stroke:#ff7f0e;stroke-linecap:square;stroke-width:1.5;"/>
   </g>
   <g id="line2d_27">
    <path clip-path="url(#p46614ed41d)" d="M 115.363636 605.290909 
L 120.818182 604.293146 
L 126.272727 603.197916 
L 131.727273 601.997493 
L 137.181818 600.683925 
L 142.636364 599.249113 
L 148.090909 597.684915 
L 153.545455 595.983272 
L 159 594.136357 
L 164.454545 592.136748 
L 169.909091 589.977628 
L 175.363636 587.653 
L 180.818182 585.157925 
L 186.272727 582.488768 
L 191.727273 579.64345 
L 197.181818 576.621687 
L 202.636364 573.425221 
L 208.090909 570.058012 
L 213.545455 566.526385 
L 219 562.839127 
L 224.454545 559.007503 
L 229.909091 555.045208 
L 235.363636 550.96822 
L 240.818182 546.79458 
L 246.272727 542.544087 
L 251.727273 538.237928 
L 257.181818 533.898243 
L 262.636364 529.54767 
L 268.090909 525.208855 
L 273.545455 520.903986 
L 279 516.654343 
L 284.454545 512.479895 
L 289.909091 508.398965 
L 295.363636 504.427959 
L 300.818182 500.581172 
L 306.272727 496.870671 
L 311.727273 493.306258 
L 317.181818 489.895488 
L 322.636364 486.643754 
L 328.090909 483.554415 
L 333.545455 480.62896 
L 339 477.867193 
L 344.454545 475.267437 
L 349.909091 472.826743 
L 355.363636 470.54109 
L 360.818182 468.405586 
L 366.272727 466.414651 
L 371.727273 464.562186 
L 377.181818 462.841724 
L 382.636364 461.246566 
L 388.090909 459.769894 
L 393.545455 458.40487 
L 399 457.14472 
L 404.454545 455.982795 
L 409.909091 454.912633 
L 415.363636 453.927992 
L 420.818182 453.022885 
L 426.272727 452.191599 
L 431.727273 451.428713 
L 437.181818 450.729098 
L 442.636364 450.08793 
L 448.090909 449.500675 
L 453.545455 448.963096 
L 459 448.471236 
L 464.454545 448.021412 
L 469.909091 447.610203 
L 475.363636 447.234436 
L 480.818182 446.891176 
L 486.272727 446.577709 
L 491.727273 446.291533 
L 497.181818 446.03034 
L 502.636364 445.792005 
L 508.090909 445.574577 
L 513.545455 445.37626 
L 519 445.195408 
L 524.454545 445.030509 
L 529.909091 444.880179 
L 535.363636 444.74315 
L 540.818182 444.618261 
L 546.272727 444.504448 
L 551.727273 444.400741 
L 557.181818 444.30625 
L 562.636364 444.220165 
L 568.090909 444.141743 
L 573.545455 444.070308 
L 579 444.005241 
L 584.454545 443.945978 
L 589.909091 443.892004 
L 595.363636 443.84285 
L 600.818182 443.798087 
L 606.272727 443.757325 
L 611.727273 443.720207 
L 617.181818 443.686409 
L 622.636364 443.655635 
" style="fill:none;stroke:#2ca02c;stroke-linecap:square;stroke-width:1.5;"/>
   </g>
   <g id="line2d_28">
    <path clip-path="url(#p46614ed41d)" d="M 115.363636 605.290909 
L 120.818182 603.964379 
L 126.272727 602.405751 
L 131.727273 600.617441 
L 137.181818 598.603479 
L 142.636364 596.369626 
L 148.090909 593.923464 
L 153.545455 591.274437 
L 159 588.433846 
L 164.454545 585.414784 
L 169.909091 582.232024 
L 175.363636 578.901843 
L 180.818182 575.441805 
L 186.272727 571.87049 
L 191.727273 568.2072 
L 197.181818 564.471633 
L 202.636364 560.68355 
L 208.090909 556.862448 
L 213.545455 553.027241 
L 219 549.195977 
L 224.454545 545.385582 
L 229.909091 541.611656 
L 235.363636 537.888307 
L 240.818182 534.228045 
L 246.272727 530.641714 
L 251.727273 527.138477 
L 257.181818 523.725836 
L 262.636364 520.409694 
L 268.090909 517.194443 
L 273.545455 514.083066 
L 279 511.077271 
L 284.454545 508.177621 
L 289.909091 505.383671 
L 295.363636 502.694114 
L 300.818182 500.106911 
L 306.272727 497.619417 
L 311.727273 495.22851 
L 317.181818 492.93069 
L 322.636364 490.722184 
L 328.090909 488.599031 
L 333.545455 486.557156 
L 339 484.592439 
L 344.454545 482.700768 
L 349.909091 480.878081 
L 355.363636 479.120411 
L 360.818182 477.423905 
L 366.272727 475.784856 
L 371.727273 474.199711 
L 377.181818 472.665089 
L 382.636364 471.177785 
L 388.090909 469.734773 
L 393.545455 468.333208 
L 399 466.970423 
L 404.454545 465.643927 
L 409.909091 464.351394 
L 415.363636 463.090665 
L 420.818182 461.859734 
L 426.272727 460.656742 
L 431.727273 459.479969 
L 437.181818 458.327828 
L 442.636364 457.198851 
L 448.090909 456.091687 
L 453.545455 455.005089 
L 459 453.937909 
L 464.454545 452.889091 
L 469.909091 451.857661 
L 475.363636 450.842723 
L 480.818182 449.843452 
L 486.272727 448.859089 
L 491.727273 447.888932 
L 497.181818 446.932335 
L 502.636364 445.988703 
L 508.090909 445.057483 
L 513.545455 444.138167 
L 519 443.230283 
L 524.454545 442.333394 
L 529.909091 441.447093 
L 535.363636 440.571004 
L 540.818182 439.704774 
L 546.272727 438.848076 
L 551.727273 438.000603 
L 557.181818 437.16207 
L 562.636364 436.332208 
L 568.090909 435.510765 
L 573.545455 434.697502 
L 579 433.892198 
L 584.454545 433.094641 
L 589.909091 432.304632 
L 595.363636 431.521981 
L 600.818182 430.746509 
L 606.272727 429.978047 
L 611.727273 429.216432 
L 617.181818 428.46151 
L 622.636364 427.713132 
" style="fill:none;stroke:#d62728;stroke-linecap:square;stroke-width:1.5;"/>
   </g>
   <g id="line2d_29">
    <path clip-path="url(#p46614ed41d)" d="M 115.363636 605.290909 
L 120.818182 605.146834 
L 126.272727 604.721033 
L 131.727273 603.992024 
L 137.181818 602.906873 
L 142.636364 601.393591 
L 148.090909 599.37771 
L 153.545455 596.805016 
L 159 593.666497 
L 164.454545 590.014734 
L 169.909091 585.959859 
L 175.363636 581.64323 
L 180.818182 577.20212 
L 186.272727 572.743817 
L 191.727273 568.337854 
L 197.181818 564.022126 
L 202.636364 559.813787 
L 208.090909 555.718635 
L 213.545455 551.737078 
L 219 547.867268 
L 224.454545 544.106531 
L 229.909091 540.451948 
L 235.363636 536.900571 
L 240.818182 533.449502 
L 246.272727 530.095912 
L 251.727273 526.837048 
L 257.181818 523.670235 
L 262.636364 520.592874 
L 268.090909 517.602437 
L 273.545455 514.69647 
L 279 511.872586 
L 284.454545 509.128467 
L 289.909091 506.46186 
L 295.363636 503.870575 
L 300.818182 501.352485 
L 306.272727 498.905522 
L 311.727273 496.527677 
L 317.181818 494.216999 
L 322.636364 491.971588 
L 328.090909 489.789603 
L 333.545455 487.669251 
L 339 485.608792 
L 344.454545 483.606533 
L 349.909091 481.660831 
L 355.363636 479.770089 
L 360.818182 477.932753 
L 366.272727 476.147316 
L 371.727273 474.412311 
L 377.181818 472.726314 
L 382.636364 471.08794 
L 388.090909 469.495845 
L 393.545455 467.948721 
L 399 466.445297 
L 404.454545 464.98434 
L 409.909091 463.56465 
L 415.363636 462.185062 
L 420.818182 460.844442 
L 426.272727 459.541689 
L 431.727273 458.275735 
L 437.181818 457.04554 
L 442.636364 455.850093 
L 448.090909 454.688414 
L 453.545455 453.559548 
L 459 452.462569 
L 464.454545 451.396575 
L 469.909091 450.360692 
L 475.363636 449.354069 
L 480.818182 448.375879 
L 486.272727 447.42532 
L 491.727273 446.501611 
L 497.181818 445.603994 
L 502.636364 444.731731 
L 508.090909 443.884106 
L 513.545455 443.060424 
L 519 442.260008 
L 524.454545 441.482201 
L 529.909091 440.726365 
L 535.363636 439.991878 
L 540.818182 439.278138 
L 546.272727 438.584558 
L 551.727273 437.91057 
L 557.181818 437.255619 
L 562.636364 436.619168 
L 568.090909 436.000695 
L 573.545455 435.399692 
L 579 434.815665 
L 584.454545 434.248135 
L 589.909091 433.696635 
L 595.363636 433.160714 
L 600.818182 432.63993 
L 606.272727 432.133856 
L 611.727273 431.642078 
L 617.181818 431.16419 
L 622.636364 430.699801 
" style="fill:none;stroke:#9467bd;stroke-linecap:square;stroke-width:1.5;"/>
   </g>
   <g id="line2d_30">
    <path clip-path="url(#p46614ed41d)" d="M 115.363636 605.290909 
L 120.818182 605.144358 
L 126.272727 604.705096 
L 131.727273 603.949615 
L 137.181818 602.829547 
L 142.636364 601.281824 
L 148.090909 599.242785 
L 153.545455 596.667165 
L 159 593.548693 
L 164.454545 589.934201 
L 169.909091 585.921974 
L 175.363636 581.641675 
L 180.818182 577.224439 
L 186.272727 572.777816 
L 191.727273 568.375098 
L 197.181818 564.058189 
L 202.636364 559.846933 
L 208.090909 555.748457 
L 213.545455 551.763664 
L 219 547.890829 
L 224.454545 544.127281 
L 229.909091 540.470079 
L 235.363636 536.916258 
L 240.818182 533.462907 
L 246.272727 530.107187 
L 251.727273 526.846339 
L 257.181818 523.67768 
L 262.636364 520.598606 
L 268.090909 517.606582 
L 273.545455 514.699147 
L 279 511.873911 
L 284.454545 509.12855 
L 289.909091 506.460804 
L 295.363636 503.86848 
L 300.818182 501.349446 
L 306.272727 498.90163 
L 311.727273 496.523017 
L 317.181818 494.211652 
L 322.636364 491.965633 
L 328.090909 489.783113 
L 333.545455 487.662297 
L 339 485.60144 
L 344.454545 483.598847 
L 349.909091 481.65287 
L 355.363636 479.76191 
L 360.818182 477.924411 
L 366.272727 476.138861 
L 371.727273 474.403791 
L 377.181818 472.717775 
L 382.636364 471.079426 
L 388.090909 469.487395 
L 393.545455 467.940374 
L 399 466.43709 
L 404.454545 464.976307 
L 409.909091 463.556822 
L 415.363636 462.177469 
L 420.818182 460.837112 
L 426.272727 459.53465 
L 431.727273 458.26901 
L 437.181818 457.039153 
L 442.636364 455.844065 
L 448.090909 454.682765 
L 453.545455 453.554297 
L 459 452.457732 
L 464.454545 451.392169 
L 469.909091 450.356732 
L 475.363636 449.350568 
L 480.818182 448.37285 
L 486.272727 447.422774 
L 491.727273 446.499559 
L 497.181818 445.602444 
L 502.636364 444.730692 
L 508.090909 443.883586 
L 513.545455 443.06043 
L 519 442.260545 
L 524.454545 441.483275 
L 529.909091 440.727979 
L 535.363636 439.994037 
L 540.818182 439.280844 
L 546.272727 438.587815 
L 551.727273 437.914379 
L 557.181818 437.259982 
L 562.636364 436.624087 
L 568.090909 436.006169 
L 573.545455 435.40572 
L 579 434.822248 
L 584.454545 434.255271 
L 589.909091 433.704323 
L 595.363636 433.168952 
L 600.818182 432.648717 
L 606.272727 432.14319 
L 611.727273 431.651954 
L 617.181818 431.174607 
L 622.636364 430.710756 
" style="fill:none;stroke:#8c564b;stroke-linecap:square;stroke-width:1.5;"/>
   </g>
   <g id="line2d_31">
    <path clip-path="url(#p46614ed41d)" d="M 115.363636 605.290909 
L 120.818182 605.120772 
L 126.272727 604.628319 
L 131.727273 603.805566 
L 137.181818 602.612331 
L 142.636364 600.991829 
L 148.090909 598.887692 
L 153.545455 596.263676 
L 159 593.12254 
L 164.454545 589.51647 
L 169.909091 585.542056 
L 175.363636 581.320041 
L 180.818182 576.96922 
L 186.272727 572.586507 
L 191.727273 568.239288 
L 197.181818 563.96815 
L 202.636364 559.794285 
L 208.090909 555.726932 
L 213.545455 551.768811 
L 219 547.919432 
L 224.454545 544.176853 
L 229.909091 540.538542 
L 235.363636 537.001768 
L 240.818182 533.563765 
L 246.272727 530.2218 
L 251.727273 526.973203 
L 257.181818 523.815367 
L 262.636364 520.745758 
L 268.090909 517.761912 
L 273.545455 514.861433 
L 279 512.041992 
L 284.454545 509.301324 
L 289.909091 506.63723 
L 295.363636 504.047569 
L 300.818182 501.530261 
L 306.272727 499.083286 
L 311.727273 496.704678 
L 317.181818 494.392527 
L 322.636364 492.144977 
L 328.090909 489.960221 
L 333.545455 487.836507 
L 339 485.772128 
L 344.454545 483.765427 
L 349.909091 481.814792 
L 355.363636 479.918657 
L 360.818182 478.075498 
L 366.272727 476.283837 
L 371.727273 474.542234 
L 377.181818 472.84929 
L 382.636364 471.203646 
L 388.090909 469.60398 
L 393.545455 468.049009 
L 399 466.537482 
L 404.454545 465.068187 
L 409.909091 463.639943 
L 415.363636 462.251603 
L 420.818182 460.902053 
L 426.272727 459.590209 
L 431.727273 458.315017 
L 437.181818 457.075453 
L 442.636364 455.870522 
L 448.090909 454.699256 
L 453.545455 453.560714 
L 459 452.453983 
L 464.454545 451.378173 
L 469.909091 450.332421 
L 475.363636 449.315887 
L 480.818182 448.327754 
L 486.272727 447.367229 
L 491.727273 446.43354 
L 497.181818 445.525939 
L 502.636364 444.643695 
L 508.090909 443.786101 
L 513.545455 442.952467 
L 519 442.142125 
L 524.454545 441.354423 
L 529.909091 440.588729 
L 535.363636 439.844428 
L 540.818182 439.120923 
L 546.272727 438.417632 
L 551.727273 437.733991 
L 557.181818 437.06945 
L 562.636364 436.423476 
L 568.090909 435.79555 
L 573.545455 435.185168 
L 579 434.59184 
L 584.454545 434.015089 
L 589.909091 433.454453 
L 595.363636 432.90948 
L 600.818182 432.379733 
L 606.272727 431.864788 
L 611.727273 431.364229 
L 617.181818 430.877656 
L 622.636364 430.404678 
" style="fill:none;stroke:#e377c2;stroke-linecap:square;stroke-width:1.5;"/>
   </g>
   <g id="line2d_32">
    <path clip-path="url(#p46614ed41d)" d="M 115.363636 605.290909 
L 120.818182 605.131649 
L 126.272727 604.657511 
L 131.727273 603.850523 
L 137.181818 602.669499 
L 142.636364 601.060718 
L 148.090909 598.971487 
L 153.545455 596.36701 
L 159 593.247561 
L 164.454545 589.659473 
L 169.909091 585.693136 
L 175.363636 581.466326 
L 180.818182 577.099508 
L 186.272727 572.694293 
L 191.727273 568.322967 
L 197.181818 564.029322 
L 202.636364 559.835803 
L 208.090909 555.751631 
L 213.545455 551.779015 
L 219 547.916925 
L 224.454545 544.163018 
L 229.909091 540.514513 
L 235.363636 536.968527 
L 240.818182 533.522201 
L 246.272727 530.172741 
L 251.727273 526.917426 
L 257.181818 523.753609 
L 262.636364 520.678719 
L 268.090909 517.690257 
L 273.545455 514.785794 
L 279 511.962968 
L 284.454545 509.219484 
L 289.909091 506.553113 
L 295.363636 503.961687 
L 300.818182 501.4431 
L 306.272727 498.995305 
L 311.727273 496.61631 
L 317.181818 494.304184 
L 322.636364 492.057046 
L 328.090909 489.873069 
L 333.545455 487.750478 
L 339 485.687549 
L 344.454545 483.682603 
L 349.909091 481.734011 
L 355.363636 479.84019 
L 360.818182 477.999599 
L 366.272727 476.210743 
L 371.727273 474.472167 
L 377.181818 472.782458 
L 382.636364 471.140243 
L 388.090909 469.544186 
L 393.545455 467.992991 
L 399 466.485396 
L 404.454545 465.020176 
L 409.909091 463.596139 
L 415.363636 462.212129 
L 420.818182 460.86702 
L 426.272727 459.559718 
L 431.727273 458.289162 
L 437.181818 457.054318 
L 442.636364 455.854182 
L 448.090909 454.687779 
L 453.545455 453.554161 
L 459 452.452407 
L 464.454545 451.381619 
L 469.909091 450.340929 
L 475.363636 449.329491 
L 480.818182 448.346481 
L 486.272727 447.391101 
L 491.727273 446.462575 
L 497.181818 445.560147 
L 502.636364 444.683085 
L 508.090909 443.830674 
L 513.545455 443.002223 
L 519 442.197057 
L 524.454545 441.414522 
L 529.909091 440.653983 
L 535.363636 439.914821 
L 540.818182 439.196434 
L 546.272727 438.49824 
L 551.727273 437.81967 
L 557.181818 437.160174 
L 562.636364 436.519214 
L 568.090909 435.89627 
L 573.545455 435.290835 
L 579 434.702417 
L 584.454545 434.130539 
L 589.909091 433.574735 
L 595.363636 433.034553 
L 600.818182 432.509554 
L 606.272727 431.999311 
L 611.727273 431.503411 
L 617.181818 431.021448 
L 622.636364 430.553033 
" style="fill:none;stroke:#7f7f7f;stroke-linecap:square;stroke-width:1.5;"/>
   </g>
   <g id="line2d_33">
    <path clip-path="url(#p46614ed41d)" d="M 115.363636 605.290909 
L 120.818182 605.144384 
L 126.272727 604.704711 
L 131.727273 603.948174 
L 137.181818 602.826657 
L 142.636364 601.277594 
L 148.090909 599.237874 
L 153.545455 596.662597 
L 159 593.545466 
L 164.454545 589.932859 
L 169.909091 585.9224 
L 175.363636 581.643245 
L 180.818182 577.226413 
L 186.272727 572.779663 
L 191.727273 568.376596 
L 197.181818 564.059333 
L 202.636364 559.847807 
L 208.090909 555.749147 
L 213.545455 551.764227 
L 219 547.891299 
L 224.454545 544.127674 
L 229.909091 540.470405 
L 235.363636 536.916522 
L 240.818182 533.463114 
L 246.272727 530.107342 
L 251.727273 526.846445 
L 257.181818 523.677742 
L 262.636364 520.598626 
L 268.090909 517.606565 
L 273.545455 514.699096 
L 279 511.873828 
L 284.454545 509.128437 
L 289.909091 506.460666 
L 295.363636 503.868319 
L 300.818182 501.349264 
L 306.272727 498.901429 
L 311.727273 496.5228 
L 317.181818 494.211421 
L 322.636364 491.96539 
L 328.090909 489.78286 
L 333.545455 487.662035 
L 339 485.601171 
L 344.454545 483.598573 
L 349.909091 481.652594 
L 355.363636 479.761632 
L 360.818182 477.924132 
L 366.272727 476.138583 
L 371.727273 474.403515 
L 377.181818 472.717503 
L 382.636364 471.079157 
L 388.090909 469.487132 
L 393.545455 467.940118 
L 399 466.436841 
L 404.454545 464.976066 
L 409.909091 463.55659 
L 415.363636 462.177247 
L 420.818182 460.8369 
L 426.272727 459.534449 
L 431.727273 458.268821 
L 437.181818 457.038976 
L 442.636364 455.843901 
L 448.090909 454.682614 
L 453.545455 453.55416 
L 459 452.457609 
L 464.454545 451.392061 
L 469.909091 450.356639 
L 475.363636 449.35049 
L 480.818182 448.372788 
L 486.272727 447.422727 
L 491.727273 446.499528 
L 497.181818 445.602429 
L 502.636364 444.730694 
L 508.090909 443.883604 
L 513.545455 443.060464 
L 519 442.260596 
L 524.454545 441.483343 
L 529.909091 440.728064 
L 535.363636 439.994139 
L 540.818182 439.280964 
L 546.272727 438.587951 
L 551.727273 437.914533 
L 557.181818 437.260153 
L 562.636364 436.624274 
L 568.090909 436.006373 
L 573.545455 435.405942 
L 579 434.822486 
L 584.454545 434.255526 
L 589.909091 433.704595 
L 595.363636 433.169241 
L 600.818182 432.649022 
L 606.272727 432.143511 
L 611.727273 431.652292 
L 617.181818 431.174962 
L 622.636364 430.711126 
" style="fill:none;stroke:#bcbd22;stroke-linecap:square;stroke-width:1.5;"/>
   </g>
   <g id="line2d_34">
    <path clip-path="url(#p46614ed41d)" d="M 115.363636 605.290909 
L 120.818182 605.290909 
L 126.272727 604.174207 
L 131.727273 602.738447 
L 137.181818 602.100332 
L 142.636364 601.462216 
L 148.090909 599.069283 
L 153.545455 595.559648 
L 159 593.166715 
L 164.454545 589.178493 
L 169.909091 587.104618 
L 175.363636 584.711685 
L 180.818182 578.171001 
L 186.272727 575.459011 
L 191.727273 571.630318 
L 197.181818 567.961154 
L 202.636364 562.218114 
L 208.090909 558.229893 
L 213.545455 551.52968 
L 219 546.903343 
L 224.454545 543.393708 
L 229.909091 535.736322 
L 235.363636 533.821976 
L 240.818182 528.238465 
L 246.272727 525.686003 
L 251.727273 521.85731 
L 257.181818 520.421551 
L 262.636364 519.464377 
L 268.090909 514.83804 
L 273.545455 512.923694 
L 279 509.25453 
L 284.454545 506.38301 
L 289.909091 503.032904 
L 295.363636 502.394788 
L 300.818182 502.075731 
L 306.272727 500.639971 
L 311.727273 499.204211 
L 317.181818 498.087509 
L 322.636364 493.301643 
L 328.090909 490.90871 
L 333.545455 488.994363 
L 339 487.558603 
L 344.454545 485.484728 
L 349.909091 482.772737 
L 355.363636 481.815564 
L 360.818182 478.624987 
L 366.272727 477.348756 
L 371.727273 476.391583 
L 377.181818 473.520063 
L 382.636364 471.446188 
L 388.090909 470.010428 
L 393.545455 468.096081 
L 399 467.936553 
L 404.454545 466.660322 
L 409.909091 463.948331 
L 415.363636 463.948331 
L 420.818182 463.310215 
L 426.272727 461.874456 
L 431.727273 458.843407 
L 437.181818 458.524349 
L 442.636364 457.088589 
L 448.090909 455.971887 
L 453.545455 455.333772 
L 459 455.174243 
L 464.454545 453.419425 
L 469.909091 452.143194 
L 475.363636 447.835915 
L 480.818182 446.081097 
L 486.272727 445.921569 
L 491.727273 445.442982 
L 497.181818 444.804866 
L 502.636364 443.369107 
L 508.090909 442.571462 
L 513.545455 440.019 
L 519 439.859472 
L 524.454545 439.540414 
L 529.909091 438.902298 
L 535.363636 438.264183 
L 540.818182 437.626067 
L 546.272727 437.147481 
L 551.727273 436.987952 
L 557.181818 436.828423 
L 562.636364 436.828423 
L 568.090909 436.030779 
L 573.545455 434.754548 
L 579 434.275961 
L 584.454545 433.797374 
L 589.909091 433.637846 
L 595.363636 433.318788 
L 600.818182 433.318788 
L 606.272727 433.159259 
L 611.727273 432.680672 
L 617.181818 432.361615 
L 622.636364 432.042557 
" style="fill:none;stroke:#17becf;stroke-dasharray:14.8,6.4;stroke-dashoffset:0;stroke-width:4;"/>
   </g>
   <g id="patch_3">
    <path d="M 90 630 
L 90 86.4 
" style="fill:none;stroke:#000000;stroke-linecap:square;stroke-linejoin:miter;stroke-width:0.8;"/>
   </g>
   <g id="patch_4">
    <path d="M 648 630 
L 648 86.4 
" style="fill:none;stroke:#000000;stroke-linecap:square;stroke-linejoin:miter;stroke-width:0.8;"/>
   </g>
   <g id="patch_5">
    <path d="M 90 630 
L 648 630 
" style="fill:none;stroke:#000000;stroke-linecap:square;stroke-linejoin:miter;stroke-width:0.8;"/>
   </g>
   <g id="patch_6">
    <path d="M 90 86.4 
L 648 86.4 
" style="fill:none;stroke:#000000;stroke-linecap:square;stroke-linejoin:miter;stroke-width:0.8;"/>
   </g>
   <g id="text_15">
    <!-- Latvia relative err =  -->
    <g transform="translate(306.928125 80.4)scale(0.12 -0.12)">
     <defs>
      <path d="M 9.8125 72.90625 
L 19.671875 72.90625 
L 19.671875 8.296875 
L 55.171875 8.296875 
L 55.171875 0 
L 9.8125 0 
z
" id="DejaVuSans-76"/>
      <path d="M 41.109375 46.296875 
Q 39.59375 47.171875 37.8125 47.578125 
Q 36.03125 48 33.890625 48 
Q 26.265625 48 22.1875 43.046875 
Q 18.109375 38.09375 18.109375 28.8125 
L 18.109375 0 
L 9.078125 0 
L 9.078125 54.6875 
L 18.109375 54.6875 
L 18.109375 46.1875 
Q 20.953125 51.171875 25.484375 53.578125 
Q 30.03125 56 36.53125 56 
Q 37.453125 56 38.578125 55.875 
Q 39.703125 55.765625 41.0625 55.515625 
z
" id="DejaVuSans-114"/>
      <path d="M 10.59375 45.40625 
L 73.1875 45.40625 
L 73.1875 37.203125 
L 10.59375 37.203125 
z
M 10.59375 25.484375 
L 73.1875 25.484375 
L 73.1875 17.1875 
L 10.59375 17.1875 
z
" id="DejaVuSans-61"/>
     </defs>
     <use xlink:href="#DejaVuSans-76"/>
     <use x="55.712891" xlink:href="#DejaVuSans-97"/>
     <use x="116.992188" xlink:href="#DejaVuSans-116"/>
     <use x="156.201172" xlink:href="#DejaVuSans-118"/>
     <use x="215.380859" xlink:href="#DejaVuSans-105"/>
     <use x="243.164062" xlink:href="#DejaVuSans-97"/>
     <use x="304.443359" xlink:href="#DejaVuSans-32"/>
     <use x="336.230469" xlink:href="#DejaVuSans-114"/>
     <use x="375.09375" xlink:href="#DejaVuSans-101"/>
     <use x="436.617188" xlink:href="#DejaVuSans-108"/>
     <use x="464.400391" xlink:href="#DejaVuSans-97"/>
     <use x="525.679688" xlink:href="#DejaVuSans-116"/>
     <use x="564.888672" xlink:href="#DejaVuSans-105"/>
     <use x="592.671875" xlink:href="#DejaVuSans-118"/>
     <use x="651.851562" xlink:href="#DejaVuSans-101"/>
     <use x="713.375" xlink:href="#DejaVuSans-32"/>
     <use x="745.162109" xlink:href="#DejaVuSans-101"/>
     <use x="806.685547" xlink:href="#DejaVuSans-114"/>
     <use x="846.048828" xlink:href="#DejaVuSans-114"/>
     <use x="887.162109" xlink:href="#DejaVuSans-32"/>
     <use x="918.949219" xlink:href="#DejaVuSans-61"/>
     <use x="1002.738281" xlink:href="#DejaVuSans-32"/>
    </g>
   </g>
   <g id="legend_1">
    <g id="patch_7">
     <path d="M 97 226.503125 
L 185.6 226.503125 
Q 187.6 226.503125 187.6 224.503125 
L 187.6 93.4 
Q 187.6 91.4 185.6 91.4 
L 97 91.4 
Q 95 91.4 95 93.4 
L 95 224.503125 
Q 95 226.503125 97 226.503125 
z
" style="fill:#ffffff;opacity:0.8;stroke:#cccccc;stroke-linejoin:miter;"/>
    </g>
    <g id="line2d_35">
     <path d="M 99 99.498438 
L 119 99.498438 
" style="fill:none;stroke:#1f77b4;stroke-linecap:square;stroke-width:1.5;"/>
    </g>
    <g id="line2d_36"/>
    <g id="text_16">
     <!-- SI -->
     <g transform="translate(127 102.998438)scale(0.1 -0.1)">
      <defs>
       <path d="M 53.515625 70.515625 
L 53.515625 60.890625 
Q 47.90625 63.578125 42.921875 64.890625 
Q 37.9375 66.21875 33.296875 66.21875 
Q 25.25 66.21875 20.875 63.09375 
Q 16.5 59.96875 16.5 54.203125 
Q 16.5 49.359375 19.40625 46.890625 
Q 22.3125 44.4375 30.421875 42.921875 
L 36.375 41.703125 
Q 47.40625 39.59375 52.65625 34.296875 
Q 57.90625 29 57.90625 20.125 
Q 57.90625 9.515625 50.796875 4.046875 
Q 43.703125 -1.421875 29.984375 -1.421875 
Q 24.8125 -1.421875 18.96875 -0.25 
Q 13.140625 0.921875 6.890625 3.21875 
L 6.890625 13.375 
Q 12.890625 10.015625 18.65625 8.296875 
Q 24.421875 6.59375 29.984375 6.59375 
Q 38.421875 6.59375 43.015625 9.90625 
Q 47.609375 13.234375 47.609375 19.390625 
Q 47.609375 24.75 44.3125 27.78125 
Q 41.015625 30.8125 33.5 32.328125 
L 27.484375 33.5 
Q 16.453125 35.6875 11.515625 40.375 
Q 6.59375 45.0625 6.59375 53.421875 
Q 6.59375 63.09375 13.40625 68.65625 
Q 20.21875 74.21875 32.171875 74.21875 
Q 37.3125 74.21875 42.625 73.28125 
Q 47.953125 72.359375 53.515625 70.515625 
z
" id="DejaVuSans-83"/>
       <path d="M 9.8125 72.90625 
L 19.671875 72.90625 
L 19.671875 0 
L 9.8125 0 
z
" id="DejaVuSans-73"/>
      </defs>
      <use xlink:href="#DejaVuSans-83"/>
      <use x="63.476562" xlink:href="#DejaVuSans-73"/>
     </g>
    </g>
    <g id="line2d_37">
     <path d="M 99 114.176563 
L 119 114.176563 
" style="fill:none;stroke:#ff7f0e;stroke-linecap:square;stroke-width:1.5;"/>
    </g>
    <g id="line2d_38"/>
    <g id="text_17">
     <!-- BD -->
     <g transform="translate(127 117.676563)scale(0.1 -0.1)">
      <defs>
       <path d="M 19.671875 34.8125 
L 19.671875 8.109375 
L 35.5 8.109375 
Q 43.453125 8.109375 47.28125 11.40625 
Q 51.125 14.703125 51.125 21.484375 
Q 51.125 28.328125 47.28125 31.5625 
Q 43.453125 34.8125 35.5 34.8125 
z
M 19.671875 64.796875 
L 19.671875 42.828125 
L 34.28125 42.828125 
Q 41.5 42.828125 45.03125 45.53125 
Q 48.578125 48.25 48.578125 53.8125 
Q 48.578125 59.328125 45.03125 62.0625 
Q 41.5 64.796875 34.28125 64.796875 
z
M 9.8125 72.90625 
L 35.015625 72.90625 
Q 46.296875 72.90625 52.390625 68.21875 
Q 58.5 63.53125 58.5 54.890625 
Q 58.5 48.1875 55.375 44.234375 
Q 52.25 40.28125 46.1875 39.3125 
Q 53.46875 37.75 57.5 32.78125 
Q 61.53125 27.828125 61.53125 20.40625 
Q 61.53125 10.640625 54.890625 5.3125 
Q 48.25 0 35.984375 0 
L 9.8125 0 
z
" id="DejaVuSans-66"/>
      </defs>
      <use xlink:href="#DejaVuSans-66"/>
      <use x="68.603516" xlink:href="#DejaVuSans-68"/>
     </g>
    </g>
    <g id="line2d_39">
     <path d="M 99 128.854688 
L 119 128.854688 
" style="fill:none;stroke:#2ca02c;stroke-linecap:square;stroke-width:1.5;"/>
    </g>
    <g id="line2d_40"/>
    <g id="text_18">
     <!-- SIR -->
     <g transform="translate(127 132.354688)scale(0.1 -0.1)">
      <defs>
       <path d="M 44.390625 34.1875 
Q 47.5625 33.109375 50.5625 29.59375 
Q 53.5625 26.078125 56.59375 19.921875 
L 66.609375 0 
L 56 0 
L 46.6875 18.703125 
Q 43.0625 26.03125 39.671875 28.421875 
Q 36.28125 30.8125 30.421875 30.8125 
L 19.671875 30.8125 
L 19.671875 0 
L 9.8125 0 
L 9.8125 72.90625 
L 32.078125 72.90625 
Q 44.578125 72.90625 50.734375 67.671875 
Q 56.890625 62.453125 56.890625 51.90625 
Q 56.890625 45.015625 53.6875 40.46875 
Q 50.484375 35.9375 44.390625 34.1875 
z
M 19.671875 64.796875 
L 19.671875 38.921875 
L 32.078125 38.921875 
Q 39.203125 38.921875 42.84375 42.21875 
Q 46.484375 45.515625 46.484375 51.90625 
Q 46.484375 58.296875 42.84375 61.546875 
Q 39.203125 64.796875 32.078125 64.796875 
z
" id="DejaVuSans-82"/>
      </defs>
      <use xlink:href="#DejaVuSans-83"/>
      <use x="63.476562" xlink:href="#DejaVuSans-73"/>
      <use x="92.96875" xlink:href="#DejaVuSans-82"/>
     </g>
    </g>
    <g id="line2d_41">
     <path d="M 99 143.532812 
L 119 143.532812 
" style="fill:none;stroke:#d62728;stroke-linecap:square;stroke-width:1.5;"/>
    </g>
    <g id="line2d_42"/>
    <g id="text_19">
     <!-- eSIR -->
     <g transform="translate(127 147.032812)scale(0.1 -0.1)">
      <use xlink:href="#DejaVuSans-101"/>
      <use x="61.523438" xlink:href="#DejaVuSans-83"/>
      <use x="125" xlink:href="#DejaVuSans-73"/>
      <use x="154.492188" xlink:href="#DejaVuSans-82"/>
     </g>
    </g>
    <g id="line2d_43">
     <path d="M 99 158.210938 
L 119 158.210938 
" style="fill:none;stroke:#9467bd;stroke-linecap:square;stroke-width:1.5;"/>
    </g>
    <g id="line2d_44"/>
    <g id="text_20">
     <!-- SEIR -->
     <g transform="translate(127 161.710938)scale(0.1 -0.1)">
      <defs>
       <path d="M 9.8125 72.90625 
L 55.90625 72.90625 
L 55.90625 64.59375 
L 19.671875 64.59375 
L 19.671875 43.015625 
L 54.390625 43.015625 
L 54.390625 34.71875 
L 19.671875 34.71875 
L 19.671875 8.296875 
L 56.78125 8.296875 
L 56.78125 0 
L 9.8125 0 
z
" id="DejaVuSans-69"/>
      </defs>
      <use xlink:href="#DejaVuSans-83"/>
      <use x="63.476562" xlink:href="#DejaVuSans-69"/>
      <use x="126.660156" xlink:href="#DejaVuSans-73"/>
      <use x="156.152344" xlink:href="#DejaVuSans-82"/>
     </g>
    </g>
    <g id="line2d_45">
     <path d="M 99 172.889063 
L 119 172.889063 
" style="fill:none;stroke:#8c564b;stroke-linecap:square;stroke-width:1.5;"/>
    </g>
    <g id="line2d_46"/>
    <g id="text_21">
     <!-- eSEIR -->
     <g transform="translate(127 176.389063)scale(0.1 -0.1)">
      <use xlink:href="#DejaVuSans-101"/>
      <use x="61.523438" xlink:href="#DejaVuSans-83"/>
      <use x="125" xlink:href="#DejaVuSans-69"/>
      <use x="188.183594" xlink:href="#DejaVuSans-73"/>
      <use x="217.675781" xlink:href="#DejaVuSans-82"/>
     </g>
    </g>
    <g id="line2d_47">
     <path d="M 99 187.567188 
L 119 187.567188 
" style="fill:none;stroke:#e377c2;stroke-linecap:square;stroke-width:1.5;"/>
    </g>
    <g id="line2d_48"/>
    <g id="text_22">
     <!-- SEIUR -->
     <g transform="translate(127 191.067188)scale(0.1 -0.1)">
      <defs>
       <path d="M 8.6875 72.90625 
L 18.609375 72.90625 
L 18.609375 28.609375 
Q 18.609375 16.890625 22.84375 11.734375 
Q 27.09375 6.59375 36.625 6.59375 
Q 46.09375 6.59375 50.34375 11.734375 
Q 54.59375 16.890625 54.59375 28.609375 
L 54.59375 72.90625 
L 64.5 72.90625 
L 64.5 27.390625 
Q 64.5 13.140625 57.4375 5.859375 
Q 50.390625 -1.421875 36.625 -1.421875 
Q 22.796875 -1.421875 15.734375 5.859375 
Q 8.6875 13.140625 8.6875 27.390625 
z
" id="DejaVuSans-85"/>
      </defs>
      <use xlink:href="#DejaVuSans-83"/>
      <use x="63.476562" xlink:href="#DejaVuSans-69"/>
      <use x="126.660156" xlink:href="#DejaVuSans-73"/>
      <use x="156.152344" xlink:href="#DejaVuSans-85"/>
      <use x="229.345703" xlink:href="#DejaVuSans-82"/>
     </g>
    </g>
    <g id="line2d_49">
     <path d="M 99 202.245312 
L 119 202.245312 
" style="fill:none;stroke:#7f7f7f;stroke-linecap:square;stroke-width:1.5;"/>
    </g>
    <g id="line2d_50"/>
    <g id="text_23">
     <!-- eSEIUR -->
     <g transform="translate(127 205.745312)scale(0.1 -0.1)">
      <use xlink:href="#DejaVuSans-101"/>
      <use x="61.523438" xlink:href="#DejaVuSans-83"/>
      <use x="125" xlink:href="#DejaVuSans-69"/>
      <use x="188.183594" xlink:href="#DejaVuSans-73"/>
      <use x="217.675781" xlink:href="#DejaVuSans-85"/>
      <use x="290.869141" xlink:href="#DejaVuSans-82"/>
     </g>
    </g>
    <g id="line2d_51">
     <path d="M 99 216.923437 
L 119 216.923437 
" style="fill:none;stroke:#bcbd22;stroke-linecap:square;stroke-width:1.5;"/>
    </g>
    <g id="line2d_52"/>
    <g id="text_24">
     <!-- eSEIUR$^{range}$ -->
     <g transform="translate(127 220.423437)scale(0.1 -0.1)">
      <defs>
       <path d="M 44.578125 46.390625 
Q 43.21875 47.125 41.453125 47.515625 
Q 39.703125 47.90625 37.703125 47.90625 
Q 30.515625 47.90625 25.140625 42.453125 
Q 19.78125 37.015625 18.015625 27.875 
L 12.5 0 
L 3.515625 0 
L 14.203125 54.6875 
L 23.1875 54.6875 
L 21.484375 46.1875 
Q 25.046875 50.921875 30 53.453125 
Q 34.96875 56 40.578125 56 
Q 42.046875 56 43.453125 55.828125 
Q 44.875 55.671875 46.296875 55.28125 
z
" id="DejaVuSans-Oblique-114"/>
       <path d="M 53.71875 31.203125 
L 47.609375 0 
L 38.625 0 
L 40.28125 8.296875 
Q 36.328125 3.421875 31.265625 1 
Q 26.21875 -1.421875 20.015625 -1.421875 
Q 13.03125 -1.421875 8.5625 2.84375 
Q 4.109375 7.125 4.109375 13.8125 
Q 4.109375 23.390625 11.75 28.953125 
Q 19.390625 34.515625 32.8125 34.515625 
L 45.3125 34.515625 
L 45.796875 36.921875 
Q 45.90625 37.3125 45.953125 37.765625 
Q 46 38.234375 46 39.203125 
Q 46 43.5625 42.453125 45.96875 
Q 38.921875 48.390625 32.515625 48.390625 
Q 28.125 48.390625 23.5 47.265625 
Q 18.890625 46.140625 14.015625 43.890625 
L 15.578125 52.203125 
Q 20.65625 54.109375 25.515625 55.046875 
Q 30.375 56 34.90625 56 
Q 44.578125 56 49.625 51.796875 
Q 54.6875 47.609375 54.6875 39.59375 
Q 54.6875 37.984375 54.4375 35.8125 
Q 54.203125 33.640625 53.71875 31.203125 
z
M 44 27.484375 
L 35.015625 27.484375 
Q 23.96875 27.484375 18.671875 24.53125 
Q 13.375 21.578125 13.375 15.375 
Q 13.375 11.078125 16.078125 8.640625 
Q 18.796875 6.203125 23.578125 6.203125 
Q 30.90625 6.203125 36.375 11.453125 
Q 41.84375 16.703125 43.609375 25.484375 
z
" id="DejaVuSans-Oblique-97"/>
       <path d="M 55.71875 33.015625 
L 49.3125 0 
L 40.28125 0 
L 46.6875 32.671875 
Q 47.125 34.96875 47.359375 36.71875 
Q 47.609375 38.484375 47.609375 39.5 
Q 47.609375 43.609375 45.015625 45.890625 
Q 42.4375 48.1875 37.796875 48.1875 
Q 30.5625 48.1875 25.34375 43.375 
Q 20.125 38.578125 18.5 30.328125 
L 12.5 0 
L 3.515625 0 
L 14.109375 54.6875 
L 23.09375 54.6875 
L 21.296875 46.09375 
Q 25.046875 50.828125 30.3125 53.40625 
Q 35.59375 56 41.40625 56 
Q 48.640625 56 52.609375 52.09375 
Q 56.59375 48.1875 56.59375 41.109375 
Q 56.59375 39.359375 56.375 37.359375 
Q 56.15625 35.359375 55.71875 33.015625 
z
" id="DejaVuSans-Oblique-110"/>
       <path d="M 59.625 54.6875 
L 50.296875 6.78125 
Q 47.609375 -7.125 40.015625 -13.953125 
Q 32.421875 -20.796875 19.578125 -20.796875 
Q 14.84375 -20.796875 10.78125 -20.09375 
Q 6.734375 -19.390625 3.21875 -17.921875 
L 4.890625 -9.1875 
Q 8.203125 -11.328125 11.90625 -12.34375 
Q 15.625 -13.375 19.828125 -13.375 
Q 28.375 -13.375 33.859375 -8.703125 
Q 39.359375 -4.046875 41.109375 4.6875 
L 41.890625 8.796875 
Q 38.140625 4.5 33.15625 2.25 
Q 28.171875 0 22.40625 0 
Q 14.109375 0 9.34375 5.484375 
Q 4.59375 10.984375 4.59375 20.609375 
Q 4.59375 28.171875 7.46875 35.421875 
Q 10.359375 42.671875 15.578125 48.296875 
Q 19.046875 52 23.65625 54 
Q 28.265625 56 33.296875 56 
Q 38.8125 56 42.90625 53.4375 
Q 47.015625 50.875 49.03125 46.1875 
L 50.59375 54.6875 
z
M 46.09375 34.625 
Q 46.09375 41.265625 42.96875 44.875 
Q 39.84375 48.484375 34.078125 48.484375 
Q 30.515625 48.484375 27.296875 47.0625 
Q 24.078125 45.65625 21.78125 43.109375 
Q 18.0625 38.921875 15.984375 33.234375 
Q 13.921875 27.546875 13.921875 21.484375 
Q 13.921875 14.75 17.0625 11.125 
Q 20.21875 7.515625 26.125 7.515625 
Q 34.671875 7.515625 40.375 15.25 
Q 46.09375 23 46.09375 34.625 
z
" id="DejaVuSans-Oblique-103"/>
       <path d="M 48.09375 32.234375 
Q 48.25 33.015625 48.3125 33.84375 
Q 48.390625 34.671875 48.390625 35.5 
Q 48.390625 41.453125 44.890625 44.921875 
Q 41.40625 48.390625 35.40625 48.390625 
Q 28.71875 48.390625 23.578125 44.15625 
Q 18.453125 39.9375 15.828125 32.171875 
z
M 55.90625 25.203125 
L 14.109375 25.203125 
Q 13.8125 23.34375 13.71875 22.265625 
Q 13.625 21.1875 13.625 20.40625 
Q 13.625 13.625 17.796875 9.90625 
Q 21.96875 6.203125 29.59375 6.203125 
Q 35.453125 6.203125 40.671875 7.515625 
Q 45.90625 8.84375 50.390625 11.375 
L 48.6875 2.484375 
Q 43.84375 0.53125 38.6875 -0.4375 
Q 33.546875 -1.421875 28.21875 -1.421875 
Q 16.84375 -1.421875 10.71875 4.015625 
Q 4.59375 9.46875 4.59375 19.484375 
Q 4.59375 28.03125 7.640625 35.375 
Q 10.6875 42.71875 16.609375 48.484375 
Q 20.40625 52.09375 25.65625 54.046875 
Q 30.90625 56 36.8125 56 
Q 46.09375 56 51.578125 50.4375 
Q 57.078125 44.875 57.078125 35.5 
Q 57.078125 33.25 56.78125 30.6875 
Q 56.5 28.125 55.90625 25.203125 
z
" id="DejaVuSans-Oblique-101"/>
      </defs>
      <use transform="translate(0 0.51875)" xlink:href="#DejaVuSans-101"/>
      <use transform="translate(61.523438 0.51875)" xlink:href="#DejaVuSans-83"/>
      <use transform="translate(125 0.51875)" xlink:href="#DejaVuSans-69"/>
      <use transform="translate(188.183594 0.51875)" xlink:href="#DejaVuSans-73"/>
      <use transform="translate(217.675781 0.51875)" xlink:href="#DejaVuSans-85"/>
      <use transform="translate(288.619141 0.51875)" xlink:href="#DejaVuSans-82"/>
      <use transform="translate(359.058594 38.8)scale(0.7)" xlink:href="#DejaVuSans-Oblique-114"/>
      <use transform="translate(387.837891 38.8)scale(0.7)" xlink:href="#DejaVuSans-Oblique-97"/>
      <use transform="translate(430.733398 38.8)scale(0.7)" xlink:href="#DejaVuSans-Oblique-110"/>
      <use transform="translate(475.098633 38.8)scale(0.7)" xlink:href="#DejaVuSans-Oblique-103"/>
      <use transform="translate(519.532227 38.8)scale(0.7)" xlink:href="#DejaVuSans-Oblique-101"/>
     </g>
    </g>
   </g>
  </g>
 </g>
 <defs>
  <clipPath id="p46614ed41d">
   <rect height="543.6" width="558" x="90" y="86.4"/>
  </clipPath>
 </defs>
</svg>
