<?xml version="1.0" encoding="utf-8" standalone="no"?>
<!DOCTYPE svg PUBLIC "-//W3C//DTD SVG 1.1//EN"
  "http://www.w3.org/Graphics/SVG/1.1/DTD/svg11.dtd">
<!-- Created with matplotlib (https://matplotlib.org/) -->
<svg height="720pt" version="1.1" viewBox="0 0 720 720" width="720pt" xmlns="http://www.w3.org/2000/svg" xmlns:xlink="http://www.w3.org/1999/xlink">
 <metadata>
  <rdf:RDF xmlns:cc="http://creativecommons.org/ns#" xmlns:dc="http://purl.org/dc/elements/1.1/" xmlns:rdf="http://www.w3.org/1999/02/22-rdf-syntax-ns#">
   <cc:Work>
    <dc:type rdf:resource="http://purl.org/dc/dcmitype/StillImage"/>
    <dc:date>2022-10-11T20:58:47.223598</dc:date>
    <dc:format>image/svg+xml</dc:format>
    <dc:creator>
     <cc:Agent>
      <dc:title>Matplotlib v3.3.2, https://matplotlib.org/</dc:title>
     </cc:Agent>
    </dc:creator>
   </cc:Work>
  </rdf:RDF>
 </metadata>
 <defs>
  <style type="text/css">*{stroke-linecap:butt;stroke-linejoin:round;}</style>
 </defs>
 <g id="figure_1">
  <g id="patch_1">
   <path d="M 0 720 
L 720 720 
L 720 0 
L 0 0 
z
" style="fill:none;"/>
  </g>
  <g id="axes_1">
   <g id="patch_2">
    <path d="M 90 630 
L 648 630 
L 648 86.4 
L 90 86.4 
z
" style="fill:#ffffff;"/>
   </g>
   <g id="matplotlib.axis_1">
    <g id="xtick_1">
     <g id="line2d_1">
      <path clip-path="url(#pd42cf50c68)" d="M 115.363636 630 
L 115.363636 86.4 
" style="fill:none;stroke:#b0b0b0;stroke-linecap:square;stroke-width:0.8;"/>
     </g>
     <g id="line2d_2">
      <defs>
       <path d="M 0 0 
L 0 3.5 
" id="m3815cc5407" style="stroke:#000000;stroke-width:0.8;"/>
      </defs>
      <g>
       <use style="stroke:#000000;stroke-width:0.8;" x="115.363636" xlink:href="#m3815cc5407" y="630"/>
      </g>
     </g>
     <g id="text_1">
      <!-- 0 -->
      <g transform="translate(112.182386 644.598438)scale(0.1 -0.1)">
       <defs>
        <path d="M 31.78125 66.40625 
Q 24.171875 66.40625 20.328125 58.90625 
Q 16.5 51.421875 16.5 36.375 
Q 16.5 21.390625 20.328125 13.890625 
Q 24.171875 6.390625 31.78125 6.390625 
Q 39.453125 6.390625 43.28125 13.890625 
Q 47.125 21.390625 47.125 36.375 
Q 47.125 51.421875 43.28125 58.90625 
Q 39.453125 66.40625 31.78125 66.40625 
z
M 31.78125 74.21875 
Q 44.046875 74.21875 50.515625 64.515625 
Q 56.984375 54.828125 56.984375 36.375 
Q 56.984375 17.96875 50.515625 8.265625 
Q 44.046875 -1.421875 31.78125 -1.421875 
Q 19.53125 -1.421875 13.0625 8.265625 
Q 6.59375 17.96875 6.59375 36.375 
Q 6.59375 54.828125 13.0625 64.515625 
Q 19.53125 74.21875 31.78125 74.21875 
z
" id="DejaVuSans-48"/>
       </defs>
       <use xlink:href="#DejaVuSans-48"/>
      </g>
     </g>
    </g>
    <g id="xtick_2">
     <g id="line2d_3">
      <path clip-path="url(#pd42cf50c68)" d="M 210.180969 630 
L 210.180969 86.4 
" style="fill:none;stroke:#b0b0b0;stroke-linecap:square;stroke-width:0.8;"/>
     </g>
     <g id="line2d_4">
      <g>
       <use style="stroke:#000000;stroke-width:0.8;" x="210.180969" xlink:href="#m3815cc5407" y="630"/>
      </g>
     </g>
     <g id="text_2">
      <!-- 20 -->
      <g transform="translate(203.818469 644.598438)scale(0.1 -0.1)">
       <defs>
        <path d="M 19.1875 8.296875 
L 53.609375 8.296875 
L 53.609375 0 
L 7.328125 0 
L 7.328125 8.296875 
Q 12.9375 14.109375 22.625 23.890625 
Q 32.328125 33.6875 34.8125 36.53125 
Q 39.546875 41.84375 41.421875 45.53125 
Q 43.3125 49.21875 43.3125 52.78125 
Q 43.3125 58.59375 39.234375 62.25 
Q 35.15625 65.921875 28.609375 65.921875 
Q 23.96875 65.921875 18.8125 64.3125 
Q 13.671875 62.703125 7.8125 59.421875 
L 7.8125 69.390625 
Q 13.765625 71.78125 18.9375 73 
Q 24.125 74.21875 28.421875 74.21875 
Q 39.75 74.21875 46.484375 68.546875 
Q 53.21875 62.890625 53.21875 53.421875 
Q 53.21875 48.921875 51.53125 44.890625 
Q 49.859375 40.875 45.40625 35.40625 
Q 44.1875 33.984375 37.640625 27.21875 
Q 31.109375 20.453125 19.1875 8.296875 
z
" id="DejaVuSans-50"/>
       </defs>
       <use xlink:href="#DejaVuSans-50"/>
       <use x="63.623047" xlink:href="#DejaVuSans-48"/>
      </g>
     </g>
    </g>
    <g id="xtick_3">
     <g id="line2d_5">
      <path clip-path="url(#pd42cf50c68)" d="M 304.998301 630 
L 304.998301 86.4 
" style="fill:none;stroke:#b0b0b0;stroke-linecap:square;stroke-width:0.8;"/>
     </g>
     <g id="line2d_6">
      <g>
       <use style="stroke:#000000;stroke-width:0.8;" x="304.998301" xlink:href="#m3815cc5407" y="630"/>
      </g>
     </g>
     <g id="text_3">
      <!-- 40 -->
      <g transform="translate(298.635801 644.598438)scale(0.1 -0.1)">
       <defs>
        <path d="M 37.796875 64.3125 
L 12.890625 25.390625 
L 37.796875 25.390625 
z
M 35.203125 72.90625 
L 47.609375 72.90625 
L 47.609375 25.390625 
L 58.015625 25.390625 
L 58.015625 17.1875 
L 47.609375 17.1875 
L 47.609375 0 
L 37.796875 0 
L 37.796875 17.1875 
L 4.890625 17.1875 
L 4.890625 26.703125 
z
" id="DejaVuSans-52"/>
       </defs>
       <use xlink:href="#DejaVuSans-52"/>
       <use x="63.623047" xlink:href="#DejaVuSans-48"/>
      </g>
     </g>
    </g>
    <g id="xtick_4">
     <g id="line2d_7">
      <path clip-path="url(#pd42cf50c68)" d="M 399.815633 630 
L 399.815633 86.4 
" style="fill:none;stroke:#b0b0b0;stroke-linecap:square;stroke-width:0.8;"/>
     </g>
     <g id="line2d_8">
      <g>
       <use style="stroke:#000000;stroke-width:0.8;" x="399.815633" xlink:href="#m3815cc5407" y="630"/>
      </g>
     </g>
     <g id="text_4">
      <!-- 60 -->
      <g transform="translate(393.453133 644.598438)scale(0.1 -0.1)">
       <defs>
        <path d="M 33.015625 40.375 
Q 26.375 40.375 22.484375 35.828125 
Q 18.609375 31.296875 18.609375 23.390625 
Q 18.609375 15.53125 22.484375 10.953125 
Q 26.375 6.390625 33.015625 6.390625 
Q 39.65625 6.390625 43.53125 10.953125 
Q 47.40625 15.53125 47.40625 23.390625 
Q 47.40625 31.296875 43.53125 35.828125 
Q 39.65625 40.375 33.015625 40.375 
z
M 52.59375 71.296875 
L 52.59375 62.3125 
Q 48.875 64.0625 45.09375 64.984375 
Q 41.3125 65.921875 37.59375 65.921875 
Q 27.828125 65.921875 22.671875 59.328125 
Q 17.53125 52.734375 16.796875 39.40625 
Q 19.671875 43.65625 24.015625 45.921875 
Q 28.375 48.1875 33.59375 48.1875 
Q 44.578125 48.1875 50.953125 41.515625 
Q 57.328125 34.859375 57.328125 23.390625 
Q 57.328125 12.15625 50.6875 5.359375 
Q 44.046875 -1.421875 33.015625 -1.421875 
Q 20.359375 -1.421875 13.671875 8.265625 
Q 6.984375 17.96875 6.984375 36.375 
Q 6.984375 53.65625 15.1875 63.9375 
Q 23.390625 74.21875 37.203125 74.21875 
Q 40.921875 74.21875 44.703125 73.484375 
Q 48.484375 72.75 52.59375 71.296875 
z
" id="DejaVuSans-54"/>
       </defs>
       <use xlink:href="#DejaVuSans-54"/>
       <use x="63.623047" xlink:href="#DejaVuSans-48"/>
      </g>
     </g>
    </g>
    <g id="xtick_5">
     <g id="line2d_9">
      <path clip-path="url(#pd42cf50c68)" d="M 494.632965 630 
L 494.632965 86.4 
" style="fill:none;stroke:#b0b0b0;stroke-linecap:square;stroke-width:0.8;"/>
     </g>
     <g id="line2d_10">
      <g>
       <use style="stroke:#000000;stroke-width:0.8;" x="494.632965" xlink:href="#m3815cc5407" y="630"/>
      </g>
     </g>
     <g id="text_5">
      <!-- 80 -->
      <g transform="translate(488.270465 644.598438)scale(0.1 -0.1)">
       <defs>
        <path d="M 31.78125 34.625 
Q 24.75 34.625 20.71875 30.859375 
Q 16.703125 27.09375 16.703125 20.515625 
Q 16.703125 13.921875 20.71875 10.15625 
Q 24.75 6.390625 31.78125 6.390625 
Q 38.8125 6.390625 42.859375 10.171875 
Q 46.921875 13.96875 46.921875 20.515625 
Q 46.921875 27.09375 42.890625 30.859375 
Q 38.875 34.625 31.78125 34.625 
z
M 21.921875 38.8125 
Q 15.578125 40.375 12.03125 44.71875 
Q 8.5 49.078125 8.5 55.328125 
Q 8.5 64.0625 14.71875 69.140625 
Q 20.953125 74.21875 31.78125 74.21875 
Q 42.671875 74.21875 48.875 69.140625 
Q 55.078125 64.0625 55.078125 55.328125 
Q 55.078125 49.078125 51.53125 44.71875 
Q 48 40.375 41.703125 38.8125 
Q 48.828125 37.15625 52.796875 32.3125 
Q 56.78125 27.484375 56.78125 20.515625 
Q 56.78125 9.90625 50.3125 4.234375 
Q 43.84375 -1.421875 31.78125 -1.421875 
Q 19.734375 -1.421875 13.25 4.234375 
Q 6.78125 9.90625 6.78125 20.515625 
Q 6.78125 27.484375 10.78125 32.3125 
Q 14.796875 37.15625 21.921875 38.8125 
z
M 18.3125 54.390625 
Q 18.3125 48.734375 21.84375 45.5625 
Q 25.390625 42.390625 31.78125 42.390625 
Q 38.140625 42.390625 41.71875 45.5625 
Q 45.3125 48.734375 45.3125 54.390625 
Q 45.3125 60.0625 41.71875 63.234375 
Q 38.140625 66.40625 31.78125 66.40625 
Q 25.390625 66.40625 21.84375 63.234375 
Q 18.3125 60.0625 18.3125 54.390625 
z
" id="DejaVuSans-56"/>
       </defs>
       <use xlink:href="#DejaVuSans-56"/>
       <use x="63.623047" xlink:href="#DejaVuSans-48"/>
      </g>
     </g>
    </g>
    <g id="xtick_6">
     <g id="line2d_11">
      <path clip-path="url(#pd42cf50c68)" d="M 589.450297 630 
L 589.450297 86.4 
" style="fill:none;stroke:#b0b0b0;stroke-linecap:square;stroke-width:0.8;"/>
     </g>
     <g id="line2d_12">
      <g>
       <use style="stroke:#000000;stroke-width:0.8;" x="589.450297" xlink:href="#m3815cc5407" y="630"/>
      </g>
     </g>
     <g id="text_6">
      <!-- 100 -->
      <g transform="translate(579.906547 644.598438)scale(0.1 -0.1)">
       <defs>
        <path d="M 12.40625 8.296875 
L 28.515625 8.296875 
L 28.515625 63.921875 
L 10.984375 60.40625 
L 10.984375 69.390625 
L 28.421875 72.90625 
L 38.28125 72.90625 
L 38.28125 8.296875 
L 54.390625 8.296875 
L 54.390625 0 
L 12.40625 0 
z
" id="DejaVuSans-49"/>
       </defs>
       <use xlink:href="#DejaVuSans-49"/>
       <use x="63.623047" xlink:href="#DejaVuSans-48"/>
       <use x="127.246094" xlink:href="#DejaVuSans-48"/>
      </g>
     </g>
    </g>
    <g id="text_7">
     <!-- Days -->
     <g transform="translate(356.521875 658.276562)scale(0.1 -0.1)">
      <defs>
       <path d="M 19.671875 64.796875 
L 19.671875 8.109375 
L 31.59375 8.109375 
Q 46.6875 8.109375 53.6875 14.9375 
Q 60.6875 21.78125 60.6875 36.53125 
Q 60.6875 51.171875 53.6875 57.984375 
Q 46.6875 64.796875 31.59375 64.796875 
z
M 9.8125 72.90625 
L 30.078125 72.90625 
Q 51.265625 72.90625 61.171875 64.09375 
Q 71.09375 55.28125 71.09375 36.53125 
Q 71.09375 17.671875 61.125 8.828125 
Q 51.171875 0 30.078125 0 
L 9.8125 0 
z
" id="DejaVuSans-68"/>
       <path d="M 34.28125 27.484375 
Q 23.390625 27.484375 19.1875 25 
Q 14.984375 22.515625 14.984375 16.5 
Q 14.984375 11.71875 18.140625 8.90625 
Q 21.296875 6.109375 26.703125 6.109375 
Q 34.1875 6.109375 38.703125 11.40625 
Q 43.21875 16.703125 43.21875 25.484375 
L 43.21875 27.484375 
z
M 52.203125 31.203125 
L 52.203125 0 
L 43.21875 0 
L 43.21875 8.296875 
Q 40.140625 3.328125 35.546875 0.953125 
Q 30.953125 -1.421875 24.3125 -1.421875 
Q 15.921875 -1.421875 10.953125 3.296875 
Q 6 8.015625 6 15.921875 
Q 6 25.140625 12.171875 29.828125 
Q 18.359375 34.515625 30.609375 34.515625 
L 43.21875 34.515625 
L 43.21875 35.40625 
Q 43.21875 41.609375 39.140625 45 
Q 35.0625 48.390625 27.6875 48.390625 
Q 23 48.390625 18.546875 47.265625 
Q 14.109375 46.140625 10.015625 43.890625 
L 10.015625 52.203125 
Q 14.9375 54.109375 19.578125 55.046875 
Q 24.21875 56 28.609375 56 
Q 40.484375 56 46.34375 49.84375 
Q 52.203125 43.703125 52.203125 31.203125 
z
" id="DejaVuSans-97"/>
       <path d="M 32.171875 -5.078125 
Q 28.375 -14.84375 24.75 -17.8125 
Q 21.140625 -20.796875 15.09375 -20.796875 
L 7.90625 -20.796875 
L 7.90625 -13.28125 
L 13.1875 -13.28125 
Q 16.890625 -13.28125 18.9375 -11.515625 
Q 21 -9.765625 23.484375 -3.21875 
L 25.09375 0.875 
L 2.984375 54.6875 
L 12.5 54.6875 
L 29.59375 11.921875 
L 46.6875 54.6875 
L 56.203125 54.6875 
z
" id="DejaVuSans-121"/>
       <path d="M 44.28125 53.078125 
L 44.28125 44.578125 
Q 40.484375 46.53125 36.375 47.5 
Q 32.28125 48.484375 27.875 48.484375 
Q 21.1875 48.484375 17.84375 46.4375 
Q 14.5 44.390625 14.5 40.28125 
Q 14.5 37.15625 16.890625 35.375 
Q 19.28125 33.59375 26.515625 31.984375 
L 29.59375 31.296875 
Q 39.15625 29.25 43.1875 25.515625 
Q 47.21875 21.78125 47.21875 15.09375 
Q 47.21875 7.46875 41.1875 3.015625 
Q 35.15625 -1.421875 24.609375 -1.421875 
Q 20.21875 -1.421875 15.453125 -0.5625 
Q 10.6875 0.296875 5.421875 2 
L 5.421875 11.28125 
Q 10.40625 8.6875 15.234375 7.390625 
Q 20.0625 6.109375 24.8125 6.109375 
Q 31.15625 6.109375 34.5625 8.28125 
Q 37.984375 10.453125 37.984375 14.40625 
Q 37.984375 18.0625 35.515625 20.015625 
Q 33.0625 21.96875 24.703125 23.78125 
L 21.578125 24.515625 
Q 13.234375 26.265625 9.515625 29.90625 
Q 5.8125 33.546875 5.8125 39.890625 
Q 5.8125 47.609375 11.28125 51.796875 
Q 16.75 56 26.8125 56 
Q 31.78125 56 36.171875 55.265625 
Q 40.578125 54.546875 44.28125 53.078125 
z
" id="DejaVuSans-115"/>
      </defs>
      <use xlink:href="#DejaVuSans-68"/>
      <use x="77.001953" xlink:href="#DejaVuSans-97"/>
      <use x="138.28125" xlink:href="#DejaVuSans-121"/>
      <use x="197.460938" xlink:href="#DejaVuSans-115"/>
     </g>
    </g>
   </g>
   <g id="matplotlib.axis_2">
    <g id="ytick_1">
     <g id="line2d_13">
      <path clip-path="url(#pd42cf50c68)" d="M 90 605.659153 
L 648 605.659153 
" style="fill:none;stroke:#b0b0b0;stroke-linecap:square;stroke-width:0.8;"/>
     </g>
     <g id="line2d_14">
      <defs>
       <path d="M 0 0 
L -3.5 0 
" id="ma2099f233e" style="stroke:#000000;stroke-width:0.8;"/>
      </defs>
      <g>
       <use style="stroke:#000000;stroke-width:0.8;" x="90" xlink:href="#ma2099f233e" y="605.659153"/>
      </g>
     </g>
     <g id="text_8">
      <!-- 0 -->
      <g transform="translate(76.6375 609.458371)scale(0.1 -0.1)">
       <use xlink:href="#DejaVuSans-48"/>
      </g>
     </g>
    </g>
    <g id="ytick_2">
     <g id="line2d_15">
      <path clip-path="url(#pd42cf50c68)" d="M 90 508.752949 
L 648 508.752949 
" style="fill:none;stroke:#b0b0b0;stroke-linecap:square;stroke-width:0.8;"/>
     </g>
     <g id="line2d_16">
      <g>
       <use style="stroke:#000000;stroke-width:0.8;" x="90" xlink:href="#ma2099f233e" y="508.752949"/>
      </g>
     </g>
     <g id="text_9">
      <!-- 5000 -->
      <g transform="translate(57.55 512.552168)scale(0.1 -0.1)">
       <defs>
        <path d="M 10.796875 72.90625 
L 49.515625 72.90625 
L 49.515625 64.59375 
L 19.828125 64.59375 
L 19.828125 46.734375 
Q 21.96875 47.46875 24.109375 47.828125 
Q 26.265625 48.1875 28.421875 48.1875 
Q 40.625 48.1875 47.75 41.5 
Q 54.890625 34.8125 54.890625 23.390625 
Q 54.890625 11.625 47.5625 5.09375 
Q 40.234375 -1.421875 26.90625 -1.421875 
Q 22.3125 -1.421875 17.546875 -0.640625 
Q 12.796875 0.140625 7.71875 1.703125 
L 7.71875 11.625 
Q 12.109375 9.234375 16.796875 8.0625 
Q 21.484375 6.890625 26.703125 6.890625 
Q 35.15625 6.890625 40.078125 11.328125 
Q 45.015625 15.765625 45.015625 23.390625 
Q 45.015625 31 40.078125 35.4375 
Q 35.15625 39.890625 26.703125 39.890625 
Q 22.75 39.890625 18.8125 39.015625 
Q 14.890625 38.140625 10.796875 36.28125 
z
" id="DejaVuSans-53"/>
       </defs>
       <use xlink:href="#DejaVuSans-53"/>
       <use x="63.623047" xlink:href="#DejaVuSans-48"/>
       <use x="127.246094" xlink:href="#DejaVuSans-48"/>
       <use x="190.869141" xlink:href="#DejaVuSans-48"/>
      </g>
     </g>
    </g>
    <g id="ytick_3">
     <g id="line2d_17">
      <path clip-path="url(#pd42cf50c68)" d="M 90 411.846745 
L 648 411.846745 
" style="fill:none;stroke:#b0b0b0;stroke-linecap:square;stroke-width:0.8;"/>
     </g>
     <g id="line2d_18">
      <g>
       <use style="stroke:#000000;stroke-width:0.8;" x="90" xlink:href="#ma2099f233e" y="411.846745"/>
      </g>
     </g>
     <g id="text_10">
      <!-- 10000 -->
      <g transform="translate(51.1875 415.645964)scale(0.1 -0.1)">
       <use xlink:href="#DejaVuSans-49"/>
       <use x="63.623047" xlink:href="#DejaVuSans-48"/>
       <use x="127.246094" xlink:href="#DejaVuSans-48"/>
       <use x="190.869141" xlink:href="#DejaVuSans-48"/>
       <use x="254.492188" xlink:href="#DejaVuSans-48"/>
      </g>
     </g>
    </g>
    <g id="ytick_4">
     <g id="line2d_19">
      <path clip-path="url(#pd42cf50c68)" d="M 90 314.940541 
L 648 314.940541 
" style="fill:none;stroke:#b0b0b0;stroke-linecap:square;stroke-width:0.8;"/>
     </g>
     <g id="line2d_20">
      <g>
       <use style="stroke:#000000;stroke-width:0.8;" x="90" xlink:href="#ma2099f233e" y="314.940541"/>
      </g>
     </g>
     <g id="text_11">
      <!-- 15000 -->
      <g transform="translate(51.1875 318.73976)scale(0.1 -0.1)">
       <use xlink:href="#DejaVuSans-49"/>
       <use x="63.623047" xlink:href="#DejaVuSans-53"/>
       <use x="127.246094" xlink:href="#DejaVuSans-48"/>
       <use x="190.869141" xlink:href="#DejaVuSans-48"/>
       <use x="254.492188" xlink:href="#DejaVuSans-48"/>
      </g>
     </g>
    </g>
    <g id="ytick_5">
     <g id="line2d_21">
      <path clip-path="url(#pd42cf50c68)" d="M 90 218.034337 
L 648 218.034337 
" style="fill:none;stroke:#b0b0b0;stroke-linecap:square;stroke-width:0.8;"/>
     </g>
     <g id="line2d_22">
      <g>
       <use style="stroke:#000000;stroke-width:0.8;" x="90" xlink:href="#ma2099f233e" y="218.034337"/>
      </g>
     </g>
     <g id="text_12">
      <!-- 20000 -->
      <g transform="translate(51.1875 221.833556)scale(0.1 -0.1)">
       <use xlink:href="#DejaVuSans-50"/>
       <use x="63.623047" xlink:href="#DejaVuSans-48"/>
       <use x="127.246094" xlink:href="#DejaVuSans-48"/>
       <use x="190.869141" xlink:href="#DejaVuSans-48"/>
       <use x="254.492188" xlink:href="#DejaVuSans-48"/>
      </g>
     </g>
    </g>
    <g id="ytick_6">
     <g id="line2d_23">
      <path clip-path="url(#pd42cf50c68)" d="M 90 121.128133 
L 648 121.128133 
" style="fill:none;stroke:#b0b0b0;stroke-linecap:square;stroke-width:0.8;"/>
     </g>
     <g id="line2d_24">
      <g>
       <use style="stroke:#000000;stroke-width:0.8;" x="90" xlink:href="#ma2099f233e" y="121.128133"/>
      </g>
     </g>
     <g id="text_13">
      <!-- 25000 -->
      <g transform="translate(51.1875 124.927352)scale(0.1 -0.1)">
       <use xlink:href="#DejaVuSans-50"/>
       <use x="63.623047" xlink:href="#DejaVuSans-53"/>
       <use x="127.246094" xlink:href="#DejaVuSans-48"/>
       <use x="190.869141" xlink:href="#DejaVuSans-48"/>
       <use x="254.492188" xlink:href="#DejaVuSans-48"/>
      </g>
     </g>
    </g>
    <g id="text_14">
     <!-- Cumulative cases -->
     <g transform="translate(45.107812 402.425781)rotate(-90)scale(0.1 -0.1)">
      <defs>
       <path d="M 64.40625 67.28125 
L 64.40625 56.890625 
Q 59.421875 61.53125 53.78125 63.8125 
Q 48.140625 66.109375 41.796875 66.109375 
Q 29.296875 66.109375 22.65625 58.46875 
Q 16.015625 50.828125 16.015625 36.375 
Q 16.015625 21.96875 22.65625 14.328125 
Q 29.296875 6.6875 41.796875 6.6875 
Q 48.140625 6.6875 53.78125 8.984375 
Q 59.421875 11.28125 64.40625 15.921875 
L 64.40625 5.609375 
Q 59.234375 2.09375 53.4375 0.328125 
Q 47.65625 -1.421875 41.21875 -1.421875 
Q 24.65625 -1.421875 15.125 8.703125 
Q 5.609375 18.84375 5.609375 36.375 
Q 5.609375 53.953125 15.125 64.078125 
Q 24.65625 74.21875 41.21875 74.21875 
Q 47.75 74.21875 53.53125 72.484375 
Q 59.328125 70.75 64.40625 67.28125 
z
" id="DejaVuSans-67"/>
       <path d="M 8.5 21.578125 
L 8.5 54.6875 
L 17.484375 54.6875 
L 17.484375 21.921875 
Q 17.484375 14.15625 20.5 10.265625 
Q 23.53125 6.390625 29.59375 6.390625 
Q 36.859375 6.390625 41.078125 11.03125 
Q 45.3125 15.671875 45.3125 23.6875 
L 45.3125 54.6875 
L 54.296875 54.6875 
L 54.296875 0 
L 45.3125 0 
L 45.3125 8.40625 
Q 42.046875 3.421875 37.71875 1 
Q 33.40625 -1.421875 27.6875 -1.421875 
Q 18.265625 -1.421875 13.375 4.4375 
Q 8.5 10.296875 8.5 21.578125 
z
M 31.109375 56 
z
" id="DejaVuSans-117"/>
       <path d="M 52 44.1875 
Q 55.375 50.25 60.0625 53.125 
Q 64.75 56 71.09375 56 
Q 79.640625 56 84.28125 50.015625 
Q 88.921875 44.046875 88.921875 33.015625 
L 88.921875 0 
L 79.890625 0 
L 79.890625 32.71875 
Q 79.890625 40.578125 77.09375 44.375 
Q 74.3125 48.1875 68.609375 48.1875 
Q 61.625 48.1875 57.5625 43.546875 
Q 53.515625 38.921875 53.515625 30.90625 
L 53.515625 0 
L 44.484375 0 
L 44.484375 32.71875 
Q 44.484375 40.625 41.703125 44.40625 
Q 38.921875 48.1875 33.109375 48.1875 
Q 26.21875 48.1875 22.15625 43.53125 
Q 18.109375 38.875 18.109375 30.90625 
L 18.109375 0 
L 9.078125 0 
L 9.078125 54.6875 
L 18.109375 54.6875 
L 18.109375 46.1875 
Q 21.1875 51.21875 25.484375 53.609375 
Q 29.78125 56 35.6875 56 
Q 41.65625 56 45.828125 52.96875 
Q 50 49.953125 52 44.1875 
z
" id="DejaVuSans-109"/>
       <path d="M 9.421875 75.984375 
L 18.40625 75.984375 
L 18.40625 0 
L 9.421875 0 
z
" id="DejaVuSans-108"/>
       <path d="M 18.3125 70.21875 
L 18.3125 54.6875 
L 36.8125 54.6875 
L 36.8125 47.703125 
L 18.3125 47.703125 
L 18.3125 18.015625 
Q 18.3125 11.328125 20.140625 9.421875 
Q 21.96875 7.515625 27.59375 7.515625 
L 36.8125 7.515625 
L 36.8125 0 
L 27.59375 0 
Q 17.1875 0 13.234375 3.875 
Q 9.28125 7.765625 9.28125 18.015625 
L 9.28125 47.703125 
L 2.6875 47.703125 
L 2.6875 54.6875 
L 9.28125 54.6875 
L 9.28125 70.21875 
z
" id="DejaVuSans-116"/>
       <path d="M 9.421875 54.6875 
L 18.40625 54.6875 
L 18.40625 0 
L 9.421875 0 
z
M 9.421875 75.984375 
L 18.40625 75.984375 
L 18.40625 64.59375 
L 9.421875 64.59375 
z
" id="DejaVuSans-105"/>
       <path d="M 2.984375 54.6875 
L 12.5 54.6875 
L 29.59375 8.796875 
L 46.6875 54.6875 
L 56.203125 54.6875 
L 35.6875 0 
L 23.484375 0 
z
" id="DejaVuSans-118"/>
       <path d="M 56.203125 29.59375 
L 56.203125 25.203125 
L 14.890625 25.203125 
Q 15.484375 15.921875 20.484375 11.0625 
Q 25.484375 6.203125 34.421875 6.203125 
Q 39.59375 6.203125 44.453125 7.46875 
Q 49.3125 8.734375 54.109375 11.28125 
L 54.109375 2.78125 
Q 49.265625 0.734375 44.1875 -0.34375 
Q 39.109375 -1.421875 33.890625 -1.421875 
Q 20.796875 -1.421875 13.15625 6.1875 
Q 5.515625 13.8125 5.515625 26.8125 
Q 5.515625 40.234375 12.765625 48.109375 
Q 20.015625 56 32.328125 56 
Q 43.359375 56 49.78125 48.890625 
Q 56.203125 41.796875 56.203125 29.59375 
z
M 47.21875 32.234375 
Q 47.125 39.59375 43.09375 43.984375 
Q 39.0625 48.390625 32.421875 48.390625 
Q 24.90625 48.390625 20.390625 44.140625 
Q 15.875 39.890625 15.1875 32.171875 
z
" id="DejaVuSans-101"/>
       <path id="DejaVuSans-32"/>
       <path d="M 48.78125 52.59375 
L 48.78125 44.1875 
Q 44.96875 46.296875 41.140625 47.34375 
Q 37.3125 48.390625 33.40625 48.390625 
Q 24.65625 48.390625 19.8125 42.84375 
Q 14.984375 37.3125 14.984375 27.296875 
Q 14.984375 17.28125 19.8125 11.734375 
Q 24.65625 6.203125 33.40625 6.203125 
Q 37.3125 6.203125 41.140625 7.25 
Q 44.96875 8.296875 48.78125 10.40625 
L 48.78125 2.09375 
Q 45.015625 0.34375 40.984375 -0.53125 
Q 36.96875 -1.421875 32.421875 -1.421875 
Q 20.0625 -1.421875 12.78125 6.34375 
Q 5.515625 14.109375 5.515625 27.296875 
Q 5.515625 40.671875 12.859375 48.328125 
Q 20.21875 56 33.015625 56 
Q 37.15625 56 41.109375 55.140625 
Q 45.0625 54.296875 48.78125 52.59375 
z
" id="DejaVuSans-99"/>
      </defs>
      <use xlink:href="#DejaVuSans-67"/>
      <use x="69.824219" xlink:href="#DejaVuSans-117"/>
      <use x="133.203125" xlink:href="#DejaVuSans-109"/>
      <use x="230.615234" xlink:href="#DejaVuSans-117"/>
      <use x="293.994141" xlink:href="#DejaVuSans-108"/>
      <use x="321.777344" xlink:href="#DejaVuSans-97"/>
      <use x="383.056641" xlink:href="#DejaVuSans-116"/>
      <use x="422.265625" xlink:href="#DejaVuSans-105"/>
      <use x="450.048828" xlink:href="#DejaVuSans-118"/>
      <use x="509.228516" xlink:href="#DejaVuSans-101"/>
      <use x="570.751953" xlink:href="#DejaVuSans-32"/>
      <use x="602.539062" xlink:href="#DejaVuSans-99"/>
      <use x="657.519531" xlink:href="#DejaVuSans-97"/>
      <use x="718.798828" xlink:href="#DejaVuSans-115"/>
      <use x="770.898438" xlink:href="#DejaVuSans-101"/>
      <use x="832.421875" xlink:href="#DejaVuSans-115"/>
     </g>
    </g>
   </g>
   <g id="line2d_25">
    <path clip-path="url(#pd42cf50c68)" d="M 115.363636 605.290909 
L 120.104503 605.216351 
L 124.84537 605.126713 
L 129.586236 605.018955 
L 134.327103 604.889424 
L 139.067969 604.733737 
L 143.808836 604.546635 
L 148.549703 604.321812 
L 153.290569 604.051713 
L 158.031436 603.727287 
L 162.772302 603.337707 
L 167.513169 602.870034 
L 172.254036 602.308821 
L 176.994902 601.635657 
L 181.735769 600.828639 
L 186.476636 599.861769 
L 191.217502 598.70427 
L 195.958369 597.319823 
L 200.699235 595.665743 
L 205.440102 593.692098 
L 210.180969 591.340817 
L 214.921835 588.544845 
L 219.662702 585.227412 
L 224.403568 581.301563 
L 229.144435 576.670095 
L 233.885302 571.226121 
L 238.626168 564.854532 
L 243.367035 557.434657 
L 248.107901 548.844432 
L 252.848768 538.966361 
L 257.589635 527.695416 
L 262.330501 514.948806 
L 267.071368 500.67719 
L 271.812234 484.876448 
L 276.553101 467.598637 
L 281.293968 448.960346 
L 286.034834 429.146498 
L 290.775701 408.407902 
L 295.516568 387.051653 
L 300.257434 365.424614 
L 304.998301 343.891631 
L 309.739167 322.811267 
L 314.480034 302.512405 
L 319.220901 283.27489 
L 323.961767 265.316435 
L 328.702634 248.786753 
L 333.4435 233.768489 
L 338.184367 220.2836 
L 342.925234 208.303288 
L 347.6661 197.759574 
L 352.406967 188.556923 
L 357.147833 180.582797 
L 361.8887 173.716493 
L 366.629567 167.836034 
L 371.370433 162.823187 
L 376.1113 158.566817 
L 380.852167 154.96489 
L 385.593033 151.925438 
L 390.3339 149.366777 
L 395.074766 147.217203 
L 399.815633 145.414373 
L 404.5565 143.904509 
L 409.297366 142.64151 
L 414.038233 141.586068 
L 418.779099 140.704808 
L 423.519966 139.969498 
L 428.260833 139.356323 
L 433.001699 138.845244 
L 437.742566 138.419434 
L 442.483432 138.064785 
L 447.224299 137.769489 
L 451.965166 137.523669 
L 456.706032 137.319076 
L 461.446899 137.148822 
L 466.187766 137.007165 
L 470.928632 136.889312 
L 475.669499 136.791274 
L 480.410365 136.709726 
L 485.151232 136.641897 
L 489.892099 136.585484 
L 494.632965 136.538566 
L 499.373832 136.499548 
L 504.114698 136.467099 
L 508.855565 136.440115 
L 513.596432 136.417676 
L 518.337298 136.399016 
L 523.078165 136.3835 
L 527.819031 136.370598 
L 532.559898 136.359869 
L 537.300765 136.350948 
L 542.041631 136.343529 
L 546.782498 136.337361 
L 551.523364 136.332232 
L 556.264231 136.327967 
L 561.005098 136.324421 
L 565.745964 136.321472 
L 570.486831 136.319021 
L 575.227698 136.316982 
L 579.968564 136.315287 
L 584.709431 136.313877 
L 589.450297 136.312705 
L 594.191164 136.311731 
L 598.932031 136.310921 
L 603.672897 136.310247 
L 608.413764 136.309687 
L 613.15463 136.309221 
L 617.895497 136.308833 
L 622.636364 136.308511 
" style="fill:none;stroke:#1f77b4;stroke-linecap:square;stroke-width:1.5;"/>
   </g>
   <g id="line2d_26">
    <path clip-path="url(#pd42cf50c68)" d="M 115.363636 605.290909 
L 120.104503 604.612531 
L 124.84537 603.85422 
L 129.586236 603.006857 
L 134.327103 602.060361 
L 139.067969 601.0036 
L 143.808836 599.824311 
L 148.549703 598.509013 
L 153.290569 597.04292 
L 158.031436 595.409863 
L 162.772302 593.592214 
L 167.513169 591.570826 
L 172.254036 589.324983 
L 176.994902 586.832377 
L 181.735769 584.069112 
L 186.476636 581.009752 
L 191.217502 577.627402 
L 195.958369 573.893864 
L 200.699235 569.779853 
L 205.440102 565.255293 
L 210.180969 560.289713 
L 214.921835 554.852742 
L 219.662702 548.914716 
L 224.403568 542.447405 
L 229.144435 535.424854 
L 233.885302 527.824334 
L 238.626168 519.627391 
L 243.367035 510.820955 
L 248.107901 501.398479 
L 252.848768 491.361066 
L 257.589635 480.718501 
L 262.330501 469.490138 
L 267.071368 457.705566 
L 271.812234 445.40497 
L 276.553101 432.639131 
L 281.293968 419.469017 
L 286.034834 405.964931 
L 290.775701 392.205233 
L 295.516568 378.274654 
L 300.257434 364.262287 
L 304.998301 350.259341 
L 309.739167 336.356779 
L 314.480034 322.642973 
L 319.220901 309.201499 
L 323.961767 296.10918 
L 328.702634 283.43449 
L 333.4435 271.236353 
L 338.184367 259.563388 
L 342.925234 248.453585 
L 347.6661 237.934383 
L 352.406967 228.023105 
L 357.147833 218.72767 
L 361.8887 210.047514 
L 366.629567 201.974657 
L 371.370433 194.494825 
L 376.1113 187.588595 
L 380.852167 181.232491 
L 385.593033 175.400015 
L 390.3339 170.062578 
L 395.074766 165.190313 
L 399.815633 160.752783 
L 404.5565 156.719562 
L 409.297366 153.060708 
L 414.038233 149.747137 
L 418.779099 146.750905 
L 423.519966 144.045409 
L 428.260833 141.605521 
L 433.001699 139.407671 
L 437.742566 137.429882 
L 442.483432 135.651762 
L 447.224299 134.05448 
L 451.965166 132.620716 
L 456.706032 131.334592 
L 461.446899 130.181596 
L 466.187766 129.148506 
L 470.928632 128.223299 
L 475.669499 127.395067 
L 480.410365 126.653932 
L 485.151232 125.990964 
L 489.892099 125.398104 
L 494.632965 124.868084 
L 499.373832 124.39436 
L 504.114698 123.971048 
L 508.855565 123.592856 
L 513.596432 123.255036 
L 518.337298 122.953326 
L 523.078165 122.683903 
L 527.819031 122.443343 
L 532.559898 122.228578 
L 537.300765 122.036861 
L 542.041631 121.865734 
L 546.782498 121.712998 
L 551.523364 121.576686 
L 556.264231 121.45504 
L 561.005098 121.346488 
L 565.745964 121.249626 
L 570.486831 121.163198 
L 575.227698 121.086084 
L 579.968564 121.017282 
L 584.709431 120.955898 
L 589.450297 120.901135 
L 594.191164 120.852279 
L 598.932031 120.808695 
L 603.672897 120.769813 
L 608.413764 120.735128 
L 613.15463 120.704187 
L 617.895497 120.676586 
L 622.636364 120.651965 
" style="fill:none;stroke:#ff7f0e;stroke-linecap:square;stroke-width:1.5;"/>
   </g>
   <g id="line2d_27">
    <path clip-path="url(#pd42cf50c68)" d="M 115.363636 605.290909 
L 120.104503 605.033589 
L 124.84537 604.735244 
L 129.586236 604.389406 
L 134.327103 603.988612 
L 139.067969 603.524259 
L 143.808836 602.986444 
L 148.549703 602.363779 
L 153.290569 601.643192 
L 158.031436 600.809704 
L 162.772302 599.846189 
L 167.513169 598.733112 
L 172.254036 597.44826 
L 176.994902 595.966452 
L 181.735769 594.259266 
L 186.476636 592.294762 
L 191.217502 590.037249 
L 195.958369 587.447094 
L 200.699235 584.480629 
L 205.440102 581.090162 
L 210.180969 577.224174 
L 214.921835 572.827727 
L 219.662702 567.843152 
L 224.403568 562.211087 
L 229.144435 555.871904 
L 233.885302 548.767591 
L 238.626168 540.844094 
L 243.367035 532.054114 
L 248.107901 522.36028 
L 252.848768 511.738569 
L 257.589635 500.181768 
L 262.330501 487.702689 
L 267.071368 474.336813 
L 271.812234 460.144 
L 276.553101 445.208947 
L 281.293968 429.640143 
L 286.034834 413.567225 
L 290.775701 397.136798 
L 295.516568 380.506999 
L 300.257434 363.841224 
L 304.998301 347.301557 
L 309.739167 331.042467 
L 314.480034 315.205289 
L 319.220901 299.91387 
L 323.961767 285.271603 
L 328.702634 271.359905 
L 333.4435 258.238039 
L 338.184367 245.944059 
L 342.925234 234.496619 
L 347.6661 223.897359 
L 352.406967 214.133579 
L 357.147833 205.181001 
L 361.8887 197.006423 
L 366.629567 189.570162 
L 371.370433 182.828196 
L 376.1113 176.733997 
L 380.852167 171.240025 
L 385.593033 166.298921 
L 390.3339 161.864427 
L 395.074766 157.892054 
L 399.815633 154.339553 
L 404.5565 151.167219 
L 409.297366 148.33806 
L 414.038233 145.817862 
L 418.779099 143.575173 
L 423.519966 141.581237 
L 428.260833 139.809875 
L 433.001699 138.237352 
L 437.742566 136.842216 
L 442.483432 135.60514 
L 447.224299 134.508749 
L 451.965166 133.537461 
L 456.706032 132.677328 
L 461.446899 131.915884 
L 466.187766 131.242006 
L 470.928632 130.645779 
L 475.669499 130.118377 
L 480.410365 129.65195 
L 485.151232 129.239524 
L 489.892099 128.874904 
L 494.632965 128.552594 
L 499.373832 128.26772 
L 504.114698 128.015961 
L 508.855565 127.79349 
L 513.596432 127.596915 
L 518.337298 127.423236 
L 523.078165 127.269796 
L 527.819031 127.134244 
L 532.559898 127.014502 
L 537.300765 126.90873 
L 542.041631 126.815302 
L 546.782498 126.732781 
L 551.523364 126.659895 
L 556.264231 126.595522 
L 561.005098 126.538668 
L 565.745964 126.488456 
L 570.486831 126.444111 
L 575.227698 126.404949 
L 579.968564 126.370364 
L 584.709431 126.339821 
L 589.450297 126.312849 
L 594.191164 126.28903 
L 598.932031 126.267995 
L 603.672897 126.24942 
L 608.413764 126.233017 
L 613.15463 126.218532 
L 617.895497 126.205741 
L 622.636364 126.194446 
" style="fill:none;stroke:#2ca02c;stroke-linecap:square;stroke-width:1.5;"/>
   </g>
   <g id="line2d_28">
    <path clip-path="url(#pd42cf50c68)" d="M 115.363636 605.290909 
L 120.104503 604.929617 
L 124.84537 604.499525 
L 129.586236 603.991416 
L 134.327103 603.3949 
L 139.067969 602.698282 
L 143.808836 601.888429 
L 148.549703 600.950618 
L 153.290569 599.86839 
L 158.031436 598.623397 
L 162.772302 597.195249 
L 167.513169 595.561379 
L 172.254036 593.696914 
L 176.994902 591.574584 
L 181.735769 589.164664 
L 186.476636 586.434977 
L 191.217502 583.350973 
L 195.958369 579.875902 
L 200.699235 575.971113 
L 205.440102 571.5965 
L 210.180969 566.711123 
L 214.921835 561.274026 
L 219.662702 555.245275 
L 224.403568 548.587217 
L 229.144435 541.265962 
L 233.885302 533.253064 
L 238.626168 524.527338 
L 243.367035 515.076754 
L 248.107901 504.900291 
L 252.848768 494.009621 
L 257.589635 482.430477 
L 262.330501 470.203533 
L 267.071368 457.384682 
L 271.812234 444.044564 
L 276.553101 430.267312 
L 281.293968 416.148515 
L 286.034834 401.792483 
L 290.775701 387.308976 
L 295.516568 372.809613 
L 300.257434 358.404223 
L 304.998301 344.197385 
L 309.739167 330.285385 
L 314.480034 316.753786 
L 319.220901 303.675692 
L 323.961767 291.110766 
L 328.702634 279.104958 
L 333.4435 267.690855 
L 338.184367 256.888541 
L 342.925234 246.706822 
L 347.6661 237.144682 
L 352.406967 228.192846 
L 357.147833 219.835352 
L 361.8887 212.051039 
L 366.629567 204.814914 
L 371.370433 198.099361 
L 376.1113 191.87516 
L 380.852167 186.112352 
L 385.593033 180.780914 
L 390.3339 175.851307 
L 395.074766 171.294868 
L 399.815633 167.084107 
L 404.5565 163.192903 
L 409.297366 159.59662 
L 414.038233 156.272172 
L 418.779099 153.198035 
L 423.519966 150.354225 
L 428.260833 147.722255 
L 433.001699 145.285069 
L 437.742566 143.026967 
L 442.483432 140.933523 
L 447.224299 138.991504 
L 451.965166 137.188778 
L 456.706032 135.514237 
L 461.446899 133.957713 
L 466.187766 132.509901 
L 470.928632 131.162288 
L 475.669499 129.907085 
L 480.410365 128.737163 
L 485.151232 127.645997 
L 489.892099 126.627612 
L 494.632965 125.676533 
L 499.373832 124.787741 
L 504.114698 123.956633 
L 508.855565 123.178982 
L 513.596432 122.450909 
L 518.337298 121.768846 
L 523.078165 121.129511 
L 527.819031 120.529883 
L 532.559898 119.96718 
L 537.300765 119.438836 
L 542.041631 118.942483 
L 546.782498 118.475934 
L 551.523364 118.037169 
L 556.264231 117.624319 
L 561.005098 117.235654 
L 565.745964 116.86957 
L 570.486831 116.524584 
L 575.227698 116.199316 
L 579.968564 115.892487 
L 584.709431 115.602908 
L 589.450297 115.329476 
L 594.191164 115.07116 
L 598.932031 114.827006 
L 603.672897 114.596122 
L 608.413764 114.377677 
L 613.15463 114.170896 
L 617.895497 113.975058 
L 622.636364 113.789488 
" style="fill:none;stroke:#d62728;stroke-linecap:square;stroke-width:1.5;"/>
   </g>
   <g id="line2d_29">
    <path clip-path="url(#pd42cf50c68)" d="M 115.363636 605.290909 
L 120.104503 605.259549 
L 124.84537 605.180416 
L 129.586236 605.064027 
L 134.327103 604.911551 
L 139.067969 604.719035 
L 143.808836 604.47915 
L 148.549703 604.181759 
L 153.290569 603.813906 
L 158.031436 603.359486 
L 162.772302 602.798718 
L 167.513169 602.107474 
L 172.254036 601.256481 
L 176.994902 600.210432 
L 181.735769 598.927024 
L 186.476636 597.35599 
L 191.217502 595.438205 
L 195.958369 593.105001 
L 200.699235 590.277892 
L 205.440102 586.868948 
L 210.180969 582.782148 
L 214.921835 577.916047 
L 219.662702 572.168055 
L 224.403568 565.440521 
L 229.144435 557.648507 
L 233.885302 548.72876 
L 238.626168 538.648884 
L 243.367035 527.415288 
L 248.107901 515.078296 
L 252.848768 501.733019 
L 257.589635 487.51531 
L 262.330501 472.593117 
L 267.071368 457.154589 
L 271.812234 441.394918 
L 276.553101 425.503977 
L 281.293968 409.656363 
L 286.034834 394.004663 
L 290.775701 378.676007 
L 295.516568 363.771432 
L 300.257434 349.36727 
L 304.998301 335.517791 
L 309.739167 322.258423 
L 314.480034 309.609077 
L 319.220901 297.577259 
L 323.961767 286.160835 
L 328.702634 275.350363 
L 333.4435 265.131019 
L 338.184367 255.48414 
L 342.925234 246.388446 
L 347.6661 237.820989 
L 352.406967 229.757879 
L 357.147833 222.174842 
L 361.8887 215.047627 
L 366.629567 208.35232 
L 371.370433 202.065557 
L 376.1113 196.164689 
L 380.852167 190.627881 
L 385.593033 185.434185 
L 390.3339 180.56358 
L 395.074766 175.996988 
L 399.815633 171.716274 
L 404.5565 167.704242 
L 409.297366 163.944606 
L 414.038233 160.421973 
L 418.779099 157.121805 
L 423.519966 154.030394 
L 428.260833 151.134818 
L 433.001699 148.422912 
L 437.742566 145.883228 
L 442.483432 143.505 
L 447.224299 141.278111 
L 451.965166 139.193052 
L 456.706032 137.240897 
L 461.446899 135.413264 
L 466.187766 133.702286 
L 470.928632 132.100583 
L 475.669499 130.601233 
L 480.410365 129.197744 
L 485.151232 127.884027 
L 489.892099 126.654376 
L 494.632965 125.503443 
L 499.373832 124.426215 
L 504.114698 123.417995 
L 508.855565 122.474381 
L 513.596432 121.591251 
L 518.337298 120.764743 
L 523.078165 119.991239 
L 527.819031 119.267351 
L 532.559898 118.589906 
L 537.300765 117.955932 
L 542.041631 117.362648 
L 546.782498 116.807448 
L 551.523364 116.287893 
L 556.264231 115.8017 
L 561.005098 115.346729 
L 565.745964 114.92098 
L 570.486831 114.522578 
L 575.227698 114.149771 
L 579.968564 113.800915 
L 584.709431 113.474475 
L 589.450297 113.169012 
L 594.191164 112.883179 
L 598.932031 112.615716 
L 603.672897 112.365444 
L 608.413764 112.131259 
L 613.15463 111.912128 
L 617.895497 111.707084 
L 622.636364 111.515222 
" style="fill:none;stroke:#9467bd;stroke-linecap:square;stroke-width:1.5;"/>
   </g>
   <g id="line2d_30">
    <path clip-path="url(#pd42cf50c68)" d="M 115.363636 605.290909 
L 120.104503 605.226656 
L 124.84537 605.038588 
L 129.586236 604.730408 
L 134.327103 604.301829 
L 139.067969 603.749014 
L 143.808836 603.064875 
L 148.549703 602.23926 
L 153.290569 601.259058 
L 158.031436 600.108234 
L 162.772302 598.767822 
L 167.513169 597.215885 
L 172.254036 595.427462 
L 176.994902 593.374532 
L 181.735769 591.025994 
L 186.476636 588.347716 
L 191.217502 585.302654 
L 195.958369 581.851089 
L 200.699235 577.951018 
L 205.440102 573.558714 
L 210.180969 568.629522 
L 214.921835 563.118888 
L 219.662702 556.983671 
L 224.403568 550.183724 
L 229.144435 542.683737 
L 233.885302 534.455296 
L 238.626168 525.479066 
L 243.367035 515.746992 
L 248.107901 505.264344 
L 252.848768 494.05143 
L 257.589635 482.14478 
L 262.330501 469.597606 
L 267.071368 456.479402 
L 271.812234 442.874602 
L 276.553101 428.880316 
L 281.293968 414.603244 
L 286.034834 400.156001 
L 290.775701 385.653107 
L 295.516568 371.206975 
L 300.257434 356.924198 
L 304.998301 342.902389 
L 309.739167 329.227768 
L 314.480034 315.973571 
L 319.220901 303.199292 
L 323.961767 290.95067 
L 328.702634 279.260302 
L 333.4435 268.148723 
L 338.184367 257.625781 
L 342.925234 247.69218 
L 347.6661 238.341048 
L 352.406967 229.559457 
L 357.147833 221.329811 
L 361.8887 213.631083 
L 366.629567 206.439875 
L 371.370433 199.731297 
L 376.1113 193.479692 
L 380.852167 187.6592 
L 385.593033 182.244198 
L 390.3339 177.209629 
L 395.074766 172.531242 
L 399.815633 168.185754 
L 404.5565 164.150959 
L 409.297366 160.405786 
L 414.038233 156.93033 
L 418.779099 153.705848 
L 423.519966 150.714743 
L 428.260833 147.940531 
L 433.001699 145.367797 
L 437.742566 142.982154 
L 442.483432 140.770185 
L 447.224299 138.719392 
L 451.965166 136.818144 
L 456.706032 135.055627 
L 461.446899 133.421785 
L 466.187766 131.907278 
L 470.928632 130.503434 
L 475.669499 129.202198 
L 480.410365 127.996099 
L 485.151232 126.878199 
L 489.892099 125.842067 
L 494.632965 124.881734 
L 499.373832 123.991666 
L 504.114698 123.166729 
L 508.855565 122.402164 
L 513.596432 121.693558 
L 518.337298 121.036819 
L 523.078165 120.428156 
L 527.819031 119.86405 
L 532.559898 119.341242 
L 537.300765 118.856712 
L 542.041631 118.407657 
L 546.782498 117.991481 
L 551.523364 117.605779 
L 556.264231 117.248319 
L 561.005098 116.917035 
L 565.745964 116.610009 
L 570.486831 116.325467 
L 575.227698 116.061762 
L 579.968564 115.817368 
L 584.709431 115.590871 
L 589.450297 115.380962 
L 594.191164 115.186425 
L 598.932031 115.006135 
L 603.672897 114.839049 
L 608.413764 114.684199 
L 613.15463 114.540691 
L 617.895497 114.407692 
L 622.636364 114.284433 
" style="fill:none;stroke:#8c564b;stroke-linecap:square;stroke-width:1.5;"/>
   </g>
   <g id="line2d_31">
    <path clip-path="url(#pd42cf50c68)" d="M 115.363636 605.290909 
L 120.104503 605.237598 
L 124.84537 605.104428 
L 129.586236 604.911702 
L 134.327103 604.66428 
L 139.067969 604.358938 
L 143.808836 603.987606 
L 148.549703 603.538682 
L 153.290569 602.99742 
L 158.031436 602.345847 
L 162.772302 601.562451 
L 167.513169 600.621726 
L 172.254036 599.493632 
L 176.994902 598.143035 
L 181.735769 596.529132 
L 186.476636 594.604954 
L 191.217502 592.316995 
L 195.958369 589.605072 
L 200.699235 586.402551 
L 205.440102 582.637074 
L 210.180969 578.231951 
L 214.921835 573.108397 
L 219.662702 567.1887 
L 224.403568 560.400376 
L 229.144435 552.681202 
L 233.885302 543.984812 
L 238.626168 534.286366 
L 243.367035 523.587581 
L 248.107901 511.920342 
L 252.848768 499.348155 
L 257.589635 485.964964 
L 262.330501 471.89125 
L 267.071368 457.267787 
L 271.812234 442.247852 
L 276.553101 426.988896 
L 281.293968 411.644695 
L 286.034834 396.358764 
L 290.775701 381.259545 
L 295.516568 366.457456 
L 300.257434 352.043688 
L 304.998301 338.090394 
L 309.739167 324.651895 
L 314.480034 311.766511 
L 319.220901 299.458691 
L 323.961767 287.741226 
L 328.702634 276.617346 
L 333.4435 266.082646 
L 338.184367 256.126763 
L 342.925234 246.734813 
L 347.6661 237.888587 
L 352.406967 229.567535 
L 357.147833 221.749558 
L 361.8887 214.41164 
L 366.629567 207.530347 
L 371.370433 201.082208 
L 376.1113 195.044016 
L 380.852167 189.393044 
L 385.593033 184.107212 
L 390.3339 179.165198 
L 395.074766 174.546524 
L 399.815633 170.231598 
L 404.5565 166.201747 
L 409.297366 162.439224 
L 414.038233 158.927204 
L 418.779099 155.64977 
L 423.519966 152.591892 
L 428.260833 149.739401 
L 433.001699 147.078955 
L 437.742566 144.598007 
L 442.483432 142.284771 
L 447.224299 140.128183 
L 451.965166 138.117868 
L 456.706032 136.244104 
L 461.446899 134.497782 
L 466.187766 132.870378 
L 470.928632 131.353917 
L 475.669499 129.940938 
L 480.410365 128.624471 
L 485.151232 127.397998 
L 489.892099 126.255433 
L 494.632965 125.191091 
L 499.373832 124.199665 
L 504.114698 123.2762 
L 508.855565 122.416074 
L 513.596432 121.614971 
L 518.337298 120.868868 
L 523.078165 120.174011 
L 527.819031 119.5269 
L 532.559898 118.924269 
L 537.300765 118.363077 
L 542.041631 117.840486 
L 546.782498 117.353852 
L 551.523364 116.900709 
L 556.264231 116.47876 
L 561.005098 116.085866 
L 565.745964 115.720031 
L 570.486831 115.379396 
L 575.227698 115.062231 
L 579.968564 114.766921 
L 584.709431 114.491965 
L 589.450297 114.235962 
L 594.191164 113.997608 
L 598.932031 113.775688 
L 603.672897 113.569072 
L 608.413764 113.376705 
L 613.15463 113.197606 
L 617.895497 113.030861 
L 622.636364 112.875619 
" style="fill:none;stroke:#e377c2;stroke-linecap:square;stroke-width:1.5;"/>
   </g>
   <g id="line2d_32">
    <path clip-path="url(#pd42cf50c68)" d="M 115.363636 605.290909 
L 120.104503 605.226691 
L 124.84537 605.038906 
L 129.586236 604.731127 
L 134.327103 604.302561 
L 139.067969 603.748634 
L 143.808836 603.061382 
L 148.549703 602.229712 
L 153.290569 601.239548 
L 158.031436 600.073906 
L 162.772302 598.712909 
L 167.513169 597.133781 
L 172.254036 595.310817 
L 176.994902 593.215373 
L 181.735769 590.815887 
L 186.476636 588.077963 
L 191.217502 584.964541 
L 195.958369 581.436188 
L 200.699235 577.451539 
L 205.440102 572.967923 
L 210.180969 567.942208 
L 214.921835 562.331878 
L 219.662702 556.096369 
L 224.403568 549.198647 
L 229.144435 541.607008 
L 233.885302 533.297042 
L 238.626168 524.253674 
L 243.367035 514.473144 
L 248.107901 503.964793 
L 252.848768 492.752472 
L 257.589635 480.875393 
L 262.330501 468.388291 
L 267.071368 455.360772 
L 271.812234 441.875818 
L 276.553101 428.027491 
L 281.293968 413.917976 
L 286.034834 399.654151 
L 290.775701 385.343964 
L 295.516568 371.092867 
L 300.257434 357.000579 
L 304.998301 343.158372 
L 309.739167 329.647024 
L 314.480034 316.535492 
L 319.220901 303.880287 
L 323.961767 291.725488 
L 328.702634 280.103268 
L 333.4435 269.034818 
L 338.184367 258.531519 
L 342.925234 248.596261 
L 347.6661 239.224791 
L 352.406967 230.407028 
L 357.147833 222.128286 
L 361.8887 214.370373 
L 366.629567 207.112547 
L 371.370433 200.332336 
L 376.1113 194.006216 
L 380.852167 188.11016 
L 385.593033 182.620081 
L 390.3339 177.512173 
L 395.074766 172.763172 
L 399.815633 168.350548 
L 404.5565 164.252638 
L 409.297366 160.44874 
L 414.038233 156.919163 
L 418.779099 153.645259 
L 423.519966 150.609423 
L 428.260833 147.795085 
L 433.001699 145.186684 
L 437.742566 142.769639 
L 442.483432 140.530307 
L 447.224299 138.455945 
L 451.965166 136.534663 
L 456.706032 134.755379 
L 461.446899 133.107776 
L 466.187766 131.582252 
L 470.928632 130.169881 
L 475.669499 128.862367 
L 480.410365 127.652008 
L 485.151232 126.531649 
L 489.892099 125.494654 
L 494.632965 124.534866 
L 499.373832 123.646573 
L 504.114698 122.824482 
L 508.855565 122.063684 
L 513.596432 121.359631 
L 518.337298 120.708109 
L 523.078165 120.105212 
L 527.819031 119.547324 
L 532.559898 119.031095 
L 537.300765 118.553422 
L 542.041631 118.111433 
L 546.782498 117.702467 
L 551.523364 117.324062 
L 556.264231 116.973937 
L 561.005098 116.649983 
L 565.745964 116.350245 
L 570.486831 116.072914 
L 575.227698 115.816318 
L 579.968564 115.578907 
L 584.709431 115.359248 
L 589.450297 115.156013 
L 594.191164 114.967975 
L 598.932031 114.793998 
L 603.672897 114.63303 
L 608.413764 114.484099 
L 613.15463 114.346303 
L 617.895497 114.218811 
L 622.636364 114.100851 
" style="fill:none;stroke:#7f7f7f;stroke-linecap:square;stroke-width:1.5;"/>
   </g>
   <g id="line2d_33">
    <path clip-path="url(#pd42cf50c68)" d="M 115.363636 605.290909 
L 120.104503 605.230566 
L 124.84537 605.054701 
L 129.586236 604.76614 
L 134.327103 604.362343 
L 139.067969 603.836449 
L 143.808836 603.177954 
L 148.549703 602.373124 
L 153.290569 601.405219 
L 158.031436 600.254606 
L 162.772302 598.898793 
L 167.513169 597.312427 
L 172.254036 595.467279 
L 176.994902 593.332266 
L 181.735769 590.873509 
L 186.476636 588.054492 
L 191.217502 584.83633 
L 195.958369 581.178186 
L 200.699235 577.037875 
L 205.440102 572.372683 
L 210.180969 567.140415 
L 214.921835 561.300698 
L 219.662702 554.816521 
L 224.403568 547.655982 
L 229.144435 539.794189 
L 233.885302 531.21521 
L 238.626168 521.913959 
L 243.367035 511.89786 
L 248.107901 501.188119 
L 252.848768 489.820466 
L 257.589635 477.845203 
L 262.330501 465.326508 
L 267.071368 452.34095 
L 271.812234 438.975313 
L 276.553101 425.323835 
L 281.293968 411.485092 
L 286.034834 397.558744 
L 290.775701 383.642387 
L 295.516568 369.828734 
L 300.257434 356.203269 
L 304.998301 342.842481 
L 309.739167 329.812721 
L 314.480034 317.169636 
L 319.220901 304.958131 
L 323.961767 293.212751 
L 328.702634 281.958383 
L 333.4435 271.21117 
L 338.184367 260.979547 
L 342.925234 251.265314 
L 347.6661 242.064705 
L 352.406967 233.369382 
L 357.147833 225.167358 
L 361.8887 217.443814 
L 366.629567 210.181812 
L 371.370433 203.362905 
L 376.1113 196.967653 
L 380.852167 190.976043 
L 385.593033 185.367843 
L 390.3339 180.122873 
L 395.074766 175.221225 
L 399.815633 170.643435 
L 404.5565 166.370607 
L 409.297366 162.384509 
L 414.038233 158.667634 
L 418.779099 155.203245 
L 423.519966 151.975399 
L 428.260833 148.968951 
L 433.001699 146.169558 
L 437.742566 143.563663 
L 442.483432 141.13848 
L 447.224299 138.881969 
L 451.965166 136.78281 
L 456.706032 134.830375 
L 461.446899 133.014695 
L 466.187766 131.326431 
L 470.928632 129.756843 
L 475.669499 128.297753 
L 480.410365 126.94152 
L 485.151232 125.681008 
L 489.892099 124.509553 
L 494.632965 123.42094 
L 499.373832 122.409373 
L 504.114698 121.469447 
L 508.855565 120.596128 
L 513.596432 119.784725 
L 518.337298 119.030871 
L 523.078165 118.3305 
L 527.819031 117.679828 
L 532.559898 117.075334 
L 537.300765 116.513742 
L 542.041631 115.992005 
L 546.782498 115.507289 
L 551.523364 115.056961 
L 556.264231 114.638572 
L 561.005098 114.249844 
L 565.745964 113.888662 
L 570.486831 113.55306 
L 575.227698 113.24121 
L 579.968564 112.951415 
L 584.709431 112.682098 
L 589.450297 112.431794 
L 594.191164 112.199141 
L 598.932031 111.982877 
L 603.672897 111.781826 
L 608.413764 111.594899 
L 613.15463 111.421083 
L 617.895497 111.259438 
L 622.636364 111.109091 
" style="fill:none;stroke:#bcbd22;stroke-linecap:square;stroke-width:1.5;"/>
   </g>
   <g id="line2d_34">
    <path clip-path="url(#pd42cf50c68)" d="M 115.363636 605.290909 
L 120.104503 605.252147 
L 124.84537 605.00019 
L 129.586236 604.825759 
L 134.327103 604.825759 
L 139.067969 603.914841 
L 143.808836 603.158973 
L 148.549703 603.158973 
L 153.290569 602.383723 
L 158.031436 601.337136 
L 162.772302 599.99983 
L 167.513169 594.863802 
L 172.254036 592.421765 
L 176.994902 590.444879 
L 181.735769 588.099749 
L 186.476636 583.855257 
L 191.217502 579.901484 
L 195.958369 575.346892 
L 200.699235 570.404676 
L 205.440102 564.551541 
L 210.180969 558.853456 
L 214.921835 554.977208 
L 219.662702 549.259742 
L 224.403568 542.960839 
L 229.144435 538.852016 
L 233.885302 531.060757 
L 238.626168 522.843111 
L 243.367035 516.42792 
L 248.107901 508.869236 
L 252.848768 501.698177 
L 257.589635 495.011649 
L 262.330501 487.937496 
L 267.071368 478.246876 
L 271.812234 448.884296 
L 276.553101 432.623435 
L 281.293968 418.533273 
L 286.034834 399.307082 
L 290.775701 383.18189 
L 295.516568 362.482725 
L 300.257434 348.450706 
L 304.998301 334.709407 
L 309.739167 319.630801 
L 314.480034 310.07585 
L 319.220901 302.303972 
L 323.961767 294.784051 
L 328.702634 282.554488 
L 333.4435 264.413646 
L 338.184367 253.23067 
L 342.925234 245.923943 
L 347.6661 232.337693 
L 352.406967 224.856534 
L 357.147833 220.41823 
L 361.8887 213.130883 
L 366.629567 206.173018 
L 371.370433 201.889764 
L 376.1113 195.241998 
L 380.852167 188.846189 
L 385.593033 183.690778 
L 390.3339 179.601337 
L 395.074766 174.465308 
L 399.815633 171.810078 
L 404.5565 168.786604 
L 409.297366 164.542113 
L 414.038233 159.96814 
L 418.779099 157.274147 
L 423.519966 155.200355 
L 428.260833 152.118737 
L 433.001699 143.862329 
L 437.742566 141.362149 
L 442.483432 139.579074 
L 447.224299 138.338675 
L 451.965166 136.633126 
L 456.706032 135.644683 
L 461.446899 134.404283 
L 466.187766 132.931309 
L 470.928632 130.702466 
L 475.669499 129.229492 
L 480.410365 128.124761 
L 485.151232 126.981268 
L 489.892099 126.264162 
L 494.632965 124.946238 
L 499.373832 124.209751 
L 504.114698 123.531407 
L 508.855565 122.504201 
L 513.596432 121.321946 
L 518.337298 119.926496 
L 523.078165 119.848971 
L 527.819031 118.976816 
L 532.559898 118.375997 
L 537.300765 117.968991 
L 542.041631 117.581366 
L 546.782498 117.232504 
L 551.523364 117.116216 
L 556.264231 116.961166 
L 561.005098 116.651067 
L 565.745964 116.515398 
L 570.486831 116.282823 
L 575.227698 115.410667 
L 579.968564 115.255617 
L 584.709431 114.906755 
L 589.450297 114.654799 
L 594.191164 114.51913 
L 598.932031 114.247793 
L 603.672897 113.995837 
L 608.413764 113.879549 
L 613.15463 113.782643 
L 617.895497 113.705118 
L 622.636364 113.550068 
" style="fill:none;stroke:#17becf;stroke-dasharray:14.8,6.4;stroke-dashoffset:0;stroke-width:4;"/>
   </g>
   <g id="patch_3">
    <path d="M 90 630 
L 90 86.4 
" style="fill:none;stroke:#000000;stroke-linecap:square;stroke-linejoin:miter;stroke-width:0.8;"/>
   </g>
   <g id="patch_4">
    <path d="M 648 630 
L 648 86.4 
" style="fill:none;stroke:#000000;stroke-linecap:square;stroke-linejoin:miter;stroke-width:0.8;"/>
   </g>
   <g id="patch_5">
    <path d="M 90 630 
L 648 630 
" style="fill:none;stroke:#000000;stroke-linecap:square;stroke-linejoin:miter;stroke-width:0.8;"/>
   </g>
   <g id="patch_6">
    <path d="M 90 86.4 
L 648 86.4 
" style="fill:none;stroke:#000000;stroke-linecap:square;stroke-linejoin:miter;stroke-width:0.8;"/>
   </g>
   <g id="text_15">
    <!-- Ireland relative err =  -->
    <g transform="translate(304.446563 80.4)scale(0.12 -0.12)">
     <defs>
      <path d="M 9.8125 72.90625 
L 19.671875 72.90625 
L 19.671875 0 
L 9.8125 0 
z
" id="DejaVuSans-73"/>
      <path d="M 41.109375 46.296875 
Q 39.59375 47.171875 37.8125 47.578125 
Q 36.03125 48 33.890625 48 
Q 26.265625 48 22.1875 43.046875 
Q 18.109375 38.09375 18.109375 28.8125 
L 18.109375 0 
L 9.078125 0 
L 9.078125 54.6875 
L 18.109375 54.6875 
L 18.109375 46.1875 
Q 20.953125 51.171875 25.484375 53.578125 
Q 30.03125 56 36.53125 56 
Q 37.453125 56 38.578125 55.875 
Q 39.703125 55.765625 41.0625 55.515625 
z
" id="DejaVuSans-114"/>
      <path d="M 54.890625 33.015625 
L 54.890625 0 
L 45.90625 0 
L 45.90625 32.71875 
Q 45.90625 40.484375 42.875 44.328125 
Q 39.84375 48.1875 33.796875 48.1875 
Q 26.515625 48.1875 22.3125 43.546875 
Q 18.109375 38.921875 18.109375 30.90625 
L 18.109375 0 
L 9.078125 0 
L 9.078125 54.6875 
L 18.109375 54.6875 
L 18.109375 46.1875 
Q 21.34375 51.125 25.703125 53.5625 
Q 30.078125 56 35.796875 56 
Q 45.21875 56 50.046875 50.171875 
Q 54.890625 44.34375 54.890625 33.015625 
z
" id="DejaVuSans-110"/>
      <path d="M 45.40625 46.390625 
L 45.40625 75.984375 
L 54.390625 75.984375 
L 54.390625 0 
L 45.40625 0 
L 45.40625 8.203125 
Q 42.578125 3.328125 38.25 0.953125 
Q 33.9375 -1.421875 27.875 -1.421875 
Q 17.96875 -1.421875 11.734375 6.484375 
Q 5.515625 14.40625 5.515625 27.296875 
Q 5.515625 40.1875 11.734375 48.09375 
Q 17.96875 56 27.875 56 
Q 33.9375 56 38.25 53.625 
Q 42.578125 51.265625 45.40625 46.390625 
z
M 14.796875 27.296875 
Q 14.796875 17.390625 18.875 11.75 
Q 22.953125 6.109375 30.078125 6.109375 
Q 37.203125 6.109375 41.296875 11.75 
Q 45.40625 17.390625 45.40625 27.296875 
Q 45.40625 37.203125 41.296875 42.84375 
Q 37.203125 48.484375 30.078125 48.484375 
Q 22.953125 48.484375 18.875 42.84375 
Q 14.796875 37.203125 14.796875 27.296875 
z
" id="DejaVuSans-100"/>
      <path d="M 10.59375 45.40625 
L 73.1875 45.40625 
L 73.1875 37.203125 
L 10.59375 37.203125 
z
M 10.59375 25.484375 
L 73.1875 25.484375 
L 73.1875 17.1875 
L 10.59375 17.1875 
z
" id="DejaVuSans-61"/>
     </defs>
     <use xlink:href="#DejaVuSans-73"/>
     <use x="29.492188" xlink:href="#DejaVuSans-114"/>
     <use x="68.355469" xlink:href="#DejaVuSans-101"/>
     <use x="129.878906" xlink:href="#DejaVuSans-108"/>
     <use x="157.662109" xlink:href="#DejaVuSans-97"/>
     <use x="218.941406" xlink:href="#DejaVuSans-110"/>
     <use x="282.320312" xlink:href="#DejaVuSans-100"/>
     <use x="345.796875" xlink:href="#DejaVuSans-32"/>
     <use x="377.583984" xlink:href="#DejaVuSans-114"/>
     <use x="416.447266" xlink:href="#DejaVuSans-101"/>
     <use x="477.970703" xlink:href="#DejaVuSans-108"/>
     <use x="505.753906" xlink:href="#DejaVuSans-97"/>
     <use x="567.033203" xlink:href="#DejaVuSans-116"/>
     <use x="606.242188" xlink:href="#DejaVuSans-105"/>
     <use x="634.025391" xlink:href="#DejaVuSans-118"/>
     <use x="693.205078" xlink:href="#DejaVuSans-101"/>
     <use x="754.728516" xlink:href="#DejaVuSans-32"/>
     <use x="786.515625" xlink:href="#DejaVuSans-101"/>
     <use x="848.039062" xlink:href="#DejaVuSans-114"/>
     <use x="887.402344" xlink:href="#DejaVuSans-114"/>
     <use x="928.515625" xlink:href="#DejaVuSans-32"/>
     <use x="960.302734" xlink:href="#DejaVuSans-61"/>
     <use x="1044.091797" xlink:href="#DejaVuSans-32"/>
    </g>
   </g>
   <g id="legend_1">
    <g id="patch_7">
     <path d="M 97 226.503125 
L 185.6 226.503125 
Q 187.6 226.503125 187.6 224.503125 
L 187.6 93.4 
Q 187.6 91.4 185.6 91.4 
L 97 91.4 
Q 95 91.4 95 93.4 
L 95 224.503125 
Q 95 226.503125 97 226.503125 
z
" style="fill:#ffffff;opacity:0.8;stroke:#cccccc;stroke-linejoin:miter;"/>
    </g>
    <g id="line2d_35">
     <path d="M 99 99.498438 
L 119 99.498438 
" style="fill:none;stroke:#1f77b4;stroke-linecap:square;stroke-width:1.5;"/>
    </g>
    <g id="line2d_36"/>
    <g id="text_16">
     <!-- SI -->
     <g transform="translate(127 102.998438)scale(0.1 -0.1)">
      <defs>
       <path d="M 53.515625 70.515625 
L 53.515625 60.890625 
Q 47.90625 63.578125 42.921875 64.890625 
Q 37.9375 66.21875 33.296875 66.21875 
Q 25.25 66.21875 20.875 63.09375 
Q 16.5 59.96875 16.5 54.203125 
Q 16.5 49.359375 19.40625 46.890625 
Q 22.3125 44.4375 30.421875 42.921875 
L 36.375 41.703125 
Q 47.40625 39.59375 52.65625 34.296875 
Q 57.90625 29 57.90625 20.125 
Q 57.90625 9.515625 50.796875 4.046875 
Q 43.703125 -1.421875 29.984375 -1.421875 
Q 24.8125 -1.421875 18.96875 -0.25 
Q 13.140625 0.921875 6.890625 3.21875 
L 6.890625 13.375 
Q 12.890625 10.015625 18.65625 8.296875 
Q 24.421875 6.59375 29.984375 6.59375 
Q 38.421875 6.59375 43.015625 9.90625 
Q 47.609375 13.234375 47.609375 19.390625 
Q 47.609375 24.75 44.3125 27.78125 
Q 41.015625 30.8125 33.5 32.328125 
L 27.484375 33.5 
Q 16.453125 35.6875 11.515625 40.375 
Q 6.59375 45.0625 6.59375 53.421875 
Q 6.59375 63.09375 13.40625 68.65625 
Q 20.21875 74.21875 32.171875 74.21875 
Q 37.3125 74.21875 42.625 73.28125 
Q 47.953125 72.359375 53.515625 70.515625 
z
" id="DejaVuSans-83"/>
      </defs>
      <use xlink:href="#DejaVuSans-83"/>
      <use x="63.476562" xlink:href="#DejaVuSans-73"/>
     </g>
    </g>
    <g id="line2d_37">
     <path d="M 99 114.176563 
L 119 114.176563 
" style="fill:none;stroke:#ff7f0e;stroke-linecap:square;stroke-width:1.5;"/>
    </g>
    <g id="line2d_38"/>
    <g id="text_17">
     <!-- BD -->
     <g transform="translate(127 117.676563)scale(0.1 -0.1)">
      <defs>
       <path d="M 19.671875 34.8125 
L 19.671875 8.109375 
L 35.5 8.109375 
Q 43.453125 8.109375 47.28125 11.40625 
Q 51.125 14.703125 51.125 21.484375 
Q 51.125 28.328125 47.28125 31.5625 
Q 43.453125 34.8125 35.5 34.8125 
z
M 19.671875 64.796875 
L 19.671875 42.828125 
L 34.28125 42.828125 
Q 41.5 42.828125 45.03125 45.53125 
Q 48.578125 48.25 48.578125 53.8125 
Q 48.578125 59.328125 45.03125 62.0625 
Q 41.5 64.796875 34.28125 64.796875 
z
M 9.8125 72.90625 
L 35.015625 72.90625 
Q 46.296875 72.90625 52.390625 68.21875 
Q 58.5 63.53125 58.5 54.890625 
Q 58.5 48.1875 55.375 44.234375 
Q 52.25 40.28125 46.1875 39.3125 
Q 53.46875 37.75 57.5 32.78125 
Q 61.53125 27.828125 61.53125 20.40625 
Q 61.53125 10.640625 54.890625 5.3125 
Q 48.25 0 35.984375 0 
L 9.8125 0 
z
" id="DejaVuSans-66"/>
      </defs>
      <use xlink:href="#DejaVuSans-66"/>
      <use x="68.603516" xlink:href="#DejaVuSans-68"/>
     </g>
    </g>
    <g id="line2d_39">
     <path d="M 99 128.854688 
L 119 128.854688 
" style="fill:none;stroke:#2ca02c;stroke-linecap:square;stroke-width:1.5;"/>
    </g>
    <g id="line2d_40"/>
    <g id="text_18">
     <!-- SIR -->
     <g transform="translate(127 132.354688)scale(0.1 -0.1)">
      <defs>
       <path d="M 44.390625 34.1875 
Q 47.5625 33.109375 50.5625 29.59375 
Q 53.5625 26.078125 56.59375 19.921875 
L 66.609375 0 
L 56 0 
L 46.6875 18.703125 
Q 43.0625 26.03125 39.671875 28.421875 
Q 36.28125 30.8125 30.421875 30.8125 
L 19.671875 30.8125 
L 19.671875 0 
L 9.8125 0 
L 9.8125 72.90625 
L 32.078125 72.90625 
Q 44.578125 72.90625 50.734375 67.671875 
Q 56.890625 62.453125 56.890625 51.90625 
Q 56.890625 45.015625 53.6875 40.46875 
Q 50.484375 35.9375 44.390625 34.1875 
z
M 19.671875 64.796875 
L 19.671875 38.921875 
L 32.078125 38.921875 
Q 39.203125 38.921875 42.84375 42.21875 
Q 46.484375 45.515625 46.484375 51.90625 
Q 46.484375 58.296875 42.84375 61.546875 
Q 39.203125 64.796875 32.078125 64.796875 
z
" id="DejaVuSans-82"/>
      </defs>
      <use xlink:href="#DejaVuSans-83"/>
      <use x="63.476562" xlink:href="#DejaVuSans-73"/>
      <use x="92.96875" xlink:href="#DejaVuSans-82"/>
     </g>
    </g>
    <g id="line2d_41">
     <path d="M 99 143.532812 
L 119 143.532812 
" style="fill:none;stroke:#d62728;stroke-linecap:square;stroke-width:1.5;"/>
    </g>
    <g id="line2d_42"/>
    <g id="text_19">
     <!-- eSIR -->
     <g transform="translate(127 147.032812)scale(0.1 -0.1)">
      <use xlink:href="#DejaVuSans-101"/>
      <use x="61.523438" xlink:href="#DejaVuSans-83"/>
      <use x="125" xlink:href="#DejaVuSans-73"/>
      <use x="154.492188" xlink:href="#DejaVuSans-82"/>
     </g>
    </g>
    <g id="line2d_43">
     <path d="M 99 158.210938 
L 119 158.210938 
" style="fill:none;stroke:#9467bd;stroke-linecap:square;stroke-width:1.5;"/>
    </g>
    <g id="line2d_44"/>
    <g id="text_20">
     <!-- SEIR -->
     <g transform="translate(127 161.710938)scale(0.1 -0.1)">
      <defs>
       <path d="M 9.8125 72.90625 
L 55.90625 72.90625 
L 55.90625 64.59375 
L 19.671875 64.59375 
L 19.671875 43.015625 
L 54.390625 43.015625 
L 54.390625 34.71875 
L 19.671875 34.71875 
L 19.671875 8.296875 
L 56.78125 8.296875 
L 56.78125 0 
L 9.8125 0 
z
" id="DejaVuSans-69"/>
      </defs>
      <use xlink:href="#DejaVuSans-83"/>
      <use x="63.476562" xlink:href="#DejaVuSans-69"/>
      <use x="126.660156" xlink:href="#DejaVuSans-73"/>
      <use x="156.152344" xlink:href="#DejaVuSans-82"/>
     </g>
    </g>
    <g id="line2d_45">
     <path d="M 99 172.889063 
L 119 172.889063 
" style="fill:none;stroke:#8c564b;stroke-linecap:square;stroke-width:1.5;"/>
    </g>
    <g id="line2d_46"/>
    <g id="text_21">
     <!-- eSEIR -->
     <g transform="translate(127 176.389063)scale(0.1 -0.1)">
      <use xlink:href="#DejaVuSans-101"/>
      <use x="61.523438" xlink:href="#DejaVuSans-83"/>
      <use x="125" xlink:href="#DejaVuSans-69"/>
      <use x="188.183594" xlink:href="#DejaVuSans-73"/>
      <use x="217.675781" xlink:href="#DejaVuSans-82"/>
     </g>
    </g>
    <g id="line2d_47">
     <path d="M 99 187.567188 
L 119 187.567188 
" style="fill:none;stroke:#e377c2;stroke-linecap:square;stroke-width:1.5;"/>
    </g>
    <g id="line2d_48"/>
    <g id="text_22">
     <!-- SEIUR -->
     <g transform="translate(127 191.067188)scale(0.1 -0.1)">
      <defs>
       <path d="M 8.6875 72.90625 
L 18.609375 72.90625 
L 18.609375 28.609375 
Q 18.609375 16.890625 22.84375 11.734375 
Q 27.09375 6.59375 36.625 6.59375 
Q 46.09375 6.59375 50.34375 11.734375 
Q 54.59375 16.890625 54.59375 28.609375 
L 54.59375 72.90625 
L 64.5 72.90625 
L 64.5 27.390625 
Q 64.5 13.140625 57.4375 5.859375 
Q 50.390625 -1.421875 36.625 -1.421875 
Q 22.796875 -1.421875 15.734375 5.859375 
Q 8.6875 13.140625 8.6875 27.390625 
z
" id="DejaVuSans-85"/>
      </defs>
      <use xlink:href="#DejaVuSans-83"/>
      <use x="63.476562" xlink:href="#DejaVuSans-69"/>
      <use x="126.660156" xlink:href="#DejaVuSans-73"/>
      <use x="156.152344" xlink:href="#DejaVuSans-85"/>
      <use x="229.345703" xlink:href="#DejaVuSans-82"/>
     </g>
    </g>
    <g id="line2d_49">
     <path d="M 99 202.245312 
L 119 202.245312 
" style="fill:none;stroke:#7f7f7f;stroke-linecap:square;stroke-width:1.5;"/>
    </g>
    <g id="line2d_50"/>
    <g id="text_23">
     <!-- eSEIUR -->
     <g transform="translate(127 205.745312)scale(0.1 -0.1)">
      <use xlink:href="#DejaVuSans-101"/>
      <use x="61.523438" xlink:href="#DejaVuSans-83"/>
      <use x="125" xlink:href="#DejaVuSans-69"/>
      <use x="188.183594" xlink:href="#DejaVuSans-73"/>
      <use x="217.675781" xlink:href="#DejaVuSans-85"/>
      <use x="290.869141" xlink:href="#DejaVuSans-82"/>
     </g>
    </g>
    <g id="line2d_51">
     <path d="M 99 216.923437 
L 119 216.923437 
" style="fill:none;stroke:#bcbd22;stroke-linecap:square;stroke-width:1.5;"/>
    </g>
    <g id="line2d_52"/>
    <g id="text_24">
     <!-- eSEIUR$^{range}$ -->
     <g transform="translate(127 220.423437)scale(0.1 -0.1)">
      <defs>
       <path d="M 44.578125 46.390625 
Q 43.21875 47.125 41.453125 47.515625 
Q 39.703125 47.90625 37.703125 47.90625 
Q 30.515625 47.90625 25.140625 42.453125 
Q 19.78125 37.015625 18.015625 27.875 
L 12.5 0 
L 3.515625 0 
L 14.203125 54.6875 
L 23.1875 54.6875 
L 21.484375 46.1875 
Q 25.046875 50.921875 30 53.453125 
Q 34.96875 56 40.578125 56 
Q 42.046875 56 43.453125 55.828125 
Q 44.875 55.671875 46.296875 55.28125 
z
" id="DejaVuSans-Oblique-114"/>
       <path d="M 53.71875 31.203125 
L 47.609375 0 
L 38.625 0 
L 40.28125 8.296875 
Q 36.328125 3.421875 31.265625 1 
Q 26.21875 -1.421875 20.015625 -1.421875 
Q 13.03125 -1.421875 8.5625 2.84375 
Q 4.109375 7.125 4.109375 13.8125 
Q 4.109375 23.390625 11.75 28.953125 
Q 19.390625 34.515625 32.8125 34.515625 
L 45.3125 34.515625 
L 45.796875 36.921875 
Q 45.90625 37.3125 45.953125 37.765625 
Q 46 38.234375 46 39.203125 
Q 46 43.5625 42.453125 45.96875 
Q 38.921875 48.390625 32.515625 48.390625 
Q 28.125 48.390625 23.5 47.265625 
Q 18.890625 46.140625 14.015625 43.890625 
L 15.578125 52.203125 
Q 20.65625 54.109375 25.515625 55.046875 
Q 30.375 56 34.90625 56 
Q 44.578125 56 49.625 51.796875 
Q 54.6875 47.609375 54.6875 39.59375 
Q 54.6875 37.984375 54.4375 35.8125 
Q 54.203125 33.640625 53.71875 31.203125 
z
M 44 27.484375 
L 35.015625 27.484375 
Q 23.96875 27.484375 18.671875 24.53125 
Q 13.375 21.578125 13.375 15.375 
Q 13.375 11.078125 16.078125 8.640625 
Q 18.796875 6.203125 23.578125 6.203125 
Q 30.90625 6.203125 36.375 11.453125 
Q 41.84375 16.703125 43.609375 25.484375 
z
" id="DejaVuSans-Oblique-97"/>
       <path d="M 55.71875 33.015625 
L 49.3125 0 
L 40.28125 0 
L 46.6875 32.671875 
Q 47.125 34.96875 47.359375 36.71875 
Q 47.609375 38.484375 47.609375 39.5 
Q 47.609375 43.609375 45.015625 45.890625 
Q 42.4375 48.1875 37.796875 48.1875 
Q 30.5625 48.1875 25.34375 43.375 
Q 20.125 38.578125 18.5 30.328125 
L 12.5 0 
L 3.515625 0 
L 14.109375 54.6875 
L 23.09375 54.6875 
L 21.296875 46.09375 
Q 25.046875 50.828125 30.3125 53.40625 
Q 35.59375 56 41.40625 56 
Q 48.640625 56 52.609375 52.09375 
Q 56.59375 48.1875 56.59375 41.109375 
Q 56.59375 39.359375 56.375 37.359375 
Q 56.15625 35.359375 55.71875 33.015625 
z
" id="DejaVuSans-Oblique-110"/>
       <path d="M 59.625 54.6875 
L 50.296875 6.78125 
Q 47.609375 -7.125 40.015625 -13.953125 
Q 32.421875 -20.796875 19.578125 -20.796875 
Q 14.84375 -20.796875 10.78125 -20.09375 
Q 6.734375 -19.390625 3.21875 -17.921875 
L 4.890625 -9.1875 
Q 8.203125 -11.328125 11.90625 -12.34375 
Q 15.625 -13.375 19.828125 -13.375 
Q 28.375 -13.375 33.859375 -8.703125 
Q 39.359375 -4.046875 41.109375 4.6875 
L 41.890625 8.796875 
Q 38.140625 4.5 33.15625 2.25 
Q 28.171875 0 22.40625 0 
Q 14.109375 0 9.34375 5.484375 
Q 4.59375 10.984375 4.59375 20.609375 
Q 4.59375 28.171875 7.46875 35.421875 
Q 10.359375 42.671875 15.578125 48.296875 
Q 19.046875 52 23.65625 54 
Q 28.265625 56 33.296875 56 
Q 38.8125 56 42.90625 53.4375 
Q 47.015625 50.875 49.03125 46.1875 
L 50.59375 54.6875 
z
M 46.09375 34.625 
Q 46.09375 41.265625 42.96875 44.875 
Q 39.84375 48.484375 34.078125 48.484375 
Q 30.515625 48.484375 27.296875 47.0625 
Q 24.078125 45.65625 21.78125 43.109375 
Q 18.0625 38.921875 15.984375 33.234375 
Q 13.921875 27.546875 13.921875 21.484375 
Q 13.921875 14.75 17.0625 11.125 
Q 20.21875 7.515625 26.125 7.515625 
Q 34.671875 7.515625 40.375 15.25 
Q 46.09375 23 46.09375 34.625 
z
" id="DejaVuSans-Oblique-103"/>
       <path d="M 48.09375 32.234375 
Q 48.25 33.015625 48.3125 33.84375 
Q 48.390625 34.671875 48.390625 35.5 
Q 48.390625 41.453125 44.890625 44.921875 
Q 41.40625 48.390625 35.40625 48.390625 
Q 28.71875 48.390625 23.578125 44.15625 
Q 18.453125 39.9375 15.828125 32.171875 
z
M 55.90625 25.203125 
L 14.109375 25.203125 
Q 13.8125 23.34375 13.71875 22.265625 
Q 13.625 21.1875 13.625 20.40625 
Q 13.625 13.625 17.796875 9.90625 
Q 21.96875 6.203125 29.59375 6.203125 
Q 35.453125 6.203125 40.671875 7.515625 
Q 45.90625 8.84375 50.390625 11.375 
L 48.6875 2.484375 
Q 43.84375 0.53125 38.6875 -0.4375 
Q 33.546875 -1.421875 28.21875 -1.421875 
Q 16.84375 -1.421875 10.71875 4.015625 
Q 4.59375 9.46875 4.59375 19.484375 
Q 4.59375 28.03125 7.640625 35.375 
Q 10.6875 42.71875 16.609375 48.484375 
Q 20.40625 52.09375 25.65625 54.046875 
Q 30.90625 56 36.8125 56 
Q 46.09375 56 51.578125 50.4375 
Q 57.078125 44.875 57.078125 35.5 
Q 57.078125 33.25 56.78125 30.6875 
Q 56.5 28.125 55.90625 25.203125 
z
" id="DejaVuSans-Oblique-101"/>
      </defs>
      <use transform="translate(0 0.51875)" xlink:href="#DejaVuSans-101"/>
      <use transform="translate(61.523438 0.51875)" xlink:href="#DejaVuSans-83"/>
      <use transform="translate(125 0.51875)" xlink:href="#DejaVuSans-69"/>
      <use transform="translate(188.183594 0.51875)" xlink:href="#DejaVuSans-73"/>
      <use transform="translate(217.675781 0.51875)" xlink:href="#DejaVuSans-85"/>
      <use transform="translate(288.619141 0.51875)" xlink:href="#DejaVuSans-82"/>
      <use transform="translate(359.058594 38.8)scale(0.7)" xlink:href="#DejaVuSans-Oblique-114"/>
      <use transform="translate(387.837891 38.8)scale(0.7)" xlink:href="#DejaVuSans-Oblique-97"/>
      <use transform="translate(430.733398 38.8)scale(0.7)" xlink:href="#DejaVuSans-Oblique-110"/>
      <use transform="translate(475.098633 38.8)scale(0.7)" xlink:href="#DejaVuSans-Oblique-103"/>
      <use transform="translate(519.532227 38.8)scale(0.7)" xlink:href="#DejaVuSans-Oblique-101"/>
     </g>
    </g>
   </g>
  </g>
 </g>
 <defs>
  <clipPath id="pd42cf50c68">
   <rect height="543.6" width="558" x="90" y="86.4"/>
  </clipPath>
 </defs>
</svg>
