<?xml version="1.0" encoding="utf-8" standalone="no"?>
<!DOCTYPE svg PUBLIC "-//W3C//DTD SVG 1.1//EN"
  "http://www.w3.org/Graphics/SVG/1.1/DTD/svg11.dtd">
<!-- Created with matplotlib (https://matplotlib.org/) -->
<svg height="720pt" version="1.1" viewBox="0 0 720 720" width="720pt" xmlns="http://www.w3.org/2000/svg" xmlns:xlink="http://www.w3.org/1999/xlink">
 <metadata>
  <rdf:RDF xmlns:cc="http://creativecommons.org/ns#" xmlns:dc="http://purl.org/dc/elements/1.1/" xmlns:rdf="http://www.w3.org/1999/02/22-rdf-syntax-ns#">
   <cc:Work>
    <dc:type rdf:resource="http://purl.org/dc/dcmitype/StillImage"/>
    <dc:date>2022-10-11T20:58:37.077193</dc:date>
    <dc:format>image/svg+xml</dc:format>
    <dc:creator>
     <cc:Agent>
      <dc:title>Matplotlib v3.3.2, https://matplotlib.org/</dc:title>
     </cc:Agent>
    </dc:creator>
   </cc:Work>
  </rdf:RDF>
 </metadata>
 <defs>
  <style type="text/css">*{stroke-linecap:butt;stroke-linejoin:round;}</style>
 </defs>
 <g id="figure_1">
  <g id="patch_1">
   <path d="M 0 720 
L 720 720 
L 720 0 
L 0 0 
z
" style="fill:none;"/>
  </g>
  <g id="axes_1">
   <g id="patch_2">
    <path d="M 90 630 
L 648 630 
L 648 86.4 
L 90 86.4 
z
" style="fill:#ffffff;"/>
   </g>
   <g id="matplotlib.axis_1">
    <g id="xtick_1">
     <g id="line2d_1">
      <path clip-path="url(#pc4a13fe164)" d="M 115.363636 630 
L 115.363636 86.4 
" style="fill:none;stroke:#b0b0b0;stroke-linecap:square;stroke-width:0.8;"/>
     </g>
     <g id="line2d_2">
      <defs>
       <path d="M 0 0 
L 0 3.5 
" id="m83b8feefff" style="stroke:#000000;stroke-width:0.8;"/>
      </defs>
      <g>
       <use style="stroke:#000000;stroke-width:0.8;" x="115.363636" xlink:href="#m83b8feefff" y="630"/>
      </g>
     </g>
     <g id="text_1">
      <!-- 0 -->
      <g transform="translate(112.182386 644.598438)scale(0.1 -0.1)">
       <defs>
        <path d="M 31.78125 66.40625 
Q 24.171875 66.40625 20.328125 58.90625 
Q 16.5 51.421875 16.5 36.375 
Q 16.5 21.390625 20.328125 13.890625 
Q 24.171875 6.390625 31.78125 6.390625 
Q 39.453125 6.390625 43.28125 13.890625 
Q 47.125 21.390625 47.125 36.375 
Q 47.125 51.421875 43.28125 58.90625 
Q 39.453125 66.40625 31.78125 66.40625 
z
M 31.78125 74.21875 
Q 44.046875 74.21875 50.515625 64.515625 
Q 56.984375 54.828125 56.984375 36.375 
Q 56.984375 17.96875 50.515625 8.265625 
Q 44.046875 -1.421875 31.78125 -1.421875 
Q 19.53125 -1.421875 13.0625 8.265625 
Q 6.59375 17.96875 6.59375 36.375 
Q 6.59375 54.828125 13.0625 64.515625 
Q 19.53125 74.21875 31.78125 74.21875 
z
" id="DejaVuSans-48"/>
       </defs>
       <use xlink:href="#DejaVuSans-48"/>
      </g>
     </g>
    </g>
    <g id="xtick_2">
     <g id="line2d_3">
      <path clip-path="url(#pc4a13fe164)" d="M 185.043956 630 
L 185.043956 86.4 
" style="fill:none;stroke:#b0b0b0;stroke-linecap:square;stroke-width:0.8;"/>
     </g>
     <g id="line2d_4">
      <g>
       <use style="stroke:#000000;stroke-width:0.8;" x="185.043956" xlink:href="#m83b8feefff" y="630"/>
      </g>
     </g>
     <g id="text_2">
      <!-- 50 -->
      <g transform="translate(178.681456 644.598438)scale(0.1 -0.1)">
       <defs>
        <path d="M 10.796875 72.90625 
L 49.515625 72.90625 
L 49.515625 64.59375 
L 19.828125 64.59375 
L 19.828125 46.734375 
Q 21.96875 47.46875 24.109375 47.828125 
Q 26.265625 48.1875 28.421875 48.1875 
Q 40.625 48.1875 47.75 41.5 
Q 54.890625 34.8125 54.890625 23.390625 
Q 54.890625 11.625 47.5625 5.09375 
Q 40.234375 -1.421875 26.90625 -1.421875 
Q 22.3125 -1.421875 17.546875 -0.640625 
Q 12.796875 0.140625 7.71875 1.703125 
L 7.71875 11.625 
Q 12.109375 9.234375 16.796875 8.0625 
Q 21.484375 6.890625 26.703125 6.890625 
Q 35.15625 6.890625 40.078125 11.328125 
Q 45.015625 15.765625 45.015625 23.390625 
Q 45.015625 31 40.078125 35.4375 
Q 35.15625 39.890625 26.703125 39.890625 
Q 22.75 39.890625 18.8125 39.015625 
Q 14.890625 38.140625 10.796875 36.28125 
z
" id="DejaVuSans-53"/>
       </defs>
       <use xlink:href="#DejaVuSans-53"/>
       <use x="63.623047" xlink:href="#DejaVuSans-48"/>
      </g>
     </g>
    </g>
    <g id="xtick_3">
     <g id="line2d_5">
      <path clip-path="url(#pc4a13fe164)" d="M 254.724276 630 
L 254.724276 86.4 
" style="fill:none;stroke:#b0b0b0;stroke-linecap:square;stroke-width:0.8;"/>
     </g>
     <g id="line2d_6">
      <g>
       <use style="stroke:#000000;stroke-width:0.8;" x="254.724276" xlink:href="#m83b8feefff" y="630"/>
      </g>
     </g>
     <g id="text_3">
      <!-- 100 -->
      <g transform="translate(245.180526 644.598438)scale(0.1 -0.1)">
       <defs>
        <path d="M 12.40625 8.296875 
L 28.515625 8.296875 
L 28.515625 63.921875 
L 10.984375 60.40625 
L 10.984375 69.390625 
L 28.421875 72.90625 
L 38.28125 72.90625 
L 38.28125 8.296875 
L 54.390625 8.296875 
L 54.390625 0 
L 12.40625 0 
z
" id="DejaVuSans-49"/>
       </defs>
       <use xlink:href="#DejaVuSans-49"/>
       <use x="63.623047" xlink:href="#DejaVuSans-48"/>
       <use x="127.246094" xlink:href="#DejaVuSans-48"/>
      </g>
     </g>
    </g>
    <g id="xtick_4">
     <g id="line2d_7">
      <path clip-path="url(#pc4a13fe164)" d="M 324.404595 630 
L 324.404595 86.4 
" style="fill:none;stroke:#b0b0b0;stroke-linecap:square;stroke-width:0.8;"/>
     </g>
     <g id="line2d_8">
      <g>
       <use style="stroke:#000000;stroke-width:0.8;" x="324.404595" xlink:href="#m83b8feefff" y="630"/>
      </g>
     </g>
     <g id="text_4">
      <!-- 150 -->
      <g transform="translate(314.860845 644.598438)scale(0.1 -0.1)">
       <use xlink:href="#DejaVuSans-49"/>
       <use x="63.623047" xlink:href="#DejaVuSans-53"/>
       <use x="127.246094" xlink:href="#DejaVuSans-48"/>
      </g>
     </g>
    </g>
    <g id="xtick_5">
     <g id="line2d_9">
      <path clip-path="url(#pc4a13fe164)" d="M 394.084915 630 
L 394.084915 86.4 
" style="fill:none;stroke:#b0b0b0;stroke-linecap:square;stroke-width:0.8;"/>
     </g>
     <g id="line2d_10">
      <g>
       <use style="stroke:#000000;stroke-width:0.8;" x="394.084915" xlink:href="#m83b8feefff" y="630"/>
      </g>
     </g>
     <g id="text_5">
      <!-- 200 -->
      <g transform="translate(384.541165 644.598438)scale(0.1 -0.1)">
       <defs>
        <path d="M 19.1875 8.296875 
L 53.609375 8.296875 
L 53.609375 0 
L 7.328125 0 
L 7.328125 8.296875 
Q 12.9375 14.109375 22.625 23.890625 
Q 32.328125 33.6875 34.8125 36.53125 
Q 39.546875 41.84375 41.421875 45.53125 
Q 43.3125 49.21875 43.3125 52.78125 
Q 43.3125 58.59375 39.234375 62.25 
Q 35.15625 65.921875 28.609375 65.921875 
Q 23.96875 65.921875 18.8125 64.3125 
Q 13.671875 62.703125 7.8125 59.421875 
L 7.8125 69.390625 
Q 13.765625 71.78125 18.9375 73 
Q 24.125 74.21875 28.421875 74.21875 
Q 39.75 74.21875 46.484375 68.546875 
Q 53.21875 62.890625 53.21875 53.421875 
Q 53.21875 48.921875 51.53125 44.890625 
Q 49.859375 40.875 45.40625 35.40625 
Q 44.1875 33.984375 37.640625 27.21875 
Q 31.109375 20.453125 19.1875 8.296875 
z
" id="DejaVuSans-50"/>
       </defs>
       <use xlink:href="#DejaVuSans-50"/>
       <use x="63.623047" xlink:href="#DejaVuSans-48"/>
       <use x="127.246094" xlink:href="#DejaVuSans-48"/>
      </g>
     </g>
    </g>
    <g id="xtick_6">
     <g id="line2d_11">
      <path clip-path="url(#pc4a13fe164)" d="M 463.765235 630 
L 463.765235 86.4 
" style="fill:none;stroke:#b0b0b0;stroke-linecap:square;stroke-width:0.8;"/>
     </g>
     <g id="line2d_12">
      <g>
       <use style="stroke:#000000;stroke-width:0.8;" x="463.765235" xlink:href="#m83b8feefff" y="630"/>
      </g>
     </g>
     <g id="text_6">
      <!-- 250 -->
      <g transform="translate(454.221485 644.598438)scale(0.1 -0.1)">
       <use xlink:href="#DejaVuSans-50"/>
       <use x="63.623047" xlink:href="#DejaVuSans-53"/>
       <use x="127.246094" xlink:href="#DejaVuSans-48"/>
      </g>
     </g>
    </g>
    <g id="xtick_7">
     <g id="line2d_13">
      <path clip-path="url(#pc4a13fe164)" d="M 533.445554 630 
L 533.445554 86.4 
" style="fill:none;stroke:#b0b0b0;stroke-linecap:square;stroke-width:0.8;"/>
     </g>
     <g id="line2d_14">
      <g>
       <use style="stroke:#000000;stroke-width:0.8;" x="533.445554" xlink:href="#m83b8feefff" y="630"/>
      </g>
     </g>
     <g id="text_7">
      <!-- 300 -->
      <g transform="translate(523.901804 644.598438)scale(0.1 -0.1)">
       <defs>
        <path d="M 40.578125 39.3125 
Q 47.65625 37.796875 51.625 33 
Q 55.609375 28.21875 55.609375 21.1875 
Q 55.609375 10.40625 48.1875 4.484375 
Q 40.765625 -1.421875 27.09375 -1.421875 
Q 22.515625 -1.421875 17.65625 -0.515625 
Q 12.796875 0.390625 7.625 2.203125 
L 7.625 11.71875 
Q 11.71875 9.328125 16.59375 8.109375 
Q 21.484375 6.890625 26.8125 6.890625 
Q 36.078125 6.890625 40.9375 10.546875 
Q 45.796875 14.203125 45.796875 21.1875 
Q 45.796875 27.640625 41.28125 31.265625 
Q 36.765625 34.90625 28.71875 34.90625 
L 20.21875 34.90625 
L 20.21875 43.015625 
L 29.109375 43.015625 
Q 36.375 43.015625 40.234375 45.921875 
Q 44.09375 48.828125 44.09375 54.296875 
Q 44.09375 59.90625 40.109375 62.90625 
Q 36.140625 65.921875 28.71875 65.921875 
Q 24.65625 65.921875 20.015625 65.03125 
Q 15.375 64.15625 9.8125 62.3125 
L 9.8125 71.09375 
Q 15.4375 72.65625 20.34375 73.4375 
Q 25.25 74.21875 29.59375 74.21875 
Q 40.828125 74.21875 47.359375 69.109375 
Q 53.90625 64.015625 53.90625 55.328125 
Q 53.90625 49.265625 50.4375 45.09375 
Q 46.96875 40.921875 40.578125 39.3125 
z
" id="DejaVuSans-51"/>
       </defs>
       <use xlink:href="#DejaVuSans-51"/>
       <use x="63.623047" xlink:href="#DejaVuSans-48"/>
       <use x="127.246094" xlink:href="#DejaVuSans-48"/>
      </g>
     </g>
    </g>
    <g id="xtick_8">
     <g id="line2d_15">
      <path clip-path="url(#pc4a13fe164)" d="M 603.125874 630 
L 603.125874 86.4 
" style="fill:none;stroke:#b0b0b0;stroke-linecap:square;stroke-width:0.8;"/>
     </g>
     <g id="line2d_16">
      <g>
       <use style="stroke:#000000;stroke-width:0.8;" x="603.125874" xlink:href="#m83b8feefff" y="630"/>
      </g>
     </g>
     <g id="text_8">
      <!-- 350 -->
      <g transform="translate(593.582124 644.598438)scale(0.1 -0.1)">
       <use xlink:href="#DejaVuSans-51"/>
       <use x="63.623047" xlink:href="#DejaVuSans-53"/>
       <use x="127.246094" xlink:href="#DejaVuSans-48"/>
      </g>
     </g>
    </g>
    <g id="text_9">
     <!-- Days -->
     <g transform="translate(356.521875 658.276562)scale(0.1 -0.1)">
      <defs>
       <path d="M 19.671875 64.796875 
L 19.671875 8.109375 
L 31.59375 8.109375 
Q 46.6875 8.109375 53.6875 14.9375 
Q 60.6875 21.78125 60.6875 36.53125 
Q 60.6875 51.171875 53.6875 57.984375 
Q 46.6875 64.796875 31.59375 64.796875 
z
M 9.8125 72.90625 
L 30.078125 72.90625 
Q 51.265625 72.90625 61.171875 64.09375 
Q 71.09375 55.28125 71.09375 36.53125 
Q 71.09375 17.671875 61.125 8.828125 
Q 51.171875 0 30.078125 0 
L 9.8125 0 
z
" id="DejaVuSans-68"/>
       <path d="M 34.28125 27.484375 
Q 23.390625 27.484375 19.1875 25 
Q 14.984375 22.515625 14.984375 16.5 
Q 14.984375 11.71875 18.140625 8.90625 
Q 21.296875 6.109375 26.703125 6.109375 
Q 34.1875 6.109375 38.703125 11.40625 
Q 43.21875 16.703125 43.21875 25.484375 
L 43.21875 27.484375 
z
M 52.203125 31.203125 
L 52.203125 0 
L 43.21875 0 
L 43.21875 8.296875 
Q 40.140625 3.328125 35.546875 0.953125 
Q 30.953125 -1.421875 24.3125 -1.421875 
Q 15.921875 -1.421875 10.953125 3.296875 
Q 6 8.015625 6 15.921875 
Q 6 25.140625 12.171875 29.828125 
Q 18.359375 34.515625 30.609375 34.515625 
L 43.21875 34.515625 
L 43.21875 35.40625 
Q 43.21875 41.609375 39.140625 45 
Q 35.0625 48.390625 27.6875 48.390625 
Q 23 48.390625 18.546875 47.265625 
Q 14.109375 46.140625 10.015625 43.890625 
L 10.015625 52.203125 
Q 14.9375 54.109375 19.578125 55.046875 
Q 24.21875 56 28.609375 56 
Q 40.484375 56 46.34375 49.84375 
Q 52.203125 43.703125 52.203125 31.203125 
z
" id="DejaVuSans-97"/>
       <path d="M 32.171875 -5.078125 
Q 28.375 -14.84375 24.75 -17.8125 
Q 21.140625 -20.796875 15.09375 -20.796875 
L 7.90625 -20.796875 
L 7.90625 -13.28125 
L 13.1875 -13.28125 
Q 16.890625 -13.28125 18.9375 -11.515625 
Q 21 -9.765625 23.484375 -3.21875 
L 25.09375 0.875 
L 2.984375 54.6875 
L 12.5 54.6875 
L 29.59375 11.921875 
L 46.6875 54.6875 
L 56.203125 54.6875 
z
" id="DejaVuSans-121"/>
       <path d="M 44.28125 53.078125 
L 44.28125 44.578125 
Q 40.484375 46.53125 36.375 47.5 
Q 32.28125 48.484375 27.875 48.484375 
Q 21.1875 48.484375 17.84375 46.4375 
Q 14.5 44.390625 14.5 40.28125 
Q 14.5 37.15625 16.890625 35.375 
Q 19.28125 33.59375 26.515625 31.984375 
L 29.59375 31.296875 
Q 39.15625 29.25 43.1875 25.515625 
Q 47.21875 21.78125 47.21875 15.09375 
Q 47.21875 7.46875 41.1875 3.015625 
Q 35.15625 -1.421875 24.609375 -1.421875 
Q 20.21875 -1.421875 15.453125 -0.5625 
Q 10.6875 0.296875 5.421875 2 
L 5.421875 11.28125 
Q 10.40625 8.6875 15.234375 7.390625 
Q 20.0625 6.109375 24.8125 6.109375 
Q 31.15625 6.109375 34.5625 8.28125 
Q 37.984375 10.453125 37.984375 14.40625 
Q 37.984375 18.0625 35.515625 20.015625 
Q 33.0625 21.96875 24.703125 23.78125 
L 21.578125 24.515625 
Q 13.234375 26.265625 9.515625 29.90625 
Q 5.8125 33.546875 5.8125 39.890625 
Q 5.8125 47.609375 11.28125 51.796875 
Q 16.75 56 26.8125 56 
Q 31.78125 56 36.171875 55.265625 
Q 40.578125 54.546875 44.28125 53.078125 
z
" id="DejaVuSans-115"/>
      </defs>
      <use xlink:href="#DejaVuSans-68"/>
      <use x="77.001953" xlink:href="#DejaVuSans-97"/>
      <use x="138.28125" xlink:href="#DejaVuSans-121"/>
      <use x="197.460938" xlink:href="#DejaVuSans-115"/>
     </g>
    </g>
   </g>
   <g id="matplotlib.axis_2">
    <g id="ytick_1">
     <g id="line2d_17">
      <path clip-path="url(#pc4a13fe164)" d="M 90 605.321715 
L 648 605.321715 
" style="fill:none;stroke:#b0b0b0;stroke-linecap:square;stroke-width:0.8;"/>
     </g>
     <g id="line2d_18">
      <defs>
       <path d="M 0 0 
L -3.5 0 
" id="mb93c1d1b8a" style="stroke:#000000;stroke-width:0.8;"/>
      </defs>
      <g>
       <use style="stroke:#000000;stroke-width:0.8;" x="90" xlink:href="#mb93c1d1b8a" y="605.321715"/>
      </g>
     </g>
     <g id="text_10">
      <!-- 0 -->
      <g transform="translate(76.6375 609.120934)scale(0.1 -0.1)">
       <use xlink:href="#DejaVuSans-48"/>
      </g>
     </g>
    </g>
    <g id="ytick_2">
     <g id="line2d_19">
      <path clip-path="url(#pc4a13fe164)" d="M 90 486.837459 
L 648 486.837459 
" style="fill:none;stroke:#b0b0b0;stroke-linecap:square;stroke-width:0.8;"/>
     </g>
     <g id="line2d_20">
      <g>
       <use style="stroke:#000000;stroke-width:0.8;" x="90" xlink:href="#mb93c1d1b8a" y="486.837459"/>
      </g>
     </g>
     <g id="text_11">
      <!-- 50000 -->
      <g transform="translate(51.1875 490.636678)scale(0.1 -0.1)">
       <use xlink:href="#DejaVuSans-53"/>
       <use x="63.623047" xlink:href="#DejaVuSans-48"/>
       <use x="127.246094" xlink:href="#DejaVuSans-48"/>
       <use x="190.869141" xlink:href="#DejaVuSans-48"/>
       <use x="254.492188" xlink:href="#DejaVuSans-48"/>
      </g>
     </g>
    </g>
    <g id="ytick_3">
     <g id="line2d_21">
      <path clip-path="url(#pc4a13fe164)" d="M 90 368.353204 
L 648 368.353204 
" style="fill:none;stroke:#b0b0b0;stroke-linecap:square;stroke-width:0.8;"/>
     </g>
     <g id="line2d_22">
      <g>
       <use style="stroke:#000000;stroke-width:0.8;" x="90" xlink:href="#mb93c1d1b8a" y="368.353204"/>
      </g>
     </g>
     <g id="text_12">
      <!-- 100000 -->
      <g transform="translate(44.825 372.152423)scale(0.1 -0.1)">
       <use xlink:href="#DejaVuSans-49"/>
       <use x="63.623047" xlink:href="#DejaVuSans-48"/>
       <use x="127.246094" xlink:href="#DejaVuSans-48"/>
       <use x="190.869141" xlink:href="#DejaVuSans-48"/>
       <use x="254.492188" xlink:href="#DejaVuSans-48"/>
       <use x="318.115234" xlink:href="#DejaVuSans-48"/>
      </g>
     </g>
    </g>
    <g id="ytick_4">
     <g id="line2d_23">
      <path clip-path="url(#pc4a13fe164)" d="M 90 249.868948 
L 648 249.868948 
" style="fill:none;stroke:#b0b0b0;stroke-linecap:square;stroke-width:0.8;"/>
     </g>
     <g id="line2d_24">
      <g>
       <use style="stroke:#000000;stroke-width:0.8;" x="90" xlink:href="#mb93c1d1b8a" y="249.868948"/>
      </g>
     </g>
     <g id="text_13">
      <!-- 150000 -->
      <g transform="translate(44.825 253.668167)scale(0.1 -0.1)">
       <use xlink:href="#DejaVuSans-49"/>
       <use x="63.623047" xlink:href="#DejaVuSans-53"/>
       <use x="127.246094" xlink:href="#DejaVuSans-48"/>
       <use x="190.869141" xlink:href="#DejaVuSans-48"/>
       <use x="254.492188" xlink:href="#DejaVuSans-48"/>
       <use x="318.115234" xlink:href="#DejaVuSans-48"/>
      </g>
     </g>
    </g>
    <g id="ytick_5">
     <g id="line2d_25">
      <path clip-path="url(#pc4a13fe164)" d="M 90 131.384693 
L 648 131.384693 
" style="fill:none;stroke:#b0b0b0;stroke-linecap:square;stroke-width:0.8;"/>
     </g>
     <g id="line2d_26">
      <g>
       <use style="stroke:#000000;stroke-width:0.8;" x="90" xlink:href="#mb93c1d1b8a" y="131.384693"/>
      </g>
     </g>
     <g id="text_14">
      <!-- 200000 -->
      <g transform="translate(44.825 135.183911)scale(0.1 -0.1)">
       <use xlink:href="#DejaVuSans-50"/>
       <use x="63.623047" xlink:href="#DejaVuSans-48"/>
       <use x="127.246094" xlink:href="#DejaVuSans-48"/>
       <use x="190.869141" xlink:href="#DejaVuSans-48"/>
       <use x="254.492188" xlink:href="#DejaVuSans-48"/>
       <use x="318.115234" xlink:href="#DejaVuSans-48"/>
      </g>
     </g>
    </g>
    <g id="text_15">
     <!-- Cumulative cases -->
     <g transform="translate(38.745312 402.425781)rotate(-90)scale(0.1 -0.1)">
      <defs>
       <path d="M 64.40625 67.28125 
L 64.40625 56.890625 
Q 59.421875 61.53125 53.78125 63.8125 
Q 48.140625 66.109375 41.796875 66.109375 
Q 29.296875 66.109375 22.65625 58.46875 
Q 16.015625 50.828125 16.015625 36.375 
Q 16.015625 21.96875 22.65625 14.328125 
Q 29.296875 6.6875 41.796875 6.6875 
Q 48.140625 6.6875 53.78125 8.984375 
Q 59.421875 11.28125 64.40625 15.921875 
L 64.40625 5.609375 
Q 59.234375 2.09375 53.4375 0.328125 
Q 47.65625 -1.421875 41.21875 -1.421875 
Q 24.65625 -1.421875 15.125 8.703125 
Q 5.609375 18.84375 5.609375 36.375 
Q 5.609375 53.953125 15.125 64.078125 
Q 24.65625 74.21875 41.21875 74.21875 
Q 47.75 74.21875 53.53125 72.484375 
Q 59.328125 70.75 64.40625 67.28125 
z
" id="DejaVuSans-67"/>
       <path d="M 8.5 21.578125 
L 8.5 54.6875 
L 17.484375 54.6875 
L 17.484375 21.921875 
Q 17.484375 14.15625 20.5 10.265625 
Q 23.53125 6.390625 29.59375 6.390625 
Q 36.859375 6.390625 41.078125 11.03125 
Q 45.3125 15.671875 45.3125 23.6875 
L 45.3125 54.6875 
L 54.296875 54.6875 
L 54.296875 0 
L 45.3125 0 
L 45.3125 8.40625 
Q 42.046875 3.421875 37.71875 1 
Q 33.40625 -1.421875 27.6875 -1.421875 
Q 18.265625 -1.421875 13.375 4.4375 
Q 8.5 10.296875 8.5 21.578125 
z
M 31.109375 56 
z
" id="DejaVuSans-117"/>
       <path d="M 52 44.1875 
Q 55.375 50.25 60.0625 53.125 
Q 64.75 56 71.09375 56 
Q 79.640625 56 84.28125 50.015625 
Q 88.921875 44.046875 88.921875 33.015625 
L 88.921875 0 
L 79.890625 0 
L 79.890625 32.71875 
Q 79.890625 40.578125 77.09375 44.375 
Q 74.3125 48.1875 68.609375 48.1875 
Q 61.625 48.1875 57.5625 43.546875 
Q 53.515625 38.921875 53.515625 30.90625 
L 53.515625 0 
L 44.484375 0 
L 44.484375 32.71875 
Q 44.484375 40.625 41.703125 44.40625 
Q 38.921875 48.1875 33.109375 48.1875 
Q 26.21875 48.1875 22.15625 43.53125 
Q 18.109375 38.875 18.109375 30.90625 
L 18.109375 0 
L 9.078125 0 
L 9.078125 54.6875 
L 18.109375 54.6875 
L 18.109375 46.1875 
Q 21.1875 51.21875 25.484375 53.609375 
Q 29.78125 56 35.6875 56 
Q 41.65625 56 45.828125 52.96875 
Q 50 49.953125 52 44.1875 
z
" id="DejaVuSans-109"/>
       <path d="M 9.421875 75.984375 
L 18.40625 75.984375 
L 18.40625 0 
L 9.421875 0 
z
" id="DejaVuSans-108"/>
       <path d="M 18.3125 70.21875 
L 18.3125 54.6875 
L 36.8125 54.6875 
L 36.8125 47.703125 
L 18.3125 47.703125 
L 18.3125 18.015625 
Q 18.3125 11.328125 20.140625 9.421875 
Q 21.96875 7.515625 27.59375 7.515625 
L 36.8125 7.515625 
L 36.8125 0 
L 27.59375 0 
Q 17.1875 0 13.234375 3.875 
Q 9.28125 7.765625 9.28125 18.015625 
L 9.28125 47.703125 
L 2.6875 47.703125 
L 2.6875 54.6875 
L 9.28125 54.6875 
L 9.28125 70.21875 
z
" id="DejaVuSans-116"/>
       <path d="M 9.421875 54.6875 
L 18.40625 54.6875 
L 18.40625 0 
L 9.421875 0 
z
M 9.421875 75.984375 
L 18.40625 75.984375 
L 18.40625 64.59375 
L 9.421875 64.59375 
z
" id="DejaVuSans-105"/>
       <path d="M 2.984375 54.6875 
L 12.5 54.6875 
L 29.59375 8.796875 
L 46.6875 54.6875 
L 56.203125 54.6875 
L 35.6875 0 
L 23.484375 0 
z
" id="DejaVuSans-118"/>
       <path d="M 56.203125 29.59375 
L 56.203125 25.203125 
L 14.890625 25.203125 
Q 15.484375 15.921875 20.484375 11.0625 
Q 25.484375 6.203125 34.421875 6.203125 
Q 39.59375 6.203125 44.453125 7.46875 
Q 49.3125 8.734375 54.109375 11.28125 
L 54.109375 2.78125 
Q 49.265625 0.734375 44.1875 -0.34375 
Q 39.109375 -1.421875 33.890625 -1.421875 
Q 20.796875 -1.421875 13.15625 6.1875 
Q 5.515625 13.8125 5.515625 26.8125 
Q 5.515625 40.234375 12.765625 48.109375 
Q 20.015625 56 32.328125 56 
Q 43.359375 56 49.78125 48.890625 
Q 56.203125 41.796875 56.203125 29.59375 
z
M 47.21875 32.234375 
Q 47.125 39.59375 43.09375 43.984375 
Q 39.0625 48.390625 32.421875 48.390625 
Q 24.90625 48.390625 20.390625 44.140625 
Q 15.875 39.890625 15.1875 32.171875 
z
" id="DejaVuSans-101"/>
       <path id="DejaVuSans-32"/>
       <path d="M 48.78125 52.59375 
L 48.78125 44.1875 
Q 44.96875 46.296875 41.140625 47.34375 
Q 37.3125 48.390625 33.40625 48.390625 
Q 24.65625 48.390625 19.8125 42.84375 
Q 14.984375 37.3125 14.984375 27.296875 
Q 14.984375 17.28125 19.8125 11.734375 
Q 24.65625 6.203125 33.40625 6.203125 
Q 37.3125 6.203125 41.140625 7.25 
Q 44.96875 8.296875 48.78125 10.40625 
L 48.78125 2.09375 
Q 45.015625 0.34375 40.984375 -0.53125 
Q 36.96875 -1.421875 32.421875 -1.421875 
Q 20.0625 -1.421875 12.78125 6.34375 
Q 5.515625 14.109375 5.515625 27.296875 
Q 5.515625 40.671875 12.859375 48.328125 
Q 20.21875 56 33.015625 56 
Q 37.15625 56 41.109375 55.140625 
Q 45.0625 54.296875 48.78125 52.59375 
z
" id="DejaVuSans-99"/>
      </defs>
      <use xlink:href="#DejaVuSans-67"/>
      <use x="69.824219" xlink:href="#DejaVuSans-117"/>
      <use x="133.203125" xlink:href="#DejaVuSans-109"/>
      <use x="230.615234" xlink:href="#DejaVuSans-117"/>
      <use x="293.994141" xlink:href="#DejaVuSans-108"/>
      <use x="321.777344" xlink:href="#DejaVuSans-97"/>
      <use x="383.056641" xlink:href="#DejaVuSans-116"/>
      <use x="422.265625" xlink:href="#DejaVuSans-105"/>
      <use x="450.048828" xlink:href="#DejaVuSans-118"/>
      <use x="509.228516" xlink:href="#DejaVuSans-101"/>
      <use x="570.751953" xlink:href="#DejaVuSans-32"/>
      <use x="602.539062" xlink:href="#DejaVuSans-99"/>
      <use x="657.519531" xlink:href="#DejaVuSans-97"/>
      <use x="718.798828" xlink:href="#DejaVuSans-115"/>
      <use x="770.898438" xlink:href="#DejaVuSans-101"/>
      <use x="832.421875" xlink:href="#DejaVuSans-115"/>
     </g>
    </g>
   </g>
   <g id="line2d_27">
    <path clip-path="url(#pc4a13fe164)" d="M 115.363636 605.290909 
L 175.288711 605.123231 
L 204.554446 604.828935 
L 224.064935 604.418637 
L 239.394605 603.86894 
L 250.543457 603.269789 
L 260.298701 602.54724 
L 268.66034 601.730144 
L 277.021978 600.67498 
L 283.99001 599.565536 
L 290.958042 598.195559 
L 296.532468 596.872824 
L 302.106893 595.310272 
L 307.681319 593.466715 
L 311.862138 591.871403 
L 316.042957 590.069096 
L 320.223776 588.03512 
L 324.404595 585.742471 
L 328.585415 583.161776 
L 332.766234 580.261301 
L 336.947053 577.007042 
L 341.127872 573.362905 
L 345.308691 569.291015 
L 348.095904 566.319459 
L 350.883117 563.128557 
L 353.67033 559.706447 
L 356.457542 556.041345 
L 359.244755 552.121692 
L 362.031968 547.936309 
L 364.819181 543.474581 
L 367.606394 538.726658 
L 371.787213 531.049083 
L 375.968032 522.683351 
L 380.148851 513.61296 
L 384.32967 503.831378 
L 388.51049 493.343918 
L 392.691309 482.169414 
L 396.872128 470.341548 
L 401.052947 457.909663 
L 406.627373 440.509064 
L 412.201798 422.348058 
L 420.563437 394.207153 
L 433.105894 351.800771 
L 438.68032 333.589673 
L 444.254745 316.121775 
L 448.435564 303.630222 
L 452.616384 291.736609 
L 456.797203 280.491941 
L 460.978022 269.931508 
L 465.158841 260.075644 
L 469.33966 250.931 
L 473.52048 242.492199 
L 477.701299 234.743689 
L 481.882118 227.661676 
L 486.062937 221.216009 
L 490.243756 215.371935 
L 494.424575 210.09168 
L 498.605395 205.335798 
L 502.786214 201.064309 
L 506.967033 197.23761 
L 511.147852 193.817178 
L 515.328671 190.766093 
L 519.509491 188.049408 
L 523.69031 185.634378 
L 527.871129 183.490591 
L 532.051948 181.590008 
L 536.232767 179.906943 
L 540.413586 178.417994 
L 545.988012 176.698305 
L 551.562438 175.241539 
L 557.136863 174.008928 
L 564.104895 172.732848 
L 571.072927 171.699857 
L 579.434565 170.717747 
L 587.796204 169.957452 
L 597.551449 169.285297 
L 610.093906 168.670941 
L 622.636364 168.254007 
L 622.636364 168.254007 
" style="fill:none;stroke:#1f77b4;stroke-linecap:square;stroke-width:1.5;"/>
   </g>
   <g id="line2d_28">
    <path clip-path="url(#pc4a13fe164)" d="M 115.363636 605.290909 
L 133.480519 604.541986 
L 148.81019 603.705776 
L 162.746254 602.737171 
L 175.288711 601.652677 
L 186.437562 600.481654 
L 197.586414 599.076095 
L 207.341658 597.618481 
L 215.703297 596.172143 
L 224.064935 594.51752 
L 232.426573 592.626351 
L 239.394605 590.847022 
L 246.362637 588.861463 
L 253.330669 586.647802 
L 260.298701 584.182352 
L 267.266733 581.439594 
L 272.841159 579.027418 
L 278.415584 576.405501 
L 283.99001 573.558358 
L 289.564436 570.469887 
L 295.138861 567.123446 
L 300.713287 563.501957 
L 306.287712 559.588044 
L 311.862138 555.364193 
L 317.436563 550.812951 
L 323.010989 545.917164 
L 328.585415 540.660243 
L 334.15984 535.026473 
L 339.734266 529.001364 
L 345.308691 522.572022 
L 350.883117 515.727561 
L 356.457542 508.459529 
L 362.031968 500.762353 
L 367.606394 492.633775 
L 373.180819 484.075282 
L 378.755245 475.092496 
L 384.32967 465.695524 
L 389.904096 455.899229 
L 395.478521 445.723415 
L 402.446553 432.508253 
L 409.414585 418.798645 
L 417.776224 401.795058 
L 427.531469 381.377939 
L 442.861139 348.629866 
L 458.190809 316.014289 
L 467.946054 295.813005 
L 476.307692 279.066589 
L 483.275724 265.615245 
L 490.243756 252.691824 
L 495.818182 242.76915 
L 501.392607 233.23988 
L 506.967033 224.120477 
L 512.541459 215.422572 
L 518.115884 207.15322 
L 523.69031 199.315216 
L 529.264735 191.907479 
L 534.839161 184.925471 
L 540.413586 178.361632 
L 545.988012 172.205822 
L 551.562438 166.445759 
L 557.136863 161.067428 
L 562.711289 156.055477 
L 568.285714 151.393566 
L 573.86014 147.064693 
L 579.434565 143.051477 
L 585.008991 139.336398 
L 590.583417 135.902018 
L 596.157842 132.731143 
L 601.732268 129.806977 
L 607.306693 127.113232 
L 612.881119 124.634213 
L 619.849151 121.814565 
L 622.636364 120.7678 
L 622.636364 120.7678 
" style="fill:none;stroke:#ff7f0e;stroke-linecap:square;stroke-width:1.5;"/>
   </g>
   <g id="line2d_29">
    <path clip-path="url(#pc4a13fe164)" d="M 115.363636 605.290909 
L 154.384615 605.026386 
L 179.46953 604.644618 
L 197.586414 604.165608 
L 212.916084 603.542238 
L 225.458541 602.812903 
L 236.607393 601.934443 
L 246.362637 600.930617 
L 254.724276 599.847456 
L 261.692308 598.751821 
L 268.66034 597.445797 
L 275.628372 595.890779 
L 281.202797 594.437527 
L 286.777223 592.770079 
L 292.351648 590.859109 
L 297.926074 588.671992 
L 302.106893 586.828869 
L 306.287712 584.793692 
L 310.468531 582.548846 
L 314.649351 580.075641 
L 318.83017 577.354372 
L 323.010989 574.364412 
L 327.191808 571.084351 
L 331.372627 567.49218 
L 335.553447 563.565536 
L 339.734266 559.281999 
L 343.915085 554.61947 
L 348.095904 549.556598 
L 352.276723 544.073294 
L 356.457542 538.151299 
L 360.638362 531.774812 
L 364.819181 524.931168 
L 369 517.61153 
L 373.180819 509.811596 
L 377.361638 501.532264 
L 381.542458 492.780241 
L 385.723277 483.568547 
L 389.904096 473.916876 
L 395.478521 460.410457 
L 401.052947 446.251596 
L 408.020979 427.792689 
L 416.382617 404.844792 
L 440.073926 339.126323 
L 447.041958 320.718105 
L 452.616384 306.583814 
L 458.190809 293.071908 
L 463.765235 280.250299 
L 467.946054 271.117 
L 472.126873 262.413285 
L 476.307692 254.147312 
L 480.488511 246.322257 
L 484.669331 238.936839 
L 488.85015 231.985883 
L 493.030969 225.460888 
L 497.211788 219.35058 
L 501.392607 213.641445 
L 505.573427 208.318217 
L 509.754246 203.364326 
L 513.935065 198.7623 
L 518.115884 194.494107 
L 522.296703 190.541461 
L 526.477522 186.886072 
L 530.658342 183.50986 
L 534.839161 180.395116 
L 539.01998 177.524647 
L 543.200799 174.88187 
L 547.381618 172.450893 
L 552.956044 169.512983 
L 558.53047 166.891002 
L 564.104895 164.55369 
L 569.679321 162.472287 
L 575.253746 160.620463 
L 580.828172 158.974228 
L 587.796204 157.172566 
L 594.764236 155.620251 
L 601.732268 154.283894 
L 610.093906 152.924462 
L 618.455544 151.790663 
L 622.636364 151.296652 
L 622.636364 151.296652 
" style="fill:none;stroke:#2ca02c;stroke-linecap:square;stroke-width:1.5;"/>
   </g>
   <g id="line2d_30">
    <path clip-path="url(#pc4a13fe164)" d="M 115.363636 605.290909 
L 133.480519 604.915925 
L 148.81019 604.39754 
L 162.746254 603.716964 
L 175.288711 602.88861 
L 186.437562 601.940365 
L 196.192807 600.913662 
L 205.948052 599.669332 
L 214.30969 598.40122 
L 222.671329 596.918676 
L 231.032967 595.191254 
L 238.000999 593.540166 
L 244.969031 591.67356 
L 251.937063 589.567644 
L 258.905095 587.196614 
L 264.47952 585.090279 
L 270.053946 582.781349 
L 275.628372 580.253894 
L 281.202797 577.491269 
L 286.777223 574.476185 
L 292.351648 571.190826 
L 297.926074 567.616978 
L 303.5005 563.736208 
L 309.074925 559.530076 
L 314.649351 554.980383 
L 320.223776 550.069467 
L 325.798202 544.780537 
L 331.372627 539.098049 
L 336.947053 533.008115 
L 342.521479 526.498947 
L 348.095904 519.561311 
L 353.67033 512.189001 
L 359.244755 504.379294 
L 364.819181 496.133388 
L 370.393606 487.456791 
L 375.968032 478.35964 
L 381.542458 468.856942 
L 387.116883 458.968695 
L 394.084915 446.104756 
L 401.052947 432.737246 
L 409.414585 416.131288 
L 419.16983 396.156592 
L 433.105894 366.970135 
L 451.222777 329.01551 
L 460.978022 309.081793 
L 469.33966 292.492891 
L 476.307692 279.107179 
L 483.275724 266.178455 
L 490.243756 253.750432 
L 497.211788 241.856387 
L 502.786214 232.741612 
L 508.360639 223.991363 
L 513.935065 215.609846 
L 519.509491 207.598139 
L 525.083916 199.954545 
L 530.658342 192.674947 
L 536.232767 185.75316 
L 541.807193 179.181263 
L 547.381618 172.949919 
L 552.956044 167.048657 
L 558.53047 161.466141 
L 564.104895 156.1904 
L 569.679321 151.209037 
L 575.253746 146.509403 
L 580.828172 142.078751 
L 586.402597 137.904367 
L 591.977023 133.973673 
L 597.551449 130.274315 
L 603.125874 126.794231 
L 610.093906 122.734675 
L 617.061938 118.977445 
L 622.636364 116.175201 
L 622.636364 116.175201 
" style="fill:none;stroke:#d62728;stroke-linecap:square;stroke-width:1.5;"/>
   </g>
   <g id="line2d_31">
    <path clip-path="url(#pc4a13fe164)" d="M 115.363636 605.290909 
L 158.565435 605.168408 
L 187.831169 604.9074 
L 207.341658 604.535233 
L 222.671329 604.028601 
L 235.213786 603.385236 
L 244.969031 602.675152 
L 253.330669 601.866764 
L 261.692308 600.817096 
L 268.66034 599.70875 
L 274.234765 598.634355 
L 279.809191 597.361193 
L 285.383616 595.855084 
L 290.958042 594.077006 
L 295.138861 592.538612 
L 299.31968 590.801957 
L 303.5005 588.844842 
L 307.681319 586.643491 
L 311.862138 584.172698 
L 316.042957 581.406046 
L 320.223776 578.316219 
L 324.404595 574.875435 
L 328.585415 571.055976 
L 332.766234 566.830854 
L 336.947053 562.174576 
L 341.127872 557.064015 
L 345.308691 551.479351 
L 349.48951 545.405041 
L 353.67033 538.830774 
L 357.851149 531.75234 
L 362.031968 524.172368 
L 366.212787 516.100843 
L 370.393606 507.555379 
L 374.574426 498.561181 
L 380.148851 485.927945 
L 385.723277 472.650175 
L 391.297702 458.839366 
L 398.265734 441.014559 
L 409.414585 411.793453 
L 423.350649 375.385635 
L 431.712288 354.240822 
L 438.68032 337.268092 
L 444.254745 324.198256 
L 449.829171 311.627861 
L 455.403596 299.587886 
L 460.978022 288.098567 
L 466.552448 277.170838 
L 472.126873 266.807754 
L 477.701299 257.005835 
L 483.275724 247.756298 
L 488.85015 239.046149 
L 494.424575 230.859145 
L 499.999001 223.176618 
L 505.573427 215.978171 
L 511.147852 209.242259 
L 516.722278 202.946671 
L 522.296703 197.068922 
L 527.871129 191.586564 
L 533.445554 186.477436 
L 539.01998 181.719855 
L 544.594406 177.292765 
L 550.168831 173.175845 
L 555.743257 169.349581 
L 561.317682 165.795323 
L 566.892108 162.495309 
L 572.466533 159.432683 
L 578.040959 156.591489 
L 583.615385 153.956666 
L 590.583417 150.931812 
L 597.551449 148.181449 
L 604.519481 145.681703 
L 611.487512 143.410576 
L 618.455544 141.347842 
L 622.636364 140.202441 
L 622.636364 140.202441 
" style="fill:none;stroke:#9467bd;stroke-linecap:square;stroke-width:1.5;"/>
   </g>
   <g id="line2d_32">
    <path clip-path="url(#pc4a13fe164)" d="M 115.363636 605.290909 
L 133.480519 605.183687 
L 150.203796 604.882343 
L 164.13986 604.43188 
L 176.682318 603.823284 
L 187.831169 603.078024 
L 197.586414 602.232074 
L 207.341658 601.167962 
L 215.703297 600.050494 
L 224.064935 598.711228 
L 231.032967 597.400657 
L 238.000999 595.8892 
L 244.969031 594.15185 
L 251.937063 592.16118 
L 257.511489 590.366255 
L 263.085914 588.373708 
L 268.66034 586.166165 
L 274.234765 583.725361 
L 279.809191 581.032234 
L 285.383616 578.067063 
L 290.958042 574.809643 
L 296.532468 571.23951 
L 302.106893 567.336211 
L 307.681319 563.07963 
L 311.862138 559.643643 
L 316.042957 555.990208 
L 320.223776 552.112004 
L 324.404595 548.002292 
L 328.585415 543.655035 
L 332.766234 539.065022 
L 338.340659 532.560166 
L 343.915085 525.609191 
L 349.48951 518.208852 
L 355.063936 510.360183 
L 360.638362 502.068846 
L 366.212787 493.345374 
L 371.787213 484.205302 
L 377.361638 474.669158 
L 384.32967 462.231096 
L 391.297702 449.273602 
L 398.265734 435.865863 
L 406.627373 419.291296 
L 417.776224 396.606406 
L 454.00999 322.301363 
L 462.371628 305.828717 
L 470.733267 289.841238 
L 477.701299 276.947041 
L 484.669331 264.482583 
L 491.637363 252.477027 
L 498.605395 240.952085 
L 505.573427 229.922615 
L 512.541459 219.397292 
L 518.115884 211.342339 
L 523.69031 203.611597 
L 529.264735 196.202759 
L 534.839161 189.112017 
L 540.413586 182.334271 
L 545.988012 175.863322 
L 551.562438 169.692055 
L 557.136863 163.812603 
L 562.711289 158.216497 
L 568.285714 152.8948 
L 573.86014 147.838231 
L 579.434565 143.03727 
L 585.008991 138.482249 
L 590.583417 134.163438 
L 597.551449 129.08229 
L 604.519481 124.336206 
L 611.487512 119.906673 
L 618.455544 115.775618 
L 622.636364 113.432933 
L 622.636364 113.432933 
" style="fill:none;stroke:#8c564b;stroke-linecap:square;stroke-width:1.5;"/>
   </g>
   <g id="line2d_33">
    <path clip-path="url(#pc4a13fe164)" d="M 115.363636 605.290909 
L 147.416583 605.167322 
L 176.682318 604.876397 
L 196.192807 604.484977 
L 211.522478 603.974348 
L 224.064935 603.347657 
L 235.213786 602.561722 
L 244.969031 601.631619 
L 253.330669 600.597758 
L 260.298701 599.52607 
L 267.266733 598.220535 
L 272.841159 596.975809 
L 278.415584 595.52257 
L 283.99001 593.828801 
L 289.564436 591.858619 
L 293.745255 590.175761 
L 297.926074 588.296821 
L 302.106893 586.202344 
L 306.287712 583.871779 
L 310.468531 581.283629 
L 314.649351 578.415656 
L 318.83017 575.245159 
L 323.010989 571.749321 
L 327.191808 567.905638 
L 331.372627 563.692419 
L 335.553447 559.089358 
L 339.734266 554.07817 
L 343.915085 548.643256 
L 348.095904 542.772394 
L 352.276723 536.457409 
L 356.457542 529.694787 
L 360.638362 522.486205 
L 364.819181 514.838924 
L 369 506.766021 
L 373.180819 498.286431 
L 378.755245 486.391045 
L 384.32967 473.889963 
L 389.904096 460.870402 
L 396.872128 444.01726 
L 406.627373 419.715288 
L 427.531469 367.308049 
L 435.893107 347.071589 
L 442.861139 330.795935 
L 449.829171 315.161768 
L 455.403596 303.166102 
L 460.978022 291.654454 
L 466.552448 280.644539 
L 472.126873 270.146479 
L 477.701299 260.163858 
L 483.275724 250.694743 
L 488.85015 241.732624 
L 494.424575 233.267281 
L 499.999001 225.285552 
L 505.573427 217.772002 
L 511.147852 210.70951 
L 516.722278 204.079761 
L 522.296703 197.863665 
L 527.871129 192.041706 
L 533.445554 186.594226 
L 539.01998 181.50166 
L 544.594406 176.744717 
L 550.168831 172.304528 
L 555.743257 168.162761 
L 561.317682 164.301701 
L 566.892108 160.704311 
L 572.466533 157.354275 
L 578.040959 154.236022 
L 583.615385 151.334736 
L 590.583417 147.991894 
L 597.551449 144.940344 
L 604.519481 142.156063 
L 611.487512 139.616758 
L 618.455544 137.301785 
L 622.636364 136.012486 
L 622.636364 136.012486 
" style="fill:none;stroke:#e377c2;stroke-linecap:square;stroke-width:1.5;"/>
   </g>
   <g id="line2d_34">
    <path clip-path="url(#pc4a13fe164)" d="M 115.363636 605.290909 
L 133.480519 605.184299 
L 150.203796 604.883271 
L 165.533467 604.380282 
L 178.075924 603.75532 
L 189.224775 602.9943 
L 198.98002 602.133426 
L 208.735265 601.053112 
L 217.096903 599.920537 
L 225.458541 598.56481 
L 232.426573 597.239293 
L 239.394605 595.711562 
L 246.362637 593.956366 
L 253.330669 591.945979 
L 258.905095 590.133687 
L 264.47952 588.122113 
L 270.053946 585.893618 
L 275.628372 583.429625 
L 281.202797 580.710713 
L 286.777223 577.716746 
L 292.351648 574.427045 
L 297.926074 570.820613 
L 303.5005 566.8764 
L 309.074925 562.573636 
L 313.255744 559.09913 
L 317.436563 555.403501 
L 321.617383 551.479105 
L 325.798202 547.318875 
L 329.979021 542.916448 
L 334.15984 538.266296 
L 338.340659 533.363857 
L 343.915085 526.429011 
L 349.48951 519.034856 
L 355.063936 511.180962 
L 360.638362 502.871671 
L 366.212787 494.116414 
L 371.787213 484.929923 
L 377.361638 475.332288 
L 382.936064 465.348869 
L 389.904096 452.373819 
L 396.872128 438.913121 
L 405.233766 422.230775 
L 414.989011 402.228417 
L 431.712288 367.288196 
L 447.041958 335.458245 
L 456.797203 315.717804 
L 465.158841 299.289463 
L 472.126873 286.020827 
L 479.094905 273.184502 
L 486.062937 260.816842 
L 493.030969 248.945505 
L 499.999001 237.59007 
L 505.573427 228.885613 
L 511.147852 220.522489 
L 516.722278 212.501496 
L 522.296703 204.821295 
L 527.871129 197.478678 
L 533.445554 190.468823 
L 539.01998 183.785531 
L 544.594406 177.421455 
L 550.168831 171.368297 
L 555.743257 165.617004 
L 561.317682 160.157929 
L 566.892108 154.980987 
L 572.466533 150.075783 
L 578.040959 145.431729 
L 583.615385 141.038147 
L 589.18981 136.884356 
L 594.764236 132.959741 
L 601.732268 128.360303 
L 608.7003 124.082535 
L 615.668332 120.106954 
L 622.636364 116.414746 
L 622.636364 116.414746 
" style="fill:none;stroke:#7f7f7f;stroke-linecap:square;stroke-width:1.5;"/>
   </g>
   <g id="line2d_35">
    <path clip-path="url(#pc4a13fe164)" d="M 115.363636 605.290909 
L 134.874126 605.172008 
L 151.597403 604.867902 
L 166.927073 604.362807 
L 179.46953 603.73435 
L 190.618382 602.966678 
L 200.373626 602.095178 
L 210.128871 600.997402 
L 218.490509 599.842274 
L 226.852148 598.454707 
L 233.82018 597.093726 
L 240.788212 595.520627 
L 247.756244 593.7083 
L 254.724276 591.627011 
L 260.298701 589.746662 
L 265.873127 587.655758 
L 271.447552 585.335559 
L 277.021978 582.766439 
L 282.596404 579.928015 
L 288.170829 576.799338 
L 293.745255 573.359119 
L 299.31968 569.586027 
L 304.894106 565.45903 
L 309.074925 562.119263 
L 313.255744 558.560795 
L 317.436563 554.775938 
L 321.617383 550.757611 
L 325.798202 546.499472 
L 329.979021 541.996047 
L 334.15984 537.242863 
L 339.734266 530.511164 
L 345.308691 523.325221 
L 350.883117 515.685005 
L 356.457542 507.595258 
L 362.031968 499.065743 
L 367.606394 490.111381 
L 373.180819 480.752223 
L 378.755245 471.01328 
L 385.723277 458.3511 
L 392.691309 445.209033 
L 401.052947 428.911443 
L 410.808192 409.35021 
L 424.744256 380.830267 
L 444.254745 340.92639 
L 454.00999 321.441921 
L 462.371628 305.165668 
L 470.733267 289.372886 
L 477.701299 276.632136 
L 484.669331 264.30738 
L 491.637363 252.423163 
L 498.605395 240.997388 
L 505.573427 230.041947 
L 512.541459 219.563386 
L 519.509491 209.563567 
L 526.477522 200.040317 
L 532.051948 192.761187 
L 537.626374 185.77933 
L 543.200799 179.08955 
L 548.775225 172.68581 
L 554.34965 166.561384 
L 559.924076 160.708981 
L 565.498501 155.12087 
L 571.072927 149.788976 
L 576.647353 144.704982 
L 583.615385 138.685663 
L 590.583417 133.023665 
L 597.551449 127.702188 
L 604.519481 122.704538 
L 611.487512 118.014263 
L 618.455544 113.615246 
L 622.636364 111.109091 
L 622.636364 111.109091 
" style="fill:none;stroke:#bcbd22;stroke-linecap:square;stroke-width:1.5;"/>
   </g>
   <g id="line2d_36">
    <path clip-path="url(#pc4a13fe164)" d="M 115.363636 605.290909 
L 132.086913 604.947305 
L 144.629371 604.433083 
L 164.13986 603.838292 
L 171.107892 603.752983 
L 221.277722 603.056296 
L 229.639361 602.752976 
L 232.426573 602.579989 
L 242.181818 601.859605 
L 246.362637 601.383298 
L 253.330669 600.726896 
L 254.724276 600.444903 
L 260.298701 599.710301 
L 268.66034 597.575214 
L 270.053946 597.124974 
L 275.628372 594.3714 
L 277.021978 593.482768 
L 279.809191 592.321622 
L 281.202797 591.492233 
L 282.596404 589.954307 
L 286.777223 587.321587 
L 289.564436 585.222046 
L 295.138861 580.319167 
L 296.532468 578.985035 
L 297.926074 577.989767 
L 299.31968 577.333364 
L 300.713287 576.030037 
L 302.106893 574.210119 
L 303.5005 572.930489 
L 304.894106 570.724312 
L 307.681319 567.783533 
L 313.255744 563.093926 
L 314.649351 562.224252 
L 316.042957 560.35694 
L 318.83017 558.314271 
L 320.223776 556.939854 
L 321.617383 555.39245 
L 323.010989 552.996698 
L 324.404595 551.288155 
L 325.798202 550.141227 
L 329.979021 545.944515 
L 331.372627 543.404213 
L 335.553447 537.868628 
L 338.340659 535.077139 
L 339.734266 533.26196 
L 341.127872 531.68375 
L 342.521479 529.174254 
L 343.915085 526.923053 
L 345.308691 525.178965 
L 346.702298 523.655257 
L 348.095904 521.659982 
L 350.883117 516.951418 
L 353.67033 511.247586 
L 355.063936 511.247586 
L 356.457542 507.484526 
L 357.851149 505.358918 
L 360.638362 499.970254 
L 363.425574 494.13609 
L 364.819181 494.13609 
L 366.212787 489.728475 
L 367.606394 487.081537 
L 371.787213 477.432179 
L 373.180819 473.913197 
L 374.574426 473.913197 
L 375.968032 469.394207 
L 377.361638 467.555332 
L 382.936064 454.344337 
L 384.32967 454.344337 
L 385.723277 449.865632 
L 387.116883 447.289785 
L 391.297702 437.510094 
L 392.691309 434.588272 
L 394.084915 434.588272 
L 395.478521 430.642747 
L 396.872128 428.533727 
L 399.659341 423.263547 
L 401.052947 420.891492 
L 402.446553 417.685308 
L 403.84016 417.685308 
L 405.233766 413.071532 
L 406.627373 410.671041 
L 409.414585 404.306066 
L 410.808192 401.403202 
L 412.201798 398.118818 
L 413.595405 398.118818 
L 414.989011 393.8913 
L 416.382617 391.48607 
L 417.776224 387.832015 
L 419.16983 384.580807 
L 421.957043 378.983611 
L 423.350649 378.983611 
L 424.744256 375.284533 
L 426.137862 373.277409 
L 427.531469 369.715773 
L 431.712288 361.035616 
L 433.105894 361.035616 
L 434.4995 357.784408 
L 435.893107 355.74174 
L 437.286713 352.824657 
L 438.68032 350.414687 
L 440.073926 347.343576 
L 441.467532 344.725074 
L 442.861139 344.725074 
L 444.254745 341.677658 
L 445.648352 339.63262 
L 448.435564 334.307938 
L 449.829171 331.819768 
L 451.222777 329.578046 
L 452.616384 329.578046 
L 454.00999 326.677552 
L 455.403596 324.35763 
L 459.584416 315.92866 
L 460.978022 313.322006 
L 462.371628 313.322006 
L 463.765235 310.077908 
L 465.158841 307.712962 
L 466.552448 304.34327 
L 469.33966 298.641807 
L 472.126873 298.641807 
L 473.52048 291.824223 
L 474.914086 289.703355 
L 479.094905 280.454474 
L 481.882118 280.454474 
L 483.275724 274.423625 
L 484.669331 273.158213 
L 488.85015 264.83351 
L 491.637363 264.83351 
L 493.030969 258.350051 
L 494.424575 255.959039 
L 495.818182 252.977975 
L 498.605395 247.624856 
L 501.392607 247.624856 
L 502.786214 242.359416 
L 504.17982 240.162718 
L 506.967033 234.7314 
L 508.360639 232.162661 
L 511.147852 232.162661 
L 512.541459 226.425653 
L 513.935065 224.26687 
L 516.722278 219.086739 
L 520.903097 219.086739 
L 522.296703 212.517971 
L 523.69031 210.060608 
L 526.477522 204.084262 
L 530.658342 204.084262 
L 532.051948 196.702693 
L 533.445554 193.965707 
L 536.232767 187.292673 
L 537.626374 184.432464 
L 540.413586 184.432464 
L 541.807193 178.633844 
L 547.381618 168.856523 
L 550.168831 168.856523 
L 551.562438 164.522369 
L 554.34965 160.503383 
L 557.136863 156.721366 
L 559.924076 156.721366 
L 561.317682 153.316128 
L 562.711289 151.894317 
L 564.104895 150.185774 
L 565.498501 148.832684 
L 566.892108 147.318455 
L 569.679321 147.318455 
L 571.072927 144.254452 
L 572.466533 143.211791 
L 573.86014 141.960597 
L 576.647353 139.825511 
L 579.434565 139.825511 
L 580.828172 137.462935 
L 582.221778 136.474776 
L 583.615385 135.323109 
L 586.402597 133.311247 
L 589.18981 133.311247 
L 590.583417 131.32782 
L 593.370629 129.280412 
L 594.764236 128.443913 
L 596.157842 127.408361 
L 598.945055 127.408361 
L 600.338661 125.048155 
L 605.913087 121.09789 
L 608.7003 121.09789 
L 610.093906 119.332474 
L 612.881119 117.427247 
L 615.668332 115.649983 
L 619.849151 115.649983 
L 621.242757 112.825319 
L 622.636364 112.825319 
L 622.636364 112.825319 
" style="fill:none;stroke:#17becf;stroke-dasharray:14.8,6.4;stroke-dashoffset:0;stroke-width:4;"/>
   </g>
   <g id="patch_3">
    <path d="M 90 630 
L 90 86.4 
" style="fill:none;stroke:#000000;stroke-linecap:square;stroke-linejoin:miter;stroke-width:0.8;"/>
   </g>
   <g id="patch_4">
    <path d="M 648 630 
L 648 86.4 
" style="fill:none;stroke:#000000;stroke-linecap:square;stroke-linejoin:miter;stroke-width:0.8;"/>
   </g>
   <g id="patch_5">
    <path d="M 90 630 
L 648 630 
" style="fill:none;stroke:#000000;stroke-linecap:square;stroke-linejoin:miter;stroke-width:0.8;"/>
   </g>
   <g id="patch_6">
    <path d="M 90 86.4 
L 648 86.4 
" style="fill:none;stroke:#000000;stroke-linecap:square;stroke-linejoin:miter;stroke-width:0.8;"/>
   </g>
   <g id="text_16">
    <!-- Costa Rica relative err =  -->
    <g transform="translate(293.460938 80.4)scale(0.12 -0.12)">
     <defs>
      <path d="M 30.609375 48.390625 
Q 23.390625 48.390625 19.1875 42.75 
Q 14.984375 37.109375 14.984375 27.296875 
Q 14.984375 17.484375 19.15625 11.84375 
Q 23.34375 6.203125 30.609375 6.203125 
Q 37.796875 6.203125 41.984375 11.859375 
Q 46.1875 17.53125 46.1875 27.296875 
Q 46.1875 37.015625 41.984375 42.703125 
Q 37.796875 48.390625 30.609375 48.390625 
z
M 30.609375 56 
Q 42.328125 56 49.015625 48.375 
Q 55.71875 40.765625 55.71875 27.296875 
Q 55.71875 13.875 49.015625 6.21875 
Q 42.328125 -1.421875 30.609375 -1.421875 
Q 18.84375 -1.421875 12.171875 6.21875 
Q 5.515625 13.875 5.515625 27.296875 
Q 5.515625 40.765625 12.171875 48.375 
Q 18.84375 56 30.609375 56 
z
" id="DejaVuSans-111"/>
      <path d="M 44.390625 34.1875 
Q 47.5625 33.109375 50.5625 29.59375 
Q 53.5625 26.078125 56.59375 19.921875 
L 66.609375 0 
L 56 0 
L 46.6875 18.703125 
Q 43.0625 26.03125 39.671875 28.421875 
Q 36.28125 30.8125 30.421875 30.8125 
L 19.671875 30.8125 
L 19.671875 0 
L 9.8125 0 
L 9.8125 72.90625 
L 32.078125 72.90625 
Q 44.578125 72.90625 50.734375 67.671875 
Q 56.890625 62.453125 56.890625 51.90625 
Q 56.890625 45.015625 53.6875 40.46875 
Q 50.484375 35.9375 44.390625 34.1875 
z
M 19.671875 64.796875 
L 19.671875 38.921875 
L 32.078125 38.921875 
Q 39.203125 38.921875 42.84375 42.21875 
Q 46.484375 45.515625 46.484375 51.90625 
Q 46.484375 58.296875 42.84375 61.546875 
Q 39.203125 64.796875 32.078125 64.796875 
z
" id="DejaVuSans-82"/>
      <path d="M 41.109375 46.296875 
Q 39.59375 47.171875 37.8125 47.578125 
Q 36.03125 48 33.890625 48 
Q 26.265625 48 22.1875 43.046875 
Q 18.109375 38.09375 18.109375 28.8125 
L 18.109375 0 
L 9.078125 0 
L 9.078125 54.6875 
L 18.109375 54.6875 
L 18.109375 46.1875 
Q 20.953125 51.171875 25.484375 53.578125 
Q 30.03125 56 36.53125 56 
Q 37.453125 56 38.578125 55.875 
Q 39.703125 55.765625 41.0625 55.515625 
z
" id="DejaVuSans-114"/>
      <path d="M 10.59375 45.40625 
L 73.1875 45.40625 
L 73.1875 37.203125 
L 10.59375 37.203125 
z
M 10.59375 25.484375 
L 73.1875 25.484375 
L 73.1875 17.1875 
L 10.59375 17.1875 
z
" id="DejaVuSans-61"/>
     </defs>
     <use xlink:href="#DejaVuSans-67"/>
     <use x="69.824219" xlink:href="#DejaVuSans-111"/>
     <use x="131.005859" xlink:href="#DejaVuSans-115"/>
     <use x="183.105469" xlink:href="#DejaVuSans-116"/>
     <use x="222.314453" xlink:href="#DejaVuSans-97"/>
     <use x="283.59375" xlink:href="#DejaVuSans-32"/>
     <use x="315.380859" xlink:href="#DejaVuSans-82"/>
     <use x="384.863281" xlink:href="#DejaVuSans-105"/>
     <use x="412.646484" xlink:href="#DejaVuSans-99"/>
     <use x="467.626953" xlink:href="#DejaVuSans-97"/>
     <use x="528.90625" xlink:href="#DejaVuSans-32"/>
     <use x="560.693359" xlink:href="#DejaVuSans-114"/>
     <use x="599.556641" xlink:href="#DejaVuSans-101"/>
     <use x="661.080078" xlink:href="#DejaVuSans-108"/>
     <use x="688.863281" xlink:href="#DejaVuSans-97"/>
     <use x="750.142578" xlink:href="#DejaVuSans-116"/>
     <use x="789.351562" xlink:href="#DejaVuSans-105"/>
     <use x="817.134766" xlink:href="#DejaVuSans-118"/>
     <use x="876.314453" xlink:href="#DejaVuSans-101"/>
     <use x="937.837891" xlink:href="#DejaVuSans-32"/>
     <use x="969.625" xlink:href="#DejaVuSans-101"/>
     <use x="1031.148438" xlink:href="#DejaVuSans-114"/>
     <use x="1070.511719" xlink:href="#DejaVuSans-114"/>
     <use x="1111.625" xlink:href="#DejaVuSans-32"/>
     <use x="1143.412109" xlink:href="#DejaVuSans-61"/>
     <use x="1227.201172" xlink:href="#DejaVuSans-32"/>
    </g>
   </g>
   <g id="legend_1">
    <g id="patch_7">
     <path d="M 97 226.503125 
L 185.6 226.503125 
Q 187.6 226.503125 187.6 224.503125 
L 187.6 93.4 
Q 187.6 91.4 185.6 91.4 
L 97 91.4 
Q 95 91.4 95 93.4 
L 95 224.503125 
Q 95 226.503125 97 226.503125 
z
" style="fill:#ffffff;opacity:0.8;stroke:#cccccc;stroke-linejoin:miter;"/>
    </g>
    <g id="line2d_37">
     <path d="M 99 99.498438 
L 119 99.498438 
" style="fill:none;stroke:#1f77b4;stroke-linecap:square;stroke-width:1.5;"/>
    </g>
    <g id="line2d_38"/>
    <g id="text_17">
     <!-- SI -->
     <g transform="translate(127 102.998438)scale(0.1 -0.1)">
      <defs>
       <path d="M 53.515625 70.515625 
L 53.515625 60.890625 
Q 47.90625 63.578125 42.921875 64.890625 
Q 37.9375 66.21875 33.296875 66.21875 
Q 25.25 66.21875 20.875 63.09375 
Q 16.5 59.96875 16.5 54.203125 
Q 16.5 49.359375 19.40625 46.890625 
Q 22.3125 44.4375 30.421875 42.921875 
L 36.375 41.703125 
Q 47.40625 39.59375 52.65625 34.296875 
Q 57.90625 29 57.90625 20.125 
Q 57.90625 9.515625 50.796875 4.046875 
Q 43.703125 -1.421875 29.984375 -1.421875 
Q 24.8125 -1.421875 18.96875 -0.25 
Q 13.140625 0.921875 6.890625 3.21875 
L 6.890625 13.375 
Q 12.890625 10.015625 18.65625 8.296875 
Q 24.421875 6.59375 29.984375 6.59375 
Q 38.421875 6.59375 43.015625 9.90625 
Q 47.609375 13.234375 47.609375 19.390625 
Q 47.609375 24.75 44.3125 27.78125 
Q 41.015625 30.8125 33.5 32.328125 
L 27.484375 33.5 
Q 16.453125 35.6875 11.515625 40.375 
Q 6.59375 45.0625 6.59375 53.421875 
Q 6.59375 63.09375 13.40625 68.65625 
Q 20.21875 74.21875 32.171875 74.21875 
Q 37.3125 74.21875 42.625 73.28125 
Q 47.953125 72.359375 53.515625 70.515625 
z
" id="DejaVuSans-83"/>
       <path d="M 9.8125 72.90625 
L 19.671875 72.90625 
L 19.671875 0 
L 9.8125 0 
z
" id="DejaVuSans-73"/>
      </defs>
      <use xlink:href="#DejaVuSans-83"/>
      <use x="63.476562" xlink:href="#DejaVuSans-73"/>
     </g>
    </g>
    <g id="line2d_39">
     <path d="M 99 114.176563 
L 119 114.176563 
" style="fill:none;stroke:#ff7f0e;stroke-linecap:square;stroke-width:1.5;"/>
    </g>
    <g id="line2d_40"/>
    <g id="text_18">
     <!-- BD -->
     <g transform="translate(127 117.676563)scale(0.1 -0.1)">
      <defs>
       <path d="M 19.671875 34.8125 
L 19.671875 8.109375 
L 35.5 8.109375 
Q 43.453125 8.109375 47.28125 11.40625 
Q 51.125 14.703125 51.125 21.484375 
Q 51.125 28.328125 47.28125 31.5625 
Q 43.453125 34.8125 35.5 34.8125 
z
M 19.671875 64.796875 
L 19.671875 42.828125 
L 34.28125 42.828125 
Q 41.5 42.828125 45.03125 45.53125 
Q 48.578125 48.25 48.578125 53.8125 
Q 48.578125 59.328125 45.03125 62.0625 
Q 41.5 64.796875 34.28125 64.796875 
z
M 9.8125 72.90625 
L 35.015625 72.90625 
Q 46.296875 72.90625 52.390625 68.21875 
Q 58.5 63.53125 58.5 54.890625 
Q 58.5 48.1875 55.375 44.234375 
Q 52.25 40.28125 46.1875 39.3125 
Q 53.46875 37.75 57.5 32.78125 
Q 61.53125 27.828125 61.53125 20.40625 
Q 61.53125 10.640625 54.890625 5.3125 
Q 48.25 0 35.984375 0 
L 9.8125 0 
z
" id="DejaVuSans-66"/>
      </defs>
      <use xlink:href="#DejaVuSans-66"/>
      <use x="68.603516" xlink:href="#DejaVuSans-68"/>
     </g>
    </g>
    <g id="line2d_41">
     <path d="M 99 128.854688 
L 119 128.854688 
" style="fill:none;stroke:#2ca02c;stroke-linecap:square;stroke-width:1.5;"/>
    </g>
    <g id="line2d_42"/>
    <g id="text_19">
     <!-- SIR -->
     <g transform="translate(127 132.354688)scale(0.1 -0.1)">
      <use xlink:href="#DejaVuSans-83"/>
      <use x="63.476562" xlink:href="#DejaVuSans-73"/>
      <use x="92.96875" xlink:href="#DejaVuSans-82"/>
     </g>
    </g>
    <g id="line2d_43">
     <path d="M 99 143.532812 
L 119 143.532812 
" style="fill:none;stroke:#d62728;stroke-linecap:square;stroke-width:1.5;"/>
    </g>
    <g id="line2d_44"/>
    <g id="text_20">
     <!-- eSIR -->
     <g transform="translate(127 147.032812)scale(0.1 -0.1)">
      <use xlink:href="#DejaVuSans-101"/>
      <use x="61.523438" xlink:href="#DejaVuSans-83"/>
      <use x="125" xlink:href="#DejaVuSans-73"/>
      <use x="154.492188" xlink:href="#DejaVuSans-82"/>
     </g>
    </g>
    <g id="line2d_45">
     <path d="M 99 158.210938 
L 119 158.210938 
" style="fill:none;stroke:#9467bd;stroke-linecap:square;stroke-width:1.5;"/>
    </g>
    <g id="line2d_46"/>
    <g id="text_21">
     <!-- SEIR -->
     <g transform="translate(127 161.710938)scale(0.1 -0.1)">
      <defs>
       <path d="M 9.8125 72.90625 
L 55.90625 72.90625 
L 55.90625 64.59375 
L 19.671875 64.59375 
L 19.671875 43.015625 
L 54.390625 43.015625 
L 54.390625 34.71875 
L 19.671875 34.71875 
L 19.671875 8.296875 
L 56.78125 8.296875 
L 56.78125 0 
L 9.8125 0 
z
" id="DejaVuSans-69"/>
      </defs>
      <use xlink:href="#DejaVuSans-83"/>
      <use x="63.476562" xlink:href="#DejaVuSans-69"/>
      <use x="126.660156" xlink:href="#DejaVuSans-73"/>
      <use x="156.152344" xlink:href="#DejaVuSans-82"/>
     </g>
    </g>
    <g id="line2d_47">
     <path d="M 99 172.889063 
L 119 172.889063 
" style="fill:none;stroke:#8c564b;stroke-linecap:square;stroke-width:1.5;"/>
    </g>
    <g id="line2d_48"/>
    <g id="text_22">
     <!-- eSEIR -->
     <g transform="translate(127 176.389063)scale(0.1 -0.1)">
      <use xlink:href="#DejaVuSans-101"/>
      <use x="61.523438" xlink:href="#DejaVuSans-83"/>
      <use x="125" xlink:href="#DejaVuSans-69"/>
      <use x="188.183594" xlink:href="#DejaVuSans-73"/>
      <use x="217.675781" xlink:href="#DejaVuSans-82"/>
     </g>
    </g>
    <g id="line2d_49">
     <path d="M 99 187.567188 
L 119 187.567188 
" style="fill:none;stroke:#e377c2;stroke-linecap:square;stroke-width:1.5;"/>
    </g>
    <g id="line2d_50"/>
    <g id="text_23">
     <!-- SEIUR -->
     <g transform="translate(127 191.067188)scale(0.1 -0.1)">
      <defs>
       <path d="M 8.6875 72.90625 
L 18.609375 72.90625 
L 18.609375 28.609375 
Q 18.609375 16.890625 22.84375 11.734375 
Q 27.09375 6.59375 36.625 6.59375 
Q 46.09375 6.59375 50.34375 11.734375 
Q 54.59375 16.890625 54.59375 28.609375 
L 54.59375 72.90625 
L 64.5 72.90625 
L 64.5 27.390625 
Q 64.5 13.140625 57.4375 5.859375 
Q 50.390625 -1.421875 36.625 -1.421875 
Q 22.796875 -1.421875 15.734375 5.859375 
Q 8.6875 13.140625 8.6875 27.390625 
z
" id="DejaVuSans-85"/>
      </defs>
      <use xlink:href="#DejaVuSans-83"/>
      <use x="63.476562" xlink:href="#DejaVuSans-69"/>
      <use x="126.660156" xlink:href="#DejaVuSans-73"/>
      <use x="156.152344" xlink:href="#DejaVuSans-85"/>
      <use x="229.345703" xlink:href="#DejaVuSans-82"/>
     </g>
    </g>
    <g id="line2d_51">
     <path d="M 99 202.245312 
L 119 202.245312 
" style="fill:none;stroke:#7f7f7f;stroke-linecap:square;stroke-width:1.5;"/>
    </g>
    <g id="line2d_52"/>
    <g id="text_24">
     <!-- eSEIUR -->
     <g transform="translate(127 205.745312)scale(0.1 -0.1)">
      <use xlink:href="#DejaVuSans-101"/>
      <use x="61.523438" xlink:href="#DejaVuSans-83"/>
      <use x="125" xlink:href="#DejaVuSans-69"/>
      <use x="188.183594" xlink:href="#DejaVuSans-73"/>
      <use x="217.675781" xlink:href="#DejaVuSans-85"/>
      <use x="290.869141" xlink:href="#DejaVuSans-82"/>
     </g>
    </g>
    <g id="line2d_53">
     <path d="M 99 216.923437 
L 119 216.923437 
" style="fill:none;stroke:#bcbd22;stroke-linecap:square;stroke-width:1.5;"/>
    </g>
    <g id="line2d_54"/>
    <g id="text_25">
     <!-- eSEIUR$^{range}$ -->
     <g transform="translate(127 220.423437)scale(0.1 -0.1)">
      <defs>
       <path d="M 44.578125 46.390625 
Q 43.21875 47.125 41.453125 47.515625 
Q 39.703125 47.90625 37.703125 47.90625 
Q 30.515625 47.90625 25.140625 42.453125 
Q 19.78125 37.015625 18.015625 27.875 
L 12.5 0 
L 3.515625 0 
L 14.203125 54.6875 
L 23.1875 54.6875 
L 21.484375 46.1875 
Q 25.046875 50.921875 30 53.453125 
Q 34.96875 56 40.578125 56 
Q 42.046875 56 43.453125 55.828125 
Q 44.875 55.671875 46.296875 55.28125 
z
" id="DejaVuSans-Oblique-114"/>
       <path d="M 53.71875 31.203125 
L 47.609375 0 
L 38.625 0 
L 40.28125 8.296875 
Q 36.328125 3.421875 31.265625 1 
Q 26.21875 -1.421875 20.015625 -1.421875 
Q 13.03125 -1.421875 8.5625 2.84375 
Q 4.109375 7.125 4.109375 13.8125 
Q 4.109375 23.390625 11.75 28.953125 
Q 19.390625 34.515625 32.8125 34.515625 
L 45.3125 34.515625 
L 45.796875 36.921875 
Q 45.90625 37.3125 45.953125 37.765625 
Q 46 38.234375 46 39.203125 
Q 46 43.5625 42.453125 45.96875 
Q 38.921875 48.390625 32.515625 48.390625 
Q 28.125 48.390625 23.5 47.265625 
Q 18.890625 46.140625 14.015625 43.890625 
L 15.578125 52.203125 
Q 20.65625 54.109375 25.515625 55.046875 
Q 30.375 56 34.90625 56 
Q 44.578125 56 49.625 51.796875 
Q 54.6875 47.609375 54.6875 39.59375 
Q 54.6875 37.984375 54.4375 35.8125 
Q 54.203125 33.640625 53.71875 31.203125 
z
M 44 27.484375 
L 35.015625 27.484375 
Q 23.96875 27.484375 18.671875 24.53125 
Q 13.375 21.578125 13.375 15.375 
Q 13.375 11.078125 16.078125 8.640625 
Q 18.796875 6.203125 23.578125 6.203125 
Q 30.90625 6.203125 36.375 11.453125 
Q 41.84375 16.703125 43.609375 25.484375 
z
" id="DejaVuSans-Oblique-97"/>
       <path d="M 55.71875 33.015625 
L 49.3125 0 
L 40.28125 0 
L 46.6875 32.671875 
Q 47.125 34.96875 47.359375 36.71875 
Q 47.609375 38.484375 47.609375 39.5 
Q 47.609375 43.609375 45.015625 45.890625 
Q 42.4375 48.1875 37.796875 48.1875 
Q 30.5625 48.1875 25.34375 43.375 
Q 20.125 38.578125 18.5 30.328125 
L 12.5 0 
L 3.515625 0 
L 14.109375 54.6875 
L 23.09375 54.6875 
L 21.296875 46.09375 
Q 25.046875 50.828125 30.3125 53.40625 
Q 35.59375 56 41.40625 56 
Q 48.640625 56 52.609375 52.09375 
Q 56.59375 48.1875 56.59375 41.109375 
Q 56.59375 39.359375 56.375 37.359375 
Q 56.15625 35.359375 55.71875 33.015625 
z
" id="DejaVuSans-Oblique-110"/>
       <path d="M 59.625 54.6875 
L 50.296875 6.78125 
Q 47.609375 -7.125 40.015625 -13.953125 
Q 32.421875 -20.796875 19.578125 -20.796875 
Q 14.84375 -20.796875 10.78125 -20.09375 
Q 6.734375 -19.390625 3.21875 -17.921875 
L 4.890625 -9.1875 
Q 8.203125 -11.328125 11.90625 -12.34375 
Q 15.625 -13.375 19.828125 -13.375 
Q 28.375 -13.375 33.859375 -8.703125 
Q 39.359375 -4.046875 41.109375 4.6875 
L 41.890625 8.796875 
Q 38.140625 4.5 33.15625 2.25 
Q 28.171875 0 22.40625 0 
Q 14.109375 0 9.34375 5.484375 
Q 4.59375 10.984375 4.59375 20.609375 
Q 4.59375 28.171875 7.46875 35.421875 
Q 10.359375 42.671875 15.578125 48.296875 
Q 19.046875 52 23.65625 54 
Q 28.265625 56 33.296875 56 
Q 38.8125 56 42.90625 53.4375 
Q 47.015625 50.875 49.03125 46.1875 
L 50.59375 54.6875 
z
M 46.09375 34.625 
Q 46.09375 41.265625 42.96875 44.875 
Q 39.84375 48.484375 34.078125 48.484375 
Q 30.515625 48.484375 27.296875 47.0625 
Q 24.078125 45.65625 21.78125 43.109375 
Q 18.0625 38.921875 15.984375 33.234375 
Q 13.921875 27.546875 13.921875 21.484375 
Q 13.921875 14.75 17.0625 11.125 
Q 20.21875 7.515625 26.125 7.515625 
Q 34.671875 7.515625 40.375 15.25 
Q 46.09375 23 46.09375 34.625 
z
" id="DejaVuSans-Oblique-103"/>
       <path d="M 48.09375 32.234375 
Q 48.25 33.015625 48.3125 33.84375 
Q 48.390625 34.671875 48.390625 35.5 
Q 48.390625 41.453125 44.890625 44.921875 
Q 41.40625 48.390625 35.40625 48.390625 
Q 28.71875 48.390625 23.578125 44.15625 
Q 18.453125 39.9375 15.828125 32.171875 
z
M 55.90625 25.203125 
L 14.109375 25.203125 
Q 13.8125 23.34375 13.71875 22.265625 
Q 13.625 21.1875 13.625 20.40625 
Q 13.625 13.625 17.796875 9.90625 
Q 21.96875 6.203125 29.59375 6.203125 
Q 35.453125 6.203125 40.671875 7.515625 
Q 45.90625 8.84375 50.390625 11.375 
L 48.6875 2.484375 
Q 43.84375 0.53125 38.6875 -0.4375 
Q 33.546875 -1.421875 28.21875 -1.421875 
Q 16.84375 -1.421875 10.71875 4.015625 
Q 4.59375 9.46875 4.59375 19.484375 
Q 4.59375 28.03125 7.640625 35.375 
Q 10.6875 42.71875 16.609375 48.484375 
Q 20.40625 52.09375 25.65625 54.046875 
Q 30.90625 56 36.8125 56 
Q 46.09375 56 51.578125 50.4375 
Q 57.078125 44.875 57.078125 35.5 
Q 57.078125 33.25 56.78125 30.6875 
Q 56.5 28.125 55.90625 25.203125 
z
" id="DejaVuSans-Oblique-101"/>
      </defs>
      <use transform="translate(0 0.51875)" xlink:href="#DejaVuSans-101"/>
      <use transform="translate(61.523438 0.51875)" xlink:href="#DejaVuSans-83"/>
      <use transform="translate(125 0.51875)" xlink:href="#DejaVuSans-69"/>
      <use transform="translate(188.183594 0.51875)" xlink:href="#DejaVuSans-73"/>
      <use transform="translate(217.675781 0.51875)" xlink:href="#DejaVuSans-85"/>
      <use transform="translate(288.619141 0.51875)" xlink:href="#DejaVuSans-82"/>
      <use transform="translate(359.058594 38.8)scale(0.7)" xlink:href="#DejaVuSans-Oblique-114"/>
      <use transform="translate(387.837891 38.8)scale(0.7)" xlink:href="#DejaVuSans-Oblique-97"/>
      <use transform="translate(430.733398 38.8)scale(0.7)" xlink:href="#DejaVuSans-Oblique-110"/>
      <use transform="translate(475.098633 38.8)scale(0.7)" xlink:href="#DejaVuSans-Oblique-103"/>
      <use transform="translate(519.532227 38.8)scale(0.7)" xlink:href="#DejaVuSans-Oblique-101"/>
     </g>
    </g>
   </g>
  </g>
 </g>
 <defs>
  <clipPath id="pc4a13fe164">
   <rect height="543.6" width="558" x="90" y="86.4"/>
  </clipPath>
 </defs>
</svg>
