<?xml version="1.0" encoding="utf-8" standalone="no"?>
<!DOCTYPE svg PUBLIC "-//W3C//DTD SVG 1.1//EN"
  "http://www.w3.org/Graphics/SVG/1.1/DTD/svg11.dtd">
<!-- Created with matplotlib (https://matplotlib.org/) -->
<svg height="720pt" version="1.1" viewBox="0 0 720 720" width="720pt" xmlns="http://www.w3.org/2000/svg" xmlns:xlink="http://www.w3.org/1999/xlink">
 <metadata>
  <rdf:RDF xmlns:cc="http://creativecommons.org/ns#" xmlns:dc="http://purl.org/dc/elements/1.1/" xmlns:rdf="http://www.w3.org/1999/02/22-rdf-syntax-ns#">
   <cc:Work>
    <dc:type rdf:resource="http://purl.org/dc/dcmitype/StillImage"/>
    <dc:date>2022-10-11T20:58:39.984613</dc:date>
    <dc:format>image/svg+xml</dc:format>
    <dc:creator>
     <cc:Agent>
      <dc:title>Matplotlib v3.3.2, https://matplotlib.org/</dc:title>
     </cc:Agent>
    </dc:creator>
   </cc:Work>
  </rdf:RDF>
 </metadata>
 <defs>
  <style type="text/css">*{stroke-linecap:butt;stroke-linejoin:round;}</style>
 </defs>
 <g id="figure_1">
  <g id="patch_1">
   <path d="M 0 720 
L 720 720 
L 720 0 
L 0 0 
z
" style="fill:none;"/>
  </g>
  <g id="axes_1">
   <g id="patch_2">
    <path d="M 90 630 
L 648 630 
L 648 86.4 
L 90 86.4 
z
" style="fill:#ffffff;"/>
   </g>
   <g id="matplotlib.axis_1">
    <g id="xtick_1">
     <g id="line2d_1">
      <path clip-path="url(#pfaa4ffad90)" d="M 115.363636 630 
L 115.363636 86.4 
" style="fill:none;stroke:#b0b0b0;stroke-linecap:square;stroke-width:0.8;"/>
     </g>
     <g id="line2d_2">
      <defs>
       <path d="M 0 0 
L 0 3.5 
" id="m1e7887e8f7" style="stroke:#000000;stroke-width:0.8;"/>
      </defs>
      <g>
       <use style="stroke:#000000;stroke-width:0.8;" x="115.363636" xlink:href="#m1e7887e8f7" y="630"/>
      </g>
     </g>
     <g id="text_1">
      <!-- 0 -->
      <g transform="translate(112.182386 644.598438)scale(0.1 -0.1)">
       <defs>
        <path d="M 31.78125 66.40625 
Q 24.171875 66.40625 20.328125 58.90625 
Q 16.5 51.421875 16.5 36.375 
Q 16.5 21.390625 20.328125 13.890625 
Q 24.171875 6.390625 31.78125 6.390625 
Q 39.453125 6.390625 43.28125 13.890625 
Q 47.125 21.390625 47.125 36.375 
Q 47.125 51.421875 43.28125 58.90625 
Q 39.453125 66.40625 31.78125 66.40625 
z
M 31.78125 74.21875 
Q 44.046875 74.21875 50.515625 64.515625 
Q 56.984375 54.828125 56.984375 36.375 
Q 56.984375 17.96875 50.515625 8.265625 
Q 44.046875 -1.421875 31.78125 -1.421875 
Q 19.53125 -1.421875 13.0625 8.265625 
Q 6.59375 17.96875 6.59375 36.375 
Q 6.59375 54.828125 13.0625 64.515625 
Q 19.53125 74.21875 31.78125 74.21875 
z
" id="DejaVuSans-48"/>
       </defs>
       <use xlink:href="#DejaVuSans-48"/>
      </g>
     </g>
    </g>
    <g id="xtick_2">
     <g id="line2d_3">
      <path clip-path="url(#pfaa4ffad90)" d="M 184.286561 630 
L 184.286561 86.4 
" style="fill:none;stroke:#b0b0b0;stroke-linecap:square;stroke-width:0.8;"/>
     </g>
     <g id="line2d_4">
      <g>
       <use style="stroke:#000000;stroke-width:0.8;" x="184.286561" xlink:href="#m1e7887e8f7" y="630"/>
      </g>
     </g>
     <g id="text_2">
      <!-- 25 -->
      <g transform="translate(177.924061 644.598438)scale(0.1 -0.1)">
       <defs>
        <path d="M 19.1875 8.296875 
L 53.609375 8.296875 
L 53.609375 0 
L 7.328125 0 
L 7.328125 8.296875 
Q 12.9375 14.109375 22.625 23.890625 
Q 32.328125 33.6875 34.8125 36.53125 
Q 39.546875 41.84375 41.421875 45.53125 
Q 43.3125 49.21875 43.3125 52.78125 
Q 43.3125 58.59375 39.234375 62.25 
Q 35.15625 65.921875 28.609375 65.921875 
Q 23.96875 65.921875 18.8125 64.3125 
Q 13.671875 62.703125 7.8125 59.421875 
L 7.8125 69.390625 
Q 13.765625 71.78125 18.9375 73 
Q 24.125 74.21875 28.421875 74.21875 
Q 39.75 74.21875 46.484375 68.546875 
Q 53.21875 62.890625 53.21875 53.421875 
Q 53.21875 48.921875 51.53125 44.890625 
Q 49.859375 40.875 45.40625 35.40625 
Q 44.1875 33.984375 37.640625 27.21875 
Q 31.109375 20.453125 19.1875 8.296875 
z
" id="DejaVuSans-50"/>
        <path d="M 10.796875 72.90625 
L 49.515625 72.90625 
L 49.515625 64.59375 
L 19.828125 64.59375 
L 19.828125 46.734375 
Q 21.96875 47.46875 24.109375 47.828125 
Q 26.265625 48.1875 28.421875 48.1875 
Q 40.625 48.1875 47.75 41.5 
Q 54.890625 34.8125 54.890625 23.390625 
Q 54.890625 11.625 47.5625 5.09375 
Q 40.234375 -1.421875 26.90625 -1.421875 
Q 22.3125 -1.421875 17.546875 -0.640625 
Q 12.796875 0.140625 7.71875 1.703125 
L 7.71875 11.625 
Q 12.109375 9.234375 16.796875 8.0625 
Q 21.484375 6.890625 26.703125 6.890625 
Q 35.15625 6.890625 40.078125 11.328125 
Q 45.015625 15.765625 45.015625 23.390625 
Q 45.015625 31 40.078125 35.4375 
Q 35.15625 39.890625 26.703125 39.890625 
Q 22.75 39.890625 18.8125 39.015625 
Q 14.890625 38.140625 10.796875 36.28125 
z
" id="DejaVuSans-53"/>
       </defs>
       <use xlink:href="#DejaVuSans-50"/>
       <use x="63.623047" xlink:href="#DejaVuSans-53"/>
      </g>
     </g>
    </g>
    <g id="xtick_3">
     <g id="line2d_5">
      <path clip-path="url(#pfaa4ffad90)" d="M 253.209486 630 
L 253.209486 86.4 
" style="fill:none;stroke:#b0b0b0;stroke-linecap:square;stroke-width:0.8;"/>
     </g>
     <g id="line2d_6">
      <g>
       <use style="stroke:#000000;stroke-width:0.8;" x="253.209486" xlink:href="#m1e7887e8f7" y="630"/>
      </g>
     </g>
     <g id="text_3">
      <!-- 50 -->
      <g transform="translate(246.846986 644.598438)scale(0.1 -0.1)">
       <use xlink:href="#DejaVuSans-53"/>
       <use x="63.623047" xlink:href="#DejaVuSans-48"/>
      </g>
     </g>
    </g>
    <g id="xtick_4">
     <g id="line2d_7">
      <path clip-path="url(#pfaa4ffad90)" d="M 322.132411 630 
L 322.132411 86.4 
" style="fill:none;stroke:#b0b0b0;stroke-linecap:square;stroke-width:0.8;"/>
     </g>
     <g id="line2d_8">
      <g>
       <use style="stroke:#000000;stroke-width:0.8;" x="322.132411" xlink:href="#m1e7887e8f7" y="630"/>
      </g>
     </g>
     <g id="text_4">
      <!-- 75 -->
      <g transform="translate(315.769911 644.598438)scale(0.1 -0.1)">
       <defs>
        <path d="M 8.203125 72.90625 
L 55.078125 72.90625 
L 55.078125 68.703125 
L 28.609375 0 
L 18.3125 0 
L 43.21875 64.59375 
L 8.203125 64.59375 
z
" id="DejaVuSans-55"/>
       </defs>
       <use xlink:href="#DejaVuSans-55"/>
       <use x="63.623047" xlink:href="#DejaVuSans-53"/>
      </g>
     </g>
    </g>
    <g id="xtick_5">
     <g id="line2d_9">
      <path clip-path="url(#pfaa4ffad90)" d="M 391.055336 630 
L 391.055336 86.4 
" style="fill:none;stroke:#b0b0b0;stroke-linecap:square;stroke-width:0.8;"/>
     </g>
     <g id="line2d_10">
      <g>
       <use style="stroke:#000000;stroke-width:0.8;" x="391.055336" xlink:href="#m1e7887e8f7" y="630"/>
      </g>
     </g>
     <g id="text_5">
      <!-- 100 -->
      <g transform="translate(381.511586 644.598438)scale(0.1 -0.1)">
       <defs>
        <path d="M 12.40625 8.296875 
L 28.515625 8.296875 
L 28.515625 63.921875 
L 10.984375 60.40625 
L 10.984375 69.390625 
L 28.421875 72.90625 
L 38.28125 72.90625 
L 38.28125 8.296875 
L 54.390625 8.296875 
L 54.390625 0 
L 12.40625 0 
z
" id="DejaVuSans-49"/>
       </defs>
       <use xlink:href="#DejaVuSans-49"/>
       <use x="63.623047" xlink:href="#DejaVuSans-48"/>
       <use x="127.246094" xlink:href="#DejaVuSans-48"/>
      </g>
     </g>
    </g>
    <g id="xtick_6">
     <g id="line2d_11">
      <path clip-path="url(#pfaa4ffad90)" d="M 459.978261 630 
L 459.978261 86.4 
" style="fill:none;stroke:#b0b0b0;stroke-linecap:square;stroke-width:0.8;"/>
     </g>
     <g id="line2d_12">
      <g>
       <use style="stroke:#000000;stroke-width:0.8;" x="459.978261" xlink:href="#m1e7887e8f7" y="630"/>
      </g>
     </g>
     <g id="text_6">
      <!-- 125 -->
      <g transform="translate(450.434511 644.598438)scale(0.1 -0.1)">
       <use xlink:href="#DejaVuSans-49"/>
       <use x="63.623047" xlink:href="#DejaVuSans-50"/>
       <use x="127.246094" xlink:href="#DejaVuSans-53"/>
      </g>
     </g>
    </g>
    <g id="xtick_7">
     <g id="line2d_13">
      <path clip-path="url(#pfaa4ffad90)" d="M 528.901186 630 
L 528.901186 86.4 
" style="fill:none;stroke:#b0b0b0;stroke-linecap:square;stroke-width:0.8;"/>
     </g>
     <g id="line2d_14">
      <g>
       <use style="stroke:#000000;stroke-width:0.8;" x="528.901186" xlink:href="#m1e7887e8f7" y="630"/>
      </g>
     </g>
     <g id="text_7">
      <!-- 150 -->
      <g transform="translate(519.357436 644.598438)scale(0.1 -0.1)">
       <use xlink:href="#DejaVuSans-49"/>
       <use x="63.623047" xlink:href="#DejaVuSans-53"/>
       <use x="127.246094" xlink:href="#DejaVuSans-48"/>
      </g>
     </g>
    </g>
    <g id="xtick_8">
     <g id="line2d_15">
      <path clip-path="url(#pfaa4ffad90)" d="M 597.824111 630 
L 597.824111 86.4 
" style="fill:none;stroke:#b0b0b0;stroke-linecap:square;stroke-width:0.8;"/>
     </g>
     <g id="line2d_16">
      <g>
       <use style="stroke:#000000;stroke-width:0.8;" x="597.824111" xlink:href="#m1e7887e8f7" y="630"/>
      </g>
     </g>
     <g id="text_8">
      <!-- 175 -->
      <g transform="translate(588.280361 644.598438)scale(0.1 -0.1)">
       <use xlink:href="#DejaVuSans-49"/>
       <use x="63.623047" xlink:href="#DejaVuSans-55"/>
       <use x="127.246094" xlink:href="#DejaVuSans-53"/>
      </g>
     </g>
    </g>
    <g id="text_9">
     <!-- Days -->
     <g transform="translate(356.521875 658.276562)scale(0.1 -0.1)">
      <defs>
       <path d="M 19.671875 64.796875 
L 19.671875 8.109375 
L 31.59375 8.109375 
Q 46.6875 8.109375 53.6875 14.9375 
Q 60.6875 21.78125 60.6875 36.53125 
Q 60.6875 51.171875 53.6875 57.984375 
Q 46.6875 64.796875 31.59375 64.796875 
z
M 9.8125 72.90625 
L 30.078125 72.90625 
Q 51.265625 72.90625 61.171875 64.09375 
Q 71.09375 55.28125 71.09375 36.53125 
Q 71.09375 17.671875 61.125 8.828125 
Q 51.171875 0 30.078125 0 
L 9.8125 0 
z
" id="DejaVuSans-68"/>
       <path d="M 34.28125 27.484375 
Q 23.390625 27.484375 19.1875 25 
Q 14.984375 22.515625 14.984375 16.5 
Q 14.984375 11.71875 18.140625 8.90625 
Q 21.296875 6.109375 26.703125 6.109375 
Q 34.1875 6.109375 38.703125 11.40625 
Q 43.21875 16.703125 43.21875 25.484375 
L 43.21875 27.484375 
z
M 52.203125 31.203125 
L 52.203125 0 
L 43.21875 0 
L 43.21875 8.296875 
Q 40.140625 3.328125 35.546875 0.953125 
Q 30.953125 -1.421875 24.3125 -1.421875 
Q 15.921875 -1.421875 10.953125 3.296875 
Q 6 8.015625 6 15.921875 
Q 6 25.140625 12.171875 29.828125 
Q 18.359375 34.515625 30.609375 34.515625 
L 43.21875 34.515625 
L 43.21875 35.40625 
Q 43.21875 41.609375 39.140625 45 
Q 35.0625 48.390625 27.6875 48.390625 
Q 23 48.390625 18.546875 47.265625 
Q 14.109375 46.140625 10.015625 43.890625 
L 10.015625 52.203125 
Q 14.9375 54.109375 19.578125 55.046875 
Q 24.21875 56 28.609375 56 
Q 40.484375 56 46.34375 49.84375 
Q 52.203125 43.703125 52.203125 31.203125 
z
" id="DejaVuSans-97"/>
       <path d="M 32.171875 -5.078125 
Q 28.375 -14.84375 24.75 -17.8125 
Q 21.140625 -20.796875 15.09375 -20.796875 
L 7.90625 -20.796875 
L 7.90625 -13.28125 
L 13.1875 -13.28125 
Q 16.890625 -13.28125 18.9375 -11.515625 
Q 21 -9.765625 23.484375 -3.21875 
L 25.09375 0.875 
L 2.984375 54.6875 
L 12.5 54.6875 
L 29.59375 11.921875 
L 46.6875 54.6875 
L 56.203125 54.6875 
z
" id="DejaVuSans-121"/>
       <path d="M 44.28125 53.078125 
L 44.28125 44.578125 
Q 40.484375 46.53125 36.375 47.5 
Q 32.28125 48.484375 27.875 48.484375 
Q 21.1875 48.484375 17.84375 46.4375 
Q 14.5 44.390625 14.5 40.28125 
Q 14.5 37.15625 16.890625 35.375 
Q 19.28125 33.59375 26.515625 31.984375 
L 29.59375 31.296875 
Q 39.15625 29.25 43.1875 25.515625 
Q 47.21875 21.78125 47.21875 15.09375 
Q 47.21875 7.46875 41.1875 3.015625 
Q 35.15625 -1.421875 24.609375 -1.421875 
Q 20.21875 -1.421875 15.453125 -0.5625 
Q 10.6875 0.296875 5.421875 2 
L 5.421875 11.28125 
Q 10.40625 8.6875 15.234375 7.390625 
Q 20.0625 6.109375 24.8125 6.109375 
Q 31.15625 6.109375 34.5625 8.28125 
Q 37.984375 10.453125 37.984375 14.40625 
Q 37.984375 18.0625 35.515625 20.015625 
Q 33.0625 21.96875 24.703125 23.78125 
L 21.578125 24.515625 
Q 13.234375 26.265625 9.515625 29.90625 
Q 5.8125 33.546875 5.8125 39.890625 
Q 5.8125 47.609375 11.28125 51.796875 
Q 16.75 56 26.8125 56 
Q 31.78125 56 36.171875 55.265625 
Q 40.578125 54.546875 44.28125 53.078125 
z
" id="DejaVuSans-115"/>
      </defs>
      <use xlink:href="#DejaVuSans-68"/>
      <use x="77.001953" xlink:href="#DejaVuSans-97"/>
      <use x="138.28125" xlink:href="#DejaVuSans-121"/>
      <use x="197.460938" xlink:href="#DejaVuSans-115"/>
     </g>
    </g>
   </g>
   <g id="matplotlib.axis_2">
    <g id="ytick_1">
     <g id="line2d_17">
      <path clip-path="url(#pfaa4ffad90)" d="M 90 606.371632 
L 648 606.371632 
" style="fill:none;stroke:#b0b0b0;stroke-linecap:square;stroke-width:0.8;"/>
     </g>
     <g id="line2d_18">
      <defs>
       <path d="M 0 0 
L -3.5 0 
" id="mbd39a2a0f3" style="stroke:#000000;stroke-width:0.8;"/>
      </defs>
      <g>
       <use style="stroke:#000000;stroke-width:0.8;" x="90" xlink:href="#mbd39a2a0f3" y="606.371632"/>
      </g>
     </g>
     <g id="text_10">
      <!-- 0 -->
      <g transform="translate(76.6375 610.170851)scale(0.1 -0.1)">
       <use xlink:href="#DejaVuSans-48"/>
      </g>
     </g>
    </g>
    <g id="ytick_2">
     <g id="line2d_19">
      <path clip-path="url(#pfaa4ffad90)" d="M 90 512.395727 
L 648 512.395727 
" style="fill:none;stroke:#b0b0b0;stroke-linecap:square;stroke-width:0.8;"/>
     </g>
     <g id="line2d_20">
      <g>
       <use style="stroke:#000000;stroke-width:0.8;" x="90" xlink:href="#mbd39a2a0f3" y="512.395727"/>
      </g>
     </g>
     <g id="text_11">
      <!-- 2000 -->
      <g transform="translate(57.55 516.194945)scale(0.1 -0.1)">
       <use xlink:href="#DejaVuSans-50"/>
       <use x="63.623047" xlink:href="#DejaVuSans-48"/>
       <use x="127.246094" xlink:href="#DejaVuSans-48"/>
       <use x="190.869141" xlink:href="#DejaVuSans-48"/>
      </g>
     </g>
    </g>
    <g id="ytick_3">
     <g id="line2d_21">
      <path clip-path="url(#pfaa4ffad90)" d="M 90 418.419821 
L 648 418.419821 
" style="fill:none;stroke:#b0b0b0;stroke-linecap:square;stroke-width:0.8;"/>
     </g>
     <g id="line2d_22">
      <g>
       <use style="stroke:#000000;stroke-width:0.8;" x="90" xlink:href="#mbd39a2a0f3" y="418.419821"/>
      </g>
     </g>
     <g id="text_12">
      <!-- 4000 -->
      <g transform="translate(57.55 422.21904)scale(0.1 -0.1)">
       <defs>
        <path d="M 37.796875 64.3125 
L 12.890625 25.390625 
L 37.796875 25.390625 
z
M 35.203125 72.90625 
L 47.609375 72.90625 
L 47.609375 25.390625 
L 58.015625 25.390625 
L 58.015625 17.1875 
L 47.609375 17.1875 
L 47.609375 0 
L 37.796875 0 
L 37.796875 17.1875 
L 4.890625 17.1875 
L 4.890625 26.703125 
z
" id="DejaVuSans-52"/>
       </defs>
       <use xlink:href="#DejaVuSans-52"/>
       <use x="63.623047" xlink:href="#DejaVuSans-48"/>
       <use x="127.246094" xlink:href="#DejaVuSans-48"/>
       <use x="190.869141" xlink:href="#DejaVuSans-48"/>
      </g>
     </g>
    </g>
    <g id="ytick_4">
     <g id="line2d_23">
      <path clip-path="url(#pfaa4ffad90)" d="M 90 324.443916 
L 648 324.443916 
" style="fill:none;stroke:#b0b0b0;stroke-linecap:square;stroke-width:0.8;"/>
     </g>
     <g id="line2d_24">
      <g>
       <use style="stroke:#000000;stroke-width:0.8;" x="90" xlink:href="#mbd39a2a0f3" y="324.443916"/>
      </g>
     </g>
     <g id="text_13">
      <!-- 6000 -->
      <g transform="translate(57.55 328.243135)scale(0.1 -0.1)">
       <defs>
        <path d="M 33.015625 40.375 
Q 26.375 40.375 22.484375 35.828125 
Q 18.609375 31.296875 18.609375 23.390625 
Q 18.609375 15.53125 22.484375 10.953125 
Q 26.375 6.390625 33.015625 6.390625 
Q 39.65625 6.390625 43.53125 10.953125 
Q 47.40625 15.53125 47.40625 23.390625 
Q 47.40625 31.296875 43.53125 35.828125 
Q 39.65625 40.375 33.015625 40.375 
z
M 52.59375 71.296875 
L 52.59375 62.3125 
Q 48.875 64.0625 45.09375 64.984375 
Q 41.3125 65.921875 37.59375 65.921875 
Q 27.828125 65.921875 22.671875 59.328125 
Q 17.53125 52.734375 16.796875 39.40625 
Q 19.671875 43.65625 24.015625 45.921875 
Q 28.375 48.1875 33.59375 48.1875 
Q 44.578125 48.1875 50.953125 41.515625 
Q 57.328125 34.859375 57.328125 23.390625 
Q 57.328125 12.15625 50.6875 5.359375 
Q 44.046875 -1.421875 33.015625 -1.421875 
Q 20.359375 -1.421875 13.671875 8.265625 
Q 6.984375 17.96875 6.984375 36.375 
Q 6.984375 53.65625 15.1875 63.9375 
Q 23.390625 74.21875 37.203125 74.21875 
Q 40.921875 74.21875 44.703125 73.484375 
Q 48.484375 72.75 52.59375 71.296875 
z
" id="DejaVuSans-54"/>
       </defs>
       <use xlink:href="#DejaVuSans-54"/>
       <use x="63.623047" xlink:href="#DejaVuSans-48"/>
       <use x="127.246094" xlink:href="#DejaVuSans-48"/>
       <use x="190.869141" xlink:href="#DejaVuSans-48"/>
      </g>
     </g>
    </g>
    <g id="ytick_5">
     <g id="line2d_25">
      <path clip-path="url(#pfaa4ffad90)" d="M 90 230.468011 
L 648 230.468011 
" style="fill:none;stroke:#b0b0b0;stroke-linecap:square;stroke-width:0.8;"/>
     </g>
     <g id="line2d_26">
      <g>
       <use style="stroke:#000000;stroke-width:0.8;" x="90" xlink:href="#mbd39a2a0f3" y="230.468011"/>
      </g>
     </g>
     <g id="text_14">
      <!-- 8000 -->
      <g transform="translate(57.55 234.26723)scale(0.1 -0.1)">
       <defs>
        <path d="M 31.78125 34.625 
Q 24.75 34.625 20.71875 30.859375 
Q 16.703125 27.09375 16.703125 20.515625 
Q 16.703125 13.921875 20.71875 10.15625 
Q 24.75 6.390625 31.78125 6.390625 
Q 38.8125 6.390625 42.859375 10.171875 
Q 46.921875 13.96875 46.921875 20.515625 
Q 46.921875 27.09375 42.890625 30.859375 
Q 38.875 34.625 31.78125 34.625 
z
M 21.921875 38.8125 
Q 15.578125 40.375 12.03125 44.71875 
Q 8.5 49.078125 8.5 55.328125 
Q 8.5 64.0625 14.71875 69.140625 
Q 20.953125 74.21875 31.78125 74.21875 
Q 42.671875 74.21875 48.875 69.140625 
Q 55.078125 64.0625 55.078125 55.328125 
Q 55.078125 49.078125 51.53125 44.71875 
Q 48 40.375 41.703125 38.8125 
Q 48.828125 37.15625 52.796875 32.3125 
Q 56.78125 27.484375 56.78125 20.515625 
Q 56.78125 9.90625 50.3125 4.234375 
Q 43.84375 -1.421875 31.78125 -1.421875 
Q 19.734375 -1.421875 13.25 4.234375 
Q 6.78125 9.90625 6.78125 20.515625 
Q 6.78125 27.484375 10.78125 32.3125 
Q 14.796875 37.15625 21.921875 38.8125 
z
M 18.3125 54.390625 
Q 18.3125 48.734375 21.84375 45.5625 
Q 25.390625 42.390625 31.78125 42.390625 
Q 38.140625 42.390625 41.71875 45.5625 
Q 45.3125 48.734375 45.3125 54.390625 
Q 45.3125 60.0625 41.71875 63.234375 
Q 38.140625 66.40625 31.78125 66.40625 
Q 25.390625 66.40625 21.84375 63.234375 
Q 18.3125 60.0625 18.3125 54.390625 
z
" id="DejaVuSans-56"/>
       </defs>
       <use xlink:href="#DejaVuSans-56"/>
       <use x="63.623047" xlink:href="#DejaVuSans-48"/>
       <use x="127.246094" xlink:href="#DejaVuSans-48"/>
       <use x="190.869141" xlink:href="#DejaVuSans-48"/>
      </g>
     </g>
    </g>
    <g id="ytick_6">
     <g id="line2d_27">
      <path clip-path="url(#pfaa4ffad90)" d="M 90 136.492106 
L 648 136.492106 
" style="fill:none;stroke:#b0b0b0;stroke-linecap:square;stroke-width:0.8;"/>
     </g>
     <g id="line2d_28">
      <g>
       <use style="stroke:#000000;stroke-width:0.8;" x="90" xlink:href="#mbd39a2a0f3" y="136.492106"/>
      </g>
     </g>
     <g id="text_15">
      <!-- 10000 -->
      <g transform="translate(51.1875 140.291324)scale(0.1 -0.1)">
       <use xlink:href="#DejaVuSans-49"/>
       <use x="63.623047" xlink:href="#DejaVuSans-48"/>
       <use x="127.246094" xlink:href="#DejaVuSans-48"/>
       <use x="190.869141" xlink:href="#DejaVuSans-48"/>
       <use x="254.492188" xlink:href="#DejaVuSans-48"/>
      </g>
     </g>
    </g>
    <g id="text_16">
     <!-- Cumulative cases -->
     <g transform="translate(45.107812 402.425781)rotate(-90)scale(0.1 -0.1)">
      <defs>
       <path d="M 64.40625 67.28125 
L 64.40625 56.890625 
Q 59.421875 61.53125 53.78125 63.8125 
Q 48.140625 66.109375 41.796875 66.109375 
Q 29.296875 66.109375 22.65625 58.46875 
Q 16.015625 50.828125 16.015625 36.375 
Q 16.015625 21.96875 22.65625 14.328125 
Q 29.296875 6.6875 41.796875 6.6875 
Q 48.140625 6.6875 53.78125 8.984375 
Q 59.421875 11.28125 64.40625 15.921875 
L 64.40625 5.609375 
Q 59.234375 2.09375 53.4375 0.328125 
Q 47.65625 -1.421875 41.21875 -1.421875 
Q 24.65625 -1.421875 15.125 8.703125 
Q 5.609375 18.84375 5.609375 36.375 
Q 5.609375 53.953125 15.125 64.078125 
Q 24.65625 74.21875 41.21875 74.21875 
Q 47.75 74.21875 53.53125 72.484375 
Q 59.328125 70.75 64.40625 67.28125 
z
" id="DejaVuSans-67"/>
       <path d="M 8.5 21.578125 
L 8.5 54.6875 
L 17.484375 54.6875 
L 17.484375 21.921875 
Q 17.484375 14.15625 20.5 10.265625 
Q 23.53125 6.390625 29.59375 6.390625 
Q 36.859375 6.390625 41.078125 11.03125 
Q 45.3125 15.671875 45.3125 23.6875 
L 45.3125 54.6875 
L 54.296875 54.6875 
L 54.296875 0 
L 45.3125 0 
L 45.3125 8.40625 
Q 42.046875 3.421875 37.71875 1 
Q 33.40625 -1.421875 27.6875 -1.421875 
Q 18.265625 -1.421875 13.375 4.4375 
Q 8.5 10.296875 8.5 21.578125 
z
M 31.109375 56 
z
" id="DejaVuSans-117"/>
       <path d="M 52 44.1875 
Q 55.375 50.25 60.0625 53.125 
Q 64.75 56 71.09375 56 
Q 79.640625 56 84.28125 50.015625 
Q 88.921875 44.046875 88.921875 33.015625 
L 88.921875 0 
L 79.890625 0 
L 79.890625 32.71875 
Q 79.890625 40.578125 77.09375 44.375 
Q 74.3125 48.1875 68.609375 48.1875 
Q 61.625 48.1875 57.5625 43.546875 
Q 53.515625 38.921875 53.515625 30.90625 
L 53.515625 0 
L 44.484375 0 
L 44.484375 32.71875 
Q 44.484375 40.625 41.703125 44.40625 
Q 38.921875 48.1875 33.109375 48.1875 
Q 26.21875 48.1875 22.15625 43.53125 
Q 18.109375 38.875 18.109375 30.90625 
L 18.109375 0 
L 9.078125 0 
L 9.078125 54.6875 
L 18.109375 54.6875 
L 18.109375 46.1875 
Q 21.1875 51.21875 25.484375 53.609375 
Q 29.78125 56 35.6875 56 
Q 41.65625 56 45.828125 52.96875 
Q 50 49.953125 52 44.1875 
z
" id="DejaVuSans-109"/>
       <path d="M 9.421875 75.984375 
L 18.40625 75.984375 
L 18.40625 0 
L 9.421875 0 
z
" id="DejaVuSans-108"/>
       <path d="M 18.3125 70.21875 
L 18.3125 54.6875 
L 36.8125 54.6875 
L 36.8125 47.703125 
L 18.3125 47.703125 
L 18.3125 18.015625 
Q 18.3125 11.328125 20.140625 9.421875 
Q 21.96875 7.515625 27.59375 7.515625 
L 36.8125 7.515625 
L 36.8125 0 
L 27.59375 0 
Q 17.1875 0 13.234375 3.875 
Q 9.28125 7.765625 9.28125 18.015625 
L 9.28125 47.703125 
L 2.6875 47.703125 
L 2.6875 54.6875 
L 9.28125 54.6875 
L 9.28125 70.21875 
z
" id="DejaVuSans-116"/>
       <path d="M 9.421875 54.6875 
L 18.40625 54.6875 
L 18.40625 0 
L 9.421875 0 
z
M 9.421875 75.984375 
L 18.40625 75.984375 
L 18.40625 64.59375 
L 9.421875 64.59375 
z
" id="DejaVuSans-105"/>
       <path d="M 2.984375 54.6875 
L 12.5 54.6875 
L 29.59375 8.796875 
L 46.6875 54.6875 
L 56.203125 54.6875 
L 35.6875 0 
L 23.484375 0 
z
" id="DejaVuSans-118"/>
       <path d="M 56.203125 29.59375 
L 56.203125 25.203125 
L 14.890625 25.203125 
Q 15.484375 15.921875 20.484375 11.0625 
Q 25.484375 6.203125 34.421875 6.203125 
Q 39.59375 6.203125 44.453125 7.46875 
Q 49.3125 8.734375 54.109375 11.28125 
L 54.109375 2.78125 
Q 49.265625 0.734375 44.1875 -0.34375 
Q 39.109375 -1.421875 33.890625 -1.421875 
Q 20.796875 -1.421875 13.15625 6.1875 
Q 5.515625 13.8125 5.515625 26.8125 
Q 5.515625 40.234375 12.765625 48.109375 
Q 20.015625 56 32.328125 56 
Q 43.359375 56 49.78125 48.890625 
Q 56.203125 41.796875 56.203125 29.59375 
z
M 47.21875 32.234375 
Q 47.125 39.59375 43.09375 43.984375 
Q 39.0625 48.390625 32.421875 48.390625 
Q 24.90625 48.390625 20.390625 44.140625 
Q 15.875 39.890625 15.1875 32.171875 
z
" id="DejaVuSans-101"/>
       <path id="DejaVuSans-32"/>
       <path d="M 48.78125 52.59375 
L 48.78125 44.1875 
Q 44.96875 46.296875 41.140625 47.34375 
Q 37.3125 48.390625 33.40625 48.390625 
Q 24.65625 48.390625 19.8125 42.84375 
Q 14.984375 37.3125 14.984375 27.296875 
Q 14.984375 17.28125 19.8125 11.734375 
Q 24.65625 6.203125 33.40625 6.203125 
Q 37.3125 6.203125 41.140625 7.25 
Q 44.96875 8.296875 48.78125 10.40625 
L 48.78125 2.09375 
Q 45.015625 0.34375 40.984375 -0.53125 
Q 36.96875 -1.421875 32.421875 -1.421875 
Q 20.0625 -1.421875 12.78125 6.34375 
Q 5.515625 14.109375 5.515625 27.296875 
Q 5.515625 40.671875 12.859375 48.328125 
Q 20.21875 56 33.015625 56 
Q 37.15625 56 41.109375 55.140625 
Q 45.0625 54.296875 48.78125 52.59375 
z
" id="DejaVuSans-99"/>
      </defs>
      <use xlink:href="#DejaVuSans-67"/>
      <use x="69.824219" xlink:href="#DejaVuSans-117"/>
      <use x="133.203125" xlink:href="#DejaVuSans-109"/>
      <use x="230.615234" xlink:href="#DejaVuSans-117"/>
      <use x="293.994141" xlink:href="#DejaVuSans-108"/>
      <use x="321.777344" xlink:href="#DejaVuSans-97"/>
      <use x="383.056641" xlink:href="#DejaVuSans-116"/>
      <use x="422.265625" xlink:href="#DejaVuSans-105"/>
      <use x="450.048828" xlink:href="#DejaVuSans-118"/>
      <use x="509.228516" xlink:href="#DejaVuSans-101"/>
      <use x="570.751953" xlink:href="#DejaVuSans-32"/>
      <use x="602.539062" xlink:href="#DejaVuSans-99"/>
      <use x="657.519531" xlink:href="#DejaVuSans-97"/>
      <use x="718.798828" xlink:href="#DejaVuSans-115"/>
      <use x="770.898438" xlink:href="#DejaVuSans-101"/>
      <use x="832.421875" xlink:href="#DejaVuSans-115"/>
     </g>
    </g>
   </g>
   <g id="line2d_29">
    <path clip-path="url(#pfaa4ffad90)" d="M 115.363636 605.290909 
L 131.905138 604.727609 
L 145.689723 604.040704 
L 156.717391 603.291035 
L 167.745059 602.302402 
L 176.01581 601.360023 
L 184.286561 600.202355 
L 192.557312 598.781729 
L 198.071146 597.660637 
L 203.58498 596.377608 
L 209.098814 594.910403 
L 214.612648 593.234088 
L 220.126482 591.320821 
L 225.640316 589.139662 
L 231.15415 586.656415 
L 236.667984 583.833528 
L 242.181818 580.630079 
L 247.695652 577.001874 
L 253.209486 572.901693 
L 258.72332 568.279731 
L 264.237154 563.084277 
L 266.994071 560.255039 
L 269.750988 557.262672 
L 272.507905 554.10066 
L 275.264822 550.762603 
L 278.021739 547.242286 
L 280.778656 543.533741 
L 283.535573 539.631318 
L 286.29249 535.529766 
L 289.049407 531.224312 
L 294.563241 521.985522 
L 300.077075 511.889705 
L 305.590909 500.925077 
L 311.104743 489.096208 
L 316.618577 476.426651 
L 322.132411 462.961019 
L 327.646245 448.766213 
L 333.160079 433.93156 
L 338.673913 418.567636 
L 346.944664 394.816322 
L 366.243083 338.740647 
L 371.756917 323.244514 
L 377.270751 308.241306 
L 382.784585 293.847443 
L 388.298419 280.158704 
L 393.812253 267.24865 
L 399.326087 255.168384 
L 404.839921 243.94749 
L 410.353755 233.595887 
L 415.867589 224.106319 
L 421.381423 215.457206 
L 424.13834 211.437888 
L 426.895257 207.6156 
L 429.652174 203.984917 
L 432.409091 200.540051 
L 435.166008 197.274922 
L 437.922925 194.183233 
L 443.436759 188.494261 
L 448.950593 183.420626 
L 454.464427 178.909773 
L 459.978261 174.91031 
L 465.492095 171.372918 
L 471.005929 168.250966 
L 476.519763 165.500916 
L 482.033597 163.082535 
L 487.547431 160.958961 
L 493.061265 159.096677 
L 498.575099 157.465392 
L 504.088933 156.037876 
L 509.602767 154.789766 
L 517.873518 153.207156 
L 526.144269 151.916635 
L 534.41502 150.865545 
L 542.685771 150.010292 
L 553.713439 149.113417 
L 564.741107 148.433569 
L 578.525692 147.810821 
L 595.067194 147.300265 
L 617.12253 146.880349 
L 622.636364 146.80724 
L 622.636364 146.80724 
" style="fill:none;stroke:#1f77b4;stroke-linecap:square;stroke-width:1.5;"/>
   </g>
   <g id="line2d_30">
    <path clip-path="url(#pfaa4ffad90)" d="M 115.363636 605.290909 
L 126.391304 604.133489 
L 137.418972 602.71622 
L 145.689723 601.449332 
L 153.960474 599.977155 
L 162.231225 598.268057 
L 170.501976 596.286101 
L 178.772727 593.990672 
L 184.286561 592.263915 
L 189.800395 590.362849 
L 195.314229 588.271589 
L 200.828063 585.973179 
L 206.341897 583.449598 
L 211.855731 580.681797 
L 217.369565 577.649757 
L 222.883399 574.332583 
L 228.397233 570.708642 
L 233.911067 566.755737 
L 239.424901 562.451335 
L 244.938735 557.772858 
L 250.452569 552.698027 
L 255.966403 547.205273 
L 261.480237 541.274214 
L 266.994071 534.8862 
L 272.507905 528.024908 
L 278.021739 520.676995 
L 283.535573 512.832784 
L 289.049407 504.486957 
L 294.563241 495.639254 
L 300.077075 486.295112 
L 305.590909 476.466249 
L 311.104743 466.171115 
L 316.618577 455.435212 
L 322.132411 444.291217 
L 330.403162 426.898893 
L 338.673913 408.841535 
L 349.701581 384.064545 
L 374.513834 327.926617 
L 382.784585 309.884128 
L 391.055336 292.511249 
L 396.56917 281.382355 
L 402.083004 270.662952 
L 407.596838 260.385438 
L 413.110672 250.575038 
L 418.624506 241.249937 
L 424.13834 232.421597 
L 429.652174 224.095227 
L 435.166008 216.270355 
L 440.679842 208.941484 
L 446.193676 202.098781 
L 451.70751 195.728775 
L 457.221344 189.815042 
L 462.735178 184.338853 
L 468.249012 179.279771 
L 473.762846 174.616192 
L 479.27668 170.325817 
L 484.790514 166.386062 
L 490.304348 162.774406 
L 495.818182 159.468667 
L 501.332016 156.447238 
L 506.84585 153.689257 
L 512.359684 151.17474 
L 517.873518 148.884677 
L 523.387352 146.801088 
L 528.901186 144.907057 
L 534.41502 143.186742 
L 542.685771 140.899955 
L 550.956522 138.925529 
L 559.227273 137.222976 
L 567.498024 135.756478 
L 575.768775 134.494504 
L 586.796443 133.082765 
L 597.824111 131.929884 
L 608.851779 130.989338 
L 622.636364 130.054285 
L 622.636364 130.054285 
" style="fill:none;stroke:#ff7f0e;stroke-linecap:square;stroke-width:1.5;"/>
   </g>
   <g id="line2d_31">
    <path clip-path="url(#pfaa4ffad90)" d="M 115.363636 605.290909 
L 126.391304 604.449976 
L 137.418972 603.390559 
L 145.689723 602.419902 
L 153.960474 601.267641 
L 162.231225 599.901139 
L 170.501976 598.282444 
L 178.772727 596.367641 
L 184.286561 594.901957 
L 189.800395 593.265671 
L 195.314229 591.440608 
L 200.828063 589.407074 
L 206.341897 587.143841 
L 211.855731 584.628155 
L 217.369565 581.835788 
L 222.883399 578.741141 
L 228.397233 575.3174 
L 233.911067 571.536772 
L 239.424901 567.370801 
L 244.938735 562.790777 
L 250.452569 557.768246 
L 255.966403 552.275635 
L 261.480237 546.286979 
L 266.994071 539.778756 
L 272.507905 532.730816 
L 278.021739 525.127375 
L 283.535573 516.958043 
L 289.049407 508.218846 
L 294.563241 498.913183 
L 300.077075 489.052657 
L 305.590909 478.65771 
L 311.104743 467.75801 
L 316.618577 456.392518 
L 322.132411 444.609199 
L 330.403162 426.276016 
L 338.673913 407.350622 
L 371.756917 330.734285 
L 380.027668 312.565817 
L 385.541502 300.88696 
L 391.055336 289.606015 
L 396.56917 278.757731 
L 402.083004 268.368862 
L 407.596838 258.458511 
L 413.110672 249.038659 
L 418.624506 240.11482 
L 424.13834 231.686787 
L 429.652174 223.749409 
L 435.166008 216.293368 
L 440.679842 209.305935 
L 446.193676 202.771671 
L 451.70751 196.673068 
L 457.221344 190.991118 
L 462.735178 185.705814 
L 468.249012 180.796573 
L 473.762846 176.242596 
L 479.27668 172.023159 
L 484.790514 168.117851 
L 490.304348 164.506763 
L 495.818182 161.170624 
L 501.332016 158.090914 
L 506.84585 155.24993 
L 512.359684 152.630838 
L 517.873518 150.217699 
L 523.387352 147.995473 
L 528.901186 145.950018 
L 537.171937 143.184505 
L 545.442688 140.745912 
L 553.713439 138.597157 
L 561.98419 136.70498 
L 570.254941 135.039648 
L 578.525692 133.574651 
L 589.55336 131.892591 
L 600.581028 130.476388 
L 611.608696 129.284628 
L 622.636364 128.282162 
L 622.636364 128.282162 
" style="fill:none;stroke:#2ca02c;stroke-linecap:square;stroke-width:1.5;"/>
   </g>
   <g id="line2d_32">
    <path clip-path="url(#pfaa4ffad90)" d="M 115.363636 605.290909 
L 126.391304 604.526116 
L 137.418972 603.524441 
L 145.689723 602.58316 
L 153.960474 601.446759 
L 162.231225 600.081091 
L 170.501976 598.446643 
L 178.772727 596.497931 
L 184.286561 594.998798 
L 189.800395 593.319896 
L 195.314229 591.442671 
L 200.828063 589.347108 
L 206.341897 587.011735 
L 211.855731 584.413657 
L 217.369565 581.52863 
L 222.883399 578.331195 
L 228.397233 574.794862 
L 233.911067 570.892384 
L 239.424901 566.596099 
L 244.938735 561.878377 
L 250.452569 556.712155 
L 255.966403 551.07159 
L 261.480237 544.932797 
L 266.994071 538.274695 
L 272.507905 531.07992 
L 278.021739 523.335793 
L 283.535573 515.035308 
L 289.049407 506.178075 
L 294.563241 496.771193 
L 300.077075 486.829967 
L 305.590909 476.378416 
L 311.104743 465.449518 
L 316.618577 454.085128 
L 322.132411 442.335556 
L 330.403162 424.117612 
L 341.43083 399.070593 
L 363.486166 348.570929 
L 371.756917 330.227418 
L 380.027668 312.530865 
L 385.541502 301.172895 
L 391.055336 290.211517 
L 396.56917 279.676181 
L 402.083004 269.588615 
L 407.596838 259.963271 
L 413.110672 250.807941 
L 418.624506 242.124479 
L 424.13834 233.909581 
L 429.652174 226.155586 
L 435.166008 218.851252 
L 440.679842 211.9825 
L 446.193676 205.533081 
L 451.70751 199.485184 
L 457.221344 193.819956 
L 462.735178 188.517958 
L 468.249012 183.559527 
L 473.762846 178.92509 
L 479.27668 174.595398 
L 484.790514 170.551718 
L 490.304348 166.775971 
L 495.818182 163.250828 
L 501.332016 159.959781 
L 506.84585 156.887179 
L 512.359684 154.018244 
L 517.873518 151.339074 
L 523.387352 148.836627 
L 531.658103 145.387832 
L 539.928854 142.271563 
L 548.199605 139.453799 
L 556.470356 136.904024 
L 564.741107 134.594914 
L 573.011858 132.502037 
L 581.282609 130.603563 
L 592.310277 128.341264 
L 603.337945 126.349558 
L 614.365613 124.593509 
L 622.636364 123.41285 
L 622.636364 123.41285 
" style="fill:none;stroke:#d62728;stroke-linecap:square;stroke-width:1.5;"/>
   </g>
   <g id="line2d_33">
    <path clip-path="url(#pfaa4ffad90)" d="M 115.363636 605.290909 
L 123.634387 605.140187 
L 134.662055 604.655434 
L 145.689723 603.938795 
L 156.717391 602.958694 
L 164.988142 602.003706 
L 173.258893 600.810374 
L 181.529644 599.32257 
L 187.043478 598.134118 
L 192.557312 596.761602 
L 198.071146 595.178965 
L 203.58498 593.357268 
L 209.098814 591.264645 
L 214.612648 588.866351 
L 220.126482 586.124942 
L 225.640316 583.000629 
L 231.15415 579.451838 
L 236.667984 575.436008 
L 242.181818 570.910673 
L 247.695652 565.834806 
L 253.209486 560.170448 
L 258.72332 553.884542 
L 264.237154 546.950922 
L 269.750988 539.352299 
L 275.264822 531.082116 
L 280.778656 522.146076 
L 286.29249 512.563167 
L 291.806324 502.366045 
L 297.320158 491.60066 
L 302.833992 480.325126 
L 308.347826 468.607888 
L 316.618577 450.372433 
L 327.646245 425.261242 
L 349.701581 374.723864 
L 357.972332 356.379273 
L 366.243083 338.642623 
L 371.756917 327.217269 
L 377.270751 316.143279 
L 382.784585 305.440638 
L 388.298419 295.123417 
L 393.812253 285.200505 
L 399.326087 275.676324 
L 404.839921 266.551507 
L 410.353755 257.823517 
L 415.867589 249.487208 
L 421.381423 241.535322 
L 426.895257 233.958924 
L 432.409091 226.747775 
L 437.922925 219.890655 
L 443.436759 213.375632 
L 448.950593 207.190293 
L 454.464427 201.321931 
L 459.978261 195.757705 
L 465.492095 190.484768 
L 471.005929 185.490372 
L 476.519763 180.761949 
L 482.033597 176.287182 
L 487.547431 172.054053 
L 493.061265 168.050882 
L 498.575099 164.266361 
L 504.088933 160.689568 
L 509.602767 157.309986 
L 515.116601 154.117507 
L 520.630435 151.102437 
L 528.901186 146.892278 
L 537.171937 143.030887 
L 545.442688 139.490661 
L 553.713439 136.245938 
L 561.98419 133.272907 
L 570.254941 130.549519 
L 578.525692 128.055382 
L 586.796443 125.771668 
L 595.067194 123.681008 
L 606.094862 121.166292 
L 617.12253 118.932015 
L 622.636364 117.910276 
L 622.636364 117.910276 
" style="fill:none;stroke:#9467bd;stroke-linecap:square;stroke-width:1.5;"/>
   </g>
   <g id="line2d_34">
    <path clip-path="url(#pfaa4ffad90)" d="M 115.363636 605.290909 
L 123.634387 605.204156 
L 134.662055 604.829748 
L 142.932806 604.353249 
L 151.203557 603.694332 
L 159.474308 602.828971 
L 167.745059 601.723423 
L 176.01581 600.333954 
L 181.529644 599.223544 
L 187.043478 597.944179 
L 192.557312 596.474657 
L 198.071146 594.791341 
L 203.58498 592.868102 
L 209.098814 590.676301 
L 214.612648 588.184838 
L 220.126482 585.360297 
L 225.640316 582.167199 
L 231.15415 578.568407 
L 236.667984 574.525697 
L 242.181818 570.000538 
L 247.695652 564.955076 
L 253.209486 559.353347 
L 258.72332 553.162711 
L 264.237154 546.355452 
L 269.750988 538.910516 
L 275.264822 530.815266 
L 280.778656 522.067156 
L 286.29249 512.675173 
L 291.806324 502.660896 
L 297.320158 492.059026 
L 302.833992 480.917274 
L 308.347826 469.295536 
L 313.86166 457.264363 
L 322.132411 438.624478 
L 333.160079 413.116724 
L 349.701581 374.844556 
L 357.972332 356.259237 
L 366.243083 338.309864 
L 371.756917 326.768861 
L 377.270751 315.604838 
L 382.784585 304.839719 
L 388.298419 294.487874 
L 393.812253 284.557122 
L 399.326087 275.049754 
L 404.839921 265.96351 
L 410.353755 257.292482 
L 415.867589 249.027921 
L 421.381423 241.158934 
L 426.895257 233.673064 
L 432.409091 226.556785 
L 437.922925 219.795893 
L 443.436759 213.375822 
L 448.950593 207.281887 
L 454.464427 201.499484 
L 459.978261 196.014221 
L 465.492095 190.812034 
L 471.005929 185.879258 
L 476.519763 181.202683 
L 482.033597 176.769582 
L 487.547431 172.567738 
L 493.061265 168.585446 
L 498.575099 164.811518 
L 504.088933 161.235276 
L 509.602767 157.846544 
L 517.873518 153.093957 
L 526.144269 148.710841 
L 534.41502 144.668724 
L 542.685771 140.941256 
L 550.956522 137.504075 
L 559.227273 134.334669 
L 567.498024 131.412245 
L 575.768775 128.717609 
L 584.039526 126.233044 
L 592.310277 123.9422 
L 603.337945 121.163189 
L 614.365613 118.669333 
L 622.636364 116.968371 
L 622.636364 116.968371 
" style="fill:none;stroke:#8c564b;stroke-linecap:square;stroke-width:1.5;"/>
   </g>
   <g id="line2d_35">
    <path clip-path="url(#pfaa4ffad90)" d="M 115.363636 605.290909 
L 123.634387 605.144012 
L 134.662055 604.662842 
L 145.689723 603.946099 
L 156.717391 602.965339 
L 164.988142 602.01087 
L 173.258893 600.819814 
L 181.529644 599.33691 
L 187.043478 598.153682 
L 192.557312 596.788361 
L 198.071146 595.215279 
L 203.58498 593.405919 
L 209.098814 591.328863 
L 214.612648 588.949815 
L 220.126482 586.231764 
L 225.640316 583.135303 
L 231.15415 579.619142 
L 236.667984 575.64086 
L 242.181818 571.157921 
L 247.695652 566.128962 
L 253.209486 560.515354 
L 258.72332 554.282997 
L 264.237154 547.404271 
L 269.750988 539.860036 
L 275.264822 531.641525 
L 280.778656 522.751972 
L 286.29249 513.207771 
L 291.806324 503.039032 
L 297.320158 492.289407 
L 302.833992 481.015148 
L 308.347826 469.283434 
L 316.618577 450.995739 
L 324.889328 432.1289 
L 352.458498 368.621182 
L 360.729249 350.304985 
L 369 332.647903 
L 374.513834 321.301013 
L 380.027668 310.323642 
L 385.541502 299.733916 
L 391.055336 289.544092 
L 396.56917 279.761308 
L 402.083004 270.38832 
L 407.596838 261.424188 
L 413.110672 252.864903 
L 418.624506 244.703951 
L 424.13834 236.93281 
L 429.652174 229.541382 
L 435.166008 222.518365 
L 440.679842 215.851572 
L 446.193676 209.528195 
L 451.70751 203.535029 
L 457.221344 197.85866 
L 462.735178 192.485612 
L 468.249012 187.402475 
L 473.762846 182.596003 
L 479.27668 178.053192 
L 484.790514 173.761342 
L 490.304348 169.708105 
L 495.818182 165.881519 
L 501.332016 162.270034 
L 506.84585 158.862528 
L 512.359684 155.648318 
L 517.873518 152.617162 
L 526.144269 148.392341 
L 534.41502 144.52622 
L 542.685771 140.989735 
L 550.956522 137.755905 
L 559.227273 134.799743 
L 567.498024 132.09815 
L 575.768775 129.62981 
L 584.039526 127.375076 
L 592.310277 125.315867 
L 603.337945 122.845867 
L 614.365613 120.658356 
L 622.636364 119.183815 
L 622.636364 119.183815 
" style="fill:none;stroke:#e377c2;stroke-linecap:square;stroke-width:1.5;"/>
   </g>
   <g id="line2d_36">
    <path clip-path="url(#pfaa4ffad90)" d="M 115.363636 605.290909 
L 123.634387 605.141624 
L 134.662055 604.639825 
L 145.689723 603.873739 
L 153.960474 603.10701 
L 162.231225 602.139177 
L 170.501976 600.926125 
L 178.772727 599.413807 
L 184.286561 598.207834 
L 189.800395 596.818284 
L 195.314229 595.220686 
L 200.828063 593.388061 
L 206.341897 591.290893 
L 211.855731 588.8972 
L 217.369565 586.172706 
L 222.883399 583.081155 
L 228.397233 579.58479 
L 233.911067 575.645034 
L 239.424901 571.223377 
L 244.938735 566.282496 
L 250.452569 560.787586 
L 255.966403 554.707875 
L 261.480237 548.018268 
L 266.994071 540.701029 
L 272.507905 532.747386 
L 278.021739 524.158925 
L 283.535573 514.948636 
L 289.049407 505.141482 
L 294.563241 494.77439 
L 300.077075 483.895628 
L 305.590909 472.563574 
L 313.86166 454.863292 
L 322.132411 436.543497 
L 338.673913 399.088609 
L 349.701581 374.303757 
L 357.972332 356.166752 
L 366.243083 338.598749 
L 374.513834 321.723379 
L 380.027668 310.903141 
L 385.541502 300.449422 
L 391.055336 290.375285 
L 396.56917 280.688962 
L 402.083004 271.39449 
L 407.596838 262.492322 
L 413.110672 253.979892 
L 418.624506 245.852131 
L 424.13834 238.101929 
L 429.652174 230.720543 
L 435.166008 223.697951 
L 440.679842 217.02316 
L 446.193676 210.684467 
L 451.70751 204.669679 
L 457.221344 198.966304 
L 462.735178 193.561698 
L 468.249012 188.443202 
L 473.762846 183.598241 
L 479.27668 179.014408 
L 484.790514 174.679533 
L 490.304348 170.581739 
L 495.818182 166.709474 
L 501.332016 163.051551 
L 506.84585 159.597162 
L 512.359684 156.335897 
L 517.873518 153.257752 
L 526.144269 148.963005 
L 534.41502 145.028119 
L 542.685771 141.424465 
L 550.956522 138.125394 
L 559.227273 135.106164 
L 567.498024 132.343845 
L 575.768775 129.817233 
L 584.039526 127.506747 
L 592.310277 125.39433 
L 600.581028 123.463348 
L 611.608696 121.144669 
L 622.636364 119.088576 
L 622.636364 119.088576 
" style="fill:none;stroke:#7f7f7f;stroke-linecap:square;stroke-width:1.5;"/>
   </g>
   <g id="line2d_37">
    <path clip-path="url(#pfaa4ffad90)" d="M 115.363636 605.290909 
L 123.634387 605.171012 
L 131.905138 604.858294 
L 142.932806 604.193113 
L 151.203557 603.504489 
L 159.474308 602.628228 
L 167.745059 601.5274 
L 176.01581 600.153255 
L 181.529644 599.055848 
L 187.043478 597.789151 
L 192.557312 596.329436 
L 198.071146 594.650238 
L 203.58498 592.722296 
L 209.098814 590.513564 
L 214.612648 587.989334 
L 220.126482 585.11249 
L 225.640316 581.843951 
L 231.15415 578.143315 
L 236.667984 573.969755 
L 242.181818 569.283178 
L 247.695652 564.04564 
L 253.209486 558.223015 
L 258.72332 551.78683 
L 264.237154 544.71619 
L 269.750988 536.999653 
L 275.264822 528.636886 
L 280.778656 519.639932 
L 286.29249 510.033913 
L 291.806324 499.857047 
L 297.320158 489.15991 
L 302.833992 478.003955 
L 311.104743 460.565101 
L 319.375494 442.513439 
L 352.458498 369.343577 
L 360.729249 351.880348 
L 369 335.04746 
L 374.513834 324.218511 
L 380.027668 313.724703 
L 385.541502 303.577747 
L 391.055336 293.784769 
L 396.56917 284.349022 
L 402.083004 275.270535 
L 407.596838 266.546699 
L 413.110672 258.172778 
L 418.624506 250.142348 
L 424.13834 242.447676 
L 429.652174 235.080033 
L 435.166008 228.029962 
L 440.679842 221.287493 
L 446.193676 214.842325 
L 451.70751 208.683969 
L 457.221344 202.801868 
L 462.735178 197.18549 
L 468.249012 191.824402 
L 473.762846 186.708334 
L 479.27668 181.827216 
L 484.790514 177.171222 
L 490.304348 172.730787 
L 495.818182 168.496634 
L 501.332016 164.45978 
L 506.84585 160.611546 
L 515.116601 155.174634 
L 523.387352 150.116411 
L 531.658103 145.411479 
L 539.928854 141.035951 
L 548.199605 136.967403 
L 556.470356 133.18482 
L 564.741107 129.668526 
L 573.011858 126.400125 
L 581.282609 123.362425 
L 589.55336 120.539381 
L 597.824111 117.916018 
L 606.094862 115.478376 
L 617.12253 112.494723 
L 622.636364 111.109091 
L 622.636364 111.109091 
" style="fill:none;stroke:#bcbd22;stroke-linecap:square;stroke-width:1.5;"/>
   </g>
   <g id="line2d_38">
    <path clip-path="url(#pfaa4ffad90)" d="M 115.363636 605.290909 
L 123.634387 604.257174 
L 129.148221 603.975246 
L 131.905138 603.975246 
L 134.662055 603.317415 
L 137.418972 603.317415 
L 142.932806 601.766813 
L 145.689723 601.249945 
L 148.44664 600.075246 
L 151.203557 600.075246 
L 153.960474 599.135487 
L 156.717391 599.135487 
L 159.474308 598.806572 
L 162.231225 597.913801 
L 167.745059 597.913801 
L 170.501976 596.269222 
L 173.258893 595.893319 
L 176.01581 595.376451 
L 178.772727 595.329463 
L 181.529644 595.047535 
L 187.043478 593.825849 
L 195.314229 591.006571 
L 198.071146 590.771632 
L 200.828063 589.925849 
L 203.58498 589.502957 
L 209.098814 587.858379 
L 211.855731 586.824644 
L 214.612648 585.602957 
L 217.369565 584.804162 
L 220.126482 584.240306 
L 222.883399 583.300547 
L 225.640316 579.494523 
L 228.397233 577.990909 
L 231.15415 574.701752 
L 233.911067 574.701752 
L 236.667984 574.325848 
L 239.424901 573.245125 
L 242.181818 568.922234 
L 244.938735 565.821029 
L 247.695652 562.34392 
L 250.452569 562.34392 
L 253.209486 559.806571 
L 255.966403 558.255969 
L 258.72332 554.590908 
L 261.480237 551.442715 
L 264.237154 548.012595 
L 266.994071 545.381269 
L 269.750988 538.004161 
L 272.507905 538.004161 
L 275.264822 534.104161 
L 278.021739 529.828257 
L 283.535573 520.148739 
L 286.29249 514.980064 
L 289.049407 511.221028 
L 291.806324 505.770425 
L 294.563241 498.440305 
L 297.320158 493.459582 
L 300.077075 486.740305 
L 302.833992 481.383678 
L 305.590909 473.254762 
L 308.347826 467.005365 
L 311.104743 462.118617 
L 313.86166 456.245123 
L 316.618577 450.089702 
L 319.375494 442.148738 
L 322.132411 435.147533 
L 324.889328 429.508978 
L 327.646245 424.152352 
L 330.403162 417.668014 
L 333.160079 413.439099 
L 335.916996 406.249942 
L 338.673913 400.09452 
L 344.187747 388.488496 
L 346.944664 384.400544 
L 349.701581 381.863194 
L 352.458498 379.090905 
L 355.215415 372.653556 
L 357.972332 366.733074 
L 360.729249 358.134278 
L 366.243083 339.855965 
L 369 332.61982 
L 371.756917 328.015001 
L 374.513834 323.175242 
L 377.270751 314.435482 
L 380.027668 305.131868 
L 385.541502 292.022229 
L 388.298419 285.584879 
L 391.055336 280.322229 
L 393.812253 275.623433 
L 396.56917 271.723433 
L 399.326087 268.575241 
L 402.083004 262.84271 
L 404.839921 259.64753 
L 407.596838 258.143915 
L 410.353755 257.157168 
L 415.867589 257.157168 
L 418.624506 237.704156 
L 421.381423 234.931866 
L 424.13834 231.830662 
L 426.895257 228.917409 
L 429.652174 226.943915 
L 432.409091 224.124637 
L 435.166008 222.808975 
L 437.922925 221.117408 
L 440.679842 218.768011 
L 443.436759 215.243914 
L 446.193676 211.531866 
L 448.950593 209.652348 
L 457.221344 196.636685 
L 459.978261 194.428251 
L 462.735178 192.830661 
L 465.492095 191.421022 
L 468.249012 190.810179 
L 471.005929 189.447528 
L 473.762846 186.722227 
L 476.519763 183.010179 
L 479.27668 180.190902 
L 482.033597 179.53307 
L 484.790514 178.076444 
L 487.547431 177.230661 
L 490.304348 175.116203 
L 493.061265 171.592106 
L 495.818182 168.960781 
L 498.575099 166.799335 
L 501.332016 162.993311 
L 504.088933 162.147528 
L 506.84585 160.50295 
L 509.602767 160.03307 
L 512.359684 158.20054 
L 515.116601 155.804154 
L 517.873518 155.052347 
L 520.630435 153.501745 
L 523.387352 151.716202 
L 526.144269 150.306564 
L 528.901186 149.601745 
L 531.658103 148.661985 
L 534.41502 147.910178 
L 537.171937 145.79572 
L 539.928854 145.372829 
L 542.685771 144.480058 
L 545.442688 143.916202 
L 548.199605 141.613793 
L 550.956522 140.627046 
L 553.713439 140.486082 
L 556.470356 136.774033 
L 559.227273 136.16319 
L 561.98419 134.377648 
L 564.741107 131.934274 
L 567.498024 131.605359 
L 573.011858 130.618612 
L 575.768775 129.490901 
L 578.525692 128.12825 
L 581.282609 126.624636 
L 584.039526 125.543913 
L 586.796443 122.771624 
L 589.55336 121.268009 
L 595.067194 119.529455 
L 597.824111 118.401744 
L 600.581028 118.166804 
L 603.337945 118.166804 
L 608.851779 117.039093 
L 611.608696 115.723431 
L 614.365613 115.065599 
L 617.12253 113.561985 
L 619.879447 112.29331 
L 622.636364 112.105358 
L 622.636364 112.105358 
" style="fill:none;stroke:#17becf;stroke-dasharray:14.8,6.4;stroke-dashoffset:0;stroke-width:4;"/>
   </g>
   <g id="patch_3">
    <path d="M 90 630 
L 90 86.4 
" style="fill:none;stroke:#000000;stroke-linecap:square;stroke-linejoin:miter;stroke-width:0.8;"/>
   </g>
   <g id="patch_4">
    <path d="M 648 630 
L 648 86.4 
" style="fill:none;stroke:#000000;stroke-linecap:square;stroke-linejoin:miter;stroke-width:0.8;"/>
   </g>
   <g id="patch_5">
    <path d="M 90 630 
L 648 630 
" style="fill:none;stroke:#000000;stroke-linecap:square;stroke-linejoin:miter;stroke-width:0.8;"/>
   </g>
   <g id="patch_6">
    <path d="M 90 86.4 
L 648 86.4 
" style="fill:none;stroke:#000000;stroke-linecap:square;stroke-linejoin:miter;stroke-width:0.8;"/>
   </g>
   <g id="text_17">
    <!-- Democratic Republic of Congo relative err =  -->
    <g transform="translate(234.315 80.4)scale(0.12 -0.12)">
     <defs>
      <path d="M 30.609375 48.390625 
Q 23.390625 48.390625 19.1875 42.75 
Q 14.984375 37.109375 14.984375 27.296875 
Q 14.984375 17.484375 19.15625 11.84375 
Q 23.34375 6.203125 30.609375 6.203125 
Q 37.796875 6.203125 41.984375 11.859375 
Q 46.1875 17.53125 46.1875 27.296875 
Q 46.1875 37.015625 41.984375 42.703125 
Q 37.796875 48.390625 30.609375 48.390625 
z
M 30.609375 56 
Q 42.328125 56 49.015625 48.375 
Q 55.71875 40.765625 55.71875 27.296875 
Q 55.71875 13.875 49.015625 6.21875 
Q 42.328125 -1.421875 30.609375 -1.421875 
Q 18.84375 -1.421875 12.171875 6.21875 
Q 5.515625 13.875 5.515625 27.296875 
Q 5.515625 40.765625 12.171875 48.375 
Q 18.84375 56 30.609375 56 
z
" id="DejaVuSans-111"/>
      <path d="M 41.109375 46.296875 
Q 39.59375 47.171875 37.8125 47.578125 
Q 36.03125 48 33.890625 48 
Q 26.265625 48 22.1875 43.046875 
Q 18.109375 38.09375 18.109375 28.8125 
L 18.109375 0 
L 9.078125 0 
L 9.078125 54.6875 
L 18.109375 54.6875 
L 18.109375 46.1875 
Q 20.953125 51.171875 25.484375 53.578125 
Q 30.03125 56 36.53125 56 
Q 37.453125 56 38.578125 55.875 
Q 39.703125 55.765625 41.0625 55.515625 
z
" id="DejaVuSans-114"/>
      <path d="M 44.390625 34.1875 
Q 47.5625 33.109375 50.5625 29.59375 
Q 53.5625 26.078125 56.59375 19.921875 
L 66.609375 0 
L 56 0 
L 46.6875 18.703125 
Q 43.0625 26.03125 39.671875 28.421875 
Q 36.28125 30.8125 30.421875 30.8125 
L 19.671875 30.8125 
L 19.671875 0 
L 9.8125 0 
L 9.8125 72.90625 
L 32.078125 72.90625 
Q 44.578125 72.90625 50.734375 67.671875 
Q 56.890625 62.453125 56.890625 51.90625 
Q 56.890625 45.015625 53.6875 40.46875 
Q 50.484375 35.9375 44.390625 34.1875 
z
M 19.671875 64.796875 
L 19.671875 38.921875 
L 32.078125 38.921875 
Q 39.203125 38.921875 42.84375 42.21875 
Q 46.484375 45.515625 46.484375 51.90625 
Q 46.484375 58.296875 42.84375 61.546875 
Q 39.203125 64.796875 32.078125 64.796875 
z
" id="DejaVuSans-82"/>
      <path d="M 18.109375 8.203125 
L 18.109375 -20.796875 
L 9.078125 -20.796875 
L 9.078125 54.6875 
L 18.109375 54.6875 
L 18.109375 46.390625 
Q 20.953125 51.265625 25.265625 53.625 
Q 29.59375 56 35.59375 56 
Q 45.5625 56 51.78125 48.09375 
Q 58.015625 40.1875 58.015625 27.296875 
Q 58.015625 14.40625 51.78125 6.484375 
Q 45.5625 -1.421875 35.59375 -1.421875 
Q 29.59375 -1.421875 25.265625 0.953125 
Q 20.953125 3.328125 18.109375 8.203125 
z
M 48.6875 27.296875 
Q 48.6875 37.203125 44.609375 42.84375 
Q 40.53125 48.484375 33.40625 48.484375 
Q 26.265625 48.484375 22.1875 42.84375 
Q 18.109375 37.203125 18.109375 27.296875 
Q 18.109375 17.390625 22.1875 11.75 
Q 26.265625 6.109375 33.40625 6.109375 
Q 40.53125 6.109375 44.609375 11.75 
Q 48.6875 17.390625 48.6875 27.296875 
z
" id="DejaVuSans-112"/>
      <path d="M 48.6875 27.296875 
Q 48.6875 37.203125 44.609375 42.84375 
Q 40.53125 48.484375 33.40625 48.484375 
Q 26.265625 48.484375 22.1875 42.84375 
Q 18.109375 37.203125 18.109375 27.296875 
Q 18.109375 17.390625 22.1875 11.75 
Q 26.265625 6.109375 33.40625 6.109375 
Q 40.53125 6.109375 44.609375 11.75 
Q 48.6875 17.390625 48.6875 27.296875 
z
M 18.109375 46.390625 
Q 20.953125 51.265625 25.265625 53.625 
Q 29.59375 56 35.59375 56 
Q 45.5625 56 51.78125 48.09375 
Q 58.015625 40.1875 58.015625 27.296875 
Q 58.015625 14.40625 51.78125 6.484375 
Q 45.5625 -1.421875 35.59375 -1.421875 
Q 29.59375 -1.421875 25.265625 0.953125 
Q 20.953125 3.328125 18.109375 8.203125 
L 18.109375 0 
L 9.078125 0 
L 9.078125 75.984375 
L 18.109375 75.984375 
z
" id="DejaVuSans-98"/>
      <path d="M 37.109375 75.984375 
L 37.109375 68.5 
L 28.515625 68.5 
Q 23.6875 68.5 21.796875 66.546875 
Q 19.921875 64.59375 19.921875 59.515625 
L 19.921875 54.6875 
L 34.71875 54.6875 
L 34.71875 47.703125 
L 19.921875 47.703125 
L 19.921875 0 
L 10.890625 0 
L 10.890625 47.703125 
L 2.296875 47.703125 
L 2.296875 54.6875 
L 10.890625 54.6875 
L 10.890625 58.5 
Q 10.890625 67.625 15.140625 71.796875 
Q 19.390625 75.984375 28.609375 75.984375 
z
" id="DejaVuSans-102"/>
      <path d="M 54.890625 33.015625 
L 54.890625 0 
L 45.90625 0 
L 45.90625 32.71875 
Q 45.90625 40.484375 42.875 44.328125 
Q 39.84375 48.1875 33.796875 48.1875 
Q 26.515625 48.1875 22.3125 43.546875 
Q 18.109375 38.921875 18.109375 30.90625 
L 18.109375 0 
L 9.078125 0 
L 9.078125 54.6875 
L 18.109375 54.6875 
L 18.109375 46.1875 
Q 21.34375 51.125 25.703125 53.5625 
Q 30.078125 56 35.796875 56 
Q 45.21875 56 50.046875 50.171875 
Q 54.890625 44.34375 54.890625 33.015625 
z
" id="DejaVuSans-110"/>
      <path d="M 45.40625 27.984375 
Q 45.40625 37.75 41.375 43.109375 
Q 37.359375 48.484375 30.078125 48.484375 
Q 22.859375 48.484375 18.828125 43.109375 
Q 14.796875 37.75 14.796875 27.984375 
Q 14.796875 18.265625 18.828125 12.890625 
Q 22.859375 7.515625 30.078125 7.515625 
Q 37.359375 7.515625 41.375 12.890625 
Q 45.40625 18.265625 45.40625 27.984375 
z
M 54.390625 6.78125 
Q 54.390625 -7.171875 48.1875 -13.984375 
Q 42 -20.796875 29.203125 -20.796875 
Q 24.46875 -20.796875 20.265625 -20.09375 
Q 16.0625 -19.390625 12.109375 -17.921875 
L 12.109375 -9.1875 
Q 16.0625 -11.328125 19.921875 -12.34375 
Q 23.78125 -13.375 27.78125 -13.375 
Q 36.625 -13.375 41.015625 -8.765625 
Q 45.40625 -4.15625 45.40625 5.171875 
L 45.40625 9.625 
Q 42.625 4.78125 38.28125 2.390625 
Q 33.9375 0 27.875 0 
Q 17.828125 0 11.671875 7.65625 
Q 5.515625 15.328125 5.515625 27.984375 
Q 5.515625 40.671875 11.671875 48.328125 
Q 17.828125 56 27.875 56 
Q 33.9375 56 38.28125 53.609375 
Q 42.625 51.21875 45.40625 46.390625 
L 45.40625 54.6875 
L 54.390625 54.6875 
z
" id="DejaVuSans-103"/>
      <path d="M 10.59375 45.40625 
L 73.1875 45.40625 
L 73.1875 37.203125 
L 10.59375 37.203125 
z
M 10.59375 25.484375 
L 73.1875 25.484375 
L 73.1875 17.1875 
L 10.59375 17.1875 
z
" id="DejaVuSans-61"/>
     </defs>
     <use xlink:href="#DejaVuSans-68"/>
     <use x="77.001953" xlink:href="#DejaVuSans-101"/>
     <use x="138.525391" xlink:href="#DejaVuSans-109"/>
     <use x="235.9375" xlink:href="#DejaVuSans-111"/>
     <use x="297.119141" xlink:href="#DejaVuSans-99"/>
     <use x="352.099609" xlink:href="#DejaVuSans-114"/>
     <use x="393.212891" xlink:href="#DejaVuSans-97"/>
     <use x="454.492188" xlink:href="#DejaVuSans-116"/>
     <use x="493.701172" xlink:href="#DejaVuSans-105"/>
     <use x="521.484375" xlink:href="#DejaVuSans-99"/>
     <use x="576.464844" xlink:href="#DejaVuSans-32"/>
     <use x="608.251953" xlink:href="#DejaVuSans-82"/>
     <use x="673.234375" xlink:href="#DejaVuSans-101"/>
     <use x="734.757812" xlink:href="#DejaVuSans-112"/>
     <use x="798.234375" xlink:href="#DejaVuSans-117"/>
     <use x="861.613281" xlink:href="#DejaVuSans-98"/>
     <use x="925.089844" xlink:href="#DejaVuSans-108"/>
     <use x="952.873047" xlink:href="#DejaVuSans-105"/>
     <use x="980.65625" xlink:href="#DejaVuSans-99"/>
     <use x="1035.636719" xlink:href="#DejaVuSans-32"/>
     <use x="1067.423828" xlink:href="#DejaVuSans-111"/>
     <use x="1128.605469" xlink:href="#DejaVuSans-102"/>
     <use x="1163.810547" xlink:href="#DejaVuSans-32"/>
     <use x="1195.597656" xlink:href="#DejaVuSans-67"/>
     <use x="1265.421875" xlink:href="#DejaVuSans-111"/>
     <use x="1326.603516" xlink:href="#DejaVuSans-110"/>
     <use x="1389.982422" xlink:href="#DejaVuSans-103"/>
     <use x="1453.458984" xlink:href="#DejaVuSans-111"/>
     <use x="1514.640625" xlink:href="#DejaVuSans-32"/>
     <use x="1546.427734" xlink:href="#DejaVuSans-114"/>
     <use x="1585.291016" xlink:href="#DejaVuSans-101"/>
     <use x="1646.814453" xlink:href="#DejaVuSans-108"/>
     <use x="1674.597656" xlink:href="#DejaVuSans-97"/>
     <use x="1735.876953" xlink:href="#DejaVuSans-116"/>
     <use x="1775.085938" xlink:href="#DejaVuSans-105"/>
     <use x="1802.869141" xlink:href="#DejaVuSans-118"/>
     <use x="1862.048828" xlink:href="#DejaVuSans-101"/>
     <use x="1923.572266" xlink:href="#DejaVuSans-32"/>
     <use x="1955.359375" xlink:href="#DejaVuSans-101"/>
     <use x="2016.882812" xlink:href="#DejaVuSans-114"/>
     <use x="2056.246094" xlink:href="#DejaVuSans-114"/>
     <use x="2097.359375" xlink:href="#DejaVuSans-32"/>
     <use x="2129.146484" xlink:href="#DejaVuSans-61"/>
     <use x="2212.935547" xlink:href="#DejaVuSans-32"/>
    </g>
   </g>
   <g id="legend_1">
    <g id="patch_7">
     <path d="M 97 226.503125 
L 185.6 226.503125 
Q 187.6 226.503125 187.6 224.503125 
L 187.6 93.4 
Q 187.6 91.4 185.6 91.4 
L 97 91.4 
Q 95 91.4 95 93.4 
L 95 224.503125 
Q 95 226.503125 97 226.503125 
z
" style="fill:#ffffff;opacity:0.8;stroke:#cccccc;stroke-linejoin:miter;"/>
    </g>
    <g id="line2d_39">
     <path d="M 99 99.498438 
L 119 99.498438 
" style="fill:none;stroke:#1f77b4;stroke-linecap:square;stroke-width:1.5;"/>
    </g>
    <g id="line2d_40"/>
    <g id="text_18">
     <!-- SI -->
     <g transform="translate(127 102.998438)scale(0.1 -0.1)">
      <defs>
       <path d="M 53.515625 70.515625 
L 53.515625 60.890625 
Q 47.90625 63.578125 42.921875 64.890625 
Q 37.9375 66.21875 33.296875 66.21875 
Q 25.25 66.21875 20.875 63.09375 
Q 16.5 59.96875 16.5 54.203125 
Q 16.5 49.359375 19.40625 46.890625 
Q 22.3125 44.4375 30.421875 42.921875 
L 36.375 41.703125 
Q 47.40625 39.59375 52.65625 34.296875 
Q 57.90625 29 57.90625 20.125 
Q 57.90625 9.515625 50.796875 4.046875 
Q 43.703125 -1.421875 29.984375 -1.421875 
Q 24.8125 -1.421875 18.96875 -0.25 
Q 13.140625 0.921875 6.890625 3.21875 
L 6.890625 13.375 
Q 12.890625 10.015625 18.65625 8.296875 
Q 24.421875 6.59375 29.984375 6.59375 
Q 38.421875 6.59375 43.015625 9.90625 
Q 47.609375 13.234375 47.609375 19.390625 
Q 47.609375 24.75 44.3125 27.78125 
Q 41.015625 30.8125 33.5 32.328125 
L 27.484375 33.5 
Q 16.453125 35.6875 11.515625 40.375 
Q 6.59375 45.0625 6.59375 53.421875 
Q 6.59375 63.09375 13.40625 68.65625 
Q 20.21875 74.21875 32.171875 74.21875 
Q 37.3125 74.21875 42.625 73.28125 
Q 47.953125 72.359375 53.515625 70.515625 
z
" id="DejaVuSans-83"/>
       <path d="M 9.8125 72.90625 
L 19.671875 72.90625 
L 19.671875 0 
L 9.8125 0 
z
" id="DejaVuSans-73"/>
      </defs>
      <use xlink:href="#DejaVuSans-83"/>
      <use x="63.476562" xlink:href="#DejaVuSans-73"/>
     </g>
    </g>
    <g id="line2d_41">
     <path d="M 99 114.176563 
L 119 114.176563 
" style="fill:none;stroke:#ff7f0e;stroke-linecap:square;stroke-width:1.5;"/>
    </g>
    <g id="line2d_42"/>
    <g id="text_19">
     <!-- BD -->
     <g transform="translate(127 117.676563)scale(0.1 -0.1)">
      <defs>
       <path d="M 19.671875 34.8125 
L 19.671875 8.109375 
L 35.5 8.109375 
Q 43.453125 8.109375 47.28125 11.40625 
Q 51.125 14.703125 51.125 21.484375 
Q 51.125 28.328125 47.28125 31.5625 
Q 43.453125 34.8125 35.5 34.8125 
z
M 19.671875 64.796875 
L 19.671875 42.828125 
L 34.28125 42.828125 
Q 41.5 42.828125 45.03125 45.53125 
Q 48.578125 48.25 48.578125 53.8125 
Q 48.578125 59.328125 45.03125 62.0625 
Q 41.5 64.796875 34.28125 64.796875 
z
M 9.8125 72.90625 
L 35.015625 72.90625 
Q 46.296875 72.90625 52.390625 68.21875 
Q 58.5 63.53125 58.5 54.890625 
Q 58.5 48.1875 55.375 44.234375 
Q 52.25 40.28125 46.1875 39.3125 
Q 53.46875 37.75 57.5 32.78125 
Q 61.53125 27.828125 61.53125 20.40625 
Q 61.53125 10.640625 54.890625 5.3125 
Q 48.25 0 35.984375 0 
L 9.8125 0 
z
" id="DejaVuSans-66"/>
      </defs>
      <use xlink:href="#DejaVuSans-66"/>
      <use x="68.603516" xlink:href="#DejaVuSans-68"/>
     </g>
    </g>
    <g id="line2d_43">
     <path d="M 99 128.854688 
L 119 128.854688 
" style="fill:none;stroke:#2ca02c;stroke-linecap:square;stroke-width:1.5;"/>
    </g>
    <g id="line2d_44"/>
    <g id="text_20">
     <!-- SIR -->
     <g transform="translate(127 132.354688)scale(0.1 -0.1)">
      <use xlink:href="#DejaVuSans-83"/>
      <use x="63.476562" xlink:href="#DejaVuSans-73"/>
      <use x="92.96875" xlink:href="#DejaVuSans-82"/>
     </g>
    </g>
    <g id="line2d_45">
     <path d="M 99 143.532812 
L 119 143.532812 
" style="fill:none;stroke:#d62728;stroke-linecap:square;stroke-width:1.5;"/>
    </g>
    <g id="line2d_46"/>
    <g id="text_21">
     <!-- eSIR -->
     <g transform="translate(127 147.032812)scale(0.1 -0.1)">
      <use xlink:href="#DejaVuSans-101"/>
      <use x="61.523438" xlink:href="#DejaVuSans-83"/>
      <use x="125" xlink:href="#DejaVuSans-73"/>
      <use x="154.492188" xlink:href="#DejaVuSans-82"/>
     </g>
    </g>
    <g id="line2d_47">
     <path d="M 99 158.210938 
L 119 158.210938 
" style="fill:none;stroke:#9467bd;stroke-linecap:square;stroke-width:1.5;"/>
    </g>
    <g id="line2d_48"/>
    <g id="text_22">
     <!-- SEIR -->
     <g transform="translate(127 161.710938)scale(0.1 -0.1)">
      <defs>
       <path d="M 9.8125 72.90625 
L 55.90625 72.90625 
L 55.90625 64.59375 
L 19.671875 64.59375 
L 19.671875 43.015625 
L 54.390625 43.015625 
L 54.390625 34.71875 
L 19.671875 34.71875 
L 19.671875 8.296875 
L 56.78125 8.296875 
L 56.78125 0 
L 9.8125 0 
z
" id="DejaVuSans-69"/>
      </defs>
      <use xlink:href="#DejaVuSans-83"/>
      <use x="63.476562" xlink:href="#DejaVuSans-69"/>
      <use x="126.660156" xlink:href="#DejaVuSans-73"/>
      <use x="156.152344" xlink:href="#DejaVuSans-82"/>
     </g>
    </g>
    <g id="line2d_49">
     <path d="M 99 172.889063 
L 119 172.889063 
" style="fill:none;stroke:#8c564b;stroke-linecap:square;stroke-width:1.5;"/>
    </g>
    <g id="line2d_50"/>
    <g id="text_23">
     <!-- eSEIR -->
     <g transform="translate(127 176.389063)scale(0.1 -0.1)">
      <use xlink:href="#DejaVuSans-101"/>
      <use x="61.523438" xlink:href="#DejaVuSans-83"/>
      <use x="125" xlink:href="#DejaVuSans-69"/>
      <use x="188.183594" xlink:href="#DejaVuSans-73"/>
      <use x="217.675781" xlink:href="#DejaVuSans-82"/>
     </g>
    </g>
    <g id="line2d_51">
     <path d="M 99 187.567188 
L 119 187.567188 
" style="fill:none;stroke:#e377c2;stroke-linecap:square;stroke-width:1.5;"/>
    </g>
    <g id="line2d_52"/>
    <g id="text_24">
     <!-- SEIUR -->
     <g transform="translate(127 191.067188)scale(0.1 -0.1)">
      <defs>
       <path d="M 8.6875 72.90625 
L 18.609375 72.90625 
L 18.609375 28.609375 
Q 18.609375 16.890625 22.84375 11.734375 
Q 27.09375 6.59375 36.625 6.59375 
Q 46.09375 6.59375 50.34375 11.734375 
Q 54.59375 16.890625 54.59375 28.609375 
L 54.59375 72.90625 
L 64.5 72.90625 
L 64.5 27.390625 
Q 64.5 13.140625 57.4375 5.859375 
Q 50.390625 -1.421875 36.625 -1.421875 
Q 22.796875 -1.421875 15.734375 5.859375 
Q 8.6875 13.140625 8.6875 27.390625 
z
" id="DejaVuSans-85"/>
      </defs>
      <use xlink:href="#DejaVuSans-83"/>
      <use x="63.476562" xlink:href="#DejaVuSans-69"/>
      <use x="126.660156" xlink:href="#DejaVuSans-73"/>
      <use x="156.152344" xlink:href="#DejaVuSans-85"/>
      <use x="229.345703" xlink:href="#DejaVuSans-82"/>
     </g>
    </g>
    <g id="line2d_53">
     <path d="M 99 202.245312 
L 119 202.245312 
" style="fill:none;stroke:#7f7f7f;stroke-linecap:square;stroke-width:1.5;"/>
    </g>
    <g id="line2d_54"/>
    <g id="text_25">
     <!-- eSEIUR -->
     <g transform="translate(127 205.745312)scale(0.1 -0.1)">
      <use xlink:href="#DejaVuSans-101"/>
      <use x="61.523438" xlink:href="#DejaVuSans-83"/>
      <use x="125" xlink:href="#DejaVuSans-69"/>
      <use x="188.183594" xlink:href="#DejaVuSans-73"/>
      <use x="217.675781" xlink:href="#DejaVuSans-85"/>
      <use x="290.869141" xlink:href="#DejaVuSans-82"/>
     </g>
    </g>
    <g id="line2d_55">
     <path d="M 99 216.923437 
L 119 216.923437 
" style="fill:none;stroke:#bcbd22;stroke-linecap:square;stroke-width:1.5;"/>
    </g>
    <g id="line2d_56"/>
    <g id="text_26">
     <!-- eSEIUR$^{range}$ -->
     <g transform="translate(127 220.423437)scale(0.1 -0.1)">
      <defs>
       <path d="M 44.578125 46.390625 
Q 43.21875 47.125 41.453125 47.515625 
Q 39.703125 47.90625 37.703125 47.90625 
Q 30.515625 47.90625 25.140625 42.453125 
Q 19.78125 37.015625 18.015625 27.875 
L 12.5 0 
L 3.515625 0 
L 14.203125 54.6875 
L 23.1875 54.6875 
L 21.484375 46.1875 
Q 25.046875 50.921875 30 53.453125 
Q 34.96875 56 40.578125 56 
Q 42.046875 56 43.453125 55.828125 
Q 44.875 55.671875 46.296875 55.28125 
z
" id="DejaVuSans-Oblique-114"/>
       <path d="M 53.71875 31.203125 
L 47.609375 0 
L 38.625 0 
L 40.28125 8.296875 
Q 36.328125 3.421875 31.265625 1 
Q 26.21875 -1.421875 20.015625 -1.421875 
Q 13.03125 -1.421875 8.5625 2.84375 
Q 4.109375 7.125 4.109375 13.8125 
Q 4.109375 23.390625 11.75 28.953125 
Q 19.390625 34.515625 32.8125 34.515625 
L 45.3125 34.515625 
L 45.796875 36.921875 
Q 45.90625 37.3125 45.953125 37.765625 
Q 46 38.234375 46 39.203125 
Q 46 43.5625 42.453125 45.96875 
Q 38.921875 48.390625 32.515625 48.390625 
Q 28.125 48.390625 23.5 47.265625 
Q 18.890625 46.140625 14.015625 43.890625 
L 15.578125 52.203125 
Q 20.65625 54.109375 25.515625 55.046875 
Q 30.375 56 34.90625 56 
Q 44.578125 56 49.625 51.796875 
Q 54.6875 47.609375 54.6875 39.59375 
Q 54.6875 37.984375 54.4375 35.8125 
Q 54.203125 33.640625 53.71875 31.203125 
z
M 44 27.484375 
L 35.015625 27.484375 
Q 23.96875 27.484375 18.671875 24.53125 
Q 13.375 21.578125 13.375 15.375 
Q 13.375 11.078125 16.078125 8.640625 
Q 18.796875 6.203125 23.578125 6.203125 
Q 30.90625 6.203125 36.375 11.453125 
Q 41.84375 16.703125 43.609375 25.484375 
z
" id="DejaVuSans-Oblique-97"/>
       <path d="M 55.71875 33.015625 
L 49.3125 0 
L 40.28125 0 
L 46.6875 32.671875 
Q 47.125 34.96875 47.359375 36.71875 
Q 47.609375 38.484375 47.609375 39.5 
Q 47.609375 43.609375 45.015625 45.890625 
Q 42.4375 48.1875 37.796875 48.1875 
Q 30.5625 48.1875 25.34375 43.375 
Q 20.125 38.578125 18.5 30.328125 
L 12.5 0 
L 3.515625 0 
L 14.109375 54.6875 
L 23.09375 54.6875 
L 21.296875 46.09375 
Q 25.046875 50.828125 30.3125 53.40625 
Q 35.59375 56 41.40625 56 
Q 48.640625 56 52.609375 52.09375 
Q 56.59375 48.1875 56.59375 41.109375 
Q 56.59375 39.359375 56.375 37.359375 
Q 56.15625 35.359375 55.71875 33.015625 
z
" id="DejaVuSans-Oblique-110"/>
       <path d="M 59.625 54.6875 
L 50.296875 6.78125 
Q 47.609375 -7.125 40.015625 -13.953125 
Q 32.421875 -20.796875 19.578125 -20.796875 
Q 14.84375 -20.796875 10.78125 -20.09375 
Q 6.734375 -19.390625 3.21875 -17.921875 
L 4.890625 -9.1875 
Q 8.203125 -11.328125 11.90625 -12.34375 
Q 15.625 -13.375 19.828125 -13.375 
Q 28.375 -13.375 33.859375 -8.703125 
Q 39.359375 -4.046875 41.109375 4.6875 
L 41.890625 8.796875 
Q 38.140625 4.5 33.15625 2.25 
Q 28.171875 0 22.40625 0 
Q 14.109375 0 9.34375 5.484375 
Q 4.59375 10.984375 4.59375 20.609375 
Q 4.59375 28.171875 7.46875 35.421875 
Q 10.359375 42.671875 15.578125 48.296875 
Q 19.046875 52 23.65625 54 
Q 28.265625 56 33.296875 56 
Q 38.8125 56 42.90625 53.4375 
Q 47.015625 50.875 49.03125 46.1875 
L 50.59375 54.6875 
z
M 46.09375 34.625 
Q 46.09375 41.265625 42.96875 44.875 
Q 39.84375 48.484375 34.078125 48.484375 
Q 30.515625 48.484375 27.296875 47.0625 
Q 24.078125 45.65625 21.78125 43.109375 
Q 18.0625 38.921875 15.984375 33.234375 
Q 13.921875 27.546875 13.921875 21.484375 
Q 13.921875 14.75 17.0625 11.125 
Q 20.21875 7.515625 26.125 7.515625 
Q 34.671875 7.515625 40.375 15.25 
Q 46.09375 23 46.09375 34.625 
z
" id="DejaVuSans-Oblique-103"/>
       <path d="M 48.09375 32.234375 
Q 48.25 33.015625 48.3125 33.84375 
Q 48.390625 34.671875 48.390625 35.5 
Q 48.390625 41.453125 44.890625 44.921875 
Q 41.40625 48.390625 35.40625 48.390625 
Q 28.71875 48.390625 23.578125 44.15625 
Q 18.453125 39.9375 15.828125 32.171875 
z
M 55.90625 25.203125 
L 14.109375 25.203125 
Q 13.8125 23.34375 13.71875 22.265625 
Q 13.625 21.1875 13.625 20.40625 
Q 13.625 13.625 17.796875 9.90625 
Q 21.96875 6.203125 29.59375 6.203125 
Q 35.453125 6.203125 40.671875 7.515625 
Q 45.90625 8.84375 50.390625 11.375 
L 48.6875 2.484375 
Q 43.84375 0.53125 38.6875 -0.4375 
Q 33.546875 -1.421875 28.21875 -1.421875 
Q 16.84375 -1.421875 10.71875 4.015625 
Q 4.59375 9.46875 4.59375 19.484375 
Q 4.59375 28.03125 7.640625 35.375 
Q 10.6875 42.71875 16.609375 48.484375 
Q 20.40625 52.09375 25.65625 54.046875 
Q 30.90625 56 36.8125 56 
Q 46.09375 56 51.578125 50.4375 
Q 57.078125 44.875 57.078125 35.5 
Q 57.078125 33.25 56.78125 30.6875 
Q 56.5 28.125 55.90625 25.203125 
z
" id="DejaVuSans-Oblique-101"/>
      </defs>
      <use transform="translate(0 0.51875)" xlink:href="#DejaVuSans-101"/>
      <use transform="translate(61.523438 0.51875)" xlink:href="#DejaVuSans-83"/>
      <use transform="translate(125 0.51875)" xlink:href="#DejaVuSans-69"/>
      <use transform="translate(188.183594 0.51875)" xlink:href="#DejaVuSans-73"/>
      <use transform="translate(217.675781 0.51875)" xlink:href="#DejaVuSans-85"/>
      <use transform="translate(288.619141 0.51875)" xlink:href="#DejaVuSans-82"/>
      <use transform="translate(359.058594 38.8)scale(0.7)" xlink:href="#DejaVuSans-Oblique-114"/>
      <use transform="translate(387.837891 38.8)scale(0.7)" xlink:href="#DejaVuSans-Oblique-97"/>
      <use transform="translate(430.733398 38.8)scale(0.7)" xlink:href="#DejaVuSans-Oblique-110"/>
      <use transform="translate(475.098633 38.8)scale(0.7)" xlink:href="#DejaVuSans-Oblique-103"/>
      <use transform="translate(519.532227 38.8)scale(0.7)" xlink:href="#DejaVuSans-Oblique-101"/>
     </g>
    </g>
   </g>
  </g>
 </g>
 <defs>
  <clipPath id="pfaa4ffad90">
   <rect height="543.6" width="558" x="90" y="86.4"/>
  </clipPath>
 </defs>
</svg>
