<?xml version="1.0" encoding="utf-8" standalone="no"?>
<!DOCTYPE svg PUBLIC "-//W3C//DTD SVG 1.1//EN"
  "http://www.w3.org/Graphics/SVG/1.1/DTD/svg11.dtd">
<!-- Created with matplotlib (https://matplotlib.org/) -->
<svg height="720pt" version="1.1" viewBox="0 0 720 720" width="720pt" xmlns="http://www.w3.org/2000/svg" xmlns:xlink="http://www.w3.org/1999/xlink">
 <metadata>
  <rdf:RDF xmlns:cc="http://creativecommons.org/ns#" xmlns:dc="http://purl.org/dc/elements/1.1/" xmlns:rdf="http://www.w3.org/1999/02/22-rdf-syntax-ns#">
   <cc:Work>
    <dc:type rdf:resource="http://purl.org/dc/dcmitype/StillImage"/>
    <dc:date>2022-10-11T20:58:51.504377</dc:date>
    <dc:format>image/svg+xml</dc:format>
    <dc:creator>
     <cc:Agent>
      <dc:title>Matplotlib v3.3.2, https://matplotlib.org/</dc:title>
     </cc:Agent>
    </dc:creator>
   </cc:Work>
  </rdf:RDF>
 </metadata>
 <defs>
  <style type="text/css">*{stroke-linecap:butt;stroke-linejoin:round;}</style>
 </defs>
 <g id="figure_1">
  <g id="patch_1">
   <path d="M 0 720 
L 720 720 
L 720 0 
L 0 0 
z
" style="fill:none;"/>
  </g>
  <g id="axes_1">
   <g id="patch_2">
    <path d="M 90 630 
L 648 630 
L 648 86.4 
L 90 86.4 
z
" style="fill:#ffffff;"/>
   </g>
   <g id="matplotlib.axis_1">
    <g id="xtick_1">
     <g id="line2d_1">
      <path clip-path="url(#pe2984a789e)" d="M 115.363636 630 
L 115.363636 86.4 
" style="fill:none;stroke:#b0b0b0;stroke-linecap:square;stroke-width:0.8;"/>
     </g>
     <g id="line2d_2">
      <defs>
       <path d="M 0 0 
L 0 3.5 
" id="mfa2c3d1137" style="stroke:#000000;stroke-width:0.8;"/>
      </defs>
      <g>
       <use style="stroke:#000000;stroke-width:0.8;" x="115.363636" xlink:href="#mfa2c3d1137" y="630"/>
      </g>
     </g>
     <g id="text_1">
      <!-- 0 -->
      <g transform="translate(112.182386 644.598438)scale(0.1 -0.1)">
       <defs>
        <path d="M 31.78125 66.40625 
Q 24.171875 66.40625 20.328125 58.90625 
Q 16.5 51.421875 16.5 36.375 
Q 16.5 21.390625 20.328125 13.890625 
Q 24.171875 6.390625 31.78125 6.390625 
Q 39.453125 6.390625 43.28125 13.890625 
Q 47.125 21.390625 47.125 36.375 
Q 47.125 51.421875 43.28125 58.90625 
Q 39.453125 66.40625 31.78125 66.40625 
z
M 31.78125 74.21875 
Q 44.046875 74.21875 50.515625 64.515625 
Q 56.984375 54.828125 56.984375 36.375 
Q 56.984375 17.96875 50.515625 8.265625 
Q 44.046875 -1.421875 31.78125 -1.421875 
Q 19.53125 -1.421875 13.0625 8.265625 
Q 6.59375 17.96875 6.59375 36.375 
Q 6.59375 54.828125 13.0625 64.515625 
Q 19.53125 74.21875 31.78125 74.21875 
z
" id="DejaVuSans-48"/>
       </defs>
       <use xlink:href="#DejaVuSans-48"/>
      </g>
     </g>
    </g>
    <g id="xtick_2">
     <g id="line2d_3">
      <path clip-path="url(#pe2984a789e)" d="M 211.987013 630 
L 211.987013 86.4 
" style="fill:none;stroke:#b0b0b0;stroke-linecap:square;stroke-width:0.8;"/>
     </g>
     <g id="line2d_4">
      <g>
       <use style="stroke:#000000;stroke-width:0.8;" x="211.987013" xlink:href="#mfa2c3d1137" y="630"/>
      </g>
     </g>
     <g id="text_2">
      <!-- 20 -->
      <g transform="translate(205.624513 644.598438)scale(0.1 -0.1)">
       <defs>
        <path d="M 19.1875 8.296875 
L 53.609375 8.296875 
L 53.609375 0 
L 7.328125 0 
L 7.328125 8.296875 
Q 12.9375 14.109375 22.625 23.890625 
Q 32.328125 33.6875 34.8125 36.53125 
Q 39.546875 41.84375 41.421875 45.53125 
Q 43.3125 49.21875 43.3125 52.78125 
Q 43.3125 58.59375 39.234375 62.25 
Q 35.15625 65.921875 28.609375 65.921875 
Q 23.96875 65.921875 18.8125 64.3125 
Q 13.671875 62.703125 7.8125 59.421875 
L 7.8125 69.390625 
Q 13.765625 71.78125 18.9375 73 
Q 24.125 74.21875 28.421875 74.21875 
Q 39.75 74.21875 46.484375 68.546875 
Q 53.21875 62.890625 53.21875 53.421875 
Q 53.21875 48.921875 51.53125 44.890625 
Q 49.859375 40.875 45.40625 35.40625 
Q 44.1875 33.984375 37.640625 27.21875 
Q 31.109375 20.453125 19.1875 8.296875 
z
" id="DejaVuSans-50"/>
       </defs>
       <use xlink:href="#DejaVuSans-50"/>
       <use x="63.623047" xlink:href="#DejaVuSans-48"/>
      </g>
     </g>
    </g>
    <g id="xtick_3">
     <g id="line2d_5">
      <path clip-path="url(#pe2984a789e)" d="M 308.61039 630 
L 308.61039 86.4 
" style="fill:none;stroke:#b0b0b0;stroke-linecap:square;stroke-width:0.8;"/>
     </g>
     <g id="line2d_6">
      <g>
       <use style="stroke:#000000;stroke-width:0.8;" x="308.61039" xlink:href="#mfa2c3d1137" y="630"/>
      </g>
     </g>
     <g id="text_3">
      <!-- 40 -->
      <g transform="translate(302.24789 644.598438)scale(0.1 -0.1)">
       <defs>
        <path d="M 37.796875 64.3125 
L 12.890625 25.390625 
L 37.796875 25.390625 
z
M 35.203125 72.90625 
L 47.609375 72.90625 
L 47.609375 25.390625 
L 58.015625 25.390625 
L 58.015625 17.1875 
L 47.609375 17.1875 
L 47.609375 0 
L 37.796875 0 
L 37.796875 17.1875 
L 4.890625 17.1875 
L 4.890625 26.703125 
z
" id="DejaVuSans-52"/>
       </defs>
       <use xlink:href="#DejaVuSans-52"/>
       <use x="63.623047" xlink:href="#DejaVuSans-48"/>
      </g>
     </g>
    </g>
    <g id="xtick_4">
     <g id="line2d_7">
      <path clip-path="url(#pe2984a789e)" d="M 405.233766 630 
L 405.233766 86.4 
" style="fill:none;stroke:#b0b0b0;stroke-linecap:square;stroke-width:0.8;"/>
     </g>
     <g id="line2d_8">
      <g>
       <use style="stroke:#000000;stroke-width:0.8;" x="405.233766" xlink:href="#mfa2c3d1137" y="630"/>
      </g>
     </g>
     <g id="text_4">
      <!-- 60 -->
      <g transform="translate(398.871266 644.598438)scale(0.1 -0.1)">
       <defs>
        <path d="M 33.015625 40.375 
Q 26.375 40.375 22.484375 35.828125 
Q 18.609375 31.296875 18.609375 23.390625 
Q 18.609375 15.53125 22.484375 10.953125 
Q 26.375 6.390625 33.015625 6.390625 
Q 39.65625 6.390625 43.53125 10.953125 
Q 47.40625 15.53125 47.40625 23.390625 
Q 47.40625 31.296875 43.53125 35.828125 
Q 39.65625 40.375 33.015625 40.375 
z
M 52.59375 71.296875 
L 52.59375 62.3125 
Q 48.875 64.0625 45.09375 64.984375 
Q 41.3125 65.921875 37.59375 65.921875 
Q 27.828125 65.921875 22.671875 59.328125 
Q 17.53125 52.734375 16.796875 39.40625 
Q 19.671875 43.65625 24.015625 45.921875 
Q 28.375 48.1875 33.59375 48.1875 
Q 44.578125 48.1875 50.953125 41.515625 
Q 57.328125 34.859375 57.328125 23.390625 
Q 57.328125 12.15625 50.6875 5.359375 
Q 44.046875 -1.421875 33.015625 -1.421875 
Q 20.359375 -1.421875 13.671875 8.265625 
Q 6.984375 17.96875 6.984375 36.375 
Q 6.984375 53.65625 15.1875 63.9375 
Q 23.390625 74.21875 37.203125 74.21875 
Q 40.921875 74.21875 44.703125 73.484375 
Q 48.484375 72.75 52.59375 71.296875 
z
" id="DejaVuSans-54"/>
       </defs>
       <use xlink:href="#DejaVuSans-54"/>
       <use x="63.623047" xlink:href="#DejaVuSans-48"/>
      </g>
     </g>
    </g>
    <g id="xtick_5">
     <g id="line2d_9">
      <path clip-path="url(#pe2984a789e)" d="M 501.857143 630 
L 501.857143 86.4 
" style="fill:none;stroke:#b0b0b0;stroke-linecap:square;stroke-width:0.8;"/>
     </g>
     <g id="line2d_10">
      <g>
       <use style="stroke:#000000;stroke-width:0.8;" x="501.857143" xlink:href="#mfa2c3d1137" y="630"/>
      </g>
     </g>
     <g id="text_5">
      <!-- 80 -->
      <g transform="translate(495.494643 644.598438)scale(0.1 -0.1)">
       <defs>
        <path d="M 31.78125 34.625 
Q 24.75 34.625 20.71875 30.859375 
Q 16.703125 27.09375 16.703125 20.515625 
Q 16.703125 13.921875 20.71875 10.15625 
Q 24.75 6.390625 31.78125 6.390625 
Q 38.8125 6.390625 42.859375 10.171875 
Q 46.921875 13.96875 46.921875 20.515625 
Q 46.921875 27.09375 42.890625 30.859375 
Q 38.875 34.625 31.78125 34.625 
z
M 21.921875 38.8125 
Q 15.578125 40.375 12.03125 44.71875 
Q 8.5 49.078125 8.5 55.328125 
Q 8.5 64.0625 14.71875 69.140625 
Q 20.953125 74.21875 31.78125 74.21875 
Q 42.671875 74.21875 48.875 69.140625 
Q 55.078125 64.0625 55.078125 55.328125 
Q 55.078125 49.078125 51.53125 44.71875 
Q 48 40.375 41.703125 38.8125 
Q 48.828125 37.15625 52.796875 32.3125 
Q 56.78125 27.484375 56.78125 20.515625 
Q 56.78125 9.90625 50.3125 4.234375 
Q 43.84375 -1.421875 31.78125 -1.421875 
Q 19.734375 -1.421875 13.25 4.234375 
Q 6.78125 9.90625 6.78125 20.515625 
Q 6.78125 27.484375 10.78125 32.3125 
Q 14.796875 37.15625 21.921875 38.8125 
z
M 18.3125 54.390625 
Q 18.3125 48.734375 21.84375 45.5625 
Q 25.390625 42.390625 31.78125 42.390625 
Q 38.140625 42.390625 41.71875 45.5625 
Q 45.3125 48.734375 45.3125 54.390625 
Q 45.3125 60.0625 41.71875 63.234375 
Q 38.140625 66.40625 31.78125 66.40625 
Q 25.390625 66.40625 21.84375 63.234375 
Q 18.3125 60.0625 18.3125 54.390625 
z
" id="DejaVuSans-56"/>
       </defs>
       <use xlink:href="#DejaVuSans-56"/>
       <use x="63.623047" xlink:href="#DejaVuSans-48"/>
      </g>
     </g>
    </g>
    <g id="xtick_6">
     <g id="line2d_11">
      <path clip-path="url(#pe2984a789e)" d="M 598.480519 630 
L 598.480519 86.4 
" style="fill:none;stroke:#b0b0b0;stroke-linecap:square;stroke-width:0.8;"/>
     </g>
     <g id="line2d_12">
      <g>
       <use style="stroke:#000000;stroke-width:0.8;" x="598.480519" xlink:href="#mfa2c3d1137" y="630"/>
      </g>
     </g>
     <g id="text_6">
      <!-- 100 -->
      <g transform="translate(588.936769 644.598438)scale(0.1 -0.1)">
       <defs>
        <path d="M 12.40625 8.296875 
L 28.515625 8.296875 
L 28.515625 63.921875 
L 10.984375 60.40625 
L 10.984375 69.390625 
L 28.421875 72.90625 
L 38.28125 72.90625 
L 38.28125 8.296875 
L 54.390625 8.296875 
L 54.390625 0 
L 12.40625 0 
z
" id="DejaVuSans-49"/>
       </defs>
       <use xlink:href="#DejaVuSans-49"/>
       <use x="63.623047" xlink:href="#DejaVuSans-48"/>
       <use x="127.246094" xlink:href="#DejaVuSans-48"/>
      </g>
     </g>
    </g>
    <g id="text_7">
     <!-- Days -->
     <g transform="translate(356.521875 658.276562)scale(0.1 -0.1)">
      <defs>
       <path d="M 19.671875 64.796875 
L 19.671875 8.109375 
L 31.59375 8.109375 
Q 46.6875 8.109375 53.6875 14.9375 
Q 60.6875 21.78125 60.6875 36.53125 
Q 60.6875 51.171875 53.6875 57.984375 
Q 46.6875 64.796875 31.59375 64.796875 
z
M 9.8125 72.90625 
L 30.078125 72.90625 
Q 51.265625 72.90625 61.171875 64.09375 
Q 71.09375 55.28125 71.09375 36.53125 
Q 71.09375 17.671875 61.125 8.828125 
Q 51.171875 0 30.078125 0 
L 9.8125 0 
z
" id="DejaVuSans-68"/>
       <path d="M 34.28125 27.484375 
Q 23.390625 27.484375 19.1875 25 
Q 14.984375 22.515625 14.984375 16.5 
Q 14.984375 11.71875 18.140625 8.90625 
Q 21.296875 6.109375 26.703125 6.109375 
Q 34.1875 6.109375 38.703125 11.40625 
Q 43.21875 16.703125 43.21875 25.484375 
L 43.21875 27.484375 
z
M 52.203125 31.203125 
L 52.203125 0 
L 43.21875 0 
L 43.21875 8.296875 
Q 40.140625 3.328125 35.546875 0.953125 
Q 30.953125 -1.421875 24.3125 -1.421875 
Q 15.921875 -1.421875 10.953125 3.296875 
Q 6 8.015625 6 15.921875 
Q 6 25.140625 12.171875 29.828125 
Q 18.359375 34.515625 30.609375 34.515625 
L 43.21875 34.515625 
L 43.21875 35.40625 
Q 43.21875 41.609375 39.140625 45 
Q 35.0625 48.390625 27.6875 48.390625 
Q 23 48.390625 18.546875 47.265625 
Q 14.109375 46.140625 10.015625 43.890625 
L 10.015625 52.203125 
Q 14.9375 54.109375 19.578125 55.046875 
Q 24.21875 56 28.609375 56 
Q 40.484375 56 46.34375 49.84375 
Q 52.203125 43.703125 52.203125 31.203125 
z
" id="DejaVuSans-97"/>
       <path d="M 32.171875 -5.078125 
Q 28.375 -14.84375 24.75 -17.8125 
Q 21.140625 -20.796875 15.09375 -20.796875 
L 7.90625 -20.796875 
L 7.90625 -13.28125 
L 13.1875 -13.28125 
Q 16.890625 -13.28125 18.9375 -11.515625 
Q 21 -9.765625 23.484375 -3.21875 
L 25.09375 0.875 
L 2.984375 54.6875 
L 12.5 54.6875 
L 29.59375 11.921875 
L 46.6875 54.6875 
L 56.203125 54.6875 
z
" id="DejaVuSans-121"/>
       <path d="M 44.28125 53.078125 
L 44.28125 44.578125 
Q 40.484375 46.53125 36.375 47.5 
Q 32.28125 48.484375 27.875 48.484375 
Q 21.1875 48.484375 17.84375 46.4375 
Q 14.5 44.390625 14.5 40.28125 
Q 14.5 37.15625 16.890625 35.375 
Q 19.28125 33.59375 26.515625 31.984375 
L 29.59375 31.296875 
Q 39.15625 29.25 43.1875 25.515625 
Q 47.21875 21.78125 47.21875 15.09375 
Q 47.21875 7.46875 41.1875 3.015625 
Q 35.15625 -1.421875 24.609375 -1.421875 
Q 20.21875 -1.421875 15.453125 -0.5625 
Q 10.6875 0.296875 5.421875 2 
L 5.421875 11.28125 
Q 10.40625 8.6875 15.234375 7.390625 
Q 20.0625 6.109375 24.8125 6.109375 
Q 31.15625 6.109375 34.5625 8.28125 
Q 37.984375 10.453125 37.984375 14.40625 
Q 37.984375 18.0625 35.515625 20.015625 
Q 33.0625 21.96875 24.703125 23.78125 
L 21.578125 24.515625 
Q 13.234375 26.265625 9.515625 29.90625 
Q 5.8125 33.546875 5.8125 39.890625 
Q 5.8125 47.609375 11.28125 51.796875 
Q 16.75 56 26.8125 56 
Q 31.78125 56 36.171875 55.265625 
Q 40.578125 54.546875 44.28125 53.078125 
z
" id="DejaVuSans-115"/>
      </defs>
      <use xlink:href="#DejaVuSans-68"/>
      <use x="77.001953" xlink:href="#DejaVuSans-97"/>
      <use x="138.28125" xlink:href="#DejaVuSans-121"/>
      <use x="197.460938" xlink:href="#DejaVuSans-115"/>
     </g>
    </g>
   </g>
   <g id="matplotlib.axis_2">
    <g id="ytick_1">
     <g id="line2d_13">
      <path clip-path="url(#pe2984a789e)" d="M 90 607.065753 
L 648 607.065753 
" style="fill:none;stroke:#b0b0b0;stroke-linecap:square;stroke-width:0.8;"/>
     </g>
     <g id="line2d_14">
      <defs>
       <path d="M 0 0 
L -3.5 0 
" id="mdedb28acf2" style="stroke:#000000;stroke-width:0.8;"/>
      </defs>
      <g>
       <use style="stroke:#000000;stroke-width:0.8;" x="90" xlink:href="#mdedb28acf2" y="607.065753"/>
      </g>
     </g>
     <g id="text_8">
      <!-- 0 -->
      <g transform="translate(76.6375 610.864971)scale(0.1 -0.1)">
       <use xlink:href="#DejaVuSans-48"/>
      </g>
     </g>
    </g>
    <g id="ytick_2">
     <g id="line2d_15">
      <path clip-path="url(#pe2984a789e)" d="M 90 513.652937 
L 648 513.652937 
" style="fill:none;stroke:#b0b0b0;stroke-linecap:square;stroke-width:0.8;"/>
     </g>
     <g id="line2d_16">
      <g>
       <use style="stroke:#000000;stroke-width:0.8;" x="90" xlink:href="#mdedb28acf2" y="513.652937"/>
      </g>
     </g>
     <g id="text_9">
      <!-- 1000 -->
      <g transform="translate(57.55 517.452156)scale(0.1 -0.1)">
       <use xlink:href="#DejaVuSans-49"/>
       <use x="63.623047" xlink:href="#DejaVuSans-48"/>
       <use x="127.246094" xlink:href="#DejaVuSans-48"/>
       <use x="190.869141" xlink:href="#DejaVuSans-48"/>
      </g>
     </g>
    </g>
    <g id="ytick_3">
     <g id="line2d_17">
      <path clip-path="url(#pe2984a789e)" d="M 90 420.240121 
L 648 420.240121 
" style="fill:none;stroke:#b0b0b0;stroke-linecap:square;stroke-width:0.8;"/>
     </g>
     <g id="line2d_18">
      <g>
       <use style="stroke:#000000;stroke-width:0.8;" x="90" xlink:href="#mdedb28acf2" y="420.240121"/>
      </g>
     </g>
     <g id="text_10">
      <!-- 2000 -->
      <g transform="translate(57.55 424.03934)scale(0.1 -0.1)">
       <use xlink:href="#DejaVuSans-50"/>
       <use x="63.623047" xlink:href="#DejaVuSans-48"/>
       <use x="127.246094" xlink:href="#DejaVuSans-48"/>
       <use x="190.869141" xlink:href="#DejaVuSans-48"/>
      </g>
     </g>
    </g>
    <g id="ytick_4">
     <g id="line2d_19">
      <path clip-path="url(#pe2984a789e)" d="M 90 326.827306 
L 648 326.827306 
" style="fill:none;stroke:#b0b0b0;stroke-linecap:square;stroke-width:0.8;"/>
     </g>
     <g id="line2d_20">
      <g>
       <use style="stroke:#000000;stroke-width:0.8;" x="90" xlink:href="#mdedb28acf2" y="326.827306"/>
      </g>
     </g>
     <g id="text_11">
      <!-- 3000 -->
      <g transform="translate(57.55 330.626525)scale(0.1 -0.1)">
       <defs>
        <path d="M 40.578125 39.3125 
Q 47.65625 37.796875 51.625 33 
Q 55.609375 28.21875 55.609375 21.1875 
Q 55.609375 10.40625 48.1875 4.484375 
Q 40.765625 -1.421875 27.09375 -1.421875 
Q 22.515625 -1.421875 17.65625 -0.515625 
Q 12.796875 0.390625 7.625 2.203125 
L 7.625 11.71875 
Q 11.71875 9.328125 16.59375 8.109375 
Q 21.484375 6.890625 26.8125 6.890625 
Q 36.078125 6.890625 40.9375 10.546875 
Q 45.796875 14.203125 45.796875 21.1875 
Q 45.796875 27.640625 41.28125 31.265625 
Q 36.765625 34.90625 28.71875 34.90625 
L 20.21875 34.90625 
L 20.21875 43.015625 
L 29.109375 43.015625 
Q 36.375 43.015625 40.234375 45.921875 
Q 44.09375 48.828125 44.09375 54.296875 
Q 44.09375 59.90625 40.109375 62.90625 
Q 36.140625 65.921875 28.71875 65.921875 
Q 24.65625 65.921875 20.015625 65.03125 
Q 15.375 64.15625 9.8125 62.3125 
L 9.8125 71.09375 
Q 15.4375 72.65625 20.34375 73.4375 
Q 25.25 74.21875 29.59375 74.21875 
Q 40.828125 74.21875 47.359375 69.109375 
Q 53.90625 64.015625 53.90625 55.328125 
Q 53.90625 49.265625 50.4375 45.09375 
Q 46.96875 40.921875 40.578125 39.3125 
z
" id="DejaVuSans-51"/>
       </defs>
       <use xlink:href="#DejaVuSans-51"/>
       <use x="63.623047" xlink:href="#DejaVuSans-48"/>
       <use x="127.246094" xlink:href="#DejaVuSans-48"/>
       <use x="190.869141" xlink:href="#DejaVuSans-48"/>
      </g>
     </g>
    </g>
    <g id="ytick_5">
     <g id="line2d_21">
      <path clip-path="url(#pe2984a789e)" d="M 90 233.41449 
L 648 233.41449 
" style="fill:none;stroke:#b0b0b0;stroke-linecap:square;stroke-width:0.8;"/>
     </g>
     <g id="line2d_22">
      <g>
       <use style="stroke:#000000;stroke-width:0.8;" x="90" xlink:href="#mdedb28acf2" y="233.41449"/>
      </g>
     </g>
     <g id="text_12">
      <!-- 4000 -->
      <g transform="translate(57.55 237.213709)scale(0.1 -0.1)">
       <use xlink:href="#DejaVuSans-52"/>
       <use x="63.623047" xlink:href="#DejaVuSans-48"/>
       <use x="127.246094" xlink:href="#DejaVuSans-48"/>
       <use x="190.869141" xlink:href="#DejaVuSans-48"/>
      </g>
     </g>
    </g>
    <g id="ytick_6">
     <g id="line2d_23">
      <path clip-path="url(#pe2984a789e)" d="M 90 140.001675 
L 648 140.001675 
" style="fill:none;stroke:#b0b0b0;stroke-linecap:square;stroke-width:0.8;"/>
     </g>
     <g id="line2d_24">
      <g>
       <use style="stroke:#000000;stroke-width:0.8;" x="90" xlink:href="#mdedb28acf2" y="140.001675"/>
      </g>
     </g>
     <g id="text_13">
      <!-- 5000 -->
      <g transform="translate(57.55 143.800893)scale(0.1 -0.1)">
       <defs>
        <path d="M 10.796875 72.90625 
L 49.515625 72.90625 
L 49.515625 64.59375 
L 19.828125 64.59375 
L 19.828125 46.734375 
Q 21.96875 47.46875 24.109375 47.828125 
Q 26.265625 48.1875 28.421875 48.1875 
Q 40.625 48.1875 47.75 41.5 
Q 54.890625 34.8125 54.890625 23.390625 
Q 54.890625 11.625 47.5625 5.09375 
Q 40.234375 -1.421875 26.90625 -1.421875 
Q 22.3125 -1.421875 17.546875 -0.640625 
Q 12.796875 0.140625 7.71875 1.703125 
L 7.71875 11.625 
Q 12.109375 9.234375 16.796875 8.0625 
Q 21.484375 6.890625 26.703125 6.890625 
Q 35.15625 6.890625 40.078125 11.328125 
Q 45.015625 15.765625 45.015625 23.390625 
Q 45.015625 31 40.078125 35.4375 
Q 35.15625 39.890625 26.703125 39.890625 
Q 22.75 39.890625 18.8125 39.015625 
Q 14.890625 38.140625 10.796875 36.28125 
z
" id="DejaVuSans-53"/>
       </defs>
       <use xlink:href="#DejaVuSans-53"/>
       <use x="63.623047" xlink:href="#DejaVuSans-48"/>
       <use x="127.246094" xlink:href="#DejaVuSans-48"/>
       <use x="190.869141" xlink:href="#DejaVuSans-48"/>
      </g>
     </g>
    </g>
    <g id="text_14">
     <!-- Cumulative cases -->
     <g transform="translate(51.470312 402.425781)rotate(-90)scale(0.1 -0.1)">
      <defs>
       <path d="M 64.40625 67.28125 
L 64.40625 56.890625 
Q 59.421875 61.53125 53.78125 63.8125 
Q 48.140625 66.109375 41.796875 66.109375 
Q 29.296875 66.109375 22.65625 58.46875 
Q 16.015625 50.828125 16.015625 36.375 
Q 16.015625 21.96875 22.65625 14.328125 
Q 29.296875 6.6875 41.796875 6.6875 
Q 48.140625 6.6875 53.78125 8.984375 
Q 59.421875 11.28125 64.40625 15.921875 
L 64.40625 5.609375 
Q 59.234375 2.09375 53.4375 0.328125 
Q 47.65625 -1.421875 41.21875 -1.421875 
Q 24.65625 -1.421875 15.125 8.703125 
Q 5.609375 18.84375 5.609375 36.375 
Q 5.609375 53.953125 15.125 64.078125 
Q 24.65625 74.21875 41.21875 74.21875 
Q 47.75 74.21875 53.53125 72.484375 
Q 59.328125 70.75 64.40625 67.28125 
z
" id="DejaVuSans-67"/>
       <path d="M 8.5 21.578125 
L 8.5 54.6875 
L 17.484375 54.6875 
L 17.484375 21.921875 
Q 17.484375 14.15625 20.5 10.265625 
Q 23.53125 6.390625 29.59375 6.390625 
Q 36.859375 6.390625 41.078125 11.03125 
Q 45.3125 15.671875 45.3125 23.6875 
L 45.3125 54.6875 
L 54.296875 54.6875 
L 54.296875 0 
L 45.3125 0 
L 45.3125 8.40625 
Q 42.046875 3.421875 37.71875 1 
Q 33.40625 -1.421875 27.6875 -1.421875 
Q 18.265625 -1.421875 13.375 4.4375 
Q 8.5 10.296875 8.5 21.578125 
z
M 31.109375 56 
z
" id="DejaVuSans-117"/>
       <path d="M 52 44.1875 
Q 55.375 50.25 60.0625 53.125 
Q 64.75 56 71.09375 56 
Q 79.640625 56 84.28125 50.015625 
Q 88.921875 44.046875 88.921875 33.015625 
L 88.921875 0 
L 79.890625 0 
L 79.890625 32.71875 
Q 79.890625 40.578125 77.09375 44.375 
Q 74.3125 48.1875 68.609375 48.1875 
Q 61.625 48.1875 57.5625 43.546875 
Q 53.515625 38.921875 53.515625 30.90625 
L 53.515625 0 
L 44.484375 0 
L 44.484375 32.71875 
Q 44.484375 40.625 41.703125 44.40625 
Q 38.921875 48.1875 33.109375 48.1875 
Q 26.21875 48.1875 22.15625 43.53125 
Q 18.109375 38.875 18.109375 30.90625 
L 18.109375 0 
L 9.078125 0 
L 9.078125 54.6875 
L 18.109375 54.6875 
L 18.109375 46.1875 
Q 21.1875 51.21875 25.484375 53.609375 
Q 29.78125 56 35.6875 56 
Q 41.65625 56 45.828125 52.96875 
Q 50 49.953125 52 44.1875 
z
" id="DejaVuSans-109"/>
       <path d="M 9.421875 75.984375 
L 18.40625 75.984375 
L 18.40625 0 
L 9.421875 0 
z
" id="DejaVuSans-108"/>
       <path d="M 18.3125 70.21875 
L 18.3125 54.6875 
L 36.8125 54.6875 
L 36.8125 47.703125 
L 18.3125 47.703125 
L 18.3125 18.015625 
Q 18.3125 11.328125 20.140625 9.421875 
Q 21.96875 7.515625 27.59375 7.515625 
L 36.8125 7.515625 
L 36.8125 0 
L 27.59375 0 
Q 17.1875 0 13.234375 3.875 
Q 9.28125 7.765625 9.28125 18.015625 
L 9.28125 47.703125 
L 2.6875 47.703125 
L 2.6875 54.6875 
L 9.28125 54.6875 
L 9.28125 70.21875 
z
" id="DejaVuSans-116"/>
       <path d="M 9.421875 54.6875 
L 18.40625 54.6875 
L 18.40625 0 
L 9.421875 0 
z
M 9.421875 75.984375 
L 18.40625 75.984375 
L 18.40625 64.59375 
L 9.421875 64.59375 
z
" id="DejaVuSans-105"/>
       <path d="M 2.984375 54.6875 
L 12.5 54.6875 
L 29.59375 8.796875 
L 46.6875 54.6875 
L 56.203125 54.6875 
L 35.6875 0 
L 23.484375 0 
z
" id="DejaVuSans-118"/>
       <path d="M 56.203125 29.59375 
L 56.203125 25.203125 
L 14.890625 25.203125 
Q 15.484375 15.921875 20.484375 11.0625 
Q 25.484375 6.203125 34.421875 6.203125 
Q 39.59375 6.203125 44.453125 7.46875 
Q 49.3125 8.734375 54.109375 11.28125 
L 54.109375 2.78125 
Q 49.265625 0.734375 44.1875 -0.34375 
Q 39.109375 -1.421875 33.890625 -1.421875 
Q 20.796875 -1.421875 13.15625 6.1875 
Q 5.515625 13.8125 5.515625 26.8125 
Q 5.515625 40.234375 12.765625 48.109375 
Q 20.015625 56 32.328125 56 
Q 43.359375 56 49.78125 48.890625 
Q 56.203125 41.796875 56.203125 29.59375 
z
M 47.21875 32.234375 
Q 47.125 39.59375 43.09375 43.984375 
Q 39.0625 48.390625 32.421875 48.390625 
Q 24.90625 48.390625 20.390625 44.140625 
Q 15.875 39.890625 15.1875 32.171875 
z
" id="DejaVuSans-101"/>
       <path id="DejaVuSans-32"/>
       <path d="M 48.78125 52.59375 
L 48.78125 44.1875 
Q 44.96875 46.296875 41.140625 47.34375 
Q 37.3125 48.390625 33.40625 48.390625 
Q 24.65625 48.390625 19.8125 42.84375 
Q 14.984375 37.3125 14.984375 27.296875 
Q 14.984375 17.28125 19.8125 11.734375 
Q 24.65625 6.203125 33.40625 6.203125 
Q 37.3125 6.203125 41.140625 7.25 
Q 44.96875 8.296875 48.78125 10.40625 
L 48.78125 2.09375 
Q 45.015625 0.34375 40.984375 -0.53125 
Q 36.96875 -1.421875 32.421875 -1.421875 
Q 20.0625 -1.421875 12.78125 6.34375 
Q 5.515625 14.109375 5.515625 27.296875 
Q 5.515625 40.671875 12.859375 48.328125 
Q 20.21875 56 33.015625 56 
Q 37.15625 56 41.109375 55.140625 
Q 45.0625 54.296875 48.78125 52.59375 
z
" id="DejaVuSans-99"/>
      </defs>
      <use xlink:href="#DejaVuSans-67"/>
      <use x="69.824219" xlink:href="#DejaVuSans-117"/>
      <use x="133.203125" xlink:href="#DejaVuSans-109"/>
      <use x="230.615234" xlink:href="#DejaVuSans-117"/>
      <use x="293.994141" xlink:href="#DejaVuSans-108"/>
      <use x="321.777344" xlink:href="#DejaVuSans-97"/>
      <use x="383.056641" xlink:href="#DejaVuSans-116"/>
      <use x="422.265625" xlink:href="#DejaVuSans-105"/>
      <use x="450.048828" xlink:href="#DejaVuSans-118"/>
      <use x="509.228516" xlink:href="#DejaVuSans-101"/>
      <use x="570.751953" xlink:href="#DejaVuSans-32"/>
      <use x="602.539062" xlink:href="#DejaVuSans-99"/>
      <use x="657.519531" xlink:href="#DejaVuSans-97"/>
      <use x="718.798828" xlink:href="#DejaVuSans-115"/>
      <use x="770.898438" xlink:href="#DejaVuSans-101"/>
      <use x="832.421875" xlink:href="#DejaVuSans-115"/>
     </g>
    </g>
   </g>
   <g id="line2d_25">
    <path clip-path="url(#pe2984a789e)" d="M 115.363636 605.290909 
L 120.194805 604.946039 
L 125.025974 604.535298 
L 129.857143 604.046588 
L 134.688312 603.465791 
L 139.519481 602.776517 
L 144.350649 601.959861 
L 149.181818 600.994178 
L 154.012987 599.854919 
L 158.844156 598.514558 
L 163.675325 596.942664 
L 168.506494 595.106185 
L 173.337662 592.970021 
L 178.168831 590.497972 
L 183 587.654131 
L 187.831169 584.404807 
L 192.662338 580.720978 
L 197.493506 576.58122 
L 202.324675 571.974971 
L 207.155844 566.905826 
L 211.987013 561.394466 
L 216.818182 555.480706 
L 221.649351 549.224161 
L 226.480519 542.703094 
L 231.311688 536.011282 
L 236.142857 529.253032 
L 240.974026 522.536857 
L 245.805195 515.968601 
L 250.636364 509.644909 
L 255.467532 503.64789 
L 260.298701 498.041538 
L 265.12987 492.870138 
L 269.961039 488.15855 
L 274.792208 483.913992 
L 279.623377 480.128816 
L 284.454545 476.783756 
L 289.285714 473.851233 
L 294.116883 471.298378 
L 298.948052 469.089596 
L 303.779221 467.188615 
L 308.61039 465.559987 
L 313.441558 464.170137 
L 318.272727 462.988008 
L 323.103896 461.985407 
L 327.935065 461.137114 
L 332.766234 460.420841 
L 337.597403 459.817083 
L 342.428571 459.308903 
L 347.25974 458.881693 
L 352.090909 458.522921 
L 356.922078 458.221881 
L 361.753247 457.969468 
L 366.584416 457.757955 
L 371.415584 457.580805 
L 376.246753 457.432498 
L 381.077922 457.308382 
L 385.909091 457.204543 
L 390.74026 457.11769 
L 395.571429 457.045058 
L 400.402597 456.984331 
L 405.233766 456.933564 
L 410.064935 456.891129 
L 414.896104 456.855662 
L 419.727273 456.826022 
L 424.558442 456.801253 
L 429.38961 456.780555 
L 434.220779 456.76326 
L 439.051948 456.74881 
L 443.883117 456.736737 
L 448.714286 456.72665 
L 453.545455 456.718223 
L 458.376623 456.711182 
L 463.207792 456.705301 
L 468.038961 456.700387 
L 472.87013 456.696282 
L 477.701299 456.692852 
L 482.532468 456.689987 
L 487.363636 456.687594 
L 492.194805 456.685595 
L 497.025974 456.683924 
L 501.857143 456.682529 
L 506.688312 456.681364 
L 511.519481 456.68039 
L 516.350649 456.679577 
L 521.181818 456.678897 
L 526.012987 456.67833 
L 530.844156 456.677855 
L 535.675325 456.677459 
L 540.506494 456.677128 
L 545.337662 456.676852 
L 550.168831 456.676621 
L 555 456.676428 
L 559.831169 456.676267 
L 564.662338 456.676132 
L 569.493506 456.67602 
L 574.324675 456.675926 
L 579.155844 456.675848 
L 583.987013 456.675782 
L 588.818182 456.675727 
L 593.649351 456.675682 
L 598.480519 456.675643 
L 603.311688 456.675611 
L 608.142857 456.675585 
L 612.974026 456.675563 
L 617.805195 456.675544 
L 622.636364 456.675528 
" style="fill:none;stroke:#1f77b4;stroke-linecap:square;stroke-width:1.5;"/>
   </g>
   <g id="line2d_26">
    <path clip-path="url(#pe2984a789e)" d="M 115.363636 605.290909 
L 120.194805 602.100387 
L 125.025974 598.879328 
L 129.857143 595.63118 
L 134.688312 592.359514 
L 139.519481 589.068009 
L 144.350649 585.760437 
L 149.181818 582.440644 
L 154.012987 579.112536 
L 158.844156 575.780056 
L 163.675325 572.447169 
L 168.506494 569.117841 
L 173.337662 565.796023 
L 178.168831 562.485629 
L 183 559.190518 
L 187.831169 555.91448 
L 192.662338 552.661213 
L 197.493506 549.434313 
L 202.324675 546.237254 
L 207.155844 543.073375 
L 211.987013 539.94587 
L 216.818182 536.857773 
L 221.649351 533.81195 
L 226.480519 530.81109 
L 231.311688 527.857697 
L 236.142857 524.954087 
L 240.974026 522.102379 
L 245.805195 519.304498 
L 250.636364 516.562172 
L 255.467532 513.876929 
L 260.298701 511.250104 
L 265.12987 508.682835 
L 269.961039 506.176074 
L 274.792208 503.730585 
L 279.623377 501.346955 
L 284.454545 499.025597 
L 289.285714 496.766759 
L 294.116883 494.57053 
L 298.948052 492.436851 
L 303.779221 490.365519 
L 308.61039 488.3562 
L 313.441558 486.408438 
L 318.272727 484.52166 
L 323.103896 482.695188 
L 327.935065 480.92825 
L 332.766234 479.219982 
L 337.597403 477.569446 
L 342.428571 475.97563 
L 347.25974 474.437462 
L 352.090909 472.953814 
L 356.922078 471.523513 
L 361.753247 470.145346 
L 366.584416 468.818065 
L 371.415584 467.540398 
L 376.246753 466.311053 
L 381.077922 465.128721 
L 385.909091 463.992084 
L 390.74026 462.899821 
L 395.571429 461.850609 
L 400.402597 460.843129 
L 405.233766 459.876069 
L 410.064935 458.948128 
L 414.896104 458.05802 
L 419.727273 457.204473 
L 424.558442 456.386235 
L 429.38961 455.602076 
L 434.220779 454.850786 
L 439.051948 454.131181 
L 443.883117 453.442101 
L 448.714286 452.782415 
L 453.545455 452.151018 
L 458.376623 451.546832 
L 463.207792 450.96881 
L 468.038961 450.415934 
L 472.87013 449.887213 
L 477.701299 449.381688 
L 482.532468 448.898429 
L 487.363636 448.436534 
L 492.194805 447.995133 
L 497.025974 447.573382 
L 501.857143 447.170467 
L 506.688312 446.785603 
L 511.519481 446.418031 
L 516.350649 446.067021 
L 521.181818 445.731868 
L 526.012987 445.411895 
L 530.844156 445.106448 
L 535.675325 444.814901 
L 540.506494 444.536649 
L 545.337662 444.271113 
L 550.168831 444.017736 
L 555 443.775983 
L 559.831169 443.54534 
L 564.662338 443.325315 
L 569.493506 443.115436 
L 574.324675 442.91525 
L 579.155844 442.724323 
L 583.987013 442.542239 
L 588.818182 442.3686 
L 593.649351 442.203024 
L 598.480519 442.045147 
L 603.311688 441.894618 
L 608.142857 441.751104 
L 612.974026 441.614285 
L 617.805195 441.483855 
L 622.636364 441.359521 
" style="fill:none;stroke:#ff7f0e;stroke-linecap:square;stroke-width:1.5;"/>
   </g>
   <g id="line2d_27">
    <path clip-path="url(#pe2984a789e)" d="M 115.363636 605.290909 
L 120.194805 604.169483 
L 125.025974 602.93353 
L 129.857143 601.573897 
L 134.688312 600.081271 
L 139.519481 598.44632 
L 144.350649 596.659862 
L 149.181818 594.71307 
L 154.012987 592.597707 
L 158.844156 590.306394 
L 163.675325 587.832905 
L 168.506494 585.172482 
L 173.337662 582.322153 
L 178.168831 579.281055 
L 183 576.050732 
L 187.831169 572.63539 
L 192.662338 569.0421 
L 197.493506 565.280921 
L 202.324675 561.364925 
L 207.155844 557.31012 
L 211.987013 553.135254 
L 216.818182 548.861505 
L 221.649351 544.512067 
L 226.480519 540.111642 
L 231.311688 535.685871 
L 236.142857 531.260721 
L 240.974026 526.861868 
L 245.805195 522.514107 
L 250.636364 518.240809 
L 255.467532 514.063458 
L 260.298701 510.001283 
L 265.12987 506.070989 
L 269.961039 502.286597 
L 274.792208 498.659384 
L 279.623377 495.19791 
L 284.454545 491.90813 
L 289.285714 488.793559 
L 294.116883 485.855495 
L 298.948052 483.093257 
L 303.779221 480.504453 
L 308.61039 478.08524 
L 313.441558 475.830588 
L 318.272727 473.734519 
L 323.103896 471.79034 
L 327.935065 469.990841 
L 332.766234 468.328475 
L 337.597403 466.795516 
L 342.428571 465.384184 
L 347.25974 464.086761 
L 352.090909 462.895671 
L 356.922078 461.803555 
L 361.753247 460.803321 
L 366.584416 459.888181 
L 371.415584 459.051683 
L 376.246753 458.28772 
L 381.077922 457.590547 
L 385.909091 456.954772 
L 390.74026 456.375362 
L 395.571429 455.847628 
L 400.402597 455.367215 
L 405.233766 454.930091 
L 410.064935 454.532529 
L 414.896104 454.171092 
L 419.727273 453.842616 
L 424.558442 453.544192 
L 429.38961 453.273151 
L 434.220779 453.027047 
L 439.051948 452.80364 
L 443.883117 452.60088 
L 448.714286 452.416898 
L 453.545455 452.249984 
L 458.376623 452.09858 
L 463.207792 451.961265 
L 468.038961 451.836744 
L 472.87013 451.72384 
L 477.701299 451.62148 
L 482.532468 451.528689 
L 487.363636 451.44458 
L 492.194805 451.368346 
L 497.025974 451.299256 
L 501.857143 451.236645 
L 506.688312 451.179908 
L 511.519481 451.128497 
L 516.350649 451.081914 
L 521.181818 451.039709 
L 526.012987 451.00147 
L 530.844156 450.966828 
L 535.675325 450.935443 
L 540.506494 450.907012 
L 545.337662 450.881257 
L 550.168831 450.857926 
L 555 450.836792 
L 559.831169 450.817648 
L 564.662338 450.800308 
L 569.493506 450.784601 
L 574.324675 450.770374 
L 579.155844 450.757488 
L 583.987013 450.745817 
L 588.818182 450.735245 
L 593.649351 450.72567 
L 598.480519 450.716998 
L 603.311688 450.709144 
L 608.142857 450.70203 
L 612.974026 450.695586 
L 617.805195 450.689751 
L 622.636364 450.684466 
" style="fill:none;stroke:#2ca02c;stroke-linecap:square;stroke-width:1.5;"/>
   </g>
   <g id="line2d_28">
    <path clip-path="url(#pe2984a789e)" d="M 115.363636 605.290909 
L 120.194805 603.761921 
L 125.025974 601.962961 
L 129.857143 599.896452 
L 134.688312 597.567578 
L 139.519481 594.984491 
L 144.350649 592.158434 
L 149.181818 589.103767 
L 154.012987 585.837873 
L 158.844156 582.38095 
L 163.675325 578.75568 
L 168.506494 574.986797 
L 173.337662 571.100556 
L 178.168831 567.124148 
L 183 563.085077 
L 187.831169 559.010536 
L 192.662338 554.926818 
L 197.493506 550.858781 
L 202.324675 546.829399 
L 207.155844 542.859405 
L 211.987013 538.967046 
L 216.818182 535.167936 
L 221.649351 531.47501 
L 226.480519 527.898566 
L 231.311688 524.446376 
L 236.142857 521.123862 
L 240.974026 517.934305 
L 245.805195 514.879082 
L 250.636364 511.957917 
L 255.467532 509.169129 
L 260.298701 506.509878 
L 265.12987 503.976388 
L 269.961039 501.564162 
L 274.792208 499.268161 
L 279.623377 497.082975 
L 284.454545 495.002962 
L 289.285714 493.022366 
L 294.116883 491.135418 
L 298.948052 489.336416 
L 303.779221 487.61979 
L 308.61039 485.980148 
L 313.441558 484.412316 
L 318.272727 482.911362 
L 323.103896 481.472614 
L 327.935065 480.091669 
L 332.766234 478.764395 
L 337.597403 477.486932 
L 342.428571 476.255687 
L 347.25974 475.067324 
L 352.090909 473.918756 
L 356.922078 472.80713 
L 361.753247 471.72982 
L 366.584416 470.684408 
L 371.415584 469.668675 
L 376.246753 468.680584 
L 381.077922 467.718272 
L 385.909091 466.78003 
L 390.74026 465.864297 
L 395.571429 464.969647 
L 400.402597 464.094773 
L 405.233766 463.238486 
L 410.064935 462.399694 
L 414.896104 461.577404 
L 419.727273 460.770704 
L 424.558442 459.978764 
L 429.38961 459.200821 
L 434.220779 458.436177 
L 439.051948 457.684192 
L 443.883117 456.94428 
L 448.714286 456.215901 
L 453.545455 455.498558 
L 458.376623 454.791793 
L 463.207792 454.095185 
L 468.038961 453.408341 
L 472.87013 452.730902 
L 477.701299 452.06253 
L 482.532468 451.402915 
L 487.363636 450.751765 
L 492.194805 450.108809 
L 497.025974 449.473794 
L 501.857143 448.846482 
L 506.688312 448.22665 
L 511.519481 447.614088 
L 516.350649 447.008599 
L 521.181818 446.409995 
L 526.012987 445.818101 
L 530.844156 445.232749 
L 535.675325 444.653779 
L 540.506494 444.081041 
L 545.337662 443.514391 
L 550.168831 442.953691 
L 555 442.398811 
L 559.831169 441.849624 
L 564.662338 441.306011 
L 569.493506 440.767855 
L 574.324675 440.235047 
L 579.155844 439.707479 
L 583.987013 439.185049 
L 588.818182 438.667658 
L 593.649351 438.155211 
L 598.480519 437.647615 
L 603.311688 437.144781 
L 608.142857 436.646624 
L 612.974026 436.153061 
L 617.805195 435.664009 
L 622.636364 435.179393 
" style="fill:none;stroke:#d62728;stroke-linecap:square;stroke-width:1.5;"/>
   </g>
   <g id="line2d_29">
    <path clip-path="url(#pe2984a789e)" d="M 115.363636 605.290909 
L 120.194805 605.070795 
L 125.025974 604.409763 
L 129.857143 603.251077 
L 134.688312 601.493766 
L 139.519481 599.038867 
L 144.350649 595.848352 
L 149.181818 591.993906 
L 154.012987 587.655411 
L 158.844156 583.058122 
L 163.675325 578.394453 
L 168.506494 573.785443 
L 173.337662 569.28881 
L 178.168831 564.924872 
L 183 560.697357 
L 187.831169 556.604166 
L 192.662338 552.641565 
L 197.493506 548.805505 
L 202.324675 545.091967 
L 207.155844 541.497042 
L 211.987013 538.016942 
L 216.818182 534.648 
L 221.649351 531.386665 
L 226.480519 528.2295 
L 231.311688 525.173178 
L 236.142857 522.214477 
L 240.974026 519.350281 
L 245.805195 516.577569 
L 250.636364 513.893421 
L 255.467532 511.295006 
L 260.298701 508.779588 
L 265.12987 506.344514 
L 269.961039 503.987219 
L 274.792208 501.705218 
L 279.623377 499.496106 
L 284.454545 497.357555 
L 289.285714 495.287312 
L 294.116883 493.283194 
L 298.948052 491.343089 
L 303.779221 489.464954 
L 308.61039 487.646807 
L 313.441558 485.886734 
L 318.272727 484.18288 
L 323.103896 482.533448 
L 327.935065 480.9367 
L 332.766234 479.390954 
L 337.597403 477.894581 
L 342.428571 476.446003 
L 347.25974 475.043694 
L 352.090909 473.686176 
L 356.922078 472.372019 
L 361.753247 471.099837 
L 366.584416 469.868289 
L 371.415584 468.676079 
L 376.246753 467.521948 
L 381.077922 466.404682 
L 385.909091 465.323102 
L 390.74026 464.276069 
L 395.571429 463.26248 
L 400.402597 462.281265 
L 405.233766 461.331391 
L 410.064935 460.411857 
L 414.896104 459.521693 
L 419.727273 458.659963 
L 424.558442 457.825757 
L 429.38961 457.018196 
L 434.220779 456.236429 
L 439.051948 455.479633 
L 443.883117 454.747009 
L 448.714286 454.037787 
L 453.545455 453.351217 
L 458.376623 452.686577 
L 463.207792 452.043166 
L 468.038961 451.420307 
L 472.87013 450.817342 
L 477.701299 450.233637 
L 482.532468 449.668575 
L 487.363636 449.121562 
L 492.194805 448.592022 
L 497.025974 448.079395 
L 501.857143 447.583142 
L 506.688312 447.10274 
L 511.519481 446.637682 
L 516.350649 446.187479 
L 521.181818 445.751655 
L 526.012987 445.329753 
L 530.844156 444.921326 
L 535.675325 444.525944 
L 540.506494 444.143192 
L 545.337662 443.772665 
L 550.168831 443.413973 
L 555 443.066738 
L 559.831169 442.730594 
L 564.662338 442.405187 
L 569.493506 442.090173 
L 574.324675 441.785222 
L 579.155844 441.49001 
L 583.987013 441.204229 
L 588.818182 440.927575 
L 593.649351 440.659758 
L 598.480519 440.400495 
L 603.311688 440.149513 
L 608.142857 439.906548 
L 612.974026 439.671343 
L 617.805195 439.443651 
L 622.636364 439.223232 
" style="fill:none;stroke:#9467bd;stroke-linecap:square;stroke-width:1.5;"/>
   </g>
   <g id="line2d_30">
    <path clip-path="url(#pe2984a789e)" d="M 115.363636 605.290909 
L 120.194805 604.105036 
L 125.025974 600.605356 
L 129.857143 594.686695 
L 134.688312 586.097848 
L 139.519481 574.57706 
L 144.350649 559.99524 
L 149.181818 542.485046 
L 154.012987 522.50428 
L 158.844156 500.787872 
L 163.675325 478.196551 
L 168.506494 455.534114 
L 173.337662 433.418325 
L 178.168831 412.242736 
L 183 392.208994 
L 187.831169 373.386598 
L 192.662338 355.768046 
L 197.493506 339.307213 
L 202.324675 323.941758 
L 207.155844 309.604639 
L 211.987013 296.229449 
L 216.818182 283.752617 
L 221.649351 272.114189 
L 226.480519 261.257976 
L 231.311688 251.131464 
L 236.142857 241.68563 
L 240.974026 232.874728 
L 245.805195 224.656084 
L 250.636364 216.989888 
L 255.467532 209.839005 
L 260.298701 203.168798 
L 265.12987 196.946955 
L 269.961039 191.143338 
L 274.792208 185.729834 
L 279.623377 180.680221 
L 284.454545 175.970037 
L 289.285714 171.576468 
L 294.116883 167.478229 
L 298.948052 163.65547 
L 303.779221 160.089674 
L 308.61039 156.763566 
L 313.441558 153.661036 
L 318.272727 150.767055 
L 323.103896 148.067605 
L 327.935065 145.549609 
L 332.766234 143.20087 
L 337.597403 141.010011 
L 342.428571 138.966419 
L 347.25974 137.060195 
L 352.090909 135.282106 
L 356.922078 133.623539 
L 361.753247 132.076458 
L 366.584416 130.633371 
L 371.415584 129.287286 
L 376.246753 128.031684 
L 381.077922 126.860483 
L 385.909091 125.768008 
L 390.74026 124.748969 
L 395.571429 123.798428 
L 400.402597 122.911782 
L 405.233766 122.084735 
L 410.064935 121.313281 
L 414.896104 120.593684 
L 419.727273 119.922457 
L 424.558442 119.29635 
L 429.38961 118.712328 
L 434.220779 118.167565 
L 439.051948 117.659419 
L 443.883117 117.185431 
L 448.714286 116.743303 
L 453.545455 116.330895 
L 458.376623 115.946209 
L 463.207792 115.587381 
L 468.038961 115.252673 
L 472.87013 114.940464 
L 477.701299 114.649241 
L 482.532468 114.377594 
L 487.363636 114.124206 
L 492.194805 113.887851 
L 497.025974 113.667384 
L 501.857143 113.461736 
L 506.688312 113.269912 
L 511.519481 113.090982 
L 516.350649 112.924079 
L 521.181818 112.768396 
L 526.012987 112.623177 
L 530.844156 112.48772 
L 535.675325 112.361368 
L 540.506494 112.243509 
L 545.337662 112.133573 
L 550.168831 112.031027 
L 555 111.935373 
L 559.831169 111.846149 
L 564.662338 111.762923 
L 569.493506 111.685291 
L 574.324675 111.612878 
L 579.155844 111.545332 
L 583.987013 111.482326 
L 588.818182 111.423556 
L 593.649351 111.368736 
L 598.480519 111.317601 
L 603.311688 111.269904 
L 608.142857 111.225412 
L 612.974026 111.183911 
L 617.805195 111.1452 
L 622.636364 111.109091 
" style="fill:none;stroke:#8c564b;stroke-linecap:square;stroke-width:1.5;"/>
   </g>
   <g id="line2d_31">
    <path clip-path="url(#pe2984a789e)" d="M 115.363636 605.290909 
L 120.194805 605.021973 
L 125.025974 604.242748 
L 129.857143 602.933684 
L 134.688312 601.033377 
L 139.519481 598.484871 
L 144.350649 595.280832 
L 149.181818 591.493687 
L 154.012987 587.270741 
L 158.844156 582.792805 
L 163.675325 578.222939 
L 168.506494 573.676178 
L 173.337662 569.218014 
L 178.168831 564.878719 
L 183 560.668916 
L 187.831169 556.590088 
L 192.662338 552.640058 
L 197.493506 548.815385 
L 202.324675 545.112287 
L 207.155844 541.526955 
L 211.987013 538.055662 
L 216.818182 534.694785 
L 221.649351 531.440813 
L 226.480519 528.290346 
L 231.311688 525.240092 
L 236.142857 522.286863 
L 240.974026 519.427572 
L 245.805195 516.659233 
L 250.636364 513.978951 
L 255.467532 511.383925 
L 260.298701 508.871445 
L 265.12987 506.438883 
L 269.961039 504.083699 
L 274.792208 501.80343 
L 279.623377 499.595694 
L 284.454545 497.458183 
L 289.285714 495.388664 
L 294.116883 493.384975 
L 298.948052 491.44502 
L 303.779221 489.566773 
L 308.61039 487.74827 
L 313.441558 485.987613 
L 318.272727 484.282959 
L 323.103896 482.632529 
L 327.935065 481.034597 
L 332.766234 479.487494 
L 337.597403 477.989602 
L 342.428571 476.539356 
L 347.25974 475.135241 
L 352.090909 473.775789 
L 356.922078 472.45958 
L 361.753247 471.185237 
L 366.584416 469.951431 
L 371.415584 468.75687 
L 376.246753 467.600307 
L 381.077922 466.480532 
L 385.909091 465.396377 
L 390.74026 464.346707 
L 395.571429 463.330426 
L 400.402597 462.346471 
L 405.233766 461.393815 
L 410.064935 460.471462 
L 414.896104 459.578448 
L 419.727273 458.71384 
L 424.558442 457.876734 
L 429.38961 457.066255 
L 434.220779 456.281557 
L 439.051948 455.521819 
L 443.883117 454.786247 
L 448.714286 454.074073 
L 453.545455 453.384553 
L 458.376623 452.716965 
L 463.207792 452.070613 
L 468.038961 451.44482 
L 472.87013 450.838933 
L 477.701299 450.252319 
L 482.532468 449.684364 
L 487.363636 449.134475 
L 492.194805 448.602077 
L 497.025974 448.086615 
L 501.857143 447.587548 
L 506.688312 447.104357 
L 511.519481 446.636535 
L 516.350649 446.183594 
L 521.181818 445.74506 
L 526.012987 445.320476 
L 530.844156 444.909397 
L 535.675325 444.511395 
L 540.506494 444.126052 
L 545.337662 443.752966 
L 550.168831 443.391748 
L 555 443.04202 
L 559.831169 442.703417 
L 564.662338 442.375584 
L 569.493506 442.058178 
L 574.324675 441.75087 
L 579.155844 441.453336 
L 583.987013 441.165267 
L 588.818182 440.88636 
L 593.649351 440.616326 
L 598.480519 440.354881 
L 603.311688 440.101752 
L 608.142857 439.856675 
L 612.974026 439.619393 
L 617.805195 439.389659 
L 622.636364 439.167233 
" style="fill:none;stroke:#e377c2;stroke-linecap:square;stroke-width:1.5;"/>
   </g>
   <g id="line2d_32">
    <path clip-path="url(#pe2984a789e)" d="M 115.363636 605.290909 
L 120.194805 605.002961 
L 125.025974 604.167471 
L 129.857143 602.781234 
L 134.688312 600.812748 
L 139.519481 598.237735 
L 144.350649 595.069034 
L 149.181818 591.373877 
L 154.012987 587.270202 
L 158.844156 582.90245 
L 163.675325 578.409603 
L 168.506494 573.901601 
L 173.337662 569.45173 
L 178.168831 565.101655 
L 183 560.871343 
L 187.831169 556.768152 
L 192.662338 552.793004 
L 197.493506 548.943885 
L 202.324675 545.217589 
L 207.155844 541.610495 
L 211.987013 538.118901 
L 216.818182 534.739148 
L 221.649351 531.467667 
L 226.480519 528.300995 
L 231.311688 525.235775 
L 236.142857 522.268759 
L 240.974026 519.3968 
L 245.805195 516.616852 
L 250.636364 513.925968 
L 255.467532 511.321294 
L 260.298701 508.800069 
L 265.12987 506.359618 
L 269.961039 503.997355 
L 274.792208 501.710773 
L 279.623377 499.497449 
L 284.454545 497.355035 
L 289.285714 495.28126 
L 294.116883 493.273924 
L 298.948052 491.330899 
L 303.779221 489.450125 
L 308.61039 487.629606 
L 313.441558 485.867414 
L 318.272727 484.161678 
L 323.103896 482.510591 
L 327.935065 480.912401 
L 332.766234 479.365413 
L 337.597403 477.867988 
L 342.428571 476.418537 
L 347.25974 475.015524 
L 352.090909 473.65746 
L 356.922078 472.342906 
L 361.753247 471.070468 
L 366.584416 469.838796 
L 371.415584 468.646584 
L 376.246753 467.492568 
L 381.077922 466.375524 
L 385.909091 465.294268 
L 390.74026 464.247653 
L 395.571429 463.23457 
L 400.402597 462.253944 
L 405.233766 461.304735 
L 410.064935 460.385936 
L 414.896104 459.496574 
L 419.727273 458.635706 
L 424.558442 457.802418 
L 429.38961 456.995826 
L 434.220779 456.215076 
L 439.051948 455.45934 
L 443.883117 454.727816 
L 448.714286 454.019729 
L 453.545455 453.334327 
L 458.376623 452.670884 
L 463.207792 452.028696 
L 468.038961 451.407083 
L 472.87013 450.805385 
L 477.701299 450.222964 
L 482.532468 449.659203 
L 487.363636 449.113503 
L 492.194805 448.585287 
L 497.025974 448.073993 
L 501.857143 447.57908 
L 506.688312 447.100023 
L 511.519481 446.636315 
L 516.350649 446.187462 
L 521.181818 445.75299 
L 526.012987 445.332437 
L 530.844156 444.925358 
L 535.675325 444.531321 
L 540.506494 444.149908 
L 545.337662 443.780715 
L 550.168831 443.42335 
L 555 443.077434 
L 559.831169 442.742601 
L 564.662338 442.418495 
L 569.493506 442.104773 
L 574.324675 441.801101 
L 579.155844 441.507159 
L 583.987013 441.222634 
L 588.818182 440.947225 
L 593.649351 440.680639 
L 598.480519 440.422594 
L 603.311688 440.172816 
L 608.142857 439.93104 
L 612.974026 439.697011 
L 617.805195 439.470479 
L 622.636364 439.251205 
" style="fill:none;stroke:#7f7f7f;stroke-linecap:square;stroke-width:1.5;"/>
   </g>
   <g id="line2d_33">
    <path clip-path="url(#pe2984a789e)" d="M 115.363636 605.290909 
L 120.194805 604.966156 
L 125.025974 604.043341 
L 129.857143 602.547313 
L 134.688312 600.473679 
L 139.519481 597.824975 
L 144.350649 594.634016 
L 149.181818 590.973118 
L 154.012987 586.947778 
L 158.844156 582.678681 
L 163.675325 578.280905 
L 168.506494 573.848931 
L 173.337662 569.451022 
L 178.168831 565.131214 
L 183 560.914976 
L 187.831169 556.815269 
L 192.662338 552.837392 
L 197.493506 548.982274 
L 202.324675 545.248505 
L 207.155844 541.633486 
L 211.987013 538.134062 
L 216.818182 534.746854 
L 221.649351 531.468422 
L 226.480519 528.295356 
L 231.311688 525.224311 
L 236.142857 522.252027 
L 240.974026 519.375341 
L 245.805195 516.591182 
L 250.636364 513.89658 
L 255.467532 511.288653 
L 260.298701 508.764616 
L 265.12987 506.32177 
L 269.961039 503.957503 
L 274.792208 501.669289 
L 279.623377 499.454681 
L 284.454545 497.311312 
L 289.285714 495.236889 
L 294.116883 493.229195 
L 298.948052 491.286083 
L 303.779221 489.405477 
L 308.61039 487.585364 
L 313.441558 485.823801 
L 318.272727 484.118902 
L 323.103896 482.468846 
L 327.935065 480.871868 
L 332.766234 479.326261 
L 337.597403 477.830372 
L 342.428571 476.382602 
L 347.25974 474.981403 
L 352.090909 473.625277 
L 356.922078 472.312774 
L 361.753247 471.042491 
L 366.584416 469.813071 
L 371.415584 468.623197 
L 376.246753 467.471599 
L 381.077922 466.357045 
L 385.909091 465.278343 
L 390.74026 464.23434 
L 395.571429 463.22392 
L 400.402597 462.246003 
L 405.233766 461.299543 
L 410.064935 460.383529 
L 414.896104 459.49698 
L 419.727273 458.638949 
L 424.558442 457.808519 
L 429.38961 457.004802 
L 434.220779 456.226938 
L 439.051948 455.474097 
L 443.883117 454.745472 
L 448.714286 454.040285 
L 453.545455 453.357783 
L 458.376623 452.697235 
L 463.207792 452.057935 
L 468.038961 451.439199 
L 472.87013 450.840367 
L 477.701299 450.260798 
L 482.532468 449.699872 
L 487.363636 449.15699 
L 492.194805 448.631571 
L 497.025974 448.123053 
L 501.857143 447.630893 
L 506.688312 447.154564 
L 511.519481 446.693558 
L 516.350649 446.247382 
L 521.181818 445.815557 
L 526.012987 445.397624 
L 530.844156 444.993134 
L 535.675325 444.601655 
L 540.506494 444.22277 
L 545.337662 443.856072 
L 550.168831 443.50117 
L 555 443.157685 
L 559.831169 442.825248 
L 564.662338 442.503505 
L 569.493506 442.192112 
L 574.324675 441.890736 
L 579.155844 441.599054 
L 583.987013 441.316754 
L 588.818182 441.043536 
L 593.649351 440.779106 
L 598.480519 440.523183 
L 603.311688 440.275491 
L 608.142857 440.035768 
L 612.974026 439.803756 
L 617.805195 439.579206 
L 622.636364 439.361881 
" style="fill:none;stroke:#bcbd22;stroke-linecap:square;stroke-width:1.5;"/>
   </g>
   <g id="line2d_34">
    <path clip-path="url(#pe2984a789e)" d="M 115.363636 605.290909 
L 120.194805 604.543607 
L 125.025974 603.702891 
L 129.857143 602.67535 
L 134.688312 600.620268 
L 139.519481 596.69693 
L 144.350649 595.108912 
L 149.181818 591.559225 
L 154.012987 587.635887 
L 158.844156 582.498182 
L 163.675325 579.78921 
L 168.506494 575.398808 
L 173.337662 571.755708 
L 178.168831 567.458719 
L 183 563.348555 
L 187.831169 559.238391 
L 192.662338 552.979732 
L 197.493506 548.122266 
L 202.324675 543.2648 
L 207.155844 540.182177 
L 211.987013 537.006141 
L 216.818182 533.923518 
L 221.649351 530.373831 
L 226.480519 526.917557 
L 231.311688 523.36787 
L 236.142857 520.565485 
L 240.974026 518.136752 
L 245.805195 516.455321 
L 250.636364 515.801432 
L 255.467532 514.120001 
L 260.298701 511.597855 
L 265.12987 508.982296 
L 269.961039 505.152371 
L 274.792208 499.360776 
L 279.623377 497.49252 
L 284.454545 492.541641 
L 289.285714 490.299733 
L 294.116883 488.244651 
L 298.948052 486.469808 
L 303.779221 485.535679 
L 308.61039 484.134487 
L 313.441558 483.013533 
L 318.272727 482.172818 
L 323.103896 479.650672 
L 327.935065 478.623131 
L 332.766234 477.315352 
L 337.597403 476.848288 
L 342.428571 476.381224 
L 347.25974 475.633921 
L 352.090909 475.353683 
L 356.922078 474.793206 
L 361.753247 474.326142 
L 366.584416 473.485426 
L 371.415584 470.776455 
L 376.246753 469.655501 
L 381.077922 468.908198 
L 385.909091 468.067483 
L 390.74026 466.759704 
L 395.571429 465.918988 
L 400.402597 464.98486 
L 405.233766 463.583668 
L 410.064935 462.742952 
L 414.896104 462.182476 
L 419.727273 461.435173 
L 424.558442 459.473504 
L 429.38961 458.35255 
L 434.220779 457.792073 
L 439.051948 456.484294 
L 443.883117 455.923817 
L 448.714286 454.989689 
L 453.545455 454.616038 
L 458.376623 453.868735 
L 463.207792 453.02802 
L 468.038961 452.560956 
L 472.87013 451.813653 
L 477.701299 451.346589 
L 482.532468 450.972938 
L 487.363636 450.505874 
L 492.194805 450.225635 
L 497.025974 449.758571 
L 501.857143 449.291507 
L 506.688312 448.263966 
L 511.519481 447.423251 
L 516.350649 446.769361 
L 521.181818 446.208884 
L 526.012987 445.648407 
L 530.844156 443.873564 
L 535.675325 443.499912 
L 540.506494 442.846023 
L 545.337662 442.378959 
L 550.168831 441.911895 
L 555 441.631656 
L 559.831169 441.444831 
L 564.662338 440.884354 
L 569.493506 440.137051 
L 574.324675 439.856813 
L 579.155844 439.576574 
L 583.987013 439.296336 
L 588.818182 439.10951 
L 593.649351 439.016097 
L 598.480519 438.829272 
L 603.311688 438.642446 
L 608.142857 438.175382 
L 612.974026 437.988556 
L 617.805195 437.895144 
L 622.636364 437.801731 
" style="fill:none;stroke:#17becf;stroke-dasharray:14.8,6.4;stroke-dashoffset:0;stroke-width:4;"/>
   </g>
   <g id="patch_3">
    <path d="M 90 630 
L 90 86.4 
" style="fill:none;stroke:#000000;stroke-linecap:square;stroke-linejoin:miter;stroke-width:0.8;"/>
   </g>
   <g id="patch_4">
    <path d="M 648 630 
L 648 86.4 
" style="fill:none;stroke:#000000;stroke-linecap:square;stroke-linejoin:miter;stroke-width:0.8;"/>
   </g>
   <g id="patch_5">
    <path d="M 90 630 
L 648 630 
" style="fill:none;stroke:#000000;stroke-linecap:square;stroke-linejoin:miter;stroke-width:0.8;"/>
   </g>
   <g id="patch_6">
    <path d="M 90 86.4 
L 648 86.4 
" style="fill:none;stroke:#000000;stroke-linecap:square;stroke-linejoin:miter;stroke-width:0.8;"/>
   </g>
   <g id="text_15">
    <!-- Lithuania relative err =  -->
    <g transform="translate(297.405 80.4)scale(0.12 -0.12)">
     <defs>
      <path d="M 9.8125 72.90625 
L 19.671875 72.90625 
L 19.671875 8.296875 
L 55.171875 8.296875 
L 55.171875 0 
L 9.8125 0 
z
" id="DejaVuSans-76"/>
      <path d="M 54.890625 33.015625 
L 54.890625 0 
L 45.90625 0 
L 45.90625 32.71875 
Q 45.90625 40.484375 42.875 44.328125 
Q 39.84375 48.1875 33.796875 48.1875 
Q 26.515625 48.1875 22.3125 43.546875 
Q 18.109375 38.921875 18.109375 30.90625 
L 18.109375 0 
L 9.078125 0 
L 9.078125 75.984375 
L 18.109375 75.984375 
L 18.109375 46.1875 
Q 21.34375 51.125 25.703125 53.5625 
Q 30.078125 56 35.796875 56 
Q 45.21875 56 50.046875 50.171875 
Q 54.890625 44.34375 54.890625 33.015625 
z
" id="DejaVuSans-104"/>
      <path d="M 54.890625 33.015625 
L 54.890625 0 
L 45.90625 0 
L 45.90625 32.71875 
Q 45.90625 40.484375 42.875 44.328125 
Q 39.84375 48.1875 33.796875 48.1875 
Q 26.515625 48.1875 22.3125 43.546875 
Q 18.109375 38.921875 18.109375 30.90625 
L 18.109375 0 
L 9.078125 0 
L 9.078125 54.6875 
L 18.109375 54.6875 
L 18.109375 46.1875 
Q 21.34375 51.125 25.703125 53.5625 
Q 30.078125 56 35.796875 56 
Q 45.21875 56 50.046875 50.171875 
Q 54.890625 44.34375 54.890625 33.015625 
z
" id="DejaVuSans-110"/>
      <path d="M 41.109375 46.296875 
Q 39.59375 47.171875 37.8125 47.578125 
Q 36.03125 48 33.890625 48 
Q 26.265625 48 22.1875 43.046875 
Q 18.109375 38.09375 18.109375 28.8125 
L 18.109375 0 
L 9.078125 0 
L 9.078125 54.6875 
L 18.109375 54.6875 
L 18.109375 46.1875 
Q 20.953125 51.171875 25.484375 53.578125 
Q 30.03125 56 36.53125 56 
Q 37.453125 56 38.578125 55.875 
Q 39.703125 55.765625 41.0625 55.515625 
z
" id="DejaVuSans-114"/>
      <path d="M 10.59375 45.40625 
L 73.1875 45.40625 
L 73.1875 37.203125 
L 10.59375 37.203125 
z
M 10.59375 25.484375 
L 73.1875 25.484375 
L 73.1875 17.1875 
L 10.59375 17.1875 
z
" id="DejaVuSans-61"/>
     </defs>
     <use xlink:href="#DejaVuSans-76"/>
     <use x="55.712891" xlink:href="#DejaVuSans-105"/>
     <use x="83.496094" xlink:href="#DejaVuSans-116"/>
     <use x="122.705078" xlink:href="#DejaVuSans-104"/>
     <use x="186.083984" xlink:href="#DejaVuSans-117"/>
     <use x="249.462891" xlink:href="#DejaVuSans-97"/>
     <use x="310.742188" xlink:href="#DejaVuSans-110"/>
     <use x="374.121094" xlink:href="#DejaVuSans-105"/>
     <use x="401.904297" xlink:href="#DejaVuSans-97"/>
     <use x="463.183594" xlink:href="#DejaVuSans-32"/>
     <use x="494.970703" xlink:href="#DejaVuSans-114"/>
     <use x="533.833984" xlink:href="#DejaVuSans-101"/>
     <use x="595.357422" xlink:href="#DejaVuSans-108"/>
     <use x="623.140625" xlink:href="#DejaVuSans-97"/>
     <use x="684.419922" xlink:href="#DejaVuSans-116"/>
     <use x="723.628906" xlink:href="#DejaVuSans-105"/>
     <use x="751.412109" xlink:href="#DejaVuSans-118"/>
     <use x="810.591797" xlink:href="#DejaVuSans-101"/>
     <use x="872.115234" xlink:href="#DejaVuSans-32"/>
     <use x="903.902344" xlink:href="#DejaVuSans-101"/>
     <use x="965.425781" xlink:href="#DejaVuSans-114"/>
     <use x="1004.789062" xlink:href="#DejaVuSans-114"/>
     <use x="1045.902344" xlink:href="#DejaVuSans-32"/>
     <use x="1077.689453" xlink:href="#DejaVuSans-61"/>
     <use x="1161.478516" xlink:href="#DejaVuSans-32"/>
    </g>
   </g>
   <g id="legend_1">
    <g id="patch_7">
     <path d="M 97 226.503125 
L 185.6 226.503125 
Q 187.6 226.503125 187.6 224.503125 
L 187.6 93.4 
Q 187.6 91.4 185.6 91.4 
L 97 91.4 
Q 95 91.4 95 93.4 
L 95 224.503125 
Q 95 226.503125 97 226.503125 
z
" style="fill:#ffffff;opacity:0.8;stroke:#cccccc;stroke-linejoin:miter;"/>
    </g>
    <g id="line2d_35">
     <path d="M 99 99.498438 
L 119 99.498438 
" style="fill:none;stroke:#1f77b4;stroke-linecap:square;stroke-width:1.5;"/>
    </g>
    <g id="line2d_36"/>
    <g id="text_16">
     <!-- SI -->
     <g transform="translate(127 102.998438)scale(0.1 -0.1)">
      <defs>
       <path d="M 53.515625 70.515625 
L 53.515625 60.890625 
Q 47.90625 63.578125 42.921875 64.890625 
Q 37.9375 66.21875 33.296875 66.21875 
Q 25.25 66.21875 20.875 63.09375 
Q 16.5 59.96875 16.5 54.203125 
Q 16.5 49.359375 19.40625 46.890625 
Q 22.3125 44.4375 30.421875 42.921875 
L 36.375 41.703125 
Q 47.40625 39.59375 52.65625 34.296875 
Q 57.90625 29 57.90625 20.125 
Q 57.90625 9.515625 50.796875 4.046875 
Q 43.703125 -1.421875 29.984375 -1.421875 
Q 24.8125 -1.421875 18.96875 -0.25 
Q 13.140625 0.921875 6.890625 3.21875 
L 6.890625 13.375 
Q 12.890625 10.015625 18.65625 8.296875 
Q 24.421875 6.59375 29.984375 6.59375 
Q 38.421875 6.59375 43.015625 9.90625 
Q 47.609375 13.234375 47.609375 19.390625 
Q 47.609375 24.75 44.3125 27.78125 
Q 41.015625 30.8125 33.5 32.328125 
L 27.484375 33.5 
Q 16.453125 35.6875 11.515625 40.375 
Q 6.59375 45.0625 6.59375 53.421875 
Q 6.59375 63.09375 13.40625 68.65625 
Q 20.21875 74.21875 32.171875 74.21875 
Q 37.3125 74.21875 42.625 73.28125 
Q 47.953125 72.359375 53.515625 70.515625 
z
" id="DejaVuSans-83"/>
       <path d="M 9.8125 72.90625 
L 19.671875 72.90625 
L 19.671875 0 
L 9.8125 0 
z
" id="DejaVuSans-73"/>
      </defs>
      <use xlink:href="#DejaVuSans-83"/>
      <use x="63.476562" xlink:href="#DejaVuSans-73"/>
     </g>
    </g>
    <g id="line2d_37">
     <path d="M 99 114.176563 
L 119 114.176563 
" style="fill:none;stroke:#ff7f0e;stroke-linecap:square;stroke-width:1.5;"/>
    </g>
    <g id="line2d_38"/>
    <g id="text_17">
     <!-- BD -->
     <g transform="translate(127 117.676563)scale(0.1 -0.1)">
      <defs>
       <path d="M 19.671875 34.8125 
L 19.671875 8.109375 
L 35.5 8.109375 
Q 43.453125 8.109375 47.28125 11.40625 
Q 51.125 14.703125 51.125 21.484375 
Q 51.125 28.328125 47.28125 31.5625 
Q 43.453125 34.8125 35.5 34.8125 
z
M 19.671875 64.796875 
L 19.671875 42.828125 
L 34.28125 42.828125 
Q 41.5 42.828125 45.03125 45.53125 
Q 48.578125 48.25 48.578125 53.8125 
Q 48.578125 59.328125 45.03125 62.0625 
Q 41.5 64.796875 34.28125 64.796875 
z
M 9.8125 72.90625 
L 35.015625 72.90625 
Q 46.296875 72.90625 52.390625 68.21875 
Q 58.5 63.53125 58.5 54.890625 
Q 58.5 48.1875 55.375 44.234375 
Q 52.25 40.28125 46.1875 39.3125 
Q 53.46875 37.75 57.5 32.78125 
Q 61.53125 27.828125 61.53125 20.40625 
Q 61.53125 10.640625 54.890625 5.3125 
Q 48.25 0 35.984375 0 
L 9.8125 0 
z
" id="DejaVuSans-66"/>
      </defs>
      <use xlink:href="#DejaVuSans-66"/>
      <use x="68.603516" xlink:href="#DejaVuSans-68"/>
     </g>
    </g>
    <g id="line2d_39">
     <path d="M 99 128.854688 
L 119 128.854688 
" style="fill:none;stroke:#2ca02c;stroke-linecap:square;stroke-width:1.5;"/>
    </g>
    <g id="line2d_40"/>
    <g id="text_18">
     <!-- SIR -->
     <g transform="translate(127 132.354688)scale(0.1 -0.1)">
      <defs>
       <path d="M 44.390625 34.1875 
Q 47.5625 33.109375 50.5625 29.59375 
Q 53.5625 26.078125 56.59375 19.921875 
L 66.609375 0 
L 56 0 
L 46.6875 18.703125 
Q 43.0625 26.03125 39.671875 28.421875 
Q 36.28125 30.8125 30.421875 30.8125 
L 19.671875 30.8125 
L 19.671875 0 
L 9.8125 0 
L 9.8125 72.90625 
L 32.078125 72.90625 
Q 44.578125 72.90625 50.734375 67.671875 
Q 56.890625 62.453125 56.890625 51.90625 
Q 56.890625 45.015625 53.6875 40.46875 
Q 50.484375 35.9375 44.390625 34.1875 
z
M 19.671875 64.796875 
L 19.671875 38.921875 
L 32.078125 38.921875 
Q 39.203125 38.921875 42.84375 42.21875 
Q 46.484375 45.515625 46.484375 51.90625 
Q 46.484375 58.296875 42.84375 61.546875 
Q 39.203125 64.796875 32.078125 64.796875 
z
" id="DejaVuSans-82"/>
      </defs>
      <use xlink:href="#DejaVuSans-83"/>
      <use x="63.476562" xlink:href="#DejaVuSans-73"/>
      <use x="92.96875" xlink:href="#DejaVuSans-82"/>
     </g>
    </g>
    <g id="line2d_41">
     <path d="M 99 143.532812 
L 119 143.532812 
" style="fill:none;stroke:#d62728;stroke-linecap:square;stroke-width:1.5;"/>
    </g>
    <g id="line2d_42"/>
    <g id="text_19">
     <!-- eSIR -->
     <g transform="translate(127 147.032812)scale(0.1 -0.1)">
      <use xlink:href="#DejaVuSans-101"/>
      <use x="61.523438" xlink:href="#DejaVuSans-83"/>
      <use x="125" xlink:href="#DejaVuSans-73"/>
      <use x="154.492188" xlink:href="#DejaVuSans-82"/>
     </g>
    </g>
    <g id="line2d_43">
     <path d="M 99 158.210938 
L 119 158.210938 
" style="fill:none;stroke:#9467bd;stroke-linecap:square;stroke-width:1.5;"/>
    </g>
    <g id="line2d_44"/>
    <g id="text_20">
     <!-- SEIR -->
     <g transform="translate(127 161.710938)scale(0.1 -0.1)">
      <defs>
       <path d="M 9.8125 72.90625 
L 55.90625 72.90625 
L 55.90625 64.59375 
L 19.671875 64.59375 
L 19.671875 43.015625 
L 54.390625 43.015625 
L 54.390625 34.71875 
L 19.671875 34.71875 
L 19.671875 8.296875 
L 56.78125 8.296875 
L 56.78125 0 
L 9.8125 0 
z
" id="DejaVuSans-69"/>
      </defs>
      <use xlink:href="#DejaVuSans-83"/>
      <use x="63.476562" xlink:href="#DejaVuSans-69"/>
      <use x="126.660156" xlink:href="#DejaVuSans-73"/>
      <use x="156.152344" xlink:href="#DejaVuSans-82"/>
     </g>
    </g>
    <g id="line2d_45">
     <path d="M 99 172.889063 
L 119 172.889063 
" style="fill:none;stroke:#8c564b;stroke-linecap:square;stroke-width:1.5;"/>
    </g>
    <g id="line2d_46"/>
    <g id="text_21">
     <!-- eSEIR -->
     <g transform="translate(127 176.389063)scale(0.1 -0.1)">
      <use xlink:href="#DejaVuSans-101"/>
      <use x="61.523438" xlink:href="#DejaVuSans-83"/>
      <use x="125" xlink:href="#DejaVuSans-69"/>
      <use x="188.183594" xlink:href="#DejaVuSans-73"/>
      <use x="217.675781" xlink:href="#DejaVuSans-82"/>
     </g>
    </g>
    <g id="line2d_47">
     <path d="M 99 187.567188 
L 119 187.567188 
" style="fill:none;stroke:#e377c2;stroke-linecap:square;stroke-width:1.5;"/>
    </g>
    <g id="line2d_48"/>
    <g id="text_22">
     <!-- SEIUR -->
     <g transform="translate(127 191.067188)scale(0.1 -0.1)">
      <defs>
       <path d="M 8.6875 72.90625 
L 18.609375 72.90625 
L 18.609375 28.609375 
Q 18.609375 16.890625 22.84375 11.734375 
Q 27.09375 6.59375 36.625 6.59375 
Q 46.09375 6.59375 50.34375 11.734375 
Q 54.59375 16.890625 54.59375 28.609375 
L 54.59375 72.90625 
L 64.5 72.90625 
L 64.5 27.390625 
Q 64.5 13.140625 57.4375 5.859375 
Q 50.390625 -1.421875 36.625 -1.421875 
Q 22.796875 -1.421875 15.734375 5.859375 
Q 8.6875 13.140625 8.6875 27.390625 
z
" id="DejaVuSans-85"/>
      </defs>
      <use xlink:href="#DejaVuSans-83"/>
      <use x="63.476562" xlink:href="#DejaVuSans-69"/>
      <use x="126.660156" xlink:href="#DejaVuSans-73"/>
      <use x="156.152344" xlink:href="#DejaVuSans-85"/>
      <use x="229.345703" xlink:href="#DejaVuSans-82"/>
     </g>
    </g>
    <g id="line2d_49">
     <path d="M 99 202.245312 
L 119 202.245312 
" style="fill:none;stroke:#7f7f7f;stroke-linecap:square;stroke-width:1.5;"/>
    </g>
    <g id="line2d_50"/>
    <g id="text_23">
     <!-- eSEIUR -->
     <g transform="translate(127 205.745312)scale(0.1 -0.1)">
      <use xlink:href="#DejaVuSans-101"/>
      <use x="61.523438" xlink:href="#DejaVuSans-83"/>
      <use x="125" xlink:href="#DejaVuSans-69"/>
      <use x="188.183594" xlink:href="#DejaVuSans-73"/>
      <use x="217.675781" xlink:href="#DejaVuSans-85"/>
      <use x="290.869141" xlink:href="#DejaVuSans-82"/>
     </g>
    </g>
    <g id="line2d_51">
     <path d="M 99 216.923437 
L 119 216.923437 
" style="fill:none;stroke:#bcbd22;stroke-linecap:square;stroke-width:1.5;"/>
    </g>
    <g id="line2d_52"/>
    <g id="text_24">
     <!-- eSEIUR$^{range}$ -->
     <g transform="translate(127 220.423437)scale(0.1 -0.1)">
      <defs>
       <path d="M 44.578125 46.390625 
Q 43.21875 47.125 41.453125 47.515625 
Q 39.703125 47.90625 37.703125 47.90625 
Q 30.515625 47.90625 25.140625 42.453125 
Q 19.78125 37.015625 18.015625 27.875 
L 12.5 0 
L 3.515625 0 
L 14.203125 54.6875 
L 23.1875 54.6875 
L 21.484375 46.1875 
Q 25.046875 50.921875 30 53.453125 
Q 34.96875 56 40.578125 56 
Q 42.046875 56 43.453125 55.828125 
Q 44.875 55.671875 46.296875 55.28125 
z
" id="DejaVuSans-Oblique-114"/>
       <path d="M 53.71875 31.203125 
L 47.609375 0 
L 38.625 0 
L 40.28125 8.296875 
Q 36.328125 3.421875 31.265625 1 
Q 26.21875 -1.421875 20.015625 -1.421875 
Q 13.03125 -1.421875 8.5625 2.84375 
Q 4.109375 7.125 4.109375 13.8125 
Q 4.109375 23.390625 11.75 28.953125 
Q 19.390625 34.515625 32.8125 34.515625 
L 45.3125 34.515625 
L 45.796875 36.921875 
Q 45.90625 37.3125 45.953125 37.765625 
Q 46 38.234375 46 39.203125 
Q 46 43.5625 42.453125 45.96875 
Q 38.921875 48.390625 32.515625 48.390625 
Q 28.125 48.390625 23.5 47.265625 
Q 18.890625 46.140625 14.015625 43.890625 
L 15.578125 52.203125 
Q 20.65625 54.109375 25.515625 55.046875 
Q 30.375 56 34.90625 56 
Q 44.578125 56 49.625 51.796875 
Q 54.6875 47.609375 54.6875 39.59375 
Q 54.6875 37.984375 54.4375 35.8125 
Q 54.203125 33.640625 53.71875 31.203125 
z
M 44 27.484375 
L 35.015625 27.484375 
Q 23.96875 27.484375 18.671875 24.53125 
Q 13.375 21.578125 13.375 15.375 
Q 13.375 11.078125 16.078125 8.640625 
Q 18.796875 6.203125 23.578125 6.203125 
Q 30.90625 6.203125 36.375 11.453125 
Q 41.84375 16.703125 43.609375 25.484375 
z
" id="DejaVuSans-Oblique-97"/>
       <path d="M 55.71875 33.015625 
L 49.3125 0 
L 40.28125 0 
L 46.6875 32.671875 
Q 47.125 34.96875 47.359375 36.71875 
Q 47.609375 38.484375 47.609375 39.5 
Q 47.609375 43.609375 45.015625 45.890625 
Q 42.4375 48.1875 37.796875 48.1875 
Q 30.5625 48.1875 25.34375 43.375 
Q 20.125 38.578125 18.5 30.328125 
L 12.5 0 
L 3.515625 0 
L 14.109375 54.6875 
L 23.09375 54.6875 
L 21.296875 46.09375 
Q 25.046875 50.828125 30.3125 53.40625 
Q 35.59375 56 41.40625 56 
Q 48.640625 56 52.609375 52.09375 
Q 56.59375 48.1875 56.59375 41.109375 
Q 56.59375 39.359375 56.375 37.359375 
Q 56.15625 35.359375 55.71875 33.015625 
z
" id="DejaVuSans-Oblique-110"/>
       <path d="M 59.625 54.6875 
L 50.296875 6.78125 
Q 47.609375 -7.125 40.015625 -13.953125 
Q 32.421875 -20.796875 19.578125 -20.796875 
Q 14.84375 -20.796875 10.78125 -20.09375 
Q 6.734375 -19.390625 3.21875 -17.921875 
L 4.890625 -9.1875 
Q 8.203125 -11.328125 11.90625 -12.34375 
Q 15.625 -13.375 19.828125 -13.375 
Q 28.375 -13.375 33.859375 -8.703125 
Q 39.359375 -4.046875 41.109375 4.6875 
L 41.890625 8.796875 
Q 38.140625 4.5 33.15625 2.25 
Q 28.171875 0 22.40625 0 
Q 14.109375 0 9.34375 5.484375 
Q 4.59375 10.984375 4.59375 20.609375 
Q 4.59375 28.171875 7.46875 35.421875 
Q 10.359375 42.671875 15.578125 48.296875 
Q 19.046875 52 23.65625 54 
Q 28.265625 56 33.296875 56 
Q 38.8125 56 42.90625 53.4375 
Q 47.015625 50.875 49.03125 46.1875 
L 50.59375 54.6875 
z
M 46.09375 34.625 
Q 46.09375 41.265625 42.96875 44.875 
Q 39.84375 48.484375 34.078125 48.484375 
Q 30.515625 48.484375 27.296875 47.0625 
Q 24.078125 45.65625 21.78125 43.109375 
Q 18.0625 38.921875 15.984375 33.234375 
Q 13.921875 27.546875 13.921875 21.484375 
Q 13.921875 14.75 17.0625 11.125 
Q 20.21875 7.515625 26.125 7.515625 
Q 34.671875 7.515625 40.375 15.25 
Q 46.09375 23 46.09375 34.625 
z
" id="DejaVuSans-Oblique-103"/>
       <path d="M 48.09375 32.234375 
Q 48.25 33.015625 48.3125 33.84375 
Q 48.390625 34.671875 48.390625 35.5 
Q 48.390625 41.453125 44.890625 44.921875 
Q 41.40625 48.390625 35.40625 48.390625 
Q 28.71875 48.390625 23.578125 44.15625 
Q 18.453125 39.9375 15.828125 32.171875 
z
M 55.90625 25.203125 
L 14.109375 25.203125 
Q 13.8125 23.34375 13.71875 22.265625 
Q 13.625 21.1875 13.625 20.40625 
Q 13.625 13.625 17.796875 9.90625 
Q 21.96875 6.203125 29.59375 6.203125 
Q 35.453125 6.203125 40.671875 7.515625 
Q 45.90625 8.84375 50.390625 11.375 
L 48.6875 2.484375 
Q 43.84375 0.53125 38.6875 -0.4375 
Q 33.546875 -1.421875 28.21875 -1.421875 
Q 16.84375 -1.421875 10.71875 4.015625 
Q 4.59375 9.46875 4.59375 19.484375 
Q 4.59375 28.03125 7.640625 35.375 
Q 10.6875 42.71875 16.609375 48.484375 
Q 20.40625 52.09375 25.65625 54.046875 
Q 30.90625 56 36.8125 56 
Q 46.09375 56 51.578125 50.4375 
Q 57.078125 44.875 57.078125 35.5 
Q 57.078125 33.25 56.78125 30.6875 
Q 56.5 28.125 55.90625 25.203125 
z
" id="DejaVuSans-Oblique-101"/>
      </defs>
      <use transform="translate(0 0.51875)" xlink:href="#DejaVuSans-101"/>
      <use transform="translate(61.523438 0.51875)" xlink:href="#DejaVuSans-83"/>
      <use transform="translate(125 0.51875)" xlink:href="#DejaVuSans-69"/>
      <use transform="translate(188.183594 0.51875)" xlink:href="#DejaVuSans-73"/>
      <use transform="translate(217.675781 0.51875)" xlink:href="#DejaVuSans-85"/>
      <use transform="translate(288.619141 0.51875)" xlink:href="#DejaVuSans-82"/>
      <use transform="translate(359.058594 38.8)scale(0.7)" xlink:href="#DejaVuSans-Oblique-114"/>
      <use transform="translate(387.837891 38.8)scale(0.7)" xlink:href="#DejaVuSans-Oblique-97"/>
      <use transform="translate(430.733398 38.8)scale(0.7)" xlink:href="#DejaVuSans-Oblique-110"/>
      <use transform="translate(475.098633 38.8)scale(0.7)" xlink:href="#DejaVuSans-Oblique-103"/>
      <use transform="translate(519.532227 38.8)scale(0.7)" xlink:href="#DejaVuSans-Oblique-101"/>
     </g>
    </g>
   </g>
  </g>
 </g>
 <defs>
  <clipPath id="pe2984a789e">
   <rect height="543.6" width="558" x="90" y="86.4"/>
  </clipPath>
 </defs>
</svg>
