<?xml version="1.0" encoding="utf-8" standalone="no"?>
<!DOCTYPE svg PUBLIC "-//W3C//DTD SVG 1.1//EN"
  "http://www.w3.org/Graphics/SVG/1.1/DTD/svg11.dtd">
<!-- Created with matplotlib (https://matplotlib.org/) -->
<svg height="720pt" version="1.1" viewBox="0 0 720 720" width="720pt" xmlns="http://www.w3.org/2000/svg" xmlns:xlink="http://www.w3.org/1999/xlink">
 <metadata>
  <rdf:RDF xmlns:cc="http://creativecommons.org/ns#" xmlns:dc="http://purl.org/dc/elements/1.1/" xmlns:rdf="http://www.w3.org/1999/02/22-rdf-syntax-ns#">
   <cc:Work>
    <dc:type rdf:resource="http://purl.org/dc/dcmitype/StillImage"/>
    <dc:date>2022-10-11T20:58:59.247432</dc:date>
    <dc:format>image/svg+xml</dc:format>
    <dc:creator>
     <cc:Agent>
      <dc:title>Matplotlib v3.3.2, https://matplotlib.org/</dc:title>
     </cc:Agent>
    </dc:creator>
   </cc:Work>
  </rdf:RDF>
 </metadata>
 <defs>
  <style type="text/css">*{stroke-linecap:butt;stroke-linejoin:round;}</style>
 </defs>
 <g id="figure_1">
  <g id="patch_1">
   <path d="M 0 720 
L 720 720 
L 720 0 
L 0 0 
z
" style="fill:none;"/>
  </g>
  <g id="axes_1">
   <g id="patch_2">
    <path d="M 90 630 
L 648 630 
L 648 86.4 
L 90 86.4 
z
" style="fill:#ffffff;"/>
   </g>
   <g id="matplotlib.axis_1">
    <g id="xtick_1">
     <g id="line2d_1">
      <path clip-path="url(#pa9cd1181af)" d="M 115.363636 630 
L 115.363636 86.4 
" style="fill:none;stroke:#b0b0b0;stroke-linecap:square;stroke-width:0.8;"/>
     </g>
     <g id="line2d_2">
      <defs>
       <path d="M 0 0 
L 0 3.5 
" id="m7763d81c38" style="stroke:#000000;stroke-width:0.8;"/>
      </defs>
      <g>
       <use style="stroke:#000000;stroke-width:0.8;" x="115.363636" xlink:href="#m7763d81c38" y="630"/>
      </g>
     </g>
     <g id="text_1">
      <!-- 0 -->
      <g transform="translate(112.182386 644.598438)scale(0.1 -0.1)">
       <defs>
        <path d="M 31.78125 66.40625 
Q 24.171875 66.40625 20.328125 58.90625 
Q 16.5 51.421875 16.5 36.375 
Q 16.5 21.390625 20.328125 13.890625 
Q 24.171875 6.390625 31.78125 6.390625 
Q 39.453125 6.390625 43.28125 13.890625 
Q 47.125 21.390625 47.125 36.375 
Q 47.125 51.421875 43.28125 58.90625 
Q 39.453125 66.40625 31.78125 66.40625 
z
M 31.78125 74.21875 
Q 44.046875 74.21875 50.515625 64.515625 
Q 56.984375 54.828125 56.984375 36.375 
Q 56.984375 17.96875 50.515625 8.265625 
Q 44.046875 -1.421875 31.78125 -1.421875 
Q 19.53125 -1.421875 13.0625 8.265625 
Q 6.59375 17.96875 6.59375 36.375 
Q 6.59375 54.828125 13.0625 64.515625 
Q 19.53125 74.21875 31.78125 74.21875 
z
" id="DejaVuSans-48"/>
       </defs>
       <use xlink:href="#DejaVuSans-48"/>
      </g>
     </g>
    </g>
    <g id="xtick_2">
     <g id="line2d_3">
      <path clip-path="url(#pa9cd1181af)" d="M 183 630 
L 183 86.4 
" style="fill:none;stroke:#b0b0b0;stroke-linecap:square;stroke-width:0.8;"/>
     </g>
     <g id="line2d_4">
      <g>
       <use style="stroke:#000000;stroke-width:0.8;" x="183" xlink:href="#m7763d81c38" y="630"/>
      </g>
     </g>
     <g id="text_2">
      <!-- 10 -->
      <g transform="translate(176.6375 644.598438)scale(0.1 -0.1)">
       <defs>
        <path d="M 12.40625 8.296875 
L 28.515625 8.296875 
L 28.515625 63.921875 
L 10.984375 60.40625 
L 10.984375 69.390625 
L 28.421875 72.90625 
L 38.28125 72.90625 
L 38.28125 8.296875 
L 54.390625 8.296875 
L 54.390625 0 
L 12.40625 0 
z
" id="DejaVuSans-49"/>
       </defs>
       <use xlink:href="#DejaVuSans-49"/>
       <use x="63.623047" xlink:href="#DejaVuSans-48"/>
      </g>
     </g>
    </g>
    <g id="xtick_3">
     <g id="line2d_5">
      <path clip-path="url(#pa9cd1181af)" d="M 250.636364 630 
L 250.636364 86.4 
" style="fill:none;stroke:#b0b0b0;stroke-linecap:square;stroke-width:0.8;"/>
     </g>
     <g id="line2d_6">
      <g>
       <use style="stroke:#000000;stroke-width:0.8;" x="250.636364" xlink:href="#m7763d81c38" y="630"/>
      </g>
     </g>
     <g id="text_3">
      <!-- 20 -->
      <g transform="translate(244.273864 644.598438)scale(0.1 -0.1)">
       <defs>
        <path d="M 19.1875 8.296875 
L 53.609375 8.296875 
L 53.609375 0 
L 7.328125 0 
L 7.328125 8.296875 
Q 12.9375 14.109375 22.625 23.890625 
Q 32.328125 33.6875 34.8125 36.53125 
Q 39.546875 41.84375 41.421875 45.53125 
Q 43.3125 49.21875 43.3125 52.78125 
Q 43.3125 58.59375 39.234375 62.25 
Q 35.15625 65.921875 28.609375 65.921875 
Q 23.96875 65.921875 18.8125 64.3125 
Q 13.671875 62.703125 7.8125 59.421875 
L 7.8125 69.390625 
Q 13.765625 71.78125 18.9375 73 
Q 24.125 74.21875 28.421875 74.21875 
Q 39.75 74.21875 46.484375 68.546875 
Q 53.21875 62.890625 53.21875 53.421875 
Q 53.21875 48.921875 51.53125 44.890625 
Q 49.859375 40.875 45.40625 35.40625 
Q 44.1875 33.984375 37.640625 27.21875 
Q 31.109375 20.453125 19.1875 8.296875 
z
" id="DejaVuSans-50"/>
       </defs>
       <use xlink:href="#DejaVuSans-50"/>
       <use x="63.623047" xlink:href="#DejaVuSans-48"/>
      </g>
     </g>
    </g>
    <g id="xtick_4">
     <g id="line2d_7">
      <path clip-path="url(#pa9cd1181af)" d="M 318.272727 630 
L 318.272727 86.4 
" style="fill:none;stroke:#b0b0b0;stroke-linecap:square;stroke-width:0.8;"/>
     </g>
     <g id="line2d_8">
      <g>
       <use style="stroke:#000000;stroke-width:0.8;" x="318.272727" xlink:href="#m7763d81c38" y="630"/>
      </g>
     </g>
     <g id="text_4">
      <!-- 30 -->
      <g transform="translate(311.910227 644.598438)scale(0.1 -0.1)">
       <defs>
        <path d="M 40.578125 39.3125 
Q 47.65625 37.796875 51.625 33 
Q 55.609375 28.21875 55.609375 21.1875 
Q 55.609375 10.40625 48.1875 4.484375 
Q 40.765625 -1.421875 27.09375 -1.421875 
Q 22.515625 -1.421875 17.65625 -0.515625 
Q 12.796875 0.390625 7.625 2.203125 
L 7.625 11.71875 
Q 11.71875 9.328125 16.59375 8.109375 
Q 21.484375 6.890625 26.8125 6.890625 
Q 36.078125 6.890625 40.9375 10.546875 
Q 45.796875 14.203125 45.796875 21.1875 
Q 45.796875 27.640625 41.28125 31.265625 
Q 36.765625 34.90625 28.71875 34.90625 
L 20.21875 34.90625 
L 20.21875 43.015625 
L 29.109375 43.015625 
Q 36.375 43.015625 40.234375 45.921875 
Q 44.09375 48.828125 44.09375 54.296875 
Q 44.09375 59.90625 40.109375 62.90625 
Q 36.140625 65.921875 28.71875 65.921875 
Q 24.65625 65.921875 20.015625 65.03125 
Q 15.375 64.15625 9.8125 62.3125 
L 9.8125 71.09375 
Q 15.4375 72.65625 20.34375 73.4375 
Q 25.25 74.21875 29.59375 74.21875 
Q 40.828125 74.21875 47.359375 69.109375 
Q 53.90625 64.015625 53.90625 55.328125 
Q 53.90625 49.265625 50.4375 45.09375 
Q 46.96875 40.921875 40.578125 39.3125 
z
" id="DejaVuSans-51"/>
       </defs>
       <use xlink:href="#DejaVuSans-51"/>
       <use x="63.623047" xlink:href="#DejaVuSans-48"/>
      </g>
     </g>
    </g>
    <g id="xtick_5">
     <g id="line2d_9">
      <path clip-path="url(#pa9cd1181af)" d="M 385.909091 630 
L 385.909091 86.4 
" style="fill:none;stroke:#b0b0b0;stroke-linecap:square;stroke-width:0.8;"/>
     </g>
     <g id="line2d_10">
      <g>
       <use style="stroke:#000000;stroke-width:0.8;" x="385.909091" xlink:href="#m7763d81c38" y="630"/>
      </g>
     </g>
     <g id="text_5">
      <!-- 40 -->
      <g transform="translate(379.546591 644.598438)scale(0.1 -0.1)">
       <defs>
        <path d="M 37.796875 64.3125 
L 12.890625 25.390625 
L 37.796875 25.390625 
z
M 35.203125 72.90625 
L 47.609375 72.90625 
L 47.609375 25.390625 
L 58.015625 25.390625 
L 58.015625 17.1875 
L 47.609375 17.1875 
L 47.609375 0 
L 37.796875 0 
L 37.796875 17.1875 
L 4.890625 17.1875 
L 4.890625 26.703125 
z
" id="DejaVuSans-52"/>
       </defs>
       <use xlink:href="#DejaVuSans-52"/>
       <use x="63.623047" xlink:href="#DejaVuSans-48"/>
      </g>
     </g>
    </g>
    <g id="xtick_6">
     <g id="line2d_11">
      <path clip-path="url(#pa9cd1181af)" d="M 453.545455 630 
L 453.545455 86.4 
" style="fill:none;stroke:#b0b0b0;stroke-linecap:square;stroke-width:0.8;"/>
     </g>
     <g id="line2d_12">
      <g>
       <use style="stroke:#000000;stroke-width:0.8;" x="453.545455" xlink:href="#m7763d81c38" y="630"/>
      </g>
     </g>
     <g id="text_6">
      <!-- 50 -->
      <g transform="translate(447.182955 644.598438)scale(0.1 -0.1)">
       <defs>
        <path d="M 10.796875 72.90625 
L 49.515625 72.90625 
L 49.515625 64.59375 
L 19.828125 64.59375 
L 19.828125 46.734375 
Q 21.96875 47.46875 24.109375 47.828125 
Q 26.265625 48.1875 28.421875 48.1875 
Q 40.625 48.1875 47.75 41.5 
Q 54.890625 34.8125 54.890625 23.390625 
Q 54.890625 11.625 47.5625 5.09375 
Q 40.234375 -1.421875 26.90625 -1.421875 
Q 22.3125 -1.421875 17.546875 -0.640625 
Q 12.796875 0.140625 7.71875 1.703125 
L 7.71875 11.625 
Q 12.109375 9.234375 16.796875 8.0625 
Q 21.484375 6.890625 26.703125 6.890625 
Q 35.15625 6.890625 40.078125 11.328125 
Q 45.015625 15.765625 45.015625 23.390625 
Q 45.015625 31 40.078125 35.4375 
Q 35.15625 39.890625 26.703125 39.890625 
Q 22.75 39.890625 18.8125 39.015625 
Q 14.890625 38.140625 10.796875 36.28125 
z
" id="DejaVuSans-53"/>
       </defs>
       <use xlink:href="#DejaVuSans-53"/>
       <use x="63.623047" xlink:href="#DejaVuSans-48"/>
      </g>
     </g>
    </g>
    <g id="xtick_7">
     <g id="line2d_13">
      <path clip-path="url(#pa9cd1181af)" d="M 521.181818 630 
L 521.181818 86.4 
" style="fill:none;stroke:#b0b0b0;stroke-linecap:square;stroke-width:0.8;"/>
     </g>
     <g id="line2d_14">
      <g>
       <use style="stroke:#000000;stroke-width:0.8;" x="521.181818" xlink:href="#m7763d81c38" y="630"/>
      </g>
     </g>
     <g id="text_7">
      <!-- 60 -->
      <g transform="translate(514.819318 644.598438)scale(0.1 -0.1)">
       <defs>
        <path d="M 33.015625 40.375 
Q 26.375 40.375 22.484375 35.828125 
Q 18.609375 31.296875 18.609375 23.390625 
Q 18.609375 15.53125 22.484375 10.953125 
Q 26.375 6.390625 33.015625 6.390625 
Q 39.65625 6.390625 43.53125 10.953125 
Q 47.40625 15.53125 47.40625 23.390625 
Q 47.40625 31.296875 43.53125 35.828125 
Q 39.65625 40.375 33.015625 40.375 
z
M 52.59375 71.296875 
L 52.59375 62.3125 
Q 48.875 64.0625 45.09375 64.984375 
Q 41.3125 65.921875 37.59375 65.921875 
Q 27.828125 65.921875 22.671875 59.328125 
Q 17.53125 52.734375 16.796875 39.40625 
Q 19.671875 43.65625 24.015625 45.921875 
Q 28.375 48.1875 33.59375 48.1875 
Q 44.578125 48.1875 50.953125 41.515625 
Q 57.328125 34.859375 57.328125 23.390625 
Q 57.328125 12.15625 50.6875 5.359375 
Q 44.046875 -1.421875 33.015625 -1.421875 
Q 20.359375 -1.421875 13.671875 8.265625 
Q 6.984375 17.96875 6.984375 36.375 
Q 6.984375 53.65625 15.1875 63.9375 
Q 23.390625 74.21875 37.203125 74.21875 
Q 40.921875 74.21875 44.703125 73.484375 
Q 48.484375 72.75 52.59375 71.296875 
z
" id="DejaVuSans-54"/>
       </defs>
       <use xlink:href="#DejaVuSans-54"/>
       <use x="63.623047" xlink:href="#DejaVuSans-48"/>
      </g>
     </g>
    </g>
    <g id="xtick_8">
     <g id="line2d_15">
      <path clip-path="url(#pa9cd1181af)" d="M 588.818182 630 
L 588.818182 86.4 
" style="fill:none;stroke:#b0b0b0;stroke-linecap:square;stroke-width:0.8;"/>
     </g>
     <g id="line2d_16">
      <g>
       <use style="stroke:#000000;stroke-width:0.8;" x="588.818182" xlink:href="#m7763d81c38" y="630"/>
      </g>
     </g>
     <g id="text_8">
      <!-- 70 -->
      <g transform="translate(582.455682 644.598438)scale(0.1 -0.1)">
       <defs>
        <path d="M 8.203125 72.90625 
L 55.078125 72.90625 
L 55.078125 68.703125 
L 28.609375 0 
L 18.3125 0 
L 43.21875 64.59375 
L 8.203125 64.59375 
z
" id="DejaVuSans-55"/>
       </defs>
       <use xlink:href="#DejaVuSans-55"/>
       <use x="63.623047" xlink:href="#DejaVuSans-48"/>
      </g>
     </g>
    </g>
    <g id="text_9">
     <!-- Days -->
     <g transform="translate(356.521875 658.276562)scale(0.1 -0.1)">
      <defs>
       <path d="M 19.671875 64.796875 
L 19.671875 8.109375 
L 31.59375 8.109375 
Q 46.6875 8.109375 53.6875 14.9375 
Q 60.6875 21.78125 60.6875 36.53125 
Q 60.6875 51.171875 53.6875 57.984375 
Q 46.6875 64.796875 31.59375 64.796875 
z
M 9.8125 72.90625 
L 30.078125 72.90625 
Q 51.265625 72.90625 61.171875 64.09375 
Q 71.09375 55.28125 71.09375 36.53125 
Q 71.09375 17.671875 61.125 8.828125 
Q 51.171875 0 30.078125 0 
L 9.8125 0 
z
" id="DejaVuSans-68"/>
       <path d="M 34.28125 27.484375 
Q 23.390625 27.484375 19.1875 25 
Q 14.984375 22.515625 14.984375 16.5 
Q 14.984375 11.71875 18.140625 8.90625 
Q 21.296875 6.109375 26.703125 6.109375 
Q 34.1875 6.109375 38.703125 11.40625 
Q 43.21875 16.703125 43.21875 25.484375 
L 43.21875 27.484375 
z
M 52.203125 31.203125 
L 52.203125 0 
L 43.21875 0 
L 43.21875 8.296875 
Q 40.140625 3.328125 35.546875 0.953125 
Q 30.953125 -1.421875 24.3125 -1.421875 
Q 15.921875 -1.421875 10.953125 3.296875 
Q 6 8.015625 6 15.921875 
Q 6 25.140625 12.171875 29.828125 
Q 18.359375 34.515625 30.609375 34.515625 
L 43.21875 34.515625 
L 43.21875 35.40625 
Q 43.21875 41.609375 39.140625 45 
Q 35.0625 48.390625 27.6875 48.390625 
Q 23 48.390625 18.546875 47.265625 
Q 14.109375 46.140625 10.015625 43.890625 
L 10.015625 52.203125 
Q 14.9375 54.109375 19.578125 55.046875 
Q 24.21875 56 28.609375 56 
Q 40.484375 56 46.34375 49.84375 
Q 52.203125 43.703125 52.203125 31.203125 
z
" id="DejaVuSans-97"/>
       <path d="M 32.171875 -5.078125 
Q 28.375 -14.84375 24.75 -17.8125 
Q 21.140625 -20.796875 15.09375 -20.796875 
L 7.90625 -20.796875 
L 7.90625 -13.28125 
L 13.1875 -13.28125 
Q 16.890625 -13.28125 18.9375 -11.515625 
Q 21 -9.765625 23.484375 -3.21875 
L 25.09375 0.875 
L 2.984375 54.6875 
L 12.5 54.6875 
L 29.59375 11.921875 
L 46.6875 54.6875 
L 56.203125 54.6875 
z
" id="DejaVuSans-121"/>
       <path d="M 44.28125 53.078125 
L 44.28125 44.578125 
Q 40.484375 46.53125 36.375 47.5 
Q 32.28125 48.484375 27.875 48.484375 
Q 21.1875 48.484375 17.84375 46.4375 
Q 14.5 44.390625 14.5 40.28125 
Q 14.5 37.15625 16.890625 35.375 
Q 19.28125 33.59375 26.515625 31.984375 
L 29.59375 31.296875 
Q 39.15625 29.25 43.1875 25.515625 
Q 47.21875 21.78125 47.21875 15.09375 
Q 47.21875 7.46875 41.1875 3.015625 
Q 35.15625 -1.421875 24.609375 -1.421875 
Q 20.21875 -1.421875 15.453125 -0.5625 
Q 10.6875 0.296875 5.421875 2 
L 5.421875 11.28125 
Q 10.40625 8.6875 15.234375 7.390625 
Q 20.0625 6.109375 24.8125 6.109375 
Q 31.15625 6.109375 34.5625 8.28125 
Q 37.984375 10.453125 37.984375 14.40625 
Q 37.984375 18.0625 35.515625 20.015625 
Q 33.0625 21.96875 24.703125 23.78125 
L 21.578125 24.515625 
Q 13.234375 26.265625 9.515625 29.90625 
Q 5.8125 33.546875 5.8125 39.890625 
Q 5.8125 47.609375 11.28125 51.796875 
Q 16.75 56 26.8125 56 
Q 31.78125 56 36.171875 55.265625 
Q 40.578125 54.546875 44.28125 53.078125 
z
" id="DejaVuSans-115"/>
      </defs>
      <use xlink:href="#DejaVuSans-68"/>
      <use x="77.001953" xlink:href="#DejaVuSans-97"/>
      <use x="138.28125" xlink:href="#DejaVuSans-121"/>
      <use x="197.460938" xlink:href="#DejaVuSans-115"/>
     </g>
    </g>
   </g>
   <g id="matplotlib.axis_2">
    <g id="ytick_1">
     <g id="line2d_17">
      <path clip-path="url(#pa9cd1181af)" d="M 90 610.614649 
L 648 610.614649 
" style="fill:none;stroke:#b0b0b0;stroke-linecap:square;stroke-width:0.8;"/>
     </g>
     <g id="line2d_18">
      <defs>
       <path d="M 0 0 
L -3.5 0 
" id="mb01daacbfd" style="stroke:#000000;stroke-width:0.8;"/>
      </defs>
      <g>
       <use style="stroke:#000000;stroke-width:0.8;" x="90" xlink:href="#mb01daacbfd" y="610.614649"/>
      </g>
     </g>
     <g id="text_10">
      <!-- 0 -->
      <g transform="translate(76.6375 614.413867)scale(0.1 -0.1)">
       <use xlink:href="#DejaVuSans-48"/>
      </g>
     </g>
    </g>
    <g id="ytick_2">
     <g id="line2d_19">
      <path clip-path="url(#pa9cd1181af)" d="M 90 544.067904 
L 648 544.067904 
" style="fill:none;stroke:#b0b0b0;stroke-linecap:square;stroke-width:0.8;"/>
     </g>
     <g id="line2d_20">
      <g>
       <use style="stroke:#000000;stroke-width:0.8;" x="90" xlink:href="#mb01daacbfd" y="544.067904"/>
      </g>
     </g>
     <g id="text_11">
      <!-- 200 -->
      <g transform="translate(63.9125 547.867122)scale(0.1 -0.1)">
       <use xlink:href="#DejaVuSans-50"/>
       <use x="63.623047" xlink:href="#DejaVuSans-48"/>
       <use x="127.246094" xlink:href="#DejaVuSans-48"/>
      </g>
     </g>
    </g>
    <g id="ytick_3">
     <g id="line2d_21">
      <path clip-path="url(#pa9cd1181af)" d="M 90 477.521158 
L 648 477.521158 
" style="fill:none;stroke:#b0b0b0;stroke-linecap:square;stroke-width:0.8;"/>
     </g>
     <g id="line2d_22">
      <g>
       <use style="stroke:#000000;stroke-width:0.8;" x="90" xlink:href="#mb01daacbfd" y="477.521158"/>
      </g>
     </g>
     <g id="text_12">
      <!-- 400 -->
      <g transform="translate(63.9125 481.320377)scale(0.1 -0.1)">
       <use xlink:href="#DejaVuSans-52"/>
       <use x="63.623047" xlink:href="#DejaVuSans-48"/>
       <use x="127.246094" xlink:href="#DejaVuSans-48"/>
      </g>
     </g>
    </g>
    <g id="ytick_4">
     <g id="line2d_23">
      <path clip-path="url(#pa9cd1181af)" d="M 90 410.974413 
L 648 410.974413 
" style="fill:none;stroke:#b0b0b0;stroke-linecap:square;stroke-width:0.8;"/>
     </g>
     <g id="line2d_24">
      <g>
       <use style="stroke:#000000;stroke-width:0.8;" x="90" xlink:href="#mb01daacbfd" y="410.974413"/>
      </g>
     </g>
     <g id="text_13">
      <!-- 600 -->
      <g transform="translate(63.9125 414.773632)scale(0.1 -0.1)">
       <use xlink:href="#DejaVuSans-54"/>
       <use x="63.623047" xlink:href="#DejaVuSans-48"/>
       <use x="127.246094" xlink:href="#DejaVuSans-48"/>
      </g>
     </g>
    </g>
    <g id="ytick_5">
     <g id="line2d_25">
      <path clip-path="url(#pa9cd1181af)" d="M 90 344.427668 
L 648 344.427668 
" style="fill:none;stroke:#b0b0b0;stroke-linecap:square;stroke-width:0.8;"/>
     </g>
     <g id="line2d_26">
      <g>
       <use style="stroke:#000000;stroke-width:0.8;" x="90" xlink:href="#mb01daacbfd" y="344.427668"/>
      </g>
     </g>
     <g id="text_14">
      <!-- 800 -->
      <g transform="translate(63.9125 348.226887)scale(0.1 -0.1)">
       <defs>
        <path d="M 31.78125 34.625 
Q 24.75 34.625 20.71875 30.859375 
Q 16.703125 27.09375 16.703125 20.515625 
Q 16.703125 13.921875 20.71875 10.15625 
Q 24.75 6.390625 31.78125 6.390625 
Q 38.8125 6.390625 42.859375 10.171875 
Q 46.921875 13.96875 46.921875 20.515625 
Q 46.921875 27.09375 42.890625 30.859375 
Q 38.875 34.625 31.78125 34.625 
z
M 21.921875 38.8125 
Q 15.578125 40.375 12.03125 44.71875 
Q 8.5 49.078125 8.5 55.328125 
Q 8.5 64.0625 14.71875 69.140625 
Q 20.953125 74.21875 31.78125 74.21875 
Q 42.671875 74.21875 48.875 69.140625 
Q 55.078125 64.0625 55.078125 55.328125 
Q 55.078125 49.078125 51.53125 44.71875 
Q 48 40.375 41.703125 38.8125 
Q 48.828125 37.15625 52.796875 32.3125 
Q 56.78125 27.484375 56.78125 20.515625 
Q 56.78125 9.90625 50.3125 4.234375 
Q 43.84375 -1.421875 31.78125 -1.421875 
Q 19.734375 -1.421875 13.25 4.234375 
Q 6.78125 9.90625 6.78125 20.515625 
Q 6.78125 27.484375 10.78125 32.3125 
Q 14.796875 37.15625 21.921875 38.8125 
z
M 18.3125 54.390625 
Q 18.3125 48.734375 21.84375 45.5625 
Q 25.390625 42.390625 31.78125 42.390625 
Q 38.140625 42.390625 41.71875 45.5625 
Q 45.3125 48.734375 45.3125 54.390625 
Q 45.3125 60.0625 41.71875 63.234375 
Q 38.140625 66.40625 31.78125 66.40625 
Q 25.390625 66.40625 21.84375 63.234375 
Q 18.3125 60.0625 18.3125 54.390625 
z
" id="DejaVuSans-56"/>
       </defs>
       <use xlink:href="#DejaVuSans-56"/>
       <use x="63.623047" xlink:href="#DejaVuSans-48"/>
       <use x="127.246094" xlink:href="#DejaVuSans-48"/>
      </g>
     </g>
    </g>
    <g id="ytick_6">
     <g id="line2d_27">
      <path clip-path="url(#pa9cd1181af)" d="M 90 277.880923 
L 648 277.880923 
" style="fill:none;stroke:#b0b0b0;stroke-linecap:square;stroke-width:0.8;"/>
     </g>
     <g id="line2d_28">
      <g>
       <use style="stroke:#000000;stroke-width:0.8;" x="90" xlink:href="#mb01daacbfd" y="277.880923"/>
      </g>
     </g>
     <g id="text_15">
      <!-- 1000 -->
      <g transform="translate(57.55 281.680142)scale(0.1 -0.1)">
       <use xlink:href="#DejaVuSans-49"/>
       <use x="63.623047" xlink:href="#DejaVuSans-48"/>
       <use x="127.246094" xlink:href="#DejaVuSans-48"/>
       <use x="190.869141" xlink:href="#DejaVuSans-48"/>
      </g>
     </g>
    </g>
    <g id="ytick_7">
     <g id="line2d_29">
      <path clip-path="url(#pa9cd1181af)" d="M 90 211.334178 
L 648 211.334178 
" style="fill:none;stroke:#b0b0b0;stroke-linecap:square;stroke-width:0.8;"/>
     </g>
     <g id="line2d_30">
      <g>
       <use style="stroke:#000000;stroke-width:0.8;" x="90" xlink:href="#mb01daacbfd" y="211.334178"/>
      </g>
     </g>
     <g id="text_16">
      <!-- 1200 -->
      <g transform="translate(57.55 215.133397)scale(0.1 -0.1)">
       <use xlink:href="#DejaVuSans-49"/>
       <use x="63.623047" xlink:href="#DejaVuSans-50"/>
       <use x="127.246094" xlink:href="#DejaVuSans-48"/>
       <use x="190.869141" xlink:href="#DejaVuSans-48"/>
      </g>
     </g>
    </g>
    <g id="ytick_8">
     <g id="line2d_31">
      <path clip-path="url(#pa9cd1181af)" d="M 90 144.787433 
L 648 144.787433 
" style="fill:none;stroke:#b0b0b0;stroke-linecap:square;stroke-width:0.8;"/>
     </g>
     <g id="line2d_32">
      <g>
       <use style="stroke:#000000;stroke-width:0.8;" x="90" xlink:href="#mb01daacbfd" y="144.787433"/>
      </g>
     </g>
     <g id="text_17">
      <!-- 1400 -->
      <g transform="translate(57.55 148.586651)scale(0.1 -0.1)">
       <use xlink:href="#DejaVuSans-49"/>
       <use x="63.623047" xlink:href="#DejaVuSans-52"/>
       <use x="127.246094" xlink:href="#DejaVuSans-48"/>
       <use x="190.869141" xlink:href="#DejaVuSans-48"/>
      </g>
     </g>
    </g>
    <g id="text_18">
     <!-- Cumulative cases -->
     <g transform="translate(51.470312 402.425781)rotate(-90)scale(0.1 -0.1)">
      <defs>
       <path d="M 64.40625 67.28125 
L 64.40625 56.890625 
Q 59.421875 61.53125 53.78125 63.8125 
Q 48.140625 66.109375 41.796875 66.109375 
Q 29.296875 66.109375 22.65625 58.46875 
Q 16.015625 50.828125 16.015625 36.375 
Q 16.015625 21.96875 22.65625 14.328125 
Q 29.296875 6.6875 41.796875 6.6875 
Q 48.140625 6.6875 53.78125 8.984375 
Q 59.421875 11.28125 64.40625 15.921875 
L 64.40625 5.609375 
Q 59.234375 2.09375 53.4375 0.328125 
Q 47.65625 -1.421875 41.21875 -1.421875 
Q 24.65625 -1.421875 15.125 8.703125 
Q 5.609375 18.84375 5.609375 36.375 
Q 5.609375 53.953125 15.125 64.078125 
Q 24.65625 74.21875 41.21875 74.21875 
Q 47.75 74.21875 53.53125 72.484375 
Q 59.328125 70.75 64.40625 67.28125 
z
" id="DejaVuSans-67"/>
       <path d="M 8.5 21.578125 
L 8.5 54.6875 
L 17.484375 54.6875 
L 17.484375 21.921875 
Q 17.484375 14.15625 20.5 10.265625 
Q 23.53125 6.390625 29.59375 6.390625 
Q 36.859375 6.390625 41.078125 11.03125 
Q 45.3125 15.671875 45.3125 23.6875 
L 45.3125 54.6875 
L 54.296875 54.6875 
L 54.296875 0 
L 45.3125 0 
L 45.3125 8.40625 
Q 42.046875 3.421875 37.71875 1 
Q 33.40625 -1.421875 27.6875 -1.421875 
Q 18.265625 -1.421875 13.375 4.4375 
Q 8.5 10.296875 8.5 21.578125 
z
M 31.109375 56 
z
" id="DejaVuSans-117"/>
       <path d="M 52 44.1875 
Q 55.375 50.25 60.0625 53.125 
Q 64.75 56 71.09375 56 
Q 79.640625 56 84.28125 50.015625 
Q 88.921875 44.046875 88.921875 33.015625 
L 88.921875 0 
L 79.890625 0 
L 79.890625 32.71875 
Q 79.890625 40.578125 77.09375 44.375 
Q 74.3125 48.1875 68.609375 48.1875 
Q 61.625 48.1875 57.5625 43.546875 
Q 53.515625 38.921875 53.515625 30.90625 
L 53.515625 0 
L 44.484375 0 
L 44.484375 32.71875 
Q 44.484375 40.625 41.703125 44.40625 
Q 38.921875 48.1875 33.109375 48.1875 
Q 26.21875 48.1875 22.15625 43.53125 
Q 18.109375 38.875 18.109375 30.90625 
L 18.109375 0 
L 9.078125 0 
L 9.078125 54.6875 
L 18.109375 54.6875 
L 18.109375 46.1875 
Q 21.1875 51.21875 25.484375 53.609375 
Q 29.78125 56 35.6875 56 
Q 41.65625 56 45.828125 52.96875 
Q 50 49.953125 52 44.1875 
z
" id="DejaVuSans-109"/>
       <path d="M 9.421875 75.984375 
L 18.40625 75.984375 
L 18.40625 0 
L 9.421875 0 
z
" id="DejaVuSans-108"/>
       <path d="M 18.3125 70.21875 
L 18.3125 54.6875 
L 36.8125 54.6875 
L 36.8125 47.703125 
L 18.3125 47.703125 
L 18.3125 18.015625 
Q 18.3125 11.328125 20.140625 9.421875 
Q 21.96875 7.515625 27.59375 7.515625 
L 36.8125 7.515625 
L 36.8125 0 
L 27.59375 0 
Q 17.1875 0 13.234375 3.875 
Q 9.28125 7.765625 9.28125 18.015625 
L 9.28125 47.703125 
L 2.6875 47.703125 
L 2.6875 54.6875 
L 9.28125 54.6875 
L 9.28125 70.21875 
z
" id="DejaVuSans-116"/>
       <path d="M 9.421875 54.6875 
L 18.40625 54.6875 
L 18.40625 0 
L 9.421875 0 
z
M 9.421875 75.984375 
L 18.40625 75.984375 
L 18.40625 64.59375 
L 9.421875 64.59375 
z
" id="DejaVuSans-105"/>
       <path d="M 2.984375 54.6875 
L 12.5 54.6875 
L 29.59375 8.796875 
L 46.6875 54.6875 
L 56.203125 54.6875 
L 35.6875 0 
L 23.484375 0 
z
" id="DejaVuSans-118"/>
       <path d="M 56.203125 29.59375 
L 56.203125 25.203125 
L 14.890625 25.203125 
Q 15.484375 15.921875 20.484375 11.0625 
Q 25.484375 6.203125 34.421875 6.203125 
Q 39.59375 6.203125 44.453125 7.46875 
Q 49.3125 8.734375 54.109375 11.28125 
L 54.109375 2.78125 
Q 49.265625 0.734375 44.1875 -0.34375 
Q 39.109375 -1.421875 33.890625 -1.421875 
Q 20.796875 -1.421875 13.15625 6.1875 
Q 5.515625 13.8125 5.515625 26.8125 
Q 5.515625 40.234375 12.765625 48.109375 
Q 20.015625 56 32.328125 56 
Q 43.359375 56 49.78125 48.890625 
Q 56.203125 41.796875 56.203125 29.59375 
z
M 47.21875 32.234375 
Q 47.125 39.59375 43.09375 43.984375 
Q 39.0625 48.390625 32.421875 48.390625 
Q 24.90625 48.390625 20.390625 44.140625 
Q 15.875 39.890625 15.1875 32.171875 
z
" id="DejaVuSans-101"/>
       <path id="DejaVuSans-32"/>
       <path d="M 48.78125 52.59375 
L 48.78125 44.1875 
Q 44.96875 46.296875 41.140625 47.34375 
Q 37.3125 48.390625 33.40625 48.390625 
Q 24.65625 48.390625 19.8125 42.84375 
Q 14.984375 37.3125 14.984375 27.296875 
Q 14.984375 17.28125 19.8125 11.734375 
Q 24.65625 6.203125 33.40625 6.203125 
Q 37.3125 6.203125 41.140625 7.25 
Q 44.96875 8.296875 48.78125 10.40625 
L 48.78125 2.09375 
Q 45.015625 0.34375 40.984375 -0.53125 
Q 36.96875 -1.421875 32.421875 -1.421875 
Q 20.0625 -1.421875 12.78125 6.34375 
Q 5.515625 14.109375 5.515625 27.296875 
Q 5.515625 40.671875 12.859375 48.328125 
Q 20.21875 56 33.015625 56 
Q 37.15625 56 41.109375 55.140625 
Q 45.0625 54.296875 48.78125 52.59375 
z
" id="DejaVuSans-99"/>
      </defs>
      <use xlink:href="#DejaVuSans-67"/>
      <use x="69.824219" xlink:href="#DejaVuSans-117"/>
      <use x="133.203125" xlink:href="#DejaVuSans-109"/>
      <use x="230.615234" xlink:href="#DejaVuSans-117"/>
      <use x="293.994141" xlink:href="#DejaVuSans-108"/>
      <use x="321.777344" xlink:href="#DejaVuSans-97"/>
      <use x="383.056641" xlink:href="#DejaVuSans-116"/>
      <use x="422.265625" xlink:href="#DejaVuSans-105"/>
      <use x="450.048828" xlink:href="#DejaVuSans-118"/>
      <use x="509.228516" xlink:href="#DejaVuSans-101"/>
      <use x="570.751953" xlink:href="#DejaVuSans-32"/>
      <use x="602.539062" xlink:href="#DejaVuSans-99"/>
      <use x="657.519531" xlink:href="#DejaVuSans-97"/>
      <use x="718.798828" xlink:href="#DejaVuSans-115"/>
      <use x="770.898438" xlink:href="#DejaVuSans-101"/>
      <use x="832.421875" xlink:href="#DejaVuSans-115"/>
     </g>
    </g>
   </g>
   <g id="line2d_33">
    <path clip-path="url(#pa9cd1181af)" d="M 115.363636 605.290909 
L 122.127273 604.08949 
L 128.890909 602.621667 
L 135.654545 600.83072 
L 142.418182 598.649012 
L 149.181818 595.996461 
L 155.945455 592.779086 
L 162.709091 588.887815 
L 169.472727 584.19782 
L 176.236364 578.568773 
L 183 571.846498 
L 189.763636 563.866663 
L 196.527273 554.461147 
L 203.290909 543.467729 
L 210.054545 530.743457 
L 216.818182 516.181559 
L 223.581818 499.73093 
L 230.345455 481.416101 
L 237.109091 461.354485 
L 243.872727 439.766876 
L 250.636364 416.977276 
L 257.4 393.399403 
L 264.163636 369.509839 
L 270.927273 345.810896 
L 277.690909 322.789091 
L 284.454545 300.876331 
L 291.218182 280.420153 
L 297.981818 261.666888 
L 304.745455 244.758413 
L 311.509091 229.740398 
L 318.272727 216.578294 
L 325.036364 205.176986 
L 331.8 195.400622 
L 338.563636 187.090287 
L 345.327273 180.078264 
L 352.090909 174.198599 
L 358.854545 169.294224 
L 365.618182 165.221231 
L 372.381818 161.850965 
L 379.145455 159.070563 
L 385.909091 156.782479 
L 392.672727 154.903385 
L 399.436364 153.362764 
L 406.2 152.101388 
L 412.963636 151.069805 
L 419.727273 150.226931 
L 426.490909 149.538763 
L 433.254545 148.977252 
L 440.018182 148.519316 
L 446.781818 148.146003 
L 453.545455 147.841778 
L 460.309091 147.593921 
L 467.072727 147.392033 
L 473.836364 147.227619 
L 480.6 147.093741 
L 487.363636 146.984743 
L 494.127273 146.896008 
L 500.890909 146.823776 
L 507.654545 146.764981 
L 514.418182 146.717126 
L 521.181818 146.678177 
L 527.945455 146.646478 
L 534.709091 146.62068 
L 541.472727 146.599684 
L 548.236364 146.582598 
L 555 146.568694 
L 561.763636 146.557378 
L 568.527273 146.54817 
L 575.290909 146.540677 
L 582.054545 146.534579 
L 588.818182 146.529617 
L 595.581818 146.525579 
L 602.345455 146.522293 
L 609.109091 146.519619 
L 615.872727 146.517443 
L 622.636364 146.515672 
" style="fill:none;stroke:#1f77b4;stroke-linecap:square;stroke-width:1.5;"/>
   </g>
   <g id="line2d_34">
    <path clip-path="url(#pa9cd1181af)" d="M 115.363636 605.290909 
L 122.127273 598.993046 
L 128.890909 592.204164 
L 135.654545 584.904383 
L 142.418182 577.076475 
L 149.181818 568.70656 
L 155.945455 559.78484 
L 162.709091 550.306339 
L 169.472727 540.271629 
L 176.236364 529.687512 
L 183 518.567613 
L 189.763636 506.932854 
L 196.527273 494.811766 
L 203.290909 482.240603 
L 210.054545 469.263238 
L 216.818182 455.930793 
L 223.581818 442.301035 
L 230.345455 428.437501 
L 237.109091 414.408406 
L 243.872727 400.285349 
L 250.636364 386.141876 
L 257.4 372.051961 
L 264.163636 358.088461 
L 270.927273 344.321626 
L 277.690909 330.817722 
L 284.454545 317.637821 
L 291.218182 304.836799 
L 297.981818 292.462589 
L 304.745455 280.555672 
L 311.509091 269.148838 
L 318.272727 258.267178 
L 325.036364 247.928291 
L 331.8 238.142673 
L 338.563636 228.914252 
L 345.327273 220.241023 
L 352.090909 212.115755 
L 358.854545 204.526727 
L 365.618182 197.458469 
L 372.381818 190.892478 
L 379.145455 184.8079 
L 385.909091 179.182149 
L 392.672727 173.991469 
L 399.436364 169.211429 
L 406.2 164.81734 
L 412.963636 160.784622 
L 419.727273 157.08909 
L 426.490909 153.70719 
L 433.254545 150.616188 
L 440.018182 147.794301 
L 446.781818 145.220796 
L 453.545455 142.87605 
L 460.309091 140.741588 
L 467.072727 138.80009 
L 473.836364 137.035383 
L 480.6 135.432419 
L 487.363636 133.977241 
L 494.127273 132.656936 
L 500.890909 131.459591 
L 507.654545 130.374236 
L 514.418182 129.390795 
L 521.181818 128.500022 
L 527.945455 127.693452 
L 534.709091 126.963345 
L 541.472727 126.30263 
L 548.236364 125.70486 
L 555 125.164158 
L 561.763636 124.675173 
L 568.527273 124.233039 
L 575.290909 123.833334 
L 582.054545 123.472038 
L 588.818182 123.145505 
L 595.581818 122.850427 
L 602.345455 122.583801 
L 609.109091 122.342909 
L 615.872727 122.125286 
L 622.636364 121.9287 
" style="fill:none;stroke:#ff7f0e;stroke-linecap:square;stroke-width:1.5;"/>
   </g>
   <g id="line2d_35">
    <path clip-path="url(#pa9cd1181af)" d="M 115.363636 605.290909 
L 122.127273 601.700602 
L 128.890909 597.624852 
L 135.654545 593.010143 
L 142.418182 587.800662 
L 149.181818 581.939328 
L 155.945455 575.369187 
L 162.709091 568.035204 
L 169.472727 559.886474 
L 176.236364 550.878813 
L 183 540.97768 
L 189.763636 530.161291 
L 196.527273 518.423753 
L 203.290909 505.777957 
L 210.054545 492.257964 
L 216.818182 477.920561 
L 223.581818 462.84571 
L 230.345455 447.135689 
L 237.109091 430.912807 
L 243.872727 414.315769 
L 250.636364 397.494871 
L 257.4 380.606404 
L 264.163636 363.806698 
L 270.927273 347.246299 
L 277.690909 331.064741 
L 284.454545 315.386271 
L 291.218182 300.316752 
L 297.981818 285.941858 
L 304.745455 272.326483 
L 311.509091 259.515238 
L 318.272727 247.533804 
L 325.036364 236.390901 
L 331.8 226.080628 
L 338.563636 216.58496 
L 345.327273 207.876232 
L 352.090909 199.919478 
L 358.854545 192.674544 
L 365.618182 186.097933 
L 372.381818 180.14435 
L 379.145455 174.767974 
L 385.909091 169.923458 
L 392.672727 165.566693 
L 399.436364 161.655369 
L 406.2 158.149362 
L 412.963636 155.01098 
L 419.727273 152.2051 
L 426.490909 149.699207 
L 433.254545 147.463377 
L 440.018182 145.470203 
L 446.781818 143.694692 
L 453.545455 142.114134 
L 460.309091 140.707957 
L 467.072727 139.457581 
L 473.836364 138.346261 
L 480.6 137.358941 
L 487.363636 136.482106 
L 494.127273 135.703646 
L 500.890909 135.012721 
L 507.654545 134.399645 
L 514.418182 133.855769 
L 521.181818 133.373378 
L 527.945455 132.945597 
L 534.709091 132.566304 
L 541.472727 132.230049 
L 548.236364 131.931985 
L 555 131.667803 
L 561.763636 131.433675 
L 568.527273 131.226199 
L 575.290909 131.042355 
L 582.054545 130.879462 
L 588.818182 130.735141 
L 595.581818 130.607282 
L 602.345455 130.494012 
L 609.109091 130.39367 
L 615.872727 130.304785 
L 622.636364 130.22605 
" style="fill:none;stroke:#2ca02c;stroke-linecap:square;stroke-width:1.5;"/>
   </g>
   <g id="line2d_36">
    <path clip-path="url(#pa9cd1181af)" d="M 115.363636 605.290909 
L 122.127273 599.677947 
L 128.890909 593.492847 
L 135.654545 586.709421 
L 142.418182 579.304853 
L 149.181818 571.260698 
L 155.945455 562.563943 
L 162.709091 553.208077 
L 169.472727 543.194125 
L 176.236364 532.531597 
L 183 521.239281 
L 189.763636 509.345817 
L 196.527273 496.889993 
L 203.290909 483.920701 
L 210.054545 470.496525 
L 216.818182 456.684931 
L 223.581818 442.561075 
L 230.345455 428.206258 
L 237.109091 413.706098 
L 243.872727 399.148495 
L 250.636364 384.621498 
L 257.4 370.211187 
L 264.163636 355.999671 
L 270.927273 342.063304 
L 277.690909 328.471201 
L 284.454545 315.284099 
L 291.218182 302.553601 
L 297.981818 290.321786 
L 304.745455 278.621183 
L 311.509091 267.475048 
L 318.272727 256.8979 
L 325.036364 246.896257 
L 331.8 237.469497 
L 338.563636 228.610806 
L 345.327273 220.308149 
L 352.090909 212.545221 
L 358.854545 205.302358 
L 365.618182 198.55737 
L 372.381818 192.286288 
L 379.145455 186.464027 
L 385.909091 181.064936 
L 392.672727 176.063274 
L 399.436364 171.433582 
L 406.2 167.150991 
L 412.963636 163.19145 
L 419.727273 159.531894 
L 426.490909 156.150364 
L 433.254545 153.02608 
L 440.018182 150.139483 
L 446.781818 147.472241 
L 453.545455 145.007243 
L 460.309091 142.728565 
L 467.072727 140.621434 
L 473.836364 138.672174 
L 480.6 136.868155 
L 487.363636 135.197727 
L 494.127273 133.650165 
L 500.890909 132.215605 
L 507.654545 130.884984 
L 514.418182 129.649982 
L 521.181818 128.502968 
L 527.945455 127.436942 
L 534.709091 126.445489 
L 541.472727 125.522728 
L 548.236364 124.663271 
L 555 123.862183 
L 561.763636 123.114939 
L 568.527273 122.417393 
L 575.290909 121.765745 
L 582.054545 121.156509 
L 588.818182 120.586491 
L 595.581818 120.052757 
L 602.345455 119.552616 
L 609.109091 119.083598 
L 615.872727 118.643431 
L 622.636364 118.230029 
" style="fill:none;stroke:#d62728;stroke-linecap:square;stroke-width:1.5;"/>
   </g>
   <g id="line2d_37">
    <path clip-path="url(#pa9cd1181af)" d="M 115.363636 605.290909 
L 122.127273 604.599641 
L 128.890909 602.821923 
L 135.654545 600.096762 
L 142.418182 596.342281 
L 149.181818 591.371665 
L 155.945455 584.953259 
L 162.709091 576.858202 
L 169.472727 566.910455 
L 176.236364 555.037741 
L 183 541.310554 
L 189.763636 525.952568 
L 196.527273 509.313583 
L 203.290909 491.81252 
L 210.054545 473.871626 
L 216.818182 455.863901 
L 223.581818 438.085038 
L 230.345455 420.748471 
L 237.109091 403.99511 
L 243.872727 387.908986 
L 250.636364 372.532934 
L 257.4 357.881609 
L 264.163636 343.951219 
L 270.927273 330.726363 
L 277.690909 318.184645 
L 284.454545 306.299706 
L 291.218182 295.043184 
L 297.981818 284.385973 
L 304.745455 274.299013 
L 311.509091 264.753779 
L 318.272727 255.722584 
L 325.036364 247.178751 
L 331.8 239.096708 
L 338.563636 231.452026 
L 345.327273 224.22143 
L 352.090909 217.382784 
L 358.854545 210.915061 
L 365.618182 204.798312 
L 372.381818 199.013618 
L 379.145455 193.543054 
L 385.909091 188.369638 
L 392.672727 183.477292 
L 399.436364 178.850792 
L 406.2 174.475731 
L 412.963636 170.338474 
L 419.727273 166.426121 
L 426.490909 162.726466 
L 433.254545 159.227962 
L 440.018182 155.919684 
L 446.781818 152.791302 
L 453.545455 149.833041 
L 460.309091 147.035658 
L 467.072727 144.390411 
L 473.836364 141.88903 
L 480.6 139.523697 
L 487.363636 137.287014 
L 494.127273 135.171988 
L 500.890909 133.172004 
L 507.654545 131.280807 
L 514.418182 129.492482 
L 521.181818 127.801435 
L 527.945455 126.202375 
L 534.709091 124.690301 
L 541.472727 123.26048 
L 548.236364 121.90844 
L 555 120.62995 
L 561.763636 119.42101 
L 568.527273 118.277837 
L 575.290909 117.196853 
L 582.054545 116.174677 
L 588.818182 115.208108 
L 595.581818 114.294123 
L 602.345455 113.429861 
L 609.109091 112.612616 
L 615.872727 111.839833 
L 622.636364 111.109091 
" style="fill:none;stroke:#9467bd;stroke-linecap:square;stroke-width:1.5;"/>
   </g>
   <g id="line2d_38">
    <path clip-path="url(#pa9cd1181af)" d="M 115.363636 605.290909 
L 122.127273 603.404836 
L 128.890909 598.74735 
L 135.654545 592.293182 
L 142.418182 584.576235 
L 149.181818 575.891027 
L 155.945455 566.40333 
L 162.709091 556.211107 
L 169.472727 545.378179 
L 176.236364 533.952859 
L 183 521.978276 
L 189.763636 509.498024 
L 196.527273 496.559152 
L 203.290909 483.213575 
L 210.054545 469.518525 
L 216.818182 455.536347 
L 223.581818 441.333873 
L 230.345455 426.981474 
L 237.109091 412.551886 
L 243.872727 398.118894 
L 250.636364 383.755943 
L 257.4 369.534733 
L 264.163636 355.523873 
L 270.927273 341.787647 
L 277.690909 328.384932 
L 284.454545 315.368326 
L 291.218182 302.783489 
L 297.981818 290.668724 
L 304.745455 279.054787 
L 311.509091 267.964926 
L 318.272727 257.415107 
L 325.036364 247.414416 
L 331.8 237.965595 
L 338.563636 229.065671 
L 345.327273 220.706656 
L 352.090909 212.876269 
L 358.854545 205.558666 
L 365.618182 198.735147 
L 372.381818 192.384816 
L 379.145455 186.4852 
L 385.909091 181.012786 
L 392.672727 175.94351 
L 399.436364 171.25316 
L 406.2 166.917723 
L 412.963636 162.913664 
L 419.727273 159.218144 
L 426.490909 155.809193 
L 433.254545 152.665829 
L 440.018182 149.768144 
L 446.781818 147.097349 
L 453.545455 144.6358 
L 460.309091 142.366995 
L 467.072727 140.27556 
L 473.836364 138.347212 
L 480.6 136.568721 
L 487.363636 134.927863 
L 494.127273 133.413362 
L 500.890909 132.014839 
L 507.654545 130.722752 
L 514.418182 129.528342 
L 521.181818 128.423574 
L 527.945455 127.401086 
L 534.709091 126.454136 
L 541.472727 125.576554 
L 548.236364 124.762695 
L 555 124.007395 
L 561.763636 123.305933 
L 568.527273 122.653991 
L 575.290909 122.04762 
L 582.054545 121.48321 
L 588.818182 120.957458 
L 595.581818 120.467341 
L 602.345455 120.010096 
L 609.109091 119.583189 
L 615.872727 119.184303 
L 622.636364 118.811312 
" style="fill:none;stroke:#8c564b;stroke-linecap:square;stroke-width:1.5;"/>
   </g>
   <g id="line2d_39">
    <path clip-path="url(#pa9cd1181af)" d="M 115.363636 605.290909 
L 122.127273 604.428008 
L 128.890909 602.188869 
L 135.654545 598.803095 
L 142.418182 594.278557 
L 149.181818 588.518838 
L 155.945455 581.387618 
L 162.709091 572.753384 
L 169.472727 562.526556 
L 176.236364 550.690442 
L 183 537.321644 
L 189.763636 522.594189 
L 196.527273 506.764692 
L 203.290909 490.141901 
L 210.054545 473.049307 
L 216.818182 455.791001 
L 223.581818 438.627978 
L 230.345455 421.767087 
L 237.109091 405.360591 
L 243.872727 389.512404 
L 250.636364 374.287231 
L 257.4 359.719938 
L 264.163636 345.823767 
L 270.927273 332.596897 
L 277.690909 320.027386 
L 284.454545 308.096742 
L 291.218182 296.78244 
L 297.981818 286.059661 
L 304.745455 275.90247 
L 311.509091 266.284609 
L 318.272727 257.180026 
L 325.036364 248.563213 
L 331.8 240.409425 
L 338.563636 232.694813 
L 345.327273 225.396491 
L 352.090909 218.49258 
L 358.854545 211.962209 
L 365.618182 205.785509 
L 372.381818 199.943591 
L 379.145455 194.418513 
L 385.909091 189.193256 
L 392.672727 184.251676 
L 399.436364 179.578474 
L 406.2 175.159158 
L 412.963636 170.979999 
L 419.727273 167.028 
L 426.490909 163.290858 
L 433.254545 159.756926 
L 440.018182 156.415184 
L 446.781818 153.255204 
L 453.545455 150.267121 
L 460.309091 147.441599 
L 467.072727 144.76981 
L 473.836364 142.2434 
L 480.6 139.854468 
L 487.363636 137.595543 
L 494.127273 135.459556 
L 500.890909 133.439822 
L 507.654545 131.53002 
L 514.418182 129.72417 
L 521.181818 128.016618 
L 527.945455 126.402016 
L 534.709091 124.875308 
L 541.472727 123.431711 
L 548.236364 122.066703 
L 555 120.776008 
L 561.763636 119.55558 
L 568.527273 118.401597 
L 575.290909 117.310441 
L 582.054545 116.278694 
L 588.818182 115.303121 
L 595.581818 114.380665 
L 602.345455 113.508434 
L 609.109091 112.683695 
L 615.872727 111.903863 
L 622.636364 111.166491 
" style="fill:none;stroke:#e377c2;stroke-linecap:square;stroke-width:1.5;"/>
   </g>
   <g id="line2d_40">
    <path clip-path="url(#pa9cd1181af)" d="M 115.363636 605.290909 
L 122.127273 604.162386 
L 128.890909 600.982738 
L 135.654545 596.01226 
L 142.418182 589.462062 
L 149.181818 581.509092 
L 155.945455 572.307018 
L 162.709091 561.99403 
L 169.472727 550.698312 
L 176.236364 538.54173 
L 183 525.642135 
L 189.763636 512.114611 
L 196.527273 498.071923 
L 203.290909 483.624381 
L 210.054545 468.879301 
L 216.818182 453.940213 
L 223.581818 438.905955 
L 230.345455 423.869742 
L 237.109091 408.918307 
L 243.872727 394.131168 
L 250.636364 379.580063 
L 257.4 365.328567 
L 264.163636 351.431911 
L 270.927273 337.936991 
L 277.690909 324.882538 
L 284.454545 312.299443 
L 291.218182 300.211206 
L 297.981818 288.63447 
L 304.745455 277.579621 
L 311.509091 267.051431 
L 318.272727 257.04971 
L 325.036364 247.569959 
L 331.8 238.603997 
L 338.563636 230.140564 
L 345.327273 222.165875 
L 352.090909 214.664132 
L 358.854545 207.617988 
L 365.618182 201.008956 
L 372.381818 194.817771 
L 379.145455 189.024704 
L 385.909091 183.609829 
L 392.672727 178.553252 
L 399.436364 173.835296 
L 406.2 169.436657 
L 412.963636 165.338525 
L 419.727273 161.522684 
L 426.490909 157.97158 
L 433.254545 154.668381 
L 440.018182 151.597003 
L 446.781818 148.742141 
L 453.545455 146.08927 
L 460.309091 143.624651 
L 467.072727 141.335315 
L 473.836364 139.209056 
L 480.6 137.234401 
L 487.363636 135.400594 
L 494.127273 133.697564 
L 500.890909 132.115896 
L 507.654545 130.646802 
L 514.418182 129.282089 
L 521.181818 128.014129 
L 527.945455 126.835822 
L 534.709091 125.740573 
L 541.472727 124.722258 
L 548.236364 123.775192 
L 555 122.894106 
L 561.763636 122.074116 
L 568.527273 121.310701 
L 575.290909 120.599673 
L 582.054545 119.937161 
L 588.818182 119.31958 
L 595.581818 118.74362 
L 602.345455 118.206219 
L 609.109091 117.704547 
L 615.872727 117.23599 
L 622.636364 116.798135 
" style="fill:none;stroke:#7f7f7f;stroke-linecap:square;stroke-width:1.5;"/>
   </g>
   <g id="line2d_41">
    <path clip-path="url(#pa9cd1181af)" d="M 115.363636 605.290909 
L 122.127273 604.221905 
L 128.890909 601.202775 
L 135.654545 596.468499 
L 142.418182 590.206852 
L 149.181818 582.573218 
L 155.945455 573.701487 
L 162.709091 563.712023 
L 169.472727 552.717361 
L 176.236364 540.826145 
L 183 528.145643 
L 189.763636 514.783148 
L 196.527273 500.846471 
L 203.290909 486.443749 
L 210.054545 471.68274 
L 216.818182 456.669765 
L 223.581818 441.50845 
L 230.345455 426.298391 
L 237.109091 411.133857 
L 243.872727 396.102617 
L 250.636364 381.284958 
L 257.4 366.752926 
L 264.163636 352.569834 
L 270.927273 338.79001 
L 277.690909 325.458793 
L 284.454545 312.61274 
L 291.218182 300.280014 
L 297.981818 288.48092 
L 304.745455 277.228541 
L 311.509091 266.529448 
L 318.272727 256.384442 
L 325.036364 246.789312 
L 331.8 237.735569 
L 338.563636 229.211154 
L 345.327273 221.201098 
L 352.090909 213.688127 
L 358.854545 206.65321 
L 365.618182 200.07604 
L 372.381818 193.935462 
L 379.145455 188.209835 
L 385.909091 182.877343 
L 392.672727 177.916256 
L 399.436364 173.305138 
L 406.2 169.023023 
L 412.963636 165.049546 
L 419.727273 161.365051 
L 426.490909 157.950663 
L 433.254545 154.788344 
L 440.018182 151.860925 
L 446.781818 149.152121 
L 453.545455 146.64654 
L 460.309091 144.329671 
L 467.072727 142.187869 
L 473.836364 140.208337 
L 480.6 138.379091 
L 487.363636 136.688937 
L 494.127273 135.127429 
L 500.890909 133.68484 
L 507.654545 132.35212 
L 514.418182 131.120862 
L 521.181818 129.983268 
L 527.945455 128.932104 
L 534.709091 127.960673 
L 541.472727 127.06278 
L 548.236364 126.232692 
L 555 125.465115 
L 561.763636 124.755161 
L 568.527273 124.098317 
L 575.290909 123.49042 
L 582.054545 122.927635 
L 588.818182 122.406423 
L 595.581818 121.923527 
L 602.345455 121.475947 
L 609.109091 121.060921 
L 615.872727 120.675905 
L 622.636364 120.318559 
" style="fill:none;stroke:#bcbd22;stroke-linecap:square;stroke-width:1.5;"/>
   </g>
   <g id="line2d_42">
    <path clip-path="url(#pa9cd1181af)" d="M 115.363636 605.290909 
L 122.127273 605.290909 
L 128.890909 600.299903 
L 135.654545 591.648826 
L 142.418182 581.001347 
L 149.181818 563.699193 
L 155.945455 550.389844 
L 162.709091 537.745963 
L 169.472727 526.433016 
L 176.236364 519.112874 
L 183 519.112874 
L 189.763636 515.452803 
L 196.527273 497.152448 
L 203.290909 483.177632 
L 210.054545 472.862886 
L 216.818182 463.546342 
L 223.581818 450.90246 
L 230.345455 434.931241 
L 237.109091 423.618295 
L 243.872727 400.326934 
L 250.636364 383.02478 
L 257.4 367.719029 
L 264.163636 359.067952 
L 270.927273 343.762201 
L 277.690909 330.785585 
L 284.454545 312.152497 
L 291.218182 299.841349 
L 297.981818 285.533799 
L 304.745455 278.879124 
L 311.509091 270.893515 
L 318.272727 258.249633 
L 325.036364 247.602154 
L 331.8 236.621941 
L 338.563636 224.643527 
L 345.327273 215.326982 
L 352.090909 209.670509 
L 358.854545 207.341373 
L 365.618182 204.679503 
L 372.381818 195.362959 
L 379.145455 188.708284 
L 385.909091 176.72987 
L 392.672727 172.404332 
L 399.436364 168.078793 
L 406.2 166.415125 
L 412.963636 163.420521 
L 419.727273 160.425918 
L 426.490909 156.100379 
L 433.254545 153.771243 
L 440.018182 148.780237 
L 446.781818 146.118368 
L 453.545455 144.121965 
L 460.309091 142.125563 
L 467.072727 138.798226 
L 473.836364 135.138155 
L 480.6 133.474486 
L 487.363636 131.810817 
L 494.127273 131.810817 
L 500.890909 131.810817 
L 507.654545 129.814415 
L 514.418182 128.816214 
L 521.181818 128.48348 
L 527.945455 128.150746 
L 534.709091 126.819811 
L 541.472727 125.82161 
L 548.236364 124.823409 
L 555 124.490675 
L 561.763636 123.825208 
L 568.527273 123.492474 
L 575.290909 123.15974 
L 582.054545 123.15974 
L 588.818182 122.827007 
L 595.581818 122.827007 
L 602.345455 122.494273 
L 609.109091 122.161539 
L 615.872727 122.161539 
L 622.636364 122.161539 
" style="fill:none;stroke:#17becf;stroke-dasharray:14.8,6.4;stroke-dashoffset:0;stroke-width:4;"/>
   </g>
   <g id="patch_3">
    <path d="M 90 630 
L 90 86.4 
" style="fill:none;stroke:#000000;stroke-linecap:square;stroke-linejoin:miter;stroke-width:0.8;"/>
   </g>
   <g id="patch_4">
    <path d="M 648 630 
L 648 86.4 
" style="fill:none;stroke:#000000;stroke-linecap:square;stroke-linejoin:miter;stroke-width:0.8;"/>
   </g>
   <g id="patch_5">
    <path d="M 90 630 
L 648 630 
" style="fill:none;stroke:#000000;stroke-linecap:square;stroke-linejoin:miter;stroke-width:0.8;"/>
   </g>
   <g id="patch_6">
    <path d="M 90 86.4 
L 648 86.4 
" style="fill:none;stroke:#000000;stroke-linecap:square;stroke-linejoin:miter;stroke-width:0.8;"/>
   </g>
   <g id="text_19">
    <!-- Slovenia relative err =  -->
    <g transform="translate(299.65875 80.4)scale(0.12 -0.12)">
     <defs>
      <path d="M 53.515625 70.515625 
L 53.515625 60.890625 
Q 47.90625 63.578125 42.921875 64.890625 
Q 37.9375 66.21875 33.296875 66.21875 
Q 25.25 66.21875 20.875 63.09375 
Q 16.5 59.96875 16.5 54.203125 
Q 16.5 49.359375 19.40625 46.890625 
Q 22.3125 44.4375 30.421875 42.921875 
L 36.375 41.703125 
Q 47.40625 39.59375 52.65625 34.296875 
Q 57.90625 29 57.90625 20.125 
Q 57.90625 9.515625 50.796875 4.046875 
Q 43.703125 -1.421875 29.984375 -1.421875 
Q 24.8125 -1.421875 18.96875 -0.25 
Q 13.140625 0.921875 6.890625 3.21875 
L 6.890625 13.375 
Q 12.890625 10.015625 18.65625 8.296875 
Q 24.421875 6.59375 29.984375 6.59375 
Q 38.421875 6.59375 43.015625 9.90625 
Q 47.609375 13.234375 47.609375 19.390625 
Q 47.609375 24.75 44.3125 27.78125 
Q 41.015625 30.8125 33.5 32.328125 
L 27.484375 33.5 
Q 16.453125 35.6875 11.515625 40.375 
Q 6.59375 45.0625 6.59375 53.421875 
Q 6.59375 63.09375 13.40625 68.65625 
Q 20.21875 74.21875 32.171875 74.21875 
Q 37.3125 74.21875 42.625 73.28125 
Q 47.953125 72.359375 53.515625 70.515625 
z
" id="DejaVuSans-83"/>
      <path d="M 30.609375 48.390625 
Q 23.390625 48.390625 19.1875 42.75 
Q 14.984375 37.109375 14.984375 27.296875 
Q 14.984375 17.484375 19.15625 11.84375 
Q 23.34375 6.203125 30.609375 6.203125 
Q 37.796875 6.203125 41.984375 11.859375 
Q 46.1875 17.53125 46.1875 27.296875 
Q 46.1875 37.015625 41.984375 42.703125 
Q 37.796875 48.390625 30.609375 48.390625 
z
M 30.609375 56 
Q 42.328125 56 49.015625 48.375 
Q 55.71875 40.765625 55.71875 27.296875 
Q 55.71875 13.875 49.015625 6.21875 
Q 42.328125 -1.421875 30.609375 -1.421875 
Q 18.84375 -1.421875 12.171875 6.21875 
Q 5.515625 13.875 5.515625 27.296875 
Q 5.515625 40.765625 12.171875 48.375 
Q 18.84375 56 30.609375 56 
z
" id="DejaVuSans-111"/>
      <path d="M 54.890625 33.015625 
L 54.890625 0 
L 45.90625 0 
L 45.90625 32.71875 
Q 45.90625 40.484375 42.875 44.328125 
Q 39.84375 48.1875 33.796875 48.1875 
Q 26.515625 48.1875 22.3125 43.546875 
Q 18.109375 38.921875 18.109375 30.90625 
L 18.109375 0 
L 9.078125 0 
L 9.078125 54.6875 
L 18.109375 54.6875 
L 18.109375 46.1875 
Q 21.34375 51.125 25.703125 53.5625 
Q 30.078125 56 35.796875 56 
Q 45.21875 56 50.046875 50.171875 
Q 54.890625 44.34375 54.890625 33.015625 
z
" id="DejaVuSans-110"/>
      <path d="M 41.109375 46.296875 
Q 39.59375 47.171875 37.8125 47.578125 
Q 36.03125 48 33.890625 48 
Q 26.265625 48 22.1875 43.046875 
Q 18.109375 38.09375 18.109375 28.8125 
L 18.109375 0 
L 9.078125 0 
L 9.078125 54.6875 
L 18.109375 54.6875 
L 18.109375 46.1875 
Q 20.953125 51.171875 25.484375 53.578125 
Q 30.03125 56 36.53125 56 
Q 37.453125 56 38.578125 55.875 
Q 39.703125 55.765625 41.0625 55.515625 
z
" id="DejaVuSans-114"/>
      <path d="M 10.59375 45.40625 
L 73.1875 45.40625 
L 73.1875 37.203125 
L 10.59375 37.203125 
z
M 10.59375 25.484375 
L 73.1875 25.484375 
L 73.1875 17.1875 
L 10.59375 17.1875 
z
" id="DejaVuSans-61"/>
     </defs>
     <use xlink:href="#DejaVuSans-83"/>
     <use x="63.476562" xlink:href="#DejaVuSans-108"/>
     <use x="91.259766" xlink:href="#DejaVuSans-111"/>
     <use x="152.441406" xlink:href="#DejaVuSans-118"/>
     <use x="211.621094" xlink:href="#DejaVuSans-101"/>
     <use x="273.144531" xlink:href="#DejaVuSans-110"/>
     <use x="336.523438" xlink:href="#DejaVuSans-105"/>
     <use x="364.306641" xlink:href="#DejaVuSans-97"/>
     <use x="425.585938" xlink:href="#DejaVuSans-32"/>
     <use x="457.373047" xlink:href="#DejaVuSans-114"/>
     <use x="496.236328" xlink:href="#DejaVuSans-101"/>
     <use x="557.759766" xlink:href="#DejaVuSans-108"/>
     <use x="585.542969" xlink:href="#DejaVuSans-97"/>
     <use x="646.822266" xlink:href="#DejaVuSans-116"/>
     <use x="686.03125" xlink:href="#DejaVuSans-105"/>
     <use x="713.814453" xlink:href="#DejaVuSans-118"/>
     <use x="772.994141" xlink:href="#DejaVuSans-101"/>
     <use x="834.517578" xlink:href="#DejaVuSans-32"/>
     <use x="866.304688" xlink:href="#DejaVuSans-101"/>
     <use x="927.828125" xlink:href="#DejaVuSans-114"/>
     <use x="967.191406" xlink:href="#DejaVuSans-114"/>
     <use x="1008.304688" xlink:href="#DejaVuSans-32"/>
     <use x="1040.091797" xlink:href="#DejaVuSans-61"/>
     <use x="1123.880859" xlink:href="#DejaVuSans-32"/>
    </g>
   </g>
   <g id="legend_1">
    <g id="patch_7">
     <path d="M 97 226.503125 
L 185.6 226.503125 
Q 187.6 226.503125 187.6 224.503125 
L 187.6 93.4 
Q 187.6 91.4 185.6 91.4 
L 97 91.4 
Q 95 91.4 95 93.4 
L 95 224.503125 
Q 95 226.503125 97 226.503125 
z
" style="fill:#ffffff;opacity:0.8;stroke:#cccccc;stroke-linejoin:miter;"/>
    </g>
    <g id="line2d_43">
     <path d="M 99 99.498438 
L 119 99.498438 
" style="fill:none;stroke:#1f77b4;stroke-linecap:square;stroke-width:1.5;"/>
    </g>
    <g id="line2d_44"/>
    <g id="text_20">
     <!-- SI -->
     <g transform="translate(127 102.998438)scale(0.1 -0.1)">
      <defs>
       <path d="M 9.8125 72.90625 
L 19.671875 72.90625 
L 19.671875 0 
L 9.8125 0 
z
" id="DejaVuSans-73"/>
      </defs>
      <use xlink:href="#DejaVuSans-83"/>
      <use x="63.476562" xlink:href="#DejaVuSans-73"/>
     </g>
    </g>
    <g id="line2d_45">
     <path d="M 99 114.176563 
L 119 114.176563 
" style="fill:none;stroke:#ff7f0e;stroke-linecap:square;stroke-width:1.5;"/>
    </g>
    <g id="line2d_46"/>
    <g id="text_21">
     <!-- BD -->
     <g transform="translate(127 117.676563)scale(0.1 -0.1)">
      <defs>
       <path d="M 19.671875 34.8125 
L 19.671875 8.109375 
L 35.5 8.109375 
Q 43.453125 8.109375 47.28125 11.40625 
Q 51.125 14.703125 51.125 21.484375 
Q 51.125 28.328125 47.28125 31.5625 
Q 43.453125 34.8125 35.5 34.8125 
z
M 19.671875 64.796875 
L 19.671875 42.828125 
L 34.28125 42.828125 
Q 41.5 42.828125 45.03125 45.53125 
Q 48.578125 48.25 48.578125 53.8125 
Q 48.578125 59.328125 45.03125 62.0625 
Q 41.5 64.796875 34.28125 64.796875 
z
M 9.8125 72.90625 
L 35.015625 72.90625 
Q 46.296875 72.90625 52.390625 68.21875 
Q 58.5 63.53125 58.5 54.890625 
Q 58.5 48.1875 55.375 44.234375 
Q 52.25 40.28125 46.1875 39.3125 
Q 53.46875 37.75 57.5 32.78125 
Q 61.53125 27.828125 61.53125 20.40625 
Q 61.53125 10.640625 54.890625 5.3125 
Q 48.25 0 35.984375 0 
L 9.8125 0 
z
" id="DejaVuSans-66"/>
      </defs>
      <use xlink:href="#DejaVuSans-66"/>
      <use x="68.603516" xlink:href="#DejaVuSans-68"/>
     </g>
    </g>
    <g id="line2d_47">
     <path d="M 99 128.854688 
L 119 128.854688 
" style="fill:none;stroke:#2ca02c;stroke-linecap:square;stroke-width:1.5;"/>
    </g>
    <g id="line2d_48"/>
    <g id="text_22">
     <!-- SIR -->
     <g transform="translate(127 132.354688)scale(0.1 -0.1)">
      <defs>
       <path d="M 44.390625 34.1875 
Q 47.5625 33.109375 50.5625 29.59375 
Q 53.5625 26.078125 56.59375 19.921875 
L 66.609375 0 
L 56 0 
L 46.6875 18.703125 
Q 43.0625 26.03125 39.671875 28.421875 
Q 36.28125 30.8125 30.421875 30.8125 
L 19.671875 30.8125 
L 19.671875 0 
L 9.8125 0 
L 9.8125 72.90625 
L 32.078125 72.90625 
Q 44.578125 72.90625 50.734375 67.671875 
Q 56.890625 62.453125 56.890625 51.90625 
Q 56.890625 45.015625 53.6875 40.46875 
Q 50.484375 35.9375 44.390625 34.1875 
z
M 19.671875 64.796875 
L 19.671875 38.921875 
L 32.078125 38.921875 
Q 39.203125 38.921875 42.84375 42.21875 
Q 46.484375 45.515625 46.484375 51.90625 
Q 46.484375 58.296875 42.84375 61.546875 
Q 39.203125 64.796875 32.078125 64.796875 
z
" id="DejaVuSans-82"/>
      </defs>
      <use xlink:href="#DejaVuSans-83"/>
      <use x="63.476562" xlink:href="#DejaVuSans-73"/>
      <use x="92.96875" xlink:href="#DejaVuSans-82"/>
     </g>
    </g>
    <g id="line2d_49">
     <path d="M 99 143.532812 
L 119 143.532812 
" style="fill:none;stroke:#d62728;stroke-linecap:square;stroke-width:1.5;"/>
    </g>
    <g id="line2d_50"/>
    <g id="text_23">
     <!-- eSIR -->
     <g transform="translate(127 147.032812)scale(0.1 -0.1)">
      <use xlink:href="#DejaVuSans-101"/>
      <use x="61.523438" xlink:href="#DejaVuSans-83"/>
      <use x="125" xlink:href="#DejaVuSans-73"/>
      <use x="154.492188" xlink:href="#DejaVuSans-82"/>
     </g>
    </g>
    <g id="line2d_51">
     <path d="M 99 158.210938 
L 119 158.210938 
" style="fill:none;stroke:#9467bd;stroke-linecap:square;stroke-width:1.5;"/>
    </g>
    <g id="line2d_52"/>
    <g id="text_24">
     <!-- SEIR -->
     <g transform="translate(127 161.710938)scale(0.1 -0.1)">
      <defs>
       <path d="M 9.8125 72.90625 
L 55.90625 72.90625 
L 55.90625 64.59375 
L 19.671875 64.59375 
L 19.671875 43.015625 
L 54.390625 43.015625 
L 54.390625 34.71875 
L 19.671875 34.71875 
L 19.671875 8.296875 
L 56.78125 8.296875 
L 56.78125 0 
L 9.8125 0 
z
" id="DejaVuSans-69"/>
      </defs>
      <use xlink:href="#DejaVuSans-83"/>
      <use x="63.476562" xlink:href="#DejaVuSans-69"/>
      <use x="126.660156" xlink:href="#DejaVuSans-73"/>
      <use x="156.152344" xlink:href="#DejaVuSans-82"/>
     </g>
    </g>
    <g id="line2d_53">
     <path d="M 99 172.889063 
L 119 172.889063 
" style="fill:none;stroke:#8c564b;stroke-linecap:square;stroke-width:1.5;"/>
    </g>
    <g id="line2d_54"/>
    <g id="text_25">
     <!-- eSEIR -->
     <g transform="translate(127 176.389063)scale(0.1 -0.1)">
      <use xlink:href="#DejaVuSans-101"/>
      <use x="61.523438" xlink:href="#DejaVuSans-83"/>
      <use x="125" xlink:href="#DejaVuSans-69"/>
      <use x="188.183594" xlink:href="#DejaVuSans-73"/>
      <use x="217.675781" xlink:href="#DejaVuSans-82"/>
     </g>
    </g>
    <g id="line2d_55">
     <path d="M 99 187.567188 
L 119 187.567188 
" style="fill:none;stroke:#e377c2;stroke-linecap:square;stroke-width:1.5;"/>
    </g>
    <g id="line2d_56"/>
    <g id="text_26">
     <!-- SEIUR -->
     <g transform="translate(127 191.067188)scale(0.1 -0.1)">
      <defs>
       <path d="M 8.6875 72.90625 
L 18.609375 72.90625 
L 18.609375 28.609375 
Q 18.609375 16.890625 22.84375 11.734375 
Q 27.09375 6.59375 36.625 6.59375 
Q 46.09375 6.59375 50.34375 11.734375 
Q 54.59375 16.890625 54.59375 28.609375 
L 54.59375 72.90625 
L 64.5 72.90625 
L 64.5 27.390625 
Q 64.5 13.140625 57.4375 5.859375 
Q 50.390625 -1.421875 36.625 -1.421875 
Q 22.796875 -1.421875 15.734375 5.859375 
Q 8.6875 13.140625 8.6875 27.390625 
z
" id="DejaVuSans-85"/>
      </defs>
      <use xlink:href="#DejaVuSans-83"/>
      <use x="63.476562" xlink:href="#DejaVuSans-69"/>
      <use x="126.660156" xlink:href="#DejaVuSans-73"/>
      <use x="156.152344" xlink:href="#DejaVuSans-85"/>
      <use x="229.345703" xlink:href="#DejaVuSans-82"/>
     </g>
    </g>
    <g id="line2d_57">
     <path d="M 99 202.245312 
L 119 202.245312 
" style="fill:none;stroke:#7f7f7f;stroke-linecap:square;stroke-width:1.5;"/>
    </g>
    <g id="line2d_58"/>
    <g id="text_27">
     <!-- eSEIUR -->
     <g transform="translate(127 205.745312)scale(0.1 -0.1)">
      <use xlink:href="#DejaVuSans-101"/>
      <use x="61.523438" xlink:href="#DejaVuSans-83"/>
      <use x="125" xlink:href="#DejaVuSans-69"/>
      <use x="188.183594" xlink:href="#DejaVuSans-73"/>
      <use x="217.675781" xlink:href="#DejaVuSans-85"/>
      <use x="290.869141" xlink:href="#DejaVuSans-82"/>
     </g>
    </g>
    <g id="line2d_59">
     <path d="M 99 216.923437 
L 119 216.923437 
" style="fill:none;stroke:#bcbd22;stroke-linecap:square;stroke-width:1.5;"/>
    </g>
    <g id="line2d_60"/>
    <g id="text_28">
     <!-- eSEIUR$^{range}$ -->
     <g transform="translate(127 220.423437)scale(0.1 -0.1)">
      <defs>
       <path d="M 44.578125 46.390625 
Q 43.21875 47.125 41.453125 47.515625 
Q 39.703125 47.90625 37.703125 47.90625 
Q 30.515625 47.90625 25.140625 42.453125 
Q 19.78125 37.015625 18.015625 27.875 
L 12.5 0 
L 3.515625 0 
L 14.203125 54.6875 
L 23.1875 54.6875 
L 21.484375 46.1875 
Q 25.046875 50.921875 30 53.453125 
Q 34.96875 56 40.578125 56 
Q 42.046875 56 43.453125 55.828125 
Q 44.875 55.671875 46.296875 55.28125 
z
" id="DejaVuSans-Oblique-114"/>
       <path d="M 53.71875 31.203125 
L 47.609375 0 
L 38.625 0 
L 40.28125 8.296875 
Q 36.328125 3.421875 31.265625 1 
Q 26.21875 -1.421875 20.015625 -1.421875 
Q 13.03125 -1.421875 8.5625 2.84375 
Q 4.109375 7.125 4.109375 13.8125 
Q 4.109375 23.390625 11.75 28.953125 
Q 19.390625 34.515625 32.8125 34.515625 
L 45.3125 34.515625 
L 45.796875 36.921875 
Q 45.90625 37.3125 45.953125 37.765625 
Q 46 38.234375 46 39.203125 
Q 46 43.5625 42.453125 45.96875 
Q 38.921875 48.390625 32.515625 48.390625 
Q 28.125 48.390625 23.5 47.265625 
Q 18.890625 46.140625 14.015625 43.890625 
L 15.578125 52.203125 
Q 20.65625 54.109375 25.515625 55.046875 
Q 30.375 56 34.90625 56 
Q 44.578125 56 49.625 51.796875 
Q 54.6875 47.609375 54.6875 39.59375 
Q 54.6875 37.984375 54.4375 35.8125 
Q 54.203125 33.640625 53.71875 31.203125 
z
M 44 27.484375 
L 35.015625 27.484375 
Q 23.96875 27.484375 18.671875 24.53125 
Q 13.375 21.578125 13.375 15.375 
Q 13.375 11.078125 16.078125 8.640625 
Q 18.796875 6.203125 23.578125 6.203125 
Q 30.90625 6.203125 36.375 11.453125 
Q 41.84375 16.703125 43.609375 25.484375 
z
" id="DejaVuSans-Oblique-97"/>
       <path d="M 55.71875 33.015625 
L 49.3125 0 
L 40.28125 0 
L 46.6875 32.671875 
Q 47.125 34.96875 47.359375 36.71875 
Q 47.609375 38.484375 47.609375 39.5 
Q 47.609375 43.609375 45.015625 45.890625 
Q 42.4375 48.1875 37.796875 48.1875 
Q 30.5625 48.1875 25.34375 43.375 
Q 20.125 38.578125 18.5 30.328125 
L 12.5 0 
L 3.515625 0 
L 14.109375 54.6875 
L 23.09375 54.6875 
L 21.296875 46.09375 
Q 25.046875 50.828125 30.3125 53.40625 
Q 35.59375 56 41.40625 56 
Q 48.640625 56 52.609375 52.09375 
Q 56.59375 48.1875 56.59375 41.109375 
Q 56.59375 39.359375 56.375 37.359375 
Q 56.15625 35.359375 55.71875 33.015625 
z
" id="DejaVuSans-Oblique-110"/>
       <path d="M 59.625 54.6875 
L 50.296875 6.78125 
Q 47.609375 -7.125 40.015625 -13.953125 
Q 32.421875 -20.796875 19.578125 -20.796875 
Q 14.84375 -20.796875 10.78125 -20.09375 
Q 6.734375 -19.390625 3.21875 -17.921875 
L 4.890625 -9.1875 
Q 8.203125 -11.328125 11.90625 -12.34375 
Q 15.625 -13.375 19.828125 -13.375 
Q 28.375 -13.375 33.859375 -8.703125 
Q 39.359375 -4.046875 41.109375 4.6875 
L 41.890625 8.796875 
Q 38.140625 4.5 33.15625 2.25 
Q 28.171875 0 22.40625 0 
Q 14.109375 0 9.34375 5.484375 
Q 4.59375 10.984375 4.59375 20.609375 
Q 4.59375 28.171875 7.46875 35.421875 
Q 10.359375 42.671875 15.578125 48.296875 
Q 19.046875 52 23.65625 54 
Q 28.265625 56 33.296875 56 
Q 38.8125 56 42.90625 53.4375 
Q 47.015625 50.875 49.03125 46.1875 
L 50.59375 54.6875 
z
M 46.09375 34.625 
Q 46.09375 41.265625 42.96875 44.875 
Q 39.84375 48.484375 34.078125 48.484375 
Q 30.515625 48.484375 27.296875 47.0625 
Q 24.078125 45.65625 21.78125 43.109375 
Q 18.0625 38.921875 15.984375 33.234375 
Q 13.921875 27.546875 13.921875 21.484375 
Q 13.921875 14.75 17.0625 11.125 
Q 20.21875 7.515625 26.125 7.515625 
Q 34.671875 7.515625 40.375 15.25 
Q 46.09375 23 46.09375 34.625 
z
" id="DejaVuSans-Oblique-103"/>
       <path d="M 48.09375 32.234375 
Q 48.25 33.015625 48.3125 33.84375 
Q 48.390625 34.671875 48.390625 35.5 
Q 48.390625 41.453125 44.890625 44.921875 
Q 41.40625 48.390625 35.40625 48.390625 
Q 28.71875 48.390625 23.578125 44.15625 
Q 18.453125 39.9375 15.828125 32.171875 
z
M 55.90625 25.203125 
L 14.109375 25.203125 
Q 13.8125 23.34375 13.71875 22.265625 
Q 13.625 21.1875 13.625 20.40625 
Q 13.625 13.625 17.796875 9.90625 
Q 21.96875 6.203125 29.59375 6.203125 
Q 35.453125 6.203125 40.671875 7.515625 
Q 45.90625 8.84375 50.390625 11.375 
L 48.6875 2.484375 
Q 43.84375 0.53125 38.6875 -0.4375 
Q 33.546875 -1.421875 28.21875 -1.421875 
Q 16.84375 -1.421875 10.71875 4.015625 
Q 4.59375 9.46875 4.59375 19.484375 
Q 4.59375 28.03125 7.640625 35.375 
Q 10.6875 42.71875 16.609375 48.484375 
Q 20.40625 52.09375 25.65625 54.046875 
Q 30.90625 56 36.8125 56 
Q 46.09375 56 51.578125 50.4375 
Q 57.078125 44.875 57.078125 35.5 
Q 57.078125 33.25 56.78125 30.6875 
Q 56.5 28.125 55.90625 25.203125 
z
" id="DejaVuSans-Oblique-101"/>
      </defs>
      <use transform="translate(0 0.51875)" xlink:href="#DejaVuSans-101"/>
      <use transform="translate(61.523438 0.51875)" xlink:href="#DejaVuSans-83"/>
      <use transform="translate(125 0.51875)" xlink:href="#DejaVuSans-69"/>
      <use transform="translate(188.183594 0.51875)" xlink:href="#DejaVuSans-73"/>
      <use transform="translate(217.675781 0.51875)" xlink:href="#DejaVuSans-85"/>
      <use transform="translate(288.619141 0.51875)" xlink:href="#DejaVuSans-82"/>
      <use transform="translate(359.058594 38.8)scale(0.7)" xlink:href="#DejaVuSans-Oblique-114"/>
      <use transform="translate(387.837891 38.8)scale(0.7)" xlink:href="#DejaVuSans-Oblique-97"/>
      <use transform="translate(430.733398 38.8)scale(0.7)" xlink:href="#DejaVuSans-Oblique-110"/>
      <use transform="translate(475.098633 38.8)scale(0.7)" xlink:href="#DejaVuSans-Oblique-103"/>
      <use transform="translate(519.532227 38.8)scale(0.7)" xlink:href="#DejaVuSans-Oblique-101"/>
     </g>
    </g>
   </g>
  </g>
 </g>
 <defs>
  <clipPath id="pa9cd1181af">
   <rect height="543.6" width="558" x="90" y="86.4"/>
  </clipPath>
 </defs>
</svg>
