<?xml version="1.0" encoding="utf-8" standalone="no"?>
<!DOCTYPE svg PUBLIC "-//W3C//DTD SVG 1.1//EN"
  "http://www.w3.org/Graphics/SVG/1.1/DTD/svg11.dtd">
<!-- Created with matplotlib (https://matplotlib.org/) -->
<svg height="720pt" version="1.1" viewBox="0 0 720 720" width="720pt" xmlns="http://www.w3.org/2000/svg" xmlns:xlink="http://www.w3.org/1999/xlink">
 <metadata>
  <rdf:RDF xmlns:cc="http://creativecommons.org/ns#" xmlns:dc="http://purl.org/dc/elements/1.1/" xmlns:rdf="http://www.w3.org/1999/02/22-rdf-syntax-ns#">
   <cc:Work>
    <dc:type rdf:resource="http://purl.org/dc/dcmitype/StillImage"/>
    <dc:date>2022-10-11T20:58:35.291882</dc:date>
    <dc:format>image/svg+xml</dc:format>
    <dc:creator>
     <cc:Agent>
      <dc:title>Matplotlib v3.3.2, https://matplotlib.org/</dc:title>
     </cc:Agent>
    </dc:creator>
   </cc:Work>
  </rdf:RDF>
 </metadata>
 <defs>
  <style type="text/css">*{stroke-linecap:butt;stroke-linejoin:round;}</style>
 </defs>
 <g id="figure_1">
  <g id="patch_1">
   <path d="M 0 720 
L 720 720 
L 720 0 
L 0 0 
z
" style="fill:none;"/>
  </g>
  <g id="axes_1">
   <g id="patch_2">
    <path d="M 90 630 
L 648 630 
L 648 86.4 
L 90 86.4 
z
" style="fill:#ffffff;"/>
   </g>
   <g id="matplotlib.axis_1">
    <g id="xtick_1">
     <g id="line2d_1">
      <path clip-path="url(#pb8ddd535fc)" d="M 115.363636 630 
L 115.363636 86.4 
" style="fill:none;stroke:#b0b0b0;stroke-linecap:square;stroke-width:0.8;"/>
     </g>
     <g id="line2d_2">
      <defs>
       <path d="M 0 0 
L 0 3.5 
" id="m2271b41c03" style="stroke:#000000;stroke-width:0.8;"/>
      </defs>
      <g>
       <use style="stroke:#000000;stroke-width:0.8;" x="115.363636" xlink:href="#m2271b41c03" y="630"/>
      </g>
     </g>
     <g id="text_1">
      <!-- 0 -->
      <g transform="translate(112.182386 644.598438)scale(0.1 -0.1)">
       <defs>
        <path d="M 31.78125 66.40625 
Q 24.171875 66.40625 20.328125 58.90625 
Q 16.5 51.421875 16.5 36.375 
Q 16.5 21.390625 20.328125 13.890625 
Q 24.171875 6.390625 31.78125 6.390625 
Q 39.453125 6.390625 43.28125 13.890625 
Q 47.125 21.390625 47.125 36.375 
Q 47.125 51.421875 43.28125 58.90625 
Q 39.453125 66.40625 31.78125 66.40625 
z
M 31.78125 74.21875 
Q 44.046875 74.21875 50.515625 64.515625 
Q 56.984375 54.828125 56.984375 36.375 
Q 56.984375 17.96875 50.515625 8.265625 
Q 44.046875 -1.421875 31.78125 -1.421875 
Q 19.53125 -1.421875 13.0625 8.265625 
Q 6.59375 17.96875 6.59375 36.375 
Q 6.59375 54.828125 13.0625 64.515625 
Q 19.53125 74.21875 31.78125 74.21875 
z
" id="DejaVuSans-48"/>
       </defs>
       <use xlink:href="#DejaVuSans-48"/>
      </g>
     </g>
    </g>
    <g id="xtick_2">
     <g id="line2d_3">
      <path clip-path="url(#pb8ddd535fc)" d="M 178.772727 630 
L 178.772727 86.4 
" style="fill:none;stroke:#b0b0b0;stroke-linecap:square;stroke-width:0.8;"/>
     </g>
     <g id="line2d_4">
      <g>
       <use style="stroke:#000000;stroke-width:0.8;" x="178.772727" xlink:href="#m2271b41c03" y="630"/>
      </g>
     </g>
     <g id="text_2">
      <!-- 25 -->
      <g transform="translate(172.410227 644.598438)scale(0.1 -0.1)">
       <defs>
        <path d="M 19.1875 8.296875 
L 53.609375 8.296875 
L 53.609375 0 
L 7.328125 0 
L 7.328125 8.296875 
Q 12.9375 14.109375 22.625 23.890625 
Q 32.328125 33.6875 34.8125 36.53125 
Q 39.546875 41.84375 41.421875 45.53125 
Q 43.3125 49.21875 43.3125 52.78125 
Q 43.3125 58.59375 39.234375 62.25 
Q 35.15625 65.921875 28.609375 65.921875 
Q 23.96875 65.921875 18.8125 64.3125 
Q 13.671875 62.703125 7.8125 59.421875 
L 7.8125 69.390625 
Q 13.765625 71.78125 18.9375 73 
Q 24.125 74.21875 28.421875 74.21875 
Q 39.75 74.21875 46.484375 68.546875 
Q 53.21875 62.890625 53.21875 53.421875 
Q 53.21875 48.921875 51.53125 44.890625 
Q 49.859375 40.875 45.40625 35.40625 
Q 44.1875 33.984375 37.640625 27.21875 
Q 31.109375 20.453125 19.1875 8.296875 
z
" id="DejaVuSans-50"/>
        <path d="M 10.796875 72.90625 
L 49.515625 72.90625 
L 49.515625 64.59375 
L 19.828125 64.59375 
L 19.828125 46.734375 
Q 21.96875 47.46875 24.109375 47.828125 
Q 26.265625 48.1875 28.421875 48.1875 
Q 40.625 48.1875 47.75 41.5 
Q 54.890625 34.8125 54.890625 23.390625 
Q 54.890625 11.625 47.5625 5.09375 
Q 40.234375 -1.421875 26.90625 -1.421875 
Q 22.3125 -1.421875 17.546875 -0.640625 
Q 12.796875 0.140625 7.71875 1.703125 
L 7.71875 11.625 
Q 12.109375 9.234375 16.796875 8.0625 
Q 21.484375 6.890625 26.703125 6.890625 
Q 35.15625 6.890625 40.078125 11.328125 
Q 45.015625 15.765625 45.015625 23.390625 
Q 45.015625 31 40.078125 35.4375 
Q 35.15625 39.890625 26.703125 39.890625 
Q 22.75 39.890625 18.8125 39.015625 
Q 14.890625 38.140625 10.796875 36.28125 
z
" id="DejaVuSans-53"/>
       </defs>
       <use xlink:href="#DejaVuSans-50"/>
       <use x="63.623047" xlink:href="#DejaVuSans-53"/>
      </g>
     </g>
    </g>
    <g id="xtick_3">
     <g id="line2d_5">
      <path clip-path="url(#pb8ddd535fc)" d="M 242.181818 630 
L 242.181818 86.4 
" style="fill:none;stroke:#b0b0b0;stroke-linecap:square;stroke-width:0.8;"/>
     </g>
     <g id="line2d_6">
      <g>
       <use style="stroke:#000000;stroke-width:0.8;" x="242.181818" xlink:href="#m2271b41c03" y="630"/>
      </g>
     </g>
     <g id="text_3">
      <!-- 50 -->
      <g transform="translate(235.819318 644.598438)scale(0.1 -0.1)">
       <use xlink:href="#DejaVuSans-53"/>
       <use x="63.623047" xlink:href="#DejaVuSans-48"/>
      </g>
     </g>
    </g>
    <g id="xtick_4">
     <g id="line2d_7">
      <path clip-path="url(#pb8ddd535fc)" d="M 305.590909 630 
L 305.590909 86.4 
" style="fill:none;stroke:#b0b0b0;stroke-linecap:square;stroke-width:0.8;"/>
     </g>
     <g id="line2d_8">
      <g>
       <use style="stroke:#000000;stroke-width:0.8;" x="305.590909" xlink:href="#m2271b41c03" y="630"/>
      </g>
     </g>
     <g id="text_4">
      <!-- 75 -->
      <g transform="translate(299.228409 644.598438)scale(0.1 -0.1)">
       <defs>
        <path d="M 8.203125 72.90625 
L 55.078125 72.90625 
L 55.078125 68.703125 
L 28.609375 0 
L 18.3125 0 
L 43.21875 64.59375 
L 8.203125 64.59375 
z
" id="DejaVuSans-55"/>
       </defs>
       <use xlink:href="#DejaVuSans-55"/>
       <use x="63.623047" xlink:href="#DejaVuSans-53"/>
      </g>
     </g>
    </g>
    <g id="xtick_5">
     <g id="line2d_9">
      <path clip-path="url(#pb8ddd535fc)" d="M 369 630 
L 369 86.4 
" style="fill:none;stroke:#b0b0b0;stroke-linecap:square;stroke-width:0.8;"/>
     </g>
     <g id="line2d_10">
      <g>
       <use style="stroke:#000000;stroke-width:0.8;" x="369" xlink:href="#m2271b41c03" y="630"/>
      </g>
     </g>
     <g id="text_5">
      <!-- 100 -->
      <g transform="translate(359.45625 644.598438)scale(0.1 -0.1)">
       <defs>
        <path d="M 12.40625 8.296875 
L 28.515625 8.296875 
L 28.515625 63.921875 
L 10.984375 60.40625 
L 10.984375 69.390625 
L 28.421875 72.90625 
L 38.28125 72.90625 
L 38.28125 8.296875 
L 54.390625 8.296875 
L 54.390625 0 
L 12.40625 0 
z
" id="DejaVuSans-49"/>
       </defs>
       <use xlink:href="#DejaVuSans-49"/>
       <use x="63.623047" xlink:href="#DejaVuSans-48"/>
       <use x="127.246094" xlink:href="#DejaVuSans-48"/>
      </g>
     </g>
    </g>
    <g id="xtick_6">
     <g id="line2d_11">
      <path clip-path="url(#pb8ddd535fc)" d="M 432.409091 630 
L 432.409091 86.4 
" style="fill:none;stroke:#b0b0b0;stroke-linecap:square;stroke-width:0.8;"/>
     </g>
     <g id="line2d_12">
      <g>
       <use style="stroke:#000000;stroke-width:0.8;" x="432.409091" xlink:href="#m2271b41c03" y="630"/>
      </g>
     </g>
     <g id="text_6">
      <!-- 125 -->
      <g transform="translate(422.865341 644.598438)scale(0.1 -0.1)">
       <use xlink:href="#DejaVuSans-49"/>
       <use x="63.623047" xlink:href="#DejaVuSans-50"/>
       <use x="127.246094" xlink:href="#DejaVuSans-53"/>
      </g>
     </g>
    </g>
    <g id="xtick_7">
     <g id="line2d_13">
      <path clip-path="url(#pb8ddd535fc)" d="M 495.818182 630 
L 495.818182 86.4 
" style="fill:none;stroke:#b0b0b0;stroke-linecap:square;stroke-width:0.8;"/>
     </g>
     <g id="line2d_14">
      <g>
       <use style="stroke:#000000;stroke-width:0.8;" x="495.818182" xlink:href="#m2271b41c03" y="630"/>
      </g>
     </g>
     <g id="text_7">
      <!-- 150 -->
      <g transform="translate(486.274432 644.598438)scale(0.1 -0.1)">
       <use xlink:href="#DejaVuSans-49"/>
       <use x="63.623047" xlink:href="#DejaVuSans-53"/>
       <use x="127.246094" xlink:href="#DejaVuSans-48"/>
      </g>
     </g>
    </g>
    <g id="xtick_8">
     <g id="line2d_15">
      <path clip-path="url(#pb8ddd535fc)" d="M 559.227273 630 
L 559.227273 86.4 
" style="fill:none;stroke:#b0b0b0;stroke-linecap:square;stroke-width:0.8;"/>
     </g>
     <g id="line2d_16">
      <g>
       <use style="stroke:#000000;stroke-width:0.8;" x="559.227273" xlink:href="#m2271b41c03" y="630"/>
      </g>
     </g>
     <g id="text_8">
      <!-- 175 -->
      <g transform="translate(549.683523 644.598438)scale(0.1 -0.1)">
       <use xlink:href="#DejaVuSans-49"/>
       <use x="63.623047" xlink:href="#DejaVuSans-55"/>
       <use x="127.246094" xlink:href="#DejaVuSans-53"/>
      </g>
     </g>
    </g>
    <g id="xtick_9">
     <g id="line2d_17">
      <path clip-path="url(#pb8ddd535fc)" d="M 622.636364 630 
L 622.636364 86.4 
" style="fill:none;stroke:#b0b0b0;stroke-linecap:square;stroke-width:0.8;"/>
     </g>
     <g id="line2d_18">
      <g>
       <use style="stroke:#000000;stroke-width:0.8;" x="622.636364" xlink:href="#m2271b41c03" y="630"/>
      </g>
     </g>
     <g id="text_9">
      <!-- 200 -->
      <g transform="translate(613.092614 644.598438)scale(0.1 -0.1)">
       <use xlink:href="#DejaVuSans-50"/>
       <use x="63.623047" xlink:href="#DejaVuSans-48"/>
       <use x="127.246094" xlink:href="#DejaVuSans-48"/>
      </g>
     </g>
    </g>
    <g id="text_10">
     <!-- Days -->
     <g transform="translate(356.521875 658.276562)scale(0.1 -0.1)">
      <defs>
       <path d="M 19.671875 64.796875 
L 19.671875 8.109375 
L 31.59375 8.109375 
Q 46.6875 8.109375 53.6875 14.9375 
Q 60.6875 21.78125 60.6875 36.53125 
Q 60.6875 51.171875 53.6875 57.984375 
Q 46.6875 64.796875 31.59375 64.796875 
z
M 9.8125 72.90625 
L 30.078125 72.90625 
Q 51.265625 72.90625 61.171875 64.09375 
Q 71.09375 55.28125 71.09375 36.53125 
Q 71.09375 17.671875 61.125 8.828125 
Q 51.171875 0 30.078125 0 
L 9.8125 0 
z
" id="DejaVuSans-68"/>
       <path d="M 34.28125 27.484375 
Q 23.390625 27.484375 19.1875 25 
Q 14.984375 22.515625 14.984375 16.5 
Q 14.984375 11.71875 18.140625 8.90625 
Q 21.296875 6.109375 26.703125 6.109375 
Q 34.1875 6.109375 38.703125 11.40625 
Q 43.21875 16.703125 43.21875 25.484375 
L 43.21875 27.484375 
z
M 52.203125 31.203125 
L 52.203125 0 
L 43.21875 0 
L 43.21875 8.296875 
Q 40.140625 3.328125 35.546875 0.953125 
Q 30.953125 -1.421875 24.3125 -1.421875 
Q 15.921875 -1.421875 10.953125 3.296875 
Q 6 8.015625 6 15.921875 
Q 6 25.140625 12.171875 29.828125 
Q 18.359375 34.515625 30.609375 34.515625 
L 43.21875 34.515625 
L 43.21875 35.40625 
Q 43.21875 41.609375 39.140625 45 
Q 35.0625 48.390625 27.6875 48.390625 
Q 23 48.390625 18.546875 47.265625 
Q 14.109375 46.140625 10.015625 43.890625 
L 10.015625 52.203125 
Q 14.9375 54.109375 19.578125 55.046875 
Q 24.21875 56 28.609375 56 
Q 40.484375 56 46.34375 49.84375 
Q 52.203125 43.703125 52.203125 31.203125 
z
" id="DejaVuSans-97"/>
       <path d="M 32.171875 -5.078125 
Q 28.375 -14.84375 24.75 -17.8125 
Q 21.140625 -20.796875 15.09375 -20.796875 
L 7.90625 -20.796875 
L 7.90625 -13.28125 
L 13.1875 -13.28125 
Q 16.890625 -13.28125 18.9375 -11.515625 
Q 21 -9.765625 23.484375 -3.21875 
L 25.09375 0.875 
L 2.984375 54.6875 
L 12.5 54.6875 
L 29.59375 11.921875 
L 46.6875 54.6875 
L 56.203125 54.6875 
z
" id="DejaVuSans-121"/>
       <path d="M 44.28125 53.078125 
L 44.28125 44.578125 
Q 40.484375 46.53125 36.375 47.5 
Q 32.28125 48.484375 27.875 48.484375 
Q 21.1875 48.484375 17.84375 46.4375 
Q 14.5 44.390625 14.5 40.28125 
Q 14.5 37.15625 16.890625 35.375 
Q 19.28125 33.59375 26.515625 31.984375 
L 29.59375 31.296875 
Q 39.15625 29.25 43.1875 25.515625 
Q 47.21875 21.78125 47.21875 15.09375 
Q 47.21875 7.46875 41.1875 3.015625 
Q 35.15625 -1.421875 24.609375 -1.421875 
Q 20.21875 -1.421875 15.453125 -0.5625 
Q 10.6875 0.296875 5.421875 2 
L 5.421875 11.28125 
Q 10.40625 8.6875 15.234375 7.390625 
Q 20.0625 6.109375 24.8125 6.109375 
Q 31.15625 6.109375 34.5625 8.28125 
Q 37.984375 10.453125 37.984375 14.40625 
Q 37.984375 18.0625 35.515625 20.015625 
Q 33.0625 21.96875 24.703125 23.78125 
L 21.578125 24.515625 
Q 13.234375 26.265625 9.515625 29.90625 
Q 5.8125 33.546875 5.8125 39.890625 
Q 5.8125 47.609375 11.28125 51.796875 
Q 16.75 56 26.8125 56 
Q 31.78125 56 36.171875 55.265625 
Q 40.578125 54.546875 44.28125 53.078125 
z
" id="DejaVuSans-115"/>
      </defs>
      <use xlink:href="#DejaVuSans-68"/>
      <use x="77.001953" xlink:href="#DejaVuSans-97"/>
      <use x="138.28125" xlink:href="#DejaVuSans-121"/>
      <use x="197.460938" xlink:href="#DejaVuSans-115"/>
     </g>
    </g>
   </g>
   <g id="matplotlib.axis_2">
    <g id="ytick_1">
     <g id="line2d_19">
      <path clip-path="url(#pb8ddd535fc)" d="M 90 605.598133 
L 648 605.598133 
" style="fill:none;stroke:#b0b0b0;stroke-linecap:square;stroke-width:0.8;"/>
     </g>
     <g id="line2d_20">
      <defs>
       <path d="M 0 0 
L -3.5 0 
" id="m0597055b12" style="stroke:#000000;stroke-width:0.8;"/>
      </defs>
      <g>
       <use style="stroke:#000000;stroke-width:0.8;" x="90" xlink:href="#m0597055b12" y="605.598133"/>
      </g>
     </g>
     <g id="text_11">
      <!-- 0 -->
      <g transform="translate(76.6375 609.397352)scale(0.1 -0.1)">
       <use xlink:href="#DejaVuSans-48"/>
      </g>
     </g>
    </g>
    <g id="ytick_2">
     <g id="line2d_21">
      <path clip-path="url(#pb8ddd535fc)" d="M 90 487.435009 
L 648 487.435009 
" style="fill:none;stroke:#b0b0b0;stroke-linecap:square;stroke-width:0.8;"/>
     </g>
     <g id="line2d_22">
      <g>
       <use style="stroke:#000000;stroke-width:0.8;" x="90" xlink:href="#m0597055b12" y="487.435009"/>
      </g>
     </g>
     <g id="text_12">
      <!-- 5000 -->
      <g transform="translate(57.55 491.234228)scale(0.1 -0.1)">
       <use xlink:href="#DejaVuSans-53"/>
       <use x="63.623047" xlink:href="#DejaVuSans-48"/>
       <use x="127.246094" xlink:href="#DejaVuSans-48"/>
       <use x="190.869141" xlink:href="#DejaVuSans-48"/>
      </g>
     </g>
    </g>
    <g id="ytick_3">
     <g id="line2d_23">
      <path clip-path="url(#pb8ddd535fc)" d="M 90 369.271885 
L 648 369.271885 
" style="fill:none;stroke:#b0b0b0;stroke-linecap:square;stroke-width:0.8;"/>
     </g>
     <g id="line2d_24">
      <g>
       <use style="stroke:#000000;stroke-width:0.8;" x="90" xlink:href="#m0597055b12" y="369.271885"/>
      </g>
     </g>
     <g id="text_13">
      <!-- 10000 -->
      <g transform="translate(51.1875 373.071103)scale(0.1 -0.1)">
       <use xlink:href="#DejaVuSans-49"/>
       <use x="63.623047" xlink:href="#DejaVuSans-48"/>
       <use x="127.246094" xlink:href="#DejaVuSans-48"/>
       <use x="190.869141" xlink:href="#DejaVuSans-48"/>
       <use x="254.492188" xlink:href="#DejaVuSans-48"/>
      </g>
     </g>
    </g>
    <g id="ytick_4">
     <g id="line2d_25">
      <path clip-path="url(#pb8ddd535fc)" d="M 90 251.108761 
L 648 251.108761 
" style="fill:none;stroke:#b0b0b0;stroke-linecap:square;stroke-width:0.8;"/>
     </g>
     <g id="line2d_26">
      <g>
       <use style="stroke:#000000;stroke-width:0.8;" x="90" xlink:href="#m0597055b12" y="251.108761"/>
      </g>
     </g>
     <g id="text_14">
      <!-- 15000 -->
      <g transform="translate(51.1875 254.907979)scale(0.1 -0.1)">
       <use xlink:href="#DejaVuSans-49"/>
       <use x="63.623047" xlink:href="#DejaVuSans-53"/>
       <use x="127.246094" xlink:href="#DejaVuSans-48"/>
       <use x="190.869141" xlink:href="#DejaVuSans-48"/>
       <use x="254.492188" xlink:href="#DejaVuSans-48"/>
      </g>
     </g>
    </g>
    <g id="ytick_5">
     <g id="line2d_27">
      <path clip-path="url(#pb8ddd535fc)" d="M 90 132.945636 
L 648 132.945636 
" style="fill:none;stroke:#b0b0b0;stroke-linecap:square;stroke-width:0.8;"/>
     </g>
     <g id="line2d_28">
      <g>
       <use style="stroke:#000000;stroke-width:0.8;" x="90" xlink:href="#m0597055b12" y="132.945636"/>
      </g>
     </g>
     <g id="text_15">
      <!-- 20000 -->
      <g transform="translate(51.1875 136.744855)scale(0.1 -0.1)">
       <use xlink:href="#DejaVuSans-50"/>
       <use x="63.623047" xlink:href="#DejaVuSans-48"/>
       <use x="127.246094" xlink:href="#DejaVuSans-48"/>
       <use x="190.869141" xlink:href="#DejaVuSans-48"/>
       <use x="254.492188" xlink:href="#DejaVuSans-48"/>
      </g>
     </g>
    </g>
    <g id="text_16">
     <!-- Cumulative cases -->
     <g transform="translate(45.107812 402.425781)rotate(-90)scale(0.1 -0.1)">
      <defs>
       <path d="M 64.40625 67.28125 
L 64.40625 56.890625 
Q 59.421875 61.53125 53.78125 63.8125 
Q 48.140625 66.109375 41.796875 66.109375 
Q 29.296875 66.109375 22.65625 58.46875 
Q 16.015625 50.828125 16.015625 36.375 
Q 16.015625 21.96875 22.65625 14.328125 
Q 29.296875 6.6875 41.796875 6.6875 
Q 48.140625 6.6875 53.78125 8.984375 
Q 59.421875 11.28125 64.40625 15.921875 
L 64.40625 5.609375 
Q 59.234375 2.09375 53.4375 0.328125 
Q 47.65625 -1.421875 41.21875 -1.421875 
Q 24.65625 -1.421875 15.125 8.703125 
Q 5.609375 18.84375 5.609375 36.375 
Q 5.609375 53.953125 15.125 64.078125 
Q 24.65625 74.21875 41.21875 74.21875 
Q 47.75 74.21875 53.53125 72.484375 
Q 59.328125 70.75 64.40625 67.28125 
z
" id="DejaVuSans-67"/>
       <path d="M 8.5 21.578125 
L 8.5 54.6875 
L 17.484375 54.6875 
L 17.484375 21.921875 
Q 17.484375 14.15625 20.5 10.265625 
Q 23.53125 6.390625 29.59375 6.390625 
Q 36.859375 6.390625 41.078125 11.03125 
Q 45.3125 15.671875 45.3125 23.6875 
L 45.3125 54.6875 
L 54.296875 54.6875 
L 54.296875 0 
L 45.3125 0 
L 45.3125 8.40625 
Q 42.046875 3.421875 37.71875 1 
Q 33.40625 -1.421875 27.6875 -1.421875 
Q 18.265625 -1.421875 13.375 4.4375 
Q 8.5 10.296875 8.5 21.578125 
z
M 31.109375 56 
z
" id="DejaVuSans-117"/>
       <path d="M 52 44.1875 
Q 55.375 50.25 60.0625 53.125 
Q 64.75 56 71.09375 56 
Q 79.640625 56 84.28125 50.015625 
Q 88.921875 44.046875 88.921875 33.015625 
L 88.921875 0 
L 79.890625 0 
L 79.890625 32.71875 
Q 79.890625 40.578125 77.09375 44.375 
Q 74.3125 48.1875 68.609375 48.1875 
Q 61.625 48.1875 57.5625 43.546875 
Q 53.515625 38.921875 53.515625 30.90625 
L 53.515625 0 
L 44.484375 0 
L 44.484375 32.71875 
Q 44.484375 40.625 41.703125 44.40625 
Q 38.921875 48.1875 33.109375 48.1875 
Q 26.21875 48.1875 22.15625 43.53125 
Q 18.109375 38.875 18.109375 30.90625 
L 18.109375 0 
L 9.078125 0 
L 9.078125 54.6875 
L 18.109375 54.6875 
L 18.109375 46.1875 
Q 21.1875 51.21875 25.484375 53.609375 
Q 29.78125 56 35.6875 56 
Q 41.65625 56 45.828125 52.96875 
Q 50 49.953125 52 44.1875 
z
" id="DejaVuSans-109"/>
       <path d="M 9.421875 75.984375 
L 18.40625 75.984375 
L 18.40625 0 
L 9.421875 0 
z
" id="DejaVuSans-108"/>
       <path d="M 18.3125 70.21875 
L 18.3125 54.6875 
L 36.8125 54.6875 
L 36.8125 47.703125 
L 18.3125 47.703125 
L 18.3125 18.015625 
Q 18.3125 11.328125 20.140625 9.421875 
Q 21.96875 7.515625 27.59375 7.515625 
L 36.8125 7.515625 
L 36.8125 0 
L 27.59375 0 
Q 17.1875 0 13.234375 3.875 
Q 9.28125 7.765625 9.28125 18.015625 
L 9.28125 47.703125 
L 2.6875 47.703125 
L 2.6875 54.6875 
L 9.28125 54.6875 
L 9.28125 70.21875 
z
" id="DejaVuSans-116"/>
       <path d="M 9.421875 54.6875 
L 18.40625 54.6875 
L 18.40625 0 
L 9.421875 0 
z
M 9.421875 75.984375 
L 18.40625 75.984375 
L 18.40625 64.59375 
L 9.421875 64.59375 
z
" id="DejaVuSans-105"/>
       <path d="M 2.984375 54.6875 
L 12.5 54.6875 
L 29.59375 8.796875 
L 46.6875 54.6875 
L 56.203125 54.6875 
L 35.6875 0 
L 23.484375 0 
z
" id="DejaVuSans-118"/>
       <path d="M 56.203125 29.59375 
L 56.203125 25.203125 
L 14.890625 25.203125 
Q 15.484375 15.921875 20.484375 11.0625 
Q 25.484375 6.203125 34.421875 6.203125 
Q 39.59375 6.203125 44.453125 7.46875 
Q 49.3125 8.734375 54.109375 11.28125 
L 54.109375 2.78125 
Q 49.265625 0.734375 44.1875 -0.34375 
Q 39.109375 -1.421875 33.890625 -1.421875 
Q 20.796875 -1.421875 13.15625 6.1875 
Q 5.515625 13.8125 5.515625 26.8125 
Q 5.515625 40.234375 12.765625 48.109375 
Q 20.015625 56 32.328125 56 
Q 43.359375 56 49.78125 48.890625 
Q 56.203125 41.796875 56.203125 29.59375 
z
M 47.21875 32.234375 
Q 47.125 39.59375 43.09375 43.984375 
Q 39.0625 48.390625 32.421875 48.390625 
Q 24.90625 48.390625 20.390625 44.140625 
Q 15.875 39.890625 15.1875 32.171875 
z
" id="DejaVuSans-101"/>
       <path id="DejaVuSans-32"/>
       <path d="M 48.78125 52.59375 
L 48.78125 44.1875 
Q 44.96875 46.296875 41.140625 47.34375 
Q 37.3125 48.390625 33.40625 48.390625 
Q 24.65625 48.390625 19.8125 42.84375 
Q 14.984375 37.3125 14.984375 27.296875 
Q 14.984375 17.28125 19.8125 11.734375 
Q 24.65625 6.203125 33.40625 6.203125 
Q 37.3125 6.203125 41.140625 7.25 
Q 44.96875 8.296875 48.78125 10.40625 
L 48.78125 2.09375 
Q 45.015625 0.34375 40.984375 -0.53125 
Q 36.96875 -1.421875 32.421875 -1.421875 
Q 20.0625 -1.421875 12.78125 6.34375 
Q 5.515625 14.109375 5.515625 27.296875 
Q 5.515625 40.671875 12.859375 48.328125 
Q 20.21875 56 33.015625 56 
Q 37.15625 56 41.109375 55.140625 
Q 45.0625 54.296875 48.78125 52.59375 
z
" id="DejaVuSans-99"/>
      </defs>
      <use xlink:href="#DejaVuSans-67"/>
      <use x="69.824219" xlink:href="#DejaVuSans-117"/>
      <use x="133.203125" xlink:href="#DejaVuSans-109"/>
      <use x="230.615234" xlink:href="#DejaVuSans-117"/>
      <use x="293.994141" xlink:href="#DejaVuSans-108"/>
      <use x="321.777344" xlink:href="#DejaVuSans-97"/>
      <use x="383.056641" xlink:href="#DejaVuSans-116"/>
      <use x="422.265625" xlink:href="#DejaVuSans-105"/>
      <use x="450.048828" xlink:href="#DejaVuSans-118"/>
      <use x="509.228516" xlink:href="#DejaVuSans-101"/>
      <use x="570.751953" xlink:href="#DejaVuSans-32"/>
      <use x="602.539062" xlink:href="#DejaVuSans-99"/>
      <use x="657.519531" xlink:href="#DejaVuSans-97"/>
      <use x="718.798828" xlink:href="#DejaVuSans-115"/>
      <use x="770.898438" xlink:href="#DejaVuSans-101"/>
      <use x="832.421875" xlink:href="#DejaVuSans-115"/>
     </g>
    </g>
   </g>
   <g id="line2d_29">
    <path clip-path="url(#pb8ddd535fc)" d="M 115.363636 605.290909 
L 138.190909 604.955797 
L 153.409091 604.5483 
L 166.090909 604.017863 
L 176.236364 603.40716 
L 186.381818 602.562064 
L 193.990909 601.722309 
L 201.6 600.652883 
L 209.209091 599.292594 
L 214.281818 598.1871 
L 219.354545 596.891634 
L 224.427273 595.375006 
L 229.5 593.601452 
L 234.572727 591.530167 
L 239.645455 589.114875 
L 244.718182 586.303468 
L 249.790909 583.037783 
L 252.327273 581.214739 
L 254.863636 579.253565 
L 257.4 577.145319 
L 259.936364 574.880734 
L 262.472727 572.450248 
L 265.009091 569.844044 
L 267.545455 567.052104 
L 270.081818 564.064267 
L 272.618182 560.870312 
L 275.154545 557.460037 
L 277.690909 553.823368 
L 280.227273 549.950474 
L 282.763636 545.831894 
L 285.3 541.45869 
L 287.836364 536.822602 
L 290.372727 531.91622 
L 292.909091 526.733168 
L 295.445455 521.268298 
L 297.981818 515.517882 
L 300.518182 509.479812 
L 305.590909 496.541527 
L 310.663636 482.476052 
L 315.736364 467.342799 
L 320.809091 451.241142 
L 325.881818 434.310968 
L 333.490909 407.760046 
L 353.781818 335.574051 
L 358.854545 318.484603 
L 363.927273 302.187743 
L 369 286.832017 
L 374.072727 272.525745 
L 379.145455 259.336921 
L 384.218182 247.295853 
L 386.754545 241.706011 
L 389.290909 236.399811 
L 391.827273 231.372703 
L 394.363636 226.618825 
L 396.9 222.131199 
L 399.436364 217.901918 
L 401.972727 213.922317 
L 404.509091 210.18315 
L 407.045455 206.674729 
L 409.581818 203.387071 
L 412.118182 200.310019 
L 414.654545 197.433347 
L 417.190909 194.746858 
L 419.727273 192.240463 
L 422.263636 189.90425 
L 424.8 187.728538 
L 429.872727 183.821331 
L 434.945455 180.447554 
L 440.018182 177.54164 
L 445.090909 175.044083 
L 450.163636 172.901459 
L 455.236364 171.06624 
L 460.309091 169.496455 
L 465.381818 168.155274 
L 470.454545 167.010541 
L 475.527273 166.03431 
L 483.136364 164.833878 
L 490.745455 163.890748 
L 498.354545 163.150547 
L 508.5 162.405977 
L 521.181818 161.758901 
L 536.4 161.261566 
L 554.154545 160.919254 
L 579.518182 160.671946 
L 620.1 160.529638 
L 622.636364 160.52551 
L 622.636364 160.52551 
" style="fill:none;stroke:#1f77b4;stroke-linecap:square;stroke-width:1.5;"/>
   </g>
   <g id="line2d_30">
    <path clip-path="url(#pb8ddd535fc)" d="M 115.363636 605.290909 
L 125.509091 603.487888 
L 133.118182 601.92937 
L 140.727273 600.170037 
L 148.336364 598.185834 
L 155.945455 595.95033 
L 163.554545 593.434628 
L 171.163636 590.607315 
L 176.236364 588.53267 
L 181.309091 586.293846 
L 186.381818 583.879725 
L 191.454545 581.27876 
L 196.527273 578.479015 
L 201.6 575.468222 
L 206.672727 572.233848 
L 211.745455 568.763186 
L 216.818182 565.043449 
L 221.890909 561.061899 
L 226.963636 556.805986 
L 232.036364 552.263509 
L 237.109091 547.4228 
L 242.181818 542.272923 
L 247.254545 536.803902 
L 252.327273 531.006954 
L 257.4 524.874745 
L 262.472727 518.401654 
L 267.545455 511.584038 
L 272.618182 504.420497 
L 277.690909 496.912134 
L 282.763636 489.062792 
L 287.836364 480.879264 
L 292.909091 472.37147 
L 297.981818 463.552583 
L 305.590909 449.777961 
L 313.2 435.410973 
L 320.809091 420.537485 
L 330.954545 400.093905 
L 343.636364 373.942133 
L 361.390909 337.261722 
L 371.536364 316.816408 
L 379.145455 301.941121 
L 386.754545 287.571969 
L 394.363636 273.794876 
L 399.436364 264.974205 
L 404.509091 256.464539 
L 409.581818 248.279071 
L 414.654545 240.42774 
L 419.727273 232.917357 
L 424.8 225.751781 
L 429.872727 218.932131 
L 434.945455 212.457022 
L 440.018182 206.322823 
L 445.090909 200.523922 
L 450.163636 195.052996 
L 455.236364 189.901269 
L 460.309091 185.058772 
L 465.381818 180.514574 
L 470.454545 176.25701 
L 475.527273 172.273883 
L 480.6 168.552643 
L 485.672727 165.080552 
L 490.745455 161.844826 
L 495.818182 158.832754 
L 500.890909 156.031803 
L 505.963636 153.429704 
L 511.036364 151.014518 
L 516.109091 148.774696 
L 523.718182 145.719568 
L 531.327273 142.998528 
L 538.936364 140.578473 
L 546.545455 138.42882 
L 554.154545 136.521492 
L 561.763636 134.830854 
L 569.372727 133.333605 
L 579.518182 131.601955 
L 589.663636 130.132523 
L 599.809091 128.886876 
L 612.490909 127.594441 
L 622.636364 126.738079 
L 622.636364 126.738079 
" style="fill:none;stroke:#ff7f0e;stroke-linecap:square;stroke-width:1.5;"/>
   </g>
   <g id="line2d_31">
    <path clip-path="url(#pb8ddd535fc)" d="M 115.363636 605.290909 
L 128.045455 604.307959 
L 138.190909 603.301207 
L 148.336364 602.047302 
L 155.945455 600.909842 
L 163.554545 599.571228 
L 171.163636 597.997492 
L 178.772727 596.149557 
L 186.381818 593.982702 
L 191.454545 592.336107 
L 196.527273 590.508638 
L 201.6 588.4823 
L 206.672727 586.237752 
L 211.745455 583.754313 
L 216.818182 581.009999 
L 221.890909 577.9816 
L 226.963636 574.644799 
L 232.036364 570.974357 
L 237.109091 566.944352 
L 242.181818 562.528494 
L 247.254545 557.70053 
L 252.327273 552.434727 
L 257.4 546.706446 
L 262.472727 540.49282 
L 267.545455 533.773499 
L 272.618182 526.53148 
L 277.690909 518.753988 
L 282.763636 510.43338 
L 287.836364 501.568033 
L 292.909091 492.163189 
L 297.981818 482.231676 
L 303.054545 471.794484 
L 308.127273 460.881113 
L 313.2 449.529674 
L 320.809091 431.785039 
L 328.418182 413.350487 
L 338.563636 388.084484 
L 356.318182 343.631065 
L 363.927273 325.129626 
L 371.536364 307.281667 
L 376.609091 295.838062 
L 381.681818 284.811916 
L 386.754545 274.23997 
L 391.827273 264.150802 
L 396.9 254.565011 
L 401.972727 245.495616 
L 407.045455 236.948629 
L 412.118182 228.923748 
L 417.190909 221.415129 
L 422.263636 214.412194 
L 427.336364 207.900434 
L 432.409091 201.862187 
L 437.481818 196.277369 
L 442.554545 191.124132 
L 447.627273 186.379459 
L 452.7 182.019674 
L 457.772727 178.020881 
L 462.845455 174.359327 
L 467.918182 171.011698 
L 472.990909 167.955348 
L 478.063636 165.16848 
L 483.136364 162.630273 
L 488.209091 160.320975 
L 493.281818 158.221948 
L 498.354545 156.315703 
L 503.427273 154.585897 
L 511.036364 152.28904 
L 518.645455 150.308478 
L 526.254545 148.602747 
L 533.863636 147.135257 
L 541.472727 145.873877 
L 551.618182 144.464603 
L 561.763636 143.315365 
L 571.909091 142.379068 
L 584.590909 141.449607 
L 597.272727 140.731552 
L 612.490909 140.082591 
L 622.636364 139.74955 
L 622.636364 139.74955 
" style="fill:none;stroke:#2ca02c;stroke-linecap:square;stroke-width:1.5;"/>
   </g>
   <g id="line2d_32">
    <path clip-path="url(#pb8ddd535fc)" d="M 115.363636 605.290909 
L 122.972727 604.488294 
L 130.581818 603.506044 
L 138.190909 602.319932 
L 145.8 600.902882 
L 153.409091 599.224776 
L 161.018182 597.252286 
L 166.090909 595.755788 
L 171.163636 594.10055 
L 176.236364 592.274226 
L 181.309091 590.263834 
L 186.381818 588.055782 
L 191.454545 585.635919 
L 196.527273 582.989598 
L 201.6 580.101765 
L 206.672727 576.957072 
L 211.745455 573.540006 
L 216.818182 569.835063 
L 221.890909 565.826939 
L 226.963636 561.500754 
L 232.036364 556.842314 
L 237.109091 551.838394 
L 242.181818 546.477053 
L 247.254545 540.747973 
L 252.327273 534.642811 
L 257.4 528.155566 
L 262.472727 521.282935 
L 267.545455 514.024665 
L 272.618182 506.383875 
L 277.690909 498.367331 
L 282.763636 489.985667 
L 287.836364 481.253537 
L 292.909091 472.189672 
L 300.518182 458.022762 
L 308.127273 443.254661 
L 315.736364 427.995947 
L 325.881818 407.105089 
L 356.318182 343.779254 
L 363.927273 328.498402 
L 371.536364 313.668755 
L 379.145455 299.378974 
L 386.754545 285.699655 
L 391.827273 276.945869 
L 396.9 268.498241 
L 401.972727 260.36469 
L 407.045455 252.550101 
L 412.118182 245.056588 
L 417.190909 237.883776 
L 422.263636 231.029098 
L 427.336364 224.488085 
L 432.409091 218.254654 
L 437.481818 212.321382 
L 442.554545 206.679759 
L 447.627273 201.320427 
L 452.7 196.233385 
L 457.772727 191.408183 
L 462.845455 186.834081 
L 467.918182 182.500199 
L 472.990909 178.395631 
L 478.063636 174.509551 
L 483.136364 170.831295 
L 488.209091 167.350426 
L 493.281818 164.056795 
L 500.890909 159.446013 
L 508.5 155.202828 
L 516.109091 151.297508 
L 523.718182 147.702316 
L 531.327273 144.391506 
L 538.936364 141.341284 
L 546.545455 138.529734 
L 554.154545 135.936727 
L 561.763636 133.543812 
L 569.372727 131.334107 
L 579.518182 128.646352 
L 589.663636 126.224112 
L 599.809091 124.038255 
L 609.954545 122.063011 
L 622.636364 119.855661 
L 622.636364 119.855661 
" style="fill:none;stroke:#d62728;stroke-linecap:square;stroke-width:1.5;"/>
   </g>
   <g id="line2d_33">
    <path clip-path="url(#pb8ddd535fc)" d="M 115.363636 605.290909 
L 128.045455 605.139142 
L 143.263636 604.731703 
L 155.945455 604.153467 
L 166.090909 603.443172 
L 173.7 602.701386 
L 181.309091 601.716419 
L 186.381818 600.888075 
L 191.454545 599.891017 
L 196.527273 598.693296 
L 201.6 597.257976 
L 206.672727 595.542822 
L 211.745455 593.500177 
L 216.818182 591.077136 
L 221.890909 588.216145 
L 224.427273 586.60243 
L 226.963636 584.856147 
L 229.5 582.969414 
L 232.036364 580.9344 
L 234.572727 578.74342 
L 237.109091 576.389044 
L 239.645455 573.864221 
L 242.181818 571.162401 
L 244.718182 568.277671 
L 247.254545 565.204888 
L 249.790909 561.939814 
L 252.327273 558.47924 
L 254.863636 554.821108 
L 259.936364 546.910254 
L 265.009091 538.217038 
L 270.081818 528.77367 
L 275.154545 518.63428 
L 280.227273 507.872517 
L 285.3 496.577535 
L 292.909091 478.854636 
L 303.054545 454.314966 
L 320.809091 411.000255 
L 328.418182 392.947433 
L 336.027273 375.454084 
L 343.636364 358.6297 
L 351.245455 342.544625 
L 356.318182 332.252567 
L 361.390909 322.312901 
L 366.463636 312.727623 
L 371.536364 303.495721 
L 376.609091 294.613784 
L 381.681818 286.076517 
L 386.754545 277.877167 
L 391.827273 270.00787 
L 396.9 262.459937 
L 401.972727 255.224092 
L 407.045455 248.290656 
L 412.118182 241.649705 
L 417.190909 235.291188 
L 422.263636 229.205029 
L 427.336364 223.381201 
L 432.409091 217.809793 
L 437.481818 212.481053 
L 442.554545 207.385428 
L 447.627273 202.513589 
L 452.7 197.856457 
L 457.772727 193.405213 
L 465.381818 187.095768 
L 472.990909 181.202738 
L 480.6 175.699878 
L 488.209091 170.562362 
L 495.818182 165.766754 
L 503.427273 161.290969 
L 511.036364 157.11423 
L 518.645455 153.217011 
L 526.254545 149.580981 
L 533.863636 146.188949 
L 541.472727 143.024801 
L 549.081818 140.073444 
L 556.690909 137.32075 
L 564.3 134.753498 
L 574.445455 131.597708 
L 584.590909 128.722599 
L 594.736364 126.1034 
L 604.881818 123.717489 
L 615.027273 121.544215 
L 622.636364 120.042398 
L 622.636364 120.042398 
" style="fill:none;stroke:#9467bd;stroke-linecap:square;stroke-width:1.5;"/>
   </g>
   <g id="line2d_34">
    <path clip-path="url(#pb8ddd535fc)" d="M 115.363636 605.290909 
L 122.972727 605.148348 
L 130.581818 604.729381 
L 138.190909 604.037086 
L 145.8 603.063059 
L 153.409091 601.789119 
L 158.481818 600.760317 
L 163.554545 599.576615 
L 168.627273 598.226712 
L 173.7 596.697951 
L 178.772727 594.976399 
L 183.845455 593.046937 
L 188.918182 590.893359 
L 193.990909 588.498489 
L 199.063636 585.844332 
L 204.136364 582.912254 
L 209.209091 579.683199 
L 214.281818 576.137958 
L 219.354545 572.257476 
L 224.427273 568.023221 
L 229.5 563.417591 
L 234.572727 558.424374 
L 239.645455 553.02925 
L 244.718182 547.220315 
L 249.790909 540.988624 
L 254.863636 534.328725 
L 259.936364 527.239171 
L 265.009091 519.722963 
L 270.081818 511.787929 
L 275.154545 503.446977 
L 280.227273 494.718222 
L 285.3 485.624957 
L 290.372727 476.195453 
L 297.981818 461.49383 
L 305.590909 446.238149 
L 315.736364 425.283485 
L 348.709091 356.43105 
L 356.318182 341.185483 
L 363.927273 326.407315 
L 371.536364 312.168939 
L 379.145455 298.523821 
L 386.754545 285.508067 
L 391.827273 277.191396 
L 396.9 269.166863 
L 401.972727 261.435121 
L 407.045455 253.994894 
L 412.118182 246.843269 
L 417.190909 239.975963 
L 422.263636 233.387569 
L 427.336364 227.071776 
L 432.409091 221.021568 
L 437.481818 215.229387 
L 442.554545 209.687285 
L 447.627273 204.387049 
L 452.7 199.320304 
L 457.772727 194.478607 
L 462.845455 189.853514 
L 467.918182 185.436645 
L 472.990909 181.219732 
L 480.6 175.251566 
L 488.209091 169.688451 
L 495.818182 164.504835 
L 503.427273 159.676337 
L 511.036364 155.179802 
L 518.645455 150.993325 
L 526.254545 147.096246 
L 533.863636 143.469124 
L 541.472727 140.093705 
L 549.081818 136.952873 
L 556.690909 134.030604 
L 564.3 131.311912 
L 571.909091 128.782792 
L 582.054545 125.683048 
L 592.2 122.868571 
L 602.345455 120.313301 
L 612.490909 117.993511 
L 622.636364 115.88761 
L 622.636364 115.88761 
" style="fill:none;stroke:#8c564b;stroke-linecap:square;stroke-width:1.5;"/>
   </g>
   <g id="line2d_35">
    <path clip-path="url(#pb8ddd535fc)" d="M 115.363636 605.290909 
L 125.509091 605.161995 
L 138.190909 604.789887 
L 150.872727 604.188872 
L 161.018182 603.470197 
L 168.627273 602.735775 
L 176.236364 601.778576 
L 183.845455 600.534228 
L 188.918182 599.505995 
L 193.990909 598.286059 
L 199.063636 596.841746 
L 204.136364 595.136044 
L 209.209091 593.127515 
L 214.281818 590.770418 
L 219.354545 588.015128 
L 224.427273 584.808939 
L 229.5 581.097343 
L 232.036364 579.034922 
L 234.572727 576.82583 
L 237.109091 574.463641 
L 239.645455 571.942252 
L 242.181818 569.255985 
L 244.718182 566.399686 
L 247.254545 563.368833 
L 249.790909 560.159642 
L 254.863636 553.195392 
L 259.936364 545.495039 
L 265.009091 537.063952 
L 270.081818 527.926169 
L 275.154545 518.124474 
L 280.227273 507.719042 
L 285.3 496.784746 
L 290.372727 485.407443 
L 297.981818 467.714036 
L 308.127273 443.444548 
L 323.345455 406.963509 
L 330.954545 389.185192 
L 338.563636 371.934915 
L 346.172727 355.321775 
L 353.781818 339.41798 
L 358.854545 329.231572 
L 363.927273 319.386543 
L 369 309.885887 
L 374.072727 300.729556 
L 379.145455 291.915051 
L 384.218182 283.437923 
L 389.290909 275.292188 
L 394.363636 267.470681 
L 399.436364 259.965342 
L 404.509091 252.767456 
L 409.581818 245.867847 
L 414.654545 239.257037 
L 419.727273 232.925371 
L 424.8 226.863125 
L 429.872727 221.060589 
L 434.945455 215.508126 
L 440.018182 210.196233 
L 445.090909 205.115576 
L 450.163636 200.257023 
L 455.236364 195.611669 
L 460.309091 191.17085 
L 467.918182 184.874805 
L 475.527273 178.992849 
L 483.136364 173.499082 
L 490.745455 168.36897 
L 498.354545 163.579328 
L 505.963636 159.108283 
L 513.572727 154.935241 
L 521.181818 151.04083 
L 528.790909 147.406854 
L 536.4 144.016235 
L 544.009091 140.852958 
L 551.618182 137.902014 
L 559.227273 135.149349 
L 566.836364 132.581806 
L 576.981818 129.425218 
L 587.127273 126.548942 
L 597.272727 123.928297 
L 607.418182 121.540734 
L 617.563636 119.365658 
L 622.636364 118.351861 
L 622.636364 118.351861 
" style="fill:none;stroke:#e377c2;stroke-linecap:square;stroke-width:1.5;"/>
   </g>
   <g id="line2d_36">
    <path clip-path="url(#pb8ddd535fc)" d="M 115.363636 605.290909 
L 122.972727 605.149293 
L 130.581818 604.734954 
L 138.190909 604.047853 
L 145.8 603.072518 
L 153.409091 601.782609 
L 158.481818 600.731141 
L 163.554545 599.512762 
L 168.627273 598.114446 
L 173.7 596.522158 
L 178.772727 594.720965 
L 183.845455 592.695155 
L 188.918182 590.42836 
L 193.990909 587.903707 
L 199.063636 585.103986 
L 204.136364 582.011856 
L 209.209091 578.610079 
L 214.281818 574.881794 
L 219.354545 570.810826 
L 224.427273 566.382029 
L 229.5 561.581657 
L 234.572727 556.397766 
L 239.645455 550.820621 
L 244.718182 544.843111 
L 249.790909 538.461147 
L 254.863636 531.674035 
L 259.936364 524.484795 
L 265.009091 516.900419 
L 270.081818 508.932045 
L 275.154545 500.595029 
L 280.227273 491.908914 
L 285.3 482.897279 
L 292.909091 468.830229 
L 300.518182 454.199166 
L 308.127273 439.123476 
L 318.272727 418.55303 
L 346.172727 361.593359 
L 356.318182 341.566288 
L 363.927273 327.010383 
L 371.536364 312.931383 
L 379.145455 299.384155 
L 386.754545 286.409502 
L 394.363636 274.035353 
L 399.436364 266.128106 
L 404.509091 258.497674 
L 409.581818 251.144702 
L 414.654545 244.068296 
L 419.727273 237.266222 
L 424.8 230.735081 
L 429.872727 224.47049 
L 434.945455 218.467236 
L 440.018182 212.719419 
L 445.090909 207.220584 
L 450.163636 201.963837 
L 455.236364 196.941948 
L 460.309091 192.147443 
L 465.381818 187.572682 
L 470.454545 183.209932 
L 475.527273 179.05142 
L 480.6 175.089392 
L 488.209091 169.497943 
L 495.818182 164.30574 
L 503.427273 159.487929 
L 511.036364 155.020513 
L 518.645455 150.880465 
L 526.254545 147.045803 
L 533.863636 143.495636 
L 541.472727 140.210184 
L 549.081818 137.170781 
L 556.690909 134.359857 
L 564.3 131.760917 
L 571.909091 129.35851 
L 579.518182 127.138182 
L 589.663636 124.437793 
L 599.809091 122.007743 
L 609.954545 119.821244 
L 620.1 117.853994 
L 622.636364 117.393814 
L 622.636364 117.393814 
" style="fill:none;stroke:#7f7f7f;stroke-linecap:square;stroke-width:1.5;"/>
   </g>
   <g id="line2d_37">
    <path clip-path="url(#pb8ddd535fc)" d="M 115.363636 605.290909 
L 122.972727 605.164942 
L 130.581818 604.793319 
L 138.190909 604.174396 
L 145.8 603.294296 
L 153.409091 602.129091 
L 161.018182 600.646203 
L 166.090909 599.461506 
L 171.163636 598.104125 
L 176.236364 596.559021 
L 181.309091 594.80992 
L 186.381818 592.839405 
L 191.454545 590.629034 
L 196.527273 588.15949 
L 201.6 585.41077 
L 206.672727 582.362417 
L 211.745455 578.993808 
L 216.818182 575.284494 
L 221.890909 571.214603 
L 226.963636 566.765294 
L 232.036364 561.919271 
L 237.109091 556.661331 
L 242.181818 550.978951 
L 247.254545 544.862875 
L 252.327273 538.30769 
L 257.4 531.312359 
L 262.472727 523.880676 
L 267.545455 516.02162 
L 272.618182 507.749564 
L 277.690909 499.08433 
L 282.763636 490.051063 
L 287.836364 480.679918 
L 295.445455 466.066607 
L 303.054545 450.904491 
L 313.2 430.087652 
L 346.172727 361.734071 
L 353.781818 346.580941 
L 361.390909 331.87148 
L 369 317.671802 
L 376.609091 304.030509 
L 384.218182 290.980469 
L 391.827273 278.540938 
L 399.436364 266.719771 
L 404.509091 259.182159 
L 409.581818 251.916612 
L 414.654545 244.919637 
L 419.727273 238.186745 
L 424.8 231.712638 
L 429.872727 225.491375 
L 434.945455 219.516516 
L 440.018182 213.781246 
L 445.090909 208.27848 
L 450.163636 203.000953 
L 455.236364 197.941298 
L 462.845455 190.744132 
L 470.454545 183.995635 
L 478.063636 177.671299 
L 485.672727 171.747229 
L 493.281818 166.200301 
L 500.890909 161.008279 
L 508.5 156.149881 
L 516.109091 151.60482 
L 523.718182 147.353818 
L 531.327273 143.378606 
L 538.936364 139.661906 
L 546.545455 136.187409 
L 554.154545 132.939741 
L 561.763636 129.904432 
L 569.372727 127.067873 
L 576.981818 124.417278 
L 587.127273 121.151792 
L 597.272727 118.169238 
L 607.418182 115.445377 
L 617.563636 112.957985 
L 622.636364 111.796533 
L 622.636364 111.796533 
" style="fill:none;stroke:#bcbd22;stroke-linecap:square;stroke-width:1.5;"/>
   </g>
   <g id="line2d_38">
    <path clip-path="url(#pb8ddd535fc)" d="M 115.363636 605.290909 
L 120.436364 604.960052 
L 130.581818 603.825686 
L 133.118182 603.825686 
L 135.654545 603.447564 
L 138.190909 603.447564 
L 140.727273 602.313198 
L 143.263636 602.313198 
L 145.8 601.037037 
L 148.336364 600.091732 
L 150.872727 598.36655 
L 153.409091 593.569127 
L 155.945455 592.482026 
L 158.481818 590.236927 
L 161.018182 590.047866 
L 163.554545 590.047866 
L 166.090909 588.346317 
L 168.627273 588.346317 
L 171.163636 586.219381 
L 178.772727 586.219381 
L 181.309091 585.557667 
L 183.845455 585.557667 
L 186.381818 582.060039 
L 188.918182 582.060039 
L 191.454545 581.563754 
L 193.990909 581.563754 
L 196.527273 578.113391 
L 201.6 578.113391 
L 204.136364 574.072212 
L 206.672727 571.80348 
L 209.209091 569.723809 
L 211.745455 567.289648 
L 214.281818 565.304508 
L 216.818182 565.304508 
L 219.354545 562.303164 
L 224.427273 562.303164 
L 226.963636 556.513171 
L 229.5 556.513171 
L 232.036364 555.875091 
L 234.572727 555.875091 
L 237.109091 552.070238 
L 244.718182 551.857544 
L 247.254545 544.649594 
L 249.790909 542.050005 
L 252.327273 542.050005 
L 254.863636 539.426784 
L 259.936364 532.218833 
L 265.009091 532.218833 
L 267.545455 522.1986 
L 270.081818 522.1986 
L 272.618182 517.377545 
L 275.154545 504.261438 
L 277.690909 501.614584 
L 280.227273 501.614584 
L 282.763636 490.034598 
L 285.3 490.034598 
L 287.836364 477.131185 
L 295.445455 477.131185 
L 297.981818 466.071116 
L 300.518182 466.071116 
L 303.054545 454.420232 
L 305.590909 449.977299 
L 308.127273 449.977299 
L 310.663636 445.156243 
L 313.2 430.90577 
L 315.736364 426.013817 
L 318.272727 418.711336 
L 320.809091 415.119177 
L 323.345455 409.163755 
L 325.881818 400.443317 
L 336.027273 400.443317 
L 338.563636 372.485922 
L 346.172727 372.485922 
L 348.709091 354.19427 
L 351.245455 331.223359 
L 353.781818 324.558959 
L 356.318182 321.037697 
L 358.854545 315.625826 
L 361.390909 308.016121 
L 391.827273 308.016121 
L 394.363636 253.093901 
L 401.972727 253.093901 
L 404.509091 247.020316 
L 414.654545 247.020316 
L 417.190909 223.765814 
L 427.336364 223.765814 
L 429.872727 215.139905 
L 434.945455 215.139905 
L 437.481818 210.744237 
L 442.554545 210.744237 
L 445.090909 201.243922 
L 447.627273 199.613271 
L 450.163636 197.817191 
L 462.845455 197.817191 
L 465.381818 186.875286 
L 472.990909 186.875286 
L 475.527273 179.218316 
L 480.6 179.218316 
L 483.136364 175.177137 
L 488.209091 172.932038 
L 490.745455 169.127185 
L 495.818182 169.127185 
L 498.354545 166.456698 
L 500.890909 166.054944 
L 503.427273 165.464128 
L 505.963636 162.202826 
L 516.109091 162.202826 
L 518.645455 157.216342 
L 521.181818 157.216342 
L 523.718182 153.222428 
L 533.863636 153.222428 
L 536.4 146.912518 
L 538.936364 145.707254 
L 541.472727 142.304156 
L 551.618182 142.304156 
L 554.154545 136.537795 
L 556.690909 136.537795 
L 559.227273 132.732943 
L 564.3 132.732943 
L 566.836364 128.998988 
L 569.372727 127.557398 
L 571.909091 126.541195 
L 574.445455 125.784951 
L 576.981818 125.784951 
L 579.518182 124.177932 
L 582.054545 122.759975 
L 584.590909 122.759975 
L 587.127273 118.813327 
L 589.663636 118.813327 
L 592.2 116.639125 
L 594.736364 116.119207 
L 597.272727 116.119207 
L 599.809091 115.575657 
L 602.345455 115.575657 
L 604.881818 113.141497 
L 612.490909 113.141497 
L 615.027273 111.109091 
L 622.636364 111.109091 
L 622.636364 111.109091 
" style="fill:none;stroke:#17becf;stroke-dasharray:14.8,6.4;stroke-dashoffset:0;stroke-width:4;"/>
   </g>
   <g id="patch_3">
    <path d="M 90 630 
L 90 86.4 
" style="fill:none;stroke:#000000;stroke-linecap:square;stroke-linejoin:miter;stroke-width:0.8;"/>
   </g>
   <g id="patch_4">
    <path d="M 648 630 
L 648 86.4 
" style="fill:none;stroke:#000000;stroke-linecap:square;stroke-linejoin:miter;stroke-width:0.8;"/>
   </g>
   <g id="patch_5">
    <path d="M 90 630 
L 648 630 
" style="fill:none;stroke:#000000;stroke-linecap:square;stroke-linejoin:miter;stroke-width:0.8;"/>
   </g>
   <g id="patch_6">
    <path d="M 90 86.4 
L 648 86.4 
" style="fill:none;stroke:#000000;stroke-linecap:square;stroke-linejoin:miter;stroke-width:0.8;"/>
   </g>
   <g id="text_17">
    <!-- Cameroon relative err =  -->
    <g transform="translate(294.315938 80.4)scale(0.12 -0.12)">
     <defs>
      <path d="M 41.109375 46.296875 
Q 39.59375 47.171875 37.8125 47.578125 
Q 36.03125 48 33.890625 48 
Q 26.265625 48 22.1875 43.046875 
Q 18.109375 38.09375 18.109375 28.8125 
L 18.109375 0 
L 9.078125 0 
L 9.078125 54.6875 
L 18.109375 54.6875 
L 18.109375 46.1875 
Q 20.953125 51.171875 25.484375 53.578125 
Q 30.03125 56 36.53125 56 
Q 37.453125 56 38.578125 55.875 
Q 39.703125 55.765625 41.0625 55.515625 
z
" id="DejaVuSans-114"/>
      <path d="M 30.609375 48.390625 
Q 23.390625 48.390625 19.1875 42.75 
Q 14.984375 37.109375 14.984375 27.296875 
Q 14.984375 17.484375 19.15625 11.84375 
Q 23.34375 6.203125 30.609375 6.203125 
Q 37.796875 6.203125 41.984375 11.859375 
Q 46.1875 17.53125 46.1875 27.296875 
Q 46.1875 37.015625 41.984375 42.703125 
Q 37.796875 48.390625 30.609375 48.390625 
z
M 30.609375 56 
Q 42.328125 56 49.015625 48.375 
Q 55.71875 40.765625 55.71875 27.296875 
Q 55.71875 13.875 49.015625 6.21875 
Q 42.328125 -1.421875 30.609375 -1.421875 
Q 18.84375 -1.421875 12.171875 6.21875 
Q 5.515625 13.875 5.515625 27.296875 
Q 5.515625 40.765625 12.171875 48.375 
Q 18.84375 56 30.609375 56 
z
" id="DejaVuSans-111"/>
      <path d="M 54.890625 33.015625 
L 54.890625 0 
L 45.90625 0 
L 45.90625 32.71875 
Q 45.90625 40.484375 42.875 44.328125 
Q 39.84375 48.1875 33.796875 48.1875 
Q 26.515625 48.1875 22.3125 43.546875 
Q 18.109375 38.921875 18.109375 30.90625 
L 18.109375 0 
L 9.078125 0 
L 9.078125 54.6875 
L 18.109375 54.6875 
L 18.109375 46.1875 
Q 21.34375 51.125 25.703125 53.5625 
Q 30.078125 56 35.796875 56 
Q 45.21875 56 50.046875 50.171875 
Q 54.890625 44.34375 54.890625 33.015625 
z
" id="DejaVuSans-110"/>
      <path d="M 10.59375 45.40625 
L 73.1875 45.40625 
L 73.1875 37.203125 
L 10.59375 37.203125 
z
M 10.59375 25.484375 
L 73.1875 25.484375 
L 73.1875 17.1875 
L 10.59375 17.1875 
z
" id="DejaVuSans-61"/>
     </defs>
     <use xlink:href="#DejaVuSans-67"/>
     <use x="69.824219" xlink:href="#DejaVuSans-97"/>
     <use x="131.103516" xlink:href="#DejaVuSans-109"/>
     <use x="228.515625" xlink:href="#DejaVuSans-101"/>
     <use x="290.039062" xlink:href="#DejaVuSans-114"/>
     <use x="328.902344" xlink:href="#DejaVuSans-111"/>
     <use x="390.083984" xlink:href="#DejaVuSans-111"/>
     <use x="451.265625" xlink:href="#DejaVuSans-110"/>
     <use x="514.644531" xlink:href="#DejaVuSans-32"/>
     <use x="546.431641" xlink:href="#DejaVuSans-114"/>
     <use x="585.294922" xlink:href="#DejaVuSans-101"/>
     <use x="646.818359" xlink:href="#DejaVuSans-108"/>
     <use x="674.601562" xlink:href="#DejaVuSans-97"/>
     <use x="735.880859" xlink:href="#DejaVuSans-116"/>
     <use x="775.089844" xlink:href="#DejaVuSans-105"/>
     <use x="802.873047" xlink:href="#DejaVuSans-118"/>
     <use x="862.052734" xlink:href="#DejaVuSans-101"/>
     <use x="923.576172" xlink:href="#DejaVuSans-32"/>
     <use x="955.363281" xlink:href="#DejaVuSans-101"/>
     <use x="1016.886719" xlink:href="#DejaVuSans-114"/>
     <use x="1056.25" xlink:href="#DejaVuSans-114"/>
     <use x="1097.363281" xlink:href="#DejaVuSans-32"/>
     <use x="1129.150391" xlink:href="#DejaVuSans-61"/>
     <use x="1212.939453" xlink:href="#DejaVuSans-32"/>
    </g>
   </g>
   <g id="legend_1">
    <g id="patch_7">
     <path d="M 97 226.503125 
L 185.6 226.503125 
Q 187.6 226.503125 187.6 224.503125 
L 187.6 93.4 
Q 187.6 91.4 185.6 91.4 
L 97 91.4 
Q 95 91.4 95 93.4 
L 95 224.503125 
Q 95 226.503125 97 226.503125 
z
" style="fill:#ffffff;opacity:0.8;stroke:#cccccc;stroke-linejoin:miter;"/>
    </g>
    <g id="line2d_39">
     <path d="M 99 99.498438 
L 119 99.498438 
" style="fill:none;stroke:#1f77b4;stroke-linecap:square;stroke-width:1.5;"/>
    </g>
    <g id="line2d_40"/>
    <g id="text_18">
     <!-- SI -->
     <g transform="translate(127 102.998438)scale(0.1 -0.1)">
      <defs>
       <path d="M 53.515625 70.515625 
L 53.515625 60.890625 
Q 47.90625 63.578125 42.921875 64.890625 
Q 37.9375 66.21875 33.296875 66.21875 
Q 25.25 66.21875 20.875 63.09375 
Q 16.5 59.96875 16.5 54.203125 
Q 16.5 49.359375 19.40625 46.890625 
Q 22.3125 44.4375 30.421875 42.921875 
L 36.375 41.703125 
Q 47.40625 39.59375 52.65625 34.296875 
Q 57.90625 29 57.90625 20.125 
Q 57.90625 9.515625 50.796875 4.046875 
Q 43.703125 -1.421875 29.984375 -1.421875 
Q 24.8125 -1.421875 18.96875 -0.25 
Q 13.140625 0.921875 6.890625 3.21875 
L 6.890625 13.375 
Q 12.890625 10.015625 18.65625 8.296875 
Q 24.421875 6.59375 29.984375 6.59375 
Q 38.421875 6.59375 43.015625 9.90625 
Q 47.609375 13.234375 47.609375 19.390625 
Q 47.609375 24.75 44.3125 27.78125 
Q 41.015625 30.8125 33.5 32.328125 
L 27.484375 33.5 
Q 16.453125 35.6875 11.515625 40.375 
Q 6.59375 45.0625 6.59375 53.421875 
Q 6.59375 63.09375 13.40625 68.65625 
Q 20.21875 74.21875 32.171875 74.21875 
Q 37.3125 74.21875 42.625 73.28125 
Q 47.953125 72.359375 53.515625 70.515625 
z
" id="DejaVuSans-83"/>
       <path d="M 9.8125 72.90625 
L 19.671875 72.90625 
L 19.671875 0 
L 9.8125 0 
z
" id="DejaVuSans-73"/>
      </defs>
      <use xlink:href="#DejaVuSans-83"/>
      <use x="63.476562" xlink:href="#DejaVuSans-73"/>
     </g>
    </g>
    <g id="line2d_41">
     <path d="M 99 114.176563 
L 119 114.176563 
" style="fill:none;stroke:#ff7f0e;stroke-linecap:square;stroke-width:1.5;"/>
    </g>
    <g id="line2d_42"/>
    <g id="text_19">
     <!-- BD -->
     <g transform="translate(127 117.676563)scale(0.1 -0.1)">
      <defs>
       <path d="M 19.671875 34.8125 
L 19.671875 8.109375 
L 35.5 8.109375 
Q 43.453125 8.109375 47.28125 11.40625 
Q 51.125 14.703125 51.125 21.484375 
Q 51.125 28.328125 47.28125 31.5625 
Q 43.453125 34.8125 35.5 34.8125 
z
M 19.671875 64.796875 
L 19.671875 42.828125 
L 34.28125 42.828125 
Q 41.5 42.828125 45.03125 45.53125 
Q 48.578125 48.25 48.578125 53.8125 
Q 48.578125 59.328125 45.03125 62.0625 
Q 41.5 64.796875 34.28125 64.796875 
z
M 9.8125 72.90625 
L 35.015625 72.90625 
Q 46.296875 72.90625 52.390625 68.21875 
Q 58.5 63.53125 58.5 54.890625 
Q 58.5 48.1875 55.375 44.234375 
Q 52.25 40.28125 46.1875 39.3125 
Q 53.46875 37.75 57.5 32.78125 
Q 61.53125 27.828125 61.53125 20.40625 
Q 61.53125 10.640625 54.890625 5.3125 
Q 48.25 0 35.984375 0 
L 9.8125 0 
z
" id="DejaVuSans-66"/>
      </defs>
      <use xlink:href="#DejaVuSans-66"/>
      <use x="68.603516" xlink:href="#DejaVuSans-68"/>
     </g>
    </g>
    <g id="line2d_43">
     <path d="M 99 128.854688 
L 119 128.854688 
" style="fill:none;stroke:#2ca02c;stroke-linecap:square;stroke-width:1.5;"/>
    </g>
    <g id="line2d_44"/>
    <g id="text_20">
     <!-- SIR -->
     <g transform="translate(127 132.354688)scale(0.1 -0.1)">
      <defs>
       <path d="M 44.390625 34.1875 
Q 47.5625 33.109375 50.5625 29.59375 
Q 53.5625 26.078125 56.59375 19.921875 
L 66.609375 0 
L 56 0 
L 46.6875 18.703125 
Q 43.0625 26.03125 39.671875 28.421875 
Q 36.28125 30.8125 30.421875 30.8125 
L 19.671875 30.8125 
L 19.671875 0 
L 9.8125 0 
L 9.8125 72.90625 
L 32.078125 72.90625 
Q 44.578125 72.90625 50.734375 67.671875 
Q 56.890625 62.453125 56.890625 51.90625 
Q 56.890625 45.015625 53.6875 40.46875 
Q 50.484375 35.9375 44.390625 34.1875 
z
M 19.671875 64.796875 
L 19.671875 38.921875 
L 32.078125 38.921875 
Q 39.203125 38.921875 42.84375 42.21875 
Q 46.484375 45.515625 46.484375 51.90625 
Q 46.484375 58.296875 42.84375 61.546875 
Q 39.203125 64.796875 32.078125 64.796875 
z
" id="DejaVuSans-82"/>
      </defs>
      <use xlink:href="#DejaVuSans-83"/>
      <use x="63.476562" xlink:href="#DejaVuSans-73"/>
      <use x="92.96875" xlink:href="#DejaVuSans-82"/>
     </g>
    </g>
    <g id="line2d_45">
     <path d="M 99 143.532812 
L 119 143.532812 
" style="fill:none;stroke:#d62728;stroke-linecap:square;stroke-width:1.5;"/>
    </g>
    <g id="line2d_46"/>
    <g id="text_21">
     <!-- eSIR -->
     <g transform="translate(127 147.032812)scale(0.1 -0.1)">
      <use xlink:href="#DejaVuSans-101"/>
      <use x="61.523438" xlink:href="#DejaVuSans-83"/>
      <use x="125" xlink:href="#DejaVuSans-73"/>
      <use x="154.492188" xlink:href="#DejaVuSans-82"/>
     </g>
    </g>
    <g id="line2d_47">
     <path d="M 99 158.210938 
L 119 158.210938 
" style="fill:none;stroke:#9467bd;stroke-linecap:square;stroke-width:1.5;"/>
    </g>
    <g id="line2d_48"/>
    <g id="text_22">
     <!-- SEIR -->
     <g transform="translate(127 161.710938)scale(0.1 -0.1)">
      <defs>
       <path d="M 9.8125 72.90625 
L 55.90625 72.90625 
L 55.90625 64.59375 
L 19.671875 64.59375 
L 19.671875 43.015625 
L 54.390625 43.015625 
L 54.390625 34.71875 
L 19.671875 34.71875 
L 19.671875 8.296875 
L 56.78125 8.296875 
L 56.78125 0 
L 9.8125 0 
z
" id="DejaVuSans-69"/>
      </defs>
      <use xlink:href="#DejaVuSans-83"/>
      <use x="63.476562" xlink:href="#DejaVuSans-69"/>
      <use x="126.660156" xlink:href="#DejaVuSans-73"/>
      <use x="156.152344" xlink:href="#DejaVuSans-82"/>
     </g>
    </g>
    <g id="line2d_49">
     <path d="M 99 172.889063 
L 119 172.889063 
" style="fill:none;stroke:#8c564b;stroke-linecap:square;stroke-width:1.5;"/>
    </g>
    <g id="line2d_50"/>
    <g id="text_23">
     <!-- eSEIR -->
     <g transform="translate(127 176.389063)scale(0.1 -0.1)">
      <use xlink:href="#DejaVuSans-101"/>
      <use x="61.523438" xlink:href="#DejaVuSans-83"/>
      <use x="125" xlink:href="#DejaVuSans-69"/>
      <use x="188.183594" xlink:href="#DejaVuSans-73"/>
      <use x="217.675781" xlink:href="#DejaVuSans-82"/>
     </g>
    </g>
    <g id="line2d_51">
     <path d="M 99 187.567188 
L 119 187.567188 
" style="fill:none;stroke:#e377c2;stroke-linecap:square;stroke-width:1.5;"/>
    </g>
    <g id="line2d_52"/>
    <g id="text_24">
     <!-- SEIUR -->
     <g transform="translate(127 191.067188)scale(0.1 -0.1)">
      <defs>
       <path d="M 8.6875 72.90625 
L 18.609375 72.90625 
L 18.609375 28.609375 
Q 18.609375 16.890625 22.84375 11.734375 
Q 27.09375 6.59375 36.625 6.59375 
Q 46.09375 6.59375 50.34375 11.734375 
Q 54.59375 16.890625 54.59375 28.609375 
L 54.59375 72.90625 
L 64.5 72.90625 
L 64.5 27.390625 
Q 64.5 13.140625 57.4375 5.859375 
Q 50.390625 -1.421875 36.625 -1.421875 
Q 22.796875 -1.421875 15.734375 5.859375 
Q 8.6875 13.140625 8.6875 27.390625 
z
" id="DejaVuSans-85"/>
      </defs>
      <use xlink:href="#DejaVuSans-83"/>
      <use x="63.476562" xlink:href="#DejaVuSans-69"/>
      <use x="126.660156" xlink:href="#DejaVuSans-73"/>
      <use x="156.152344" xlink:href="#DejaVuSans-85"/>
      <use x="229.345703" xlink:href="#DejaVuSans-82"/>
     </g>
    </g>
    <g id="line2d_53">
     <path d="M 99 202.245312 
L 119 202.245312 
" style="fill:none;stroke:#7f7f7f;stroke-linecap:square;stroke-width:1.5;"/>
    </g>
    <g id="line2d_54"/>
    <g id="text_25">
     <!-- eSEIUR -->
     <g transform="translate(127 205.745312)scale(0.1 -0.1)">
      <use xlink:href="#DejaVuSans-101"/>
      <use x="61.523438" xlink:href="#DejaVuSans-83"/>
      <use x="125" xlink:href="#DejaVuSans-69"/>
      <use x="188.183594" xlink:href="#DejaVuSans-73"/>
      <use x="217.675781" xlink:href="#DejaVuSans-85"/>
      <use x="290.869141" xlink:href="#DejaVuSans-82"/>
     </g>
    </g>
    <g id="line2d_55">
     <path d="M 99 216.923437 
L 119 216.923437 
" style="fill:none;stroke:#bcbd22;stroke-linecap:square;stroke-width:1.5;"/>
    </g>
    <g id="line2d_56"/>
    <g id="text_26">
     <!-- eSEIUR$^{range}$ -->
     <g transform="translate(127 220.423437)scale(0.1 -0.1)">
      <defs>
       <path d="M 44.578125 46.390625 
Q 43.21875 47.125 41.453125 47.515625 
Q 39.703125 47.90625 37.703125 47.90625 
Q 30.515625 47.90625 25.140625 42.453125 
Q 19.78125 37.015625 18.015625 27.875 
L 12.5 0 
L 3.515625 0 
L 14.203125 54.6875 
L 23.1875 54.6875 
L 21.484375 46.1875 
Q 25.046875 50.921875 30 53.453125 
Q 34.96875 56 40.578125 56 
Q 42.046875 56 43.453125 55.828125 
Q 44.875 55.671875 46.296875 55.28125 
z
" id="DejaVuSans-Oblique-114"/>
       <path d="M 53.71875 31.203125 
L 47.609375 0 
L 38.625 0 
L 40.28125 8.296875 
Q 36.328125 3.421875 31.265625 1 
Q 26.21875 -1.421875 20.015625 -1.421875 
Q 13.03125 -1.421875 8.5625 2.84375 
Q 4.109375 7.125 4.109375 13.8125 
Q 4.109375 23.390625 11.75 28.953125 
Q 19.390625 34.515625 32.8125 34.515625 
L 45.3125 34.515625 
L 45.796875 36.921875 
Q 45.90625 37.3125 45.953125 37.765625 
Q 46 38.234375 46 39.203125 
Q 46 43.5625 42.453125 45.96875 
Q 38.921875 48.390625 32.515625 48.390625 
Q 28.125 48.390625 23.5 47.265625 
Q 18.890625 46.140625 14.015625 43.890625 
L 15.578125 52.203125 
Q 20.65625 54.109375 25.515625 55.046875 
Q 30.375 56 34.90625 56 
Q 44.578125 56 49.625 51.796875 
Q 54.6875 47.609375 54.6875 39.59375 
Q 54.6875 37.984375 54.4375 35.8125 
Q 54.203125 33.640625 53.71875 31.203125 
z
M 44 27.484375 
L 35.015625 27.484375 
Q 23.96875 27.484375 18.671875 24.53125 
Q 13.375 21.578125 13.375 15.375 
Q 13.375 11.078125 16.078125 8.640625 
Q 18.796875 6.203125 23.578125 6.203125 
Q 30.90625 6.203125 36.375 11.453125 
Q 41.84375 16.703125 43.609375 25.484375 
z
" id="DejaVuSans-Oblique-97"/>
       <path d="M 55.71875 33.015625 
L 49.3125 0 
L 40.28125 0 
L 46.6875 32.671875 
Q 47.125 34.96875 47.359375 36.71875 
Q 47.609375 38.484375 47.609375 39.5 
Q 47.609375 43.609375 45.015625 45.890625 
Q 42.4375 48.1875 37.796875 48.1875 
Q 30.5625 48.1875 25.34375 43.375 
Q 20.125 38.578125 18.5 30.328125 
L 12.5 0 
L 3.515625 0 
L 14.109375 54.6875 
L 23.09375 54.6875 
L 21.296875 46.09375 
Q 25.046875 50.828125 30.3125 53.40625 
Q 35.59375 56 41.40625 56 
Q 48.640625 56 52.609375 52.09375 
Q 56.59375 48.1875 56.59375 41.109375 
Q 56.59375 39.359375 56.375 37.359375 
Q 56.15625 35.359375 55.71875 33.015625 
z
" id="DejaVuSans-Oblique-110"/>
       <path d="M 59.625 54.6875 
L 50.296875 6.78125 
Q 47.609375 -7.125 40.015625 -13.953125 
Q 32.421875 -20.796875 19.578125 -20.796875 
Q 14.84375 -20.796875 10.78125 -20.09375 
Q 6.734375 -19.390625 3.21875 -17.921875 
L 4.890625 -9.1875 
Q 8.203125 -11.328125 11.90625 -12.34375 
Q 15.625 -13.375 19.828125 -13.375 
Q 28.375 -13.375 33.859375 -8.703125 
Q 39.359375 -4.046875 41.109375 4.6875 
L 41.890625 8.796875 
Q 38.140625 4.5 33.15625 2.25 
Q 28.171875 0 22.40625 0 
Q 14.109375 0 9.34375 5.484375 
Q 4.59375 10.984375 4.59375 20.609375 
Q 4.59375 28.171875 7.46875 35.421875 
Q 10.359375 42.671875 15.578125 48.296875 
Q 19.046875 52 23.65625 54 
Q 28.265625 56 33.296875 56 
Q 38.8125 56 42.90625 53.4375 
Q 47.015625 50.875 49.03125 46.1875 
L 50.59375 54.6875 
z
M 46.09375 34.625 
Q 46.09375 41.265625 42.96875 44.875 
Q 39.84375 48.484375 34.078125 48.484375 
Q 30.515625 48.484375 27.296875 47.0625 
Q 24.078125 45.65625 21.78125 43.109375 
Q 18.0625 38.921875 15.984375 33.234375 
Q 13.921875 27.546875 13.921875 21.484375 
Q 13.921875 14.75 17.0625 11.125 
Q 20.21875 7.515625 26.125 7.515625 
Q 34.671875 7.515625 40.375 15.25 
Q 46.09375 23 46.09375 34.625 
z
" id="DejaVuSans-Oblique-103"/>
       <path d="M 48.09375 32.234375 
Q 48.25 33.015625 48.3125 33.84375 
Q 48.390625 34.671875 48.390625 35.5 
Q 48.390625 41.453125 44.890625 44.921875 
Q 41.40625 48.390625 35.40625 48.390625 
Q 28.71875 48.390625 23.578125 44.15625 
Q 18.453125 39.9375 15.828125 32.171875 
z
M 55.90625 25.203125 
L 14.109375 25.203125 
Q 13.8125 23.34375 13.71875 22.265625 
Q 13.625 21.1875 13.625 20.40625 
Q 13.625 13.625 17.796875 9.90625 
Q 21.96875 6.203125 29.59375 6.203125 
Q 35.453125 6.203125 40.671875 7.515625 
Q 45.90625 8.84375 50.390625 11.375 
L 48.6875 2.484375 
Q 43.84375 0.53125 38.6875 -0.4375 
Q 33.546875 -1.421875 28.21875 -1.421875 
Q 16.84375 -1.421875 10.71875 4.015625 
Q 4.59375 9.46875 4.59375 19.484375 
Q 4.59375 28.03125 7.640625 35.375 
Q 10.6875 42.71875 16.609375 48.484375 
Q 20.40625 52.09375 25.65625 54.046875 
Q 30.90625 56 36.8125 56 
Q 46.09375 56 51.578125 50.4375 
Q 57.078125 44.875 57.078125 35.5 
Q 57.078125 33.25 56.78125 30.6875 
Q 56.5 28.125 55.90625 25.203125 
z
" id="DejaVuSans-Oblique-101"/>
      </defs>
      <use transform="translate(0 0.51875)" xlink:href="#DejaVuSans-101"/>
      <use transform="translate(61.523438 0.51875)" xlink:href="#DejaVuSans-83"/>
      <use transform="translate(125 0.51875)" xlink:href="#DejaVuSans-69"/>
      <use transform="translate(188.183594 0.51875)" xlink:href="#DejaVuSans-73"/>
      <use transform="translate(217.675781 0.51875)" xlink:href="#DejaVuSans-85"/>
      <use transform="translate(288.619141 0.51875)" xlink:href="#DejaVuSans-82"/>
      <use transform="translate(359.058594 38.8)scale(0.7)" xlink:href="#DejaVuSans-Oblique-114"/>
      <use transform="translate(387.837891 38.8)scale(0.7)" xlink:href="#DejaVuSans-Oblique-97"/>
      <use transform="translate(430.733398 38.8)scale(0.7)" xlink:href="#DejaVuSans-Oblique-110"/>
      <use transform="translate(475.098633 38.8)scale(0.7)" xlink:href="#DejaVuSans-Oblique-103"/>
      <use transform="translate(519.532227 38.8)scale(0.7)" xlink:href="#DejaVuSans-Oblique-101"/>
     </g>
    </g>
   </g>
  </g>
 </g>
 <defs>
  <clipPath id="pb8ddd535fc">
   <rect height="543.6" width="558" x="90" y="86.4"/>
  </clipPath>
 </defs>
</svg>
