<?xml version="1.0" encoding="utf-8" standalone="no"?>
<!DOCTYPE svg PUBLIC "-//W3C//DTD SVG 1.1//EN"
  "http://www.w3.org/Graphics/SVG/1.1/DTD/svg11.dtd">
<!-- Created with matplotlib (https://matplotlib.org/) -->
<svg height="720pt" version="1.1" viewBox="0 0 720 720" width="720pt" xmlns="http://www.w3.org/2000/svg" xmlns:xlink="http://www.w3.org/1999/xlink">
 <metadata>
  <rdf:RDF xmlns:cc="http://creativecommons.org/ns#" xmlns:dc="http://purl.org/dc/elements/1.1/" xmlns:rdf="http://www.w3.org/1999/02/22-rdf-syntax-ns#">
   <cc:Work>
    <dc:type rdf:resource="http://purl.org/dc/dcmitype/StillImage"/>
    <dc:date>2022-10-11T20:58:50.926784</dc:date>
    <dc:format>image/svg+xml</dc:format>
    <dc:creator>
     <cc:Agent>
      <dc:title>Matplotlib v3.3.2, https://matplotlib.org/</dc:title>
     </cc:Agent>
    </dc:creator>
   </cc:Work>
  </rdf:RDF>
 </metadata>
 <defs>
  <style type="text/css">*{stroke-linecap:butt;stroke-linejoin:round;}</style>
 </defs>
 <g id="figure_1">
  <g id="patch_1">
   <path d="M 0 720 
L 720 720 
L 720 0 
L 0 0 
z
" style="fill:none;"/>
  </g>
  <g id="axes_1">
   <g id="patch_2">
    <path d="M 90 630 
L 648 630 
L 648 86.4 
L 90 86.4 
z
" style="fill:#ffffff;"/>
   </g>
   <g id="matplotlib.axis_1">
    <g id="xtick_1">
     <g id="line2d_1">
      <path clip-path="url(#p0ccbc70fe2)" d="M 115.363636 630 
L 115.363636 86.4 
" style="fill:none;stroke:#b0b0b0;stroke-linecap:square;stroke-width:0.8;"/>
     </g>
     <g id="line2d_2">
      <defs>
       <path d="M 0 0 
L 0 3.5 
" id="mb229c36176" style="stroke:#000000;stroke-width:0.8;"/>
      </defs>
      <g>
       <use style="stroke:#000000;stroke-width:0.8;" x="115.363636" xlink:href="#mb229c36176" y="630"/>
      </g>
     </g>
     <g id="text_1">
      <!-- 0 -->
      <g transform="translate(112.182386 644.598438)scale(0.1 -0.1)">
       <defs>
        <path d="M 31.78125 66.40625 
Q 24.171875 66.40625 20.328125 58.90625 
Q 16.5 51.421875 16.5 36.375 
Q 16.5 21.390625 20.328125 13.890625 
Q 24.171875 6.390625 31.78125 6.390625 
Q 39.453125 6.390625 43.28125 13.890625 
Q 47.125 21.390625 47.125 36.375 
Q 47.125 51.421875 43.28125 58.90625 
Q 39.453125 66.40625 31.78125 66.40625 
z
M 31.78125 74.21875 
Q 44.046875 74.21875 50.515625 64.515625 
Q 56.984375 54.828125 56.984375 36.375 
Q 56.984375 17.96875 50.515625 8.265625 
Q 44.046875 -1.421875 31.78125 -1.421875 
Q 19.53125 -1.421875 13.0625 8.265625 
Q 6.59375 17.96875 6.59375 36.375 
Q 6.59375 54.828125 13.0625 64.515625 
Q 19.53125 74.21875 31.78125 74.21875 
z
" id="DejaVuSans-48"/>
       </defs>
       <use xlink:href="#DejaVuSans-48"/>
      </g>
     </g>
    </g>
    <g id="xtick_2">
     <g id="line2d_3">
      <path clip-path="url(#p0ccbc70fe2)" d="M 182.552077 630 
L 182.552077 86.4 
" style="fill:none;stroke:#b0b0b0;stroke-linecap:square;stroke-width:0.8;"/>
     </g>
     <g id="line2d_4">
      <g>
       <use style="stroke:#000000;stroke-width:0.8;" x="182.552077" xlink:href="#mb229c36176" y="630"/>
      </g>
     </g>
     <g id="text_2">
      <!-- 20 -->
      <g transform="translate(176.189577 644.598438)scale(0.1 -0.1)">
       <defs>
        <path d="M 19.1875 8.296875 
L 53.609375 8.296875 
L 53.609375 0 
L 7.328125 0 
L 7.328125 8.296875 
Q 12.9375 14.109375 22.625 23.890625 
Q 32.328125 33.6875 34.8125 36.53125 
Q 39.546875 41.84375 41.421875 45.53125 
Q 43.3125 49.21875 43.3125 52.78125 
Q 43.3125 58.59375 39.234375 62.25 
Q 35.15625 65.921875 28.609375 65.921875 
Q 23.96875 65.921875 18.8125 64.3125 
Q 13.671875 62.703125 7.8125 59.421875 
L 7.8125 69.390625 
Q 13.765625 71.78125 18.9375 73 
Q 24.125 74.21875 28.421875 74.21875 
Q 39.75 74.21875 46.484375 68.546875 
Q 53.21875 62.890625 53.21875 53.421875 
Q 53.21875 48.921875 51.53125 44.890625 
Q 49.859375 40.875 45.40625 35.40625 
Q 44.1875 33.984375 37.640625 27.21875 
Q 31.109375 20.453125 19.1875 8.296875 
z
" id="DejaVuSans-50"/>
       </defs>
       <use xlink:href="#DejaVuSans-50"/>
       <use x="63.623047" xlink:href="#DejaVuSans-48"/>
      </g>
     </g>
    </g>
    <g id="xtick_3">
     <g id="line2d_5">
      <path clip-path="url(#p0ccbc70fe2)" d="M 249.740518 630 
L 249.740518 86.4 
" style="fill:none;stroke:#b0b0b0;stroke-linecap:square;stroke-width:0.8;"/>
     </g>
     <g id="line2d_6">
      <g>
       <use style="stroke:#000000;stroke-width:0.8;" x="249.740518" xlink:href="#mb229c36176" y="630"/>
      </g>
     </g>
     <g id="text_3">
      <!-- 40 -->
      <g transform="translate(243.378018 644.598438)scale(0.1 -0.1)">
       <defs>
        <path d="M 37.796875 64.3125 
L 12.890625 25.390625 
L 37.796875 25.390625 
z
M 35.203125 72.90625 
L 47.609375 72.90625 
L 47.609375 25.390625 
L 58.015625 25.390625 
L 58.015625 17.1875 
L 47.609375 17.1875 
L 47.609375 0 
L 37.796875 0 
L 37.796875 17.1875 
L 4.890625 17.1875 
L 4.890625 26.703125 
z
" id="DejaVuSans-52"/>
       </defs>
       <use xlink:href="#DejaVuSans-52"/>
       <use x="63.623047" xlink:href="#DejaVuSans-48"/>
      </g>
     </g>
    </g>
    <g id="xtick_4">
     <g id="line2d_7">
      <path clip-path="url(#p0ccbc70fe2)" d="M 316.928958 630 
L 316.928958 86.4 
" style="fill:none;stroke:#b0b0b0;stroke-linecap:square;stroke-width:0.8;"/>
     </g>
     <g id="line2d_8">
      <g>
       <use style="stroke:#000000;stroke-width:0.8;" x="316.928958" xlink:href="#mb229c36176" y="630"/>
      </g>
     </g>
     <g id="text_4">
      <!-- 60 -->
      <g transform="translate(310.566458 644.598438)scale(0.1 -0.1)">
       <defs>
        <path d="M 33.015625 40.375 
Q 26.375 40.375 22.484375 35.828125 
Q 18.609375 31.296875 18.609375 23.390625 
Q 18.609375 15.53125 22.484375 10.953125 
Q 26.375 6.390625 33.015625 6.390625 
Q 39.65625 6.390625 43.53125 10.953125 
Q 47.40625 15.53125 47.40625 23.390625 
Q 47.40625 31.296875 43.53125 35.828125 
Q 39.65625 40.375 33.015625 40.375 
z
M 52.59375 71.296875 
L 52.59375 62.3125 
Q 48.875 64.0625 45.09375 64.984375 
Q 41.3125 65.921875 37.59375 65.921875 
Q 27.828125 65.921875 22.671875 59.328125 
Q 17.53125 52.734375 16.796875 39.40625 
Q 19.671875 43.65625 24.015625 45.921875 
Q 28.375 48.1875 33.59375 48.1875 
Q 44.578125 48.1875 50.953125 41.515625 
Q 57.328125 34.859375 57.328125 23.390625 
Q 57.328125 12.15625 50.6875 5.359375 
Q 44.046875 -1.421875 33.015625 -1.421875 
Q 20.359375 -1.421875 13.671875 8.265625 
Q 6.984375 17.96875 6.984375 36.375 
Q 6.984375 53.65625 15.1875 63.9375 
Q 23.390625 74.21875 37.203125 74.21875 
Q 40.921875 74.21875 44.703125 73.484375 
Q 48.484375 72.75 52.59375 71.296875 
z
" id="DejaVuSans-54"/>
       </defs>
       <use xlink:href="#DejaVuSans-54"/>
       <use x="63.623047" xlink:href="#DejaVuSans-48"/>
      </g>
     </g>
    </g>
    <g id="xtick_5">
     <g id="line2d_9">
      <path clip-path="url(#p0ccbc70fe2)" d="M 384.117399 630 
L 384.117399 86.4 
" style="fill:none;stroke:#b0b0b0;stroke-linecap:square;stroke-width:0.8;"/>
     </g>
     <g id="line2d_10">
      <g>
       <use style="stroke:#000000;stroke-width:0.8;" x="384.117399" xlink:href="#mb229c36176" y="630"/>
      </g>
     </g>
     <g id="text_5">
      <!-- 80 -->
      <g transform="translate(377.754899 644.598438)scale(0.1 -0.1)">
       <defs>
        <path d="M 31.78125 34.625 
Q 24.75 34.625 20.71875 30.859375 
Q 16.703125 27.09375 16.703125 20.515625 
Q 16.703125 13.921875 20.71875 10.15625 
Q 24.75 6.390625 31.78125 6.390625 
Q 38.8125 6.390625 42.859375 10.171875 
Q 46.921875 13.96875 46.921875 20.515625 
Q 46.921875 27.09375 42.890625 30.859375 
Q 38.875 34.625 31.78125 34.625 
z
M 21.921875 38.8125 
Q 15.578125 40.375 12.03125 44.71875 
Q 8.5 49.078125 8.5 55.328125 
Q 8.5 64.0625 14.71875 69.140625 
Q 20.953125 74.21875 31.78125 74.21875 
Q 42.671875 74.21875 48.875 69.140625 
Q 55.078125 64.0625 55.078125 55.328125 
Q 55.078125 49.078125 51.53125 44.71875 
Q 48 40.375 41.703125 38.8125 
Q 48.828125 37.15625 52.796875 32.3125 
Q 56.78125 27.484375 56.78125 20.515625 
Q 56.78125 9.90625 50.3125 4.234375 
Q 43.84375 -1.421875 31.78125 -1.421875 
Q 19.734375 -1.421875 13.25 4.234375 
Q 6.78125 9.90625 6.78125 20.515625 
Q 6.78125 27.484375 10.78125 32.3125 
Q 14.796875 37.15625 21.921875 38.8125 
z
M 18.3125 54.390625 
Q 18.3125 48.734375 21.84375 45.5625 
Q 25.390625 42.390625 31.78125 42.390625 
Q 38.140625 42.390625 41.71875 45.5625 
Q 45.3125 48.734375 45.3125 54.390625 
Q 45.3125 60.0625 41.71875 63.234375 
Q 38.140625 66.40625 31.78125 66.40625 
Q 25.390625 66.40625 21.84375 63.234375 
Q 18.3125 60.0625 18.3125 54.390625 
z
" id="DejaVuSans-56"/>
       </defs>
       <use xlink:href="#DejaVuSans-56"/>
       <use x="63.623047" xlink:href="#DejaVuSans-48"/>
      </g>
     </g>
    </g>
    <g id="xtick_6">
     <g id="line2d_11">
      <path clip-path="url(#p0ccbc70fe2)" d="M 451.30584 630 
L 451.30584 86.4 
" style="fill:none;stroke:#b0b0b0;stroke-linecap:square;stroke-width:0.8;"/>
     </g>
     <g id="line2d_12">
      <g>
       <use style="stroke:#000000;stroke-width:0.8;" x="451.30584" xlink:href="#mb229c36176" y="630"/>
      </g>
     </g>
     <g id="text_6">
      <!-- 100 -->
      <g transform="translate(441.76209 644.598438)scale(0.1 -0.1)">
       <defs>
        <path d="M 12.40625 8.296875 
L 28.515625 8.296875 
L 28.515625 63.921875 
L 10.984375 60.40625 
L 10.984375 69.390625 
L 28.421875 72.90625 
L 38.28125 72.90625 
L 38.28125 8.296875 
L 54.390625 8.296875 
L 54.390625 0 
L 12.40625 0 
z
" id="DejaVuSans-49"/>
       </defs>
       <use xlink:href="#DejaVuSans-49"/>
       <use x="63.623047" xlink:href="#DejaVuSans-48"/>
       <use x="127.246094" xlink:href="#DejaVuSans-48"/>
      </g>
     </g>
    </g>
    <g id="xtick_7">
     <g id="line2d_13">
      <path clip-path="url(#p0ccbc70fe2)" d="M 518.494281 630 
L 518.494281 86.4 
" style="fill:none;stroke:#b0b0b0;stroke-linecap:square;stroke-width:0.8;"/>
     </g>
     <g id="line2d_14">
      <g>
       <use style="stroke:#000000;stroke-width:0.8;" x="518.494281" xlink:href="#mb229c36176" y="630"/>
      </g>
     </g>
     <g id="text_7">
      <!-- 120 -->
      <g transform="translate(508.950531 644.598438)scale(0.1 -0.1)">
       <use xlink:href="#DejaVuSans-49"/>
       <use x="63.623047" xlink:href="#DejaVuSans-50"/>
       <use x="127.246094" xlink:href="#DejaVuSans-48"/>
      </g>
     </g>
    </g>
    <g id="xtick_8">
     <g id="line2d_15">
      <path clip-path="url(#p0ccbc70fe2)" d="M 585.682721 630 
L 585.682721 86.4 
" style="fill:none;stroke:#b0b0b0;stroke-linecap:square;stroke-width:0.8;"/>
     </g>
     <g id="line2d_16">
      <g>
       <use style="stroke:#000000;stroke-width:0.8;" x="585.682721" xlink:href="#mb229c36176" y="630"/>
      </g>
     </g>
     <g id="text_8">
      <!-- 140 -->
      <g transform="translate(576.138971 644.598438)scale(0.1 -0.1)">
       <use xlink:href="#DejaVuSans-49"/>
       <use x="63.623047" xlink:href="#DejaVuSans-52"/>
       <use x="127.246094" xlink:href="#DejaVuSans-48"/>
      </g>
     </g>
    </g>
    <g id="text_9">
     <!-- Days -->
     <g transform="translate(356.521875 658.276562)scale(0.1 -0.1)">
      <defs>
       <path d="M 19.671875 64.796875 
L 19.671875 8.109375 
L 31.59375 8.109375 
Q 46.6875 8.109375 53.6875 14.9375 
Q 60.6875 21.78125 60.6875 36.53125 
Q 60.6875 51.171875 53.6875 57.984375 
Q 46.6875 64.796875 31.59375 64.796875 
z
M 9.8125 72.90625 
L 30.078125 72.90625 
Q 51.265625 72.90625 61.171875 64.09375 
Q 71.09375 55.28125 71.09375 36.53125 
Q 71.09375 17.671875 61.125 8.828125 
Q 51.171875 0 30.078125 0 
L 9.8125 0 
z
" id="DejaVuSans-68"/>
       <path d="M 34.28125 27.484375 
Q 23.390625 27.484375 19.1875 25 
Q 14.984375 22.515625 14.984375 16.5 
Q 14.984375 11.71875 18.140625 8.90625 
Q 21.296875 6.109375 26.703125 6.109375 
Q 34.1875 6.109375 38.703125 11.40625 
Q 43.21875 16.703125 43.21875 25.484375 
L 43.21875 27.484375 
z
M 52.203125 31.203125 
L 52.203125 0 
L 43.21875 0 
L 43.21875 8.296875 
Q 40.140625 3.328125 35.546875 0.953125 
Q 30.953125 -1.421875 24.3125 -1.421875 
Q 15.921875 -1.421875 10.953125 3.296875 
Q 6 8.015625 6 15.921875 
Q 6 25.140625 12.171875 29.828125 
Q 18.359375 34.515625 30.609375 34.515625 
L 43.21875 34.515625 
L 43.21875 35.40625 
Q 43.21875 41.609375 39.140625 45 
Q 35.0625 48.390625 27.6875 48.390625 
Q 23 48.390625 18.546875 47.265625 
Q 14.109375 46.140625 10.015625 43.890625 
L 10.015625 52.203125 
Q 14.9375 54.109375 19.578125 55.046875 
Q 24.21875 56 28.609375 56 
Q 40.484375 56 46.34375 49.84375 
Q 52.203125 43.703125 52.203125 31.203125 
z
" id="DejaVuSans-97"/>
       <path d="M 32.171875 -5.078125 
Q 28.375 -14.84375 24.75 -17.8125 
Q 21.140625 -20.796875 15.09375 -20.796875 
L 7.90625 -20.796875 
L 7.90625 -13.28125 
L 13.1875 -13.28125 
Q 16.890625 -13.28125 18.9375 -11.515625 
Q 21 -9.765625 23.484375 -3.21875 
L 25.09375 0.875 
L 2.984375 54.6875 
L 12.5 54.6875 
L 29.59375 11.921875 
L 46.6875 54.6875 
L 56.203125 54.6875 
z
" id="DejaVuSans-121"/>
       <path d="M 44.28125 53.078125 
L 44.28125 44.578125 
Q 40.484375 46.53125 36.375 47.5 
Q 32.28125 48.484375 27.875 48.484375 
Q 21.1875 48.484375 17.84375 46.4375 
Q 14.5 44.390625 14.5 40.28125 
Q 14.5 37.15625 16.890625 35.375 
Q 19.28125 33.59375 26.515625 31.984375 
L 29.59375 31.296875 
Q 39.15625 29.25 43.1875 25.515625 
Q 47.21875 21.78125 47.21875 15.09375 
Q 47.21875 7.46875 41.1875 3.015625 
Q 35.15625 -1.421875 24.609375 -1.421875 
Q 20.21875 -1.421875 15.453125 -0.5625 
Q 10.6875 0.296875 5.421875 2 
L 5.421875 11.28125 
Q 10.40625 8.6875 15.234375 7.390625 
Q 20.0625 6.109375 24.8125 6.109375 
Q 31.15625 6.109375 34.5625 8.28125 
Q 37.984375 10.453125 37.984375 14.40625 
Q 37.984375 18.0625 35.515625 20.015625 
Q 33.0625 21.96875 24.703125 23.78125 
L 21.578125 24.515625 
Q 13.234375 26.265625 9.515625 29.90625 
Q 5.8125 33.546875 5.8125 39.890625 
Q 5.8125 47.609375 11.28125 51.796875 
Q 16.75 56 26.8125 56 
Q 31.78125 56 36.171875 55.265625 
Q 40.578125 54.546875 44.28125 53.078125 
z
" id="DejaVuSans-115"/>
      </defs>
      <use xlink:href="#DejaVuSans-68"/>
      <use x="77.001953" xlink:href="#DejaVuSans-97"/>
      <use x="138.28125" xlink:href="#DejaVuSans-121"/>
      <use x="197.460938" xlink:href="#DejaVuSans-115"/>
     </g>
    </g>
   </g>
   <g id="matplotlib.axis_2">
    <g id="ytick_1">
     <g id="line2d_17">
      <path clip-path="url(#p0ccbc70fe2)" d="M 90 610.387204 
L 648 610.387204 
" style="fill:none;stroke:#b0b0b0;stroke-linecap:square;stroke-width:0.8;"/>
     </g>
     <g id="line2d_18">
      <defs>
       <path d="M 0 0 
L -3.5 0 
" id="mf323fad54d" style="stroke:#000000;stroke-width:0.8;"/>
      </defs>
      <g>
       <use style="stroke:#000000;stroke-width:0.8;" x="90" xlink:href="#mf323fad54d" y="610.387204"/>
      </g>
     </g>
     <g id="text_10">
      <!-- 0 -->
      <g transform="translate(76.6375 614.186423)scale(0.1 -0.1)">
       <use xlink:href="#DejaVuSans-48"/>
      </g>
     </g>
    </g>
    <g id="ytick_2">
     <g id="line2d_19">
      <path clip-path="url(#p0ccbc70fe2)" d="M 90 537.582993 
L 648 537.582993 
" style="fill:none;stroke:#b0b0b0;stroke-linecap:square;stroke-width:0.8;"/>
     </g>
     <g id="line2d_20">
      <g>
       <use style="stroke:#000000;stroke-width:0.8;" x="90" xlink:href="#mf323fad54d" y="537.582993"/>
      </g>
     </g>
     <g id="text_11">
      <!-- 200 -->
      <g transform="translate(63.9125 541.382212)scale(0.1 -0.1)">
       <use xlink:href="#DejaVuSans-50"/>
       <use x="63.623047" xlink:href="#DejaVuSans-48"/>
       <use x="127.246094" xlink:href="#DejaVuSans-48"/>
      </g>
     </g>
    </g>
    <g id="ytick_3">
     <g id="line2d_21">
      <path clip-path="url(#p0ccbc70fe2)" d="M 90 464.778782 
L 648 464.778782 
" style="fill:none;stroke:#b0b0b0;stroke-linecap:square;stroke-width:0.8;"/>
     </g>
     <g id="line2d_22">
      <g>
       <use style="stroke:#000000;stroke-width:0.8;" x="90" xlink:href="#mf323fad54d" y="464.778782"/>
      </g>
     </g>
     <g id="text_12">
      <!-- 400 -->
      <g transform="translate(63.9125 468.578001)scale(0.1 -0.1)">
       <use xlink:href="#DejaVuSans-52"/>
       <use x="63.623047" xlink:href="#DejaVuSans-48"/>
       <use x="127.246094" xlink:href="#DejaVuSans-48"/>
      </g>
     </g>
    </g>
    <g id="ytick_4">
     <g id="line2d_23">
      <path clip-path="url(#p0ccbc70fe2)" d="M 90 391.974571 
L 648 391.974571 
" style="fill:none;stroke:#b0b0b0;stroke-linecap:square;stroke-width:0.8;"/>
     </g>
     <g id="line2d_24">
      <g>
       <use style="stroke:#000000;stroke-width:0.8;" x="90" xlink:href="#mf323fad54d" y="391.974571"/>
      </g>
     </g>
     <g id="text_13">
      <!-- 600 -->
      <g transform="translate(63.9125 395.77379)scale(0.1 -0.1)">
       <use xlink:href="#DejaVuSans-54"/>
       <use x="63.623047" xlink:href="#DejaVuSans-48"/>
       <use x="127.246094" xlink:href="#DejaVuSans-48"/>
      </g>
     </g>
    </g>
    <g id="ytick_5">
     <g id="line2d_25">
      <path clip-path="url(#p0ccbc70fe2)" d="M 90 319.17036 
L 648 319.17036 
" style="fill:none;stroke:#b0b0b0;stroke-linecap:square;stroke-width:0.8;"/>
     </g>
     <g id="line2d_26">
      <g>
       <use style="stroke:#000000;stroke-width:0.8;" x="90" xlink:href="#mf323fad54d" y="319.17036"/>
      </g>
     </g>
     <g id="text_14">
      <!-- 800 -->
      <g transform="translate(63.9125 322.969579)scale(0.1 -0.1)">
       <use xlink:href="#DejaVuSans-56"/>
       <use x="63.623047" xlink:href="#DejaVuSans-48"/>
       <use x="127.246094" xlink:href="#DejaVuSans-48"/>
      </g>
     </g>
    </g>
    <g id="ytick_6">
     <g id="line2d_27">
      <path clip-path="url(#p0ccbc70fe2)" d="M 90 246.366149 
L 648 246.366149 
" style="fill:none;stroke:#b0b0b0;stroke-linecap:square;stroke-width:0.8;"/>
     </g>
     <g id="line2d_28">
      <g>
       <use style="stroke:#000000;stroke-width:0.8;" x="90" xlink:href="#mf323fad54d" y="246.366149"/>
      </g>
     </g>
     <g id="text_15">
      <!-- 1000 -->
      <g transform="translate(57.55 250.165368)scale(0.1 -0.1)">
       <use xlink:href="#DejaVuSans-49"/>
       <use x="63.623047" xlink:href="#DejaVuSans-48"/>
       <use x="127.246094" xlink:href="#DejaVuSans-48"/>
       <use x="190.869141" xlink:href="#DejaVuSans-48"/>
      </g>
     </g>
    </g>
    <g id="ytick_7">
     <g id="line2d_29">
      <path clip-path="url(#p0ccbc70fe2)" d="M 90 173.561938 
L 648 173.561938 
" style="fill:none;stroke:#b0b0b0;stroke-linecap:square;stroke-width:0.8;"/>
     </g>
     <g id="line2d_30">
      <g>
       <use style="stroke:#000000;stroke-width:0.8;" x="90" xlink:href="#mf323fad54d" y="173.561938"/>
      </g>
     </g>
     <g id="text_16">
      <!-- 1200 -->
      <g transform="translate(57.55 177.361157)scale(0.1 -0.1)">
       <use xlink:href="#DejaVuSans-49"/>
       <use x="63.623047" xlink:href="#DejaVuSans-50"/>
       <use x="127.246094" xlink:href="#DejaVuSans-48"/>
       <use x="190.869141" xlink:href="#DejaVuSans-48"/>
      </g>
     </g>
    </g>
    <g id="ytick_8">
     <g id="line2d_31">
      <path clip-path="url(#p0ccbc70fe2)" d="M 90 100.757727 
L 648 100.757727 
" style="fill:none;stroke:#b0b0b0;stroke-linecap:square;stroke-width:0.8;"/>
     </g>
     <g id="line2d_32">
      <g>
       <use style="stroke:#000000;stroke-width:0.8;" x="90" xlink:href="#mf323fad54d" y="100.757727"/>
      </g>
     </g>
     <g id="text_17">
      <!-- 1400 -->
      <g transform="translate(57.55 104.556946)scale(0.1 -0.1)">
       <use xlink:href="#DejaVuSans-49"/>
       <use x="63.623047" xlink:href="#DejaVuSans-52"/>
       <use x="127.246094" xlink:href="#DejaVuSans-48"/>
       <use x="190.869141" xlink:href="#DejaVuSans-48"/>
      </g>
     </g>
    </g>
    <g id="text_18">
     <!-- Cumulative cases -->
     <g transform="translate(51.470312 402.425781)rotate(-90)scale(0.1 -0.1)">
      <defs>
       <path d="M 64.40625 67.28125 
L 64.40625 56.890625 
Q 59.421875 61.53125 53.78125 63.8125 
Q 48.140625 66.109375 41.796875 66.109375 
Q 29.296875 66.109375 22.65625 58.46875 
Q 16.015625 50.828125 16.015625 36.375 
Q 16.015625 21.96875 22.65625 14.328125 
Q 29.296875 6.6875 41.796875 6.6875 
Q 48.140625 6.6875 53.78125 8.984375 
Q 59.421875 11.28125 64.40625 15.921875 
L 64.40625 5.609375 
Q 59.234375 2.09375 53.4375 0.328125 
Q 47.65625 -1.421875 41.21875 -1.421875 
Q 24.65625 -1.421875 15.125 8.703125 
Q 5.609375 18.84375 5.609375 36.375 
Q 5.609375 53.953125 15.125 64.078125 
Q 24.65625 74.21875 41.21875 74.21875 
Q 47.75 74.21875 53.53125 72.484375 
Q 59.328125 70.75 64.40625 67.28125 
z
" id="DejaVuSans-67"/>
       <path d="M 8.5 21.578125 
L 8.5 54.6875 
L 17.484375 54.6875 
L 17.484375 21.921875 
Q 17.484375 14.15625 20.5 10.265625 
Q 23.53125 6.390625 29.59375 6.390625 
Q 36.859375 6.390625 41.078125 11.03125 
Q 45.3125 15.671875 45.3125 23.6875 
L 45.3125 54.6875 
L 54.296875 54.6875 
L 54.296875 0 
L 45.3125 0 
L 45.3125 8.40625 
Q 42.046875 3.421875 37.71875 1 
Q 33.40625 -1.421875 27.6875 -1.421875 
Q 18.265625 -1.421875 13.375 4.4375 
Q 8.5 10.296875 8.5 21.578125 
z
M 31.109375 56 
z
" id="DejaVuSans-117"/>
       <path d="M 52 44.1875 
Q 55.375 50.25 60.0625 53.125 
Q 64.75 56 71.09375 56 
Q 79.640625 56 84.28125 50.015625 
Q 88.921875 44.046875 88.921875 33.015625 
L 88.921875 0 
L 79.890625 0 
L 79.890625 32.71875 
Q 79.890625 40.578125 77.09375 44.375 
Q 74.3125 48.1875 68.609375 48.1875 
Q 61.625 48.1875 57.5625 43.546875 
Q 53.515625 38.921875 53.515625 30.90625 
L 53.515625 0 
L 44.484375 0 
L 44.484375 32.71875 
Q 44.484375 40.625 41.703125 44.40625 
Q 38.921875 48.1875 33.109375 48.1875 
Q 26.21875 48.1875 22.15625 43.53125 
Q 18.109375 38.875 18.109375 30.90625 
L 18.109375 0 
L 9.078125 0 
L 9.078125 54.6875 
L 18.109375 54.6875 
L 18.109375 46.1875 
Q 21.1875 51.21875 25.484375 53.609375 
Q 29.78125 56 35.6875 56 
Q 41.65625 56 45.828125 52.96875 
Q 50 49.953125 52 44.1875 
z
" id="DejaVuSans-109"/>
       <path d="M 9.421875 75.984375 
L 18.40625 75.984375 
L 18.40625 0 
L 9.421875 0 
z
" id="DejaVuSans-108"/>
       <path d="M 18.3125 70.21875 
L 18.3125 54.6875 
L 36.8125 54.6875 
L 36.8125 47.703125 
L 18.3125 47.703125 
L 18.3125 18.015625 
Q 18.3125 11.328125 20.140625 9.421875 
Q 21.96875 7.515625 27.59375 7.515625 
L 36.8125 7.515625 
L 36.8125 0 
L 27.59375 0 
Q 17.1875 0 13.234375 3.875 
Q 9.28125 7.765625 9.28125 18.015625 
L 9.28125 47.703125 
L 2.6875 47.703125 
L 2.6875 54.6875 
L 9.28125 54.6875 
L 9.28125 70.21875 
z
" id="DejaVuSans-116"/>
       <path d="M 9.421875 54.6875 
L 18.40625 54.6875 
L 18.40625 0 
L 9.421875 0 
z
M 9.421875 75.984375 
L 18.40625 75.984375 
L 18.40625 64.59375 
L 9.421875 64.59375 
z
" id="DejaVuSans-105"/>
       <path d="M 2.984375 54.6875 
L 12.5 54.6875 
L 29.59375 8.796875 
L 46.6875 54.6875 
L 56.203125 54.6875 
L 35.6875 0 
L 23.484375 0 
z
" id="DejaVuSans-118"/>
       <path d="M 56.203125 29.59375 
L 56.203125 25.203125 
L 14.890625 25.203125 
Q 15.484375 15.921875 20.484375 11.0625 
Q 25.484375 6.203125 34.421875 6.203125 
Q 39.59375 6.203125 44.453125 7.46875 
Q 49.3125 8.734375 54.109375 11.28125 
L 54.109375 2.78125 
Q 49.265625 0.734375 44.1875 -0.34375 
Q 39.109375 -1.421875 33.890625 -1.421875 
Q 20.796875 -1.421875 13.15625 6.1875 
Q 5.515625 13.8125 5.515625 26.8125 
Q 5.515625 40.234375 12.765625 48.109375 
Q 20.015625 56 32.328125 56 
Q 43.359375 56 49.78125 48.890625 
Q 56.203125 41.796875 56.203125 29.59375 
z
M 47.21875 32.234375 
Q 47.125 39.59375 43.09375 43.984375 
Q 39.0625 48.390625 32.421875 48.390625 
Q 24.90625 48.390625 20.390625 44.140625 
Q 15.875 39.890625 15.1875 32.171875 
z
" id="DejaVuSans-101"/>
       <path id="DejaVuSans-32"/>
       <path d="M 48.78125 52.59375 
L 48.78125 44.1875 
Q 44.96875 46.296875 41.140625 47.34375 
Q 37.3125 48.390625 33.40625 48.390625 
Q 24.65625 48.390625 19.8125 42.84375 
Q 14.984375 37.3125 14.984375 27.296875 
Q 14.984375 17.28125 19.8125 11.734375 
Q 24.65625 6.203125 33.40625 6.203125 
Q 37.3125 6.203125 41.140625 7.25 
Q 44.96875 8.296875 48.78125 10.40625 
L 48.78125 2.09375 
Q 45.015625 0.34375 40.984375 -0.53125 
Q 36.96875 -1.421875 32.421875 -1.421875 
Q 20.0625 -1.421875 12.78125 6.34375 
Q 5.515625 14.109375 5.515625 27.296875 
Q 5.515625 40.671875 12.859375 48.328125 
Q 20.21875 56 33.015625 56 
Q 37.15625 56 41.109375 55.140625 
Q 45.0625 54.296875 48.78125 52.59375 
z
" id="DejaVuSans-99"/>
      </defs>
      <use xlink:href="#DejaVuSans-67"/>
      <use x="69.824219" xlink:href="#DejaVuSans-117"/>
      <use x="133.203125" xlink:href="#DejaVuSans-109"/>
      <use x="230.615234" xlink:href="#DejaVuSans-117"/>
      <use x="293.994141" xlink:href="#DejaVuSans-108"/>
      <use x="321.777344" xlink:href="#DejaVuSans-97"/>
      <use x="383.056641" xlink:href="#DejaVuSans-116"/>
      <use x="422.265625" xlink:href="#DejaVuSans-105"/>
      <use x="450.048828" xlink:href="#DejaVuSans-118"/>
      <use x="509.228516" xlink:href="#DejaVuSans-101"/>
      <use x="570.751953" xlink:href="#DejaVuSans-32"/>
      <use x="602.539062" xlink:href="#DejaVuSans-99"/>
      <use x="657.519531" xlink:href="#DejaVuSans-97"/>
      <use x="718.798828" xlink:href="#DejaVuSans-115"/>
      <use x="770.898438" xlink:href="#DejaVuSans-101"/>
      <use x="832.421875" xlink:href="#DejaVuSans-115"/>
     </g>
    </g>
   </g>
   <g id="line2d_33">
    <path clip-path="url(#p0ccbc70fe2)" d="M 115.363636 605.290909 
L 128.801325 603.968596 
L 138.879591 602.759758 
L 148.957857 601.327602 
L 159.036123 599.632652 
L 169.114389 597.629172 
L 175.833233 596.096398 
L 182.552077 594.38577 
L 189.270921 592.478237 
L 195.989765 590.353109 
L 202.708609 587.988008 
L 209.427453 585.358865 
L 216.146297 582.439936 
L 222.865141 579.203877 
L 229.583986 575.621875 
L 236.30283 571.663848 
L 243.021674 567.29873 
L 249.740518 562.494858 
L 256.459362 557.22046 
L 263.178206 551.444278 
L 269.89705 545.136307 
L 276.615894 538.26867 
L 283.334738 530.81662 
L 290.053582 522.759645 
L 296.772426 514.082663 
L 303.49127 504.777261 
L 310.210114 494.842914 
L 316.928958 484.288144 
L 323.647803 473.131514 
L 330.366647 461.402389 
L 337.085491 449.141381 
L 343.804335 436.4004 
L 350.523179 423.242247 
L 360.601445 402.884496 
L 374.039133 375.027595 
L 390.836243 340.10365 
L 400.914509 319.655481 
L 407.633353 306.415205 
L 414.352197 293.576942 
L 421.071042 281.205782 
L 427.789886 269.356075 
L 434.50873 258.070922 
L 441.227574 247.382133 
L 447.946418 237.310585 
L 454.665262 227.866923 
L 461.384106 219.052515 
L 468.10295 210.860573 
L 474.821794 203.277373 
L 481.540638 196.283491 
L 488.259482 189.85501 
L 494.978326 183.96465 
L 501.69717 178.582793 
L 508.416014 173.678389 
L 515.134859 169.219721 
L 521.853703 165.175056 
L 528.572547 161.51316 
L 535.291391 158.203707 
L 542.010235 155.217587 
L 548.729079 152.527119 
L 555.447923 150.106202 
L 562.166767 147.930393 
L 568.885611 145.976944 
L 575.604455 144.224797 
L 582.323299 142.654548 
L 589.042143 141.248386 
L 599.120409 139.411579 
L 609.198675 137.858678 
L 619.276942 136.547292 
L 622.636364 136.157369 
L 622.636364 136.157369 
" style="fill:none;stroke:#1f77b4;stroke-linecap:square;stroke-width:1.5;"/>
   </g>
   <g id="line2d_34">
    <path clip-path="url(#p0ccbc70fe2)" d="M 115.363636 605.290909 
L 125.441902 603.568921 
L 135.520169 601.595186 
L 145.598435 599.335437 
L 155.676701 596.751552 
L 162.395545 594.828239 
L 169.114389 592.728707 
L 175.833233 590.438632 
L 182.552077 587.942884 
L 189.270921 585.225562 
L 195.989765 582.270035 
L 202.708609 579.059017 
L 209.427453 575.574658 
L 216.146297 571.798673 
L 222.865141 567.712497 
L 229.583986 563.297482 
L 236.30283 558.535126 
L 243.021674 553.407353 
L 249.740518 547.896826 
L 256.459362 541.987307 
L 263.178206 535.664059 
L 269.89705 528.914281 
L 276.615894 521.727574 
L 283.334738 514.096424 
L 290.053582 506.016698 
L 296.772426 497.488126 
L 303.49127 488.514756 
L 310.210114 479.105368 
L 316.928958 469.273812 
L 323.647803 459.039255 
L 330.366647 448.426315 
L 337.085491 437.46506 
L 347.163757 420.448841 
L 357.242023 402.869641 
L 370.679711 378.836138 
L 400.914509 324.378838 
L 410.992775 306.764491 
L 421.071042 289.701968 
L 427.789886 278.704483 
L 434.50873 268.051679 
L 441.227574 257.774218 
L 447.946418 247.897319 
L 454.665262 238.440745 
L 461.384106 229.41892 
L 468.10295 220.841164 
L 474.821794 212.71203 
L 481.540638 205.031699 
L 488.259482 197.796439 
L 494.978326 190.999085 
L 501.69717 184.62953 
L 508.416014 178.675214 
L 515.134859 173.121591 
L 521.853703 167.952569 
L 528.572547 163.150912 
L 535.291391 158.698609 
L 542.010235 154.577192 
L 548.729079 150.768015 
L 555.447923 147.252495 
L 562.166767 144.012307 
L 568.885611 141.029548 
L 575.604455 138.286863 
L 582.323299 135.767547 
L 589.042143 133.455614 
L 595.760987 131.335849 
L 602.479831 129.393837 
L 609.198675 127.615982 
L 619.276942 125.229254 
L 622.636364 124.502423 
L 622.636364 124.502423 
" style="fill:none;stroke:#ff7f0e;stroke-linecap:square;stroke-width:1.5;"/>
   </g>
   <g id="line2d_35">
    <path clip-path="url(#p0ccbc70fe2)" d="M 115.363636 605.290909 
L 125.441902 603.725402 
L 135.520169 601.911877 
L 145.598435 599.813684 
L 152.317279 598.236613 
L 159.036123 596.501476 
L 165.754967 594.593956 
L 172.473811 592.498771 
L 179.192655 590.199673 
L 185.911499 587.679482 
L 192.630343 584.920131 
L 199.349187 581.902743 
L 206.068031 578.607739 
L 212.786875 575.014989 
L 219.505719 571.104001 
L 226.224564 566.854152 
L 232.943408 562.244982 
L 239.662252 557.25653 
L 246.381096 551.869728 
L 253.09994 546.066847 
L 259.818784 539.831993 
L 266.537628 533.15164 
L 273.256472 526.015191 
L 279.975316 518.415556 
L 286.69416 510.34972 
L 293.413004 501.819274 
L 300.131848 492.830903 
L 306.850692 483.396768 
L 313.569536 473.534789 
L 320.28838 463.268772 
L 327.007225 452.628387 
L 333.726069 441.648946 
L 343.804335 424.634088 
L 353.882601 407.104518 
L 367.320289 383.232225 
L 390.836243 341.306132 
L 400.914509 323.742321 
L 410.992775 306.651284 
L 417.71162 295.585762 
L 424.430464 284.821989 
L 431.149308 274.387558 
L 437.868152 264.304887 
L 444.586996 254.59135 
L 451.30584 245.259507 
L 458.024684 236.317438 
L 464.743528 227.76913 
L 471.462372 219.614913 
L 478.181216 211.851907 
L 484.90006 204.474479 
L 491.618904 197.474687 
L 498.337748 190.842695 
L 505.056592 184.567168 
L 511.775436 178.635617 
L 518.494281 173.034722 
L 525.213125 167.750601 
L 531.931969 162.769051 
L 538.650813 158.075749 
L 545.369657 153.656415 
L 552.088501 149.496957 
L 558.807345 145.583572 
L 565.526189 141.902835 
L 572.245033 138.441767 
L 578.963877 135.187875 
L 585.682721 132.129189 
L 592.401565 129.254278 
L 599.120409 126.552264 
L 609.198675 122.800977 
L 619.276942 119.383022 
L 622.636364 118.312534 
L 622.636364 118.312534 
" style="fill:none;stroke:#2ca02c;stroke-linecap:square;stroke-width:1.5;"/>
   </g>
   <g id="line2d_36">
    <path clip-path="url(#p0ccbc70fe2)" d="M 115.363636 605.290909 
L 125.441902 603.832068 
L 135.520169 602.126066 
L 145.598435 600.136249 
L 152.317279 598.631868 
L 159.036123 596.969724 
L 165.754967 595.135437 
L 172.473811 593.113627 
L 179.192655 590.887922 
L 185.911499 588.440972 
L 192.630343 585.754492 
L 199.349187 582.809332 
L 206.068031 579.585577 
L 212.786875 576.062686 
L 219.505719 572.21967 
L 226.224564 568.035325 
L 232.943408 563.488508 
L 239.662252 558.558472 
L 246.381096 553.225259 
L 253.09994 547.470147 
L 259.818784 541.276153 
L 266.537628 534.628574 
L 273.256472 527.515577 
L 279.975316 519.928796 
L 286.69416 511.863941 
L 293.413004 503.321377 
L 300.131848 494.306656 
L 306.850692 484.830972 
L 313.569536 474.911496 
L 320.28838 464.571574 
L 327.007225 453.840764 
L 333.726069 442.754672 
L 343.804335 425.551143 
L 353.882601 407.80261 
L 367.320289 383.603264 
L 390.836243 341.071635 
L 400.914509 323.263496 
L 410.992775 305.95262 
L 417.71162 294.758686 
L 424.430464 283.883649 
L 431.149308 273.356857 
L 437.868152 263.202003 
L 444.586996 253.437245 
L 451.30584 244.07545 
L 458.024684 235.124554 
L 464.743528 226.58799 
L 471.462372 218.465175 
L 478.181216 210.752014 
L 484.90006 203.44142 
L 491.618904 196.52381 
L 498.337748 189.987584 
L 505.056592 183.819569 
L 511.775436 178.005413 
L 518.494281 172.529946 
L 525.213125 167.377485 
L 531.931969 162.532103 
L 538.650813 157.977847 
L 545.369657 153.698927 
L 552.088501 149.679858 
L 558.807345 145.905577 
L 565.526189 142.361533 
L 572.245033 139.033749 
L 578.963877 135.908866 
L 585.682721 132.974172 
L 592.401565 130.217613 
L 599.120409 127.627794 
L 609.198675 124.032383 
L 619.276942 120.754549 
L 622.636364 119.727155 
L 622.636364 119.727155 
" style="fill:none;stroke:#d62728;stroke-linecap:square;stroke-width:1.5;"/>
   </g>
   <g id="line2d_37">
    <path clip-path="url(#p0ccbc70fe2)" d="M 115.363636 605.290909 
L 118.723058 605.180494 
L 122.08248 604.893043 
L 128.801325 603.965259 
L 135.520169 602.729404 
L 142.239013 601.27854 
L 148.957857 599.647705 
L 155.676701 597.845529 
L 162.395545 595.868374 
L 169.114389 593.706659 
L 175.833233 591.347708 
L 182.552077 588.77704 
L 189.270921 585.978977 
L 195.989765 582.936963 
L 202.708609 579.633757 
L 209.427453 576.0516 
L 216.146297 572.172381 
L 222.865141 567.977818 
L 229.583986 563.449685 
L 236.30283 558.570057 
L 243.021674 553.321612 
L 249.740518 547.687962 
L 256.459362 541.654025 
L 263.178206 535.206439 
L 269.89705 528.333995 
L 276.615894 521.0281 
L 283.334738 513.283244 
L 290.053582 505.09747 
L 296.772426 496.472811 
L 303.49127 487.415699 
L 310.210114 477.937305 
L 316.928958 468.0538 
L 323.647803 457.786512 
L 330.366647 447.161964 
L 337.085491 436.211773 
L 347.163757 419.25691 
L 357.242023 401.793765 
L 370.679711 377.996365 
L 397.555087 330.192553 
L 407.633353 312.725701 
L 417.71162 295.757307 
L 424.430464 284.789187 
L 431.149308 274.137008 
L 437.868152 263.830204 
L 444.586996 253.893258 
L 451.30584 244.345696 
L 458.024684 235.202193 
L 464.743528 226.472792 
L 471.462372 218.163192 
L 478.181216 210.275105 
L 484.90006 202.806652 
L 491.618904 195.752788 
L 498.337748 189.105729 
L 505.056592 182.855381 
L 511.775436 176.989744 
L 518.494281 171.495305 
L 525.213125 166.357387 
L 531.931969 161.560475 
L 538.650813 157.088501 
L 545.369657 152.925097 
L 552.088501 149.053807 
L 558.807345 145.458271 
L 565.526189 142.122377 
L 572.245033 139.030383 
L 578.963877 136.167014 
L 585.682721 133.517538 
L 592.401565 131.06782 
L 599.120409 128.804359 
L 605.839253 126.714315 
L 615.91752 123.877969 
L 622.636364 122.169696 
L 622.636364 122.169696 
" style="fill:none;stroke:#9467bd;stroke-linecap:square;stroke-width:1.5;"/>
   </g>
   <g id="line2d_38">
    <path clip-path="url(#p0ccbc70fe2)" d="M 115.363636 605.290909 
L 118.723058 605.180494 
L 122.08248 604.893043 
L 128.801325 603.965259 
L 135.520169 602.729404 
L 142.239013 601.27854 
L 148.957857 599.647705 
L 155.676701 597.845529 
L 162.395545 595.868373 
L 169.114389 593.706658 
L 175.833233 591.347708 
L 182.552077 588.777039 
L 189.270921 585.978977 
L 195.989765 582.936963 
L 202.708609 579.633756 
L 209.427453 576.0516 
L 216.146297 572.17238 
L 222.865141 567.977818 
L 229.583986 563.449685 
L 236.30283 558.570057 
L 243.021674 553.321612 
L 249.740518 547.687961 
L 256.459362 541.654025 
L 263.178206 535.206439 
L 269.89705 528.333995 
L 276.615894 521.028099 
L 283.334738 513.283244 
L 290.053582 505.09747 
L 296.772426 496.472811 
L 303.49127 487.415699 
L 310.210114 477.937305 
L 316.928958 468.0538 
L 323.647803 457.786512 
L 330.366647 447.161964 
L 337.085491 436.211773 
L 347.163757 419.25691 
L 357.242023 401.793765 
L 370.679711 377.996365 
L 397.555087 330.192553 
L 407.633353 312.725701 
L 417.71162 295.757307 
L 424.430464 284.789188 
L 431.149308 274.137008 
L 437.868152 263.830204 
L 444.586996 253.893258 
L 451.30584 244.345696 
L 458.024684 235.202193 
L 464.743528 226.472792 
L 471.462372 218.163192 
L 478.181216 210.275105 
L 484.90006 202.806652 
L 491.618904 195.752788 
L 498.337748 189.105729 
L 505.056592 182.855381 
L 511.775436 176.989744 
L 518.494281 171.495305 
L 525.213125 166.357386 
L 531.931969 161.560474 
L 538.650813 157.088501 
L 545.369657 152.925097 
L 552.088501 149.053806 
L 558.807345 145.45827 
L 565.526189 142.122376 
L 572.245033 139.030382 
L 578.963877 136.167014 
L 585.682721 133.517538 
L 592.401565 131.067819 
L 599.120409 128.804358 
L 605.839253 126.714314 
L 615.91752 123.877968 
L 622.636364 122.169695 
L 622.636364 122.169695 
" style="fill:none;stroke:#8c564b;stroke-linecap:square;stroke-width:1.5;"/>
   </g>
   <g id="line2d_39">
    <path clip-path="url(#p0ccbc70fe2)" d="M 115.363636 605.290909 
L 118.723058 605.1732 
L 122.08248 604.86964 
L 128.801325 603.90247 
L 135.520169 602.629335 
L 142.239013 601.146048 
L 148.957857 599.486659 
L 155.676701 597.658476 
L 162.395545 595.656969 
L 169.114389 593.472119 
L 175.833233 591.091132 
L 182.552077 588.499618 
L 189.270921 585.682118 
L 195.989765 582.622379 
L 202.708609 579.30352 
L 209.427453 575.708184 
L 216.146297 571.81869 
L 222.865141 567.617212 
L 229.583986 563.085986 
L 236.30283 558.207555 
L 243.021674 552.96505 
L 249.740518 547.342512 
L 256.459362 541.325244 
L 263.178206 534.900208 
L 269.89705 528.056437 
L 276.615894 520.785481 
L 283.334738 513.081846 
L 290.053582 504.943448 
L 296.772426 496.372034 
L 303.49127 487.373572 
L 310.210114 477.958583 
L 316.928958 468.142398 
L 323.647803 457.945318 
L 330.366647 447.392664 
L 337.085491 436.514695 
L 347.163757 419.665504 
L 357.242023 402.300039 
L 370.679711 378.610957 
L 400.914509 325.034665 
L 410.992775 307.691934 
L 421.071042 290.863091 
L 427.789886 279.993073 
L 434.50873 269.44067 
L 441.227574 259.23341 
L 447.946418 249.394022 
L 454.665262 239.940467 
L 461.384106 230.886067 
L 468.10295 222.239729 
L 474.821794 214.006243 
L 481.540638 206.186632 
L 488.259482 198.778542 
L 494.978326 191.776644 
L 501.69717 185.173051 
L 508.416014 178.957718 
L 515.134859 173.118835 
L 521.853703 167.643184 
L 528.572547 162.516479 
L 535.291391 157.723664 
L 542.010235 153.249183 
L 548.729079 149.077212 
L 555.447923 145.191859 
L 562.166767 141.577335 
L 568.885611 138.218096 
L 575.604455 135.098953 
L 582.323299 132.205163 
L 589.042143 129.522503 
L 595.760987 127.037314 
L 602.479831 124.736543 
L 609.198675 122.607759 
L 619.276942 119.711438 
L 622.636364 118.819621 
L 622.636364 118.819621 
" style="fill:none;stroke:#e377c2;stroke-linecap:square;stroke-width:1.5;"/>
   </g>
   <g id="line2d_40">
    <path clip-path="url(#p0ccbc70fe2)" d="M 115.363636 605.290909 
L 122.08248 605.117138 
L 128.801325 604.637279 
L 135.520169 603.897455 
L 142.239013 602.927024 
L 148.957857 601.742969 
L 155.676701 600.353025 
L 162.395545 598.757928 
L 169.114389 596.953015 
L 175.833233 594.929398 
L 182.552077 592.674821 
L 189.270921 590.174303 
L 195.989765 587.410642 
L 202.708609 584.364832 
L 209.427453 581.016437 
L 216.146297 577.343937 
L 222.865141 573.325099 
L 229.583986 568.937363 
L 236.30283 564.158274 
L 243.021674 558.965964 
L 249.740518 553.339685 
L 256.459362 547.260399 
L 263.178206 540.711418 
L 269.89705 533.679075 
L 276.615894 526.153423 
L 283.334738 518.128921 
L 290.053582 509.605093 
L 296.772426 500.587119 
L 303.49127 491.086326 
L 310.210114 481.120537 
L 316.928958 470.714254 
L 323.647803 459.898637 
L 330.366647 448.711269 
L 337.085491 437.1957 
L 347.163757 419.415028 
L 360.601445 395.048674 
L 390.836243 339.763498 
L 400.914509 321.876888 
L 410.992775 304.540904 
L 417.71162 293.355947 
L 424.430464 282.507489 
L 431.149308 272.022378 
L 437.868152 261.921996 
L 444.586996 252.222473 
L 451.30584 242.935005 
L 458.024684 234.066239 
L 464.743528 225.618711 
L 471.462372 217.591307 
L 478.181216 209.979732 
L 484.90006 202.776976 
L 491.618904 195.973753 
L 498.337748 189.558919 
L 505.056592 183.519854 
L 511.775436 177.842807 
L 518.494281 172.513203 
L 525.213125 167.515914 
L 531.931969 162.835492 
L 538.650813 158.456368 
L 545.369657 154.363022 
L 552.088501 150.540117 
L 558.807345 146.972616 
L 565.526189 143.645869 
L 572.245033 140.545686 
L 578.963877 137.658386 
L 585.682721 134.970839 
L 592.401565 132.470489 
L 599.120409 130.145366 
L 605.839253 127.984098 
L 615.91752 125.026001 
L 622.636364 123.228486 
L 622.636364 123.228486 
" style="fill:none;stroke:#7f7f7f;stroke-linecap:square;stroke-width:1.5;"/>
   </g>
   <g id="line2d_41">
    <path clip-path="url(#p0ccbc70fe2)" d="M 115.363636 605.290909 
L 122.08248 605.124448 
L 128.801325 604.658125 
L 135.520169 603.928355 
L 142.239013 602.95763 
L 148.957857 601.757997 
L 155.676701 600.333559 
L 162.395545 598.682312 
L 169.114389 596.797492 
L 175.833233 594.66859 
L 182.552077 592.282133 
L 189.270921 589.622312 
L 195.989765 586.671508 
L 202.708609 583.410762 
L 209.427453 579.820225 
L 216.146297 575.879602 
L 222.865141 571.568616 
L 229.583986 566.867508 
L 236.30283 561.757557 
L 243.021674 556.221649 
L 249.740518 550.244861 
L 256.459362 543.815072 
L 263.178206 536.923569 
L 269.89705 529.565627 
L 276.615894 521.741044 
L 283.334738 513.454598 
L 290.053582 504.716396 
L 296.772426 495.542087 
L 303.49127 485.952917 
L 310.210114 475.975613 
L 316.928958 465.642086 
L 323.647803 454.988956 
L 333.726069 438.499954 
L 343.804335 421.534552 
L 357.242023 398.450563 
L 384.117399 352.116978 
L 394.195665 335.13319 
L 404.273931 318.555295 
L 414.352197 302.480204 
L 424.430464 286.984977 
L 431.149308 277.006343 
L 437.868152 267.324309 
L 444.586996 257.948412 
L 451.30584 248.885248 
L 458.024684 240.138772 
L 464.743528 231.710594 
L 471.462372 223.600267 
L 478.181216 215.80557 
L 484.90006 208.322765 
L 491.618904 201.146838 
L 498.337748 194.271719 
L 505.056592 187.690476 
L 511.775436 181.395495 
L 518.494281 175.378629 
L 525.213125 169.63134 
L 531.931969 164.144811 
L 538.650813 158.910049 
L 545.369657 153.917969 
L 552.088501 149.159472 
L 558.807345 144.625499 
L 565.526189 140.307088 
L 572.245033 136.195412 
L 578.963877 132.281812 
L 585.682721 128.557829 
L 592.401565 125.015219 
L 599.120409 121.645973 
L 609.198675 116.900252 
L 619.276942 112.502072 
L 622.636364 111.109091 
L 622.636364 111.109091 
" style="fill:none;stroke:#bcbd22;stroke-linecap:square;stroke-width:1.5;"/>
   </g>
   <g id="line2d_42">
    <path clip-path="url(#p0ccbc70fe2)" d="M 115.363636 605.290909 
L 118.723058 605.290909 
L 122.08248 599.102551 
L 125.441902 599.102551 
L 128.801325 596.918425 
L 132.160747 592.914193 
L 135.520169 592.186151 
L 138.879591 588.909962 
L 148.957857 588.909962 
L 152.317279 582.721604 
L 155.676701 582.721604 
L 159.036123 577.261288 
L 162.395545 574.349119 
L 165.754967 573.621077 
L 172.473811 573.621077 
L 175.833233 567.79674 
L 179.192655 566.704677 
L 182.552077 565.248593 
L 185.911499 565.248593 
L 189.270921 559.060235 
L 195.989765 559.060235 
L 199.349187 555.056004 
L 202.708609 554.327961 
L 206.068031 552.871877 
L 209.427453 549.959709 
L 212.786875 548.503625 
L 216.146297 545.591456 
L 219.505719 541.587224 
L 222.865141 537.947014 
L 229.583986 537.947014 
L 232.943408 533.578761 
L 236.30283 533.578761 
L 243.021674 532.122677 
L 249.740518 529.210509 
L 256.459362 527.026382 
L 259.818784 525.570298 
L 263.178206 523.750193 
L 266.537628 523.022151 
L 269.89705 519.745961 
L 273.256472 517.561835 
L 276.615894 513.921624 
L 279.975316 513.921624 
L 283.334738 513.557603 
L 286.69416 513.557603 
L 290.053582 512.46554 
L 293.413004 511.009456 
L 296.772426 508.461308 
L 303.49127 502.636972 
L 306.850692 497.176656 
L 313.569536 493.536445 
L 316.928958 488.804171 
L 320.28838 484.79994 
L 323.647803 479.703645 
L 327.007225 475.699414 
L 330.366647 470.96714 
L 333.726069 465.870845 
L 337.085491 461.138571 
L 340.444913 457.13434 
L 343.804335 448.033813 
L 347.163757 443.665561 
L 350.523179 429.104718 
L 353.882601 425.100487 
L 357.242023 422.552339 
L 360.601445 413.087792 
L 363.960867 398.890971 
L 367.320289 391.61055 
L 370.679711 382.510023 
L 374.039133 373.773518 
L 377.398555 373.045476 
L 380.757977 369.405265 
L 384.117399 362.488865 
L 387.476821 361.396802 
L 390.836243 345.015855 
L 394.195665 330.819034 
L 397.555087 330.090992 
L 400.914509 326.450781 
L 404.273931 317.714276 
L 407.633353 312.25396 
L 410.992775 307.157665 
L 414.352197 294.052907 
L 417.71162 292.232802 
L 421.071042 286.044444 
L 424.430464 276.579896 
L 427.789886 273.303707 
L 431.149308 262.019054 
L 434.50873 259.834928 
L 437.868152 247.094191 
L 441.227574 242.725938 
L 444.586996 237.629644 
L 447.946418 237.629644 
L 451.30584 225.98097 
L 454.665262 220.884675 
L 458.024684 215.424359 
L 464.743528 213.240233 
L 468.10295 207.415896 
L 471.462372 207.051875 
L 474.821794 204.867749 
L 478.181216 203.775685 
L 481.540638 197.223306 
L 484.90006 189.942885 
L 488.259482 187.394738 
L 491.618904 185.574633 
L 494.978326 181.934422 
L 501.69717 180.478338 
L 505.056592 178.658233 
L 508.416014 177.566169 
L 511.775436 171.013791 
L 515.134859 168.465643 
L 518.494281 167.737601 
L 521.853703 165.917496 
L 525.213125 164.825433 
L 528.572547 162.641306 
L 531.931969 161.185222 
L 538.650813 159.001096 
L 542.010235 155.360885 
L 545.369657 154.632843 
L 552.088501 154.632843 
L 555.447923 152.812738 
L 558.807345 152.812738 
L 562.166767 145.532317 
L 565.526189 143.712211 
L 568.885611 143.712211 
L 572.245033 142.984169 
L 578.963877 142.256127 
L 582.323299 142.256127 
L 585.682721 140.800043 
L 589.042143 138.979938 
L 592.401565 137.887875 
L 599.120409 137.887875 
L 602.479831 135.703748 
L 609.198675 135.703748 
L 612.558098 135.339727 
L 615.91752 135.339727 
L 619.276942 134.975706 
L 622.636364 134.975706 
L 622.636364 134.975706 
" style="fill:none;stroke:#17becf;stroke-dasharray:14.8,6.4;stroke-dashoffset:0;stroke-width:4;"/>
   </g>
   <g id="patch_3">
    <path d="M 90 630 
L 90 86.4 
" style="fill:none;stroke:#000000;stroke-linecap:square;stroke-linejoin:miter;stroke-width:0.8;"/>
   </g>
   <g id="patch_4">
    <path d="M 648 630 
L 648 86.4 
" style="fill:none;stroke:#000000;stroke-linecap:square;stroke-linejoin:miter;stroke-width:0.8;"/>
   </g>
   <g id="patch_5">
    <path d="M 90 630 
L 648 630 
" style="fill:none;stroke:#000000;stroke-linecap:square;stroke-linejoin:miter;stroke-width:0.8;"/>
   </g>
   <g id="patch_6">
    <path d="M 90 86.4 
L 648 86.4 
" style="fill:none;stroke:#000000;stroke-linecap:square;stroke-linejoin:miter;stroke-width:0.8;"/>
   </g>
   <g id="text_19">
    <!-- Liberia relative err =  -->
    <g transform="translate(304.874063 80.4)scale(0.12 -0.12)">
     <defs>
      <path d="M 9.8125 72.90625 
L 19.671875 72.90625 
L 19.671875 8.296875 
L 55.171875 8.296875 
L 55.171875 0 
L 9.8125 0 
z
" id="DejaVuSans-76"/>
      <path d="M 48.6875 27.296875 
Q 48.6875 37.203125 44.609375 42.84375 
Q 40.53125 48.484375 33.40625 48.484375 
Q 26.265625 48.484375 22.1875 42.84375 
Q 18.109375 37.203125 18.109375 27.296875 
Q 18.109375 17.390625 22.1875 11.75 
Q 26.265625 6.109375 33.40625 6.109375 
Q 40.53125 6.109375 44.609375 11.75 
Q 48.6875 17.390625 48.6875 27.296875 
z
M 18.109375 46.390625 
Q 20.953125 51.265625 25.265625 53.625 
Q 29.59375 56 35.59375 56 
Q 45.5625 56 51.78125 48.09375 
Q 58.015625 40.1875 58.015625 27.296875 
Q 58.015625 14.40625 51.78125 6.484375 
Q 45.5625 -1.421875 35.59375 -1.421875 
Q 29.59375 -1.421875 25.265625 0.953125 
Q 20.953125 3.328125 18.109375 8.203125 
L 18.109375 0 
L 9.078125 0 
L 9.078125 75.984375 
L 18.109375 75.984375 
z
" id="DejaVuSans-98"/>
      <path d="M 41.109375 46.296875 
Q 39.59375 47.171875 37.8125 47.578125 
Q 36.03125 48 33.890625 48 
Q 26.265625 48 22.1875 43.046875 
Q 18.109375 38.09375 18.109375 28.8125 
L 18.109375 0 
L 9.078125 0 
L 9.078125 54.6875 
L 18.109375 54.6875 
L 18.109375 46.1875 
Q 20.953125 51.171875 25.484375 53.578125 
Q 30.03125 56 36.53125 56 
Q 37.453125 56 38.578125 55.875 
Q 39.703125 55.765625 41.0625 55.515625 
z
" id="DejaVuSans-114"/>
      <path d="M 10.59375 45.40625 
L 73.1875 45.40625 
L 73.1875 37.203125 
L 10.59375 37.203125 
z
M 10.59375 25.484375 
L 73.1875 25.484375 
L 73.1875 17.1875 
L 10.59375 17.1875 
z
" id="DejaVuSans-61"/>
     </defs>
     <use xlink:href="#DejaVuSans-76"/>
     <use x="55.712891" xlink:href="#DejaVuSans-105"/>
     <use x="83.496094" xlink:href="#DejaVuSans-98"/>
     <use x="146.972656" xlink:href="#DejaVuSans-101"/>
     <use x="208.496094" xlink:href="#DejaVuSans-114"/>
     <use x="249.609375" xlink:href="#DejaVuSans-105"/>
     <use x="277.392578" xlink:href="#DejaVuSans-97"/>
     <use x="338.671875" xlink:href="#DejaVuSans-32"/>
     <use x="370.458984" xlink:href="#DejaVuSans-114"/>
     <use x="409.322266" xlink:href="#DejaVuSans-101"/>
     <use x="470.845703" xlink:href="#DejaVuSans-108"/>
     <use x="498.628906" xlink:href="#DejaVuSans-97"/>
     <use x="559.908203" xlink:href="#DejaVuSans-116"/>
     <use x="599.117188" xlink:href="#DejaVuSans-105"/>
     <use x="626.900391" xlink:href="#DejaVuSans-118"/>
     <use x="686.080078" xlink:href="#DejaVuSans-101"/>
     <use x="747.603516" xlink:href="#DejaVuSans-32"/>
     <use x="779.390625" xlink:href="#DejaVuSans-101"/>
     <use x="840.914062" xlink:href="#DejaVuSans-114"/>
     <use x="880.277344" xlink:href="#DejaVuSans-114"/>
     <use x="921.390625" xlink:href="#DejaVuSans-32"/>
     <use x="953.177734" xlink:href="#DejaVuSans-61"/>
     <use x="1036.966797" xlink:href="#DejaVuSans-32"/>
    </g>
   </g>
   <g id="legend_1">
    <g id="patch_7">
     <path d="M 97 226.503125 
L 185.6 226.503125 
Q 187.6 226.503125 187.6 224.503125 
L 187.6 93.4 
Q 187.6 91.4 185.6 91.4 
L 97 91.4 
Q 95 91.4 95 93.4 
L 95 224.503125 
Q 95 226.503125 97 226.503125 
z
" style="fill:#ffffff;opacity:0.8;stroke:#cccccc;stroke-linejoin:miter;"/>
    </g>
    <g id="line2d_43">
     <path d="M 99 99.498438 
L 119 99.498438 
" style="fill:none;stroke:#1f77b4;stroke-linecap:square;stroke-width:1.5;"/>
    </g>
    <g id="line2d_44"/>
    <g id="text_20">
     <!-- SI -->
     <g transform="translate(127 102.998438)scale(0.1 -0.1)">
      <defs>
       <path d="M 53.515625 70.515625 
L 53.515625 60.890625 
Q 47.90625 63.578125 42.921875 64.890625 
Q 37.9375 66.21875 33.296875 66.21875 
Q 25.25 66.21875 20.875 63.09375 
Q 16.5 59.96875 16.5 54.203125 
Q 16.5 49.359375 19.40625 46.890625 
Q 22.3125 44.4375 30.421875 42.921875 
L 36.375 41.703125 
Q 47.40625 39.59375 52.65625 34.296875 
Q 57.90625 29 57.90625 20.125 
Q 57.90625 9.515625 50.796875 4.046875 
Q 43.703125 -1.421875 29.984375 -1.421875 
Q 24.8125 -1.421875 18.96875 -0.25 
Q 13.140625 0.921875 6.890625 3.21875 
L 6.890625 13.375 
Q 12.890625 10.015625 18.65625 8.296875 
Q 24.421875 6.59375 29.984375 6.59375 
Q 38.421875 6.59375 43.015625 9.90625 
Q 47.609375 13.234375 47.609375 19.390625 
Q 47.609375 24.75 44.3125 27.78125 
Q 41.015625 30.8125 33.5 32.328125 
L 27.484375 33.5 
Q 16.453125 35.6875 11.515625 40.375 
Q 6.59375 45.0625 6.59375 53.421875 
Q 6.59375 63.09375 13.40625 68.65625 
Q 20.21875 74.21875 32.171875 74.21875 
Q 37.3125 74.21875 42.625 73.28125 
Q 47.953125 72.359375 53.515625 70.515625 
z
" id="DejaVuSans-83"/>
       <path d="M 9.8125 72.90625 
L 19.671875 72.90625 
L 19.671875 0 
L 9.8125 0 
z
" id="DejaVuSans-73"/>
      </defs>
      <use xlink:href="#DejaVuSans-83"/>
      <use x="63.476562" xlink:href="#DejaVuSans-73"/>
     </g>
    </g>
    <g id="line2d_45">
     <path d="M 99 114.176563 
L 119 114.176563 
" style="fill:none;stroke:#ff7f0e;stroke-linecap:square;stroke-width:1.5;"/>
    </g>
    <g id="line2d_46"/>
    <g id="text_21">
     <!-- BD -->
     <g transform="translate(127 117.676563)scale(0.1 -0.1)">
      <defs>
       <path d="M 19.671875 34.8125 
L 19.671875 8.109375 
L 35.5 8.109375 
Q 43.453125 8.109375 47.28125 11.40625 
Q 51.125 14.703125 51.125 21.484375 
Q 51.125 28.328125 47.28125 31.5625 
Q 43.453125 34.8125 35.5 34.8125 
z
M 19.671875 64.796875 
L 19.671875 42.828125 
L 34.28125 42.828125 
Q 41.5 42.828125 45.03125 45.53125 
Q 48.578125 48.25 48.578125 53.8125 
Q 48.578125 59.328125 45.03125 62.0625 
Q 41.5 64.796875 34.28125 64.796875 
z
M 9.8125 72.90625 
L 35.015625 72.90625 
Q 46.296875 72.90625 52.390625 68.21875 
Q 58.5 63.53125 58.5 54.890625 
Q 58.5 48.1875 55.375 44.234375 
Q 52.25 40.28125 46.1875 39.3125 
Q 53.46875 37.75 57.5 32.78125 
Q 61.53125 27.828125 61.53125 20.40625 
Q 61.53125 10.640625 54.890625 5.3125 
Q 48.25 0 35.984375 0 
L 9.8125 0 
z
" id="DejaVuSans-66"/>
      </defs>
      <use xlink:href="#DejaVuSans-66"/>
      <use x="68.603516" xlink:href="#DejaVuSans-68"/>
     </g>
    </g>
    <g id="line2d_47">
     <path d="M 99 128.854688 
L 119 128.854688 
" style="fill:none;stroke:#2ca02c;stroke-linecap:square;stroke-width:1.5;"/>
    </g>
    <g id="line2d_48"/>
    <g id="text_22">
     <!-- SIR -->
     <g transform="translate(127 132.354688)scale(0.1 -0.1)">
      <defs>
       <path d="M 44.390625 34.1875 
Q 47.5625 33.109375 50.5625 29.59375 
Q 53.5625 26.078125 56.59375 19.921875 
L 66.609375 0 
L 56 0 
L 46.6875 18.703125 
Q 43.0625 26.03125 39.671875 28.421875 
Q 36.28125 30.8125 30.421875 30.8125 
L 19.671875 30.8125 
L 19.671875 0 
L 9.8125 0 
L 9.8125 72.90625 
L 32.078125 72.90625 
Q 44.578125 72.90625 50.734375 67.671875 
Q 56.890625 62.453125 56.890625 51.90625 
Q 56.890625 45.015625 53.6875 40.46875 
Q 50.484375 35.9375 44.390625 34.1875 
z
M 19.671875 64.796875 
L 19.671875 38.921875 
L 32.078125 38.921875 
Q 39.203125 38.921875 42.84375 42.21875 
Q 46.484375 45.515625 46.484375 51.90625 
Q 46.484375 58.296875 42.84375 61.546875 
Q 39.203125 64.796875 32.078125 64.796875 
z
" id="DejaVuSans-82"/>
      </defs>
      <use xlink:href="#DejaVuSans-83"/>
      <use x="63.476562" xlink:href="#DejaVuSans-73"/>
      <use x="92.96875" xlink:href="#DejaVuSans-82"/>
     </g>
    </g>
    <g id="line2d_49">
     <path d="M 99 143.532812 
L 119 143.532812 
" style="fill:none;stroke:#d62728;stroke-linecap:square;stroke-width:1.5;"/>
    </g>
    <g id="line2d_50"/>
    <g id="text_23">
     <!-- eSIR -->
     <g transform="translate(127 147.032812)scale(0.1 -0.1)">
      <use xlink:href="#DejaVuSans-101"/>
      <use x="61.523438" xlink:href="#DejaVuSans-83"/>
      <use x="125" xlink:href="#DejaVuSans-73"/>
      <use x="154.492188" xlink:href="#DejaVuSans-82"/>
     </g>
    </g>
    <g id="line2d_51">
     <path d="M 99 158.210938 
L 119 158.210938 
" style="fill:none;stroke:#9467bd;stroke-linecap:square;stroke-width:1.5;"/>
    </g>
    <g id="line2d_52"/>
    <g id="text_24">
     <!-- SEIR -->
     <g transform="translate(127 161.710938)scale(0.1 -0.1)">
      <defs>
       <path d="M 9.8125 72.90625 
L 55.90625 72.90625 
L 55.90625 64.59375 
L 19.671875 64.59375 
L 19.671875 43.015625 
L 54.390625 43.015625 
L 54.390625 34.71875 
L 19.671875 34.71875 
L 19.671875 8.296875 
L 56.78125 8.296875 
L 56.78125 0 
L 9.8125 0 
z
" id="DejaVuSans-69"/>
      </defs>
      <use xlink:href="#DejaVuSans-83"/>
      <use x="63.476562" xlink:href="#DejaVuSans-69"/>
      <use x="126.660156" xlink:href="#DejaVuSans-73"/>
      <use x="156.152344" xlink:href="#DejaVuSans-82"/>
     </g>
    </g>
    <g id="line2d_53">
     <path d="M 99 172.889063 
L 119 172.889063 
" style="fill:none;stroke:#8c564b;stroke-linecap:square;stroke-width:1.5;"/>
    </g>
    <g id="line2d_54"/>
    <g id="text_25">
     <!-- eSEIR -->
     <g transform="translate(127 176.389063)scale(0.1 -0.1)">
      <use xlink:href="#DejaVuSans-101"/>
      <use x="61.523438" xlink:href="#DejaVuSans-83"/>
      <use x="125" xlink:href="#DejaVuSans-69"/>
      <use x="188.183594" xlink:href="#DejaVuSans-73"/>
      <use x="217.675781" xlink:href="#DejaVuSans-82"/>
     </g>
    </g>
    <g id="line2d_55">
     <path d="M 99 187.567188 
L 119 187.567188 
" style="fill:none;stroke:#e377c2;stroke-linecap:square;stroke-width:1.5;"/>
    </g>
    <g id="line2d_56"/>
    <g id="text_26">
     <!-- SEIUR -->
     <g transform="translate(127 191.067188)scale(0.1 -0.1)">
      <defs>
       <path d="M 8.6875 72.90625 
L 18.609375 72.90625 
L 18.609375 28.609375 
Q 18.609375 16.890625 22.84375 11.734375 
Q 27.09375 6.59375 36.625 6.59375 
Q 46.09375 6.59375 50.34375 11.734375 
Q 54.59375 16.890625 54.59375 28.609375 
L 54.59375 72.90625 
L 64.5 72.90625 
L 64.5 27.390625 
Q 64.5 13.140625 57.4375 5.859375 
Q 50.390625 -1.421875 36.625 -1.421875 
Q 22.796875 -1.421875 15.734375 5.859375 
Q 8.6875 13.140625 8.6875 27.390625 
z
" id="DejaVuSans-85"/>
      </defs>
      <use xlink:href="#DejaVuSans-83"/>
      <use x="63.476562" xlink:href="#DejaVuSans-69"/>
      <use x="126.660156" xlink:href="#DejaVuSans-73"/>
      <use x="156.152344" xlink:href="#DejaVuSans-85"/>
      <use x="229.345703" xlink:href="#DejaVuSans-82"/>
     </g>
    </g>
    <g id="line2d_57">
     <path d="M 99 202.245312 
L 119 202.245312 
" style="fill:none;stroke:#7f7f7f;stroke-linecap:square;stroke-width:1.5;"/>
    </g>
    <g id="line2d_58"/>
    <g id="text_27">
     <!-- eSEIUR -->
     <g transform="translate(127 205.745312)scale(0.1 -0.1)">
      <use xlink:href="#DejaVuSans-101"/>
      <use x="61.523438" xlink:href="#DejaVuSans-83"/>
      <use x="125" xlink:href="#DejaVuSans-69"/>
      <use x="188.183594" xlink:href="#DejaVuSans-73"/>
      <use x="217.675781" xlink:href="#DejaVuSans-85"/>
      <use x="290.869141" xlink:href="#DejaVuSans-82"/>
     </g>
    </g>
    <g id="line2d_59">
     <path d="M 99 216.923437 
L 119 216.923437 
" style="fill:none;stroke:#bcbd22;stroke-linecap:square;stroke-width:1.5;"/>
    </g>
    <g id="line2d_60"/>
    <g id="text_28">
     <!-- eSEIUR$^{range}$ -->
     <g transform="translate(127 220.423437)scale(0.1 -0.1)">
      <defs>
       <path d="M 44.578125 46.390625 
Q 43.21875 47.125 41.453125 47.515625 
Q 39.703125 47.90625 37.703125 47.90625 
Q 30.515625 47.90625 25.140625 42.453125 
Q 19.78125 37.015625 18.015625 27.875 
L 12.5 0 
L 3.515625 0 
L 14.203125 54.6875 
L 23.1875 54.6875 
L 21.484375 46.1875 
Q 25.046875 50.921875 30 53.453125 
Q 34.96875 56 40.578125 56 
Q 42.046875 56 43.453125 55.828125 
Q 44.875 55.671875 46.296875 55.28125 
z
" id="DejaVuSans-Oblique-114"/>
       <path d="M 53.71875 31.203125 
L 47.609375 0 
L 38.625 0 
L 40.28125 8.296875 
Q 36.328125 3.421875 31.265625 1 
Q 26.21875 -1.421875 20.015625 -1.421875 
Q 13.03125 -1.421875 8.5625 2.84375 
Q 4.109375 7.125 4.109375 13.8125 
Q 4.109375 23.390625 11.75 28.953125 
Q 19.390625 34.515625 32.8125 34.515625 
L 45.3125 34.515625 
L 45.796875 36.921875 
Q 45.90625 37.3125 45.953125 37.765625 
Q 46 38.234375 46 39.203125 
Q 46 43.5625 42.453125 45.96875 
Q 38.921875 48.390625 32.515625 48.390625 
Q 28.125 48.390625 23.5 47.265625 
Q 18.890625 46.140625 14.015625 43.890625 
L 15.578125 52.203125 
Q 20.65625 54.109375 25.515625 55.046875 
Q 30.375 56 34.90625 56 
Q 44.578125 56 49.625 51.796875 
Q 54.6875 47.609375 54.6875 39.59375 
Q 54.6875 37.984375 54.4375 35.8125 
Q 54.203125 33.640625 53.71875 31.203125 
z
M 44 27.484375 
L 35.015625 27.484375 
Q 23.96875 27.484375 18.671875 24.53125 
Q 13.375 21.578125 13.375 15.375 
Q 13.375 11.078125 16.078125 8.640625 
Q 18.796875 6.203125 23.578125 6.203125 
Q 30.90625 6.203125 36.375 11.453125 
Q 41.84375 16.703125 43.609375 25.484375 
z
" id="DejaVuSans-Oblique-97"/>
       <path d="M 55.71875 33.015625 
L 49.3125 0 
L 40.28125 0 
L 46.6875 32.671875 
Q 47.125 34.96875 47.359375 36.71875 
Q 47.609375 38.484375 47.609375 39.5 
Q 47.609375 43.609375 45.015625 45.890625 
Q 42.4375 48.1875 37.796875 48.1875 
Q 30.5625 48.1875 25.34375 43.375 
Q 20.125 38.578125 18.5 30.328125 
L 12.5 0 
L 3.515625 0 
L 14.109375 54.6875 
L 23.09375 54.6875 
L 21.296875 46.09375 
Q 25.046875 50.828125 30.3125 53.40625 
Q 35.59375 56 41.40625 56 
Q 48.640625 56 52.609375 52.09375 
Q 56.59375 48.1875 56.59375 41.109375 
Q 56.59375 39.359375 56.375 37.359375 
Q 56.15625 35.359375 55.71875 33.015625 
z
" id="DejaVuSans-Oblique-110"/>
       <path d="M 59.625 54.6875 
L 50.296875 6.78125 
Q 47.609375 -7.125 40.015625 -13.953125 
Q 32.421875 -20.796875 19.578125 -20.796875 
Q 14.84375 -20.796875 10.78125 -20.09375 
Q 6.734375 -19.390625 3.21875 -17.921875 
L 4.890625 -9.1875 
Q 8.203125 -11.328125 11.90625 -12.34375 
Q 15.625 -13.375 19.828125 -13.375 
Q 28.375 -13.375 33.859375 -8.703125 
Q 39.359375 -4.046875 41.109375 4.6875 
L 41.890625 8.796875 
Q 38.140625 4.5 33.15625 2.25 
Q 28.171875 0 22.40625 0 
Q 14.109375 0 9.34375 5.484375 
Q 4.59375 10.984375 4.59375 20.609375 
Q 4.59375 28.171875 7.46875 35.421875 
Q 10.359375 42.671875 15.578125 48.296875 
Q 19.046875 52 23.65625 54 
Q 28.265625 56 33.296875 56 
Q 38.8125 56 42.90625 53.4375 
Q 47.015625 50.875 49.03125 46.1875 
L 50.59375 54.6875 
z
M 46.09375 34.625 
Q 46.09375 41.265625 42.96875 44.875 
Q 39.84375 48.484375 34.078125 48.484375 
Q 30.515625 48.484375 27.296875 47.0625 
Q 24.078125 45.65625 21.78125 43.109375 
Q 18.0625 38.921875 15.984375 33.234375 
Q 13.921875 27.546875 13.921875 21.484375 
Q 13.921875 14.75 17.0625 11.125 
Q 20.21875 7.515625 26.125 7.515625 
Q 34.671875 7.515625 40.375 15.25 
Q 46.09375 23 46.09375 34.625 
z
" id="DejaVuSans-Oblique-103"/>
       <path d="M 48.09375 32.234375 
Q 48.25 33.015625 48.3125 33.84375 
Q 48.390625 34.671875 48.390625 35.5 
Q 48.390625 41.453125 44.890625 44.921875 
Q 41.40625 48.390625 35.40625 48.390625 
Q 28.71875 48.390625 23.578125 44.15625 
Q 18.453125 39.9375 15.828125 32.171875 
z
M 55.90625 25.203125 
L 14.109375 25.203125 
Q 13.8125 23.34375 13.71875 22.265625 
Q 13.625 21.1875 13.625 20.40625 
Q 13.625 13.625 17.796875 9.90625 
Q 21.96875 6.203125 29.59375 6.203125 
Q 35.453125 6.203125 40.671875 7.515625 
Q 45.90625 8.84375 50.390625 11.375 
L 48.6875 2.484375 
Q 43.84375 0.53125 38.6875 -0.4375 
Q 33.546875 -1.421875 28.21875 -1.421875 
Q 16.84375 -1.421875 10.71875 4.015625 
Q 4.59375 9.46875 4.59375 19.484375 
Q 4.59375 28.03125 7.640625 35.375 
Q 10.6875 42.71875 16.609375 48.484375 
Q 20.40625 52.09375 25.65625 54.046875 
Q 30.90625 56 36.8125 56 
Q 46.09375 56 51.578125 50.4375 
Q 57.078125 44.875 57.078125 35.5 
Q 57.078125 33.25 56.78125 30.6875 
Q 56.5 28.125 55.90625 25.203125 
z
" id="DejaVuSans-Oblique-101"/>
      </defs>
      <use transform="translate(0 0.51875)" xlink:href="#DejaVuSans-101"/>
      <use transform="translate(61.523438 0.51875)" xlink:href="#DejaVuSans-83"/>
      <use transform="translate(125 0.51875)" xlink:href="#DejaVuSans-69"/>
      <use transform="translate(188.183594 0.51875)" xlink:href="#DejaVuSans-73"/>
      <use transform="translate(217.675781 0.51875)" xlink:href="#DejaVuSans-85"/>
      <use transform="translate(288.619141 0.51875)" xlink:href="#DejaVuSans-82"/>
      <use transform="translate(359.058594 38.8)scale(0.7)" xlink:href="#DejaVuSans-Oblique-114"/>
      <use transform="translate(387.837891 38.8)scale(0.7)" xlink:href="#DejaVuSans-Oblique-97"/>
      <use transform="translate(430.733398 38.8)scale(0.7)" xlink:href="#DejaVuSans-Oblique-110"/>
      <use transform="translate(475.098633 38.8)scale(0.7)" xlink:href="#DejaVuSans-Oblique-103"/>
      <use transform="translate(519.532227 38.8)scale(0.7)" xlink:href="#DejaVuSans-Oblique-101"/>
     </g>
    </g>
   </g>
  </g>
 </g>
 <defs>
  <clipPath id="p0ccbc70fe2">
   <rect height="543.6" width="558" x="90" y="86.4"/>
  </clipPath>
 </defs>
</svg>
