<?xml version="1.0" encoding="utf-8" standalone="no"?>
<!DOCTYPE svg PUBLIC "-//W3C//DTD SVG 1.1//EN"
  "http://www.w3.org/Graphics/SVG/1.1/DTD/svg11.dtd">
<!-- Created with matplotlib (https://matplotlib.org/) -->
<svg height="720pt" version="1.1" viewBox="0 0 720 720" width="720pt" xmlns="http://www.w3.org/2000/svg" xmlns:xlink="http://www.w3.org/1999/xlink">
 <metadata>
  <rdf:RDF xmlns:cc="http://creativecommons.org/ns#" xmlns:dc="http://purl.org/dc/elements/1.1/" xmlns:rdf="http://www.w3.org/1999/02/22-rdf-syntax-ns#">
   <cc:Work>
    <dc:type rdf:resource="http://purl.org/dc/dcmitype/StillImage"/>
    <dc:date>2022-10-11T20:59:04.599260</dc:date>
    <dc:format>image/svg+xml</dc:format>
    <dc:creator>
     <cc:Agent>
      <dc:title>Matplotlib v3.3.2, https://matplotlib.org/</dc:title>
     </cc:Agent>
    </dc:creator>
   </cc:Work>
  </rdf:RDF>
 </metadata>
 <defs>
  <style type="text/css">*{stroke-linecap:butt;stroke-linejoin:round;}</style>
 </defs>
 <g id="figure_1">
  <g id="patch_1">
   <path d="M 0 720 
L 720 720 
L 720 0 
L 0 0 
z
" style="fill:none;"/>
  </g>
  <g id="axes_1">
   <g id="patch_2">
    <path d="M 90 630 
L 648 630 
L 648 86.4 
L 90 86.4 
z
" style="fill:#ffffff;"/>
   </g>
   <g id="matplotlib.axis_1">
    <g id="xtick_1">
     <g id="line2d_1">
      <path clip-path="url(#pe9c71e69f0)" d="M 115.363636 630 
L 115.363636 86.4 
" style="fill:none;stroke:#b0b0b0;stroke-linecap:square;stroke-width:0.8;"/>
     </g>
     <g id="line2d_2">
      <defs>
       <path d="M 0 0 
L 0 3.5 
" id="mfdc6910d47" style="stroke:#000000;stroke-width:0.8;"/>
      </defs>
      <g>
       <use style="stroke:#000000;stroke-width:0.8;" x="115.363636" xlink:href="#mfdc6910d47" y="630"/>
      </g>
     </g>
     <g id="text_1">
      <!-- 0 -->
      <g transform="translate(112.182386 644.598438)scale(0.1 -0.1)">
       <defs>
        <path d="M 31.78125 66.40625 
Q 24.171875 66.40625 20.328125 58.90625 
Q 16.5 51.421875 16.5 36.375 
Q 16.5 21.390625 20.328125 13.890625 
Q 24.171875 6.390625 31.78125 6.390625 
Q 39.453125 6.390625 43.28125 13.890625 
Q 47.125 21.390625 47.125 36.375 
Q 47.125 51.421875 43.28125 58.90625 
Q 39.453125 66.40625 31.78125 66.40625 
z
M 31.78125 74.21875 
Q 44.046875 74.21875 50.515625 64.515625 
Q 56.984375 54.828125 56.984375 36.375 
Q 56.984375 17.96875 50.515625 8.265625 
Q 44.046875 -1.421875 31.78125 -1.421875 
Q 19.53125 -1.421875 13.0625 8.265625 
Q 6.59375 17.96875 6.59375 36.375 
Q 6.59375 54.828125 13.0625 64.515625 
Q 19.53125 74.21875 31.78125 74.21875 
z
" id="DejaVuSans-48"/>
       </defs>
       <use xlink:href="#DejaVuSans-48"/>
      </g>
     </g>
    </g>
    <g id="xtick_2">
     <g id="line2d_3">
      <path clip-path="url(#pe9c71e69f0)" d="M 184.380334 630 
L 184.380334 86.4 
" style="fill:none;stroke:#b0b0b0;stroke-linecap:square;stroke-width:0.8;"/>
     </g>
     <g id="line2d_4">
      <g>
       <use style="stroke:#000000;stroke-width:0.8;" x="184.380334" xlink:href="#mfdc6910d47" y="630"/>
      </g>
     </g>
     <g id="text_2">
      <!-- 20 -->
      <g transform="translate(178.017834 644.598438)scale(0.1 -0.1)">
       <defs>
        <path d="M 19.1875 8.296875 
L 53.609375 8.296875 
L 53.609375 0 
L 7.328125 0 
L 7.328125 8.296875 
Q 12.9375 14.109375 22.625 23.890625 
Q 32.328125 33.6875 34.8125 36.53125 
Q 39.546875 41.84375 41.421875 45.53125 
Q 43.3125 49.21875 43.3125 52.78125 
Q 43.3125 58.59375 39.234375 62.25 
Q 35.15625 65.921875 28.609375 65.921875 
Q 23.96875 65.921875 18.8125 64.3125 
Q 13.671875 62.703125 7.8125 59.421875 
L 7.8125 69.390625 
Q 13.765625 71.78125 18.9375 73 
Q 24.125 74.21875 28.421875 74.21875 
Q 39.75 74.21875 46.484375 68.546875 
Q 53.21875 62.890625 53.21875 53.421875 
Q 53.21875 48.921875 51.53125 44.890625 
Q 49.859375 40.875 45.40625 35.40625 
Q 44.1875 33.984375 37.640625 27.21875 
Q 31.109375 20.453125 19.1875 8.296875 
z
" id="DejaVuSans-50"/>
       </defs>
       <use xlink:href="#DejaVuSans-50"/>
       <use x="63.623047" xlink:href="#DejaVuSans-48"/>
      </g>
     </g>
    </g>
    <g id="xtick_3">
     <g id="line2d_5">
      <path clip-path="url(#pe9c71e69f0)" d="M 253.397032 630 
L 253.397032 86.4 
" style="fill:none;stroke:#b0b0b0;stroke-linecap:square;stroke-width:0.8;"/>
     </g>
     <g id="line2d_6">
      <g>
       <use style="stroke:#000000;stroke-width:0.8;" x="253.397032" xlink:href="#mfdc6910d47" y="630"/>
      </g>
     </g>
     <g id="text_3">
      <!-- 40 -->
      <g transform="translate(247.034532 644.598438)scale(0.1 -0.1)">
       <defs>
        <path d="M 37.796875 64.3125 
L 12.890625 25.390625 
L 37.796875 25.390625 
z
M 35.203125 72.90625 
L 47.609375 72.90625 
L 47.609375 25.390625 
L 58.015625 25.390625 
L 58.015625 17.1875 
L 47.609375 17.1875 
L 47.609375 0 
L 37.796875 0 
L 37.796875 17.1875 
L 4.890625 17.1875 
L 4.890625 26.703125 
z
" id="DejaVuSans-52"/>
       </defs>
       <use xlink:href="#DejaVuSans-52"/>
       <use x="63.623047" xlink:href="#DejaVuSans-48"/>
      </g>
     </g>
    </g>
    <g id="xtick_4">
     <g id="line2d_7">
      <path clip-path="url(#pe9c71e69f0)" d="M 322.413729 630 
L 322.413729 86.4 
" style="fill:none;stroke:#b0b0b0;stroke-linecap:square;stroke-width:0.8;"/>
     </g>
     <g id="line2d_8">
      <g>
       <use style="stroke:#000000;stroke-width:0.8;" x="322.413729" xlink:href="#mfdc6910d47" y="630"/>
      </g>
     </g>
     <g id="text_4">
      <!-- 60 -->
      <g transform="translate(316.051229 644.598438)scale(0.1 -0.1)">
       <defs>
        <path d="M 33.015625 40.375 
Q 26.375 40.375 22.484375 35.828125 
Q 18.609375 31.296875 18.609375 23.390625 
Q 18.609375 15.53125 22.484375 10.953125 
Q 26.375 6.390625 33.015625 6.390625 
Q 39.65625 6.390625 43.53125 10.953125 
Q 47.40625 15.53125 47.40625 23.390625 
Q 47.40625 31.296875 43.53125 35.828125 
Q 39.65625 40.375 33.015625 40.375 
z
M 52.59375 71.296875 
L 52.59375 62.3125 
Q 48.875 64.0625 45.09375 64.984375 
Q 41.3125 65.921875 37.59375 65.921875 
Q 27.828125 65.921875 22.671875 59.328125 
Q 17.53125 52.734375 16.796875 39.40625 
Q 19.671875 43.65625 24.015625 45.921875 
Q 28.375 48.1875 33.59375 48.1875 
Q 44.578125 48.1875 50.953125 41.515625 
Q 57.328125 34.859375 57.328125 23.390625 
Q 57.328125 12.15625 50.6875 5.359375 
Q 44.046875 -1.421875 33.015625 -1.421875 
Q 20.359375 -1.421875 13.671875 8.265625 
Q 6.984375 17.96875 6.984375 36.375 
Q 6.984375 53.65625 15.1875 63.9375 
Q 23.390625 74.21875 37.203125 74.21875 
Q 40.921875 74.21875 44.703125 73.484375 
Q 48.484375 72.75 52.59375 71.296875 
z
" id="DejaVuSans-54"/>
       </defs>
       <use xlink:href="#DejaVuSans-54"/>
       <use x="63.623047" xlink:href="#DejaVuSans-48"/>
      </g>
     </g>
    </g>
    <g id="xtick_5">
     <g id="line2d_9">
      <path clip-path="url(#pe9c71e69f0)" d="M 391.430427 630 
L 391.430427 86.4 
" style="fill:none;stroke:#b0b0b0;stroke-linecap:square;stroke-width:0.8;"/>
     </g>
     <g id="line2d_10">
      <g>
       <use style="stroke:#000000;stroke-width:0.8;" x="391.430427" xlink:href="#mfdc6910d47" y="630"/>
      </g>
     </g>
     <g id="text_5">
      <!-- 80 -->
      <g transform="translate(385.067927 644.598438)scale(0.1 -0.1)">
       <defs>
        <path d="M 31.78125 34.625 
Q 24.75 34.625 20.71875 30.859375 
Q 16.703125 27.09375 16.703125 20.515625 
Q 16.703125 13.921875 20.71875 10.15625 
Q 24.75 6.390625 31.78125 6.390625 
Q 38.8125 6.390625 42.859375 10.171875 
Q 46.921875 13.96875 46.921875 20.515625 
Q 46.921875 27.09375 42.890625 30.859375 
Q 38.875 34.625 31.78125 34.625 
z
M 21.921875 38.8125 
Q 15.578125 40.375 12.03125 44.71875 
Q 8.5 49.078125 8.5 55.328125 
Q 8.5 64.0625 14.71875 69.140625 
Q 20.953125 74.21875 31.78125 74.21875 
Q 42.671875 74.21875 48.875 69.140625 
Q 55.078125 64.0625 55.078125 55.328125 
Q 55.078125 49.078125 51.53125 44.71875 
Q 48 40.375 41.703125 38.8125 
Q 48.828125 37.15625 52.796875 32.3125 
Q 56.78125 27.484375 56.78125 20.515625 
Q 56.78125 9.90625 50.3125 4.234375 
Q 43.84375 -1.421875 31.78125 -1.421875 
Q 19.734375 -1.421875 13.25 4.234375 
Q 6.78125 9.90625 6.78125 20.515625 
Q 6.78125 27.484375 10.78125 32.3125 
Q 14.796875 37.15625 21.921875 38.8125 
z
M 18.3125 54.390625 
Q 18.3125 48.734375 21.84375 45.5625 
Q 25.390625 42.390625 31.78125 42.390625 
Q 38.140625 42.390625 41.71875 45.5625 
Q 45.3125 48.734375 45.3125 54.390625 
Q 45.3125 60.0625 41.71875 63.234375 
Q 38.140625 66.40625 31.78125 66.40625 
Q 25.390625 66.40625 21.84375 63.234375 
Q 18.3125 60.0625 18.3125 54.390625 
z
" id="DejaVuSans-56"/>
       </defs>
       <use xlink:href="#DejaVuSans-56"/>
       <use x="63.623047" xlink:href="#DejaVuSans-48"/>
      </g>
     </g>
    </g>
    <g id="xtick_6">
     <g id="line2d_11">
      <path clip-path="url(#pe9c71e69f0)" d="M 460.447124 630 
L 460.447124 86.4 
" style="fill:none;stroke:#b0b0b0;stroke-linecap:square;stroke-width:0.8;"/>
     </g>
     <g id="line2d_12">
      <g>
       <use style="stroke:#000000;stroke-width:0.8;" x="460.447124" xlink:href="#mfdc6910d47" y="630"/>
      </g>
     </g>
     <g id="text_6">
      <!-- 100 -->
      <g transform="translate(450.903374 644.598438)scale(0.1 -0.1)">
       <defs>
        <path d="M 12.40625 8.296875 
L 28.515625 8.296875 
L 28.515625 63.921875 
L 10.984375 60.40625 
L 10.984375 69.390625 
L 28.421875 72.90625 
L 38.28125 72.90625 
L 38.28125 8.296875 
L 54.390625 8.296875 
L 54.390625 0 
L 12.40625 0 
z
" id="DejaVuSans-49"/>
       </defs>
       <use xlink:href="#DejaVuSans-49"/>
       <use x="63.623047" xlink:href="#DejaVuSans-48"/>
       <use x="127.246094" xlink:href="#DejaVuSans-48"/>
      </g>
     </g>
    </g>
    <g id="xtick_7">
     <g id="line2d_13">
      <path clip-path="url(#pe9c71e69f0)" d="M 529.463822 630 
L 529.463822 86.4 
" style="fill:none;stroke:#b0b0b0;stroke-linecap:square;stroke-width:0.8;"/>
     </g>
     <g id="line2d_14">
      <g>
       <use style="stroke:#000000;stroke-width:0.8;" x="529.463822" xlink:href="#mfdc6910d47" y="630"/>
      </g>
     </g>
     <g id="text_7">
      <!-- 120 -->
      <g transform="translate(519.920072 644.598438)scale(0.1 -0.1)">
       <use xlink:href="#DejaVuSans-49"/>
       <use x="63.623047" xlink:href="#DejaVuSans-50"/>
       <use x="127.246094" xlink:href="#DejaVuSans-48"/>
      </g>
     </g>
    </g>
    <g id="xtick_8">
     <g id="line2d_15">
      <path clip-path="url(#pe9c71e69f0)" d="M 598.480519 630 
L 598.480519 86.4 
" style="fill:none;stroke:#b0b0b0;stroke-linecap:square;stroke-width:0.8;"/>
     </g>
     <g id="line2d_16">
      <g>
       <use style="stroke:#000000;stroke-width:0.8;" x="598.480519" xlink:href="#mfdc6910d47" y="630"/>
      </g>
     </g>
     <g id="text_8">
      <!-- 140 -->
      <g transform="translate(588.936769 644.598438)scale(0.1 -0.1)">
       <use xlink:href="#DejaVuSans-49"/>
       <use x="63.623047" xlink:href="#DejaVuSans-52"/>
       <use x="127.246094" xlink:href="#DejaVuSans-48"/>
      </g>
     </g>
    </g>
    <g id="text_9">
     <!-- Days -->
     <g transform="translate(356.521875 658.276562)scale(0.1 -0.1)">
      <defs>
       <path d="M 19.671875 64.796875 
L 19.671875 8.109375 
L 31.59375 8.109375 
Q 46.6875 8.109375 53.6875 14.9375 
Q 60.6875 21.78125 60.6875 36.53125 
Q 60.6875 51.171875 53.6875 57.984375 
Q 46.6875 64.796875 31.59375 64.796875 
z
M 9.8125 72.90625 
L 30.078125 72.90625 
Q 51.265625 72.90625 61.171875 64.09375 
Q 71.09375 55.28125 71.09375 36.53125 
Q 71.09375 17.671875 61.125 8.828125 
Q 51.171875 0 30.078125 0 
L 9.8125 0 
z
" id="DejaVuSans-68"/>
       <path d="M 34.28125 27.484375 
Q 23.390625 27.484375 19.1875 25 
Q 14.984375 22.515625 14.984375 16.5 
Q 14.984375 11.71875 18.140625 8.90625 
Q 21.296875 6.109375 26.703125 6.109375 
Q 34.1875 6.109375 38.703125 11.40625 
Q 43.21875 16.703125 43.21875 25.484375 
L 43.21875 27.484375 
z
M 52.203125 31.203125 
L 52.203125 0 
L 43.21875 0 
L 43.21875 8.296875 
Q 40.140625 3.328125 35.546875 0.953125 
Q 30.953125 -1.421875 24.3125 -1.421875 
Q 15.921875 -1.421875 10.953125 3.296875 
Q 6 8.015625 6 15.921875 
Q 6 25.140625 12.171875 29.828125 
Q 18.359375 34.515625 30.609375 34.515625 
L 43.21875 34.515625 
L 43.21875 35.40625 
Q 43.21875 41.609375 39.140625 45 
Q 35.0625 48.390625 27.6875 48.390625 
Q 23 48.390625 18.546875 47.265625 
Q 14.109375 46.140625 10.015625 43.890625 
L 10.015625 52.203125 
Q 14.9375 54.109375 19.578125 55.046875 
Q 24.21875 56 28.609375 56 
Q 40.484375 56 46.34375 49.84375 
Q 52.203125 43.703125 52.203125 31.203125 
z
" id="DejaVuSans-97"/>
       <path d="M 32.171875 -5.078125 
Q 28.375 -14.84375 24.75 -17.8125 
Q 21.140625 -20.796875 15.09375 -20.796875 
L 7.90625 -20.796875 
L 7.90625 -13.28125 
L 13.1875 -13.28125 
Q 16.890625 -13.28125 18.9375 -11.515625 
Q 21 -9.765625 23.484375 -3.21875 
L 25.09375 0.875 
L 2.984375 54.6875 
L 12.5 54.6875 
L 29.59375 11.921875 
L 46.6875 54.6875 
L 56.203125 54.6875 
z
" id="DejaVuSans-121"/>
       <path d="M 44.28125 53.078125 
L 44.28125 44.578125 
Q 40.484375 46.53125 36.375 47.5 
Q 32.28125 48.484375 27.875 48.484375 
Q 21.1875 48.484375 17.84375 46.4375 
Q 14.5 44.390625 14.5 40.28125 
Q 14.5 37.15625 16.890625 35.375 
Q 19.28125 33.59375 26.515625 31.984375 
L 29.59375 31.296875 
Q 39.15625 29.25 43.1875 25.515625 
Q 47.21875 21.78125 47.21875 15.09375 
Q 47.21875 7.46875 41.1875 3.015625 
Q 35.15625 -1.421875 24.609375 -1.421875 
Q 20.21875 -1.421875 15.453125 -0.5625 
Q 10.6875 0.296875 5.421875 2 
L 5.421875 11.28125 
Q 10.40625 8.6875 15.234375 7.390625 
Q 20.0625 6.109375 24.8125 6.109375 
Q 31.15625 6.109375 34.5625 8.28125 
Q 37.984375 10.453125 37.984375 14.40625 
Q 37.984375 18.0625 35.515625 20.015625 
Q 33.0625 21.96875 24.703125 23.78125 
L 21.578125 24.515625 
Q 13.234375 26.265625 9.515625 29.90625 
Q 5.8125 33.546875 5.8125 39.890625 
Q 5.8125 47.609375 11.28125 51.796875 
Q 16.75 56 26.8125 56 
Q 31.78125 56 36.171875 55.265625 
Q 40.578125 54.546875 44.28125 53.078125 
z
" id="DejaVuSans-115"/>
      </defs>
      <use xlink:href="#DejaVuSans-68"/>
      <use x="77.001953" xlink:href="#DejaVuSans-97"/>
      <use x="138.28125" xlink:href="#DejaVuSans-121"/>
      <use x="197.460938" xlink:href="#DejaVuSans-115"/>
     </g>
    </g>
   </g>
   <g id="matplotlib.axis_2">
    <g id="ytick_1">
     <g id="line2d_17">
      <path clip-path="url(#pe9c71e69f0)" d="M 90 605.306367 
L 648 605.306367 
" style="fill:none;stroke:#b0b0b0;stroke-linecap:square;stroke-width:0.8;"/>
     </g>
     <g id="line2d_18">
      <defs>
       <path d="M 0 0 
L -3.5 0 
" id="meee2d4f4c9" style="stroke:#000000;stroke-width:0.8;"/>
      </defs>
      <g>
       <use style="stroke:#000000;stroke-width:0.8;" x="90" xlink:href="#meee2d4f4c9" y="605.306367"/>
      </g>
     </g>
     <g id="text_10">
      <!-- 0 -->
      <g transform="translate(76.6375 609.105585)scale(0.1 -0.1)">
       <use xlink:href="#DejaVuSans-48"/>
      </g>
     </g>
    </g>
    <g id="ytick_2">
     <g id="line2d_19">
      <path clip-path="url(#pe9c71e69f0)" d="M 90 519.431604 
L 648 519.431604 
" style="fill:none;stroke:#b0b0b0;stroke-linecap:square;stroke-width:0.8;"/>
     </g>
     <g id="line2d_20">
      <g>
       <use style="stroke:#000000;stroke-width:0.8;" x="90" xlink:href="#meee2d4f4c9" y="519.431604"/>
      </g>
     </g>
     <g id="text_11">
      <!-- 50000 -->
      <g transform="translate(51.1875 523.230823)scale(0.1 -0.1)">
       <defs>
        <path d="M 10.796875 72.90625 
L 49.515625 72.90625 
L 49.515625 64.59375 
L 19.828125 64.59375 
L 19.828125 46.734375 
Q 21.96875 47.46875 24.109375 47.828125 
Q 26.265625 48.1875 28.421875 48.1875 
Q 40.625 48.1875 47.75 41.5 
Q 54.890625 34.8125 54.890625 23.390625 
Q 54.890625 11.625 47.5625 5.09375 
Q 40.234375 -1.421875 26.90625 -1.421875 
Q 22.3125 -1.421875 17.546875 -0.640625 
Q 12.796875 0.140625 7.71875 1.703125 
L 7.71875 11.625 
Q 12.109375 9.234375 16.796875 8.0625 
Q 21.484375 6.890625 26.703125 6.890625 
Q 35.15625 6.890625 40.078125 11.328125 
Q 45.015625 15.765625 45.015625 23.390625 
Q 45.015625 31 40.078125 35.4375 
Q 35.15625 39.890625 26.703125 39.890625 
Q 22.75 39.890625 18.8125 39.015625 
Q 14.890625 38.140625 10.796875 36.28125 
z
" id="DejaVuSans-53"/>
       </defs>
       <use xlink:href="#DejaVuSans-53"/>
       <use x="63.623047" xlink:href="#DejaVuSans-48"/>
       <use x="127.246094" xlink:href="#DejaVuSans-48"/>
       <use x="190.869141" xlink:href="#DejaVuSans-48"/>
       <use x="254.492188" xlink:href="#DejaVuSans-48"/>
      </g>
     </g>
    </g>
    <g id="ytick_3">
     <g id="line2d_21">
      <path clip-path="url(#pe9c71e69f0)" d="M 90 433.556841 
L 648 433.556841 
" style="fill:none;stroke:#b0b0b0;stroke-linecap:square;stroke-width:0.8;"/>
     </g>
     <g id="line2d_22">
      <g>
       <use style="stroke:#000000;stroke-width:0.8;" x="90" xlink:href="#meee2d4f4c9" y="433.556841"/>
      </g>
     </g>
     <g id="text_12">
      <!-- 100000 -->
      <g transform="translate(44.825 437.35606)scale(0.1 -0.1)">
       <use xlink:href="#DejaVuSans-49"/>
       <use x="63.623047" xlink:href="#DejaVuSans-48"/>
       <use x="127.246094" xlink:href="#DejaVuSans-48"/>
       <use x="190.869141" xlink:href="#DejaVuSans-48"/>
       <use x="254.492188" xlink:href="#DejaVuSans-48"/>
       <use x="318.115234" xlink:href="#DejaVuSans-48"/>
      </g>
     </g>
    </g>
    <g id="ytick_4">
     <g id="line2d_23">
      <path clip-path="url(#pe9c71e69f0)" d="M 90 347.682078 
L 648 347.682078 
" style="fill:none;stroke:#b0b0b0;stroke-linecap:square;stroke-width:0.8;"/>
     </g>
     <g id="line2d_24">
      <g>
       <use style="stroke:#000000;stroke-width:0.8;" x="90" xlink:href="#meee2d4f4c9" y="347.682078"/>
      </g>
     </g>
     <g id="text_13">
      <!-- 150000 -->
      <g transform="translate(44.825 351.481297)scale(0.1 -0.1)">
       <use xlink:href="#DejaVuSans-49"/>
       <use x="63.623047" xlink:href="#DejaVuSans-53"/>
       <use x="127.246094" xlink:href="#DejaVuSans-48"/>
       <use x="190.869141" xlink:href="#DejaVuSans-48"/>
       <use x="254.492188" xlink:href="#DejaVuSans-48"/>
       <use x="318.115234" xlink:href="#DejaVuSans-48"/>
      </g>
     </g>
    </g>
    <g id="ytick_5">
     <g id="line2d_25">
      <path clip-path="url(#pe9c71e69f0)" d="M 90 261.807316 
L 648 261.807316 
" style="fill:none;stroke:#b0b0b0;stroke-linecap:square;stroke-width:0.8;"/>
     </g>
     <g id="line2d_26">
      <g>
       <use style="stroke:#000000;stroke-width:0.8;" x="90" xlink:href="#meee2d4f4c9" y="261.807316"/>
      </g>
     </g>
     <g id="text_14">
      <!-- 200000 -->
      <g transform="translate(44.825 265.606534)scale(0.1 -0.1)">
       <use xlink:href="#DejaVuSans-50"/>
       <use x="63.623047" xlink:href="#DejaVuSans-48"/>
       <use x="127.246094" xlink:href="#DejaVuSans-48"/>
       <use x="190.869141" xlink:href="#DejaVuSans-48"/>
       <use x="254.492188" xlink:href="#DejaVuSans-48"/>
       <use x="318.115234" xlink:href="#DejaVuSans-48"/>
      </g>
     </g>
    </g>
    <g id="ytick_6">
     <g id="line2d_27">
      <path clip-path="url(#pe9c71e69f0)" d="M 90 175.932553 
L 648 175.932553 
" style="fill:none;stroke:#b0b0b0;stroke-linecap:square;stroke-width:0.8;"/>
     </g>
     <g id="line2d_28">
      <g>
       <use style="stroke:#000000;stroke-width:0.8;" x="90" xlink:href="#meee2d4f4c9" y="175.932553"/>
      </g>
     </g>
     <g id="text_15">
      <!-- 250000 -->
      <g transform="translate(44.825 179.731772)scale(0.1 -0.1)">
       <use xlink:href="#DejaVuSans-50"/>
       <use x="63.623047" xlink:href="#DejaVuSans-53"/>
       <use x="127.246094" xlink:href="#DejaVuSans-48"/>
       <use x="190.869141" xlink:href="#DejaVuSans-48"/>
       <use x="254.492188" xlink:href="#DejaVuSans-48"/>
       <use x="318.115234" xlink:href="#DejaVuSans-48"/>
      </g>
     </g>
    </g>
    <g id="ytick_7">
     <g id="line2d_29">
      <path clip-path="url(#pe9c71e69f0)" d="M 90 90.05779 
L 648 90.05779 
" style="fill:none;stroke:#b0b0b0;stroke-linecap:square;stroke-width:0.8;"/>
     </g>
     <g id="line2d_30">
      <g>
       <use style="stroke:#000000;stroke-width:0.8;" x="90" xlink:href="#meee2d4f4c9" y="90.05779"/>
      </g>
     </g>
     <g id="text_16">
      <!-- 300000 -->
      <g transform="translate(44.825 93.857009)scale(0.1 -0.1)">
       <defs>
        <path d="M 40.578125 39.3125 
Q 47.65625 37.796875 51.625 33 
Q 55.609375 28.21875 55.609375 21.1875 
Q 55.609375 10.40625 48.1875 4.484375 
Q 40.765625 -1.421875 27.09375 -1.421875 
Q 22.515625 -1.421875 17.65625 -0.515625 
Q 12.796875 0.390625 7.625 2.203125 
L 7.625 11.71875 
Q 11.71875 9.328125 16.59375 8.109375 
Q 21.484375 6.890625 26.8125 6.890625 
Q 36.078125 6.890625 40.9375 10.546875 
Q 45.796875 14.203125 45.796875 21.1875 
Q 45.796875 27.640625 41.28125 31.265625 
Q 36.765625 34.90625 28.71875 34.90625 
L 20.21875 34.90625 
L 20.21875 43.015625 
L 29.109375 43.015625 
Q 36.375 43.015625 40.234375 45.921875 
Q 44.09375 48.828125 44.09375 54.296875 
Q 44.09375 59.90625 40.109375 62.90625 
Q 36.140625 65.921875 28.71875 65.921875 
Q 24.65625 65.921875 20.015625 65.03125 
Q 15.375 64.15625 9.8125 62.3125 
L 9.8125 71.09375 
Q 15.4375 72.65625 20.34375 73.4375 
Q 25.25 74.21875 29.59375 74.21875 
Q 40.828125 74.21875 47.359375 69.109375 
Q 53.90625 64.015625 53.90625 55.328125 
Q 53.90625 49.265625 50.4375 45.09375 
Q 46.96875 40.921875 40.578125 39.3125 
z
" id="DejaVuSans-51"/>
       </defs>
       <use xlink:href="#DejaVuSans-51"/>
       <use x="63.623047" xlink:href="#DejaVuSans-48"/>
       <use x="127.246094" xlink:href="#DejaVuSans-48"/>
       <use x="190.869141" xlink:href="#DejaVuSans-48"/>
       <use x="254.492188" xlink:href="#DejaVuSans-48"/>
       <use x="318.115234" xlink:href="#DejaVuSans-48"/>
      </g>
     </g>
    </g>
    <g id="text_17">
     <!-- Cumulative cases -->
     <g transform="translate(38.745312 402.425781)rotate(-90)scale(0.1 -0.1)">
      <defs>
       <path d="M 64.40625 67.28125 
L 64.40625 56.890625 
Q 59.421875 61.53125 53.78125 63.8125 
Q 48.140625 66.109375 41.796875 66.109375 
Q 29.296875 66.109375 22.65625 58.46875 
Q 16.015625 50.828125 16.015625 36.375 
Q 16.015625 21.96875 22.65625 14.328125 
Q 29.296875 6.6875 41.796875 6.6875 
Q 48.140625 6.6875 53.78125 8.984375 
Q 59.421875 11.28125 64.40625 15.921875 
L 64.40625 5.609375 
Q 59.234375 2.09375 53.4375 0.328125 
Q 47.65625 -1.421875 41.21875 -1.421875 
Q 24.65625 -1.421875 15.125 8.703125 
Q 5.609375 18.84375 5.609375 36.375 
Q 5.609375 53.953125 15.125 64.078125 
Q 24.65625 74.21875 41.21875 74.21875 
Q 47.75 74.21875 53.53125 72.484375 
Q 59.328125 70.75 64.40625 67.28125 
z
" id="DejaVuSans-67"/>
       <path d="M 8.5 21.578125 
L 8.5 54.6875 
L 17.484375 54.6875 
L 17.484375 21.921875 
Q 17.484375 14.15625 20.5 10.265625 
Q 23.53125 6.390625 29.59375 6.390625 
Q 36.859375 6.390625 41.078125 11.03125 
Q 45.3125 15.671875 45.3125 23.6875 
L 45.3125 54.6875 
L 54.296875 54.6875 
L 54.296875 0 
L 45.3125 0 
L 45.3125 8.40625 
Q 42.046875 3.421875 37.71875 1 
Q 33.40625 -1.421875 27.6875 -1.421875 
Q 18.265625 -1.421875 13.375 4.4375 
Q 8.5 10.296875 8.5 21.578125 
z
M 31.109375 56 
z
" id="DejaVuSans-117"/>
       <path d="M 52 44.1875 
Q 55.375 50.25 60.0625 53.125 
Q 64.75 56 71.09375 56 
Q 79.640625 56 84.28125 50.015625 
Q 88.921875 44.046875 88.921875 33.015625 
L 88.921875 0 
L 79.890625 0 
L 79.890625 32.71875 
Q 79.890625 40.578125 77.09375 44.375 
Q 74.3125 48.1875 68.609375 48.1875 
Q 61.625 48.1875 57.5625 43.546875 
Q 53.515625 38.921875 53.515625 30.90625 
L 53.515625 0 
L 44.484375 0 
L 44.484375 32.71875 
Q 44.484375 40.625 41.703125 44.40625 
Q 38.921875 48.1875 33.109375 48.1875 
Q 26.21875 48.1875 22.15625 43.53125 
Q 18.109375 38.875 18.109375 30.90625 
L 18.109375 0 
L 9.078125 0 
L 9.078125 54.6875 
L 18.109375 54.6875 
L 18.109375 46.1875 
Q 21.1875 51.21875 25.484375 53.609375 
Q 29.78125 56 35.6875 56 
Q 41.65625 56 45.828125 52.96875 
Q 50 49.953125 52 44.1875 
z
" id="DejaVuSans-109"/>
       <path d="M 9.421875 75.984375 
L 18.40625 75.984375 
L 18.40625 0 
L 9.421875 0 
z
" id="DejaVuSans-108"/>
       <path d="M 18.3125 70.21875 
L 18.3125 54.6875 
L 36.8125 54.6875 
L 36.8125 47.703125 
L 18.3125 47.703125 
L 18.3125 18.015625 
Q 18.3125 11.328125 20.140625 9.421875 
Q 21.96875 7.515625 27.59375 7.515625 
L 36.8125 7.515625 
L 36.8125 0 
L 27.59375 0 
Q 17.1875 0 13.234375 3.875 
Q 9.28125 7.765625 9.28125 18.015625 
L 9.28125 47.703125 
L 2.6875 47.703125 
L 2.6875 54.6875 
L 9.28125 54.6875 
L 9.28125 70.21875 
z
" id="DejaVuSans-116"/>
       <path d="M 9.421875 54.6875 
L 18.40625 54.6875 
L 18.40625 0 
L 9.421875 0 
z
M 9.421875 75.984375 
L 18.40625 75.984375 
L 18.40625 64.59375 
L 9.421875 64.59375 
z
" id="DejaVuSans-105"/>
       <path d="M 2.984375 54.6875 
L 12.5 54.6875 
L 29.59375 8.796875 
L 46.6875 54.6875 
L 56.203125 54.6875 
L 35.6875 0 
L 23.484375 0 
z
" id="DejaVuSans-118"/>
       <path d="M 56.203125 29.59375 
L 56.203125 25.203125 
L 14.890625 25.203125 
Q 15.484375 15.921875 20.484375 11.0625 
Q 25.484375 6.203125 34.421875 6.203125 
Q 39.59375 6.203125 44.453125 7.46875 
Q 49.3125 8.734375 54.109375 11.28125 
L 54.109375 2.78125 
Q 49.265625 0.734375 44.1875 -0.34375 
Q 39.109375 -1.421875 33.890625 -1.421875 
Q 20.796875 -1.421875 13.15625 6.1875 
Q 5.515625 13.8125 5.515625 26.8125 
Q 5.515625 40.234375 12.765625 48.109375 
Q 20.015625 56 32.328125 56 
Q 43.359375 56 49.78125 48.890625 
Q 56.203125 41.796875 56.203125 29.59375 
z
M 47.21875 32.234375 
Q 47.125 39.59375 43.09375 43.984375 
Q 39.0625 48.390625 32.421875 48.390625 
Q 24.90625 48.390625 20.390625 44.140625 
Q 15.875 39.890625 15.1875 32.171875 
z
" id="DejaVuSans-101"/>
       <path id="DejaVuSans-32"/>
       <path d="M 48.78125 52.59375 
L 48.78125 44.1875 
Q 44.96875 46.296875 41.140625 47.34375 
Q 37.3125 48.390625 33.40625 48.390625 
Q 24.65625 48.390625 19.8125 42.84375 
Q 14.984375 37.3125 14.984375 27.296875 
Q 14.984375 17.28125 19.8125 11.734375 
Q 24.65625 6.203125 33.40625 6.203125 
Q 37.3125 6.203125 41.140625 7.25 
Q 44.96875 8.296875 48.78125 10.40625 
L 48.78125 2.09375 
Q 45.015625 0.34375 40.984375 -0.53125 
Q 36.96875 -1.421875 32.421875 -1.421875 
Q 20.0625 -1.421875 12.78125 6.34375 
Q 5.515625 14.109375 5.515625 27.296875 
Q 5.515625 40.671875 12.859375 48.328125 
Q 20.21875 56 33.015625 56 
Q 37.15625 56 41.109375 55.140625 
Q 45.0625 54.296875 48.78125 52.59375 
z
" id="DejaVuSans-99"/>
      </defs>
      <use xlink:href="#DejaVuSans-67"/>
      <use x="69.824219" xlink:href="#DejaVuSans-117"/>
      <use x="133.203125" xlink:href="#DejaVuSans-109"/>
      <use x="230.615234" xlink:href="#DejaVuSans-117"/>
      <use x="293.994141" xlink:href="#DejaVuSans-108"/>
      <use x="321.777344" xlink:href="#DejaVuSans-97"/>
      <use x="383.056641" xlink:href="#DejaVuSans-116"/>
      <use x="422.265625" xlink:href="#DejaVuSans-105"/>
      <use x="450.048828" xlink:href="#DejaVuSans-118"/>
      <use x="509.228516" xlink:href="#DejaVuSans-101"/>
      <use x="570.751953" xlink:href="#DejaVuSans-32"/>
      <use x="602.539062" xlink:href="#DejaVuSans-99"/>
      <use x="657.519531" xlink:href="#DejaVuSans-97"/>
      <use x="718.798828" xlink:href="#DejaVuSans-115"/>
      <use x="770.898438" xlink:href="#DejaVuSans-101"/>
      <use x="832.421875" xlink:href="#DejaVuSans-115"/>
     </g>
    </g>
   </g>
   <g id="line2d_31">
    <path clip-path="url(#pe9c71e69f0)" d="M 115.363636 605.290909 
L 174.027829 605.149501 
L 198.183673 604.899235 
L 215.437848 604.502135 
L 225.790353 604.096871 
L 236.142857 603.488231 
L 243.044527 602.921407 
L 249.946197 602.179125 
L 256.847866 601.207977 
L 263.749536 599.938935 
L 270.651206 598.283253 
L 274.102041 597.276112 
L 277.552876 596.127595 
L 281.003711 594.818787 
L 284.454545 593.328526 
L 287.90538 591.633221 
L 291.356215 589.706683 
L 294.80705 587.519982 
L 298.257885 585.041345 
L 301.70872 582.236104 
L 305.159555 579.06673 
L 308.61039 575.492976 
L 312.061224 571.472149 
L 315.512059 566.959561 
L 318.962894 561.909188 
L 322.413729 556.27457 
L 325.864564 550.009988 
L 329.315399 543.071937 
L 332.766234 535.420906 
L 336.217069 527.023428 
L 339.667904 517.854384 
L 343.118738 507.899429 
L 346.569573 497.157452 
L 350.020408 485.642863 
L 353.471243 473.387517 
L 356.922078 460.442051 
L 360.372913 446.876401 
L 367.274583 418.256868 
L 387.979592 329.435203 
L 391.430427 315.584854 
L 394.881262 302.311455 
L 398.332096 289.694723 
L 401.782931 277.795186 
L 405.233766 266.654207 
L 408.684601 256.294934 
L 412.135436 246.723944 
L 415.586271 237.933378 
L 419.037106 229.903332 
L 422.487941 222.60432 
L 425.938776 215.999659 
L 429.38961 210.047649 
L 432.840445 204.703503 
L 436.29128 199.920978 
L 439.742115 195.653694 
L 443.19295 191.856184 
L 446.643785 188.484662 
L 450.09462 185.497583 
L 453.545455 182.855999 
L 456.996289 180.523765 
L 460.447124 178.467625 
L 463.897959 176.6572 
L 467.348794 175.064914 
L 470.799629 173.665862 
L 474.250464 172.437659 
L 477.701299 171.36026 
L 481.152134 170.415781 
L 488.053803 168.863713 
L 494.955473 167.674597 
L 501.857143 166.764908 
L 508.758813 166.069776 
L 519.111317 165.322909 
L 529.463822 164.825345 
L 543.267161 164.410575 
L 560.521336 164.127451 
L 588.128015 163.934851 
L 622.636364 163.862278 
L 622.636364 163.862278 
" style="fill:none;stroke:#1f77b4;stroke-linecap:square;stroke-width:1.5;"/>
   </g>
   <g id="line2d_32">
    <path clip-path="url(#pe9c71e69f0)" d="M 115.363636 605.290909 
L 132.617811 604.636374 
L 146.42115 603.906703 
L 160.22449 602.925885 
L 170.576994 601.975408 
L 180.929499 600.791009 
L 191.282004 599.316776 
L 198.183673 598.139759 
L 205.085343 596.780059 
L 211.987013 595.210668 
L 218.888683 593.401038 
L 225.790353 591.316773 
L 232.692022 588.919344 
L 239.593692 586.165858 
L 246.495362 583.008917 
L 253.397032 579.396594 
L 256.847866 577.402233 
L 260.298701 575.272593 
L 263.749536 573.000018 
L 267.200371 570.576647 
L 270.651206 567.99444 
L 274.102041 565.245219 
L 277.552876 562.320709 
L 281.003711 559.212591 
L 284.454545 555.912561 
L 287.90538 552.412402 
L 291.356215 548.704058 
L 294.80705 544.779719 
L 298.257885 540.631923 
L 301.70872 536.253655 
L 305.159555 531.63846 
L 308.61039 526.780565 
L 312.061224 521.675005 
L 315.512059 516.317751 
L 318.962894 510.705846 
L 322.413729 504.837539 
L 325.864564 498.712415 
L 329.315399 492.33152 
L 332.766234 485.697482 
L 339.667904 471.688993 
L 346.569573 456.743107 
L 353.471243 440.945955 
L 360.372913 424.413711 
L 367.274583 407.290651 
L 377.627087 380.87156 
L 394.881262 336.479204 
L 401.782931 319.166689 
L 408.684601 302.380598 
L 415.586271 286.275373 
L 422.487941 270.978721 
L 429.38961 256.588828 
L 432.840445 249.756314 
L 436.29128 243.173654 
L 439.742115 236.844807 
L 443.19295 230.772069 
L 446.643785 224.956179 
L 450.09462 219.396438 
L 453.545455 214.090837 
L 456.996289 209.03619 
L 460.447124 204.228267 
L 463.897959 199.661927 
L 467.348794 195.331247 
L 470.799629 191.22965 
L 474.250464 187.350019 
L 477.701299 183.684813 
L 481.152134 180.226166 
L 484.602968 176.965982 
L 488.053803 173.896018 
L 491.504638 171.007963 
L 494.955473 168.293503 
L 498.406308 165.744378 
L 501.857143 163.352435 
L 505.307978 161.109669 
L 508.758813 159.008257 
L 515.660482 155.199294 
L 522.562152 151.867609 
L 529.463822 148.959504 
L 536.365492 146.425774 
L 543.267161 144.221743 
L 550.168831 142.30717 
L 557.070501 140.646047 
L 563.972171 139.206328 
L 570.87384 137.959636 
L 577.77551 136.880939 
L 588.128015 135.530504 
L 598.480519 134.446085 
L 608.833024 133.576177 
L 622.636364 132.678815 
L 622.636364 132.678815 
" style="fill:none;stroke:#ff7f0e;stroke-linecap:square;stroke-width:1.5;"/>
   </g>
   <g id="line2d_33">
    <path clip-path="url(#pe9c71e69f0)" d="M 115.363636 605.290909 
L 153.32282 605.081473 
L 177.478664 604.722267 
L 194.732839 604.219573 
L 208.536178 603.551207 
L 218.888683 602.80796 
L 225.790353 602.15211 
L 232.692022 601.330285 
L 239.593692 600.301435 
L 246.495362 599.014902 
L 253.397032 597.408476 
L 260.298701 595.406237 
L 263.749536 594.228652 
L 267.200371 592.916268 
L 270.651206 591.454727 
L 274.102041 589.828399 
L 277.552876 588.020345 
L 281.003711 586.012278 
L 284.454545 583.784559 
L 287.90538 581.316214 
L 291.356215 578.58499 
L 294.80705 575.567456 
L 298.257885 572.23915 
L 301.70872 568.574796 
L 305.159555 564.54859 
L 308.61039 560.134566 
L 312.061224 555.307051 
L 315.512059 550.041209 
L 318.962894 544.313682 
L 322.413729 538.103318 
L 325.864564 531.39198 
L 329.315399 524.16541 
L 332.766234 516.414132 
L 336.217069 508.134346 
L 339.667904 499.328781 
L 343.118738 490.007447 
L 346.569573 480.188239 
L 350.020408 469.897323 
L 353.471243 459.169282 
L 360.372913 436.580951 
L 367.274583 412.854149 
L 387.979592 340.24632 
L 394.881262 317.388075 
L 398.332096 306.472256 
L 401.782931 295.954728 
L 405.233766 285.868054 
L 408.684601 276.237203 
L 412.135436 267.079815 
L 415.586271 258.406656 
L 419.037106 250.222205 
L 422.487941 242.52533 
L 425.938776 235.310017 
L 429.38961 228.566111 
L 432.840445 222.280043 
L 436.29128 216.435524 
L 439.742115 211.014182 
L 443.19295 205.99614 
L 446.643785 201.360526 
L 450.09462 197.085913 
L 453.545455 193.150692 
L 456.996289 189.533386 
L 460.447124 186.212896 
L 463.897959 183.168703 
L 467.348794 180.381021 
L 470.799629 177.830905 
L 474.250464 175.500331 
L 477.701299 173.372246 
L 481.152134 171.430588 
L 484.602968 169.660296 
L 488.053803 168.047296 
L 491.504638 166.578482 
L 494.955473 165.241685 
L 501.857143 162.919908 
L 508.758813 161.001782 
L 515.660482 159.419343 
L 522.562152 158.115341 
L 529.463822 157.041798 
L 536.365492 156.158669 
L 546.717996 155.11971 
L 557.070501 154.346112 
L 567.423006 153.770584 
L 581.226345 153.226027 
L 598.480519 152.788436 
L 622.636364 152.447192 
L 622.636364 152.447192 
" style="fill:none;stroke:#2ca02c;stroke-linecap:square;stroke-width:1.5;"/>
   </g>
   <g id="line2d_34">
    <path clip-path="url(#pe9c71e69f0)" d="M 115.363636 605.290909 
L 132.617811 604.980773 
L 146.42115 604.563253 
L 160.22449 603.931723 
L 170.576994 603.269332 
L 180.929499 602.395679 
L 191.282004 601.25357 
L 198.183673 600.30827 
L 205.085343 599.186617 
L 211.987013 597.85916 
L 218.888683 596.292033 
L 225.790353 594.446479 
L 232.692022 592.278412 
L 239.593692 589.738035 
L 246.495362 586.769579 
L 249.946197 585.105736 
L 253.397032 583.311224 
L 256.847866 581.377403 
L 260.298701 579.295297 
L 263.749536 577.055627 
L 267.200371 574.648844 
L 270.651206 572.065182 
L 274.102041 569.294708 
L 277.552876 566.327398 
L 281.003711 563.153219 
L 284.454545 559.76222 
L 287.90538 556.144647 
L 291.356215 552.291063 
L 294.80705 548.192483 
L 298.257885 543.840527 
L 301.70872 539.227583 
L 305.159555 534.34697 
L 308.61039 529.193126 
L 312.061224 523.761784 
L 315.512059 518.050157 
L 318.962894 512.057118 
L 322.413729 505.783366 
L 325.864564 499.23158 
L 329.315399 492.406552 
L 332.766234 485.315294 
L 339.667904 470.373608 
L 346.569573 454.508696 
L 353.471243 437.858485 
L 360.372913 420.592571 
L 370.725417 393.968793 
L 387.979592 349.424344 
L 394.881262 332.141582 
L 401.782931 315.429406 
L 408.684601 299.426059 
L 415.586271 284.237574 
L 422.487941 269.937705 
L 429.38961 256.569938 
L 432.840445 250.241746 
L 436.29128 244.150984 
L 439.742115 238.29627 
L 443.19295 232.675105 
L 446.643785 227.284025 
L 450.09462 222.118729 
L 453.545455 217.174219 
L 456.996289 212.444917 
L 460.447124 207.924784 
L 463.897959 203.607417 
L 467.348794 199.486145 
L 470.799629 195.554116 
L 474.250464 191.804362 
L 477.701299 188.229872 
L 481.152134 184.82364 
L 484.602968 181.578715 
L 491.504638 175.54549 
L 498.406308 170.077018 
L 505.307978 165.122873 
L 512.209647 160.635841 
L 519.111317 156.572159 
L 526.012987 152.89157 
L 532.914657 149.557269 
L 539.816327 146.53576 
L 546.717996 143.796672 
L 553.619666 141.312537 
L 560.521336 139.058566 
L 567.423006 137.012416 
L 574.324675 135.15397 
L 581.226345 133.465124 
L 591.57885 131.214674 
L 601.931354 129.261302 
L 612.283859 127.563804 
L 622.636364 126.086969 
L 622.636364 126.086969 
" style="fill:none;stroke:#d62728;stroke-linecap:square;stroke-width:1.5;"/>
   </g>
   <g id="line2d_35">
    <path clip-path="url(#pe9c71e69f0)" d="M 115.363636 605.290909 
L 163.675325 605.176027 
L 187.831169 604.905149 
L 201.634508 604.547245 
L 211.987013 604.08408 
L 218.888683 603.629074 
L 225.790353 603.007236 
L 232.692022 602.159355 
L 239.593692 601.006878 
L 243.044527 600.285373 
L 246.495362 599.446983 
L 249.946197 598.474237 
L 253.397032 597.347556 
L 256.847866 596.045177 
L 260.298701 594.543135 
L 263.749536 592.81533 
L 267.200371 590.833713 
L 270.651206 588.568612 
L 274.102041 585.989232 
L 277.552876 583.064353 
L 281.003711 579.76323 
L 284.454545 576.056701 
L 287.90538 571.918463 
L 291.356215 567.32646 
L 294.80705 562.264303 
L 298.257885 556.722586 
L 301.70872 550.699984 
L 305.159555 544.203996 
L 308.61039 537.251219 
L 312.061224 529.867099 
L 315.512059 522.085148 
L 318.962894 513.945694 
L 325.864564 496.779803 
L 332.766234 478.763528 
L 360.372913 405.297666 
L 367.274583 387.831748 
L 374.176252 371.008172 
L 381.077922 354.885407 
L 387.979592 339.492523 
L 394.881262 324.837798 
L 401.782931 310.915223 
L 408.684601 297.709228 
L 415.586271 285.19805 
L 422.487941 273.356101 
L 429.38961 262.155608 
L 436.29128 251.567746 
L 443.19295 241.563415 
L 450.09462 232.113765 
L 456.996289 223.190552 
L 463.897959 214.766364 
L 470.799629 206.814769 
L 477.701299 199.3104 
L 484.602968 192.228997 
L 491.504638 185.547426 
L 498.406308 179.24367 
L 505.307978 173.29681 
L 512.209647 167.686998 
L 519.111317 162.395418 
L 526.012987 157.404253 
L 532.914657 152.696638 
L 539.816327 148.256621 
L 546.717996 144.069119 
L 553.619666 140.119877 
L 560.521336 136.395428 
L 567.423006 132.883049 
L 574.324675 129.570728 
L 581.226345 126.44712 
L 588.128015 123.501518 
L 595.029685 120.723815 
L 605.382189 116.851351 
L 615.734694 113.305363 
L 622.636364 111.109091 
L 622.636364 111.109091 
" style="fill:none;stroke:#9467bd;stroke-linecap:square;stroke-width:1.5;"/>
   </g>
   <g id="line2d_36">
    <path clip-path="url(#pe9c71e69f0)" d="M 115.363636 605.290909 
L 153.32282 605.167636 
L 174.027829 604.906479 
L 187.831169 604.551232 
L 198.183673 604.117699 
L 208.536178 603.461904 
L 215.437848 602.849903 
L 222.339518 602.049064 
L 229.241187 601.004306 
L 236.142857 599.646072 
L 243.044527 597.887608 
L 246.495362 596.825845 
L 249.946197 595.622451 
L 253.397032 594.260758 
L 256.847866 592.722735 
L 260.298701 590.989053 
L 263.749536 589.039194 
L 267.200371 586.851638 
L 270.651206 584.404123 
L 274.102041 581.674001 
L 277.552876 578.638683 
L 281.003711 575.276187 
L 284.454545 571.565767 
L 287.90538 567.488631 
L 291.356215 563.028695 
L 294.80705 558.173355 
L 298.257885 552.914235 
L 301.70872 547.247837 
L 305.159555 541.176066 
L 308.61039 534.70656 
L 312.061224 527.852799 
L 315.512059 520.633958 
L 318.962894 513.074519 
L 322.413729 505.203643 
L 329.315399 488.662609 
L 336.217069 471.30403 
L 346.569573 444.403496 
L 360.372913 408.378305 
L 367.274583 390.794128 
L 374.176252 373.704515 
L 381.077922 357.21309 
L 387.979592 341.388694 
L 394.881262 326.272395 
L 401.782931 311.883876 
L 408.684601 298.226833 
L 415.586271 285.293327 
L 422.487941 273.067174 
L 429.38961 261.526529 
L 436.29128 250.645827 
L 443.19295 240.397221 
L 450.09462 230.751632 
L 456.996289 221.679525 
L 463.897959 213.151453 
L 470.799629 205.138449 
L 477.701299 197.612302 
L 484.602968 190.545736 
L 491.504638 183.912532 
L 498.406308 177.687598 
L 505.307978 171.847007 
L 512.209647 166.368004 
L 519.111317 161.228998 
L 526.012987 156.409544 
L 532.914657 151.890308 
L 539.816327 147.653034 
L 546.717996 143.680496 
L 553.619666 139.956461 
L 560.521336 136.46564 
L 567.423006 133.193641 
L 574.324675 130.126927 
L 581.226345 127.25277 
L 588.128015 124.559207 
L 595.029685 122.034999 
L 605.382189 118.543311 
L 615.734694 115.376121 
L 622.636364 113.430025 
L 622.636364 113.430025 
" style="fill:none;stroke:#8c564b;stroke-linecap:square;stroke-width:1.5;"/>
   </g>
   <g id="line2d_37">
    <path clip-path="url(#pe9c71e69f0)" d="M 115.363636 605.290909 
L 160.22449 605.18059 
L 184.380334 604.921953 
L 198.183673 604.588367 
L 208.536178 604.163465 
L 218.888683 603.492104 
L 225.790353 602.841547 
L 232.692022 601.962919 
L 239.593692 600.779787 
L 243.044527 600.044048 
L 246.495362 599.192949 
L 249.946197 598.20978 
L 253.397032 597.075877 
L 256.847866 595.77054 
L 260.298701 594.271016 
L 263.749536 592.552546 
L 267.200371 590.588518 
L 270.651206 588.350738 
L 274.102041 585.80985 
L 277.552876 582.935929 
L 281.003711 579.699256 
L 284.454545 576.071274 
L 287.90538 572.025721 
L 291.356215 567.539884 
L 294.80705 562.595902 
L 298.257885 557.182052 
L 301.70872 551.293872 
L 305.159555 544.935028 
L 308.61039 538.1178 
L 312.061224 530.863117 
L 315.512059 523.200094 
L 318.962894 515.165101 
L 325.864564 498.152685 
L 332.766234 480.205498 
L 343.118738 452.386615 
L 356.922078 415.366756 
L 363.823748 397.435063 
L 370.725417 380.093903 
L 377.627087 363.431393 
L 384.528757 347.49746 
L 391.430427 332.31431 
L 398.332096 317.884737 
L 405.233766 304.198351 
L 412.135436 291.236088 
L 419.037106 278.973391 
L 425.938776 267.38243 
L 432.840445 256.433635 
L 439.742115 246.096733 
L 446.643785 236.341459 
L 453.545455 227.138025 
L 460.447124 218.457433 
L 467.348794 210.271667 
L 474.250464 202.553813 
L 481.152134 195.278126 
L 488.053803 188.420052 
L 494.955473 181.956233 
L 501.857143 175.864487 
L 508.758813 170.123781 
L 515.660482 164.714193 
L 522.562152 159.616873 
L 529.463822 154.813994 
L 536.365492 150.288713 
L 543.267161 146.025118 
L 550.168831 142.008186 
L 557.070501 138.223736 
L 563.972171 134.658388 
L 570.87384 131.299521 
L 577.77551 128.135227 
L 584.67718 125.15428 
L 591.57885 122.346091 
L 601.931354 118.436056 
L 612.283859 114.861097 
L 622.636364 111.592564 
L 622.636364 111.592564 
" style="fill:none;stroke:#e377c2;stroke-linecap:square;stroke-width:1.5;"/>
   </g>
   <g id="line2d_38">
    <path clip-path="url(#pe9c71e69f0)" d="M 115.363636 605.290909 
L 149.871985 605.168177 
L 170.576994 604.893175 
L 184.380334 604.525699 
L 194.732839 604.085145 
L 205.085343 603.430215 
L 211.987013 602.82801 
L 218.888683 602.049644 
L 225.790353 601.046622 
L 232.692022 599.758316 
L 239.593692 598.109713 
L 243.044527 597.122383 
L 246.495362 596.009237 
L 249.946197 594.755955 
L 253.397032 593.347016 
L 256.847866 591.765714 
L 260.298701 589.994211 
L 263.749536 588.01363 
L 267.200371 585.804213 
L 270.651206 583.34553 
L 274.102041 580.616769 
L 277.552876 577.597099 
L 281.003711 574.266106 
L 284.454545 570.604316 
L 287.90538 566.593778 
L 291.356215 562.218695 
L 294.80705 557.466092 
L 298.257885 552.326466 
L 301.70872 546.794408 
L 305.159555 540.869122 
L 308.61039 534.554834 
L 312.061224 527.861025 
L 315.512059 520.802475 
L 318.962894 513.399092 
L 322.413729 505.675539 
L 329.315399 489.386758 
L 336.217069 472.203239 
L 346.569573 445.39486 
L 363.823748 400.274072 
L 370.725417 382.72952 
L 377.627087 365.712205 
L 384.528757 349.32396 
L 391.430427 333.63197 
L 398.332096 318.675493 
L 405.233766 304.472153 
L 412.135436 291.023358 
L 419.037106 278.318715 
L 425.938776 266.339505 
L 432.840445 255.061349 
L 439.742115 244.456207 
L 446.643785 234.493869 
L 453.545455 225.143035 
L 460.447124 216.37211 
L 467.348794 208.149754 
L 474.250464 200.445286 
L 481.152134 193.228946 
L 488.053803 186.472074 
L 494.955473 180.147225 
L 501.857143 174.228224 
L 508.758813 168.690195 
L 515.660482 163.509563 
L 522.562152 158.664031 
L 529.463822 154.132551 
L 536.365492 149.895281 
L 543.267161 145.933545 
L 550.168831 142.229774 
L 557.070501 138.767461 
L 563.972171 135.531106 
L 570.87384 132.506163 
L 577.77551 129.678991 
L 584.67718 127.0368 
L 591.57885 124.567605 
L 601.931354 121.163818 
L 612.283859 118.08925 
L 622.636364 115.312266 
L 622.636364 115.312266 
" style="fill:none;stroke:#7f7f7f;stroke-linecap:square;stroke-width:1.5;"/>
   </g>
   <g id="line2d_39">
    <path clip-path="url(#pe9c71e69f0)" d="M 115.363636 605.290909 
L 160.22449 605.178721 
L 184.380334 604.912666 
L 198.183673 604.571474 
L 208.536178 604.138586 
L 218.888683 603.456916 
L 225.790353 602.798122 
L 232.692022 601.91021 
L 239.593692 600.716889 
L 243.044527 599.975785 
L 246.495362 599.119183 
L 249.946197 598.130405 
L 253.397032 596.990807 
L 256.847866 595.679692 
L 260.298701 594.174276 
L 263.749536 592.449723 
L 267.200371 590.479271 
L 270.651206 588.234482 
L 274.102041 585.685634 
L 277.552876 582.802288 
L 281.003711 579.55404 
L 284.454545 575.911469 
L 287.90538 571.847272 
L 291.356215 567.337545 
L 294.80705 562.363156 
L 298.257885 556.911112 
L 301.70872 550.975819 
L 305.159555 544.560088 
L 308.61039 537.675784 
L 312.061224 530.343991 
L 315.512059 522.594657 
L 318.962894 514.465696 
L 325.864564 497.251791 
L 332.766234 479.105188 
L 346.569573 441.657843 
L 356.922078 413.90557 
L 363.823748 396.008539 
L 370.725417 378.756926 
L 377.627087 362.227323 
L 384.528757 346.457158 
L 391.430427 331.456856 
L 398.332096 317.219045 
L 405.233766 303.725104 
L 412.135436 290.949644 
L 419.037106 278.863484 
L 425.938776 267.435595 
L 432.840445 256.634347 
L 439.742115 246.428306 
L 446.643785 236.786723 
L 453.545455 227.679832 
L 460.447124 219.079018 
L 467.348794 210.956913 
L 474.250464 203.287422 
L 481.152134 196.04573 
L 488.053803 189.208278 
L 494.955473 182.75273 
L 501.857143 176.65793 
L 508.758813 170.903851 
L 515.660482 165.471549 
L 522.562152 160.343111 
L 529.463822 155.501602 
L 536.365492 150.93102 
L 543.267161 146.616243 
L 550.168831 142.542987 
L 557.070501 138.697757 
L 563.972171 135.06781 
L 570.87384 131.641109 
L 577.77551 128.406289 
L 584.67718 125.352615 
L 591.57885 122.469954 
L 601.931354 118.445826 
L 612.283859 114.754996 
L 622.636364 111.369875 
L 622.636364 111.369875 
" style="fill:none;stroke:#bcbd22;stroke-linecap:square;stroke-width:1.5;"/>
   </g>
   <g id="line2d_40">
    <path clip-path="url(#pe9c71e69f0)" d="M 115.363636 605.290909 
L 198.183673 605.201599 
L 211.987013 604.883863 
L 225.790353 604.476816 
L 229.241187 604.224345 
L 232.692022 603.779513 
L 236.142857 603.071905 
L 243.044527 601.407652 
L 246.495362 600.782484 
L 249.946197 600.021634 
L 253.397032 598.965374 
L 256.847866 597.642903 
L 263.749536 594.084253 
L 270.651206 589.836887 
L 274.102041 587.453003 
L 281.003711 579.327533 
L 284.454545 574.661099 
L 287.90538 569.290491 
L 291.356215 563.710349 
L 298.257885 553.860514 
L 301.70872 546.428912 
L 305.159555 538.641788 
L 315.512059 513.078589 
L 318.962894 506.083231 
L 322.413729 499.814373 
L 332.766234 472.394561 
L 336.217069 463.96853 
L 339.667904 456.468228 
L 346.569573 444.184702 
L 353.471243 429.494965 
L 356.922078 420.735739 
L 360.372913 411.559162 
L 363.823748 402.988861 
L 367.274583 394.854803 
L 370.725417 388.225271 
L 377.627087 371.6669 
L 381.077922 362.212088 
L 384.528757 353.336073 
L 387.979592 344.781229 
L 391.430427 338.316577 
L 394.881262 332.351716 
L 401.782931 316.154018 
L 405.233766 306.793669 
L 408.684601 298.268022 
L 412.135436 290.14427 
L 415.586271 284.59676 
L 419.037106 279.483777 
L 422.487941 273.67349 
L 425.938776 267.33765 
L 432.840445 254.272664 
L 436.29128 249.030868 
L 439.742115 245.338254 
L 443.19295 241.35023 
L 446.643785 235.186139 
L 453.545455 223.687508 
L 460.447124 214.8613 
L 463.897959 211.30265 
L 467.348794 208.166504 
L 470.799629 203.740519 
L 474.250464 198.488418 
L 477.701299 193.830571 
L 481.152134 189.444088 
L 484.602968 185.93868 
L 488.053803 183.348697 
L 491.504638 181.021491 
L 498.406308 175.401847 
L 505.307978 169.313326 
L 508.758813 166.723343 
L 515.660482 162.984356 
L 526.012987 155.662674 
L 529.463822 153.536415 
L 532.914657 151.629995 
L 536.365492 150.266304 
L 539.816327 149.033142 
L 546.717996 145.163625 
L 550.168831 143.126676 
L 560.521336 138.061782 
L 563.972171 136.675764 
L 581.226345 127.887341 
L 588.128015 125.671772 
L 595.029685 122.624935 
L 598.480519 121.290441 
L 605.382189 118.995868 
L 608.833024 117.906976 
L 612.283859 117.207955 
L 615.734694 116.143108 
L 619.185529 115.44924 
L 622.636364 115.341038 
L 622.636364 115.341038 
" style="fill:none;stroke:#17becf;stroke-dasharray:14.8,6.4;stroke-dashoffset:0;stroke-width:4;"/>
   </g>
   <g id="patch_3">
    <path d="M 90 630 
L 90 86.4 
" style="fill:none;stroke:#000000;stroke-linecap:square;stroke-linejoin:miter;stroke-width:0.8;"/>
   </g>
   <g id="patch_4">
    <path d="M 648 630 
L 648 86.4 
" style="fill:none;stroke:#000000;stroke-linecap:square;stroke-linejoin:miter;stroke-width:0.8;"/>
   </g>
   <g id="patch_5">
    <path d="M 90 630 
L 648 630 
" style="fill:none;stroke:#000000;stroke-linecap:square;stroke-linejoin:miter;stroke-width:0.8;"/>
   </g>
   <g id="patch_6">
    <path d="M 90 86.4 
L 648 86.4 
" style="fill:none;stroke:#000000;stroke-linecap:square;stroke-linejoin:miter;stroke-width:0.8;"/>
   </g>
   <g id="text_18">
    <!-- United Kingdom relative err =  -->
    <g transform="translate(277.036875 80.4)scale(0.12 -0.12)">
     <defs>
      <path d="M 8.6875 72.90625 
L 18.609375 72.90625 
L 18.609375 28.609375 
Q 18.609375 16.890625 22.84375 11.734375 
Q 27.09375 6.59375 36.625 6.59375 
Q 46.09375 6.59375 50.34375 11.734375 
Q 54.59375 16.890625 54.59375 28.609375 
L 54.59375 72.90625 
L 64.5 72.90625 
L 64.5 27.390625 
Q 64.5 13.140625 57.4375 5.859375 
Q 50.390625 -1.421875 36.625 -1.421875 
Q 22.796875 -1.421875 15.734375 5.859375 
Q 8.6875 13.140625 8.6875 27.390625 
z
" id="DejaVuSans-85"/>
      <path d="M 54.890625 33.015625 
L 54.890625 0 
L 45.90625 0 
L 45.90625 32.71875 
Q 45.90625 40.484375 42.875 44.328125 
Q 39.84375 48.1875 33.796875 48.1875 
Q 26.515625 48.1875 22.3125 43.546875 
Q 18.109375 38.921875 18.109375 30.90625 
L 18.109375 0 
L 9.078125 0 
L 9.078125 54.6875 
L 18.109375 54.6875 
L 18.109375 46.1875 
Q 21.34375 51.125 25.703125 53.5625 
Q 30.078125 56 35.796875 56 
Q 45.21875 56 50.046875 50.171875 
Q 54.890625 44.34375 54.890625 33.015625 
z
" id="DejaVuSans-110"/>
      <path d="M 45.40625 46.390625 
L 45.40625 75.984375 
L 54.390625 75.984375 
L 54.390625 0 
L 45.40625 0 
L 45.40625 8.203125 
Q 42.578125 3.328125 38.25 0.953125 
Q 33.9375 -1.421875 27.875 -1.421875 
Q 17.96875 -1.421875 11.734375 6.484375 
Q 5.515625 14.40625 5.515625 27.296875 
Q 5.515625 40.1875 11.734375 48.09375 
Q 17.96875 56 27.875 56 
Q 33.9375 56 38.25 53.625 
Q 42.578125 51.265625 45.40625 46.390625 
z
M 14.796875 27.296875 
Q 14.796875 17.390625 18.875 11.75 
Q 22.953125 6.109375 30.078125 6.109375 
Q 37.203125 6.109375 41.296875 11.75 
Q 45.40625 17.390625 45.40625 27.296875 
Q 45.40625 37.203125 41.296875 42.84375 
Q 37.203125 48.484375 30.078125 48.484375 
Q 22.953125 48.484375 18.875 42.84375 
Q 14.796875 37.203125 14.796875 27.296875 
z
" id="DejaVuSans-100"/>
      <path d="M 9.8125 72.90625 
L 19.671875 72.90625 
L 19.671875 42.09375 
L 52.390625 72.90625 
L 65.09375 72.90625 
L 28.90625 38.921875 
L 67.671875 0 
L 54.6875 0 
L 19.671875 35.109375 
L 19.671875 0 
L 9.8125 0 
z
" id="DejaVuSans-75"/>
      <path d="M 45.40625 27.984375 
Q 45.40625 37.75 41.375 43.109375 
Q 37.359375 48.484375 30.078125 48.484375 
Q 22.859375 48.484375 18.828125 43.109375 
Q 14.796875 37.75 14.796875 27.984375 
Q 14.796875 18.265625 18.828125 12.890625 
Q 22.859375 7.515625 30.078125 7.515625 
Q 37.359375 7.515625 41.375 12.890625 
Q 45.40625 18.265625 45.40625 27.984375 
z
M 54.390625 6.78125 
Q 54.390625 -7.171875 48.1875 -13.984375 
Q 42 -20.796875 29.203125 -20.796875 
Q 24.46875 -20.796875 20.265625 -20.09375 
Q 16.0625 -19.390625 12.109375 -17.921875 
L 12.109375 -9.1875 
Q 16.0625 -11.328125 19.921875 -12.34375 
Q 23.78125 -13.375 27.78125 -13.375 
Q 36.625 -13.375 41.015625 -8.765625 
Q 45.40625 -4.15625 45.40625 5.171875 
L 45.40625 9.625 
Q 42.625 4.78125 38.28125 2.390625 
Q 33.9375 0 27.875 0 
Q 17.828125 0 11.671875 7.65625 
Q 5.515625 15.328125 5.515625 27.984375 
Q 5.515625 40.671875 11.671875 48.328125 
Q 17.828125 56 27.875 56 
Q 33.9375 56 38.28125 53.609375 
Q 42.625 51.21875 45.40625 46.390625 
L 45.40625 54.6875 
L 54.390625 54.6875 
z
" id="DejaVuSans-103"/>
      <path d="M 30.609375 48.390625 
Q 23.390625 48.390625 19.1875 42.75 
Q 14.984375 37.109375 14.984375 27.296875 
Q 14.984375 17.484375 19.15625 11.84375 
Q 23.34375 6.203125 30.609375 6.203125 
Q 37.796875 6.203125 41.984375 11.859375 
Q 46.1875 17.53125 46.1875 27.296875 
Q 46.1875 37.015625 41.984375 42.703125 
Q 37.796875 48.390625 30.609375 48.390625 
z
M 30.609375 56 
Q 42.328125 56 49.015625 48.375 
Q 55.71875 40.765625 55.71875 27.296875 
Q 55.71875 13.875 49.015625 6.21875 
Q 42.328125 -1.421875 30.609375 -1.421875 
Q 18.84375 -1.421875 12.171875 6.21875 
Q 5.515625 13.875 5.515625 27.296875 
Q 5.515625 40.765625 12.171875 48.375 
Q 18.84375 56 30.609375 56 
z
" id="DejaVuSans-111"/>
      <path d="M 41.109375 46.296875 
Q 39.59375 47.171875 37.8125 47.578125 
Q 36.03125 48 33.890625 48 
Q 26.265625 48 22.1875 43.046875 
Q 18.109375 38.09375 18.109375 28.8125 
L 18.109375 0 
L 9.078125 0 
L 9.078125 54.6875 
L 18.109375 54.6875 
L 18.109375 46.1875 
Q 20.953125 51.171875 25.484375 53.578125 
Q 30.03125 56 36.53125 56 
Q 37.453125 56 38.578125 55.875 
Q 39.703125 55.765625 41.0625 55.515625 
z
" id="DejaVuSans-114"/>
      <path d="M 10.59375 45.40625 
L 73.1875 45.40625 
L 73.1875 37.203125 
L 10.59375 37.203125 
z
M 10.59375 25.484375 
L 73.1875 25.484375 
L 73.1875 17.1875 
L 10.59375 17.1875 
z
" id="DejaVuSans-61"/>
     </defs>
     <use xlink:href="#DejaVuSans-85"/>
     <use x="73.193359" xlink:href="#DejaVuSans-110"/>
     <use x="136.572266" xlink:href="#DejaVuSans-105"/>
     <use x="164.355469" xlink:href="#DejaVuSans-116"/>
     <use x="203.564453" xlink:href="#DejaVuSans-101"/>
     <use x="265.087891" xlink:href="#DejaVuSans-100"/>
     <use x="328.564453" xlink:href="#DejaVuSans-32"/>
     <use x="360.351562" xlink:href="#DejaVuSans-75"/>
     <use x="425.927734" xlink:href="#DejaVuSans-105"/>
     <use x="453.710938" xlink:href="#DejaVuSans-110"/>
     <use x="517.089844" xlink:href="#DejaVuSans-103"/>
     <use x="580.566406" xlink:href="#DejaVuSans-100"/>
     <use x="644.042969" xlink:href="#DejaVuSans-111"/>
     <use x="705.224609" xlink:href="#DejaVuSans-109"/>
     <use x="802.636719" xlink:href="#DejaVuSans-32"/>
     <use x="834.423828" xlink:href="#DejaVuSans-114"/>
     <use x="873.287109" xlink:href="#DejaVuSans-101"/>
     <use x="934.810547" xlink:href="#DejaVuSans-108"/>
     <use x="962.59375" xlink:href="#DejaVuSans-97"/>
     <use x="1023.873047" xlink:href="#DejaVuSans-116"/>
     <use x="1063.082031" xlink:href="#DejaVuSans-105"/>
     <use x="1090.865234" xlink:href="#DejaVuSans-118"/>
     <use x="1150.044922" xlink:href="#DejaVuSans-101"/>
     <use x="1211.568359" xlink:href="#DejaVuSans-32"/>
     <use x="1243.355469" xlink:href="#DejaVuSans-101"/>
     <use x="1304.878906" xlink:href="#DejaVuSans-114"/>
     <use x="1344.242188" xlink:href="#DejaVuSans-114"/>
     <use x="1385.355469" xlink:href="#DejaVuSans-32"/>
     <use x="1417.142578" xlink:href="#DejaVuSans-61"/>
     <use x="1500.931641" xlink:href="#DejaVuSans-32"/>
    </g>
   </g>
   <g id="legend_1">
    <g id="patch_7">
     <path d="M 97 226.503125 
L 185.6 226.503125 
Q 187.6 226.503125 187.6 224.503125 
L 187.6 93.4 
Q 187.6 91.4 185.6 91.4 
L 97 91.4 
Q 95 91.4 95 93.4 
L 95 224.503125 
Q 95 226.503125 97 226.503125 
z
" style="fill:#ffffff;opacity:0.8;stroke:#cccccc;stroke-linejoin:miter;"/>
    </g>
    <g id="line2d_41">
     <path d="M 99 99.498438 
L 119 99.498438 
" style="fill:none;stroke:#1f77b4;stroke-linecap:square;stroke-width:1.5;"/>
    </g>
    <g id="line2d_42"/>
    <g id="text_19">
     <!-- SI -->
     <g transform="translate(127 102.998438)scale(0.1 -0.1)">
      <defs>
       <path d="M 53.515625 70.515625 
L 53.515625 60.890625 
Q 47.90625 63.578125 42.921875 64.890625 
Q 37.9375 66.21875 33.296875 66.21875 
Q 25.25 66.21875 20.875 63.09375 
Q 16.5 59.96875 16.5 54.203125 
Q 16.5 49.359375 19.40625 46.890625 
Q 22.3125 44.4375 30.421875 42.921875 
L 36.375 41.703125 
Q 47.40625 39.59375 52.65625 34.296875 
Q 57.90625 29 57.90625 20.125 
Q 57.90625 9.515625 50.796875 4.046875 
Q 43.703125 -1.421875 29.984375 -1.421875 
Q 24.8125 -1.421875 18.96875 -0.25 
Q 13.140625 0.921875 6.890625 3.21875 
L 6.890625 13.375 
Q 12.890625 10.015625 18.65625 8.296875 
Q 24.421875 6.59375 29.984375 6.59375 
Q 38.421875 6.59375 43.015625 9.90625 
Q 47.609375 13.234375 47.609375 19.390625 
Q 47.609375 24.75 44.3125 27.78125 
Q 41.015625 30.8125 33.5 32.328125 
L 27.484375 33.5 
Q 16.453125 35.6875 11.515625 40.375 
Q 6.59375 45.0625 6.59375 53.421875 
Q 6.59375 63.09375 13.40625 68.65625 
Q 20.21875 74.21875 32.171875 74.21875 
Q 37.3125 74.21875 42.625 73.28125 
Q 47.953125 72.359375 53.515625 70.515625 
z
" id="DejaVuSans-83"/>
       <path d="M 9.8125 72.90625 
L 19.671875 72.90625 
L 19.671875 0 
L 9.8125 0 
z
" id="DejaVuSans-73"/>
      </defs>
      <use xlink:href="#DejaVuSans-83"/>
      <use x="63.476562" xlink:href="#DejaVuSans-73"/>
     </g>
    </g>
    <g id="line2d_43">
     <path d="M 99 114.176563 
L 119 114.176563 
" style="fill:none;stroke:#ff7f0e;stroke-linecap:square;stroke-width:1.5;"/>
    </g>
    <g id="line2d_44"/>
    <g id="text_20">
     <!-- BD -->
     <g transform="translate(127 117.676563)scale(0.1 -0.1)">
      <defs>
       <path d="M 19.671875 34.8125 
L 19.671875 8.109375 
L 35.5 8.109375 
Q 43.453125 8.109375 47.28125 11.40625 
Q 51.125 14.703125 51.125 21.484375 
Q 51.125 28.328125 47.28125 31.5625 
Q 43.453125 34.8125 35.5 34.8125 
z
M 19.671875 64.796875 
L 19.671875 42.828125 
L 34.28125 42.828125 
Q 41.5 42.828125 45.03125 45.53125 
Q 48.578125 48.25 48.578125 53.8125 
Q 48.578125 59.328125 45.03125 62.0625 
Q 41.5 64.796875 34.28125 64.796875 
z
M 9.8125 72.90625 
L 35.015625 72.90625 
Q 46.296875 72.90625 52.390625 68.21875 
Q 58.5 63.53125 58.5 54.890625 
Q 58.5 48.1875 55.375 44.234375 
Q 52.25 40.28125 46.1875 39.3125 
Q 53.46875 37.75 57.5 32.78125 
Q 61.53125 27.828125 61.53125 20.40625 
Q 61.53125 10.640625 54.890625 5.3125 
Q 48.25 0 35.984375 0 
L 9.8125 0 
z
" id="DejaVuSans-66"/>
      </defs>
      <use xlink:href="#DejaVuSans-66"/>
      <use x="68.603516" xlink:href="#DejaVuSans-68"/>
     </g>
    </g>
    <g id="line2d_45">
     <path d="M 99 128.854688 
L 119 128.854688 
" style="fill:none;stroke:#2ca02c;stroke-linecap:square;stroke-width:1.5;"/>
    </g>
    <g id="line2d_46"/>
    <g id="text_21">
     <!-- SIR -->
     <g transform="translate(127 132.354688)scale(0.1 -0.1)">
      <defs>
       <path d="M 44.390625 34.1875 
Q 47.5625 33.109375 50.5625 29.59375 
Q 53.5625 26.078125 56.59375 19.921875 
L 66.609375 0 
L 56 0 
L 46.6875 18.703125 
Q 43.0625 26.03125 39.671875 28.421875 
Q 36.28125 30.8125 30.421875 30.8125 
L 19.671875 30.8125 
L 19.671875 0 
L 9.8125 0 
L 9.8125 72.90625 
L 32.078125 72.90625 
Q 44.578125 72.90625 50.734375 67.671875 
Q 56.890625 62.453125 56.890625 51.90625 
Q 56.890625 45.015625 53.6875 40.46875 
Q 50.484375 35.9375 44.390625 34.1875 
z
M 19.671875 64.796875 
L 19.671875 38.921875 
L 32.078125 38.921875 
Q 39.203125 38.921875 42.84375 42.21875 
Q 46.484375 45.515625 46.484375 51.90625 
Q 46.484375 58.296875 42.84375 61.546875 
Q 39.203125 64.796875 32.078125 64.796875 
z
" id="DejaVuSans-82"/>
      </defs>
      <use xlink:href="#DejaVuSans-83"/>
      <use x="63.476562" xlink:href="#DejaVuSans-73"/>
      <use x="92.96875" xlink:href="#DejaVuSans-82"/>
     </g>
    </g>
    <g id="line2d_47">
     <path d="M 99 143.532812 
L 119 143.532812 
" style="fill:none;stroke:#d62728;stroke-linecap:square;stroke-width:1.5;"/>
    </g>
    <g id="line2d_48"/>
    <g id="text_22">
     <!-- eSIR -->
     <g transform="translate(127 147.032812)scale(0.1 -0.1)">
      <use xlink:href="#DejaVuSans-101"/>
      <use x="61.523438" xlink:href="#DejaVuSans-83"/>
      <use x="125" xlink:href="#DejaVuSans-73"/>
      <use x="154.492188" xlink:href="#DejaVuSans-82"/>
     </g>
    </g>
    <g id="line2d_49">
     <path d="M 99 158.210938 
L 119 158.210938 
" style="fill:none;stroke:#9467bd;stroke-linecap:square;stroke-width:1.5;"/>
    </g>
    <g id="line2d_50"/>
    <g id="text_23">
     <!-- SEIR -->
     <g transform="translate(127 161.710938)scale(0.1 -0.1)">
      <defs>
       <path d="M 9.8125 72.90625 
L 55.90625 72.90625 
L 55.90625 64.59375 
L 19.671875 64.59375 
L 19.671875 43.015625 
L 54.390625 43.015625 
L 54.390625 34.71875 
L 19.671875 34.71875 
L 19.671875 8.296875 
L 56.78125 8.296875 
L 56.78125 0 
L 9.8125 0 
z
" id="DejaVuSans-69"/>
      </defs>
      <use xlink:href="#DejaVuSans-83"/>
      <use x="63.476562" xlink:href="#DejaVuSans-69"/>
      <use x="126.660156" xlink:href="#DejaVuSans-73"/>
      <use x="156.152344" xlink:href="#DejaVuSans-82"/>
     </g>
    </g>
    <g id="line2d_51">
     <path d="M 99 172.889063 
L 119 172.889063 
" style="fill:none;stroke:#8c564b;stroke-linecap:square;stroke-width:1.5;"/>
    </g>
    <g id="line2d_52"/>
    <g id="text_24">
     <!-- eSEIR -->
     <g transform="translate(127 176.389063)scale(0.1 -0.1)">
      <use xlink:href="#DejaVuSans-101"/>
      <use x="61.523438" xlink:href="#DejaVuSans-83"/>
      <use x="125" xlink:href="#DejaVuSans-69"/>
      <use x="188.183594" xlink:href="#DejaVuSans-73"/>
      <use x="217.675781" xlink:href="#DejaVuSans-82"/>
     </g>
    </g>
    <g id="line2d_53">
     <path d="M 99 187.567188 
L 119 187.567188 
" style="fill:none;stroke:#e377c2;stroke-linecap:square;stroke-width:1.5;"/>
    </g>
    <g id="line2d_54"/>
    <g id="text_25">
     <!-- SEIUR -->
     <g transform="translate(127 191.067188)scale(0.1 -0.1)">
      <use xlink:href="#DejaVuSans-83"/>
      <use x="63.476562" xlink:href="#DejaVuSans-69"/>
      <use x="126.660156" xlink:href="#DejaVuSans-73"/>
      <use x="156.152344" xlink:href="#DejaVuSans-85"/>
      <use x="229.345703" xlink:href="#DejaVuSans-82"/>
     </g>
    </g>
    <g id="line2d_55">
     <path d="M 99 202.245312 
L 119 202.245312 
" style="fill:none;stroke:#7f7f7f;stroke-linecap:square;stroke-width:1.5;"/>
    </g>
    <g id="line2d_56"/>
    <g id="text_26">
     <!-- eSEIUR -->
     <g transform="translate(127 205.745312)scale(0.1 -0.1)">
      <use xlink:href="#DejaVuSans-101"/>
      <use x="61.523438" xlink:href="#DejaVuSans-83"/>
      <use x="125" xlink:href="#DejaVuSans-69"/>
      <use x="188.183594" xlink:href="#DejaVuSans-73"/>
      <use x="217.675781" xlink:href="#DejaVuSans-85"/>
      <use x="290.869141" xlink:href="#DejaVuSans-82"/>
     </g>
    </g>
    <g id="line2d_57">
     <path d="M 99 216.923437 
L 119 216.923437 
" style="fill:none;stroke:#bcbd22;stroke-linecap:square;stroke-width:1.5;"/>
    </g>
    <g id="line2d_58"/>
    <g id="text_27">
     <!-- eSEIUR$^{range}$ -->
     <g transform="translate(127 220.423437)scale(0.1 -0.1)">
      <defs>
       <path d="M 44.578125 46.390625 
Q 43.21875 47.125 41.453125 47.515625 
Q 39.703125 47.90625 37.703125 47.90625 
Q 30.515625 47.90625 25.140625 42.453125 
Q 19.78125 37.015625 18.015625 27.875 
L 12.5 0 
L 3.515625 0 
L 14.203125 54.6875 
L 23.1875 54.6875 
L 21.484375 46.1875 
Q 25.046875 50.921875 30 53.453125 
Q 34.96875 56 40.578125 56 
Q 42.046875 56 43.453125 55.828125 
Q 44.875 55.671875 46.296875 55.28125 
z
" id="DejaVuSans-Oblique-114"/>
       <path d="M 53.71875 31.203125 
L 47.609375 0 
L 38.625 0 
L 40.28125 8.296875 
Q 36.328125 3.421875 31.265625 1 
Q 26.21875 -1.421875 20.015625 -1.421875 
Q 13.03125 -1.421875 8.5625 2.84375 
Q 4.109375 7.125 4.109375 13.8125 
Q 4.109375 23.390625 11.75 28.953125 
Q 19.390625 34.515625 32.8125 34.515625 
L 45.3125 34.515625 
L 45.796875 36.921875 
Q 45.90625 37.3125 45.953125 37.765625 
Q 46 38.234375 46 39.203125 
Q 46 43.5625 42.453125 45.96875 
Q 38.921875 48.390625 32.515625 48.390625 
Q 28.125 48.390625 23.5 47.265625 
Q 18.890625 46.140625 14.015625 43.890625 
L 15.578125 52.203125 
Q 20.65625 54.109375 25.515625 55.046875 
Q 30.375 56 34.90625 56 
Q 44.578125 56 49.625 51.796875 
Q 54.6875 47.609375 54.6875 39.59375 
Q 54.6875 37.984375 54.4375 35.8125 
Q 54.203125 33.640625 53.71875 31.203125 
z
M 44 27.484375 
L 35.015625 27.484375 
Q 23.96875 27.484375 18.671875 24.53125 
Q 13.375 21.578125 13.375 15.375 
Q 13.375 11.078125 16.078125 8.640625 
Q 18.796875 6.203125 23.578125 6.203125 
Q 30.90625 6.203125 36.375 11.453125 
Q 41.84375 16.703125 43.609375 25.484375 
z
" id="DejaVuSans-Oblique-97"/>
       <path d="M 55.71875 33.015625 
L 49.3125 0 
L 40.28125 0 
L 46.6875 32.671875 
Q 47.125 34.96875 47.359375 36.71875 
Q 47.609375 38.484375 47.609375 39.5 
Q 47.609375 43.609375 45.015625 45.890625 
Q 42.4375 48.1875 37.796875 48.1875 
Q 30.5625 48.1875 25.34375 43.375 
Q 20.125 38.578125 18.5 30.328125 
L 12.5 0 
L 3.515625 0 
L 14.109375 54.6875 
L 23.09375 54.6875 
L 21.296875 46.09375 
Q 25.046875 50.828125 30.3125 53.40625 
Q 35.59375 56 41.40625 56 
Q 48.640625 56 52.609375 52.09375 
Q 56.59375 48.1875 56.59375 41.109375 
Q 56.59375 39.359375 56.375 37.359375 
Q 56.15625 35.359375 55.71875 33.015625 
z
" id="DejaVuSans-Oblique-110"/>
       <path d="M 59.625 54.6875 
L 50.296875 6.78125 
Q 47.609375 -7.125 40.015625 -13.953125 
Q 32.421875 -20.796875 19.578125 -20.796875 
Q 14.84375 -20.796875 10.78125 -20.09375 
Q 6.734375 -19.390625 3.21875 -17.921875 
L 4.890625 -9.1875 
Q 8.203125 -11.328125 11.90625 -12.34375 
Q 15.625 -13.375 19.828125 -13.375 
Q 28.375 -13.375 33.859375 -8.703125 
Q 39.359375 -4.046875 41.109375 4.6875 
L 41.890625 8.796875 
Q 38.140625 4.5 33.15625 2.25 
Q 28.171875 0 22.40625 0 
Q 14.109375 0 9.34375 5.484375 
Q 4.59375 10.984375 4.59375 20.609375 
Q 4.59375 28.171875 7.46875 35.421875 
Q 10.359375 42.671875 15.578125 48.296875 
Q 19.046875 52 23.65625 54 
Q 28.265625 56 33.296875 56 
Q 38.8125 56 42.90625 53.4375 
Q 47.015625 50.875 49.03125 46.1875 
L 50.59375 54.6875 
z
M 46.09375 34.625 
Q 46.09375 41.265625 42.96875 44.875 
Q 39.84375 48.484375 34.078125 48.484375 
Q 30.515625 48.484375 27.296875 47.0625 
Q 24.078125 45.65625 21.78125 43.109375 
Q 18.0625 38.921875 15.984375 33.234375 
Q 13.921875 27.546875 13.921875 21.484375 
Q 13.921875 14.75 17.0625 11.125 
Q 20.21875 7.515625 26.125 7.515625 
Q 34.671875 7.515625 40.375 15.25 
Q 46.09375 23 46.09375 34.625 
z
" id="DejaVuSans-Oblique-103"/>
       <path d="M 48.09375 32.234375 
Q 48.25 33.015625 48.3125 33.84375 
Q 48.390625 34.671875 48.390625 35.5 
Q 48.390625 41.453125 44.890625 44.921875 
Q 41.40625 48.390625 35.40625 48.390625 
Q 28.71875 48.390625 23.578125 44.15625 
Q 18.453125 39.9375 15.828125 32.171875 
z
M 55.90625 25.203125 
L 14.109375 25.203125 
Q 13.8125 23.34375 13.71875 22.265625 
Q 13.625 21.1875 13.625 20.40625 
Q 13.625 13.625 17.796875 9.90625 
Q 21.96875 6.203125 29.59375 6.203125 
Q 35.453125 6.203125 40.671875 7.515625 
Q 45.90625 8.84375 50.390625 11.375 
L 48.6875 2.484375 
Q 43.84375 0.53125 38.6875 -0.4375 
Q 33.546875 -1.421875 28.21875 -1.421875 
Q 16.84375 -1.421875 10.71875 4.015625 
Q 4.59375 9.46875 4.59375 19.484375 
Q 4.59375 28.03125 7.640625 35.375 
Q 10.6875 42.71875 16.609375 48.484375 
Q 20.40625 52.09375 25.65625 54.046875 
Q 30.90625 56 36.8125 56 
Q 46.09375 56 51.578125 50.4375 
Q 57.078125 44.875 57.078125 35.5 
Q 57.078125 33.25 56.78125 30.6875 
Q 56.5 28.125 55.90625 25.203125 
z
" id="DejaVuSans-Oblique-101"/>
      </defs>
      <use transform="translate(0 0.51875)" xlink:href="#DejaVuSans-101"/>
      <use transform="translate(61.523438 0.51875)" xlink:href="#DejaVuSans-83"/>
      <use transform="translate(125 0.51875)" xlink:href="#DejaVuSans-69"/>
      <use transform="translate(188.183594 0.51875)" xlink:href="#DejaVuSans-73"/>
      <use transform="translate(217.675781 0.51875)" xlink:href="#DejaVuSans-85"/>
      <use transform="translate(288.619141 0.51875)" xlink:href="#DejaVuSans-82"/>
      <use transform="translate(359.058594 38.8)scale(0.7)" xlink:href="#DejaVuSans-Oblique-114"/>
      <use transform="translate(387.837891 38.8)scale(0.7)" xlink:href="#DejaVuSans-Oblique-97"/>
      <use transform="translate(430.733398 38.8)scale(0.7)" xlink:href="#DejaVuSans-Oblique-110"/>
      <use transform="translate(475.098633 38.8)scale(0.7)" xlink:href="#DejaVuSans-Oblique-103"/>
      <use transform="translate(519.532227 38.8)scale(0.7)" xlink:href="#DejaVuSans-Oblique-101"/>
     </g>
    </g>
   </g>
  </g>
 </g>
 <defs>
  <clipPath id="pe9c71e69f0">
   <rect height="543.6" width="558" x="90" y="86.4"/>
  </clipPath>
 </defs>
</svg>
