<?xml version="1.0" encoding="utf-8" standalone="no"?>
<!DOCTYPE svg PUBLIC "-//W3C//DTD SVG 1.1//EN"
  "http://www.w3.org/Graphics/SVG/1.1/DTD/svg11.dtd">
<!-- Created with matplotlib (https://matplotlib.org/) -->
<svg height="720pt" version="1.1" viewBox="0 0 720 720" width="720pt" xmlns="http://www.w3.org/2000/svg" xmlns:xlink="http://www.w3.org/1999/xlink">
 <metadata>
  <rdf:RDF xmlns:cc="http://creativecommons.org/ns#" xmlns:dc="http://purl.org/dc/elements/1.1/" xmlns:rdf="http://www.w3.org/1999/02/22-rdf-syntax-ns#">
   <cc:Work>
    <dc:type rdf:resource="http://purl.org/dc/dcmitype/StillImage"/>
    <dc:date>2022-10-11T20:58:53.806037</dc:date>
    <dc:format>image/svg+xml</dc:format>
    <dc:creator>
     <cc:Agent>
      <dc:title>Matplotlib v3.3.2, https://matplotlib.org/</dc:title>
     </cc:Agent>
    </dc:creator>
   </cc:Work>
  </rdf:RDF>
 </metadata>
 <defs>
  <style type="text/css">*{stroke-linecap:butt;stroke-linejoin:round;}</style>
 </defs>
 <g id="figure_1">
  <g id="patch_1">
   <path d="M 0 720 
L 720 720 
L 720 0 
L 0 0 
z
" style="fill:none;"/>
  </g>
  <g id="axes_1">
   <g id="patch_2">
    <path d="M 90 630 
L 648 630 
L 648 86.4 
L 90 86.4 
z
" style="fill:#ffffff;"/>
   </g>
   <g id="matplotlib.axis_1">
    <g id="xtick_1">
     <g id="line2d_1">
      <path clip-path="url(#p69fe909367)" d="M 115.363636 630 
L 115.363636 86.4 
" style="fill:none;stroke:#b0b0b0;stroke-linecap:square;stroke-width:0.8;"/>
     </g>
     <g id="line2d_2">
      <defs>
       <path d="M 0 0 
L 0 3.5 
" id="medde152f5f" style="stroke:#000000;stroke-width:0.8;"/>
      </defs>
      <g>
       <use style="stroke:#000000;stroke-width:0.8;" x="115.363636" xlink:href="#medde152f5f" y="630"/>
      </g>
     </g>
     <g id="text_1">
      <!-- 0 -->
      <g transform="translate(112.182386 644.598438)scale(0.1 -0.1)">
       <defs>
        <path d="M 31.78125 66.40625 
Q 24.171875 66.40625 20.328125 58.90625 
Q 16.5 51.421875 16.5 36.375 
Q 16.5 21.390625 20.328125 13.890625 
Q 24.171875 6.390625 31.78125 6.390625 
Q 39.453125 6.390625 43.28125 13.890625 
Q 47.125 21.390625 47.125 36.375 
Q 47.125 51.421875 43.28125 58.90625 
Q 39.453125 66.40625 31.78125 66.40625 
z
M 31.78125 74.21875 
Q 44.046875 74.21875 50.515625 64.515625 
Q 56.984375 54.828125 56.984375 36.375 
Q 56.984375 17.96875 50.515625 8.265625 
Q 44.046875 -1.421875 31.78125 -1.421875 
Q 19.53125 -1.421875 13.0625 8.265625 
Q 6.59375 17.96875 6.59375 36.375 
Q 6.59375 54.828125 13.0625 64.515625 
Q 19.53125 74.21875 31.78125 74.21875 
z
" id="DejaVuSans-48"/>
       </defs>
       <use xlink:href="#DejaVuSans-48"/>
      </g>
     </g>
    </g>
    <g id="xtick_2">
     <g id="line2d_3">
      <path clip-path="url(#p69fe909367)" d="M 228.090909 630 
L 228.090909 86.4 
" style="fill:none;stroke:#b0b0b0;stroke-linecap:square;stroke-width:0.8;"/>
     </g>
     <g id="line2d_4">
      <g>
       <use style="stroke:#000000;stroke-width:0.8;" x="228.090909" xlink:href="#medde152f5f" y="630"/>
      </g>
     </g>
     <g id="text_2">
      <!-- 20 -->
      <g transform="translate(221.728409 644.598438)scale(0.1 -0.1)">
       <defs>
        <path d="M 19.1875 8.296875 
L 53.609375 8.296875 
L 53.609375 0 
L 7.328125 0 
L 7.328125 8.296875 
Q 12.9375 14.109375 22.625 23.890625 
Q 32.328125 33.6875 34.8125 36.53125 
Q 39.546875 41.84375 41.421875 45.53125 
Q 43.3125 49.21875 43.3125 52.78125 
Q 43.3125 58.59375 39.234375 62.25 
Q 35.15625 65.921875 28.609375 65.921875 
Q 23.96875 65.921875 18.8125 64.3125 
Q 13.671875 62.703125 7.8125 59.421875 
L 7.8125 69.390625 
Q 13.765625 71.78125 18.9375 73 
Q 24.125 74.21875 28.421875 74.21875 
Q 39.75 74.21875 46.484375 68.546875 
Q 53.21875 62.890625 53.21875 53.421875 
Q 53.21875 48.921875 51.53125 44.890625 
Q 49.859375 40.875 45.40625 35.40625 
Q 44.1875 33.984375 37.640625 27.21875 
Q 31.109375 20.453125 19.1875 8.296875 
z
" id="DejaVuSans-50"/>
       </defs>
       <use xlink:href="#DejaVuSans-50"/>
       <use x="63.623047" xlink:href="#DejaVuSans-48"/>
      </g>
     </g>
    </g>
    <g id="xtick_3">
     <g id="line2d_5">
      <path clip-path="url(#p69fe909367)" d="M 340.818182 630 
L 340.818182 86.4 
" style="fill:none;stroke:#b0b0b0;stroke-linecap:square;stroke-width:0.8;"/>
     </g>
     <g id="line2d_6">
      <g>
       <use style="stroke:#000000;stroke-width:0.8;" x="340.818182" xlink:href="#medde152f5f" y="630"/>
      </g>
     </g>
     <g id="text_3">
      <!-- 40 -->
      <g transform="translate(334.455682 644.598438)scale(0.1 -0.1)">
       <defs>
        <path d="M 37.796875 64.3125 
L 12.890625 25.390625 
L 37.796875 25.390625 
z
M 35.203125 72.90625 
L 47.609375 72.90625 
L 47.609375 25.390625 
L 58.015625 25.390625 
L 58.015625 17.1875 
L 47.609375 17.1875 
L 47.609375 0 
L 37.796875 0 
L 37.796875 17.1875 
L 4.890625 17.1875 
L 4.890625 26.703125 
z
" id="DejaVuSans-52"/>
       </defs>
       <use xlink:href="#DejaVuSans-52"/>
       <use x="63.623047" xlink:href="#DejaVuSans-48"/>
      </g>
     </g>
    </g>
    <g id="xtick_4">
     <g id="line2d_7">
      <path clip-path="url(#p69fe909367)" d="M 453.545455 630 
L 453.545455 86.4 
" style="fill:none;stroke:#b0b0b0;stroke-linecap:square;stroke-width:0.8;"/>
     </g>
     <g id="line2d_8">
      <g>
       <use style="stroke:#000000;stroke-width:0.8;" x="453.545455" xlink:href="#medde152f5f" y="630"/>
      </g>
     </g>
     <g id="text_4">
      <!-- 60 -->
      <g transform="translate(447.182955 644.598438)scale(0.1 -0.1)">
       <defs>
        <path d="M 33.015625 40.375 
Q 26.375 40.375 22.484375 35.828125 
Q 18.609375 31.296875 18.609375 23.390625 
Q 18.609375 15.53125 22.484375 10.953125 
Q 26.375 6.390625 33.015625 6.390625 
Q 39.65625 6.390625 43.53125 10.953125 
Q 47.40625 15.53125 47.40625 23.390625 
Q 47.40625 31.296875 43.53125 35.828125 
Q 39.65625 40.375 33.015625 40.375 
z
M 52.59375 71.296875 
L 52.59375 62.3125 
Q 48.875 64.0625 45.09375 64.984375 
Q 41.3125 65.921875 37.59375 65.921875 
Q 27.828125 65.921875 22.671875 59.328125 
Q 17.53125 52.734375 16.796875 39.40625 
Q 19.671875 43.65625 24.015625 45.921875 
Q 28.375 48.1875 33.59375 48.1875 
Q 44.578125 48.1875 50.953125 41.515625 
Q 57.328125 34.859375 57.328125 23.390625 
Q 57.328125 12.15625 50.6875 5.359375 
Q 44.046875 -1.421875 33.015625 -1.421875 
Q 20.359375 -1.421875 13.671875 8.265625 
Q 6.984375 17.96875 6.984375 36.375 
Q 6.984375 53.65625 15.1875 63.9375 
Q 23.390625 74.21875 37.203125 74.21875 
Q 40.921875 74.21875 44.703125 73.484375 
Q 48.484375 72.75 52.59375 71.296875 
z
" id="DejaVuSans-54"/>
       </defs>
       <use xlink:href="#DejaVuSans-54"/>
       <use x="63.623047" xlink:href="#DejaVuSans-48"/>
      </g>
     </g>
    </g>
    <g id="xtick_5">
     <g id="line2d_9">
      <path clip-path="url(#p69fe909367)" d="M 566.272727 630 
L 566.272727 86.4 
" style="fill:none;stroke:#b0b0b0;stroke-linecap:square;stroke-width:0.8;"/>
     </g>
     <g id="line2d_10">
      <g>
       <use style="stroke:#000000;stroke-width:0.8;" x="566.272727" xlink:href="#medde152f5f" y="630"/>
      </g>
     </g>
     <g id="text_5">
      <!-- 80 -->
      <g transform="translate(559.910227 644.598438)scale(0.1 -0.1)">
       <defs>
        <path d="M 31.78125 34.625 
Q 24.75 34.625 20.71875 30.859375 
Q 16.703125 27.09375 16.703125 20.515625 
Q 16.703125 13.921875 20.71875 10.15625 
Q 24.75 6.390625 31.78125 6.390625 
Q 38.8125 6.390625 42.859375 10.171875 
Q 46.921875 13.96875 46.921875 20.515625 
Q 46.921875 27.09375 42.890625 30.859375 
Q 38.875 34.625 31.78125 34.625 
z
M 21.921875 38.8125 
Q 15.578125 40.375 12.03125 44.71875 
Q 8.5 49.078125 8.5 55.328125 
Q 8.5 64.0625 14.71875 69.140625 
Q 20.953125 74.21875 31.78125 74.21875 
Q 42.671875 74.21875 48.875 69.140625 
Q 55.078125 64.0625 55.078125 55.328125 
Q 55.078125 49.078125 51.53125 44.71875 
Q 48 40.375 41.703125 38.8125 
Q 48.828125 37.15625 52.796875 32.3125 
Q 56.78125 27.484375 56.78125 20.515625 
Q 56.78125 9.90625 50.3125 4.234375 
Q 43.84375 -1.421875 31.78125 -1.421875 
Q 19.734375 -1.421875 13.25 4.234375 
Q 6.78125 9.90625 6.78125 20.515625 
Q 6.78125 27.484375 10.78125 32.3125 
Q 14.796875 37.15625 21.921875 38.8125 
z
M 18.3125 54.390625 
Q 18.3125 48.734375 21.84375 45.5625 
Q 25.390625 42.390625 31.78125 42.390625 
Q 38.140625 42.390625 41.71875 45.5625 
Q 45.3125 48.734375 45.3125 54.390625 
Q 45.3125 60.0625 41.71875 63.234375 
Q 38.140625 66.40625 31.78125 66.40625 
Q 25.390625 66.40625 21.84375 63.234375 
Q 18.3125 60.0625 18.3125 54.390625 
z
" id="DejaVuSans-56"/>
       </defs>
       <use xlink:href="#DejaVuSans-56"/>
       <use x="63.623047" xlink:href="#DejaVuSans-48"/>
      </g>
     </g>
    </g>
    <g id="text_6">
     <!-- Days -->
     <g transform="translate(356.521875 658.276562)scale(0.1 -0.1)">
      <defs>
       <path d="M 19.671875 64.796875 
L 19.671875 8.109375 
L 31.59375 8.109375 
Q 46.6875 8.109375 53.6875 14.9375 
Q 60.6875 21.78125 60.6875 36.53125 
Q 60.6875 51.171875 53.6875 57.984375 
Q 46.6875 64.796875 31.59375 64.796875 
z
M 9.8125 72.90625 
L 30.078125 72.90625 
Q 51.265625 72.90625 61.171875 64.09375 
Q 71.09375 55.28125 71.09375 36.53125 
Q 71.09375 17.671875 61.125 8.828125 
Q 51.171875 0 30.078125 0 
L 9.8125 0 
z
" id="DejaVuSans-68"/>
       <path d="M 34.28125 27.484375 
Q 23.390625 27.484375 19.1875 25 
Q 14.984375 22.515625 14.984375 16.5 
Q 14.984375 11.71875 18.140625 8.90625 
Q 21.296875 6.109375 26.703125 6.109375 
Q 34.1875 6.109375 38.703125 11.40625 
Q 43.21875 16.703125 43.21875 25.484375 
L 43.21875 27.484375 
z
M 52.203125 31.203125 
L 52.203125 0 
L 43.21875 0 
L 43.21875 8.296875 
Q 40.140625 3.328125 35.546875 0.953125 
Q 30.953125 -1.421875 24.3125 -1.421875 
Q 15.921875 -1.421875 10.953125 3.296875 
Q 6 8.015625 6 15.921875 
Q 6 25.140625 12.171875 29.828125 
Q 18.359375 34.515625 30.609375 34.515625 
L 43.21875 34.515625 
L 43.21875 35.40625 
Q 43.21875 41.609375 39.140625 45 
Q 35.0625 48.390625 27.6875 48.390625 
Q 23 48.390625 18.546875 47.265625 
Q 14.109375 46.140625 10.015625 43.890625 
L 10.015625 52.203125 
Q 14.9375 54.109375 19.578125 55.046875 
Q 24.21875 56 28.609375 56 
Q 40.484375 56 46.34375 49.84375 
Q 52.203125 43.703125 52.203125 31.203125 
z
" id="DejaVuSans-97"/>
       <path d="M 32.171875 -5.078125 
Q 28.375 -14.84375 24.75 -17.8125 
Q 21.140625 -20.796875 15.09375 -20.796875 
L 7.90625 -20.796875 
L 7.90625 -13.28125 
L 13.1875 -13.28125 
Q 16.890625 -13.28125 18.9375 -11.515625 
Q 21 -9.765625 23.484375 -3.21875 
L 25.09375 0.875 
L 2.984375 54.6875 
L 12.5 54.6875 
L 29.59375 11.921875 
L 46.6875 54.6875 
L 56.203125 54.6875 
z
" id="DejaVuSans-121"/>
       <path d="M 44.28125 53.078125 
L 44.28125 44.578125 
Q 40.484375 46.53125 36.375 47.5 
Q 32.28125 48.484375 27.875 48.484375 
Q 21.1875 48.484375 17.84375 46.4375 
Q 14.5 44.390625 14.5 40.28125 
Q 14.5 37.15625 16.890625 35.375 
Q 19.28125 33.59375 26.515625 31.984375 
L 29.59375 31.296875 
Q 39.15625 29.25 43.1875 25.515625 
Q 47.21875 21.78125 47.21875 15.09375 
Q 47.21875 7.46875 41.1875 3.015625 
Q 35.15625 -1.421875 24.609375 -1.421875 
Q 20.21875 -1.421875 15.453125 -0.5625 
Q 10.6875 0.296875 5.421875 2 
L 5.421875 11.28125 
Q 10.40625 8.6875 15.234375 7.390625 
Q 20.0625 6.109375 24.8125 6.109375 
Q 31.15625 6.109375 34.5625 8.28125 
Q 37.984375 10.453125 37.984375 14.40625 
Q 37.984375 18.0625 35.515625 20.015625 
Q 33.0625 21.96875 24.703125 23.78125 
L 21.578125 24.515625 
Q 13.234375 26.265625 9.515625 29.90625 
Q 5.8125 33.546875 5.8125 39.890625 
Q 5.8125 47.609375 11.28125 51.796875 
Q 16.75 56 26.8125 56 
Q 31.78125 56 36.171875 55.265625 
Q 40.578125 54.546875 44.28125 53.078125 
z
" id="DejaVuSans-115"/>
      </defs>
      <use xlink:href="#DejaVuSans-68"/>
      <use x="77.001953" xlink:href="#DejaVuSans-97"/>
      <use x="138.28125" xlink:href="#DejaVuSans-121"/>
      <use x="197.460938" xlink:href="#DejaVuSans-115"/>
     </g>
    </g>
   </g>
   <g id="matplotlib.axis_2">
    <g id="ytick_1">
     <g id="line2d_11">
      <path clip-path="url(#p69fe909367)" d="M 90 605.480009 
L 648 605.480009 
" style="fill:none;stroke:#b0b0b0;stroke-linecap:square;stroke-width:0.8;"/>
     </g>
     <g id="line2d_12">
      <defs>
       <path d="M 0 0 
L -3.5 0 
" id="m4d5ff0b63d" style="stroke:#000000;stroke-width:0.8;"/>
      </defs>
      <g>
       <use style="stroke:#000000;stroke-width:0.8;" x="90" xlink:href="#m4d5ff0b63d" y="605.480009"/>
      </g>
     </g>
     <g id="text_7">
      <!-- 0 -->
      <g transform="translate(76.6375 609.279228)scale(0.1 -0.1)">
       <use xlink:href="#DejaVuSans-48"/>
      </g>
     </g>
    </g>
    <g id="ytick_2">
     <g id="line2d_13">
      <path clip-path="url(#p69fe909367)" d="M 90 500.424542 
L 648 500.424542 
" style="fill:none;stroke:#b0b0b0;stroke-linecap:square;stroke-width:0.8;"/>
     </g>
     <g id="line2d_14">
      <g>
       <use style="stroke:#000000;stroke-width:0.8;" x="90" xlink:href="#m4d5ff0b63d" y="500.424542"/>
      </g>
     </g>
     <g id="text_8">
      <!-- 10000 -->
      <g transform="translate(51.1875 504.223761)scale(0.1 -0.1)">
       <defs>
        <path d="M 12.40625 8.296875 
L 28.515625 8.296875 
L 28.515625 63.921875 
L 10.984375 60.40625 
L 10.984375 69.390625 
L 28.421875 72.90625 
L 38.28125 72.90625 
L 38.28125 8.296875 
L 54.390625 8.296875 
L 54.390625 0 
L 12.40625 0 
z
" id="DejaVuSans-49"/>
       </defs>
       <use xlink:href="#DejaVuSans-49"/>
       <use x="63.623047" xlink:href="#DejaVuSans-48"/>
       <use x="127.246094" xlink:href="#DejaVuSans-48"/>
       <use x="190.869141" xlink:href="#DejaVuSans-48"/>
       <use x="254.492188" xlink:href="#DejaVuSans-48"/>
      </g>
     </g>
    </g>
    <g id="ytick_3">
     <g id="line2d_15">
      <path clip-path="url(#p69fe909367)" d="M 90 395.369076 
L 648 395.369076 
" style="fill:none;stroke:#b0b0b0;stroke-linecap:square;stroke-width:0.8;"/>
     </g>
     <g id="line2d_16">
      <g>
       <use style="stroke:#000000;stroke-width:0.8;" x="90" xlink:href="#m4d5ff0b63d" y="395.369076"/>
      </g>
     </g>
     <g id="text_9">
      <!-- 20000 -->
      <g transform="translate(51.1875 399.168295)scale(0.1 -0.1)">
       <use xlink:href="#DejaVuSans-50"/>
       <use x="63.623047" xlink:href="#DejaVuSans-48"/>
       <use x="127.246094" xlink:href="#DejaVuSans-48"/>
       <use x="190.869141" xlink:href="#DejaVuSans-48"/>
       <use x="254.492188" xlink:href="#DejaVuSans-48"/>
      </g>
     </g>
    </g>
    <g id="ytick_4">
     <g id="line2d_17">
      <path clip-path="url(#p69fe909367)" d="M 90 290.31361 
L 648 290.31361 
" style="fill:none;stroke:#b0b0b0;stroke-linecap:square;stroke-width:0.8;"/>
     </g>
     <g id="line2d_18">
      <g>
       <use style="stroke:#000000;stroke-width:0.8;" x="90" xlink:href="#m4d5ff0b63d" y="290.31361"/>
      </g>
     </g>
     <g id="text_10">
      <!-- 30000 -->
      <g transform="translate(51.1875 294.112828)scale(0.1 -0.1)">
       <defs>
        <path d="M 40.578125 39.3125 
Q 47.65625 37.796875 51.625 33 
Q 55.609375 28.21875 55.609375 21.1875 
Q 55.609375 10.40625 48.1875 4.484375 
Q 40.765625 -1.421875 27.09375 -1.421875 
Q 22.515625 -1.421875 17.65625 -0.515625 
Q 12.796875 0.390625 7.625 2.203125 
L 7.625 11.71875 
Q 11.71875 9.328125 16.59375 8.109375 
Q 21.484375 6.890625 26.8125 6.890625 
Q 36.078125 6.890625 40.9375 10.546875 
Q 45.796875 14.203125 45.796875 21.1875 
Q 45.796875 27.640625 41.28125 31.265625 
Q 36.765625 34.90625 28.71875 34.90625 
L 20.21875 34.90625 
L 20.21875 43.015625 
L 29.109375 43.015625 
Q 36.375 43.015625 40.234375 45.921875 
Q 44.09375 48.828125 44.09375 54.296875 
Q 44.09375 59.90625 40.109375 62.90625 
Q 36.140625 65.921875 28.71875 65.921875 
Q 24.65625 65.921875 20.015625 65.03125 
Q 15.375 64.15625 9.8125 62.3125 
L 9.8125 71.09375 
Q 15.4375 72.65625 20.34375 73.4375 
Q 25.25 74.21875 29.59375 74.21875 
Q 40.828125 74.21875 47.359375 69.109375 
Q 53.90625 64.015625 53.90625 55.328125 
Q 53.90625 49.265625 50.4375 45.09375 
Q 46.96875 40.921875 40.578125 39.3125 
z
" id="DejaVuSans-51"/>
       </defs>
       <use xlink:href="#DejaVuSans-51"/>
       <use x="63.623047" xlink:href="#DejaVuSans-48"/>
       <use x="127.246094" xlink:href="#DejaVuSans-48"/>
       <use x="190.869141" xlink:href="#DejaVuSans-48"/>
       <use x="254.492188" xlink:href="#DejaVuSans-48"/>
      </g>
     </g>
    </g>
    <g id="ytick_5">
     <g id="line2d_19">
      <path clip-path="url(#p69fe909367)" d="M 90 185.258143 
L 648 185.258143 
" style="fill:none;stroke:#b0b0b0;stroke-linecap:square;stroke-width:0.8;"/>
     </g>
     <g id="line2d_20">
      <g>
       <use style="stroke:#000000;stroke-width:0.8;" x="90" xlink:href="#m4d5ff0b63d" y="185.258143"/>
      </g>
     </g>
     <g id="text_11">
      <!-- 40000 -->
      <g transform="translate(51.1875 189.057362)scale(0.1 -0.1)">
       <use xlink:href="#DejaVuSans-52"/>
       <use x="63.623047" xlink:href="#DejaVuSans-48"/>
       <use x="127.246094" xlink:href="#DejaVuSans-48"/>
       <use x="190.869141" xlink:href="#DejaVuSans-48"/>
       <use x="254.492188" xlink:href="#DejaVuSans-48"/>
      </g>
     </g>
    </g>
    <g id="text_12">
     <!-- Cumulative cases -->
     <g transform="translate(45.107812 402.425781)rotate(-90)scale(0.1 -0.1)">
      <defs>
       <path d="M 64.40625 67.28125 
L 64.40625 56.890625 
Q 59.421875 61.53125 53.78125 63.8125 
Q 48.140625 66.109375 41.796875 66.109375 
Q 29.296875 66.109375 22.65625 58.46875 
Q 16.015625 50.828125 16.015625 36.375 
Q 16.015625 21.96875 22.65625 14.328125 
Q 29.296875 6.6875 41.796875 6.6875 
Q 48.140625 6.6875 53.78125 8.984375 
Q 59.421875 11.28125 64.40625 15.921875 
L 64.40625 5.609375 
Q 59.234375 2.09375 53.4375 0.328125 
Q 47.65625 -1.421875 41.21875 -1.421875 
Q 24.65625 -1.421875 15.125 8.703125 
Q 5.609375 18.84375 5.609375 36.375 
Q 5.609375 53.953125 15.125 64.078125 
Q 24.65625 74.21875 41.21875 74.21875 
Q 47.75 74.21875 53.53125 72.484375 
Q 59.328125 70.75 64.40625 67.28125 
z
" id="DejaVuSans-67"/>
       <path d="M 8.5 21.578125 
L 8.5 54.6875 
L 17.484375 54.6875 
L 17.484375 21.921875 
Q 17.484375 14.15625 20.5 10.265625 
Q 23.53125 6.390625 29.59375 6.390625 
Q 36.859375 6.390625 41.078125 11.03125 
Q 45.3125 15.671875 45.3125 23.6875 
L 45.3125 54.6875 
L 54.296875 54.6875 
L 54.296875 0 
L 45.3125 0 
L 45.3125 8.40625 
Q 42.046875 3.421875 37.71875 1 
Q 33.40625 -1.421875 27.6875 -1.421875 
Q 18.265625 -1.421875 13.375 4.4375 
Q 8.5 10.296875 8.5 21.578125 
z
M 31.109375 56 
z
" id="DejaVuSans-117"/>
       <path d="M 52 44.1875 
Q 55.375 50.25 60.0625 53.125 
Q 64.75 56 71.09375 56 
Q 79.640625 56 84.28125 50.015625 
Q 88.921875 44.046875 88.921875 33.015625 
L 88.921875 0 
L 79.890625 0 
L 79.890625 32.71875 
Q 79.890625 40.578125 77.09375 44.375 
Q 74.3125 48.1875 68.609375 48.1875 
Q 61.625 48.1875 57.5625 43.546875 
Q 53.515625 38.921875 53.515625 30.90625 
L 53.515625 0 
L 44.484375 0 
L 44.484375 32.71875 
Q 44.484375 40.625 41.703125 44.40625 
Q 38.921875 48.1875 33.109375 48.1875 
Q 26.21875 48.1875 22.15625 43.53125 
Q 18.109375 38.875 18.109375 30.90625 
L 18.109375 0 
L 9.078125 0 
L 9.078125 54.6875 
L 18.109375 54.6875 
L 18.109375 46.1875 
Q 21.1875 51.21875 25.484375 53.609375 
Q 29.78125 56 35.6875 56 
Q 41.65625 56 45.828125 52.96875 
Q 50 49.953125 52 44.1875 
z
" id="DejaVuSans-109"/>
       <path d="M 9.421875 75.984375 
L 18.40625 75.984375 
L 18.40625 0 
L 9.421875 0 
z
" id="DejaVuSans-108"/>
       <path d="M 18.3125 70.21875 
L 18.3125 54.6875 
L 36.8125 54.6875 
L 36.8125 47.703125 
L 18.3125 47.703125 
L 18.3125 18.015625 
Q 18.3125 11.328125 20.140625 9.421875 
Q 21.96875 7.515625 27.59375 7.515625 
L 36.8125 7.515625 
L 36.8125 0 
L 27.59375 0 
Q 17.1875 0 13.234375 3.875 
Q 9.28125 7.765625 9.28125 18.015625 
L 9.28125 47.703125 
L 2.6875 47.703125 
L 2.6875 54.6875 
L 9.28125 54.6875 
L 9.28125 70.21875 
z
" id="DejaVuSans-116"/>
       <path d="M 9.421875 54.6875 
L 18.40625 54.6875 
L 18.40625 0 
L 9.421875 0 
z
M 9.421875 75.984375 
L 18.40625 75.984375 
L 18.40625 64.59375 
L 9.421875 64.59375 
z
" id="DejaVuSans-105"/>
       <path d="M 2.984375 54.6875 
L 12.5 54.6875 
L 29.59375 8.796875 
L 46.6875 54.6875 
L 56.203125 54.6875 
L 35.6875 0 
L 23.484375 0 
z
" id="DejaVuSans-118"/>
       <path d="M 56.203125 29.59375 
L 56.203125 25.203125 
L 14.890625 25.203125 
Q 15.484375 15.921875 20.484375 11.0625 
Q 25.484375 6.203125 34.421875 6.203125 
Q 39.59375 6.203125 44.453125 7.46875 
Q 49.3125 8.734375 54.109375 11.28125 
L 54.109375 2.78125 
Q 49.265625 0.734375 44.1875 -0.34375 
Q 39.109375 -1.421875 33.890625 -1.421875 
Q 20.796875 -1.421875 13.15625 6.1875 
Q 5.515625 13.8125 5.515625 26.8125 
Q 5.515625 40.234375 12.765625 48.109375 
Q 20.015625 56 32.328125 56 
Q 43.359375 56 49.78125 48.890625 
Q 56.203125 41.796875 56.203125 29.59375 
z
M 47.21875 32.234375 
Q 47.125 39.59375 43.09375 43.984375 
Q 39.0625 48.390625 32.421875 48.390625 
Q 24.90625 48.390625 20.390625 44.140625 
Q 15.875 39.890625 15.1875 32.171875 
z
" id="DejaVuSans-101"/>
       <path id="DejaVuSans-32"/>
       <path d="M 48.78125 52.59375 
L 48.78125 44.1875 
Q 44.96875 46.296875 41.140625 47.34375 
Q 37.3125 48.390625 33.40625 48.390625 
Q 24.65625 48.390625 19.8125 42.84375 
Q 14.984375 37.3125 14.984375 27.296875 
Q 14.984375 17.28125 19.8125 11.734375 
Q 24.65625 6.203125 33.40625 6.203125 
Q 37.3125 6.203125 41.140625 7.25 
Q 44.96875 8.296875 48.78125 10.40625 
L 48.78125 2.09375 
Q 45.015625 0.34375 40.984375 -0.53125 
Q 36.96875 -1.421875 32.421875 -1.421875 
Q 20.0625 -1.421875 12.78125 6.34375 
Q 5.515625 14.109375 5.515625 27.296875 
Q 5.515625 40.671875 12.859375 48.328125 
Q 20.21875 56 33.015625 56 
Q 37.15625 56 41.109375 55.140625 
Q 45.0625 54.296875 48.78125 52.59375 
z
" id="DejaVuSans-99"/>
      </defs>
      <use xlink:href="#DejaVuSans-67"/>
      <use x="69.824219" xlink:href="#DejaVuSans-117"/>
      <use x="133.203125" xlink:href="#DejaVuSans-109"/>
      <use x="230.615234" xlink:href="#DejaVuSans-117"/>
      <use x="293.994141" xlink:href="#DejaVuSans-108"/>
      <use x="321.777344" xlink:href="#DejaVuSans-97"/>
      <use x="383.056641" xlink:href="#DejaVuSans-116"/>
      <use x="422.265625" xlink:href="#DejaVuSans-105"/>
      <use x="450.048828" xlink:href="#DejaVuSans-118"/>
      <use x="509.228516" xlink:href="#DejaVuSans-101"/>
      <use x="570.751953" xlink:href="#DejaVuSans-32"/>
      <use x="602.539062" xlink:href="#DejaVuSans-99"/>
      <use x="657.519531" xlink:href="#DejaVuSans-97"/>
      <use x="718.798828" xlink:href="#DejaVuSans-115"/>
      <use x="770.898438" xlink:href="#DejaVuSans-101"/>
      <use x="832.421875" xlink:href="#DejaVuSans-115"/>
     </g>
    </g>
   </g>
   <g id="line2d_21">
    <path clip-path="url(#p69fe909367)" d="M 115.363636 605.290909 
L 121 605.24772 
L 126.636364 605.194674 
L 132.272727 605.129524 
L 137.909091 605.049513 
L 143.545455 604.951258 
L 149.181818 604.83061 
L 154.818182 604.682484 
L 160.454545 604.500645 
L 166.090909 604.27746 
L 171.727273 604.003584 
L 177.363636 603.667591 
L 183 603.255522 
L 188.636364 602.750348 
L 194.272727 602.131325 
L 199.909091 601.373237 
L 205.545455 600.445503 
L 211.181818 599.311149 
L 216.818182 597.925634 
L 222.454545 596.235546 
L 228.090909 594.177202 
L 233.727273 591.6752 
L 239.363636 588.641045 
L 245 584.972011 
L 250.636364 580.550495 
L 256.272727 575.244213 
L 261.909091 568.907707 
L 267.545455 561.385736 
L 273.181818 552.519175 
L 278.818182 542.154014 
L 284.454545 530.153819 
L 290.090909 516.41556 
L 295.727273 500.887916 
L 301.363636 483.59016 
L 307 464.628647 
L 312.636364 444.20714 
L 318.272727 422.627247 
L 323.909091 400.276398 
L 329.545455 377.60315 
L 335.181818 355.082565 
L 340.818182 333.177084 
L 346.454545 312.299564 
L 352.090909 292.784533 
L 357.727273 274.871492 
L 363.363636 258.701066 
L 369 244.322171 
L 374.636364 231.706742 
L 380.272727 220.768145 
L 385.909091 211.379976 
L 391.545455 203.392925 
L 397.181818 196.648493 
L 402.818182 190.989213 
L 408.454545 186.265603 
L 414.090909 182.340384 
L 419.727273 179.090596 
L 425.363636 176.408202 
L 431 174.199706 
L 436.636364 172.385148 
L 442.272727 170.896798 
L 447.909091 169.677717 
L 453.545455 168.680332 
L 459.181818 167.865089 
L 464.818182 167.199237 
L 470.454545 166.65574 
L 476.090909 166.212341 
L 481.727273 165.850754 
L 487.363636 165.555985 
L 493 165.315753 
L 498.636364 165.120012 
L 504.272727 164.960551 
L 509.909091 164.830666 
L 515.545455 164.724884 
L 521.181818 164.63874 
L 526.818182 164.568595 
L 532.454545 164.511481 
L 538.090909 164.464979 
L 543.727273 164.42712 
L 549.363636 164.396298 
L 555 164.371206 
L 560.636364 164.350779 
L 566.272727 164.33415 
L 571.909091 164.320614 
L 577.545455 164.309594 
L 583.181818 164.300624 
L 588.818182 164.293322 
L 594.454545 164.287378 
L 600.090909 164.28254 
L 605.727273 164.278602 
L 611.363636 164.275396 
L 617 164.272786 
L 622.636364 164.270662 
" style="fill:none;stroke:#1f77b4;stroke-linecap:square;stroke-width:1.5;"/>
   </g>
   <g id="line2d_22">
    <path clip-path="url(#p69fe909367)" d="M 115.363636 605.290909 
L 121 604.268431 
L 126.636364 603.142368 
L 132.272727 601.902806 
L 137.909091 600.539011 
L 143.545455 599.039383 
L 149.181818 597.391424 
L 154.818182 595.581705 
L 160.454545 593.595844 
L 166.090909 591.418501 
L 171.727273 589.033375 
L 177.363636 586.423232 
L 183 583.569948 
L 188.636364 580.454577 
L 194.272727 577.057455 
L 199.909091 573.358337 
L 205.545455 569.336576 
L 211.181818 564.971347 
L 216.818182 560.241919 
L 222.454545 555.127985 
L 228.090909 549.610043 
L 233.727273 543.669833 
L 239.363636 537.290833 
L 245 530.458789 
L 250.636364 523.162299 
L 256.272727 515.393411 
L 261.909091 507.148232 
L 267.545455 498.427525 
L 273.181818 489.237261 
L 278.818182 479.589107 
L 284.454545 469.500808 
L 290.090909 458.996444 
L 295.727273 448.106522 
L 301.363636 436.86789 
L 307 425.323448 
L 312.636364 413.521646 
L 318.272727 401.515792 
L 323.909091 389.363156 
L 329.545455 377.123923 
L 335.181818 364.860023 
L 340.818182 352.633888 
L 346.454545 340.507183 
L 352.090909 328.539575 
L 357.727273 316.787583 
L 363.363636 305.303561 
L 369 294.134845 
L 374.636364 283.323098 
L 380.272727 272.903851 
L 385.909091 262.906263 
L 391.545455 253.353068 
L 397.181818 244.260709 
L 402.818182 235.639619 
L 408.454545 227.494632 
L 414.090909 219.825484 
L 419.727273 212.62738 
L 425.363636 205.891592 
L 431 199.606069 
L 436.636364 193.756035 
L 442.272727 188.324557 
L 447.909091 183.293077 
L 453.545455 178.641889 
L 459.181818 174.350566 
L 464.818182 170.398334 
L 470.454545 166.764383 
L 476.090909 163.428133 
L 481.727273 160.369447 
L 487.363636 157.568804 
L 493 155.007424 
L 498.636364 152.667362 
L 504.272727 150.531579 
L 509.909091 148.583974 
L 515.545455 146.80941 
L 521.181818 145.193705 
L 526.818182 143.723628 
L 532.454545 142.386873 
L 538.090909 141.172026 
L 543.727273 140.068526 
L 549.363636 139.06663 
L 555 138.157362 
L 560.636364 137.33247 
L 566.272727 136.584383 
L 571.909091 135.90616 
L 577.545455 135.29145 
L 583.181818 134.734449 
L 588.818182 134.229855 
L 594.454545 133.772834 
L 600.090909 133.35898 
L 605.727273 132.98428 
L 611.363636 132.645083 
L 617 132.338068 
L 622.636364 132.060217 
" style="fill:none;stroke:#ff7f0e;stroke-linecap:square;stroke-width:1.5;"/>
   </g>
   <g id="line2d_23">
    <path clip-path="url(#p69fe909367)" d="M 115.363636 605.290909 
L 121 605.15233 
L 126.636364 604.987823 
L 132.272727 604.792567 
L 137.909091 604.560852 
L 143.545455 604.285926 
L 149.181818 603.959809 
L 154.818182 603.57308 
L 160.454545 603.114625 
L 166.090909 602.571359 
L 171.727273 601.927896 
L 177.363636 601.16618 
L 183 600.265074 
L 188.636364 599.199904 
L 194.272727 597.941957 
L 199.909091 596.457959 
L 205.545455 594.709534 
L 211.181818 592.65267 
L 216.818182 590.237241 
L 222.454545 587.406629 
L 228.090909 584.097523 
L 233.727273 580.239995 
L 239.363636 575.757957 
L 245 570.57016 
L 250.636364 564.591871 
L 256.272727 557.737388 
L 261.909091 549.923513 
L 267.545455 541.074045 
L 273.181818 531.125248 
L 278.818182 520.032076 
L 284.454545 507.774763 
L 290.090909 494.365144 
L 295.727273 479.85192 
L 301.363636 464.323977 
L 307 447.910937 
L 312.636364 430.780365 
L 318.272727 413.131515 
L 323.909091 395.18598 
L 329.545455 377.176186 
L 335.181818 359.333009 
L 340.818182 341.873928 
L 346.454545 324.992976 
L 352.090909 308.853396 
L 357.727273 293.583386 
L 363.363636 279.274884 
L 369 265.984938 
L 374.636364 253.73901 
L 380.272727 242.535506 
L 385.909091 232.350848 
L 391.545455 223.144584 
L 397.181818 214.864145 
L 402.818182 207.449022 
L 408.454545 200.834263 
L 414.090909 194.953271 
L 419.727273 189.739954 
L 425.363636 185.130297 
L 431 181.063447 
L 436.636364 177.48241 
L 442.272727 174.334441 
L 447.909091 171.571199 
L 453.545455 169.148735 
L 459.181818 167.027354 
L 464.818182 165.171408 
L 470.454545 163.549029 
L 476.090909 162.131843 
L 481.727273 160.894671 
L 487.363636 159.815232 
L 493 158.873861 
L 498.636364 158.053233 
L 504.272727 157.338115 
L 509.909091 156.715134 
L 515.545455 156.172564 
L 521.181818 155.700136 
L 526.818182 155.288866 
L 532.454545 154.9309 
L 538.090909 154.619376 
L 543.727273 154.348305 
L 549.363636 154.112462 
L 555 153.907288 
L 560.636364 153.728812 
L 566.272727 153.57357 
L 571.909091 153.438548 
L 577.545455 153.321118 
L 583.181818 153.218993 
L 588.818182 153.130183 
L 594.454545 153.052954 
L 600.090909 152.985798 
L 605.727273 152.927403 
L 611.363636 152.876628 
L 617 152.832479 
L 622.636364 152.794092 
" style="fill:none;stroke:#2ca02c;stroke-linecap:square;stroke-width:1.5;"/>
   </g>
   <g id="line2d_24">
    <path clip-path="url(#p69fe909367)" d="M 115.363636 605.290909 
L 121 604.922101 
L 126.636364 604.417992 
L 132.272727 603.76629 
L 137.909091 602.953725 
L 143.545455 601.966012 
L 149.181818 600.787828 
L 154.818182 599.402793 
L 160.454545 597.793477 
L 166.090909 595.941422 
L 171.727273 593.827188 
L 177.363636 591.430431 
L 183 588.73002 
L 188.636364 585.704183 
L 194.272727 582.330715 
L 199.909091 578.587228 
L 205.545455 574.451459 
L 211.181818 569.901643 
L 216.818182 564.916939 
L 222.454545 559.477923 
L 228.090909 553.567134 
L 233.727273 547.169667 
L 239.363636 540.273802 
L 245 532.871652 
L 250.636364 524.959803 
L 256.272727 516.539925 
L 261.909091 507.619318 
L 267.545455 498.211367 
L 273.181818 488.335864 
L 278.818182 478.019176 
L 284.454545 467.294221 
L 290.090909 456.200245 
L 295.727273 444.782384 
L 301.363636 433.091016 
L 307 421.180915 
L 312.636364 409.110248 
L 318.272727 396.939433 
L 323.909091 384.729925 
L 329.545455 372.542978 
L 335.181818 360.438422 
L 340.818182 348.473532 
L 346.454545 336.70201 
L 352.090909 325.173127 
L 357.727273 313.931049 
L 363.363636 303.01435 
L 369 292.455724 
L 374.636364 282.281882 
L 380.272727 272.513614 
L 385.909091 263.165999 
L 391.545455 254.248732 
L 397.181818 245.76654 
L 402.818182 237.719664 
L 408.454545 230.104377 
L 414.090909 222.913519 
L 419.727273 216.137028 
L 425.363636 209.762453 
L 431 203.775437 
L 436.636364 198.160162 
L 442.272727 192.899751 
L 447.909091 187.976627 
L 453.545455 183.372822 
L 459.181818 179.070245 
L 464.818182 175.050907 
L 470.454545 171.297105 
L 476.090909 167.79157 
L 481.727273 164.517587 
L 487.363636 161.45908 
L 493 158.600682 
L 498.636364 155.927772 
L 504.272727 153.426508 
L 509.909091 151.083833 
L 515.545455 148.887474 
L 521.181818 146.825938 
L 526.818182 144.888486 
L 532.454545 143.065113 
L 538.090909 141.34652 
L 543.727273 139.724084 
L 549.363636 138.189818 
L 555 136.736345 
L 560.636364 135.356858 
L 566.272727 134.045086 
L 571.909091 132.795258 
L 577.545455 131.602073 
L 583.181818 130.460665 
L 588.818182 129.366572 
L 594.454545 128.315709 
L 600.090909 127.304334 
L 605.727273 126.329029 
L 611.363636 125.386668 
L 617 124.474397 
L 622.636364 123.589615 
" style="fill:none;stroke:#d62728;stroke-linecap:square;stroke-width:1.5;"/>
   </g>
   <g id="line2d_25">
    <path clip-path="url(#p69fe909367)" d="M 115.363636 605.290909 
L 121 605.271281 
L 126.636364 605.220395 
L 132.272727 605.142444 
L 137.909091 605.035175 
L 143.545455 604.892213 
L 149.181818 604.703721 
L 154.818182 604.456212 
L 160.454545 604.131872 
L 166.090909 603.707511 
L 171.727273 603.153197 
L 177.363636 602.430601 
L 183 601.491061 
L 188.636364 600.273496 
L 194.272727 598.702346 
L 199.909091 596.685933 
L 205.545455 594.115834 
L 211.181818 590.868141 
L 216.818182 586.807682 
L 222.454545 581.796264 
L 228.090909 575.705513 
L 233.727273 568.433715 
L 239.363636 559.924267 
L 245 550.181497 
L 250.636364 539.278795 
L 256.272727 527.355325 
L 261.909091 514.601038 
L 267.545455 501.233757 
L 273.181818 487.474596 
L 278.818182 473.527596 
L 284.454545 459.566854 
L 290.090909 445.731412 
L 295.727273 432.126067 
L 301.363636 418.825645 
L 307 405.88064 
L 312.636364 393.3228 
L 318.272727 381.169987 
L 323.909091 369.430073 
L 329.545455 358.103905 
L 335.181818 347.187489 
L 340.818182 336.673567 
L 346.454545 326.55273 
L 352.090909 316.814207 
L 357.727273 307.44641 
L 363.363636 298.437318 
L 369 289.774737 
L 374.636364 281.446488 
L 380.272727 273.440526 
L 385.909091 265.745029 
L 391.545455 258.348449 
L 397.181818 251.239555 
L 402.818182 244.407447 
L 408.454545 237.841575 
L 414.090909 231.531741 
L 419.727273 225.4681 
L 425.363636 219.641156 
L 431 214.041757 
L 436.636364 208.661088 
L 442.272727 203.49066 
L 447.909091 198.522305 
L 453.545455 193.748162 
L 459.181818 189.16067 
L 464.818182 184.752557 
L 470.454545 180.516829 
L 476.090909 176.446762 
L 481.727273 172.535891 
L 487.363636 168.778001 
L 493 165.167118 
L 498.636364 161.697499 
L 504.272727 158.363626 
L 509.909091 155.160193 
L 515.545455 152.082102 
L 521.181818 149.124452 
L 526.818182 146.282536 
L 532.454545 143.551827 
L 538.090909 140.927976 
L 543.727273 138.406805 
L 549.363636 135.984297 
L 555 133.656594 
L 560.636364 131.419985 
L 566.272727 129.270908 
L 571.909091 127.205939 
L 577.545455 125.221786 
L 583.181818 123.315288 
L 588.818182 121.483406 
L 594.454545 119.723221 
L 600.090909 118.031927 
L 605.727273 116.406828 
L 611.363636 114.845335 
L 617 113.344957 
L 622.636364 111.903304 
" style="fill:none;stroke:#9467bd;stroke-linecap:square;stroke-width:1.5;"/>
   </g>
   <g id="line2d_26">
    <path clip-path="url(#p69fe909367)" d="M 115.363636 605.290909 
L 121 605.221278 
L 126.636364 605.018069 
L 132.272727 604.680396 
L 137.909091 604.199313 
L 143.545455 603.56097 
L 149.181818 602.748126 
L 154.818182 601.740862 
L 160.454545 600.516909 
L 166.090909 599.051816 
L 171.727273 597.31907 
L 177.363636 595.290223 
L 183 592.935079 
L 188.636364 590.221971 
L 194.272727 587.118144 
L 199.909091 583.590267 
L 205.545455 579.605093 
L 211.181818 575.130261 
L 216.818182 570.13525 
L 222.454545 564.592466 
L 228.090909 558.478421 
L 233.727273 551.774976 
L 239.363636 544.470566 
L 245 536.56134 
L 250.636364 528.052133 
L 256.272727 518.957174 
L 261.909091 509.300455 
L 267.545455 499.115709 
L 273.181818 488.445959 
L 278.818182 477.342648 
L 284.454545 465.864383 
L 290.090909 454.075378 
L 295.727273 442.04369 
L 301.363636 429.83936 
L 307 417.532578 
L 312.636364 405.191973 
L 318.272727 392.883109 
L 323.909091 380.667249 
L 329.545455 368.600409 
L 335.181818 356.732712 
L 340.818182 345.108026 
L 346.454545 333.763846 
L 352.090909 322.731388 
L 357.727273 312.035848 
L 363.363636 301.696783 
L 369 291.728566 
L 374.636364 282.140901 
L 380.272727 272.939342 
L 385.909091 264.125825 
L 391.545455 255.699164 
L 397.181818 247.655533 
L 402.818182 239.988897 
L 408.454545 232.691413 
L 414.090909 225.753785 
L 419.727273 219.165572 
L 425.363636 212.915468 
L 431 206.991535 
L 436.636364 201.381407 
L 442.272727 196.072463 
L 447.909091 191.051969 
L 453.545455 186.307204 
L 459.181818 181.825552 
L 464.818182 177.59459 
L 470.454545 173.60215 
L 476.090909 169.836368 
L 481.727273 166.285729 
L 487.363636 162.939089 
L 493 159.785704 
L 498.636364 156.81524 
L 504.272727 154.01778 
L 509.909091 151.383829 
L 515.545455 148.904314 
L 521.181818 146.570579 
L 526.818182 144.374379 
L 532.454545 142.307868 
L 538.090909 140.363593 
L 543.727273 138.534482 
L 549.363636 136.813827 
L 555 135.195276 
L 560.636364 133.672816 
L 566.272727 132.240761 
L 571.909091 130.893737 
L 577.545455 129.626668 
L 583.181818 128.434763 
L 588.818182 127.313501 
L 594.454545 126.258622 
L 600.090909 125.266106 
L 605.727273 124.33217 
L 611.363636 123.453248 
L 617 122.625987 
L 622.636364 121.847227 
" style="fill:none;stroke:#8c564b;stroke-linecap:square;stroke-width:1.5;"/>
   </g>
   <g id="line2d_27">
    <path clip-path="url(#p69fe909367)" d="M 115.363636 605.290909 
L 121 605.267619 
L 126.636364 605.207037 
L 132.272727 605.114385 
L 137.909091 604.987586 
L 143.545455 604.819917 
L 149.181818 604.600847 
L 154.818182 604.315959 
L 160.454545 603.946352 
L 166.090909 603.46766 
L 171.727273 602.848792 
L 177.363636 602.050397 
L 183 601.023149 
L 188.636364 599.705932 
L 194.272727 598.024161 
L 199.909091 595.888597 
L 205.545455 593.195206 
L 211.181818 589.826823 
L 216.818182 585.657504 
L 222.454545 580.560377 
L 228.090909 574.419323 
L 233.727273 567.143828 
L 239.363636 558.684884 
L 245 549.048413 
L 250.636364 538.302148 
L 256.272727 526.572959 
L 261.909091 514.034332 
L 267.545455 500.886898 
L 273.181818 487.336999 
L 278.818182 473.578217 
L 284.454545 459.778921 
L 290.090909 446.076441 
L 295.727273 432.576679 
L 301.363636 419.357181 
L 307 406.471822 
L 312.636364 393.955789 
L 318.272727 381.830097 
L 323.909091 370.105343 
L 329.545455 358.784646 
L 335.181818 347.865865 
L 340.818182 337.343235 
L 346.454545 327.208541 
L 352.090909 317.451969 
L 357.727273 308.062697 
L 363.363636 299.029322 
L 369 290.340152 
L 374.636364 281.983418 
L 380.272727 273.947414 
L 385.909091 266.220599 
L 391.545455 258.791663 
L 397.181818 251.649574 
L 402.818182 244.783606 
L 408.454545 238.183355 
L 414.090909 231.838751 
L 419.727273 225.740061 
L 425.363636 219.877888 
L 431 214.243165 
L 436.636364 208.827153 
L 442.272727 203.621432 
L 447.909091 198.617893 
L 453.545455 193.80873 
L 459.181818 189.186429 
L 464.818182 184.74376 
L 470.454545 180.473767 
L 476.090909 176.369762 
L 481.727273 172.425308 
L 487.363636 168.634218 
L 493 164.990542 
L 498.636364 161.488557 
L 504.272727 158.122763 
L 509.909091 154.88787 
L 515.545455 151.778795 
L 521.181818 148.790649 
L 526.818182 145.918734 
L 532.454545 143.158532 
L 538.090909 140.505701 
L 543.727273 137.956067 
L 549.363636 135.50562 
L 555 133.150502 
L 560.636364 130.887007 
L 566.272727 128.711572 
L 571.909091 126.620773 
L 577.545455 124.611319 
L 583.181818 122.680045 
L 588.818182 120.823911 
L 594.454545 119.039994 
L 600.090909 117.325486 
L 605.727273 115.677686 
L 611.363636 114.094001 
L 617 112.571934 
L 622.636364 111.109091 
" style="fill:none;stroke:#e377c2;stroke-linecap:square;stroke-width:1.5;"/>
   </g>
   <g id="line2d_28">
    <path clip-path="url(#p69fe909367)" d="M 115.363636 605.290909 
L 121 605.212936 
L 126.636364 604.982765 
L 132.272727 604.601653 
L 137.909091 604.065828 
L 143.545455 603.367229 
L 149.181818 602.494031 
L 154.818182 601.431013 
L 160.454545 600.159818 
L 166.090909 598.65915 
L 171.727273 596.904943 
L 177.363636 594.870528 
L 183 592.526839 
L 188.636364 589.842674 
L 194.272727 586.785056 
L 199.909091 583.319699 
L 205.545455 579.411629 
L 211.181818 575.025954 
L 216.818182 570.128817 
L 222.454545 564.688509 
L 228.090909 558.676748 
L 233.727273 552.070073 
L 239.363636 544.851306 
L 245 537.010993 
L 250.636364 528.548745 
L 256.272727 519.474342 
L 261.909091 509.80851 
L 267.545455 499.583252 
L 273.181818 488.841667 
L 278.818182 477.637208 
L 284.454545 466.032402 
L 290.090909 454.097087 
L 295.727273 441.906294 
L 301.363636 429.537905 
L 307 417.070264 
L 312.636364 404.57991 
L 318.272727 392.139559 
L 323.909091 379.816449 
L 329.545455 367.671106 
L 335.181818 355.756544 
L 340.818182 344.117886 
L 346.454545 332.792343 
L 352.090909 321.809493 
L 357.727273 311.191777 
L 363.363636 300.955153 
L 369 291.109825 
L 374.636364 281.661003 
L 380.272727 272.609657 
L 385.909091 263.953229 
L 391.545455 255.686278 
L 397.181818 247.801071 
L 402.818182 240.288085 
L 408.454545 233.13645 
L 414.090909 226.334319 
L 419.727273 219.869174 
L 425.363636 213.728085 
L 431 207.897911 
L 436.636364 202.365475 
L 442.272727 197.117685 
L 447.909091 192.141645 
L 453.545455 187.424732 
L 459.181818 182.95465 
L 464.818182 178.71948 
L 470.454545 174.707705 
L 476.090909 170.908231 
L 481.727273 167.310402 
L 487.363636 163.903996 
L 493 160.679235 
L 498.636364 157.626771 
L 504.272727 154.737684 
L 509.909091 152.003471 
L 515.545455 149.416033 
L 521.181818 146.967664 
L 526.818182 144.651036 
L 532.454545 142.459184 
L 538.090909 140.385494 
L 543.727273 138.423685 
L 549.363636 136.567799 
L 555 134.812183 
L 560.636364 133.151475 
L 566.272727 131.580594 
L 571.909091 130.094722 
L 577.545455 128.689296 
L 583.181818 127.359989 
L 588.818182 126.102707 
L 594.454545 124.91357 
L 600.090909 123.788903 
L 605.727273 122.725229 
L 611.363636 121.719254 
L 617 120.767861 
L 622.636364 119.8681 
" style="fill:none;stroke:#7f7f7f;stroke-linecap:square;stroke-width:1.5;"/>
   </g>
   <g id="line2d_29">
    <path clip-path="url(#p69fe909367)" d="M 115.363636 605.290909 
L 121 605.221464 
L 126.636364 605.016108 
L 132.272727 604.674296 
L 137.909091 604.189974 
L 143.545455 603.552621 
L 149.181818 602.747922 
L 154.818182 601.7582 
L 160.454545 600.56269 
L 166.090909 599.137727 
L 171.727273 597.456891 
L 177.363636 595.491161 
L 183 593.209118 
L 188.636364 590.577218 
L 194.272727 587.560192 
L 199.909091 584.121578 
L 205.545455 580.22443 
L 211.181818 575.832216 
L 216.818182 570.909909 
L 222.454545 565.425268 
L 228.090909 559.350275 
L 233.727273 552.662678 
L 239.363636 545.347563 
L 245 537.398843 
L 250.636364 528.820553 
L 256.272727 519.627822 
L 261.909091 509.847398 
L 267.545455 499.517635 
L 273.181818 488.687889 
L 278.818182 477.417331 
L 284.454545 465.773234 
L 290.090909 453.828855 
L 295.727273 441.661059 
L 301.363636 429.347883 
L 307 416.966192 
L 312.636364 404.589591 
L 318.272727 392.286697 
L 323.909091 380.119836 
L 329.545455 368.144179 
L 335.181818 356.4073 
L 340.818182 344.949095 
L 346.454545 333.802 
L 352.090909 322.991433 
L 357.727273 312.536384 
L 363.363636 302.450095 
L 369 292.740771 
L 374.636364 283.412287 
L 380.272727 274.464866 
L 385.909091 265.8957 
L 391.545455 257.699509 
L 397.181818 249.86904 
L 402.818182 242.395497 
L 408.454545 235.268908 
L 414.090909 228.478438 
L 419.727273 222.012648 
L 425.363636 215.859714 
L 431 210.0076 
L 436.636364 204.444204 
L 442.272727 199.157471 
L 447.909091 194.135487 
L 453.545455 189.366548 
L 459.181818 184.839216 
L 464.818182 180.542362 
L 470.454545 176.465194 
L 476.090909 172.597279 
L 481.727273 168.928556 
L 487.363636 165.449346 
L 493 162.150353 
L 498.636364 159.022663 
L 504.272727 156.057743 
L 509.909091 153.24743 
L 515.545455 150.583928 
L 521.181818 148.059795 
L 526.818182 145.667934 
L 532.454545 143.401583 
L 538.090909 141.2543 
L 543.727273 139.219955 
L 549.363636 137.292715 
L 555 135.467035 
L 560.636364 133.737643 
L 566.272727 132.099528 
L 571.909091 130.547933 
L 577.545455 129.078338 
L 583.181818 127.686455 
L 588.818182 126.36821 
L 594.454545 125.11974 
L 600.090909 123.937378 
L 605.727273 122.817648 
L 611.363636 121.75725 
L 617 120.753056 
L 622.636364 119.802101 
" style="fill:none;stroke:#bcbd22;stroke-linecap:square;stroke-width:1.5;"/>
   </g>
   <g id="line2d_30">
    <path clip-path="url(#p69fe909367)" d="M 115.363636 605.290909 
L 121 605.227876 
L 126.636364 605.080798 
L 132.272727 604.618554 
L 137.909091 604.135299 
L 143.545455 603.504966 
L 149.181818 602.696039 
L 154.818182 602.107728 
L 160.454545 601.46689 
L 166.090909 600.195719 
L 171.727273 600.195719 
L 177.363636 597.012538 
L 183 595.373673 
L 188.636364 593.524697 
L 194.272727 590.604155 
L 199.909091 587.505019 
L 205.545455 583.859594 
L 211.181818 579.562825 
L 216.818182 573.931852 
L 222.454545 567.239819 
L 228.090909 561.178119 
L 233.727273 555.431585 
L 239.363636 546.859059 
L 245 537.8453 
L 250.636364 527.024587 
L 256.272727 514.638547 
L 261.909091 502.326046 
L 267.545455 490.654384 
L 273.181818 481.335964 
L 278.818182 472.40625 
L 284.454545 461.596042 
L 290.090909 450.123985 
L 295.727273 439.271755 
L 301.363636 429.75373 
L 307 416.87393 
L 312.636364 406.652033 
L 318.272727 398.42619 
L 323.909091 388.204293 
L 329.545455 375.377021 
L 335.181818 361.236555 
L 340.818182 347.348222 
L 346.454545 335.004205 
L 352.090909 324.876858 
L 357.727273 315.737033 
L 363.363636 308.00495 
L 369 296.795532 
L 374.636364 283.810676 
L 380.272727 271.760814 
L 385.909091 260.498868 
L 391.545455 252.619708 
L 397.181818 244.961165 
L 402.818182 237.449699 
L 408.454545 228.110268 
L 414.090909 219.621786 
L 419.727273 212.740653 
L 425.363636 205.849015 
L 431 201.646796 
L 436.636364 199.839842 
L 442.272727 195.784701 
L 447.909091 190.38485 
L 453.545455 185.373704 
L 459.181818 180.698736 
L 464.818182 177.179378 
L 470.454545 175.088774 
L 476.090909 171.74801 
L 481.727273 169.310723 
L 487.363636 164.5307 
L 493 161.17943 
L 498.636364 158.143327 
L 504.272727 155.569468 
L 509.909091 153.878075 
L 515.545455 151.818988 
L 521.181818 149.434229 
L 526.818182 146.597732 
L 532.454545 144.496622 
L 538.090909 142.500568 
L 543.727273 141.187375 
L 549.363636 139.653565 
L 555 138.518966 
L 560.636364 136.438868 
L 566.272727 133.780965 
L 571.909091 131.805922 
L 577.545455 129.94644 
L 583.181818 128.139486 
L 588.818182 125.933321 
L 594.454545 124.536084 
L 600.090909 122.54003 
L 605.727273 120.62802 
L 611.363636 118.779044 
L 617 117.392312 
L 622.636364 115.448786 
" style="fill:none;stroke:#17becf;stroke-dasharray:14.8,6.4;stroke-dashoffset:0;stroke-width:4;"/>
   </g>
   <g id="patch_3">
    <path d="M 90 630 
L 90 86.4 
" style="fill:none;stroke:#000000;stroke-linecap:square;stroke-linejoin:miter;stroke-width:0.8;"/>
   </g>
   <g id="patch_4">
    <path d="M 648 630 
L 648 86.4 
" style="fill:none;stroke:#000000;stroke-linecap:square;stroke-linejoin:miter;stroke-width:0.8;"/>
   </g>
   <g id="patch_5">
    <path d="M 90 630 
L 648 630 
" style="fill:none;stroke:#000000;stroke-linecap:square;stroke-linejoin:miter;stroke-width:0.8;"/>
   </g>
   <g id="patch_6">
    <path d="M 90 86.4 
L 648 86.4 
" style="fill:none;stroke:#000000;stroke-linecap:square;stroke-linejoin:miter;stroke-width:0.8;"/>
   </g>
   <g id="text_13">
    <!-- Netherlands relative err =  -->
    <g transform="translate(288.620625 80.4)scale(0.12 -0.12)">
     <defs>
      <path d="M 9.8125 72.90625 
L 23.09375 72.90625 
L 55.421875 11.921875 
L 55.421875 72.90625 
L 64.984375 72.90625 
L 64.984375 0 
L 51.703125 0 
L 19.390625 60.984375 
L 19.390625 0 
L 9.8125 0 
z
" id="DejaVuSans-78"/>
      <path d="M 54.890625 33.015625 
L 54.890625 0 
L 45.90625 0 
L 45.90625 32.71875 
Q 45.90625 40.484375 42.875 44.328125 
Q 39.84375 48.1875 33.796875 48.1875 
Q 26.515625 48.1875 22.3125 43.546875 
Q 18.109375 38.921875 18.109375 30.90625 
L 18.109375 0 
L 9.078125 0 
L 9.078125 75.984375 
L 18.109375 75.984375 
L 18.109375 46.1875 
Q 21.34375 51.125 25.703125 53.5625 
Q 30.078125 56 35.796875 56 
Q 45.21875 56 50.046875 50.171875 
Q 54.890625 44.34375 54.890625 33.015625 
z
" id="DejaVuSans-104"/>
      <path d="M 41.109375 46.296875 
Q 39.59375 47.171875 37.8125 47.578125 
Q 36.03125 48 33.890625 48 
Q 26.265625 48 22.1875 43.046875 
Q 18.109375 38.09375 18.109375 28.8125 
L 18.109375 0 
L 9.078125 0 
L 9.078125 54.6875 
L 18.109375 54.6875 
L 18.109375 46.1875 
Q 20.953125 51.171875 25.484375 53.578125 
Q 30.03125 56 36.53125 56 
Q 37.453125 56 38.578125 55.875 
Q 39.703125 55.765625 41.0625 55.515625 
z
" id="DejaVuSans-114"/>
      <path d="M 54.890625 33.015625 
L 54.890625 0 
L 45.90625 0 
L 45.90625 32.71875 
Q 45.90625 40.484375 42.875 44.328125 
Q 39.84375 48.1875 33.796875 48.1875 
Q 26.515625 48.1875 22.3125 43.546875 
Q 18.109375 38.921875 18.109375 30.90625 
L 18.109375 0 
L 9.078125 0 
L 9.078125 54.6875 
L 18.109375 54.6875 
L 18.109375 46.1875 
Q 21.34375 51.125 25.703125 53.5625 
Q 30.078125 56 35.796875 56 
Q 45.21875 56 50.046875 50.171875 
Q 54.890625 44.34375 54.890625 33.015625 
z
" id="DejaVuSans-110"/>
      <path d="M 45.40625 46.390625 
L 45.40625 75.984375 
L 54.390625 75.984375 
L 54.390625 0 
L 45.40625 0 
L 45.40625 8.203125 
Q 42.578125 3.328125 38.25 0.953125 
Q 33.9375 -1.421875 27.875 -1.421875 
Q 17.96875 -1.421875 11.734375 6.484375 
Q 5.515625 14.40625 5.515625 27.296875 
Q 5.515625 40.1875 11.734375 48.09375 
Q 17.96875 56 27.875 56 
Q 33.9375 56 38.25 53.625 
Q 42.578125 51.265625 45.40625 46.390625 
z
M 14.796875 27.296875 
Q 14.796875 17.390625 18.875 11.75 
Q 22.953125 6.109375 30.078125 6.109375 
Q 37.203125 6.109375 41.296875 11.75 
Q 45.40625 17.390625 45.40625 27.296875 
Q 45.40625 37.203125 41.296875 42.84375 
Q 37.203125 48.484375 30.078125 48.484375 
Q 22.953125 48.484375 18.875 42.84375 
Q 14.796875 37.203125 14.796875 27.296875 
z
" id="DejaVuSans-100"/>
      <path d="M 10.59375 45.40625 
L 73.1875 45.40625 
L 73.1875 37.203125 
L 10.59375 37.203125 
z
M 10.59375 25.484375 
L 73.1875 25.484375 
L 73.1875 17.1875 
L 10.59375 17.1875 
z
" id="DejaVuSans-61"/>
     </defs>
     <use xlink:href="#DejaVuSans-78"/>
     <use x="74.804688" xlink:href="#DejaVuSans-101"/>
     <use x="136.328125" xlink:href="#DejaVuSans-116"/>
     <use x="175.537109" xlink:href="#DejaVuSans-104"/>
     <use x="238.916016" xlink:href="#DejaVuSans-101"/>
     <use x="300.439453" xlink:href="#DejaVuSans-114"/>
     <use x="341.552734" xlink:href="#DejaVuSans-108"/>
     <use x="369.335938" xlink:href="#DejaVuSans-97"/>
     <use x="430.615234" xlink:href="#DejaVuSans-110"/>
     <use x="493.994141" xlink:href="#DejaVuSans-100"/>
     <use x="557.470703" xlink:href="#DejaVuSans-115"/>
     <use x="609.570312" xlink:href="#DejaVuSans-32"/>
     <use x="641.357422" xlink:href="#DejaVuSans-114"/>
     <use x="680.220703" xlink:href="#DejaVuSans-101"/>
     <use x="741.744141" xlink:href="#DejaVuSans-108"/>
     <use x="769.527344" xlink:href="#DejaVuSans-97"/>
     <use x="830.806641" xlink:href="#DejaVuSans-116"/>
     <use x="870.015625" xlink:href="#DejaVuSans-105"/>
     <use x="897.798828" xlink:href="#DejaVuSans-118"/>
     <use x="956.978516" xlink:href="#DejaVuSans-101"/>
     <use x="1018.501953" xlink:href="#DejaVuSans-32"/>
     <use x="1050.289062" xlink:href="#DejaVuSans-101"/>
     <use x="1111.8125" xlink:href="#DejaVuSans-114"/>
     <use x="1151.175781" xlink:href="#DejaVuSans-114"/>
     <use x="1192.289062" xlink:href="#DejaVuSans-32"/>
     <use x="1224.076172" xlink:href="#DejaVuSans-61"/>
     <use x="1307.865234" xlink:href="#DejaVuSans-32"/>
    </g>
   </g>
   <g id="legend_1">
    <g id="patch_7">
     <path d="M 97 226.503125 
L 185.6 226.503125 
Q 187.6 226.503125 187.6 224.503125 
L 187.6 93.4 
Q 187.6 91.4 185.6 91.4 
L 97 91.4 
Q 95 91.4 95 93.4 
L 95 224.503125 
Q 95 226.503125 97 226.503125 
z
" style="fill:#ffffff;opacity:0.8;stroke:#cccccc;stroke-linejoin:miter;"/>
    </g>
    <g id="line2d_31">
     <path d="M 99 99.498438 
L 119 99.498438 
" style="fill:none;stroke:#1f77b4;stroke-linecap:square;stroke-width:1.5;"/>
    </g>
    <g id="line2d_32"/>
    <g id="text_14">
     <!-- SI -->
     <g transform="translate(127 102.998438)scale(0.1 -0.1)">
      <defs>
       <path d="M 53.515625 70.515625 
L 53.515625 60.890625 
Q 47.90625 63.578125 42.921875 64.890625 
Q 37.9375 66.21875 33.296875 66.21875 
Q 25.25 66.21875 20.875 63.09375 
Q 16.5 59.96875 16.5 54.203125 
Q 16.5 49.359375 19.40625 46.890625 
Q 22.3125 44.4375 30.421875 42.921875 
L 36.375 41.703125 
Q 47.40625 39.59375 52.65625 34.296875 
Q 57.90625 29 57.90625 20.125 
Q 57.90625 9.515625 50.796875 4.046875 
Q 43.703125 -1.421875 29.984375 -1.421875 
Q 24.8125 -1.421875 18.96875 -0.25 
Q 13.140625 0.921875 6.890625 3.21875 
L 6.890625 13.375 
Q 12.890625 10.015625 18.65625 8.296875 
Q 24.421875 6.59375 29.984375 6.59375 
Q 38.421875 6.59375 43.015625 9.90625 
Q 47.609375 13.234375 47.609375 19.390625 
Q 47.609375 24.75 44.3125 27.78125 
Q 41.015625 30.8125 33.5 32.328125 
L 27.484375 33.5 
Q 16.453125 35.6875 11.515625 40.375 
Q 6.59375 45.0625 6.59375 53.421875 
Q 6.59375 63.09375 13.40625 68.65625 
Q 20.21875 74.21875 32.171875 74.21875 
Q 37.3125 74.21875 42.625 73.28125 
Q 47.953125 72.359375 53.515625 70.515625 
z
" id="DejaVuSans-83"/>
       <path d="M 9.8125 72.90625 
L 19.671875 72.90625 
L 19.671875 0 
L 9.8125 0 
z
" id="DejaVuSans-73"/>
      </defs>
      <use xlink:href="#DejaVuSans-83"/>
      <use x="63.476562" xlink:href="#DejaVuSans-73"/>
     </g>
    </g>
    <g id="line2d_33">
     <path d="M 99 114.176563 
L 119 114.176563 
" style="fill:none;stroke:#ff7f0e;stroke-linecap:square;stroke-width:1.5;"/>
    </g>
    <g id="line2d_34"/>
    <g id="text_15">
     <!-- BD -->
     <g transform="translate(127 117.676563)scale(0.1 -0.1)">
      <defs>
       <path d="M 19.671875 34.8125 
L 19.671875 8.109375 
L 35.5 8.109375 
Q 43.453125 8.109375 47.28125 11.40625 
Q 51.125 14.703125 51.125 21.484375 
Q 51.125 28.328125 47.28125 31.5625 
Q 43.453125 34.8125 35.5 34.8125 
z
M 19.671875 64.796875 
L 19.671875 42.828125 
L 34.28125 42.828125 
Q 41.5 42.828125 45.03125 45.53125 
Q 48.578125 48.25 48.578125 53.8125 
Q 48.578125 59.328125 45.03125 62.0625 
Q 41.5 64.796875 34.28125 64.796875 
z
M 9.8125 72.90625 
L 35.015625 72.90625 
Q 46.296875 72.90625 52.390625 68.21875 
Q 58.5 63.53125 58.5 54.890625 
Q 58.5 48.1875 55.375 44.234375 
Q 52.25 40.28125 46.1875 39.3125 
Q 53.46875 37.75 57.5 32.78125 
Q 61.53125 27.828125 61.53125 20.40625 
Q 61.53125 10.640625 54.890625 5.3125 
Q 48.25 0 35.984375 0 
L 9.8125 0 
z
" id="DejaVuSans-66"/>
      </defs>
      <use xlink:href="#DejaVuSans-66"/>
      <use x="68.603516" xlink:href="#DejaVuSans-68"/>
     </g>
    </g>
    <g id="line2d_35">
     <path d="M 99 128.854688 
L 119 128.854688 
" style="fill:none;stroke:#2ca02c;stroke-linecap:square;stroke-width:1.5;"/>
    </g>
    <g id="line2d_36"/>
    <g id="text_16">
     <!-- SIR -->
     <g transform="translate(127 132.354688)scale(0.1 -0.1)">
      <defs>
       <path d="M 44.390625 34.1875 
Q 47.5625 33.109375 50.5625 29.59375 
Q 53.5625 26.078125 56.59375 19.921875 
L 66.609375 0 
L 56 0 
L 46.6875 18.703125 
Q 43.0625 26.03125 39.671875 28.421875 
Q 36.28125 30.8125 30.421875 30.8125 
L 19.671875 30.8125 
L 19.671875 0 
L 9.8125 0 
L 9.8125 72.90625 
L 32.078125 72.90625 
Q 44.578125 72.90625 50.734375 67.671875 
Q 56.890625 62.453125 56.890625 51.90625 
Q 56.890625 45.015625 53.6875 40.46875 
Q 50.484375 35.9375 44.390625 34.1875 
z
M 19.671875 64.796875 
L 19.671875 38.921875 
L 32.078125 38.921875 
Q 39.203125 38.921875 42.84375 42.21875 
Q 46.484375 45.515625 46.484375 51.90625 
Q 46.484375 58.296875 42.84375 61.546875 
Q 39.203125 64.796875 32.078125 64.796875 
z
" id="DejaVuSans-82"/>
      </defs>
      <use xlink:href="#DejaVuSans-83"/>
      <use x="63.476562" xlink:href="#DejaVuSans-73"/>
      <use x="92.96875" xlink:href="#DejaVuSans-82"/>
     </g>
    </g>
    <g id="line2d_37">
     <path d="M 99 143.532812 
L 119 143.532812 
" style="fill:none;stroke:#d62728;stroke-linecap:square;stroke-width:1.5;"/>
    </g>
    <g id="line2d_38"/>
    <g id="text_17">
     <!-- eSIR -->
     <g transform="translate(127 147.032812)scale(0.1 -0.1)">
      <use xlink:href="#DejaVuSans-101"/>
      <use x="61.523438" xlink:href="#DejaVuSans-83"/>
      <use x="125" xlink:href="#DejaVuSans-73"/>
      <use x="154.492188" xlink:href="#DejaVuSans-82"/>
     </g>
    </g>
    <g id="line2d_39">
     <path d="M 99 158.210938 
L 119 158.210938 
" style="fill:none;stroke:#9467bd;stroke-linecap:square;stroke-width:1.5;"/>
    </g>
    <g id="line2d_40"/>
    <g id="text_18">
     <!-- SEIR -->
     <g transform="translate(127 161.710938)scale(0.1 -0.1)">
      <defs>
       <path d="M 9.8125 72.90625 
L 55.90625 72.90625 
L 55.90625 64.59375 
L 19.671875 64.59375 
L 19.671875 43.015625 
L 54.390625 43.015625 
L 54.390625 34.71875 
L 19.671875 34.71875 
L 19.671875 8.296875 
L 56.78125 8.296875 
L 56.78125 0 
L 9.8125 0 
z
" id="DejaVuSans-69"/>
      </defs>
      <use xlink:href="#DejaVuSans-83"/>
      <use x="63.476562" xlink:href="#DejaVuSans-69"/>
      <use x="126.660156" xlink:href="#DejaVuSans-73"/>
      <use x="156.152344" xlink:href="#DejaVuSans-82"/>
     </g>
    </g>
    <g id="line2d_41">
     <path d="M 99 172.889063 
L 119 172.889063 
" style="fill:none;stroke:#8c564b;stroke-linecap:square;stroke-width:1.5;"/>
    </g>
    <g id="line2d_42"/>
    <g id="text_19">
     <!-- eSEIR -->
     <g transform="translate(127 176.389063)scale(0.1 -0.1)">
      <use xlink:href="#DejaVuSans-101"/>
      <use x="61.523438" xlink:href="#DejaVuSans-83"/>
      <use x="125" xlink:href="#DejaVuSans-69"/>
      <use x="188.183594" xlink:href="#DejaVuSans-73"/>
      <use x="217.675781" xlink:href="#DejaVuSans-82"/>
     </g>
    </g>
    <g id="line2d_43">
     <path d="M 99 187.567188 
L 119 187.567188 
" style="fill:none;stroke:#e377c2;stroke-linecap:square;stroke-width:1.5;"/>
    </g>
    <g id="line2d_44"/>
    <g id="text_20">
     <!-- SEIUR -->
     <g transform="translate(127 191.067188)scale(0.1 -0.1)">
      <defs>
       <path d="M 8.6875 72.90625 
L 18.609375 72.90625 
L 18.609375 28.609375 
Q 18.609375 16.890625 22.84375 11.734375 
Q 27.09375 6.59375 36.625 6.59375 
Q 46.09375 6.59375 50.34375 11.734375 
Q 54.59375 16.890625 54.59375 28.609375 
L 54.59375 72.90625 
L 64.5 72.90625 
L 64.5 27.390625 
Q 64.5 13.140625 57.4375 5.859375 
Q 50.390625 -1.421875 36.625 -1.421875 
Q 22.796875 -1.421875 15.734375 5.859375 
Q 8.6875 13.140625 8.6875 27.390625 
z
" id="DejaVuSans-85"/>
      </defs>
      <use xlink:href="#DejaVuSans-83"/>
      <use x="63.476562" xlink:href="#DejaVuSans-69"/>
      <use x="126.660156" xlink:href="#DejaVuSans-73"/>
      <use x="156.152344" xlink:href="#DejaVuSans-85"/>
      <use x="229.345703" xlink:href="#DejaVuSans-82"/>
     </g>
    </g>
    <g id="line2d_45">
     <path d="M 99 202.245312 
L 119 202.245312 
" style="fill:none;stroke:#7f7f7f;stroke-linecap:square;stroke-width:1.5;"/>
    </g>
    <g id="line2d_46"/>
    <g id="text_21">
     <!-- eSEIUR -->
     <g transform="translate(127 205.745312)scale(0.1 -0.1)">
      <use xlink:href="#DejaVuSans-101"/>
      <use x="61.523438" xlink:href="#DejaVuSans-83"/>
      <use x="125" xlink:href="#DejaVuSans-69"/>
      <use x="188.183594" xlink:href="#DejaVuSans-73"/>
      <use x="217.675781" xlink:href="#DejaVuSans-85"/>
      <use x="290.869141" xlink:href="#DejaVuSans-82"/>
     </g>
    </g>
    <g id="line2d_47">
     <path d="M 99 216.923437 
L 119 216.923437 
" style="fill:none;stroke:#bcbd22;stroke-linecap:square;stroke-width:1.5;"/>
    </g>
    <g id="line2d_48"/>
    <g id="text_22">
     <!-- eSEIUR$^{range}$ -->
     <g transform="translate(127 220.423437)scale(0.1 -0.1)">
      <defs>
       <path d="M 44.578125 46.390625 
Q 43.21875 47.125 41.453125 47.515625 
Q 39.703125 47.90625 37.703125 47.90625 
Q 30.515625 47.90625 25.140625 42.453125 
Q 19.78125 37.015625 18.015625 27.875 
L 12.5 0 
L 3.515625 0 
L 14.203125 54.6875 
L 23.1875 54.6875 
L 21.484375 46.1875 
Q 25.046875 50.921875 30 53.453125 
Q 34.96875 56 40.578125 56 
Q 42.046875 56 43.453125 55.828125 
Q 44.875 55.671875 46.296875 55.28125 
z
" id="DejaVuSans-Oblique-114"/>
       <path d="M 53.71875 31.203125 
L 47.609375 0 
L 38.625 0 
L 40.28125 8.296875 
Q 36.328125 3.421875 31.265625 1 
Q 26.21875 -1.421875 20.015625 -1.421875 
Q 13.03125 -1.421875 8.5625 2.84375 
Q 4.109375 7.125 4.109375 13.8125 
Q 4.109375 23.390625 11.75 28.953125 
Q 19.390625 34.515625 32.8125 34.515625 
L 45.3125 34.515625 
L 45.796875 36.921875 
Q 45.90625 37.3125 45.953125 37.765625 
Q 46 38.234375 46 39.203125 
Q 46 43.5625 42.453125 45.96875 
Q 38.921875 48.390625 32.515625 48.390625 
Q 28.125 48.390625 23.5 47.265625 
Q 18.890625 46.140625 14.015625 43.890625 
L 15.578125 52.203125 
Q 20.65625 54.109375 25.515625 55.046875 
Q 30.375 56 34.90625 56 
Q 44.578125 56 49.625 51.796875 
Q 54.6875 47.609375 54.6875 39.59375 
Q 54.6875 37.984375 54.4375 35.8125 
Q 54.203125 33.640625 53.71875 31.203125 
z
M 44 27.484375 
L 35.015625 27.484375 
Q 23.96875 27.484375 18.671875 24.53125 
Q 13.375 21.578125 13.375 15.375 
Q 13.375 11.078125 16.078125 8.640625 
Q 18.796875 6.203125 23.578125 6.203125 
Q 30.90625 6.203125 36.375 11.453125 
Q 41.84375 16.703125 43.609375 25.484375 
z
" id="DejaVuSans-Oblique-97"/>
       <path d="M 55.71875 33.015625 
L 49.3125 0 
L 40.28125 0 
L 46.6875 32.671875 
Q 47.125 34.96875 47.359375 36.71875 
Q 47.609375 38.484375 47.609375 39.5 
Q 47.609375 43.609375 45.015625 45.890625 
Q 42.4375 48.1875 37.796875 48.1875 
Q 30.5625 48.1875 25.34375 43.375 
Q 20.125 38.578125 18.5 30.328125 
L 12.5 0 
L 3.515625 0 
L 14.109375 54.6875 
L 23.09375 54.6875 
L 21.296875 46.09375 
Q 25.046875 50.828125 30.3125 53.40625 
Q 35.59375 56 41.40625 56 
Q 48.640625 56 52.609375 52.09375 
Q 56.59375 48.1875 56.59375 41.109375 
Q 56.59375 39.359375 56.375 37.359375 
Q 56.15625 35.359375 55.71875 33.015625 
z
" id="DejaVuSans-Oblique-110"/>
       <path d="M 59.625 54.6875 
L 50.296875 6.78125 
Q 47.609375 -7.125 40.015625 -13.953125 
Q 32.421875 -20.796875 19.578125 -20.796875 
Q 14.84375 -20.796875 10.78125 -20.09375 
Q 6.734375 -19.390625 3.21875 -17.921875 
L 4.890625 -9.1875 
Q 8.203125 -11.328125 11.90625 -12.34375 
Q 15.625 -13.375 19.828125 -13.375 
Q 28.375 -13.375 33.859375 -8.703125 
Q 39.359375 -4.046875 41.109375 4.6875 
L 41.890625 8.796875 
Q 38.140625 4.5 33.15625 2.25 
Q 28.171875 0 22.40625 0 
Q 14.109375 0 9.34375 5.484375 
Q 4.59375 10.984375 4.59375 20.609375 
Q 4.59375 28.171875 7.46875 35.421875 
Q 10.359375 42.671875 15.578125 48.296875 
Q 19.046875 52 23.65625 54 
Q 28.265625 56 33.296875 56 
Q 38.8125 56 42.90625 53.4375 
Q 47.015625 50.875 49.03125 46.1875 
L 50.59375 54.6875 
z
M 46.09375 34.625 
Q 46.09375 41.265625 42.96875 44.875 
Q 39.84375 48.484375 34.078125 48.484375 
Q 30.515625 48.484375 27.296875 47.0625 
Q 24.078125 45.65625 21.78125 43.109375 
Q 18.0625 38.921875 15.984375 33.234375 
Q 13.921875 27.546875 13.921875 21.484375 
Q 13.921875 14.75 17.0625 11.125 
Q 20.21875 7.515625 26.125 7.515625 
Q 34.671875 7.515625 40.375 15.25 
Q 46.09375 23 46.09375 34.625 
z
" id="DejaVuSans-Oblique-103"/>
       <path d="M 48.09375 32.234375 
Q 48.25 33.015625 48.3125 33.84375 
Q 48.390625 34.671875 48.390625 35.5 
Q 48.390625 41.453125 44.890625 44.921875 
Q 41.40625 48.390625 35.40625 48.390625 
Q 28.71875 48.390625 23.578125 44.15625 
Q 18.453125 39.9375 15.828125 32.171875 
z
M 55.90625 25.203125 
L 14.109375 25.203125 
Q 13.8125 23.34375 13.71875 22.265625 
Q 13.625 21.1875 13.625 20.40625 
Q 13.625 13.625 17.796875 9.90625 
Q 21.96875 6.203125 29.59375 6.203125 
Q 35.453125 6.203125 40.671875 7.515625 
Q 45.90625 8.84375 50.390625 11.375 
L 48.6875 2.484375 
Q 43.84375 0.53125 38.6875 -0.4375 
Q 33.546875 -1.421875 28.21875 -1.421875 
Q 16.84375 -1.421875 10.71875 4.015625 
Q 4.59375 9.46875 4.59375 19.484375 
Q 4.59375 28.03125 7.640625 35.375 
Q 10.6875 42.71875 16.609375 48.484375 
Q 20.40625 52.09375 25.65625 54.046875 
Q 30.90625 56 36.8125 56 
Q 46.09375 56 51.578125 50.4375 
Q 57.078125 44.875 57.078125 35.5 
Q 57.078125 33.25 56.78125 30.6875 
Q 56.5 28.125 55.90625 25.203125 
z
" id="DejaVuSans-Oblique-101"/>
      </defs>
      <use transform="translate(0 0.51875)" xlink:href="#DejaVuSans-101"/>
      <use transform="translate(61.523438 0.51875)" xlink:href="#DejaVuSans-83"/>
      <use transform="translate(125 0.51875)" xlink:href="#DejaVuSans-69"/>
      <use transform="translate(188.183594 0.51875)" xlink:href="#DejaVuSans-73"/>
      <use transform="translate(217.675781 0.51875)" xlink:href="#DejaVuSans-85"/>
      <use transform="translate(288.619141 0.51875)" xlink:href="#DejaVuSans-82"/>
      <use transform="translate(359.058594 38.8)scale(0.7)" xlink:href="#DejaVuSans-Oblique-114"/>
      <use transform="translate(387.837891 38.8)scale(0.7)" xlink:href="#DejaVuSans-Oblique-97"/>
      <use transform="translate(430.733398 38.8)scale(0.7)" xlink:href="#DejaVuSans-Oblique-110"/>
      <use transform="translate(475.098633 38.8)scale(0.7)" xlink:href="#DejaVuSans-Oblique-103"/>
      <use transform="translate(519.532227 38.8)scale(0.7)" xlink:href="#DejaVuSans-Oblique-101"/>
     </g>
    </g>
   </g>
  </g>
 </g>
 <defs>
  <clipPath id="p69fe909367">
   <rect height="543.6" width="558" x="90" y="86.4"/>
  </clipPath>
 </defs>
</svg>
