<?xml version="1.0" encoding="utf-8" standalone="no"?>
<!DOCTYPE svg PUBLIC "-//W3C//DTD SVG 1.1//EN"
  "http://www.w3.org/Graphics/SVG/1.1/DTD/svg11.dtd">
<!-- Created with matplotlib (https://matplotlib.org/) -->
<svg height="720pt" version="1.1" viewBox="0 0 720 720" width="720pt" xmlns="http://www.w3.org/2000/svg" xmlns:xlink="http://www.w3.org/1999/xlink">
 <metadata>
  <rdf:RDF xmlns:cc="http://creativecommons.org/ns#" xmlns:dc="http://purl.org/dc/elements/1.1/" xmlns:rdf="http://www.w3.org/1999/02/22-rdf-syntax-ns#">
   <cc:Work>
    <dc:type rdf:resource="http://purl.org/dc/dcmitype/StillImage"/>
    <dc:date>2022-10-11T20:58:45.373411</dc:date>
    <dc:format>image/svg+xml</dc:format>
    <dc:creator>
     <cc:Agent>
      <dc:title>Matplotlib v3.3.2, https://matplotlib.org/</dc:title>
     </cc:Agent>
    </dc:creator>
   </cc:Work>
  </rdf:RDF>
 </metadata>
 <defs>
  <style type="text/css">*{stroke-linecap:butt;stroke-linejoin:round;}</style>
 </defs>
 <g id="figure_1">
  <g id="patch_1">
   <path d="M 0 720 
L 720 720 
L 720 0 
L 0 0 
z
" style="fill:none;"/>
  </g>
  <g id="axes_1">
   <g id="patch_2">
    <path d="M 90 630 
L 648 630 
L 648 86.4 
L 90 86.4 
z
" style="fill:#ffffff;"/>
   </g>
   <g id="matplotlib.axis_1">
    <g id="xtick_1">
     <g id="line2d_1">
      <path clip-path="url(#pd489a18e08)" d="M 115.363636 630 
L 115.363636 86.4 
" style="fill:none;stroke:#b0b0b0;stroke-linecap:square;stroke-width:0.8;"/>
     </g>
     <g id="line2d_2">
      <defs>
       <path d="M 0 0 
L 0 3.5 
" id="m9732f57310" style="stroke:#000000;stroke-width:0.8;"/>
      </defs>
      <g>
       <use style="stroke:#000000;stroke-width:0.8;" x="115.363636" xlink:href="#m9732f57310" y="630"/>
      </g>
     </g>
     <g id="text_1">
      <!-- 0 -->
      <g transform="translate(112.182386 644.598438)scale(0.1 -0.1)">
       <defs>
        <path d="M 31.78125 66.40625 
Q 24.171875 66.40625 20.328125 58.90625 
Q 16.5 51.421875 16.5 36.375 
Q 16.5 21.390625 20.328125 13.890625 
Q 24.171875 6.390625 31.78125 6.390625 
Q 39.453125 6.390625 43.28125 13.890625 
Q 47.125 21.390625 47.125 36.375 
Q 47.125 51.421875 43.28125 58.90625 
Q 39.453125 66.40625 31.78125 66.40625 
z
M 31.78125 74.21875 
Q 44.046875 74.21875 50.515625 64.515625 
Q 56.984375 54.828125 56.984375 36.375 
Q 56.984375 17.96875 50.515625 8.265625 
Q 44.046875 -1.421875 31.78125 -1.421875 
Q 19.53125 -1.421875 13.0625 8.265625 
Q 6.59375 17.96875 6.59375 36.375 
Q 6.59375 54.828125 13.0625 64.515625 
Q 19.53125 74.21875 31.78125 74.21875 
z
" id="DejaVuSans-48"/>
       </defs>
       <use xlink:href="#DejaVuSans-48"/>
      </g>
     </g>
    </g>
    <g id="xtick_2">
     <g id="line2d_3">
      <path clip-path="url(#pd489a18e08)" d="M 216.818182 630 
L 216.818182 86.4 
" style="fill:none;stroke:#b0b0b0;stroke-linecap:square;stroke-width:0.8;"/>
     </g>
     <g id="line2d_4">
      <g>
       <use style="stroke:#000000;stroke-width:0.8;" x="216.818182" xlink:href="#m9732f57310" y="630"/>
      </g>
     </g>
     <g id="text_2">
      <!-- 20 -->
      <g transform="translate(210.455682 644.598438)scale(0.1 -0.1)">
       <defs>
        <path d="M 19.1875 8.296875 
L 53.609375 8.296875 
L 53.609375 0 
L 7.328125 0 
L 7.328125 8.296875 
Q 12.9375 14.109375 22.625 23.890625 
Q 32.328125 33.6875 34.8125 36.53125 
Q 39.546875 41.84375 41.421875 45.53125 
Q 43.3125 49.21875 43.3125 52.78125 
Q 43.3125 58.59375 39.234375 62.25 
Q 35.15625 65.921875 28.609375 65.921875 
Q 23.96875 65.921875 18.8125 64.3125 
Q 13.671875 62.703125 7.8125 59.421875 
L 7.8125 69.390625 
Q 13.765625 71.78125 18.9375 73 
Q 24.125 74.21875 28.421875 74.21875 
Q 39.75 74.21875 46.484375 68.546875 
Q 53.21875 62.890625 53.21875 53.421875 
Q 53.21875 48.921875 51.53125 44.890625 
Q 49.859375 40.875 45.40625 35.40625 
Q 44.1875 33.984375 37.640625 27.21875 
Q 31.109375 20.453125 19.1875 8.296875 
z
" id="DejaVuSans-50"/>
       </defs>
       <use xlink:href="#DejaVuSans-50"/>
       <use x="63.623047" xlink:href="#DejaVuSans-48"/>
      </g>
     </g>
    </g>
    <g id="xtick_3">
     <g id="line2d_5">
      <path clip-path="url(#pd489a18e08)" d="M 318.272727 630 
L 318.272727 86.4 
" style="fill:none;stroke:#b0b0b0;stroke-linecap:square;stroke-width:0.8;"/>
     </g>
     <g id="line2d_6">
      <g>
       <use style="stroke:#000000;stroke-width:0.8;" x="318.272727" xlink:href="#m9732f57310" y="630"/>
      </g>
     </g>
     <g id="text_3">
      <!-- 40 -->
      <g transform="translate(311.910227 644.598438)scale(0.1 -0.1)">
       <defs>
        <path d="M 37.796875 64.3125 
L 12.890625 25.390625 
L 37.796875 25.390625 
z
M 35.203125 72.90625 
L 47.609375 72.90625 
L 47.609375 25.390625 
L 58.015625 25.390625 
L 58.015625 17.1875 
L 47.609375 17.1875 
L 47.609375 0 
L 37.796875 0 
L 37.796875 17.1875 
L 4.890625 17.1875 
L 4.890625 26.703125 
z
" id="DejaVuSans-52"/>
       </defs>
       <use xlink:href="#DejaVuSans-52"/>
       <use x="63.623047" xlink:href="#DejaVuSans-48"/>
      </g>
     </g>
    </g>
    <g id="xtick_4">
     <g id="line2d_7">
      <path clip-path="url(#pd489a18e08)" d="M 419.727273 630 
L 419.727273 86.4 
" style="fill:none;stroke:#b0b0b0;stroke-linecap:square;stroke-width:0.8;"/>
     </g>
     <g id="line2d_8">
      <g>
       <use style="stroke:#000000;stroke-width:0.8;" x="419.727273" xlink:href="#m9732f57310" y="630"/>
      </g>
     </g>
     <g id="text_4">
      <!-- 60 -->
      <g transform="translate(413.364773 644.598438)scale(0.1 -0.1)">
       <defs>
        <path d="M 33.015625 40.375 
Q 26.375 40.375 22.484375 35.828125 
Q 18.609375 31.296875 18.609375 23.390625 
Q 18.609375 15.53125 22.484375 10.953125 
Q 26.375 6.390625 33.015625 6.390625 
Q 39.65625 6.390625 43.53125 10.953125 
Q 47.40625 15.53125 47.40625 23.390625 
Q 47.40625 31.296875 43.53125 35.828125 
Q 39.65625 40.375 33.015625 40.375 
z
M 52.59375 71.296875 
L 52.59375 62.3125 
Q 48.875 64.0625 45.09375 64.984375 
Q 41.3125 65.921875 37.59375 65.921875 
Q 27.828125 65.921875 22.671875 59.328125 
Q 17.53125 52.734375 16.796875 39.40625 
Q 19.671875 43.65625 24.015625 45.921875 
Q 28.375 48.1875 33.59375 48.1875 
Q 44.578125 48.1875 50.953125 41.515625 
Q 57.328125 34.859375 57.328125 23.390625 
Q 57.328125 12.15625 50.6875 5.359375 
Q 44.046875 -1.421875 33.015625 -1.421875 
Q 20.359375 -1.421875 13.671875 8.265625 
Q 6.984375 17.96875 6.984375 36.375 
Q 6.984375 53.65625 15.1875 63.9375 
Q 23.390625 74.21875 37.203125 74.21875 
Q 40.921875 74.21875 44.703125 73.484375 
Q 48.484375 72.75 52.59375 71.296875 
z
" id="DejaVuSans-54"/>
       </defs>
       <use xlink:href="#DejaVuSans-54"/>
       <use x="63.623047" xlink:href="#DejaVuSans-48"/>
      </g>
     </g>
    </g>
    <g id="xtick_5">
     <g id="line2d_9">
      <path clip-path="url(#pd489a18e08)" d="M 521.181818 630 
L 521.181818 86.4 
" style="fill:none;stroke:#b0b0b0;stroke-linecap:square;stroke-width:0.8;"/>
     </g>
     <g id="line2d_10">
      <g>
       <use style="stroke:#000000;stroke-width:0.8;" x="521.181818" xlink:href="#m9732f57310" y="630"/>
      </g>
     </g>
     <g id="text_5">
      <!-- 80 -->
      <g transform="translate(514.819318 644.598438)scale(0.1 -0.1)">
       <defs>
        <path d="M 31.78125 34.625 
Q 24.75 34.625 20.71875 30.859375 
Q 16.703125 27.09375 16.703125 20.515625 
Q 16.703125 13.921875 20.71875 10.15625 
Q 24.75 6.390625 31.78125 6.390625 
Q 38.8125 6.390625 42.859375 10.171875 
Q 46.921875 13.96875 46.921875 20.515625 
Q 46.921875 27.09375 42.890625 30.859375 
Q 38.875 34.625 31.78125 34.625 
z
M 21.921875 38.8125 
Q 15.578125 40.375 12.03125 44.71875 
Q 8.5 49.078125 8.5 55.328125 
Q 8.5 64.0625 14.71875 69.140625 
Q 20.953125 74.21875 31.78125 74.21875 
Q 42.671875 74.21875 48.875 69.140625 
Q 55.078125 64.0625 55.078125 55.328125 
Q 55.078125 49.078125 51.53125 44.71875 
Q 48 40.375 41.703125 38.8125 
Q 48.828125 37.15625 52.796875 32.3125 
Q 56.78125 27.484375 56.78125 20.515625 
Q 56.78125 9.90625 50.3125 4.234375 
Q 43.84375 -1.421875 31.78125 -1.421875 
Q 19.734375 -1.421875 13.25 4.234375 
Q 6.78125 9.90625 6.78125 20.515625 
Q 6.78125 27.484375 10.78125 32.3125 
Q 14.796875 37.15625 21.921875 38.8125 
z
M 18.3125 54.390625 
Q 18.3125 48.734375 21.84375 45.5625 
Q 25.390625 42.390625 31.78125 42.390625 
Q 38.140625 42.390625 41.71875 45.5625 
Q 45.3125 48.734375 45.3125 54.390625 
Q 45.3125 60.0625 41.71875 63.234375 
Q 38.140625 66.40625 31.78125 66.40625 
Q 25.390625 66.40625 21.84375 63.234375 
Q 18.3125 60.0625 18.3125 54.390625 
z
" id="DejaVuSans-56"/>
       </defs>
       <use xlink:href="#DejaVuSans-56"/>
       <use x="63.623047" xlink:href="#DejaVuSans-48"/>
      </g>
     </g>
    </g>
    <g id="xtick_6">
     <g id="line2d_11">
      <path clip-path="url(#pd489a18e08)" d="M 622.636364 630 
L 622.636364 86.4 
" style="fill:none;stroke:#b0b0b0;stroke-linecap:square;stroke-width:0.8;"/>
     </g>
     <g id="line2d_12">
      <g>
       <use style="stroke:#000000;stroke-width:0.8;" x="622.636364" xlink:href="#m9732f57310" y="630"/>
      </g>
     </g>
     <g id="text_6">
      <!-- 100 -->
      <g transform="translate(613.092614 644.598438)scale(0.1 -0.1)">
       <defs>
        <path d="M 12.40625 8.296875 
L 28.515625 8.296875 
L 28.515625 63.921875 
L 10.984375 60.40625 
L 10.984375 69.390625 
L 28.421875 72.90625 
L 38.28125 72.90625 
L 38.28125 8.296875 
L 54.390625 8.296875 
L 54.390625 0 
L 12.40625 0 
z
" id="DejaVuSans-49"/>
       </defs>
       <use xlink:href="#DejaVuSans-49"/>
       <use x="63.623047" xlink:href="#DejaVuSans-48"/>
       <use x="127.246094" xlink:href="#DejaVuSans-48"/>
      </g>
     </g>
    </g>
    <g id="text_7">
     <!-- Days -->
     <g transform="translate(356.521875 658.276562)scale(0.1 -0.1)">
      <defs>
       <path d="M 19.671875 64.796875 
L 19.671875 8.109375 
L 31.59375 8.109375 
Q 46.6875 8.109375 53.6875 14.9375 
Q 60.6875 21.78125 60.6875 36.53125 
Q 60.6875 51.171875 53.6875 57.984375 
Q 46.6875 64.796875 31.59375 64.796875 
z
M 9.8125 72.90625 
L 30.078125 72.90625 
Q 51.265625 72.90625 61.171875 64.09375 
Q 71.09375 55.28125 71.09375 36.53125 
Q 71.09375 17.671875 61.125 8.828125 
Q 51.171875 0 30.078125 0 
L 9.8125 0 
z
" id="DejaVuSans-68"/>
       <path d="M 34.28125 27.484375 
Q 23.390625 27.484375 19.1875 25 
Q 14.984375 22.515625 14.984375 16.5 
Q 14.984375 11.71875 18.140625 8.90625 
Q 21.296875 6.109375 26.703125 6.109375 
Q 34.1875 6.109375 38.703125 11.40625 
Q 43.21875 16.703125 43.21875 25.484375 
L 43.21875 27.484375 
z
M 52.203125 31.203125 
L 52.203125 0 
L 43.21875 0 
L 43.21875 8.296875 
Q 40.140625 3.328125 35.546875 0.953125 
Q 30.953125 -1.421875 24.3125 -1.421875 
Q 15.921875 -1.421875 10.953125 3.296875 
Q 6 8.015625 6 15.921875 
Q 6 25.140625 12.171875 29.828125 
Q 18.359375 34.515625 30.609375 34.515625 
L 43.21875 34.515625 
L 43.21875 35.40625 
Q 43.21875 41.609375 39.140625 45 
Q 35.0625 48.390625 27.6875 48.390625 
Q 23 48.390625 18.546875 47.265625 
Q 14.109375 46.140625 10.015625 43.890625 
L 10.015625 52.203125 
Q 14.9375 54.109375 19.578125 55.046875 
Q 24.21875 56 28.609375 56 
Q 40.484375 56 46.34375 49.84375 
Q 52.203125 43.703125 52.203125 31.203125 
z
" id="DejaVuSans-97"/>
       <path d="M 32.171875 -5.078125 
Q 28.375 -14.84375 24.75 -17.8125 
Q 21.140625 -20.796875 15.09375 -20.796875 
L 7.90625 -20.796875 
L 7.90625 -13.28125 
L 13.1875 -13.28125 
Q 16.890625 -13.28125 18.9375 -11.515625 
Q 21 -9.765625 23.484375 -3.21875 
L 25.09375 0.875 
L 2.984375 54.6875 
L 12.5 54.6875 
L 29.59375 11.921875 
L 46.6875 54.6875 
L 56.203125 54.6875 
z
" id="DejaVuSans-121"/>
       <path d="M 44.28125 53.078125 
L 44.28125 44.578125 
Q 40.484375 46.53125 36.375 47.5 
Q 32.28125 48.484375 27.875 48.484375 
Q 21.1875 48.484375 17.84375 46.4375 
Q 14.5 44.390625 14.5 40.28125 
Q 14.5 37.15625 16.890625 35.375 
Q 19.28125 33.59375 26.515625 31.984375 
L 29.59375 31.296875 
Q 39.15625 29.25 43.1875 25.515625 
Q 47.21875 21.78125 47.21875 15.09375 
Q 47.21875 7.46875 41.1875 3.015625 
Q 35.15625 -1.421875 24.609375 -1.421875 
Q 20.21875 -1.421875 15.453125 -0.5625 
Q 10.6875 0.296875 5.421875 2 
L 5.421875 11.28125 
Q 10.40625 8.6875 15.234375 7.390625 
Q 20.0625 6.109375 24.8125 6.109375 
Q 31.15625 6.109375 34.5625 8.28125 
Q 37.984375 10.453125 37.984375 14.40625 
Q 37.984375 18.0625 35.515625 20.015625 
Q 33.0625 21.96875 24.703125 23.78125 
L 21.578125 24.515625 
Q 13.234375 26.265625 9.515625 29.90625 
Q 5.8125 33.546875 5.8125 39.890625 
Q 5.8125 47.609375 11.28125 51.796875 
Q 16.75 56 26.8125 56 
Q 31.78125 56 36.171875 55.265625 
Q 40.578125 54.546875 44.28125 53.078125 
z
" id="DejaVuSans-115"/>
      </defs>
      <use xlink:href="#DejaVuSans-68"/>
      <use x="77.001953" xlink:href="#DejaVuSans-97"/>
      <use x="138.28125" xlink:href="#DejaVuSans-121"/>
      <use x="197.460938" xlink:href="#DejaVuSans-115"/>
     </g>
    </g>
   </g>
   <g id="matplotlib.axis_2">
    <g id="ytick_1">
     <g id="line2d_13">
      <path clip-path="url(#pd489a18e08)" d="M 90 606.367597 
L 648 606.367597 
" style="fill:none;stroke:#b0b0b0;stroke-linecap:square;stroke-width:0.8;"/>
     </g>
     <g id="line2d_14">
      <defs>
       <path d="M 0 0 
L -3.5 0 
" id="mf44f73abe4" style="stroke:#000000;stroke-width:0.8;"/>
      </defs>
      <g>
       <use style="stroke:#000000;stroke-width:0.8;" x="90" xlink:href="#mf44f73abe4" y="606.367597"/>
      </g>
     </g>
     <g id="text_8">
      <!-- 0 -->
      <g transform="translate(76.6375 610.166816)scale(0.1 -0.1)">
       <use xlink:href="#DejaVuSans-48"/>
      </g>
     </g>
    </g>
    <g id="ytick_2">
     <g id="line2d_15">
      <path clip-path="url(#pd489a18e08)" d="M 90 486.73557 
L 648 486.73557 
" style="fill:none;stroke:#b0b0b0;stroke-linecap:square;stroke-width:0.8;"/>
     </g>
     <g id="line2d_16">
      <g>
       <use style="stroke:#000000;stroke-width:0.8;" x="90" xlink:href="#mf44f73abe4" y="486.73557"/>
      </g>
     </g>
     <g id="text_9">
      <!-- 1000 -->
      <g transform="translate(57.55 490.534788)scale(0.1 -0.1)">
       <use xlink:href="#DejaVuSans-49"/>
       <use x="63.623047" xlink:href="#DejaVuSans-48"/>
       <use x="127.246094" xlink:href="#DejaVuSans-48"/>
       <use x="190.869141" xlink:href="#DejaVuSans-48"/>
      </g>
     </g>
    </g>
    <g id="ytick_3">
     <g id="line2d_17">
      <path clip-path="url(#pd489a18e08)" d="M 90 367.103542 
L 648 367.103542 
" style="fill:none;stroke:#b0b0b0;stroke-linecap:square;stroke-width:0.8;"/>
     </g>
     <g id="line2d_18">
      <g>
       <use style="stroke:#000000;stroke-width:0.8;" x="90" xlink:href="#mf44f73abe4" y="367.103542"/>
      </g>
     </g>
     <g id="text_10">
      <!-- 2000 -->
      <g transform="translate(57.55 370.902761)scale(0.1 -0.1)">
       <use xlink:href="#DejaVuSans-50"/>
       <use x="63.623047" xlink:href="#DejaVuSans-48"/>
       <use x="127.246094" xlink:href="#DejaVuSans-48"/>
       <use x="190.869141" xlink:href="#DejaVuSans-48"/>
      </g>
     </g>
    </g>
    <g id="ytick_4">
     <g id="line2d_19">
      <path clip-path="url(#pd489a18e08)" d="M 90 247.471514 
L 648 247.471514 
" style="fill:none;stroke:#b0b0b0;stroke-linecap:square;stroke-width:0.8;"/>
     </g>
     <g id="line2d_20">
      <g>
       <use style="stroke:#000000;stroke-width:0.8;" x="90" xlink:href="#mf44f73abe4" y="247.471514"/>
      </g>
     </g>
     <g id="text_11">
      <!-- 3000 -->
      <g transform="translate(57.55 251.270733)scale(0.1 -0.1)">
       <defs>
        <path d="M 40.578125 39.3125 
Q 47.65625 37.796875 51.625 33 
Q 55.609375 28.21875 55.609375 21.1875 
Q 55.609375 10.40625 48.1875 4.484375 
Q 40.765625 -1.421875 27.09375 -1.421875 
Q 22.515625 -1.421875 17.65625 -0.515625 
Q 12.796875 0.390625 7.625 2.203125 
L 7.625 11.71875 
Q 11.71875 9.328125 16.59375 8.109375 
Q 21.484375 6.890625 26.8125 6.890625 
Q 36.078125 6.890625 40.9375 10.546875 
Q 45.796875 14.203125 45.796875 21.1875 
Q 45.796875 27.640625 41.28125 31.265625 
Q 36.765625 34.90625 28.71875 34.90625 
L 20.21875 34.90625 
L 20.21875 43.015625 
L 29.109375 43.015625 
Q 36.375 43.015625 40.234375 45.921875 
Q 44.09375 48.828125 44.09375 54.296875 
Q 44.09375 59.90625 40.109375 62.90625 
Q 36.140625 65.921875 28.71875 65.921875 
Q 24.65625 65.921875 20.015625 65.03125 
Q 15.375 64.15625 9.8125 62.3125 
L 9.8125 71.09375 
Q 15.4375 72.65625 20.34375 73.4375 
Q 25.25 74.21875 29.59375 74.21875 
Q 40.828125 74.21875 47.359375 69.109375 
Q 53.90625 64.015625 53.90625 55.328125 
Q 53.90625 49.265625 50.4375 45.09375 
Q 46.96875 40.921875 40.578125 39.3125 
z
" id="DejaVuSans-51"/>
       </defs>
       <use xlink:href="#DejaVuSans-51"/>
       <use x="63.623047" xlink:href="#DejaVuSans-48"/>
       <use x="127.246094" xlink:href="#DejaVuSans-48"/>
       <use x="190.869141" xlink:href="#DejaVuSans-48"/>
      </g>
     </g>
    </g>
    <g id="ytick_5">
     <g id="line2d_21">
      <path clip-path="url(#pd489a18e08)" d="M 90 127.839487 
L 648 127.839487 
" style="fill:none;stroke:#b0b0b0;stroke-linecap:square;stroke-width:0.8;"/>
     </g>
     <g id="line2d_22">
      <g>
       <use style="stroke:#000000;stroke-width:0.8;" x="90" xlink:href="#mf44f73abe4" y="127.839487"/>
      </g>
     </g>
     <g id="text_12">
      <!-- 4000 -->
      <g transform="translate(57.55 131.638705)scale(0.1 -0.1)">
       <use xlink:href="#DejaVuSans-52"/>
       <use x="63.623047" xlink:href="#DejaVuSans-48"/>
       <use x="127.246094" xlink:href="#DejaVuSans-48"/>
       <use x="190.869141" xlink:href="#DejaVuSans-48"/>
      </g>
     </g>
    </g>
    <g id="text_13">
     <!-- Cumulative cases -->
     <g transform="translate(51.470312 402.425781)rotate(-90)scale(0.1 -0.1)">
      <defs>
       <path d="M 64.40625 67.28125 
L 64.40625 56.890625 
Q 59.421875 61.53125 53.78125 63.8125 
Q 48.140625 66.109375 41.796875 66.109375 
Q 29.296875 66.109375 22.65625 58.46875 
Q 16.015625 50.828125 16.015625 36.375 
Q 16.015625 21.96875 22.65625 14.328125 
Q 29.296875 6.6875 41.796875 6.6875 
Q 48.140625 6.6875 53.78125 8.984375 
Q 59.421875 11.28125 64.40625 15.921875 
L 64.40625 5.609375 
Q 59.234375 2.09375 53.4375 0.328125 
Q 47.65625 -1.421875 41.21875 -1.421875 
Q 24.65625 -1.421875 15.125 8.703125 
Q 5.609375 18.84375 5.609375 36.375 
Q 5.609375 53.953125 15.125 64.078125 
Q 24.65625 74.21875 41.21875 74.21875 
Q 47.75 74.21875 53.53125 72.484375 
Q 59.328125 70.75 64.40625 67.28125 
z
" id="DejaVuSans-67"/>
       <path d="M 8.5 21.578125 
L 8.5 54.6875 
L 17.484375 54.6875 
L 17.484375 21.921875 
Q 17.484375 14.15625 20.5 10.265625 
Q 23.53125 6.390625 29.59375 6.390625 
Q 36.859375 6.390625 41.078125 11.03125 
Q 45.3125 15.671875 45.3125 23.6875 
L 45.3125 54.6875 
L 54.296875 54.6875 
L 54.296875 0 
L 45.3125 0 
L 45.3125 8.40625 
Q 42.046875 3.421875 37.71875 1 
Q 33.40625 -1.421875 27.6875 -1.421875 
Q 18.265625 -1.421875 13.375 4.4375 
Q 8.5 10.296875 8.5 21.578125 
z
M 31.109375 56 
z
" id="DejaVuSans-117"/>
       <path d="M 52 44.1875 
Q 55.375 50.25 60.0625 53.125 
Q 64.75 56 71.09375 56 
Q 79.640625 56 84.28125 50.015625 
Q 88.921875 44.046875 88.921875 33.015625 
L 88.921875 0 
L 79.890625 0 
L 79.890625 32.71875 
Q 79.890625 40.578125 77.09375 44.375 
Q 74.3125 48.1875 68.609375 48.1875 
Q 61.625 48.1875 57.5625 43.546875 
Q 53.515625 38.921875 53.515625 30.90625 
L 53.515625 0 
L 44.484375 0 
L 44.484375 32.71875 
Q 44.484375 40.625 41.703125 44.40625 
Q 38.921875 48.1875 33.109375 48.1875 
Q 26.21875 48.1875 22.15625 43.53125 
Q 18.109375 38.875 18.109375 30.90625 
L 18.109375 0 
L 9.078125 0 
L 9.078125 54.6875 
L 18.109375 54.6875 
L 18.109375 46.1875 
Q 21.1875 51.21875 25.484375 53.609375 
Q 29.78125 56 35.6875 56 
Q 41.65625 56 45.828125 52.96875 
Q 50 49.953125 52 44.1875 
z
" id="DejaVuSans-109"/>
       <path d="M 9.421875 75.984375 
L 18.40625 75.984375 
L 18.40625 0 
L 9.421875 0 
z
" id="DejaVuSans-108"/>
       <path d="M 18.3125 70.21875 
L 18.3125 54.6875 
L 36.8125 54.6875 
L 36.8125 47.703125 
L 18.3125 47.703125 
L 18.3125 18.015625 
Q 18.3125 11.328125 20.140625 9.421875 
Q 21.96875 7.515625 27.59375 7.515625 
L 36.8125 7.515625 
L 36.8125 0 
L 27.59375 0 
Q 17.1875 0 13.234375 3.875 
Q 9.28125 7.765625 9.28125 18.015625 
L 9.28125 47.703125 
L 2.6875 47.703125 
L 2.6875 54.6875 
L 9.28125 54.6875 
L 9.28125 70.21875 
z
" id="DejaVuSans-116"/>
       <path d="M 9.421875 54.6875 
L 18.40625 54.6875 
L 18.40625 0 
L 9.421875 0 
z
M 9.421875 75.984375 
L 18.40625 75.984375 
L 18.40625 64.59375 
L 9.421875 64.59375 
z
" id="DejaVuSans-105"/>
       <path d="M 2.984375 54.6875 
L 12.5 54.6875 
L 29.59375 8.796875 
L 46.6875 54.6875 
L 56.203125 54.6875 
L 35.6875 0 
L 23.484375 0 
z
" id="DejaVuSans-118"/>
       <path d="M 56.203125 29.59375 
L 56.203125 25.203125 
L 14.890625 25.203125 
Q 15.484375 15.921875 20.484375 11.0625 
Q 25.484375 6.203125 34.421875 6.203125 
Q 39.59375 6.203125 44.453125 7.46875 
Q 49.3125 8.734375 54.109375 11.28125 
L 54.109375 2.78125 
Q 49.265625 0.734375 44.1875 -0.34375 
Q 39.109375 -1.421875 33.890625 -1.421875 
Q 20.796875 -1.421875 13.15625 6.1875 
Q 5.515625 13.8125 5.515625 26.8125 
Q 5.515625 40.234375 12.765625 48.109375 
Q 20.015625 56 32.328125 56 
Q 43.359375 56 49.78125 48.890625 
Q 56.203125 41.796875 56.203125 29.59375 
z
M 47.21875 32.234375 
Q 47.125 39.59375 43.09375 43.984375 
Q 39.0625 48.390625 32.421875 48.390625 
Q 24.90625 48.390625 20.390625 44.140625 
Q 15.875 39.890625 15.1875 32.171875 
z
" id="DejaVuSans-101"/>
       <path id="DejaVuSans-32"/>
       <path d="M 48.78125 52.59375 
L 48.78125 44.1875 
Q 44.96875 46.296875 41.140625 47.34375 
Q 37.3125 48.390625 33.40625 48.390625 
Q 24.65625 48.390625 19.8125 42.84375 
Q 14.984375 37.3125 14.984375 27.296875 
Q 14.984375 17.28125 19.8125 11.734375 
Q 24.65625 6.203125 33.40625 6.203125 
Q 37.3125 6.203125 41.140625 7.25 
Q 44.96875 8.296875 48.78125 10.40625 
L 48.78125 2.09375 
Q 45.015625 0.34375 40.984375 -0.53125 
Q 36.96875 -1.421875 32.421875 -1.421875 
Q 20.0625 -1.421875 12.78125 6.34375 
Q 5.515625 14.109375 5.515625 27.296875 
Q 5.515625 40.671875 12.859375 48.328125 
Q 20.21875 56 33.015625 56 
Q 37.15625 56 41.109375 55.140625 
Q 45.0625 54.296875 48.78125 52.59375 
z
" id="DejaVuSans-99"/>
      </defs>
      <use xlink:href="#DejaVuSans-67"/>
      <use x="69.824219" xlink:href="#DejaVuSans-117"/>
      <use x="133.203125" xlink:href="#DejaVuSans-109"/>
      <use x="230.615234" xlink:href="#DejaVuSans-117"/>
      <use x="293.994141" xlink:href="#DejaVuSans-108"/>
      <use x="321.777344" xlink:href="#DejaVuSans-97"/>
      <use x="383.056641" xlink:href="#DejaVuSans-116"/>
      <use x="422.265625" xlink:href="#DejaVuSans-105"/>
      <use x="450.048828" xlink:href="#DejaVuSans-118"/>
      <use x="509.228516" xlink:href="#DejaVuSans-101"/>
      <use x="570.751953" xlink:href="#DejaVuSans-32"/>
      <use x="602.539062" xlink:href="#DejaVuSans-99"/>
      <use x="657.519531" xlink:href="#DejaVuSans-97"/>
      <use x="718.798828" xlink:href="#DejaVuSans-115"/>
      <use x="770.898438" xlink:href="#DejaVuSans-101"/>
      <use x="832.421875" xlink:href="#DejaVuSans-115"/>
     </g>
    </g>
   </g>
   <g id="line2d_23">
    <path clip-path="url(#pd489a18e08)" d="M 115.363636 605.290909 
L 120.436364 605.118127 
L 125.509091 604.917708 
L 130.581818 604.685263 
L 135.654545 604.415715 
L 140.727273 604.103199 
L 145.8 603.740943 
L 150.872727 603.321129 
L 155.945455 602.834752 
L 161.018182 602.27144 
L 166.090909 601.61927 
L 171.163636 600.864556 
L 176.236364 599.991616 
L 181.309091 598.98252 
L 186.381818 597.81682 
L 191.454545 596.471264 
L 196.527273 594.919503 
L 201.6 593.131796 
L 206.672727 591.074732 
L 211.745455 588.710988 
L 216.818182 585.999139 
L 221.890909 582.893568 
L 226.963636 579.344503 
L 232.036364 575.298238 
L 237.109091 570.697601 
L 242.181818 565.482725 
L 247.254545 559.5922 
L 252.327273 552.964663 
L 257.4 545.54089 
L 262.472727 537.266411 
L 267.545455 528.094626 
L 272.618182 517.990369 
L 277.690909 506.933747 
L 282.763636 494.924031 
L 287.836364 481.983271 
L 292.909091 468.159237 
L 297.981818 453.52727 
L 303.054545 438.190616 
L 308.127273 422.278964 
L 313.2 405.945021 
L 318.272727 389.35923 
L 323.345455 372.702942 
L 328.418182 356.160606 
L 333.490909 339.911673 
L 338.563636 324.122958 
L 343.636364 308.94214 
L 348.709091 294.492891 
L 353.781818 280.871921 
L 358.854545 268.14796 
L 363.927273 256.362483 
L 369 245.531857 
L 374.072727 235.65048 
L 379.145455 226.694495 
L 384.218182 218.625691 
L 389.290909 211.395303 
L 394.363636 204.947472 
L 399.436364 199.222252 
L 404.509091 194.158101 
L 409.581818 189.693847 
L 414.654545 185.77017 
L 419.727273 182.330661 
L 424.8 179.322512 
L 429.872727 176.696922 
L 434.945455 174.409267 
L 440.018182 172.419103 
L 445.090909 170.690052 
L 450.163636 169.189595 
L 455.236364 167.888819 
L 460.309091 166.762132 
L 465.381818 165.786973 
L 470.454545 164.943514 
L 475.527273 164.21438 
L 480.6 163.584384 
L 485.672727 163.040276 
L 490.745455 162.570518 
L 495.818182 162.165078 
L 500.890909 161.815245 
L 505.963636 161.513463 
L 511.036364 161.253185 
L 516.109091 161.028743 
L 521.181818 160.83523 
L 526.254545 160.668407 
L 531.327273 160.524609 
L 536.4 160.400669 
L 541.472727 160.293854 
L 546.545455 160.201805 
L 551.618182 160.122485 
L 556.690909 160.054137 
L 561.763636 159.995247 
L 566.836364 159.944508 
L 571.909091 159.900793 
L 576.981818 159.863131 
L 582.054545 159.830684 
L 587.127273 159.802731 
L 592.2 159.77865 
L 597.272727 159.757905 
L 602.345455 159.740035 
L 607.418182 159.72464 
L 612.490909 159.711378 
L 617.563636 159.699955 
L 622.636364 159.690114 
" style="fill:none;stroke:#1f77b4;stroke-linecap:square;stroke-width:1.5;"/>
   </g>
   <g id="line2d_24">
    <path clip-path="url(#pd489a18e08)" d="M 115.363636 605.290909 
L 120.436364 603.907351 
L 125.509091 602.415155 
L 130.581818 600.806579 
L 135.654545 599.073462 
L 140.727273 597.207226 
L 145.8 595.198876 
L 150.872727 593.039018 
L 155.945455 590.717868 
L 161.018182 588.225285 
L 166.090909 585.550796 
L 171.163636 582.683647 
L 176.236364 579.612854 
L 181.309091 576.327269 
L 186.381818 572.815658 
L 191.454545 569.0668 
L 196.527273 565.069591 
L 201.6 560.813171 
L 206.672727 556.287062 
L 211.745455 551.481324 
L 216.818182 546.38673 
L 221.890909 540.994945 
L 226.963636 535.298727 
L 232.036364 529.292131 
L 237.109091 522.970725 
L 242.181818 516.331803 
L 247.254545 509.374597 
L 252.327273 502.10048 
L 257.4 494.513157 
L 262.472727 486.618826 
L 267.545455 478.426321 
L 272.618182 469.947211 
L 277.690909 461.195858 
L 282.763636 452.189425 
L 287.836364 442.947832 
L 292.909091 433.493656 
L 297.981818 423.851966 
L 303.054545 414.050103 
L 308.127273 404.117405 
L 313.2 394.084876 
L 318.272727 383.984817 
L 323.345455 373.850415 
L 328.418182 363.715309 
L 333.490909 353.613152 
L 338.563636 343.577157 
L 343.636364 333.63967 
L 348.709091 323.831757 
L 353.781818 314.182832 
L 358.854545 304.720326 
L 363.927273 295.469407 
L 369 286.452758 
L 374.072727 277.690414 
L 379.145455 269.199655 
L 384.218182 260.994958 
L 389.290909 253.088007 
L 394.363636 245.48775 
L 399.436364 238.200492 
L 404.509091 231.230038 
L 409.581818 224.577855 
L 414.654545 218.24326 
L 419.727273 212.223624 
L 424.8 206.514582 
L 429.872727 201.110248 
L 434.945455 196.00343 
L 440.018182 191.185835 
L 445.090909 186.648269 
L 450.163636 182.380817 
L 455.236364 178.373023 
L 460.309091 174.614037 
L 465.381818 171.092764 
L 470.454545 167.797985 
L 475.527273 164.718465 
L 480.6 161.843052 
L 485.672727 159.160752 
L 490.745455 156.6608 
L 495.818182 154.332712 
L 500.890909 152.166331 
L 505.963636 150.151859 
L 511.036364 148.279883 
L 516.109091 146.541394 
L 521.181818 144.927794 
L 526.254545 143.430906 
L 531.327273 142.042971 
L 536.4 140.756645 
L 541.472727 139.564993 
L 546.545455 138.46148 
L 551.618182 137.439957 
L 556.690909 136.49465 
L 561.763636 135.620143 
L 566.836364 134.811367 
L 571.909091 134.063579 
L 576.981818 133.372351 
L 582.054545 132.73355 
L 587.127273 132.143324 
L 592.2 131.598083 
L 597.272727 131.094491 
L 602.345455 130.629442 
L 607.418182 130.200053 
L 612.490909 129.803644 
L 617.563636 129.437731 
L 622.636364 129.100008 
" style="fill:none;stroke:#ff7f0e;stroke-linecap:square;stroke-width:1.5;"/>
   </g>
   <g id="line2d_25">
    <path clip-path="url(#pd489a18e08)" d="M 115.363636 605.290909 
L 120.436364 604.604442 
L 125.509091 603.842671 
L 130.581818 602.997659 
L 135.654545 602.060704 
L 140.727273 601.02229 
L 145.8 599.872026 
L 150.872727 598.598596 
L 155.945455 597.189707 
L 161.018182 595.632043 
L 166.090909 593.911231 
L 171.163636 592.011808 
L 176.236364 589.917216 
L 181.309091 587.609801 
L 186.381818 585.070846 
L 191.454545 582.28063 
L 196.527273 579.218515 
L 201.6 575.863083 
L 206.672727 572.192317 
L 211.745455 568.183826 
L 216.818182 563.815148 
L 221.890909 559.064094 
L 226.963636 553.909177 
L 232.036364 548.330098 
L 237.109091 542.308298 
L 242.181818 535.827566 
L 247.254545 528.874699 
L 252.327273 521.44018 
L 257.4 513.518869 
L 262.472727 505.110676 
L 267.545455 496.221164 
L 272.618182 486.86208 
L 277.690909 477.051746 
L 282.763636 466.815288 
L 287.836364 456.184673 
L 292.909091 445.198526 
L 297.981818 433.901715 
L 303.054545 422.344702 
L 308.127273 410.582684 
L 313.2 398.674541 
L 318.272727 386.681634 
L 323.345455 374.666523 
L 328.418182 362.691635 
L 333.490909 350.817965 
L 338.563636 339.103857 
L 343.636364 327.603922 
L 348.709091 316.368114 
L 353.781818 305.441022 
L 358.854545 294.861358 
L 363.927273 284.661667 
L 369 274.868234 
L 374.072727 265.501168 
L 379.145455 256.574648 
L 384.218182 248.097292 
L 389.290909 240.07261 
L 394.363636 232.499539 
L 399.436364 225.372992 
L 404.509091 218.684439 
L 409.581818 212.422465 
L 414.654545 206.57331 
L 419.727273 201.121377 
L 424.8 196.049685 
L 429.872727 191.34029 
L 434.945455 186.974643 
L 440.018182 182.933904 
L 445.090909 179.199209 
L 450.163636 175.751887 
L 455.236364 172.573645 
L 460.309091 169.646706 
L 465.381818 166.95392 
L 470.454545 164.478846 
L 475.527273 162.205809 
L 480.6 160.119935 
L 485.672727 158.207169 
L 490.745455 156.454282 
L 495.818182 154.848861 
L 500.890909 153.379296 
L 505.963636 152.034754 
L 511.036364 150.805155 
L 516.109091 149.681134 
L 521.181818 148.654013 
L 526.254545 147.715759 
L 531.327273 146.858951 
L 536.4 146.076742 
L 541.472727 145.362823 
L 546.545455 144.711386 
L 551.618182 144.117091 
L 556.690909 143.575032 
L 561.763636 143.080706 
L 566.836364 142.629985 
L 571.909091 142.219082 
L 576.981818 141.844531 
L 582.054545 141.503157 
L 587.127273 141.192058 
L 592.2 140.908577 
L 597.272727 140.650286 
L 602.345455 140.414968 
L 607.418182 140.200595 
L 612.490909 140.005317 
L 617.563636 139.827445 
L 622.636364 139.665436 
" style="fill:none;stroke:#2ca02c;stroke-linecap:square;stroke-width:1.5;"/>
   </g>
   <g id="line2d_26">
    <path clip-path="url(#pd489a18e08)" d="M 115.363636 605.290909 
L 120.436364 604.484862 
L 125.509091 603.550702 
L 130.581818 602.478615 
L 135.654545 601.258214 
L 140.727273 599.878538 
L 145.8 598.328062 
L 150.872727 596.594721 
L 155.945455 594.665938 
L 161.018182 592.528675 
L 166.090909 590.169493 
L 171.163636 587.57463 
L 176.236364 584.730102 
L 181.309091 581.621826 
L 186.381818 578.235759 
L 191.454545 574.558068 
L 196.527273 570.575324 
L 201.6 566.274714 
L 206.672727 561.644287 
L 211.745455 556.673212 
L 216.818182 551.352058 
L 221.890909 545.673086 
L 226.963636 539.63055 
L 232.036364 533.220994 
L 237.109091 526.44354 
L 242.181818 519.300155 
L 247.254545 511.795889 
L 252.327273 503.939066 
L 257.4 495.741421 
L 262.472727 487.218176 
L 267.545455 478.388035 
L 272.618182 469.273101 
L 277.690909 459.898713 
L 282.763636 450.29319 
L 287.836364 440.487499 
L 292.909091 430.51485 
L 297.981818 420.41022 
L 303.054545 410.209844 
L 308.127273 399.95066 
L 313.2 389.669745 
L 318.272727 379.403764 
L 323.345455 369.188433 
L 328.418182 359.058027 
L 333.490909 349.044941 
L 338.563636 339.179317 
L 343.636364 329.488743 
L 348.709091 319.998025 
L 353.781818 310.729042 
L 358.854545 301.700669 
L 363.927273 292.928767 
L 369 284.426241 
L 374.072727 276.203144 
L 379.145455 268.266822 
L 384.218182 260.622101 
L 389.290909 253.271488 
L 394.363636 246.215389 
L 399.436364 239.452342 
L 404.509091 232.979243 
L 409.581818 226.791567 
L 414.654545 220.883584 
L 419.727273 215.248564 
L 424.8 209.878959 
L 429.872727 204.766581 
L 434.945455 199.902749 
L 440.018182 195.278435 
L 445.090909 190.884379 
L 450.163636 186.711199 
L 455.236364 182.749479 
L 460.309091 178.989846 
L 465.381818 175.423037 
L 470.454545 172.03995 
L 475.527273 168.831686 
L 480.6 165.789586 
L 485.672727 162.905255 
L 490.745455 160.170583 
L 495.818182 157.577756 
L 500.890909 155.11927 
L 505.963636 152.787929 
L 511.036364 150.576852 
L 516.109091 148.479467 
L 521.181818 146.489513 
L 526.254545 144.601025 
L 531.327273 142.808335 
L 536.4 141.106061 
L 541.472727 139.489095 
L 546.545455 137.952598 
L 551.618182 136.491984 
L 556.690909 135.102917 
L 561.763636 133.781291 
L 566.836364 132.523229 
L 571.909091 131.325066 
L 576.981818 130.183341 
L 582.054545 129.094787 
L 587.127273 128.056322 
L 592.2 127.065037 
L 597.272727 126.118189 
L 602.345455 125.213192 
L 607.418182 124.34761 
L 612.490909 123.519145 
L 617.563636 122.725633 
L 622.636364 121.965034 
" style="fill:none;stroke:#d62728;stroke-linecap:square;stroke-width:1.5;"/>
   </g>
   <g id="line2d_27">
    <path clip-path="url(#pd489a18e08)" d="M 115.363636 605.290909 
L 120.436364 605.217619 
L 125.509091 605.03241 
L 130.581818 604.761741 
L 135.654545 604.411762 
L 140.727273 603.977626 
L 145.8 603.44773 
L 150.872727 602.80551 
L 155.945455 602.030064 
L 161.018182 601.096215 
L 166.090909 599.974315 
L 171.163636 598.629974 
L 176.236364 597.023845 
L 181.309091 595.111559 
L 186.381818 592.843944 
L 191.454545 590.167629 
L 196.527273 587.026185 
L 201.6 583.361897 
L 206.672727 579.118242 
L 211.745455 574.243055 
L 216.818182 568.692248 
L 221.890909 562.433777 
L 226.963636 555.451422 
L 232.036364 547.747822 
L 237.109091 539.34623 
L 242.181818 530.290546 
L 247.254545 520.643502 
L 252.327273 510.483154 
L 257.4 499.898169 
L 262.472727 488.982572 
L 267.545455 477.830666 
L 272.618182 466.532681 
L 277.690909 455.171505 
L 282.763636 443.820606 
L 287.836364 432.543057 
L 292.909091 421.391444 
L 297.981818 410.408417 
L 303.054545 399.627623 
L 308.127273 389.074837 
L 313.2 378.769129 
L 318.272727 368.723984 
L 323.345455 358.948312 
L 328.418182 349.447333 
L 333.490909 340.223322 
L 338.563636 331.276232 
L 343.636364 322.604209 
L 348.709091 314.204002 
L 353.781818 306.071297 
L 358.854545 298.20098 
L 363.927273 290.587356 
L 369 283.224309 
L 374.072727 276.105438 
L 379.145455 269.224161 
L 384.218182 262.573796 
L 389.290909 256.147625 
L 394.363636 249.938948 
L 399.436364 243.941114 
L 404.509091 238.14756 
L 409.581818 232.551827 
L 414.654545 227.147579 
L 419.727273 221.928618 
L 424.8 216.88889 
L 429.872727 212.022496 
L 434.945455 207.323691 
L 440.018182 202.786887 
L 445.090909 198.406659 
L 450.163636 194.177739 
L 455.236364 190.095018 
L 460.309091 186.153542 
L 465.381818 182.348514 
L 470.454545 178.675286 
L 475.527273 175.129359 
L 480.6 171.706379 
L 485.672727 168.402134 
L 490.745455 165.21255 
L 495.818182 162.133686 
L 500.890909 159.161733 
L 505.963636 156.29301 
L 511.036364 153.523958 
L 516.109091 150.851136 
L 521.181818 148.271222 
L 526.254545 145.781005 
L 531.327273 143.377382 
L 536.4 141.057358 
L 541.472727 138.818037 
L 546.545455 136.656625 
L 551.618182 134.570421 
L 556.690909 132.556817 
L 561.763636 130.613296 
L 566.836364 128.737426 
L 571.909091 126.926859 
L 576.981818 125.179328 
L 582.054545 123.492643 
L 587.127273 121.864691 
L 592.2 120.293432 
L 597.272727 118.776895 
L 602.345455 117.313178 
L 607.418182 115.900445 
L 612.490909 114.536923 
L 617.563636 113.220901 
L 622.636364 111.950725 
" style="fill:none;stroke:#9467bd;stroke-linecap:square;stroke-width:1.5;"/>
   </g>
   <g id="line2d_28">
    <path clip-path="url(#pd489a18e08)" d="M 115.363636 605.290909 
L 120.436364 605.194254 
L 125.509091 604.908882 
L 130.581818 604.438603 
L 135.654545 603.78351 
L 140.727273 602.940363 
L 145.8 601.902917 
L 150.872727 600.662184 
L 155.945455 599.206667 
L 161.018182 597.52257 
L 166.090909 595.594005 
L 171.163636 593.403217 
L 176.236364 590.930827 
L 181.309091 588.156117 
L 186.381818 585.057368 
L 191.454545 581.612267 
L 196.527273 577.798371 
L 201.6 573.593671 
L 206.672727 568.977218 
L 211.745455 563.92983 
L 216.818182 558.434866 
L 221.890909 552.479033 
L 226.963636 546.05321 
L 232.036364 539.153241 
L 237.109091 531.780661 
L 242.181818 523.94329 
L 247.254545 515.655656 
L 252.327273 506.939199 
L 257.4 497.822205 
L 262.472727 488.339468 
L 267.545455 478.531661 
L 272.618182 468.444447 
L 277.690909 458.127366 
L 282.763636 447.632558 
L 287.836364 437.01341 
L 292.909091 426.323181 
L 297.981818 415.613717 
L 303.054545 404.934294 
L 308.127273 394.330662 
L 313.2 383.844308 
L 318.272727 373.51197 
L 323.345455 363.36537 
L 328.418182 353.431167 
L 333.490909 343.731089 
L 338.563636 334.282202 
L 343.636364 325.097282 
L 348.709091 316.185257 
L 353.781818 307.551673 
L 358.854545 299.199167 
L 363.927273 291.127925 
L 369 283.336109 
L 374.072727 275.82024 
L 379.145455 268.575543 
L 384.218182 261.596242 
L 389.290909 254.875812 
L 394.363636 248.407188 
L 399.436364 242.182941 
L 404.509091 236.195417 
L 409.581818 230.436853 
L 414.654545 224.899462 
L 419.727273 219.575506 
L 424.8 214.457347 
L 429.872727 209.537486 
L 434.945455 204.808596 
L 440.018182 200.263538 
L 445.090909 195.89538 
L 450.163636 191.697399 
L 455.236364 187.663094 
L 460.309091 183.786182 
L 465.381818 180.060597 
L 470.454545 176.480491 
L 475.527273 173.04023 
L 480.6 169.734385 
L 485.672727 166.557733 
L 490.745455 163.505245 
L 495.818182 160.572085 
L 500.890909 157.7536 
L 505.963636 155.045316 
L 511.036364 152.442934 
L 516.109091 149.942318 
L 521.181818 147.539492 
L 526.254545 145.230637 
L 531.327273 143.01208 
L 536.4 140.880292 
L 541.472727 138.831882 
L 546.545455 136.863588 
L 551.618182 134.97228 
L 556.690909 133.154947 
L 561.763636 131.408695 
L 566.836364 129.730747 
L 571.909091 128.118429 
L 576.981818 126.569176 
L 582.054545 125.080522 
L 587.127273 123.650095 
L 592.2 122.275619 
L 597.272727 120.954906 
L 602.345455 119.685852 
L 607.418182 118.466437 
L 612.490909 117.294719 
L 617.563636 116.168833 
L 622.636364 115.086987 
" style="fill:none;stroke:#8c564b;stroke-linecap:square;stroke-width:1.5;"/>
   </g>
   <g id="line2d_29">
    <path clip-path="url(#pd489a18e08)" d="M 115.363636 605.290909 
L 120.436364 605.217689 
L 125.509091 605.021561 
L 130.581818 604.722721 
L 135.654545 604.327302 
L 140.727273 603.832142 
L 145.8 603.227431 
L 150.872727 602.498101 
L 155.945455 601.624493 
L 161.018182 600.5826 
L 166.090909 599.344095 
L 171.163636 597.876266 
L 176.236364 596.141978 
L 181.309091 594.099762 
L 186.381818 591.704119 
L 191.454545 588.906153 
L 196.527273 585.654621 
L 201.6 581.897495 
L 206.672727 577.584067 
L 211.745455 572.667607 
L 216.818182 567.108448 
L 221.890909 560.877306 
L 226.963636 553.958487 
L 232.036364 546.352595 
L 237.109091 538.078284 
L 242.181818 529.172709 
L 247.254545 519.690467 
L 252.327273 509.701061 
L 257.4 499.285164 
L 262.472727 488.530174 
L 267.545455 477.525613 
L 272.618182 466.358899 
L 277.690909 455.111913 
L 282.763636 443.858538 
L 287.836364 432.663238 
L 292.909091 421.580526 
L 297.981818 410.65516 
L 303.054545 399.922817 
L 308.127273 389.411073 
L 313.2 379.140496 
L 318.272727 369.125749 
L 323.345455 359.376628 
L 328.418182 349.898985 
L 333.490909 340.695525 
L 338.563636 331.766478 
L 343.636364 323.110149 
L 348.709091 314.723371 
L 353.781818 306.601865 
L 358.854545 298.740521 
L 363.927273 291.133636 
L 369 283.775082 
L 374.072727 276.658449 
L 379.145455 269.777158 
L 384.218182 263.124536 
L 389.290909 256.693889 
L 394.363636 250.478551 
L 399.436364 244.471917 
L 404.509091 238.667477 
L 409.581818 233.058837 
L 414.654545 227.639731 
L 419.727273 222.404039 
L 424.8 217.345789 
L 429.872727 212.459166 
L 434.945455 207.738512 
L 440.018182 203.178332 
L 445.090909 198.773288 
L 450.163636 194.518204 
L 455.236364 190.408061 
L 460.309091 186.437995 
L 465.381818 182.603295 
L 470.454545 178.899398 
L 475.527273 175.321891 
L 480.6 171.866499 
L 485.672727 168.52909 
L 490.745455 165.305664 
L 495.818182 162.192356 
L 500.890909 159.185426 
L 505.963636 156.28126 
L 511.036364 153.476363 
L 516.109091 150.767357 
L 521.181818 148.150977 
L 526.254545 145.624069 
L 531.327273 143.183583 
L 536.4 140.826573 
L 541.472727 138.550191 
L 546.545455 136.351688 
L 551.618182 134.228404 
L 556.690909 132.177773 
L 561.763636 130.197314 
L 566.836364 128.28463 
L 571.909091 126.437405 
L 576.981818 124.653403 
L 582.054545 122.930464 
L 587.127273 121.266501 
L 592.2 119.659497 
L 597.272727 118.107505 
L 602.345455 116.608644 
L 607.418182 115.161098 
L 612.490909 113.763111 
L 617.563636 112.412987 
L 622.636364 111.109091 
" style="fill:none;stroke:#e377c2;stroke-linecap:square;stroke-width:1.5;"/>
   </g>
   <g id="line2d_30">
    <path clip-path="url(#pd489a18e08)" d="M 115.363636 605.290909 
L 120.436364 605.199273 
L 125.509091 604.933451 
L 130.581818 604.499889 
L 135.654545 603.897595 
L 140.727273 603.120088 
L 145.8 602.156702 
L 150.872727 600.993489 
L 155.945455 599.613854 
L 161.018182 597.999033 
L 166.090909 596.128478 
L 171.163636 593.980211 
L 176.236364 591.53118 
L 181.309091 588.757648 
L 186.381818 585.635629 
L 191.454545 582.141397 
L 196.527273 578.252063 
L 201.6 573.946221 
L 206.672727 569.204661 
L 211.745455 564.011117 
L 216.818182 558.353037 
L 221.890909 552.222334 
L 226.963636 545.616066 
L 232.036364 538.537021 
L 237.109091 530.994139 
L 242.181818 523.002741 
L 247.254545 514.584535 
L 252.327273 505.767373 
L 257.4 496.584769 
L 262.472727 487.07519 
L 267.545455 477.281151 
L 272.618182 467.248189 
L 277.690909 457.023735 
L 282.763636 446.655996 
L 287.836364 436.192863 
L 292.909091 425.680923 
L 297.981818 415.164614 
L 303.054545 404.685529 
L 308.127273 394.2819 
L 313.2 383.988259 
L 318.272727 373.83524 
L 323.345455 363.849538 
L 328.418182 354.053976 
L 333.490909 344.46766 
L 338.563636 335.106206 
L 343.636364 325.982011 
L 348.709091 317.104544 
L 353.781818 308.480655 
L 358.854545 300.114874 
L 363.927273 292.009703 
L 369 284.165896 
L 374.072727 276.582705 
L 379.145455 269.258116 
L 384.218182 262.189055 
L 389.290909 255.371573 
L 394.363636 248.801008 
L 399.436364 242.472123 
L 404.509091 236.379237 
L 409.581818 230.516322 
L 414.654545 224.8771 
L 419.727273 219.455116 
L 424.8 214.243806 
L 429.872727 209.236552 
L 434.945455 204.426723 
L 440.018182 199.80772 
L 445.090909 195.373004 
L 450.163636 191.116123 
L 455.236364 187.03073 
L 460.309091 183.110603 
L 465.381818 179.34966 
L 470.454545 175.741962 
L 475.527273 172.281727 
L 480.6 168.963334 
L 485.672727 165.781325 
L 490.745455 162.730408 
L 495.818182 159.805461 
L 500.890909 157.001524 
L 505.963636 154.313807 
L 511.036364 151.737683 
L 516.109091 149.268685 
L 521.181818 146.902508 
L 526.254545 144.635001 
L 531.327273 142.462165 
L 536.4 140.380149 
L 541.472727 138.385249 
L 546.545455 136.4739 
L 551.618182 134.642673 
L 556.690909 132.888271 
L 561.763636 131.207528 
L 566.836364 129.5974 
L 571.909091 128.054962 
L 576.981818 126.577406 
L 582.054545 125.162037 
L 587.127273 123.806265 
L 592.2 122.507607 
L 597.272727 121.263679 
L 602.345455 120.072192 
L 607.418182 118.930952 
L 612.490909 117.837855 
L 617.563636 116.79088 
L 622.636364 115.788091 
" style="fill:none;stroke:#7f7f7f;stroke-linecap:square;stroke-width:1.5;"/>
   </g>
   <g id="line2d_31">
    <path clip-path="url(#pd489a18e08)" d="M 115.363636 605.290909 
L 120.436364 605.191376 
L 125.509091 604.90104 
L 130.581818 604.426672 
L 135.654545 603.768888 
L 140.727273 602.92344 
L 145.8 601.882169 
L 150.872727 600.633718 
L 155.945455 599.164085 
L 161.018182 597.457068 
L 166.090909 595.494647 
L 171.163636 593.257348 
L 176.236364 590.724588 
L 181.309091 587.875063 
L 186.381818 584.687154 
L 191.454545 581.13939 
L 196.527273 577.210965 
L 201.6 572.882309 
L 206.672727 568.135704 
L 211.745455 562.955946 
L 216.818182 557.331012 
L 221.890909 551.252732 
L 226.963636 544.717412 
L 232.036364 537.726383 
L 237.109091 530.286437 
L 242.181818 522.410115 
L 247.254545 514.115813 
L 252.327273 505.427687 
L 257.4 496.375345 
L 262.472727 486.993341 
L 267.545455 477.320472 
L 272.618182 467.398931 
L 277.690909 457.273344 
L 282.763636 446.989755 
L 287.836364 436.594606 
L 292.909091 426.133759 
L 297.981818 415.651615 
L 303.054545 405.19035 
L 308.127273 394.7893 
L 313.2 384.484496 
L 318.272727 374.308361 
L 323.345455 364.289541 
L 328.418182 354.45287 
L 333.490909 344.819441 
L 338.563636 335.406761 
L 343.636364 326.228967 
L 348.709091 317.29709 
L 353.781818 308.619337 
L 358.854545 300.201394 
L 363.927273 292.046712 
L 369 284.156803 
L 374.072727 276.5315 
L 379.145455 269.169211 
L 384.218182 262.067146 
L 389.290909 255.221517 
L 394.363636 248.627724 
L 399.436364 242.280511 
L 404.509091 236.174104 
L 409.581818 230.302336 
L 414.654545 224.658743 
L 419.727273 219.236658 
L 424.8 214.02928 
L 429.872727 209.029741 
L 434.945455 204.231154 
L 440.018182 199.626661 
L 445.090909 195.209462 
L 450.163636 190.972851 
L 455.236364 186.910235 
L 460.309091 183.015154 
L 465.381818 179.281295 
L 470.454545 175.702502 
L 475.527273 172.272787 
L 480.6 168.986333 
L 485.672727 165.837501 
L 490.745455 162.820828 
L 495.818182 159.931031 
L 500.890909 157.163003 
L 505.963636 154.511816 
L 511.036364 151.972715 
L 516.109091 149.541118 
L 521.181818 147.212611 
L 526.254545 144.982944 
L 531.327273 142.848029 
L 536.4 140.803931 
L 541.472727 138.846872 
L 546.545455 136.973219 
L 551.618182 135.17948 
L 556.690909 133.462306 
L 561.763636 131.818478 
L 566.836364 130.244908 
L 571.909091 128.738632 
L 576.981818 127.296808 
L 582.054545 125.916708 
L 587.127273 124.595716 
L 592.2 123.331326 
L 597.272727 122.121132 
L 602.345455 120.962829 
L 607.418182 119.85421 
L 612.490909 118.793156 
L 617.563636 117.777638 
L 622.636364 116.805714 
" style="fill:none;stroke:#bcbd22;stroke-linecap:square;stroke-width:1.5;"/>
   </g>
   <g id="line2d_32">
    <path clip-path="url(#pd489a18e08)" d="M 115.363636 605.290909 
L 120.436364 604.812381 
L 125.509091 604.812381 
L 130.581818 604.094589 
L 135.654545 602.778637 
L 140.727273 602.539372 
L 145.8 601.701948 
L 150.872727 600.385996 
L 155.945455 599.42894 
L 161.018182 597.634459 
L 166.090909 596.198875 
L 171.163636 594.045498 
L 176.236364 590.695802 
L 181.309091 586.389049 
L 186.381818 583.996408 
L 191.454545 579.330759 
L 196.527273 575.143638 
L 201.6 570.477989 
L 206.672727 565.333812 
L 211.745455 557.55773 
L 216.818182 552.892081 
L 221.890909 547.50864 
L 226.963636 543.560783 
L 232.036364 536.382861 
L 237.109091 531.836844 
L 242.181818 525.257083 
L 247.254545 518.677321 
L 252.327273 517.361369 
L 257.4 508.628231 
L 262.472727 499.296933 
L 267.545455 489.12821 
L 272.618182 464.005484 
L 277.690909 449.649641 
L 282.763636 437.686438 
L 287.836364 431.944101 
L 292.909091 425.483972 
L 297.981818 417.468626 
L 303.054545 408.735488 
L 308.127273 395.456333 
L 313.2 386.962459 
L 318.272727 377.152632 
L 323.345455 369.017654 
L 328.418182 355.379603 
L 333.490909 347.005361 
L 338.563636 333.128046 
L 343.636364 314.106554 
L 348.709091 314.106554 
L 353.781818 307.287528 
L 358.854545 297.35807 
L 363.927273 289.462356 
L 369 280.131058 
L 374.072727 274.388721 
L 379.145455 263.861102 
L 384.218182 254.410172 
L 389.290909 247.710778 
L 394.363636 243.284393 
L 399.436364 239.695433 
L 404.509091 234.192359 
L 409.581818 229.52671 
L 414.654545 226.177013 
L 419.727273 221.989892 
L 424.8 216.008291 
L 429.872727 213.496019 
L 434.945455 210.02669 
L 440.018182 206.676993 
L 445.090909 202.011344 
L 450.163636 197.584959 
L 455.236364 190.885565 
L 460.309091 186.578812 
L 465.381818 183.46838 
L 470.454545 180.956107 
L 475.527273 175.931562 
L 480.6 170.787385 
L 485.672727 166.361 
L 490.745455 162.173879 
L 495.818182 158.824182 
L 500.890909 157.029701 
L 505.963636 155.235221 
L 511.036364 152.603316 
L 516.109091 149.85178 
L 521.181818 146.860979 
L 526.254545 143.750546 
L 531.327273 142.673858 
L 536.4 140.759746 
L 541.472727 137.290417 
L 546.545455 136.094097 
L 551.618182 133.34256 
L 556.690909 131.428448 
L 561.763636 129.035807 
L 566.836364 126.88243 
L 571.909091 126.164638 
L 576.981818 125.805742 
L 582.054545 124.609422 
L 587.127273 123.173838 
L 592.2 121.498989 
L 597.272727 120.183037 
L 602.345455 119.584877 
L 607.418182 118.747453 
L 612.490909 118.627821 
L 617.563636 118.508189 
L 622.636364 118.388557 
" style="fill:none;stroke:#17becf;stroke-dasharray:14.8,6.4;stroke-dashoffset:0;stroke-width:4;"/>
   </g>
   <g id="patch_3">
    <path d="M 90 630 
L 90 86.4 
" style="fill:none;stroke:#000000;stroke-linecap:square;stroke-linejoin:miter;stroke-width:0.8;"/>
   </g>
   <g id="patch_4">
    <path d="M 648 630 
L 648 86.4 
" style="fill:none;stroke:#000000;stroke-linecap:square;stroke-linejoin:miter;stroke-width:0.8;"/>
   </g>
   <g id="patch_5">
    <path d="M 90 630 
L 648 630 
" style="fill:none;stroke:#000000;stroke-linecap:square;stroke-linejoin:miter;stroke-width:0.8;"/>
   </g>
   <g id="patch_6">
    <path d="M 90 86.4 
L 648 86.4 
" style="fill:none;stroke:#000000;stroke-linecap:square;stroke-linejoin:miter;stroke-width:0.8;"/>
   </g>
   <g id="text_14">
    <!-- Hungary relative err =  -->
    <g transform="translate(299.574375 80.4)scale(0.12 -0.12)">
     <defs>
      <path d="M 9.8125 72.90625 
L 19.671875 72.90625 
L 19.671875 43.015625 
L 55.515625 43.015625 
L 55.515625 72.90625 
L 65.375 72.90625 
L 65.375 0 
L 55.515625 0 
L 55.515625 34.71875 
L 19.671875 34.71875 
L 19.671875 0 
L 9.8125 0 
z
" id="DejaVuSans-72"/>
      <path d="M 54.890625 33.015625 
L 54.890625 0 
L 45.90625 0 
L 45.90625 32.71875 
Q 45.90625 40.484375 42.875 44.328125 
Q 39.84375 48.1875 33.796875 48.1875 
Q 26.515625 48.1875 22.3125 43.546875 
Q 18.109375 38.921875 18.109375 30.90625 
L 18.109375 0 
L 9.078125 0 
L 9.078125 54.6875 
L 18.109375 54.6875 
L 18.109375 46.1875 
Q 21.34375 51.125 25.703125 53.5625 
Q 30.078125 56 35.796875 56 
Q 45.21875 56 50.046875 50.171875 
Q 54.890625 44.34375 54.890625 33.015625 
z
" id="DejaVuSans-110"/>
      <path d="M 45.40625 27.984375 
Q 45.40625 37.75 41.375 43.109375 
Q 37.359375 48.484375 30.078125 48.484375 
Q 22.859375 48.484375 18.828125 43.109375 
Q 14.796875 37.75 14.796875 27.984375 
Q 14.796875 18.265625 18.828125 12.890625 
Q 22.859375 7.515625 30.078125 7.515625 
Q 37.359375 7.515625 41.375 12.890625 
Q 45.40625 18.265625 45.40625 27.984375 
z
M 54.390625 6.78125 
Q 54.390625 -7.171875 48.1875 -13.984375 
Q 42 -20.796875 29.203125 -20.796875 
Q 24.46875 -20.796875 20.265625 -20.09375 
Q 16.0625 -19.390625 12.109375 -17.921875 
L 12.109375 -9.1875 
Q 16.0625 -11.328125 19.921875 -12.34375 
Q 23.78125 -13.375 27.78125 -13.375 
Q 36.625 -13.375 41.015625 -8.765625 
Q 45.40625 -4.15625 45.40625 5.171875 
L 45.40625 9.625 
Q 42.625 4.78125 38.28125 2.390625 
Q 33.9375 0 27.875 0 
Q 17.828125 0 11.671875 7.65625 
Q 5.515625 15.328125 5.515625 27.984375 
Q 5.515625 40.671875 11.671875 48.328125 
Q 17.828125 56 27.875 56 
Q 33.9375 56 38.28125 53.609375 
Q 42.625 51.21875 45.40625 46.390625 
L 45.40625 54.6875 
L 54.390625 54.6875 
z
" id="DejaVuSans-103"/>
      <path d="M 41.109375 46.296875 
Q 39.59375 47.171875 37.8125 47.578125 
Q 36.03125 48 33.890625 48 
Q 26.265625 48 22.1875 43.046875 
Q 18.109375 38.09375 18.109375 28.8125 
L 18.109375 0 
L 9.078125 0 
L 9.078125 54.6875 
L 18.109375 54.6875 
L 18.109375 46.1875 
Q 20.953125 51.171875 25.484375 53.578125 
Q 30.03125 56 36.53125 56 
Q 37.453125 56 38.578125 55.875 
Q 39.703125 55.765625 41.0625 55.515625 
z
" id="DejaVuSans-114"/>
      <path d="M 10.59375 45.40625 
L 73.1875 45.40625 
L 73.1875 37.203125 
L 10.59375 37.203125 
z
M 10.59375 25.484375 
L 73.1875 25.484375 
L 73.1875 17.1875 
L 10.59375 17.1875 
z
" id="DejaVuSans-61"/>
     </defs>
     <use xlink:href="#DejaVuSans-72"/>
     <use x="75.195312" xlink:href="#DejaVuSans-117"/>
     <use x="138.574219" xlink:href="#DejaVuSans-110"/>
     <use x="201.953125" xlink:href="#DejaVuSans-103"/>
     <use x="265.429688" xlink:href="#DejaVuSans-97"/>
     <use x="326.708984" xlink:href="#DejaVuSans-114"/>
     <use x="367.822266" xlink:href="#DejaVuSans-121"/>
     <use x="427.001953" xlink:href="#DejaVuSans-32"/>
     <use x="458.789062" xlink:href="#DejaVuSans-114"/>
     <use x="497.652344" xlink:href="#DejaVuSans-101"/>
     <use x="559.175781" xlink:href="#DejaVuSans-108"/>
     <use x="586.958984" xlink:href="#DejaVuSans-97"/>
     <use x="648.238281" xlink:href="#DejaVuSans-116"/>
     <use x="687.447266" xlink:href="#DejaVuSans-105"/>
     <use x="715.230469" xlink:href="#DejaVuSans-118"/>
     <use x="774.410156" xlink:href="#DejaVuSans-101"/>
     <use x="835.933594" xlink:href="#DejaVuSans-32"/>
     <use x="867.720703" xlink:href="#DejaVuSans-101"/>
     <use x="929.244141" xlink:href="#DejaVuSans-114"/>
     <use x="968.607422" xlink:href="#DejaVuSans-114"/>
     <use x="1009.720703" xlink:href="#DejaVuSans-32"/>
     <use x="1041.507812" xlink:href="#DejaVuSans-61"/>
     <use x="1125.296875" xlink:href="#DejaVuSans-32"/>
    </g>
   </g>
   <g id="legend_1">
    <g id="patch_7">
     <path d="M 97 226.503125 
L 185.6 226.503125 
Q 187.6 226.503125 187.6 224.503125 
L 187.6 93.4 
Q 187.6 91.4 185.6 91.4 
L 97 91.4 
Q 95 91.4 95 93.4 
L 95 224.503125 
Q 95 226.503125 97 226.503125 
z
" style="fill:#ffffff;opacity:0.8;stroke:#cccccc;stroke-linejoin:miter;"/>
    </g>
    <g id="line2d_33">
     <path d="M 99 99.498438 
L 119 99.498438 
" style="fill:none;stroke:#1f77b4;stroke-linecap:square;stroke-width:1.5;"/>
    </g>
    <g id="line2d_34"/>
    <g id="text_15">
     <!-- SI -->
     <g transform="translate(127 102.998438)scale(0.1 -0.1)">
      <defs>
       <path d="M 53.515625 70.515625 
L 53.515625 60.890625 
Q 47.90625 63.578125 42.921875 64.890625 
Q 37.9375 66.21875 33.296875 66.21875 
Q 25.25 66.21875 20.875 63.09375 
Q 16.5 59.96875 16.5 54.203125 
Q 16.5 49.359375 19.40625 46.890625 
Q 22.3125 44.4375 30.421875 42.921875 
L 36.375 41.703125 
Q 47.40625 39.59375 52.65625 34.296875 
Q 57.90625 29 57.90625 20.125 
Q 57.90625 9.515625 50.796875 4.046875 
Q 43.703125 -1.421875 29.984375 -1.421875 
Q 24.8125 -1.421875 18.96875 -0.25 
Q 13.140625 0.921875 6.890625 3.21875 
L 6.890625 13.375 
Q 12.890625 10.015625 18.65625 8.296875 
Q 24.421875 6.59375 29.984375 6.59375 
Q 38.421875 6.59375 43.015625 9.90625 
Q 47.609375 13.234375 47.609375 19.390625 
Q 47.609375 24.75 44.3125 27.78125 
Q 41.015625 30.8125 33.5 32.328125 
L 27.484375 33.5 
Q 16.453125 35.6875 11.515625 40.375 
Q 6.59375 45.0625 6.59375 53.421875 
Q 6.59375 63.09375 13.40625 68.65625 
Q 20.21875 74.21875 32.171875 74.21875 
Q 37.3125 74.21875 42.625 73.28125 
Q 47.953125 72.359375 53.515625 70.515625 
z
" id="DejaVuSans-83"/>
       <path d="M 9.8125 72.90625 
L 19.671875 72.90625 
L 19.671875 0 
L 9.8125 0 
z
" id="DejaVuSans-73"/>
      </defs>
      <use xlink:href="#DejaVuSans-83"/>
      <use x="63.476562" xlink:href="#DejaVuSans-73"/>
     </g>
    </g>
    <g id="line2d_35">
     <path d="M 99 114.176563 
L 119 114.176563 
" style="fill:none;stroke:#ff7f0e;stroke-linecap:square;stroke-width:1.5;"/>
    </g>
    <g id="line2d_36"/>
    <g id="text_16">
     <!-- BD -->
     <g transform="translate(127 117.676563)scale(0.1 -0.1)">
      <defs>
       <path d="M 19.671875 34.8125 
L 19.671875 8.109375 
L 35.5 8.109375 
Q 43.453125 8.109375 47.28125 11.40625 
Q 51.125 14.703125 51.125 21.484375 
Q 51.125 28.328125 47.28125 31.5625 
Q 43.453125 34.8125 35.5 34.8125 
z
M 19.671875 64.796875 
L 19.671875 42.828125 
L 34.28125 42.828125 
Q 41.5 42.828125 45.03125 45.53125 
Q 48.578125 48.25 48.578125 53.8125 
Q 48.578125 59.328125 45.03125 62.0625 
Q 41.5 64.796875 34.28125 64.796875 
z
M 9.8125 72.90625 
L 35.015625 72.90625 
Q 46.296875 72.90625 52.390625 68.21875 
Q 58.5 63.53125 58.5 54.890625 
Q 58.5 48.1875 55.375 44.234375 
Q 52.25 40.28125 46.1875 39.3125 
Q 53.46875 37.75 57.5 32.78125 
Q 61.53125 27.828125 61.53125 20.40625 
Q 61.53125 10.640625 54.890625 5.3125 
Q 48.25 0 35.984375 0 
L 9.8125 0 
z
" id="DejaVuSans-66"/>
      </defs>
      <use xlink:href="#DejaVuSans-66"/>
      <use x="68.603516" xlink:href="#DejaVuSans-68"/>
     </g>
    </g>
    <g id="line2d_37">
     <path d="M 99 128.854688 
L 119 128.854688 
" style="fill:none;stroke:#2ca02c;stroke-linecap:square;stroke-width:1.5;"/>
    </g>
    <g id="line2d_38"/>
    <g id="text_17">
     <!-- SIR -->
     <g transform="translate(127 132.354688)scale(0.1 -0.1)">
      <defs>
       <path d="M 44.390625 34.1875 
Q 47.5625 33.109375 50.5625 29.59375 
Q 53.5625 26.078125 56.59375 19.921875 
L 66.609375 0 
L 56 0 
L 46.6875 18.703125 
Q 43.0625 26.03125 39.671875 28.421875 
Q 36.28125 30.8125 30.421875 30.8125 
L 19.671875 30.8125 
L 19.671875 0 
L 9.8125 0 
L 9.8125 72.90625 
L 32.078125 72.90625 
Q 44.578125 72.90625 50.734375 67.671875 
Q 56.890625 62.453125 56.890625 51.90625 
Q 56.890625 45.015625 53.6875 40.46875 
Q 50.484375 35.9375 44.390625 34.1875 
z
M 19.671875 64.796875 
L 19.671875 38.921875 
L 32.078125 38.921875 
Q 39.203125 38.921875 42.84375 42.21875 
Q 46.484375 45.515625 46.484375 51.90625 
Q 46.484375 58.296875 42.84375 61.546875 
Q 39.203125 64.796875 32.078125 64.796875 
z
" id="DejaVuSans-82"/>
      </defs>
      <use xlink:href="#DejaVuSans-83"/>
      <use x="63.476562" xlink:href="#DejaVuSans-73"/>
      <use x="92.96875" xlink:href="#DejaVuSans-82"/>
     </g>
    </g>
    <g id="line2d_39">
     <path d="M 99 143.532812 
L 119 143.532812 
" style="fill:none;stroke:#d62728;stroke-linecap:square;stroke-width:1.5;"/>
    </g>
    <g id="line2d_40"/>
    <g id="text_18">
     <!-- eSIR -->
     <g transform="translate(127 147.032812)scale(0.1 -0.1)">
      <use xlink:href="#DejaVuSans-101"/>
      <use x="61.523438" xlink:href="#DejaVuSans-83"/>
      <use x="125" xlink:href="#DejaVuSans-73"/>
      <use x="154.492188" xlink:href="#DejaVuSans-82"/>
     </g>
    </g>
    <g id="line2d_41">
     <path d="M 99 158.210938 
L 119 158.210938 
" style="fill:none;stroke:#9467bd;stroke-linecap:square;stroke-width:1.5;"/>
    </g>
    <g id="line2d_42"/>
    <g id="text_19">
     <!-- SEIR -->
     <g transform="translate(127 161.710938)scale(0.1 -0.1)">
      <defs>
       <path d="M 9.8125 72.90625 
L 55.90625 72.90625 
L 55.90625 64.59375 
L 19.671875 64.59375 
L 19.671875 43.015625 
L 54.390625 43.015625 
L 54.390625 34.71875 
L 19.671875 34.71875 
L 19.671875 8.296875 
L 56.78125 8.296875 
L 56.78125 0 
L 9.8125 0 
z
" id="DejaVuSans-69"/>
      </defs>
      <use xlink:href="#DejaVuSans-83"/>
      <use x="63.476562" xlink:href="#DejaVuSans-69"/>
      <use x="126.660156" xlink:href="#DejaVuSans-73"/>
      <use x="156.152344" xlink:href="#DejaVuSans-82"/>
     </g>
    </g>
    <g id="line2d_43">
     <path d="M 99 172.889063 
L 119 172.889063 
" style="fill:none;stroke:#8c564b;stroke-linecap:square;stroke-width:1.5;"/>
    </g>
    <g id="line2d_44"/>
    <g id="text_20">
     <!-- eSEIR -->
     <g transform="translate(127 176.389063)scale(0.1 -0.1)">
      <use xlink:href="#DejaVuSans-101"/>
      <use x="61.523438" xlink:href="#DejaVuSans-83"/>
      <use x="125" xlink:href="#DejaVuSans-69"/>
      <use x="188.183594" xlink:href="#DejaVuSans-73"/>
      <use x="217.675781" xlink:href="#DejaVuSans-82"/>
     </g>
    </g>
    <g id="line2d_45">
     <path d="M 99 187.567188 
L 119 187.567188 
" style="fill:none;stroke:#e377c2;stroke-linecap:square;stroke-width:1.5;"/>
    </g>
    <g id="line2d_46"/>
    <g id="text_21">
     <!-- SEIUR -->
     <g transform="translate(127 191.067188)scale(0.1 -0.1)">
      <defs>
       <path d="M 8.6875 72.90625 
L 18.609375 72.90625 
L 18.609375 28.609375 
Q 18.609375 16.890625 22.84375 11.734375 
Q 27.09375 6.59375 36.625 6.59375 
Q 46.09375 6.59375 50.34375 11.734375 
Q 54.59375 16.890625 54.59375 28.609375 
L 54.59375 72.90625 
L 64.5 72.90625 
L 64.5 27.390625 
Q 64.5 13.140625 57.4375 5.859375 
Q 50.390625 -1.421875 36.625 -1.421875 
Q 22.796875 -1.421875 15.734375 5.859375 
Q 8.6875 13.140625 8.6875 27.390625 
z
" id="DejaVuSans-85"/>
      </defs>
      <use xlink:href="#DejaVuSans-83"/>
      <use x="63.476562" xlink:href="#DejaVuSans-69"/>
      <use x="126.660156" xlink:href="#DejaVuSans-73"/>
      <use x="156.152344" xlink:href="#DejaVuSans-85"/>
      <use x="229.345703" xlink:href="#DejaVuSans-82"/>
     </g>
    </g>
    <g id="line2d_47">
     <path d="M 99 202.245312 
L 119 202.245312 
" style="fill:none;stroke:#7f7f7f;stroke-linecap:square;stroke-width:1.5;"/>
    </g>
    <g id="line2d_48"/>
    <g id="text_22">
     <!-- eSEIUR -->
     <g transform="translate(127 205.745312)scale(0.1 -0.1)">
      <use xlink:href="#DejaVuSans-101"/>
      <use x="61.523438" xlink:href="#DejaVuSans-83"/>
      <use x="125" xlink:href="#DejaVuSans-69"/>
      <use x="188.183594" xlink:href="#DejaVuSans-73"/>
      <use x="217.675781" xlink:href="#DejaVuSans-85"/>
      <use x="290.869141" xlink:href="#DejaVuSans-82"/>
     </g>
    </g>
    <g id="line2d_49">
     <path d="M 99 216.923437 
L 119 216.923437 
" style="fill:none;stroke:#bcbd22;stroke-linecap:square;stroke-width:1.5;"/>
    </g>
    <g id="line2d_50"/>
    <g id="text_23">
     <!-- eSEIUR$^{range}$ -->
     <g transform="translate(127 220.423437)scale(0.1 -0.1)">
      <defs>
       <path d="M 44.578125 46.390625 
Q 43.21875 47.125 41.453125 47.515625 
Q 39.703125 47.90625 37.703125 47.90625 
Q 30.515625 47.90625 25.140625 42.453125 
Q 19.78125 37.015625 18.015625 27.875 
L 12.5 0 
L 3.515625 0 
L 14.203125 54.6875 
L 23.1875 54.6875 
L 21.484375 46.1875 
Q 25.046875 50.921875 30 53.453125 
Q 34.96875 56 40.578125 56 
Q 42.046875 56 43.453125 55.828125 
Q 44.875 55.671875 46.296875 55.28125 
z
" id="DejaVuSans-Oblique-114"/>
       <path d="M 53.71875 31.203125 
L 47.609375 0 
L 38.625 0 
L 40.28125 8.296875 
Q 36.328125 3.421875 31.265625 1 
Q 26.21875 -1.421875 20.015625 -1.421875 
Q 13.03125 -1.421875 8.5625 2.84375 
Q 4.109375 7.125 4.109375 13.8125 
Q 4.109375 23.390625 11.75 28.953125 
Q 19.390625 34.515625 32.8125 34.515625 
L 45.3125 34.515625 
L 45.796875 36.921875 
Q 45.90625 37.3125 45.953125 37.765625 
Q 46 38.234375 46 39.203125 
Q 46 43.5625 42.453125 45.96875 
Q 38.921875 48.390625 32.515625 48.390625 
Q 28.125 48.390625 23.5 47.265625 
Q 18.890625 46.140625 14.015625 43.890625 
L 15.578125 52.203125 
Q 20.65625 54.109375 25.515625 55.046875 
Q 30.375 56 34.90625 56 
Q 44.578125 56 49.625 51.796875 
Q 54.6875 47.609375 54.6875 39.59375 
Q 54.6875 37.984375 54.4375 35.8125 
Q 54.203125 33.640625 53.71875 31.203125 
z
M 44 27.484375 
L 35.015625 27.484375 
Q 23.96875 27.484375 18.671875 24.53125 
Q 13.375 21.578125 13.375 15.375 
Q 13.375 11.078125 16.078125 8.640625 
Q 18.796875 6.203125 23.578125 6.203125 
Q 30.90625 6.203125 36.375 11.453125 
Q 41.84375 16.703125 43.609375 25.484375 
z
" id="DejaVuSans-Oblique-97"/>
       <path d="M 55.71875 33.015625 
L 49.3125 0 
L 40.28125 0 
L 46.6875 32.671875 
Q 47.125 34.96875 47.359375 36.71875 
Q 47.609375 38.484375 47.609375 39.5 
Q 47.609375 43.609375 45.015625 45.890625 
Q 42.4375 48.1875 37.796875 48.1875 
Q 30.5625 48.1875 25.34375 43.375 
Q 20.125 38.578125 18.5 30.328125 
L 12.5 0 
L 3.515625 0 
L 14.109375 54.6875 
L 23.09375 54.6875 
L 21.296875 46.09375 
Q 25.046875 50.828125 30.3125 53.40625 
Q 35.59375 56 41.40625 56 
Q 48.640625 56 52.609375 52.09375 
Q 56.59375 48.1875 56.59375 41.109375 
Q 56.59375 39.359375 56.375 37.359375 
Q 56.15625 35.359375 55.71875 33.015625 
z
" id="DejaVuSans-Oblique-110"/>
       <path d="M 59.625 54.6875 
L 50.296875 6.78125 
Q 47.609375 -7.125 40.015625 -13.953125 
Q 32.421875 -20.796875 19.578125 -20.796875 
Q 14.84375 -20.796875 10.78125 -20.09375 
Q 6.734375 -19.390625 3.21875 -17.921875 
L 4.890625 -9.1875 
Q 8.203125 -11.328125 11.90625 -12.34375 
Q 15.625 -13.375 19.828125 -13.375 
Q 28.375 -13.375 33.859375 -8.703125 
Q 39.359375 -4.046875 41.109375 4.6875 
L 41.890625 8.796875 
Q 38.140625 4.5 33.15625 2.25 
Q 28.171875 0 22.40625 0 
Q 14.109375 0 9.34375 5.484375 
Q 4.59375 10.984375 4.59375 20.609375 
Q 4.59375 28.171875 7.46875 35.421875 
Q 10.359375 42.671875 15.578125 48.296875 
Q 19.046875 52 23.65625 54 
Q 28.265625 56 33.296875 56 
Q 38.8125 56 42.90625 53.4375 
Q 47.015625 50.875 49.03125 46.1875 
L 50.59375 54.6875 
z
M 46.09375 34.625 
Q 46.09375 41.265625 42.96875 44.875 
Q 39.84375 48.484375 34.078125 48.484375 
Q 30.515625 48.484375 27.296875 47.0625 
Q 24.078125 45.65625 21.78125 43.109375 
Q 18.0625 38.921875 15.984375 33.234375 
Q 13.921875 27.546875 13.921875 21.484375 
Q 13.921875 14.75 17.0625 11.125 
Q 20.21875 7.515625 26.125 7.515625 
Q 34.671875 7.515625 40.375 15.25 
Q 46.09375 23 46.09375 34.625 
z
" id="DejaVuSans-Oblique-103"/>
       <path d="M 48.09375 32.234375 
Q 48.25 33.015625 48.3125 33.84375 
Q 48.390625 34.671875 48.390625 35.5 
Q 48.390625 41.453125 44.890625 44.921875 
Q 41.40625 48.390625 35.40625 48.390625 
Q 28.71875 48.390625 23.578125 44.15625 
Q 18.453125 39.9375 15.828125 32.171875 
z
M 55.90625 25.203125 
L 14.109375 25.203125 
Q 13.8125 23.34375 13.71875 22.265625 
Q 13.625 21.1875 13.625 20.40625 
Q 13.625 13.625 17.796875 9.90625 
Q 21.96875 6.203125 29.59375 6.203125 
Q 35.453125 6.203125 40.671875 7.515625 
Q 45.90625 8.84375 50.390625 11.375 
L 48.6875 2.484375 
Q 43.84375 0.53125 38.6875 -0.4375 
Q 33.546875 -1.421875 28.21875 -1.421875 
Q 16.84375 -1.421875 10.71875 4.015625 
Q 4.59375 9.46875 4.59375 19.484375 
Q 4.59375 28.03125 7.640625 35.375 
Q 10.6875 42.71875 16.609375 48.484375 
Q 20.40625 52.09375 25.65625 54.046875 
Q 30.90625 56 36.8125 56 
Q 46.09375 56 51.578125 50.4375 
Q 57.078125 44.875 57.078125 35.5 
Q 57.078125 33.25 56.78125 30.6875 
Q 56.5 28.125 55.90625 25.203125 
z
" id="DejaVuSans-Oblique-101"/>
      </defs>
      <use transform="translate(0 0.51875)" xlink:href="#DejaVuSans-101"/>
      <use transform="translate(61.523438 0.51875)" xlink:href="#DejaVuSans-83"/>
      <use transform="translate(125 0.51875)" xlink:href="#DejaVuSans-69"/>
      <use transform="translate(188.183594 0.51875)" xlink:href="#DejaVuSans-73"/>
      <use transform="translate(217.675781 0.51875)" xlink:href="#DejaVuSans-85"/>
      <use transform="translate(288.619141 0.51875)" xlink:href="#DejaVuSans-82"/>
      <use transform="translate(359.058594 38.8)scale(0.7)" xlink:href="#DejaVuSans-Oblique-114"/>
      <use transform="translate(387.837891 38.8)scale(0.7)" xlink:href="#DejaVuSans-Oblique-97"/>
      <use transform="translate(430.733398 38.8)scale(0.7)" xlink:href="#DejaVuSans-Oblique-110"/>
      <use transform="translate(475.098633 38.8)scale(0.7)" xlink:href="#DejaVuSans-Oblique-103"/>
      <use transform="translate(519.532227 38.8)scale(0.7)" xlink:href="#DejaVuSans-Oblique-101"/>
     </g>
    </g>
   </g>
  </g>
 </g>
 <defs>
  <clipPath id="pd489a18e08">
   <rect height="543.6" width="558" x="90" y="86.4"/>
  </clipPath>
 </defs>
</svg>
