<?xml version="1.0" encoding="utf-8" standalone="no"?>
<!DOCTYPE svg PUBLIC "-//W3C//DTD SVG 1.1//EN"
  "http://www.w3.org/Graphics/SVG/1.1/DTD/svg11.dtd">
<!-- Created with matplotlib (https://matplotlib.org/) -->
<svg height="720pt" version="1.1" viewBox="0 0 720 720" width="720pt" xmlns="http://www.w3.org/2000/svg" xmlns:xlink="http://www.w3.org/1999/xlink">
 <metadata>
  <rdf:RDF xmlns:cc="http://creativecommons.org/ns#" xmlns:dc="http://purl.org/dc/elements/1.1/" xmlns:rdf="http://www.w3.org/1999/02/22-rdf-syntax-ns#">
   <cc:Work>
    <dc:type rdf:resource="http://purl.org/dc/dcmitype/StillImage"/>
    <dc:date>2022-10-11T20:58:44.816384</dc:date>
    <dc:format>image/svg+xml</dc:format>
    <dc:creator>
     <cc:Agent>
      <dc:title>Matplotlib v3.3.2, https://matplotlib.org/</dc:title>
     </cc:Agent>
    </dc:creator>
   </cc:Work>
  </rdf:RDF>
 </metadata>
 <defs>
  <style type="text/css">*{stroke-linecap:butt;stroke-linejoin:round;}</style>
 </defs>
 <g id="figure_1">
  <g id="patch_1">
   <path d="M 0 720 
L 720 720 
L 720 0 
L 0 0 
z
" style="fill:none;"/>
  </g>
  <g id="axes_1">
   <g id="patch_2">
    <path d="M 90 630 
L 648 630 
L 648 86.4 
L 90 86.4 
z
" style="fill:#ffffff;"/>
   </g>
   <g id="matplotlib.axis_1">
    <g id="xtick_1">
     <g id="line2d_1">
      <path clip-path="url(#p2c3a3afbd0)" d="M 115.363636 630 
L 115.363636 86.4 
" style="fill:none;stroke:#b0b0b0;stroke-linecap:square;stroke-width:0.8;"/>
     </g>
     <g id="line2d_2">
      <defs>
       <path d="M 0 0 
L 0 3.5 
" id="mad42253798" style="stroke:#000000;stroke-width:0.8;"/>
      </defs>
      <g>
       <use style="stroke:#000000;stroke-width:0.8;" x="115.363636" xlink:href="#mad42253798" y="630"/>
      </g>
     </g>
     <g id="text_1">
      <!-- 0 -->
      <g transform="translate(112.182386 644.598438)scale(0.1 -0.1)">
       <defs>
        <path d="M 31.78125 66.40625 
Q 24.171875 66.40625 20.328125 58.90625 
Q 16.5 51.421875 16.5 36.375 
Q 16.5 21.390625 20.328125 13.890625 
Q 24.171875 6.390625 31.78125 6.390625 
Q 39.453125 6.390625 43.28125 13.890625 
Q 47.125 21.390625 47.125 36.375 
Q 47.125 51.421875 43.28125 58.90625 
Q 39.453125 66.40625 31.78125 66.40625 
z
M 31.78125 74.21875 
Q 44.046875 74.21875 50.515625 64.515625 
Q 56.984375 54.828125 56.984375 36.375 
Q 56.984375 17.96875 50.515625 8.265625 
Q 44.046875 -1.421875 31.78125 -1.421875 
Q 19.53125 -1.421875 13.0625 8.265625 
Q 6.59375 17.96875 6.59375 36.375 
Q 6.59375 54.828125 13.0625 64.515625 
Q 19.53125 74.21875 31.78125 74.21875 
z
" id="DejaVuSans-48"/>
       </defs>
       <use xlink:href="#DejaVuSans-48"/>
      </g>
     </g>
    </g>
    <g id="xtick_2">
     <g id="line2d_3">
      <path clip-path="url(#p2c3a3afbd0)" d="M 233.885302 630 
L 233.885302 86.4 
" style="fill:none;stroke:#b0b0b0;stroke-linecap:square;stroke-width:0.8;"/>
     </g>
     <g id="line2d_4">
      <g>
       <use style="stroke:#000000;stroke-width:0.8;" x="233.885302" xlink:href="#mad42253798" y="630"/>
      </g>
     </g>
     <g id="text_2">
      <!-- 50 -->
      <g transform="translate(227.522802 644.598438)scale(0.1 -0.1)">
       <defs>
        <path d="M 10.796875 72.90625 
L 49.515625 72.90625 
L 49.515625 64.59375 
L 19.828125 64.59375 
L 19.828125 46.734375 
Q 21.96875 47.46875 24.109375 47.828125 
Q 26.265625 48.1875 28.421875 48.1875 
Q 40.625 48.1875 47.75 41.5 
Q 54.890625 34.8125 54.890625 23.390625 
Q 54.890625 11.625 47.5625 5.09375 
Q 40.234375 -1.421875 26.90625 -1.421875 
Q 22.3125 -1.421875 17.546875 -0.640625 
Q 12.796875 0.140625 7.71875 1.703125 
L 7.71875 11.625 
Q 12.109375 9.234375 16.796875 8.0625 
Q 21.484375 6.890625 26.703125 6.890625 
Q 35.15625 6.890625 40.078125 11.328125 
Q 45.015625 15.765625 45.015625 23.390625 
Q 45.015625 31 40.078125 35.4375 
Q 35.15625 39.890625 26.703125 39.890625 
Q 22.75 39.890625 18.8125 39.015625 
Q 14.890625 38.140625 10.796875 36.28125 
z
" id="DejaVuSans-53"/>
       </defs>
       <use xlink:href="#DejaVuSans-53"/>
       <use x="63.623047" xlink:href="#DejaVuSans-48"/>
      </g>
     </g>
    </g>
    <g id="xtick_3">
     <g id="line2d_5">
      <path clip-path="url(#p2c3a3afbd0)" d="M 352.406967 630 
L 352.406967 86.4 
" style="fill:none;stroke:#b0b0b0;stroke-linecap:square;stroke-width:0.8;"/>
     </g>
     <g id="line2d_6">
      <g>
       <use style="stroke:#000000;stroke-width:0.8;" x="352.406967" xlink:href="#mad42253798" y="630"/>
      </g>
     </g>
     <g id="text_3">
      <!-- 100 -->
      <g transform="translate(342.863217 644.598438)scale(0.1 -0.1)">
       <defs>
        <path d="M 12.40625 8.296875 
L 28.515625 8.296875 
L 28.515625 63.921875 
L 10.984375 60.40625 
L 10.984375 69.390625 
L 28.421875 72.90625 
L 38.28125 72.90625 
L 38.28125 8.296875 
L 54.390625 8.296875 
L 54.390625 0 
L 12.40625 0 
z
" id="DejaVuSans-49"/>
       </defs>
       <use xlink:href="#DejaVuSans-49"/>
       <use x="63.623047" xlink:href="#DejaVuSans-48"/>
       <use x="127.246094" xlink:href="#DejaVuSans-48"/>
      </g>
     </g>
    </g>
    <g id="xtick_4">
     <g id="line2d_7">
      <path clip-path="url(#p2c3a3afbd0)" d="M 470.928632 630 
L 470.928632 86.4 
" style="fill:none;stroke:#b0b0b0;stroke-linecap:square;stroke-width:0.8;"/>
     </g>
     <g id="line2d_8">
      <g>
       <use style="stroke:#000000;stroke-width:0.8;" x="470.928632" xlink:href="#mad42253798" y="630"/>
      </g>
     </g>
     <g id="text_4">
      <!-- 150 -->
      <g transform="translate(461.384882 644.598438)scale(0.1 -0.1)">
       <use xlink:href="#DejaVuSans-49"/>
       <use x="63.623047" xlink:href="#DejaVuSans-53"/>
       <use x="127.246094" xlink:href="#DejaVuSans-48"/>
      </g>
     </g>
    </g>
    <g id="xtick_5">
     <g id="line2d_9">
      <path clip-path="url(#p2c3a3afbd0)" d="M 589.450297 630 
L 589.450297 86.4 
" style="fill:none;stroke:#b0b0b0;stroke-linecap:square;stroke-width:0.8;"/>
     </g>
     <g id="line2d_10">
      <g>
       <use style="stroke:#000000;stroke-width:0.8;" x="589.450297" xlink:href="#mad42253798" y="630"/>
      </g>
     </g>
     <g id="text_5">
      <!-- 200 -->
      <g transform="translate(579.906547 644.598438)scale(0.1 -0.1)">
       <defs>
        <path d="M 19.1875 8.296875 
L 53.609375 8.296875 
L 53.609375 0 
L 7.328125 0 
L 7.328125 8.296875 
Q 12.9375 14.109375 22.625 23.890625 
Q 32.328125 33.6875 34.8125 36.53125 
Q 39.546875 41.84375 41.421875 45.53125 
Q 43.3125 49.21875 43.3125 52.78125 
Q 43.3125 58.59375 39.234375 62.25 
Q 35.15625 65.921875 28.609375 65.921875 
Q 23.96875 65.921875 18.8125 64.3125 
Q 13.671875 62.703125 7.8125 59.421875 
L 7.8125 69.390625 
Q 13.765625 71.78125 18.9375 73 
Q 24.125 74.21875 28.421875 74.21875 
Q 39.75 74.21875 46.484375 68.546875 
Q 53.21875 62.890625 53.21875 53.421875 
Q 53.21875 48.921875 51.53125 44.890625 
Q 49.859375 40.875 45.40625 35.40625 
Q 44.1875 33.984375 37.640625 27.21875 
Q 31.109375 20.453125 19.1875 8.296875 
z
" id="DejaVuSans-50"/>
       </defs>
       <use xlink:href="#DejaVuSans-50"/>
       <use x="63.623047" xlink:href="#DejaVuSans-48"/>
       <use x="127.246094" xlink:href="#DejaVuSans-48"/>
      </g>
     </g>
    </g>
    <g id="text_6">
     <!-- Days -->
     <g transform="translate(356.521875 658.276562)scale(0.1 -0.1)">
      <defs>
       <path d="M 19.671875 64.796875 
L 19.671875 8.109375 
L 31.59375 8.109375 
Q 46.6875 8.109375 53.6875 14.9375 
Q 60.6875 21.78125 60.6875 36.53125 
Q 60.6875 51.171875 53.6875 57.984375 
Q 46.6875 64.796875 31.59375 64.796875 
z
M 9.8125 72.90625 
L 30.078125 72.90625 
Q 51.265625 72.90625 61.171875 64.09375 
Q 71.09375 55.28125 71.09375 36.53125 
Q 71.09375 17.671875 61.125 8.828125 
Q 51.171875 0 30.078125 0 
L 9.8125 0 
z
" id="DejaVuSans-68"/>
       <path d="M 34.28125 27.484375 
Q 23.390625 27.484375 19.1875 25 
Q 14.984375 22.515625 14.984375 16.5 
Q 14.984375 11.71875 18.140625 8.90625 
Q 21.296875 6.109375 26.703125 6.109375 
Q 34.1875 6.109375 38.703125 11.40625 
Q 43.21875 16.703125 43.21875 25.484375 
L 43.21875 27.484375 
z
M 52.203125 31.203125 
L 52.203125 0 
L 43.21875 0 
L 43.21875 8.296875 
Q 40.140625 3.328125 35.546875 0.953125 
Q 30.953125 -1.421875 24.3125 -1.421875 
Q 15.921875 -1.421875 10.953125 3.296875 
Q 6 8.015625 6 15.921875 
Q 6 25.140625 12.171875 29.828125 
Q 18.359375 34.515625 30.609375 34.515625 
L 43.21875 34.515625 
L 43.21875 35.40625 
Q 43.21875 41.609375 39.140625 45 
Q 35.0625 48.390625 27.6875 48.390625 
Q 23 48.390625 18.546875 47.265625 
Q 14.109375 46.140625 10.015625 43.890625 
L 10.015625 52.203125 
Q 14.9375 54.109375 19.578125 55.046875 
Q 24.21875 56 28.609375 56 
Q 40.484375 56 46.34375 49.84375 
Q 52.203125 43.703125 52.203125 31.203125 
z
" id="DejaVuSans-97"/>
       <path d="M 32.171875 -5.078125 
Q 28.375 -14.84375 24.75 -17.8125 
Q 21.140625 -20.796875 15.09375 -20.796875 
L 7.90625 -20.796875 
L 7.90625 -13.28125 
L 13.1875 -13.28125 
Q 16.890625 -13.28125 18.9375 -11.515625 
Q 21 -9.765625 23.484375 -3.21875 
L 25.09375 0.875 
L 2.984375 54.6875 
L 12.5 54.6875 
L 29.59375 11.921875 
L 46.6875 54.6875 
L 56.203125 54.6875 
z
" id="DejaVuSans-121"/>
       <path d="M 44.28125 53.078125 
L 44.28125 44.578125 
Q 40.484375 46.53125 36.375 47.5 
Q 32.28125 48.484375 27.875 48.484375 
Q 21.1875 48.484375 17.84375 46.4375 
Q 14.5 44.390625 14.5 40.28125 
Q 14.5 37.15625 16.890625 35.375 
Q 19.28125 33.59375 26.515625 31.984375 
L 29.59375 31.296875 
Q 39.15625 29.25 43.1875 25.515625 
Q 47.21875 21.78125 47.21875 15.09375 
Q 47.21875 7.46875 41.1875 3.015625 
Q 35.15625 -1.421875 24.609375 -1.421875 
Q 20.21875 -1.421875 15.453125 -0.5625 
Q 10.6875 0.296875 5.421875 2 
L 5.421875 11.28125 
Q 10.40625 8.6875 15.234375 7.390625 
Q 20.0625 6.109375 24.8125 6.109375 
Q 31.15625 6.109375 34.5625 8.28125 
Q 37.984375 10.453125 37.984375 14.40625 
Q 37.984375 18.0625 35.515625 20.015625 
Q 33.0625 21.96875 24.703125 23.78125 
L 21.578125 24.515625 
Q 13.234375 26.265625 9.515625 29.90625 
Q 5.8125 33.546875 5.8125 39.890625 
Q 5.8125 47.609375 11.28125 51.796875 
Q 16.75 56 26.8125 56 
Q 31.78125 56 36.171875 55.265625 
Q 40.578125 54.546875 44.28125 53.078125 
z
" id="DejaVuSans-115"/>
      </defs>
      <use xlink:href="#DejaVuSans-68"/>
      <use x="77.001953" xlink:href="#DejaVuSans-97"/>
      <use x="138.28125" xlink:href="#DejaVuSans-121"/>
      <use x="197.460938" xlink:href="#DejaVuSans-115"/>
     </g>
    </g>
   </g>
   <g id="matplotlib.axis_2">
    <g id="ytick_1">
     <g id="line2d_11">
      <path clip-path="url(#p2c3a3afbd0)" d="M 90 606.110992 
L 648 606.110992 
" style="fill:none;stroke:#b0b0b0;stroke-linecap:square;stroke-width:0.8;"/>
     </g>
     <g id="line2d_12">
      <defs>
       <path d="M 0 0 
L -3.5 0 
" id="mad91a9e0ad" style="stroke:#000000;stroke-width:0.8;"/>
      </defs>
      <g>
       <use style="stroke:#000000;stroke-width:0.8;" x="90" xlink:href="#mad91a9e0ad" y="606.110992"/>
      </g>
     </g>
     <g id="text_7">
      <!-- 0 -->
      <g transform="translate(76.6375 609.910211)scale(0.1 -0.1)">
       <use xlink:href="#DejaVuSans-48"/>
      </g>
     </g>
    </g>
    <g id="ytick_2">
     <g id="line2d_13">
      <path clip-path="url(#p2c3a3afbd0)" d="M 90 496.766635 
L 648 496.766635 
" style="fill:none;stroke:#b0b0b0;stroke-linecap:square;stroke-width:0.8;"/>
     </g>
     <g id="line2d_14">
      <g>
       <use style="stroke:#000000;stroke-width:0.8;" x="90" xlink:href="#mad91a9e0ad" y="496.766635"/>
      </g>
     </g>
     <g id="text_8">
      <!-- 2000 -->
      <g transform="translate(57.55 500.565854)scale(0.1 -0.1)">
       <use xlink:href="#DejaVuSans-50"/>
       <use x="63.623047" xlink:href="#DejaVuSans-48"/>
       <use x="127.246094" xlink:href="#DejaVuSans-48"/>
       <use x="190.869141" xlink:href="#DejaVuSans-48"/>
      </g>
     </g>
    </g>
    <g id="ytick_3">
     <g id="line2d_15">
      <path clip-path="url(#p2c3a3afbd0)" d="M 90 387.422279 
L 648 387.422279 
" style="fill:none;stroke:#b0b0b0;stroke-linecap:square;stroke-width:0.8;"/>
     </g>
     <g id="line2d_16">
      <g>
       <use style="stroke:#000000;stroke-width:0.8;" x="90" xlink:href="#mad91a9e0ad" y="387.422279"/>
      </g>
     </g>
     <g id="text_9">
      <!-- 4000 -->
      <g transform="translate(57.55 391.221498)scale(0.1 -0.1)">
       <defs>
        <path d="M 37.796875 64.3125 
L 12.890625 25.390625 
L 37.796875 25.390625 
z
M 35.203125 72.90625 
L 47.609375 72.90625 
L 47.609375 25.390625 
L 58.015625 25.390625 
L 58.015625 17.1875 
L 47.609375 17.1875 
L 47.609375 0 
L 37.796875 0 
L 37.796875 17.1875 
L 4.890625 17.1875 
L 4.890625 26.703125 
z
" id="DejaVuSans-52"/>
       </defs>
       <use xlink:href="#DejaVuSans-52"/>
       <use x="63.623047" xlink:href="#DejaVuSans-48"/>
       <use x="127.246094" xlink:href="#DejaVuSans-48"/>
       <use x="190.869141" xlink:href="#DejaVuSans-48"/>
      </g>
     </g>
    </g>
    <g id="ytick_4">
     <g id="line2d_17">
      <path clip-path="url(#p2c3a3afbd0)" d="M 90 278.077923 
L 648 278.077923 
" style="fill:none;stroke:#b0b0b0;stroke-linecap:square;stroke-width:0.8;"/>
     </g>
     <g id="line2d_18">
      <g>
       <use style="stroke:#000000;stroke-width:0.8;" x="90" xlink:href="#mad91a9e0ad" y="278.077923"/>
      </g>
     </g>
     <g id="text_10">
      <!-- 6000 -->
      <g transform="translate(57.55 281.877142)scale(0.1 -0.1)">
       <defs>
        <path d="M 33.015625 40.375 
Q 26.375 40.375 22.484375 35.828125 
Q 18.609375 31.296875 18.609375 23.390625 
Q 18.609375 15.53125 22.484375 10.953125 
Q 26.375 6.390625 33.015625 6.390625 
Q 39.65625 6.390625 43.53125 10.953125 
Q 47.40625 15.53125 47.40625 23.390625 
Q 47.40625 31.296875 43.53125 35.828125 
Q 39.65625 40.375 33.015625 40.375 
z
M 52.59375 71.296875 
L 52.59375 62.3125 
Q 48.875 64.0625 45.09375 64.984375 
Q 41.3125 65.921875 37.59375 65.921875 
Q 27.828125 65.921875 22.671875 59.328125 
Q 17.53125 52.734375 16.796875 39.40625 
Q 19.671875 43.65625 24.015625 45.921875 
Q 28.375 48.1875 33.59375 48.1875 
Q 44.578125 48.1875 50.953125 41.515625 
Q 57.328125 34.859375 57.328125 23.390625 
Q 57.328125 12.15625 50.6875 5.359375 
Q 44.046875 -1.421875 33.015625 -1.421875 
Q 20.359375 -1.421875 13.671875 8.265625 
Q 6.984375 17.96875 6.984375 36.375 
Q 6.984375 53.65625 15.1875 63.9375 
Q 23.390625 74.21875 37.203125 74.21875 
Q 40.921875 74.21875 44.703125 73.484375 
Q 48.484375 72.75 52.59375 71.296875 
z
" id="DejaVuSans-54"/>
       </defs>
       <use xlink:href="#DejaVuSans-54"/>
       <use x="63.623047" xlink:href="#DejaVuSans-48"/>
       <use x="127.246094" xlink:href="#DejaVuSans-48"/>
       <use x="190.869141" xlink:href="#DejaVuSans-48"/>
      </g>
     </g>
    </g>
    <g id="ytick_5">
     <g id="line2d_19">
      <path clip-path="url(#p2c3a3afbd0)" d="M 90 168.733567 
L 648 168.733567 
" style="fill:none;stroke:#b0b0b0;stroke-linecap:square;stroke-width:0.8;"/>
     </g>
     <g id="line2d_20">
      <g>
       <use style="stroke:#000000;stroke-width:0.8;" x="90" xlink:href="#mad91a9e0ad" y="168.733567"/>
      </g>
     </g>
     <g id="text_11">
      <!-- 8000 -->
      <g transform="translate(57.55 172.532785)scale(0.1 -0.1)">
       <defs>
        <path d="M 31.78125 34.625 
Q 24.75 34.625 20.71875 30.859375 
Q 16.703125 27.09375 16.703125 20.515625 
Q 16.703125 13.921875 20.71875 10.15625 
Q 24.75 6.390625 31.78125 6.390625 
Q 38.8125 6.390625 42.859375 10.171875 
Q 46.921875 13.96875 46.921875 20.515625 
Q 46.921875 27.09375 42.890625 30.859375 
Q 38.875 34.625 31.78125 34.625 
z
M 21.921875 38.8125 
Q 15.578125 40.375 12.03125 44.71875 
Q 8.5 49.078125 8.5 55.328125 
Q 8.5 64.0625 14.71875 69.140625 
Q 20.953125 74.21875 31.78125 74.21875 
Q 42.671875 74.21875 48.875 69.140625 
Q 55.078125 64.0625 55.078125 55.328125 
Q 55.078125 49.078125 51.53125 44.71875 
Q 48 40.375 41.703125 38.8125 
Q 48.828125 37.15625 52.796875 32.3125 
Q 56.78125 27.484375 56.78125 20.515625 
Q 56.78125 9.90625 50.3125 4.234375 
Q 43.84375 -1.421875 31.78125 -1.421875 
Q 19.734375 -1.421875 13.25 4.234375 
Q 6.78125 9.90625 6.78125 20.515625 
Q 6.78125 27.484375 10.78125 32.3125 
Q 14.796875 37.15625 21.921875 38.8125 
z
M 18.3125 54.390625 
Q 18.3125 48.734375 21.84375 45.5625 
Q 25.390625 42.390625 31.78125 42.390625 
Q 38.140625 42.390625 41.71875 45.5625 
Q 45.3125 48.734375 45.3125 54.390625 
Q 45.3125 60.0625 41.71875 63.234375 
Q 38.140625 66.40625 31.78125 66.40625 
Q 25.390625 66.40625 21.84375 63.234375 
Q 18.3125 60.0625 18.3125 54.390625 
z
" id="DejaVuSans-56"/>
       </defs>
       <use xlink:href="#DejaVuSans-56"/>
       <use x="63.623047" xlink:href="#DejaVuSans-48"/>
       <use x="127.246094" xlink:href="#DejaVuSans-48"/>
       <use x="190.869141" xlink:href="#DejaVuSans-48"/>
      </g>
     </g>
    </g>
    <g id="text_12">
     <!-- Cumulative cases -->
     <g transform="translate(51.470312 402.425781)rotate(-90)scale(0.1 -0.1)">
      <defs>
       <path d="M 64.40625 67.28125 
L 64.40625 56.890625 
Q 59.421875 61.53125 53.78125 63.8125 
Q 48.140625 66.109375 41.796875 66.109375 
Q 29.296875 66.109375 22.65625 58.46875 
Q 16.015625 50.828125 16.015625 36.375 
Q 16.015625 21.96875 22.65625 14.328125 
Q 29.296875 6.6875 41.796875 6.6875 
Q 48.140625 6.6875 53.78125 8.984375 
Q 59.421875 11.28125 64.40625 15.921875 
L 64.40625 5.609375 
Q 59.234375 2.09375 53.4375 0.328125 
Q 47.65625 -1.421875 41.21875 -1.421875 
Q 24.65625 -1.421875 15.125 8.703125 
Q 5.609375 18.84375 5.609375 36.375 
Q 5.609375 53.953125 15.125 64.078125 
Q 24.65625 74.21875 41.21875 74.21875 
Q 47.75 74.21875 53.53125 72.484375 
Q 59.328125 70.75 64.40625 67.28125 
z
" id="DejaVuSans-67"/>
       <path d="M 8.5 21.578125 
L 8.5 54.6875 
L 17.484375 54.6875 
L 17.484375 21.921875 
Q 17.484375 14.15625 20.5 10.265625 
Q 23.53125 6.390625 29.59375 6.390625 
Q 36.859375 6.390625 41.078125 11.03125 
Q 45.3125 15.671875 45.3125 23.6875 
L 45.3125 54.6875 
L 54.296875 54.6875 
L 54.296875 0 
L 45.3125 0 
L 45.3125 8.40625 
Q 42.046875 3.421875 37.71875 1 
Q 33.40625 -1.421875 27.6875 -1.421875 
Q 18.265625 -1.421875 13.375 4.4375 
Q 8.5 10.296875 8.5 21.578125 
z
M 31.109375 56 
z
" id="DejaVuSans-117"/>
       <path d="M 52 44.1875 
Q 55.375 50.25 60.0625 53.125 
Q 64.75 56 71.09375 56 
Q 79.640625 56 84.28125 50.015625 
Q 88.921875 44.046875 88.921875 33.015625 
L 88.921875 0 
L 79.890625 0 
L 79.890625 32.71875 
Q 79.890625 40.578125 77.09375 44.375 
Q 74.3125 48.1875 68.609375 48.1875 
Q 61.625 48.1875 57.5625 43.546875 
Q 53.515625 38.921875 53.515625 30.90625 
L 53.515625 0 
L 44.484375 0 
L 44.484375 32.71875 
Q 44.484375 40.625 41.703125 44.40625 
Q 38.921875 48.1875 33.109375 48.1875 
Q 26.21875 48.1875 22.15625 43.53125 
Q 18.109375 38.875 18.109375 30.90625 
L 18.109375 0 
L 9.078125 0 
L 9.078125 54.6875 
L 18.109375 54.6875 
L 18.109375 46.1875 
Q 21.1875 51.21875 25.484375 53.609375 
Q 29.78125 56 35.6875 56 
Q 41.65625 56 45.828125 52.96875 
Q 50 49.953125 52 44.1875 
z
" id="DejaVuSans-109"/>
       <path d="M 9.421875 75.984375 
L 18.40625 75.984375 
L 18.40625 0 
L 9.421875 0 
z
" id="DejaVuSans-108"/>
       <path d="M 18.3125 70.21875 
L 18.3125 54.6875 
L 36.8125 54.6875 
L 36.8125 47.703125 
L 18.3125 47.703125 
L 18.3125 18.015625 
Q 18.3125 11.328125 20.140625 9.421875 
Q 21.96875 7.515625 27.59375 7.515625 
L 36.8125 7.515625 
L 36.8125 0 
L 27.59375 0 
Q 17.1875 0 13.234375 3.875 
Q 9.28125 7.765625 9.28125 18.015625 
L 9.28125 47.703125 
L 2.6875 47.703125 
L 2.6875 54.6875 
L 9.28125 54.6875 
L 9.28125 70.21875 
z
" id="DejaVuSans-116"/>
       <path d="M 9.421875 54.6875 
L 18.40625 54.6875 
L 18.40625 0 
L 9.421875 0 
z
M 9.421875 75.984375 
L 18.40625 75.984375 
L 18.40625 64.59375 
L 9.421875 64.59375 
z
" id="DejaVuSans-105"/>
       <path d="M 2.984375 54.6875 
L 12.5 54.6875 
L 29.59375 8.796875 
L 46.6875 54.6875 
L 56.203125 54.6875 
L 35.6875 0 
L 23.484375 0 
z
" id="DejaVuSans-118"/>
       <path d="M 56.203125 29.59375 
L 56.203125 25.203125 
L 14.890625 25.203125 
Q 15.484375 15.921875 20.484375 11.0625 
Q 25.484375 6.203125 34.421875 6.203125 
Q 39.59375 6.203125 44.453125 7.46875 
Q 49.3125 8.734375 54.109375 11.28125 
L 54.109375 2.78125 
Q 49.265625 0.734375 44.1875 -0.34375 
Q 39.109375 -1.421875 33.890625 -1.421875 
Q 20.796875 -1.421875 13.15625 6.1875 
Q 5.515625 13.8125 5.515625 26.8125 
Q 5.515625 40.234375 12.765625 48.109375 
Q 20.015625 56 32.328125 56 
Q 43.359375 56 49.78125 48.890625 
Q 56.203125 41.796875 56.203125 29.59375 
z
M 47.21875 32.234375 
Q 47.125 39.59375 43.09375 43.984375 
Q 39.0625 48.390625 32.421875 48.390625 
Q 24.90625 48.390625 20.390625 44.140625 
Q 15.875 39.890625 15.1875 32.171875 
z
" id="DejaVuSans-101"/>
       <path id="DejaVuSans-32"/>
       <path d="M 48.78125 52.59375 
L 48.78125 44.1875 
Q 44.96875 46.296875 41.140625 47.34375 
Q 37.3125 48.390625 33.40625 48.390625 
Q 24.65625 48.390625 19.8125 42.84375 
Q 14.984375 37.3125 14.984375 27.296875 
Q 14.984375 17.28125 19.8125 11.734375 
Q 24.65625 6.203125 33.40625 6.203125 
Q 37.3125 6.203125 41.140625 7.25 
Q 44.96875 8.296875 48.78125 10.40625 
L 48.78125 2.09375 
Q 45.015625 0.34375 40.984375 -0.53125 
Q 36.96875 -1.421875 32.421875 -1.421875 
Q 20.0625 -1.421875 12.78125 6.34375 
Q 5.515625 14.109375 5.515625 27.296875 
Q 5.515625 40.671875 12.859375 48.328125 
Q 20.21875 56 33.015625 56 
Q 37.15625 56 41.109375 55.140625 
Q 45.0625 54.296875 48.78125 52.59375 
z
" id="DejaVuSans-99"/>
      </defs>
      <use xlink:href="#DejaVuSans-67"/>
      <use x="69.824219" xlink:href="#DejaVuSans-117"/>
      <use x="133.203125" xlink:href="#DejaVuSans-109"/>
      <use x="230.615234" xlink:href="#DejaVuSans-117"/>
      <use x="293.994141" xlink:href="#DejaVuSans-108"/>
      <use x="321.777344" xlink:href="#DejaVuSans-97"/>
      <use x="383.056641" xlink:href="#DejaVuSans-116"/>
      <use x="422.265625" xlink:href="#DejaVuSans-105"/>
      <use x="450.048828" xlink:href="#DejaVuSans-118"/>
      <use x="509.228516" xlink:href="#DejaVuSans-101"/>
      <use x="570.751953" xlink:href="#DejaVuSans-32"/>
      <use x="602.539062" xlink:href="#DejaVuSans-99"/>
      <use x="657.519531" xlink:href="#DejaVuSans-97"/>
      <use x="718.798828" xlink:href="#DejaVuSans-115"/>
      <use x="770.898438" xlink:href="#DejaVuSans-101"/>
      <use x="832.421875" xlink:href="#DejaVuSans-115"/>
     </g>
    </g>
   </g>
   <g id="line2d_21">
    <path clip-path="url(#p2c3a3afbd0)" d="M 115.363636 605.290909 
L 129.586236 604.783254 
L 141.438403 604.12824 
L 150.920136 603.379647 
L 158.031436 602.639352 
L 165.142736 601.700369 
L 172.254036 600.510573 
L 176.994902 599.546513 
L 181.735769 598.419344 
L 186.476636 597.102526 
L 191.217502 595.56559 
L 195.958369 593.773702 
L 200.699235 591.687229 
L 205.440102 589.261346 
L 210.180969 586.4457 
L 214.921835 583.184204 
L 219.662702 579.415011 
L 222.033135 577.319174 
L 224.403568 575.070741 
L 226.774002 572.660524 
L 229.144435 570.079089 
L 231.514868 567.316801 
L 233.885302 564.363884 
L 236.255735 561.210486 
L 238.626168 557.846756 
L 240.996602 554.262943 
L 243.367035 550.449494 
L 245.737468 546.397177 
L 248.107901 542.097209 
L 250.478335 537.541405 
L 252.848768 532.72233 
L 255.219201 527.633469 
L 257.589635 522.269402 
L 262.330501 510.700524 
L 267.071368 498.00112 
L 271.812234 484.185581 
L 276.553101 469.302157 
L 281.293968 453.436364 
L 286.034834 436.71221 
L 290.775701 419.29062 
L 297.887001 392.280109 
L 312.109601 337.895774 
L 316.850467 320.498197 
L 321.591334 303.805046 
L 326.332201 287.975862 
L 331.073067 273.133144 
L 335.813934 259.360902 
L 340.5548 246.705973 
L 345.295667 235.181509 
L 347.6661 229.839296 
L 350.036534 224.771906 
L 352.406967 219.973826 
L 354.7774 215.438461 
L 357.147833 211.158313 
L 359.518267 207.125143 
L 361.8887 203.330129 
L 364.259133 199.764008 
L 366.629567 196.417208 
L 369 193.279965 
L 371.370433 190.342426 
L 373.740867 187.594742 
L 376.1113 185.027146 
L 378.481733 182.630016 
L 383.2226 178.309743 
L 387.963466 174.561791 
L 392.704333 171.318995 
L 397.4452 168.519728 
L 402.186066 166.108133 
L 406.926933 164.034079 
L 411.667799 162.252953 
L 416.408666 160.725318 
L 421.149533 159.416521 
L 425.890399 158.296257 
L 433.001699 156.912585 
L 440.112999 155.819742 
L 447.224299 154.957612 
L 456.706032 154.08534 
L 466.187766 153.451073 
L 478.039932 152.896358 
L 492.262532 152.466607 
L 511.225998 152.137414 
L 537.300765 151.923225 
L 582.338997 151.805313 
L 622.636364 151.78099 
L 622.636364 151.78099 
" style="fill:none;stroke:#1f77b4;stroke-linecap:square;stroke-width:1.5;"/>
   </g>
   <g id="line2d_22">
    <path clip-path="url(#p2c3a3afbd0)" d="M 115.363636 605.290909 
L 124.84537 604.290879 
L 134.327103 603.02085 
L 141.438403 601.849204 
L 148.549703 600.450197 
L 155.661003 598.781549 
L 162.772302 596.793898 
L 167.513169 595.263635 
L 172.254036 593.547212 
L 176.994902 591.623709 
L 181.735769 589.470308 
L 186.476636 587.062245 
L 191.217502 584.372789 
L 195.958369 581.373277 
L 200.699235 578.033203 
L 205.440102 574.320386 
L 210.180969 570.201226 
L 214.921835 565.641075 
L 219.662702 560.604731 
L 224.403568 555.057079 
L 229.144435 548.963887 
L 233.885302 542.292765 
L 238.626168 535.01429 
L 243.367035 527.103279 
L 248.107901 518.540188 
L 252.848768 509.312589 
L 257.589635 499.41667 
L 262.330501 488.858665 
L 267.071368 477.656132 
L 271.812234 465.838953 
L 276.553101 453.449968 
L 281.293968 440.545115 
L 288.405268 420.373942 
L 295.516568 399.478337 
L 319.220901 328.904724 
L 326.332201 308.778149 
L 331.073067 295.910262 
L 335.813934 283.562949 
L 340.5548 271.791161 
L 345.295667 260.636741 
L 350.036534 250.128606 
L 354.7774 240.283414 
L 359.518267 231.106587 
L 364.259133 222.593607 
L 369 214.731453 
L 373.740867 207.5001 
L 378.481733 200.873995 
L 383.2226 194.823447 
L 387.963466 189.315888 
L 392.704333 184.316987 
L 397.4452 179.791596 
L 402.186066 175.704536 
L 406.926933 172.021222 
L 411.667799 168.708151 
L 416.408666 165.733261 
L 421.149533 163.066181 
L 425.890399 160.678394 
L 430.631266 158.543317 
L 435.372133 156.636335 
L 440.112999 154.934776 
L 444.853866 153.417863 
L 451.965166 151.447689 
L 459.076466 149.793832 
L 466.187766 148.407311 
L 473.299065 147.246179 
L 480.410365 146.274685 
L 489.892099 145.22258 
L 499.373832 144.394848 
L 511.225998 143.604634 
L 525.448598 142.923263 
L 542.041631 142.385982 
L 563.375531 141.958885 
L 589.450297 141.673002 
L 622.636364 141.501087 
L 622.636364 141.501087 
" style="fill:none;stroke:#ff7f0e;stroke-linecap:square;stroke-width:1.5;"/>
   </g>
   <g id="line2d_23">
    <path clip-path="url(#p2c3a3afbd0)" d="M 115.363636 605.290909 
L 127.215803 604.672115 
L 136.697536 603.977804 
L 146.179269 603.039218 
L 153.290569 602.125362 
L 160.401869 600.982126 
L 167.513169 599.553844 
L 172.254036 598.410244 
L 176.994902 597.086298 
L 181.735769 595.555136 
L 186.476636 593.786418 
L 191.217502 591.746078 
L 195.958369 589.396105 
L 200.699235 586.694406 
L 205.440102 583.59479 
L 210.180969 580.047105 
L 214.921835 575.997612 
L 219.662702 571.389632 
L 224.403568 566.164547 
L 226.774002 563.302084 
L 229.144435 560.263226 
L 231.514868 557.040813 
L 233.885302 553.627914 
L 236.255735 550.017918 
L 240.996602 542.18235 
L 245.737468 533.491312 
L 250.478335 523.913722 
L 255.219201 513.433835 
L 259.960068 502.054779 
L 264.700935 489.801631 
L 269.441801 476.723666 
L 274.182668 462.895372 
L 278.923534 448.415916 
L 286.034834 425.746934 
L 295.516568 394.516336 
L 304.998301 363.292202 
L 312.109601 340.604552 
L 316.850467 326.069415 
L 321.591334 312.125308 
L 326.332201 298.849204 
L 331.073067 286.295691 
L 335.813934 274.498257 
L 340.5548 263.471455 
L 345.295667 253.213636 
L 350.036534 243.709907 
L 354.7774 234.935072 
L 359.518267 226.856372 
L 364.259133 219.435915 
L 369 212.632719 
L 373.740867 206.40439 
L 378.481733 200.708421 
L 383.2226 195.503175 
L 387.963466 190.748586 
L 392.704333 186.406631 
L 397.4452 182.441618 
L 402.186066 178.820334 
L 406.926933 175.512085 
L 411.667799 172.488661 
L 416.408666 169.72425 
L 421.149533 167.195311 
L 425.890399 164.880434 
L 430.631266 162.760184 
L 435.372133 160.816945 
L 442.483432 158.199508 
L 449.594732 155.89723 
L 456.706032 153.86917 
L 463.817332 152.080096 
L 470.928632 150.499664 
L 480.410365 148.672274 
L 489.892099 147.11729 
L 499.373832 145.791467 
L 511.225998 144.402481 
L 523.078165 143.259077 
L 537.300765 142.147803 
L 551.523364 141.263315 
L 568.116398 140.45485 
L 587.079864 139.755859 
L 610.784197 139.128346 
L 622.636364 138.891232 
L 622.636364 138.891232 
" style="fill:none;stroke:#2ca02c;stroke-linecap:square;stroke-width:1.5;"/>
   </g>
   <g id="line2d_24">
    <path clip-path="url(#p2c3a3afbd0)" d="M 115.363636 605.290909 
L 124.84537 604.695028 
L 134.327103 603.881728 
L 141.438403 603.08875 
L 148.549703 602.099467 
L 155.661003 600.870199 
L 162.772302 599.348276 
L 167.513169 598.140368 
L 172.254036 596.752962 
L 176.994902 595.161876 
L 181.735769 593.340176 
L 186.476636 591.258021 
L 191.217502 588.88255 
L 195.958369 586.177846 
L 200.699235 583.104977 
L 205.440102 579.622182 
L 210.180969 575.6852 
L 214.921835 571.247807 
L 219.662702 566.262593 
L 224.403568 560.682017 
L 229.144435 554.459761 
L 233.885302 547.552414 
L 238.626168 539.921464 
L 243.367035 531.53556 
L 248.107901 522.372963 
L 252.848768 512.424063 
L 257.589635 501.693779 
L 262.330501 490.203635 
L 267.071368 477.993282 
L 271.812234 465.121216 
L 276.553101 451.664526 
L 283.664401 430.593742 
L 293.146134 401.44707 
L 307.368734 357.525242 
L 314.480034 336.367786 
L 319.220901 322.799393 
L 323.961767 309.754088 
L 328.702634 297.293368 
L 333.4435 285.461874 
L 338.184367 274.288256 
L 342.925234 263.786635 
L 347.6661 253.958451 
L 352.406967 244.794516 
L 357.147833 236.277095 
L 361.8887 228.381897 
L 366.629567 221.079887 
L 371.370433 214.338871 
L 376.1113 208.124831 
L 380.852167 202.403017 
L 385.593033 197.1388 
L 390.3339 192.298328 
L 395.074766 187.848997 
L 399.815633 183.759774 
L 404.5565 180.001406 
L 409.297366 176.546528 
L 414.038233 173.369702 
L 418.779099 170.447401 
L 423.519966 167.757956 
L 428.260833 165.281474 
L 433.001699 162.999738 
L 437.742566 160.896105 
L 444.853866 158.04175 
L 451.965166 155.508591 
L 459.076466 153.256948 
L 466.187766 151.252382 
L 473.299065 149.465005 
L 480.410365 147.86886 
L 489.892099 145.999577 
L 499.373832 144.384916 
L 508.855565 142.986898 
L 520.707732 141.496161 
L 532.559898 140.243674 
L 546.782498 138.997764 
L 561.005098 137.979323 
L 577.598131 137.019841 
L 596.561597 136.158982 
L 617.895497 135.4186 
L 622.636364 135.280402 
L 622.636364 135.280402 
" style="fill:none;stroke:#d62728;stroke-linecap:square;stroke-width:1.5;"/>
   </g>
   <g id="line2d_25">
    <path clip-path="url(#p2c3a3afbd0)" d="M 115.363636 605.290909 
L 124.84537 605.196819 
L 134.327103 604.918867 
L 143.808836 604.433596 
L 150.920136 603.897997 
L 158.031436 603.170669 
L 165.142736 602.194726 
L 169.883602 601.369434 
L 174.624469 600.372442 
L 179.365336 599.170603 
L 184.106202 597.724959 
L 188.847069 595.990131 
L 193.587935 593.913795 
L 198.328802 591.436352 
L 203.069669 588.490919 
L 205.440102 586.819919 
L 207.810535 585.003812 
L 210.180969 583.032514 
L 212.551402 580.895714 
L 214.921835 578.582956 
L 217.292268 576.083754 
L 219.662702 573.387713 
L 222.033135 570.484682 
L 224.403568 567.364919 
L 226.774002 564.01928 
L 229.144435 560.439415 
L 231.514868 556.617991 
L 233.885302 552.548907 
L 236.255735 548.227524 
L 238.626168 543.650885 
L 240.996602 538.817914 
L 245.737468 528.389177 
L 250.478335 516.976482 
L 255.219201 504.6527 
L 259.960068 491.527398 
L 264.700935 477.741921 
L 271.812234 456.189729 
L 290.775701 397.704743 
L 297.887001 376.789115 
L 302.627867 363.419272 
L 307.368734 350.569153 
L 312.109601 338.267917 
L 316.850467 326.528732 
L 321.591334 315.352527 
L 326.332201 304.731306 
L 331.073067 294.650868 
L 335.813934 285.092945 
L 340.5548 276.036812 
L 345.295667 267.460448 
L 350.036534 259.341351 
L 354.7774 251.657097 
L 359.518267 244.385703 
L 364.259133 237.505857 
L 369 230.997053 
L 373.740867 224.839664 
L 378.481733 219.014973 
L 383.2226 213.505172 
L 387.963466 208.293351 
L 392.704333 203.363472 
L 397.4452 198.700331 
L 402.186066 194.289532 
L 406.926933 190.117442 
L 411.667799 186.171158 
L 416.408666 182.438469 
L 421.149533 178.907822 
L 425.890399 175.568286 
L 433.001699 170.894846 
L 440.112999 166.595693 
L 447.224299 162.640853 
L 454.335599 159.002755 
L 461.446899 155.656033 
L 468.558199 152.57735 
L 475.669499 149.74524 
L 482.780799 147.139956 
L 489.892099 144.743332 
L 497.003398 142.538654 
L 506.485132 139.871278 
L 515.966865 137.484873 
L 525.448598 135.349843 
L 534.930331 133.439709 
L 544.412065 131.730781 
L 556.264231 129.845495 
L 568.116398 128.205087 
L 579.968564 126.777749 
L 594.191164 125.307489 
L 608.413764 124.063306 
L 622.636364 123.010439 
L 622.636364 123.010439 
" style="fill:none;stroke:#9467bd;stroke-linecap:square;stroke-width:1.5;"/>
   </g>
   <g id="line2d_26">
    <path clip-path="url(#p2c3a3afbd0)" d="M 115.363636 605.290909 
L 124.84537 605.196819 
L 134.327103 604.918867 
L 143.808836 604.433596 
L 150.920136 603.897997 
L 158.031436 603.170669 
L 165.142736 602.194726 
L 169.883602 601.369434 
L 174.624469 600.372442 
L 179.365336 599.170603 
L 184.106202 597.724959 
L 188.847069 595.990131 
L 193.587935 593.913795 
L 198.328802 591.436352 
L 203.069669 588.490919 
L 205.440102 586.819919 
L 207.810535 585.003812 
L 210.180969 583.032514 
L 212.551402 580.895714 
L 214.921835 578.582956 
L 217.292268 576.083754 
L 219.662702 573.387713 
L 222.033135 570.484682 
L 224.403568 567.36492 
L 226.774002 564.01928 
L 229.144435 560.439416 
L 231.514868 556.617991 
L 233.885302 552.548907 
L 236.255735 548.227524 
L 238.626168 543.650885 
L 240.996602 538.817915 
L 245.737468 528.389177 
L 250.478335 516.976483 
L 255.219201 504.6527 
L 259.960068 491.527398 
L 264.700935 477.741921 
L 271.812234 456.189729 
L 290.775701 397.704742 
L 297.887001 376.789115 
L 302.627867 363.419271 
L 307.368734 350.569152 
L 312.109601 338.267916 
L 316.850467 326.52873 
L 321.591334 315.352526 
L 326.332201 304.731305 
L 331.073067 294.650866 
L 335.813934 285.092943 
L 340.5548 276.036811 
L 345.295667 267.460446 
L 350.036534 259.341349 
L 354.7774 251.657095 
L 359.518267 244.385701 
L 364.259133 237.505855 
L 369 230.997051 
L 373.740867 224.839662 
L 378.481733 219.014971 
L 383.2226 213.50517 
L 387.963466 208.29335 
L 392.704333 203.36347 
L 397.4452 198.70033 
L 402.186066 194.289531 
L 406.926933 190.11744 
L 411.667799 186.171156 
L 416.408666 182.438468 
L 421.149533 178.907821 
L 425.890399 175.568285 
L 433.001699 170.894845 
L 440.112999 166.595691 
L 447.224299 162.640852 
L 454.335599 159.002754 
L 461.446899 155.656032 
L 468.558199 152.577349 
L 475.669499 149.74524 
L 482.780799 147.139956 
L 489.892099 144.743331 
L 497.003398 142.538654 
L 506.485132 139.871278 
L 515.966865 137.484873 
L 525.448598 135.349843 
L 534.930331 133.439708 
L 544.412065 131.730781 
L 556.264231 129.845495 
L 568.116398 128.205087 
L 579.968564 126.777749 
L 594.191164 125.307489 
L 608.413764 124.063307 
L 622.636364 123.010439 
L 622.636364 123.010439 
" style="fill:none;stroke:#8c564b;stroke-linecap:square;stroke-width:1.5;"/>
   </g>
   <g id="line2d_27">
    <path clip-path="url(#p2c3a3afbd0)" d="M 115.363636 605.290909 
L 124.84537 605.189283 
L 134.327103 604.892006 
L 143.808836 604.37969 
L 150.920136 603.821319 
L 158.031436 603.071879 
L 165.142736 602.078266 
L 169.883602 601.246333 
L 174.624469 600.249368 
L 179.365336 599.057082 
L 184.106202 597.634088 
L 188.847069 595.939379 
L 193.587935 593.925873 
L 198.328802 591.540099 
L 203.069669 588.722114 
L 207.810535 585.405778 
L 210.180969 583.538546 
L 212.551402 581.519539 
L 214.921835 579.339208 
L 217.292268 576.98789 
L 219.662702 574.455902 
L 222.033135 571.733658 
L 224.403568 568.811784 
L 226.774002 565.68127 
L 229.144435 562.333621 
L 231.514868 558.761031 
L 233.885302 554.956562 
L 236.255735 550.914336 
L 238.626168 546.629724 
L 240.996602 542.099538 
L 245.737468 532.297958 
L 250.478335 521.519296 
L 255.219201 509.805565 
L 259.960068 497.232673 
L 264.700935 483.908993 
L 269.441801 469.970723 
L 276.553101 448.256599 
L 295.516568 389.523551 
L 302.627867 368.533437 
L 307.368734 355.118532 
L 312.109601 342.230369 
L 316.850467 329.901568 
L 321.591334 318.148633 
L 326.332201 306.975309 
L 331.073067 296.375677 
L 335.813934 286.336817 
L 340.5548 276.84099 
L 345.295667 267.867339 
L 350.036534 259.393185 
L 354.7774 251.394977 
L 359.518267 243.848961 
L 364.259133 236.731652 
L 369 230.020144 
L 373.740867 223.692307 
L 378.481733 217.726911 
L 383.2226 212.103685 
L 387.963466 206.803344 
L 392.704333 201.807586 
L 397.4452 197.099075 
L 402.186066 192.661413 
L 406.926933 188.479102 
L 411.667799 184.537508 
L 416.408666 180.822819 
L 421.149533 177.322001 
L 425.890399 174.022764 
L 430.631266 170.913515 
L 437.742566 166.582134 
L 444.853866 162.619499 
L 451.965166 158.994233 
L 459.076466 155.677625 
L 466.187766 152.643401 
L 473.299065 149.867523 
L 480.410365 147.327997 
L 487.521665 145.004701 
L 494.632965 142.879225 
L 504.114698 140.324076 
L 513.596432 138.054814 
L 523.078165 136.039453 
L 532.559898 134.249587 
L 542.041631 132.659984 
L 553.893798 130.92071 
L 565.745964 129.421188 
L 577.598131 128.12837 
L 591.820731 126.810002 
L 606.043331 125.706589 
L 622.636364 124.644523 
L 622.636364 124.644523 
" style="fill:none;stroke:#e377c2;stroke-linecap:square;stroke-width:1.5;"/>
   </g>
   <g id="line2d_28">
    <path clip-path="url(#p2c3a3afbd0)" d="M 115.363636 605.290909 
L 124.84537 605.170619 
L 134.327103 604.82706 
L 143.808836 604.244199 
L 150.920136 603.613614 
L 158.031436 602.770107 
L 165.142736 601.653872 
L 169.883602 600.720209 
L 174.624469 599.602129 
L 179.365336 598.266037 
L 184.106202 596.67293 
L 188.847069 594.777961 
L 193.587935 592.530118 
L 198.328802 589.872135 
L 203.069669 586.740733 
L 205.440102 584.976247 
L 207.810535 583.067343 
L 210.180969 581.004849 
L 212.551402 578.779469 
L 214.921835 576.381881 
L 217.292268 573.802836 
L 219.662702 571.033274 
L 222.033135 568.064463 
L 224.403568 564.888143 
L 226.774002 561.496691 
L 229.144435 557.883285 
L 231.514868 554.042088 
L 233.885302 549.968422 
L 236.255735 545.658953 
L 240.996602 536.32695 
L 245.737468 526.052152 
L 250.478335 514.870702 
L 255.219201 502.850285 
L 259.960068 490.088826 
L 264.700935 476.710272 
L 271.812234 455.801763 
L 295.516568 384.884225 
L 302.627867 364.838175 
L 307.368734 352.039928 
L 312.109601 339.740224 
L 316.850467 327.961254 
L 321.591334 316.713044 
L 326.332201 305.996107 
L 331.073067 295.803778 
L 335.813934 286.124174 
L 340.5548 276.941773 
L 345.295667 268.238647 
L 350.036534 259.99541 
L 354.7774 252.191919 
L 359.518267 244.807785 
L 364.259133 237.82274 
L 369 231.216895 
L 373.740867 224.970912 
L 378.481733 219.066116 
L 383.2226 213.484563 
L 387.963466 208.209079 
L 392.704333 203.223275 
L 397.4452 198.51154 
L 402.186066 194.059036 
L 406.926933 189.851673 
L 411.667799 185.876088 
L 416.408666 182.119616 
L 421.149533 178.57026 
L 425.890399 175.216664 
L 433.001699 170.529967 
L 440.112999 166.225823 
L 447.224299 162.273092 
L 454.335599 158.643144 
L 461.446899 155.309665 
L 468.558199 152.248473 
L 475.669499 149.437352 
L 482.780799 146.855891 
L 489.892099 144.48534 
L 497.003398 142.308478 
L 506.485132 139.680138 
L 515.966865 137.334187 
L 525.448598 135.240294 
L 534.930331 133.371384 
L 544.412065 131.703288 
L 556.264231 129.867921 
L 568.116398 128.275671 
L 579.968564 126.894339 
L 594.191164 125.476082 
L 608.413764 124.280176 
L 622.636364 123.271761 
L 622.636364 123.271761 
" style="fill:none;stroke:#7f7f7f;stroke-linecap:square;stroke-width:1.5;"/>
   </g>
   <g id="line2d_29">
    <path clip-path="url(#p2c3a3afbd0)" d="M 115.363636 605.290909 
L 124.84537 605.168133 
L 134.327103 604.826636 
L 143.808836 604.257379 
L 150.920136 603.646814 
L 158.031436 602.833605 
L 165.142736 601.760258 
L 169.883602 600.863697 
L 174.624469 599.790859 
L 179.365336 598.509517 
L 184.106202 596.982237 
L 188.847069 595.165925 
L 193.587935 593.011474 
L 198.328802 590.463613 
L 203.069669 587.461042 
L 205.440102 585.768567 
L 207.810535 583.93701 
L 210.180969 581.957364 
L 212.551402 579.820465 
L 214.921835 577.517068 
L 217.292268 575.037943 
L 219.662702 572.373981 
L 222.033135 569.516315 
L 224.403568 566.45646 
L 226.774002 563.186459 
L 229.144435 559.699047 
L 231.514868 555.987815 
L 233.885302 552.047391 
L 236.255735 547.873607 
L 238.626168 543.463671 
L 243.367035 533.93198 
L 248.107901 523.463011 
L 252.848768 512.097225 
L 257.589635 499.905801 
L 262.330501 486.988904 
L 267.071368 473.471195 
L 274.182668 452.382353 
L 297.887001 381.005305 
L 304.998301 360.836577 
L 309.739167 347.959352 
L 314.480034 335.584408 
L 319.220901 323.735638 
L 323.961767 312.424877 
L 328.702634 301.654361 
L 333.4435 291.418924 
L 338.184367 281.707877 
L 342.925234 272.506544 
L 347.6661 263.797508 
L 352.406967 255.561572 
L 357.147833 247.778502 
L 361.8887 240.427584 
L 366.629567 233.48804 
L 371.370433 226.939323 
L 376.1113 220.761337 
L 380.852167 214.934575 
L 385.593033 209.440224 
L 390.3339 204.260222 
L 395.074766 199.377292 
L 399.815633 194.774955 
L 404.5565 190.437528 
L 409.297366 186.350117 
L 414.038233 182.498589 
L 418.779099 178.86956 
L 423.519966 175.450356 
L 428.260833 172.228993 
L 433.001699 169.194145 
L 440.112999 164.968342 
L 447.224299 161.104627 
L 454.335599 157.572161 
L 461.446899 154.34269 
L 468.558199 151.390331 
L 475.669499 148.691389 
L 482.780799 146.224176 
L 489.892099 143.968846 
L 497.003398 141.907242 
L 506.485132 139.431284 
L 515.966865 137.234854 
L 525.448598 135.286434 
L 534.930331 133.558048 
L 544.412065 132.024871 
L 556.264231 130.349587 
L 568.116398 128.907422 
L 579.968564 127.665952 
L 594.191164 126.402076 
L 608.413764 125.346235 
L 622.636364 124.464193 
L 622.636364 124.464193 
" style="fill:none;stroke:#bcbd22;stroke-linecap:square;stroke-width:1.5;"/>
   </g>
   <g id="line2d_30">
    <path clip-path="url(#p2c3a3afbd0)" d="M 115.363636 605.290909 
L 127.215803 604.962876 
L 131.956669 604.744187 
L 141.438403 604.416154 
L 143.808836 604.416154 
L 146.179269 603.924105 
L 153.290569 603.869432 
L 158.031436 603.705416 
L 160.401869 603.705416 
L 162.772302 603.541399 
L 165.142736 602.994678 
L 167.513169 602.940005 
L 169.883602 602.721317 
L 172.254036 602.174595 
L 179.365336 602.065251 
L 184.106202 601.955906 
L 186.476636 601.955906 
L 191.217502 601.463857 
L 193.587935 601.463857 
L 195.958369 601.29984 
L 198.328802 600.643774 
L 200.699235 600.589102 
L 203.069669 600.206397 
L 205.440102 599.058281 
L 207.810535 598.128854 
L 210.180969 597.855493 
L 212.551402 596.707377 
L 214.921835 594.684507 
L 217.292268 594.137785 
L 219.662702 593.317702 
L 224.403568 589.162617 
L 226.774002 586.538352 
L 229.144435 581.180479 
L 231.514868 576.970721 
L 233.885302 573.526374 
L 236.255735 569.863338 
L 238.626168 565.981613 
L 240.996602 561.717183 
L 243.367035 558.819558 
L 245.737468 553.735045 
L 248.107901 547.994466 
L 250.478335 541.925855 
L 252.848768 533.943717 
L 255.219201 527.219039 
L 257.589635 519.510262 
L 259.960068 504.14738 
L 262.330501 489.987285 
L 264.700935 484.410723 
L 267.071368 469.047841 
L 269.441801 463.74464 
L 271.812234 461.776441 
L 274.182668 446.249543 
L 276.553101 438.158061 
L 278.923534 423.83395 
L 281.293968 412.680826 
L 283.664401 405.901475 
L 286.034834 398.575404 
L 288.405268 390.647938 
L 290.775701 390.647938 
L 293.146134 378.40137 
L 295.516568 370.528576 
L 297.887001 363.311849 
L 300.257434 357.516598 
L 302.627867 349.807821 
L 304.998301 337.342564 
L 307.368734 333.843545 
L 309.739167 328.540343 
L 312.109601 321.214271 
L 314.480034 320.940911 
L 321.591334 303.063108 
L 323.961767 293.276788 
L 326.332201 293.276788 
L 328.702634 286.442766 
L 331.073067 281.740959 
L 333.4435 279.444727 
L 335.813934 275.891036 
L 338.184367 272.556033 
L 340.5548 265.503322 
L 342.925234 262.004303 
L 347.6661 257.794545 
L 350.036534 254.459542 
L 352.406967 251.507244 
L 354.7774 246.258715 
L 357.147833 244.345189 
L 359.518267 240.35412 
L 361.8887 238.331249 
L 364.259133 238.331249 
L 366.629567 232.645343 
L 369 228.763618 
L 371.370433 226.248698 
L 373.740867 224.772549 
L 376.1113 220.508119 
L 378.481733 219.961398 
L 380.852167 217.938527 
L 383.2226 215.423607 
L 385.593033 214.275491 
L 387.963466 212.635326 
L 390.3339 209.190978 
L 392.704333 207.168108 
L 395.074766 206.184009 
L 397.4452 204.817204 
L 399.815633 203.122367 
L 402.186066 202.739661 
L 404.5565 200.880807 
L 406.926933 200.224741 
L 409.297366 197.819165 
L 411.667799 197.381788 
L 414.038233 195.468262 
L 416.408666 194.320146 
L 418.779099 193.66408 
L 421.149533 191.586537 
L 423.519966 190.65711 
L 425.890399 190.001044 
L 428.260833 188.743584 
L 430.631266 187.923501 
L 433.001699 182.784316 
L 435.372133 180.706774 
L 437.742566 179.121281 
L 440.112999 177.973165 
L 442.483432 175.3489 
L 444.853866 174.364801 
L 447.224299 173.052669 
L 449.594732 171.521848 
L 451.965166 168.897583 
L 454.335599 167.858812 
L 459.076466 164.250448 
L 461.446899 162.719627 
L 463.817332 162.610283 
L 466.187766 162.063561 
L 468.558199 160.478068 
L 470.928632 159.931346 
L 473.299065 159.220608 
L 475.669499 157.307081 
L 478.039932 156.486999 
L 480.410365 156.486999 
L 482.780799 154.628145 
L 485.151232 154.628145 
L 487.521665 150.910437 
L 489.892099 150.910437 
L 492.262532 149.051583 
L 497.003398 148.942238 
L 499.373832 148.176828 
L 501.744265 145.279202 
L 504.114698 143.748381 
L 506.485132 143.748381 
L 508.855565 142.600266 
L 511.225998 141.780183 
L 513.596432 141.45215 
L 515.966865 139.757312 
L 518.337298 138.335836 
L 520.707732 138.335836 
L 523.078165 135.93026 
L 525.448598 135.93026 
L 527.819031 134.618128 
L 530.189465 134.618128 
L 532.559898 133.41534 
L 534.930331 133.41534 
L 537.300765 131.337797 
L 539.671198 131.337797 
L 542.041631 129.205582 
L 544.412065 128.276155 
L 546.782498 128.276155 
L 549.152931 126.854678 
L 551.523364 126.854678 
L 553.893798 125.433202 
L 556.264231 125.433202 
L 558.634664 123.957053 
L 563.375531 123.957053 
L 565.745964 122.918281 
L 568.116398 122.043527 
L 570.486831 122.043527 
L 572.857264 121.715493 
L 575.227698 120.512706 
L 577.598131 120.512706 
L 579.968564 120.239345 
L 582.338997 119.091229 
L 584.709431 119.091229 
L 587.079864 118.161802 
L 594.191164 118.161802 
L 596.561597 115.373521 
L 598.932031 115.209504 
L 601.302464 115.209504 
L 603.672897 114.116061 
L 606.043331 113.241306 
L 608.413764 112.639912 
L 613.15463 112.639912 
L 615.525064 111.546468 
L 617.895497 111.109091 
L 622.636364 111.109091 
L 622.636364 111.109091 
" style="fill:none;stroke:#17becf;stroke-dasharray:14.8,6.4;stroke-dashoffset:0;stroke-width:4;"/>
   </g>
   <g id="patch_3">
    <path d="M 90 630 
L 90 86.4 
" style="fill:none;stroke:#000000;stroke-linecap:square;stroke-linejoin:miter;stroke-width:0.8;"/>
   </g>
   <g id="patch_4">
    <path d="M 648 630 
L 648 86.4 
" style="fill:none;stroke:#000000;stroke-linecap:square;stroke-linejoin:miter;stroke-width:0.8;"/>
   </g>
   <g id="patch_5">
    <path d="M 90 630 
L 648 630 
" style="fill:none;stroke:#000000;stroke-linecap:square;stroke-linejoin:miter;stroke-width:0.8;"/>
   </g>
   <g id="patch_6">
    <path d="M 90 86.4 
L 648 86.4 
" style="fill:none;stroke:#000000;stroke-linecap:square;stroke-linejoin:miter;stroke-width:0.8;"/>
   </g>
   <g id="text_13">
    <!-- Haiti relative err =  -->
    <g transform="translate(311.320312 80.4)scale(0.12 -0.12)">
     <defs>
      <path d="M 9.8125 72.90625 
L 19.671875 72.90625 
L 19.671875 43.015625 
L 55.515625 43.015625 
L 55.515625 72.90625 
L 65.375 72.90625 
L 65.375 0 
L 55.515625 0 
L 55.515625 34.71875 
L 19.671875 34.71875 
L 19.671875 0 
L 9.8125 0 
z
" id="DejaVuSans-72"/>
      <path d="M 41.109375 46.296875 
Q 39.59375 47.171875 37.8125 47.578125 
Q 36.03125 48 33.890625 48 
Q 26.265625 48 22.1875 43.046875 
Q 18.109375 38.09375 18.109375 28.8125 
L 18.109375 0 
L 9.078125 0 
L 9.078125 54.6875 
L 18.109375 54.6875 
L 18.109375 46.1875 
Q 20.953125 51.171875 25.484375 53.578125 
Q 30.03125 56 36.53125 56 
Q 37.453125 56 38.578125 55.875 
Q 39.703125 55.765625 41.0625 55.515625 
z
" id="DejaVuSans-114"/>
      <path d="M 10.59375 45.40625 
L 73.1875 45.40625 
L 73.1875 37.203125 
L 10.59375 37.203125 
z
M 10.59375 25.484375 
L 73.1875 25.484375 
L 73.1875 17.1875 
L 10.59375 17.1875 
z
" id="DejaVuSans-61"/>
     </defs>
     <use xlink:href="#DejaVuSans-72"/>
     <use x="75.195312" xlink:href="#DejaVuSans-97"/>
     <use x="136.474609" xlink:href="#DejaVuSans-105"/>
     <use x="164.257812" xlink:href="#DejaVuSans-116"/>
     <use x="203.466797" xlink:href="#DejaVuSans-105"/>
     <use x="231.25" xlink:href="#DejaVuSans-32"/>
     <use x="263.037109" xlink:href="#DejaVuSans-114"/>
     <use x="301.900391" xlink:href="#DejaVuSans-101"/>
     <use x="363.423828" xlink:href="#DejaVuSans-108"/>
     <use x="391.207031" xlink:href="#DejaVuSans-97"/>
     <use x="452.486328" xlink:href="#DejaVuSans-116"/>
     <use x="491.695312" xlink:href="#DejaVuSans-105"/>
     <use x="519.478516" xlink:href="#DejaVuSans-118"/>
     <use x="578.658203" xlink:href="#DejaVuSans-101"/>
     <use x="640.181641" xlink:href="#DejaVuSans-32"/>
     <use x="671.96875" xlink:href="#DejaVuSans-101"/>
     <use x="733.492188" xlink:href="#DejaVuSans-114"/>
     <use x="772.855469" xlink:href="#DejaVuSans-114"/>
     <use x="813.96875" xlink:href="#DejaVuSans-32"/>
     <use x="845.755859" xlink:href="#DejaVuSans-61"/>
     <use x="929.544922" xlink:href="#DejaVuSans-32"/>
    </g>
   </g>
   <g id="legend_1">
    <g id="patch_7">
     <path d="M 97 226.503125 
L 185.6 226.503125 
Q 187.6 226.503125 187.6 224.503125 
L 187.6 93.4 
Q 187.6 91.4 185.6 91.4 
L 97 91.4 
Q 95 91.4 95 93.4 
L 95 224.503125 
Q 95 226.503125 97 226.503125 
z
" style="fill:#ffffff;opacity:0.8;stroke:#cccccc;stroke-linejoin:miter;"/>
    </g>
    <g id="line2d_31">
     <path d="M 99 99.498438 
L 119 99.498438 
" style="fill:none;stroke:#1f77b4;stroke-linecap:square;stroke-width:1.5;"/>
    </g>
    <g id="line2d_32"/>
    <g id="text_14">
     <!-- SI -->
     <g transform="translate(127 102.998438)scale(0.1 -0.1)">
      <defs>
       <path d="M 53.515625 70.515625 
L 53.515625 60.890625 
Q 47.90625 63.578125 42.921875 64.890625 
Q 37.9375 66.21875 33.296875 66.21875 
Q 25.25 66.21875 20.875 63.09375 
Q 16.5 59.96875 16.5 54.203125 
Q 16.5 49.359375 19.40625 46.890625 
Q 22.3125 44.4375 30.421875 42.921875 
L 36.375 41.703125 
Q 47.40625 39.59375 52.65625 34.296875 
Q 57.90625 29 57.90625 20.125 
Q 57.90625 9.515625 50.796875 4.046875 
Q 43.703125 -1.421875 29.984375 -1.421875 
Q 24.8125 -1.421875 18.96875 -0.25 
Q 13.140625 0.921875 6.890625 3.21875 
L 6.890625 13.375 
Q 12.890625 10.015625 18.65625 8.296875 
Q 24.421875 6.59375 29.984375 6.59375 
Q 38.421875 6.59375 43.015625 9.90625 
Q 47.609375 13.234375 47.609375 19.390625 
Q 47.609375 24.75 44.3125 27.78125 
Q 41.015625 30.8125 33.5 32.328125 
L 27.484375 33.5 
Q 16.453125 35.6875 11.515625 40.375 
Q 6.59375 45.0625 6.59375 53.421875 
Q 6.59375 63.09375 13.40625 68.65625 
Q 20.21875 74.21875 32.171875 74.21875 
Q 37.3125 74.21875 42.625 73.28125 
Q 47.953125 72.359375 53.515625 70.515625 
z
" id="DejaVuSans-83"/>
       <path d="M 9.8125 72.90625 
L 19.671875 72.90625 
L 19.671875 0 
L 9.8125 0 
z
" id="DejaVuSans-73"/>
      </defs>
      <use xlink:href="#DejaVuSans-83"/>
      <use x="63.476562" xlink:href="#DejaVuSans-73"/>
     </g>
    </g>
    <g id="line2d_33">
     <path d="M 99 114.176563 
L 119 114.176563 
" style="fill:none;stroke:#ff7f0e;stroke-linecap:square;stroke-width:1.5;"/>
    </g>
    <g id="line2d_34"/>
    <g id="text_15">
     <!-- BD -->
     <g transform="translate(127 117.676563)scale(0.1 -0.1)">
      <defs>
       <path d="M 19.671875 34.8125 
L 19.671875 8.109375 
L 35.5 8.109375 
Q 43.453125 8.109375 47.28125 11.40625 
Q 51.125 14.703125 51.125 21.484375 
Q 51.125 28.328125 47.28125 31.5625 
Q 43.453125 34.8125 35.5 34.8125 
z
M 19.671875 64.796875 
L 19.671875 42.828125 
L 34.28125 42.828125 
Q 41.5 42.828125 45.03125 45.53125 
Q 48.578125 48.25 48.578125 53.8125 
Q 48.578125 59.328125 45.03125 62.0625 
Q 41.5 64.796875 34.28125 64.796875 
z
M 9.8125 72.90625 
L 35.015625 72.90625 
Q 46.296875 72.90625 52.390625 68.21875 
Q 58.5 63.53125 58.5 54.890625 
Q 58.5 48.1875 55.375 44.234375 
Q 52.25 40.28125 46.1875 39.3125 
Q 53.46875 37.75 57.5 32.78125 
Q 61.53125 27.828125 61.53125 20.40625 
Q 61.53125 10.640625 54.890625 5.3125 
Q 48.25 0 35.984375 0 
L 9.8125 0 
z
" id="DejaVuSans-66"/>
      </defs>
      <use xlink:href="#DejaVuSans-66"/>
      <use x="68.603516" xlink:href="#DejaVuSans-68"/>
     </g>
    </g>
    <g id="line2d_35">
     <path d="M 99 128.854688 
L 119 128.854688 
" style="fill:none;stroke:#2ca02c;stroke-linecap:square;stroke-width:1.5;"/>
    </g>
    <g id="line2d_36"/>
    <g id="text_16">
     <!-- SIR -->
     <g transform="translate(127 132.354688)scale(0.1 -0.1)">
      <defs>
       <path d="M 44.390625 34.1875 
Q 47.5625 33.109375 50.5625 29.59375 
Q 53.5625 26.078125 56.59375 19.921875 
L 66.609375 0 
L 56 0 
L 46.6875 18.703125 
Q 43.0625 26.03125 39.671875 28.421875 
Q 36.28125 30.8125 30.421875 30.8125 
L 19.671875 30.8125 
L 19.671875 0 
L 9.8125 0 
L 9.8125 72.90625 
L 32.078125 72.90625 
Q 44.578125 72.90625 50.734375 67.671875 
Q 56.890625 62.453125 56.890625 51.90625 
Q 56.890625 45.015625 53.6875 40.46875 
Q 50.484375 35.9375 44.390625 34.1875 
z
M 19.671875 64.796875 
L 19.671875 38.921875 
L 32.078125 38.921875 
Q 39.203125 38.921875 42.84375 42.21875 
Q 46.484375 45.515625 46.484375 51.90625 
Q 46.484375 58.296875 42.84375 61.546875 
Q 39.203125 64.796875 32.078125 64.796875 
z
" id="DejaVuSans-82"/>
      </defs>
      <use xlink:href="#DejaVuSans-83"/>
      <use x="63.476562" xlink:href="#DejaVuSans-73"/>
      <use x="92.96875" xlink:href="#DejaVuSans-82"/>
     </g>
    </g>
    <g id="line2d_37">
     <path d="M 99 143.532812 
L 119 143.532812 
" style="fill:none;stroke:#d62728;stroke-linecap:square;stroke-width:1.5;"/>
    </g>
    <g id="line2d_38"/>
    <g id="text_17">
     <!-- eSIR -->
     <g transform="translate(127 147.032812)scale(0.1 -0.1)">
      <use xlink:href="#DejaVuSans-101"/>
      <use x="61.523438" xlink:href="#DejaVuSans-83"/>
      <use x="125" xlink:href="#DejaVuSans-73"/>
      <use x="154.492188" xlink:href="#DejaVuSans-82"/>
     </g>
    </g>
    <g id="line2d_39">
     <path d="M 99 158.210938 
L 119 158.210938 
" style="fill:none;stroke:#9467bd;stroke-linecap:square;stroke-width:1.5;"/>
    </g>
    <g id="line2d_40"/>
    <g id="text_18">
     <!-- SEIR -->
     <g transform="translate(127 161.710938)scale(0.1 -0.1)">
      <defs>
       <path d="M 9.8125 72.90625 
L 55.90625 72.90625 
L 55.90625 64.59375 
L 19.671875 64.59375 
L 19.671875 43.015625 
L 54.390625 43.015625 
L 54.390625 34.71875 
L 19.671875 34.71875 
L 19.671875 8.296875 
L 56.78125 8.296875 
L 56.78125 0 
L 9.8125 0 
z
" id="DejaVuSans-69"/>
      </defs>
      <use xlink:href="#DejaVuSans-83"/>
      <use x="63.476562" xlink:href="#DejaVuSans-69"/>
      <use x="126.660156" xlink:href="#DejaVuSans-73"/>
      <use x="156.152344" xlink:href="#DejaVuSans-82"/>
     </g>
    </g>
    <g id="line2d_41">
     <path d="M 99 172.889063 
L 119 172.889063 
" style="fill:none;stroke:#8c564b;stroke-linecap:square;stroke-width:1.5;"/>
    </g>
    <g id="line2d_42"/>
    <g id="text_19">
     <!-- eSEIR -->
     <g transform="translate(127 176.389063)scale(0.1 -0.1)">
      <use xlink:href="#DejaVuSans-101"/>
      <use x="61.523438" xlink:href="#DejaVuSans-83"/>
      <use x="125" xlink:href="#DejaVuSans-69"/>
      <use x="188.183594" xlink:href="#DejaVuSans-73"/>
      <use x="217.675781" xlink:href="#DejaVuSans-82"/>
     </g>
    </g>
    <g id="line2d_43">
     <path d="M 99 187.567188 
L 119 187.567188 
" style="fill:none;stroke:#e377c2;stroke-linecap:square;stroke-width:1.5;"/>
    </g>
    <g id="line2d_44"/>
    <g id="text_20">
     <!-- SEIUR -->
     <g transform="translate(127 191.067188)scale(0.1 -0.1)">
      <defs>
       <path d="M 8.6875 72.90625 
L 18.609375 72.90625 
L 18.609375 28.609375 
Q 18.609375 16.890625 22.84375 11.734375 
Q 27.09375 6.59375 36.625 6.59375 
Q 46.09375 6.59375 50.34375 11.734375 
Q 54.59375 16.890625 54.59375 28.609375 
L 54.59375 72.90625 
L 64.5 72.90625 
L 64.5 27.390625 
Q 64.5 13.140625 57.4375 5.859375 
Q 50.390625 -1.421875 36.625 -1.421875 
Q 22.796875 -1.421875 15.734375 5.859375 
Q 8.6875 13.140625 8.6875 27.390625 
z
" id="DejaVuSans-85"/>
      </defs>
      <use xlink:href="#DejaVuSans-83"/>
      <use x="63.476562" xlink:href="#DejaVuSans-69"/>
      <use x="126.660156" xlink:href="#DejaVuSans-73"/>
      <use x="156.152344" xlink:href="#DejaVuSans-85"/>
      <use x="229.345703" xlink:href="#DejaVuSans-82"/>
     </g>
    </g>
    <g id="line2d_45">
     <path d="M 99 202.245312 
L 119 202.245312 
" style="fill:none;stroke:#7f7f7f;stroke-linecap:square;stroke-width:1.5;"/>
    </g>
    <g id="line2d_46"/>
    <g id="text_21">
     <!-- eSEIUR -->
     <g transform="translate(127 205.745312)scale(0.1 -0.1)">
      <use xlink:href="#DejaVuSans-101"/>
      <use x="61.523438" xlink:href="#DejaVuSans-83"/>
      <use x="125" xlink:href="#DejaVuSans-69"/>
      <use x="188.183594" xlink:href="#DejaVuSans-73"/>
      <use x="217.675781" xlink:href="#DejaVuSans-85"/>
      <use x="290.869141" xlink:href="#DejaVuSans-82"/>
     </g>
    </g>
    <g id="line2d_47">
     <path d="M 99 216.923437 
L 119 216.923437 
" style="fill:none;stroke:#bcbd22;stroke-linecap:square;stroke-width:1.5;"/>
    </g>
    <g id="line2d_48"/>
    <g id="text_22">
     <!-- eSEIUR$^{range}$ -->
     <g transform="translate(127 220.423437)scale(0.1 -0.1)">
      <defs>
       <path d="M 44.578125 46.390625 
Q 43.21875 47.125 41.453125 47.515625 
Q 39.703125 47.90625 37.703125 47.90625 
Q 30.515625 47.90625 25.140625 42.453125 
Q 19.78125 37.015625 18.015625 27.875 
L 12.5 0 
L 3.515625 0 
L 14.203125 54.6875 
L 23.1875 54.6875 
L 21.484375 46.1875 
Q 25.046875 50.921875 30 53.453125 
Q 34.96875 56 40.578125 56 
Q 42.046875 56 43.453125 55.828125 
Q 44.875 55.671875 46.296875 55.28125 
z
" id="DejaVuSans-Oblique-114"/>
       <path d="M 53.71875 31.203125 
L 47.609375 0 
L 38.625 0 
L 40.28125 8.296875 
Q 36.328125 3.421875 31.265625 1 
Q 26.21875 -1.421875 20.015625 -1.421875 
Q 13.03125 -1.421875 8.5625 2.84375 
Q 4.109375 7.125 4.109375 13.8125 
Q 4.109375 23.390625 11.75 28.953125 
Q 19.390625 34.515625 32.8125 34.515625 
L 45.3125 34.515625 
L 45.796875 36.921875 
Q 45.90625 37.3125 45.953125 37.765625 
Q 46 38.234375 46 39.203125 
Q 46 43.5625 42.453125 45.96875 
Q 38.921875 48.390625 32.515625 48.390625 
Q 28.125 48.390625 23.5 47.265625 
Q 18.890625 46.140625 14.015625 43.890625 
L 15.578125 52.203125 
Q 20.65625 54.109375 25.515625 55.046875 
Q 30.375 56 34.90625 56 
Q 44.578125 56 49.625 51.796875 
Q 54.6875 47.609375 54.6875 39.59375 
Q 54.6875 37.984375 54.4375 35.8125 
Q 54.203125 33.640625 53.71875 31.203125 
z
M 44 27.484375 
L 35.015625 27.484375 
Q 23.96875 27.484375 18.671875 24.53125 
Q 13.375 21.578125 13.375 15.375 
Q 13.375 11.078125 16.078125 8.640625 
Q 18.796875 6.203125 23.578125 6.203125 
Q 30.90625 6.203125 36.375 11.453125 
Q 41.84375 16.703125 43.609375 25.484375 
z
" id="DejaVuSans-Oblique-97"/>
       <path d="M 55.71875 33.015625 
L 49.3125 0 
L 40.28125 0 
L 46.6875 32.671875 
Q 47.125 34.96875 47.359375 36.71875 
Q 47.609375 38.484375 47.609375 39.5 
Q 47.609375 43.609375 45.015625 45.890625 
Q 42.4375 48.1875 37.796875 48.1875 
Q 30.5625 48.1875 25.34375 43.375 
Q 20.125 38.578125 18.5 30.328125 
L 12.5 0 
L 3.515625 0 
L 14.109375 54.6875 
L 23.09375 54.6875 
L 21.296875 46.09375 
Q 25.046875 50.828125 30.3125 53.40625 
Q 35.59375 56 41.40625 56 
Q 48.640625 56 52.609375 52.09375 
Q 56.59375 48.1875 56.59375 41.109375 
Q 56.59375 39.359375 56.375 37.359375 
Q 56.15625 35.359375 55.71875 33.015625 
z
" id="DejaVuSans-Oblique-110"/>
       <path d="M 59.625 54.6875 
L 50.296875 6.78125 
Q 47.609375 -7.125 40.015625 -13.953125 
Q 32.421875 -20.796875 19.578125 -20.796875 
Q 14.84375 -20.796875 10.78125 -20.09375 
Q 6.734375 -19.390625 3.21875 -17.921875 
L 4.890625 -9.1875 
Q 8.203125 -11.328125 11.90625 -12.34375 
Q 15.625 -13.375 19.828125 -13.375 
Q 28.375 -13.375 33.859375 -8.703125 
Q 39.359375 -4.046875 41.109375 4.6875 
L 41.890625 8.796875 
Q 38.140625 4.5 33.15625 2.25 
Q 28.171875 0 22.40625 0 
Q 14.109375 0 9.34375 5.484375 
Q 4.59375 10.984375 4.59375 20.609375 
Q 4.59375 28.171875 7.46875 35.421875 
Q 10.359375 42.671875 15.578125 48.296875 
Q 19.046875 52 23.65625 54 
Q 28.265625 56 33.296875 56 
Q 38.8125 56 42.90625 53.4375 
Q 47.015625 50.875 49.03125 46.1875 
L 50.59375 54.6875 
z
M 46.09375 34.625 
Q 46.09375 41.265625 42.96875 44.875 
Q 39.84375 48.484375 34.078125 48.484375 
Q 30.515625 48.484375 27.296875 47.0625 
Q 24.078125 45.65625 21.78125 43.109375 
Q 18.0625 38.921875 15.984375 33.234375 
Q 13.921875 27.546875 13.921875 21.484375 
Q 13.921875 14.75 17.0625 11.125 
Q 20.21875 7.515625 26.125 7.515625 
Q 34.671875 7.515625 40.375 15.25 
Q 46.09375 23 46.09375 34.625 
z
" id="DejaVuSans-Oblique-103"/>
       <path d="M 48.09375 32.234375 
Q 48.25 33.015625 48.3125 33.84375 
Q 48.390625 34.671875 48.390625 35.5 
Q 48.390625 41.453125 44.890625 44.921875 
Q 41.40625 48.390625 35.40625 48.390625 
Q 28.71875 48.390625 23.578125 44.15625 
Q 18.453125 39.9375 15.828125 32.171875 
z
M 55.90625 25.203125 
L 14.109375 25.203125 
Q 13.8125 23.34375 13.71875 22.265625 
Q 13.625 21.1875 13.625 20.40625 
Q 13.625 13.625 17.796875 9.90625 
Q 21.96875 6.203125 29.59375 6.203125 
Q 35.453125 6.203125 40.671875 7.515625 
Q 45.90625 8.84375 50.390625 11.375 
L 48.6875 2.484375 
Q 43.84375 0.53125 38.6875 -0.4375 
Q 33.546875 -1.421875 28.21875 -1.421875 
Q 16.84375 -1.421875 10.71875 4.015625 
Q 4.59375 9.46875 4.59375 19.484375 
Q 4.59375 28.03125 7.640625 35.375 
Q 10.6875 42.71875 16.609375 48.484375 
Q 20.40625 52.09375 25.65625 54.046875 
Q 30.90625 56 36.8125 56 
Q 46.09375 56 51.578125 50.4375 
Q 57.078125 44.875 57.078125 35.5 
Q 57.078125 33.25 56.78125 30.6875 
Q 56.5 28.125 55.90625 25.203125 
z
" id="DejaVuSans-Oblique-101"/>
      </defs>
      <use transform="translate(0 0.51875)" xlink:href="#DejaVuSans-101"/>
      <use transform="translate(61.523438 0.51875)" xlink:href="#DejaVuSans-83"/>
      <use transform="translate(125 0.51875)" xlink:href="#DejaVuSans-69"/>
      <use transform="translate(188.183594 0.51875)" xlink:href="#DejaVuSans-73"/>
      <use transform="translate(217.675781 0.51875)" xlink:href="#DejaVuSans-85"/>
      <use transform="translate(288.619141 0.51875)" xlink:href="#DejaVuSans-82"/>
      <use transform="translate(359.058594 38.8)scale(0.7)" xlink:href="#DejaVuSans-Oblique-114"/>
      <use transform="translate(387.837891 38.8)scale(0.7)" xlink:href="#DejaVuSans-Oblique-97"/>
      <use transform="translate(430.733398 38.8)scale(0.7)" xlink:href="#DejaVuSans-Oblique-110"/>
      <use transform="translate(475.098633 38.8)scale(0.7)" xlink:href="#DejaVuSans-Oblique-103"/>
      <use transform="translate(519.532227 38.8)scale(0.7)" xlink:href="#DejaVuSans-Oblique-101"/>
     </g>
    </g>
   </g>
  </g>
 </g>
 <defs>
  <clipPath id="p2c3a3afbd0">
   <rect height="543.6" width="558" x="90" y="86.4"/>
  </clipPath>
 </defs>
</svg>
