<?xml version="1.0" encoding="utf-8" standalone="no"?>
<!DOCTYPE svg PUBLIC "-//W3C//DTD SVG 1.1//EN"
  "http://www.w3.org/Graphics/SVG/1.1/DTD/svg11.dtd">
<!-- Created with matplotlib (https://matplotlib.org/) -->
<svg height="720pt" version="1.1" viewBox="0 0 720 720" width="720pt" xmlns="http://www.w3.org/2000/svg" xmlns:xlink="http://www.w3.org/1999/xlink">
 <metadata>
  <rdf:RDF xmlns:cc="http://creativecommons.org/ns#" xmlns:dc="http://purl.org/dc/elements/1.1/" xmlns:rdf="http://www.w3.org/1999/02/22-rdf-syntax-ns#">
   <cc:Work>
    <dc:type rdf:resource="http://purl.org/dc/dcmitype/StillImage"/>
    <dc:date>2022-10-11T20:58:32.819396</dc:date>
    <dc:format>image/svg+xml</dc:format>
    <dc:creator>
     <cc:Agent>
      <dc:title>Matplotlib v3.3.2, https://matplotlib.org/</dc:title>
     </cc:Agent>
    </dc:creator>
   </cc:Work>
  </rdf:RDF>
 </metadata>
 <defs>
  <style type="text/css">*{stroke-linecap:butt;stroke-linejoin:round;}</style>
 </defs>
 <g id="figure_1">
  <g id="patch_1">
   <path d="M 0 720 
L 720 720 
L 720 0 
L 0 0 
z
" style="fill:none;"/>
  </g>
  <g id="axes_1">
   <g id="patch_2">
    <path d="M 90 630 
L 648 630 
L 648 86.4 
L 90 86.4 
z
" style="fill:#ffffff;"/>
   </g>
   <g id="matplotlib.axis_1">
    <g id="xtick_1">
     <g id="line2d_1">
      <path clip-path="url(#p105e16a2cc)" d="M 115.363636 630 
L 115.363636 86.4 
" style="fill:none;stroke:#b0b0b0;stroke-linecap:square;stroke-width:0.8;"/>
     </g>
     <g id="line2d_2">
      <defs>
       <path d="M 0 0 
L 0 3.5 
" id="md4c63c08f0" style="stroke:#000000;stroke-width:0.8;"/>
      </defs>
      <g>
       <use style="stroke:#000000;stroke-width:0.8;" x="115.363636" xlink:href="#md4c63c08f0" y="630"/>
      </g>
     </g>
     <g id="text_1">
      <!-- 0 -->
      <g transform="translate(112.182386 644.598438)scale(0.1 -0.1)">
       <defs>
        <path d="M 31.78125 66.40625 
Q 24.171875 66.40625 20.328125 58.90625 
Q 16.5 51.421875 16.5 36.375 
Q 16.5 21.390625 20.328125 13.890625 
Q 24.171875 6.390625 31.78125 6.390625 
Q 39.453125 6.390625 43.28125 13.890625 
Q 47.125 21.390625 47.125 36.375 
Q 47.125 51.421875 43.28125 58.90625 
Q 39.453125 66.40625 31.78125 66.40625 
z
M 31.78125 74.21875 
Q 44.046875 74.21875 50.515625 64.515625 
Q 56.984375 54.828125 56.984375 36.375 
Q 56.984375 17.96875 50.515625 8.265625 
Q 44.046875 -1.421875 31.78125 -1.421875 
Q 19.53125 -1.421875 13.0625 8.265625 
Q 6.59375 17.96875 6.59375 36.375 
Q 6.59375 54.828125 13.0625 64.515625 
Q 19.53125 74.21875 31.78125 74.21875 
z
" id="DejaVuSans-48"/>
       </defs>
       <use xlink:href="#DejaVuSans-48"/>
      </g>
     </g>
    </g>
    <g id="xtick_2">
     <g id="line2d_3">
      <path clip-path="url(#p105e16a2cc)" d="M 217.842975 630 
L 217.842975 86.4 
" style="fill:none;stroke:#b0b0b0;stroke-linecap:square;stroke-width:0.8;"/>
     </g>
     <g id="line2d_4">
      <g>
       <use style="stroke:#000000;stroke-width:0.8;" x="217.842975" xlink:href="#md4c63c08f0" y="630"/>
      </g>
     </g>
     <g id="text_2">
      <!-- 20 -->
      <g transform="translate(211.480475 644.598438)scale(0.1 -0.1)">
       <defs>
        <path d="M 19.1875 8.296875 
L 53.609375 8.296875 
L 53.609375 0 
L 7.328125 0 
L 7.328125 8.296875 
Q 12.9375 14.109375 22.625 23.890625 
Q 32.328125 33.6875 34.8125 36.53125 
Q 39.546875 41.84375 41.421875 45.53125 
Q 43.3125 49.21875 43.3125 52.78125 
Q 43.3125 58.59375 39.234375 62.25 
Q 35.15625 65.921875 28.609375 65.921875 
Q 23.96875 65.921875 18.8125 64.3125 
Q 13.671875 62.703125 7.8125 59.421875 
L 7.8125 69.390625 
Q 13.765625 71.78125 18.9375 73 
Q 24.125 74.21875 28.421875 74.21875 
Q 39.75 74.21875 46.484375 68.546875 
Q 53.21875 62.890625 53.21875 53.421875 
Q 53.21875 48.921875 51.53125 44.890625 
Q 49.859375 40.875 45.40625 35.40625 
Q 44.1875 33.984375 37.640625 27.21875 
Q 31.109375 20.453125 19.1875 8.296875 
z
" id="DejaVuSans-50"/>
       </defs>
       <use xlink:href="#DejaVuSans-50"/>
       <use x="63.623047" xlink:href="#DejaVuSans-48"/>
      </g>
     </g>
    </g>
    <g id="xtick_3">
     <g id="line2d_5">
      <path clip-path="url(#p105e16a2cc)" d="M 320.322314 630 
L 320.322314 86.4 
" style="fill:none;stroke:#b0b0b0;stroke-linecap:square;stroke-width:0.8;"/>
     </g>
     <g id="line2d_6">
      <g>
       <use style="stroke:#000000;stroke-width:0.8;" x="320.322314" xlink:href="#md4c63c08f0" y="630"/>
      </g>
     </g>
     <g id="text_3">
      <!-- 40 -->
      <g transform="translate(313.959814 644.598438)scale(0.1 -0.1)">
       <defs>
        <path d="M 37.796875 64.3125 
L 12.890625 25.390625 
L 37.796875 25.390625 
z
M 35.203125 72.90625 
L 47.609375 72.90625 
L 47.609375 25.390625 
L 58.015625 25.390625 
L 58.015625 17.1875 
L 47.609375 17.1875 
L 47.609375 0 
L 37.796875 0 
L 37.796875 17.1875 
L 4.890625 17.1875 
L 4.890625 26.703125 
z
" id="DejaVuSans-52"/>
       </defs>
       <use xlink:href="#DejaVuSans-52"/>
       <use x="63.623047" xlink:href="#DejaVuSans-48"/>
      </g>
     </g>
    </g>
    <g id="xtick_4">
     <g id="line2d_7">
      <path clip-path="url(#p105e16a2cc)" d="M 422.801653 630 
L 422.801653 86.4 
" style="fill:none;stroke:#b0b0b0;stroke-linecap:square;stroke-width:0.8;"/>
     </g>
     <g id="line2d_8">
      <g>
       <use style="stroke:#000000;stroke-width:0.8;" x="422.801653" xlink:href="#md4c63c08f0" y="630"/>
      </g>
     </g>
     <g id="text_4">
      <!-- 60 -->
      <g transform="translate(416.439153 644.598438)scale(0.1 -0.1)">
       <defs>
        <path d="M 33.015625 40.375 
Q 26.375 40.375 22.484375 35.828125 
Q 18.609375 31.296875 18.609375 23.390625 
Q 18.609375 15.53125 22.484375 10.953125 
Q 26.375 6.390625 33.015625 6.390625 
Q 39.65625 6.390625 43.53125 10.953125 
Q 47.40625 15.53125 47.40625 23.390625 
Q 47.40625 31.296875 43.53125 35.828125 
Q 39.65625 40.375 33.015625 40.375 
z
M 52.59375 71.296875 
L 52.59375 62.3125 
Q 48.875 64.0625 45.09375 64.984375 
Q 41.3125 65.921875 37.59375 65.921875 
Q 27.828125 65.921875 22.671875 59.328125 
Q 17.53125 52.734375 16.796875 39.40625 
Q 19.671875 43.65625 24.015625 45.921875 
Q 28.375 48.1875 33.59375 48.1875 
Q 44.578125 48.1875 50.953125 41.515625 
Q 57.328125 34.859375 57.328125 23.390625 
Q 57.328125 12.15625 50.6875 5.359375 
Q 44.046875 -1.421875 33.015625 -1.421875 
Q 20.359375 -1.421875 13.671875 8.265625 
Q 6.984375 17.96875 6.984375 36.375 
Q 6.984375 53.65625 15.1875 63.9375 
Q 23.390625 74.21875 37.203125 74.21875 
Q 40.921875 74.21875 44.703125 73.484375 
Q 48.484375 72.75 52.59375 71.296875 
z
" id="DejaVuSans-54"/>
       </defs>
       <use xlink:href="#DejaVuSans-54"/>
       <use x="63.623047" xlink:href="#DejaVuSans-48"/>
      </g>
     </g>
    </g>
    <g id="xtick_5">
     <g id="line2d_9">
      <path clip-path="url(#p105e16a2cc)" d="M 525.280992 630 
L 525.280992 86.4 
" style="fill:none;stroke:#b0b0b0;stroke-linecap:square;stroke-width:0.8;"/>
     </g>
     <g id="line2d_10">
      <g>
       <use style="stroke:#000000;stroke-width:0.8;" x="525.280992" xlink:href="#md4c63c08f0" y="630"/>
      </g>
     </g>
     <g id="text_5">
      <!-- 80 -->
      <g transform="translate(518.918492 644.598438)scale(0.1 -0.1)">
       <defs>
        <path d="M 31.78125 34.625 
Q 24.75 34.625 20.71875 30.859375 
Q 16.703125 27.09375 16.703125 20.515625 
Q 16.703125 13.921875 20.71875 10.15625 
Q 24.75 6.390625 31.78125 6.390625 
Q 38.8125 6.390625 42.859375 10.171875 
Q 46.921875 13.96875 46.921875 20.515625 
Q 46.921875 27.09375 42.890625 30.859375 
Q 38.875 34.625 31.78125 34.625 
z
M 21.921875 38.8125 
Q 15.578125 40.375 12.03125 44.71875 
Q 8.5 49.078125 8.5 55.328125 
Q 8.5 64.0625 14.71875 69.140625 
Q 20.953125 74.21875 31.78125 74.21875 
Q 42.671875 74.21875 48.875 69.140625 
Q 55.078125 64.0625 55.078125 55.328125 
Q 55.078125 49.078125 51.53125 44.71875 
Q 48 40.375 41.703125 38.8125 
Q 48.828125 37.15625 52.796875 32.3125 
Q 56.78125 27.484375 56.78125 20.515625 
Q 56.78125 9.90625 50.3125 4.234375 
Q 43.84375 -1.421875 31.78125 -1.421875 
Q 19.734375 -1.421875 13.25 4.234375 
Q 6.78125 9.90625 6.78125 20.515625 
Q 6.78125 27.484375 10.78125 32.3125 
Q 14.796875 37.15625 21.921875 38.8125 
z
M 18.3125 54.390625 
Q 18.3125 48.734375 21.84375 45.5625 
Q 25.390625 42.390625 31.78125 42.390625 
Q 38.140625 42.390625 41.71875 45.5625 
Q 45.3125 48.734375 45.3125 54.390625 
Q 45.3125 60.0625 41.71875 63.234375 
Q 38.140625 66.40625 31.78125 66.40625 
Q 25.390625 66.40625 21.84375 63.234375 
Q 18.3125 60.0625 18.3125 54.390625 
z
" id="DejaVuSans-56"/>
       </defs>
       <use xlink:href="#DejaVuSans-56"/>
       <use x="63.623047" xlink:href="#DejaVuSans-48"/>
      </g>
     </g>
    </g>
    <g id="xtick_6">
     <g id="line2d_11">
      <path clip-path="url(#p105e16a2cc)" d="M 627.760331 630 
L 627.760331 86.4 
" style="fill:none;stroke:#b0b0b0;stroke-linecap:square;stroke-width:0.8;"/>
     </g>
     <g id="line2d_12">
      <g>
       <use style="stroke:#000000;stroke-width:0.8;" x="627.760331" xlink:href="#md4c63c08f0" y="630"/>
      </g>
     </g>
     <g id="text_6">
      <!-- 100 -->
      <g transform="translate(618.216581 644.598438)scale(0.1 -0.1)">
       <defs>
        <path d="M 12.40625 8.296875 
L 28.515625 8.296875 
L 28.515625 63.921875 
L 10.984375 60.40625 
L 10.984375 69.390625 
L 28.421875 72.90625 
L 38.28125 72.90625 
L 38.28125 8.296875 
L 54.390625 8.296875 
L 54.390625 0 
L 12.40625 0 
z
" id="DejaVuSans-49"/>
       </defs>
       <use xlink:href="#DejaVuSans-49"/>
       <use x="63.623047" xlink:href="#DejaVuSans-48"/>
       <use x="127.246094" xlink:href="#DejaVuSans-48"/>
      </g>
     </g>
    </g>
    <g id="text_7">
     <!-- Days -->
     <g transform="translate(356.521875 658.276562)scale(0.1 -0.1)">
      <defs>
       <path d="M 19.671875 64.796875 
L 19.671875 8.109375 
L 31.59375 8.109375 
Q 46.6875 8.109375 53.6875 14.9375 
Q 60.6875 21.78125 60.6875 36.53125 
Q 60.6875 51.171875 53.6875 57.984375 
Q 46.6875 64.796875 31.59375 64.796875 
z
M 9.8125 72.90625 
L 30.078125 72.90625 
Q 51.265625 72.90625 61.171875 64.09375 
Q 71.09375 55.28125 71.09375 36.53125 
Q 71.09375 17.671875 61.125 8.828125 
Q 51.171875 0 30.078125 0 
L 9.8125 0 
z
" id="DejaVuSans-68"/>
       <path d="M 34.28125 27.484375 
Q 23.390625 27.484375 19.1875 25 
Q 14.984375 22.515625 14.984375 16.5 
Q 14.984375 11.71875 18.140625 8.90625 
Q 21.296875 6.109375 26.703125 6.109375 
Q 34.1875 6.109375 38.703125 11.40625 
Q 43.21875 16.703125 43.21875 25.484375 
L 43.21875 27.484375 
z
M 52.203125 31.203125 
L 52.203125 0 
L 43.21875 0 
L 43.21875 8.296875 
Q 40.140625 3.328125 35.546875 0.953125 
Q 30.953125 -1.421875 24.3125 -1.421875 
Q 15.921875 -1.421875 10.953125 3.296875 
Q 6 8.015625 6 15.921875 
Q 6 25.140625 12.171875 29.828125 
Q 18.359375 34.515625 30.609375 34.515625 
L 43.21875 34.515625 
L 43.21875 35.40625 
Q 43.21875 41.609375 39.140625 45 
Q 35.0625 48.390625 27.6875 48.390625 
Q 23 48.390625 18.546875 47.265625 
Q 14.109375 46.140625 10.015625 43.890625 
L 10.015625 52.203125 
Q 14.9375 54.109375 19.578125 55.046875 
Q 24.21875 56 28.609375 56 
Q 40.484375 56 46.34375 49.84375 
Q 52.203125 43.703125 52.203125 31.203125 
z
" id="DejaVuSans-97"/>
       <path d="M 32.171875 -5.078125 
Q 28.375 -14.84375 24.75 -17.8125 
Q 21.140625 -20.796875 15.09375 -20.796875 
L 7.90625 -20.796875 
L 7.90625 -13.28125 
L 13.1875 -13.28125 
Q 16.890625 -13.28125 18.9375 -11.515625 
Q 21 -9.765625 23.484375 -3.21875 
L 25.09375 0.875 
L 2.984375 54.6875 
L 12.5 54.6875 
L 29.59375 11.921875 
L 46.6875 54.6875 
L 56.203125 54.6875 
z
" id="DejaVuSans-121"/>
       <path d="M 44.28125 53.078125 
L 44.28125 44.578125 
Q 40.484375 46.53125 36.375 47.5 
Q 32.28125 48.484375 27.875 48.484375 
Q 21.1875 48.484375 17.84375 46.4375 
Q 14.5 44.390625 14.5 40.28125 
Q 14.5 37.15625 16.890625 35.375 
Q 19.28125 33.59375 26.515625 31.984375 
L 29.59375 31.296875 
Q 39.15625 29.25 43.1875 25.515625 
Q 47.21875 21.78125 47.21875 15.09375 
Q 47.21875 7.46875 41.1875 3.015625 
Q 35.15625 -1.421875 24.609375 -1.421875 
Q 20.21875 -1.421875 15.453125 -0.5625 
Q 10.6875 0.296875 5.421875 2 
L 5.421875 11.28125 
Q 10.40625 8.6875 15.234375 7.390625 
Q 20.0625 6.109375 24.8125 6.109375 
Q 31.15625 6.109375 34.5625 8.28125 
Q 37.984375 10.453125 37.984375 14.40625 
Q 37.984375 18.0625 35.515625 20.015625 
Q 33.0625 21.96875 24.703125 23.78125 
L 21.578125 24.515625 
Q 13.234375 26.265625 9.515625 29.90625 
Q 5.8125 33.546875 5.8125 39.890625 
Q 5.8125 47.609375 11.28125 51.796875 
Q 16.75 56 26.8125 56 
Q 31.78125 56 36.171875 55.265625 
Q 40.578125 54.546875 44.28125 53.078125 
z
" id="DejaVuSans-115"/>
      </defs>
      <use xlink:href="#DejaVuSans-68"/>
      <use x="77.001953" xlink:href="#DejaVuSans-97"/>
      <use x="138.28125" xlink:href="#DejaVuSans-121"/>
      <use x="197.460938" xlink:href="#DejaVuSans-115"/>
     </g>
    </g>
   </g>
   <g id="matplotlib.axis_2">
    <g id="ytick_1">
     <g id="line2d_13">
      <path clip-path="url(#p105e16a2cc)" d="M 90 605.480293 
L 648 605.480293 
" style="fill:none;stroke:#b0b0b0;stroke-linecap:square;stroke-width:0.8;"/>
     </g>
     <g id="line2d_14">
      <defs>
       <path d="M 0 0 
L -3.5 0 
" id="m4bf8a3a2c3" style="stroke:#000000;stroke-width:0.8;"/>
      </defs>
      <g>
       <use style="stroke:#000000;stroke-width:0.8;" x="90" xlink:href="#m4bf8a3a2c3" y="605.480293"/>
      </g>
     </g>
     <g id="text_8">
      <!-- 0 -->
      <g transform="translate(76.6375 609.279511)scale(0.1 -0.1)">
       <use xlink:href="#DejaVuSans-48"/>
      </g>
     </g>
    </g>
    <g id="ytick_2">
     <g id="line2d_15">
      <path clip-path="url(#p105e16a2cc)" d="M 90 523.139646 
L 648 523.139646 
" style="fill:none;stroke:#b0b0b0;stroke-linecap:square;stroke-width:0.8;"/>
     </g>
     <g id="line2d_16">
      <g>
       <use style="stroke:#000000;stroke-width:0.8;" x="90" xlink:href="#m4bf8a3a2c3" y="523.139646"/>
      </g>
     </g>
     <g id="text_9">
      <!-- 10000 -->
      <g transform="translate(51.1875 526.938864)scale(0.1 -0.1)">
       <use xlink:href="#DejaVuSans-49"/>
       <use x="63.623047" xlink:href="#DejaVuSans-48"/>
       <use x="127.246094" xlink:href="#DejaVuSans-48"/>
       <use x="190.869141" xlink:href="#DejaVuSans-48"/>
       <use x="254.492188" xlink:href="#DejaVuSans-48"/>
      </g>
     </g>
    </g>
    <g id="ytick_3">
     <g id="line2d_17">
      <path clip-path="url(#p105e16a2cc)" d="M 90 440.798998 
L 648 440.798998 
" style="fill:none;stroke:#b0b0b0;stroke-linecap:square;stroke-width:0.8;"/>
     </g>
     <g id="line2d_18">
      <g>
       <use style="stroke:#000000;stroke-width:0.8;" x="90" xlink:href="#m4bf8a3a2c3" y="440.798998"/>
      </g>
     </g>
     <g id="text_10">
      <!-- 20000 -->
      <g transform="translate(51.1875 444.598217)scale(0.1 -0.1)">
       <use xlink:href="#DejaVuSans-50"/>
       <use x="63.623047" xlink:href="#DejaVuSans-48"/>
       <use x="127.246094" xlink:href="#DejaVuSans-48"/>
       <use x="190.869141" xlink:href="#DejaVuSans-48"/>
       <use x="254.492188" xlink:href="#DejaVuSans-48"/>
      </g>
     </g>
    </g>
    <g id="ytick_4">
     <g id="line2d_19">
      <path clip-path="url(#p105e16a2cc)" d="M 90 358.458351 
L 648 358.458351 
" style="fill:none;stroke:#b0b0b0;stroke-linecap:square;stroke-width:0.8;"/>
     </g>
     <g id="line2d_20">
      <g>
       <use style="stroke:#000000;stroke-width:0.8;" x="90" xlink:href="#m4bf8a3a2c3" y="358.458351"/>
      </g>
     </g>
     <g id="text_11">
      <!-- 30000 -->
      <g transform="translate(51.1875 362.25757)scale(0.1 -0.1)">
       <defs>
        <path d="M 40.578125 39.3125 
Q 47.65625 37.796875 51.625 33 
Q 55.609375 28.21875 55.609375 21.1875 
Q 55.609375 10.40625 48.1875 4.484375 
Q 40.765625 -1.421875 27.09375 -1.421875 
Q 22.515625 -1.421875 17.65625 -0.515625 
Q 12.796875 0.390625 7.625 2.203125 
L 7.625 11.71875 
Q 11.71875 9.328125 16.59375 8.109375 
Q 21.484375 6.890625 26.8125 6.890625 
Q 36.078125 6.890625 40.9375 10.546875 
Q 45.796875 14.203125 45.796875 21.1875 
Q 45.796875 27.640625 41.28125 31.265625 
Q 36.765625 34.90625 28.71875 34.90625 
L 20.21875 34.90625 
L 20.21875 43.015625 
L 29.109375 43.015625 
Q 36.375 43.015625 40.234375 45.921875 
Q 44.09375 48.828125 44.09375 54.296875 
Q 44.09375 59.90625 40.109375 62.90625 
Q 36.140625 65.921875 28.71875 65.921875 
Q 24.65625 65.921875 20.015625 65.03125 
Q 15.375 64.15625 9.8125 62.3125 
L 9.8125 71.09375 
Q 15.4375 72.65625 20.34375 73.4375 
Q 25.25 74.21875 29.59375 74.21875 
Q 40.828125 74.21875 47.359375 69.109375 
Q 53.90625 64.015625 53.90625 55.328125 
Q 53.90625 49.265625 50.4375 45.09375 
Q 46.96875 40.921875 40.578125 39.3125 
z
" id="DejaVuSans-51"/>
       </defs>
       <use xlink:href="#DejaVuSans-51"/>
       <use x="63.623047" xlink:href="#DejaVuSans-48"/>
       <use x="127.246094" xlink:href="#DejaVuSans-48"/>
       <use x="190.869141" xlink:href="#DejaVuSans-48"/>
       <use x="254.492188" xlink:href="#DejaVuSans-48"/>
      </g>
     </g>
    </g>
    <g id="ytick_5">
     <g id="line2d_21">
      <path clip-path="url(#p105e16a2cc)" d="M 90 276.117704 
L 648 276.117704 
" style="fill:none;stroke:#b0b0b0;stroke-linecap:square;stroke-width:0.8;"/>
     </g>
     <g id="line2d_22">
      <g>
       <use style="stroke:#000000;stroke-width:0.8;" x="90" xlink:href="#m4bf8a3a2c3" y="276.117704"/>
      </g>
     </g>
     <g id="text_12">
      <!-- 40000 -->
      <g transform="translate(51.1875 279.916923)scale(0.1 -0.1)">
       <use xlink:href="#DejaVuSans-52"/>
       <use x="63.623047" xlink:href="#DejaVuSans-48"/>
       <use x="127.246094" xlink:href="#DejaVuSans-48"/>
       <use x="190.869141" xlink:href="#DejaVuSans-48"/>
       <use x="254.492188" xlink:href="#DejaVuSans-48"/>
      </g>
     </g>
    </g>
    <g id="ytick_6">
     <g id="line2d_23">
      <path clip-path="url(#p105e16a2cc)" d="M 90 193.777057 
L 648 193.777057 
" style="fill:none;stroke:#b0b0b0;stroke-linecap:square;stroke-width:0.8;"/>
     </g>
     <g id="line2d_24">
      <g>
       <use style="stroke:#000000;stroke-width:0.8;" x="90" xlink:href="#m4bf8a3a2c3" y="193.777057"/>
      </g>
     </g>
     <g id="text_13">
      <!-- 50000 -->
      <g transform="translate(51.1875 197.576276)scale(0.1 -0.1)">
       <defs>
        <path d="M 10.796875 72.90625 
L 49.515625 72.90625 
L 49.515625 64.59375 
L 19.828125 64.59375 
L 19.828125 46.734375 
Q 21.96875 47.46875 24.109375 47.828125 
Q 26.265625 48.1875 28.421875 48.1875 
Q 40.625 48.1875 47.75 41.5 
Q 54.890625 34.8125 54.890625 23.390625 
Q 54.890625 11.625 47.5625 5.09375 
Q 40.234375 -1.421875 26.90625 -1.421875 
Q 22.3125 -1.421875 17.546875 -0.640625 
Q 12.796875 0.140625 7.71875 1.703125 
L 7.71875 11.625 
Q 12.109375 9.234375 16.796875 8.0625 
Q 21.484375 6.890625 26.703125 6.890625 
Q 35.15625 6.890625 40.078125 11.328125 
Q 45.015625 15.765625 45.015625 23.390625 
Q 45.015625 31 40.078125 35.4375 
Q 35.15625 39.890625 26.703125 39.890625 
Q 22.75 39.890625 18.8125 39.015625 
Q 14.890625 38.140625 10.796875 36.28125 
z
" id="DejaVuSans-53"/>
       </defs>
       <use xlink:href="#DejaVuSans-53"/>
       <use x="63.623047" xlink:href="#DejaVuSans-48"/>
       <use x="127.246094" xlink:href="#DejaVuSans-48"/>
       <use x="190.869141" xlink:href="#DejaVuSans-48"/>
       <use x="254.492188" xlink:href="#DejaVuSans-48"/>
      </g>
     </g>
    </g>
    <g id="ytick_7">
     <g id="line2d_25">
      <path clip-path="url(#p105e16a2cc)" d="M 90 111.43641 
L 648 111.43641 
" style="fill:none;stroke:#b0b0b0;stroke-linecap:square;stroke-width:0.8;"/>
     </g>
     <g id="line2d_26">
      <g>
       <use style="stroke:#000000;stroke-width:0.8;" x="90" xlink:href="#m4bf8a3a2c3" y="111.43641"/>
      </g>
     </g>
     <g id="text_14">
      <!-- 60000 -->
      <g transform="translate(51.1875 115.235629)scale(0.1 -0.1)">
       <use xlink:href="#DejaVuSans-54"/>
       <use x="63.623047" xlink:href="#DejaVuSans-48"/>
       <use x="127.246094" xlink:href="#DejaVuSans-48"/>
       <use x="190.869141" xlink:href="#DejaVuSans-48"/>
       <use x="254.492188" xlink:href="#DejaVuSans-48"/>
      </g>
     </g>
    </g>
    <g id="text_15">
     <!-- Cumulative cases -->
     <g transform="translate(45.107812 402.425781)rotate(-90)scale(0.1 -0.1)">
      <defs>
       <path d="M 64.40625 67.28125 
L 64.40625 56.890625 
Q 59.421875 61.53125 53.78125 63.8125 
Q 48.140625 66.109375 41.796875 66.109375 
Q 29.296875 66.109375 22.65625 58.46875 
Q 16.015625 50.828125 16.015625 36.375 
Q 16.015625 21.96875 22.65625 14.328125 
Q 29.296875 6.6875 41.796875 6.6875 
Q 48.140625 6.6875 53.78125 8.984375 
Q 59.421875 11.28125 64.40625 15.921875 
L 64.40625 5.609375 
Q 59.234375 2.09375 53.4375 0.328125 
Q 47.65625 -1.421875 41.21875 -1.421875 
Q 24.65625 -1.421875 15.125 8.703125 
Q 5.609375 18.84375 5.609375 36.375 
Q 5.609375 53.953125 15.125 64.078125 
Q 24.65625 74.21875 41.21875 74.21875 
Q 47.75 74.21875 53.53125 72.484375 
Q 59.328125 70.75 64.40625 67.28125 
z
" id="DejaVuSans-67"/>
       <path d="M 8.5 21.578125 
L 8.5 54.6875 
L 17.484375 54.6875 
L 17.484375 21.921875 
Q 17.484375 14.15625 20.5 10.265625 
Q 23.53125 6.390625 29.59375 6.390625 
Q 36.859375 6.390625 41.078125 11.03125 
Q 45.3125 15.671875 45.3125 23.6875 
L 45.3125 54.6875 
L 54.296875 54.6875 
L 54.296875 0 
L 45.3125 0 
L 45.3125 8.40625 
Q 42.046875 3.421875 37.71875 1 
Q 33.40625 -1.421875 27.6875 -1.421875 
Q 18.265625 -1.421875 13.375 4.4375 
Q 8.5 10.296875 8.5 21.578125 
z
M 31.109375 56 
z
" id="DejaVuSans-117"/>
       <path d="M 52 44.1875 
Q 55.375 50.25 60.0625 53.125 
Q 64.75 56 71.09375 56 
Q 79.640625 56 84.28125 50.015625 
Q 88.921875 44.046875 88.921875 33.015625 
L 88.921875 0 
L 79.890625 0 
L 79.890625 32.71875 
Q 79.890625 40.578125 77.09375 44.375 
Q 74.3125 48.1875 68.609375 48.1875 
Q 61.625 48.1875 57.5625 43.546875 
Q 53.515625 38.921875 53.515625 30.90625 
L 53.515625 0 
L 44.484375 0 
L 44.484375 32.71875 
Q 44.484375 40.625 41.703125 44.40625 
Q 38.921875 48.1875 33.109375 48.1875 
Q 26.21875 48.1875 22.15625 43.53125 
Q 18.109375 38.875 18.109375 30.90625 
L 18.109375 0 
L 9.078125 0 
L 9.078125 54.6875 
L 18.109375 54.6875 
L 18.109375 46.1875 
Q 21.1875 51.21875 25.484375 53.609375 
Q 29.78125 56 35.6875 56 
Q 41.65625 56 45.828125 52.96875 
Q 50 49.953125 52 44.1875 
z
" id="DejaVuSans-109"/>
       <path d="M 9.421875 75.984375 
L 18.40625 75.984375 
L 18.40625 0 
L 9.421875 0 
z
" id="DejaVuSans-108"/>
       <path d="M 18.3125 70.21875 
L 18.3125 54.6875 
L 36.8125 54.6875 
L 36.8125 47.703125 
L 18.3125 47.703125 
L 18.3125 18.015625 
Q 18.3125 11.328125 20.140625 9.421875 
Q 21.96875 7.515625 27.59375 7.515625 
L 36.8125 7.515625 
L 36.8125 0 
L 27.59375 0 
Q 17.1875 0 13.234375 3.875 
Q 9.28125 7.765625 9.28125 18.015625 
L 9.28125 47.703125 
L 2.6875 47.703125 
L 2.6875 54.6875 
L 9.28125 54.6875 
L 9.28125 70.21875 
z
" id="DejaVuSans-116"/>
       <path d="M 9.421875 54.6875 
L 18.40625 54.6875 
L 18.40625 0 
L 9.421875 0 
z
M 9.421875 75.984375 
L 18.40625 75.984375 
L 18.40625 64.59375 
L 9.421875 64.59375 
z
" id="DejaVuSans-105"/>
       <path d="M 2.984375 54.6875 
L 12.5 54.6875 
L 29.59375 8.796875 
L 46.6875 54.6875 
L 56.203125 54.6875 
L 35.6875 0 
L 23.484375 0 
z
" id="DejaVuSans-118"/>
       <path d="M 56.203125 29.59375 
L 56.203125 25.203125 
L 14.890625 25.203125 
Q 15.484375 15.921875 20.484375 11.0625 
Q 25.484375 6.203125 34.421875 6.203125 
Q 39.59375 6.203125 44.453125 7.46875 
Q 49.3125 8.734375 54.109375 11.28125 
L 54.109375 2.78125 
Q 49.265625 0.734375 44.1875 -0.34375 
Q 39.109375 -1.421875 33.890625 -1.421875 
Q 20.796875 -1.421875 13.15625 6.1875 
Q 5.515625 13.8125 5.515625 26.8125 
Q 5.515625 40.234375 12.765625 48.109375 
Q 20.015625 56 32.328125 56 
Q 43.359375 56 49.78125 48.890625 
Q 56.203125 41.796875 56.203125 29.59375 
z
M 47.21875 32.234375 
Q 47.125 39.59375 43.09375 43.984375 
Q 39.0625 48.390625 32.421875 48.390625 
Q 24.90625 48.390625 20.390625 44.140625 
Q 15.875 39.890625 15.1875 32.171875 
z
" id="DejaVuSans-101"/>
       <path id="DejaVuSans-32"/>
       <path d="M 48.78125 52.59375 
L 48.78125 44.1875 
Q 44.96875 46.296875 41.140625 47.34375 
Q 37.3125 48.390625 33.40625 48.390625 
Q 24.65625 48.390625 19.8125 42.84375 
Q 14.984375 37.3125 14.984375 27.296875 
Q 14.984375 17.28125 19.8125 11.734375 
Q 24.65625 6.203125 33.40625 6.203125 
Q 37.3125 6.203125 41.140625 7.25 
Q 44.96875 8.296875 48.78125 10.40625 
L 48.78125 2.09375 
Q 45.015625 0.34375 40.984375 -0.53125 
Q 36.96875 -1.421875 32.421875 -1.421875 
Q 20.0625 -1.421875 12.78125 6.34375 
Q 5.515625 14.109375 5.515625 27.296875 
Q 5.515625 40.671875 12.859375 48.328125 
Q 20.21875 56 33.015625 56 
Q 37.15625 56 41.109375 55.140625 
Q 45.0625 54.296875 48.78125 52.59375 
z
" id="DejaVuSans-99"/>
      </defs>
      <use xlink:href="#DejaVuSans-67"/>
      <use x="69.824219" xlink:href="#DejaVuSans-117"/>
      <use x="133.203125" xlink:href="#DejaVuSans-109"/>
      <use x="230.615234" xlink:href="#DejaVuSans-117"/>
      <use x="293.994141" xlink:href="#DejaVuSans-108"/>
      <use x="321.777344" xlink:href="#DejaVuSans-97"/>
      <use x="383.056641" xlink:href="#DejaVuSans-116"/>
      <use x="422.265625" xlink:href="#DejaVuSans-105"/>
      <use x="450.048828" xlink:href="#DejaVuSans-118"/>
      <use x="509.228516" xlink:href="#DejaVuSans-101"/>
      <use x="570.751953" xlink:href="#DejaVuSans-32"/>
      <use x="602.539062" xlink:href="#DejaVuSans-99"/>
      <use x="657.519531" xlink:href="#DejaVuSans-97"/>
      <use x="718.798828" xlink:href="#DejaVuSans-115"/>
      <use x="770.898438" xlink:href="#DejaVuSans-101"/>
      <use x="832.421875" xlink:href="#DejaVuSans-115"/>
     </g>
    </g>
   </g>
   <g id="line2d_27">
    <path clip-path="url(#p105e16a2cc)" d="M 115.363636 605.290909 
L 120.487603 605.248446 
L 125.61157 605.196467 
L 130.735537 605.132844 
L 135.859504 605.054973 
L 140.983471 604.95967 
L 146.107438 604.843042 
L 151.231405 604.700334 
L 156.355372 604.525736 
L 161.479339 604.312155 
L 166.603306 604.050939 
L 171.727273 603.731541 
L 176.85124 603.341115 
L 181.975207 602.864035 
L 187.099174 602.281325 
L 192.22314 601.569973 
L 197.347107 600.702148 
L 202.471074 599.644266 
L 207.595041 598.355953 
L 212.719008 596.78886 
L 217.842975 594.885387 
L 222.966942 592.577348 
L 228.090909 589.784645 
L 233.214876 586.41411 
L 238.338843 582.358679 
L 243.46281 577.497202 
L 248.586777 571.695255 
L 253.710744 564.807432 
L 258.834711 556.681662 
L 263.958678 547.16613 
L 269.082645 536.11923 
L 274.206612 523.422722 
L 279.330579 508.997688 
L 284.454545 492.822093 
L 289.578512 474.947789 
L 294.702479 455.51391 
L 299.826446 434.753181 
L 304.950413 412.988057 
L 310.07438 390.615067 
L 315.198347 368.078138 
L 320.322314 345.834314 
L 325.446281 324.317289 
L 330.570248 303.904802 
L 335.694215 284.894861 
L 340.818182 267.493479 
L 345.942149 251.813952 
L 351.066116 237.885535 
L 356.190083 225.668212 
L 361.31405 215.070134 
L 366.438017 205.9649 
L 371.561983 198.2068 
L 376.68595 191.64307 
L 381.809917 186.122957 
L 386.933884 181.503834 
L 392.057851 177.654895 
L 397.181818 174.458964 
L 402.305785 171.812984 
L 407.429752 169.627604 
L 412.553719 167.826244 
L 417.677686 166.343864 
L 422.801653 165.125632 
L 427.92562 164.12559 
L 433.049587 163.305411 
L 438.173554 162.63325 
L 443.297521 162.082731 
L 448.421488 161.632067 
L 453.545455 161.263299 
L 458.669421 160.961646 
L 463.793388 160.71496 
L 468.917355 160.513272 
L 474.041322 160.348404 
L 479.165289 160.213654 
L 484.289256 160.103534 
L 489.413223 160.01355 
L 494.53719 159.940028 
L 499.661157 159.879959 
L 504.785124 159.830885 
L 509.909091 159.790794 
L 515.033058 159.758044 
L 520.157025 159.731291 
L 525.280992 159.709438 
L 530.404959 159.691587 
L 535.528926 159.677007 
L 540.652893 159.665097 
L 545.77686 159.655369 
L 550.900826 159.647423 
L 556.024793 159.640932 
L 561.14876 159.635631 
L 566.272727 159.631301 
L 571.396694 159.627765 
L 576.520661 159.624876 
L 581.644628 159.622517 
L 586.768595 159.62059 
L 591.892562 159.619016 
L 597.016529 159.61773 
L 602.140496 159.61668 
L 607.264463 159.615822 
L 612.38843 159.615122 
L 617.512397 159.61455 
L 622.636364 159.614082 
" style="fill:none;stroke:#1f77b4;stroke-linecap:square;stroke-width:1.5;"/>
   </g>
   <g id="line2d_28">
    <path clip-path="url(#p105e16a2cc)" d="M 115.363636 605.290909 
L 120.487603 604.252314 
L 125.61157 603.11171 
L 130.735537 601.859655 
L 135.859504 600.485956 
L 140.983471 598.979631 
L 146.107438 597.328882 
L 151.231405 595.521067 
L 156.355372 593.54269 
L 161.479339 591.379391 
L 166.603306 589.01595 
L 171.727273 586.43632 
L 176.85124 583.623659 
L 181.975207 580.560402 
L 187.099174 577.228351 
L 192.22314 573.608797 
L 197.347107 569.682684 
L 202.471074 565.430799 
L 207.595041 560.834017 
L 212.719008 555.873585 
L 217.842975 550.531455 
L 222.966942 544.790661 
L 228.090909 538.635745 
L 233.214876 532.053223 
L 238.338843 525.032082 
L 243.46281 517.564305 
L 248.586777 509.645403 
L 253.710744 501.274935 
L 258.834711 492.457009 
L 263.958678 483.200722 
L 269.082645 473.520528 
L 274.206612 463.4365 
L 279.330579 452.974467 
L 284.454545 442.166001 
L 289.578512 431.048238 
L 294.702479 419.66353 
L 299.826446 408.058908 
L 304.950413 396.285391 
L 310.07438 384.397141 
L 315.198347 372.45049 
L 320.322314 360.502889 
L 325.446281 348.611807 
L 330.570248 336.83363 
L 335.694215 325.222608 
L 340.818182 313.829877 
L 345.942149 302.702613 
L 351.066116 291.883329 
L 356.190083 281.409342 
L 361.31405 271.31241 
L 366.438017 261.618553 
L 371.561983 252.348032 
L 376.68595 243.515482 
L 381.809917 235.130173 
L 386.933884 227.196368 
L 392.057851 219.713772 
L 397.181818 212.678018 
L 402.305785 206.081198 
L 407.429752 199.912389 
L 412.553719 194.158181 
L 417.677686 188.803173 
L 422.801653 183.830442 
L 427.92562 179.221969 
L 433.049587 174.959018 
L 438.173554 171.022472 
L 443.297521 167.393119 
L 448.421488 164.051891 
L 453.545455 160.980067 
L 458.669421 158.159429 
L 463.793388 155.57239 
L 468.917355 153.202083 
L 474.041322 151.032433 
L 479.165289 149.048194 
L 484.289256 147.234978 
L 489.413223 145.579257 
L 494.53719 144.068364 
L 499.661157 142.690472 
L 504.785124 141.434575 
L 509.909091 140.290451 
L 515.033058 139.248636 
L 520.157025 138.300381 
L 525.280992 137.437614 
L 530.404959 136.652902 
L 535.528926 135.93941 
L 540.652893 135.290861 
L 545.77686 134.7015 
L 550.900826 134.166051 
L 556.024793 133.679688 
L 561.14876 133.237999 
L 566.272727 132.836952 
L 571.396694 132.472866 
L 576.520661 132.142383 
L 581.644628 131.842443 
L 586.768595 131.570255 
L 591.892562 131.323279 
L 597.016529 131.099202 
L 602.140496 130.895919 
L 607.264463 130.711516 
L 612.38843 130.544252 
L 617.512397 130.392543 
L 622.636364 130.254953 
" style="fill:none;stroke:#ff7f0e;stroke-linecap:square;stroke-width:1.5;"/>
   </g>
   <g id="line2d_29">
    <path clip-path="url(#p105e16a2cc)" d="M 115.363636 605.290909 
L 120.487603 605.153064 
L 125.61157 604.989984 
L 130.735537 604.797074 
L 135.859504 604.568916 
L 140.983471 604.29912 
L 146.107438 603.980162 
L 151.231405 603.603185 
L 156.355372 603.157775 
L 161.479339 602.631708 
L 166.603306 602.010653 
L 171.727273 601.277844 
L 176.85124 600.413704 
L 181.975207 599.395437 
L 187.099174 598.19658 
L 192.22314 596.786528 
L 197.347107 595.130037 
L 202.471074 593.186741 
L 207.595041 590.910688 
L 212.719008 588.249973 
L 217.842975 585.146488 
L 222.966942 581.535905 
L 228.090909 577.347957 
L 233.214876 572.507159 
L 238.338843 566.934084 
L 243.46281 560.547338 
L 248.586777 553.266353 
L 253.710744 545.015083 
L 258.834711 535.726599 
L 263.958678 525.348486 
L 269.082645 513.848754 
L 274.206612 501.221827 
L 279.330579 487.493979 
L 284.454545 472.727458 
L 289.578512 457.022544 
L 294.702479 440.516865 
L 299.826446 423.381623 
L 304.950413 405.814781 
L 310.07438 388.03172 
L 315.198347 370.254315 
L 320.322314 352.699617 
L 325.446281 335.569379 
L 330.570248 319.041456 
L 335.694215 303.263759 
L 340.818182 288.351012 
L 345.942149 274.384168 
L 351.066116 261.412048 
L 356.190083 249.4546 
L 361.31405 238.507152 
L 366.438017 228.545093 
L 371.561983 219.528531 
L 376.68595 211.406606 
L 381.809917 204.121279 
L 386.933884 197.610502 
L 392.057851 191.810765 
L 397.181818 186.65905 
L 402.305785 182.094282 
L 407.429752 178.058329 
L 412.553719 174.496654 
L 417.677686 171.358685 
L 422.801653 168.597972 
L 427.92562 166.172187 
L 433.049587 164.04301 
L 438.173554 162.175938 
L 443.297521 160.540052 
L 448.421488 159.107751 
L 453.545455 157.854482 
L 458.669421 156.75846 
L 463.793388 155.800409 
L 468.917355 154.963304 
L 474.041322 154.23214 
L 479.165289 153.593707 
L 484.289256 153.036397 
L 489.413223 152.550016 
L 494.53719 152.125625 
L 499.661157 151.755389 
L 504.785124 151.432448 
L 509.909091 151.150799 
L 515.033058 150.905192 
L 520.157025 150.691036 
L 525.280992 150.504321 
L 530.404959 150.341543 
L 535.528926 150.199643 
L 540.652893 150.075951 
L 545.77686 149.968136 
L 550.900826 149.874164 
L 556.024793 149.792261 
L 561.14876 149.72088 
L 566.272727 149.65867 
L 571.396694 149.604455 
L 576.520661 149.557208 
L 581.644628 149.516035 
L 586.768595 149.480155 
L 591.892562 149.448888 
L 597.016529 149.421642 
L 602.140496 149.3979 
L 607.264463 149.377211 
L 612.38843 149.359183 
L 617.512397 149.343473 
L 622.636364 149.329785 
" style="fill:none;stroke:#2ca02c;stroke-linecap:square;stroke-width:1.5;"/>
   </g>
   <g id="line2d_30">
    <path clip-path="url(#p105e16a2cc)" d="M 115.363636 605.290909 
L 120.487603 604.92564 
L 125.61157 604.4274 
L 130.735537 603.784355 
L 135.859504 602.98375 
L 140.983471 602.01188 
L 146.107438 600.854062 
L 151.231405 599.494629 
L 156.355372 597.916932 
L 161.479339 596.103364 
L 166.603306 594.035404 
L 171.727273 591.693692 
L 176.85124 589.058133 
L 181.975207 586.108043 
L 187.099174 582.82233 
L 192.22314 579.17973 
L 197.347107 575.159092 
L 202.471074 570.739709 
L 207.595041 565.901721 
L 212.719008 560.626555 
L 217.842975 554.897428 
L 222.966942 548.699889 
L 228.090909 542.022397 
L 233.214876 534.856912 
L 238.338843 527.199489 
L 243.46281 519.050848 
L 248.586777 510.416887 
L 253.710744 501.309123 
L 258.834711 491.745011 
L 263.958678 481.748134 
L 269.082645 471.348229 
L 274.206612 460.581023 
L 279.330579 449.487886 
L 284.454545 438.115287 
L 289.578512 426.514067 
L 294.702479 414.738557 
L 299.826446 402.845563 
L 304.950413 390.893268 
L 310.07438 378.940087 
L 315.198347 367.043537 
L 320.322314 355.259152 
L 325.446281 343.639497 
L 330.570248 332.233316 
L 335.694215 321.08483 
L 340.818182 310.233213 
L 345.942149 299.71224 
L 351.066116 289.55011 
L 356.190083 279.769432 
L 361.31405 270.387351 
L 366.438017 261.415794 
L 371.561983 252.861815 
L 376.68595 244.728006 
L 381.809917 237.012959 
L 386.933884 229.711756 
L 392.057851 222.816459 
L 397.181818 216.316595 
L 402.305785 210.199624 
L 407.429752 204.451369 
L 412.553719 199.056416 
L 417.677686 193.99847 
L 422.801653 189.260677 
L 427.92562 184.825891 
L 433.049587 180.676917 
L 438.173554 176.796701 
L 443.297521 173.168499 
L 448.421488 169.775999 
L 453.545455 166.603433 
L 458.669421 163.635645 
L 463.793388 160.858153 
L 468.917355 158.257181 
L 474.041322 155.819687 
L 479.165289 153.533362 
L 484.289256 151.386639 
L 489.413223 149.368673 
L 494.53719 147.469328 
L 499.661157 145.679156 
L 504.785124 143.989365 
L 509.909091 142.391795 
L 515.033058 140.878887 
L 520.157025 139.443644 
L 525.280992 138.07961 
L 530.404959 136.780827 
L 535.528926 135.541809 
L 540.652893 134.357509 
L 545.77686 133.22329 
L 550.900826 132.134896 
L 556.024793 131.088422 
L 561.14876 130.080292 
L 566.272727 129.107232 
L 571.396694 128.166245 
L 576.520661 127.254594 
L 581.644628 126.369776 
L 586.768595 125.509506 
L 591.892562 124.671702 
L 597.016529 123.854461 
L 602.140496 123.056051 
L 607.264463 122.274892 
L 612.38843 121.509547 
L 617.512397 120.758706 
L 622.636364 120.021177 
" style="fill:none;stroke:#d62728;stroke-linecap:square;stroke-width:1.5;"/>
   </g>
   <g id="line2d_31">
    <path clip-path="url(#p105e16a2cc)" d="M 115.363636 605.290909 
L 120.487603 605.271701 
L 125.61157 605.222031 
L 130.735537 605.146255 
L 135.859504 605.042506 
L 140.983471 604.905008 
L 146.107438 604.724774 
L 151.231405 604.489503 
L 156.355372 604.183006 
L 161.479339 603.784303 
L 166.603306 603.266431 
L 171.727273 602.594992 
L 176.85124 601.72644 
L 181.975207 600.606203 
L 187.099174 599.166759 
L 192.22314 597.32596 
L 197.347107 594.986052 
L 202.471074 592.034073 
L 207.595041 588.344506 
L 212.719008 583.785186 
L 217.842975 578.227189 
L 222.966942 571.558744 
L 228.090909 563.701863 
L 233.214876 554.628718 
L 238.338843 544.373491 
L 243.46281 533.035532 
L 248.586777 520.771647 
L 253.710744 507.778809 
L 258.834711 494.271733 
L 263.958678 480.461019 
L 269.082645 466.536396 
L 274.206612 452.657071 
L 279.330579 438.948723 
L 284.454545 425.50527 
L 289.578512 412.393251 
L 294.702479 399.65711 
L 299.826446 387.32428 
L 304.950413 375.409558 
L 310.07438 363.918599 
L 315.198347 352.850598 
L 320.322314 342.20027 
L 325.446281 331.959296 
L 330.570248 322.117355 
L 335.694215 312.662861 
L 340.818182 303.583479 
L 345.942149 294.866491 
L 351.066116 286.499049 
L 356.190083 278.468352 
L 361.31405 270.761772 
L 366.438017 263.36693 
L 371.561983 256.271758 
L 376.68595 249.464532 
L 381.809917 242.933892 
L 386.933884 236.668856 
L 392.057851 230.658824 
L 397.181818 224.893578 
L 402.305785 219.363276 
L 407.429752 214.058447 
L 412.553719 208.969981 
L 417.677686 204.089121 
L 422.801653 199.407453 
L 427.92562 194.916892 
L 433.049587 190.609675 
L 438.173554 186.478347 
L 443.297521 182.515751 
L 448.421488 178.715018 
L 453.545455 175.069553 
L 458.669421 171.573028 
L 463.793388 168.219371 
L 468.917355 165.002756 
L 474.041322 161.917591 
L 479.165289 158.958513 
L 484.289256 156.120375 
L 489.413223 153.39824 
L 494.53719 150.787371 
L 499.661157 148.283226 
L 504.785124 145.881444 
L 509.909091 143.577846 
L 515.033058 141.368419 
L 520.157025 139.249317 
L 525.280992 137.21685 
L 530.404959 135.267476 
L 535.528926 133.397801 
L 540.652893 131.604568 
L 545.77686 129.884653 
L 550.900826 128.235058 
L 556.024793 126.652911 
L 561.14876 125.135453 
L 566.272727 123.680042 
L 571.396694 122.28414 
L 576.520661 120.945315 
L 581.644628 119.661233 
L 586.768595 118.429657 
L 591.892562 117.248441 
L 597.016529 116.115524 
L 602.140496 115.028934 
L 607.264463 113.986775 
L 612.38843 112.987231 
L 617.512397 112.02856 
L 622.636364 111.109091 
" style="fill:none;stroke:#9467bd;stroke-linecap:square;stroke-width:1.5;"/>
   </g>
   <g id="line2d_32">
    <path clip-path="url(#p105e16a2cc)" d="M 115.363636 605.290909 
L 120.487603 605.243288 
L 125.61157 605.104926 
L 130.735537 604.874487 
L 135.859504 604.54351 
L 140.983471 604.098879 
L 146.107438 603.523889 
L 151.231405 602.798641 
L 156.355372 601.900099 
L 161.479339 600.802011 
L 166.603306 599.474782 
L 171.727273 597.885384 
L 176.85124 595.997339 
L 181.975207 593.770839 
L 187.099174 591.163051 
L 192.22314 588.128661 
L 197.347107 584.620715 
L 202.471074 580.59179 
L 207.595041 575.99553 
L 212.719008 570.788536 
L 217.842975 564.932559 
L 222.966942 558.396896 
L 228.090909 551.160825 
L 233.214876 543.215876 
L 238.338843 534.567676 
L 243.46281 525.237146 
L 248.586777 515.260842 
L 253.710744 504.690319 
L 258.834711 493.59053 
L 263.958678 482.037374 
L 269.082645 470.114618 
L 274.206612 457.910516 
L 279.330579 445.514405 
L 284.454545 433.013596 
L 289.578512 420.49075 
L 294.702479 408.021873 
L 299.826446 395.674965 
L 304.950413 383.50928 
L 310.07438 371.575119 
L 315.198347 359.914037 
L 320.322314 348.559357 
L 325.446281 337.536869 
L 330.570248 326.865649 
L 335.694215 316.558893 
L 340.818182 306.624755 
L 345.942149 297.067122 
L 351.066116 287.886333 
L 356.190083 279.079809 
L 361.31405 270.642618 
L 366.438017 262.567951 
L 371.561983 254.847536 
L 376.68595 247.471983 
L 381.809917 240.431074 
L 386.933884 233.714006 
L 392.057851 227.309591 
L 397.181818 221.206415 
L 402.305785 215.392974 
L 407.429752 209.857778 
L 412.553719 204.58944 
L 417.677686 199.576743 
L 422.801653 194.808688 
L 427.92562 190.274544 
L 433.049587 185.963868 
L 438.173554 181.866537 
L 443.297521 177.972757 
L 448.421488 174.273074 
L 453.545455 170.758382 
L 458.669421 167.419924 
L 463.793388 164.249288 
L 468.917355 161.238405 
L 474.041322 158.379545 
L 479.165289 155.66531 
L 484.289256 153.088622 
L 489.413223 150.64272 
L 494.53719 148.321147 
L 499.661157 146.117738 
L 504.785124 144.026615 
L 509.909091 142.042175 
L 515.033058 140.159075 
L 520.157025 138.37223 
L 525.280992 136.676795 
L 530.404959 135.068159 
L 535.528926 133.541934 
L 540.652893 132.093946 
L 545.77686 130.720226 
L 550.900826 129.416997 
L 556.024793 128.180671 
L 561.14876 127.007838 
L 566.272727 125.895256 
L 571.396694 124.839846 
L 576.520661 123.83868 
L 581.644628 122.888981 
L 586.768595 121.988109 
L 591.892562 121.133557 
L 597.016529 120.322946 
L 602.140496 119.554016 
L 607.264463 118.824622 
L 612.38843 118.132728 
L 617.512397 117.476401 
L 622.636364 116.853808 
" style="fill:none;stroke:#8c564b;stroke-linecap:square;stroke-width:1.5;"/>
   </g>
   <g id="line2d_33">
    <path clip-path="url(#p105e16a2cc)" d="M 115.363636 605.290909 
L 120.487603 605.269012 
L 125.61157 605.212529 
L 130.735537 605.126785 
L 135.859504 605.010162 
L 140.983471 604.856765 
L 146.107438 604.657308 
L 151.231405 604.3991 
L 156.355372 604.06555 
L 161.479339 603.635328 
L 166.603306 603.081265 
L 171.727273 602.369012 
L 176.85124 601.45549 
L 181.975207 600.287204 
L 187.099174 598.798569 
L 192.22314 596.910487 
L 197.347107 594.529601 
L 202.471074 591.548793 
L 207.595041 587.849699 
L 212.719008 583.308031 
L 217.842975 577.802351 
L 222.966942 571.226302 
L 228.090909 563.503281 
L 233.214876 554.601147 
L 238.338843 544.543474 
L 243.46281 533.413754 
L 248.586777 521.350363 
L 253.710744 508.53279 
L 258.834711 495.162363 
L 263.958678 481.442181 
L 269.082645 467.560484 
L 274.206612 453.679834 
L 279.330579 439.932368 
L 284.454545 426.419857 
L 289.578512 413.216792 
L 294.702479 400.37486 
L 299.826446 387.92764 
L 304.950413 375.894877 
L 310.07438 364.286055 
L 315.198347 353.103223 
L 320.322314 342.34315 
L 325.446281 331.998935 
L 330.570248 322.061182 
L 335.694215 312.518857 
L 340.818182 303.359893 
L 345.942149 294.571635 
L 351.066116 286.141146 
L 356.190083 278.05543 
L 361.31405 270.301584 
L 366.438017 262.866907 
L 371.561983 255.738973 
L 376.68595 248.905681 
L 381.809917 242.355288 
L 386.933884 236.076424 
L 392.057851 230.058107 
L 397.181818 224.289741 
L 402.305785 218.761122 
L 407.429752 213.462425 
L 412.553719 208.384204 
L 417.677686 203.517377 
L 422.801653 198.853221 
L 427.92562 194.38336 
L 433.049587 190.099752 
L 438.173554 185.994679 
L 443.297521 182.060737 
L 448.421488 178.290821 
L 453.545455 174.678119 
L 458.669421 171.216095 
L 463.793388 167.898482 
L 468.917355 164.719274 
L 474.041322 161.672709 
L 479.165289 158.753264 
L 484.289256 155.955644 
L 489.413223 153.274775 
L 494.53719 150.70579 
L 499.661157 148.244028 
L 504.785124 145.885018 
L 509.909091 143.624476 
L 515.033058 141.458296 
L 520.157025 139.382543 
L 525.280992 137.393444 
L 530.404959 135.487385 
L 535.528926 133.660902 
L 540.652893 131.910675 
L 545.77686 130.233521 
L 550.900826 128.626392 
L 556.024793 127.086366 
L 561.14876 125.610641 
L 566.272727 124.196534 
L 571.396694 122.841474 
L 576.520661 121.542995 
L 581.644628 120.298737 
L 586.768595 119.106435 
L 591.892562 117.96392 
L 597.016529 116.869115 
L 602.140496 115.820028 
L 607.264463 114.814749 
L 612.38843 113.85145 
L 617.512397 112.928379 
L 622.636364 112.043855 
" style="fill:none;stroke:#e377c2;stroke-linecap:square;stroke-width:1.5;"/>
   </g>
   <g id="line2d_34">
    <path clip-path="url(#p105e16a2cc)" d="M 115.363636 605.290909 
L 120.487603 605.240568 
L 125.61157 605.09268 
L 130.735537 604.846101 
L 135.859504 604.493727 
L 140.983471 604.023932 
L 146.107438 603.421327 
L 151.231405 602.667109 
L 156.355372 601.739183 
L 161.479339 600.612148 
L 166.603306 599.257238 
L 171.727273 597.642265 
L 176.85124 595.731628 
L 181.975207 593.486431 
L 187.099174 590.864768 
L 192.22314 587.822223 
L 197.347107 584.312642 
L 202.471074 580.289225 
L 207.595041 575.705957 
L 212.719008 570.519397 
L 217.842975 564.690774 
L 222.966942 558.188318 
L 228.090909 550.98968 
L 233.214876 543.08425 
L 238.338843 534.475137 
L 243.46281 525.180571 
L 248.586777 515.234508 
L 253.710744 504.686278 
L 258.834711 493.599246 
L 263.958678 482.04855 
L 269.082645 470.118115 
L 274.206612 457.897229 
L 279.330579 445.477009 
L 284.454545 432.947063 
L 289.578512 420.392605 
L 294.702479 407.892193 
L 299.826446 395.516157 
L 304.950413 383.325693 
L 310.07438 371.372563 
L 315.198347 359.69927 
L 320.322314 348.33959 
L 325.446281 337.31933 
L 330.570248 326.657213 
L 335.694215 316.365813 
L 340.818182 306.452464 
L 345.942149 296.920118 
L 351.066116 287.768124 
L 356.190083 278.992916 
L 361.31405 270.588609 
L 366.438017 262.547509 
L 371.561983 254.860545 
L 376.68595 247.517619 
L 381.809917 240.507908 
L 386.933884 233.820099 
L 392.057851 227.442589 
L 397.181818 221.363636 
L 402.305785 215.571488 
L 407.429752 210.054484 
L 412.553719 204.801126 
L 417.677686 199.80014 
L 422.801653 195.040524 
L 427.92562 190.511578 
L 433.049587 186.20293 
L 438.173554 182.10455 
L 443.297521 178.206763 
L 448.421488 174.500252 
L 453.545455 170.976058 
L 458.669421 167.625582 
L 463.793388 164.440577 
L 468.917355 161.413143 
L 474.041322 158.535719 
L 479.165289 155.801074 
L 484.289256 153.202301 
L 489.413223 150.732798 
L 494.53719 148.386269 
L 499.661157 146.156702 
L 504.785124 144.038368 
L 509.909091 142.025802 
L 515.033058 140.113799 
L 520.157025 138.297398 
L 525.280992 136.571876 
L 530.404959 134.932734 
L 535.528926 133.375691 
L 540.652893 131.896671 
L 545.77686 130.491796 
L 550.900826 129.157378 
L 556.024793 127.889905 
L 561.14876 126.68604 
L 566.272727 125.542607 
L 571.396694 124.456588 
L 576.520661 123.425112 
L 581.644628 122.445451 
L 586.768595 121.515009 
L 591.892562 120.631321 
L 597.016529 119.792044 
L 602.140496 118.994949 
L 607.264463 118.237919 
L 612.38843 117.518943 
L 617.512397 116.83611 
L 622.636364 116.187602 
" style="fill:none;stroke:#7f7f7f;stroke-linecap:square;stroke-width:1.5;"/>
   </g>
   <g id="line2d_35">
    <path clip-path="url(#p105e16a2cc)" d="M 115.363636 605.290909 
L 120.487603 605.24455 
L 125.61157 605.108677 
L 130.735537 604.882146 
L 135.859504 604.557811 
L 140.983471 604.124006 
L 146.107438 603.565282 
L 151.231405 602.862708 
L 156.355372 601.993932 
L 161.479339 600.933095 
L 166.603306 599.650704 
L 171.727273 598.113505 
L 176.85124 596.28442 
L 181.975207 594.12261 
L 187.099174 591.583717 
L 192.22314 588.620357 
L 197.347107 585.182919 
L 202.471074 581.220749 
L 207.595041 576.683737 
L 212.719008 571.524337 
L 217.842975 565.699972 
L 222.966942 559.175732 
L 228.090909 551.927178 
L 233.214876 543.94303 
L 238.338843 535.227425 
L 243.46281 525.801455 
L 248.586777 515.703714 
L 253.710744 504.98968 
L 258.834711 493.729915 
L 263.958678 482.007213 
L 269.082645 469.912968 
L 274.206612 457.543161 
L 279.330579 444.994351 
L 284.454545 432.360044 
L 289.578512 419.72771 
L 294.702479 407.176593 
L 299.826446 394.776333 
L 304.950413 382.586351 
L 310.07438 370.655857 
L 315.198347 359.02432 
L 320.322314 347.722261 
L 325.446281 336.772224 
L 330.570248 326.189818 
L 335.694215 315.984749 
L 340.818182 306.161793 
L 345.942149 296.721684 
L 351.066116 287.661893 
L 356.190083 278.977298 
L 361.31405 270.660762 
L 366.438017 262.703608 
L 371.561983 255.096014 
L 376.68595 247.827341 
L 381.809917 240.886393 
L 386.933884 234.261631 
L 392.057851 227.941343 
L 397.181818 221.913778 
L 402.305785 216.167252 
L 407.429752 210.690231 
L 412.553719 205.471392 
L 417.677686 200.499674 
L 422.801653 195.764313 
L 427.92562 191.254863 
L 433.049587 186.96122 
L 438.173554 182.873628 
L 443.297521 178.982686 
L 448.421488 175.279349 
L 453.545455 171.75493 
L 458.669421 168.401089 
L 463.793388 165.209834 
L 468.917355 162.17351 
L 474.041322 159.284791 
L 479.165289 156.53667 
L 484.289256 153.922451 
L 489.413223 151.435736 
L 494.53719 149.070416 
L 499.661157 146.820661 
L 504.785124 144.680908 
L 509.909091 142.645851 
L 515.033058 140.71043 
L 520.157025 138.869821 
L 525.280992 137.119429 
L 530.404959 135.454872 
L 535.528926 133.871979 
L 540.652893 132.366774 
L 545.77686 130.935471 
L 550.900826 129.574467 
L 556.024793 128.280329 
L 561.14876 127.04979 
L 566.272727 125.87974 
L 571.396694 124.767219 
L 576.520661 123.70941 
L 581.644628 122.703631 
L 586.768595 121.747333 
L 591.892562 120.838087 
L 597.016529 119.973584 
L 602.140496 119.151627 
L 607.264463 118.370126 
L 612.38843 117.627093 
L 617.512397 116.920636 
L 622.636364 116.248956 
" style="fill:none;stroke:#bcbd22;stroke-linecap:square;stroke-width:1.5;"/>
   </g>
   <g id="line2d_36">
    <path clip-path="url(#p105e16a2cc)" d="M 115.363636 605.290909 
L 120.487603 605.068589 
L 125.61157 604.58278 
L 130.735537 604.088736 
L 135.859504 603.83348 
L 140.983471 603.512351 
L 146.107438 603.281797 
L 151.231405 602.894796 
L 156.355372 602.894796 
L 161.479339 600.87745 
L 166.603306 599.807022 
L 171.727273 598.184911 
L 176.85124 596.768652 
L 181.975207 595.24535 
L 187.099174 593.244472 
L 192.22314 590.700146 
L 197.347107 586.896009 
L 202.471074 582.3014 
L 207.595041 577.476239 
L 212.719008 574.660188 
L 217.842975 570.32907 
L 222.966942 564.828715 
L 228.090909 554.140899 
L 233.214876 545.503365 
L 238.338843 530.270346 
L 243.46281 516.255967 
L 248.586777 507.503157 
L 253.710744 500.290116 
L 258.834711 490.499813 
L 263.958678 479.103867 
L 269.082645 467.395027 
L 274.206612 453.718246 
L 279.330579 443.343324 
L 284.454545 434.09647 
L 289.578512 422.73346 
L 294.702479 412.778476 
L 299.826446 399.768654 
L 304.950413 385.902489 
L 310.07438 374.778268 
L 315.198347 361.364976 
L 320.322314 353.608487 
L 325.446281 349.244433 
L 330.570248 329.038038 
L 335.694215 318.860734 
L 340.818182 307.917662 
L 345.942149 299.313065 
L 351.066116 288.501738 
L 356.190083 276.257683 
L 361.31405 268.245938 
L 366.438017 260.563556 
L 371.561983 253.087025 
L 376.68595 240.768865 
L 381.809917 232.27131 
L 386.933884 225.609951 
L 392.057851 221.056514 
L 397.181818 215.729074 
L 402.305785 211.40619 
L 407.429752 205.971707 
L 412.553719 201.747632 
L 417.677686 197.754111 
L 422.801653 194.551059 
L 427.92562 191.578562 
L 433.049587 189.585918 
L 438.173554 187.346253 
L 443.297521 182.084685 
L 448.421488 177.218353 
L 453.545455 172.401425 
L 458.669421 168.407904 
L 463.793388 165.377768 
L 468.917355 162.660527 
L 474.041322 160.997246 
L 479.165289 158.469388 
L 484.289256 155.538061 
L 489.413223 152.697308 
L 494.53719 150.301196 
L 499.661157 148.003892 
L 504.785124 146.093589 
L 509.909091 144.512648 
L 515.033058 142.437664 
L 520.157025 140.165062 
L 525.280992 137.703077 
L 530.404959 135.38107 
L 535.528926 133.322554 
L 540.652893 132.392105 
L 545.77686 131.264038 
L 550.900826 129.147883 
L 556.024793 127.402262 
L 561.14876 126.373004 
L 566.272727 124.767361 
L 571.396694 123.647528 
L 576.520661 122.84059 
L 581.644628 122.264205 
L 586.768595 121.589012 
L 591.892562 120.436243 
L 597.016529 119.077622 
L 602.140496 117.809576 
L 607.264463 116.80502 
L 612.38843 116.072189 
L 617.512397 114.985292 
L 622.636364 113.816055 
" style="fill:none;stroke:#17becf;stroke-dasharray:14.8,6.4;stroke-dashoffset:0;stroke-width:4;"/>
   </g>
   <g id="patch_3">
    <path d="M 90 630 
L 90 86.4 
" style="fill:none;stroke:#000000;stroke-linecap:square;stroke-linejoin:miter;stroke-width:0.8;"/>
   </g>
   <g id="patch_4">
    <path d="M 648 630 
L 648 86.4 
" style="fill:none;stroke:#000000;stroke-linecap:square;stroke-linejoin:miter;stroke-width:0.8;"/>
   </g>
   <g id="patch_5">
    <path d="M 90 630 
L 648 630 
" style="fill:none;stroke:#000000;stroke-linecap:square;stroke-linejoin:miter;stroke-width:0.8;"/>
   </g>
   <g id="patch_6">
    <path d="M 90 86.4 
L 648 86.4 
" style="fill:none;stroke:#000000;stroke-linecap:square;stroke-linejoin:miter;stroke-width:0.8;"/>
   </g>
   <g id="text_16">
    <!-- Belgium relative err =  -->
    <g transform="translate(300.597188 80.4)scale(0.12 -0.12)">
     <defs>
      <path d="M 19.671875 34.8125 
L 19.671875 8.109375 
L 35.5 8.109375 
Q 43.453125 8.109375 47.28125 11.40625 
Q 51.125 14.703125 51.125 21.484375 
Q 51.125 28.328125 47.28125 31.5625 
Q 43.453125 34.8125 35.5 34.8125 
z
M 19.671875 64.796875 
L 19.671875 42.828125 
L 34.28125 42.828125 
Q 41.5 42.828125 45.03125 45.53125 
Q 48.578125 48.25 48.578125 53.8125 
Q 48.578125 59.328125 45.03125 62.0625 
Q 41.5 64.796875 34.28125 64.796875 
z
M 9.8125 72.90625 
L 35.015625 72.90625 
Q 46.296875 72.90625 52.390625 68.21875 
Q 58.5 63.53125 58.5 54.890625 
Q 58.5 48.1875 55.375 44.234375 
Q 52.25 40.28125 46.1875 39.3125 
Q 53.46875 37.75 57.5 32.78125 
Q 61.53125 27.828125 61.53125 20.40625 
Q 61.53125 10.640625 54.890625 5.3125 
Q 48.25 0 35.984375 0 
L 9.8125 0 
z
" id="DejaVuSans-66"/>
      <path d="M 45.40625 27.984375 
Q 45.40625 37.75 41.375 43.109375 
Q 37.359375 48.484375 30.078125 48.484375 
Q 22.859375 48.484375 18.828125 43.109375 
Q 14.796875 37.75 14.796875 27.984375 
Q 14.796875 18.265625 18.828125 12.890625 
Q 22.859375 7.515625 30.078125 7.515625 
Q 37.359375 7.515625 41.375 12.890625 
Q 45.40625 18.265625 45.40625 27.984375 
z
M 54.390625 6.78125 
Q 54.390625 -7.171875 48.1875 -13.984375 
Q 42 -20.796875 29.203125 -20.796875 
Q 24.46875 -20.796875 20.265625 -20.09375 
Q 16.0625 -19.390625 12.109375 -17.921875 
L 12.109375 -9.1875 
Q 16.0625 -11.328125 19.921875 -12.34375 
Q 23.78125 -13.375 27.78125 -13.375 
Q 36.625 -13.375 41.015625 -8.765625 
Q 45.40625 -4.15625 45.40625 5.171875 
L 45.40625 9.625 
Q 42.625 4.78125 38.28125 2.390625 
Q 33.9375 0 27.875 0 
Q 17.828125 0 11.671875 7.65625 
Q 5.515625 15.328125 5.515625 27.984375 
Q 5.515625 40.671875 11.671875 48.328125 
Q 17.828125 56 27.875 56 
Q 33.9375 56 38.28125 53.609375 
Q 42.625 51.21875 45.40625 46.390625 
L 45.40625 54.6875 
L 54.390625 54.6875 
z
" id="DejaVuSans-103"/>
      <path d="M 41.109375 46.296875 
Q 39.59375 47.171875 37.8125 47.578125 
Q 36.03125 48 33.890625 48 
Q 26.265625 48 22.1875 43.046875 
Q 18.109375 38.09375 18.109375 28.8125 
L 18.109375 0 
L 9.078125 0 
L 9.078125 54.6875 
L 18.109375 54.6875 
L 18.109375 46.1875 
Q 20.953125 51.171875 25.484375 53.578125 
Q 30.03125 56 36.53125 56 
Q 37.453125 56 38.578125 55.875 
Q 39.703125 55.765625 41.0625 55.515625 
z
" id="DejaVuSans-114"/>
      <path d="M 10.59375 45.40625 
L 73.1875 45.40625 
L 73.1875 37.203125 
L 10.59375 37.203125 
z
M 10.59375 25.484375 
L 73.1875 25.484375 
L 73.1875 17.1875 
L 10.59375 17.1875 
z
" id="DejaVuSans-61"/>
     </defs>
     <use xlink:href="#DejaVuSans-66"/>
     <use x="68.603516" xlink:href="#DejaVuSans-101"/>
     <use x="130.126953" xlink:href="#DejaVuSans-108"/>
     <use x="157.910156" xlink:href="#DejaVuSans-103"/>
     <use x="221.386719" xlink:href="#DejaVuSans-105"/>
     <use x="249.169922" xlink:href="#DejaVuSans-117"/>
     <use x="312.548828" xlink:href="#DejaVuSans-109"/>
     <use x="409.960938" xlink:href="#DejaVuSans-32"/>
     <use x="441.748047" xlink:href="#DejaVuSans-114"/>
     <use x="480.611328" xlink:href="#DejaVuSans-101"/>
     <use x="542.134766" xlink:href="#DejaVuSans-108"/>
     <use x="569.917969" xlink:href="#DejaVuSans-97"/>
     <use x="631.197266" xlink:href="#DejaVuSans-116"/>
     <use x="670.40625" xlink:href="#DejaVuSans-105"/>
     <use x="698.189453" xlink:href="#DejaVuSans-118"/>
     <use x="757.369141" xlink:href="#DejaVuSans-101"/>
     <use x="818.892578" xlink:href="#DejaVuSans-32"/>
     <use x="850.679688" xlink:href="#DejaVuSans-101"/>
     <use x="912.203125" xlink:href="#DejaVuSans-114"/>
     <use x="951.566406" xlink:href="#DejaVuSans-114"/>
     <use x="992.679688" xlink:href="#DejaVuSans-32"/>
     <use x="1024.466797" xlink:href="#DejaVuSans-61"/>
     <use x="1108.255859" xlink:href="#DejaVuSans-32"/>
    </g>
   </g>
   <g id="legend_1">
    <g id="patch_7">
     <path d="M 97 226.503125 
L 185.6 226.503125 
Q 187.6 226.503125 187.6 224.503125 
L 187.6 93.4 
Q 187.6 91.4 185.6 91.4 
L 97 91.4 
Q 95 91.4 95 93.4 
L 95 224.503125 
Q 95 226.503125 97 226.503125 
z
" style="fill:#ffffff;opacity:0.8;stroke:#cccccc;stroke-linejoin:miter;"/>
    </g>
    <g id="line2d_37">
     <path d="M 99 99.498438 
L 119 99.498438 
" style="fill:none;stroke:#1f77b4;stroke-linecap:square;stroke-width:1.5;"/>
    </g>
    <g id="line2d_38"/>
    <g id="text_17">
     <!-- SI -->
     <g transform="translate(127 102.998438)scale(0.1 -0.1)">
      <defs>
       <path d="M 53.515625 70.515625 
L 53.515625 60.890625 
Q 47.90625 63.578125 42.921875 64.890625 
Q 37.9375 66.21875 33.296875 66.21875 
Q 25.25 66.21875 20.875 63.09375 
Q 16.5 59.96875 16.5 54.203125 
Q 16.5 49.359375 19.40625 46.890625 
Q 22.3125 44.4375 30.421875 42.921875 
L 36.375 41.703125 
Q 47.40625 39.59375 52.65625 34.296875 
Q 57.90625 29 57.90625 20.125 
Q 57.90625 9.515625 50.796875 4.046875 
Q 43.703125 -1.421875 29.984375 -1.421875 
Q 24.8125 -1.421875 18.96875 -0.25 
Q 13.140625 0.921875 6.890625 3.21875 
L 6.890625 13.375 
Q 12.890625 10.015625 18.65625 8.296875 
Q 24.421875 6.59375 29.984375 6.59375 
Q 38.421875 6.59375 43.015625 9.90625 
Q 47.609375 13.234375 47.609375 19.390625 
Q 47.609375 24.75 44.3125 27.78125 
Q 41.015625 30.8125 33.5 32.328125 
L 27.484375 33.5 
Q 16.453125 35.6875 11.515625 40.375 
Q 6.59375 45.0625 6.59375 53.421875 
Q 6.59375 63.09375 13.40625 68.65625 
Q 20.21875 74.21875 32.171875 74.21875 
Q 37.3125 74.21875 42.625 73.28125 
Q 47.953125 72.359375 53.515625 70.515625 
z
" id="DejaVuSans-83"/>
       <path d="M 9.8125 72.90625 
L 19.671875 72.90625 
L 19.671875 0 
L 9.8125 0 
z
" id="DejaVuSans-73"/>
      </defs>
      <use xlink:href="#DejaVuSans-83"/>
      <use x="63.476562" xlink:href="#DejaVuSans-73"/>
     </g>
    </g>
    <g id="line2d_39">
     <path d="M 99 114.176563 
L 119 114.176563 
" style="fill:none;stroke:#ff7f0e;stroke-linecap:square;stroke-width:1.5;"/>
    </g>
    <g id="line2d_40"/>
    <g id="text_18">
     <!-- BD -->
     <g transform="translate(127 117.676563)scale(0.1 -0.1)">
      <use xlink:href="#DejaVuSans-66"/>
      <use x="68.603516" xlink:href="#DejaVuSans-68"/>
     </g>
    </g>
    <g id="line2d_41">
     <path d="M 99 128.854688 
L 119 128.854688 
" style="fill:none;stroke:#2ca02c;stroke-linecap:square;stroke-width:1.5;"/>
    </g>
    <g id="line2d_42"/>
    <g id="text_19">
     <!-- SIR -->
     <g transform="translate(127 132.354688)scale(0.1 -0.1)">
      <defs>
       <path d="M 44.390625 34.1875 
Q 47.5625 33.109375 50.5625 29.59375 
Q 53.5625 26.078125 56.59375 19.921875 
L 66.609375 0 
L 56 0 
L 46.6875 18.703125 
Q 43.0625 26.03125 39.671875 28.421875 
Q 36.28125 30.8125 30.421875 30.8125 
L 19.671875 30.8125 
L 19.671875 0 
L 9.8125 0 
L 9.8125 72.90625 
L 32.078125 72.90625 
Q 44.578125 72.90625 50.734375 67.671875 
Q 56.890625 62.453125 56.890625 51.90625 
Q 56.890625 45.015625 53.6875 40.46875 
Q 50.484375 35.9375 44.390625 34.1875 
z
M 19.671875 64.796875 
L 19.671875 38.921875 
L 32.078125 38.921875 
Q 39.203125 38.921875 42.84375 42.21875 
Q 46.484375 45.515625 46.484375 51.90625 
Q 46.484375 58.296875 42.84375 61.546875 
Q 39.203125 64.796875 32.078125 64.796875 
z
" id="DejaVuSans-82"/>
      </defs>
      <use xlink:href="#DejaVuSans-83"/>
      <use x="63.476562" xlink:href="#DejaVuSans-73"/>
      <use x="92.96875" xlink:href="#DejaVuSans-82"/>
     </g>
    </g>
    <g id="line2d_43">
     <path d="M 99 143.532812 
L 119 143.532812 
" style="fill:none;stroke:#d62728;stroke-linecap:square;stroke-width:1.5;"/>
    </g>
    <g id="line2d_44"/>
    <g id="text_20">
     <!-- eSIR -->
     <g transform="translate(127 147.032812)scale(0.1 -0.1)">
      <use xlink:href="#DejaVuSans-101"/>
      <use x="61.523438" xlink:href="#DejaVuSans-83"/>
      <use x="125" xlink:href="#DejaVuSans-73"/>
      <use x="154.492188" xlink:href="#DejaVuSans-82"/>
     </g>
    </g>
    <g id="line2d_45">
     <path d="M 99 158.210938 
L 119 158.210938 
" style="fill:none;stroke:#9467bd;stroke-linecap:square;stroke-width:1.5;"/>
    </g>
    <g id="line2d_46"/>
    <g id="text_21">
     <!-- SEIR -->
     <g transform="translate(127 161.710938)scale(0.1 -0.1)">
      <defs>
       <path d="M 9.8125 72.90625 
L 55.90625 72.90625 
L 55.90625 64.59375 
L 19.671875 64.59375 
L 19.671875 43.015625 
L 54.390625 43.015625 
L 54.390625 34.71875 
L 19.671875 34.71875 
L 19.671875 8.296875 
L 56.78125 8.296875 
L 56.78125 0 
L 9.8125 0 
z
" id="DejaVuSans-69"/>
      </defs>
      <use xlink:href="#DejaVuSans-83"/>
      <use x="63.476562" xlink:href="#DejaVuSans-69"/>
      <use x="126.660156" xlink:href="#DejaVuSans-73"/>
      <use x="156.152344" xlink:href="#DejaVuSans-82"/>
     </g>
    </g>
    <g id="line2d_47">
     <path d="M 99 172.889063 
L 119 172.889063 
" style="fill:none;stroke:#8c564b;stroke-linecap:square;stroke-width:1.5;"/>
    </g>
    <g id="line2d_48"/>
    <g id="text_22">
     <!-- eSEIR -->
     <g transform="translate(127 176.389063)scale(0.1 -0.1)">
      <use xlink:href="#DejaVuSans-101"/>
      <use x="61.523438" xlink:href="#DejaVuSans-83"/>
      <use x="125" xlink:href="#DejaVuSans-69"/>
      <use x="188.183594" xlink:href="#DejaVuSans-73"/>
      <use x="217.675781" xlink:href="#DejaVuSans-82"/>
     </g>
    </g>
    <g id="line2d_49">
     <path d="M 99 187.567188 
L 119 187.567188 
" style="fill:none;stroke:#e377c2;stroke-linecap:square;stroke-width:1.5;"/>
    </g>
    <g id="line2d_50"/>
    <g id="text_23">
     <!-- SEIUR -->
     <g transform="translate(127 191.067188)scale(0.1 -0.1)">
      <defs>
       <path d="M 8.6875 72.90625 
L 18.609375 72.90625 
L 18.609375 28.609375 
Q 18.609375 16.890625 22.84375 11.734375 
Q 27.09375 6.59375 36.625 6.59375 
Q 46.09375 6.59375 50.34375 11.734375 
Q 54.59375 16.890625 54.59375 28.609375 
L 54.59375 72.90625 
L 64.5 72.90625 
L 64.5 27.390625 
Q 64.5 13.140625 57.4375 5.859375 
Q 50.390625 -1.421875 36.625 -1.421875 
Q 22.796875 -1.421875 15.734375 5.859375 
Q 8.6875 13.140625 8.6875 27.390625 
z
" id="DejaVuSans-85"/>
      </defs>
      <use xlink:href="#DejaVuSans-83"/>
      <use x="63.476562" xlink:href="#DejaVuSans-69"/>
      <use x="126.660156" xlink:href="#DejaVuSans-73"/>
      <use x="156.152344" xlink:href="#DejaVuSans-85"/>
      <use x="229.345703" xlink:href="#DejaVuSans-82"/>
     </g>
    </g>
    <g id="line2d_51">
     <path d="M 99 202.245312 
L 119 202.245312 
" style="fill:none;stroke:#7f7f7f;stroke-linecap:square;stroke-width:1.5;"/>
    </g>
    <g id="line2d_52"/>
    <g id="text_24">
     <!-- eSEIUR -->
     <g transform="translate(127 205.745312)scale(0.1 -0.1)">
      <use xlink:href="#DejaVuSans-101"/>
      <use x="61.523438" xlink:href="#DejaVuSans-83"/>
      <use x="125" xlink:href="#DejaVuSans-69"/>
      <use x="188.183594" xlink:href="#DejaVuSans-73"/>
      <use x="217.675781" xlink:href="#DejaVuSans-85"/>
      <use x="290.869141" xlink:href="#DejaVuSans-82"/>
     </g>
    </g>
    <g id="line2d_53">
     <path d="M 99 216.923437 
L 119 216.923437 
" style="fill:none;stroke:#bcbd22;stroke-linecap:square;stroke-width:1.5;"/>
    </g>
    <g id="line2d_54"/>
    <g id="text_25">
     <!-- eSEIUR$^{range}$ -->
     <g transform="translate(127 220.423437)scale(0.1 -0.1)">
      <defs>
       <path d="M 44.578125 46.390625 
Q 43.21875 47.125 41.453125 47.515625 
Q 39.703125 47.90625 37.703125 47.90625 
Q 30.515625 47.90625 25.140625 42.453125 
Q 19.78125 37.015625 18.015625 27.875 
L 12.5 0 
L 3.515625 0 
L 14.203125 54.6875 
L 23.1875 54.6875 
L 21.484375 46.1875 
Q 25.046875 50.921875 30 53.453125 
Q 34.96875 56 40.578125 56 
Q 42.046875 56 43.453125 55.828125 
Q 44.875 55.671875 46.296875 55.28125 
z
" id="DejaVuSans-Oblique-114"/>
       <path d="M 53.71875 31.203125 
L 47.609375 0 
L 38.625 0 
L 40.28125 8.296875 
Q 36.328125 3.421875 31.265625 1 
Q 26.21875 -1.421875 20.015625 -1.421875 
Q 13.03125 -1.421875 8.5625 2.84375 
Q 4.109375 7.125 4.109375 13.8125 
Q 4.109375 23.390625 11.75 28.953125 
Q 19.390625 34.515625 32.8125 34.515625 
L 45.3125 34.515625 
L 45.796875 36.921875 
Q 45.90625 37.3125 45.953125 37.765625 
Q 46 38.234375 46 39.203125 
Q 46 43.5625 42.453125 45.96875 
Q 38.921875 48.390625 32.515625 48.390625 
Q 28.125 48.390625 23.5 47.265625 
Q 18.890625 46.140625 14.015625 43.890625 
L 15.578125 52.203125 
Q 20.65625 54.109375 25.515625 55.046875 
Q 30.375 56 34.90625 56 
Q 44.578125 56 49.625 51.796875 
Q 54.6875 47.609375 54.6875 39.59375 
Q 54.6875 37.984375 54.4375 35.8125 
Q 54.203125 33.640625 53.71875 31.203125 
z
M 44 27.484375 
L 35.015625 27.484375 
Q 23.96875 27.484375 18.671875 24.53125 
Q 13.375 21.578125 13.375 15.375 
Q 13.375 11.078125 16.078125 8.640625 
Q 18.796875 6.203125 23.578125 6.203125 
Q 30.90625 6.203125 36.375 11.453125 
Q 41.84375 16.703125 43.609375 25.484375 
z
" id="DejaVuSans-Oblique-97"/>
       <path d="M 55.71875 33.015625 
L 49.3125 0 
L 40.28125 0 
L 46.6875 32.671875 
Q 47.125 34.96875 47.359375 36.71875 
Q 47.609375 38.484375 47.609375 39.5 
Q 47.609375 43.609375 45.015625 45.890625 
Q 42.4375 48.1875 37.796875 48.1875 
Q 30.5625 48.1875 25.34375 43.375 
Q 20.125 38.578125 18.5 30.328125 
L 12.5 0 
L 3.515625 0 
L 14.109375 54.6875 
L 23.09375 54.6875 
L 21.296875 46.09375 
Q 25.046875 50.828125 30.3125 53.40625 
Q 35.59375 56 41.40625 56 
Q 48.640625 56 52.609375 52.09375 
Q 56.59375 48.1875 56.59375 41.109375 
Q 56.59375 39.359375 56.375 37.359375 
Q 56.15625 35.359375 55.71875 33.015625 
z
" id="DejaVuSans-Oblique-110"/>
       <path d="M 59.625 54.6875 
L 50.296875 6.78125 
Q 47.609375 -7.125 40.015625 -13.953125 
Q 32.421875 -20.796875 19.578125 -20.796875 
Q 14.84375 -20.796875 10.78125 -20.09375 
Q 6.734375 -19.390625 3.21875 -17.921875 
L 4.890625 -9.1875 
Q 8.203125 -11.328125 11.90625 -12.34375 
Q 15.625 -13.375 19.828125 -13.375 
Q 28.375 -13.375 33.859375 -8.703125 
Q 39.359375 -4.046875 41.109375 4.6875 
L 41.890625 8.796875 
Q 38.140625 4.5 33.15625 2.25 
Q 28.171875 0 22.40625 0 
Q 14.109375 0 9.34375 5.484375 
Q 4.59375 10.984375 4.59375 20.609375 
Q 4.59375 28.171875 7.46875 35.421875 
Q 10.359375 42.671875 15.578125 48.296875 
Q 19.046875 52 23.65625 54 
Q 28.265625 56 33.296875 56 
Q 38.8125 56 42.90625 53.4375 
Q 47.015625 50.875 49.03125 46.1875 
L 50.59375 54.6875 
z
M 46.09375 34.625 
Q 46.09375 41.265625 42.96875 44.875 
Q 39.84375 48.484375 34.078125 48.484375 
Q 30.515625 48.484375 27.296875 47.0625 
Q 24.078125 45.65625 21.78125 43.109375 
Q 18.0625 38.921875 15.984375 33.234375 
Q 13.921875 27.546875 13.921875 21.484375 
Q 13.921875 14.75 17.0625 11.125 
Q 20.21875 7.515625 26.125 7.515625 
Q 34.671875 7.515625 40.375 15.25 
Q 46.09375 23 46.09375 34.625 
z
" id="DejaVuSans-Oblique-103"/>
       <path d="M 48.09375 32.234375 
Q 48.25 33.015625 48.3125 33.84375 
Q 48.390625 34.671875 48.390625 35.5 
Q 48.390625 41.453125 44.890625 44.921875 
Q 41.40625 48.390625 35.40625 48.390625 
Q 28.71875 48.390625 23.578125 44.15625 
Q 18.453125 39.9375 15.828125 32.171875 
z
M 55.90625 25.203125 
L 14.109375 25.203125 
Q 13.8125 23.34375 13.71875 22.265625 
Q 13.625 21.1875 13.625 20.40625 
Q 13.625 13.625 17.796875 9.90625 
Q 21.96875 6.203125 29.59375 6.203125 
Q 35.453125 6.203125 40.671875 7.515625 
Q 45.90625 8.84375 50.390625 11.375 
L 48.6875 2.484375 
Q 43.84375 0.53125 38.6875 -0.4375 
Q 33.546875 -1.421875 28.21875 -1.421875 
Q 16.84375 -1.421875 10.71875 4.015625 
Q 4.59375 9.46875 4.59375 19.484375 
Q 4.59375 28.03125 7.640625 35.375 
Q 10.6875 42.71875 16.609375 48.484375 
Q 20.40625 52.09375 25.65625 54.046875 
Q 30.90625 56 36.8125 56 
Q 46.09375 56 51.578125 50.4375 
Q 57.078125 44.875 57.078125 35.5 
Q 57.078125 33.25 56.78125 30.6875 
Q 56.5 28.125 55.90625 25.203125 
z
" id="DejaVuSans-Oblique-101"/>
      </defs>
      <use transform="translate(0 0.51875)" xlink:href="#DejaVuSans-101"/>
      <use transform="translate(61.523438 0.51875)" xlink:href="#DejaVuSans-83"/>
      <use transform="translate(125 0.51875)" xlink:href="#DejaVuSans-69"/>
      <use transform="translate(188.183594 0.51875)" xlink:href="#DejaVuSans-73"/>
      <use transform="translate(217.675781 0.51875)" xlink:href="#DejaVuSans-85"/>
      <use transform="translate(288.619141 0.51875)" xlink:href="#DejaVuSans-82"/>
      <use transform="translate(359.058594 38.8)scale(0.7)" xlink:href="#DejaVuSans-Oblique-114"/>
      <use transform="translate(387.837891 38.8)scale(0.7)" xlink:href="#DejaVuSans-Oblique-97"/>
      <use transform="translate(430.733398 38.8)scale(0.7)" xlink:href="#DejaVuSans-Oblique-110"/>
      <use transform="translate(475.098633 38.8)scale(0.7)" xlink:href="#DejaVuSans-Oblique-103"/>
      <use transform="translate(519.532227 38.8)scale(0.7)" xlink:href="#DejaVuSans-Oblique-101"/>
     </g>
    </g>
   </g>
  </g>
 </g>
 <defs>
  <clipPath id="p105e16a2cc">
   <rect height="543.6" width="558" x="90" y="86.4"/>
  </clipPath>
 </defs>
</svg>
