<?xml version="1.0" encoding="utf-8" standalone="no"?>
<!DOCTYPE svg PUBLIC "-//W3C//DTD SVG 1.1//EN"
  "http://www.w3.org/Graphics/SVG/1.1/DTD/svg11.dtd">
<!-- Created with matplotlib (https://matplotlib.org/) -->
<svg height="720pt" version="1.1" viewBox="0 0 720 720" width="720pt" xmlns="http://www.w3.org/2000/svg" xmlns:xlink="http://www.w3.org/1999/xlink">
 <metadata>
  <rdf:RDF xmlns:cc="http://creativecommons.org/ns#" xmlns:dc="http://purl.org/dc/elements/1.1/" xmlns:rdf="http://www.w3.org/1999/02/22-rdf-syntax-ns#">
   <cc:Work>
    <dc:type rdf:resource="http://purl.org/dc/dcmitype/StillImage"/>
    <dc:date>2022-10-11T20:58:52.082519</dc:date>
    <dc:format>image/svg+xml</dc:format>
    <dc:creator>
     <cc:Agent>
      <dc:title>Matplotlib v3.3.2, https://matplotlib.org/</dc:title>
     </cc:Agent>
    </dc:creator>
   </cc:Work>
  </rdf:RDF>
 </metadata>
 <defs>
  <style type="text/css">*{stroke-linecap:butt;stroke-linejoin:round;}</style>
 </defs>
 <g id="figure_1">
  <g id="patch_1">
   <path d="M 0 720 
L 720 720 
L 720 0 
L 0 0 
z
" style="fill:none;"/>
  </g>
  <g id="axes_1">
   <g id="patch_2">
    <path d="M 90 630 
L 648 630 
L 648 86.4 
L 90 86.4 
z
" style="fill:#ffffff;"/>
   </g>
   <g id="matplotlib.axis_1">
    <g id="xtick_1">
     <g id="line2d_1">
      <path clip-path="url(#pa520c6a73e)" d="M 115.363636 630 
L 115.363636 86.4 
" style="fill:none;stroke:#b0b0b0;stroke-linecap:square;stroke-width:0.8;"/>
     </g>
     <g id="line2d_2">
      <defs>
       <path d="M 0 0 
L 0 3.5 
" id="m90a1885f29" style="stroke:#000000;stroke-width:0.8;"/>
      </defs>
      <g>
       <use style="stroke:#000000;stroke-width:0.8;" x="115.363636" xlink:href="#m90a1885f29" y="630"/>
      </g>
     </g>
     <g id="text_1">
      <!-- 0 -->
      <g transform="translate(112.182386 644.598438)scale(0.1 -0.1)">
       <defs>
        <path d="M 31.78125 66.40625 
Q 24.171875 66.40625 20.328125 58.90625 
Q 16.5 51.421875 16.5 36.375 
Q 16.5 21.390625 20.328125 13.890625 
Q 24.171875 6.390625 31.78125 6.390625 
Q 39.453125 6.390625 43.28125 13.890625 
Q 47.125 21.390625 47.125 36.375 
Q 47.125 51.421875 43.28125 58.90625 
Q 39.453125 66.40625 31.78125 66.40625 
z
M 31.78125 74.21875 
Q 44.046875 74.21875 50.515625 64.515625 
Q 56.984375 54.828125 56.984375 36.375 
Q 56.984375 17.96875 50.515625 8.265625 
Q 44.046875 -1.421875 31.78125 -1.421875 
Q 19.53125 -1.421875 13.0625 8.265625 
Q 6.59375 17.96875 6.59375 36.375 
Q 6.59375 54.828125 13.0625 64.515625 
Q 19.53125 74.21875 31.78125 74.21875 
z
" id="DejaVuSans-48"/>
       </defs>
       <use xlink:href="#DejaVuSans-48"/>
      </g>
     </g>
    </g>
    <g id="xtick_2">
     <g id="line2d_3">
      <path clip-path="url(#pa520c6a73e)" d="M 195.249105 630 
L 195.249105 86.4 
" style="fill:none;stroke:#b0b0b0;stroke-linecap:square;stroke-width:0.8;"/>
     </g>
     <g id="line2d_4">
      <g>
       <use style="stroke:#000000;stroke-width:0.8;" x="195.249105" xlink:href="#m90a1885f29" y="630"/>
      </g>
     </g>
     <g id="text_2">
      <!-- 20 -->
      <g transform="translate(188.886605 644.598438)scale(0.1 -0.1)">
       <defs>
        <path d="M 19.1875 8.296875 
L 53.609375 8.296875 
L 53.609375 0 
L 7.328125 0 
L 7.328125 8.296875 
Q 12.9375 14.109375 22.625 23.890625 
Q 32.328125 33.6875 34.8125 36.53125 
Q 39.546875 41.84375 41.421875 45.53125 
Q 43.3125 49.21875 43.3125 52.78125 
Q 43.3125 58.59375 39.234375 62.25 
Q 35.15625 65.921875 28.609375 65.921875 
Q 23.96875 65.921875 18.8125 64.3125 
Q 13.671875 62.703125 7.8125 59.421875 
L 7.8125 69.390625 
Q 13.765625 71.78125 18.9375 73 
Q 24.125 74.21875 28.421875 74.21875 
Q 39.75 74.21875 46.484375 68.546875 
Q 53.21875 62.890625 53.21875 53.421875 
Q 53.21875 48.921875 51.53125 44.890625 
Q 49.859375 40.875 45.40625 35.40625 
Q 44.1875 33.984375 37.640625 27.21875 
Q 31.109375 20.453125 19.1875 8.296875 
z
" id="DejaVuSans-50"/>
       </defs>
       <use xlink:href="#DejaVuSans-50"/>
       <use x="63.623047" xlink:href="#DejaVuSans-48"/>
      </g>
     </g>
    </g>
    <g id="xtick_3">
     <g id="line2d_5">
      <path clip-path="url(#pa520c6a73e)" d="M 275.134574 630 
L 275.134574 86.4 
" style="fill:none;stroke:#b0b0b0;stroke-linecap:square;stroke-width:0.8;"/>
     </g>
     <g id="line2d_6">
      <g>
       <use style="stroke:#000000;stroke-width:0.8;" x="275.134574" xlink:href="#m90a1885f29" y="630"/>
      </g>
     </g>
     <g id="text_3">
      <!-- 40 -->
      <g transform="translate(268.772074 644.598438)scale(0.1 -0.1)">
       <defs>
        <path d="M 37.796875 64.3125 
L 12.890625 25.390625 
L 37.796875 25.390625 
z
M 35.203125 72.90625 
L 47.609375 72.90625 
L 47.609375 25.390625 
L 58.015625 25.390625 
L 58.015625 17.1875 
L 47.609375 17.1875 
L 47.609375 0 
L 37.796875 0 
L 37.796875 17.1875 
L 4.890625 17.1875 
L 4.890625 26.703125 
z
" id="DejaVuSans-52"/>
       </defs>
       <use xlink:href="#DejaVuSans-52"/>
       <use x="63.623047" xlink:href="#DejaVuSans-48"/>
      </g>
     </g>
    </g>
    <g id="xtick_4">
     <g id="line2d_7">
      <path clip-path="url(#pa520c6a73e)" d="M 355.020043 630 
L 355.020043 86.4 
" style="fill:none;stroke:#b0b0b0;stroke-linecap:square;stroke-width:0.8;"/>
     </g>
     <g id="line2d_8">
      <g>
       <use style="stroke:#000000;stroke-width:0.8;" x="355.020043" xlink:href="#m90a1885f29" y="630"/>
      </g>
     </g>
     <g id="text_4">
      <!-- 60 -->
      <g transform="translate(348.657543 644.598438)scale(0.1 -0.1)">
       <defs>
        <path d="M 33.015625 40.375 
Q 26.375 40.375 22.484375 35.828125 
Q 18.609375 31.296875 18.609375 23.390625 
Q 18.609375 15.53125 22.484375 10.953125 
Q 26.375 6.390625 33.015625 6.390625 
Q 39.65625 6.390625 43.53125 10.953125 
Q 47.40625 15.53125 47.40625 23.390625 
Q 47.40625 31.296875 43.53125 35.828125 
Q 39.65625 40.375 33.015625 40.375 
z
M 52.59375 71.296875 
L 52.59375 62.3125 
Q 48.875 64.0625 45.09375 64.984375 
Q 41.3125 65.921875 37.59375 65.921875 
Q 27.828125 65.921875 22.671875 59.328125 
Q 17.53125 52.734375 16.796875 39.40625 
Q 19.671875 43.65625 24.015625 45.921875 
Q 28.375 48.1875 33.59375 48.1875 
Q 44.578125 48.1875 50.953125 41.515625 
Q 57.328125 34.859375 57.328125 23.390625 
Q 57.328125 12.15625 50.6875 5.359375 
Q 44.046875 -1.421875 33.015625 -1.421875 
Q 20.359375 -1.421875 13.671875 8.265625 
Q 6.984375 17.96875 6.984375 36.375 
Q 6.984375 53.65625 15.1875 63.9375 
Q 23.390625 74.21875 37.203125 74.21875 
Q 40.921875 74.21875 44.703125 73.484375 
Q 48.484375 72.75 52.59375 71.296875 
z
" id="DejaVuSans-54"/>
       </defs>
       <use xlink:href="#DejaVuSans-54"/>
       <use x="63.623047" xlink:href="#DejaVuSans-48"/>
      </g>
     </g>
    </g>
    <g id="xtick_5">
     <g id="line2d_9">
      <path clip-path="url(#pa520c6a73e)" d="M 434.905512 630 
L 434.905512 86.4 
" style="fill:none;stroke:#b0b0b0;stroke-linecap:square;stroke-width:0.8;"/>
     </g>
     <g id="line2d_10">
      <g>
       <use style="stroke:#000000;stroke-width:0.8;" x="434.905512" xlink:href="#m90a1885f29" y="630"/>
      </g>
     </g>
     <g id="text_5">
      <!-- 80 -->
      <g transform="translate(428.543012 644.598438)scale(0.1 -0.1)">
       <defs>
        <path d="M 31.78125 34.625 
Q 24.75 34.625 20.71875 30.859375 
Q 16.703125 27.09375 16.703125 20.515625 
Q 16.703125 13.921875 20.71875 10.15625 
Q 24.75 6.390625 31.78125 6.390625 
Q 38.8125 6.390625 42.859375 10.171875 
Q 46.921875 13.96875 46.921875 20.515625 
Q 46.921875 27.09375 42.890625 30.859375 
Q 38.875 34.625 31.78125 34.625 
z
M 21.921875 38.8125 
Q 15.578125 40.375 12.03125 44.71875 
Q 8.5 49.078125 8.5 55.328125 
Q 8.5 64.0625 14.71875 69.140625 
Q 20.953125 74.21875 31.78125 74.21875 
Q 42.671875 74.21875 48.875 69.140625 
Q 55.078125 64.0625 55.078125 55.328125 
Q 55.078125 49.078125 51.53125 44.71875 
Q 48 40.375 41.703125 38.8125 
Q 48.828125 37.15625 52.796875 32.3125 
Q 56.78125 27.484375 56.78125 20.515625 
Q 56.78125 9.90625 50.3125 4.234375 
Q 43.84375 -1.421875 31.78125 -1.421875 
Q 19.734375 -1.421875 13.25 4.234375 
Q 6.78125 9.90625 6.78125 20.515625 
Q 6.78125 27.484375 10.78125 32.3125 
Q 14.796875 37.15625 21.921875 38.8125 
z
M 18.3125 54.390625 
Q 18.3125 48.734375 21.84375 45.5625 
Q 25.390625 42.390625 31.78125 42.390625 
Q 38.140625 42.390625 41.71875 45.5625 
Q 45.3125 48.734375 45.3125 54.390625 
Q 45.3125 60.0625 41.71875 63.234375 
Q 38.140625 66.40625 31.78125 66.40625 
Q 25.390625 66.40625 21.84375 63.234375 
Q 18.3125 60.0625 18.3125 54.390625 
z
" id="DejaVuSans-56"/>
       </defs>
       <use xlink:href="#DejaVuSans-56"/>
       <use x="63.623047" xlink:href="#DejaVuSans-48"/>
      </g>
     </g>
    </g>
    <g id="xtick_6">
     <g id="line2d_11">
      <path clip-path="url(#pa520c6a73e)" d="M 514.790981 630 
L 514.790981 86.4 
" style="fill:none;stroke:#b0b0b0;stroke-linecap:square;stroke-width:0.8;"/>
     </g>
     <g id="line2d_12">
      <g>
       <use style="stroke:#000000;stroke-width:0.8;" x="514.790981" xlink:href="#m90a1885f29" y="630"/>
      </g>
     </g>
     <g id="text_6">
      <!-- 100 -->
      <g transform="translate(505.247231 644.598438)scale(0.1 -0.1)">
       <defs>
        <path d="M 12.40625 8.296875 
L 28.515625 8.296875 
L 28.515625 63.921875 
L 10.984375 60.40625 
L 10.984375 69.390625 
L 28.421875 72.90625 
L 38.28125 72.90625 
L 38.28125 8.296875 
L 54.390625 8.296875 
L 54.390625 0 
L 12.40625 0 
z
" id="DejaVuSans-49"/>
       </defs>
       <use xlink:href="#DejaVuSans-49"/>
       <use x="63.623047" xlink:href="#DejaVuSans-48"/>
       <use x="127.246094" xlink:href="#DejaVuSans-48"/>
      </g>
     </g>
    </g>
    <g id="xtick_7">
     <g id="line2d_13">
      <path clip-path="url(#pa520c6a73e)" d="M 594.67645 630 
L 594.67645 86.4 
" style="fill:none;stroke:#b0b0b0;stroke-linecap:square;stroke-width:0.8;"/>
     </g>
     <g id="line2d_14">
      <g>
       <use style="stroke:#000000;stroke-width:0.8;" x="594.67645" xlink:href="#m90a1885f29" y="630"/>
      </g>
     </g>
     <g id="text_7">
      <!-- 120 -->
      <g transform="translate(585.1327 644.598438)scale(0.1 -0.1)">
       <use xlink:href="#DejaVuSans-49"/>
       <use x="63.623047" xlink:href="#DejaVuSans-50"/>
       <use x="127.246094" xlink:href="#DejaVuSans-48"/>
      </g>
     </g>
    </g>
    <g id="text_8">
     <!-- Days -->
     <g transform="translate(356.521875 658.276562)scale(0.1 -0.1)">
      <defs>
       <path d="M 19.671875 64.796875 
L 19.671875 8.109375 
L 31.59375 8.109375 
Q 46.6875 8.109375 53.6875 14.9375 
Q 60.6875 21.78125 60.6875 36.53125 
Q 60.6875 51.171875 53.6875 57.984375 
Q 46.6875 64.796875 31.59375 64.796875 
z
M 9.8125 72.90625 
L 30.078125 72.90625 
Q 51.265625 72.90625 61.171875 64.09375 
Q 71.09375 55.28125 71.09375 36.53125 
Q 71.09375 17.671875 61.125 8.828125 
Q 51.171875 0 30.078125 0 
L 9.8125 0 
z
" id="DejaVuSans-68"/>
       <path d="M 34.28125 27.484375 
Q 23.390625 27.484375 19.1875 25 
Q 14.984375 22.515625 14.984375 16.5 
Q 14.984375 11.71875 18.140625 8.90625 
Q 21.296875 6.109375 26.703125 6.109375 
Q 34.1875 6.109375 38.703125 11.40625 
Q 43.21875 16.703125 43.21875 25.484375 
L 43.21875 27.484375 
z
M 52.203125 31.203125 
L 52.203125 0 
L 43.21875 0 
L 43.21875 8.296875 
Q 40.140625 3.328125 35.546875 0.953125 
Q 30.953125 -1.421875 24.3125 -1.421875 
Q 15.921875 -1.421875 10.953125 3.296875 
Q 6 8.015625 6 15.921875 
Q 6 25.140625 12.171875 29.828125 
Q 18.359375 34.515625 30.609375 34.515625 
L 43.21875 34.515625 
L 43.21875 35.40625 
Q 43.21875 41.609375 39.140625 45 
Q 35.0625 48.390625 27.6875 48.390625 
Q 23 48.390625 18.546875 47.265625 
Q 14.109375 46.140625 10.015625 43.890625 
L 10.015625 52.203125 
Q 14.9375 54.109375 19.578125 55.046875 
Q 24.21875 56 28.609375 56 
Q 40.484375 56 46.34375 49.84375 
Q 52.203125 43.703125 52.203125 31.203125 
z
" id="DejaVuSans-97"/>
       <path d="M 32.171875 -5.078125 
Q 28.375 -14.84375 24.75 -17.8125 
Q 21.140625 -20.796875 15.09375 -20.796875 
L 7.90625 -20.796875 
L 7.90625 -13.28125 
L 13.1875 -13.28125 
Q 16.890625 -13.28125 18.9375 -11.515625 
Q 21 -9.765625 23.484375 -3.21875 
L 25.09375 0.875 
L 2.984375 54.6875 
L 12.5 54.6875 
L 29.59375 11.921875 
L 46.6875 54.6875 
L 56.203125 54.6875 
z
" id="DejaVuSans-121"/>
       <path d="M 44.28125 53.078125 
L 44.28125 44.578125 
Q 40.484375 46.53125 36.375 47.5 
Q 32.28125 48.484375 27.875 48.484375 
Q 21.1875 48.484375 17.84375 46.4375 
Q 14.5 44.390625 14.5 40.28125 
Q 14.5 37.15625 16.890625 35.375 
Q 19.28125 33.59375 26.515625 31.984375 
L 29.59375 31.296875 
Q 39.15625 29.25 43.1875 25.515625 
Q 47.21875 21.78125 47.21875 15.09375 
Q 47.21875 7.46875 41.1875 3.015625 
Q 35.15625 -1.421875 24.609375 -1.421875 
Q 20.21875 -1.421875 15.453125 -0.5625 
Q 10.6875 0.296875 5.421875 2 
L 5.421875 11.28125 
Q 10.40625 8.6875 15.234375 7.390625 
Q 20.0625 6.109375 24.8125 6.109375 
Q 31.15625 6.109375 34.5625 8.28125 
Q 37.984375 10.453125 37.984375 14.40625 
Q 37.984375 18.0625 35.515625 20.015625 
Q 33.0625 21.96875 24.703125 23.78125 
L 21.578125 24.515625 
Q 13.234375 26.265625 9.515625 29.90625 
Q 5.8125 33.546875 5.8125 39.890625 
Q 5.8125 47.609375 11.28125 51.796875 
Q 16.75 56 26.8125 56 
Q 31.78125 56 36.171875 55.265625 
Q 40.578125 54.546875 44.28125 53.078125 
z
" id="DejaVuSans-115"/>
      </defs>
      <use xlink:href="#DejaVuSans-68"/>
      <use x="77.001953" xlink:href="#DejaVuSans-97"/>
      <use x="138.28125" xlink:href="#DejaVuSans-121"/>
      <use x="197.460938" xlink:href="#DejaVuSans-115"/>
     </g>
    </g>
   </g>
   <g id="matplotlib.axis_2">
    <g id="ytick_1">
     <g id="line2d_15">
      <path clip-path="url(#pa520c6a73e)" d="M 90 608.669369 
L 648 608.669369 
" style="fill:none;stroke:#b0b0b0;stroke-linecap:square;stroke-width:0.8;"/>
     </g>
     <g id="line2d_16">
      <defs>
       <path d="M 0 0 
L -3.5 0 
" id="mba879bc7ff" style="stroke:#000000;stroke-width:0.8;"/>
      </defs>
      <g>
       <use style="stroke:#000000;stroke-width:0.8;" x="90" xlink:href="#mba879bc7ff" y="608.669369"/>
      </g>
     </g>
     <g id="text_9">
      <!-- 0 -->
      <g transform="translate(76.6375 612.468588)scale(0.1 -0.1)">
       <use xlink:href="#DejaVuSans-48"/>
      </g>
     </g>
    </g>
    <g id="ytick_2">
     <g id="line2d_17">
      <path clip-path="url(#pa520c6a73e)" d="M 90 514.823266 
L 648 514.823266 
" style="fill:none;stroke:#b0b0b0;stroke-linecap:square;stroke-width:0.8;"/>
     </g>
     <g id="line2d_18">
      <g>
       <use style="stroke:#000000;stroke-width:0.8;" x="90" xlink:href="#mba879bc7ff" y="514.823266"/>
      </g>
     </g>
     <g id="text_10">
      <!-- 500 -->
      <g transform="translate(63.9125 518.622484)scale(0.1 -0.1)">
       <defs>
        <path d="M 10.796875 72.90625 
L 49.515625 72.90625 
L 49.515625 64.59375 
L 19.828125 64.59375 
L 19.828125 46.734375 
Q 21.96875 47.46875 24.109375 47.828125 
Q 26.265625 48.1875 28.421875 48.1875 
Q 40.625 48.1875 47.75 41.5 
Q 54.890625 34.8125 54.890625 23.390625 
Q 54.890625 11.625 47.5625 5.09375 
Q 40.234375 -1.421875 26.90625 -1.421875 
Q 22.3125 -1.421875 17.546875 -0.640625 
Q 12.796875 0.140625 7.71875 1.703125 
L 7.71875 11.625 
Q 12.109375 9.234375 16.796875 8.0625 
Q 21.484375 6.890625 26.703125 6.890625 
Q 35.15625 6.890625 40.078125 11.328125 
Q 45.015625 15.765625 45.015625 23.390625 
Q 45.015625 31 40.078125 35.4375 
Q 35.15625 39.890625 26.703125 39.890625 
Q 22.75 39.890625 18.8125 39.015625 
Q 14.890625 38.140625 10.796875 36.28125 
z
" id="DejaVuSans-53"/>
       </defs>
       <use xlink:href="#DejaVuSans-53"/>
       <use x="63.623047" xlink:href="#DejaVuSans-48"/>
       <use x="127.246094" xlink:href="#DejaVuSans-48"/>
      </g>
     </g>
    </g>
    <g id="ytick_3">
     <g id="line2d_19">
      <path clip-path="url(#pa520c6a73e)" d="M 90 420.977163 
L 648 420.977163 
" style="fill:none;stroke:#b0b0b0;stroke-linecap:square;stroke-width:0.8;"/>
     </g>
     <g id="line2d_20">
      <g>
       <use style="stroke:#000000;stroke-width:0.8;" x="90" xlink:href="#mba879bc7ff" y="420.977163"/>
      </g>
     </g>
     <g id="text_11">
      <!-- 1000 -->
      <g transform="translate(57.55 424.776381)scale(0.1 -0.1)">
       <use xlink:href="#DejaVuSans-49"/>
       <use x="63.623047" xlink:href="#DejaVuSans-48"/>
       <use x="127.246094" xlink:href="#DejaVuSans-48"/>
       <use x="190.869141" xlink:href="#DejaVuSans-48"/>
      </g>
     </g>
    </g>
    <g id="ytick_4">
     <g id="line2d_21">
      <path clip-path="url(#pa520c6a73e)" d="M 90 327.131059 
L 648 327.131059 
" style="fill:none;stroke:#b0b0b0;stroke-linecap:square;stroke-width:0.8;"/>
     </g>
     <g id="line2d_22">
      <g>
       <use style="stroke:#000000;stroke-width:0.8;" x="90" xlink:href="#mba879bc7ff" y="327.131059"/>
      </g>
     </g>
     <g id="text_12">
      <!-- 1500 -->
      <g transform="translate(57.55 330.930278)scale(0.1 -0.1)">
       <use xlink:href="#DejaVuSans-49"/>
       <use x="63.623047" xlink:href="#DejaVuSans-53"/>
       <use x="127.246094" xlink:href="#DejaVuSans-48"/>
       <use x="190.869141" xlink:href="#DejaVuSans-48"/>
      </g>
     </g>
    </g>
    <g id="ytick_5">
     <g id="line2d_23">
      <path clip-path="url(#pa520c6a73e)" d="M 90 233.284956 
L 648 233.284956 
" style="fill:none;stroke:#b0b0b0;stroke-linecap:square;stroke-width:0.8;"/>
     </g>
     <g id="line2d_24">
      <g>
       <use style="stroke:#000000;stroke-width:0.8;" x="90" xlink:href="#mba879bc7ff" y="233.284956"/>
      </g>
     </g>
     <g id="text_13">
      <!-- 2000 -->
      <g transform="translate(57.55 237.084175)scale(0.1 -0.1)">
       <use xlink:href="#DejaVuSans-50"/>
       <use x="63.623047" xlink:href="#DejaVuSans-48"/>
       <use x="127.246094" xlink:href="#DejaVuSans-48"/>
       <use x="190.869141" xlink:href="#DejaVuSans-48"/>
      </g>
     </g>
    </g>
    <g id="ytick_6">
     <g id="line2d_25">
      <path clip-path="url(#pa520c6a73e)" d="M 90 139.438853 
L 648 139.438853 
" style="fill:none;stroke:#b0b0b0;stroke-linecap:square;stroke-width:0.8;"/>
     </g>
     <g id="line2d_26">
      <g>
       <use style="stroke:#000000;stroke-width:0.8;" x="90" xlink:href="#mba879bc7ff" y="139.438853"/>
      </g>
     </g>
     <g id="text_14">
      <!-- 2500 -->
      <g transform="translate(57.55 143.238072)scale(0.1 -0.1)">
       <use xlink:href="#DejaVuSans-50"/>
       <use x="63.623047" xlink:href="#DejaVuSans-53"/>
       <use x="127.246094" xlink:href="#DejaVuSans-48"/>
       <use x="190.869141" xlink:href="#DejaVuSans-48"/>
      </g>
     </g>
    </g>
    <g id="text_15">
     <!-- Cumulative cases -->
     <g transform="translate(51.470312 402.425781)rotate(-90)scale(0.1 -0.1)">
      <defs>
       <path d="M 64.40625 67.28125 
L 64.40625 56.890625 
Q 59.421875 61.53125 53.78125 63.8125 
Q 48.140625 66.109375 41.796875 66.109375 
Q 29.296875 66.109375 22.65625 58.46875 
Q 16.015625 50.828125 16.015625 36.375 
Q 16.015625 21.96875 22.65625 14.328125 
Q 29.296875 6.6875 41.796875 6.6875 
Q 48.140625 6.6875 53.78125 8.984375 
Q 59.421875 11.28125 64.40625 15.921875 
L 64.40625 5.609375 
Q 59.234375 2.09375 53.4375 0.328125 
Q 47.65625 -1.421875 41.21875 -1.421875 
Q 24.65625 -1.421875 15.125 8.703125 
Q 5.609375 18.84375 5.609375 36.375 
Q 5.609375 53.953125 15.125 64.078125 
Q 24.65625 74.21875 41.21875 74.21875 
Q 47.75 74.21875 53.53125 72.484375 
Q 59.328125 70.75 64.40625 67.28125 
z
" id="DejaVuSans-67"/>
       <path d="M 8.5 21.578125 
L 8.5 54.6875 
L 17.484375 54.6875 
L 17.484375 21.921875 
Q 17.484375 14.15625 20.5 10.265625 
Q 23.53125 6.390625 29.59375 6.390625 
Q 36.859375 6.390625 41.078125 11.03125 
Q 45.3125 15.671875 45.3125 23.6875 
L 45.3125 54.6875 
L 54.296875 54.6875 
L 54.296875 0 
L 45.3125 0 
L 45.3125 8.40625 
Q 42.046875 3.421875 37.71875 1 
Q 33.40625 -1.421875 27.6875 -1.421875 
Q 18.265625 -1.421875 13.375 4.4375 
Q 8.5 10.296875 8.5 21.578125 
z
M 31.109375 56 
z
" id="DejaVuSans-117"/>
       <path d="M 52 44.1875 
Q 55.375 50.25 60.0625 53.125 
Q 64.75 56 71.09375 56 
Q 79.640625 56 84.28125 50.015625 
Q 88.921875 44.046875 88.921875 33.015625 
L 88.921875 0 
L 79.890625 0 
L 79.890625 32.71875 
Q 79.890625 40.578125 77.09375 44.375 
Q 74.3125 48.1875 68.609375 48.1875 
Q 61.625 48.1875 57.5625 43.546875 
Q 53.515625 38.921875 53.515625 30.90625 
L 53.515625 0 
L 44.484375 0 
L 44.484375 32.71875 
Q 44.484375 40.625 41.703125 44.40625 
Q 38.921875 48.1875 33.109375 48.1875 
Q 26.21875 48.1875 22.15625 43.53125 
Q 18.109375 38.875 18.109375 30.90625 
L 18.109375 0 
L 9.078125 0 
L 9.078125 54.6875 
L 18.109375 54.6875 
L 18.109375 46.1875 
Q 21.1875 51.21875 25.484375 53.609375 
Q 29.78125 56 35.6875 56 
Q 41.65625 56 45.828125 52.96875 
Q 50 49.953125 52 44.1875 
z
" id="DejaVuSans-109"/>
       <path d="M 9.421875 75.984375 
L 18.40625 75.984375 
L 18.40625 0 
L 9.421875 0 
z
" id="DejaVuSans-108"/>
       <path d="M 18.3125 70.21875 
L 18.3125 54.6875 
L 36.8125 54.6875 
L 36.8125 47.703125 
L 18.3125 47.703125 
L 18.3125 18.015625 
Q 18.3125 11.328125 20.140625 9.421875 
Q 21.96875 7.515625 27.59375 7.515625 
L 36.8125 7.515625 
L 36.8125 0 
L 27.59375 0 
Q 17.1875 0 13.234375 3.875 
Q 9.28125 7.765625 9.28125 18.015625 
L 9.28125 47.703125 
L 2.6875 47.703125 
L 2.6875 54.6875 
L 9.28125 54.6875 
L 9.28125 70.21875 
z
" id="DejaVuSans-116"/>
       <path d="M 9.421875 54.6875 
L 18.40625 54.6875 
L 18.40625 0 
L 9.421875 0 
z
M 9.421875 75.984375 
L 18.40625 75.984375 
L 18.40625 64.59375 
L 9.421875 64.59375 
z
" id="DejaVuSans-105"/>
       <path d="M 2.984375 54.6875 
L 12.5 54.6875 
L 29.59375 8.796875 
L 46.6875 54.6875 
L 56.203125 54.6875 
L 35.6875 0 
L 23.484375 0 
z
" id="DejaVuSans-118"/>
       <path d="M 56.203125 29.59375 
L 56.203125 25.203125 
L 14.890625 25.203125 
Q 15.484375 15.921875 20.484375 11.0625 
Q 25.484375 6.203125 34.421875 6.203125 
Q 39.59375 6.203125 44.453125 7.46875 
Q 49.3125 8.734375 54.109375 11.28125 
L 54.109375 2.78125 
Q 49.265625 0.734375 44.1875 -0.34375 
Q 39.109375 -1.421875 33.890625 -1.421875 
Q 20.796875 -1.421875 13.15625 6.1875 
Q 5.515625 13.8125 5.515625 26.8125 
Q 5.515625 40.234375 12.765625 48.109375 
Q 20.015625 56 32.328125 56 
Q 43.359375 56 49.78125 48.890625 
Q 56.203125 41.796875 56.203125 29.59375 
z
M 47.21875 32.234375 
Q 47.125 39.59375 43.09375 43.984375 
Q 39.0625 48.390625 32.421875 48.390625 
Q 24.90625 48.390625 20.390625 44.140625 
Q 15.875 39.890625 15.1875 32.171875 
z
" id="DejaVuSans-101"/>
       <path id="DejaVuSans-32"/>
       <path d="M 48.78125 52.59375 
L 48.78125 44.1875 
Q 44.96875 46.296875 41.140625 47.34375 
Q 37.3125 48.390625 33.40625 48.390625 
Q 24.65625 48.390625 19.8125 42.84375 
Q 14.984375 37.3125 14.984375 27.296875 
Q 14.984375 17.28125 19.8125 11.734375 
Q 24.65625 6.203125 33.40625 6.203125 
Q 37.3125 6.203125 41.140625 7.25 
Q 44.96875 8.296875 48.78125 10.40625 
L 48.78125 2.09375 
Q 45.015625 0.34375 40.984375 -0.53125 
Q 36.96875 -1.421875 32.421875 -1.421875 
Q 20.0625 -1.421875 12.78125 6.34375 
Q 5.515625 14.109375 5.515625 27.296875 
Q 5.515625 40.671875 12.859375 48.328125 
Q 20.21875 56 33.015625 56 
Q 37.15625 56 41.109375 55.140625 
Q 45.0625 54.296875 48.78125 52.59375 
z
" id="DejaVuSans-99"/>
      </defs>
      <use xlink:href="#DejaVuSans-67"/>
      <use x="69.824219" xlink:href="#DejaVuSans-117"/>
      <use x="133.203125" xlink:href="#DejaVuSans-109"/>
      <use x="230.615234" xlink:href="#DejaVuSans-117"/>
      <use x="293.994141" xlink:href="#DejaVuSans-108"/>
      <use x="321.777344" xlink:href="#DejaVuSans-97"/>
      <use x="383.056641" xlink:href="#DejaVuSans-116"/>
      <use x="422.265625" xlink:href="#DejaVuSans-105"/>
      <use x="450.048828" xlink:href="#DejaVuSans-118"/>
      <use x="509.228516" xlink:href="#DejaVuSans-101"/>
      <use x="570.751953" xlink:href="#DejaVuSans-32"/>
      <use x="602.539062" xlink:href="#DejaVuSans-99"/>
      <use x="657.519531" xlink:href="#DejaVuSans-97"/>
      <use x="718.798828" xlink:href="#DejaVuSans-115"/>
      <use x="770.898438" xlink:href="#DejaVuSans-101"/>
      <use x="832.421875" xlink:href="#DejaVuSans-115"/>
     </g>
    </g>
   </g>
   <g id="line2d_27">
    <path clip-path="url(#pa520c6a73e)" d="M 115.363636 605.290909 
L 127.346457 604.373527 
L 139.329277 603.210048 
L 147.317824 602.266593 
L 155.306371 601.162812 
L 163.294918 599.872477 
L 171.283465 598.365441 
L 179.272011 596.607199 
L 187.260558 594.558442 
L 195.249105 592.174646 
L 203.237652 589.405722 
L 211.226199 586.195778 
L 215.220472 584.40635 
L 219.214746 582.483057 
L 223.209019 580.417294 
L 227.203293 578.200133 
L 231.197566 575.822349 
L 235.19184 573.274456 
L 239.186113 570.546752 
L 243.180387 567.62937 
L 247.17466 564.512347 
L 251.168933 561.185703 
L 255.163207 557.639528 
L 259.15748 553.864085 
L 263.151754 549.84993 
L 267.146027 545.588043 
L 271.140301 541.069968 
L 275.134574 536.287974 
L 279.128848 531.235219 
L 283.123121 525.905929 
L 287.117394 520.295582 
L 291.111668 514.401092 
L 295.105941 508.220996 
L 299.100215 501.755637 
L 303.094488 495.007333 
L 307.088762 487.98053 
L 311.083035 480.681937 
L 315.077309 473.120627 
L 323.065855 457.258357 
L 331.054402 440.515239 
L 339.042949 423.050592 
L 347.031496 405.057112 
L 374.99141 341.179972 
L 382.979957 323.630439 
L 390.968504 306.777757 
L 398.957051 290.786176 
L 402.951324 283.154472 
L 406.945598 275.782561 
L 410.939871 268.680182 
L 414.934145 261.854687 
L 418.928418 255.311131 
L 422.922691 249.052404 
L 426.916965 243.079376 
L 430.911238 237.391063 
L 434.905512 231.984809 
L 438.899785 226.856467 
L 442.894059 222.000588 
L 446.888332 217.410609 
L 450.882606 213.079024 
L 454.876879 208.997562 
L 458.871152 205.157342 
L 462.865426 201.549024 
L 466.859699 198.162939 
L 470.853973 194.989215 
L 474.848246 192.017879 
L 478.84252 189.238957 
L 482.836793 186.642548 
L 486.831067 184.2189 
L 490.82534 181.958461 
L 494.819613 179.851931 
L 498.813887 177.890296 
L 502.80816 176.064862 
L 510.796707 172.789522 
L 518.785254 169.963353 
L 526.773801 167.529657 
L 534.762348 165.437555 
L 542.750895 163.641778 
L 550.739442 162.102322 
L 558.727989 160.784047 
L 566.716535 159.656233 
L 578.699356 158.264106 
L 590.682176 157.16543 
L 602.664996 156.299369 
L 618.64209 155.423907 
L 622.636364 155.245364 
L 622.636364 155.245364 
" style="fill:none;stroke:#1f77b4;stroke-linecap:square;stroke-width:1.5;"/>
   </g>
   <g id="line2d_28">
    <path clip-path="url(#pa520c6a73e)" d="M 115.363636 605.290909 
L 123.352183 602.726988 
L 131.34073 599.941586 
L 139.329277 596.918514 
L 147.317824 593.640957 
L 155.306371 590.091557 
L 163.294918 586.252531 
L 171.283465 582.10581 
L 179.272011 577.633215 
L 187.260558 572.816667 
L 195.249105 567.638433 
L 203.237652 562.081412 
L 211.226199 556.129455 
L 219.214746 549.767731 
L 227.203293 542.983114 
L 235.19184 535.764613 
L 243.180387 528.103808 
L 251.168933 519.995311 
L 259.15748 511.437214 
L 267.146027 502.431527 
L 275.134574 492.984579 
L 283.123121 483.107363 
L 291.111668 472.815814 
L 299.100215 462.130987 
L 307.088762 451.07913 
L 315.077309 439.691625 
L 323.065855 428.004796 
L 335.048676 410.003994 
L 347.031496 391.577654 
L 370.997137 354.141113 
L 386.97423 329.334865 
L 398.957051 311.111049 
L 410.939871 293.396237 
L 418.928418 281.941417 
L 426.916965 270.814873 
L 434.905512 260.049068 
L 442.894059 249.671356 
L 450.882606 239.703904 
L 458.871152 230.163731 
L 466.859699 221.062868 
L 474.848246 212.408616 
L 482.836793 204.203877 
L 490.82534 196.447548 
L 498.813887 189.134946 
L 506.802434 182.258264 
L 514.790981 175.807022 
L 522.779528 169.768516 
L 530.768074 164.128245 
L 538.756621 158.870311 
L 546.745168 153.977789 
L 554.733715 149.433055 
L 562.722262 145.218083 
L 570.710809 141.314695 
L 578.699356 137.704785 
L 586.687903 134.370494 
L 594.67645 131.294363 
L 602.664996 128.459452 
L 610.653543 125.849432 
L 618.64209 123.448653 
L 622.636364 122.322036 
L 622.636364 122.322036 
" style="fill:none;stroke:#ff7f0e;stroke-linecap:square;stroke-width:1.5;"/>
   </g>
   <g id="line2d_29">
    <path clip-path="url(#pa520c6a73e)" d="M 115.363636 605.290909 
L 123.352183 602.778726 
L 131.34073 600.042266 
L 139.329277 597.064634 
L 147.317824 593.828271 
L 155.306371 590.31505 
L 163.294918 586.506408 
L 171.283465 582.383501 
L 179.272011 577.927407 
L 187.260558 573.119359 
L 195.249105 567.941023 
L 203.237652 562.374817 
L 211.226199 556.404271 
L 219.214746 550.014423 
L 227.203293 543.192251 
L 235.19184 535.92713 
L 243.180387 528.211305 
L 251.168933 520.040365 
L 259.15748 511.413709 
L 267.146027 502.334976 
L 275.134574 492.812427 
L 283.123121 482.859253 
L 291.111668 472.493797 
L 299.100215 461.739653 
L 307.088762 450.62565 
L 315.077309 439.185685 
L 327.060129 421.500321 
L 339.042949 403.317572 
L 355.020043 378.587111 
L 382.979957 335.153311 
L 394.962777 316.936353 
L 406.945598 299.193509 
L 414.934145 287.698559 
L 422.922691 276.513466 
L 430.911238 265.669819 
L 438.899785 255.194351 
L 446.888332 245.108887 
L 454.876879 235.430412 
L 462.865426 226.171239 
L 470.853973 217.339261 
L 478.84252 208.938269 
L 486.831067 200.96831 
L 494.819613 193.426087 
L 502.80816 186.305362 
L 510.796707 179.597371 
L 518.785254 173.291225 
L 526.773801 167.374293 
L 534.762348 161.83256 
L 542.750895 156.650961 
L 550.739442 151.813678 
L 558.727989 147.304408 
L 566.716535 143.106593 
L 574.705082 139.203626 
L 582.693629 135.579018 
L 590.682176 132.216543 
L 598.670723 129.10035 
L 606.65927 126.215062 
L 614.647817 123.54584 
L 622.636364 121.078445 
L 622.636364 121.078445 
" style="fill:none;stroke:#2ca02c;stroke-linecap:square;stroke-width:1.5;"/>
   </g>
   <g id="line2d_30">
    <path clip-path="url(#pa520c6a73e)" d="M 115.363636 605.290909 
L 123.352183 602.778726 
L 131.34073 600.042266 
L 139.329277 597.064634 
L 147.317824 593.828271 
L 155.306371 590.31505 
L 163.294918 586.506408 
L 171.283465 582.383501 
L 179.272011 577.927407 
L 187.260558 573.119359 
L 195.249105 567.941023 
L 203.237652 562.374817 
L 211.226199 556.404271 
L 219.214746 550.014423 
L 227.203293 543.192251 
L 235.19184 535.92713 
L 243.180387 528.211305 
L 251.168933 520.040365 
L 259.15748 511.413709 
L 267.146027 502.334976 
L 275.134574 492.812427 
L 283.123121 482.859253 
L 291.111668 472.493796 
L 299.100215 461.739653 
L 307.088762 450.625649 
L 315.077309 439.185684 
L 327.060129 421.50032 
L 339.042949 403.317571 
L 355.020043 378.58711 
L 382.979957 335.15331 
L 394.962777 316.936351 
L 406.945598 299.193507 
L 414.934145 287.698558 
L 422.922691 276.513464 
L 430.911238 265.669817 
L 438.899785 255.19435 
L 446.888332 245.108886 
L 454.876879 235.43041 
L 462.865426 226.171237 
L 470.853973 217.33926 
L 478.84252 208.938267 
L 486.831067 200.968309 
L 494.819613 193.426085 
L 502.80816 186.30536 
L 510.796707 179.59737 
L 518.785254 173.291224 
L 526.773801 167.374292 
L 534.762348 161.832559 
L 542.750895 156.65096 
L 550.739442 151.813677 
L 558.727989 147.304407 
L 566.716535 143.106592 
L 574.705082 139.203625 
L 582.693629 135.579017 
L 590.682176 132.216542 
L 598.670723 129.100349 
L 606.65927 126.215061 
L 614.647817 123.545839 
L 622.636364 121.078444 
L 622.636364 121.078444 
" style="fill:none;stroke:#d62728;stroke-linecap:square;stroke-width:1.5;"/>
   </g>
   <g id="line2d_31">
    <path clip-path="url(#pa520c6a73e)" d="M 115.363636 605.290909 
L 119.35791 604.913004 
L 123.352183 604.112233 
L 131.34073 602.047961 
L 139.329277 599.677244 
L 147.317824 597.052943 
L 155.306371 594.162454 
L 163.294918 590.984127 
L 171.283465 587.494275 
L 179.272011 583.668171 
L 187.260558 579.480359 
L 195.249105 574.904937 
L 203.237652 569.915902 
L 211.226199 564.487567 
L 219.214746 558.595064 
L 227.203293 552.214922 
L 235.19184 545.325728 
L 243.180387 537.908865 
L 251.168933 529.949302 
L 259.15748 521.43643 
L 267.146027 512.364905 
L 275.134574 502.735473 
L 283.123121 492.555733 
L 291.111668 481.840793 
L 299.100215 470.613766 
L 307.088762 458.906075 
L 315.077309 446.757496 
L 323.065855 434.215948 
L 331.054402 421.33696 
L 343.037223 401.523716 
L 359.014316 374.550727 
L 378.985684 340.785385 
L 390.968504 320.949104 
L 398.957051 308.046666 
L 406.945598 295.474083 
L 414.934145 283.285876 
L 422.922691 271.529005 
L 430.911238 260.24242 
L 438.899785 249.456913 
L 446.888332 239.195219 
L 454.876879 229.472345 
L 462.865426 220.296075 
L 470.853973 211.667622 
L 478.84252 203.582359 
L 486.831067 196.030614 
L 494.819613 188.998465 
L 502.80816 182.468527 
L 510.796707 176.420703 
L 518.785254 170.832866 
L 526.773801 165.681484 
L 534.762348 160.942166 
L 542.750895 156.590134 
L 550.739442 152.600618 
L 558.727989 148.949186 
L 566.716535 145.612004 
L 574.705082 142.566041 
L 582.693629 139.789221 
L 590.682176 137.260529 
L 598.670723 134.960084 
L 606.65927 132.869177 
L 614.647817 130.970283 
L 622.636364 129.247054 
L 622.636364 129.247054 
" style="fill:none;stroke:#9467bd;stroke-linecap:square;stroke-width:1.5;"/>
   </g>
   <g id="line2d_32">
    <path clip-path="url(#pa520c6a73e)" d="M 115.363636 605.290909 
L 119.35791 605.122929 
L 123.352183 604.660643 
L 127.346457 603.95501 
L 131.34073 603.044547 
L 135.335004 601.958243 
L 139.329277 600.717795 
L 143.32355 599.33932 
L 151.312097 596.212409 
L 159.300644 592.637531 
L 167.289191 588.643137 
L 175.277738 584.23943 
L 183.266285 579.426301 
L 191.254832 574.19811 
L 199.243379 568.546619 
L 207.231926 562.462874 
L 215.220472 555.938454 
L 223.209019 548.966364 
L 231.197566 541.541719 
L 239.186113 533.662291 
L 247.17466 525.32898 
L 255.163207 516.546204 
L 263.151754 507.322244 
L 271.140301 497.669503 
L 279.128848 487.604712 
L 287.117394 477.149037 
L 295.105941 466.328102 
L 303.094488 455.171901 
L 311.083035 443.71461 
L 323.065855 426.048326 
L 335.048676 407.933496 
L 351.02577 383.35325 
L 378.985684 340.261825 
L 390.968504 322.186536 
L 402.951324 304.5633 
L 410.939871 293.130254 
L 418.928418 281.989481 
L 426.916965 271.170213 
L 434.905512 260.697261 
L 442.894059 250.590945 
L 450.882606 240.867135 
L 458.871152 231.537387 
L 466.859699 222.609153 
L 474.848246 214.086061 
L 482.836793 205.968237 
L 490.82534 198.252668 
L 498.813887 190.93358 
L 506.802434 184.002819 
L 514.790981 177.450238 
L 522.779528 171.264056 
L 530.768074 165.431203 
L 538.756621 159.93764 
L 546.745168 154.768647 
L 554.733715 149.909075 
L 562.722262 145.34357 
L 570.710809 141.05677 
L 578.699356 137.03346 
L 586.687903 133.258707 
L 594.67645 129.717968 
L 602.664996 126.397174 
L 610.653543 123.28279 
L 618.64209 120.361863 
L 622.636364 118.970063 
L 622.636364 118.970063 
" style="fill:none;stroke:#8c564b;stroke-linecap:square;stroke-width:1.5;"/>
   </g>
   <g id="line2d_33">
    <path clip-path="url(#pa520c6a73e)" d="M 115.363636 605.290909 
L 119.35791 605.163093 
L 123.352183 604.845147 
L 131.34073 603.860224 
L 139.329277 602.554686 
L 147.317824 600.971385 
L 155.306371 599.095593 
L 163.294918 596.891366 
L 171.283465 594.313021 
L 179.272011 591.309077 
L 183.266285 589.630298 
L 187.260558 587.824103 
L 191.254832 585.883196 
L 195.249105 583.800232 
L 199.243379 581.567893 
L 203.237652 579.178955 
L 207.231926 576.626374 
L 211.226199 573.903377 
L 215.220472 571.00356 
L 219.214746 567.920985 
L 223.209019 564.650292 
L 227.203293 561.186806 
L 231.197566 557.526639 
L 235.19184 553.666799 
L 239.186113 549.60528 
L 243.180387 545.341151 
L 247.17466 540.87463 
L 251.168933 536.207134 
L 255.163207 531.341324 
L 259.15748 526.281118 
L 267.146027 515.599419 
L 275.134574 504.217761 
L 283.123121 492.209335 
L 291.111668 479.661624 
L 299.100215 466.672351 
L 311.083035 446.587366 
L 331.054402 412.366105 
L 347.031496 385.150212 
L 359.014316 365.227308 
L 367.002863 352.284953 
L 374.99141 339.664387 
L 382.979957 327.398251 
L 390.968504 315.511081 
L 398.957051 304.020322 
L 406.945598 292.937333 
L 414.934145 282.268332 
L 422.922691 272.015245 
L 430.911238 262.176478 
L 438.899785 252.747579 
L 446.888332 243.72181 
L 454.876879 235.090642 
L 462.865426 226.844162 
L 470.853973 218.971424 
L 478.84252 211.46073 
L 486.831067 204.299875 
L 494.819613 197.476333 
L 502.80816 190.977424 
L 510.796707 184.790436 
L 518.785254 178.902733 
L 526.773801 173.301835 
L 534.762348 167.975485 
L 542.750895 162.911693 
L 550.739442 158.098785 
L 558.727989 153.525422 
L 566.716535 149.180623 
L 574.705082 145.053781 
L 582.693629 141.13467 
L 590.682176 137.413447 
L 598.670723 133.880653 
L 606.65927 130.527212 
L 614.647817 127.344423 
L 622.636364 124.323957 
L 622.636364 124.323957 
" style="fill:none;stroke:#e377c2;stroke-linecap:square;stroke-width:1.5;"/>
   </g>
   <g id="line2d_34">
    <path clip-path="url(#pa520c6a73e)" d="M 115.363636 605.290909 
L 119.35791 605.191005 
L 123.352183 604.898971 
L 127.346457 604.425178 
L 131.34073 603.778606 
L 135.335004 602.967015 
L 139.329277 601.997095 
L 143.32355 600.874593 
L 147.317824 599.604434 
L 151.312097 598.190824 
L 155.306371 596.637344 
L 159.300644 594.947029 
L 163.294918 593.122449 
L 167.289191 591.165772 
L 171.283465 589.078825 
L 175.277738 586.863151 
L 183.266285 582.050651 
L 191.254832 576.736661 
L 199.243379 570.927732 
L 207.231926 564.62962 
L 215.220472 557.848166 
L 223.209019 550.590025 
L 231.197566 542.863283 
L 239.186113 534.677968 
L 247.17466 526.04645 
L 255.163207 516.983765 
L 263.151754 507.507837 
L 271.140301 497.639617 
L 279.128848 487.403129 
L 287.117394 476.825436 
L 295.105941 465.936519 
L 303.094488 454.769075 
L 315.077309 437.573119 
L 327.060129 419.95705 
L 343.037223 396.048518 
L 374.99141 348.017339 
L 386.97423 330.340042 
L 398.957051 313.034621 
L 410.939871 296.206283 
L 418.928418 285.297946 
L 426.916965 274.665514 
L 434.905512 264.329033 
L 442.894059 254.305426 
L 450.882606 244.608547 
L 458.871152 235.249266 
L 466.859699 226.235597 
L 474.848246 217.572863 
L 482.836793 209.263877 
L 490.82534 201.309147 
L 498.813887 193.707083 
L 506.802434 186.454225 
L 514.790981 179.545457 
L 522.779528 172.974221 
L 530.768074 166.732731 
L 538.756621 160.812169 
L 546.745168 155.202871 
L 554.733715 149.8945 
L 562.722262 144.876208 
L 570.710809 140.136778 
L 578.699356 135.664752 
L 586.687903 131.44855 
L 594.67645 127.476564 
L 602.664996 123.737252 
L 610.653543 120.219208 
L 618.64209 116.911229 
L 622.636364 115.33258 
L 622.636364 115.33258 
" style="fill:none;stroke:#7f7f7f;stroke-linecap:square;stroke-width:1.5;"/>
   </g>
   <g id="line2d_35">
    <path clip-path="url(#pa520c6a73e)" d="M 115.363636 605.290909 
L 119.35791 605.18802 
L 123.352183 604.886241 
L 127.346457 604.394832 
L 131.34073 603.721785 
L 135.335004 602.874001 
L 139.329277 601.857444 
L 143.32355 600.677275 
L 147.317824 599.337968 
L 151.312097 597.84342 
L 155.306371 596.197035 
L 159.300644 594.40181 
L 163.294918 592.460404 
L 167.289191 590.375199 
L 171.283465 588.14836 
L 175.277738 585.78188 
L 179.272011 583.277627 
L 183.266285 580.637377 
L 191.254832 574.955767 
L 199.243379 568.750716 
L 207.231926 562.036293 
L 215.220472 554.827583 
L 223.209019 547.141157 
L 231.197566 538.995404 
L 239.186113 530.41075 
L 247.17466 521.409775 
L 255.163207 512.017246 
L 263.151754 502.260067 
L 271.140301 492.16716 
L 279.128848 481.769286 
L 287.117394 471.098814 
L 299.100215 454.656008 
L 311.083035 437.793679 
L 327.060129 414.86615 
L 374.99141 345.674077 
L 386.97423 328.843937 
L 398.957051 312.38299 
L 410.939871 296.363735 
L 422.922691 280.847259 
L 430.911238 270.807276 
L 438.899785 261.025071 
L 446.888332 251.510541 
L 454.876879 242.271578 
L 462.865426 233.31418 
L 470.853973 224.642573 
L 478.84252 216.259334 
L 486.831067 208.16553 
L 494.819613 200.360847 
L 502.80816 192.843728 
L 510.796707 185.611503 
L 518.785254 178.660515 
L 526.773801 171.986247 
L 534.762348 165.583437 
L 542.750895 159.446183 
L 550.739442 153.568055 
L 558.727989 147.94218 
L 566.716535 142.561336 
L 574.705082 137.418027 
L 582.693629 132.50456 
L 590.682176 127.813102 
L 598.670723 123.335747 
L 606.65927 119.064561 
L 614.647817 114.991628 
L 622.636364 111.109091 
L 622.636364 111.109091 
" style="fill:none;stroke:#bcbd22;stroke-linecap:square;stroke-width:1.5;"/>
   </g>
   <g id="line2d_36">
    <path clip-path="url(#pa520c6a73e)" d="M 115.363636 605.290909 
L 119.35791 603.977064 
L 127.346457 602.85091 
L 131.34073 601.912449 
L 135.335004 601.349373 
L 139.329277 600.973988 
L 143.32355 600.22322 
L 147.317824 599.847835 
L 151.312097 598.158605 
L 155.306371 597.595529 
L 159.300644 594.780146 
L 163.294918 592.340147 
L 167.289191 592.340147 
L 175.277738 585.583227 
L 179.272011 581.641691 
L 183.266285 580.890922 
L 187.260558 576.574002 
L 191.254832 576.574002 
L 195.249105 568.127852 
L 199.243379 566.626315 
L 203.237652 562.497086 
L 207.231926 560.24478 
L 211.226199 553.675552 
L 219.214746 547.669402 
L 223.209019 539.223252 
L 231.197566 532.090949 
L 235.19184 529.087873 
L 239.186113 518.201725 
L 243.180387 516.700188 
L 247.17466 513.321728 
L 251.168933 506.564809 
L 255.163207 502.998657 
L 259.15748 499.807889 
L 263.151754 493.801739 
L 271.140301 486.669435 
L 275.134574 483.290975 
L 279.128848 478.786362 
L 283.123121 476.534056 
L 287.117394 475.032518 
L 291.111668 471.654058 
L 295.105941 466.398676 
L 299.100215 462.45714 
L 303.094488 457.389451 
L 307.088762 451.946377 
L 311.083035 447.254071 
L 315.077309 444.626381 
L 319.071582 439.558691 
L 323.065855 433.927925 
L 327.060129 430.924849 
L 331.054402 426.795621 
L 335.048676 418.161779 
L 339.042949 415.346396 
L 343.037223 409.903322 
L 347.031496 406.524863 
L 351.02577 399.204867 
L 355.020043 384.564875 
L 359.014316 378.558724 
L 363.00859 374.054111 
L 367.002863 371.238728 
L 370.997137 361.854118 
L 378.985684 348.527971 
L 382.979957 334.451055 
L 386.97423 329.946443 
L 390.968504 322.814139 
L 394.962777 320.937217 
L 398.957051 318.309526 
L 402.951324 310.98953 
L 406.945598 295.786461 
L 410.939871 285.46339 
L 414.934145 279.832623 
L 418.928418 275.32801 
L 422.922691 269.134168 
L 426.916965 259.561865 
L 430.911238 254.86956 
L 434.905512 253.931099 
L 438.899785 250.928024 
L 442.894059 247.737256 
L 446.888332 245.860334 
L 450.882606 245.860334 
L 454.876879 240.604952 
L 458.871152 237.414185 
L 462.865426 232.346495 
L 466.859699 225.96496 
L 470.853973 222.023424 
L 474.848246 211.137276 
L 478.84252 205.694202 
L 482.836793 200.814205 
L 486.831067 199.312667 
L 490.82534 195.371131 
L 494.819613 184.484983 
L 498.813887 179.792677 
L 502.80816 176.414218 
L 506.802434 171.346528 
L 510.796707 171.158836 
L 514.790981 167.968069 
L 518.785254 166.091146 
L 522.779528 163.83884 
L 526.773801 157.457305 
L 530.768074 157.081921 
L 534.762348 156.14346 
L 538.756621 155.955767 
L 542.750895 153.891153 
L 546.745168 152.014231 
L 550.739442 150.700386 
L 554.733715 145.632696 
L 558.727989 144.694235 
L 562.722262 144.131158 
L 566.716535 144.131158 
L 570.710809 143.755774 
L 574.705082 140.565006 
L 578.699356 140.565006 
L 582.693629 138.875777 
L 586.687903 138.875777 
L 590.682176 137.561931 
L 594.67645 136.998854 
L 598.670723 135.685009 
L 606.65927 135.309625 
L 610.653543 132.869626 
L 614.647817 132.869626 
L 618.64209 131.743473 
L 622.636364 131.368088 
L 622.636364 131.368088 
" style="fill:none;stroke:#17becf;stroke-dasharray:14.8,6.4;stroke-dashoffset:0;stroke-width:4;"/>
   </g>
   <g id="patch_3">
    <path d="M 90 630 
L 90 86.4 
" style="fill:none;stroke:#000000;stroke-linecap:square;stroke-linejoin:miter;stroke-width:0.8;"/>
   </g>
   <g id="patch_4">
    <path d="M 648 630 
L 648 86.4 
" style="fill:none;stroke:#000000;stroke-linecap:square;stroke-linejoin:miter;stroke-width:0.8;"/>
   </g>
   <g id="patch_5">
    <path d="M 90 630 
L 648 630 
" style="fill:none;stroke:#000000;stroke-linecap:square;stroke-linejoin:miter;stroke-width:0.8;"/>
   </g>
   <g id="patch_6">
    <path d="M 90 86.4 
L 648 86.4 
" style="fill:none;stroke:#000000;stroke-linecap:square;stroke-linejoin:miter;stroke-width:0.8;"/>
   </g>
   <g id="text_16">
    <!-- Mali relative err =  -->
    <g transform="translate(313.007812 80.4)scale(0.12 -0.12)">
     <defs>
      <path d="M 9.8125 72.90625 
L 24.515625 72.90625 
L 43.109375 23.296875 
L 61.8125 72.90625 
L 76.515625 72.90625 
L 76.515625 0 
L 66.890625 0 
L 66.890625 64.015625 
L 48.09375 14.015625 
L 38.1875 14.015625 
L 19.390625 64.015625 
L 19.390625 0 
L 9.8125 0 
z
" id="DejaVuSans-77"/>
      <path d="M 41.109375 46.296875 
Q 39.59375 47.171875 37.8125 47.578125 
Q 36.03125 48 33.890625 48 
Q 26.265625 48 22.1875 43.046875 
Q 18.109375 38.09375 18.109375 28.8125 
L 18.109375 0 
L 9.078125 0 
L 9.078125 54.6875 
L 18.109375 54.6875 
L 18.109375 46.1875 
Q 20.953125 51.171875 25.484375 53.578125 
Q 30.03125 56 36.53125 56 
Q 37.453125 56 38.578125 55.875 
Q 39.703125 55.765625 41.0625 55.515625 
z
" id="DejaVuSans-114"/>
      <path d="M 10.59375 45.40625 
L 73.1875 45.40625 
L 73.1875 37.203125 
L 10.59375 37.203125 
z
M 10.59375 25.484375 
L 73.1875 25.484375 
L 73.1875 17.1875 
L 10.59375 17.1875 
z
" id="DejaVuSans-61"/>
     </defs>
     <use xlink:href="#DejaVuSans-77"/>
     <use x="86.279297" xlink:href="#DejaVuSans-97"/>
     <use x="147.558594" xlink:href="#DejaVuSans-108"/>
     <use x="175.341797" xlink:href="#DejaVuSans-105"/>
     <use x="203.125" xlink:href="#DejaVuSans-32"/>
     <use x="234.912109" xlink:href="#DejaVuSans-114"/>
     <use x="273.775391" xlink:href="#DejaVuSans-101"/>
     <use x="335.298828" xlink:href="#DejaVuSans-108"/>
     <use x="363.082031" xlink:href="#DejaVuSans-97"/>
     <use x="424.361328" xlink:href="#DejaVuSans-116"/>
     <use x="463.570312" xlink:href="#DejaVuSans-105"/>
     <use x="491.353516" xlink:href="#DejaVuSans-118"/>
     <use x="550.533203" xlink:href="#DejaVuSans-101"/>
     <use x="612.056641" xlink:href="#DejaVuSans-32"/>
     <use x="643.84375" xlink:href="#DejaVuSans-101"/>
     <use x="705.367188" xlink:href="#DejaVuSans-114"/>
     <use x="744.730469" xlink:href="#DejaVuSans-114"/>
     <use x="785.84375" xlink:href="#DejaVuSans-32"/>
     <use x="817.630859" xlink:href="#DejaVuSans-61"/>
     <use x="901.419922" xlink:href="#DejaVuSans-32"/>
    </g>
   </g>
   <g id="legend_1">
    <g id="patch_7">
     <path d="M 97 226.503125 
L 185.6 226.503125 
Q 187.6 226.503125 187.6 224.503125 
L 187.6 93.4 
Q 187.6 91.4 185.6 91.4 
L 97 91.4 
Q 95 91.4 95 93.4 
L 95 224.503125 
Q 95 226.503125 97 226.503125 
z
" style="fill:#ffffff;opacity:0.8;stroke:#cccccc;stroke-linejoin:miter;"/>
    </g>
    <g id="line2d_37">
     <path d="M 99 99.498438 
L 119 99.498438 
" style="fill:none;stroke:#1f77b4;stroke-linecap:square;stroke-width:1.5;"/>
    </g>
    <g id="line2d_38"/>
    <g id="text_17">
     <!-- SI -->
     <g transform="translate(127 102.998438)scale(0.1 -0.1)">
      <defs>
       <path d="M 53.515625 70.515625 
L 53.515625 60.890625 
Q 47.90625 63.578125 42.921875 64.890625 
Q 37.9375 66.21875 33.296875 66.21875 
Q 25.25 66.21875 20.875 63.09375 
Q 16.5 59.96875 16.5 54.203125 
Q 16.5 49.359375 19.40625 46.890625 
Q 22.3125 44.4375 30.421875 42.921875 
L 36.375 41.703125 
Q 47.40625 39.59375 52.65625 34.296875 
Q 57.90625 29 57.90625 20.125 
Q 57.90625 9.515625 50.796875 4.046875 
Q 43.703125 -1.421875 29.984375 -1.421875 
Q 24.8125 -1.421875 18.96875 -0.25 
Q 13.140625 0.921875 6.890625 3.21875 
L 6.890625 13.375 
Q 12.890625 10.015625 18.65625 8.296875 
Q 24.421875 6.59375 29.984375 6.59375 
Q 38.421875 6.59375 43.015625 9.90625 
Q 47.609375 13.234375 47.609375 19.390625 
Q 47.609375 24.75 44.3125 27.78125 
Q 41.015625 30.8125 33.5 32.328125 
L 27.484375 33.5 
Q 16.453125 35.6875 11.515625 40.375 
Q 6.59375 45.0625 6.59375 53.421875 
Q 6.59375 63.09375 13.40625 68.65625 
Q 20.21875 74.21875 32.171875 74.21875 
Q 37.3125 74.21875 42.625 73.28125 
Q 47.953125 72.359375 53.515625 70.515625 
z
" id="DejaVuSans-83"/>
       <path d="M 9.8125 72.90625 
L 19.671875 72.90625 
L 19.671875 0 
L 9.8125 0 
z
" id="DejaVuSans-73"/>
      </defs>
      <use xlink:href="#DejaVuSans-83"/>
      <use x="63.476562" xlink:href="#DejaVuSans-73"/>
     </g>
    </g>
    <g id="line2d_39">
     <path d="M 99 114.176563 
L 119 114.176563 
" style="fill:none;stroke:#ff7f0e;stroke-linecap:square;stroke-width:1.5;"/>
    </g>
    <g id="line2d_40"/>
    <g id="text_18">
     <!-- BD -->
     <g transform="translate(127 117.676563)scale(0.1 -0.1)">
      <defs>
       <path d="M 19.671875 34.8125 
L 19.671875 8.109375 
L 35.5 8.109375 
Q 43.453125 8.109375 47.28125 11.40625 
Q 51.125 14.703125 51.125 21.484375 
Q 51.125 28.328125 47.28125 31.5625 
Q 43.453125 34.8125 35.5 34.8125 
z
M 19.671875 64.796875 
L 19.671875 42.828125 
L 34.28125 42.828125 
Q 41.5 42.828125 45.03125 45.53125 
Q 48.578125 48.25 48.578125 53.8125 
Q 48.578125 59.328125 45.03125 62.0625 
Q 41.5 64.796875 34.28125 64.796875 
z
M 9.8125 72.90625 
L 35.015625 72.90625 
Q 46.296875 72.90625 52.390625 68.21875 
Q 58.5 63.53125 58.5 54.890625 
Q 58.5 48.1875 55.375 44.234375 
Q 52.25 40.28125 46.1875 39.3125 
Q 53.46875 37.75 57.5 32.78125 
Q 61.53125 27.828125 61.53125 20.40625 
Q 61.53125 10.640625 54.890625 5.3125 
Q 48.25 0 35.984375 0 
L 9.8125 0 
z
" id="DejaVuSans-66"/>
      </defs>
      <use xlink:href="#DejaVuSans-66"/>
      <use x="68.603516" xlink:href="#DejaVuSans-68"/>
     </g>
    </g>
    <g id="line2d_41">
     <path d="M 99 128.854688 
L 119 128.854688 
" style="fill:none;stroke:#2ca02c;stroke-linecap:square;stroke-width:1.5;"/>
    </g>
    <g id="line2d_42"/>
    <g id="text_19">
     <!-- SIR -->
     <g transform="translate(127 132.354688)scale(0.1 -0.1)">
      <defs>
       <path d="M 44.390625 34.1875 
Q 47.5625 33.109375 50.5625 29.59375 
Q 53.5625 26.078125 56.59375 19.921875 
L 66.609375 0 
L 56 0 
L 46.6875 18.703125 
Q 43.0625 26.03125 39.671875 28.421875 
Q 36.28125 30.8125 30.421875 30.8125 
L 19.671875 30.8125 
L 19.671875 0 
L 9.8125 0 
L 9.8125 72.90625 
L 32.078125 72.90625 
Q 44.578125 72.90625 50.734375 67.671875 
Q 56.890625 62.453125 56.890625 51.90625 
Q 56.890625 45.015625 53.6875 40.46875 
Q 50.484375 35.9375 44.390625 34.1875 
z
M 19.671875 64.796875 
L 19.671875 38.921875 
L 32.078125 38.921875 
Q 39.203125 38.921875 42.84375 42.21875 
Q 46.484375 45.515625 46.484375 51.90625 
Q 46.484375 58.296875 42.84375 61.546875 
Q 39.203125 64.796875 32.078125 64.796875 
z
" id="DejaVuSans-82"/>
      </defs>
      <use xlink:href="#DejaVuSans-83"/>
      <use x="63.476562" xlink:href="#DejaVuSans-73"/>
      <use x="92.96875" xlink:href="#DejaVuSans-82"/>
     </g>
    </g>
    <g id="line2d_43">
     <path d="M 99 143.532812 
L 119 143.532812 
" style="fill:none;stroke:#d62728;stroke-linecap:square;stroke-width:1.5;"/>
    </g>
    <g id="line2d_44"/>
    <g id="text_20">
     <!-- eSIR -->
     <g transform="translate(127 147.032812)scale(0.1 -0.1)">
      <use xlink:href="#DejaVuSans-101"/>
      <use x="61.523438" xlink:href="#DejaVuSans-83"/>
      <use x="125" xlink:href="#DejaVuSans-73"/>
      <use x="154.492188" xlink:href="#DejaVuSans-82"/>
     </g>
    </g>
    <g id="line2d_45">
     <path d="M 99 158.210938 
L 119 158.210938 
" style="fill:none;stroke:#9467bd;stroke-linecap:square;stroke-width:1.5;"/>
    </g>
    <g id="line2d_46"/>
    <g id="text_21">
     <!-- SEIR -->
     <g transform="translate(127 161.710938)scale(0.1 -0.1)">
      <defs>
       <path d="M 9.8125 72.90625 
L 55.90625 72.90625 
L 55.90625 64.59375 
L 19.671875 64.59375 
L 19.671875 43.015625 
L 54.390625 43.015625 
L 54.390625 34.71875 
L 19.671875 34.71875 
L 19.671875 8.296875 
L 56.78125 8.296875 
L 56.78125 0 
L 9.8125 0 
z
" id="DejaVuSans-69"/>
      </defs>
      <use xlink:href="#DejaVuSans-83"/>
      <use x="63.476562" xlink:href="#DejaVuSans-69"/>
      <use x="126.660156" xlink:href="#DejaVuSans-73"/>
      <use x="156.152344" xlink:href="#DejaVuSans-82"/>
     </g>
    </g>
    <g id="line2d_47">
     <path d="M 99 172.889063 
L 119 172.889063 
" style="fill:none;stroke:#8c564b;stroke-linecap:square;stroke-width:1.5;"/>
    </g>
    <g id="line2d_48"/>
    <g id="text_22">
     <!-- eSEIR -->
     <g transform="translate(127 176.389063)scale(0.1 -0.1)">
      <use xlink:href="#DejaVuSans-101"/>
      <use x="61.523438" xlink:href="#DejaVuSans-83"/>
      <use x="125" xlink:href="#DejaVuSans-69"/>
      <use x="188.183594" xlink:href="#DejaVuSans-73"/>
      <use x="217.675781" xlink:href="#DejaVuSans-82"/>
     </g>
    </g>
    <g id="line2d_49">
     <path d="M 99 187.567188 
L 119 187.567188 
" style="fill:none;stroke:#e377c2;stroke-linecap:square;stroke-width:1.5;"/>
    </g>
    <g id="line2d_50"/>
    <g id="text_23">
     <!-- SEIUR -->
     <g transform="translate(127 191.067188)scale(0.1 -0.1)">
      <defs>
       <path d="M 8.6875 72.90625 
L 18.609375 72.90625 
L 18.609375 28.609375 
Q 18.609375 16.890625 22.84375 11.734375 
Q 27.09375 6.59375 36.625 6.59375 
Q 46.09375 6.59375 50.34375 11.734375 
Q 54.59375 16.890625 54.59375 28.609375 
L 54.59375 72.90625 
L 64.5 72.90625 
L 64.5 27.390625 
Q 64.5 13.140625 57.4375 5.859375 
Q 50.390625 -1.421875 36.625 -1.421875 
Q 22.796875 -1.421875 15.734375 5.859375 
Q 8.6875 13.140625 8.6875 27.390625 
z
" id="DejaVuSans-85"/>
      </defs>
      <use xlink:href="#DejaVuSans-83"/>
      <use x="63.476562" xlink:href="#DejaVuSans-69"/>
      <use x="126.660156" xlink:href="#DejaVuSans-73"/>
      <use x="156.152344" xlink:href="#DejaVuSans-85"/>
      <use x="229.345703" xlink:href="#DejaVuSans-82"/>
     </g>
    </g>
    <g id="line2d_51">
     <path d="M 99 202.245312 
L 119 202.245312 
" style="fill:none;stroke:#7f7f7f;stroke-linecap:square;stroke-width:1.5;"/>
    </g>
    <g id="line2d_52"/>
    <g id="text_24">
     <!-- eSEIUR -->
     <g transform="translate(127 205.745312)scale(0.1 -0.1)">
      <use xlink:href="#DejaVuSans-101"/>
      <use x="61.523438" xlink:href="#DejaVuSans-83"/>
      <use x="125" xlink:href="#DejaVuSans-69"/>
      <use x="188.183594" xlink:href="#DejaVuSans-73"/>
      <use x="217.675781" xlink:href="#DejaVuSans-85"/>
      <use x="290.869141" xlink:href="#DejaVuSans-82"/>
     </g>
    </g>
    <g id="line2d_53">
     <path d="M 99 216.923437 
L 119 216.923437 
" style="fill:none;stroke:#bcbd22;stroke-linecap:square;stroke-width:1.5;"/>
    </g>
    <g id="line2d_54"/>
    <g id="text_25">
     <!-- eSEIUR$^{range}$ -->
     <g transform="translate(127 220.423437)scale(0.1 -0.1)">
      <defs>
       <path d="M 44.578125 46.390625 
Q 43.21875 47.125 41.453125 47.515625 
Q 39.703125 47.90625 37.703125 47.90625 
Q 30.515625 47.90625 25.140625 42.453125 
Q 19.78125 37.015625 18.015625 27.875 
L 12.5 0 
L 3.515625 0 
L 14.203125 54.6875 
L 23.1875 54.6875 
L 21.484375 46.1875 
Q 25.046875 50.921875 30 53.453125 
Q 34.96875 56 40.578125 56 
Q 42.046875 56 43.453125 55.828125 
Q 44.875 55.671875 46.296875 55.28125 
z
" id="DejaVuSans-Oblique-114"/>
       <path d="M 53.71875 31.203125 
L 47.609375 0 
L 38.625 0 
L 40.28125 8.296875 
Q 36.328125 3.421875 31.265625 1 
Q 26.21875 -1.421875 20.015625 -1.421875 
Q 13.03125 -1.421875 8.5625 2.84375 
Q 4.109375 7.125 4.109375 13.8125 
Q 4.109375 23.390625 11.75 28.953125 
Q 19.390625 34.515625 32.8125 34.515625 
L 45.3125 34.515625 
L 45.796875 36.921875 
Q 45.90625 37.3125 45.953125 37.765625 
Q 46 38.234375 46 39.203125 
Q 46 43.5625 42.453125 45.96875 
Q 38.921875 48.390625 32.515625 48.390625 
Q 28.125 48.390625 23.5 47.265625 
Q 18.890625 46.140625 14.015625 43.890625 
L 15.578125 52.203125 
Q 20.65625 54.109375 25.515625 55.046875 
Q 30.375 56 34.90625 56 
Q 44.578125 56 49.625 51.796875 
Q 54.6875 47.609375 54.6875 39.59375 
Q 54.6875 37.984375 54.4375 35.8125 
Q 54.203125 33.640625 53.71875 31.203125 
z
M 44 27.484375 
L 35.015625 27.484375 
Q 23.96875 27.484375 18.671875 24.53125 
Q 13.375 21.578125 13.375 15.375 
Q 13.375 11.078125 16.078125 8.640625 
Q 18.796875 6.203125 23.578125 6.203125 
Q 30.90625 6.203125 36.375 11.453125 
Q 41.84375 16.703125 43.609375 25.484375 
z
" id="DejaVuSans-Oblique-97"/>
       <path d="M 55.71875 33.015625 
L 49.3125 0 
L 40.28125 0 
L 46.6875 32.671875 
Q 47.125 34.96875 47.359375 36.71875 
Q 47.609375 38.484375 47.609375 39.5 
Q 47.609375 43.609375 45.015625 45.890625 
Q 42.4375 48.1875 37.796875 48.1875 
Q 30.5625 48.1875 25.34375 43.375 
Q 20.125 38.578125 18.5 30.328125 
L 12.5 0 
L 3.515625 0 
L 14.109375 54.6875 
L 23.09375 54.6875 
L 21.296875 46.09375 
Q 25.046875 50.828125 30.3125 53.40625 
Q 35.59375 56 41.40625 56 
Q 48.640625 56 52.609375 52.09375 
Q 56.59375 48.1875 56.59375 41.109375 
Q 56.59375 39.359375 56.375 37.359375 
Q 56.15625 35.359375 55.71875 33.015625 
z
" id="DejaVuSans-Oblique-110"/>
       <path d="M 59.625 54.6875 
L 50.296875 6.78125 
Q 47.609375 -7.125 40.015625 -13.953125 
Q 32.421875 -20.796875 19.578125 -20.796875 
Q 14.84375 -20.796875 10.78125 -20.09375 
Q 6.734375 -19.390625 3.21875 -17.921875 
L 4.890625 -9.1875 
Q 8.203125 -11.328125 11.90625 -12.34375 
Q 15.625 -13.375 19.828125 -13.375 
Q 28.375 -13.375 33.859375 -8.703125 
Q 39.359375 -4.046875 41.109375 4.6875 
L 41.890625 8.796875 
Q 38.140625 4.5 33.15625 2.25 
Q 28.171875 0 22.40625 0 
Q 14.109375 0 9.34375 5.484375 
Q 4.59375 10.984375 4.59375 20.609375 
Q 4.59375 28.171875 7.46875 35.421875 
Q 10.359375 42.671875 15.578125 48.296875 
Q 19.046875 52 23.65625 54 
Q 28.265625 56 33.296875 56 
Q 38.8125 56 42.90625 53.4375 
Q 47.015625 50.875 49.03125 46.1875 
L 50.59375 54.6875 
z
M 46.09375 34.625 
Q 46.09375 41.265625 42.96875 44.875 
Q 39.84375 48.484375 34.078125 48.484375 
Q 30.515625 48.484375 27.296875 47.0625 
Q 24.078125 45.65625 21.78125 43.109375 
Q 18.0625 38.921875 15.984375 33.234375 
Q 13.921875 27.546875 13.921875 21.484375 
Q 13.921875 14.75 17.0625 11.125 
Q 20.21875 7.515625 26.125 7.515625 
Q 34.671875 7.515625 40.375 15.25 
Q 46.09375 23 46.09375 34.625 
z
" id="DejaVuSans-Oblique-103"/>
       <path d="M 48.09375 32.234375 
Q 48.25 33.015625 48.3125 33.84375 
Q 48.390625 34.671875 48.390625 35.5 
Q 48.390625 41.453125 44.890625 44.921875 
Q 41.40625 48.390625 35.40625 48.390625 
Q 28.71875 48.390625 23.578125 44.15625 
Q 18.453125 39.9375 15.828125 32.171875 
z
M 55.90625 25.203125 
L 14.109375 25.203125 
Q 13.8125 23.34375 13.71875 22.265625 
Q 13.625 21.1875 13.625 20.40625 
Q 13.625 13.625 17.796875 9.90625 
Q 21.96875 6.203125 29.59375 6.203125 
Q 35.453125 6.203125 40.671875 7.515625 
Q 45.90625 8.84375 50.390625 11.375 
L 48.6875 2.484375 
Q 43.84375 0.53125 38.6875 -0.4375 
Q 33.546875 -1.421875 28.21875 -1.421875 
Q 16.84375 -1.421875 10.71875 4.015625 
Q 4.59375 9.46875 4.59375 19.484375 
Q 4.59375 28.03125 7.640625 35.375 
Q 10.6875 42.71875 16.609375 48.484375 
Q 20.40625 52.09375 25.65625 54.046875 
Q 30.90625 56 36.8125 56 
Q 46.09375 56 51.578125 50.4375 
Q 57.078125 44.875 57.078125 35.5 
Q 57.078125 33.25 56.78125 30.6875 
Q 56.5 28.125 55.90625 25.203125 
z
" id="DejaVuSans-Oblique-101"/>
      </defs>
      <use transform="translate(0 0.51875)" xlink:href="#DejaVuSans-101"/>
      <use transform="translate(61.523438 0.51875)" xlink:href="#DejaVuSans-83"/>
      <use transform="translate(125 0.51875)" xlink:href="#DejaVuSans-69"/>
      <use transform="translate(188.183594 0.51875)" xlink:href="#DejaVuSans-73"/>
      <use transform="translate(217.675781 0.51875)" xlink:href="#DejaVuSans-85"/>
      <use transform="translate(288.619141 0.51875)" xlink:href="#DejaVuSans-82"/>
      <use transform="translate(359.058594 38.8)scale(0.7)" xlink:href="#DejaVuSans-Oblique-114"/>
      <use transform="translate(387.837891 38.8)scale(0.7)" xlink:href="#DejaVuSans-Oblique-97"/>
      <use transform="translate(430.733398 38.8)scale(0.7)" xlink:href="#DejaVuSans-Oblique-110"/>
      <use transform="translate(475.098633 38.8)scale(0.7)" xlink:href="#DejaVuSans-Oblique-103"/>
      <use transform="translate(519.532227 38.8)scale(0.7)" xlink:href="#DejaVuSans-Oblique-101"/>
     </g>
    </g>
   </g>
  </g>
 </g>
 <defs>
  <clipPath id="pa520c6a73e">
   <rect height="543.6" width="558" x="90" y="86.4"/>
  </clipPath>
 </defs>
</svg>
