<?xml version="1.0" encoding="utf-8" standalone="no"?>
<!DOCTYPE svg PUBLIC "-//W3C//DTD SVG 1.1//EN"
  "http://www.w3.org/Graphics/SVG/1.1/DTD/svg11.dtd">
<!-- Created with matplotlib (https://matplotlib.org/) -->
<svg height="720pt" version="1.1" viewBox="0 0 720 720" width="720pt" xmlns="http://www.w3.org/2000/svg" xmlns:xlink="http://www.w3.org/1999/xlink">
 <metadata>
  <rdf:RDF xmlns:cc="http://creativecommons.org/ns#" xmlns:dc="http://purl.org/dc/elements/1.1/" xmlns:rdf="http://www.w3.org/1999/02/22-rdf-syntax-ns#">
   <cc:Work>
    <dc:type rdf:resource="http://purl.org/dc/dcmitype/StillImage"/>
    <dc:date>2022-10-11T20:58:48.409806</dc:date>
    <dc:format>image/svg+xml</dc:format>
    <dc:creator>
     <cc:Agent>
      <dc:title>Matplotlib v3.3.2, https://matplotlib.org/</dc:title>
     </cc:Agent>
    </dc:creator>
   </cc:Work>
  </rdf:RDF>
 </metadata>
 <defs>
  <style type="text/css">*{stroke-linecap:butt;stroke-linejoin:round;}</style>
 </defs>
 <g id="figure_1">
  <g id="patch_1">
   <path d="M 0 720 
L 720 720 
L 720 0 
L 0 0 
z
" style="fill:none;"/>
  </g>
  <g id="axes_1">
   <g id="patch_2">
    <path d="M 90 630 
L 648 630 
L 648 86.4 
L 90 86.4 
z
" style="fill:#ffffff;"/>
   </g>
   <g id="matplotlib.axis_1">
    <g id="xtick_1">
     <g id="line2d_1">
      <path clip-path="url(#pbac3d090e8)" d="M 115.363636 630 
L 115.363636 86.4 
" style="fill:none;stroke:#b0b0b0;stroke-linecap:square;stroke-width:0.8;"/>
     </g>
     <g id="line2d_2">
      <defs>
       <path d="M 0 0 
L 0 3.5 
" id="me5dcb205ea" style="stroke:#000000;stroke-width:0.8;"/>
      </defs>
      <g>
       <use style="stroke:#000000;stroke-width:0.8;" x="115.363636" xlink:href="#me5dcb205ea" y="630"/>
      </g>
     </g>
     <g id="text_1">
      <!-- 0 -->
      <g transform="translate(112.182386 644.598438)scale(0.1 -0.1)">
       <defs>
        <path d="M 31.78125 66.40625 
Q 24.171875 66.40625 20.328125 58.90625 
Q 16.5 51.421875 16.5 36.375 
Q 16.5 21.390625 20.328125 13.890625 
Q 24.171875 6.390625 31.78125 6.390625 
Q 39.453125 6.390625 43.28125 13.890625 
Q 47.125 21.390625 47.125 36.375 
Q 47.125 51.421875 43.28125 58.90625 
Q 39.453125 66.40625 31.78125 66.40625 
z
M 31.78125 74.21875 
Q 44.046875 74.21875 50.515625 64.515625 
Q 56.984375 54.828125 56.984375 36.375 
Q 56.984375 17.96875 50.515625 8.265625 
Q 44.046875 -1.421875 31.78125 -1.421875 
Q 19.53125 -1.421875 13.0625 8.265625 
Q 6.59375 17.96875 6.59375 36.375 
Q 6.59375 54.828125 13.0625 64.515625 
Q 19.53125 74.21875 31.78125 74.21875 
z
" id="DejaVuSans-48"/>
       </defs>
       <use xlink:href="#DejaVuSans-48"/>
      </g>
     </g>
    </g>
    <g id="xtick_2">
     <g id="line2d_3">
      <path clip-path="url(#pbac3d090e8)" d="M 202.824451 630 
L 202.824451 86.4 
" style="fill:none;stroke:#b0b0b0;stroke-linecap:square;stroke-width:0.8;"/>
     </g>
     <g id="line2d_4">
      <g>
       <use style="stroke:#000000;stroke-width:0.8;" x="202.824451" xlink:href="#me5dcb205ea" y="630"/>
      </g>
     </g>
     <g id="text_2">
      <!-- 20 -->
      <g transform="translate(196.461951 644.598438)scale(0.1 -0.1)">
       <defs>
        <path d="M 19.1875 8.296875 
L 53.609375 8.296875 
L 53.609375 0 
L 7.328125 0 
L 7.328125 8.296875 
Q 12.9375 14.109375 22.625 23.890625 
Q 32.328125 33.6875 34.8125 36.53125 
Q 39.546875 41.84375 41.421875 45.53125 
Q 43.3125 49.21875 43.3125 52.78125 
Q 43.3125 58.59375 39.234375 62.25 
Q 35.15625 65.921875 28.609375 65.921875 
Q 23.96875 65.921875 18.8125 64.3125 
Q 13.671875 62.703125 7.8125 59.421875 
L 7.8125 69.390625 
Q 13.765625 71.78125 18.9375 73 
Q 24.125 74.21875 28.421875 74.21875 
Q 39.75 74.21875 46.484375 68.546875 
Q 53.21875 62.890625 53.21875 53.421875 
Q 53.21875 48.921875 51.53125 44.890625 
Q 49.859375 40.875 45.40625 35.40625 
Q 44.1875 33.984375 37.640625 27.21875 
Q 31.109375 20.453125 19.1875 8.296875 
z
" id="DejaVuSans-50"/>
       </defs>
       <use xlink:href="#DejaVuSans-50"/>
       <use x="63.623047" xlink:href="#DejaVuSans-48"/>
      </g>
     </g>
    </g>
    <g id="xtick_3">
     <g id="line2d_5">
      <path clip-path="url(#pbac3d090e8)" d="M 290.285266 630 
L 290.285266 86.4 
" style="fill:none;stroke:#b0b0b0;stroke-linecap:square;stroke-width:0.8;"/>
     </g>
     <g id="line2d_6">
      <g>
       <use style="stroke:#000000;stroke-width:0.8;" x="290.285266" xlink:href="#me5dcb205ea" y="630"/>
      </g>
     </g>
     <g id="text_3">
      <!-- 40 -->
      <g transform="translate(283.922766 644.598438)scale(0.1 -0.1)">
       <defs>
        <path d="M 37.796875 64.3125 
L 12.890625 25.390625 
L 37.796875 25.390625 
z
M 35.203125 72.90625 
L 47.609375 72.90625 
L 47.609375 25.390625 
L 58.015625 25.390625 
L 58.015625 17.1875 
L 47.609375 17.1875 
L 47.609375 0 
L 37.796875 0 
L 37.796875 17.1875 
L 4.890625 17.1875 
L 4.890625 26.703125 
z
" id="DejaVuSans-52"/>
       </defs>
       <use xlink:href="#DejaVuSans-52"/>
       <use x="63.623047" xlink:href="#DejaVuSans-48"/>
      </g>
     </g>
    </g>
    <g id="xtick_4">
     <g id="line2d_7">
      <path clip-path="url(#pbac3d090e8)" d="M 377.746082 630 
L 377.746082 86.4 
" style="fill:none;stroke:#b0b0b0;stroke-linecap:square;stroke-width:0.8;"/>
     </g>
     <g id="line2d_8">
      <g>
       <use style="stroke:#000000;stroke-width:0.8;" x="377.746082" xlink:href="#me5dcb205ea" y="630"/>
      </g>
     </g>
     <g id="text_4">
      <!-- 60 -->
      <g transform="translate(371.383582 644.598438)scale(0.1 -0.1)">
       <defs>
        <path d="M 33.015625 40.375 
Q 26.375 40.375 22.484375 35.828125 
Q 18.609375 31.296875 18.609375 23.390625 
Q 18.609375 15.53125 22.484375 10.953125 
Q 26.375 6.390625 33.015625 6.390625 
Q 39.65625 6.390625 43.53125 10.953125 
Q 47.40625 15.53125 47.40625 23.390625 
Q 47.40625 31.296875 43.53125 35.828125 
Q 39.65625 40.375 33.015625 40.375 
z
M 52.59375 71.296875 
L 52.59375 62.3125 
Q 48.875 64.0625 45.09375 64.984375 
Q 41.3125 65.921875 37.59375 65.921875 
Q 27.828125 65.921875 22.671875 59.328125 
Q 17.53125 52.734375 16.796875 39.40625 
Q 19.671875 43.65625 24.015625 45.921875 
Q 28.375 48.1875 33.59375 48.1875 
Q 44.578125 48.1875 50.953125 41.515625 
Q 57.328125 34.859375 57.328125 23.390625 
Q 57.328125 12.15625 50.6875 5.359375 
Q 44.046875 -1.421875 33.015625 -1.421875 
Q 20.359375 -1.421875 13.671875 8.265625 
Q 6.984375 17.96875 6.984375 36.375 
Q 6.984375 53.65625 15.1875 63.9375 
Q 23.390625 74.21875 37.203125 74.21875 
Q 40.921875 74.21875 44.703125 73.484375 
Q 48.484375 72.75 52.59375 71.296875 
z
" id="DejaVuSans-54"/>
       </defs>
       <use xlink:href="#DejaVuSans-54"/>
       <use x="63.623047" xlink:href="#DejaVuSans-48"/>
      </g>
     </g>
    </g>
    <g id="xtick_5">
     <g id="line2d_9">
      <path clip-path="url(#pbac3d090e8)" d="M 465.206897 630 
L 465.206897 86.4 
" style="fill:none;stroke:#b0b0b0;stroke-linecap:square;stroke-width:0.8;"/>
     </g>
     <g id="line2d_10">
      <g>
       <use style="stroke:#000000;stroke-width:0.8;" x="465.206897" xlink:href="#me5dcb205ea" y="630"/>
      </g>
     </g>
     <g id="text_5">
      <!-- 80 -->
      <g transform="translate(458.844397 644.598438)scale(0.1 -0.1)">
       <defs>
        <path d="M 31.78125 34.625 
Q 24.75 34.625 20.71875 30.859375 
Q 16.703125 27.09375 16.703125 20.515625 
Q 16.703125 13.921875 20.71875 10.15625 
Q 24.75 6.390625 31.78125 6.390625 
Q 38.8125 6.390625 42.859375 10.171875 
Q 46.921875 13.96875 46.921875 20.515625 
Q 46.921875 27.09375 42.890625 30.859375 
Q 38.875 34.625 31.78125 34.625 
z
M 21.921875 38.8125 
Q 15.578125 40.375 12.03125 44.71875 
Q 8.5 49.078125 8.5 55.328125 
Q 8.5 64.0625 14.71875 69.140625 
Q 20.953125 74.21875 31.78125 74.21875 
Q 42.671875 74.21875 48.875 69.140625 
Q 55.078125 64.0625 55.078125 55.328125 
Q 55.078125 49.078125 51.53125 44.71875 
Q 48 40.375 41.703125 38.8125 
Q 48.828125 37.15625 52.796875 32.3125 
Q 56.78125 27.484375 56.78125 20.515625 
Q 56.78125 9.90625 50.3125 4.234375 
Q 43.84375 -1.421875 31.78125 -1.421875 
Q 19.734375 -1.421875 13.25 4.234375 
Q 6.78125 9.90625 6.78125 20.515625 
Q 6.78125 27.484375 10.78125 32.3125 
Q 14.796875 37.15625 21.921875 38.8125 
z
M 18.3125 54.390625 
Q 18.3125 48.734375 21.84375 45.5625 
Q 25.390625 42.390625 31.78125 42.390625 
Q 38.140625 42.390625 41.71875 45.5625 
Q 45.3125 48.734375 45.3125 54.390625 
Q 45.3125 60.0625 41.71875 63.234375 
Q 38.140625 66.40625 31.78125 66.40625 
Q 25.390625 66.40625 21.84375 63.234375 
Q 18.3125 60.0625 18.3125 54.390625 
z
" id="DejaVuSans-56"/>
       </defs>
       <use xlink:href="#DejaVuSans-56"/>
       <use x="63.623047" xlink:href="#DejaVuSans-48"/>
      </g>
     </g>
    </g>
    <g id="xtick_6">
     <g id="line2d_11">
      <path clip-path="url(#pbac3d090e8)" d="M 552.667712 630 
L 552.667712 86.4 
" style="fill:none;stroke:#b0b0b0;stroke-linecap:square;stroke-width:0.8;"/>
     </g>
     <g id="line2d_12">
      <g>
       <use style="stroke:#000000;stroke-width:0.8;" x="552.667712" xlink:href="#me5dcb205ea" y="630"/>
      </g>
     </g>
     <g id="text_6">
      <!-- 100 -->
      <g transform="translate(543.123962 644.598438)scale(0.1 -0.1)">
       <defs>
        <path d="M 12.40625 8.296875 
L 28.515625 8.296875 
L 28.515625 63.921875 
L 10.984375 60.40625 
L 10.984375 69.390625 
L 28.421875 72.90625 
L 38.28125 72.90625 
L 38.28125 8.296875 
L 54.390625 8.296875 
L 54.390625 0 
L 12.40625 0 
z
" id="DejaVuSans-49"/>
       </defs>
       <use xlink:href="#DejaVuSans-49"/>
       <use x="63.623047" xlink:href="#DejaVuSans-48"/>
       <use x="127.246094" xlink:href="#DejaVuSans-48"/>
      </g>
     </g>
    </g>
    <g id="xtick_7">
     <g id="line2d_13">
      <path clip-path="url(#pbac3d090e8)" d="M 640.128527 630 
L 640.128527 86.4 
" style="fill:none;stroke:#b0b0b0;stroke-linecap:square;stroke-width:0.8;"/>
     </g>
     <g id="line2d_14">
      <g>
       <use style="stroke:#000000;stroke-width:0.8;" x="640.128527" xlink:href="#me5dcb205ea" y="630"/>
      </g>
     </g>
     <g id="text_7">
      <!-- 120 -->
      <g transform="translate(630.584777 644.598438)scale(0.1 -0.1)">
       <use xlink:href="#DejaVuSans-49"/>
       <use x="63.623047" xlink:href="#DejaVuSans-50"/>
       <use x="127.246094" xlink:href="#DejaVuSans-48"/>
      </g>
     </g>
    </g>
    <g id="text_8">
     <!-- Days -->
     <g transform="translate(356.521875 658.276562)scale(0.1 -0.1)">
      <defs>
       <path d="M 19.671875 64.796875 
L 19.671875 8.109375 
L 31.59375 8.109375 
Q 46.6875 8.109375 53.6875 14.9375 
Q 60.6875 21.78125 60.6875 36.53125 
Q 60.6875 51.171875 53.6875 57.984375 
Q 46.6875 64.796875 31.59375 64.796875 
z
M 9.8125 72.90625 
L 30.078125 72.90625 
Q 51.265625 72.90625 61.171875 64.09375 
Q 71.09375 55.28125 71.09375 36.53125 
Q 71.09375 17.671875 61.125 8.828125 
Q 51.171875 0 30.078125 0 
L 9.8125 0 
z
" id="DejaVuSans-68"/>
       <path d="M 34.28125 27.484375 
Q 23.390625 27.484375 19.1875 25 
Q 14.984375 22.515625 14.984375 16.5 
Q 14.984375 11.71875 18.140625 8.90625 
Q 21.296875 6.109375 26.703125 6.109375 
Q 34.1875 6.109375 38.703125 11.40625 
Q 43.21875 16.703125 43.21875 25.484375 
L 43.21875 27.484375 
z
M 52.203125 31.203125 
L 52.203125 0 
L 43.21875 0 
L 43.21875 8.296875 
Q 40.140625 3.328125 35.546875 0.953125 
Q 30.953125 -1.421875 24.3125 -1.421875 
Q 15.921875 -1.421875 10.953125 3.296875 
Q 6 8.015625 6 15.921875 
Q 6 25.140625 12.171875 29.828125 
Q 18.359375 34.515625 30.609375 34.515625 
L 43.21875 34.515625 
L 43.21875 35.40625 
Q 43.21875 41.609375 39.140625 45 
Q 35.0625 48.390625 27.6875 48.390625 
Q 23 48.390625 18.546875 47.265625 
Q 14.109375 46.140625 10.015625 43.890625 
L 10.015625 52.203125 
Q 14.9375 54.109375 19.578125 55.046875 
Q 24.21875 56 28.609375 56 
Q 40.484375 56 46.34375 49.84375 
Q 52.203125 43.703125 52.203125 31.203125 
z
" id="DejaVuSans-97"/>
       <path d="M 32.171875 -5.078125 
Q 28.375 -14.84375 24.75 -17.8125 
Q 21.140625 -20.796875 15.09375 -20.796875 
L 7.90625 -20.796875 
L 7.90625 -13.28125 
L 13.1875 -13.28125 
Q 16.890625 -13.28125 18.9375 -11.515625 
Q 21 -9.765625 23.484375 -3.21875 
L 25.09375 0.875 
L 2.984375 54.6875 
L 12.5 54.6875 
L 29.59375 11.921875 
L 46.6875 54.6875 
L 56.203125 54.6875 
z
" id="DejaVuSans-121"/>
       <path d="M 44.28125 53.078125 
L 44.28125 44.578125 
Q 40.484375 46.53125 36.375 47.5 
Q 32.28125 48.484375 27.875 48.484375 
Q 21.1875 48.484375 17.84375 46.4375 
Q 14.5 44.390625 14.5 40.28125 
Q 14.5 37.15625 16.890625 35.375 
Q 19.28125 33.59375 26.515625 31.984375 
L 29.59375 31.296875 
Q 39.15625 29.25 43.1875 25.515625 
Q 47.21875 21.78125 47.21875 15.09375 
Q 47.21875 7.46875 41.1875 3.015625 
Q 35.15625 -1.421875 24.609375 -1.421875 
Q 20.21875 -1.421875 15.453125 -0.5625 
Q 10.6875 0.296875 5.421875 2 
L 5.421875 11.28125 
Q 10.40625 8.6875 15.234375 7.390625 
Q 20.0625 6.109375 24.8125 6.109375 
Q 31.15625 6.109375 34.5625 8.28125 
Q 37.984375 10.453125 37.984375 14.40625 
Q 37.984375 18.0625 35.515625 20.015625 
Q 33.0625 21.96875 24.703125 23.78125 
L 21.578125 24.515625 
Q 13.234375 26.265625 9.515625 29.90625 
Q 5.8125 33.546875 5.8125 39.890625 
Q 5.8125 47.609375 11.28125 51.796875 
Q 16.75 56 26.8125 56 
Q 31.78125 56 36.171875 55.265625 
Q 40.578125 54.546875 44.28125 53.078125 
z
" id="DejaVuSans-115"/>
      </defs>
      <use xlink:href="#DejaVuSans-68"/>
      <use x="77.001953" xlink:href="#DejaVuSans-97"/>
      <use x="138.28125" xlink:href="#DejaVuSans-121"/>
      <use x="197.460938" xlink:href="#DejaVuSans-115"/>
     </g>
    </g>
   </g>
   <g id="matplotlib.axis_2">
    <g id="ytick_1">
     <g id="line2d_15">
      <path clip-path="url(#pbac3d090e8)" d="M 90 605.608444 
L 648 605.608444 
" style="fill:none;stroke:#b0b0b0;stroke-linecap:square;stroke-width:0.8;"/>
     </g>
     <g id="line2d_16">
      <defs>
       <path d="M 0 0 
L -3.5 0 
" id="m4e0a3ee981" style="stroke:#000000;stroke-width:0.8;"/>
      </defs>
      <g>
       <use style="stroke:#000000;stroke-width:0.8;" x="90" xlink:href="#m4e0a3ee981" y="605.608444"/>
      </g>
     </g>
     <g id="text_9">
      <!-- 0 -->
      <g transform="translate(76.6375 609.407663)scale(0.1 -0.1)">
       <use xlink:href="#DejaVuSans-48"/>
      </g>
     </g>
    </g>
    <g id="ytick_2">
     <g id="line2d_17">
      <path clip-path="url(#pbac3d090e8)" d="M 90 503.177747 
L 648 503.177747 
" style="fill:none;stroke:#b0b0b0;stroke-linecap:square;stroke-width:0.8;"/>
     </g>
     <g id="line2d_18">
      <g>
       <use style="stroke:#000000;stroke-width:0.8;" x="90" xlink:href="#m4e0a3ee981" y="503.177747"/>
      </g>
     </g>
     <g id="text_10">
      <!-- 50000 -->
      <g transform="translate(51.1875 506.976965)scale(0.1 -0.1)">
       <defs>
        <path d="M 10.796875 72.90625 
L 49.515625 72.90625 
L 49.515625 64.59375 
L 19.828125 64.59375 
L 19.828125 46.734375 
Q 21.96875 47.46875 24.109375 47.828125 
Q 26.265625 48.1875 28.421875 48.1875 
Q 40.625 48.1875 47.75 41.5 
Q 54.890625 34.8125 54.890625 23.390625 
Q 54.890625 11.625 47.5625 5.09375 
Q 40.234375 -1.421875 26.90625 -1.421875 
Q 22.3125 -1.421875 17.546875 -0.640625 
Q 12.796875 0.140625 7.71875 1.703125 
L 7.71875 11.625 
Q 12.109375 9.234375 16.796875 8.0625 
Q 21.484375 6.890625 26.703125 6.890625 
Q 35.15625 6.890625 40.078125 11.328125 
Q 45.015625 15.765625 45.015625 23.390625 
Q 45.015625 31 40.078125 35.4375 
Q 35.15625 39.890625 26.703125 39.890625 
Q 22.75 39.890625 18.8125 39.015625 
Q 14.890625 38.140625 10.796875 36.28125 
z
" id="DejaVuSans-53"/>
       </defs>
       <use xlink:href="#DejaVuSans-53"/>
       <use x="63.623047" xlink:href="#DejaVuSans-48"/>
       <use x="127.246094" xlink:href="#DejaVuSans-48"/>
       <use x="190.869141" xlink:href="#DejaVuSans-48"/>
       <use x="254.492188" xlink:href="#DejaVuSans-48"/>
      </g>
     </g>
    </g>
    <g id="ytick_3">
     <g id="line2d_19">
      <path clip-path="url(#pbac3d090e8)" d="M 90 400.747049 
L 648 400.747049 
" style="fill:none;stroke:#b0b0b0;stroke-linecap:square;stroke-width:0.8;"/>
     </g>
     <g id="line2d_20">
      <g>
       <use style="stroke:#000000;stroke-width:0.8;" x="90" xlink:href="#m4e0a3ee981" y="400.747049"/>
      </g>
     </g>
     <g id="text_11">
      <!-- 100000 -->
      <g transform="translate(44.825 404.546268)scale(0.1 -0.1)">
       <use xlink:href="#DejaVuSans-49"/>
       <use x="63.623047" xlink:href="#DejaVuSans-48"/>
       <use x="127.246094" xlink:href="#DejaVuSans-48"/>
       <use x="190.869141" xlink:href="#DejaVuSans-48"/>
       <use x="254.492188" xlink:href="#DejaVuSans-48"/>
       <use x="318.115234" xlink:href="#DejaVuSans-48"/>
      </g>
     </g>
    </g>
    <g id="ytick_4">
     <g id="line2d_21">
      <path clip-path="url(#pbac3d090e8)" d="M 90 298.316352 
L 648 298.316352 
" style="fill:none;stroke:#b0b0b0;stroke-linecap:square;stroke-width:0.8;"/>
     </g>
     <g id="line2d_22">
      <g>
       <use style="stroke:#000000;stroke-width:0.8;" x="90" xlink:href="#m4e0a3ee981" y="298.316352"/>
      </g>
     </g>
     <g id="text_12">
      <!-- 150000 -->
      <g transform="translate(44.825 302.11557)scale(0.1 -0.1)">
       <use xlink:href="#DejaVuSans-49"/>
       <use x="63.623047" xlink:href="#DejaVuSans-53"/>
       <use x="127.246094" xlink:href="#DejaVuSans-48"/>
       <use x="190.869141" xlink:href="#DejaVuSans-48"/>
       <use x="254.492188" xlink:href="#DejaVuSans-48"/>
       <use x="318.115234" xlink:href="#DejaVuSans-48"/>
      </g>
     </g>
    </g>
    <g id="ytick_5">
     <g id="line2d_23">
      <path clip-path="url(#pbac3d090e8)" d="M 90 195.885654 
L 648 195.885654 
" style="fill:none;stroke:#b0b0b0;stroke-linecap:square;stroke-width:0.8;"/>
     </g>
     <g id="line2d_24">
      <g>
       <use style="stroke:#000000;stroke-width:0.8;" x="90" xlink:href="#m4e0a3ee981" y="195.885654"/>
      </g>
     </g>
     <g id="text_13">
      <!-- 200000 -->
      <g transform="translate(44.825 199.684873)scale(0.1 -0.1)">
       <use xlink:href="#DejaVuSans-50"/>
       <use x="63.623047" xlink:href="#DejaVuSans-48"/>
       <use x="127.246094" xlink:href="#DejaVuSans-48"/>
       <use x="190.869141" xlink:href="#DejaVuSans-48"/>
       <use x="254.492188" xlink:href="#DejaVuSans-48"/>
       <use x="318.115234" xlink:href="#DejaVuSans-48"/>
      </g>
     </g>
    </g>
    <g id="ytick_6">
     <g id="line2d_25">
      <path clip-path="url(#pbac3d090e8)" d="M 90 93.454956 
L 648 93.454956 
" style="fill:none;stroke:#b0b0b0;stroke-linecap:square;stroke-width:0.8;"/>
     </g>
     <g id="line2d_26">
      <g>
       <use style="stroke:#000000;stroke-width:0.8;" x="90" xlink:href="#m4e0a3ee981" y="93.454956"/>
      </g>
     </g>
     <g id="text_14">
      <!-- 250000 -->
      <g transform="translate(44.825 97.254175)scale(0.1 -0.1)">
       <use xlink:href="#DejaVuSans-50"/>
       <use x="63.623047" xlink:href="#DejaVuSans-53"/>
       <use x="127.246094" xlink:href="#DejaVuSans-48"/>
       <use x="190.869141" xlink:href="#DejaVuSans-48"/>
       <use x="254.492188" xlink:href="#DejaVuSans-48"/>
       <use x="318.115234" xlink:href="#DejaVuSans-48"/>
      </g>
     </g>
    </g>
    <g id="text_15">
     <!-- Cumulative cases -->
     <g transform="translate(38.745312 402.425781)rotate(-90)scale(0.1 -0.1)">
      <defs>
       <path d="M 64.40625 67.28125 
L 64.40625 56.890625 
Q 59.421875 61.53125 53.78125 63.8125 
Q 48.140625 66.109375 41.796875 66.109375 
Q 29.296875 66.109375 22.65625 58.46875 
Q 16.015625 50.828125 16.015625 36.375 
Q 16.015625 21.96875 22.65625 14.328125 
Q 29.296875 6.6875 41.796875 6.6875 
Q 48.140625 6.6875 53.78125 8.984375 
Q 59.421875 11.28125 64.40625 15.921875 
L 64.40625 5.609375 
Q 59.234375 2.09375 53.4375 0.328125 
Q 47.65625 -1.421875 41.21875 -1.421875 
Q 24.65625 -1.421875 15.125 8.703125 
Q 5.609375 18.84375 5.609375 36.375 
Q 5.609375 53.953125 15.125 64.078125 
Q 24.65625 74.21875 41.21875 74.21875 
Q 47.75 74.21875 53.53125 72.484375 
Q 59.328125 70.75 64.40625 67.28125 
z
" id="DejaVuSans-67"/>
       <path d="M 8.5 21.578125 
L 8.5 54.6875 
L 17.484375 54.6875 
L 17.484375 21.921875 
Q 17.484375 14.15625 20.5 10.265625 
Q 23.53125 6.390625 29.59375 6.390625 
Q 36.859375 6.390625 41.078125 11.03125 
Q 45.3125 15.671875 45.3125 23.6875 
L 45.3125 54.6875 
L 54.296875 54.6875 
L 54.296875 0 
L 45.3125 0 
L 45.3125 8.40625 
Q 42.046875 3.421875 37.71875 1 
Q 33.40625 -1.421875 27.6875 -1.421875 
Q 18.265625 -1.421875 13.375 4.4375 
Q 8.5 10.296875 8.5 21.578125 
z
M 31.109375 56 
z
" id="DejaVuSans-117"/>
       <path d="M 52 44.1875 
Q 55.375 50.25 60.0625 53.125 
Q 64.75 56 71.09375 56 
Q 79.640625 56 84.28125 50.015625 
Q 88.921875 44.046875 88.921875 33.015625 
L 88.921875 0 
L 79.890625 0 
L 79.890625 32.71875 
Q 79.890625 40.578125 77.09375 44.375 
Q 74.3125 48.1875 68.609375 48.1875 
Q 61.625 48.1875 57.5625 43.546875 
Q 53.515625 38.921875 53.515625 30.90625 
L 53.515625 0 
L 44.484375 0 
L 44.484375 32.71875 
Q 44.484375 40.625 41.703125 44.40625 
Q 38.921875 48.1875 33.109375 48.1875 
Q 26.21875 48.1875 22.15625 43.53125 
Q 18.109375 38.875 18.109375 30.90625 
L 18.109375 0 
L 9.078125 0 
L 9.078125 54.6875 
L 18.109375 54.6875 
L 18.109375 46.1875 
Q 21.1875 51.21875 25.484375 53.609375 
Q 29.78125 56 35.6875 56 
Q 41.65625 56 45.828125 52.96875 
Q 50 49.953125 52 44.1875 
z
" id="DejaVuSans-109"/>
       <path d="M 9.421875 75.984375 
L 18.40625 75.984375 
L 18.40625 0 
L 9.421875 0 
z
" id="DejaVuSans-108"/>
       <path d="M 18.3125 70.21875 
L 18.3125 54.6875 
L 36.8125 54.6875 
L 36.8125 47.703125 
L 18.3125 47.703125 
L 18.3125 18.015625 
Q 18.3125 11.328125 20.140625 9.421875 
Q 21.96875 7.515625 27.59375 7.515625 
L 36.8125 7.515625 
L 36.8125 0 
L 27.59375 0 
Q 17.1875 0 13.234375 3.875 
Q 9.28125 7.765625 9.28125 18.015625 
L 9.28125 47.703125 
L 2.6875 47.703125 
L 2.6875 54.6875 
L 9.28125 54.6875 
L 9.28125 70.21875 
z
" id="DejaVuSans-116"/>
       <path d="M 9.421875 54.6875 
L 18.40625 54.6875 
L 18.40625 0 
L 9.421875 0 
z
M 9.421875 75.984375 
L 18.40625 75.984375 
L 18.40625 64.59375 
L 9.421875 64.59375 
z
" id="DejaVuSans-105"/>
       <path d="M 2.984375 54.6875 
L 12.5 54.6875 
L 29.59375 8.796875 
L 46.6875 54.6875 
L 56.203125 54.6875 
L 35.6875 0 
L 23.484375 0 
z
" id="DejaVuSans-118"/>
       <path d="M 56.203125 29.59375 
L 56.203125 25.203125 
L 14.890625 25.203125 
Q 15.484375 15.921875 20.484375 11.0625 
Q 25.484375 6.203125 34.421875 6.203125 
Q 39.59375 6.203125 44.453125 7.46875 
Q 49.3125 8.734375 54.109375 11.28125 
L 54.109375 2.78125 
Q 49.265625 0.734375 44.1875 -0.34375 
Q 39.109375 -1.421875 33.890625 -1.421875 
Q 20.796875 -1.421875 13.15625 6.1875 
Q 5.515625 13.8125 5.515625 26.8125 
Q 5.515625 40.234375 12.765625 48.109375 
Q 20.015625 56 32.328125 56 
Q 43.359375 56 49.78125 48.890625 
Q 56.203125 41.796875 56.203125 29.59375 
z
M 47.21875 32.234375 
Q 47.125 39.59375 43.09375 43.984375 
Q 39.0625 48.390625 32.421875 48.390625 
Q 24.90625 48.390625 20.390625 44.140625 
Q 15.875 39.890625 15.1875 32.171875 
z
" id="DejaVuSans-101"/>
       <path id="DejaVuSans-32"/>
       <path d="M 48.78125 52.59375 
L 48.78125 44.1875 
Q 44.96875 46.296875 41.140625 47.34375 
Q 37.3125 48.390625 33.40625 48.390625 
Q 24.65625 48.390625 19.8125 42.84375 
Q 14.984375 37.3125 14.984375 27.296875 
Q 14.984375 17.28125 19.8125 11.734375 
Q 24.65625 6.203125 33.40625 6.203125 
Q 37.3125 6.203125 41.140625 7.25 
Q 44.96875 8.296875 48.78125 10.40625 
L 48.78125 2.09375 
Q 45.015625 0.34375 40.984375 -0.53125 
Q 36.96875 -1.421875 32.421875 -1.421875 
Q 20.0625 -1.421875 12.78125 6.34375 
Q 5.515625 14.109375 5.515625 27.296875 
Q 5.515625 40.671875 12.859375 48.328125 
Q 20.21875 56 33.015625 56 
Q 37.15625 56 41.109375 55.140625 
Q 45.0625 54.296875 48.78125 52.59375 
z
" id="DejaVuSans-99"/>
      </defs>
      <use xlink:href="#DejaVuSans-67"/>
      <use x="69.824219" xlink:href="#DejaVuSans-117"/>
      <use x="133.203125" xlink:href="#DejaVuSans-109"/>
      <use x="230.615234" xlink:href="#DejaVuSans-117"/>
      <use x="293.994141" xlink:href="#DejaVuSans-108"/>
      <use x="321.777344" xlink:href="#DejaVuSans-97"/>
      <use x="383.056641" xlink:href="#DejaVuSans-116"/>
      <use x="422.265625" xlink:href="#DejaVuSans-105"/>
      <use x="450.048828" xlink:href="#DejaVuSans-118"/>
      <use x="509.228516" xlink:href="#DejaVuSans-101"/>
      <use x="570.751953" xlink:href="#DejaVuSans-32"/>
      <use x="602.539062" xlink:href="#DejaVuSans-99"/>
      <use x="657.519531" xlink:href="#DejaVuSans-97"/>
      <use x="718.798828" xlink:href="#DejaVuSans-115"/>
      <use x="770.898438" xlink:href="#DejaVuSans-101"/>
      <use x="832.421875" xlink:href="#DejaVuSans-115"/>
     </g>
    </g>
   </g>
   <g id="line2d_27">
    <path clip-path="url(#pbac3d090e8)" d="M 115.363636 605.290909 
L 119.736677 605.226988 
L 124.109718 605.150212 
L 128.482759 605.058003 
L 132.855799 604.947266 
L 137.22884 604.814291 
L 141.601881 604.65463 
L 145.974922 604.462951 
L 150.347962 604.232872 
L 154.721003 603.956751 
L 159.094044 603.625451 
L 163.467085 603.228054 
L 167.840125 602.751529 
L 172.213166 602.180345 
L 176.586207 601.496023 
L 180.959248 600.676616 
L 185.332288 599.696121 
L 189.705329 598.523821 
L 194.07837 597.123552 
L 198.451411 595.452915 
L 202.824451 593.462456 
L 207.197492 591.094844 
L 211.570533 588.284115 
L 215.943574 584.955072 
L 220.316614 581.022953 
L 224.689655 576.393555 
L 229.062696 570.964004 
L 233.435737 564.62445 
L 237.808777 557.26096 
L 242.181818 548.759891 
L 246.554859 539.013979 
L 250.9279 527.930219 
L 255.30094 515.439393 
L 259.673981 501.506718 
L 264.047022 486.142688 
L 268.420063 469.412708 
L 272.793103 451.443809 
L 277.166144 432.426686 
L 281.539185 412.611651 
L 285.912226 392.297921 
L 290.285266 371.816823 
L 294.658307 351.510727 
L 299.031348 331.710461 
L 303.404389 312.714309 
L 307.777429 294.771337 
L 312.15047 278.070833 
L 316.523511 262.738404 
L 320.896552 248.838135 
L 325.269592 236.379392 
L 329.642633 225.3265 
L 334.015674 215.609591 
L 338.388715 207.135245 
L 342.761755 199.795973 
L 347.134796 193.478066 
L 351.507837 188.06764 
L 355.880878 183.454975 
L 360.253918 179.537379 
L 364.626959 176.220852 
L 369 173.420849 
L 373.373041 171.062383 
L 377.746082 169.079693 
L 382.119122 167.415633 
L 386.492163 166.020916 
L 390.865204 164.853292 
L 395.238245 163.876728 
L 399.611285 163.060618 
L 403.984326 162.379059 
L 408.357367 161.810189 
L 412.730408 161.335599 
L 417.103448 160.939818 
L 421.476489 160.609868 
L 425.84953 160.334874 
L 430.222571 160.105734 
L 434.595611 159.914839 
L 438.968652 159.755831 
L 443.341693 159.6234 
L 447.714734 159.513117 
L 452.087774 159.421286 
L 456.460815 159.344825 
L 460.833856 159.281166 
L 465.206897 159.228168 
L 469.579937 159.184048 
L 473.952978 159.147319 
L 478.326019 159.116746 
L 482.69906 159.091295 
L 487.0721 159.070111 
L 491.445141 159.052477 
L 495.818182 159.037799 
L 500.191223 159.025582 
L 504.564263 159.015413 
L 508.937304 159.006949 
L 513.310345 158.999904 
L 517.683386 158.99404 
L 522.056426 158.98916 
L 526.429467 158.985098 
L 530.802508 158.981716 
L 535.175549 158.978902 
L 539.548589 158.97656 
L 543.92163 158.974611 
L 548.294671 158.972988 
L 552.667712 158.971637 
L 557.040752 158.970513 
L 561.413793 158.969578 
L 565.786834 158.968799 
L 570.159875 158.968151 
L 574.532915 158.967612 
L 578.905956 158.967163 
L 583.278997 158.966789 
L 587.652038 158.966478 
L 592.025078 158.966219 
L 596.398119 158.966004 
L 600.77116 158.965824 
L 605.144201 158.965675 
L 609.517241 158.965551 
L 613.890282 158.965447 
L 618.263323 158.965361 
L 622.636364 158.96529 
" style="fill:none;stroke:#1f77b4;stroke-linecap:square;stroke-width:1.5;"/>
   </g>
   <g id="line2d_28">
    <path clip-path="url(#pbac3d090e8)" d="M 115.363636 605.290909 
L 119.736677 603.790625 
L 124.109718 602.173241 
L 128.482759 600.430547 
L 132.855799 598.553914 
L 137.22884 596.534298 
L 141.601881 594.362254 
L 145.974922 592.02795 
L 150.347962 589.521196 
L 154.721003 586.831477 
L 159.094044 583.947999 
L 163.467085 580.859743 
L 167.840125 577.555533 
L 172.213166 574.02412 
L 176.586207 570.254273 
L 180.959248 566.234896 
L 185.332288 561.95515 
L 189.705329 557.404594 
L 194.07837 552.573349 
L 198.451411 547.452267 
L 202.824451 542.033118 
L 207.197492 536.308793 
L 211.570533 530.273507 
L 215.943574 523.923017 
L 220.316614 517.254836 
L 224.689655 510.268447 
L 229.062696 502.965504 
L 233.435737 495.350019 
L 237.808777 487.428524 
L 242.181818 479.21021 
L 246.554859 470.707018 
L 250.9279 461.933693 
L 255.30094 452.907789 
L 259.673981 443.649613 
L 264.047022 434.182115 
L 268.420063 424.53072 
L 272.793103 414.723095 
L 277.166144 404.788866 
L 281.539185 394.759283 
L 285.912226 384.666838 
L 290.285266 374.54485 
L 294.658307 364.427034 
L 299.031348 354.347047 
L 303.404389 344.338043 
L 307.777429 334.432246 
L 312.15047 324.660538 
L 316.523511 315.052089 
L 320.896552 305.634039 
L 325.269592 296.431219 
L 329.642633 287.46594 
L 334.015674 278.757836 
L 338.388715 270.32377 
L 342.761755 262.177793 
L 347.134796 254.331158 
L 351.507837 246.792389 
L 355.880878 239.567383 
L 360.253918 232.659552 
L 364.626959 226.069996 
L 369 219.79769 
L 373.373041 213.839696 
L 377.746082 208.191368 
L 382.119122 202.846575 
L 386.492163 197.797912 
L 390.865204 193.036903 
L 395.238245 188.554204 
L 399.611285 184.339779 
L 403.984326 180.383078 
L 408.357367 176.673184 
L 412.730408 173.198957 
L 417.103448 169.94915 
L 421.476489 166.912526 
L 425.84953 164.077941 
L 430.222571 161.434424 
L 434.595611 158.971246 
L 438.968652 156.677968 
L 443.341693 154.544487 
L 447.714734 152.561064 
L 452.087774 150.71835 
L 456.460815 149.007405 
L 460.833856 147.419702 
L 465.206897 145.947135 
L 469.579937 144.582019 
L 473.952978 143.317082 
L 478.326019 142.145463 
L 482.69906 141.060697 
L 487.0721 140.056704 
L 491.445141 139.127778 
L 495.818182 138.268569 
L 500.191223 137.474071 
L 504.564263 136.739602 
L 508.937304 136.060792 
L 513.310345 135.433563 
L 517.683386 134.854115 
L 522.056426 134.318911 
L 526.429467 133.82466 
L 530.802508 133.368303 
L 535.175549 132.946998 
L 539.548589 132.558107 
L 543.92163 132.199181 
L 548.294671 131.867952 
L 552.667712 131.562315 
L 557.040752 131.280322 
L 561.413793 131.020167 
L 565.786834 130.780181 
L 570.159875 130.558816 
L 574.532915 130.354644 
L 578.905956 130.166341 
L 583.278997 129.992684 
L 587.652038 129.832545 
L 592.025078 129.684878 
L 596.398119 129.548718 
L 600.77116 129.423175 
L 605.144201 129.307426 
L 609.517241 129.20071 
L 613.890282 129.102326 
L 618.263323 129.011627 
L 622.636364 128.928014 
" style="fill:none;stroke:#ff7f0e;stroke-linecap:square;stroke-width:1.5;"/>
   </g>
   <g id="line2d_29">
    <path clip-path="url(#pbac3d090e8)" d="M 115.363636 605.290909 
L 119.736677 605.069779 
L 124.109718 604.813809 
L 128.482759 604.517567 
L 132.855799 604.174789 
L 137.22884 603.778265 
L 141.601881 603.319699 
L 145.974922 602.789561 
L 150.347962 602.176916 
L 154.721003 601.469237 
L 159.094044 600.652204 
L 163.467085 599.709476 
L 167.840125 598.62246 
L 172.213166 597.370059 
L 176.586207 595.928417 
L 180.959248 594.27067 
L 185.332288 592.366706 
L 189.705329 590.182957 
L 194.07837 587.682251 
L 198.451411 584.823731 
L 202.824451 581.562906 
L 207.197492 577.85184 
L 211.570533 573.639568 
L 215.943574 568.872744 
L 220.316614 563.496624 
L 224.689655 557.456393 
L 229.062696 550.698902 
L 233.435737 543.174811 
L 237.808777 534.841137 
L 242.181818 525.664127 
L 246.554859 515.622347 
L 250.9279 504.709787 
L 255.30094 492.938739 
L 259.673981 480.342165 
L 264.047022 466.975222 
L 268.420063 452.915674 
L 272.793103 438.262969 
L 277.166144 423.135891 
L 281.539185 407.668851 
L 285.912226 392.007035 
L 290.285266 376.30079 
L 294.658307 360.699714 
L 299.031348 345.346949 
L 303.404389 330.374124 
L 307.777429 315.897316 
L 312.15047 302.014234 
L 316.523511 288.80268 
L 320.896552 276.320228 
L 325.269592 264.604946 
L 329.642633 253.676909 
L 334.015674 243.540277 
L 338.388715 234.185675 
L 342.761755 225.592677 
L 347.134796 217.732227 
L 351.507837 210.568889 
L 355.880878 204.062849 
L 360.253918 198.171623 
L 364.626959 192.851489 
L 369 188.058633 
L 373.373041 183.750031 
L 377.746082 179.884126 
L 382.119122 176.421291 
L 386.492163 173.324152 
L 390.865204 170.557774 
L 395.238245 168.089745 
L 399.611285 165.890188 
L 403.984326 163.931712 
L 408.357367 162.189321 
L 412.730408 160.640297 
L 417.103448 159.264064 
L 421.476489 158.042041 
L 425.84953 156.957493 
L 430.222571 155.995382 
L 434.595611 155.142221 
L 438.968652 154.385935 
L 443.341693 153.71573 
L 447.714734 153.12197 
L 452.087774 152.596062 
L 456.460815 152.13035 
L 460.833856 151.718022 
L 465.206897 151.353019 
L 469.579937 151.029957 
L 473.952978 150.744055 
L 478.326019 150.491065 
L 482.69906 150.267224 
L 487.0721 150.069189 
L 491.445141 149.894 
L 495.818182 149.739032 
L 500.191223 149.601959 
L 504.564263 149.480722 
L 508.937304 149.373497 
L 513.310345 149.278667 
L 517.683386 149.194804 
L 522.056426 149.120641 
L 526.429467 149.055059 
L 530.802508 148.997066 
L 535.175549 148.945785 
L 539.548589 148.90044 
L 543.92163 148.860345 
L 548.294671 148.824893 
L 552.667712 148.793546 
L 557.040752 148.76583 
L 561.413793 148.741323 
L 565.786834 148.719656 
L 570.159875 148.700498 
L 574.532915 148.683559 
L 578.905956 148.668583 
L 583.278997 148.655342 
L 587.652038 148.643635 
L 592.025078 148.633285 
L 596.398119 148.624134 
L 600.77116 148.616043 
L 605.144201 148.60889 
L 609.517241 148.602565 
L 613.890282 148.596974 
L 618.263323 148.59203 
L 622.636364 148.58766 
" style="fill:none;stroke:#2ca02c;stroke-linecap:square;stroke-width:1.5;"/>
   </g>
   <g id="line2d_30">
    <path clip-path="url(#pbac3d090e8)" d="M 115.363636 605.290909 
L 119.736677 604.780983 
L 124.109718 604.111339 
L 128.482759 603.270623 
L 132.855799 602.24686 
L 137.22884 601.027467 
L 141.601881 599.599285 
L 145.974922 597.948616 
L 150.347962 596.061282 
L 154.721003 593.922696 
L 159.094044 591.517961 
L 163.467085 588.83199 
L 167.840125 585.849642 
L 172.213166 582.555899 
L 176.586207 578.936056 
L 180.959248 574.975952 
L 185.332288 570.662219 
L 189.705329 565.98256 
L 194.07837 560.926051 
L 198.451411 555.48346 
L 202.824451 549.647582 
L 207.197492 543.413571 
L 211.570533 536.779275 
L 215.943574 529.74555 
L 220.316614 522.316549 
L 224.689655 514.499966 
L 229.062696 506.307225 
L 233.435737 497.753607 
L 237.808777 488.858291 
L 242.181818 479.644308 
L 246.554859 470.138403 
L 250.9279 460.370797 
L 255.30094 450.374849 
L 259.673981 440.186641 
L 264.047022 429.844469 
L 268.420063 419.388278 
L 272.793103 408.859052 
L 277.166144 398.298171 
L 281.539185 387.746767 
L 285.912226 377.245101 
L 290.285266 366.831971 
L 294.658307 356.544177 
L 299.031348 346.416054 
L 303.404389 336.479089 
L 307.777429 326.761621 
L 312.15047 317.288629 
L 316.523511 308.081611 
L 320.896552 299.158545 
L 325.269592 290.533923 
L 329.642633 282.218851 
L 334.015674 274.221213 
L 338.388715 266.545867 
L 342.761755 259.194881 
L 347.134796 252.167795 
L 351.507837 245.461891 
L 355.880878 239.072468 
L 360.253918 232.993119 
L 364.626959 227.215995 
L 369 221.732056 
L 373.373041 216.531312 
L 377.746082 211.603036 
L 382.119122 206.935962 
L 386.492163 202.518463 
L 390.865204 198.338707 
L 395.238245 194.384789 
L 399.611285 190.644853 
L 403.984326 187.107186 
L 408.357367 183.7603 
L 412.730408 180.593 
L 417.103448 177.59444 
L 421.476489 174.754157 
L 425.84953 172.062107 
L 430.222571 169.508686 
L 434.595611 167.08474 
L 438.968652 164.781576 
L 443.341693 162.590958 
L 447.714734 160.505107 
L 452.087774 158.516692 
L 456.460815 156.618821 
L 460.833856 154.805024 
L 465.206897 153.069243 
L 469.579937 151.405811 
L 473.952978 149.809438 
L 478.326019 148.275192 
L 482.69906 146.798482 
L 487.0721 145.375037 
L 491.445141 144.000891 
L 495.818182 142.672365 
L 500.191223 141.386048 
L 504.564263 140.13878 
L 508.937304 138.92764 
L 513.310345 137.749924 
L 517.683386 136.603137 
L 522.056426 135.484974 
L 526.429467 134.393309 
L 530.802508 133.326181 
L 535.175549 132.281783 
L 539.548589 131.258453 
L 543.92163 130.254657 
L 548.294671 129.268988 
L 552.667712 128.300147 
L 557.040752 127.346944 
L 561.413793 126.408282 
L 565.786834 125.483156 
L 570.159875 124.570641 
L 574.532915 123.669888 
L 578.905956 122.780117 
L 583.278997 121.900613 
L 587.652038 121.03072 
L 592.025078 120.169834 
L 596.398119 119.317404 
L 600.77116 118.472922 
L 605.144201 117.635922 
L 609.517241 116.805979 
L 613.890282 115.982699 
L 618.263323 115.165724 
L 622.636364 114.354724 
" style="fill:none;stroke:#d62728;stroke-linecap:square;stroke-width:1.5;"/>
   </g>
   <g id="line2d_31">
    <path clip-path="url(#pbac3d090e8)" d="M 115.363636 605.290909 
L 119.736677 605.26085 
L 124.109718 605.183353 
L 128.482759 605.065918 
L 132.855799 604.906633 
L 137.22884 604.697857 
L 141.601881 604.427483 
L 145.974922 604.079034 
L 150.347962 603.631126 
L 154.721003 603.056553 
L 159.094044 602.321098 
L 163.467085 601.382181 
L 167.840125 600.187428 
L 172.213166 598.673361 
L 176.586207 596.764478 
L 180.959248 594.373152 
L 185.332288 591.400914 
L 189.705329 587.741767 
L 194.07837 583.288165 
L 198.451411 577.93992 
L 202.824451 571.615643 
L 207.197492 564.265313 
L 211.570533 555.881485 
L 215.943574 546.506131 
L 220.316614 536.230602 
L 224.689655 525.187918 
L 229.062696 513.538907 
L 233.435737 501.455536 
L 237.808777 489.105245 
L 242.181818 476.639134 
L 246.554859 464.185151 
L 250.9279 451.845886 
L 255.30094 439.699714 
L 259.673981 427.803838 
L 264.047022 416.198066 
L 268.420063 404.908533 
L 272.793103 393.950986 
L 277.166144 383.333474 
L 281.539185 373.058455 
L 285.912226 363.124395 
L 290.285266 353.526957 
L 294.658307 344.259871 
L 299.031348 335.315569 
L 303.404389 326.685634 
L 307.777429 318.361136 
L 312.15047 310.332858 
L 316.523511 302.591467 
L 320.896552 295.127634 
L 325.269592 287.932116 
L 329.642633 280.995812 
L 334.015674 274.309811 
L 338.388715 267.865412 
L 342.761755 261.654146 
L 347.134796 255.667787 
L 351.507837 249.898355 
L 355.880878 244.338122 
L 360.253918 238.979609 
L 364.626959 233.815583 
L 369 228.839054 
L 373.373041 224.043272 
L 377.746082 219.42172 
L 382.119122 214.968105 
L 386.492163 210.676358 
L 390.865204 206.540621 
L 395.238245 202.555245 
L 399.611285 198.714783 
L 403.984326 195.013981 
L 408.357367 191.447772 
L 412.730408 188.011274 
L 417.103448 184.699778 
L 421.476489 181.508744 
L 425.84953 178.433798 
L 430.222571 175.470723 
L 434.595611 172.615453 
L 438.968652 169.864071 
L 443.341693 167.2128 
L 447.714734 164.658001 
L 452.087774 162.196167 
L 456.460815 159.823918 
L 460.833856 157.537994 
L 465.206897 155.335258 
L 469.579937 153.212684 
L 473.952978 151.167355 
L 478.326019 149.196461 
L 482.69906 147.297296 
L 487.0721 145.46725 
L 491.445141 143.703807 
L 495.818182 142.004545 
L 500.191223 140.367129 
L 504.564263 138.789307 
L 508.937304 137.268913 
L 513.310345 135.803856 
L 517.683386 134.392122 
L 522.056426 133.031772 
L 526.429467 131.720935 
L 530.802508 130.457809 
L 535.175549 129.240658 
L 539.548589 128.06781 
L 543.92163 126.937651 
L 548.294671 125.848628 
L 552.667712 124.799244 
L 557.040752 123.788057 
L 561.413793 122.813676 
L 565.786834 121.874761 
L 570.159875 120.970023 
L 574.532915 120.098216 
L 578.905956 119.258143 
L 583.278997 118.448648 
L 587.652038 117.668618 
L 592.025078 116.916982 
L 596.398119 116.192705 
L 600.77116 115.494791 
L 605.144201 114.822282 
L 609.517241 114.174252 
L 613.890282 113.549811 
L 618.263323 112.9481 
L 622.636364 112.368291 
" style="fill:none;stroke:#9467bd;stroke-linecap:square;stroke-width:1.5;"/>
   </g>
   <g id="line2d_32">
    <path clip-path="url(#pbac3d090e8)" d="M 115.363636 605.290909 
L 119.736677 605.230854 
L 124.109718 605.057967 
L 128.482759 604.772668 
L 132.855799 604.366259 
L 137.22884 603.824298 
L 141.601881 603.128159 
L 145.974922 602.255712 
L 150.347962 601.181595 
L 154.721003 599.877315 
L 159.094044 598.311332 
L 163.467085 596.449206 
L 167.840125 594.253875 
L 172.213166 591.686121 
L 176.586207 588.705276 
L 180.959248 585.270194 
L 185.332288 581.340522 
L 189.705329 576.878264 
L 194.07837 571.84958 
L 198.451411 566.226763 
L 202.824451 559.990245 
L 207.197492 553.130466 
L 211.570533 545.649414 
L 215.943574 537.56165 
L 220.316614 528.894637 
L 224.689655 519.688305 
L 229.062696 509.993824 
L 233.435737 499.871702 
L 237.808777 489.389362 
L 242.181818 478.618448 
L 246.554859 467.632107 
L 250.9279 456.502461 
L 255.30094 445.298461 
L 259.673981 434.084205 
L 264.047022 422.917772 
L 268.420063 411.850545 
L 272.793103 400.926949 
L 277.166144 390.184538 
L 281.539185 379.65433 
L 285.912226 369.361301 
L 290.285266 359.324986 
L 294.658307 349.560106 
L 299.031348 340.077203 
L 303.404389 330.883236 
L 307.777429 321.982139 
L 312.15047 313.375315 
L 316.523511 305.062078 
L 320.896552 297.040032 
L 325.269592 289.305402 
L 329.642633 281.853317 
L 334.015674 274.678039 
L 338.388715 267.773168 
L 342.761755 261.131805 
L 347.134796 254.746691 
L 351.507837 248.610319 
L 355.880878 242.715031 
L 360.253918 237.05309 
L 364.626959 231.616747 
L 369 226.398289 
L 373.373041 221.390082 
L 377.746082 216.584601 
L 382.119122 211.974457 
L 386.492163 207.552417 
L 390.865204 203.311419 
L 395.238245 199.244584 
L 399.611285 195.345223 
L 403.984326 191.606844 
L 408.357367 188.023154 
L 412.730408 184.58806 
L 417.103448 181.295672 
L 421.476489 178.140298 
L 425.84953 175.116445 
L 430.222571 172.218814 
L 434.595611 169.442298 
L 438.968652 166.781976 
L 443.341693 164.233112 
L 447.714734 161.791146 
L 452.087774 159.451694 
L 456.460815 157.210538 
L 460.833856 155.063625 
L 465.206897 153.007059 
L 469.579937 151.037099 
L 473.952978 149.150151 
L 478.326019 147.342764 
L 482.69906 145.611624 
L 487.0721 143.953552 
L 491.445141 142.365497 
L 495.818182 140.84453 
L 500.191223 139.387842 
L 504.564263 137.99274 
L 508.937304 136.656639 
L 513.310345 135.37706 
L 517.683386 134.151629 
L 522.056426 132.978066 
L 526.429467 131.854187 
L 530.802508 130.777899 
L 535.175549 129.747194 
L 539.548589 128.76015 
L 543.92163 127.814922 
L 548.294671 126.909743 
L 552.667712 126.042922 
L 557.040752 125.212834 
L 561.413793 124.417927 
L 565.786834 123.656711 
L 570.159875 122.927758 
L 574.532915 122.229701 
L 578.905956 121.561232 
L 583.278997 120.921096 
L 587.652038 120.30809 
L 592.025078 119.721063 
L 596.398119 119.158914 
L 600.77116 118.620585 
L 605.144201 118.105065 
L 609.517241 117.611386 
L 613.890282 117.138618 
L 618.263323 116.685874 
L 622.636364 116.252303 
" style="fill:none;stroke:#8c564b;stroke-linecap:square;stroke-width:1.5;"/>
   </g>
   <g id="line2d_33">
    <path clip-path="url(#pbac3d090e8)" d="M 115.363636 605.290909 
L 119.736677 605.254753 
L 124.109718 605.158748 
L 128.482759 605.010993 
L 132.855799 604.810102 
L 137.22884 604.548374 
L 141.601881 604.213068 
L 145.974922 603.786664 
L 150.347962 603.246515 
L 154.721003 602.564132 
L 159.094044 601.704246 
L 163.467085 600.623731 
L 167.840125 599.270552 
L 172.213166 597.582882 
L 176.586207 595.488682 
L 180.959248 592.906069 
L 185.332288 589.744943 
L 189.705329 585.910327 
L 194.07837 581.307831 
L 198.451411 575.851328 
L 202.824451 569.472431 
L 207.197492 562.130614 
L 211.570533 553.82212 
L 215.943574 544.585441 
L 220.316614 534.501505 
L 224.689655 523.687896 
L 229.062696 512.288014 
L 233.435737 500.457515 
L 237.808777 488.350889 
L 242.181818 476.110616 
L 246.554859 463.860145 
L 250.9279 451.700797 
L 255.30094 439.711794 
L 259.673981 427.952319 
L 264.047022 416.464577 
L 268.420063 405.277081 
L 272.793103 394.407716 
L 277.166144 383.866346 
L 281.539185 373.656929 
L 285.912226 363.77915 
L 290.285266 354.229664 
L 294.658307 345.003013 
L 299.031348 336.092301 
L 303.404389 327.489686 
L 307.777429 319.186728 
L 312.15047 311.174645 
L 316.523511 303.444492 
L 320.896552 295.987292 
L 325.269592 288.794127 
L 329.642633 281.856199 
L 334.015674 275.164875 
L 338.388715 268.711722 
L 342.761755 262.488518 
L 347.134796 256.487272 
L 351.507837 250.700227 
L 355.880878 245.119865 
L 360.253918 239.738906 
L 364.626959 234.550306 
L 369 229.547254 
L 373.373041 224.723167 
L 377.746082 220.071689 
L 382.119122 215.586677 
L 386.492163 211.262205 
L 390.865204 207.092549 
L 395.238245 203.072187 
L 399.611285 199.195791 
L 403.984326 195.458219 
L 408.357367 191.854512 
L 412.730408 188.379884 
L 417.103448 185.02972 
L 421.476489 181.79957 
L 425.84953 178.68514 
L 430.222571 175.682289 
L 434.595611 172.787024 
L 438.968652 169.995495 
L 443.341693 167.303989 
L 447.714734 164.708923 
L 452.087774 162.206845 
L 456.460815 159.794424 
L 460.833856 157.468451 
L 465.206897 155.225829 
L 469.579937 153.063572 
L 473.952978 150.978802 
L 478.326019 148.968743 
L 482.69906 147.030718 
L 487.0721 145.162147 
L 491.445141 143.360542 
L 495.818182 141.623503 
L 500.191223 139.948717 
L 504.564263 138.333954 
L 508.937304 136.777062 
L 513.310345 135.275969 
L 517.683386 133.828674 
L 522.056426 132.43325 
L 526.429467 131.087838 
L 530.802508 129.790646 
L 535.175549 128.539946 
L 539.548589 127.334071 
L 543.92163 126.171417 
L 548.294671 125.050433 
L 552.667712 123.969626 
L 557.040752 122.927557 
L 561.413793 121.922837 
L 565.786834 120.954127 
L 570.159875 120.020137 
L 574.532915 119.119624 
L 578.905956 118.251386 
L 583.278997 117.414267 
L 587.652038 116.607152 
L 592.025078 115.828966 
L 596.398119 115.078672 
L 600.77116 114.35527 
L 605.144201 113.657796 
L 609.517241 112.985321 
L 613.890282 112.33695 
L 618.263323 111.711817 
L 622.636364 111.109091 
" style="fill:none;stroke:#e377c2;stroke-linecap:square;stroke-width:1.5;"/>
   </g>
   <g id="line2d_34">
    <path clip-path="url(#pbac3d090e8)" d="M 115.363636 605.290909 
L 119.736677 605.227547 
L 124.109718 605.045268 
L 128.482759 604.745307 
L 132.855799 604.319636 
L 137.22884 603.754327 
L 141.601881 603.031178 
L 145.974922 602.128477 
L 150.347962 601.021336 
L 154.721003 599.681851 
L 159.094044 598.07923 
L 163.467085 596.179967 
L 167.840125 593.948134 
L 172.213166 591.345853 
L 176.586207 588.333972 
L 180.959248 584.872996 
L 185.332288 580.924285 
L 189.705329 576.451508 
L 194.07837 571.422323 
L 198.451411 565.810204 
L 202.824451 559.596301 
L 207.197492 552.771181 
L 211.570533 545.336282 
L 215.943574 537.304904 
L 220.316614 528.702585 
L 224.689655 519.566779 
L 229.062696 509.945817 
L 233.435737 499.897221 
L 237.808777 489.485518 
L 242.181818 478.779752 
L 246.554859 467.850933 
L 250.9279 456.769609 
L 255.30094 445.603754 
L 259.673981 434.417068 
L 264.047022 423.267741 
L 268.420063 412.20768 
L 272.793103 401.282146 
L 277.166144 390.529733 
L 281.539185 379.98261 
L 285.912226 369.666945 
L 290.285266 359.603438 
L 294.658307 349.807911 
L 299.031348 340.291915 
L 303.404389 331.063311 
L 307.777429 322.12682 
L 312.15047 313.484519 
L 316.523511 305.136287 
L 320.896552 297.080196 
L 325.269592 289.312847 
L 329.642633 281.829663 
L 334.015674 274.625135 
L 338.388715 267.693026 
L 342.761755 261.026553 
L 347.134796 254.618526 
L 351.507837 248.461474 
L 355.880878 242.54774 
L 360.253918 236.86957 
L 364.626959 231.419172 
L 369 226.188779 
L 373.373041 221.170688 
L 377.746082 216.357295 
L 382.119122 211.741127 
L 386.492163 207.314861 
L 390.865204 203.071343 
L 395.238245 199.0036 
L 399.611285 195.104846 
L 403.984326 191.368495 
L 408.357367 187.788161 
L 412.730408 184.357659 
L 417.103448 181.071009 
L 421.476489 177.922432 
L 425.84953 174.90635 
L 430.222571 172.017386 
L 434.595611 169.250352 
L 438.968652 166.600255 
L 443.341693 164.062288 
L 447.714734 161.631823 
L 452.087774 159.304412 
L 456.460815 157.075778 
L 460.833856 154.941809 
L 465.206897 152.898556 
L 469.579937 150.942228 
L 473.952978 149.069181 
L 478.326019 147.275921 
L 482.69906 145.559093 
L 487.0721 143.915478 
L 491.445141 142.341988 
L 495.818182 140.835661 
L 500.191223 139.393656 
L 504.564263 138.013251 
L 508.937304 136.691834 
L 513.310345 135.426903 
L 517.683386 134.216057 
L 522.056426 133.056999 
L 526.429467 131.947523 
L 530.802508 130.88552 
L 535.175549 129.868965 
L 539.548589 128.895922 
L 543.92163 127.964532 
L 548.294671 127.073018 
L 552.667712 126.219676 
L 557.040752 125.402875 
L 561.413793 124.621051 
L 565.786834 123.872708 
L 570.159875 123.156412 
L 574.532915 122.470792 
L 578.905956 121.814532 
L 583.278997 121.186375 
L 587.652038 120.585115 
L 592.025078 120.009599 
L 596.398119 119.458722 
L 600.77116 118.931427 
L 605.144201 118.426701 
L 609.517241 117.943575 
L 613.890282 117.481122 
L 618.263323 117.038452 
L 622.636364 116.614717 
" style="fill:none;stroke:#7f7f7f;stroke-linecap:square;stroke-width:1.5;"/>
   </g>
   <g id="line2d_35">
    <path clip-path="url(#pbac3d090e8)" d="M 115.363636 605.290909 
L 119.736677 605.229087 
L 124.109718 605.052365 
L 128.482759 604.762713 
L 132.855799 604.352363 
L 137.22884 603.8074 
L 141.601881 603.109466 
L 145.974922 602.236514 
L 150.347962 601.163128 
L 154.721003 599.860642 
L 159.094044 598.297231 
L 163.467085 596.438052 
L 167.840125 594.245527 
L 172.213166 591.679807 
L 176.586207 588.699488 
L 180.959248 585.262604 
L 185.332288 581.327933 
L 189.705329 576.856608 
L 194.07837 571.813988 
L 198.451411 566.171708 
L 202.824451 559.909769 
L 207.197492 553.018483 
L 211.570533 545.500081 
L 215.943574 537.369763 
L 220.316614 528.656024 
L 224.689655 519.400166 
L 229.062696 509.654986 
L 233.435737 499.482753 
L 237.808777 488.952649 
L 242.181818 478.137953 
L 246.554859 467.113208 
L 250.9279 455.951624 
L 255.30094 444.722886 
L 259.673981 433.491474 
L 264.047022 422.31552 
L 268.420063 411.246174 
L 272.793103 400.327406 
L 277.166144 389.59615 
L 281.539185 379.082694 
L 285.912226 368.81123 
L 290.285266 358.800492 
L 294.658307 349.064421 
L 299.031348 339.612817 
L 303.404389 330.451955 
L 307.777429 321.585151 
L 312.15047 313.013258 
L 316.523511 304.73511 
L 320.896552 296.747901 
L 325.269592 289.04751 
L 329.642633 281.628775 
L 334.015674 274.485723 
L 338.388715 267.611767 
L 342.761755 260.999862 
L 347.134796 254.64264 
L 351.507837 248.532517 
L 355.880878 242.661784 
L 360.253918 237.022679 
L 364.626959 231.607445 
L 369 226.408378 
L 373.373041 221.417867 
L 377.746082 216.628421 
L 382.119122 212.032694 
L 386.492163 207.623502 
L 390.865204 203.39384 
L 395.238245 199.336887 
L 399.611285 195.446017 
L 403.984326 191.714802 
L 408.357367 188.137015 
L 412.730408 184.706629 
L 417.103448 181.41782 
L 421.476489 178.264962 
L 425.84953 175.242625 
L 430.222571 172.345573 
L 434.595611 169.568762 
L 438.968652 166.907329 
L 443.341693 164.356597 
L 447.714734 161.912061 
L 452.087774 159.56939 
L 456.460815 157.324419 
L 460.833856 155.173142 
L 465.206897 153.111712 
L 469.579937 151.136431 
L 473.952978 149.243748 
L 478.326019 147.430251 
L 482.69906 145.692667 
L 487.0721 144.027851 
L 491.445141 142.432786 
L 495.818182 140.904576 
L 500.191223 139.440443 
L 504.564263 138.03772 
L 508.937304 136.69385 
L 513.310345 135.40638 
L 517.683386 134.172956 
L 522.056426 132.991323 
L 526.429467 131.859316 
L 530.802508 130.774861 
L 535.175549 129.735968 
L 539.548589 128.74073 
L 543.92163 127.787319 
L 548.294671 126.87398 
L 552.667712 125.999035 
L 557.040752 125.160872 
L 561.413793 124.357949 
L 565.786834 123.588784 
L 570.159875 122.851961 
L 574.532915 122.146121 
L 578.905956 121.469961 
L 583.278997 120.822233 
L 587.652038 120.201742 
L 592.025078 119.607342 
L 596.398119 119.037934 
L 600.77116 118.492466 
L 605.144201 117.969931 
L 609.517241 117.469363 
L 613.890282 116.989837 
L 618.263323 116.530465 
L 622.636364 116.090398 
" style="fill:none;stroke:#bcbd22;stroke-linecap:square;stroke-width:1.5;"/>
   </g>
   <g id="line2d_36">
    <path clip-path="url(#pbac3d090e8)" d="M 115.363636 605.290909 
L 119.736677 605.139312 
L 124.109718 604.948791 
L 128.482759 604.680422 
L 132.855799 604.266602 
L 137.22884 603.789275 
L 141.601881 603.297608 
L 145.974922 602.138092 
L 150.347962 601.437466 
L 154.721003 600.482812 
L 159.094044 599.280276 
L 163.467085 597.704892 
L 167.840125 596.11107 
L 172.213166 593.556448 
L 176.586207 590.499916 
L 180.959248 586.818557 
L 185.332288 584.817061 
L 189.705329 580.078617 
L 194.07837 574.647742 
L 198.451411 569.429922 
L 202.824451 562.265919 
L 207.197492 554.911395 
L 211.570533 548.288226 
L 215.943574 541.064813 
L 220.316614 532.446294 
L 224.689655 521.543571 
L 229.062696 509.280568 
L 233.435737 495.847806 
L 237.808777 484.457512 
L 242.181818 474.6467 
L 246.554859 463.893526 
L 250.9279 453.220247 
L 255.30094 440.512695 
L 259.673981 428.407435 
L 264.047022 416.169015 
L 268.420063 405.481396 
L 272.793103 397.184509 
L 277.166144 388.881477 
L 281.539185 379.085005 
L 285.912226 369.522075 
L 290.285266 360.12918 
L 294.658307 350.28559 
L 299.031348 341.443772 
L 303.404389 334.070811 
L 307.777429 327.845073 
L 312.15047 319.98659 
L 316.523511 311.374217 
L 320.896552 303.280143 
L 325.269592 293.663949 
L 329.642633 285.281021 
L 334.015674 278.821741 
L 338.388715 272.73326 
L 342.761755 267.269607 
L 347.134796 259.513555 
L 351.507837 252.357746 
L 355.880878 245.206035 
L 360.253918 238.963908 
L 364.626959 234.342235 
L 369 228.751568 
L 373.373041 221.847739 
L 377.746082 216.427106 
L 382.119122 210.238243 
L 386.492163 205.40966 
L 390.865204 200.648681 
L 395.238245 197.086142 
L 399.611285 192.80249 
L 403.984326 188.529081 
L 408.357367 184.694076 
L 412.730408 180.668549 
L 417.103448 176.776183 
L 421.476489 173.930658 
L 425.84953 171.429301 
L 430.222571 169.227041 
L 434.595611 166.268842 
L 438.968652 163.398734 
L 443.341693 160.680223 
L 447.714734 158.461574 
L 452.087774 156.818586 
L 456.460815 155.294417 
L 460.833856 152.42226 
L 465.206897 150.603091 
L 469.579937 148.570866 
L 473.952978 146.95451 
L 478.326019 145.161972 
L 482.69906 143.779158 
L 487.0721 142.855233 
L 491.445141 141.18971 
L 495.818182 139.827382 
L 500.191223 138.512172 
L 504.564263 137.176475 
L 508.937304 135.805953 
L 513.310345 134.718139 
L 517.683386 134.103554 
L 522.056426 133.290255 
L 526.429467 132.093864 
L 530.802508 130.879036 
L 535.175549 129.821951 
L 539.548589 128.969728 
L 543.92163 128.287539 
L 548.294671 127.877817 
L 552.667712 127.226357 
L 557.040752 126.568752 
L 561.413793 126.206148 
L 565.786834 125.144966 
L 570.159875 124.59184 
L 574.532915 124.188263 
L 578.905956 123.614651 
L 583.278997 123.034893 
L 587.652038 122.621073 
L 592.025078 121.844648 
L 596.398119 121.510724 
L 600.77116 120.801904 
L 605.144201 120.109472 
L 609.517241 119.49284 
L 613.890282 119.062631 
L 618.263323 118.390685 
L 622.636364 117.712594 
" style="fill:none;stroke:#17becf;stroke-dasharray:14.8,6.4;stroke-dashoffset:0;stroke-width:4;"/>
   </g>
   <g id="patch_3">
    <path d="M 90 630 
L 90 86.4 
" style="fill:none;stroke:#000000;stroke-linecap:square;stroke-linejoin:miter;stroke-width:0.8;"/>
   </g>
   <g id="patch_4">
    <path d="M 648 630 
L 648 86.4 
" style="fill:none;stroke:#000000;stroke-linecap:square;stroke-linejoin:miter;stroke-width:0.8;"/>
   </g>
   <g id="patch_5">
    <path d="M 90 630 
L 648 630 
" style="fill:none;stroke:#000000;stroke-linecap:square;stroke-linejoin:miter;stroke-width:0.8;"/>
   </g>
   <g id="patch_6">
    <path d="M 90 86.4 
L 648 86.4 
" style="fill:none;stroke:#000000;stroke-linecap:square;stroke-linejoin:miter;stroke-width:0.8;"/>
   </g>
   <g id="text_16">
    <!-- Italy relative err =  -->
    <g transform="translate(312.178125 80.4)scale(0.12 -0.12)">
     <defs>
      <path d="M 9.8125 72.90625 
L 19.671875 72.90625 
L 19.671875 0 
L 9.8125 0 
z
" id="DejaVuSans-73"/>
      <path d="M 41.109375 46.296875 
Q 39.59375 47.171875 37.8125 47.578125 
Q 36.03125 48 33.890625 48 
Q 26.265625 48 22.1875 43.046875 
Q 18.109375 38.09375 18.109375 28.8125 
L 18.109375 0 
L 9.078125 0 
L 9.078125 54.6875 
L 18.109375 54.6875 
L 18.109375 46.1875 
Q 20.953125 51.171875 25.484375 53.578125 
Q 30.03125 56 36.53125 56 
Q 37.453125 56 38.578125 55.875 
Q 39.703125 55.765625 41.0625 55.515625 
z
" id="DejaVuSans-114"/>
      <path d="M 10.59375 45.40625 
L 73.1875 45.40625 
L 73.1875 37.203125 
L 10.59375 37.203125 
z
M 10.59375 25.484375 
L 73.1875 25.484375 
L 73.1875 17.1875 
L 10.59375 17.1875 
z
" id="DejaVuSans-61"/>
     </defs>
     <use xlink:href="#DejaVuSans-73"/>
     <use x="29.492188" xlink:href="#DejaVuSans-116"/>
     <use x="68.701172" xlink:href="#DejaVuSans-97"/>
     <use x="129.980469" xlink:href="#DejaVuSans-108"/>
     <use x="157.763672" xlink:href="#DejaVuSans-121"/>
     <use x="216.943359" xlink:href="#DejaVuSans-32"/>
     <use x="248.730469" xlink:href="#DejaVuSans-114"/>
     <use x="287.59375" xlink:href="#DejaVuSans-101"/>
     <use x="349.117188" xlink:href="#DejaVuSans-108"/>
     <use x="376.900391" xlink:href="#DejaVuSans-97"/>
     <use x="438.179688" xlink:href="#DejaVuSans-116"/>
     <use x="477.388672" xlink:href="#DejaVuSans-105"/>
     <use x="505.171875" xlink:href="#DejaVuSans-118"/>
     <use x="564.351562" xlink:href="#DejaVuSans-101"/>
     <use x="625.875" xlink:href="#DejaVuSans-32"/>
     <use x="657.662109" xlink:href="#DejaVuSans-101"/>
     <use x="719.185547" xlink:href="#DejaVuSans-114"/>
     <use x="758.548828" xlink:href="#DejaVuSans-114"/>
     <use x="799.662109" xlink:href="#DejaVuSans-32"/>
     <use x="831.449219" xlink:href="#DejaVuSans-61"/>
     <use x="915.238281" xlink:href="#DejaVuSans-32"/>
    </g>
   </g>
   <g id="legend_1">
    <g id="patch_7">
     <path d="M 97 226.503125 
L 185.6 226.503125 
Q 187.6 226.503125 187.6 224.503125 
L 187.6 93.4 
Q 187.6 91.4 185.6 91.4 
L 97 91.4 
Q 95 91.4 95 93.4 
L 95 224.503125 
Q 95 226.503125 97 226.503125 
z
" style="fill:#ffffff;opacity:0.8;stroke:#cccccc;stroke-linejoin:miter;"/>
    </g>
    <g id="line2d_37">
     <path d="M 99 99.498438 
L 119 99.498438 
" style="fill:none;stroke:#1f77b4;stroke-linecap:square;stroke-width:1.5;"/>
    </g>
    <g id="line2d_38"/>
    <g id="text_17">
     <!-- SI -->
     <g transform="translate(127 102.998438)scale(0.1 -0.1)">
      <defs>
       <path d="M 53.515625 70.515625 
L 53.515625 60.890625 
Q 47.90625 63.578125 42.921875 64.890625 
Q 37.9375 66.21875 33.296875 66.21875 
Q 25.25 66.21875 20.875 63.09375 
Q 16.5 59.96875 16.5 54.203125 
Q 16.5 49.359375 19.40625 46.890625 
Q 22.3125 44.4375 30.421875 42.921875 
L 36.375 41.703125 
Q 47.40625 39.59375 52.65625 34.296875 
Q 57.90625 29 57.90625 20.125 
Q 57.90625 9.515625 50.796875 4.046875 
Q 43.703125 -1.421875 29.984375 -1.421875 
Q 24.8125 -1.421875 18.96875 -0.25 
Q 13.140625 0.921875 6.890625 3.21875 
L 6.890625 13.375 
Q 12.890625 10.015625 18.65625 8.296875 
Q 24.421875 6.59375 29.984375 6.59375 
Q 38.421875 6.59375 43.015625 9.90625 
Q 47.609375 13.234375 47.609375 19.390625 
Q 47.609375 24.75 44.3125 27.78125 
Q 41.015625 30.8125 33.5 32.328125 
L 27.484375 33.5 
Q 16.453125 35.6875 11.515625 40.375 
Q 6.59375 45.0625 6.59375 53.421875 
Q 6.59375 63.09375 13.40625 68.65625 
Q 20.21875 74.21875 32.171875 74.21875 
Q 37.3125 74.21875 42.625 73.28125 
Q 47.953125 72.359375 53.515625 70.515625 
z
" id="DejaVuSans-83"/>
      </defs>
      <use xlink:href="#DejaVuSans-83"/>
      <use x="63.476562" xlink:href="#DejaVuSans-73"/>
     </g>
    </g>
    <g id="line2d_39">
     <path d="M 99 114.176563 
L 119 114.176563 
" style="fill:none;stroke:#ff7f0e;stroke-linecap:square;stroke-width:1.5;"/>
    </g>
    <g id="line2d_40"/>
    <g id="text_18">
     <!-- BD -->
     <g transform="translate(127 117.676563)scale(0.1 -0.1)">
      <defs>
       <path d="M 19.671875 34.8125 
L 19.671875 8.109375 
L 35.5 8.109375 
Q 43.453125 8.109375 47.28125 11.40625 
Q 51.125 14.703125 51.125 21.484375 
Q 51.125 28.328125 47.28125 31.5625 
Q 43.453125 34.8125 35.5 34.8125 
z
M 19.671875 64.796875 
L 19.671875 42.828125 
L 34.28125 42.828125 
Q 41.5 42.828125 45.03125 45.53125 
Q 48.578125 48.25 48.578125 53.8125 
Q 48.578125 59.328125 45.03125 62.0625 
Q 41.5 64.796875 34.28125 64.796875 
z
M 9.8125 72.90625 
L 35.015625 72.90625 
Q 46.296875 72.90625 52.390625 68.21875 
Q 58.5 63.53125 58.5 54.890625 
Q 58.5 48.1875 55.375 44.234375 
Q 52.25 40.28125 46.1875 39.3125 
Q 53.46875 37.75 57.5 32.78125 
Q 61.53125 27.828125 61.53125 20.40625 
Q 61.53125 10.640625 54.890625 5.3125 
Q 48.25 0 35.984375 0 
L 9.8125 0 
z
" id="DejaVuSans-66"/>
      </defs>
      <use xlink:href="#DejaVuSans-66"/>
      <use x="68.603516" xlink:href="#DejaVuSans-68"/>
     </g>
    </g>
    <g id="line2d_41">
     <path d="M 99 128.854688 
L 119 128.854688 
" style="fill:none;stroke:#2ca02c;stroke-linecap:square;stroke-width:1.5;"/>
    </g>
    <g id="line2d_42"/>
    <g id="text_19">
     <!-- SIR -->
     <g transform="translate(127 132.354688)scale(0.1 -0.1)">
      <defs>
       <path d="M 44.390625 34.1875 
Q 47.5625 33.109375 50.5625 29.59375 
Q 53.5625 26.078125 56.59375 19.921875 
L 66.609375 0 
L 56 0 
L 46.6875 18.703125 
Q 43.0625 26.03125 39.671875 28.421875 
Q 36.28125 30.8125 30.421875 30.8125 
L 19.671875 30.8125 
L 19.671875 0 
L 9.8125 0 
L 9.8125 72.90625 
L 32.078125 72.90625 
Q 44.578125 72.90625 50.734375 67.671875 
Q 56.890625 62.453125 56.890625 51.90625 
Q 56.890625 45.015625 53.6875 40.46875 
Q 50.484375 35.9375 44.390625 34.1875 
z
M 19.671875 64.796875 
L 19.671875 38.921875 
L 32.078125 38.921875 
Q 39.203125 38.921875 42.84375 42.21875 
Q 46.484375 45.515625 46.484375 51.90625 
Q 46.484375 58.296875 42.84375 61.546875 
Q 39.203125 64.796875 32.078125 64.796875 
z
" id="DejaVuSans-82"/>
      </defs>
      <use xlink:href="#DejaVuSans-83"/>
      <use x="63.476562" xlink:href="#DejaVuSans-73"/>
      <use x="92.96875" xlink:href="#DejaVuSans-82"/>
     </g>
    </g>
    <g id="line2d_43">
     <path d="M 99 143.532812 
L 119 143.532812 
" style="fill:none;stroke:#d62728;stroke-linecap:square;stroke-width:1.5;"/>
    </g>
    <g id="line2d_44"/>
    <g id="text_20">
     <!-- eSIR -->
     <g transform="translate(127 147.032812)scale(0.1 -0.1)">
      <use xlink:href="#DejaVuSans-101"/>
      <use x="61.523438" xlink:href="#DejaVuSans-83"/>
      <use x="125" xlink:href="#DejaVuSans-73"/>
      <use x="154.492188" xlink:href="#DejaVuSans-82"/>
     </g>
    </g>
    <g id="line2d_45">
     <path d="M 99 158.210938 
L 119 158.210938 
" style="fill:none;stroke:#9467bd;stroke-linecap:square;stroke-width:1.5;"/>
    </g>
    <g id="line2d_46"/>
    <g id="text_21">
     <!-- SEIR -->
     <g transform="translate(127 161.710938)scale(0.1 -0.1)">
      <defs>
       <path d="M 9.8125 72.90625 
L 55.90625 72.90625 
L 55.90625 64.59375 
L 19.671875 64.59375 
L 19.671875 43.015625 
L 54.390625 43.015625 
L 54.390625 34.71875 
L 19.671875 34.71875 
L 19.671875 8.296875 
L 56.78125 8.296875 
L 56.78125 0 
L 9.8125 0 
z
" id="DejaVuSans-69"/>
      </defs>
      <use xlink:href="#DejaVuSans-83"/>
      <use x="63.476562" xlink:href="#DejaVuSans-69"/>
      <use x="126.660156" xlink:href="#DejaVuSans-73"/>
      <use x="156.152344" xlink:href="#DejaVuSans-82"/>
     </g>
    </g>
    <g id="line2d_47">
     <path d="M 99 172.889063 
L 119 172.889063 
" style="fill:none;stroke:#8c564b;stroke-linecap:square;stroke-width:1.5;"/>
    </g>
    <g id="line2d_48"/>
    <g id="text_22">
     <!-- eSEIR -->
     <g transform="translate(127 176.389063)scale(0.1 -0.1)">
      <use xlink:href="#DejaVuSans-101"/>
      <use x="61.523438" xlink:href="#DejaVuSans-83"/>
      <use x="125" xlink:href="#DejaVuSans-69"/>
      <use x="188.183594" xlink:href="#DejaVuSans-73"/>
      <use x="217.675781" xlink:href="#DejaVuSans-82"/>
     </g>
    </g>
    <g id="line2d_49">
     <path d="M 99 187.567188 
L 119 187.567188 
" style="fill:none;stroke:#e377c2;stroke-linecap:square;stroke-width:1.5;"/>
    </g>
    <g id="line2d_50"/>
    <g id="text_23">
     <!-- SEIUR -->
     <g transform="translate(127 191.067188)scale(0.1 -0.1)">
      <defs>
       <path d="M 8.6875 72.90625 
L 18.609375 72.90625 
L 18.609375 28.609375 
Q 18.609375 16.890625 22.84375 11.734375 
Q 27.09375 6.59375 36.625 6.59375 
Q 46.09375 6.59375 50.34375 11.734375 
Q 54.59375 16.890625 54.59375 28.609375 
L 54.59375 72.90625 
L 64.5 72.90625 
L 64.5 27.390625 
Q 64.5 13.140625 57.4375 5.859375 
Q 50.390625 -1.421875 36.625 -1.421875 
Q 22.796875 -1.421875 15.734375 5.859375 
Q 8.6875 13.140625 8.6875 27.390625 
z
" id="DejaVuSans-85"/>
      </defs>
      <use xlink:href="#DejaVuSans-83"/>
      <use x="63.476562" xlink:href="#DejaVuSans-69"/>
      <use x="126.660156" xlink:href="#DejaVuSans-73"/>
      <use x="156.152344" xlink:href="#DejaVuSans-85"/>
      <use x="229.345703" xlink:href="#DejaVuSans-82"/>
     </g>
    </g>
    <g id="line2d_51">
     <path d="M 99 202.245312 
L 119 202.245312 
" style="fill:none;stroke:#7f7f7f;stroke-linecap:square;stroke-width:1.5;"/>
    </g>
    <g id="line2d_52"/>
    <g id="text_24">
     <!-- eSEIUR -->
     <g transform="translate(127 205.745312)scale(0.1 -0.1)">
      <use xlink:href="#DejaVuSans-101"/>
      <use x="61.523438" xlink:href="#DejaVuSans-83"/>
      <use x="125" xlink:href="#DejaVuSans-69"/>
      <use x="188.183594" xlink:href="#DejaVuSans-73"/>
      <use x="217.675781" xlink:href="#DejaVuSans-85"/>
      <use x="290.869141" xlink:href="#DejaVuSans-82"/>
     </g>
    </g>
    <g id="line2d_53">
     <path d="M 99 216.923437 
L 119 216.923437 
" style="fill:none;stroke:#bcbd22;stroke-linecap:square;stroke-width:1.5;"/>
    </g>
    <g id="line2d_54"/>
    <g id="text_25">
     <!-- eSEIUR$^{range}$ -->
     <g transform="translate(127 220.423437)scale(0.1 -0.1)">
      <defs>
       <path d="M 44.578125 46.390625 
Q 43.21875 47.125 41.453125 47.515625 
Q 39.703125 47.90625 37.703125 47.90625 
Q 30.515625 47.90625 25.140625 42.453125 
Q 19.78125 37.015625 18.015625 27.875 
L 12.5 0 
L 3.515625 0 
L 14.203125 54.6875 
L 23.1875 54.6875 
L 21.484375 46.1875 
Q 25.046875 50.921875 30 53.453125 
Q 34.96875 56 40.578125 56 
Q 42.046875 56 43.453125 55.828125 
Q 44.875 55.671875 46.296875 55.28125 
z
" id="DejaVuSans-Oblique-114"/>
       <path d="M 53.71875 31.203125 
L 47.609375 0 
L 38.625 0 
L 40.28125 8.296875 
Q 36.328125 3.421875 31.265625 1 
Q 26.21875 -1.421875 20.015625 -1.421875 
Q 13.03125 -1.421875 8.5625 2.84375 
Q 4.109375 7.125 4.109375 13.8125 
Q 4.109375 23.390625 11.75 28.953125 
Q 19.390625 34.515625 32.8125 34.515625 
L 45.3125 34.515625 
L 45.796875 36.921875 
Q 45.90625 37.3125 45.953125 37.765625 
Q 46 38.234375 46 39.203125 
Q 46 43.5625 42.453125 45.96875 
Q 38.921875 48.390625 32.515625 48.390625 
Q 28.125 48.390625 23.5 47.265625 
Q 18.890625 46.140625 14.015625 43.890625 
L 15.578125 52.203125 
Q 20.65625 54.109375 25.515625 55.046875 
Q 30.375 56 34.90625 56 
Q 44.578125 56 49.625 51.796875 
Q 54.6875 47.609375 54.6875 39.59375 
Q 54.6875 37.984375 54.4375 35.8125 
Q 54.203125 33.640625 53.71875 31.203125 
z
M 44 27.484375 
L 35.015625 27.484375 
Q 23.96875 27.484375 18.671875 24.53125 
Q 13.375 21.578125 13.375 15.375 
Q 13.375 11.078125 16.078125 8.640625 
Q 18.796875 6.203125 23.578125 6.203125 
Q 30.90625 6.203125 36.375 11.453125 
Q 41.84375 16.703125 43.609375 25.484375 
z
" id="DejaVuSans-Oblique-97"/>
       <path d="M 55.71875 33.015625 
L 49.3125 0 
L 40.28125 0 
L 46.6875 32.671875 
Q 47.125 34.96875 47.359375 36.71875 
Q 47.609375 38.484375 47.609375 39.5 
Q 47.609375 43.609375 45.015625 45.890625 
Q 42.4375 48.1875 37.796875 48.1875 
Q 30.5625 48.1875 25.34375 43.375 
Q 20.125 38.578125 18.5 30.328125 
L 12.5 0 
L 3.515625 0 
L 14.109375 54.6875 
L 23.09375 54.6875 
L 21.296875 46.09375 
Q 25.046875 50.828125 30.3125 53.40625 
Q 35.59375 56 41.40625 56 
Q 48.640625 56 52.609375 52.09375 
Q 56.59375 48.1875 56.59375 41.109375 
Q 56.59375 39.359375 56.375 37.359375 
Q 56.15625 35.359375 55.71875 33.015625 
z
" id="DejaVuSans-Oblique-110"/>
       <path d="M 59.625 54.6875 
L 50.296875 6.78125 
Q 47.609375 -7.125 40.015625 -13.953125 
Q 32.421875 -20.796875 19.578125 -20.796875 
Q 14.84375 -20.796875 10.78125 -20.09375 
Q 6.734375 -19.390625 3.21875 -17.921875 
L 4.890625 -9.1875 
Q 8.203125 -11.328125 11.90625 -12.34375 
Q 15.625 -13.375 19.828125 -13.375 
Q 28.375 -13.375 33.859375 -8.703125 
Q 39.359375 -4.046875 41.109375 4.6875 
L 41.890625 8.796875 
Q 38.140625 4.5 33.15625 2.25 
Q 28.171875 0 22.40625 0 
Q 14.109375 0 9.34375 5.484375 
Q 4.59375 10.984375 4.59375 20.609375 
Q 4.59375 28.171875 7.46875 35.421875 
Q 10.359375 42.671875 15.578125 48.296875 
Q 19.046875 52 23.65625 54 
Q 28.265625 56 33.296875 56 
Q 38.8125 56 42.90625 53.4375 
Q 47.015625 50.875 49.03125 46.1875 
L 50.59375 54.6875 
z
M 46.09375 34.625 
Q 46.09375 41.265625 42.96875 44.875 
Q 39.84375 48.484375 34.078125 48.484375 
Q 30.515625 48.484375 27.296875 47.0625 
Q 24.078125 45.65625 21.78125 43.109375 
Q 18.0625 38.921875 15.984375 33.234375 
Q 13.921875 27.546875 13.921875 21.484375 
Q 13.921875 14.75 17.0625 11.125 
Q 20.21875 7.515625 26.125 7.515625 
Q 34.671875 7.515625 40.375 15.25 
Q 46.09375 23 46.09375 34.625 
z
" id="DejaVuSans-Oblique-103"/>
       <path d="M 48.09375 32.234375 
Q 48.25 33.015625 48.3125 33.84375 
Q 48.390625 34.671875 48.390625 35.5 
Q 48.390625 41.453125 44.890625 44.921875 
Q 41.40625 48.390625 35.40625 48.390625 
Q 28.71875 48.390625 23.578125 44.15625 
Q 18.453125 39.9375 15.828125 32.171875 
z
M 55.90625 25.203125 
L 14.109375 25.203125 
Q 13.8125 23.34375 13.71875 22.265625 
Q 13.625 21.1875 13.625 20.40625 
Q 13.625 13.625 17.796875 9.90625 
Q 21.96875 6.203125 29.59375 6.203125 
Q 35.453125 6.203125 40.671875 7.515625 
Q 45.90625 8.84375 50.390625 11.375 
L 48.6875 2.484375 
Q 43.84375 0.53125 38.6875 -0.4375 
Q 33.546875 -1.421875 28.21875 -1.421875 
Q 16.84375 -1.421875 10.71875 4.015625 
Q 4.59375 9.46875 4.59375 19.484375 
Q 4.59375 28.03125 7.640625 35.375 
Q 10.6875 42.71875 16.609375 48.484375 
Q 20.40625 52.09375 25.65625 54.046875 
Q 30.90625 56 36.8125 56 
Q 46.09375 56 51.578125 50.4375 
Q 57.078125 44.875 57.078125 35.5 
Q 57.078125 33.25 56.78125 30.6875 
Q 56.5 28.125 55.90625 25.203125 
z
" id="DejaVuSans-Oblique-101"/>
      </defs>
      <use transform="translate(0 0.51875)" xlink:href="#DejaVuSans-101"/>
      <use transform="translate(61.523438 0.51875)" xlink:href="#DejaVuSans-83"/>
      <use transform="translate(125 0.51875)" xlink:href="#DejaVuSans-69"/>
      <use transform="translate(188.183594 0.51875)" xlink:href="#DejaVuSans-73"/>
      <use transform="translate(217.675781 0.51875)" xlink:href="#DejaVuSans-85"/>
      <use transform="translate(288.619141 0.51875)" xlink:href="#DejaVuSans-82"/>
      <use transform="translate(359.058594 38.8)scale(0.7)" xlink:href="#DejaVuSans-Oblique-114"/>
      <use transform="translate(387.837891 38.8)scale(0.7)" xlink:href="#DejaVuSans-Oblique-97"/>
      <use transform="translate(430.733398 38.8)scale(0.7)" xlink:href="#DejaVuSans-Oblique-110"/>
      <use transform="translate(475.098633 38.8)scale(0.7)" xlink:href="#DejaVuSans-Oblique-103"/>
      <use transform="translate(519.532227 38.8)scale(0.7)" xlink:href="#DejaVuSans-Oblique-101"/>
     </g>
    </g>
   </g>
  </g>
 </g>
 <defs>
  <clipPath id="pbac3d090e8">
   <rect height="543.6" width="558" x="90" y="86.4"/>
  </clipPath>
 </defs>
</svg>
