<?xml version="1.0" encoding="utf-8" standalone="no"?>
<!DOCTYPE svg PUBLIC "-//W3C//DTD SVG 1.1//EN"
  "http://www.w3.org/Graphics/SVG/1.1/DTD/svg11.dtd">
<!-- Created with matplotlib (https://matplotlib.org/) -->
<svg height="720pt" version="1.1" viewBox="0 0 720 720" width="720pt" xmlns="http://www.w3.org/2000/svg" xmlns:xlink="http://www.w3.org/1999/xlink">
 <metadata>
  <rdf:RDF xmlns:cc="http://creativecommons.org/ns#" xmlns:dc="http://purl.org/dc/elements/1.1/" xmlns:rdf="http://www.w3.org/1999/02/22-rdf-syntax-ns#">
   <cc:Work>
    <dc:type rdf:resource="http://purl.org/dc/dcmitype/StillImage"/>
    <dc:date>2022-10-11T20:58:41.183201</dc:date>
    <dc:format>image/svg+xml</dc:format>
    <dc:creator>
     <cc:Agent>
      <dc:title>Matplotlib v3.3.2, https://matplotlib.org/</dc:title>
     </cc:Agent>
    </dc:creator>
   </cc:Work>
  </rdf:RDF>
 </metadata>
 <defs>
  <style type="text/css">*{stroke-linecap:butt;stroke-linejoin:round;}</style>
 </defs>
 <g id="figure_1">
  <g id="patch_1">
   <path d="M 0 720 
L 720 720 
L 720 0 
L 0 0 
z
" style="fill:none;"/>
  </g>
  <g id="axes_1">
   <g id="patch_2">
    <path d="M 90 630 
L 648 630 
L 648 86.4 
L 90 86.4 
z
" style="fill:#ffffff;"/>
   </g>
   <g id="matplotlib.axis_1">
    <g id="xtick_1">
     <g id="line2d_1">
      <path clip-path="url(#p1442f0a1e9)" d="M 115.363636 630 
L 115.363636 86.4 
" style="fill:none;stroke:#b0b0b0;stroke-linecap:square;stroke-width:0.8;"/>
     </g>
     <g id="line2d_2">
      <defs>
       <path d="M 0 0 
L 0 3.5 
" id="mdd14da477b" style="stroke:#000000;stroke-width:0.8;"/>
      </defs>
      <g>
       <use style="stroke:#000000;stroke-width:0.8;" x="115.363636" xlink:href="#mdd14da477b" y="630"/>
      </g>
     </g>
     <g id="text_1">
      <!-- 0 -->
      <g transform="translate(112.182386 644.598438)scale(0.1 -0.1)">
       <defs>
        <path d="M 31.78125 66.40625 
Q 24.171875 66.40625 20.328125 58.90625 
Q 16.5 51.421875 16.5 36.375 
Q 16.5 21.390625 20.328125 13.890625 
Q 24.171875 6.390625 31.78125 6.390625 
Q 39.453125 6.390625 43.28125 13.890625 
Q 47.125 21.390625 47.125 36.375 
Q 47.125 51.421875 43.28125 58.90625 
Q 39.453125 66.40625 31.78125 66.40625 
z
M 31.78125 74.21875 
Q 44.046875 74.21875 50.515625 64.515625 
Q 56.984375 54.828125 56.984375 36.375 
Q 56.984375 17.96875 50.515625 8.265625 
Q 44.046875 -1.421875 31.78125 -1.421875 
Q 19.53125 -1.421875 13.0625 8.265625 
Q 6.59375 17.96875 6.59375 36.375 
Q 6.59375 54.828125 13.0625 64.515625 
Q 19.53125 74.21875 31.78125 74.21875 
z
" id="DejaVuSans-48"/>
       </defs>
       <use xlink:href="#DejaVuSans-48"/>
      </g>
     </g>
    </g>
    <g id="xtick_2">
     <g id="line2d_3">
      <path clip-path="url(#p1442f0a1e9)" d="M 178.772727 630 
L 178.772727 86.4 
" style="fill:none;stroke:#b0b0b0;stroke-linecap:square;stroke-width:0.8;"/>
     </g>
     <g id="line2d_4">
      <g>
       <use style="stroke:#000000;stroke-width:0.8;" x="178.772727" xlink:href="#mdd14da477b" y="630"/>
      </g>
     </g>
     <g id="text_2">
      <!-- 25 -->
      <g transform="translate(172.410227 644.598438)scale(0.1 -0.1)">
       <defs>
        <path d="M 19.1875 8.296875 
L 53.609375 8.296875 
L 53.609375 0 
L 7.328125 0 
L 7.328125 8.296875 
Q 12.9375 14.109375 22.625 23.890625 
Q 32.328125 33.6875 34.8125 36.53125 
Q 39.546875 41.84375 41.421875 45.53125 
Q 43.3125 49.21875 43.3125 52.78125 
Q 43.3125 58.59375 39.234375 62.25 
Q 35.15625 65.921875 28.609375 65.921875 
Q 23.96875 65.921875 18.8125 64.3125 
Q 13.671875 62.703125 7.8125 59.421875 
L 7.8125 69.390625 
Q 13.765625 71.78125 18.9375 73 
Q 24.125 74.21875 28.421875 74.21875 
Q 39.75 74.21875 46.484375 68.546875 
Q 53.21875 62.890625 53.21875 53.421875 
Q 53.21875 48.921875 51.53125 44.890625 
Q 49.859375 40.875 45.40625 35.40625 
Q 44.1875 33.984375 37.640625 27.21875 
Q 31.109375 20.453125 19.1875 8.296875 
z
" id="DejaVuSans-50"/>
        <path d="M 10.796875 72.90625 
L 49.515625 72.90625 
L 49.515625 64.59375 
L 19.828125 64.59375 
L 19.828125 46.734375 
Q 21.96875 47.46875 24.109375 47.828125 
Q 26.265625 48.1875 28.421875 48.1875 
Q 40.625 48.1875 47.75 41.5 
Q 54.890625 34.8125 54.890625 23.390625 
Q 54.890625 11.625 47.5625 5.09375 
Q 40.234375 -1.421875 26.90625 -1.421875 
Q 22.3125 -1.421875 17.546875 -0.640625 
Q 12.796875 0.140625 7.71875 1.703125 
L 7.71875 11.625 
Q 12.109375 9.234375 16.796875 8.0625 
Q 21.484375 6.890625 26.703125 6.890625 
Q 35.15625 6.890625 40.078125 11.328125 
Q 45.015625 15.765625 45.015625 23.390625 
Q 45.015625 31 40.078125 35.4375 
Q 35.15625 39.890625 26.703125 39.890625 
Q 22.75 39.890625 18.8125 39.015625 
Q 14.890625 38.140625 10.796875 36.28125 
z
" id="DejaVuSans-53"/>
       </defs>
       <use xlink:href="#DejaVuSans-50"/>
       <use x="63.623047" xlink:href="#DejaVuSans-53"/>
      </g>
     </g>
    </g>
    <g id="xtick_3">
     <g id="line2d_5">
      <path clip-path="url(#p1442f0a1e9)" d="M 242.181818 630 
L 242.181818 86.4 
" style="fill:none;stroke:#b0b0b0;stroke-linecap:square;stroke-width:0.8;"/>
     </g>
     <g id="line2d_6">
      <g>
       <use style="stroke:#000000;stroke-width:0.8;" x="242.181818" xlink:href="#mdd14da477b" y="630"/>
      </g>
     </g>
     <g id="text_3">
      <!-- 50 -->
      <g transform="translate(235.819318 644.598438)scale(0.1 -0.1)">
       <use xlink:href="#DejaVuSans-53"/>
       <use x="63.623047" xlink:href="#DejaVuSans-48"/>
      </g>
     </g>
    </g>
    <g id="xtick_4">
     <g id="line2d_7">
      <path clip-path="url(#p1442f0a1e9)" d="M 305.590909 630 
L 305.590909 86.4 
" style="fill:none;stroke:#b0b0b0;stroke-linecap:square;stroke-width:0.8;"/>
     </g>
     <g id="line2d_8">
      <g>
       <use style="stroke:#000000;stroke-width:0.8;" x="305.590909" xlink:href="#mdd14da477b" y="630"/>
      </g>
     </g>
     <g id="text_4">
      <!-- 75 -->
      <g transform="translate(299.228409 644.598438)scale(0.1 -0.1)">
       <defs>
        <path d="M 8.203125 72.90625 
L 55.078125 72.90625 
L 55.078125 68.703125 
L 28.609375 0 
L 18.3125 0 
L 43.21875 64.59375 
L 8.203125 64.59375 
z
" id="DejaVuSans-55"/>
       </defs>
       <use xlink:href="#DejaVuSans-55"/>
       <use x="63.623047" xlink:href="#DejaVuSans-53"/>
      </g>
     </g>
    </g>
    <g id="xtick_5">
     <g id="line2d_9">
      <path clip-path="url(#p1442f0a1e9)" d="M 369 630 
L 369 86.4 
" style="fill:none;stroke:#b0b0b0;stroke-linecap:square;stroke-width:0.8;"/>
     </g>
     <g id="line2d_10">
      <g>
       <use style="stroke:#000000;stroke-width:0.8;" x="369" xlink:href="#mdd14da477b" y="630"/>
      </g>
     </g>
     <g id="text_5">
      <!-- 100 -->
      <g transform="translate(359.45625 644.598438)scale(0.1 -0.1)">
       <defs>
        <path d="M 12.40625 8.296875 
L 28.515625 8.296875 
L 28.515625 63.921875 
L 10.984375 60.40625 
L 10.984375 69.390625 
L 28.421875 72.90625 
L 38.28125 72.90625 
L 38.28125 8.296875 
L 54.390625 8.296875 
L 54.390625 0 
L 12.40625 0 
z
" id="DejaVuSans-49"/>
       </defs>
       <use xlink:href="#DejaVuSans-49"/>
       <use x="63.623047" xlink:href="#DejaVuSans-48"/>
       <use x="127.246094" xlink:href="#DejaVuSans-48"/>
      </g>
     </g>
    </g>
    <g id="xtick_6">
     <g id="line2d_11">
      <path clip-path="url(#p1442f0a1e9)" d="M 432.409091 630 
L 432.409091 86.4 
" style="fill:none;stroke:#b0b0b0;stroke-linecap:square;stroke-width:0.8;"/>
     </g>
     <g id="line2d_12">
      <g>
       <use style="stroke:#000000;stroke-width:0.8;" x="432.409091" xlink:href="#mdd14da477b" y="630"/>
      </g>
     </g>
     <g id="text_6">
      <!-- 125 -->
      <g transform="translate(422.865341 644.598438)scale(0.1 -0.1)">
       <use xlink:href="#DejaVuSans-49"/>
       <use x="63.623047" xlink:href="#DejaVuSans-50"/>
       <use x="127.246094" xlink:href="#DejaVuSans-53"/>
      </g>
     </g>
    </g>
    <g id="xtick_7">
     <g id="line2d_13">
      <path clip-path="url(#p1442f0a1e9)" d="M 495.818182 630 
L 495.818182 86.4 
" style="fill:none;stroke:#b0b0b0;stroke-linecap:square;stroke-width:0.8;"/>
     </g>
     <g id="line2d_14">
      <g>
       <use style="stroke:#000000;stroke-width:0.8;" x="495.818182" xlink:href="#mdd14da477b" y="630"/>
      </g>
     </g>
     <g id="text_7">
      <!-- 150 -->
      <g transform="translate(486.274432 644.598438)scale(0.1 -0.1)">
       <use xlink:href="#DejaVuSans-49"/>
       <use x="63.623047" xlink:href="#DejaVuSans-53"/>
       <use x="127.246094" xlink:href="#DejaVuSans-48"/>
      </g>
     </g>
    </g>
    <g id="xtick_8">
     <g id="line2d_15">
      <path clip-path="url(#p1442f0a1e9)" d="M 559.227273 630 
L 559.227273 86.4 
" style="fill:none;stroke:#b0b0b0;stroke-linecap:square;stroke-width:0.8;"/>
     </g>
     <g id="line2d_16">
      <g>
       <use style="stroke:#000000;stroke-width:0.8;" x="559.227273" xlink:href="#mdd14da477b" y="630"/>
      </g>
     </g>
     <g id="text_8">
      <!-- 175 -->
      <g transform="translate(549.683523 644.598438)scale(0.1 -0.1)">
       <use xlink:href="#DejaVuSans-49"/>
       <use x="63.623047" xlink:href="#DejaVuSans-55"/>
       <use x="127.246094" xlink:href="#DejaVuSans-53"/>
      </g>
     </g>
    </g>
    <g id="xtick_9">
     <g id="line2d_17">
      <path clip-path="url(#p1442f0a1e9)" d="M 622.636364 630 
L 622.636364 86.4 
" style="fill:none;stroke:#b0b0b0;stroke-linecap:square;stroke-width:0.8;"/>
     </g>
     <g id="line2d_18">
      <g>
       <use style="stroke:#000000;stroke-width:0.8;" x="622.636364" xlink:href="#mdd14da477b" y="630"/>
      </g>
     </g>
     <g id="text_9">
      <!-- 200 -->
      <g transform="translate(613.092614 644.598438)scale(0.1 -0.1)">
       <use xlink:href="#DejaVuSans-50"/>
       <use x="63.623047" xlink:href="#DejaVuSans-48"/>
       <use x="127.246094" xlink:href="#DejaVuSans-48"/>
      </g>
     </g>
    </g>
    <g id="text_10">
     <!-- Days -->
     <g transform="translate(356.521875 658.276562)scale(0.1 -0.1)">
      <defs>
       <path d="M 19.671875 64.796875 
L 19.671875 8.109375 
L 31.59375 8.109375 
Q 46.6875 8.109375 53.6875 14.9375 
Q 60.6875 21.78125 60.6875 36.53125 
Q 60.6875 51.171875 53.6875 57.984375 
Q 46.6875 64.796875 31.59375 64.796875 
z
M 9.8125 72.90625 
L 30.078125 72.90625 
Q 51.265625 72.90625 61.171875 64.09375 
Q 71.09375 55.28125 71.09375 36.53125 
Q 71.09375 17.671875 61.125 8.828125 
Q 51.171875 0 30.078125 0 
L 9.8125 0 
z
" id="DejaVuSans-68"/>
       <path d="M 34.28125 27.484375 
Q 23.390625 27.484375 19.1875 25 
Q 14.984375 22.515625 14.984375 16.5 
Q 14.984375 11.71875 18.140625 8.90625 
Q 21.296875 6.109375 26.703125 6.109375 
Q 34.1875 6.109375 38.703125 11.40625 
Q 43.21875 16.703125 43.21875 25.484375 
L 43.21875 27.484375 
z
M 52.203125 31.203125 
L 52.203125 0 
L 43.21875 0 
L 43.21875 8.296875 
Q 40.140625 3.328125 35.546875 0.953125 
Q 30.953125 -1.421875 24.3125 -1.421875 
Q 15.921875 -1.421875 10.953125 3.296875 
Q 6 8.015625 6 15.921875 
Q 6 25.140625 12.171875 29.828125 
Q 18.359375 34.515625 30.609375 34.515625 
L 43.21875 34.515625 
L 43.21875 35.40625 
Q 43.21875 41.609375 39.140625 45 
Q 35.0625 48.390625 27.6875 48.390625 
Q 23 48.390625 18.546875 47.265625 
Q 14.109375 46.140625 10.015625 43.890625 
L 10.015625 52.203125 
Q 14.9375 54.109375 19.578125 55.046875 
Q 24.21875 56 28.609375 56 
Q 40.484375 56 46.34375 49.84375 
Q 52.203125 43.703125 52.203125 31.203125 
z
" id="DejaVuSans-97"/>
       <path d="M 32.171875 -5.078125 
Q 28.375 -14.84375 24.75 -17.8125 
Q 21.140625 -20.796875 15.09375 -20.796875 
L 7.90625 -20.796875 
L 7.90625 -13.28125 
L 13.1875 -13.28125 
Q 16.890625 -13.28125 18.9375 -11.515625 
Q 21 -9.765625 23.484375 -3.21875 
L 25.09375 0.875 
L 2.984375 54.6875 
L 12.5 54.6875 
L 29.59375 11.921875 
L 46.6875 54.6875 
L 56.203125 54.6875 
z
" id="DejaVuSans-121"/>
       <path d="M 44.28125 53.078125 
L 44.28125 44.578125 
Q 40.484375 46.53125 36.375 47.5 
Q 32.28125 48.484375 27.875 48.484375 
Q 21.1875 48.484375 17.84375 46.4375 
Q 14.5 44.390625 14.5 40.28125 
Q 14.5 37.15625 16.890625 35.375 
Q 19.28125 33.59375 26.515625 31.984375 
L 29.59375 31.296875 
Q 39.15625 29.25 43.1875 25.515625 
Q 47.21875 21.78125 47.21875 15.09375 
Q 47.21875 7.46875 41.1875 3.015625 
Q 35.15625 -1.421875 24.609375 -1.421875 
Q 20.21875 -1.421875 15.453125 -0.5625 
Q 10.6875 0.296875 5.421875 2 
L 5.421875 11.28125 
Q 10.40625 8.6875 15.234375 7.390625 
Q 20.0625 6.109375 24.8125 6.109375 
Q 31.15625 6.109375 34.5625 8.28125 
Q 37.984375 10.453125 37.984375 14.40625 
Q 37.984375 18.0625 35.515625 20.015625 
Q 33.0625 21.96875 24.703125 23.78125 
L 21.578125 24.515625 
Q 13.234375 26.265625 9.515625 29.90625 
Q 5.8125 33.546875 5.8125 39.890625 
Q 5.8125 47.609375 11.28125 51.796875 
Q 16.75 56 26.8125 56 
Q 31.78125 56 36.171875 55.265625 
Q 40.578125 54.546875 44.28125 53.078125 
z
" id="DejaVuSans-115"/>
      </defs>
      <use xlink:href="#DejaVuSans-68"/>
      <use x="77.001953" xlink:href="#DejaVuSans-97"/>
      <use x="138.28125" xlink:href="#DejaVuSans-121"/>
      <use x="197.460938" xlink:href="#DejaVuSans-115"/>
     </g>
    </g>
   </g>
   <g id="matplotlib.axis_2">
    <g id="ytick_1">
     <g id="line2d_19">
      <path clip-path="url(#p1442f0a1e9)" d="M 90 605.501772 
L 648 605.501772 
" style="fill:none;stroke:#b0b0b0;stroke-linecap:square;stroke-width:0.8;"/>
     </g>
     <g id="line2d_20">
      <defs>
       <path d="M 0 0 
L -3.5 0 
" id="mbeda53fab8" style="stroke:#000000;stroke-width:0.8;"/>
      </defs>
      <g>
       <use style="stroke:#000000;stroke-width:0.8;" x="90" xlink:href="#mbeda53fab8" y="605.501772"/>
      </g>
     </g>
     <g id="text_11">
      <!-- 0 -->
      <g transform="translate(76.6375 609.300991)scale(0.1 -0.1)">
       <use xlink:href="#DejaVuSans-48"/>
      </g>
     </g>
    </g>
    <g id="ytick_2">
     <g id="line2d_21">
      <path clip-path="url(#p1442f0a1e9)" d="M 90 524.40061 
L 648 524.40061 
" style="fill:none;stroke:#b0b0b0;stroke-linecap:square;stroke-width:0.8;"/>
     </g>
     <g id="line2d_22">
      <g>
       <use style="stroke:#000000;stroke-width:0.8;" x="90" xlink:href="#mbeda53fab8" y="524.40061"/>
      </g>
     </g>
     <g id="text_12">
      <!-- 5000 -->
      <g transform="translate(57.55 528.199829)scale(0.1 -0.1)">
       <use xlink:href="#DejaVuSans-53"/>
       <use x="63.623047" xlink:href="#DejaVuSans-48"/>
       <use x="127.246094" xlink:href="#DejaVuSans-48"/>
       <use x="190.869141" xlink:href="#DejaVuSans-48"/>
      </g>
     </g>
    </g>
    <g id="ytick_3">
     <g id="line2d_23">
      <path clip-path="url(#p1442f0a1e9)" d="M 90 443.299449 
L 648 443.299449 
" style="fill:none;stroke:#b0b0b0;stroke-linecap:square;stroke-width:0.8;"/>
     </g>
     <g id="line2d_24">
      <g>
       <use style="stroke:#000000;stroke-width:0.8;" x="90" xlink:href="#mbeda53fab8" y="443.299449"/>
      </g>
     </g>
     <g id="text_13">
      <!-- 10000 -->
      <g transform="translate(51.1875 447.098668)scale(0.1 -0.1)">
       <use xlink:href="#DejaVuSans-49"/>
       <use x="63.623047" xlink:href="#DejaVuSans-48"/>
       <use x="127.246094" xlink:href="#DejaVuSans-48"/>
       <use x="190.869141" xlink:href="#DejaVuSans-48"/>
       <use x="254.492188" xlink:href="#DejaVuSans-48"/>
      </g>
     </g>
    </g>
    <g id="ytick_4">
     <g id="line2d_25">
      <path clip-path="url(#p1442f0a1e9)" d="M 90 362.198287 
L 648 362.198287 
" style="fill:none;stroke:#b0b0b0;stroke-linecap:square;stroke-width:0.8;"/>
     </g>
     <g id="line2d_26">
      <g>
       <use style="stroke:#000000;stroke-width:0.8;" x="90" xlink:href="#mbeda53fab8" y="362.198287"/>
      </g>
     </g>
     <g id="text_14">
      <!-- 15000 -->
      <g transform="translate(51.1875 365.997506)scale(0.1 -0.1)">
       <use xlink:href="#DejaVuSans-49"/>
       <use x="63.623047" xlink:href="#DejaVuSans-53"/>
       <use x="127.246094" xlink:href="#DejaVuSans-48"/>
       <use x="190.869141" xlink:href="#DejaVuSans-48"/>
       <use x="254.492188" xlink:href="#DejaVuSans-48"/>
      </g>
     </g>
    </g>
    <g id="ytick_5">
     <g id="line2d_27">
      <path clip-path="url(#p1442f0a1e9)" d="M 90 281.097126 
L 648 281.097126 
" style="fill:none;stroke:#b0b0b0;stroke-linecap:square;stroke-width:0.8;"/>
     </g>
     <g id="line2d_28">
      <g>
       <use style="stroke:#000000;stroke-width:0.8;" x="90" xlink:href="#mbeda53fab8" y="281.097126"/>
      </g>
     </g>
     <g id="text_15">
      <!-- 20000 -->
      <g transform="translate(51.1875 284.896344)scale(0.1 -0.1)">
       <use xlink:href="#DejaVuSans-50"/>
       <use x="63.623047" xlink:href="#DejaVuSans-48"/>
       <use x="127.246094" xlink:href="#DejaVuSans-48"/>
       <use x="190.869141" xlink:href="#DejaVuSans-48"/>
       <use x="254.492188" xlink:href="#DejaVuSans-48"/>
      </g>
     </g>
    </g>
    <g id="ytick_6">
     <g id="line2d_29">
      <path clip-path="url(#p1442f0a1e9)" d="M 90 199.995964 
L 648 199.995964 
" style="fill:none;stroke:#b0b0b0;stroke-linecap:square;stroke-width:0.8;"/>
     </g>
     <g id="line2d_30">
      <g>
       <use style="stroke:#000000;stroke-width:0.8;" x="90" xlink:href="#mbeda53fab8" y="199.995964"/>
      </g>
     </g>
     <g id="text_16">
      <!-- 25000 -->
      <g transform="translate(51.1875 203.795183)scale(0.1 -0.1)">
       <use xlink:href="#DejaVuSans-50"/>
       <use x="63.623047" xlink:href="#DejaVuSans-53"/>
       <use x="127.246094" xlink:href="#DejaVuSans-48"/>
       <use x="190.869141" xlink:href="#DejaVuSans-48"/>
       <use x="254.492188" xlink:href="#DejaVuSans-48"/>
      </g>
     </g>
    </g>
    <g id="ytick_7">
     <g id="line2d_31">
      <path clip-path="url(#p1442f0a1e9)" d="M 90 118.894802 
L 648 118.894802 
" style="fill:none;stroke:#b0b0b0;stroke-linecap:square;stroke-width:0.8;"/>
     </g>
     <g id="line2d_32">
      <g>
       <use style="stroke:#000000;stroke-width:0.8;" x="90" xlink:href="#mbeda53fab8" y="118.894802"/>
      </g>
     </g>
     <g id="text_17">
      <!-- 30000 -->
      <g transform="translate(51.1875 122.694021)scale(0.1 -0.1)">
       <defs>
        <path d="M 40.578125 39.3125 
Q 47.65625 37.796875 51.625 33 
Q 55.609375 28.21875 55.609375 21.1875 
Q 55.609375 10.40625 48.1875 4.484375 
Q 40.765625 -1.421875 27.09375 -1.421875 
Q 22.515625 -1.421875 17.65625 -0.515625 
Q 12.796875 0.390625 7.625 2.203125 
L 7.625 11.71875 
Q 11.71875 9.328125 16.59375 8.109375 
Q 21.484375 6.890625 26.8125 6.890625 
Q 36.078125 6.890625 40.9375 10.546875 
Q 45.796875 14.203125 45.796875 21.1875 
Q 45.796875 27.640625 41.28125 31.265625 
Q 36.765625 34.90625 28.71875 34.90625 
L 20.21875 34.90625 
L 20.21875 43.015625 
L 29.109375 43.015625 
Q 36.375 43.015625 40.234375 45.921875 
Q 44.09375 48.828125 44.09375 54.296875 
Q 44.09375 59.90625 40.109375 62.90625 
Q 36.140625 65.921875 28.71875 65.921875 
Q 24.65625 65.921875 20.015625 65.03125 
Q 15.375 64.15625 9.8125 62.3125 
L 9.8125 71.09375 
Q 15.4375 72.65625 20.34375 73.4375 
Q 25.25 74.21875 29.59375 74.21875 
Q 40.828125 74.21875 47.359375 69.109375 
Q 53.90625 64.015625 53.90625 55.328125 
Q 53.90625 49.265625 50.4375 45.09375 
Q 46.96875 40.921875 40.578125 39.3125 
z
" id="DejaVuSans-51"/>
       </defs>
       <use xlink:href="#DejaVuSans-51"/>
       <use x="63.623047" xlink:href="#DejaVuSans-48"/>
       <use x="127.246094" xlink:href="#DejaVuSans-48"/>
       <use x="190.869141" xlink:href="#DejaVuSans-48"/>
       <use x="254.492188" xlink:href="#DejaVuSans-48"/>
      </g>
     </g>
    </g>
    <g id="text_18">
     <!-- Cumulative cases -->
     <g transform="translate(45.107812 402.425781)rotate(-90)scale(0.1 -0.1)">
      <defs>
       <path d="M 64.40625 67.28125 
L 64.40625 56.890625 
Q 59.421875 61.53125 53.78125 63.8125 
Q 48.140625 66.109375 41.796875 66.109375 
Q 29.296875 66.109375 22.65625 58.46875 
Q 16.015625 50.828125 16.015625 36.375 
Q 16.015625 21.96875 22.65625 14.328125 
Q 29.296875 6.6875 41.796875 6.6875 
Q 48.140625 6.6875 53.78125 8.984375 
Q 59.421875 11.28125 64.40625 15.921875 
L 64.40625 5.609375 
Q 59.234375 2.09375 53.4375 0.328125 
Q 47.65625 -1.421875 41.21875 -1.421875 
Q 24.65625 -1.421875 15.125 8.703125 
Q 5.609375 18.84375 5.609375 36.375 
Q 5.609375 53.953125 15.125 64.078125 
Q 24.65625 74.21875 41.21875 74.21875 
Q 47.75 74.21875 53.53125 72.484375 
Q 59.328125 70.75 64.40625 67.28125 
z
" id="DejaVuSans-67"/>
       <path d="M 8.5 21.578125 
L 8.5 54.6875 
L 17.484375 54.6875 
L 17.484375 21.921875 
Q 17.484375 14.15625 20.5 10.265625 
Q 23.53125 6.390625 29.59375 6.390625 
Q 36.859375 6.390625 41.078125 11.03125 
Q 45.3125 15.671875 45.3125 23.6875 
L 45.3125 54.6875 
L 54.296875 54.6875 
L 54.296875 0 
L 45.3125 0 
L 45.3125 8.40625 
Q 42.046875 3.421875 37.71875 1 
Q 33.40625 -1.421875 27.6875 -1.421875 
Q 18.265625 -1.421875 13.375 4.4375 
Q 8.5 10.296875 8.5 21.578125 
z
M 31.109375 56 
z
" id="DejaVuSans-117"/>
       <path d="M 52 44.1875 
Q 55.375 50.25 60.0625 53.125 
Q 64.75 56 71.09375 56 
Q 79.640625 56 84.28125 50.015625 
Q 88.921875 44.046875 88.921875 33.015625 
L 88.921875 0 
L 79.890625 0 
L 79.890625 32.71875 
Q 79.890625 40.578125 77.09375 44.375 
Q 74.3125 48.1875 68.609375 48.1875 
Q 61.625 48.1875 57.5625 43.546875 
Q 53.515625 38.921875 53.515625 30.90625 
L 53.515625 0 
L 44.484375 0 
L 44.484375 32.71875 
Q 44.484375 40.625 41.703125 44.40625 
Q 38.921875 48.1875 33.109375 48.1875 
Q 26.21875 48.1875 22.15625 43.53125 
Q 18.109375 38.875 18.109375 30.90625 
L 18.109375 0 
L 9.078125 0 
L 9.078125 54.6875 
L 18.109375 54.6875 
L 18.109375 46.1875 
Q 21.1875 51.21875 25.484375 53.609375 
Q 29.78125 56 35.6875 56 
Q 41.65625 56 45.828125 52.96875 
Q 50 49.953125 52 44.1875 
z
" id="DejaVuSans-109"/>
       <path d="M 9.421875 75.984375 
L 18.40625 75.984375 
L 18.40625 0 
L 9.421875 0 
z
" id="DejaVuSans-108"/>
       <path d="M 18.3125 70.21875 
L 18.3125 54.6875 
L 36.8125 54.6875 
L 36.8125 47.703125 
L 18.3125 47.703125 
L 18.3125 18.015625 
Q 18.3125 11.328125 20.140625 9.421875 
Q 21.96875 7.515625 27.59375 7.515625 
L 36.8125 7.515625 
L 36.8125 0 
L 27.59375 0 
Q 17.1875 0 13.234375 3.875 
Q 9.28125 7.765625 9.28125 18.015625 
L 9.28125 47.703125 
L 2.6875 47.703125 
L 2.6875 54.6875 
L 9.28125 54.6875 
L 9.28125 70.21875 
z
" id="DejaVuSans-116"/>
       <path d="M 9.421875 54.6875 
L 18.40625 54.6875 
L 18.40625 0 
L 9.421875 0 
z
M 9.421875 75.984375 
L 18.40625 75.984375 
L 18.40625 64.59375 
L 9.421875 64.59375 
z
" id="DejaVuSans-105"/>
       <path d="M 2.984375 54.6875 
L 12.5 54.6875 
L 29.59375 8.796875 
L 46.6875 54.6875 
L 56.203125 54.6875 
L 35.6875 0 
L 23.484375 0 
z
" id="DejaVuSans-118"/>
       <path d="M 56.203125 29.59375 
L 56.203125 25.203125 
L 14.890625 25.203125 
Q 15.484375 15.921875 20.484375 11.0625 
Q 25.484375 6.203125 34.421875 6.203125 
Q 39.59375 6.203125 44.453125 7.46875 
Q 49.3125 8.734375 54.109375 11.28125 
L 54.109375 2.78125 
Q 49.265625 0.734375 44.1875 -0.34375 
Q 39.109375 -1.421875 33.890625 -1.421875 
Q 20.796875 -1.421875 13.15625 6.1875 
Q 5.515625 13.8125 5.515625 26.8125 
Q 5.515625 40.234375 12.765625 48.109375 
Q 20.015625 56 32.328125 56 
Q 43.359375 56 49.78125 48.890625 
Q 56.203125 41.796875 56.203125 29.59375 
z
M 47.21875 32.234375 
Q 47.125 39.59375 43.09375 43.984375 
Q 39.0625 48.390625 32.421875 48.390625 
Q 24.90625 48.390625 20.390625 44.140625 
Q 15.875 39.890625 15.1875 32.171875 
z
" id="DejaVuSans-101"/>
       <path id="DejaVuSans-32"/>
       <path d="M 48.78125 52.59375 
L 48.78125 44.1875 
Q 44.96875 46.296875 41.140625 47.34375 
Q 37.3125 48.390625 33.40625 48.390625 
Q 24.65625 48.390625 19.8125 42.84375 
Q 14.984375 37.3125 14.984375 27.296875 
Q 14.984375 17.28125 19.8125 11.734375 
Q 24.65625 6.203125 33.40625 6.203125 
Q 37.3125 6.203125 41.140625 7.25 
Q 44.96875 8.296875 48.78125 10.40625 
L 48.78125 2.09375 
Q 45.015625 0.34375 40.984375 -0.53125 
Q 36.96875 -1.421875 32.421875 -1.421875 
Q 20.0625 -1.421875 12.78125 6.34375 
Q 5.515625 14.109375 5.515625 27.296875 
Q 5.515625 40.671875 12.859375 48.328125 
Q 20.21875 56 33.015625 56 
Q 37.15625 56 41.109375 55.140625 
Q 45.0625 54.296875 48.78125 52.59375 
z
" id="DejaVuSans-99"/>
      </defs>
      <use xlink:href="#DejaVuSans-67"/>
      <use x="69.824219" xlink:href="#DejaVuSans-117"/>
      <use x="133.203125" xlink:href="#DejaVuSans-109"/>
      <use x="230.615234" xlink:href="#DejaVuSans-117"/>
      <use x="293.994141" xlink:href="#DejaVuSans-108"/>
      <use x="321.777344" xlink:href="#DejaVuSans-97"/>
      <use x="383.056641" xlink:href="#DejaVuSans-116"/>
      <use x="422.265625" xlink:href="#DejaVuSans-105"/>
      <use x="450.048828" xlink:href="#DejaVuSans-118"/>
      <use x="509.228516" xlink:href="#DejaVuSans-101"/>
      <use x="570.751953" xlink:href="#DejaVuSans-32"/>
      <use x="602.539062" xlink:href="#DejaVuSans-99"/>
      <use x="657.519531" xlink:href="#DejaVuSans-97"/>
      <use x="718.798828" xlink:href="#DejaVuSans-115"/>
      <use x="770.898438" xlink:href="#DejaVuSans-101"/>
      <use x="832.421875" xlink:href="#DejaVuSans-115"/>
     </g>
    </g>
   </g>
   <g id="line2d_33">
    <path clip-path="url(#p1442f0a1e9)" d="M 115.363636 605.290909 
L 148.336364 605.013039 
L 171.163636 604.627531 
L 188.918182 604.128115 
L 204.136364 603.479305 
L 216.818182 602.711359 
L 226.963636 601.893455 
L 237.109091 600.838247 
L 244.718182 599.851308 
L 252.327273 598.658629 
L 259.936364 597.218769 
L 267.545455 595.482616 
L 272.618182 594.132373 
L 277.690909 592.605354 
L 282.763636 590.879892 
L 287.836364 588.932086 
L 292.909091 586.735689 
L 297.981818 584.262022 
L 303.054545 581.479949 
L 308.127273 578.3559 
L 313.2 574.85398 
L 318.272727 570.936189 
L 323.345455 566.562761 
L 328.418182 561.692665 
L 333.490909 556.284287 
L 338.563636 550.296316 
L 343.636364 543.688857 
L 348.709091 536.42477 
L 353.781818 528.471245 
L 358.854545 519.801565 
L 363.927273 510.397028 
L 369 500.248937 
L 374.072727 489.36055 
L 379.145455 477.748855 
L 384.218182 465.44602 
L 389.290909 452.500339 
L 394.363636 438.97653 
L 399.436364 424.955249 
L 407.045455 403.202417 
L 419.727273 365.968147 
L 429.872727 336.400871 
L 437.481818 314.982183 
L 442.554545 301.261747 
L 447.627273 288.09104 
L 452.7 275.54085 
L 457.772727 263.66563 
L 462.845455 252.503508 
L 467.918182 242.077013 
L 472.990909 232.394354 
L 478.063636 223.451089 
L 483.136364 215.232029 
L 488.209091 207.71323 
L 493.281818 200.863948 
L 498.354545 194.648469 
L 503.427273 189.027761 
L 508.5 183.9609 
L 513.572727 179.406271 
L 518.645455 175.322533 
L 523.718182 171.66938 
L 528.790909 168.408101 
L 533.863636 165.501982 
L 538.936364 162.916563 
L 544.009091 160.61979 
L 549.081818 158.582063 
L 554.154545 156.776233 
L 559.227273 155.177531 
L 564.3 153.763468 
L 571.909091 151.94465 
L 579.518182 150.435719 
L 587.127273 149.185472 
L 594.736364 148.150655 
L 604.881818 147.044014 
L 615.027273 146.186071 
L 622.636364 145.672112 
L 622.636364 145.672112 
" style="fill:none;stroke:#1f77b4;stroke-linecap:square;stroke-width:1.5;"/>
   </g>
   <g id="line2d_34">
    <path clip-path="url(#p1442f0a1e9)" d="M 115.363636 605.290909 
L 135.654545 604.613976 
L 150.872727 603.907139 
L 166.090909 602.967219 
L 178.772727 601.952119 
L 188.918182 600.949008 
L 199.063636 599.7388 
L 209.209091 598.28013 
L 216.818182 596.993917 
L 224.427273 595.516718 
L 232.036364 593.821649 
L 239.645455 591.878514 
L 247.254545 589.653556 
L 254.863636 587.109233 
L 259.936364 585.215271 
L 265.009091 583.147725 
L 270.081818 580.892513 
L 275.154545 578.434773 
L 280.227273 575.758893 
L 285.3 572.848563 
L 290.372727 569.686845 
L 295.445455 566.256273 
L 300.518182 562.538983 
L 305.590909 558.516868 
L 310.663636 554.171778 
L 315.736364 549.485754 
L 320.809091 544.441305 
L 325.881818 539.021726 
L 330.954545 533.211456 
L 336.027273 526.996477 
L 341.1 520.364744 
L 346.172727 513.306648 
L 351.245455 505.81549 
L 356.318182 497.887963 
L 361.390909 489.52462 
L 366.463636 480.730316 
L 371.536364 471.514591 
L 376.609091 461.89199 
L 381.681818 451.882281 
L 386.754545 441.510562 
L 394.363636 425.342112 
L 401.972727 408.55257 
L 412.118182 385.456845 
L 445.090909 309.539028 
L 452.7 292.879465 
L 460.309091 276.871495 
L 465.381818 266.620907 
L 470.454545 256.741549 
L 475.527273 247.256683 
L 480.6 238.184267 
L 485.672727 229.537098 
L 490.745455 221.323067 
L 495.818182 213.545505 
L 500.890909 206.203589 
L 505.963636 199.292793 
L 511.036364 192.805364 
L 516.109091 186.730804 
L 521.181818 181.056341 
L 526.254545 175.767379 
L 531.327273 170.847922 
L 536.4 166.280956 
L 541.472727 162.048795 
L 546.545455 158.133387 
L 551.618182 154.516572 
L 556.690909 151.180306 
L 561.763636 148.106844 
L 566.836364 145.278889 
L 571.909091 142.67971 
L 576.981818 140.293229 
L 582.054545 138.104087 
L 587.127273 136.097687 
L 592.2 134.260218 
L 599.809091 131.792513 
L 607.418182 129.635235 
L 615.027273 127.751728 
L 622.636364 126.109068 
L 622.636364 126.109068 
" style="fill:none;stroke:#ff7f0e;stroke-linecap:square;stroke-width:1.5;"/>
   </g>
   <g id="line2d_35">
    <path clip-path="url(#p1442f0a1e9)" d="M 115.363636 605.290909 
L 135.654545 604.659653 
L 150.872727 603.99421 
L 166.090909 603.102008 
L 178.772727 602.131244 
L 188.918182 601.166138 
L 199.063636 599.995535 
L 209.209091 598.577134 
L 216.818182 597.320776 
L 224.427273 595.872333 
L 232.036364 594.204013 
L 239.645455 592.284531 
L 247.254545 590.078834 
L 254.863636 587.547883 
L 259.936364 585.658732 
L 265.009091 583.592081 
L 270.081818 581.333271 
L 275.154545 578.86684 
L 280.227273 576.176565 
L 285.3 573.245528 
L 290.372727 570.056205 
L 295.445455 566.590582 
L 300.518182 562.830314 
L 305.590909 558.756906 
L 310.663636 554.351951 
L 315.736364 549.597396 
L 320.809091 544.475857 
L 325.881818 538.970977 
L 330.954545 533.067823 
L 336.027273 526.753317 
L 341.1 520.016701 
L 346.172727 512.850012 
L 351.245455 505.248565 
L 356.318182 497.211427 
L 361.390909 488.741853 
L 366.463636 479.847677 
L 371.536364 470.541622 
L 376.609091 460.84152 
L 381.681818 450.770411 
L 389.290909 435.031208 
L 396.9 418.637876 
L 404.509091 401.72877 
L 414.654545 378.653101 
L 437.481818 326.495107 
L 445.090909 309.637005 
L 452.7 293.29611 
L 460.309091 277.596845 
L 465.381818 267.538259 
L 470.454545 257.834611 
L 475.527273 248.505263 
L 480.6 239.564908 
L 485.672727 231.023772 
L 490.745455 222.887903 
L 495.818182 215.1595 
L 500.890909 207.837294 
L 505.963636 200.916946 
L 511.036364 194.39145 
L 516.109091 188.251537 
L 521.181818 182.486063 
L 526.254545 177.08237 
L 531.327273 172.026628 
L 536.4 167.30414 
L 541.472727 162.899617 
L 546.545455 158.797424 
L 551.618182 154.981782 
L 556.690909 151.436957 
L 561.763636 148.1474 
L 566.836364 145.097877 
L 571.909091 142.273566 
L 576.981818 139.660133 
L 582.054545 137.243795 
L 587.127273 135.011355 
L 592.2 132.950239 
L 599.809091 130.153851 
L 607.418182 127.678622 
L 615.027273 125.490155 
L 622.636364 123.557169 
L 622.636364 123.557169 
" style="fill:none;stroke:#2ca02c;stroke-linecap:square;stroke-width:1.5;"/>
   </g>
   <g id="line2d_36">
    <path clip-path="url(#p1442f0a1e9)" d="M 115.363636 605.290909 
L 135.654545 604.659652 
L 150.872727 603.994209 
L 166.090909 603.102006 
L 178.772727 602.131241 
L 188.918182 601.166135 
L 199.063636 599.995532 
L 209.209091 598.57713 
L 216.818182 597.320772 
L 224.427273 595.872327 
L 232.036364 594.204007 
L 239.645455 592.284524 
L 247.254545 590.078827 
L 254.863636 587.547875 
L 259.936364 585.658723 
L 265.009091 583.592072 
L 270.081818 581.333262 
L 275.154545 578.86683 
L 280.227273 576.176555 
L 285.3 573.245518 
L 290.372727 570.056194 
L 295.445455 566.590571 
L 300.518182 562.830302 
L 305.590909 558.756894 
L 310.663636 554.35194 
L 315.736364 549.597385 
L 320.809091 544.475846 
L 325.881818 538.970966 
L 330.954545 533.067811 
L 336.027273 526.753306 
L 341.1 520.016691 
L 346.172727 512.850002 
L 351.245455 505.248556 
L 356.318182 497.211419 
L 361.390909 488.741846 
L 366.463636 479.847671 
L 371.536364 470.541618 
L 376.609091 460.841517 
L 381.681818 450.77041 
L 389.290909 435.031209 
L 396.9 418.637879 
L 404.509091 401.728777 
L 414.654545 378.65311 
L 437.481818 326.495122 
L 445.090909 309.637021 
L 452.7 293.296127 
L 460.309091 277.596863 
L 465.381818 267.538276 
L 470.454545 257.834628 
L 475.527273 248.50528 
L 480.6 239.564924 
L 485.672727 231.023788 
L 490.745455 222.887918 
L 495.818182 215.159514 
L 500.890909 207.837307 
L 505.963636 200.916958 
L 511.036364 194.391461 
L 516.109091 188.251547 
L 521.181818 182.486072 
L 526.254545 177.082378 
L 531.327273 172.026635 
L 536.4 167.304145 
L 541.472727 162.899621 
L 546.545455 158.797427 
L 551.618182 154.981784 
L 556.690909 151.436958 
L 561.763636 148.1474 
L 566.836364 145.097876 
L 571.909091 142.273564 
L 576.981818 139.66013 
L 582.054545 137.243791 
L 587.127273 135.01135 
L 592.2 132.950234 
L 599.809091 130.153844 
L 607.418182 127.678614 
L 615.027273 125.490147 
L 622.636364 123.557159 
L 622.636364 123.557159 
" style="fill:none;stroke:#d62728;stroke-linecap:square;stroke-width:1.5;"/>
   </g>
   <g id="line2d_37">
    <path clip-path="url(#p1442f0a1e9)" d="M 115.363636 605.290909 
L 125.509091 605.088628 
L 143.263636 604.49663 
L 158.481818 603.79555 
L 171.163636 603.029031 
L 183.845455 602.047712 
L 193.990909 601.06892 
L 204.136364 599.878221 
L 214.281818 598.431198 
L 221.890909 597.146183 
L 229.5 595.661392 
L 237.109091 593.947381 
L 244.718182 591.970911 
L 252.327273 589.694645 
L 257.4 587.990177 
L 262.472727 586.120555 
L 267.545455 584.071393 
L 272.618182 581.827385 
L 277.690909 579.372325 
L 282.763636 576.689138 
L 287.836364 573.759933 
L 292.909091 570.566089 
L 297.981818 567.088367 
L 303.054545 563.307061 
L 308.127273 559.202191 
L 313.2 554.753733 
L 318.272727 549.941909 
L 323.345455 544.747512 
L 328.418182 539.1523 
L 333.490909 533.139422 
L 338.563636 526.693904 
L 343.636364 519.803166 
L 348.709091 512.457572 
L 353.781818 504.650992 
L 358.854545 496.381365 
L 363.927273 487.651231 
L 369 478.468219 
L 374.072727 468.845454 
L 379.145455 458.801865 
L 384.218182 448.362353 
L 391.827273 432.029922 
L 399.436364 415.006106 
L 407.045455 397.445894 
L 419.727273 367.472987 
L 434.945455 331.449718 
L 442.554545 313.868236 
L 450.163636 296.811213 
L 457.772727 280.431251 
L 462.845455 269.950926 
L 467.918182 259.858513 
L 472.990909 250.178447 
L 478.063636 240.929352 
L 483.136364 232.124235 
L 488.209091 223.770799 
L 493.281818 215.871848 
L 498.354545 208.425763 
L 503.427273 201.427014 
L 508.5 194.866698 
L 513.572727 188.733073 
L 518.645455 183.012074 
L 523.718182 177.687808 
L 528.790909 172.743 
L 533.863636 168.15941 
L 538.936364 163.918191 
L 544.009091 160.000208 
L 549.081818 156.386305 
L 554.154545 153.057532 
L 559.227273 149.99533 
L 564.3 147.181677 
L 569.372727 144.599199 
L 574.445455 142.231258 
L 579.518182 140.062009 
L 584.590909 138.076438 
L 589.663636 136.260378 
L 597.272727 133.825229 
L 604.881818 131.70034 
L 612.490909 129.848449 
L 620.1 128.236204 
L 622.636364 127.746809 
L 622.636364 127.746809 
" style="fill:none;stroke:#9467bd;stroke-linecap:square;stroke-width:1.5;"/>
   </g>
   <g id="line2d_38">
    <path clip-path="url(#p1442f0a1e9)" d="M 115.363636 605.290909 
L 125.509091 605.084981 
L 143.263636 604.470049 
L 158.481818 603.729759 
L 171.163636 602.913984 
L 183.845455 601.865865 
L 193.990909 600.819391 
L 204.136364 599.547046 
L 214.281818 598.003317 
L 221.890909 596.635342 
L 229.5 595.058356 
L 237.109091 593.24281 
L 244.718182 591.155559 
L 252.327273 588.75962 
L 257.4 586.970746 
L 262.472727 585.013353 
L 267.545455 582.873438 
L 272.618182 580.536179 
L 277.690909 577.985963 
L 282.763636 575.206428 
L 287.836364 572.180526 
L 292.909091 568.890616 
L 297.981818 565.318582 
L 303.054545 561.445988 
L 308.127273 557.254266 
L 313.2 552.724945 
L 318.272727 547.839925 
L 323.345455 542.581789 
L 328.418182 536.934161 
L 333.490909 530.882106 
L 338.563636 524.412568 
L 343.636364 517.514832 
L 348.709091 510.181015 
L 353.781818 502.40656 
L 358.854545 494.19072 
L 363.927273 485.53702 
L 369 476.453664 
L 374.072727 466.953879 
L 379.145455 457.056156 
L 384.218182 446.784386 
L 391.827273 430.74088 
L 399.436364 414.043469 
L 407.045455 396.83643 
L 419.727273 367.475962 
L 437.481818 326.340239 
L 445.090909 309.197166 
L 452.7 292.581562 
L 460.309091 276.63103 
L 465.381818 266.423864 
L 470.454545 256.59033 
L 475.527273 247.152271 
L 480.6 238.126306 
L 485.672727 229.524018 
L 490.745455 221.352231 
L 495.818182 213.613376 
L 500.890909 206.305905 
L 505.963636 199.424745 
L 511.036364 192.961768 
L 516.109091 186.906255 
L 521.181818 181.245359 
L 526.254545 175.964533 
L 531.327273 171.047934 
L 536.4 166.478785 
L 541.472727 162.239708 
L 546.545455 158.313001 
L 551.618182 154.68089 
L 556.690909 151.325734 
L 561.763636 148.230199 
L 566.836364 145.377395 
L 571.909091 142.750984 
L 576.981818 140.335265 
L 582.054545 138.115235 
L 587.127273 136.076625 
L 592.2 134.205927 
L 599.809091 131.687058 
L 607.418182 129.47774 
L 615.027273 127.541984 
L 622.636364 125.847411 
L 622.636364 125.847411 
" style="fill:none;stroke:#8c564b;stroke-linecap:square;stroke-width:1.5;"/>
   </g>
   <g id="line2d_39">
    <path clip-path="url(#p1442f0a1e9)" d="M 115.363636 605.290909 
L 125.509091 605.15825 
L 143.263636 604.691377 
L 161.018182 604.007317 
L 176.236364 603.184618 
L 188.918182 602.272543 
L 199.063636 601.351758 
L 209.209091 600.219439 
L 219.354545 598.828433 
L 226.963636 597.581582 
L 234.572727 596.129281 
L 242.181818 594.439356 
L 249.790909 592.475195 
L 257.4 590.195358 
L 262.472727 588.477292 
L 267.545455 586.583169 
L 272.618182 584.496744 
L 277.690909 582.200666 
L 282.763636 579.6765 
L 287.836364 576.90476 
L 292.909091 573.864983 
L 297.981818 570.535832 
L 303.054545 566.895248 
L 308.127273 562.920641 
L 313.2 558.589146 
L 318.272727 553.877932 
L 323.345455 548.764581 
L 328.418182 543.227524 
L 333.490909 537.246559 
L 338.563636 530.803421 
L 343.636364 523.882413 
L 348.709091 516.471084 
L 353.781818 508.560928 
L 358.854545 500.148096 
L 363.927273 491.234073 
L 369 481.826303 
L 374.072727 471.938723 
L 379.145455 461.59215 
L 384.218182 450.814515 
L 389.290909 439.640882 
L 396.9 422.231574 
L 404.509091 404.195578 
L 414.654545 379.512964 
L 434.945455 329.909965 
L 442.554545 311.892225 
L 450.163636 294.497916 
L 455.236364 283.328237 
L 460.309091 272.546653 
L 465.381818 262.185729 
L 470.454545 252.271159 
L 475.527273 242.821898 
L 480.6 233.850463 
L 485.672727 225.363371 
L 490.745455 217.361681 
L 495.818182 209.8416 
L 500.890909 202.795131 
L 505.963636 196.210722 
L 511.036364 190.073902 
L 516.109091 184.367891 
L 521.181818 179.074154 
L 526.254545 174.172911 
L 531.327273 169.643582 
L 536.4 165.465175 
L 541.472727 161.616617 
L 546.545455 158.077029 
L 551.618182 154.825945 
L 556.690909 151.843494 
L 561.763636 149.11053 
L 566.836364 146.608734 
L 571.909091 144.320681 
L 576.981818 142.229883 
L 582.054545 140.32081 
L 587.127273 138.578895 
L 594.736364 136.249905 
L 602.345455 134.224519 
L 609.954545 132.465119 
L 617.563636 130.938247 
L 622.636364 130.034736 
L 622.636364 130.034736 
" style="fill:none;stroke:#e377c2;stroke-linecap:square;stroke-width:1.5;"/>
   </g>
   <g id="line2d_40">
    <path clip-path="url(#p1442f0a1e9)" d="M 115.363636 605.290909 
L 130.581818 605.15615 
L 148.336364 604.773561 
L 163.554545 604.243264 
L 176.236364 603.610364 
L 188.918182 602.747691 
L 199.063636 601.846281 
L 209.209091 600.709701 
L 216.818182 599.670994 
L 224.427273 598.443254 
L 232.036364 596.995794 
L 239.645455 595.293562 
L 247.254545 593.296744 
L 252.327273 591.779915 
L 257.4 590.09769 
L 262.472727 588.234377 
L 267.545455 586.173211 
L 272.618182 583.896372 
L 277.690909 581.385043 
L 282.763636 578.619483 
L 287.836364 575.579153 
L 292.909091 572.242875 
L 297.981818 568.589045 
L 303.054545 564.595905 
L 308.127273 560.241865 
L 313.2 555.505887 
L 318.272727 550.367938 
L 323.345455 544.809482 
L 328.418182 538.81404 
L 333.490909 532.36777 
L 338.563636 525.460078 
L 343.636364 518.084223 
L 348.709091 510.237896 
L 353.781818 501.923742 
L 358.854545 493.149802 
L 363.927273 483.929829 
L 369 474.283465 
L 374.072727 464.236256 
L 379.145455 453.819475 
L 386.754545 437.582861 
L 394.363636 420.741639 
L 404.509091 397.628169 
L 432.409091 333.39583 
L 440.018182 316.485633 
L 447.627273 300.103521 
L 455.236364 284.356865 
L 460.309091 274.254729 
L 465.381818 264.492357 
L 470.454545 255.084816 
L 475.527273 246.043118 
L 480.6 237.374505 
L 485.672727 229.082789 
L 490.745455 221.168695 
L 495.818182 213.630219 
L 500.890909 206.462985 
L 505.963636 199.660582 
L 511.036364 193.214891 
L 516.109091 187.116388 
L 521.181818 181.354417 
L 526.254545 175.917446 
L 531.327273 170.793291 
L 536.4 165.969311 
L 541.472727 161.432589 
L 546.545455 157.170072 
L 551.618182 153.16871 
L 556.690909 149.415556 
L 561.763636 145.897857 
L 566.836364 142.603131 
L 571.909091 139.519223 
L 576.981818 136.63435 
L 582.054545 133.937139 
L 587.127273 131.416652 
L 594.736364 127.94446 
L 602.345455 124.81296 
L 609.954545 121.99106 
L 617.563636 119.449998 
L 622.636364 117.898802 
L 622.636364 117.898802 
" style="fill:none;stroke:#7f7f7f;stroke-linecap:square;stroke-width:1.5;"/>
   </g>
   <g id="line2d_41">
    <path clip-path="url(#p1442f0a1e9)" d="M 115.363636 605.290909 
L 133.118182 605.174396 
L 150.872727 604.839155 
L 166.090909 604.34642 
L 178.772727 603.744541 
L 191.454545 602.913319 
L 201.6 602.037004 
L 211.745455 600.924604 
L 219.354545 599.902668 
L 226.963636 598.689719 
L 234.572727 597.254139 
L 242.181818 595.559738 
L 249.790909 593.565353 
L 254.863636 592.046381 
L 259.936364 590.358407 
L 265.009091 588.485191 
L 270.081818 586.409394 
L 275.154545 584.11261 
L 280.227273 581.575436 
L 285.3 578.777569 
L 290.372727 575.697958 
L 295.445455 572.314994 
L 300.518182 568.606766 
L 305.590909 564.551372 
L 310.663636 560.127294 
L 315.736364 555.313834 
L 320.809091 550.091622 
L 325.881818 544.443163 
L 330.954545 538.35344 
L 336.027273 531.81054 
L 341.1 524.806276 
L 346.172727 517.3368 
L 351.245455 509.403153 
L 356.318182 501.011732 
L 361.390909 492.174632 
L 366.463636 482.909851 
L 371.536364 473.241298 
L 376.609091 463.198635 
L 384.218182 447.511158 
L 391.827273 431.1997 
L 401.972727 408.752297 
L 434.945455 334.849639 
L 442.554545 318.502953 
L 450.163636 302.682713 
L 457.772727 287.474612 
L 465.381818 272.943117 
L 470.454545 263.654163 
L 475.527273 254.694914 
L 480.6 246.070953 
L 485.672727 237.785012 
L 490.745455 229.837305 
L 495.818182 222.225855 
L 500.890909 214.946803 
L 505.963636 207.994707 
L 511.036364 201.362802 
L 516.109091 195.043251 
L 521.181818 189.027362 
L 526.254545 183.305785 
L 531.327273 177.868677 
L 536.4 172.705858 
L 541.472727 167.806934 
L 546.545455 163.16141 
L 551.618182 158.758777 
L 556.690909 154.588596 
L 561.763636 150.640558 
L 566.836364 146.904537 
L 571.909091 143.370631 
L 576.981818 140.029197 
L 582.054545 136.870875 
L 589.663636 132.457003 
L 597.272727 128.405607 
L 604.881818 124.689116 
L 612.490909 121.281634 
L 620.1 118.158926 
L 622.636364 117.177352 
L 622.636364 117.177352 
" style="fill:none;stroke:#bcbd22;stroke-linecap:square;stroke-width:1.5;"/>
   </g>
   <g id="line2d_42">
    <path clip-path="url(#p1442f0a1e9)" d="M 115.363636 605.290909 
L 125.509091 604.982725 
L 128.045455 604.982725 
L 138.190909 604.496118 
L 143.263636 604.236594 
L 150.872727 603.604005 
L 155.945455 603.474243 
L 163.554545 602.922755 
L 166.090909 602.841654 
L 186.381818 601.057428 
L 188.918182 601.057428 
L 196.527273 599.905792 
L 199.063636 599.386745 
L 201.6 599.09478 
L 204.136364 598.624394 
L 206.672727 598.267548 
L 209.209091 597.553858 
L 211.745455 596.499543 
L 214.281818 595.980496 
L 216.818182 595.234365 
L 219.354545 594.228711 
L 224.427273 592.78511 
L 226.963636 591.081986 
L 229.5 589.96279 
L 234.572727 588.681391 
L 237.109091 587.464874 
L 239.645455 585.875291 
L 242.181818 584.983178 
L 247.254545 582.582584 
L 249.790909 581.203864 
L 254.863636 578.900591 
L 257.4 577.521871 
L 262.472727 574.440027 
L 265.009091 573.337051 
L 267.545455 572.380058 
L 270.081818 571.293302 
L 275.154545 568.552083 
L 280.227273 564.675447 
L 292.909091 559.29033 
L 305.590909 552.396731 
L 308.127273 550.790928 
L 310.663636 549.039143 
L 315.736364 545.162508 
L 318.272727 543.443163 
L 320.809091 541.577837 
L 323.345455 539.550307 
L 330.954545 532.916232 
L 333.490909 530.466977 
L 336.027273 527.514895 
L 338.563636 524.838557 
L 343.636364 518.950612 
L 346.172727 516.01475 
L 351.245455 509.250914 
L 353.781818 505.374278 
L 356.318182 501.075916 
L 358.854545 496.242287 
L 363.927273 487.629344 
L 366.463636 483.736488 
L 369 479.357025 
L 371.536364 475.301967 
L 374.072727 470.760302 
L 376.609091 466.559262 
L 379.145455 462.050037 
L 381.681818 457.216408 
L 384.218182 453.17757 
L 386.754545 448.587245 
L 389.290909 443.656294 
L 391.827273 438.384718 
L 394.363636 432.837399 
L 396.9 427.776687 
L 399.436364 423.721628 
L 401.972727 418.839339 
L 404.509091 413.3569 
L 409.581818 401.418809 
L 414.654545 388.523724 
L 427.336364 354.964064 
L 434.945455 335.726868 
L 437.481818 328.946811 
L 445.090909 309.287889 
L 450.163636 295.273609 
L 455.236364 281.453971 
L 460.309091 266.953083 
L 462.845455 260.513651 
L 465.381818 254.431064 
L 467.918182 248.770203 
L 470.454545 243.563508 
L 475.527273 233.863809 
L 480.6 224.942681 
L 485.672727 216.800125 
L 488.209091 212.97215 
L 490.745455 209.403699 
L 493.281818 206.127212 
L 495.818182 203.061588 
L 498.354545 200.223047 
L 500.890909 197.725132 
L 503.427273 195.389418 
L 505.963636 193.264568 
L 508.5 191.285699 
L 513.572727 188.171415 
L 523.718182 182.169929 
L 531.327273 177.076776 
L 536.4 174.011152 
L 541.472727 171.237492 
L 554.154545 164.911602 
L 556.690909 163.516662 
L 559.227273 161.943299 
L 561.763636 160.61324 
L 564.3 158.585711 
L 566.836364 154.611754 
L 569.372727 152.081398 
L 571.909091 152.081398 
L 574.445455 148.075 
L 576.981818 144.603871 
L 579.518182 144.603871 
L 582.054545 141.116521 
L 587.127273 135.423219 
L 592.2 132.276494 
L 594.736364 132.276494 
L 597.272727 129.308192 
L 604.881818 124.831407 
L 612.490909 119.689594 
L 615.027273 119.689594 
L 617.563636 115.715637 
L 620.1 115.715637 
L 622.636364 111.109091 
L 622.636364 111.109091 
" style="fill:none;stroke:#17becf;stroke-dasharray:14.8,6.4;stroke-dashoffset:0;stroke-width:4;"/>
   </g>
   <g id="patch_3">
    <path d="M 90 630 
L 90 86.4 
" style="fill:none;stroke:#000000;stroke-linecap:square;stroke-linejoin:miter;stroke-width:0.8;"/>
   </g>
   <g id="patch_4">
    <path d="M 648 630 
L 648 86.4 
" style="fill:none;stroke:#000000;stroke-linecap:square;stroke-linejoin:miter;stroke-width:0.8;"/>
   </g>
   <g id="patch_5">
    <path d="M 90 630 
L 648 630 
" style="fill:none;stroke:#000000;stroke-linecap:square;stroke-linejoin:miter;stroke-width:0.8;"/>
   </g>
   <g id="patch_6">
    <path d="M 90 86.4 
L 648 86.4 
" style="fill:none;stroke:#000000;stroke-linecap:square;stroke-linejoin:miter;stroke-width:0.8;"/>
   </g>
   <g id="text_19">
    <!-- El Salvador relative err =  -->
    <g transform="translate(291.5025 80.4)scale(0.12 -0.12)">
     <defs>
      <path d="M 9.8125 72.90625 
L 55.90625 72.90625 
L 55.90625 64.59375 
L 19.671875 64.59375 
L 19.671875 43.015625 
L 54.390625 43.015625 
L 54.390625 34.71875 
L 19.671875 34.71875 
L 19.671875 8.296875 
L 56.78125 8.296875 
L 56.78125 0 
L 9.8125 0 
z
" id="DejaVuSans-69"/>
      <path d="M 53.515625 70.515625 
L 53.515625 60.890625 
Q 47.90625 63.578125 42.921875 64.890625 
Q 37.9375 66.21875 33.296875 66.21875 
Q 25.25 66.21875 20.875 63.09375 
Q 16.5 59.96875 16.5 54.203125 
Q 16.5 49.359375 19.40625 46.890625 
Q 22.3125 44.4375 30.421875 42.921875 
L 36.375 41.703125 
Q 47.40625 39.59375 52.65625 34.296875 
Q 57.90625 29 57.90625 20.125 
Q 57.90625 9.515625 50.796875 4.046875 
Q 43.703125 -1.421875 29.984375 -1.421875 
Q 24.8125 -1.421875 18.96875 -0.25 
Q 13.140625 0.921875 6.890625 3.21875 
L 6.890625 13.375 
Q 12.890625 10.015625 18.65625 8.296875 
Q 24.421875 6.59375 29.984375 6.59375 
Q 38.421875 6.59375 43.015625 9.90625 
Q 47.609375 13.234375 47.609375 19.390625 
Q 47.609375 24.75 44.3125 27.78125 
Q 41.015625 30.8125 33.5 32.328125 
L 27.484375 33.5 
Q 16.453125 35.6875 11.515625 40.375 
Q 6.59375 45.0625 6.59375 53.421875 
Q 6.59375 63.09375 13.40625 68.65625 
Q 20.21875 74.21875 32.171875 74.21875 
Q 37.3125 74.21875 42.625 73.28125 
Q 47.953125 72.359375 53.515625 70.515625 
z
" id="DejaVuSans-83"/>
      <path d="M 45.40625 46.390625 
L 45.40625 75.984375 
L 54.390625 75.984375 
L 54.390625 0 
L 45.40625 0 
L 45.40625 8.203125 
Q 42.578125 3.328125 38.25 0.953125 
Q 33.9375 -1.421875 27.875 -1.421875 
Q 17.96875 -1.421875 11.734375 6.484375 
Q 5.515625 14.40625 5.515625 27.296875 
Q 5.515625 40.1875 11.734375 48.09375 
Q 17.96875 56 27.875 56 
Q 33.9375 56 38.25 53.625 
Q 42.578125 51.265625 45.40625 46.390625 
z
M 14.796875 27.296875 
Q 14.796875 17.390625 18.875 11.75 
Q 22.953125 6.109375 30.078125 6.109375 
Q 37.203125 6.109375 41.296875 11.75 
Q 45.40625 17.390625 45.40625 27.296875 
Q 45.40625 37.203125 41.296875 42.84375 
Q 37.203125 48.484375 30.078125 48.484375 
Q 22.953125 48.484375 18.875 42.84375 
Q 14.796875 37.203125 14.796875 27.296875 
z
" id="DejaVuSans-100"/>
      <path d="M 30.609375 48.390625 
Q 23.390625 48.390625 19.1875 42.75 
Q 14.984375 37.109375 14.984375 27.296875 
Q 14.984375 17.484375 19.15625 11.84375 
Q 23.34375 6.203125 30.609375 6.203125 
Q 37.796875 6.203125 41.984375 11.859375 
Q 46.1875 17.53125 46.1875 27.296875 
Q 46.1875 37.015625 41.984375 42.703125 
Q 37.796875 48.390625 30.609375 48.390625 
z
M 30.609375 56 
Q 42.328125 56 49.015625 48.375 
Q 55.71875 40.765625 55.71875 27.296875 
Q 55.71875 13.875 49.015625 6.21875 
Q 42.328125 -1.421875 30.609375 -1.421875 
Q 18.84375 -1.421875 12.171875 6.21875 
Q 5.515625 13.875 5.515625 27.296875 
Q 5.515625 40.765625 12.171875 48.375 
Q 18.84375 56 30.609375 56 
z
" id="DejaVuSans-111"/>
      <path d="M 41.109375 46.296875 
Q 39.59375 47.171875 37.8125 47.578125 
Q 36.03125 48 33.890625 48 
Q 26.265625 48 22.1875 43.046875 
Q 18.109375 38.09375 18.109375 28.8125 
L 18.109375 0 
L 9.078125 0 
L 9.078125 54.6875 
L 18.109375 54.6875 
L 18.109375 46.1875 
Q 20.953125 51.171875 25.484375 53.578125 
Q 30.03125 56 36.53125 56 
Q 37.453125 56 38.578125 55.875 
Q 39.703125 55.765625 41.0625 55.515625 
z
" id="DejaVuSans-114"/>
      <path d="M 10.59375 45.40625 
L 73.1875 45.40625 
L 73.1875 37.203125 
L 10.59375 37.203125 
z
M 10.59375 25.484375 
L 73.1875 25.484375 
L 73.1875 17.1875 
L 10.59375 17.1875 
z
" id="DejaVuSans-61"/>
     </defs>
     <use xlink:href="#DejaVuSans-69"/>
     <use x="63.183594" xlink:href="#DejaVuSans-108"/>
     <use x="90.966797" xlink:href="#DejaVuSans-32"/>
     <use x="122.753906" xlink:href="#DejaVuSans-83"/>
     <use x="186.230469" xlink:href="#DejaVuSans-97"/>
     <use x="247.509766" xlink:href="#DejaVuSans-108"/>
     <use x="275.292969" xlink:href="#DejaVuSans-118"/>
     <use x="334.472656" xlink:href="#DejaVuSans-97"/>
     <use x="395.751953" xlink:href="#DejaVuSans-100"/>
     <use x="459.228516" xlink:href="#DejaVuSans-111"/>
     <use x="520.410156" xlink:href="#DejaVuSans-114"/>
     <use x="561.523438" xlink:href="#DejaVuSans-32"/>
     <use x="593.310547" xlink:href="#DejaVuSans-114"/>
     <use x="632.173828" xlink:href="#DejaVuSans-101"/>
     <use x="693.697266" xlink:href="#DejaVuSans-108"/>
     <use x="721.480469" xlink:href="#DejaVuSans-97"/>
     <use x="782.759766" xlink:href="#DejaVuSans-116"/>
     <use x="821.96875" xlink:href="#DejaVuSans-105"/>
     <use x="849.751953" xlink:href="#DejaVuSans-118"/>
     <use x="908.931641" xlink:href="#DejaVuSans-101"/>
     <use x="970.455078" xlink:href="#DejaVuSans-32"/>
     <use x="1002.242188" xlink:href="#DejaVuSans-101"/>
     <use x="1063.765625" xlink:href="#DejaVuSans-114"/>
     <use x="1103.128906" xlink:href="#DejaVuSans-114"/>
     <use x="1144.242188" xlink:href="#DejaVuSans-32"/>
     <use x="1176.029297" xlink:href="#DejaVuSans-61"/>
     <use x="1259.818359" xlink:href="#DejaVuSans-32"/>
    </g>
   </g>
   <g id="legend_1">
    <g id="patch_7">
     <path d="M 97 226.503125 
L 185.6 226.503125 
Q 187.6 226.503125 187.6 224.503125 
L 187.6 93.4 
Q 187.6 91.4 185.6 91.4 
L 97 91.4 
Q 95 91.4 95 93.4 
L 95 224.503125 
Q 95 226.503125 97 226.503125 
z
" style="fill:#ffffff;opacity:0.8;stroke:#cccccc;stroke-linejoin:miter;"/>
    </g>
    <g id="line2d_43">
     <path d="M 99 99.498438 
L 119 99.498438 
" style="fill:none;stroke:#1f77b4;stroke-linecap:square;stroke-width:1.5;"/>
    </g>
    <g id="line2d_44"/>
    <g id="text_20">
     <!-- SI -->
     <g transform="translate(127 102.998438)scale(0.1 -0.1)">
      <defs>
       <path d="M 9.8125 72.90625 
L 19.671875 72.90625 
L 19.671875 0 
L 9.8125 0 
z
" id="DejaVuSans-73"/>
      </defs>
      <use xlink:href="#DejaVuSans-83"/>
      <use x="63.476562" xlink:href="#DejaVuSans-73"/>
     </g>
    </g>
    <g id="line2d_45">
     <path d="M 99 114.176563 
L 119 114.176563 
" style="fill:none;stroke:#ff7f0e;stroke-linecap:square;stroke-width:1.5;"/>
    </g>
    <g id="line2d_46"/>
    <g id="text_21">
     <!-- BD -->
     <g transform="translate(127 117.676563)scale(0.1 -0.1)">
      <defs>
       <path d="M 19.671875 34.8125 
L 19.671875 8.109375 
L 35.5 8.109375 
Q 43.453125 8.109375 47.28125 11.40625 
Q 51.125 14.703125 51.125 21.484375 
Q 51.125 28.328125 47.28125 31.5625 
Q 43.453125 34.8125 35.5 34.8125 
z
M 19.671875 64.796875 
L 19.671875 42.828125 
L 34.28125 42.828125 
Q 41.5 42.828125 45.03125 45.53125 
Q 48.578125 48.25 48.578125 53.8125 
Q 48.578125 59.328125 45.03125 62.0625 
Q 41.5 64.796875 34.28125 64.796875 
z
M 9.8125 72.90625 
L 35.015625 72.90625 
Q 46.296875 72.90625 52.390625 68.21875 
Q 58.5 63.53125 58.5 54.890625 
Q 58.5 48.1875 55.375 44.234375 
Q 52.25 40.28125 46.1875 39.3125 
Q 53.46875 37.75 57.5 32.78125 
Q 61.53125 27.828125 61.53125 20.40625 
Q 61.53125 10.640625 54.890625 5.3125 
Q 48.25 0 35.984375 0 
L 9.8125 0 
z
" id="DejaVuSans-66"/>
      </defs>
      <use xlink:href="#DejaVuSans-66"/>
      <use x="68.603516" xlink:href="#DejaVuSans-68"/>
     </g>
    </g>
    <g id="line2d_47">
     <path d="M 99 128.854688 
L 119 128.854688 
" style="fill:none;stroke:#2ca02c;stroke-linecap:square;stroke-width:1.5;"/>
    </g>
    <g id="line2d_48"/>
    <g id="text_22">
     <!-- SIR -->
     <g transform="translate(127 132.354688)scale(0.1 -0.1)">
      <defs>
       <path d="M 44.390625 34.1875 
Q 47.5625 33.109375 50.5625 29.59375 
Q 53.5625 26.078125 56.59375 19.921875 
L 66.609375 0 
L 56 0 
L 46.6875 18.703125 
Q 43.0625 26.03125 39.671875 28.421875 
Q 36.28125 30.8125 30.421875 30.8125 
L 19.671875 30.8125 
L 19.671875 0 
L 9.8125 0 
L 9.8125 72.90625 
L 32.078125 72.90625 
Q 44.578125 72.90625 50.734375 67.671875 
Q 56.890625 62.453125 56.890625 51.90625 
Q 56.890625 45.015625 53.6875 40.46875 
Q 50.484375 35.9375 44.390625 34.1875 
z
M 19.671875 64.796875 
L 19.671875 38.921875 
L 32.078125 38.921875 
Q 39.203125 38.921875 42.84375 42.21875 
Q 46.484375 45.515625 46.484375 51.90625 
Q 46.484375 58.296875 42.84375 61.546875 
Q 39.203125 64.796875 32.078125 64.796875 
z
" id="DejaVuSans-82"/>
      </defs>
      <use xlink:href="#DejaVuSans-83"/>
      <use x="63.476562" xlink:href="#DejaVuSans-73"/>
      <use x="92.96875" xlink:href="#DejaVuSans-82"/>
     </g>
    </g>
    <g id="line2d_49">
     <path d="M 99 143.532812 
L 119 143.532812 
" style="fill:none;stroke:#d62728;stroke-linecap:square;stroke-width:1.5;"/>
    </g>
    <g id="line2d_50"/>
    <g id="text_23">
     <!-- eSIR -->
     <g transform="translate(127 147.032812)scale(0.1 -0.1)">
      <use xlink:href="#DejaVuSans-101"/>
      <use x="61.523438" xlink:href="#DejaVuSans-83"/>
      <use x="125" xlink:href="#DejaVuSans-73"/>
      <use x="154.492188" xlink:href="#DejaVuSans-82"/>
     </g>
    </g>
    <g id="line2d_51">
     <path d="M 99 158.210938 
L 119 158.210938 
" style="fill:none;stroke:#9467bd;stroke-linecap:square;stroke-width:1.5;"/>
    </g>
    <g id="line2d_52"/>
    <g id="text_24">
     <!-- SEIR -->
     <g transform="translate(127 161.710938)scale(0.1 -0.1)">
      <use xlink:href="#DejaVuSans-83"/>
      <use x="63.476562" xlink:href="#DejaVuSans-69"/>
      <use x="126.660156" xlink:href="#DejaVuSans-73"/>
      <use x="156.152344" xlink:href="#DejaVuSans-82"/>
     </g>
    </g>
    <g id="line2d_53">
     <path d="M 99 172.889063 
L 119 172.889063 
" style="fill:none;stroke:#8c564b;stroke-linecap:square;stroke-width:1.5;"/>
    </g>
    <g id="line2d_54"/>
    <g id="text_25">
     <!-- eSEIR -->
     <g transform="translate(127 176.389063)scale(0.1 -0.1)">
      <use xlink:href="#DejaVuSans-101"/>
      <use x="61.523438" xlink:href="#DejaVuSans-83"/>
      <use x="125" xlink:href="#DejaVuSans-69"/>
      <use x="188.183594" xlink:href="#DejaVuSans-73"/>
      <use x="217.675781" xlink:href="#DejaVuSans-82"/>
     </g>
    </g>
    <g id="line2d_55">
     <path d="M 99 187.567188 
L 119 187.567188 
" style="fill:none;stroke:#e377c2;stroke-linecap:square;stroke-width:1.5;"/>
    </g>
    <g id="line2d_56"/>
    <g id="text_26">
     <!-- SEIUR -->
     <g transform="translate(127 191.067188)scale(0.1 -0.1)">
      <defs>
       <path d="M 8.6875 72.90625 
L 18.609375 72.90625 
L 18.609375 28.609375 
Q 18.609375 16.890625 22.84375 11.734375 
Q 27.09375 6.59375 36.625 6.59375 
Q 46.09375 6.59375 50.34375 11.734375 
Q 54.59375 16.890625 54.59375 28.609375 
L 54.59375 72.90625 
L 64.5 72.90625 
L 64.5 27.390625 
Q 64.5 13.140625 57.4375 5.859375 
Q 50.390625 -1.421875 36.625 -1.421875 
Q 22.796875 -1.421875 15.734375 5.859375 
Q 8.6875 13.140625 8.6875 27.390625 
z
" id="DejaVuSans-85"/>
      </defs>
      <use xlink:href="#DejaVuSans-83"/>
      <use x="63.476562" xlink:href="#DejaVuSans-69"/>
      <use x="126.660156" xlink:href="#DejaVuSans-73"/>
      <use x="156.152344" xlink:href="#DejaVuSans-85"/>
      <use x="229.345703" xlink:href="#DejaVuSans-82"/>
     </g>
    </g>
    <g id="line2d_57">
     <path d="M 99 202.245312 
L 119 202.245312 
" style="fill:none;stroke:#7f7f7f;stroke-linecap:square;stroke-width:1.5;"/>
    </g>
    <g id="line2d_58"/>
    <g id="text_27">
     <!-- eSEIUR -->
     <g transform="translate(127 205.745312)scale(0.1 -0.1)">
      <use xlink:href="#DejaVuSans-101"/>
      <use x="61.523438" xlink:href="#DejaVuSans-83"/>
      <use x="125" xlink:href="#DejaVuSans-69"/>
      <use x="188.183594" xlink:href="#DejaVuSans-73"/>
      <use x="217.675781" xlink:href="#DejaVuSans-85"/>
      <use x="290.869141" xlink:href="#DejaVuSans-82"/>
     </g>
    </g>
    <g id="line2d_59">
     <path d="M 99 216.923437 
L 119 216.923437 
" style="fill:none;stroke:#bcbd22;stroke-linecap:square;stroke-width:1.5;"/>
    </g>
    <g id="line2d_60"/>
    <g id="text_28">
     <!-- eSEIUR$^{range}$ -->
     <g transform="translate(127 220.423437)scale(0.1 -0.1)">
      <defs>
       <path d="M 44.578125 46.390625 
Q 43.21875 47.125 41.453125 47.515625 
Q 39.703125 47.90625 37.703125 47.90625 
Q 30.515625 47.90625 25.140625 42.453125 
Q 19.78125 37.015625 18.015625 27.875 
L 12.5 0 
L 3.515625 0 
L 14.203125 54.6875 
L 23.1875 54.6875 
L 21.484375 46.1875 
Q 25.046875 50.921875 30 53.453125 
Q 34.96875 56 40.578125 56 
Q 42.046875 56 43.453125 55.828125 
Q 44.875 55.671875 46.296875 55.28125 
z
" id="DejaVuSans-Oblique-114"/>
       <path d="M 53.71875 31.203125 
L 47.609375 0 
L 38.625 0 
L 40.28125 8.296875 
Q 36.328125 3.421875 31.265625 1 
Q 26.21875 -1.421875 20.015625 -1.421875 
Q 13.03125 -1.421875 8.5625 2.84375 
Q 4.109375 7.125 4.109375 13.8125 
Q 4.109375 23.390625 11.75 28.953125 
Q 19.390625 34.515625 32.8125 34.515625 
L 45.3125 34.515625 
L 45.796875 36.921875 
Q 45.90625 37.3125 45.953125 37.765625 
Q 46 38.234375 46 39.203125 
Q 46 43.5625 42.453125 45.96875 
Q 38.921875 48.390625 32.515625 48.390625 
Q 28.125 48.390625 23.5 47.265625 
Q 18.890625 46.140625 14.015625 43.890625 
L 15.578125 52.203125 
Q 20.65625 54.109375 25.515625 55.046875 
Q 30.375 56 34.90625 56 
Q 44.578125 56 49.625 51.796875 
Q 54.6875 47.609375 54.6875 39.59375 
Q 54.6875 37.984375 54.4375 35.8125 
Q 54.203125 33.640625 53.71875 31.203125 
z
M 44 27.484375 
L 35.015625 27.484375 
Q 23.96875 27.484375 18.671875 24.53125 
Q 13.375 21.578125 13.375 15.375 
Q 13.375 11.078125 16.078125 8.640625 
Q 18.796875 6.203125 23.578125 6.203125 
Q 30.90625 6.203125 36.375 11.453125 
Q 41.84375 16.703125 43.609375 25.484375 
z
" id="DejaVuSans-Oblique-97"/>
       <path d="M 55.71875 33.015625 
L 49.3125 0 
L 40.28125 0 
L 46.6875 32.671875 
Q 47.125 34.96875 47.359375 36.71875 
Q 47.609375 38.484375 47.609375 39.5 
Q 47.609375 43.609375 45.015625 45.890625 
Q 42.4375 48.1875 37.796875 48.1875 
Q 30.5625 48.1875 25.34375 43.375 
Q 20.125 38.578125 18.5 30.328125 
L 12.5 0 
L 3.515625 0 
L 14.109375 54.6875 
L 23.09375 54.6875 
L 21.296875 46.09375 
Q 25.046875 50.828125 30.3125 53.40625 
Q 35.59375 56 41.40625 56 
Q 48.640625 56 52.609375 52.09375 
Q 56.59375 48.1875 56.59375 41.109375 
Q 56.59375 39.359375 56.375 37.359375 
Q 56.15625 35.359375 55.71875 33.015625 
z
" id="DejaVuSans-Oblique-110"/>
       <path d="M 59.625 54.6875 
L 50.296875 6.78125 
Q 47.609375 -7.125 40.015625 -13.953125 
Q 32.421875 -20.796875 19.578125 -20.796875 
Q 14.84375 -20.796875 10.78125 -20.09375 
Q 6.734375 -19.390625 3.21875 -17.921875 
L 4.890625 -9.1875 
Q 8.203125 -11.328125 11.90625 -12.34375 
Q 15.625 -13.375 19.828125 -13.375 
Q 28.375 -13.375 33.859375 -8.703125 
Q 39.359375 -4.046875 41.109375 4.6875 
L 41.890625 8.796875 
Q 38.140625 4.5 33.15625 2.25 
Q 28.171875 0 22.40625 0 
Q 14.109375 0 9.34375 5.484375 
Q 4.59375 10.984375 4.59375 20.609375 
Q 4.59375 28.171875 7.46875 35.421875 
Q 10.359375 42.671875 15.578125 48.296875 
Q 19.046875 52 23.65625 54 
Q 28.265625 56 33.296875 56 
Q 38.8125 56 42.90625 53.4375 
Q 47.015625 50.875 49.03125 46.1875 
L 50.59375 54.6875 
z
M 46.09375 34.625 
Q 46.09375 41.265625 42.96875 44.875 
Q 39.84375 48.484375 34.078125 48.484375 
Q 30.515625 48.484375 27.296875 47.0625 
Q 24.078125 45.65625 21.78125 43.109375 
Q 18.0625 38.921875 15.984375 33.234375 
Q 13.921875 27.546875 13.921875 21.484375 
Q 13.921875 14.75 17.0625 11.125 
Q 20.21875 7.515625 26.125 7.515625 
Q 34.671875 7.515625 40.375 15.25 
Q 46.09375 23 46.09375 34.625 
z
" id="DejaVuSans-Oblique-103"/>
       <path d="M 48.09375 32.234375 
Q 48.25 33.015625 48.3125 33.84375 
Q 48.390625 34.671875 48.390625 35.5 
Q 48.390625 41.453125 44.890625 44.921875 
Q 41.40625 48.390625 35.40625 48.390625 
Q 28.71875 48.390625 23.578125 44.15625 
Q 18.453125 39.9375 15.828125 32.171875 
z
M 55.90625 25.203125 
L 14.109375 25.203125 
Q 13.8125 23.34375 13.71875 22.265625 
Q 13.625 21.1875 13.625 20.40625 
Q 13.625 13.625 17.796875 9.90625 
Q 21.96875 6.203125 29.59375 6.203125 
Q 35.453125 6.203125 40.671875 7.515625 
Q 45.90625 8.84375 50.390625 11.375 
L 48.6875 2.484375 
Q 43.84375 0.53125 38.6875 -0.4375 
Q 33.546875 -1.421875 28.21875 -1.421875 
Q 16.84375 -1.421875 10.71875 4.015625 
Q 4.59375 9.46875 4.59375 19.484375 
Q 4.59375 28.03125 7.640625 35.375 
Q 10.6875 42.71875 16.609375 48.484375 
Q 20.40625 52.09375 25.65625 54.046875 
Q 30.90625 56 36.8125 56 
Q 46.09375 56 51.578125 50.4375 
Q 57.078125 44.875 57.078125 35.5 
Q 57.078125 33.25 56.78125 30.6875 
Q 56.5 28.125 55.90625 25.203125 
z
" id="DejaVuSans-Oblique-101"/>
      </defs>
      <use transform="translate(0 0.51875)" xlink:href="#DejaVuSans-101"/>
      <use transform="translate(61.523438 0.51875)" xlink:href="#DejaVuSans-83"/>
      <use transform="translate(125 0.51875)" xlink:href="#DejaVuSans-69"/>
      <use transform="translate(188.183594 0.51875)" xlink:href="#DejaVuSans-73"/>
      <use transform="translate(217.675781 0.51875)" xlink:href="#DejaVuSans-85"/>
      <use transform="translate(288.619141 0.51875)" xlink:href="#DejaVuSans-82"/>
      <use transform="translate(359.058594 38.8)scale(0.7)" xlink:href="#DejaVuSans-Oblique-114"/>
      <use transform="translate(387.837891 38.8)scale(0.7)" xlink:href="#DejaVuSans-Oblique-97"/>
      <use transform="translate(430.733398 38.8)scale(0.7)" xlink:href="#DejaVuSans-Oblique-110"/>
      <use transform="translate(475.098633 38.8)scale(0.7)" xlink:href="#DejaVuSans-Oblique-103"/>
      <use transform="translate(519.532227 38.8)scale(0.7)" xlink:href="#DejaVuSans-Oblique-101"/>
     </g>
    </g>
   </g>
  </g>
 </g>
 <defs>
  <clipPath id="p1442f0a1e9">
   <rect height="543.6" width="558" x="90" y="86.4"/>
  </clipPath>
 </defs>
</svg>
