<?xml version="1.0" encoding="utf-8" standalone="no"?>
<!DOCTYPE svg PUBLIC "-//W3C//DTD SVG 1.1//EN"
  "http://www.w3.org/Graphics/SVG/1.1/DTD/svg11.dtd">
<!-- Created with matplotlib (https://matplotlib.org/) -->
<svg height="720pt" version="1.1" viewBox="0 0 720 720" width="720pt" xmlns="http://www.w3.org/2000/svg" xmlns:xlink="http://www.w3.org/1999/xlink">
 <metadata>
  <rdf:RDF xmlns:cc="http://creativecommons.org/ns#" xmlns:dc="http://purl.org/dc/elements/1.1/" xmlns:rdf="http://www.w3.org/1999/02/22-rdf-syntax-ns#">
   <cc:Work>
    <dc:type rdf:resource="http://purl.org/dc/dcmitype/StillImage"/>
    <dc:date>2022-10-11T20:58:50.328730</dc:date>
    <dc:format>image/svg+xml</dc:format>
    <dc:creator>
     <cc:Agent>
      <dc:title>Matplotlib v3.3.2, https://matplotlib.org/</dc:title>
     </cc:Agent>
    </dc:creator>
   </cc:Work>
  </rdf:RDF>
 </metadata>
 <defs>
  <style type="text/css">*{stroke-linecap:butt;stroke-linejoin:round;}</style>
 </defs>
 <g id="figure_1">
  <g id="patch_1">
   <path d="M 0 720 
L 720 720 
L 720 0 
L 0 0 
z
" style="fill:none;"/>
  </g>
  <g id="axes_1">
   <g id="patch_2">
    <path d="M 90 630 
L 648 630 
L 648 86.4 
L 90 86.4 
z
" style="fill:#ffffff;"/>
   </g>
   <g id="matplotlib.axis_1">
    <g id="xtick_1">
     <g id="line2d_1">
      <path clip-path="url(#pfa2693b84f)" d="M 115.363636 630 
L 115.363636 86.4 
" style="fill:none;stroke:#b0b0b0;stroke-linecap:square;stroke-width:0.8;"/>
     </g>
     <g id="line2d_2">
      <defs>
       <path d="M 0 0 
L 0 3.5 
" id="mdbfad129f9" style="stroke:#000000;stroke-width:0.8;"/>
      </defs>
      <g>
       <use style="stroke:#000000;stroke-width:0.8;" x="115.363636" xlink:href="#mdbfad129f9" y="630"/>
      </g>
     </g>
     <g id="text_1">
      <!-- 0 -->
      <g transform="translate(112.182386 644.598438)scale(0.1 -0.1)">
       <defs>
        <path d="M 31.78125 66.40625 
Q 24.171875 66.40625 20.328125 58.90625 
Q 16.5 51.421875 16.5 36.375 
Q 16.5 21.390625 20.328125 13.890625 
Q 24.171875 6.390625 31.78125 6.390625 
Q 39.453125 6.390625 43.28125 13.890625 
Q 47.125 21.390625 47.125 36.375 
Q 47.125 51.421875 43.28125 58.90625 
Q 39.453125 66.40625 31.78125 66.40625 
z
M 31.78125 74.21875 
Q 44.046875 74.21875 50.515625 64.515625 
Q 56.984375 54.828125 56.984375 36.375 
Q 56.984375 17.96875 50.515625 8.265625 
Q 44.046875 -1.421875 31.78125 -1.421875 
Q 19.53125 -1.421875 13.0625 8.265625 
Q 6.59375 17.96875 6.59375 36.375 
Q 6.59375 54.828125 13.0625 64.515625 
Q 19.53125 74.21875 31.78125 74.21875 
z
" id="DejaVuSans-48"/>
       </defs>
       <use xlink:href="#DejaVuSans-48"/>
      </g>
     </g>
    </g>
    <g id="xtick_2">
     <g id="line2d_3">
      <path clip-path="url(#pfa2693b84f)" d="M 181.072539 630 
L 181.072539 86.4 
" style="fill:none;stroke:#b0b0b0;stroke-linecap:square;stroke-width:0.8;"/>
     </g>
     <g id="line2d_4">
      <g>
       <use style="stroke:#000000;stroke-width:0.8;" x="181.072539" xlink:href="#mdbfad129f9" y="630"/>
      </g>
     </g>
     <g id="text_2">
      <!-- 50 -->
      <g transform="translate(174.710039 644.598438)scale(0.1 -0.1)">
       <defs>
        <path d="M 10.796875 72.90625 
L 49.515625 72.90625 
L 49.515625 64.59375 
L 19.828125 64.59375 
L 19.828125 46.734375 
Q 21.96875 47.46875 24.109375 47.828125 
Q 26.265625 48.1875 28.421875 48.1875 
Q 40.625 48.1875 47.75 41.5 
Q 54.890625 34.8125 54.890625 23.390625 
Q 54.890625 11.625 47.5625 5.09375 
Q 40.234375 -1.421875 26.90625 -1.421875 
Q 22.3125 -1.421875 17.546875 -0.640625 
Q 12.796875 0.140625 7.71875 1.703125 
L 7.71875 11.625 
Q 12.109375 9.234375 16.796875 8.0625 
Q 21.484375 6.890625 26.703125 6.890625 
Q 35.15625 6.890625 40.078125 11.328125 
Q 45.015625 15.765625 45.015625 23.390625 
Q 45.015625 31 40.078125 35.4375 
Q 35.15625 39.890625 26.703125 39.890625 
Q 22.75 39.890625 18.8125 39.015625 
Q 14.890625 38.140625 10.796875 36.28125 
z
" id="DejaVuSans-53"/>
       </defs>
       <use xlink:href="#DejaVuSans-53"/>
       <use x="63.623047" xlink:href="#DejaVuSans-48"/>
      </g>
     </g>
    </g>
    <g id="xtick_3">
     <g id="line2d_5">
      <path clip-path="url(#pfa2693b84f)" d="M 246.781441 630 
L 246.781441 86.4 
" style="fill:none;stroke:#b0b0b0;stroke-linecap:square;stroke-width:0.8;"/>
     </g>
     <g id="line2d_6">
      <g>
       <use style="stroke:#000000;stroke-width:0.8;" x="246.781441" xlink:href="#mdbfad129f9" y="630"/>
      </g>
     </g>
     <g id="text_3">
      <!-- 100 -->
      <g transform="translate(237.237691 644.598438)scale(0.1 -0.1)">
       <defs>
        <path d="M 12.40625 8.296875 
L 28.515625 8.296875 
L 28.515625 63.921875 
L 10.984375 60.40625 
L 10.984375 69.390625 
L 28.421875 72.90625 
L 38.28125 72.90625 
L 38.28125 8.296875 
L 54.390625 8.296875 
L 54.390625 0 
L 12.40625 0 
z
" id="DejaVuSans-49"/>
       </defs>
       <use xlink:href="#DejaVuSans-49"/>
       <use x="63.623047" xlink:href="#DejaVuSans-48"/>
       <use x="127.246094" xlink:href="#DejaVuSans-48"/>
      </g>
     </g>
    </g>
    <g id="xtick_4">
     <g id="line2d_7">
      <path clip-path="url(#pfa2693b84f)" d="M 312.490344 630 
L 312.490344 86.4 
" style="fill:none;stroke:#b0b0b0;stroke-linecap:square;stroke-width:0.8;"/>
     </g>
     <g id="line2d_8">
      <g>
       <use style="stroke:#000000;stroke-width:0.8;" x="312.490344" xlink:href="#mdbfad129f9" y="630"/>
      </g>
     </g>
     <g id="text_4">
      <!-- 150 -->
      <g transform="translate(302.946594 644.598438)scale(0.1 -0.1)">
       <use xlink:href="#DejaVuSans-49"/>
       <use x="63.623047" xlink:href="#DejaVuSans-53"/>
       <use x="127.246094" xlink:href="#DejaVuSans-48"/>
      </g>
     </g>
    </g>
    <g id="xtick_5">
     <g id="line2d_9">
      <path clip-path="url(#pfa2693b84f)" d="M 378.199246 630 
L 378.199246 86.4 
" style="fill:none;stroke:#b0b0b0;stroke-linecap:square;stroke-width:0.8;"/>
     </g>
     <g id="line2d_10">
      <g>
       <use style="stroke:#000000;stroke-width:0.8;" x="378.199246" xlink:href="#mdbfad129f9" y="630"/>
      </g>
     </g>
     <g id="text_5">
      <!-- 200 -->
      <g transform="translate(368.655496 644.598438)scale(0.1 -0.1)">
       <defs>
        <path d="M 19.1875 8.296875 
L 53.609375 8.296875 
L 53.609375 0 
L 7.328125 0 
L 7.328125 8.296875 
Q 12.9375 14.109375 22.625 23.890625 
Q 32.328125 33.6875 34.8125 36.53125 
Q 39.546875 41.84375 41.421875 45.53125 
Q 43.3125 49.21875 43.3125 52.78125 
Q 43.3125 58.59375 39.234375 62.25 
Q 35.15625 65.921875 28.609375 65.921875 
Q 23.96875 65.921875 18.8125 64.3125 
Q 13.671875 62.703125 7.8125 59.421875 
L 7.8125 69.390625 
Q 13.765625 71.78125 18.9375 73 
Q 24.125 74.21875 28.421875 74.21875 
Q 39.75 74.21875 46.484375 68.546875 
Q 53.21875 62.890625 53.21875 53.421875 
Q 53.21875 48.921875 51.53125 44.890625 
Q 49.859375 40.875 45.40625 35.40625 
Q 44.1875 33.984375 37.640625 27.21875 
Q 31.109375 20.453125 19.1875 8.296875 
z
" id="DejaVuSans-50"/>
       </defs>
       <use xlink:href="#DejaVuSans-50"/>
       <use x="63.623047" xlink:href="#DejaVuSans-48"/>
       <use x="127.246094" xlink:href="#DejaVuSans-48"/>
      </g>
     </g>
    </g>
    <g id="xtick_6">
     <g id="line2d_11">
      <path clip-path="url(#pfa2693b84f)" d="M 443.908149 630 
L 443.908149 86.4 
" style="fill:none;stroke:#b0b0b0;stroke-linecap:square;stroke-width:0.8;"/>
     </g>
     <g id="line2d_12">
      <g>
       <use style="stroke:#000000;stroke-width:0.8;" x="443.908149" xlink:href="#mdbfad129f9" y="630"/>
      </g>
     </g>
     <g id="text_6">
      <!-- 250 -->
      <g transform="translate(434.364399 644.598438)scale(0.1 -0.1)">
       <use xlink:href="#DejaVuSans-50"/>
       <use x="63.623047" xlink:href="#DejaVuSans-53"/>
       <use x="127.246094" xlink:href="#DejaVuSans-48"/>
      </g>
     </g>
    </g>
    <g id="xtick_7">
     <g id="line2d_13">
      <path clip-path="url(#pfa2693b84f)" d="M 509.617051 630 
L 509.617051 86.4 
" style="fill:none;stroke:#b0b0b0;stroke-linecap:square;stroke-width:0.8;"/>
     </g>
     <g id="line2d_14">
      <g>
       <use style="stroke:#000000;stroke-width:0.8;" x="509.617051" xlink:href="#mdbfad129f9" y="630"/>
      </g>
     </g>
     <g id="text_7">
      <!-- 300 -->
      <g transform="translate(500.073301 644.598438)scale(0.1 -0.1)">
       <defs>
        <path d="M 40.578125 39.3125 
Q 47.65625 37.796875 51.625 33 
Q 55.609375 28.21875 55.609375 21.1875 
Q 55.609375 10.40625 48.1875 4.484375 
Q 40.765625 -1.421875 27.09375 -1.421875 
Q 22.515625 -1.421875 17.65625 -0.515625 
Q 12.796875 0.390625 7.625 2.203125 
L 7.625 11.71875 
Q 11.71875 9.328125 16.59375 8.109375 
Q 21.484375 6.890625 26.8125 6.890625 
Q 36.078125 6.890625 40.9375 10.546875 
Q 45.796875 14.203125 45.796875 21.1875 
Q 45.796875 27.640625 41.28125 31.265625 
Q 36.765625 34.90625 28.71875 34.90625 
L 20.21875 34.90625 
L 20.21875 43.015625 
L 29.109375 43.015625 
Q 36.375 43.015625 40.234375 45.921875 
Q 44.09375 48.828125 44.09375 54.296875 
Q 44.09375 59.90625 40.109375 62.90625 
Q 36.140625 65.921875 28.71875 65.921875 
Q 24.65625 65.921875 20.015625 65.03125 
Q 15.375 64.15625 9.8125 62.3125 
L 9.8125 71.09375 
Q 15.4375 72.65625 20.34375 73.4375 
Q 25.25 74.21875 29.59375 74.21875 
Q 40.828125 74.21875 47.359375 69.109375 
Q 53.90625 64.015625 53.90625 55.328125 
Q 53.90625 49.265625 50.4375 45.09375 
Q 46.96875 40.921875 40.578125 39.3125 
z
" id="DejaVuSans-51"/>
       </defs>
       <use xlink:href="#DejaVuSans-51"/>
       <use x="63.623047" xlink:href="#DejaVuSans-48"/>
       <use x="127.246094" xlink:href="#DejaVuSans-48"/>
      </g>
     </g>
    </g>
    <g id="xtick_8">
     <g id="line2d_15">
      <path clip-path="url(#pfa2693b84f)" d="M 575.325954 630 
L 575.325954 86.4 
" style="fill:none;stroke:#b0b0b0;stroke-linecap:square;stroke-width:0.8;"/>
     </g>
     <g id="line2d_16">
      <g>
       <use style="stroke:#000000;stroke-width:0.8;" x="575.325954" xlink:href="#mdbfad129f9" y="630"/>
      </g>
     </g>
     <g id="text_8">
      <!-- 350 -->
      <g transform="translate(565.782204 644.598438)scale(0.1 -0.1)">
       <use xlink:href="#DejaVuSans-51"/>
       <use x="63.623047" xlink:href="#DejaVuSans-53"/>
       <use x="127.246094" xlink:href="#DejaVuSans-48"/>
      </g>
     </g>
    </g>
    <g id="xtick_9">
     <g id="line2d_17">
      <path clip-path="url(#pfa2693b84f)" d="M 641.034856 630 
L 641.034856 86.4 
" style="fill:none;stroke:#b0b0b0;stroke-linecap:square;stroke-width:0.8;"/>
     </g>
     <g id="line2d_18">
      <g>
       <use style="stroke:#000000;stroke-width:0.8;" x="641.034856" xlink:href="#mdbfad129f9" y="630"/>
      </g>
     </g>
     <g id="text_9">
      <!-- 400 -->
      <g transform="translate(631.491106 644.598438)scale(0.1 -0.1)">
       <defs>
        <path d="M 37.796875 64.3125 
L 12.890625 25.390625 
L 37.796875 25.390625 
z
M 35.203125 72.90625 
L 47.609375 72.90625 
L 47.609375 25.390625 
L 58.015625 25.390625 
L 58.015625 17.1875 
L 47.609375 17.1875 
L 47.609375 0 
L 37.796875 0 
L 37.796875 17.1875 
L 4.890625 17.1875 
L 4.890625 26.703125 
z
" id="DejaVuSans-52"/>
       </defs>
       <use xlink:href="#DejaVuSans-52"/>
       <use x="63.623047" xlink:href="#DejaVuSans-48"/>
       <use x="127.246094" xlink:href="#DejaVuSans-48"/>
      </g>
     </g>
    </g>
    <g id="text_10">
     <!-- Days -->
     <g transform="translate(356.521875 658.276562)scale(0.1 -0.1)">
      <defs>
       <path d="M 19.671875 64.796875 
L 19.671875 8.109375 
L 31.59375 8.109375 
Q 46.6875 8.109375 53.6875 14.9375 
Q 60.6875 21.78125 60.6875 36.53125 
Q 60.6875 51.171875 53.6875 57.984375 
Q 46.6875 64.796875 31.59375 64.796875 
z
M 9.8125 72.90625 
L 30.078125 72.90625 
Q 51.265625 72.90625 61.171875 64.09375 
Q 71.09375 55.28125 71.09375 36.53125 
Q 71.09375 17.671875 61.125 8.828125 
Q 51.171875 0 30.078125 0 
L 9.8125 0 
z
" id="DejaVuSans-68"/>
       <path d="M 34.28125 27.484375 
Q 23.390625 27.484375 19.1875 25 
Q 14.984375 22.515625 14.984375 16.5 
Q 14.984375 11.71875 18.140625 8.90625 
Q 21.296875 6.109375 26.703125 6.109375 
Q 34.1875 6.109375 38.703125 11.40625 
Q 43.21875 16.703125 43.21875 25.484375 
L 43.21875 27.484375 
z
M 52.203125 31.203125 
L 52.203125 0 
L 43.21875 0 
L 43.21875 8.296875 
Q 40.140625 3.328125 35.546875 0.953125 
Q 30.953125 -1.421875 24.3125 -1.421875 
Q 15.921875 -1.421875 10.953125 3.296875 
Q 6 8.015625 6 15.921875 
Q 6 25.140625 12.171875 29.828125 
Q 18.359375 34.515625 30.609375 34.515625 
L 43.21875 34.515625 
L 43.21875 35.40625 
Q 43.21875 41.609375 39.140625 45 
Q 35.0625 48.390625 27.6875 48.390625 
Q 23 48.390625 18.546875 47.265625 
Q 14.109375 46.140625 10.015625 43.890625 
L 10.015625 52.203125 
Q 14.9375 54.109375 19.578125 55.046875 
Q 24.21875 56 28.609375 56 
Q 40.484375 56 46.34375 49.84375 
Q 52.203125 43.703125 52.203125 31.203125 
z
" id="DejaVuSans-97"/>
       <path d="M 32.171875 -5.078125 
Q 28.375 -14.84375 24.75 -17.8125 
Q 21.140625 -20.796875 15.09375 -20.796875 
L 7.90625 -20.796875 
L 7.90625 -13.28125 
L 13.1875 -13.28125 
Q 16.890625 -13.28125 18.9375 -11.515625 
Q 21 -9.765625 23.484375 -3.21875 
L 25.09375 0.875 
L 2.984375 54.6875 
L 12.5 54.6875 
L 29.59375 11.921875 
L 46.6875 54.6875 
L 56.203125 54.6875 
z
" id="DejaVuSans-121"/>
       <path d="M 44.28125 53.078125 
L 44.28125 44.578125 
Q 40.484375 46.53125 36.375 47.5 
Q 32.28125 48.484375 27.875 48.484375 
Q 21.1875 48.484375 17.84375 46.4375 
Q 14.5 44.390625 14.5 40.28125 
Q 14.5 37.15625 16.890625 35.375 
Q 19.28125 33.59375 26.515625 31.984375 
L 29.59375 31.296875 
Q 39.15625 29.25 43.1875 25.515625 
Q 47.21875 21.78125 47.21875 15.09375 
Q 47.21875 7.46875 41.1875 3.015625 
Q 35.15625 -1.421875 24.609375 -1.421875 
Q 20.21875 -1.421875 15.453125 -0.5625 
Q 10.6875 0.296875 5.421875 2 
L 5.421875 11.28125 
Q 10.40625 8.6875 15.234375 7.390625 
Q 20.0625 6.109375 24.8125 6.109375 
Q 31.15625 6.109375 34.5625 8.28125 
Q 37.984375 10.453125 37.984375 14.40625 
Q 37.984375 18.0625 35.515625 20.015625 
Q 33.0625 21.96875 24.703125 23.78125 
L 21.578125 24.515625 
Q 13.234375 26.265625 9.515625 29.90625 
Q 5.8125 33.546875 5.8125 39.890625 
Q 5.8125 47.609375 11.28125 51.796875 
Q 16.75 56 26.8125 56 
Q 31.78125 56 36.171875 55.265625 
Q 40.578125 54.546875 44.28125 53.078125 
z
" id="DejaVuSans-115"/>
      </defs>
      <use xlink:href="#DejaVuSans-68"/>
      <use x="77.001953" xlink:href="#DejaVuSans-97"/>
      <use x="138.28125" xlink:href="#DejaVuSans-121"/>
      <use x="197.460938" xlink:href="#DejaVuSans-115"/>
     </g>
    </g>
   </g>
   <g id="matplotlib.axis_2">
    <g id="ytick_1">
     <g id="line2d_19">
      <path clip-path="url(#pfa2693b84f)" d="M 90 605.305227 
L 648 605.305227 
" style="fill:none;stroke:#b0b0b0;stroke-linecap:square;stroke-width:0.8;"/>
     </g>
     <g id="line2d_20">
      <defs>
       <path d="M 0 0 
L -3.5 0 
" id="mbf49abd62e" style="stroke:#000000;stroke-width:0.8;"/>
      </defs>
      <g>
       <use style="stroke:#000000;stroke-width:0.8;" x="90" xlink:href="#mbf49abd62e" y="605.305227"/>
      </g>
     </g>
     <g id="text_11">
      <!-- 0 -->
      <g transform="translate(76.6375 609.104445)scale(0.1 -0.1)">
       <use xlink:href="#DejaVuSans-48"/>
      </g>
     </g>
    </g>
    <g id="ytick_2">
     <g id="line2d_21">
      <path clip-path="url(#pfa2693b84f)" d="M 90 495.170837 
L 648 495.170837 
" style="fill:none;stroke:#b0b0b0;stroke-linecap:square;stroke-width:0.8;"/>
     </g>
     <g id="line2d_22">
      <g>
       <use style="stroke:#000000;stroke-width:0.8;" x="90" xlink:href="#mbf49abd62e" y="495.170837"/>
      </g>
     </g>
     <g id="text_12">
      <!-- 100000 -->
      <g transform="translate(44.825 498.970055)scale(0.1 -0.1)">
       <use xlink:href="#DejaVuSans-49"/>
       <use x="63.623047" xlink:href="#DejaVuSans-48"/>
       <use x="127.246094" xlink:href="#DejaVuSans-48"/>
       <use x="190.869141" xlink:href="#DejaVuSans-48"/>
       <use x="254.492188" xlink:href="#DejaVuSans-48"/>
       <use x="318.115234" xlink:href="#DejaVuSans-48"/>
      </g>
     </g>
    </g>
    <g id="ytick_3">
     <g id="line2d_23">
      <path clip-path="url(#pfa2693b84f)" d="M 90 385.036447 
L 648 385.036447 
" style="fill:none;stroke:#b0b0b0;stroke-linecap:square;stroke-width:0.8;"/>
     </g>
     <g id="line2d_24">
      <g>
       <use style="stroke:#000000;stroke-width:0.8;" x="90" xlink:href="#mbf49abd62e" y="385.036447"/>
      </g>
     </g>
     <g id="text_13">
      <!-- 200000 -->
      <g transform="translate(44.825 388.835666)scale(0.1 -0.1)">
       <use xlink:href="#DejaVuSans-50"/>
       <use x="63.623047" xlink:href="#DejaVuSans-48"/>
       <use x="127.246094" xlink:href="#DejaVuSans-48"/>
       <use x="190.869141" xlink:href="#DejaVuSans-48"/>
       <use x="254.492188" xlink:href="#DejaVuSans-48"/>
       <use x="318.115234" xlink:href="#DejaVuSans-48"/>
      </g>
     </g>
    </g>
    <g id="ytick_4">
     <g id="line2d_25">
      <path clip-path="url(#pfa2693b84f)" d="M 90 274.902057 
L 648 274.902057 
" style="fill:none;stroke:#b0b0b0;stroke-linecap:square;stroke-width:0.8;"/>
     </g>
     <g id="line2d_26">
      <g>
       <use style="stroke:#000000;stroke-width:0.8;" x="90" xlink:href="#mbf49abd62e" y="274.902057"/>
      </g>
     </g>
     <g id="text_14">
      <!-- 300000 -->
      <g transform="translate(44.825 278.701276)scale(0.1 -0.1)">
       <use xlink:href="#DejaVuSans-51"/>
       <use x="63.623047" xlink:href="#DejaVuSans-48"/>
       <use x="127.246094" xlink:href="#DejaVuSans-48"/>
       <use x="190.869141" xlink:href="#DejaVuSans-48"/>
       <use x="254.492188" xlink:href="#DejaVuSans-48"/>
       <use x="318.115234" xlink:href="#DejaVuSans-48"/>
      </g>
     </g>
    </g>
    <g id="ytick_5">
     <g id="line2d_27">
      <path clip-path="url(#pfa2693b84f)" d="M 90 164.767667 
L 648 164.767667 
" style="fill:none;stroke:#b0b0b0;stroke-linecap:square;stroke-width:0.8;"/>
     </g>
     <g id="line2d_28">
      <g>
       <use style="stroke:#000000;stroke-width:0.8;" x="90" xlink:href="#mbf49abd62e" y="164.767667"/>
      </g>
     </g>
     <g id="text_15">
      <!-- 400000 -->
      <g transform="translate(44.825 168.566886)scale(0.1 -0.1)">
       <use xlink:href="#DejaVuSans-52"/>
       <use x="63.623047" xlink:href="#DejaVuSans-48"/>
       <use x="127.246094" xlink:href="#DejaVuSans-48"/>
       <use x="190.869141" xlink:href="#DejaVuSans-48"/>
       <use x="254.492188" xlink:href="#DejaVuSans-48"/>
       <use x="318.115234" xlink:href="#DejaVuSans-48"/>
      </g>
     </g>
    </g>
    <g id="text_16">
     <!-- Cumulative cases -->
     <g transform="translate(38.745312 402.425781)rotate(-90)scale(0.1 -0.1)">
      <defs>
       <path d="M 64.40625 67.28125 
L 64.40625 56.890625 
Q 59.421875 61.53125 53.78125 63.8125 
Q 48.140625 66.109375 41.796875 66.109375 
Q 29.296875 66.109375 22.65625 58.46875 
Q 16.015625 50.828125 16.015625 36.375 
Q 16.015625 21.96875 22.65625 14.328125 
Q 29.296875 6.6875 41.796875 6.6875 
Q 48.140625 6.6875 53.78125 8.984375 
Q 59.421875 11.28125 64.40625 15.921875 
L 64.40625 5.609375 
Q 59.234375 2.09375 53.4375 0.328125 
Q 47.65625 -1.421875 41.21875 -1.421875 
Q 24.65625 -1.421875 15.125 8.703125 
Q 5.609375 18.84375 5.609375 36.375 
Q 5.609375 53.953125 15.125 64.078125 
Q 24.65625 74.21875 41.21875 74.21875 
Q 47.75 74.21875 53.53125 72.484375 
Q 59.328125 70.75 64.40625 67.28125 
z
" id="DejaVuSans-67"/>
       <path d="M 8.5 21.578125 
L 8.5 54.6875 
L 17.484375 54.6875 
L 17.484375 21.921875 
Q 17.484375 14.15625 20.5 10.265625 
Q 23.53125 6.390625 29.59375 6.390625 
Q 36.859375 6.390625 41.078125 11.03125 
Q 45.3125 15.671875 45.3125 23.6875 
L 45.3125 54.6875 
L 54.296875 54.6875 
L 54.296875 0 
L 45.3125 0 
L 45.3125 8.40625 
Q 42.046875 3.421875 37.71875 1 
Q 33.40625 -1.421875 27.6875 -1.421875 
Q 18.265625 -1.421875 13.375 4.4375 
Q 8.5 10.296875 8.5 21.578125 
z
M 31.109375 56 
z
" id="DejaVuSans-117"/>
       <path d="M 52 44.1875 
Q 55.375 50.25 60.0625 53.125 
Q 64.75 56 71.09375 56 
Q 79.640625 56 84.28125 50.015625 
Q 88.921875 44.046875 88.921875 33.015625 
L 88.921875 0 
L 79.890625 0 
L 79.890625 32.71875 
Q 79.890625 40.578125 77.09375 44.375 
Q 74.3125 48.1875 68.609375 48.1875 
Q 61.625 48.1875 57.5625 43.546875 
Q 53.515625 38.921875 53.515625 30.90625 
L 53.515625 0 
L 44.484375 0 
L 44.484375 32.71875 
Q 44.484375 40.625 41.703125 44.40625 
Q 38.921875 48.1875 33.109375 48.1875 
Q 26.21875 48.1875 22.15625 43.53125 
Q 18.109375 38.875 18.109375 30.90625 
L 18.109375 0 
L 9.078125 0 
L 9.078125 54.6875 
L 18.109375 54.6875 
L 18.109375 46.1875 
Q 21.1875 51.21875 25.484375 53.609375 
Q 29.78125 56 35.6875 56 
Q 41.65625 56 45.828125 52.96875 
Q 50 49.953125 52 44.1875 
z
" id="DejaVuSans-109"/>
       <path d="M 9.421875 75.984375 
L 18.40625 75.984375 
L 18.40625 0 
L 9.421875 0 
z
" id="DejaVuSans-108"/>
       <path d="M 18.3125 70.21875 
L 18.3125 54.6875 
L 36.8125 54.6875 
L 36.8125 47.703125 
L 18.3125 47.703125 
L 18.3125 18.015625 
Q 18.3125 11.328125 20.140625 9.421875 
Q 21.96875 7.515625 27.59375 7.515625 
L 36.8125 7.515625 
L 36.8125 0 
L 27.59375 0 
Q 17.1875 0 13.234375 3.875 
Q 9.28125 7.765625 9.28125 18.015625 
L 9.28125 47.703125 
L 2.6875 47.703125 
L 2.6875 54.6875 
L 9.28125 54.6875 
L 9.28125 70.21875 
z
" id="DejaVuSans-116"/>
       <path d="M 9.421875 54.6875 
L 18.40625 54.6875 
L 18.40625 0 
L 9.421875 0 
z
M 9.421875 75.984375 
L 18.40625 75.984375 
L 18.40625 64.59375 
L 9.421875 64.59375 
z
" id="DejaVuSans-105"/>
       <path d="M 2.984375 54.6875 
L 12.5 54.6875 
L 29.59375 8.796875 
L 46.6875 54.6875 
L 56.203125 54.6875 
L 35.6875 0 
L 23.484375 0 
z
" id="DejaVuSans-118"/>
       <path d="M 56.203125 29.59375 
L 56.203125 25.203125 
L 14.890625 25.203125 
Q 15.484375 15.921875 20.484375 11.0625 
Q 25.484375 6.203125 34.421875 6.203125 
Q 39.59375 6.203125 44.453125 7.46875 
Q 49.3125 8.734375 54.109375 11.28125 
L 54.109375 2.78125 
Q 49.265625 0.734375 44.1875 -0.34375 
Q 39.109375 -1.421875 33.890625 -1.421875 
Q 20.796875 -1.421875 13.15625 6.1875 
Q 5.515625 13.8125 5.515625 26.8125 
Q 5.515625 40.234375 12.765625 48.109375 
Q 20.015625 56 32.328125 56 
Q 43.359375 56 49.78125 48.890625 
Q 56.203125 41.796875 56.203125 29.59375 
z
M 47.21875 32.234375 
Q 47.125 39.59375 43.09375 43.984375 
Q 39.0625 48.390625 32.421875 48.390625 
Q 24.90625 48.390625 20.390625 44.140625 
Q 15.875 39.890625 15.1875 32.171875 
z
" id="DejaVuSans-101"/>
       <path id="DejaVuSans-32"/>
       <path d="M 48.78125 52.59375 
L 48.78125 44.1875 
Q 44.96875 46.296875 41.140625 47.34375 
Q 37.3125 48.390625 33.40625 48.390625 
Q 24.65625 48.390625 19.8125 42.84375 
Q 14.984375 37.3125 14.984375 27.296875 
Q 14.984375 17.28125 19.8125 11.734375 
Q 24.65625 6.203125 33.40625 6.203125 
Q 37.3125 6.203125 41.140625 7.25 
Q 44.96875 8.296875 48.78125 10.40625 
L 48.78125 2.09375 
Q 45.015625 0.34375 40.984375 -0.53125 
Q 36.96875 -1.421875 32.421875 -1.421875 
Q 20.0625 -1.421875 12.78125 6.34375 
Q 5.515625 14.109375 5.515625 27.296875 
Q 5.515625 40.671875 12.859375 48.328125 
Q 20.21875 56 33.015625 56 
Q 37.15625 56 41.109375 55.140625 
Q 45.0625 54.296875 48.78125 52.59375 
z
" id="DejaVuSans-99"/>
      </defs>
      <use xlink:href="#DejaVuSans-67"/>
      <use x="69.824219" xlink:href="#DejaVuSans-117"/>
      <use x="133.203125" xlink:href="#DejaVuSans-109"/>
      <use x="230.615234" xlink:href="#DejaVuSans-117"/>
      <use x="293.994141" xlink:href="#DejaVuSans-108"/>
      <use x="321.777344" xlink:href="#DejaVuSans-97"/>
      <use x="383.056641" xlink:href="#DejaVuSans-116"/>
      <use x="422.265625" xlink:href="#DejaVuSans-105"/>
      <use x="450.048828" xlink:href="#DejaVuSans-118"/>
      <use x="509.228516" xlink:href="#DejaVuSans-101"/>
      <use x="570.751953" xlink:href="#DejaVuSans-32"/>
      <use x="602.539062" xlink:href="#DejaVuSans-99"/>
      <use x="657.519531" xlink:href="#DejaVuSans-97"/>
      <use x="718.798828" xlink:href="#DejaVuSans-115"/>
      <use x="770.898438" xlink:href="#DejaVuSans-101"/>
      <use x="832.421875" xlink:href="#DejaVuSans-115"/>
     </g>
    </g>
   </g>
   <g id="line2d_29">
    <path clip-path="url(#pfa2693b84f)" d="M 115.363636 605.290909 
L 208.670278 605.144622 
L 246.781441 604.874308 
L 271.750824 604.482927 
L 290.149317 603.982045 
L 304.605276 603.383236 
L 316.432878 602.697724 
L 326.946302 601.887061 
L 336.145549 600.975325 
L 344.030617 600.004713 
L 351.915685 598.819515 
L 358.486576 597.635037 
L 365.057466 596.238417 
L 371.628356 594.593311 
L 376.885068 593.070348 
L 382.14178 591.337358 
L 387.398493 589.367337 
L 392.655205 587.130395 
L 397.911917 584.593625 
L 401.854451 582.472743 
L 405.796985 580.146681 
L 409.73952 577.598141 
L 413.682054 574.808898 
L 417.624588 571.759876 
L 421.567122 568.431245 
L 425.509656 564.802555 
L 429.45219 560.852922 
L 433.394724 556.561247 
L 437.337259 551.9065 
L 441.279793 546.868048 
L 445.222327 541.426051 
L 449.164861 535.561911 
L 453.107395 529.258774 
L 457.049929 522.502089 
L 460.992463 515.280202 
L 464.934998 507.58498 
L 468.877532 499.412441 
L 472.820066 490.763372 
L 476.7626 481.6439 
L 480.705134 472.066001 
L 485.961846 458.614771 
L 491.218559 444.442875 
L 496.475271 429.632202 
L 503.046161 410.37725 
L 510.931229 386.501068 
L 531.958078 322.255019 
L 538.528968 303.074525 
L 543.785681 288.339213 
L 549.042393 274.25413 
L 554.299105 260.898578 
L 558.241639 251.396677 
L 562.184173 242.355645 
L 566.126707 233.786442 
L 570.069242 225.694261 
L 574.011776 218.079044 
L 577.95431 210.936067 
L 581.896844 204.256562 
L 585.839378 198.028344 
L 589.781912 192.236433 
L 593.724447 186.863645 
L 597.666981 181.891139 
L 601.609515 177.298912 
L 605.552049 173.066238 
L 609.494583 169.172055 
L 613.437117 165.595281 
L 617.379651 162.315089 
L 621.322186 159.311126 
L 622.636364 158.36776 
L 622.636364 158.36776 
" style="fill:none;stroke:#1f77b4;stroke-linecap:square;stroke-width:1.5;"/>
   </g>
   <g id="line2d_30">
    <path clip-path="url(#pfa2693b84f)" d="M 115.363636 605.290909 
L 150.846444 604.8539 
L 178.444183 604.296365 
L 200.78521 603.628081 
L 219.183702 602.870091 
L 236.268017 601.93963 
L 250.723976 600.931725 
L 263.865756 599.794724 
L 275.693358 598.551588 
L 286.206783 597.237266 
L 296.720207 595.690485 
L 305.919454 594.115302 
L 315.1187 592.301361 
L 323.003768 590.530472 
L 330.888837 588.534553 
L 338.773905 586.2867 
L 345.344795 584.199728 
L 351.915685 581.898558 
L 358.486576 579.363034 
L 365.057466 576.571509 
L 371.628356 573.500826 
L 376.885068 570.826759 
L 382.14178 567.944961 
L 387.398493 564.841537 
L 392.655205 561.502042 
L 397.911917 557.911526 
L 403.168629 554.054591 
L 408.425341 549.915474 
L 413.682054 545.478135 
L 418.938766 540.726374 
L 424.195478 535.643967 
L 429.45219 530.214828 
L 434.708902 524.423185 
L 439.965615 518.253795 
L 445.222327 511.69217 
L 450.479039 504.724838 
L 455.735751 497.339617 
L 460.992463 489.525913 
L 466.249176 481.275032 
L 471.505888 472.580504 
L 476.7626 463.438405 
L 482.019312 453.847684 
L 487.276024 443.810465 
L 492.532737 433.332333 
L 497.789449 422.422586 
L 504.360339 408.198958 
L 510.931229 393.356624 
L 517.50212 377.94044 
L 524.07301 362.005274 
L 531.958078 342.28939 
L 541.157325 318.632368 
L 552.984927 287.535662 
L 577.95431 221.666512 
L 587.153556 198.111283 
L 595.038625 178.510586 
L 601.609515 162.68864 
L 608.180405 147.399077 
L 614.751295 132.694501 
L 621.322186 118.617458 
L 622.636364 115.880385 
L 622.636364 115.880385 
" style="fill:none;stroke:#ff7f0e;stroke-linecap:square;stroke-width:1.5;"/>
   </g>
   <g id="line2d_31">
    <path clip-path="url(#pfa2693b84f)" d="M 115.363636 605.290909 
L 190.271785 605.121993 
L 227.068771 604.837208 
L 252.038154 604.441075 
L 271.750824 603.912332 
L 287.520961 603.270392 
L 300.662741 602.518975 
L 312.490344 601.612285 
L 323.003768 600.565705 
L 332.203015 599.413772 
L 340.088083 598.210421 
L 347.973151 596.766859 
L 354.544041 595.347554 
L 361.114932 593.699108 
L 367.685822 591.78674 
L 372.942534 590.040586 
L 378.199246 588.078156 
L 383.455959 585.875084 
L 388.712671 583.404899 
L 393.969383 580.639027 
L 399.226095 577.546838 
L 403.168629 574.994029 
L 407.111163 572.224997 
L 411.053698 569.224878 
L 414.996232 565.978423 
L 418.938766 562.470118 
L 422.8813 558.684327 
L 426.823834 554.605463 
L 430.766368 550.21819 
L 434.708902 545.507659 
L 438.651437 540.459766 
L 442.593971 535.061446 
L 446.536505 529.300991 
L 450.479039 523.168389 
L 454.421573 516.655674 
L 458.364107 509.75729 
L 462.306642 502.470439 
L 466.249176 494.795428 
L 470.19171 486.735968 
L 475.448422 475.405303 
L 480.705134 463.433018 
L 485.961846 450.860072 
L 491.218559 437.740091 
L 497.789449 420.671991 
L 505.674517 399.413831 
L 516.187942 370.252448 
L 533.272256 322.73494 
L 541.157325 301.496853 
L 547.728215 284.409645 
L 554.299105 268.009989 
L 559.555817 255.450546 
L 564.812529 243.429593 
L 570.069242 231.973266 
L 575.325954 221.097911 
L 580.582666 210.811055 
L 585.839378 201.112486 
L 591.09609 191.995403 
L 596.352803 183.447554 
L 601.609515 175.452315 
L 605.552049 169.806609 
L 609.494583 164.451166 
L 614.751295 157.744783 
L 620.008008 151.511878 
L 622.636364 148.565027 
L 622.636364 148.565027 
" style="fill:none;stroke:#2ca02c;stroke-linecap:square;stroke-width:1.5;"/>
   </g>
   <g id="line2d_32">
    <path clip-path="url(#pfa2693b84f)" d="M 115.363636 605.290909 
L 161.359868 605.07849 
L 192.900141 604.724728 
L 216.555346 604.253773 
L 236.268017 603.647699 
L 253.352332 602.894151 
L 267.80829 602.029473 
L 279.635893 601.120112 
L 291.463495 599.981472 
L 301.976919 598.732575 
L 311.176166 597.418963 
L 320.375412 595.860651 
L 328.26048 594.297732 
L 336.145549 592.492464 
L 342.716439 590.777794 
L 349.287329 588.848012 
L 355.85822 586.678359 
L 362.42911 584.241779 
L 367.685822 582.080642 
L 372.942534 579.713734 
L 378.199246 577.123936 
L 383.455959 574.293189 
L 388.712671 571.202555 
L 393.969383 567.832291 
L 399.226095 564.161961 
L 404.482807 560.170584 
L 409.73952 555.836821 
L 414.996232 551.139204 
L 420.252944 546.056417 
L 425.509656 540.567623 
L 430.766368 534.652848 
L 436.023081 528.293404 
L 441.279793 521.472368 
L 446.536505 514.175096 
L 451.793217 506.389765 
L 457.049929 498.107934 
L 462.306642 489.325097 
L 467.563354 480.04122 
L 472.820066 470.261226 
L 478.076778 459.995415 
L 483.33349 449.259772 
L 488.590203 438.076166 
L 495.161093 423.509611 
L 501.731983 408.35395 
L 509.617051 389.503244 
L 518.816298 366.799916 
L 530.6439 336.927105 
L 550.356571 287.075344 
L 559.555817 264.458518 
L 567.440886 245.670382 
L 574.011776 230.534302 
L 580.582666 215.936667 
L 587.153556 201.925222 
L 593.724447 188.535349 
L 598.981159 178.287295 
L 604.237871 168.459617 
L 609.494583 159.055519 
L 614.751295 150.074648 
L 620.008008 141.513532 
L 622.636364 137.388553 
L 622.636364 137.388553 
" style="fill:none;stroke:#d62728;stroke-linecap:square;stroke-width:1.5;"/>
   </g>
   <g id="line2d_33">
    <path clip-path="url(#pfa2693b84f)" d="M 115.363636 605.290909 
L 187.643429 605.173242 
L 228.382949 604.917502 
L 254.66651 604.542484 
L 274.37918 604.044279 
L 290.149317 603.424047 
L 303.291098 602.683186 
L 313.804522 601.888438 
L 323.003768 601.000876 
L 332.203015 599.887018 
L 340.088083 598.71033 
L 347.973151 597.284477 
L 354.544041 595.870133 
L 361.114932 594.2147 
L 366.371644 592.691329 
L 371.628356 590.967608 
L 376.885068 589.019675 
L 382.14178 586.82152 
L 387.398493 584.344991 
L 392.655205 581.559856 
L 396.597739 579.249201 
L 400.540273 576.732695 
L 404.482807 573.995676 
L 408.425341 571.02314 
L 412.367876 567.799863 
L 416.31041 564.310564 
L 420.252944 560.540089 
L 424.195478 556.47363 
L 428.138012 552.096962 
L 432.080546 547.396715 
L 436.023081 542.36066 
L 439.965615 536.978016 
L 443.908149 531.239762 
L 447.850683 525.138949 
L 451.793217 518.671009 
L 455.735751 511.83403 
L 459.678285 504.629011 
L 463.62082 497.060059 
L 468.877532 486.415218 
L 474.134244 475.163566 
L 479.390956 463.342301 
L 484.647668 450.998656 
L 491.218559 434.921161 
L 497.789449 418.243053 
L 505.674517 397.635836 
L 518.816298 362.525504 
L 533.272256 324.029183 
L 542.471503 300.223365 
L 550.356571 280.517443 
L 556.927461 264.700026 
L 563.498351 249.50095 
L 570.069242 234.968029 
L 575.325954 223.843952 
L 580.582666 213.178289 
L 585.839378 202.976874 
L 591.09609 193.241245 
L 596.352803 183.969201 
L 601.609515 175.15535 
L 606.866227 166.791609 
L 612.122939 158.867682 
L 617.379651 151.37148 
L 622.636364 144.289508 
L 622.636364 144.289508 
" style="fill:none;stroke:#9467bd;stroke-linecap:square;stroke-width:1.5;"/>
   </g>
   <g id="line2d_34">
    <path clip-path="url(#pfa2693b84f)" d="M 115.363636 605.290909 
L 142.961375 605.181239 
L 170.559114 604.853171 
L 192.900141 604.379617 
L 212.612812 603.745379 
L 229.697127 602.974021 
L 244.153085 602.112425 
L 257.294866 601.120455 
L 269.122468 600.020073 
L 279.635893 598.844488 
L 290.149317 597.449794 
L 299.348563 596.020587 
L 308.54781 594.36667 
L 316.432878 592.745781 
L 324.317946 590.913343 
L 332.203015 588.844174 
L 340.088083 586.510514 
L 346.658973 584.34185 
L 353.229863 581.949248 
L 359.800754 579.312153 
L 366.371644 576.408581 
L 372.942534 573.215123 
L 378.199246 570.435013 
L 383.455959 567.440205 
L 388.712671 564.216862 
L 393.969383 560.750675 
L 399.226095 557.02692 
L 404.482807 553.03053 
L 409.73952 548.746184 
L 414.996232 544.15841 
L 420.252944 539.251717 
L 425.509656 534.010736 
L 430.766368 528.420389 
L 436.023081 522.466077 
L 441.279793 516.133889 
L 446.536505 509.41083 
L 451.793217 502.285072 
L 457.049929 494.746209 
L 462.306642 486.785539 
L 467.563354 478.396339 
L 472.820066 469.574148 
L 478.076778 460.317045 
L 483.33349 450.625907 
L 488.590203 440.504654 
L 493.846915 429.960451 
L 500.417805 416.201886 
L 506.988695 401.827724 
L 513.559585 386.875216 
L 520.130476 371.390318 
L 528.015544 352.182702 
L 535.900612 332.395412 
L 545.099859 308.741016 
L 558.241639 274.291496 
L 580.582666 215.656482 
L 591.09609 188.777643 
L 598.981159 169.16859 
L 606.866227 150.148141 
L 613.437117 134.812091 
L 620.008008 119.989874 
L 622.636364 114.212987 
L 622.636364 114.212987 
" style="fill:none;stroke:#8c564b;stroke-linecap:square;stroke-width:1.5;"/>
   </g>
   <g id="line2d_35">
    <path clip-path="url(#pfa2693b84f)" d="M 115.363636 605.290909 
L 196.842675 605.181262 
L 236.268017 604.928186 
L 261.2374 604.548921 
L 279.635893 604.045078 
L 294.091851 603.425516 
L 305.919454 602.700322 
L 316.432878 601.826733 
L 325.632124 600.828599 
L 333.517193 599.751956 
L 340.088083 598.663477 
L 346.658973 597.366874 
L 353.229863 595.824514 
L 358.486576 594.384636 
L 363.743288 592.734499 
L 369 590.846076 
L 374.256712 588.688457 
L 379.513424 586.227823 
L 383.455959 584.161545 
L 387.398493 581.887812 
L 391.341027 579.389429 
L 395.283561 576.648576 
L 399.226095 573.64697 
L 403.168629 570.366075 
L 407.111163 566.787368 
L 411.053698 562.892659 
L 414.996232 558.664466 
L 418.938766 554.086456 
L 422.8813 549.143931 
L 426.823834 543.824371 
L 430.766368 538.118003 
L 434.708902 532.018395 
L 438.651437 525.523044 
L 442.593971 518.633936 
L 446.536505 511.358038 
L 450.479039 503.707704 
L 455.735751 492.95678 
L 460.992463 481.631564 
L 466.249176 469.808507 
L 472.820066 454.472136 
L 482.019312 432.343307 
L 496.475271 397.442704 
L 503.046161 382.094124 
L 509.617051 367.351716 
L 514.873764 356.102978 
L 520.130476 345.408912 
L 525.387188 335.316479 
L 529.329722 328.16109 
L 533.272256 321.369178 
L 537.21479 314.943823 
L 541.157325 308.884218 
L 545.099859 303.186158 
L 549.042393 297.842533 
L 552.984927 292.843815 
L 556.927461 288.178524 
L 560.869995 283.833659 
L 564.812529 279.795096 
L 568.755064 276.047934 
L 572.697598 272.576807 
L 576.640132 269.366144 
L 580.582666 266.400393 
L 584.5252 263.6642 
L 588.467734 261.142561 
L 593.724447 258.089071 
L 598.981159 255.358306 
L 604.237871 252.919338 
L 609.494583 250.743369 
L 614.751295 248.803791 
L 620.008008 247.076185 
L 622.636364 246.284824 
L 622.636364 246.284824 
" style="fill:none;stroke:#e377c2;stroke-linecap:square;stroke-width:1.5;"/>
   </g>
   <g id="line2d_36">
    <path clip-path="url(#pfa2693b84f)" d="M 115.363636 605.290909 
L 196.842675 605.181262 
L 236.268017 604.928186 
L 261.2374 604.548921 
L 279.635893 604.045078 
L 294.091851 603.425516 
L 305.919454 602.700322 
L 316.432878 601.826733 
L 325.632124 600.828599 
L 333.517193 599.751957 
L 340.088083 598.663477 
L 346.658973 597.366874 
L 353.229863 595.824514 
L 358.486576 594.384636 
L 363.743288 592.734499 
L 369 590.846076 
L 374.256712 588.688457 
L 379.513424 586.227823 
L 383.455959 584.161545 
L 387.398493 581.887812 
L 391.341027 579.389429 
L 395.283561 576.648576 
L 399.226095 573.64697 
L 403.168629 570.366075 
L 407.111163 566.787369 
L 411.053698 562.892659 
L 414.996232 558.664467 
L 418.938766 554.086457 
L 422.8813 549.143932 
L 426.823834 543.824372 
L 430.766368 538.118003 
L 434.708902 532.018395 
L 438.651437 525.523045 
L 442.593971 518.633937 
L 446.536505 511.358039 
L 450.479039 503.707705 
L 455.735751 492.956781 
L 460.992463 481.631565 
L 466.249176 469.808508 
L 472.820066 454.472137 
L 482.019312 432.343308 
L 496.475271 397.442705 
L 503.046161 382.094125 
L 509.617051 367.351717 
L 514.873764 356.102979 
L 520.130476 345.408914 
L 525.387188 335.316481 
L 529.329722 328.161092 
L 533.272256 321.36918 
L 537.21479 314.943824 
L 541.157325 308.884219 
L 545.099859 303.186159 
L 549.042393 297.842534 
L 552.984927 292.843816 
L 556.927461 288.178525 
L 560.869995 283.83366 
L 564.812529 279.795097 
L 568.755064 276.047935 
L 572.697598 272.576808 
L 576.640132 269.366145 
L 580.582666 266.400394 
L 584.5252 263.664201 
L 588.467734 261.142562 
L 593.724447 258.089071 
L 598.981159 255.358307 
L 604.237871 252.919339 
L 609.494583 250.743369 
L 614.751295 248.803791 
L 620.008008 247.076185 
L 622.636364 246.284825 
L 622.636364 246.284825 
" style="fill:none;stroke:#7f7f7f;stroke-linecap:square;stroke-width:1.5;"/>
   </g>
   <g id="line2d_37">
    <path clip-path="url(#pfa2693b84f)" d="M 115.363636 605.290909 
L 148.218088 605.179432 
L 175.815827 604.878827 
L 198.156854 604.422254 
L 216.555346 603.84073 
L 233.639661 603.075126 
L 248.095619 602.206608 
L 261.2374 601.195308 
L 273.065002 600.063538 
L 283.578427 598.845941 
L 294.091851 597.392822 
L 303.291098 595.896259 
L 312.490344 594.156996 
L 320.375412 592.446326 
L 328.26048 590.506529 
L 336.145549 588.310134 
L 342.716439 586.262094 
L 349.287329 583.995969 
L 355.85822 581.49139 
L 362.42911 578.726576 
L 369 575.678351 
L 374.256712 573.019276 
L 379.513424 570.149991 
L 384.770137 567.056857 
L 390.026849 563.725798 
L 395.283561 560.142364 
L 400.540273 556.291812 
L 405.796985 552.159196 
L 411.053698 547.729485 
L 416.31041 542.98769 
L 421.567122 537.919012 
L 426.823834 532.50901 
L 432.080546 526.743787 
L 437.337259 520.610189 
L 442.593971 514.096021 
L 447.850683 507.190275 
L 453.107395 499.883366 
L 458.364107 492.167366 
L 463.62082 484.036247 
L 468.877532 475.486105 
L 474.134244 466.51538 
L 479.390956 457.125044 
L 484.647668 447.318773 
L 489.904381 437.103077 
L 496.475271 423.772358 
L 503.046161 409.841825 
L 509.617051 395.343643 
L 516.187942 380.316952 
L 524.07301 361.65204 
L 531.958078 342.38222 
L 541.157325 319.270474 
L 551.670749 292.237901 
L 568.755064 247.576582 
L 587.153556 199.623702 
L 597.666981 172.790052 
L 606.866227 149.865353 
L 614.751295 130.725871 
L 622.636364 112.126774 
L 622.636364 112.126774 
" style="fill:none;stroke:#bcbd22;stroke-linecap:square;stroke-width:1.5;"/>
   </g>
   <g id="line2d_38">
    <path clip-path="url(#pfa2693b84f)" d="M 115.363636 605.290909 
L 132.447951 605.184079 
L 141.647197 605.011168 
L 146.90391 604.874601 
L 167.930758 604.61138 
L 199.471032 604.479219 
L 207.3561 604.347057 
L 219.183702 604.17745 
L 223.126236 604.078329 
L 236.268017 603.921939 
L 240.210551 603.851453 
L 258.609044 603.613562 
L 263.865756 603.494617 
L 283.578427 603.090424 
L 286.206783 602.917513 
L 288.835139 602.641076 
L 292.777673 602.442834 
L 298.034385 602.105823 
L 300.662741 601.886655 
L 317.747056 599.730224 
L 320.375412 599.058404 
L 329.574659 596.812764 
L 332.203015 596.007681 
L 336.145549 594.558313 
L 342.716439 591.320362 
L 345.344795 590.231133 
L 346.658973 589.613279 
L 350.601507 587.380855 
L 351.915685 586.725555 
L 354.544041 585.726636 
L 358.486576 583.840034 
L 361.114932 582.809176 
L 363.743288 581.820169 
L 367.685822 579.99304 
L 370.314178 578.531556 
L 371.628356 577.32999 
L 372.942534 577.277126 
L 375.57089 575.824453 
L 378.199246 574.140498 
L 379.513424 573.032546 
L 380.827602 572.279227 
L 383.455959 570.291301 
L 386.084315 567.901385 
L 387.398493 566.491665 
L 391.341027 563.038952 
L 396.597739 557.403375 
L 397.911917 556.315247 
L 400.540273 553.632374 
L 404.482807 548.949459 
L 405.796985 547.420794 
L 408.425341 545.145417 
L 411.053698 542.257694 
L 413.682054 539.100141 
L 414.996232 537.810467 
L 416.31041 536.70692 
L 417.624588 535.982236 
L 425.509656 526.680286 
L 426.823834 525.803616 
L 433.394724 515.845264 
L 434.708902 514.315498 
L 436.023081 513.126046 
L 437.337259 511.460814 
L 438.651437 509.381477 
L 441.279793 504.721691 
L 442.593971 502.773414 
L 445.222327 500.286579 
L 446.536505 498.577293 
L 450.479039 492.299633 
L 451.793217 490.471402 
L 453.107395 489.190539 
L 454.421573 488.071574 
L 455.735751 486.411849 
L 458.364107 482.014182 
L 460.992463 478.338998 
L 462.306642 477.025095 
L 463.62082 475.878596 
L 464.934998 474.570199 
L 466.249176 472.7684 
L 468.877532 468.758407 
L 470.19171 466.890528 
L 471.505888 465.496227 
L 472.820066 464.394883 
L 474.134244 462.730752 
L 475.448422 460.702077 
L 478.076778 457.400248 
L 479.390956 457.400248 
L 480.705134 454.297762 
L 483.33349 452.069743 
L 484.647668 450.666631 
L 485.961846 448.708442 
L 488.590203 445.340532 
L 489.904381 443.936318 
L 491.218559 442.73255 
L 492.532737 441.340451 
L 496.475271 434.658597 
L 499.103627 431.178351 
L 500.417805 429.876562 
L 501.731983 428.011987 
L 503.046161 425.538369 
L 504.360339 422.555929 
L 505.674517 420.203459 
L 506.988695 418.658273 
L 509.617051 414.970974 
L 510.931229 412.440086 
L 512.245407 409.270418 
L 513.559585 405.408005 
L 516.187942 400.005913 
L 518.816298 393.694111 
L 520.130476 389.707246 
L 521.444654 385.119048 
L 522.758832 379.861232 
L 525.387188 367.907245 
L 526.701366 363.784915 
L 528.015544 360.376256 
L 529.329722 355.357431 
L 531.958078 344.141345 
L 534.586434 330.896583 
L 535.900612 326.872273 
L 537.21479 323.409648 
L 541.157325 308.778294 
L 542.471503 305.231967 
L 543.785681 300.687822 
L 545.099859 297.372776 
L 546.414037 294.452012 
L 547.728215 290.591802 
L 549.042393 286.289953 
L 550.356571 282.438553 
L 551.670749 278.996854 
L 552.984927 276.099218 
L 555.613283 271.518728 
L 556.927461 268.468006 
L 559.555817 261.389669 
L 560.869995 258.007441 
L 562.184173 255.258487 
L 564.812529 250.694518 
L 566.126707 247.51604 
L 570.069242 237.353939 
L 571.38342 234.153434 
L 572.697598 231.807571 
L 574.011776 229.892334 
L 575.325954 226.882362 
L 576.640132 224.15213 
L 577.95431 221.145461 
L 580.582666 216.122232 
L 583.211022 212.550573 
L 584.5252 209.551614 
L 588.467734 198.147198 
L 589.781912 194.733032 
L 591.09609 192.246197 
L 592.410268 190.16686 
L 593.724447 186.754897 
L 596.352803 179.230515 
L 598.981159 172.225968 
L 601.609515 167.094807 
L 602.923693 162.756613 
L 605.552049 154.955794 
L 606.866227 151.728857 
L 608.180405 147.848822 
L 609.494583 144.450075 
L 610.808761 142.792552 
L 613.437117 135.056713 
L 616.065473 126.967342 
L 617.379651 124.486014 
L 618.693829 121.189692 
L 620.008008 119.597148 
L 622.636364 111.109091 
L 622.636364 111.109091 
" style="fill:none;stroke:#17becf;stroke-dasharray:14.8,6.4;stroke-dashoffset:0;stroke-width:4;"/>
   </g>
   <g id="patch_3">
    <path d="M 90 630 
L 90 86.4 
" style="fill:none;stroke:#000000;stroke-linecap:square;stroke-linejoin:miter;stroke-width:0.8;"/>
   </g>
   <g id="patch_4">
    <path d="M 648 630 
L 648 86.4 
" style="fill:none;stroke:#000000;stroke-linecap:square;stroke-linejoin:miter;stroke-width:0.8;"/>
   </g>
   <g id="patch_5">
    <path d="M 90 630 
L 648 630 
" style="fill:none;stroke:#000000;stroke-linecap:square;stroke-linejoin:miter;stroke-width:0.8;"/>
   </g>
   <g id="patch_6">
    <path d="M 90 86.4 
L 648 86.4 
" style="fill:none;stroke:#000000;stroke-linecap:square;stroke-linejoin:miter;stroke-width:0.8;"/>
   </g>
   <g id="text_17">
    <!-- Lebanon relative err =  -->
    <g transform="translate(299.503125 80.4)scale(0.12 -0.12)">
     <defs>
      <path d="M 9.8125 72.90625 
L 19.671875 72.90625 
L 19.671875 8.296875 
L 55.171875 8.296875 
L 55.171875 0 
L 9.8125 0 
z
" id="DejaVuSans-76"/>
      <path d="M 48.6875 27.296875 
Q 48.6875 37.203125 44.609375 42.84375 
Q 40.53125 48.484375 33.40625 48.484375 
Q 26.265625 48.484375 22.1875 42.84375 
Q 18.109375 37.203125 18.109375 27.296875 
Q 18.109375 17.390625 22.1875 11.75 
Q 26.265625 6.109375 33.40625 6.109375 
Q 40.53125 6.109375 44.609375 11.75 
Q 48.6875 17.390625 48.6875 27.296875 
z
M 18.109375 46.390625 
Q 20.953125 51.265625 25.265625 53.625 
Q 29.59375 56 35.59375 56 
Q 45.5625 56 51.78125 48.09375 
Q 58.015625 40.1875 58.015625 27.296875 
Q 58.015625 14.40625 51.78125 6.484375 
Q 45.5625 -1.421875 35.59375 -1.421875 
Q 29.59375 -1.421875 25.265625 0.953125 
Q 20.953125 3.328125 18.109375 8.203125 
L 18.109375 0 
L 9.078125 0 
L 9.078125 75.984375 
L 18.109375 75.984375 
z
" id="DejaVuSans-98"/>
      <path d="M 54.890625 33.015625 
L 54.890625 0 
L 45.90625 0 
L 45.90625 32.71875 
Q 45.90625 40.484375 42.875 44.328125 
Q 39.84375 48.1875 33.796875 48.1875 
Q 26.515625 48.1875 22.3125 43.546875 
Q 18.109375 38.921875 18.109375 30.90625 
L 18.109375 0 
L 9.078125 0 
L 9.078125 54.6875 
L 18.109375 54.6875 
L 18.109375 46.1875 
Q 21.34375 51.125 25.703125 53.5625 
Q 30.078125 56 35.796875 56 
Q 45.21875 56 50.046875 50.171875 
Q 54.890625 44.34375 54.890625 33.015625 
z
" id="DejaVuSans-110"/>
      <path d="M 30.609375 48.390625 
Q 23.390625 48.390625 19.1875 42.75 
Q 14.984375 37.109375 14.984375 27.296875 
Q 14.984375 17.484375 19.15625 11.84375 
Q 23.34375 6.203125 30.609375 6.203125 
Q 37.796875 6.203125 41.984375 11.859375 
Q 46.1875 17.53125 46.1875 27.296875 
Q 46.1875 37.015625 41.984375 42.703125 
Q 37.796875 48.390625 30.609375 48.390625 
z
M 30.609375 56 
Q 42.328125 56 49.015625 48.375 
Q 55.71875 40.765625 55.71875 27.296875 
Q 55.71875 13.875 49.015625 6.21875 
Q 42.328125 -1.421875 30.609375 -1.421875 
Q 18.84375 -1.421875 12.171875 6.21875 
Q 5.515625 13.875 5.515625 27.296875 
Q 5.515625 40.765625 12.171875 48.375 
Q 18.84375 56 30.609375 56 
z
" id="DejaVuSans-111"/>
      <path d="M 41.109375 46.296875 
Q 39.59375 47.171875 37.8125 47.578125 
Q 36.03125 48 33.890625 48 
Q 26.265625 48 22.1875 43.046875 
Q 18.109375 38.09375 18.109375 28.8125 
L 18.109375 0 
L 9.078125 0 
L 9.078125 54.6875 
L 18.109375 54.6875 
L 18.109375 46.1875 
Q 20.953125 51.171875 25.484375 53.578125 
Q 30.03125 56 36.53125 56 
Q 37.453125 56 38.578125 55.875 
Q 39.703125 55.765625 41.0625 55.515625 
z
" id="DejaVuSans-114"/>
      <path d="M 10.59375 45.40625 
L 73.1875 45.40625 
L 73.1875 37.203125 
L 10.59375 37.203125 
z
M 10.59375 25.484375 
L 73.1875 25.484375 
L 73.1875 17.1875 
L 10.59375 17.1875 
z
" id="DejaVuSans-61"/>
     </defs>
     <use xlink:href="#DejaVuSans-76"/>
     <use x="53.962891" xlink:href="#DejaVuSans-101"/>
     <use x="115.486328" xlink:href="#DejaVuSans-98"/>
     <use x="178.962891" xlink:href="#DejaVuSans-97"/>
     <use x="240.242188" xlink:href="#DejaVuSans-110"/>
     <use x="303.621094" xlink:href="#DejaVuSans-111"/>
     <use x="364.802734" xlink:href="#DejaVuSans-110"/>
     <use x="428.181641" xlink:href="#DejaVuSans-32"/>
     <use x="459.96875" xlink:href="#DejaVuSans-114"/>
     <use x="498.832031" xlink:href="#DejaVuSans-101"/>
     <use x="560.355469" xlink:href="#DejaVuSans-108"/>
     <use x="588.138672" xlink:href="#DejaVuSans-97"/>
     <use x="649.417969" xlink:href="#DejaVuSans-116"/>
     <use x="688.626953" xlink:href="#DejaVuSans-105"/>
     <use x="716.410156" xlink:href="#DejaVuSans-118"/>
     <use x="775.589844" xlink:href="#DejaVuSans-101"/>
     <use x="837.113281" xlink:href="#DejaVuSans-32"/>
     <use x="868.900391" xlink:href="#DejaVuSans-101"/>
     <use x="930.423828" xlink:href="#DejaVuSans-114"/>
     <use x="969.787109" xlink:href="#DejaVuSans-114"/>
     <use x="1010.900391" xlink:href="#DejaVuSans-32"/>
     <use x="1042.6875" xlink:href="#DejaVuSans-61"/>
     <use x="1126.476562" xlink:href="#DejaVuSans-32"/>
    </g>
   </g>
   <g id="legend_1">
    <g id="patch_7">
     <path d="M 97 226.503125 
L 185.6 226.503125 
Q 187.6 226.503125 187.6 224.503125 
L 187.6 93.4 
Q 187.6 91.4 185.6 91.4 
L 97 91.4 
Q 95 91.4 95 93.4 
L 95 224.503125 
Q 95 226.503125 97 226.503125 
z
" style="fill:#ffffff;opacity:0.8;stroke:#cccccc;stroke-linejoin:miter;"/>
    </g>
    <g id="line2d_39">
     <path d="M 99 99.498438 
L 119 99.498438 
" style="fill:none;stroke:#1f77b4;stroke-linecap:square;stroke-width:1.5;"/>
    </g>
    <g id="line2d_40"/>
    <g id="text_18">
     <!-- SI -->
     <g transform="translate(127 102.998438)scale(0.1 -0.1)">
      <defs>
       <path d="M 53.515625 70.515625 
L 53.515625 60.890625 
Q 47.90625 63.578125 42.921875 64.890625 
Q 37.9375 66.21875 33.296875 66.21875 
Q 25.25 66.21875 20.875 63.09375 
Q 16.5 59.96875 16.5 54.203125 
Q 16.5 49.359375 19.40625 46.890625 
Q 22.3125 44.4375 30.421875 42.921875 
L 36.375 41.703125 
Q 47.40625 39.59375 52.65625 34.296875 
Q 57.90625 29 57.90625 20.125 
Q 57.90625 9.515625 50.796875 4.046875 
Q 43.703125 -1.421875 29.984375 -1.421875 
Q 24.8125 -1.421875 18.96875 -0.25 
Q 13.140625 0.921875 6.890625 3.21875 
L 6.890625 13.375 
Q 12.890625 10.015625 18.65625 8.296875 
Q 24.421875 6.59375 29.984375 6.59375 
Q 38.421875 6.59375 43.015625 9.90625 
Q 47.609375 13.234375 47.609375 19.390625 
Q 47.609375 24.75 44.3125 27.78125 
Q 41.015625 30.8125 33.5 32.328125 
L 27.484375 33.5 
Q 16.453125 35.6875 11.515625 40.375 
Q 6.59375 45.0625 6.59375 53.421875 
Q 6.59375 63.09375 13.40625 68.65625 
Q 20.21875 74.21875 32.171875 74.21875 
Q 37.3125 74.21875 42.625 73.28125 
Q 47.953125 72.359375 53.515625 70.515625 
z
" id="DejaVuSans-83"/>
       <path d="M 9.8125 72.90625 
L 19.671875 72.90625 
L 19.671875 0 
L 9.8125 0 
z
" id="DejaVuSans-73"/>
      </defs>
      <use xlink:href="#DejaVuSans-83"/>
      <use x="63.476562" xlink:href="#DejaVuSans-73"/>
     </g>
    </g>
    <g id="line2d_41">
     <path d="M 99 114.176563 
L 119 114.176563 
" style="fill:none;stroke:#ff7f0e;stroke-linecap:square;stroke-width:1.5;"/>
    </g>
    <g id="line2d_42"/>
    <g id="text_19">
     <!-- BD -->
     <g transform="translate(127 117.676563)scale(0.1 -0.1)">
      <defs>
       <path d="M 19.671875 34.8125 
L 19.671875 8.109375 
L 35.5 8.109375 
Q 43.453125 8.109375 47.28125 11.40625 
Q 51.125 14.703125 51.125 21.484375 
Q 51.125 28.328125 47.28125 31.5625 
Q 43.453125 34.8125 35.5 34.8125 
z
M 19.671875 64.796875 
L 19.671875 42.828125 
L 34.28125 42.828125 
Q 41.5 42.828125 45.03125 45.53125 
Q 48.578125 48.25 48.578125 53.8125 
Q 48.578125 59.328125 45.03125 62.0625 
Q 41.5 64.796875 34.28125 64.796875 
z
M 9.8125 72.90625 
L 35.015625 72.90625 
Q 46.296875 72.90625 52.390625 68.21875 
Q 58.5 63.53125 58.5 54.890625 
Q 58.5 48.1875 55.375 44.234375 
Q 52.25 40.28125 46.1875 39.3125 
Q 53.46875 37.75 57.5 32.78125 
Q 61.53125 27.828125 61.53125 20.40625 
Q 61.53125 10.640625 54.890625 5.3125 
Q 48.25 0 35.984375 0 
L 9.8125 0 
z
" id="DejaVuSans-66"/>
      </defs>
      <use xlink:href="#DejaVuSans-66"/>
      <use x="68.603516" xlink:href="#DejaVuSans-68"/>
     </g>
    </g>
    <g id="line2d_43">
     <path d="M 99 128.854688 
L 119 128.854688 
" style="fill:none;stroke:#2ca02c;stroke-linecap:square;stroke-width:1.5;"/>
    </g>
    <g id="line2d_44"/>
    <g id="text_20">
     <!-- SIR -->
     <g transform="translate(127 132.354688)scale(0.1 -0.1)">
      <defs>
       <path d="M 44.390625 34.1875 
Q 47.5625 33.109375 50.5625 29.59375 
Q 53.5625 26.078125 56.59375 19.921875 
L 66.609375 0 
L 56 0 
L 46.6875 18.703125 
Q 43.0625 26.03125 39.671875 28.421875 
Q 36.28125 30.8125 30.421875 30.8125 
L 19.671875 30.8125 
L 19.671875 0 
L 9.8125 0 
L 9.8125 72.90625 
L 32.078125 72.90625 
Q 44.578125 72.90625 50.734375 67.671875 
Q 56.890625 62.453125 56.890625 51.90625 
Q 56.890625 45.015625 53.6875 40.46875 
Q 50.484375 35.9375 44.390625 34.1875 
z
M 19.671875 64.796875 
L 19.671875 38.921875 
L 32.078125 38.921875 
Q 39.203125 38.921875 42.84375 42.21875 
Q 46.484375 45.515625 46.484375 51.90625 
Q 46.484375 58.296875 42.84375 61.546875 
Q 39.203125 64.796875 32.078125 64.796875 
z
" id="DejaVuSans-82"/>
      </defs>
      <use xlink:href="#DejaVuSans-83"/>
      <use x="63.476562" xlink:href="#DejaVuSans-73"/>
      <use x="92.96875" xlink:href="#DejaVuSans-82"/>
     </g>
    </g>
    <g id="line2d_45">
     <path d="M 99 143.532812 
L 119 143.532812 
" style="fill:none;stroke:#d62728;stroke-linecap:square;stroke-width:1.5;"/>
    </g>
    <g id="line2d_46"/>
    <g id="text_21">
     <!-- eSIR -->
     <g transform="translate(127 147.032812)scale(0.1 -0.1)">
      <use xlink:href="#DejaVuSans-101"/>
      <use x="61.523438" xlink:href="#DejaVuSans-83"/>
      <use x="125" xlink:href="#DejaVuSans-73"/>
      <use x="154.492188" xlink:href="#DejaVuSans-82"/>
     </g>
    </g>
    <g id="line2d_47">
     <path d="M 99 158.210938 
L 119 158.210938 
" style="fill:none;stroke:#9467bd;stroke-linecap:square;stroke-width:1.5;"/>
    </g>
    <g id="line2d_48"/>
    <g id="text_22">
     <!-- SEIR -->
     <g transform="translate(127 161.710938)scale(0.1 -0.1)">
      <defs>
       <path d="M 9.8125 72.90625 
L 55.90625 72.90625 
L 55.90625 64.59375 
L 19.671875 64.59375 
L 19.671875 43.015625 
L 54.390625 43.015625 
L 54.390625 34.71875 
L 19.671875 34.71875 
L 19.671875 8.296875 
L 56.78125 8.296875 
L 56.78125 0 
L 9.8125 0 
z
" id="DejaVuSans-69"/>
      </defs>
      <use xlink:href="#DejaVuSans-83"/>
      <use x="63.476562" xlink:href="#DejaVuSans-69"/>
      <use x="126.660156" xlink:href="#DejaVuSans-73"/>
      <use x="156.152344" xlink:href="#DejaVuSans-82"/>
     </g>
    </g>
    <g id="line2d_49">
     <path d="M 99 172.889063 
L 119 172.889063 
" style="fill:none;stroke:#8c564b;stroke-linecap:square;stroke-width:1.5;"/>
    </g>
    <g id="line2d_50"/>
    <g id="text_23">
     <!-- eSEIR -->
     <g transform="translate(127 176.389063)scale(0.1 -0.1)">
      <use xlink:href="#DejaVuSans-101"/>
      <use x="61.523438" xlink:href="#DejaVuSans-83"/>
      <use x="125" xlink:href="#DejaVuSans-69"/>
      <use x="188.183594" xlink:href="#DejaVuSans-73"/>
      <use x="217.675781" xlink:href="#DejaVuSans-82"/>
     </g>
    </g>
    <g id="line2d_51">
     <path d="M 99 187.567188 
L 119 187.567188 
" style="fill:none;stroke:#e377c2;stroke-linecap:square;stroke-width:1.5;"/>
    </g>
    <g id="line2d_52"/>
    <g id="text_24">
     <!-- SEIUR -->
     <g transform="translate(127 191.067188)scale(0.1 -0.1)">
      <defs>
       <path d="M 8.6875 72.90625 
L 18.609375 72.90625 
L 18.609375 28.609375 
Q 18.609375 16.890625 22.84375 11.734375 
Q 27.09375 6.59375 36.625 6.59375 
Q 46.09375 6.59375 50.34375 11.734375 
Q 54.59375 16.890625 54.59375 28.609375 
L 54.59375 72.90625 
L 64.5 72.90625 
L 64.5 27.390625 
Q 64.5 13.140625 57.4375 5.859375 
Q 50.390625 -1.421875 36.625 -1.421875 
Q 22.796875 -1.421875 15.734375 5.859375 
Q 8.6875 13.140625 8.6875 27.390625 
z
" id="DejaVuSans-85"/>
      </defs>
      <use xlink:href="#DejaVuSans-83"/>
      <use x="63.476562" xlink:href="#DejaVuSans-69"/>
      <use x="126.660156" xlink:href="#DejaVuSans-73"/>
      <use x="156.152344" xlink:href="#DejaVuSans-85"/>
      <use x="229.345703" xlink:href="#DejaVuSans-82"/>
     </g>
    </g>
    <g id="line2d_53">
     <path d="M 99 202.245312 
L 119 202.245312 
" style="fill:none;stroke:#7f7f7f;stroke-linecap:square;stroke-width:1.5;"/>
    </g>
    <g id="line2d_54"/>
    <g id="text_25">
     <!-- eSEIUR -->
     <g transform="translate(127 205.745312)scale(0.1 -0.1)">
      <use xlink:href="#DejaVuSans-101"/>
      <use x="61.523438" xlink:href="#DejaVuSans-83"/>
      <use x="125" xlink:href="#DejaVuSans-69"/>
      <use x="188.183594" xlink:href="#DejaVuSans-73"/>
      <use x="217.675781" xlink:href="#DejaVuSans-85"/>
      <use x="290.869141" xlink:href="#DejaVuSans-82"/>
     </g>
    </g>
    <g id="line2d_55">
     <path d="M 99 216.923437 
L 119 216.923437 
" style="fill:none;stroke:#bcbd22;stroke-linecap:square;stroke-width:1.5;"/>
    </g>
    <g id="line2d_56"/>
    <g id="text_26">
     <!-- eSEIUR$^{range}$ -->
     <g transform="translate(127 220.423437)scale(0.1 -0.1)">
      <defs>
       <path d="M 44.578125 46.390625 
Q 43.21875 47.125 41.453125 47.515625 
Q 39.703125 47.90625 37.703125 47.90625 
Q 30.515625 47.90625 25.140625 42.453125 
Q 19.78125 37.015625 18.015625 27.875 
L 12.5 0 
L 3.515625 0 
L 14.203125 54.6875 
L 23.1875 54.6875 
L 21.484375 46.1875 
Q 25.046875 50.921875 30 53.453125 
Q 34.96875 56 40.578125 56 
Q 42.046875 56 43.453125 55.828125 
Q 44.875 55.671875 46.296875 55.28125 
z
" id="DejaVuSans-Oblique-114"/>
       <path d="M 53.71875 31.203125 
L 47.609375 0 
L 38.625 0 
L 40.28125 8.296875 
Q 36.328125 3.421875 31.265625 1 
Q 26.21875 -1.421875 20.015625 -1.421875 
Q 13.03125 -1.421875 8.5625 2.84375 
Q 4.109375 7.125 4.109375 13.8125 
Q 4.109375 23.390625 11.75 28.953125 
Q 19.390625 34.515625 32.8125 34.515625 
L 45.3125 34.515625 
L 45.796875 36.921875 
Q 45.90625 37.3125 45.953125 37.765625 
Q 46 38.234375 46 39.203125 
Q 46 43.5625 42.453125 45.96875 
Q 38.921875 48.390625 32.515625 48.390625 
Q 28.125 48.390625 23.5 47.265625 
Q 18.890625 46.140625 14.015625 43.890625 
L 15.578125 52.203125 
Q 20.65625 54.109375 25.515625 55.046875 
Q 30.375 56 34.90625 56 
Q 44.578125 56 49.625 51.796875 
Q 54.6875 47.609375 54.6875 39.59375 
Q 54.6875 37.984375 54.4375 35.8125 
Q 54.203125 33.640625 53.71875 31.203125 
z
M 44 27.484375 
L 35.015625 27.484375 
Q 23.96875 27.484375 18.671875 24.53125 
Q 13.375 21.578125 13.375 15.375 
Q 13.375 11.078125 16.078125 8.640625 
Q 18.796875 6.203125 23.578125 6.203125 
Q 30.90625 6.203125 36.375 11.453125 
Q 41.84375 16.703125 43.609375 25.484375 
z
" id="DejaVuSans-Oblique-97"/>
       <path d="M 55.71875 33.015625 
L 49.3125 0 
L 40.28125 0 
L 46.6875 32.671875 
Q 47.125 34.96875 47.359375 36.71875 
Q 47.609375 38.484375 47.609375 39.5 
Q 47.609375 43.609375 45.015625 45.890625 
Q 42.4375 48.1875 37.796875 48.1875 
Q 30.5625 48.1875 25.34375 43.375 
Q 20.125 38.578125 18.5 30.328125 
L 12.5 0 
L 3.515625 0 
L 14.109375 54.6875 
L 23.09375 54.6875 
L 21.296875 46.09375 
Q 25.046875 50.828125 30.3125 53.40625 
Q 35.59375 56 41.40625 56 
Q 48.640625 56 52.609375 52.09375 
Q 56.59375 48.1875 56.59375 41.109375 
Q 56.59375 39.359375 56.375 37.359375 
Q 56.15625 35.359375 55.71875 33.015625 
z
" id="DejaVuSans-Oblique-110"/>
       <path d="M 59.625 54.6875 
L 50.296875 6.78125 
Q 47.609375 -7.125 40.015625 -13.953125 
Q 32.421875 -20.796875 19.578125 -20.796875 
Q 14.84375 -20.796875 10.78125 -20.09375 
Q 6.734375 -19.390625 3.21875 -17.921875 
L 4.890625 -9.1875 
Q 8.203125 -11.328125 11.90625 -12.34375 
Q 15.625 -13.375 19.828125 -13.375 
Q 28.375 -13.375 33.859375 -8.703125 
Q 39.359375 -4.046875 41.109375 4.6875 
L 41.890625 8.796875 
Q 38.140625 4.5 33.15625 2.25 
Q 28.171875 0 22.40625 0 
Q 14.109375 0 9.34375 5.484375 
Q 4.59375 10.984375 4.59375 20.609375 
Q 4.59375 28.171875 7.46875 35.421875 
Q 10.359375 42.671875 15.578125 48.296875 
Q 19.046875 52 23.65625 54 
Q 28.265625 56 33.296875 56 
Q 38.8125 56 42.90625 53.4375 
Q 47.015625 50.875 49.03125 46.1875 
L 50.59375 54.6875 
z
M 46.09375 34.625 
Q 46.09375 41.265625 42.96875 44.875 
Q 39.84375 48.484375 34.078125 48.484375 
Q 30.515625 48.484375 27.296875 47.0625 
Q 24.078125 45.65625 21.78125 43.109375 
Q 18.0625 38.921875 15.984375 33.234375 
Q 13.921875 27.546875 13.921875 21.484375 
Q 13.921875 14.75 17.0625 11.125 
Q 20.21875 7.515625 26.125 7.515625 
Q 34.671875 7.515625 40.375 15.25 
Q 46.09375 23 46.09375 34.625 
z
" id="DejaVuSans-Oblique-103"/>
       <path d="M 48.09375 32.234375 
Q 48.25 33.015625 48.3125 33.84375 
Q 48.390625 34.671875 48.390625 35.5 
Q 48.390625 41.453125 44.890625 44.921875 
Q 41.40625 48.390625 35.40625 48.390625 
Q 28.71875 48.390625 23.578125 44.15625 
Q 18.453125 39.9375 15.828125 32.171875 
z
M 55.90625 25.203125 
L 14.109375 25.203125 
Q 13.8125 23.34375 13.71875 22.265625 
Q 13.625 21.1875 13.625 20.40625 
Q 13.625 13.625 17.796875 9.90625 
Q 21.96875 6.203125 29.59375 6.203125 
Q 35.453125 6.203125 40.671875 7.515625 
Q 45.90625 8.84375 50.390625 11.375 
L 48.6875 2.484375 
Q 43.84375 0.53125 38.6875 -0.4375 
Q 33.546875 -1.421875 28.21875 -1.421875 
Q 16.84375 -1.421875 10.71875 4.015625 
Q 4.59375 9.46875 4.59375 19.484375 
Q 4.59375 28.03125 7.640625 35.375 
Q 10.6875 42.71875 16.609375 48.484375 
Q 20.40625 52.09375 25.65625 54.046875 
Q 30.90625 56 36.8125 56 
Q 46.09375 56 51.578125 50.4375 
Q 57.078125 44.875 57.078125 35.5 
Q 57.078125 33.25 56.78125 30.6875 
Q 56.5 28.125 55.90625 25.203125 
z
" id="DejaVuSans-Oblique-101"/>
      </defs>
      <use transform="translate(0 0.51875)" xlink:href="#DejaVuSans-101"/>
      <use transform="translate(61.523438 0.51875)" xlink:href="#DejaVuSans-83"/>
      <use transform="translate(125 0.51875)" xlink:href="#DejaVuSans-69"/>
      <use transform="translate(188.183594 0.51875)" xlink:href="#DejaVuSans-73"/>
      <use transform="translate(217.675781 0.51875)" xlink:href="#DejaVuSans-85"/>
      <use transform="translate(288.619141 0.51875)" xlink:href="#DejaVuSans-82"/>
      <use transform="translate(359.058594 38.8)scale(0.7)" xlink:href="#DejaVuSans-Oblique-114"/>
      <use transform="translate(387.837891 38.8)scale(0.7)" xlink:href="#DejaVuSans-Oblique-97"/>
      <use transform="translate(430.733398 38.8)scale(0.7)" xlink:href="#DejaVuSans-Oblique-110"/>
      <use transform="translate(475.098633 38.8)scale(0.7)" xlink:href="#DejaVuSans-Oblique-103"/>
      <use transform="translate(519.532227 38.8)scale(0.7)" xlink:href="#DejaVuSans-Oblique-101"/>
     </g>
    </g>
   </g>
  </g>
 </g>
 <defs>
  <clipPath id="pfa2693b84f">
   <rect height="543.6" width="558" x="90" y="86.4"/>
  </clipPath>
 </defs>
</svg>
