<?xml version="1.0" encoding="utf-8" standalone="no"?>
<!DOCTYPE svg PUBLIC "-//W3C//DTD SVG 1.1//EN"
  "http://www.w3.org/Graphics/SVG/1.1/DTD/svg11.dtd">
<!-- Created with matplotlib (https://matplotlib.org/) -->
<svg height="720pt" version="1.1" viewBox="0 0 720 720" width="720pt" xmlns="http://www.w3.org/2000/svg" xmlns:xlink="http://www.w3.org/1999/xlink">
 <metadata>
  <rdf:RDF xmlns:cc="http://creativecommons.org/ns#" xmlns:dc="http://purl.org/dc/elements/1.1/" xmlns:rdf="http://www.w3.org/1999/02/22-rdf-syntax-ns#">
   <cc:Work>
    <dc:type rdf:resource="http://purl.org/dc/dcmitype/StillImage"/>
    <dc:date>2022-10-11T20:58:37.630921</dc:date>
    <dc:format>image/svg+xml</dc:format>
    <dc:creator>
     <cc:Agent>
      <dc:title>Matplotlib v3.3.2, https://matplotlib.org/</dc:title>
     </cc:Agent>
    </dc:creator>
   </cc:Work>
  </rdf:RDF>
 </metadata>
 <defs>
  <style type="text/css">*{stroke-linecap:butt;stroke-linejoin:round;}</style>
 </defs>
 <g id="figure_1">
  <g id="patch_1">
   <path d="M 0 720 
L 720 720 
L 720 0 
L 0 0 
z
" style="fill:none;"/>
  </g>
  <g id="axes_1">
   <g id="patch_2">
    <path d="M 90 630 
L 648 630 
L 648 86.4 
L 90 86.4 
z
" style="fill:#ffffff;"/>
   </g>
   <g id="matplotlib.axis_1">
    <g id="xtick_1">
     <g id="line2d_1">
      <path clip-path="url(#p09c9e50682)" d="M 115.363636 630 
L 115.363636 86.4 
" style="fill:none;stroke:#b0b0b0;stroke-linecap:square;stroke-width:0.8;"/>
     </g>
     <g id="line2d_2">
      <defs>
       <path d="M 0 0 
L 0 3.5 
" id="mabd80fa9fd" style="stroke:#000000;stroke-width:0.8;"/>
      </defs>
      <g>
       <use style="stroke:#000000;stroke-width:0.8;" x="115.363636" xlink:href="#mabd80fa9fd" y="630"/>
      </g>
     </g>
     <g id="text_1">
      <!-- 0 -->
      <g transform="translate(112.182386 644.598438)scale(0.1 -0.1)">
       <defs>
        <path d="M 31.78125 66.40625 
Q 24.171875 66.40625 20.328125 58.90625 
Q 16.5 51.421875 16.5 36.375 
Q 16.5 21.390625 20.328125 13.890625 
Q 24.171875 6.390625 31.78125 6.390625 
Q 39.453125 6.390625 43.28125 13.890625 
Q 47.125 21.390625 47.125 36.375 
Q 47.125 51.421875 43.28125 58.90625 
Q 39.453125 66.40625 31.78125 66.40625 
z
M 31.78125 74.21875 
Q 44.046875 74.21875 50.515625 64.515625 
Q 56.984375 54.828125 56.984375 36.375 
Q 56.984375 17.96875 50.515625 8.265625 
Q 44.046875 -1.421875 31.78125 -1.421875 
Q 19.53125 -1.421875 13.0625 8.265625 
Q 6.59375 17.96875 6.59375 36.375 
Q 6.59375 54.828125 13.0625 64.515625 
Q 19.53125 74.21875 31.78125 74.21875 
z
" id="DejaVuSans-48"/>
       </defs>
       <use xlink:href="#DejaVuSans-48"/>
      </g>
     </g>
    </g>
    <g id="xtick_2">
     <g id="line2d_3">
      <path clip-path="url(#p09c9e50682)" d="M 224.689655 630 
L 224.689655 86.4 
" style="fill:none;stroke:#b0b0b0;stroke-linecap:square;stroke-width:0.8;"/>
     </g>
     <g id="line2d_4">
      <g>
       <use style="stroke:#000000;stroke-width:0.8;" x="224.689655" xlink:href="#mabd80fa9fd" y="630"/>
      </g>
     </g>
     <g id="text_2">
      <!-- 50 -->
      <g transform="translate(218.327155 644.598438)scale(0.1 -0.1)">
       <defs>
        <path d="M 10.796875 72.90625 
L 49.515625 72.90625 
L 49.515625 64.59375 
L 19.828125 64.59375 
L 19.828125 46.734375 
Q 21.96875 47.46875 24.109375 47.828125 
Q 26.265625 48.1875 28.421875 48.1875 
Q 40.625 48.1875 47.75 41.5 
Q 54.890625 34.8125 54.890625 23.390625 
Q 54.890625 11.625 47.5625 5.09375 
Q 40.234375 -1.421875 26.90625 -1.421875 
Q 22.3125 -1.421875 17.546875 -0.640625 
Q 12.796875 0.140625 7.71875 1.703125 
L 7.71875 11.625 
Q 12.109375 9.234375 16.796875 8.0625 
Q 21.484375 6.890625 26.703125 6.890625 
Q 35.15625 6.890625 40.078125 11.328125 
Q 45.015625 15.765625 45.015625 23.390625 
Q 45.015625 31 40.078125 35.4375 
Q 35.15625 39.890625 26.703125 39.890625 
Q 22.75 39.890625 18.8125 39.015625 
Q 14.890625 38.140625 10.796875 36.28125 
z
" id="DejaVuSans-53"/>
       </defs>
       <use xlink:href="#DejaVuSans-53"/>
       <use x="63.623047" xlink:href="#DejaVuSans-48"/>
      </g>
     </g>
    </g>
    <g id="xtick_3">
     <g id="line2d_5">
      <path clip-path="url(#p09c9e50682)" d="M 334.015674 630 
L 334.015674 86.4 
" style="fill:none;stroke:#b0b0b0;stroke-linecap:square;stroke-width:0.8;"/>
     </g>
     <g id="line2d_6">
      <g>
       <use style="stroke:#000000;stroke-width:0.8;" x="334.015674" xlink:href="#mabd80fa9fd" y="630"/>
      </g>
     </g>
     <g id="text_3">
      <!-- 100 -->
      <g transform="translate(324.471924 644.598438)scale(0.1 -0.1)">
       <defs>
        <path d="M 12.40625 8.296875 
L 28.515625 8.296875 
L 28.515625 63.921875 
L 10.984375 60.40625 
L 10.984375 69.390625 
L 28.421875 72.90625 
L 38.28125 72.90625 
L 38.28125 8.296875 
L 54.390625 8.296875 
L 54.390625 0 
L 12.40625 0 
z
" id="DejaVuSans-49"/>
       </defs>
       <use xlink:href="#DejaVuSans-49"/>
       <use x="63.623047" xlink:href="#DejaVuSans-48"/>
       <use x="127.246094" xlink:href="#DejaVuSans-48"/>
      </g>
     </g>
    </g>
    <g id="xtick_4">
     <g id="line2d_7">
      <path clip-path="url(#p09c9e50682)" d="M 443.341693 630 
L 443.341693 86.4 
" style="fill:none;stroke:#b0b0b0;stroke-linecap:square;stroke-width:0.8;"/>
     </g>
     <g id="line2d_8">
      <g>
       <use style="stroke:#000000;stroke-width:0.8;" x="443.341693" xlink:href="#mabd80fa9fd" y="630"/>
      </g>
     </g>
     <g id="text_4">
      <!-- 150 -->
      <g transform="translate(433.797943 644.598438)scale(0.1 -0.1)">
       <use xlink:href="#DejaVuSans-49"/>
       <use x="63.623047" xlink:href="#DejaVuSans-53"/>
       <use x="127.246094" xlink:href="#DejaVuSans-48"/>
      </g>
     </g>
    </g>
    <g id="xtick_5">
     <g id="line2d_9">
      <path clip-path="url(#p09c9e50682)" d="M 552.667712 630 
L 552.667712 86.4 
" style="fill:none;stroke:#b0b0b0;stroke-linecap:square;stroke-width:0.8;"/>
     </g>
     <g id="line2d_10">
      <g>
       <use style="stroke:#000000;stroke-width:0.8;" x="552.667712" xlink:href="#mabd80fa9fd" y="630"/>
      </g>
     </g>
     <g id="text_5">
      <!-- 200 -->
      <g transform="translate(543.123962 644.598438)scale(0.1 -0.1)">
       <defs>
        <path d="M 19.1875 8.296875 
L 53.609375 8.296875 
L 53.609375 0 
L 7.328125 0 
L 7.328125 8.296875 
Q 12.9375 14.109375 22.625 23.890625 
Q 32.328125 33.6875 34.8125 36.53125 
Q 39.546875 41.84375 41.421875 45.53125 
Q 43.3125 49.21875 43.3125 52.78125 
Q 43.3125 58.59375 39.234375 62.25 
Q 35.15625 65.921875 28.609375 65.921875 
Q 23.96875 65.921875 18.8125 64.3125 
Q 13.671875 62.703125 7.8125 59.421875 
L 7.8125 69.390625 
Q 13.765625 71.78125 18.9375 73 
Q 24.125 74.21875 28.421875 74.21875 
Q 39.75 74.21875 46.484375 68.546875 
Q 53.21875 62.890625 53.21875 53.421875 
Q 53.21875 48.921875 51.53125 44.890625 
Q 49.859375 40.875 45.40625 35.40625 
Q 44.1875 33.984375 37.640625 27.21875 
Q 31.109375 20.453125 19.1875 8.296875 
z
" id="DejaVuSans-50"/>
       </defs>
       <use xlink:href="#DejaVuSans-50"/>
       <use x="63.623047" xlink:href="#DejaVuSans-48"/>
       <use x="127.246094" xlink:href="#DejaVuSans-48"/>
      </g>
     </g>
    </g>
    <g id="text_6">
     <!-- Days -->
     <g transform="translate(356.521875 658.276562)scale(0.1 -0.1)">
      <defs>
       <path d="M 19.671875 64.796875 
L 19.671875 8.109375 
L 31.59375 8.109375 
Q 46.6875 8.109375 53.6875 14.9375 
Q 60.6875 21.78125 60.6875 36.53125 
Q 60.6875 51.171875 53.6875 57.984375 
Q 46.6875 64.796875 31.59375 64.796875 
z
M 9.8125 72.90625 
L 30.078125 72.90625 
Q 51.265625 72.90625 61.171875 64.09375 
Q 71.09375 55.28125 71.09375 36.53125 
Q 71.09375 17.671875 61.125 8.828125 
Q 51.171875 0 30.078125 0 
L 9.8125 0 
z
" id="DejaVuSans-68"/>
       <path d="M 34.28125 27.484375 
Q 23.390625 27.484375 19.1875 25 
Q 14.984375 22.515625 14.984375 16.5 
Q 14.984375 11.71875 18.140625 8.90625 
Q 21.296875 6.109375 26.703125 6.109375 
Q 34.1875 6.109375 38.703125 11.40625 
Q 43.21875 16.703125 43.21875 25.484375 
L 43.21875 27.484375 
z
M 52.203125 31.203125 
L 52.203125 0 
L 43.21875 0 
L 43.21875 8.296875 
Q 40.140625 3.328125 35.546875 0.953125 
Q 30.953125 -1.421875 24.3125 -1.421875 
Q 15.921875 -1.421875 10.953125 3.296875 
Q 6 8.015625 6 15.921875 
Q 6 25.140625 12.171875 29.828125 
Q 18.359375 34.515625 30.609375 34.515625 
L 43.21875 34.515625 
L 43.21875 35.40625 
Q 43.21875 41.609375 39.140625 45 
Q 35.0625 48.390625 27.6875 48.390625 
Q 23 48.390625 18.546875 47.265625 
Q 14.109375 46.140625 10.015625 43.890625 
L 10.015625 52.203125 
Q 14.9375 54.109375 19.578125 55.046875 
Q 24.21875 56 28.609375 56 
Q 40.484375 56 46.34375 49.84375 
Q 52.203125 43.703125 52.203125 31.203125 
z
" id="DejaVuSans-97"/>
       <path d="M 32.171875 -5.078125 
Q 28.375 -14.84375 24.75 -17.8125 
Q 21.140625 -20.796875 15.09375 -20.796875 
L 7.90625 -20.796875 
L 7.90625 -13.28125 
L 13.1875 -13.28125 
Q 16.890625 -13.28125 18.9375 -11.515625 
Q 21 -9.765625 23.484375 -3.21875 
L 25.09375 0.875 
L 2.984375 54.6875 
L 12.5 54.6875 
L 29.59375 11.921875 
L 46.6875 54.6875 
L 56.203125 54.6875 
z
" id="DejaVuSans-121"/>
       <path d="M 44.28125 53.078125 
L 44.28125 44.578125 
Q 40.484375 46.53125 36.375 47.5 
Q 32.28125 48.484375 27.875 48.484375 
Q 21.1875 48.484375 17.84375 46.4375 
Q 14.5 44.390625 14.5 40.28125 
Q 14.5 37.15625 16.890625 35.375 
Q 19.28125 33.59375 26.515625 31.984375 
L 29.59375 31.296875 
Q 39.15625 29.25 43.1875 25.515625 
Q 47.21875 21.78125 47.21875 15.09375 
Q 47.21875 7.46875 41.1875 3.015625 
Q 35.15625 -1.421875 24.609375 -1.421875 
Q 20.21875 -1.421875 15.453125 -0.5625 
Q 10.6875 0.296875 5.421875 2 
L 5.421875 11.28125 
Q 10.40625 8.6875 15.234375 7.390625 
Q 20.0625 6.109375 24.8125 6.109375 
Q 31.15625 6.109375 34.5625 8.28125 
Q 37.984375 10.453125 37.984375 14.40625 
Q 37.984375 18.0625 35.515625 20.015625 
Q 33.0625 21.96875 24.703125 23.78125 
L 21.578125 24.515625 
Q 13.234375 26.265625 9.515625 29.90625 
Q 5.8125 33.546875 5.8125 39.890625 
Q 5.8125 47.609375 11.28125 51.796875 
Q 16.75 56 26.8125 56 
Q 31.78125 56 36.171875 55.265625 
Q 40.578125 54.546875 44.28125 53.078125 
z
" id="DejaVuSans-115"/>
      </defs>
      <use xlink:href="#DejaVuSans-68"/>
      <use x="77.001953" xlink:href="#DejaVuSans-97"/>
      <use x="138.28125" xlink:href="#DejaVuSans-121"/>
      <use x="197.460938" xlink:href="#DejaVuSans-115"/>
     </g>
    </g>
   </g>
   <g id="matplotlib.axis_2">
    <g id="ytick_1">
     <g id="line2d_11">
      <path clip-path="url(#p09c9e50682)" d="M 90 605.623244 
L 648 605.623244 
" style="fill:none;stroke:#b0b0b0;stroke-linecap:square;stroke-width:0.8;"/>
     </g>
     <g id="line2d_12">
      <defs>
       <path d="M 0 0 
L -3.5 0 
" id="m3f71dd11ae" style="stroke:#000000;stroke-width:0.8;"/>
      </defs>
      <g>
       <use style="stroke:#000000;stroke-width:0.8;" x="90" xlink:href="#m3f71dd11ae" y="605.623244"/>
      </g>
     </g>
     <g id="text_7">
      <!-- 0 -->
      <g transform="translate(76.6375 609.422463)scale(0.1 -0.1)">
       <use xlink:href="#DejaVuSans-48"/>
      </g>
     </g>
    </g>
    <g id="ytick_2">
     <g id="line2d_13">
      <path clip-path="url(#p09c9e50682)" d="M 90 486.932251 
L 648 486.932251 
" style="fill:none;stroke:#b0b0b0;stroke-linecap:square;stroke-width:0.8;"/>
     </g>
     <g id="line2d_14">
      <g>
       <use style="stroke:#000000;stroke-width:0.8;" x="90" xlink:href="#m3f71dd11ae" y="486.932251"/>
      </g>
     </g>
     <g id="text_8">
      <!-- 5000 -->
      <g transform="translate(57.55 490.73147)scale(0.1 -0.1)">
       <use xlink:href="#DejaVuSans-53"/>
       <use x="63.623047" xlink:href="#DejaVuSans-48"/>
       <use x="127.246094" xlink:href="#DejaVuSans-48"/>
       <use x="190.869141" xlink:href="#DejaVuSans-48"/>
      </g>
     </g>
    </g>
    <g id="ytick_3">
     <g id="line2d_15">
      <path clip-path="url(#p09c9e50682)" d="M 90 368.241258 
L 648 368.241258 
" style="fill:none;stroke:#b0b0b0;stroke-linecap:square;stroke-width:0.8;"/>
     </g>
     <g id="line2d_16">
      <g>
       <use style="stroke:#000000;stroke-width:0.8;" x="90" xlink:href="#m3f71dd11ae" y="368.241258"/>
      </g>
     </g>
     <g id="text_9">
      <!-- 10000 -->
      <g transform="translate(51.1875 372.040477)scale(0.1 -0.1)">
       <use xlink:href="#DejaVuSans-49"/>
       <use x="63.623047" xlink:href="#DejaVuSans-48"/>
       <use x="127.246094" xlink:href="#DejaVuSans-48"/>
       <use x="190.869141" xlink:href="#DejaVuSans-48"/>
       <use x="254.492188" xlink:href="#DejaVuSans-48"/>
      </g>
     </g>
    </g>
    <g id="ytick_4">
     <g id="line2d_17">
      <path clip-path="url(#p09c9e50682)" d="M 90 249.550265 
L 648 249.550265 
" style="fill:none;stroke:#b0b0b0;stroke-linecap:square;stroke-width:0.8;"/>
     </g>
     <g id="line2d_18">
      <g>
       <use style="stroke:#000000;stroke-width:0.8;" x="90" xlink:href="#m3f71dd11ae" y="249.550265"/>
      </g>
     </g>
     <g id="text_10">
      <!-- 15000 -->
      <g transform="translate(51.1875 253.349484)scale(0.1 -0.1)">
       <use xlink:href="#DejaVuSans-49"/>
       <use x="63.623047" xlink:href="#DejaVuSans-53"/>
       <use x="127.246094" xlink:href="#DejaVuSans-48"/>
       <use x="190.869141" xlink:href="#DejaVuSans-48"/>
       <use x="254.492188" xlink:href="#DejaVuSans-48"/>
      </g>
     </g>
    </g>
    <g id="ytick_5">
     <g id="line2d_19">
      <path clip-path="url(#p09c9e50682)" d="M 90 130.859272 
L 648 130.859272 
" style="fill:none;stroke:#b0b0b0;stroke-linecap:square;stroke-width:0.8;"/>
     </g>
     <g id="line2d_20">
      <g>
       <use style="stroke:#000000;stroke-width:0.8;" x="90" xlink:href="#m3f71dd11ae" y="130.859272"/>
      </g>
     </g>
     <g id="text_11">
      <!-- 20000 -->
      <g transform="translate(51.1875 134.658491)scale(0.1 -0.1)">
       <use xlink:href="#DejaVuSans-50"/>
       <use x="63.623047" xlink:href="#DejaVuSans-48"/>
       <use x="127.246094" xlink:href="#DejaVuSans-48"/>
       <use x="190.869141" xlink:href="#DejaVuSans-48"/>
       <use x="254.492188" xlink:href="#DejaVuSans-48"/>
      </g>
     </g>
    </g>
    <g id="text_12">
     <!-- Cumulative cases -->
     <g transform="translate(45.107812 402.425781)rotate(-90)scale(0.1 -0.1)">
      <defs>
       <path d="M 64.40625 67.28125 
L 64.40625 56.890625 
Q 59.421875 61.53125 53.78125 63.8125 
Q 48.140625 66.109375 41.796875 66.109375 
Q 29.296875 66.109375 22.65625 58.46875 
Q 16.015625 50.828125 16.015625 36.375 
Q 16.015625 21.96875 22.65625 14.328125 
Q 29.296875 6.6875 41.796875 6.6875 
Q 48.140625 6.6875 53.78125 8.984375 
Q 59.421875 11.28125 64.40625 15.921875 
L 64.40625 5.609375 
Q 59.234375 2.09375 53.4375 0.328125 
Q 47.65625 -1.421875 41.21875 -1.421875 
Q 24.65625 -1.421875 15.125 8.703125 
Q 5.609375 18.84375 5.609375 36.375 
Q 5.609375 53.953125 15.125 64.078125 
Q 24.65625 74.21875 41.21875 74.21875 
Q 47.75 74.21875 53.53125 72.484375 
Q 59.328125 70.75 64.40625 67.28125 
z
" id="DejaVuSans-67"/>
       <path d="M 8.5 21.578125 
L 8.5 54.6875 
L 17.484375 54.6875 
L 17.484375 21.921875 
Q 17.484375 14.15625 20.5 10.265625 
Q 23.53125 6.390625 29.59375 6.390625 
Q 36.859375 6.390625 41.078125 11.03125 
Q 45.3125 15.671875 45.3125 23.6875 
L 45.3125 54.6875 
L 54.296875 54.6875 
L 54.296875 0 
L 45.3125 0 
L 45.3125 8.40625 
Q 42.046875 3.421875 37.71875 1 
Q 33.40625 -1.421875 27.6875 -1.421875 
Q 18.265625 -1.421875 13.375 4.4375 
Q 8.5 10.296875 8.5 21.578125 
z
M 31.109375 56 
z
" id="DejaVuSans-117"/>
       <path d="M 52 44.1875 
Q 55.375 50.25 60.0625 53.125 
Q 64.75 56 71.09375 56 
Q 79.640625 56 84.28125 50.015625 
Q 88.921875 44.046875 88.921875 33.015625 
L 88.921875 0 
L 79.890625 0 
L 79.890625 32.71875 
Q 79.890625 40.578125 77.09375 44.375 
Q 74.3125 48.1875 68.609375 48.1875 
Q 61.625 48.1875 57.5625 43.546875 
Q 53.515625 38.921875 53.515625 30.90625 
L 53.515625 0 
L 44.484375 0 
L 44.484375 32.71875 
Q 44.484375 40.625 41.703125 44.40625 
Q 38.921875 48.1875 33.109375 48.1875 
Q 26.21875 48.1875 22.15625 43.53125 
Q 18.109375 38.875 18.109375 30.90625 
L 18.109375 0 
L 9.078125 0 
L 9.078125 54.6875 
L 18.109375 54.6875 
L 18.109375 46.1875 
Q 21.1875 51.21875 25.484375 53.609375 
Q 29.78125 56 35.6875 56 
Q 41.65625 56 45.828125 52.96875 
Q 50 49.953125 52 44.1875 
z
" id="DejaVuSans-109"/>
       <path d="M 9.421875 75.984375 
L 18.40625 75.984375 
L 18.40625 0 
L 9.421875 0 
z
" id="DejaVuSans-108"/>
       <path d="M 18.3125 70.21875 
L 18.3125 54.6875 
L 36.8125 54.6875 
L 36.8125 47.703125 
L 18.3125 47.703125 
L 18.3125 18.015625 
Q 18.3125 11.328125 20.140625 9.421875 
Q 21.96875 7.515625 27.59375 7.515625 
L 36.8125 7.515625 
L 36.8125 0 
L 27.59375 0 
Q 17.1875 0 13.234375 3.875 
Q 9.28125 7.765625 9.28125 18.015625 
L 9.28125 47.703125 
L 2.6875 47.703125 
L 2.6875 54.6875 
L 9.28125 54.6875 
L 9.28125 70.21875 
z
" id="DejaVuSans-116"/>
       <path d="M 9.421875 54.6875 
L 18.40625 54.6875 
L 18.40625 0 
L 9.421875 0 
z
M 9.421875 75.984375 
L 18.40625 75.984375 
L 18.40625 64.59375 
L 9.421875 64.59375 
z
" id="DejaVuSans-105"/>
       <path d="M 2.984375 54.6875 
L 12.5 54.6875 
L 29.59375 8.796875 
L 46.6875 54.6875 
L 56.203125 54.6875 
L 35.6875 0 
L 23.484375 0 
z
" id="DejaVuSans-118"/>
       <path d="M 56.203125 29.59375 
L 56.203125 25.203125 
L 14.890625 25.203125 
Q 15.484375 15.921875 20.484375 11.0625 
Q 25.484375 6.203125 34.421875 6.203125 
Q 39.59375 6.203125 44.453125 7.46875 
Q 49.3125 8.734375 54.109375 11.28125 
L 54.109375 2.78125 
Q 49.265625 0.734375 44.1875 -0.34375 
Q 39.109375 -1.421875 33.890625 -1.421875 
Q 20.796875 -1.421875 13.15625 6.1875 
Q 5.515625 13.8125 5.515625 26.8125 
Q 5.515625 40.234375 12.765625 48.109375 
Q 20.015625 56 32.328125 56 
Q 43.359375 56 49.78125 48.890625 
Q 56.203125 41.796875 56.203125 29.59375 
z
M 47.21875 32.234375 
Q 47.125 39.59375 43.09375 43.984375 
Q 39.0625 48.390625 32.421875 48.390625 
Q 24.90625 48.390625 20.390625 44.140625 
Q 15.875 39.890625 15.1875 32.171875 
z
" id="DejaVuSans-101"/>
       <path id="DejaVuSans-32"/>
       <path d="M 48.78125 52.59375 
L 48.78125 44.1875 
Q 44.96875 46.296875 41.140625 47.34375 
Q 37.3125 48.390625 33.40625 48.390625 
Q 24.65625 48.390625 19.8125 42.84375 
Q 14.984375 37.3125 14.984375 27.296875 
Q 14.984375 17.28125 19.8125 11.734375 
Q 24.65625 6.203125 33.40625 6.203125 
Q 37.3125 6.203125 41.140625 7.25 
Q 44.96875 8.296875 48.78125 10.40625 
L 48.78125 2.09375 
Q 45.015625 0.34375 40.984375 -0.53125 
Q 36.96875 -1.421875 32.421875 -1.421875 
Q 20.0625 -1.421875 12.78125 6.34375 
Q 5.515625 14.109375 5.515625 27.296875 
Q 5.515625 40.671875 12.859375 48.328125 
Q 20.21875 56 33.015625 56 
Q 37.15625 56 41.109375 55.140625 
Q 45.0625 54.296875 48.78125 52.59375 
z
" id="DejaVuSans-99"/>
      </defs>
      <use xlink:href="#DejaVuSans-67"/>
      <use x="69.824219" xlink:href="#DejaVuSans-117"/>
      <use x="133.203125" xlink:href="#DejaVuSans-109"/>
      <use x="230.615234" xlink:href="#DejaVuSans-117"/>
      <use x="293.994141" xlink:href="#DejaVuSans-108"/>
      <use x="321.777344" xlink:href="#DejaVuSans-97"/>
      <use x="383.056641" xlink:href="#DejaVuSans-116"/>
      <use x="422.265625" xlink:href="#DejaVuSans-105"/>
      <use x="450.048828" xlink:href="#DejaVuSans-118"/>
      <use x="509.228516" xlink:href="#DejaVuSans-101"/>
      <use x="570.751953" xlink:href="#DejaVuSans-32"/>
      <use x="602.539062" xlink:href="#DejaVuSans-99"/>
      <use x="657.519531" xlink:href="#DejaVuSans-97"/>
      <use x="718.798828" xlink:href="#DejaVuSans-115"/>
      <use x="770.898438" xlink:href="#DejaVuSans-101"/>
      <use x="832.421875" xlink:href="#DejaVuSans-115"/>
     </g>
    </g>
   </g>
   <g id="line2d_21">
    <path clip-path="url(#p09c9e50682)" d="M 115.363636 605.290909 
L 137.22884 604.951397 
L 152.534483 604.524047 
L 165.653605 603.947777 
L 176.586207 603.243824 
L 185.332288 602.474476 
L 194.07837 601.458656 
L 200.637931 600.489383 
L 207.197492 599.29768 
L 213.757053 597.834135 
L 218.130094 596.678472 
L 222.503135 595.355277 
L 226.876176 593.841505 
L 231.249216 592.111335 
L 235.622257 590.135952 
L 239.995298 587.883366 
L 244.368339 585.318264 
L 248.741379 582.401931 
L 253.11442 579.092266 
L 257.487461 575.34392 
L 261.860502 571.108602 
L 266.233542 566.335594 
L 270.606583 560.972524 
L 274.979624 554.966438 
L 279.352665 548.265225 
L 283.725705 540.819403 
L 288.098746 532.584297 
L 292.471787 523.522558 
L 296.844828 513.606985 
L 301.217868 502.823494 
L 305.590909 491.174093 
L 309.96395 478.679596 
L 314.336991 465.381829 
L 318.710031 451.345011 
L 323.083072 436.656053 
L 329.642633 413.642747 
L 338.388715 381.839999 
L 349.321317 342.012887 
L 355.880878 319.000013 
L 360.253918 304.31144 
L 364.626959 290.275071 
L 369 276.977801 
L 373.373041 264.483835 
L 377.746082 252.834985 
L 382.119122 242.052052 
L 386.492163 232.137033 
L 390.865204 223.075834 
L 395.238245 214.841247 
L 399.611285 207.395918 
L 403.984326 200.695167 
L 408.357367 194.689511 
L 412.730408 189.326836 
L 417.103448 184.554189 
L 421.476489 180.3192 
L 425.84953 176.57115 
L 430.222571 173.261752 
L 434.595611 170.345657 
L 438.968652 167.780768 
L 443.341693 165.528371 
L 447.714734 163.553155 
L 452.087774 161.823133 
L 456.460815 160.309491 
L 460.833856 158.98641 
L 467.393417 157.309391 
L 473.952978 155.942664 
L 480.512539 154.830237 
L 487.0721 153.925736 
L 495.818182 152.97808 
L 504.564263 152.260549 
L 515.496865 151.604152 
L 528.615987 151.066917 
L 543.92163 150.668574 
L 565.786834 150.352142 
L 596.398119 150.157967 
L 622.636364 150.09204 
L 622.636364 150.09204 
" style="fill:none;stroke:#1f77b4;stroke-linecap:square;stroke-width:1.5;"/>
   </g>
   <g id="line2d_22">
    <path clip-path="url(#p09c9e50682)" d="M 115.363636 605.290909 
L 126.296238 604.262824 
L 135.04232 603.256512 
L 143.788401 602.052738 
L 152.534483 600.614091 
L 161.280564 598.896645 
L 167.840125 597.395031 
L 174.399687 595.683226 
L 180.959248 593.733731 
L 187.518809 591.516034 
L 194.07837 588.996458 
L 200.637931 586.138061 
L 205.010972 584.024497 
L 209.384013 581.729813 
L 213.757053 579.24068 
L 218.130094 576.543195 
L 222.503135 573.622941 
L 226.876176 570.465058 
L 231.249216 567.054339 
L 235.622257 563.375354 
L 239.995298 559.412597 
L 244.368339 555.150656 
L 248.741379 550.574424 
L 253.11442 545.669334 
L 257.487461 540.421628 
L 261.860502 534.818651 
L 266.233542 528.849181 
L 270.606583 522.503774 
L 274.979624 515.775132 
L 279.352665 508.658476 
L 283.725705 501.151923 
L 288.098746 493.256843 
L 292.471787 484.978197 
L 296.844828 476.324828 
L 301.217868 467.309698 
L 307.777429 453.147604 
L 314.336991 438.28789 
L 320.896552 422.828594 
L 329.642633 401.489691 
L 340.575235 374.111432 
L 355.880878 335.733421 
L 364.626959 314.442289 
L 371.18652 299.032183 
L 377.746082 284.231287 
L 384.305643 270.135761 
L 388.678683 261.168343 
L 393.051724 252.564675 
L 397.424765 244.337153 
L 401.797806 236.494084 
L 406.170846 229.039928 
L 410.543887 221.975598 
L 414.916928 215.2988 
L 419.289969 209.004393 
L 423.663009 203.084771 
L 428.03605 197.53023 
L 432.409091 192.329334 
L 436.782132 187.469263 
L 441.155172 182.936134 
L 445.528213 178.71529 
L 449.901254 174.791572 
L 454.274295 171.149544 
L 458.647335 167.7737 
L 463.020376 164.648631 
L 467.393417 161.759172 
L 471.766458 159.090518 
L 476.139498 156.628315 
L 480.512539 154.358736 
L 484.88558 152.26853 
L 491.445141 149.442083 
L 498.004702 146.951013 
L 504.564263 144.758673 
L 511.123824 142.831673 
L 517.683386 141.139779 
L 524.242947 139.655753 
L 530.802508 138.355169 
L 539.548589 136.869044 
L 548.294671 135.62531 
L 557.040752 134.585428 
L 567.973354 133.522894 
L 578.905956 132.675101 
L 592.025078 131.881488 
L 607.330721 131.19178 
L 622.636364 130.690558 
L 622.636364 130.690558 
" style="fill:none;stroke:#ff7f0e;stroke-linecap:square;stroke-width:1.5;"/>
   </g>
   <g id="line2d_23">
    <path clip-path="url(#p09c9e50682)" d="M 115.363636 605.290909 
L 126.296238 604.351155 
L 137.22884 603.164251 
L 145.974922 601.994847 
L 154.721003 600.588062 
L 161.280564 599.349708 
L 167.840125 597.929597 
L 174.399687 596.30251 
L 180.959248 594.440193 
L 187.518809 592.311133 
L 194.07837 589.880385 
L 200.637931 587.109437 
L 205.010972 585.052484 
L 209.384013 582.812323 
L 213.757053 580.374916 
L 218.130094 577.725589 
L 222.503135 574.849097 
L 226.876176 571.7297 
L 231.249216 568.35127 
L 235.622257 564.697431 
L 239.995298 560.75172 
L 244.368339 556.497781 
L 248.741379 551.919604 
L 253.11442 547.001788 
L 257.487461 541.729841 
L 261.860502 536.090517 
L 266.233542 530.07218 
L 270.606583 523.66519 
L 274.979624 516.862307 
L 279.352665 509.659101 
L 283.725705 502.054355 
L 288.098746 494.050441 
L 292.471787 485.653667 
L 296.844828 476.874561 
L 301.217868 467.728089 
L 307.777429 453.363524 
L 314.336991 438.302475 
L 320.896552 422.652097 
L 329.642633 401.089768 
L 342.761755 367.96546 
L 355.880878 335.022557 
L 364.626959 313.76469 
L 371.18652 298.418327 
L 377.746082 283.707658 
L 384.305643 269.721635 
L 388.678683 260.834196 
L 393.051724 252.31352 
L 397.424765 244.169927 
L 401.797806 236.409819 
L 406.170846 229.035963 
L 410.543887 222.047817 
L 414.916928 215.441882 
L 419.289969 209.212072 
L 423.663009 203.350073 
L 428.03605 197.845714 
L 432.409091 192.687301 
L 436.782132 187.861945 
L 441.155172 183.355855 
L 445.528213 179.154605 
L 449.901254 175.243373 
L 454.274295 171.607149 
L 458.647335 168.230912 
L 463.020376 165.099782 
L 467.393417 162.199145 
L 471.766458 159.514756 
L 476.139498 157.032821 
L 480.512539 154.740052 
L 484.88558 152.623723 
L 491.445141 149.753658 
L 498.004702 147.214994 
L 504.564263 144.972431 
L 511.123824 142.99374 
L 517.683386 141.249667 
L 524.242947 139.713781 
L 530.802508 138.362309 
L 539.548589 136.810709 
L 548.294671 135.505002 
L 557.040752 134.40721 
L 567.973354 133.278449 
L 578.905956 132.371433 
L 592.025078 131.515775 
L 607.330721 130.76528 
L 622.636364 130.214403 
L 622.636364 130.214403 
" style="fill:none;stroke:#2ca02c;stroke-linecap:square;stroke-width:1.5;"/>
   </g>
   <g id="line2d_24">
    <path clip-path="url(#p09c9e50682)" d="M 115.363636 605.290909 
L 126.296238 604.701661 
L 137.22884 603.887489 
L 145.974922 603.032217 
L 154.721003 601.952844 
L 163.467085 600.601306 
L 170.026646 599.374847 
L 176.586207 597.934974 
L 183.145768 596.249718 
L 189.705329 594.283018 
L 196.26489 591.994444 
L 200.637931 590.267877 
L 205.010972 588.363863 
L 209.384013 586.266995 
L 213.757053 583.960969 
L 218.130094 581.428633 
L 222.503135 578.652053 
L 226.876176 575.612617 
L 231.249216 572.291178 
L 235.622257 568.668229 
L 239.995298 564.724128 
L 244.368339 560.439374 
L 248.741379 555.794932 
L 253.11442 550.772607 
L 257.487461 545.355477 
L 261.860502 539.528368 
L 266.233542 533.278373 
L 270.606583 526.595392 
L 274.979624 519.472699 
L 279.352665 511.907494 
L 283.725705 503.901427 
L 288.098746 495.461072 
L 292.471787 486.598315 
L 296.844828 477.330627 
L 301.217868 467.681204 
L 307.777429 452.556036 
L 314.336991 436.758571 
L 323.083072 414.902361 
L 336.202194 381.230907 
L 347.134796 353.265428 
L 355.880878 331.520613 
L 362.440439 315.805873 
L 369 300.731498 
L 375.559561 286.387952 
L 379.932602 277.264489 
L 384.305643 268.507939 
L 388.678683 260.126642 
L 393.051724 252.124739 
L 397.424765 244.502598 
L 401.797806 237.257284 
L 406.170846 230.383023 
L 410.543887 223.871663 
L 414.916928 217.713116 
L 419.289969 211.895765 
L 423.663009 206.406836 
L 428.03605 201.23273 
L 432.409091 196.359314 
L 436.782132 191.77217 
L 441.155172 187.456804 
L 445.528213 183.398825 
L 449.901254 179.58408 
L 454.274295 175.998768 
L 458.647335 172.629529 
L 463.020376 169.463501 
L 467.393417 166.488369 
L 473.952978 162.358079 
L 480.512539 158.593891 
L 487.0721 155.161662 
L 493.631661 152.030175 
L 500.191223 149.171016 
L 506.750784 146.55841 
L 513.310345 144.169036 
L 519.869906 141.981839 
L 528.615987 139.347534 
L 537.362069 136.999247 
L 546.10815 134.902319 
L 554.854232 133.026633 
L 563.600313 131.346006 
L 574.532915 129.485111 
L 585.465517 127.855471 
L 598.584639 126.160215 
L 611.703762 124.705572 
L 622.636364 123.649513 
L 622.636364 123.649513 
" style="fill:none;stroke:#d62728;stroke-linecap:square;stroke-width:1.5;"/>
   </g>
   <g id="line2d_25">
    <path clip-path="url(#p09c9e50682)" d="M 115.363636 605.290909 
L 126.296238 605.154685 
L 141.601881 604.746823 
L 154.721003 604.168873 
L 165.653605 603.436887 
L 174.399687 602.61387 
L 180.959248 601.810983 
L 187.518809 600.805443 
L 194.07837 599.548589 
L 200.637931 597.981465 
L 205.010972 596.729971 
L 209.384013 595.285364 
L 213.757053 593.620908 
L 218.130094 591.707172 
L 222.503135 589.512086 
L 226.876176 587.001128 
L 231.249216 584.137667 
L 235.622257 580.883499 
L 239.995298 577.199614 
L 244.368339 573.047204 
L 248.741379 568.388922 
L 253.11442 563.19037 
L 257.487461 557.421768 
L 261.860502 551.059725 
L 266.233542 544.088974 
L 270.606583 536.503957 
L 274.979624 528.310076 
L 279.352665 519.524474 
L 283.725705 510.17623 
L 288.098746 500.305904 
L 292.471787 489.964438 
L 299.031348 473.701239 
L 305.590909 456.740648 
L 314.336991 433.46109 
L 331.829154 386.671623 
L 340.575235 364.074584 
L 347.134796 347.752733 
L 353.694357 332.072205 
L 360.253918 317.096824 
L 366.81348 302.866592 
L 373.373041 289.401894 
L 377.746082 280.853587 
L 382.119122 272.646119 
L 386.492163 264.775755 
L 390.865204 257.237128 
L 395.238245 250.023549 
L 399.611285 243.127281 
L 403.984326 236.539774 
L 408.357367 230.251866 
L 412.730408 224.253955 
L 417.103448 218.53614 
L 421.476489 213.088346 
L 425.84953 207.900421 
L 430.222571 202.962225 
L 434.595611 198.263691 
L 438.968652 193.794888 
L 443.341693 189.54606 
L 447.714734 185.507668 
L 454.274295 179.824371 
L 460.833856 174.56342 
L 467.393417 169.695981 
L 473.952978 165.194707 
L 480.512539 161.033769 
L 487.0721 157.188846 
L 493.631661 153.637101 
L 500.191223 150.357142 
L 506.750784 147.328967 
L 513.310345 144.533909 
L 519.869906 141.954571 
L 526.429467 139.574759 
L 532.989028 137.37942 
L 541.73511 134.715238 
L 550.481191 132.323878 
L 559.227273 130.177869 
L 567.973354 128.25241 
L 576.719436 126.525125 
L 587.652038 124.614176 
L 598.584639 122.946479 
L 609.517241 121.491323 
L 622.636364 119.988063 
L 622.636364 119.988063 
" style="fill:none;stroke:#9467bd;stroke-linecap:square;stroke-width:1.5;"/>
   </g>
   <g id="line2d_26">
    <path clip-path="url(#p09c9e50682)" d="M 115.363636 605.290909 
L 124.109718 605.200408 
L 135.04232 604.841012 
L 143.788401 604.348686 
L 152.534483 603.649902 
L 161.280564 602.707353 
L 167.840125 601.810139 
L 174.399687 600.720095 
L 180.959248 599.404966 
L 187.518809 597.826964 
L 194.07837 595.942328 
L 198.451411 594.491068 
L 202.824451 592.864894 
L 207.197492 591.045981 
L 211.570533 589.015177 
L 215.943574 586.752038 
L 220.316614 584.234905 
L 224.689655 581.441033 
L 229.062696 578.346772 
L 233.435737 574.927815 
L 237.808777 571.15953 
L 242.181818 567.017365 
L 246.554859 562.477344 
L 250.9279 557.516655 
L 255.30094 552.114317 
L 259.673981 546.251921 
L 264.047022 539.914429 
L 268.420063 533.090993 
L 272.793103 525.775775 
L 277.166144 517.968706 
L 281.539185 509.676148 
L 285.912226 500.911404 
L 290.285266 491.695024 
L 294.658307 482.054867 
L 301.217868 466.878343 
L 307.777429 450.973515 
L 314.336991 434.512121 
L 325.269592 406.358303 
L 340.575235 366.941956 
L 349.321317 345.176307 
L 355.880878 329.466567 
L 362.440439 314.395308 
L 369 300.033416 
L 375.559561 286.426692 
L 379.932602 277.787706 
L 384.305643 269.497855 
L 388.678683 261.556537 
L 393.051724 253.96055 
L 397.424765 246.704546 
L 401.797806 239.781432 
L 406.170846 233.182747 
L 410.543887 226.898974 
L 414.916928 220.919827 
L 419.289969 215.234481 
L 423.663009 209.831774 
L 428.03605 204.70037 
L 432.409091 199.828899 
L 436.782132 195.206056 
L 441.155172 190.820699 
L 445.528213 186.661905 
L 449.901254 182.71903 
L 454.274295 178.981743 
L 460.833856 173.73953 
L 467.393417 168.905302 
L 473.952978 164.448751 
L 480.512539 160.34147 
L 487.0721 156.556923 
L 493.631661 153.070394 
L 500.191223 149.858909 
L 506.750784 146.901149 
L 513.310345 144.177364 
L 519.869906 141.669275 
L 526.429467 139.359979 
L 535.175549 136.563334 
L 543.92163 134.058729 
L 552.667712 131.815846 
L 561.413793 129.807468 
L 570.159875 128.009174 
L 581.092476 126.023588 
L 592.025078 124.294335 
L 602.95768 122.788392 
L 616.076803 121.235762 
L 622.636364 120.550917 
L 622.636364 120.550917 
" style="fill:none;stroke:#8c564b;stroke-linecap:square;stroke-width:1.5;"/>
   </g>
   <g id="line2d_27">
    <path clip-path="url(#p09c9e50682)" d="M 115.363636 605.290909 
L 124.109718 605.15936 
L 137.22884 604.723753 
L 148.161442 604.178694 
L 159.094044 603.406122 
L 167.840125 602.563708 
L 176.586207 601.454735 
L 183.145768 600.400207 
L 189.705329 599.108625 
L 196.26489 597.529925 
L 200.637931 596.289188 
L 205.010972 594.87491 
L 209.384013 593.265174 
L 213.757053 591.435993 
L 218.130094 589.361329 
L 222.503135 587.013176 
L 226.876176 584.36174 
L 231.249216 581.375735 
L 235.622257 578.022802 
L 239.995298 574.270093 
L 244.368339 570.085008 
L 248.741379 565.436101 
L 253.11442 560.294146 
L 257.487461 554.633322 
L 261.860502 548.432499 
L 266.233542 541.676521 
L 270.606583 534.357448 
L 274.979624 526.47562 
L 279.352665 518.040477 
L 283.725705 509.071031 
L 288.098746 499.595924 
L 292.471787 489.653037 
L 296.844828 479.288662 
L 303.404389 463.070355 
L 309.96395 446.227685 
L 320.896552 417.360453 
L 336.202194 376.912106 
L 344.948276 354.565593 
L 351.507837 338.422437 
L 358.067398 322.916086 
L 364.626959 308.114912 
L 371.18652 294.063751 
L 375.559561 285.125948 
L 379.932602 276.535976 
L 384.305643 268.294153 
L 388.678683 260.398405 
L 393.051724 252.844639 
L 397.424765 245.627096 
L 401.797806 238.738655 
L 406.170846 232.171109 
L 410.543887 225.915396 
L 414.916928 219.961817 
L 419.289969 214.300202 
L 423.663009 208.920072 
L 428.03605 203.81076 
L 432.409091 198.961526 
L 436.782132 194.36164 
L 441.155172 190.000466 
L 445.528213 185.867512 
L 449.901254 181.95249 
L 454.274295 178.245348 
L 458.647335 174.736302 
L 465.206897 169.823491 
L 471.766458 165.304403 
L 478.326019 161.14997 
L 484.88558 157.332796 
L 491.445141 153.82717 
L 498.004702 150.609027 
L 504.564263 147.655916 
L 511.123824 144.946934 
L 517.683386 142.462659 
L 524.242947 140.185079 
L 530.802508 138.097515 
L 539.548589 135.583188 
L 548.294671 133.346039 
L 557.040752 131.356126 
L 565.786834 129.586606 
L 574.532915 128.013443 
L 585.465517 126.290586 
L 596.398119 124.804094 
L 607.330721 123.521846 
L 620.449843 122.213828 
L 622.636364 122.017554 
L 622.636364 122.017554 
" style="fill:none;stroke:#e377c2;stroke-linecap:square;stroke-width:1.5;"/>
   </g>
   <g id="line2d_28">
    <path clip-path="url(#p09c9e50682)" d="M 115.363636 605.290909 
L 124.109718 605.182334 
L 132.855799 604.867847 
L 141.601881 604.346415 
L 150.347962 603.598126 
L 159.094044 602.587716 
L 165.653605 601.628801 
L 172.213166 600.469189 
L 178.772727 599.07852 
L 185.332288 597.421707 
L 191.89185 595.458702 
L 196.26489 593.957809 
L 200.637931 592.286135 
L 205.010972 590.427926 
L 209.384013 588.366398 
L 213.757053 586.083776 
L 218.130094 583.561365 
L 222.503135 580.779652 
L 226.876176 577.718453 
L 231.249216 574.357098 
L 235.622257 570.674675 
L 239.995298 566.650326 
L 244.368339 562.263601 
L 248.741379 557.494875 
L 253.11442 552.32582 
L 257.487461 546.73993 
L 261.860502 540.723089 
L 266.233542 534.264171 
L 270.606583 527.35564 
L 274.979624 519.994145 
L 279.352665 512.181067 
L 283.725705 503.922994 
L 288.098746 495.232086 
L 292.471787 486.126309 
L 296.844828 476.629502 
L 303.404389 461.717357 
L 309.96395 446.115613 
L 316.523511 429.969858 
L 327.456113 402.298253 
L 344.948276 357.815843 
L 353.694357 336.294542 
L 360.253918 320.732411 
L 366.81348 305.781255 
L 373.373041 291.519071 
L 379.932602 278.001209 
L 384.305643 269.42065 
L 388.678683 261.192218 
L 393.051724 253.318252 
L 397.424765 245.798218 
L 401.797806 238.629095 
L 406.170846 231.805739 
L 410.543887 225.321233 
L 414.916928 219.167209 
L 419.289969 213.334137 
L 423.663009 207.811592 
L 428.03605 202.588483 
L 432.409091 197.653257 
L 436.782132 192.994071 
L 441.155172 188.598942 
L 445.528213 184.455873 
L 449.901254 180.552954 
L 454.274295 176.878446 
L 458.647335 173.420856 
L 463.020376 170.168981 
L 467.393417 167.111958 
L 473.952978 162.868915 
L 480.512539 159.006995 
L 487.0721 155.494492 
L 493.631661 152.301801 
L 500.191223 149.401394 
L 506.750784 146.767778 
L 513.310345 144.377414 
L 519.869906 142.20863 
L 526.429467 140.241514 
L 532.989028 138.457811 
L 541.73511 136.336177 
L 550.481191 134.475387 
L 559.227273 132.843859 
L 567.973354 131.413691 
L 578.905956 129.871934 
L 589.838558 128.564837 
L 602.95768 127.256394 
L 616.076803 126.183433 
L 622.636364 125.721704 
L 622.636364 125.721704 
" style="fill:none;stroke:#7f7f7f;stroke-linecap:square;stroke-width:1.5;"/>
   </g>
   <g id="line2d_29">
    <path clip-path="url(#p09c9e50682)" d="M 115.363636 605.290909 
L 124.109718 605.185653 
L 132.855799 604.878721 
L 141.601881 604.365805 
L 150.347962 603.623954 
L 159.094044 602.614871 
L 165.653605 601.651653 
L 172.213166 600.481529 
L 178.772727 599.072472 
L 185.332288 597.387555 
L 191.89185 595.384715 
L 196.26489 593.84969 
L 200.637931 592.137052 
L 205.010972 590.230378 
L 209.384013 588.112227 
L 213.757053 585.764204 
L 218.130094 583.16705 
L 222.503135 580.300787 
L 226.876176 577.144895 
L 231.249216 573.67855 
L 235.622257 569.880915 
L 239.995298 565.731489 
L 244.368339 561.210522 
L 248.741379 556.299484 
L 253.11442 550.981589 
L 257.487461 545.242363 
L 261.860502 539.070237 
L 266.233542 532.457154 
L 270.606583 525.399152 
L 274.979624 517.896905 
L 279.352665 509.956186 
L 283.725705 501.58822 
L 288.098746 492.809892 
L 292.471787 483.643799 
L 299.031348 469.230652 
L 305.590909 454.126239 
L 312.15047 438.469245 
L 320.896552 417.002551 
L 344.948276 357.464294 
L 353.694357 336.674644 
L 360.253918 321.661 
L 366.81348 307.235513 
L 373.373041 293.458518 
L 379.932602 280.371002 
L 386.492163 267.996773 
L 390.865204 260.148588 
L 395.238245 252.621329 
L 399.611285 245.412543 
L 403.984326 238.518023 
L 408.357367 231.932104 
L 412.730408 225.647923 
L 417.103448 219.65766 
L 421.476489 213.952746 
L 425.84953 208.524051 
L 430.222571 203.362045 
L 434.595611 198.456934 
L 438.968652 193.798778 
L 443.341693 189.377592 
L 447.714734 185.183429 
L 452.087774 181.206444 
L 456.460815 177.436951 
L 463.020376 172.151083 
L 469.579937 167.279828 
L 476.139498 162.793606 
L 482.69906 158.664341 
L 489.258621 154.865525 
L 495.818182 151.372237 
L 502.377743 148.161132 
L 508.937304 145.210407 
L 515.496865 142.499749 
L 522.056426 140.010274 
L 528.615987 137.724459 
L 535.175549 135.626068 
L 543.92163 133.093963 
L 552.667712 130.835984 
L 561.413793 128.822927 
L 570.159875 127.028579 
L 578.905956 125.429445 
L 589.838558 123.67321 
L 600.77116 122.152999 
L 611.703762 120.83727 
L 622.636364 119.698633 
L 622.636364 119.698633 
" style="fill:none;stroke:#bcbd22;stroke-linecap:square;stroke-width:1.5;"/>
   </g>
   <g id="line2d_30">
    <path clip-path="url(#p09c9e50682)" d="M 115.363636 605.290909 
L 117.550157 605.290909 
L 119.736677 605.029789 
L 121.923197 603.890355 
L 124.109718 603.724188 
L 126.296238 603.344377 
L 128.482759 603.225686 
L 130.669279 603.225686 
L 132.855799 601.706441 
L 135.04232 601.635227 
L 139.415361 601.112986 
L 141.601881 601.018033 
L 145.974922 599.807385 
L 148.161442 599.427574 
L 150.347962 597.955806 
L 152.534483 597.338613 
L 154.721003 596.507776 
L 156.907524 595.083484 
L 159.094044 595.083484 
L 161.280564 592.970784 
L 163.467085 591.997518 
L 165.653605 590.763132 
L 167.840125 590.478273 
L 170.026646 590.478273 
L 172.213166 590.098462 
L 174.399687 589.291363 
L 176.586207 586.608947 
L 178.772727 585.51699 
L 180.959248 585.51699 
L 183.145768 583.879054 
L 185.332288 583.024479 
L 187.518809 581.790092 
L 189.705329 580.057204 
L 191.89185 580.057204 
L 194.07837 578.324315 
L 196.26489 577.991981 
L 198.451411 577.540955 
L 200.637931 576.235354 
L 202.824451 575.357041 
L 205.010972 573.980225 
L 207.197492 573.291817 
L 211.570533 571.630143 
L 213.757053 570.870521 
L 218.130094 568.330534 
L 220.316614 567.59465 
L 222.503135 566.051667 
L 226.876176 564.55616 
L 229.062696 561.541409 
L 235.622257 557.743297 
L 239.995298 555.559383 
L 242.181818 555.322001 
L 244.368339 554.514902 
L 246.554859 552.663323 
L 248.741379 551.001649 
L 250.9279 550.052121 
L 253.11442 549.458666 
L 255.30094 549.221284 
L 257.487461 548.105589 
L 259.673981 546.823726 
L 264.047022 542.930661 
L 266.233542 540.343198 
L 268.420063 539.180026 
L 270.606583 538.372927 
L 272.793103 535.57182 
L 274.979624 533.838931 
L 277.166144 531.797446 
L 279.352665 528.18924 
L 281.539185 524.177485 
L 283.725705 521.186471 
L 285.912226 516.866119 
L 288.098746 513.495295 
L 290.285266 510.789141 
L 292.471787 506.373836 
L 294.658307 501.080217 
L 296.844828 494.433522 
L 299.031348 490.540457 
L 301.217868 484.938242 
L 303.404389 476.511182 
L 305.590909 470.814014 
L 309.96395 452.654292 
L 312.15047 442.446867 
L 314.336991 432.904111 
L 316.523511 427.77666 
L 318.710031 423.385093 
L 320.896552 417.996522 
L 323.083072 411.824591 
L 325.269592 407.789097 
L 327.456113 398.175126 
L 329.642633 393.308796 
L 331.829154 389.581899 
L 334.015674 386.899482 
L 336.202194 380.134095 
L 338.388715 375.315241 
L 340.575235 368.431164 
L 342.761755 362.449138 
L 344.948276 357.27421 
L 347.134796 349.915369 
L 349.321317 345.310158 
L 351.507837 339.897849 
L 353.694357 332.539007 
L 355.880878 326.69941 
L 358.067398 319.530475 
L 360.253918 310.248839 
L 362.440439 302.581401 
L 364.626959 300.065152 
L 366.81348 296.148349 
L 369 287.460168 
L 371.18652 283.8757 
L 373.373041 280.504876 
L 377.746082 270.463618 
L 379.932602 265.882146 
L 382.119122 260.68348 
L 384.305643 255.888364 
L 386.492163 249.526527 
L 390.865204 237.823595 
L 393.051724 235.402299 
L 397.424765 232.624929 
L 399.611285 230.25111 
L 401.797806 226.334307 
L 403.984326 224.696371 
L 406.170846 223.224603 
L 408.357367 221.491714 
L 410.543887 220.589663 
L 412.730408 218.856774 
L 414.916928 217.527435 
L 417.103448 215.201092 
L 419.289969 213.37325 
L 423.663009 208.839254 
L 425.84953 206.868984 
L 428.03605 205.705812 
L 430.222571 205.705812 
L 434.595611 203.616851 
L 436.782132 202.240035 
L 438.968652 201.456675 
L 441.155172 199.533881 
L 443.341693 198.513138 
L 445.528213 196.566606 
L 447.714734 196.163056 
L 452.087774 193.195782 
L 454.274295 190.893176 
L 456.460815 190.062339 
L 458.647335 188.733 
L 460.833856 187.759734 
L 465.206897 183.154524 
L 467.393417 180.875657 
L 469.579937 179.570056 
L 471.766458 176.74521 
L 473.952978 175.890635 
L 476.139498 174.513819 
L 478.326019 173.398124 
L 480.512539 171.950094 
L 482.69906 167.13124 
L 487.0721 161.695192 
L 489.258621 159.867351 
L 491.445141 158.989037 
L 493.631661 157.707175 
L 495.818182 156.591479 
L 498.004702 156.591479 
L 500.191223 154.288874 
L 502.377743 153.03075 
L 506.750784 151.464029 
L 508.937304 150.846835 
L 511.123824 149.849831 
L 513.310345 148.211895 
L 515.496865 147.001247 
L 517.683386 146.83508 
L 519.869906 146.455269 
L 522.056426 144.390045 
L 524.242947 142.704633 
L 526.429467 141.399032 
L 528.615987 140.354552 
L 530.802508 139.666144 
L 532.989028 139.381285 
L 535.175549 138.716616 
L 537.362069 137.411015 
L 539.548589 136.675131 
L 541.73511 135.773079 
L 543.92163 134.44374 
L 546.10815 133.66038 
L 548.294671 133.589165 
L 550.481191 133.161877 
L 552.667712 132.402255 
L 554.854232 131.28656 
L 557.040752 130.004697 
L 559.227273 127.820783 
L 561.413793 127.20359 
L 563.600313 127.179851 
L 565.786834 126.515182 
L 567.973354 125.708083 
L 570.159875 124.758555 
L 572.346395 124.331268 
L 576.719436 123.191834 
L 578.905956 123.168096 
L 583.278997 122.242306 
L 585.465517 121.601375 
L 587.652038 121.245302 
L 589.838558 120.675585 
L 592.025078 119.702319 
L 594.211599 119.322508 
L 596.398119 119.275031 
L 598.584639 117.684572 
L 600.77116 115.951683 
L 602.95768 114.432439 
L 605.144201 113.862722 
L 607.330721 113.862722 
L 609.517241 112.984409 
L 620.449843 111.560117 
L 622.636364 111.109091 
L 622.636364 111.109091 
" style="fill:none;stroke:#17becf;stroke-dasharray:14.8,6.4;stroke-dashoffset:0;stroke-width:4;"/>
   </g>
   <g id="patch_3">
    <path d="M 90 630 
L 90 86.4 
" style="fill:none;stroke:#000000;stroke-linecap:square;stroke-linejoin:miter;stroke-width:0.8;"/>
   </g>
   <g id="patch_4">
    <path d="M 648 630 
L 648 86.4 
" style="fill:none;stroke:#000000;stroke-linecap:square;stroke-linejoin:miter;stroke-width:0.8;"/>
   </g>
   <g id="patch_5">
    <path d="M 90 630 
L 648 630 
" style="fill:none;stroke:#000000;stroke-linecap:square;stroke-linejoin:miter;stroke-width:0.8;"/>
   </g>
   <g id="patch_6">
    <path d="M 90 86.4 
L 648 86.4 
" style="fill:none;stroke:#000000;stroke-linecap:square;stroke-linejoin:miter;stroke-width:0.8;"/>
   </g>
   <g id="text_13">
    <!-- Cote d'Ivoire relative err =  -->
    <g transform="translate(287.2425 80.4)scale(0.12 -0.12)">
     <defs>
      <path d="M 30.609375 48.390625 
Q 23.390625 48.390625 19.1875 42.75 
Q 14.984375 37.109375 14.984375 27.296875 
Q 14.984375 17.484375 19.15625 11.84375 
Q 23.34375 6.203125 30.609375 6.203125 
Q 37.796875 6.203125 41.984375 11.859375 
Q 46.1875 17.53125 46.1875 27.296875 
Q 46.1875 37.015625 41.984375 42.703125 
Q 37.796875 48.390625 30.609375 48.390625 
z
M 30.609375 56 
Q 42.328125 56 49.015625 48.375 
Q 55.71875 40.765625 55.71875 27.296875 
Q 55.71875 13.875 49.015625 6.21875 
Q 42.328125 -1.421875 30.609375 -1.421875 
Q 18.84375 -1.421875 12.171875 6.21875 
Q 5.515625 13.875 5.515625 27.296875 
Q 5.515625 40.765625 12.171875 48.375 
Q 18.84375 56 30.609375 56 
z
" id="DejaVuSans-111"/>
      <path d="M 45.40625 46.390625 
L 45.40625 75.984375 
L 54.390625 75.984375 
L 54.390625 0 
L 45.40625 0 
L 45.40625 8.203125 
Q 42.578125 3.328125 38.25 0.953125 
Q 33.9375 -1.421875 27.875 -1.421875 
Q 17.96875 -1.421875 11.734375 6.484375 
Q 5.515625 14.40625 5.515625 27.296875 
Q 5.515625 40.1875 11.734375 48.09375 
Q 17.96875 56 27.875 56 
Q 33.9375 56 38.25 53.625 
Q 42.578125 51.265625 45.40625 46.390625 
z
M 14.796875 27.296875 
Q 14.796875 17.390625 18.875 11.75 
Q 22.953125 6.109375 30.078125 6.109375 
Q 37.203125 6.109375 41.296875 11.75 
Q 45.40625 17.390625 45.40625 27.296875 
Q 45.40625 37.203125 41.296875 42.84375 
Q 37.203125 48.484375 30.078125 48.484375 
Q 22.953125 48.484375 18.875 42.84375 
Q 14.796875 37.203125 14.796875 27.296875 
z
" id="DejaVuSans-100"/>
      <path d="M 17.921875 72.90625 
L 17.921875 45.796875 
L 9.625 45.796875 
L 9.625 72.90625 
z
" id="DejaVuSans-39"/>
      <path d="M 9.8125 72.90625 
L 19.671875 72.90625 
L 19.671875 0 
L 9.8125 0 
z
" id="DejaVuSans-73"/>
      <path d="M 41.109375 46.296875 
Q 39.59375 47.171875 37.8125 47.578125 
Q 36.03125 48 33.890625 48 
Q 26.265625 48 22.1875 43.046875 
Q 18.109375 38.09375 18.109375 28.8125 
L 18.109375 0 
L 9.078125 0 
L 9.078125 54.6875 
L 18.109375 54.6875 
L 18.109375 46.1875 
Q 20.953125 51.171875 25.484375 53.578125 
Q 30.03125 56 36.53125 56 
Q 37.453125 56 38.578125 55.875 
Q 39.703125 55.765625 41.0625 55.515625 
z
" id="DejaVuSans-114"/>
      <path d="M 10.59375 45.40625 
L 73.1875 45.40625 
L 73.1875 37.203125 
L 10.59375 37.203125 
z
M 10.59375 25.484375 
L 73.1875 25.484375 
L 73.1875 17.1875 
L 10.59375 17.1875 
z
" id="DejaVuSans-61"/>
     </defs>
     <use xlink:href="#DejaVuSans-67"/>
     <use x="69.824219" xlink:href="#DejaVuSans-111"/>
     <use x="131.005859" xlink:href="#DejaVuSans-116"/>
     <use x="170.214844" xlink:href="#DejaVuSans-101"/>
     <use x="231.738281" xlink:href="#DejaVuSans-32"/>
     <use x="263.525391" xlink:href="#DejaVuSans-100"/>
     <use x="327.001953" xlink:href="#DejaVuSans-39"/>
     <use x="354.492188" xlink:href="#DejaVuSans-73"/>
     <use x="383.984375" xlink:href="#DejaVuSans-118"/>
     <use x="443.164062" xlink:href="#DejaVuSans-111"/>
     <use x="504.345703" xlink:href="#DejaVuSans-105"/>
     <use x="532.128906" xlink:href="#DejaVuSans-114"/>
     <use x="570.992188" xlink:href="#DejaVuSans-101"/>
     <use x="632.515625" xlink:href="#DejaVuSans-32"/>
     <use x="664.302734" xlink:href="#DejaVuSans-114"/>
     <use x="703.166016" xlink:href="#DejaVuSans-101"/>
     <use x="764.689453" xlink:href="#DejaVuSans-108"/>
     <use x="792.472656" xlink:href="#DejaVuSans-97"/>
     <use x="853.751953" xlink:href="#DejaVuSans-116"/>
     <use x="892.960938" xlink:href="#DejaVuSans-105"/>
     <use x="920.744141" xlink:href="#DejaVuSans-118"/>
     <use x="979.923828" xlink:href="#DejaVuSans-101"/>
     <use x="1041.447266" xlink:href="#DejaVuSans-32"/>
     <use x="1073.234375" xlink:href="#DejaVuSans-101"/>
     <use x="1134.757812" xlink:href="#DejaVuSans-114"/>
     <use x="1174.121094" xlink:href="#DejaVuSans-114"/>
     <use x="1215.234375" xlink:href="#DejaVuSans-32"/>
     <use x="1247.021484" xlink:href="#DejaVuSans-61"/>
     <use x="1330.810547" xlink:href="#DejaVuSans-32"/>
    </g>
   </g>
   <g id="legend_1">
    <g id="patch_7">
     <path d="M 97 226.503125 
L 185.6 226.503125 
Q 187.6 226.503125 187.6 224.503125 
L 187.6 93.4 
Q 187.6 91.4 185.6 91.4 
L 97 91.4 
Q 95 91.4 95 93.4 
L 95 224.503125 
Q 95 226.503125 97 226.503125 
z
" style="fill:#ffffff;opacity:0.8;stroke:#cccccc;stroke-linejoin:miter;"/>
    </g>
    <g id="line2d_31">
     <path d="M 99 99.498438 
L 119 99.498438 
" style="fill:none;stroke:#1f77b4;stroke-linecap:square;stroke-width:1.5;"/>
    </g>
    <g id="line2d_32"/>
    <g id="text_14">
     <!-- SI -->
     <g transform="translate(127 102.998438)scale(0.1 -0.1)">
      <defs>
       <path d="M 53.515625 70.515625 
L 53.515625 60.890625 
Q 47.90625 63.578125 42.921875 64.890625 
Q 37.9375 66.21875 33.296875 66.21875 
Q 25.25 66.21875 20.875 63.09375 
Q 16.5 59.96875 16.5 54.203125 
Q 16.5 49.359375 19.40625 46.890625 
Q 22.3125 44.4375 30.421875 42.921875 
L 36.375 41.703125 
Q 47.40625 39.59375 52.65625 34.296875 
Q 57.90625 29 57.90625 20.125 
Q 57.90625 9.515625 50.796875 4.046875 
Q 43.703125 -1.421875 29.984375 -1.421875 
Q 24.8125 -1.421875 18.96875 -0.25 
Q 13.140625 0.921875 6.890625 3.21875 
L 6.890625 13.375 
Q 12.890625 10.015625 18.65625 8.296875 
Q 24.421875 6.59375 29.984375 6.59375 
Q 38.421875 6.59375 43.015625 9.90625 
Q 47.609375 13.234375 47.609375 19.390625 
Q 47.609375 24.75 44.3125 27.78125 
Q 41.015625 30.8125 33.5 32.328125 
L 27.484375 33.5 
Q 16.453125 35.6875 11.515625 40.375 
Q 6.59375 45.0625 6.59375 53.421875 
Q 6.59375 63.09375 13.40625 68.65625 
Q 20.21875 74.21875 32.171875 74.21875 
Q 37.3125 74.21875 42.625 73.28125 
Q 47.953125 72.359375 53.515625 70.515625 
z
" id="DejaVuSans-83"/>
      </defs>
      <use xlink:href="#DejaVuSans-83"/>
      <use x="63.476562" xlink:href="#DejaVuSans-73"/>
     </g>
    </g>
    <g id="line2d_33">
     <path d="M 99 114.176563 
L 119 114.176563 
" style="fill:none;stroke:#ff7f0e;stroke-linecap:square;stroke-width:1.5;"/>
    </g>
    <g id="line2d_34"/>
    <g id="text_15">
     <!-- BD -->
     <g transform="translate(127 117.676563)scale(0.1 -0.1)">
      <defs>
       <path d="M 19.671875 34.8125 
L 19.671875 8.109375 
L 35.5 8.109375 
Q 43.453125 8.109375 47.28125 11.40625 
Q 51.125 14.703125 51.125 21.484375 
Q 51.125 28.328125 47.28125 31.5625 
Q 43.453125 34.8125 35.5 34.8125 
z
M 19.671875 64.796875 
L 19.671875 42.828125 
L 34.28125 42.828125 
Q 41.5 42.828125 45.03125 45.53125 
Q 48.578125 48.25 48.578125 53.8125 
Q 48.578125 59.328125 45.03125 62.0625 
Q 41.5 64.796875 34.28125 64.796875 
z
M 9.8125 72.90625 
L 35.015625 72.90625 
Q 46.296875 72.90625 52.390625 68.21875 
Q 58.5 63.53125 58.5 54.890625 
Q 58.5 48.1875 55.375 44.234375 
Q 52.25 40.28125 46.1875 39.3125 
Q 53.46875 37.75 57.5 32.78125 
Q 61.53125 27.828125 61.53125 20.40625 
Q 61.53125 10.640625 54.890625 5.3125 
Q 48.25 0 35.984375 0 
L 9.8125 0 
z
" id="DejaVuSans-66"/>
      </defs>
      <use xlink:href="#DejaVuSans-66"/>
      <use x="68.603516" xlink:href="#DejaVuSans-68"/>
     </g>
    </g>
    <g id="line2d_35">
     <path d="M 99 128.854688 
L 119 128.854688 
" style="fill:none;stroke:#2ca02c;stroke-linecap:square;stroke-width:1.5;"/>
    </g>
    <g id="line2d_36"/>
    <g id="text_16">
     <!-- SIR -->
     <g transform="translate(127 132.354688)scale(0.1 -0.1)">
      <defs>
       <path d="M 44.390625 34.1875 
Q 47.5625 33.109375 50.5625 29.59375 
Q 53.5625 26.078125 56.59375 19.921875 
L 66.609375 0 
L 56 0 
L 46.6875 18.703125 
Q 43.0625 26.03125 39.671875 28.421875 
Q 36.28125 30.8125 30.421875 30.8125 
L 19.671875 30.8125 
L 19.671875 0 
L 9.8125 0 
L 9.8125 72.90625 
L 32.078125 72.90625 
Q 44.578125 72.90625 50.734375 67.671875 
Q 56.890625 62.453125 56.890625 51.90625 
Q 56.890625 45.015625 53.6875 40.46875 
Q 50.484375 35.9375 44.390625 34.1875 
z
M 19.671875 64.796875 
L 19.671875 38.921875 
L 32.078125 38.921875 
Q 39.203125 38.921875 42.84375 42.21875 
Q 46.484375 45.515625 46.484375 51.90625 
Q 46.484375 58.296875 42.84375 61.546875 
Q 39.203125 64.796875 32.078125 64.796875 
z
" id="DejaVuSans-82"/>
      </defs>
      <use xlink:href="#DejaVuSans-83"/>
      <use x="63.476562" xlink:href="#DejaVuSans-73"/>
      <use x="92.96875" xlink:href="#DejaVuSans-82"/>
     </g>
    </g>
    <g id="line2d_37">
     <path d="M 99 143.532812 
L 119 143.532812 
" style="fill:none;stroke:#d62728;stroke-linecap:square;stroke-width:1.5;"/>
    </g>
    <g id="line2d_38"/>
    <g id="text_17">
     <!-- eSIR -->
     <g transform="translate(127 147.032812)scale(0.1 -0.1)">
      <use xlink:href="#DejaVuSans-101"/>
      <use x="61.523438" xlink:href="#DejaVuSans-83"/>
      <use x="125" xlink:href="#DejaVuSans-73"/>
      <use x="154.492188" xlink:href="#DejaVuSans-82"/>
     </g>
    </g>
    <g id="line2d_39">
     <path d="M 99 158.210938 
L 119 158.210938 
" style="fill:none;stroke:#9467bd;stroke-linecap:square;stroke-width:1.5;"/>
    </g>
    <g id="line2d_40"/>
    <g id="text_18">
     <!-- SEIR -->
     <g transform="translate(127 161.710938)scale(0.1 -0.1)">
      <defs>
       <path d="M 9.8125 72.90625 
L 55.90625 72.90625 
L 55.90625 64.59375 
L 19.671875 64.59375 
L 19.671875 43.015625 
L 54.390625 43.015625 
L 54.390625 34.71875 
L 19.671875 34.71875 
L 19.671875 8.296875 
L 56.78125 8.296875 
L 56.78125 0 
L 9.8125 0 
z
" id="DejaVuSans-69"/>
      </defs>
      <use xlink:href="#DejaVuSans-83"/>
      <use x="63.476562" xlink:href="#DejaVuSans-69"/>
      <use x="126.660156" xlink:href="#DejaVuSans-73"/>
      <use x="156.152344" xlink:href="#DejaVuSans-82"/>
     </g>
    </g>
    <g id="line2d_41">
     <path d="M 99 172.889063 
L 119 172.889063 
" style="fill:none;stroke:#8c564b;stroke-linecap:square;stroke-width:1.5;"/>
    </g>
    <g id="line2d_42"/>
    <g id="text_19">
     <!-- eSEIR -->
     <g transform="translate(127 176.389063)scale(0.1 -0.1)">
      <use xlink:href="#DejaVuSans-101"/>
      <use x="61.523438" xlink:href="#DejaVuSans-83"/>
      <use x="125" xlink:href="#DejaVuSans-69"/>
      <use x="188.183594" xlink:href="#DejaVuSans-73"/>
      <use x="217.675781" xlink:href="#DejaVuSans-82"/>
     </g>
    </g>
    <g id="line2d_43">
     <path d="M 99 187.567188 
L 119 187.567188 
" style="fill:none;stroke:#e377c2;stroke-linecap:square;stroke-width:1.5;"/>
    </g>
    <g id="line2d_44"/>
    <g id="text_20">
     <!-- SEIUR -->
     <g transform="translate(127 191.067188)scale(0.1 -0.1)">
      <defs>
       <path d="M 8.6875 72.90625 
L 18.609375 72.90625 
L 18.609375 28.609375 
Q 18.609375 16.890625 22.84375 11.734375 
Q 27.09375 6.59375 36.625 6.59375 
Q 46.09375 6.59375 50.34375 11.734375 
Q 54.59375 16.890625 54.59375 28.609375 
L 54.59375 72.90625 
L 64.5 72.90625 
L 64.5 27.390625 
Q 64.5 13.140625 57.4375 5.859375 
Q 50.390625 -1.421875 36.625 -1.421875 
Q 22.796875 -1.421875 15.734375 5.859375 
Q 8.6875 13.140625 8.6875 27.390625 
z
" id="DejaVuSans-85"/>
      </defs>
      <use xlink:href="#DejaVuSans-83"/>
      <use x="63.476562" xlink:href="#DejaVuSans-69"/>
      <use x="126.660156" xlink:href="#DejaVuSans-73"/>
      <use x="156.152344" xlink:href="#DejaVuSans-85"/>
      <use x="229.345703" xlink:href="#DejaVuSans-82"/>
     </g>
    </g>
    <g id="line2d_45">
     <path d="M 99 202.245312 
L 119 202.245312 
" style="fill:none;stroke:#7f7f7f;stroke-linecap:square;stroke-width:1.5;"/>
    </g>
    <g id="line2d_46"/>
    <g id="text_21">
     <!-- eSEIUR -->
     <g transform="translate(127 205.745312)scale(0.1 -0.1)">
      <use xlink:href="#DejaVuSans-101"/>
      <use x="61.523438" xlink:href="#DejaVuSans-83"/>
      <use x="125" xlink:href="#DejaVuSans-69"/>
      <use x="188.183594" xlink:href="#DejaVuSans-73"/>
      <use x="217.675781" xlink:href="#DejaVuSans-85"/>
      <use x="290.869141" xlink:href="#DejaVuSans-82"/>
     </g>
    </g>
    <g id="line2d_47">
     <path d="M 99 216.923437 
L 119 216.923437 
" style="fill:none;stroke:#bcbd22;stroke-linecap:square;stroke-width:1.5;"/>
    </g>
    <g id="line2d_48"/>
    <g id="text_22">
     <!-- eSEIUR$^{range}$ -->
     <g transform="translate(127 220.423437)scale(0.1 -0.1)">
      <defs>
       <path d="M 44.578125 46.390625 
Q 43.21875 47.125 41.453125 47.515625 
Q 39.703125 47.90625 37.703125 47.90625 
Q 30.515625 47.90625 25.140625 42.453125 
Q 19.78125 37.015625 18.015625 27.875 
L 12.5 0 
L 3.515625 0 
L 14.203125 54.6875 
L 23.1875 54.6875 
L 21.484375 46.1875 
Q 25.046875 50.921875 30 53.453125 
Q 34.96875 56 40.578125 56 
Q 42.046875 56 43.453125 55.828125 
Q 44.875 55.671875 46.296875 55.28125 
z
" id="DejaVuSans-Oblique-114"/>
       <path d="M 53.71875 31.203125 
L 47.609375 0 
L 38.625 0 
L 40.28125 8.296875 
Q 36.328125 3.421875 31.265625 1 
Q 26.21875 -1.421875 20.015625 -1.421875 
Q 13.03125 -1.421875 8.5625 2.84375 
Q 4.109375 7.125 4.109375 13.8125 
Q 4.109375 23.390625 11.75 28.953125 
Q 19.390625 34.515625 32.8125 34.515625 
L 45.3125 34.515625 
L 45.796875 36.921875 
Q 45.90625 37.3125 45.953125 37.765625 
Q 46 38.234375 46 39.203125 
Q 46 43.5625 42.453125 45.96875 
Q 38.921875 48.390625 32.515625 48.390625 
Q 28.125 48.390625 23.5 47.265625 
Q 18.890625 46.140625 14.015625 43.890625 
L 15.578125 52.203125 
Q 20.65625 54.109375 25.515625 55.046875 
Q 30.375 56 34.90625 56 
Q 44.578125 56 49.625 51.796875 
Q 54.6875 47.609375 54.6875 39.59375 
Q 54.6875 37.984375 54.4375 35.8125 
Q 54.203125 33.640625 53.71875 31.203125 
z
M 44 27.484375 
L 35.015625 27.484375 
Q 23.96875 27.484375 18.671875 24.53125 
Q 13.375 21.578125 13.375 15.375 
Q 13.375 11.078125 16.078125 8.640625 
Q 18.796875 6.203125 23.578125 6.203125 
Q 30.90625 6.203125 36.375 11.453125 
Q 41.84375 16.703125 43.609375 25.484375 
z
" id="DejaVuSans-Oblique-97"/>
       <path d="M 55.71875 33.015625 
L 49.3125 0 
L 40.28125 0 
L 46.6875 32.671875 
Q 47.125 34.96875 47.359375 36.71875 
Q 47.609375 38.484375 47.609375 39.5 
Q 47.609375 43.609375 45.015625 45.890625 
Q 42.4375 48.1875 37.796875 48.1875 
Q 30.5625 48.1875 25.34375 43.375 
Q 20.125 38.578125 18.5 30.328125 
L 12.5 0 
L 3.515625 0 
L 14.109375 54.6875 
L 23.09375 54.6875 
L 21.296875 46.09375 
Q 25.046875 50.828125 30.3125 53.40625 
Q 35.59375 56 41.40625 56 
Q 48.640625 56 52.609375 52.09375 
Q 56.59375 48.1875 56.59375 41.109375 
Q 56.59375 39.359375 56.375 37.359375 
Q 56.15625 35.359375 55.71875 33.015625 
z
" id="DejaVuSans-Oblique-110"/>
       <path d="M 59.625 54.6875 
L 50.296875 6.78125 
Q 47.609375 -7.125 40.015625 -13.953125 
Q 32.421875 -20.796875 19.578125 -20.796875 
Q 14.84375 -20.796875 10.78125 -20.09375 
Q 6.734375 -19.390625 3.21875 -17.921875 
L 4.890625 -9.1875 
Q 8.203125 -11.328125 11.90625 -12.34375 
Q 15.625 -13.375 19.828125 -13.375 
Q 28.375 -13.375 33.859375 -8.703125 
Q 39.359375 -4.046875 41.109375 4.6875 
L 41.890625 8.796875 
Q 38.140625 4.5 33.15625 2.25 
Q 28.171875 0 22.40625 0 
Q 14.109375 0 9.34375 5.484375 
Q 4.59375 10.984375 4.59375 20.609375 
Q 4.59375 28.171875 7.46875 35.421875 
Q 10.359375 42.671875 15.578125 48.296875 
Q 19.046875 52 23.65625 54 
Q 28.265625 56 33.296875 56 
Q 38.8125 56 42.90625 53.4375 
Q 47.015625 50.875 49.03125 46.1875 
L 50.59375 54.6875 
z
M 46.09375 34.625 
Q 46.09375 41.265625 42.96875 44.875 
Q 39.84375 48.484375 34.078125 48.484375 
Q 30.515625 48.484375 27.296875 47.0625 
Q 24.078125 45.65625 21.78125 43.109375 
Q 18.0625 38.921875 15.984375 33.234375 
Q 13.921875 27.546875 13.921875 21.484375 
Q 13.921875 14.75 17.0625 11.125 
Q 20.21875 7.515625 26.125 7.515625 
Q 34.671875 7.515625 40.375 15.25 
Q 46.09375 23 46.09375 34.625 
z
" id="DejaVuSans-Oblique-103"/>
       <path d="M 48.09375 32.234375 
Q 48.25 33.015625 48.3125 33.84375 
Q 48.390625 34.671875 48.390625 35.5 
Q 48.390625 41.453125 44.890625 44.921875 
Q 41.40625 48.390625 35.40625 48.390625 
Q 28.71875 48.390625 23.578125 44.15625 
Q 18.453125 39.9375 15.828125 32.171875 
z
M 55.90625 25.203125 
L 14.109375 25.203125 
Q 13.8125 23.34375 13.71875 22.265625 
Q 13.625 21.1875 13.625 20.40625 
Q 13.625 13.625 17.796875 9.90625 
Q 21.96875 6.203125 29.59375 6.203125 
Q 35.453125 6.203125 40.671875 7.515625 
Q 45.90625 8.84375 50.390625 11.375 
L 48.6875 2.484375 
Q 43.84375 0.53125 38.6875 -0.4375 
Q 33.546875 -1.421875 28.21875 -1.421875 
Q 16.84375 -1.421875 10.71875 4.015625 
Q 4.59375 9.46875 4.59375 19.484375 
Q 4.59375 28.03125 7.640625 35.375 
Q 10.6875 42.71875 16.609375 48.484375 
Q 20.40625 52.09375 25.65625 54.046875 
Q 30.90625 56 36.8125 56 
Q 46.09375 56 51.578125 50.4375 
Q 57.078125 44.875 57.078125 35.5 
Q 57.078125 33.25 56.78125 30.6875 
Q 56.5 28.125 55.90625 25.203125 
z
" id="DejaVuSans-Oblique-101"/>
      </defs>
      <use transform="translate(0 0.51875)" xlink:href="#DejaVuSans-101"/>
      <use transform="translate(61.523438 0.51875)" xlink:href="#DejaVuSans-83"/>
      <use transform="translate(125 0.51875)" xlink:href="#DejaVuSans-69"/>
      <use transform="translate(188.183594 0.51875)" xlink:href="#DejaVuSans-73"/>
      <use transform="translate(217.675781 0.51875)" xlink:href="#DejaVuSans-85"/>
      <use transform="translate(288.619141 0.51875)" xlink:href="#DejaVuSans-82"/>
      <use transform="translate(359.058594 38.8)scale(0.7)" xlink:href="#DejaVuSans-Oblique-114"/>
      <use transform="translate(387.837891 38.8)scale(0.7)" xlink:href="#DejaVuSans-Oblique-97"/>
      <use transform="translate(430.733398 38.8)scale(0.7)" xlink:href="#DejaVuSans-Oblique-110"/>
      <use transform="translate(475.098633 38.8)scale(0.7)" xlink:href="#DejaVuSans-Oblique-103"/>
      <use transform="translate(519.532227 38.8)scale(0.7)" xlink:href="#DejaVuSans-Oblique-101"/>
     </g>
    </g>
   </g>
  </g>
 </g>
 <defs>
  <clipPath id="p09c9e50682">
   <rect height="543.6" width="558" x="90" y="86.4"/>
  </clipPath>
 </defs>
</svg>
