<?xml version="1.0" encoding="utf-8" standalone="no"?>
<!DOCTYPE svg PUBLIC "-//W3C//DTD SVG 1.1//EN"
  "http://www.w3.org/Graphics/SVG/1.1/DTD/svg11.dtd">
<!-- Created with matplotlib (https://matplotlib.org/) -->
<svg height="720pt" version="1.1" viewBox="0 0 720 720" width="720pt" xmlns="http://www.w3.org/2000/svg" xmlns:xlink="http://www.w3.org/1999/xlink">
 <metadata>
  <rdf:RDF xmlns:cc="http://creativecommons.org/ns#" xmlns:dc="http://purl.org/dc/elements/1.1/" xmlns:rdf="http://www.w3.org/1999/02/22-rdf-syntax-ns#">
   <cc:Work>
    <dc:type rdf:resource="http://purl.org/dc/dcmitype/StillImage"/>
    <dc:date>2022-10-11T20:58:59.826438</dc:date>
    <dc:format>image/svg+xml</dc:format>
    <dc:creator>
     <cc:Agent>
      <dc:title>Matplotlib v3.3.2, https://matplotlib.org/</dc:title>
     </cc:Agent>
    </dc:creator>
   </cc:Work>
  </rdf:RDF>
 </metadata>
 <defs>
  <style type="text/css">*{stroke-linecap:butt;stroke-linejoin:round;}</style>
 </defs>
 <g id="figure_1">
  <g id="patch_1">
   <path d="M 0 720 
L 720 720 
L 720 0 
L 0 0 
z
" style="fill:none;"/>
  </g>
  <g id="axes_1">
   <g id="patch_2">
    <path d="M 90 630 
L 648 630 
L 648 86.4 
L 90 86.4 
z
" style="fill:#ffffff;"/>
   </g>
   <g id="matplotlib.axis_1">
    <g id="xtick_1">
     <g id="line2d_1">
      <path clip-path="url(#p34af148e16)" d="M 115.363636 630 
L 115.363636 86.4 
" style="fill:none;stroke:#b0b0b0;stroke-linecap:square;stroke-width:0.8;"/>
     </g>
     <g id="line2d_2">
      <defs>
       <path d="M 0 0 
L 0 3.5 
" id="m670f2d9698" style="stroke:#000000;stroke-width:0.8;"/>
      </defs>
      <g>
       <use style="stroke:#000000;stroke-width:0.8;" x="115.363636" xlink:href="#m670f2d9698" y="630"/>
      </g>
     </g>
     <g id="text_1">
      <!-- 0 -->
      <g transform="translate(112.182386 644.598438)scale(0.1 -0.1)">
       <defs>
        <path d="M 31.78125 66.40625 
Q 24.171875 66.40625 20.328125 58.90625 
Q 16.5 51.421875 16.5 36.375 
Q 16.5 21.390625 20.328125 13.890625 
Q 24.171875 6.390625 31.78125 6.390625 
Q 39.453125 6.390625 43.28125 13.890625 
Q 47.125 21.390625 47.125 36.375 
Q 47.125 51.421875 43.28125 58.90625 
Q 39.453125 66.40625 31.78125 66.40625 
z
M 31.78125 74.21875 
Q 44.046875 74.21875 50.515625 64.515625 
Q 56.984375 54.828125 56.984375 36.375 
Q 56.984375 17.96875 50.515625 8.265625 
Q 44.046875 -1.421875 31.78125 -1.421875 
Q 19.53125 -1.421875 13.0625 8.265625 
Q 6.59375 17.96875 6.59375 36.375 
Q 6.59375 54.828125 13.0625 64.515625 
Q 19.53125 74.21875 31.78125 74.21875 
z
" id="DejaVuSans-48"/>
       </defs>
       <use xlink:href="#DejaVuSans-48"/>
      </g>
     </g>
    </g>
    <g id="xtick_2">
     <g id="line2d_3">
      <path clip-path="url(#p34af148e16)" d="M 199.909091 630 
L 199.909091 86.4 
" style="fill:none;stroke:#b0b0b0;stroke-linecap:square;stroke-width:0.8;"/>
     </g>
     <g id="line2d_4">
      <g>
       <use style="stroke:#000000;stroke-width:0.8;" x="199.909091" xlink:href="#m670f2d9698" y="630"/>
      </g>
     </g>
     <g id="text_2">
      <!-- 20 -->
      <g transform="translate(193.546591 644.598438)scale(0.1 -0.1)">
       <defs>
        <path d="M 19.1875 8.296875 
L 53.609375 8.296875 
L 53.609375 0 
L 7.328125 0 
L 7.328125 8.296875 
Q 12.9375 14.109375 22.625 23.890625 
Q 32.328125 33.6875 34.8125 36.53125 
Q 39.546875 41.84375 41.421875 45.53125 
Q 43.3125 49.21875 43.3125 52.78125 
Q 43.3125 58.59375 39.234375 62.25 
Q 35.15625 65.921875 28.609375 65.921875 
Q 23.96875 65.921875 18.8125 64.3125 
Q 13.671875 62.703125 7.8125 59.421875 
L 7.8125 69.390625 
Q 13.765625 71.78125 18.9375 73 
Q 24.125 74.21875 28.421875 74.21875 
Q 39.75 74.21875 46.484375 68.546875 
Q 53.21875 62.890625 53.21875 53.421875 
Q 53.21875 48.921875 51.53125 44.890625 
Q 49.859375 40.875 45.40625 35.40625 
Q 44.1875 33.984375 37.640625 27.21875 
Q 31.109375 20.453125 19.1875 8.296875 
z
" id="DejaVuSans-50"/>
       </defs>
       <use xlink:href="#DejaVuSans-50"/>
       <use x="63.623047" xlink:href="#DejaVuSans-48"/>
      </g>
     </g>
    </g>
    <g id="xtick_3">
     <g id="line2d_5">
      <path clip-path="url(#p34af148e16)" d="M 284.454545 630 
L 284.454545 86.4 
" style="fill:none;stroke:#b0b0b0;stroke-linecap:square;stroke-width:0.8;"/>
     </g>
     <g id="line2d_6">
      <g>
       <use style="stroke:#000000;stroke-width:0.8;" x="284.454545" xlink:href="#m670f2d9698" y="630"/>
      </g>
     </g>
     <g id="text_3">
      <!-- 40 -->
      <g transform="translate(278.092045 644.598438)scale(0.1 -0.1)">
       <defs>
        <path d="M 37.796875 64.3125 
L 12.890625 25.390625 
L 37.796875 25.390625 
z
M 35.203125 72.90625 
L 47.609375 72.90625 
L 47.609375 25.390625 
L 58.015625 25.390625 
L 58.015625 17.1875 
L 47.609375 17.1875 
L 47.609375 0 
L 37.796875 0 
L 37.796875 17.1875 
L 4.890625 17.1875 
L 4.890625 26.703125 
z
" id="DejaVuSans-52"/>
       </defs>
       <use xlink:href="#DejaVuSans-52"/>
       <use x="63.623047" xlink:href="#DejaVuSans-48"/>
      </g>
     </g>
    </g>
    <g id="xtick_4">
     <g id="line2d_7">
      <path clip-path="url(#p34af148e16)" d="M 369 630 
L 369 86.4 
" style="fill:none;stroke:#b0b0b0;stroke-linecap:square;stroke-width:0.8;"/>
     </g>
     <g id="line2d_8">
      <g>
       <use style="stroke:#000000;stroke-width:0.8;" x="369" xlink:href="#m670f2d9698" y="630"/>
      </g>
     </g>
     <g id="text_4">
      <!-- 60 -->
      <g transform="translate(362.6375 644.598438)scale(0.1 -0.1)">
       <defs>
        <path d="M 33.015625 40.375 
Q 26.375 40.375 22.484375 35.828125 
Q 18.609375 31.296875 18.609375 23.390625 
Q 18.609375 15.53125 22.484375 10.953125 
Q 26.375 6.390625 33.015625 6.390625 
Q 39.65625 6.390625 43.53125 10.953125 
Q 47.40625 15.53125 47.40625 23.390625 
Q 47.40625 31.296875 43.53125 35.828125 
Q 39.65625 40.375 33.015625 40.375 
z
M 52.59375 71.296875 
L 52.59375 62.3125 
Q 48.875 64.0625 45.09375 64.984375 
Q 41.3125 65.921875 37.59375 65.921875 
Q 27.828125 65.921875 22.671875 59.328125 
Q 17.53125 52.734375 16.796875 39.40625 
Q 19.671875 43.65625 24.015625 45.921875 
Q 28.375 48.1875 33.59375 48.1875 
Q 44.578125 48.1875 50.953125 41.515625 
Q 57.328125 34.859375 57.328125 23.390625 
Q 57.328125 12.15625 50.6875 5.359375 
Q 44.046875 -1.421875 33.015625 -1.421875 
Q 20.359375 -1.421875 13.671875 8.265625 
Q 6.984375 17.96875 6.984375 36.375 
Q 6.984375 53.65625 15.1875 63.9375 
Q 23.390625 74.21875 37.203125 74.21875 
Q 40.921875 74.21875 44.703125 73.484375 
Q 48.484375 72.75 52.59375 71.296875 
z
" id="DejaVuSans-54"/>
       </defs>
       <use xlink:href="#DejaVuSans-54"/>
       <use x="63.623047" xlink:href="#DejaVuSans-48"/>
      </g>
     </g>
    </g>
    <g id="xtick_5">
     <g id="line2d_9">
      <path clip-path="url(#p34af148e16)" d="M 453.545455 630 
L 453.545455 86.4 
" style="fill:none;stroke:#b0b0b0;stroke-linecap:square;stroke-width:0.8;"/>
     </g>
     <g id="line2d_10">
      <g>
       <use style="stroke:#000000;stroke-width:0.8;" x="453.545455" xlink:href="#m670f2d9698" y="630"/>
      </g>
     </g>
     <g id="text_5">
      <!-- 80 -->
      <g transform="translate(447.182955 644.598438)scale(0.1 -0.1)">
       <defs>
        <path d="M 31.78125 34.625 
Q 24.75 34.625 20.71875 30.859375 
Q 16.703125 27.09375 16.703125 20.515625 
Q 16.703125 13.921875 20.71875 10.15625 
Q 24.75 6.390625 31.78125 6.390625 
Q 38.8125 6.390625 42.859375 10.171875 
Q 46.921875 13.96875 46.921875 20.515625 
Q 46.921875 27.09375 42.890625 30.859375 
Q 38.875 34.625 31.78125 34.625 
z
M 21.921875 38.8125 
Q 15.578125 40.375 12.03125 44.71875 
Q 8.5 49.078125 8.5 55.328125 
Q 8.5 64.0625 14.71875 69.140625 
Q 20.953125 74.21875 31.78125 74.21875 
Q 42.671875 74.21875 48.875 69.140625 
Q 55.078125 64.0625 55.078125 55.328125 
Q 55.078125 49.078125 51.53125 44.71875 
Q 48 40.375 41.703125 38.8125 
Q 48.828125 37.15625 52.796875 32.3125 
Q 56.78125 27.484375 56.78125 20.515625 
Q 56.78125 9.90625 50.3125 4.234375 
Q 43.84375 -1.421875 31.78125 -1.421875 
Q 19.734375 -1.421875 13.25 4.234375 
Q 6.78125 9.90625 6.78125 20.515625 
Q 6.78125 27.484375 10.78125 32.3125 
Q 14.796875 37.15625 21.921875 38.8125 
z
M 18.3125 54.390625 
Q 18.3125 48.734375 21.84375 45.5625 
Q 25.390625 42.390625 31.78125 42.390625 
Q 38.140625 42.390625 41.71875 45.5625 
Q 45.3125 48.734375 45.3125 54.390625 
Q 45.3125 60.0625 41.71875 63.234375 
Q 38.140625 66.40625 31.78125 66.40625 
Q 25.390625 66.40625 21.84375 63.234375 
Q 18.3125 60.0625 18.3125 54.390625 
z
" id="DejaVuSans-56"/>
       </defs>
       <use xlink:href="#DejaVuSans-56"/>
       <use x="63.623047" xlink:href="#DejaVuSans-48"/>
      </g>
     </g>
    </g>
    <g id="xtick_6">
     <g id="line2d_11">
      <path clip-path="url(#p34af148e16)" d="M 538.090909 630 
L 538.090909 86.4 
" style="fill:none;stroke:#b0b0b0;stroke-linecap:square;stroke-width:0.8;"/>
     </g>
     <g id="line2d_12">
      <g>
       <use style="stroke:#000000;stroke-width:0.8;" x="538.090909" xlink:href="#m670f2d9698" y="630"/>
      </g>
     </g>
     <g id="text_6">
      <!-- 100 -->
      <g transform="translate(528.547159 644.598438)scale(0.1 -0.1)">
       <defs>
        <path d="M 12.40625 8.296875 
L 28.515625 8.296875 
L 28.515625 63.921875 
L 10.984375 60.40625 
L 10.984375 69.390625 
L 28.421875 72.90625 
L 38.28125 72.90625 
L 38.28125 8.296875 
L 54.390625 8.296875 
L 54.390625 0 
L 12.40625 0 
z
" id="DejaVuSans-49"/>
       </defs>
       <use xlink:href="#DejaVuSans-49"/>
       <use x="63.623047" xlink:href="#DejaVuSans-48"/>
       <use x="127.246094" xlink:href="#DejaVuSans-48"/>
      </g>
     </g>
    </g>
    <g id="xtick_7">
     <g id="line2d_13">
      <path clip-path="url(#p34af148e16)" d="M 622.636364 630 
L 622.636364 86.4 
" style="fill:none;stroke:#b0b0b0;stroke-linecap:square;stroke-width:0.8;"/>
     </g>
     <g id="line2d_14">
      <g>
       <use style="stroke:#000000;stroke-width:0.8;" x="622.636364" xlink:href="#m670f2d9698" y="630"/>
      </g>
     </g>
     <g id="text_7">
      <!-- 120 -->
      <g transform="translate(613.092614 644.598438)scale(0.1 -0.1)">
       <use xlink:href="#DejaVuSans-49"/>
       <use x="63.623047" xlink:href="#DejaVuSans-50"/>
       <use x="127.246094" xlink:href="#DejaVuSans-48"/>
      </g>
     </g>
    </g>
    <g id="text_8">
     <!-- Days -->
     <g transform="translate(356.521875 658.276562)scale(0.1 -0.1)">
      <defs>
       <path d="M 19.671875 64.796875 
L 19.671875 8.109375 
L 31.59375 8.109375 
Q 46.6875 8.109375 53.6875 14.9375 
Q 60.6875 21.78125 60.6875 36.53125 
Q 60.6875 51.171875 53.6875 57.984375 
Q 46.6875 64.796875 31.59375 64.796875 
z
M 9.8125 72.90625 
L 30.078125 72.90625 
Q 51.265625 72.90625 61.171875 64.09375 
Q 71.09375 55.28125 71.09375 36.53125 
Q 71.09375 17.671875 61.125 8.828125 
Q 51.171875 0 30.078125 0 
L 9.8125 0 
z
" id="DejaVuSans-68"/>
       <path d="M 34.28125 27.484375 
Q 23.390625 27.484375 19.1875 25 
Q 14.984375 22.515625 14.984375 16.5 
Q 14.984375 11.71875 18.140625 8.90625 
Q 21.296875 6.109375 26.703125 6.109375 
Q 34.1875 6.109375 38.703125 11.40625 
Q 43.21875 16.703125 43.21875 25.484375 
L 43.21875 27.484375 
z
M 52.203125 31.203125 
L 52.203125 0 
L 43.21875 0 
L 43.21875 8.296875 
Q 40.140625 3.328125 35.546875 0.953125 
Q 30.953125 -1.421875 24.3125 -1.421875 
Q 15.921875 -1.421875 10.953125 3.296875 
Q 6 8.015625 6 15.921875 
Q 6 25.140625 12.171875 29.828125 
Q 18.359375 34.515625 30.609375 34.515625 
L 43.21875 34.515625 
L 43.21875 35.40625 
Q 43.21875 41.609375 39.140625 45 
Q 35.0625 48.390625 27.6875 48.390625 
Q 23 48.390625 18.546875 47.265625 
Q 14.109375 46.140625 10.015625 43.890625 
L 10.015625 52.203125 
Q 14.9375 54.109375 19.578125 55.046875 
Q 24.21875 56 28.609375 56 
Q 40.484375 56 46.34375 49.84375 
Q 52.203125 43.703125 52.203125 31.203125 
z
" id="DejaVuSans-97"/>
       <path d="M 32.171875 -5.078125 
Q 28.375 -14.84375 24.75 -17.8125 
Q 21.140625 -20.796875 15.09375 -20.796875 
L 7.90625 -20.796875 
L 7.90625 -13.28125 
L 13.1875 -13.28125 
Q 16.890625 -13.28125 18.9375 -11.515625 
Q 21 -9.765625 23.484375 -3.21875 
L 25.09375 0.875 
L 2.984375 54.6875 
L 12.5 54.6875 
L 29.59375 11.921875 
L 46.6875 54.6875 
L 56.203125 54.6875 
z
" id="DejaVuSans-121"/>
       <path d="M 44.28125 53.078125 
L 44.28125 44.578125 
Q 40.484375 46.53125 36.375 47.5 
Q 32.28125 48.484375 27.875 48.484375 
Q 21.1875 48.484375 17.84375 46.4375 
Q 14.5 44.390625 14.5 40.28125 
Q 14.5 37.15625 16.890625 35.375 
Q 19.28125 33.59375 26.515625 31.984375 
L 29.59375 31.296875 
Q 39.15625 29.25 43.1875 25.515625 
Q 47.21875 21.78125 47.21875 15.09375 
Q 47.21875 7.46875 41.1875 3.015625 
Q 35.15625 -1.421875 24.609375 -1.421875 
Q 20.21875 -1.421875 15.453125 -0.5625 
Q 10.6875 0.296875 5.421875 2 
L 5.421875 11.28125 
Q 10.40625 8.6875 15.234375 7.390625 
Q 20.0625 6.109375 24.8125 6.109375 
Q 31.15625 6.109375 34.5625 8.28125 
Q 37.984375 10.453125 37.984375 14.40625 
Q 37.984375 18.0625 35.515625 20.015625 
Q 33.0625 21.96875 24.703125 23.78125 
L 21.578125 24.515625 
Q 13.234375 26.265625 9.515625 29.90625 
Q 5.8125 33.546875 5.8125 39.890625 
Q 5.8125 47.609375 11.28125 51.796875 
Q 16.75 56 26.8125 56 
Q 31.78125 56 36.171875 55.265625 
Q 40.578125 54.546875 44.28125 53.078125 
z
" id="DejaVuSans-115"/>
      </defs>
      <use xlink:href="#DejaVuSans-68"/>
      <use x="77.001953" xlink:href="#DejaVuSans-97"/>
      <use x="138.28125" xlink:href="#DejaVuSans-121"/>
      <use x="197.460938" xlink:href="#DejaVuSans-115"/>
     </g>
    </g>
   </g>
   <g id="matplotlib.axis_2">
    <g id="ytick_1">
     <g id="line2d_15">
      <path clip-path="url(#p34af148e16)" d="M 90 609.030158 
L 648 609.030158 
" style="fill:none;stroke:#b0b0b0;stroke-linecap:square;stroke-width:0.8;"/>
     </g>
     <g id="line2d_16">
      <defs>
       <path d="M 0 0 
L -3.5 0 
" id="m0326a91921" style="stroke:#000000;stroke-width:0.8;"/>
      </defs>
      <g>
       <use style="stroke:#000000;stroke-width:0.8;" x="90" xlink:href="#m0326a91921" y="609.030158"/>
      </g>
     </g>
     <g id="text_9">
      <!-- 0 -->
      <g transform="translate(76.6375 612.829377)scale(0.1 -0.1)">
       <use xlink:href="#DejaVuSans-48"/>
      </g>
     </g>
    </g>
    <g id="ytick_2">
     <g id="line2d_17">
      <path clip-path="url(#p34af148e16)" d="M 90 534.245172 
L 648 534.245172 
" style="fill:none;stroke:#b0b0b0;stroke-linecap:square;stroke-width:0.8;"/>
     </g>
     <g id="line2d_18">
      <g>
       <use style="stroke:#000000;stroke-width:0.8;" x="90" xlink:href="#m0326a91921" y="534.245172"/>
      </g>
     </g>
     <g id="text_10">
      <!-- 500 -->
      <g transform="translate(63.9125 538.044391)scale(0.1 -0.1)">
       <defs>
        <path d="M 10.796875 72.90625 
L 49.515625 72.90625 
L 49.515625 64.59375 
L 19.828125 64.59375 
L 19.828125 46.734375 
Q 21.96875 47.46875 24.109375 47.828125 
Q 26.265625 48.1875 28.421875 48.1875 
Q 40.625 48.1875 47.75 41.5 
Q 54.890625 34.8125 54.890625 23.390625 
Q 54.890625 11.625 47.5625 5.09375 
Q 40.234375 -1.421875 26.90625 -1.421875 
Q 22.3125 -1.421875 17.546875 -0.640625 
Q 12.796875 0.140625 7.71875 1.703125 
L 7.71875 11.625 
Q 12.109375 9.234375 16.796875 8.0625 
Q 21.484375 6.890625 26.703125 6.890625 
Q 35.15625 6.890625 40.078125 11.328125 
Q 45.015625 15.765625 45.015625 23.390625 
Q 45.015625 31 40.078125 35.4375 
Q 35.15625 39.890625 26.703125 39.890625 
Q 22.75 39.890625 18.8125 39.015625 
Q 14.890625 38.140625 10.796875 36.28125 
z
" id="DejaVuSans-53"/>
       </defs>
       <use xlink:href="#DejaVuSans-53"/>
       <use x="63.623047" xlink:href="#DejaVuSans-48"/>
       <use x="127.246094" xlink:href="#DejaVuSans-48"/>
      </g>
     </g>
    </g>
    <g id="ytick_3">
     <g id="line2d_19">
      <path clip-path="url(#p34af148e16)" d="M 90 459.460186 
L 648 459.460186 
" style="fill:none;stroke:#b0b0b0;stroke-linecap:square;stroke-width:0.8;"/>
     </g>
     <g id="line2d_20">
      <g>
       <use style="stroke:#000000;stroke-width:0.8;" x="90" xlink:href="#m0326a91921" y="459.460186"/>
      </g>
     </g>
     <g id="text_11">
      <!-- 1000 -->
      <g transform="translate(57.55 463.259405)scale(0.1 -0.1)">
       <use xlink:href="#DejaVuSans-49"/>
       <use x="63.623047" xlink:href="#DejaVuSans-48"/>
       <use x="127.246094" xlink:href="#DejaVuSans-48"/>
       <use x="190.869141" xlink:href="#DejaVuSans-48"/>
      </g>
     </g>
    </g>
    <g id="ytick_4">
     <g id="line2d_21">
      <path clip-path="url(#p34af148e16)" d="M 90 384.6752 
L 648 384.6752 
" style="fill:none;stroke:#b0b0b0;stroke-linecap:square;stroke-width:0.8;"/>
     </g>
     <g id="line2d_22">
      <g>
       <use style="stroke:#000000;stroke-width:0.8;" x="90" xlink:href="#m0326a91921" y="384.6752"/>
      </g>
     </g>
     <g id="text_12">
      <!-- 1500 -->
      <g transform="translate(57.55 388.474418)scale(0.1 -0.1)">
       <use xlink:href="#DejaVuSans-49"/>
       <use x="63.623047" xlink:href="#DejaVuSans-53"/>
       <use x="127.246094" xlink:href="#DejaVuSans-48"/>
       <use x="190.869141" xlink:href="#DejaVuSans-48"/>
      </g>
     </g>
    </g>
    <g id="ytick_5">
     <g id="line2d_23">
      <path clip-path="url(#p34af148e16)" d="M 90 309.890213 
L 648 309.890213 
" style="fill:none;stroke:#b0b0b0;stroke-linecap:square;stroke-width:0.8;"/>
     </g>
     <g id="line2d_24">
      <g>
       <use style="stroke:#000000;stroke-width:0.8;" x="90" xlink:href="#m0326a91921" y="309.890213"/>
      </g>
     </g>
     <g id="text_13">
      <!-- 2000 -->
      <g transform="translate(57.55 313.689432)scale(0.1 -0.1)">
       <use xlink:href="#DejaVuSans-50"/>
       <use x="63.623047" xlink:href="#DejaVuSans-48"/>
       <use x="127.246094" xlink:href="#DejaVuSans-48"/>
       <use x="190.869141" xlink:href="#DejaVuSans-48"/>
      </g>
     </g>
    </g>
    <g id="ytick_6">
     <g id="line2d_25">
      <path clip-path="url(#p34af148e16)" d="M 90 235.105227 
L 648 235.105227 
" style="fill:none;stroke:#b0b0b0;stroke-linecap:square;stroke-width:0.8;"/>
     </g>
     <g id="line2d_26">
      <g>
       <use style="stroke:#000000;stroke-width:0.8;" x="90" xlink:href="#m0326a91921" y="235.105227"/>
      </g>
     </g>
     <g id="text_14">
      <!-- 2500 -->
      <g transform="translate(57.55 238.904446)scale(0.1 -0.1)">
       <use xlink:href="#DejaVuSans-50"/>
       <use x="63.623047" xlink:href="#DejaVuSans-53"/>
       <use x="127.246094" xlink:href="#DejaVuSans-48"/>
       <use x="190.869141" xlink:href="#DejaVuSans-48"/>
      </g>
     </g>
    </g>
    <g id="ytick_7">
     <g id="line2d_27">
      <path clip-path="url(#p34af148e16)" d="M 90 160.320241 
L 648 160.320241 
" style="fill:none;stroke:#b0b0b0;stroke-linecap:square;stroke-width:0.8;"/>
     </g>
     <g id="line2d_28">
      <g>
       <use style="stroke:#000000;stroke-width:0.8;" x="90" xlink:href="#m0326a91921" y="160.320241"/>
      </g>
     </g>
     <g id="text_15">
      <!-- 3000 -->
      <g transform="translate(57.55 164.11946)scale(0.1 -0.1)">
       <defs>
        <path d="M 40.578125 39.3125 
Q 47.65625 37.796875 51.625 33 
Q 55.609375 28.21875 55.609375 21.1875 
Q 55.609375 10.40625 48.1875 4.484375 
Q 40.765625 -1.421875 27.09375 -1.421875 
Q 22.515625 -1.421875 17.65625 -0.515625 
Q 12.796875 0.390625 7.625 2.203125 
L 7.625 11.71875 
Q 11.71875 9.328125 16.59375 8.109375 
Q 21.484375 6.890625 26.8125 6.890625 
Q 36.078125 6.890625 40.9375 10.546875 
Q 45.796875 14.203125 45.796875 21.1875 
Q 45.796875 27.640625 41.28125 31.265625 
Q 36.765625 34.90625 28.71875 34.90625 
L 20.21875 34.90625 
L 20.21875 43.015625 
L 29.109375 43.015625 
Q 36.375 43.015625 40.234375 45.921875 
Q 44.09375 48.828125 44.09375 54.296875 
Q 44.09375 59.90625 40.109375 62.90625 
Q 36.140625 65.921875 28.71875 65.921875 
Q 24.65625 65.921875 20.015625 65.03125 
Q 15.375 64.15625 9.8125 62.3125 
L 9.8125 71.09375 
Q 15.4375 72.65625 20.34375 73.4375 
Q 25.25 74.21875 29.59375 74.21875 
Q 40.828125 74.21875 47.359375 69.109375 
Q 53.90625 64.015625 53.90625 55.328125 
Q 53.90625 49.265625 50.4375 45.09375 
Q 46.96875 40.921875 40.578125 39.3125 
z
" id="DejaVuSans-51"/>
       </defs>
       <use xlink:href="#DejaVuSans-51"/>
       <use x="63.623047" xlink:href="#DejaVuSans-48"/>
       <use x="127.246094" xlink:href="#DejaVuSans-48"/>
       <use x="190.869141" xlink:href="#DejaVuSans-48"/>
      </g>
     </g>
    </g>
    <g id="text_16">
     <!-- Cumulative cases -->
     <g transform="translate(51.470312 402.425781)rotate(-90)scale(0.1 -0.1)">
      <defs>
       <path d="M 64.40625 67.28125 
L 64.40625 56.890625 
Q 59.421875 61.53125 53.78125 63.8125 
Q 48.140625 66.109375 41.796875 66.109375 
Q 29.296875 66.109375 22.65625 58.46875 
Q 16.015625 50.828125 16.015625 36.375 
Q 16.015625 21.96875 22.65625 14.328125 
Q 29.296875 6.6875 41.796875 6.6875 
Q 48.140625 6.6875 53.78125 8.984375 
Q 59.421875 11.28125 64.40625 15.921875 
L 64.40625 5.609375 
Q 59.234375 2.09375 53.4375 0.328125 
Q 47.65625 -1.421875 41.21875 -1.421875 
Q 24.65625 -1.421875 15.125 8.703125 
Q 5.609375 18.84375 5.609375 36.375 
Q 5.609375 53.953125 15.125 64.078125 
Q 24.65625 74.21875 41.21875 74.21875 
Q 47.75 74.21875 53.53125 72.484375 
Q 59.328125 70.75 64.40625 67.28125 
z
" id="DejaVuSans-67"/>
       <path d="M 8.5 21.578125 
L 8.5 54.6875 
L 17.484375 54.6875 
L 17.484375 21.921875 
Q 17.484375 14.15625 20.5 10.265625 
Q 23.53125 6.390625 29.59375 6.390625 
Q 36.859375 6.390625 41.078125 11.03125 
Q 45.3125 15.671875 45.3125 23.6875 
L 45.3125 54.6875 
L 54.296875 54.6875 
L 54.296875 0 
L 45.3125 0 
L 45.3125 8.40625 
Q 42.046875 3.421875 37.71875 1 
Q 33.40625 -1.421875 27.6875 -1.421875 
Q 18.265625 -1.421875 13.375 4.4375 
Q 8.5 10.296875 8.5 21.578125 
z
M 31.109375 56 
z
" id="DejaVuSans-117"/>
       <path d="M 52 44.1875 
Q 55.375 50.25 60.0625 53.125 
Q 64.75 56 71.09375 56 
Q 79.640625 56 84.28125 50.015625 
Q 88.921875 44.046875 88.921875 33.015625 
L 88.921875 0 
L 79.890625 0 
L 79.890625 32.71875 
Q 79.890625 40.578125 77.09375 44.375 
Q 74.3125 48.1875 68.609375 48.1875 
Q 61.625 48.1875 57.5625 43.546875 
Q 53.515625 38.921875 53.515625 30.90625 
L 53.515625 0 
L 44.484375 0 
L 44.484375 32.71875 
Q 44.484375 40.625 41.703125 44.40625 
Q 38.921875 48.1875 33.109375 48.1875 
Q 26.21875 48.1875 22.15625 43.53125 
Q 18.109375 38.875 18.109375 30.90625 
L 18.109375 0 
L 9.078125 0 
L 9.078125 54.6875 
L 18.109375 54.6875 
L 18.109375 46.1875 
Q 21.1875 51.21875 25.484375 53.609375 
Q 29.78125 56 35.6875 56 
Q 41.65625 56 45.828125 52.96875 
Q 50 49.953125 52 44.1875 
z
" id="DejaVuSans-109"/>
       <path d="M 9.421875 75.984375 
L 18.40625 75.984375 
L 18.40625 0 
L 9.421875 0 
z
" id="DejaVuSans-108"/>
       <path d="M 18.3125 70.21875 
L 18.3125 54.6875 
L 36.8125 54.6875 
L 36.8125 47.703125 
L 18.3125 47.703125 
L 18.3125 18.015625 
Q 18.3125 11.328125 20.140625 9.421875 
Q 21.96875 7.515625 27.59375 7.515625 
L 36.8125 7.515625 
L 36.8125 0 
L 27.59375 0 
Q 17.1875 0 13.234375 3.875 
Q 9.28125 7.765625 9.28125 18.015625 
L 9.28125 47.703125 
L 2.6875 47.703125 
L 2.6875 54.6875 
L 9.28125 54.6875 
L 9.28125 70.21875 
z
" id="DejaVuSans-116"/>
       <path d="M 9.421875 54.6875 
L 18.40625 54.6875 
L 18.40625 0 
L 9.421875 0 
z
M 9.421875 75.984375 
L 18.40625 75.984375 
L 18.40625 64.59375 
L 9.421875 64.59375 
z
" id="DejaVuSans-105"/>
       <path d="M 2.984375 54.6875 
L 12.5 54.6875 
L 29.59375 8.796875 
L 46.6875 54.6875 
L 56.203125 54.6875 
L 35.6875 0 
L 23.484375 0 
z
" id="DejaVuSans-118"/>
       <path d="M 56.203125 29.59375 
L 56.203125 25.203125 
L 14.890625 25.203125 
Q 15.484375 15.921875 20.484375 11.0625 
Q 25.484375 6.203125 34.421875 6.203125 
Q 39.59375 6.203125 44.453125 7.46875 
Q 49.3125 8.734375 54.109375 11.28125 
L 54.109375 2.78125 
Q 49.265625 0.734375 44.1875 -0.34375 
Q 39.109375 -1.421875 33.890625 -1.421875 
Q 20.796875 -1.421875 13.15625 6.1875 
Q 5.515625 13.8125 5.515625 26.8125 
Q 5.515625 40.234375 12.765625 48.109375 
Q 20.015625 56 32.328125 56 
Q 43.359375 56 49.78125 48.890625 
Q 56.203125 41.796875 56.203125 29.59375 
z
M 47.21875 32.234375 
Q 47.125 39.59375 43.09375 43.984375 
Q 39.0625 48.390625 32.421875 48.390625 
Q 24.90625 48.390625 20.390625 44.140625 
Q 15.875 39.890625 15.1875 32.171875 
z
" id="DejaVuSans-101"/>
       <path id="DejaVuSans-32"/>
       <path d="M 48.78125 52.59375 
L 48.78125 44.1875 
Q 44.96875 46.296875 41.140625 47.34375 
Q 37.3125 48.390625 33.40625 48.390625 
Q 24.65625 48.390625 19.8125 42.84375 
Q 14.984375 37.3125 14.984375 27.296875 
Q 14.984375 17.28125 19.8125 11.734375 
Q 24.65625 6.203125 33.40625 6.203125 
Q 37.3125 6.203125 41.140625 7.25 
Q 44.96875 8.296875 48.78125 10.40625 
L 48.78125 2.09375 
Q 45.015625 0.34375 40.984375 -0.53125 
Q 36.96875 -1.421875 32.421875 -1.421875 
Q 20.0625 -1.421875 12.78125 6.34375 
Q 5.515625 14.109375 5.515625 27.296875 
Q 5.515625 40.671875 12.859375 48.328125 
Q 20.21875 56 33.015625 56 
Q 37.15625 56 41.109375 55.140625 
Q 45.0625 54.296875 48.78125 52.59375 
z
" id="DejaVuSans-99"/>
      </defs>
      <use xlink:href="#DejaVuSans-67"/>
      <use x="69.824219" xlink:href="#DejaVuSans-117"/>
      <use x="133.203125" xlink:href="#DejaVuSans-109"/>
      <use x="230.615234" xlink:href="#DejaVuSans-117"/>
      <use x="293.994141" xlink:href="#DejaVuSans-108"/>
      <use x="321.777344" xlink:href="#DejaVuSans-97"/>
      <use x="383.056641" xlink:href="#DejaVuSans-116"/>
      <use x="422.265625" xlink:href="#DejaVuSans-105"/>
      <use x="450.048828" xlink:href="#DejaVuSans-118"/>
      <use x="509.228516" xlink:href="#DejaVuSans-101"/>
      <use x="570.751953" xlink:href="#DejaVuSans-32"/>
      <use x="602.539062" xlink:href="#DejaVuSans-99"/>
      <use x="657.519531" xlink:href="#DejaVuSans-97"/>
      <use x="718.798828" xlink:href="#DejaVuSans-115"/>
      <use x="770.898438" xlink:href="#DejaVuSans-101"/>
      <use x="832.421875" xlink:href="#DejaVuSans-115"/>
     </g>
    </g>
   </g>
   <g id="line2d_29">
    <path clip-path="url(#p34af148e16)" d="M 115.363636 605.290909 
L 119.590909 604.820164 
L 123.818182 604.290786 
L 128.045455 603.69564 
L 132.272727 603.026768 
L 136.5 602.275306 
L 140.727273 601.431395 
L 144.954545 600.484086 
L 149.181818 599.421251 
L 153.409091 598.229476 
L 157.636364 596.893969 
L 161.863636 595.398461 
L 166.090909 593.725121 
L 170.318182 591.854473 
L 174.545455 589.765339 
L 178.772727 587.434801 
L 183 584.838195 
L 187.227273 581.949151 
L 191.454545 578.739687 
L 195.681818 575.180363 
L 199.909091 571.240531 
L 204.136364 566.888668 
L 208.363636 562.09283 
L 212.590909 556.821221 
L 216.818182 551.04291 
L 221.045455 544.728676 
L 225.272727 537.852001 
L 229.5 530.390184 
L 233.727273 522.325571 
L 237.954545 513.64684 
L 242.181818 504.35031 
L 246.409091 494.441196 
L 250.636364 483.934725 
L 254.863636 472.857038 
L 259.090909 461.245764 
L 263.318182 449.1502 
L 267.545455 436.631008 
L 271.772727 423.759401 
L 276 410.6158 
L 280.227273 397.287999 
L 284.454545 383.868923 
L 288.681818 370.454072 
L 292.909091 357.13883 
L 297.136364 344.015765 
L 301.363636 331.17211 
L 305.590909 318.687539 
L 309.818182 306.632383 
L 314.045455 295.066326 
L 318.272727 284.037642 
L 322.5 273.582933 
L 326.727273 263.72735 
L 330.954545 254.485199 
L 335.181818 245.860863 
L 339.409091 237.849934 
L 343.636364 230.440482 
L 347.863636 223.614353 
L 352.090909 217.348466 
L 356.318182 211.616019 
L 360.545455 206.387605 
L 364.772727 201.632181 
L 369 197.317914 
L 373.227273 193.412876 
L 377.454545 189.885603 
L 381.681818 186.705542 
L 385.909091 183.843375 
L 390.136364 181.271255 
L 394.363636 178.962959 
L 398.590909 176.893977 
L 402.818182 175.041544 
L 407.045455 173.384636 
L 411.272727 171.903923 
L 415.5 170.581715 
L 419.727273 169.401878 
L 423.954545 168.349745 
L 428.181818 167.412019 
L 432.409091 166.576679 
L 436.636364 165.832877 
L 440.863636 165.170846 
L 445.090909 164.581804 
L 449.318182 164.057868 
L 453.545455 163.591974 
L 457.772727 163.177794 
L 462 162.80967 
L 466.227273 162.482544 
L 470.454545 162.191901 
L 474.681818 161.933712 
L 478.909091 161.704386 
L 483.136364 161.50072 
L 487.363636 161.319864 
L 491.590909 161.159277 
L 495.818182 161.016701 
L 500.045455 160.890125 
L 504.272727 160.777761 
L 508.5 160.678019 
L 512.727273 160.589487 
L 516.954545 160.510908 
L 521.181818 160.441166 
L 525.409091 160.379269 
L 529.636364 160.324337 
L 533.863636 160.275588 
L 538.090909 160.232327 
L 542.318182 160.193937 
L 546.545455 160.15987 
L 550.772727 160.129639 
L 555 160.102814 
L 559.227273 160.079011 
L 563.454545 160.05789 
L 567.681818 160.039149 
L 571.909091 160.022519 
L 576.136364 160.007764 
L 580.363636 159.994671 
L 584.590909 159.983054 
L 588.818182 159.972746 
L 593.045455 159.963601 
L 597.272727 159.955486 
L 601.5 159.948286 
L 605.727273 159.941897 
L 609.954545 159.936229 
L 614.181818 159.9312 
L 618.409091 159.926737 
L 622.636364 159.922778 
" style="fill:none;stroke:#1f77b4;stroke-linecap:square;stroke-width:1.5;"/>
   </g>
   <g id="line2d_30">
    <path clip-path="url(#p34af148e16)" d="M 115.363636 605.290909 
L 119.590909 601.817096 
L 123.818182 598.209649 
L 128.045455 594.465949 
L 132.272727 590.583563 
L 136.5 586.56027 
L 140.727273 582.394085 
L 144.954545 578.083287 
L 149.181818 573.626443 
L 153.409091 569.022435 
L 157.636364 564.270489 
L 161.863636 559.370199 
L 166.090909 554.321554 
L 170.318182 549.124959 
L 174.545455 543.781264 
L 178.772727 538.291782 
L 183 532.658309 
L 187.227273 526.883141 
L 191.454545 520.969093 
L 195.681818 514.919504 
L 199.909091 508.738249 
L 204.136364 502.429742 
L 208.363636 495.998939 
L 212.590909 489.45133 
L 216.818182 482.792933 
L 221.045455 476.03028 
L 225.272727 469.170399 
L 229.5 462.220795 
L 233.727273 455.189416 
L 237.954545 448.084627 
L 242.181818 440.915173 
L 246.409091 433.690134 
L 250.636364 426.41889 
L 254.863636 419.111065 
L 259.090909 411.776482 
L 263.318182 404.425111 
L 267.545455 397.067011 
L 271.772727 389.712281 
L 276 382.370999 
L 280.227273 375.053171 
L 284.454545 367.768675 
L 288.681818 360.527206 
L 292.909091 353.338232 
L 297.136364 346.210936 
L 301.363636 339.154181 
L 305.590909 332.176461 
L 309.818182 325.285868 
L 314.045455 318.490057 
L 318.272727 311.796217 
L 322.5 305.211047 
L 326.727273 298.74074 
L 330.954545 292.39096 
L 335.181818 286.166844 
L 339.409091 280.072984 
L 343.636364 274.113435 
L 347.863636 268.291715 
L 352.090909 262.610811 
L 356.318182 257.07319 
L 360.545455 251.680813 
L 364.772727 246.435152 
L 369 241.337207 
L 373.227273 236.387531 
L 377.454545 231.586248 
L 381.681818 226.93308 
L 385.909091 222.427372 
L 390.136364 218.068118 
L 394.363636 213.853989 
L 398.590909 209.783354 
L 402.818182 205.854315 
L 407.045455 202.064725 
L 411.272727 198.41222 
L 415.5 194.89424 
L 419.727273 191.508053 
L 423.954545 188.250783 
L 428.181818 185.119425 
L 432.409091 182.11087 
L 436.636364 179.221927 
L 440.863636 176.449334 
L 445.090909 173.789782 
L 449.318182 171.23993 
L 453.545455 168.796414 
L 457.772727 166.455869 
L 462 164.214935 
L 466.227273 162.070269 
L 470.454545 160.018557 
L 474.681818 158.056523 
L 478.909091 156.180933 
L 483.136364 154.388606 
L 487.363636 152.67642 
L 491.590909 151.041314 
L 495.818182 149.480293 
L 500.045455 147.990436 
L 504.272727 146.568894 
L 508.5 145.212894 
L 512.727273 143.919741 
L 516.954545 142.686821 
L 521.181818 141.511599 
L 525.409091 140.391619 
L 529.636364 139.32451 
L 533.863636 138.307976 
L 538.090909 137.339805 
L 542.318182 136.417863 
L 546.545455 135.540093 
L 550.772727 134.704517 
L 555 133.909229 
L 559.227273 133.152399 
L 563.454545 132.432271 
L 567.681818 131.747155 
L 571.909091 131.095433 
L 576.136364 130.475553 
L 580.363636 129.886027 
L 584.590909 129.325431 
L 588.818182 128.7924 
L 593.045455 128.285631 
L 597.272727 127.803873 
L 601.5 127.345935 
L 605.727273 126.910676 
L 609.954545 126.497005 
L 614.181818 126.103883 
L 618.409091 125.730317 
L 622.636364 125.375358 
" style="fill:none;stroke:#ff7f0e;stroke-linecap:square;stroke-width:1.5;"/>
   </g>
   <g id="line2d_31">
    <path clip-path="url(#p34af148e16)" d="M 115.363636 605.290909 
L 119.590909 603.123126 
L 123.818182 600.819973 
L 128.045455 598.374676 
L 132.272727 595.780354 
L 136.5 593.030046 
L 140.727273 590.116758 
L 144.954545 587.033499 
L 149.181818 583.773333 
L 153.409091 580.329438 
L 157.636364 576.695163 
L 161.863636 572.864097 
L 166.090909 568.830145 
L 170.318182 564.587602 
L 174.545455 560.131244 
L 178.772727 555.456411 
L 183 550.5591 
L 187.227273 545.43606 
L 191.454545 540.084889 
L 195.681818 534.504124 
L 199.909091 528.693336 
L 204.136364 522.653218 
L 208.363636 516.385664 
L 212.590909 509.893844 
L 216.818182 503.18226 
L 221.045455 496.256803 
L 225.272727 489.124776 
L 229.5 481.794916 
L 233.727273 474.277387 
L 237.954545 466.583758 
L 242.181818 458.726956 
L 246.409091 450.721202 
L 250.636364 442.581918 
L 254.863636 434.325625 
L 259.090909 425.969809 
L 263.318182 417.532782 
L 267.545455 409.033515 
L 271.772727 400.491473 
L 276 391.926432 
L 280.227273 383.358294 
L 284.454545 374.806902 
L 288.681818 366.291854 
L 292.909091 357.832327 
L 297.136364 349.446909 
L 301.363636 341.153443 
L 305.590909 332.968885 
L 309.818182 324.909182 
L 314.045455 316.989168 
L 318.272727 309.222475 
L 322.5 301.621472 
L 326.727273 294.197216 
L 330.954545 286.95943 
L 335.181818 279.916495 
L 339.409091 273.075456 
L 343.636364 266.442053 
L 347.863636 260.020758 
L 352.090909 253.814826 
L 356.318182 247.826355 
L 360.545455 242.056358 
L 364.772727 236.504836 
L 369 231.170858 
L 373.227273 226.052642 
L 377.454545 221.147638 
L 381.681818 216.452612 
L 385.909091 211.963727 
L 390.136364 207.676622 
L 394.363636 203.586483 
L 398.590909 199.688123 
L 402.818182 195.976044 
L 407.045455 192.444501 
L 411.272727 189.087561 
L 415.5 185.899154 
L 419.727273 182.873125 
L 423.954545 180.003274 
L 428.181818 177.283399 
L 432.409091 174.707323 
L 436.636364 172.268934 
L 440.863636 169.9622 
L 445.090909 167.781202 
L 449.318182 165.720144 
L 453.545455 163.773374 
L 457.772727 161.935395 
L 462 160.200876 
L 466.227273 158.564656 
L 470.454545 157.021756 
L 474.681818 155.567377 
L 478.909091 154.196906 
L 483.136364 152.905913 
L 487.363636 151.690155 
L 491.590909 150.545571 
L 495.818182 149.46828 
L 500.045455 148.454581 
L 504.272727 147.500942 
L 508.5 146.604005 
L 512.727273 145.760572 
L 516.954545 144.967607 
L 521.181818 144.222226 
L 525.409091 143.521696 
L 529.636364 142.863423 
L 533.863636 142.244953 
L 538.090909 141.663962 
L 542.318182 141.118251 
L 546.545455 140.605743 
L 550.772727 140.124475 
L 555 139.672592 
L 559.227273 139.248344 
L 563.454545 138.85008 
L 567.681818 138.476244 
L 571.909091 138.125366 
L 576.136364 137.796063 
L 580.363636 137.487033 
L 584.590909 137.197047 
L 588.818182 136.924951 
L 593.045455 136.669656 
L 597.272727 136.43014 
L 601.5 136.205439 
L 605.727273 135.994647 
L 609.954545 135.796914 
L 614.181818 135.611439 
L 618.409091 135.437469 
L 622.636364 135.274297 
" style="fill:none;stroke:#2ca02c;stroke-linecap:square;stroke-width:1.5;"/>
   </g>
   <g id="line2d_32">
    <path clip-path="url(#p34af148e16)" d="M 115.363636 605.290909 
L 119.590909 602.317527 
L 123.818182 599.171046 
L 128.045455 595.84804 
L 132.272727 592.345386 
L 136.5 588.660302 
L 140.727273 584.79039 
L 144.954545 580.733675 
L 149.181818 576.488651 
L 153.409091 572.054315 
L 157.636364 567.430213 
L 161.863636 562.616476 
L 166.090909 557.613856 
L 170.318182 552.423759 
L 174.545455 547.048274 
L 178.772727 541.4902 
L 183 535.753064 
L 187.227273 529.841139 
L 191.454545 523.759447 
L 195.681818 517.513766 
L 199.909091 511.110622 
L 204.136364 504.557275 
L 208.363636 497.861701 
L 212.590909 491.032562 
L 216.818182 484.079168 
L 221.045455 477.011437 
L 225.272727 469.83984 
L 229.5 462.575344 
L 233.727273 455.22935 
L 237.954545 447.813621 
L 242.181818 440.340211 
L 246.409091 432.821385 
L 250.636364 425.269541 
L 254.863636 417.697129 
L 259.090909 410.116569 
L 263.318182 402.540174 
L 267.545455 394.980068 
L 271.772727 387.448117 
L 276 379.955852 
L 280.227273 372.51441 
L 284.454545 365.134472 
L 288.681818 357.826207 
L 292.909091 350.59923 
L 297.136364 343.462562 
L 301.363636 336.424596 
L 305.590909 329.493073 
L 309.818182 322.675068 
L 314.045455 315.976975 
L 318.272727 309.404509 
L 322.5 302.962704 
L 326.727273 296.655925 
L 330.954545 290.48788 
L 335.181818 284.461641 
L 339.409091 278.579664 
L 343.636364 272.843819 
L 347.863636 267.255414 
L 352.090909 261.815232 
L 356.318182 256.523561 
L 360.545455 251.380229 
L 364.772727 246.384639 
L 369 241.535802 
L 373.227273 236.832376 
L 377.454545 232.272699 
L 381.681818 227.85482 
L 385.909091 223.576536 
L 390.136364 219.435419 
L 394.363636 215.428847 
L 398.590909 211.554035 
L 402.818182 207.808056 
L 407.045455 204.187872 
L 411.272727 200.690352 
L 415.5 197.312295 
L 419.727273 194.050449 
L 423.954545 190.901531 
L 428.181818 187.862238 
L 432.409091 184.929269 
L 436.636364 182.099328 
L 440.863636 179.369146 
L 445.090909 176.735484 
L 449.318182 174.195144 
L 453.545455 171.744977 
L 457.772727 169.381889 
L 462 167.102848 
L 466.227273 164.904886 
L 470.454545 162.785106 
L 474.681818 160.740683 
L 478.909091 158.768866 
L 483.136364 156.866981 
L 487.363636 155.032433 
L 491.590909 153.262703 
L 495.818182 151.555353 
L 500.045455 149.908024 
L 504.272727 148.318432 
L 508.5 146.784374 
L 512.727273 145.303721 
L 516.954545 143.874421 
L 521.181818 142.494494 
L 525.409091 141.162036 
L 529.636364 139.875208 
L 533.863636 138.632246 
L 538.090909 137.431449 
L 542.318182 136.271183 
L 546.545455 135.149876 
L 550.772727 134.066019 
L 555 133.018163 
L 559.227273 132.004913 
L 563.454545 131.024933 
L 567.681818 130.076939 
L 571.909091 129.159699 
L 576.136364 128.272031 
L 580.363636 127.412801 
L 584.590909 126.580919 
L 588.818182 125.775342 
L 593.045455 124.995069 
L 597.272727 124.23914 
L 601.5 123.506633 
L 605.727273 122.796664 
L 609.954545 122.108388 
L 614.181818 121.44099 
L 618.409091 120.793693 
L 622.636364 120.165748 
" style="fill:none;stroke:#d62728;stroke-linecap:square;stroke-width:1.5;"/>
   </g>
   <g id="line2d_33">
    <path clip-path="url(#p34af148e16)" d="M 115.363636 605.290909 
L 119.590909 605.025796 
L 123.818182 604.358486 
L 128.045455 603.384516 
L 132.272727 602.126421 
L 136.5 600.570245 
L 140.727273 598.682528 
L 144.954545 596.418949 
L 149.181818 593.729546 
L 153.409091 590.562805 
L 157.636364 586.869646 
L 161.863636 582.607654 
L 166.090909 577.745453 
L 170.318182 572.266773 
L 174.545455 566.173589 
L 178.772727 559.48768 
L 183 552.250167 
L 187.227273 544.518959 
L 191.454545 536.364488 
L 195.681818 527.864473 
L 199.909091 519.098582 
L 204.136364 510.143763 
L 208.363636 501.07074 
L 212.590909 491.941844 
L 216.818182 482.810069 
L 221.045455 473.71909 
L 225.272727 464.703929 
L 229.5 455.791969 
L 233.727273 447.004113 
L 237.954545 438.355911 
L 242.181818 429.858597 
L 246.409091 421.519979 
L 250.636364 413.345186 
L 254.863636 405.337264 
L 259.090909 397.497665 
L 263.318182 389.826621 
L 267.545455 382.323439 
L 271.772727 374.986734 
L 276 367.8146 
L 280.227273 360.804751 
L 284.454545 353.954619 
L 288.681818 347.261439 
L 292.909091 340.722308 
L 297.136364 334.334232 
L 301.363636 328.094162 
L 305.590909 321.999024 
L 309.818182 316.045736 
L 314.045455 310.231226 
L 318.272727 304.552448 
L 322.5 299.006384 
L 326.727273 293.590057 
L 330.954545 288.300534 
L 335.181818 283.134931 
L 339.409091 278.090413 
L 343.636364 273.1642 
L 347.863636 268.353564 
L 352.090909 263.655835 
L 356.318182 259.068395 
L 360.545455 254.588683 
L 364.772727 250.214192 
L 369 245.942472 
L 373.227273 241.771123 
L 377.454545 237.697803 
L 381.681818 233.720219 
L 385.909091 229.836132 
L 390.136364 226.043353 
L 394.363636 222.339743 
L 398.590909 218.723211 
L 402.818182 215.191718 
L 407.045455 211.743266 
L 411.272727 208.375909 
L 415.5 205.087743 
L 419.727273 201.876908 
L 423.954545 198.741589 
L 428.181818 195.680012 
L 432.409091 192.690445 
L 436.636364 189.771195 
L 440.863636 186.920611 
L 445.090909 184.137079 
L 449.318182 181.419023 
L 453.545455 178.764904 
L 457.772727 176.173218 
L 462 173.642499 
L 466.227273 171.171313 
L 470.454545 168.758259 
L 474.681818 166.401972 
L 478.909091 164.101116 
L 483.136364 161.854387 
L 487.363636 159.660513 
L 491.590909 157.518252 
L 495.818182 155.426388 
L 500.045455 153.383736 
L 504.272727 151.38914 
L 508.5 149.441469 
L 512.727273 147.539619 
L 516.954545 145.682512 
L 521.181818 143.869096 
L 525.409091 142.098343 
L 529.636364 140.36925 
L 533.863636 138.680837 
L 538.090909 137.032147 
L 542.318182 135.422244 
L 546.545455 133.850218 
L 550.772727 132.315177 
L 555 130.81625 
L 559.227273 129.352589 
L 563.454545 127.923363 
L 567.681818 126.527763 
L 571.909091 125.164997 
L 576.136364 123.834294 
L 580.363636 122.534898 
L 584.590909 121.266073 
L 588.818182 120.027101 
L 593.045455 118.817278 
L 597.272727 117.635919 
L 601.5 116.482355 
L 605.727273 115.355931 
L 609.954545 114.256008 
L 614.181818 113.181964 
L 618.409091 112.13319 
L 622.636364 111.109091 
" style="fill:none;stroke:#9467bd;stroke-linecap:square;stroke-width:1.5;"/>
   </g>
   <g id="line2d_34">
    <path clip-path="url(#p34af148e16)" d="M 115.363636 605.290909 
L 119.590909 604.452865 
L 123.818182 602.386295 
L 128.045455 599.539772 
L 132.272727 596.168991 
L 136.5 592.419687 
L 140.727273 588.374976 
L 144.954545 584.082395 
L 149.181818 579.569361 
L 153.409091 574.852008 
L 157.636364 569.940258 
L 161.863636 564.840718 
L 166.090909 559.558356 
L 170.318182 554.097459 
L 174.545455 548.462188 
L 178.772727 542.656903 
L 183 536.686344 
L 187.227273 530.555742 
L 191.454545 524.270868 
L 195.681818 517.838066 
L 199.909091 511.264261 
L 204.136364 504.55695 
L 208.363636 497.724184 
L 212.590909 490.774551 
L 216.818182 483.717135 
L 221.045455 476.561484 
L 225.272727 469.317566 
L 229.5 461.995718 
L 233.727273 454.606597 
L 237.954545 447.161118 
L 242.181818 439.670402 
L 246.409091 432.145708 
L 250.636364 424.598373 
L 254.863636 417.039744 
L 259.090909 409.481119 
L 263.318182 401.93368 
L 267.545455 394.408429 
L 271.772727 386.916135 
L 276 379.467269 
L 280.227273 372.071956 
L 284.454545 364.739925 
L 288.681818 357.480465 
L 292.909091 350.302381 
L 297.136364 343.213969 
L 301.363636 336.222978 
L 305.590909 329.336593 
L 309.818182 322.561416 
L 314.045455 315.903454 
L 318.272727 309.368116 
L 322.5 302.960205 
L 326.727273 296.68393 
L 330.954545 290.542909 
L 335.181818 284.540186 
L 339.409091 278.678242 
L 343.636364 272.959019 
L 347.863636 267.383942 
L 352.090909 261.953942 
L 356.318182 256.669484 
L 360.545455 251.530595 
L 364.772727 246.536894 
L 369 241.687621 
L 373.227273 236.981669 
L 377.454545 232.417611 
L 381.681818 227.993734 
L 385.909091 223.708064 
L 390.136364 219.558399 
L 394.363636 215.542334 
L 398.590909 211.657286 
L 402.818182 207.900524 
L 407.045455 204.269187 
L 411.272727 200.760311 
L 415.5 197.370845 
L 419.727273 194.097676 
L 423.954545 190.937641 
L 428.181818 187.887551 
L 432.409091 184.944195 
L 436.636364 182.104365 
L 440.863636 179.364859 
L 445.090909 176.722499 
L 449.318182 174.174135 
L 453.545455 171.716656 
L 457.772727 169.346999 
L 462 167.062151 
L 466.227273 164.859159 
L 470.454545 162.735131 
L 474.681818 160.687244 
L 478.909091 158.712742 
L 483.136364 156.808942 
L 487.363636 154.973234 
L 491.590909 153.203083 
L 495.818182 151.496031 
L 500.045455 149.849696 
L 504.272727 148.26177 
L 508.5 146.730023 
L 512.727273 145.2523 
L 516.954545 143.826519 
L 521.181818 142.450674 
L 525.409091 141.122827 
L 529.636364 139.841114 
L 533.863636 138.603739 
L 538.090909 137.408972 
L 542.318182 136.255151 
L 546.545455 135.140677 
L 550.772727 134.064012 
L 555 133.023679 
L 559.227273 132.01826 
L 563.454545 131.046391 
L 567.681818 130.106765 
L 571.909091 129.198126 
L 576.136364 128.319271 
L 580.363636 127.469042 
L 584.590909 126.646331 
L 588.818182 125.850075 
L 593.045455 125.079255 
L 597.272727 124.332891 
L 601.5 123.610047 
L 605.727273 122.909823 
L 609.954545 122.231357 
L 614.181818 121.573824 
L 618.409091 120.93643 
L 622.636364 120.318417 
" style="fill:none;stroke:#8c564b;stroke-linecap:square;stroke-width:1.5;"/>
   </g>
   <g id="line2d_35">
    <path clip-path="url(#p34af148e16)" d="M 115.363636 605.290909 
L 119.590909 604.951745 
L 123.818182 604.100343 
L 128.045455 602.875989 
L 132.272727 601.332816 
L 136.5 599.481734 
L 140.727273 597.311029 
L 144.954545 594.797107 
L 149.181818 591.910565 
L 153.409091 588.620057 
L 157.636364 584.895185 
L 161.863636 580.708938 
L 166.090909 576.039923 
L 170.318182 570.874367 
L 174.545455 565.207778 
L 178.772727 559.046108 
L 183 552.406261 
L 187.227273 545.315832 
L 191.454545 537.812082 
L 195.681818 529.940237 
L 199.909091 521.751311 
L 204.136364 513.299692 
L 208.363636 504.640757 
L 212.590909 495.82873 
L 216.818182 486.914946 
L 221.045455 477.946586 
L 225.272727 468.96589 
L 229.5 460.009798 
L 233.727273 451.109937 
L 237.954545 442.292851 
L 242.181818 433.580409 
L 246.409091 424.990283 
L 250.636364 416.536481 
L 254.863636 408.229853 
L 259.090909 400.078577 
L 263.318182 392.088593 
L 267.545455 384.263988 
L 271.772727 376.607322 
L 276 369.119916 
L 280.227273 361.80208 
L 284.454545 354.653315 
L 288.681818 347.672473 
L 292.909091 340.857889 
L 297.136364 334.207494 
L 301.363636 327.718902 
L 305.590909 321.389484 
L 309.818182 315.216426 
L 314.045455 309.196778 
L 318.272727 303.327493 
L 322.5 297.605461 
L 326.727273 292.027529 
L 330.954545 286.590529 
L 335.181818 281.291289 
L 339.409091 276.12665 
L 343.636364 271.093476 
L 347.863636 266.18866 
L 352.090909 261.409138 
L 356.318182 256.751884 
L 360.545455 252.213925 
L 364.772727 247.792336 
L 369 243.484247 
L 373.227273 239.286844 
L 377.454545 235.197368 
L 381.681818 231.21312 
L 385.909091 227.331457 
L 390.136364 223.549794 
L 394.363636 219.865607 
L 398.590909 216.276425 
L 402.818182 212.779838 
L 407.045455 209.373491 
L 411.272727 206.055086 
L 415.5 202.822378 
L 419.727273 199.673178 
L 423.954545 196.60535 
L 428.181818 193.61681 
L 432.409091 190.705526 
L 436.636364 187.869514 
L 440.863636 185.106843 
L 445.090909 182.415627 
L 449.318182 179.794028 
L 453.545455 177.240257 
L 457.772727 174.752565 
L 462 172.329252 
L 466.227273 169.968658 
L 470.454545 167.669166 
L 474.681818 165.429201 
L 478.909091 163.247225 
L 483.136364 161.121744 
L 487.363636 159.051298 
L 491.590909 157.034466 
L 495.818182 155.069863 
L 500.045455 153.156141 
L 504.272727 151.291983 
L 508.5 149.47611 
L 512.727273 147.707272 
L 516.954545 145.984254 
L 521.181818 144.305871 
L 525.409091 142.670969 
L 529.636364 141.078422 
L 533.863636 139.527135 
L 538.090909 138.01604 
L 542.318182 136.544098 
L 546.545455 135.110295 
L 550.772727 133.713644 
L 555 132.353183 
L 559.227273 131.027976 
L 563.454545 129.73711 
L 567.681818 128.479695 
L 571.909091 127.254867 
L 576.136364 126.06178 
L 580.363636 124.899613 
L 584.590909 123.767565 
L 588.818182 122.664857 
L 593.045455 121.590728 
L 597.272727 120.544438 
L 601.5 119.525266 
L 605.727273 118.532509 
L 609.954545 117.565484 
L 614.181818 116.623523 
L 618.409091 115.705978 
L 622.636364 114.812216 
" style="fill:none;stroke:#e377c2;stroke-linecap:square;stroke-width:1.5;"/>
   </g>
   <g id="line2d_36">
    <path clip-path="url(#p34af148e16)" d="M 115.363636 605.290909 
L 119.590909 604.449545 
L 123.818182 602.375729 
L 128.045455 599.520611 
L 132.272727 596.141227 
L 136.5 592.383991 
L 140.727273 588.332351 
L 144.954545 584.033986 
L 149.181818 579.516357 
L 153.409091 574.795587 
L 157.636364 569.881555 
L 161.863636 564.780813 
L 166.090909 559.498259 
L 170.318182 554.038107 
L 174.545455 548.40444 
L 178.772727 542.601537 
L 183 536.634055 
L 187.227273 530.507138 
L 191.454545 524.226474 
L 195.681818 517.798324 
L 199.909091 511.229526 
L 204.136364 504.527496 
L 208.363636 497.700207 
L 212.590909 490.756165 
L 216.818182 483.704384 
L 221.045455 476.55434 
L 225.272727 469.315936 
L 229.5 461.999448 
L 233.727273 454.615476 
L 237.954545 447.174889 
L 242.181818 439.688762 
L 246.409091 432.168317 
L 250.636364 424.624858 
L 254.863636 417.06971 
L 259.090909 409.514149 
L 263.318182 401.969346 
L 267.545455 394.446296 
L 271.772727 386.955764 
L 276 379.508227 
L 280.227273 372.113818 
L 284.454545 364.782278 
L 288.681818 357.522913 
L 292.909091 350.344548 
L 297.136364 343.255501 
L 301.363636 336.263546 
L 305.590909 329.375896 
L 309.818182 322.599181 
L 314.045455 315.939437 
L 318.272727 309.402101 
L 322.5 302.992009 
L 326.727273 296.713396 
L 330.954545 290.569911 
L 335.181818 284.564624 
L 339.409091 278.700043 
L 343.636364 272.978135 
L 347.863636 267.400348 
L 352.090909 261.967634 
L 356.318182 256.68048 
L 360.545455 251.53893 
L 364.772727 246.542619 
L 369 241.690803 
L 373.227273 236.982384 
L 377.454545 232.41595 
L 381.681818 227.989794 
L 385.909091 223.701952 
L 390.136364 219.550226 
L 394.363636 215.532217 
L 398.590909 211.645345 
L 402.818182 207.886881 
L 407.045455 204.253965 
L 411.272727 200.743633 
L 415.5 197.352834 
L 419.727273 194.078452 
L 423.954545 190.917325 
L 428.181818 187.866256 
L 432.409091 184.922037 
L 436.636364 182.081451 
L 440.863636 179.341297 
L 445.090909 176.698388 
L 449.318182 174.149573 
L 453.545455 171.691736 
L 457.772727 169.321809 
L 462 167.036774 
L 466.227273 164.833674 
L 470.454545 162.709614 
L 474.681818 160.661764 
L 478.909091 158.687364 
L 483.136364 156.783727 
L 487.363636 154.94824 
L 491.590909 153.178364 
L 495.818182 151.471635 
L 500.045455 149.825669 
L 504.272727 148.238154 
L 508.5 146.706857 
L 512.727273 145.229619 
L 516.954545 143.804357 
L 521.181818 142.429058 
L 525.409091 141.101785 
L 529.636364 139.820671 
L 533.863636 138.583915 
L 538.090909 137.389788 
L 542.318182 136.236624 
L 546.545455 135.122822 
L 550.772727 134.046843 
L 555 133.007207 
L 559.227273 132.002495 
L 563.454545 131.031342 
L 567.681818 130.092439 
L 571.909091 129.184529 
L 576.136364 128.306407 
L 580.363636 127.456915 
L 584.590909 126.634944 
L 588.818182 125.839429 
L 593.045455 125.069349 
L 597.272727 124.323727 
L 601.5 123.601622 
L 605.727273 122.902137 
L 609.954545 122.224407 
L 614.181818 121.567607 
L 618.409091 120.930942 
L 622.636364 120.313654 
" style="fill:none;stroke:#7f7f7f;stroke-linecap:square;stroke-width:1.5;"/>
   </g>
   <g id="line2d_37">
    <path clip-path="url(#p34af148e16)" d="M 115.363636 605.290909 
L 119.590909 604.933055 
L 123.818182 603.895325 
L 128.045455 602.227525 
L 132.272727 599.974905 
L 136.5 597.178909 
L 140.727273 593.877787 
L 144.954545 590.107103 
L 149.181818 585.900144 
L 153.409091 581.288264 
L 157.636364 576.301154 
L 161.863636 570.967065 
L 166.090909 565.312982 
L 170.318182 559.364768 
L 174.545455 553.147267 
L 178.772727 546.684391 
L 183 539.999181 
L 187.227273 533.11385 
L 191.454545 526.049818 
L 195.681818 518.827732 
L 199.909091 511.467477 
L 204.136364 503.988185 
L 208.363636 496.408236 
L 212.590909 488.745257 
L 216.818182 481.016123 
L 221.045455 473.23695 
L 225.272727 465.423098 
L 229.5 457.589166 
L 233.727273 449.748991 
L 237.954545 441.915656 
L 242.181818 434.101488 
L 246.409091 426.318067 
L 250.636364 418.576232 
L 254.863636 410.886097 
L 259.090909 403.257056 
L 263.318182 395.697807 
L 267.545455 388.21636 
L 271.772727 380.820063 
L 276 373.515618 
L 280.227273 366.309102 
L 284.454545 359.205993 
L 288.681818 352.211193 
L 292.909091 345.329051 
L 297.136364 338.563388 
L 301.363636 331.917523 
L 305.590909 325.3943 
L 309.818182 318.996111 
L 314.045455 312.724924 
L 318.272727 306.582307 
L 322.5 300.569451 
L 326.727273 294.6872 
L 330.954545 288.936068 
L 335.181818 283.316267 
L 339.409091 277.827726 
L 343.636364 272.470117 
L 347.863636 267.24287 
L 352.090909 262.145199 
L 356.318182 257.176116 
L 360.545455 252.334453 
L 364.772727 247.618876 
L 369 243.027903 
L 373.227273 238.559921 
L 377.454545 234.213198 
L 381.681818 229.985897 
L 385.909091 225.876092 
L 390.136364 221.881775 
L 394.363636 218.000871 
L 398.590909 214.231249 
L 402.818182 210.570728 
L 407.045455 207.017089 
L 411.272727 203.568083 
L 415.5 200.221439 
L 419.727273 196.974868 
L 423.954545 193.826075 
L 428.181818 190.772761 
L 432.409091 187.812628 
L 436.636364 184.943387 
L 440.863636 182.162762 
L 445.090909 179.46849 
L 449.318182 176.858329 
L 453.545455 174.330061 
L 457.772727 171.881493 
L 462 169.51046 
L 466.227273 167.214829 
L 470.454545 164.992498 
L 474.681818 162.841402 
L 478.909091 160.759508 
L 483.136364 158.744826 
L 487.363636 156.795399 
L 491.590909 154.909311 
L 495.818182 153.084688 
L 500.045455 151.319694 
L 504.272727 149.612534 
L 508.5 147.961454 
L 512.727273 146.364743 
L 516.954545 144.82073 
L 521.181818 143.327784 
L 525.409091 141.884318 
L 529.636364 140.488781 
L 533.863636 139.139668 
L 538.090909 137.835509 
L 542.318182 136.574877 
L 546.545455 135.356382 
L 550.772727 134.178674 
L 555 133.040439 
L 559.227273 131.940403 
L 563.454545 130.877326 
L 567.681818 129.850006 
L 571.909091 128.857274 
L 576.136364 127.897998 
L 580.363636 126.971078 
L 584.590909 126.075448 
L 588.818182 125.210075 
L 593.045455 124.373956 
L 597.272727 123.56612 
L 601.5 122.785626 
L 605.727273 122.031561 
L 609.954545 121.303044 
L 614.181818 120.599217 
L 618.409091 119.919254 
L 622.636364 119.262353 
" style="fill:none;stroke:#bcbd22;stroke-linecap:square;stroke-width:1.5;"/>
   </g>
   <g id="line2d_38">
    <path clip-path="url(#p34af148e16)" d="M 115.363636 605.290909 
L 119.590909 600.05596 
L 123.818182 600.05596 
L 128.045455 597.064561 
L 132.272727 597.064561 
L 136.5 591.680042 
L 140.727273 588.838212 
L 144.954545 584.500683 
L 149.181818 573.582075 
L 153.409091 566.253146 
L 157.636364 566.253146 
L 161.863636 559.971207 
L 166.090909 559.971207 
L 170.318182 550.697869 
L 174.545455 543.81765 
L 178.772727 537.236572 
L 183 530.057213 
L 187.227273 521.980434 
L 191.454545 519.138605 
L 195.681818 519.138605 
L 199.909091 508.668707 
L 204.136364 501.040638 
L 208.363636 495.955259 
L 212.590909 484.139231 
L 216.818182 478.455572 
L 221.045455 470.229224 
L 225.272727 470.229224 
L 229.5 459.908896 
L 233.727273 451.383407 
L 237.954545 446.148458 
L 242.181818 434.033291 
L 246.409091 426.704362 
L 250.636364 416.982314 
L 254.863636 416.982314 
L 259.090909 406.063706 
L 263.318182 396.491227 
L 267.545455 391.405848 
L 271.772727 384.37606 
L 276 373.756592 
L 280.227273 370.615622 
L 284.454545 370.615622 
L 288.681818 370.615622 
L 292.909091 370.615622 
L 297.136364 356.406475 
L 301.363636 353.115935 
L 305.590909 350.124536 
L 309.818182 335.616249 
L 314.045455 335.616249 
L 318.272727 322.454091 
L 322.5 313.479893 
L 326.727273 306.450104 
L 330.954545 296.578486 
L 335.181818 288.052997 
L 339.409091 279.377939 
L 343.636364 279.377939 
L 347.863636 266.664491 
L 352.090909 259.933843 
L 356.318182 254.848463 
L 360.545455 247.669105 
L 364.772727 242.284586 
L 369 233.160817 
L 373.227273 233.160817 
L 377.454545 223.289199 
L 381.681818 217.45597 
L 385.909091 213.866291 
L 390.136364 211.473171 
L 394.363636 205.789513 
L 398.590909 202.349403 
L 402.818182 202.349403 
L 407.045455 196.964884 
L 411.272727 193.375205 
L 415.5 188.439396 
L 419.727273 188.439396 
L 423.954545 184.999286 
L 428.181818 178.567778 
L 432.409091 178.567778 
L 436.636364 178.567778 
L 440.863636 176.174658 
L 445.090909 174.678958 
L 449.318182 171.687559 
L 453.545455 171.687559 
L 457.772727 168.696159 
L 462 168.696159 
L 466.227273 166.15347 
L 470.454545 160.768951 
L 474.681818 159.422821 
L 478.909091 158.076691 
L 483.136364 156.132282 
L 487.363636 154.636582 
L 491.590909 154.636582 
L 495.818182 152.692172 
L 500.045455 151.495612 
L 504.272727 149.551203 
L 508.5 148.952923 
L 512.727273 147.905933 
L 516.954545 144.465824 
L 521.181818 144.465824 
L 525.409091 143.717974 
L 529.636364 142.521414 
L 533.863636 140.876144 
L 538.090909 140.128295 
L 542.318182 136.239475 
L 546.545455 134.743776 
L 550.772727 134.743776 
L 555 133.696786 
L 559.227273 133.696786 
L 563.454545 131.004526 
L 567.681818 128.611407 
L 571.909091 128.611407 
L 576.136364 128.611407 
L 580.363636 128.611407 
L 584.590909 128.611407 
L 588.818182 127.414847 
L 593.045455 127.414847 
L 597.272727 127.414847 
L 601.5 126.367857 
L 605.727273 126.367857 
L 609.954545 126.367857 
L 614.181818 126.367857 
L 618.409091 126.367857 
L 622.636364 126.367857 
" style="fill:none;stroke:#17becf;stroke-dasharray:14.8,6.4;stroke-dashoffset:0;stroke-width:4;"/>
   </g>
   <g id="patch_3">
    <path d="M 90 630 
L 90 86.4 
" style="fill:none;stroke:#000000;stroke-linecap:square;stroke-linejoin:miter;stroke-width:0.8;"/>
   </g>
   <g id="patch_4">
    <path d="M 648 630 
L 648 86.4 
" style="fill:none;stroke:#000000;stroke-linecap:square;stroke-linejoin:miter;stroke-width:0.8;"/>
   </g>
   <g id="patch_5">
    <path d="M 90 630 
L 648 630 
" style="fill:none;stroke:#000000;stroke-linecap:square;stroke-linejoin:miter;stroke-width:0.8;"/>
   </g>
   <g id="patch_6">
    <path d="M 90 86.4 
L 648 86.4 
" style="fill:none;stroke:#000000;stroke-linecap:square;stroke-linejoin:miter;stroke-width:0.8;"/>
   </g>
   <g id="text_17">
    <!-- Somalia relative err =  -->
    <g transform="translate(301.183125 80.4)scale(0.12 -0.12)">
     <defs>
      <path d="M 53.515625 70.515625 
L 53.515625 60.890625 
Q 47.90625 63.578125 42.921875 64.890625 
Q 37.9375 66.21875 33.296875 66.21875 
Q 25.25 66.21875 20.875 63.09375 
Q 16.5 59.96875 16.5 54.203125 
Q 16.5 49.359375 19.40625 46.890625 
Q 22.3125 44.4375 30.421875 42.921875 
L 36.375 41.703125 
Q 47.40625 39.59375 52.65625 34.296875 
Q 57.90625 29 57.90625 20.125 
Q 57.90625 9.515625 50.796875 4.046875 
Q 43.703125 -1.421875 29.984375 -1.421875 
Q 24.8125 -1.421875 18.96875 -0.25 
Q 13.140625 0.921875 6.890625 3.21875 
L 6.890625 13.375 
Q 12.890625 10.015625 18.65625 8.296875 
Q 24.421875 6.59375 29.984375 6.59375 
Q 38.421875 6.59375 43.015625 9.90625 
Q 47.609375 13.234375 47.609375 19.390625 
Q 47.609375 24.75 44.3125 27.78125 
Q 41.015625 30.8125 33.5 32.328125 
L 27.484375 33.5 
Q 16.453125 35.6875 11.515625 40.375 
Q 6.59375 45.0625 6.59375 53.421875 
Q 6.59375 63.09375 13.40625 68.65625 
Q 20.21875 74.21875 32.171875 74.21875 
Q 37.3125 74.21875 42.625 73.28125 
Q 47.953125 72.359375 53.515625 70.515625 
z
" id="DejaVuSans-83"/>
      <path d="M 30.609375 48.390625 
Q 23.390625 48.390625 19.1875 42.75 
Q 14.984375 37.109375 14.984375 27.296875 
Q 14.984375 17.484375 19.15625 11.84375 
Q 23.34375 6.203125 30.609375 6.203125 
Q 37.796875 6.203125 41.984375 11.859375 
Q 46.1875 17.53125 46.1875 27.296875 
Q 46.1875 37.015625 41.984375 42.703125 
Q 37.796875 48.390625 30.609375 48.390625 
z
M 30.609375 56 
Q 42.328125 56 49.015625 48.375 
Q 55.71875 40.765625 55.71875 27.296875 
Q 55.71875 13.875 49.015625 6.21875 
Q 42.328125 -1.421875 30.609375 -1.421875 
Q 18.84375 -1.421875 12.171875 6.21875 
Q 5.515625 13.875 5.515625 27.296875 
Q 5.515625 40.765625 12.171875 48.375 
Q 18.84375 56 30.609375 56 
z
" id="DejaVuSans-111"/>
      <path d="M 41.109375 46.296875 
Q 39.59375 47.171875 37.8125 47.578125 
Q 36.03125 48 33.890625 48 
Q 26.265625 48 22.1875 43.046875 
Q 18.109375 38.09375 18.109375 28.8125 
L 18.109375 0 
L 9.078125 0 
L 9.078125 54.6875 
L 18.109375 54.6875 
L 18.109375 46.1875 
Q 20.953125 51.171875 25.484375 53.578125 
Q 30.03125 56 36.53125 56 
Q 37.453125 56 38.578125 55.875 
Q 39.703125 55.765625 41.0625 55.515625 
z
" id="DejaVuSans-114"/>
      <path d="M 10.59375 45.40625 
L 73.1875 45.40625 
L 73.1875 37.203125 
L 10.59375 37.203125 
z
M 10.59375 25.484375 
L 73.1875 25.484375 
L 73.1875 17.1875 
L 10.59375 17.1875 
z
" id="DejaVuSans-61"/>
     </defs>
     <use xlink:href="#DejaVuSans-83"/>
     <use x="63.476562" xlink:href="#DejaVuSans-111"/>
     <use x="124.658203" xlink:href="#DejaVuSans-109"/>
     <use x="222.070312" xlink:href="#DejaVuSans-97"/>
     <use x="283.349609" xlink:href="#DejaVuSans-108"/>
     <use x="311.132812" xlink:href="#DejaVuSans-105"/>
     <use x="338.916016" xlink:href="#DejaVuSans-97"/>
     <use x="400.195312" xlink:href="#DejaVuSans-32"/>
     <use x="431.982422" xlink:href="#DejaVuSans-114"/>
     <use x="470.845703" xlink:href="#DejaVuSans-101"/>
     <use x="532.369141" xlink:href="#DejaVuSans-108"/>
     <use x="560.152344" xlink:href="#DejaVuSans-97"/>
     <use x="621.431641" xlink:href="#DejaVuSans-116"/>
     <use x="660.640625" xlink:href="#DejaVuSans-105"/>
     <use x="688.423828" xlink:href="#DejaVuSans-118"/>
     <use x="747.603516" xlink:href="#DejaVuSans-101"/>
     <use x="809.126953" xlink:href="#DejaVuSans-32"/>
     <use x="840.914062" xlink:href="#DejaVuSans-101"/>
     <use x="902.4375" xlink:href="#DejaVuSans-114"/>
     <use x="941.800781" xlink:href="#DejaVuSans-114"/>
     <use x="982.914062" xlink:href="#DejaVuSans-32"/>
     <use x="1014.701172" xlink:href="#DejaVuSans-61"/>
     <use x="1098.490234" xlink:href="#DejaVuSans-32"/>
    </g>
   </g>
   <g id="legend_1">
    <g id="patch_7">
     <path d="M 97 226.503125 
L 185.6 226.503125 
Q 187.6 226.503125 187.6 224.503125 
L 187.6 93.4 
Q 187.6 91.4 185.6 91.4 
L 97 91.4 
Q 95 91.4 95 93.4 
L 95 224.503125 
Q 95 226.503125 97 226.503125 
z
" style="fill:#ffffff;opacity:0.8;stroke:#cccccc;stroke-linejoin:miter;"/>
    </g>
    <g id="line2d_39">
     <path d="M 99 99.498438 
L 119 99.498438 
" style="fill:none;stroke:#1f77b4;stroke-linecap:square;stroke-width:1.5;"/>
    </g>
    <g id="line2d_40"/>
    <g id="text_18">
     <!-- SI -->
     <g transform="translate(127 102.998438)scale(0.1 -0.1)">
      <defs>
       <path d="M 9.8125 72.90625 
L 19.671875 72.90625 
L 19.671875 0 
L 9.8125 0 
z
" id="DejaVuSans-73"/>
      </defs>
      <use xlink:href="#DejaVuSans-83"/>
      <use x="63.476562" xlink:href="#DejaVuSans-73"/>
     </g>
    </g>
    <g id="line2d_41">
     <path d="M 99 114.176563 
L 119 114.176563 
" style="fill:none;stroke:#ff7f0e;stroke-linecap:square;stroke-width:1.5;"/>
    </g>
    <g id="line2d_42"/>
    <g id="text_19">
     <!-- BD -->
     <g transform="translate(127 117.676563)scale(0.1 -0.1)">
      <defs>
       <path d="M 19.671875 34.8125 
L 19.671875 8.109375 
L 35.5 8.109375 
Q 43.453125 8.109375 47.28125 11.40625 
Q 51.125 14.703125 51.125 21.484375 
Q 51.125 28.328125 47.28125 31.5625 
Q 43.453125 34.8125 35.5 34.8125 
z
M 19.671875 64.796875 
L 19.671875 42.828125 
L 34.28125 42.828125 
Q 41.5 42.828125 45.03125 45.53125 
Q 48.578125 48.25 48.578125 53.8125 
Q 48.578125 59.328125 45.03125 62.0625 
Q 41.5 64.796875 34.28125 64.796875 
z
M 9.8125 72.90625 
L 35.015625 72.90625 
Q 46.296875 72.90625 52.390625 68.21875 
Q 58.5 63.53125 58.5 54.890625 
Q 58.5 48.1875 55.375 44.234375 
Q 52.25 40.28125 46.1875 39.3125 
Q 53.46875 37.75 57.5 32.78125 
Q 61.53125 27.828125 61.53125 20.40625 
Q 61.53125 10.640625 54.890625 5.3125 
Q 48.25 0 35.984375 0 
L 9.8125 0 
z
" id="DejaVuSans-66"/>
      </defs>
      <use xlink:href="#DejaVuSans-66"/>
      <use x="68.603516" xlink:href="#DejaVuSans-68"/>
     </g>
    </g>
    <g id="line2d_43">
     <path d="M 99 128.854688 
L 119 128.854688 
" style="fill:none;stroke:#2ca02c;stroke-linecap:square;stroke-width:1.5;"/>
    </g>
    <g id="line2d_44"/>
    <g id="text_20">
     <!-- SIR -->
     <g transform="translate(127 132.354688)scale(0.1 -0.1)">
      <defs>
       <path d="M 44.390625 34.1875 
Q 47.5625 33.109375 50.5625 29.59375 
Q 53.5625 26.078125 56.59375 19.921875 
L 66.609375 0 
L 56 0 
L 46.6875 18.703125 
Q 43.0625 26.03125 39.671875 28.421875 
Q 36.28125 30.8125 30.421875 30.8125 
L 19.671875 30.8125 
L 19.671875 0 
L 9.8125 0 
L 9.8125 72.90625 
L 32.078125 72.90625 
Q 44.578125 72.90625 50.734375 67.671875 
Q 56.890625 62.453125 56.890625 51.90625 
Q 56.890625 45.015625 53.6875 40.46875 
Q 50.484375 35.9375 44.390625 34.1875 
z
M 19.671875 64.796875 
L 19.671875 38.921875 
L 32.078125 38.921875 
Q 39.203125 38.921875 42.84375 42.21875 
Q 46.484375 45.515625 46.484375 51.90625 
Q 46.484375 58.296875 42.84375 61.546875 
Q 39.203125 64.796875 32.078125 64.796875 
z
" id="DejaVuSans-82"/>
      </defs>
      <use xlink:href="#DejaVuSans-83"/>
      <use x="63.476562" xlink:href="#DejaVuSans-73"/>
      <use x="92.96875" xlink:href="#DejaVuSans-82"/>
     </g>
    </g>
    <g id="line2d_45">
     <path d="M 99 143.532812 
L 119 143.532812 
" style="fill:none;stroke:#d62728;stroke-linecap:square;stroke-width:1.5;"/>
    </g>
    <g id="line2d_46"/>
    <g id="text_21">
     <!-- eSIR -->
     <g transform="translate(127 147.032812)scale(0.1 -0.1)">
      <use xlink:href="#DejaVuSans-101"/>
      <use x="61.523438" xlink:href="#DejaVuSans-83"/>
      <use x="125" xlink:href="#DejaVuSans-73"/>
      <use x="154.492188" xlink:href="#DejaVuSans-82"/>
     </g>
    </g>
    <g id="line2d_47">
     <path d="M 99 158.210938 
L 119 158.210938 
" style="fill:none;stroke:#9467bd;stroke-linecap:square;stroke-width:1.5;"/>
    </g>
    <g id="line2d_48"/>
    <g id="text_22">
     <!-- SEIR -->
     <g transform="translate(127 161.710938)scale(0.1 -0.1)">
      <defs>
       <path d="M 9.8125 72.90625 
L 55.90625 72.90625 
L 55.90625 64.59375 
L 19.671875 64.59375 
L 19.671875 43.015625 
L 54.390625 43.015625 
L 54.390625 34.71875 
L 19.671875 34.71875 
L 19.671875 8.296875 
L 56.78125 8.296875 
L 56.78125 0 
L 9.8125 0 
z
" id="DejaVuSans-69"/>
      </defs>
      <use xlink:href="#DejaVuSans-83"/>
      <use x="63.476562" xlink:href="#DejaVuSans-69"/>
      <use x="126.660156" xlink:href="#DejaVuSans-73"/>
      <use x="156.152344" xlink:href="#DejaVuSans-82"/>
     </g>
    </g>
    <g id="line2d_49">
     <path d="M 99 172.889063 
L 119 172.889063 
" style="fill:none;stroke:#8c564b;stroke-linecap:square;stroke-width:1.5;"/>
    </g>
    <g id="line2d_50"/>
    <g id="text_23">
     <!-- eSEIR -->
     <g transform="translate(127 176.389063)scale(0.1 -0.1)">
      <use xlink:href="#DejaVuSans-101"/>
      <use x="61.523438" xlink:href="#DejaVuSans-83"/>
      <use x="125" xlink:href="#DejaVuSans-69"/>
      <use x="188.183594" xlink:href="#DejaVuSans-73"/>
      <use x="217.675781" xlink:href="#DejaVuSans-82"/>
     </g>
    </g>
    <g id="line2d_51">
     <path d="M 99 187.567188 
L 119 187.567188 
" style="fill:none;stroke:#e377c2;stroke-linecap:square;stroke-width:1.5;"/>
    </g>
    <g id="line2d_52"/>
    <g id="text_24">
     <!-- SEIUR -->
     <g transform="translate(127 191.067188)scale(0.1 -0.1)">
      <defs>
       <path d="M 8.6875 72.90625 
L 18.609375 72.90625 
L 18.609375 28.609375 
Q 18.609375 16.890625 22.84375 11.734375 
Q 27.09375 6.59375 36.625 6.59375 
Q 46.09375 6.59375 50.34375 11.734375 
Q 54.59375 16.890625 54.59375 28.609375 
L 54.59375 72.90625 
L 64.5 72.90625 
L 64.5 27.390625 
Q 64.5 13.140625 57.4375 5.859375 
Q 50.390625 -1.421875 36.625 -1.421875 
Q 22.796875 -1.421875 15.734375 5.859375 
Q 8.6875 13.140625 8.6875 27.390625 
z
" id="DejaVuSans-85"/>
      </defs>
      <use xlink:href="#DejaVuSans-83"/>
      <use x="63.476562" xlink:href="#DejaVuSans-69"/>
      <use x="126.660156" xlink:href="#DejaVuSans-73"/>
      <use x="156.152344" xlink:href="#DejaVuSans-85"/>
      <use x="229.345703" xlink:href="#DejaVuSans-82"/>
     </g>
    </g>
    <g id="line2d_53">
     <path d="M 99 202.245312 
L 119 202.245312 
" style="fill:none;stroke:#7f7f7f;stroke-linecap:square;stroke-width:1.5;"/>
    </g>
    <g id="line2d_54"/>
    <g id="text_25">
     <!-- eSEIUR -->
     <g transform="translate(127 205.745312)scale(0.1 -0.1)">
      <use xlink:href="#DejaVuSans-101"/>
      <use x="61.523438" xlink:href="#DejaVuSans-83"/>
      <use x="125" xlink:href="#DejaVuSans-69"/>
      <use x="188.183594" xlink:href="#DejaVuSans-73"/>
      <use x="217.675781" xlink:href="#DejaVuSans-85"/>
      <use x="290.869141" xlink:href="#DejaVuSans-82"/>
     </g>
    </g>
    <g id="line2d_55">
     <path d="M 99 216.923437 
L 119 216.923437 
" style="fill:none;stroke:#bcbd22;stroke-linecap:square;stroke-width:1.5;"/>
    </g>
    <g id="line2d_56"/>
    <g id="text_26">
     <!-- eSEIUR$^{range}$ -->
     <g transform="translate(127 220.423437)scale(0.1 -0.1)">
      <defs>
       <path d="M 44.578125 46.390625 
Q 43.21875 47.125 41.453125 47.515625 
Q 39.703125 47.90625 37.703125 47.90625 
Q 30.515625 47.90625 25.140625 42.453125 
Q 19.78125 37.015625 18.015625 27.875 
L 12.5 0 
L 3.515625 0 
L 14.203125 54.6875 
L 23.1875 54.6875 
L 21.484375 46.1875 
Q 25.046875 50.921875 30 53.453125 
Q 34.96875 56 40.578125 56 
Q 42.046875 56 43.453125 55.828125 
Q 44.875 55.671875 46.296875 55.28125 
z
" id="DejaVuSans-Oblique-114"/>
       <path d="M 53.71875 31.203125 
L 47.609375 0 
L 38.625 0 
L 40.28125 8.296875 
Q 36.328125 3.421875 31.265625 1 
Q 26.21875 -1.421875 20.015625 -1.421875 
Q 13.03125 -1.421875 8.5625 2.84375 
Q 4.109375 7.125 4.109375 13.8125 
Q 4.109375 23.390625 11.75 28.953125 
Q 19.390625 34.515625 32.8125 34.515625 
L 45.3125 34.515625 
L 45.796875 36.921875 
Q 45.90625 37.3125 45.953125 37.765625 
Q 46 38.234375 46 39.203125 
Q 46 43.5625 42.453125 45.96875 
Q 38.921875 48.390625 32.515625 48.390625 
Q 28.125 48.390625 23.5 47.265625 
Q 18.890625 46.140625 14.015625 43.890625 
L 15.578125 52.203125 
Q 20.65625 54.109375 25.515625 55.046875 
Q 30.375 56 34.90625 56 
Q 44.578125 56 49.625 51.796875 
Q 54.6875 47.609375 54.6875 39.59375 
Q 54.6875 37.984375 54.4375 35.8125 
Q 54.203125 33.640625 53.71875 31.203125 
z
M 44 27.484375 
L 35.015625 27.484375 
Q 23.96875 27.484375 18.671875 24.53125 
Q 13.375 21.578125 13.375 15.375 
Q 13.375 11.078125 16.078125 8.640625 
Q 18.796875 6.203125 23.578125 6.203125 
Q 30.90625 6.203125 36.375 11.453125 
Q 41.84375 16.703125 43.609375 25.484375 
z
" id="DejaVuSans-Oblique-97"/>
       <path d="M 55.71875 33.015625 
L 49.3125 0 
L 40.28125 0 
L 46.6875 32.671875 
Q 47.125 34.96875 47.359375 36.71875 
Q 47.609375 38.484375 47.609375 39.5 
Q 47.609375 43.609375 45.015625 45.890625 
Q 42.4375 48.1875 37.796875 48.1875 
Q 30.5625 48.1875 25.34375 43.375 
Q 20.125 38.578125 18.5 30.328125 
L 12.5 0 
L 3.515625 0 
L 14.109375 54.6875 
L 23.09375 54.6875 
L 21.296875 46.09375 
Q 25.046875 50.828125 30.3125 53.40625 
Q 35.59375 56 41.40625 56 
Q 48.640625 56 52.609375 52.09375 
Q 56.59375 48.1875 56.59375 41.109375 
Q 56.59375 39.359375 56.375 37.359375 
Q 56.15625 35.359375 55.71875 33.015625 
z
" id="DejaVuSans-Oblique-110"/>
       <path d="M 59.625 54.6875 
L 50.296875 6.78125 
Q 47.609375 -7.125 40.015625 -13.953125 
Q 32.421875 -20.796875 19.578125 -20.796875 
Q 14.84375 -20.796875 10.78125 -20.09375 
Q 6.734375 -19.390625 3.21875 -17.921875 
L 4.890625 -9.1875 
Q 8.203125 -11.328125 11.90625 -12.34375 
Q 15.625 -13.375 19.828125 -13.375 
Q 28.375 -13.375 33.859375 -8.703125 
Q 39.359375 -4.046875 41.109375 4.6875 
L 41.890625 8.796875 
Q 38.140625 4.5 33.15625 2.25 
Q 28.171875 0 22.40625 0 
Q 14.109375 0 9.34375 5.484375 
Q 4.59375 10.984375 4.59375 20.609375 
Q 4.59375 28.171875 7.46875 35.421875 
Q 10.359375 42.671875 15.578125 48.296875 
Q 19.046875 52 23.65625 54 
Q 28.265625 56 33.296875 56 
Q 38.8125 56 42.90625 53.4375 
Q 47.015625 50.875 49.03125 46.1875 
L 50.59375 54.6875 
z
M 46.09375 34.625 
Q 46.09375 41.265625 42.96875 44.875 
Q 39.84375 48.484375 34.078125 48.484375 
Q 30.515625 48.484375 27.296875 47.0625 
Q 24.078125 45.65625 21.78125 43.109375 
Q 18.0625 38.921875 15.984375 33.234375 
Q 13.921875 27.546875 13.921875 21.484375 
Q 13.921875 14.75 17.0625 11.125 
Q 20.21875 7.515625 26.125 7.515625 
Q 34.671875 7.515625 40.375 15.25 
Q 46.09375 23 46.09375 34.625 
z
" id="DejaVuSans-Oblique-103"/>
       <path d="M 48.09375 32.234375 
Q 48.25 33.015625 48.3125 33.84375 
Q 48.390625 34.671875 48.390625 35.5 
Q 48.390625 41.453125 44.890625 44.921875 
Q 41.40625 48.390625 35.40625 48.390625 
Q 28.71875 48.390625 23.578125 44.15625 
Q 18.453125 39.9375 15.828125 32.171875 
z
M 55.90625 25.203125 
L 14.109375 25.203125 
Q 13.8125 23.34375 13.71875 22.265625 
Q 13.625 21.1875 13.625 20.40625 
Q 13.625 13.625 17.796875 9.90625 
Q 21.96875 6.203125 29.59375 6.203125 
Q 35.453125 6.203125 40.671875 7.515625 
Q 45.90625 8.84375 50.390625 11.375 
L 48.6875 2.484375 
Q 43.84375 0.53125 38.6875 -0.4375 
Q 33.546875 -1.421875 28.21875 -1.421875 
Q 16.84375 -1.421875 10.71875 4.015625 
Q 4.59375 9.46875 4.59375 19.484375 
Q 4.59375 28.03125 7.640625 35.375 
Q 10.6875 42.71875 16.609375 48.484375 
Q 20.40625 52.09375 25.65625 54.046875 
Q 30.90625 56 36.8125 56 
Q 46.09375 56 51.578125 50.4375 
Q 57.078125 44.875 57.078125 35.5 
Q 57.078125 33.25 56.78125 30.6875 
Q 56.5 28.125 55.90625 25.203125 
z
" id="DejaVuSans-Oblique-101"/>
      </defs>
      <use transform="translate(0 0.51875)" xlink:href="#DejaVuSans-101"/>
      <use transform="translate(61.523438 0.51875)" xlink:href="#DejaVuSans-83"/>
      <use transform="translate(125 0.51875)" xlink:href="#DejaVuSans-69"/>
      <use transform="translate(188.183594 0.51875)" xlink:href="#DejaVuSans-73"/>
      <use transform="translate(217.675781 0.51875)" xlink:href="#DejaVuSans-85"/>
      <use transform="translate(288.619141 0.51875)" xlink:href="#DejaVuSans-82"/>
      <use transform="translate(359.058594 38.8)scale(0.7)" xlink:href="#DejaVuSans-Oblique-114"/>
      <use transform="translate(387.837891 38.8)scale(0.7)" xlink:href="#DejaVuSans-Oblique-97"/>
      <use transform="translate(430.733398 38.8)scale(0.7)" xlink:href="#DejaVuSans-Oblique-110"/>
      <use transform="translate(475.098633 38.8)scale(0.7)" xlink:href="#DejaVuSans-Oblique-103"/>
      <use transform="translate(519.532227 38.8)scale(0.7)" xlink:href="#DejaVuSans-Oblique-101"/>
     </g>
    </g>
   </g>
  </g>
 </g>
 <defs>
  <clipPath id="p34af148e16">
   <rect height="543.6" width="558" x="90" y="86.4"/>
  </clipPath>
 </defs>
</svg>
