<?xml version="1.0" encoding="utf-8" standalone="no"?>
<!DOCTYPE svg PUBLIC "-//W3C//DTD SVG 1.1//EN"
  "http://www.w3.org/Graphics/SVG/1.1/DTD/svg11.dtd">
<!-- Created with matplotlib (https://matplotlib.org/) -->
<svg height="720pt" version="1.1" viewBox="0 0 720 720" width="720pt" xmlns="http://www.w3.org/2000/svg" xmlns:xlink="http://www.w3.org/1999/xlink">
 <metadata>
  <rdf:RDF xmlns:cc="http://creativecommons.org/ns#" xmlns:dc="http://purl.org/dc/elements/1.1/" xmlns:rdf="http://www.w3.org/1999/02/22-rdf-syntax-ns#">
   <cc:Work>
    <dc:type rdf:resource="http://purl.org/dc/dcmitype/StillImage"/>
    <dc:date>2022-10-11T20:58:54.364009</dc:date>
    <dc:format>image/svg+xml</dc:format>
    <dc:creator>
     <cc:Agent>
      <dc:title>Matplotlib v3.3.2, https://matplotlib.org/</dc:title>
     </cc:Agent>
    </dc:creator>
   </cc:Work>
  </rdf:RDF>
 </metadata>
 <defs>
  <style type="text/css">*{stroke-linecap:butt;stroke-linejoin:round;}</style>
 </defs>
 <g id="figure_1">
  <g id="patch_1">
   <path d="M 0 720 
L 720 720 
L 720 0 
L 0 0 
z
" style="fill:none;"/>
  </g>
  <g id="axes_1">
   <g id="patch_2">
    <path d="M 90 630 
L 648 630 
L 648 86.4 
L 90 86.4 
z
" style="fill:#ffffff;"/>
   </g>
   <g id="matplotlib.axis_1">
    <g id="xtick_1">
     <g id="line2d_1">
      <path clip-path="url(#pbf69ba1909)" d="M 115.363636 630 
L 115.363636 86.4 
" style="fill:none;stroke:#b0b0b0;stroke-linecap:square;stroke-width:0.8;"/>
     </g>
     <g id="line2d_2">
      <defs>
       <path d="M 0 0 
L 0 3.5 
" id="m6f0a756a7d" style="stroke:#000000;stroke-width:0.8;"/>
      </defs>
      <g>
       <use style="stroke:#000000;stroke-width:0.8;" x="115.363636" xlink:href="#m6f0a756a7d" y="630"/>
      </g>
     </g>
     <g id="text_1">
      <!-- 0 -->
      <g transform="translate(112.182386 644.598438)scale(0.1 -0.1)">
       <defs>
        <path d="M 31.78125 66.40625 
Q 24.171875 66.40625 20.328125 58.90625 
Q 16.5 51.421875 16.5 36.375 
Q 16.5 21.390625 20.328125 13.890625 
Q 24.171875 6.390625 31.78125 6.390625 
Q 39.453125 6.390625 43.28125 13.890625 
Q 47.125 21.390625 47.125 36.375 
Q 47.125 51.421875 43.28125 58.90625 
Q 39.453125 66.40625 31.78125 66.40625 
z
M 31.78125 74.21875 
Q 44.046875 74.21875 50.515625 64.515625 
Q 56.984375 54.828125 56.984375 36.375 
Q 56.984375 17.96875 50.515625 8.265625 
Q 44.046875 -1.421875 31.78125 -1.421875 
Q 19.53125 -1.421875 13.0625 8.265625 
Q 6.59375 17.96875 6.59375 36.375 
Q 6.59375 54.828125 13.0625 64.515625 
Q 19.53125 74.21875 31.78125 74.21875 
z
" id="DejaVuSans-48"/>
       </defs>
       <use xlink:href="#DejaVuSans-48"/>
      </g>
     </g>
    </g>
    <g id="xtick_2">
     <g id="line2d_3">
      <path clip-path="url(#pbf69ba1909)" d="M 239.088692 630 
L 239.088692 86.4 
" style="fill:none;stroke:#b0b0b0;stroke-linecap:square;stroke-width:0.8;"/>
     </g>
     <g id="line2d_4">
      <g>
       <use style="stroke:#000000;stroke-width:0.8;" x="239.088692" xlink:href="#m6f0a756a7d" y="630"/>
      </g>
     </g>
     <g id="text_2">
      <!-- 20 -->
      <g transform="translate(232.726192 644.598438)scale(0.1 -0.1)">
       <defs>
        <path d="M 19.1875 8.296875 
L 53.609375 8.296875 
L 53.609375 0 
L 7.328125 0 
L 7.328125 8.296875 
Q 12.9375 14.109375 22.625 23.890625 
Q 32.328125 33.6875 34.8125 36.53125 
Q 39.546875 41.84375 41.421875 45.53125 
Q 43.3125 49.21875 43.3125 52.78125 
Q 43.3125 58.59375 39.234375 62.25 
Q 35.15625 65.921875 28.609375 65.921875 
Q 23.96875 65.921875 18.8125 64.3125 
Q 13.671875 62.703125 7.8125 59.421875 
L 7.8125 69.390625 
Q 13.765625 71.78125 18.9375 73 
Q 24.125 74.21875 28.421875 74.21875 
Q 39.75 74.21875 46.484375 68.546875 
Q 53.21875 62.890625 53.21875 53.421875 
Q 53.21875 48.921875 51.53125 44.890625 
Q 49.859375 40.875 45.40625 35.40625 
Q 44.1875 33.984375 37.640625 27.21875 
Q 31.109375 20.453125 19.1875 8.296875 
z
" id="DejaVuSans-50"/>
       </defs>
       <use xlink:href="#DejaVuSans-50"/>
       <use x="63.623047" xlink:href="#DejaVuSans-48"/>
      </g>
     </g>
    </g>
    <g id="xtick_3">
     <g id="line2d_5">
      <path clip-path="url(#pbf69ba1909)" d="M 362.813747 630 
L 362.813747 86.4 
" style="fill:none;stroke:#b0b0b0;stroke-linecap:square;stroke-width:0.8;"/>
     </g>
     <g id="line2d_6">
      <g>
       <use style="stroke:#000000;stroke-width:0.8;" x="362.813747" xlink:href="#m6f0a756a7d" y="630"/>
      </g>
     </g>
     <g id="text_3">
      <!-- 40 -->
      <g transform="translate(356.451247 644.598438)scale(0.1 -0.1)">
       <defs>
        <path d="M 37.796875 64.3125 
L 12.890625 25.390625 
L 37.796875 25.390625 
z
M 35.203125 72.90625 
L 47.609375 72.90625 
L 47.609375 25.390625 
L 58.015625 25.390625 
L 58.015625 17.1875 
L 47.609375 17.1875 
L 47.609375 0 
L 37.796875 0 
L 37.796875 17.1875 
L 4.890625 17.1875 
L 4.890625 26.703125 
z
" id="DejaVuSans-52"/>
       </defs>
       <use xlink:href="#DejaVuSans-52"/>
       <use x="63.623047" xlink:href="#DejaVuSans-48"/>
      </g>
     </g>
    </g>
    <g id="xtick_4">
     <g id="line2d_7">
      <path clip-path="url(#pbf69ba1909)" d="M 486.538803 630 
L 486.538803 86.4 
" style="fill:none;stroke:#b0b0b0;stroke-linecap:square;stroke-width:0.8;"/>
     </g>
     <g id="line2d_8">
      <g>
       <use style="stroke:#000000;stroke-width:0.8;" x="486.538803" xlink:href="#m6f0a756a7d" y="630"/>
      </g>
     </g>
     <g id="text_4">
      <!-- 60 -->
      <g transform="translate(480.176303 644.598438)scale(0.1 -0.1)">
       <defs>
        <path d="M 33.015625 40.375 
Q 26.375 40.375 22.484375 35.828125 
Q 18.609375 31.296875 18.609375 23.390625 
Q 18.609375 15.53125 22.484375 10.953125 
Q 26.375 6.390625 33.015625 6.390625 
Q 39.65625 6.390625 43.53125 10.953125 
Q 47.40625 15.53125 47.40625 23.390625 
Q 47.40625 31.296875 43.53125 35.828125 
Q 39.65625 40.375 33.015625 40.375 
z
M 52.59375 71.296875 
L 52.59375 62.3125 
Q 48.875 64.0625 45.09375 64.984375 
Q 41.3125 65.921875 37.59375 65.921875 
Q 27.828125 65.921875 22.671875 59.328125 
Q 17.53125 52.734375 16.796875 39.40625 
Q 19.671875 43.65625 24.015625 45.921875 
Q 28.375 48.1875 33.59375 48.1875 
Q 44.578125 48.1875 50.953125 41.515625 
Q 57.328125 34.859375 57.328125 23.390625 
Q 57.328125 12.15625 50.6875 5.359375 
Q 44.046875 -1.421875 33.015625 -1.421875 
Q 20.359375 -1.421875 13.671875 8.265625 
Q 6.984375 17.96875 6.984375 36.375 
Q 6.984375 53.65625 15.1875 63.9375 
Q 23.390625 74.21875 37.203125 74.21875 
Q 40.921875 74.21875 44.703125 73.484375 
Q 48.484375 72.75 52.59375 71.296875 
z
" id="DejaVuSans-54"/>
       </defs>
       <use xlink:href="#DejaVuSans-54"/>
       <use x="63.623047" xlink:href="#DejaVuSans-48"/>
      </g>
     </g>
    </g>
    <g id="xtick_5">
     <g id="line2d_9">
      <path clip-path="url(#pbf69ba1909)" d="M 610.263858 630 
L 610.263858 86.4 
" style="fill:none;stroke:#b0b0b0;stroke-linecap:square;stroke-width:0.8;"/>
     </g>
     <g id="line2d_10">
      <g>
       <use style="stroke:#000000;stroke-width:0.8;" x="610.263858" xlink:href="#m6f0a756a7d" y="630"/>
      </g>
     </g>
     <g id="text_5">
      <!-- 80 -->
      <g transform="translate(603.901358 644.598438)scale(0.1 -0.1)">
       <defs>
        <path d="M 31.78125 34.625 
Q 24.75 34.625 20.71875 30.859375 
Q 16.703125 27.09375 16.703125 20.515625 
Q 16.703125 13.921875 20.71875 10.15625 
Q 24.75 6.390625 31.78125 6.390625 
Q 38.8125 6.390625 42.859375 10.171875 
Q 46.921875 13.96875 46.921875 20.515625 
Q 46.921875 27.09375 42.890625 30.859375 
Q 38.875 34.625 31.78125 34.625 
z
M 21.921875 38.8125 
Q 15.578125 40.375 12.03125 44.71875 
Q 8.5 49.078125 8.5 55.328125 
Q 8.5 64.0625 14.71875 69.140625 
Q 20.953125 74.21875 31.78125 74.21875 
Q 42.671875 74.21875 48.875 69.140625 
Q 55.078125 64.0625 55.078125 55.328125 
Q 55.078125 49.078125 51.53125 44.71875 
Q 48 40.375 41.703125 38.8125 
Q 48.828125 37.15625 52.796875 32.3125 
Q 56.78125 27.484375 56.78125 20.515625 
Q 56.78125 9.90625 50.3125 4.234375 
Q 43.84375 -1.421875 31.78125 -1.421875 
Q 19.734375 -1.421875 13.25 4.234375 
Q 6.78125 9.90625 6.78125 20.515625 
Q 6.78125 27.484375 10.78125 32.3125 
Q 14.796875 37.15625 21.921875 38.8125 
z
M 18.3125 54.390625 
Q 18.3125 48.734375 21.84375 45.5625 
Q 25.390625 42.390625 31.78125 42.390625 
Q 38.140625 42.390625 41.71875 45.5625 
Q 45.3125 48.734375 45.3125 54.390625 
Q 45.3125 60.0625 41.71875 63.234375 
Q 38.140625 66.40625 31.78125 66.40625 
Q 25.390625 66.40625 21.84375 63.234375 
Q 18.3125 60.0625 18.3125 54.390625 
z
" id="DejaVuSans-56"/>
       </defs>
       <use xlink:href="#DejaVuSans-56"/>
       <use x="63.623047" xlink:href="#DejaVuSans-48"/>
      </g>
     </g>
    </g>
    <g id="text_6">
     <!-- Days -->
     <g transform="translate(356.521875 658.276562)scale(0.1 -0.1)">
      <defs>
       <path d="M 19.671875 64.796875 
L 19.671875 8.109375 
L 31.59375 8.109375 
Q 46.6875 8.109375 53.6875 14.9375 
Q 60.6875 21.78125 60.6875 36.53125 
Q 60.6875 51.171875 53.6875 57.984375 
Q 46.6875 64.796875 31.59375 64.796875 
z
M 9.8125 72.90625 
L 30.078125 72.90625 
Q 51.265625 72.90625 61.171875 64.09375 
Q 71.09375 55.28125 71.09375 36.53125 
Q 71.09375 17.671875 61.125 8.828125 
Q 51.171875 0 30.078125 0 
L 9.8125 0 
z
" id="DejaVuSans-68"/>
       <path d="M 34.28125 27.484375 
Q 23.390625 27.484375 19.1875 25 
Q 14.984375 22.515625 14.984375 16.5 
Q 14.984375 11.71875 18.140625 8.90625 
Q 21.296875 6.109375 26.703125 6.109375 
Q 34.1875 6.109375 38.703125 11.40625 
Q 43.21875 16.703125 43.21875 25.484375 
L 43.21875 27.484375 
z
M 52.203125 31.203125 
L 52.203125 0 
L 43.21875 0 
L 43.21875 8.296875 
Q 40.140625 3.328125 35.546875 0.953125 
Q 30.953125 -1.421875 24.3125 -1.421875 
Q 15.921875 -1.421875 10.953125 3.296875 
Q 6 8.015625 6 15.921875 
Q 6 25.140625 12.171875 29.828125 
Q 18.359375 34.515625 30.609375 34.515625 
L 43.21875 34.515625 
L 43.21875 35.40625 
Q 43.21875 41.609375 39.140625 45 
Q 35.0625 48.390625 27.6875 48.390625 
Q 23 48.390625 18.546875 47.265625 
Q 14.109375 46.140625 10.015625 43.890625 
L 10.015625 52.203125 
Q 14.9375 54.109375 19.578125 55.046875 
Q 24.21875 56 28.609375 56 
Q 40.484375 56 46.34375 49.84375 
Q 52.203125 43.703125 52.203125 31.203125 
z
" id="DejaVuSans-97"/>
       <path d="M 32.171875 -5.078125 
Q 28.375 -14.84375 24.75 -17.8125 
Q 21.140625 -20.796875 15.09375 -20.796875 
L 7.90625 -20.796875 
L 7.90625 -13.28125 
L 13.1875 -13.28125 
Q 16.890625 -13.28125 18.9375 -11.515625 
Q 21 -9.765625 23.484375 -3.21875 
L 25.09375 0.875 
L 2.984375 54.6875 
L 12.5 54.6875 
L 29.59375 11.921875 
L 46.6875 54.6875 
L 56.203125 54.6875 
z
" id="DejaVuSans-121"/>
       <path d="M 44.28125 53.078125 
L 44.28125 44.578125 
Q 40.484375 46.53125 36.375 47.5 
Q 32.28125 48.484375 27.875 48.484375 
Q 21.1875 48.484375 17.84375 46.4375 
Q 14.5 44.390625 14.5 40.28125 
Q 14.5 37.15625 16.890625 35.375 
Q 19.28125 33.59375 26.515625 31.984375 
L 29.59375 31.296875 
Q 39.15625 29.25 43.1875 25.515625 
Q 47.21875 21.78125 47.21875 15.09375 
Q 47.21875 7.46875 41.1875 3.015625 
Q 35.15625 -1.421875 24.609375 -1.421875 
Q 20.21875 -1.421875 15.453125 -0.5625 
Q 10.6875 0.296875 5.421875 2 
L 5.421875 11.28125 
Q 10.40625 8.6875 15.234375 7.390625 
Q 20.0625 6.109375 24.8125 6.109375 
Q 31.15625 6.109375 34.5625 8.28125 
Q 37.984375 10.453125 37.984375 14.40625 
Q 37.984375 18.0625 35.515625 20.015625 
Q 33.0625 21.96875 24.703125 23.78125 
L 21.578125 24.515625 
Q 13.234375 26.265625 9.515625 29.90625 
Q 5.8125 33.546875 5.8125 39.890625 
Q 5.8125 47.609375 11.28125 51.796875 
Q 16.75 56 26.8125 56 
Q 31.78125 56 36.171875 55.265625 
Q 40.578125 54.546875 44.28125 53.078125 
z
" id="DejaVuSans-115"/>
      </defs>
      <use xlink:href="#DejaVuSans-68"/>
      <use x="77.001953" xlink:href="#DejaVuSans-97"/>
      <use x="138.28125" xlink:href="#DejaVuSans-121"/>
      <use x="197.460938" xlink:href="#DejaVuSans-115"/>
     </g>
    </g>
   </g>
   <g id="matplotlib.axis_2">
    <g id="ytick_1">
     <g id="line2d_11">
      <path clip-path="url(#pbf69ba1909)" d="M 90 614.645317 
L 648 614.645317 
" style="fill:none;stroke:#b0b0b0;stroke-linecap:square;stroke-width:0.8;"/>
     </g>
     <g id="line2d_12">
      <defs>
       <path d="M 0 0 
L -3.5 0 
" id="m6350ca21d0" style="stroke:#000000;stroke-width:0.8;"/>
      </defs>
      <g>
       <use style="stroke:#000000;stroke-width:0.8;" x="90" xlink:href="#m6350ca21d0" y="614.645317"/>
      </g>
     </g>
     <g id="text_7">
      <!-- 0 -->
      <g transform="translate(76.6375 618.444536)scale(0.1 -0.1)">
       <use xlink:href="#DejaVuSans-48"/>
      </g>
     </g>
    </g>
    <g id="ytick_2">
     <g id="line2d_13">
      <path clip-path="url(#pbf69ba1909)" d="M 90 547.828115 
L 648 547.828115 
" style="fill:none;stroke:#b0b0b0;stroke-linecap:square;stroke-width:0.8;"/>
     </g>
     <g id="line2d_14">
      <g>
       <use style="stroke:#000000;stroke-width:0.8;" x="90" xlink:href="#m6350ca21d0" y="547.828115"/>
      </g>
     </g>
     <g id="text_8">
      <!-- 200 -->
      <g transform="translate(63.9125 551.627334)scale(0.1 -0.1)">
       <use xlink:href="#DejaVuSans-50"/>
       <use x="63.623047" xlink:href="#DejaVuSans-48"/>
       <use x="127.246094" xlink:href="#DejaVuSans-48"/>
      </g>
     </g>
    </g>
    <g id="ytick_3">
     <g id="line2d_15">
      <path clip-path="url(#pbf69ba1909)" d="M 90 481.010912 
L 648 481.010912 
" style="fill:none;stroke:#b0b0b0;stroke-linecap:square;stroke-width:0.8;"/>
     </g>
     <g id="line2d_16">
      <g>
       <use style="stroke:#000000;stroke-width:0.8;" x="90" xlink:href="#m6350ca21d0" y="481.010912"/>
      </g>
     </g>
     <g id="text_9">
      <!-- 400 -->
      <g transform="translate(63.9125 484.810131)scale(0.1 -0.1)">
       <use xlink:href="#DejaVuSans-52"/>
       <use x="63.623047" xlink:href="#DejaVuSans-48"/>
       <use x="127.246094" xlink:href="#DejaVuSans-48"/>
      </g>
     </g>
    </g>
    <g id="ytick_4">
     <g id="line2d_17">
      <path clip-path="url(#pbf69ba1909)" d="M 90 414.19371 
L 648 414.19371 
" style="fill:none;stroke:#b0b0b0;stroke-linecap:square;stroke-width:0.8;"/>
     </g>
     <g id="line2d_18">
      <g>
       <use style="stroke:#000000;stroke-width:0.8;" x="90" xlink:href="#m6350ca21d0" y="414.19371"/>
      </g>
     </g>
     <g id="text_10">
      <!-- 600 -->
      <g transform="translate(63.9125 417.992928)scale(0.1 -0.1)">
       <use xlink:href="#DejaVuSans-54"/>
       <use x="63.623047" xlink:href="#DejaVuSans-48"/>
       <use x="127.246094" xlink:href="#DejaVuSans-48"/>
      </g>
     </g>
    </g>
    <g id="ytick_5">
     <g id="line2d_19">
      <path clip-path="url(#pbf69ba1909)" d="M 90 347.376507 
L 648 347.376507 
" style="fill:none;stroke:#b0b0b0;stroke-linecap:square;stroke-width:0.8;"/>
     </g>
     <g id="line2d_20">
      <g>
       <use style="stroke:#000000;stroke-width:0.8;" x="90" xlink:href="#m6350ca21d0" y="347.376507"/>
      </g>
     </g>
     <g id="text_11">
      <!-- 800 -->
      <g transform="translate(63.9125 351.175726)scale(0.1 -0.1)">
       <use xlink:href="#DejaVuSans-56"/>
       <use x="63.623047" xlink:href="#DejaVuSans-48"/>
       <use x="127.246094" xlink:href="#DejaVuSans-48"/>
      </g>
     </g>
    </g>
    <g id="ytick_6">
     <g id="line2d_21">
      <path clip-path="url(#pbf69ba1909)" d="M 90 280.559305 
L 648 280.559305 
" style="fill:none;stroke:#b0b0b0;stroke-linecap:square;stroke-width:0.8;"/>
     </g>
     <g id="line2d_22">
      <g>
       <use style="stroke:#000000;stroke-width:0.8;" x="90" xlink:href="#m6350ca21d0" y="280.559305"/>
      </g>
     </g>
     <g id="text_12">
      <!-- 1000 -->
      <g transform="translate(57.55 284.358523)scale(0.1 -0.1)">
       <defs>
        <path d="M 12.40625 8.296875 
L 28.515625 8.296875 
L 28.515625 63.921875 
L 10.984375 60.40625 
L 10.984375 69.390625 
L 28.421875 72.90625 
L 38.28125 72.90625 
L 38.28125 8.296875 
L 54.390625 8.296875 
L 54.390625 0 
L 12.40625 0 
z
" id="DejaVuSans-49"/>
       </defs>
       <use xlink:href="#DejaVuSans-49"/>
       <use x="63.623047" xlink:href="#DejaVuSans-48"/>
       <use x="127.246094" xlink:href="#DejaVuSans-48"/>
       <use x="190.869141" xlink:href="#DejaVuSans-48"/>
      </g>
     </g>
    </g>
    <g id="ytick_7">
     <g id="line2d_23">
      <path clip-path="url(#pbf69ba1909)" d="M 90 213.742102 
L 648 213.742102 
" style="fill:none;stroke:#b0b0b0;stroke-linecap:square;stroke-width:0.8;"/>
     </g>
     <g id="line2d_24">
      <g>
       <use style="stroke:#000000;stroke-width:0.8;" x="90" xlink:href="#m6350ca21d0" y="213.742102"/>
      </g>
     </g>
     <g id="text_13">
      <!-- 1200 -->
      <g transform="translate(57.55 217.541321)scale(0.1 -0.1)">
       <use xlink:href="#DejaVuSans-49"/>
       <use x="63.623047" xlink:href="#DejaVuSans-50"/>
       <use x="127.246094" xlink:href="#DejaVuSans-48"/>
       <use x="190.869141" xlink:href="#DejaVuSans-48"/>
      </g>
     </g>
    </g>
    <g id="ytick_8">
     <g id="line2d_25">
      <path clip-path="url(#pbf69ba1909)" d="M 90 146.924899 
L 648 146.924899 
" style="fill:none;stroke:#b0b0b0;stroke-linecap:square;stroke-width:0.8;"/>
     </g>
     <g id="line2d_26">
      <g>
       <use style="stroke:#000000;stroke-width:0.8;" x="90" xlink:href="#m6350ca21d0" y="146.924899"/>
      </g>
     </g>
     <g id="text_14">
      <!-- 1400 -->
      <g transform="translate(57.55 150.724118)scale(0.1 -0.1)">
       <use xlink:href="#DejaVuSans-49"/>
       <use x="63.623047" xlink:href="#DejaVuSans-52"/>
       <use x="127.246094" xlink:href="#DejaVuSans-48"/>
       <use x="190.869141" xlink:href="#DejaVuSans-48"/>
      </g>
     </g>
    </g>
    <g id="text_15">
     <!-- Cumulative cases -->
     <g transform="translate(51.470312 402.425781)rotate(-90)scale(0.1 -0.1)">
      <defs>
       <path d="M 64.40625 67.28125 
L 64.40625 56.890625 
Q 59.421875 61.53125 53.78125 63.8125 
Q 48.140625 66.109375 41.796875 66.109375 
Q 29.296875 66.109375 22.65625 58.46875 
Q 16.015625 50.828125 16.015625 36.375 
Q 16.015625 21.96875 22.65625 14.328125 
Q 29.296875 6.6875 41.796875 6.6875 
Q 48.140625 6.6875 53.78125 8.984375 
Q 59.421875 11.28125 64.40625 15.921875 
L 64.40625 5.609375 
Q 59.234375 2.09375 53.4375 0.328125 
Q 47.65625 -1.421875 41.21875 -1.421875 
Q 24.65625 -1.421875 15.125 8.703125 
Q 5.609375 18.84375 5.609375 36.375 
Q 5.609375 53.953125 15.125 64.078125 
Q 24.65625 74.21875 41.21875 74.21875 
Q 47.75 74.21875 53.53125 72.484375 
Q 59.328125 70.75 64.40625 67.28125 
z
" id="DejaVuSans-67"/>
       <path d="M 8.5 21.578125 
L 8.5 54.6875 
L 17.484375 54.6875 
L 17.484375 21.921875 
Q 17.484375 14.15625 20.5 10.265625 
Q 23.53125 6.390625 29.59375 6.390625 
Q 36.859375 6.390625 41.078125 11.03125 
Q 45.3125 15.671875 45.3125 23.6875 
L 45.3125 54.6875 
L 54.296875 54.6875 
L 54.296875 0 
L 45.3125 0 
L 45.3125 8.40625 
Q 42.046875 3.421875 37.71875 1 
Q 33.40625 -1.421875 27.6875 -1.421875 
Q 18.265625 -1.421875 13.375 4.4375 
Q 8.5 10.296875 8.5 21.578125 
z
M 31.109375 56 
z
" id="DejaVuSans-117"/>
       <path d="M 52 44.1875 
Q 55.375 50.25 60.0625 53.125 
Q 64.75 56 71.09375 56 
Q 79.640625 56 84.28125 50.015625 
Q 88.921875 44.046875 88.921875 33.015625 
L 88.921875 0 
L 79.890625 0 
L 79.890625 32.71875 
Q 79.890625 40.578125 77.09375 44.375 
Q 74.3125 48.1875 68.609375 48.1875 
Q 61.625 48.1875 57.5625 43.546875 
Q 53.515625 38.921875 53.515625 30.90625 
L 53.515625 0 
L 44.484375 0 
L 44.484375 32.71875 
Q 44.484375 40.625 41.703125 44.40625 
Q 38.921875 48.1875 33.109375 48.1875 
Q 26.21875 48.1875 22.15625 43.53125 
Q 18.109375 38.875 18.109375 30.90625 
L 18.109375 0 
L 9.078125 0 
L 9.078125 54.6875 
L 18.109375 54.6875 
L 18.109375 46.1875 
Q 21.1875 51.21875 25.484375 53.609375 
Q 29.78125 56 35.6875 56 
Q 41.65625 56 45.828125 52.96875 
Q 50 49.953125 52 44.1875 
z
" id="DejaVuSans-109"/>
       <path d="M 9.421875 75.984375 
L 18.40625 75.984375 
L 18.40625 0 
L 9.421875 0 
z
" id="DejaVuSans-108"/>
       <path d="M 18.3125 70.21875 
L 18.3125 54.6875 
L 36.8125 54.6875 
L 36.8125 47.703125 
L 18.3125 47.703125 
L 18.3125 18.015625 
Q 18.3125 11.328125 20.140625 9.421875 
Q 21.96875 7.515625 27.59375 7.515625 
L 36.8125 7.515625 
L 36.8125 0 
L 27.59375 0 
Q 17.1875 0 13.234375 3.875 
Q 9.28125 7.765625 9.28125 18.015625 
L 9.28125 47.703125 
L 2.6875 47.703125 
L 2.6875 54.6875 
L 9.28125 54.6875 
L 9.28125 70.21875 
z
" id="DejaVuSans-116"/>
       <path d="M 9.421875 54.6875 
L 18.40625 54.6875 
L 18.40625 0 
L 9.421875 0 
z
M 9.421875 75.984375 
L 18.40625 75.984375 
L 18.40625 64.59375 
L 9.421875 64.59375 
z
" id="DejaVuSans-105"/>
       <path d="M 2.984375 54.6875 
L 12.5 54.6875 
L 29.59375 8.796875 
L 46.6875 54.6875 
L 56.203125 54.6875 
L 35.6875 0 
L 23.484375 0 
z
" id="DejaVuSans-118"/>
       <path d="M 56.203125 29.59375 
L 56.203125 25.203125 
L 14.890625 25.203125 
Q 15.484375 15.921875 20.484375 11.0625 
Q 25.484375 6.203125 34.421875 6.203125 
Q 39.59375 6.203125 44.453125 7.46875 
Q 49.3125 8.734375 54.109375 11.28125 
L 54.109375 2.78125 
Q 49.265625 0.734375 44.1875 -0.34375 
Q 39.109375 -1.421875 33.890625 -1.421875 
Q 20.796875 -1.421875 13.15625 6.1875 
Q 5.515625 13.8125 5.515625 26.8125 
Q 5.515625 40.234375 12.765625 48.109375 
Q 20.015625 56 32.328125 56 
Q 43.359375 56 49.78125 48.890625 
Q 56.203125 41.796875 56.203125 29.59375 
z
M 47.21875 32.234375 
Q 47.125 39.59375 43.09375 43.984375 
Q 39.0625 48.390625 32.421875 48.390625 
Q 24.90625 48.390625 20.390625 44.140625 
Q 15.875 39.890625 15.1875 32.171875 
z
" id="DejaVuSans-101"/>
       <path id="DejaVuSans-32"/>
       <path d="M 48.78125 52.59375 
L 48.78125 44.1875 
Q 44.96875 46.296875 41.140625 47.34375 
Q 37.3125 48.390625 33.40625 48.390625 
Q 24.65625 48.390625 19.8125 42.84375 
Q 14.984375 37.3125 14.984375 27.296875 
Q 14.984375 17.28125 19.8125 11.734375 
Q 24.65625 6.203125 33.40625 6.203125 
Q 37.3125 6.203125 41.140625 7.25 
Q 44.96875 8.296875 48.78125 10.40625 
L 48.78125 2.09375 
Q 45.015625 0.34375 40.984375 -0.53125 
Q 36.96875 -1.421875 32.421875 -1.421875 
Q 20.0625 -1.421875 12.78125 6.34375 
Q 5.515625 14.109375 5.515625 27.296875 
Q 5.515625 40.671875 12.859375 48.328125 
Q 20.21875 56 33.015625 56 
Q 37.15625 56 41.109375 55.140625 
Q 45.0625 54.296875 48.78125 52.59375 
z
" id="DejaVuSans-99"/>
      </defs>
      <use xlink:href="#DejaVuSans-67"/>
      <use x="69.824219" xlink:href="#DejaVuSans-117"/>
      <use x="133.203125" xlink:href="#DejaVuSans-109"/>
      <use x="230.615234" xlink:href="#DejaVuSans-117"/>
      <use x="293.994141" xlink:href="#DejaVuSans-108"/>
      <use x="321.777344" xlink:href="#DejaVuSans-97"/>
      <use x="383.056641" xlink:href="#DejaVuSans-116"/>
      <use x="422.265625" xlink:href="#DejaVuSans-105"/>
      <use x="450.048828" xlink:href="#DejaVuSans-118"/>
      <use x="509.228516" xlink:href="#DejaVuSans-101"/>
      <use x="570.751953" xlink:href="#DejaVuSans-32"/>
      <use x="602.539062" xlink:href="#DejaVuSans-99"/>
      <use x="657.519531" xlink:href="#DejaVuSans-97"/>
      <use x="718.798828" xlink:href="#DejaVuSans-115"/>
      <use x="770.898438" xlink:href="#DejaVuSans-101"/>
      <use x="832.421875" xlink:href="#DejaVuSans-115"/>
     </g>
    </g>
   </g>
   <g id="line2d_27">
    <path clip-path="url(#pbf69ba1909)" d="M 115.363636 605.290909 
L 121.549889 602.228275 
L 127.736142 598.197005 
L 133.922395 592.916079 
L 140.108647 586.041327 
L 146.2949 577.16435 
L 152.481153 565.821848 
L 158.667406 551.522075 
L 164.853659 533.795685 
L 171.039911 512.27558 
L 177.226164 486.802283 
L 183.412417 457.536853 
L 189.59867 425.046428 
L 195.784922 390.318509 
L 201.971175 354.672333 
L 208.157428 319.572713 
L 214.343681 286.397152 
L 220.529933 256.231259 
L 226.716186 229.752643 
L 232.902439 207.220666 
L 239.088692 188.547824 
L 245.274945 173.409579 
L 251.461197 161.354066 
L 257.64745 151.889324 
L 263.833703 144.541358 
L 270.019956 138.88621 
L 276.206208 134.562988 
L 282.392461 131.274909 
L 288.578714 128.783869 
L 294.764967 126.902242 
L 300.95122 125.484116 
L 307.137472 124.417117 
L 313.323725 123.615325 
L 319.509978 123.013397 
L 325.696231 122.561834 
L 331.882483 122.223258 
L 338.068736 121.969499 
L 344.254989 121.779367 
L 350.441242 121.636941 
L 356.627494 121.53027 
L 362.813747 121.450386 
L 369 121.39057 
L 375.186253 121.345782 
L 381.372506 121.31225 
L 387.558758 121.287145 
L 393.745011 121.26835 
L 399.931264 121.25428 
L 406.117517 121.243746 
L 412.303769 121.235861 
L 418.490022 121.229957 
L 424.676275 121.225538 
L 430.862528 121.22223 
L 437.04878 121.219754 
L 443.235033 121.2179 
L 449.421286 121.216512 
L 455.607539 121.215473 
L 461.793792 121.214695 
L 467.980044 121.214113 
L 474.166297 121.213677 
L 480.35255 121.213351 
L 486.538803 121.213107 
L 492.725055 121.212924 
L 498.911308 121.212787 
L 505.097561 121.212685 
L 511.283814 121.212608 
L 517.470067 121.212551 
L 523.656319 121.212508 
L 529.842572 121.212476 
L 536.028825 121.212452 
L 542.215078 121.212433 
L 548.40133 121.21242 
L 554.587583 121.21241 
L 560.773836 121.212402 
L 566.960089 121.212397 
L 573.146341 121.212392 
L 579.332594 121.212389 
L 585.518847 121.212387 
L 591.7051 121.212385 
L 597.891353 121.212384 
L 604.077605 121.212383 
L 610.263858 121.212382 
L 616.450111 121.212381 
L 622.636364 121.212381 
" style="fill:none;stroke:#1f77b4;stroke-linecap:square;stroke-width:1.5;"/>
   </g>
   <g id="line2d_28">
    <path clip-path="url(#pbf69ba1909)" d="M 115.363636 605.290909 
L 121.549889 597.352155 
L 127.736142 588.02313 
L 133.922395 577.136522 
L 140.108647 564.535144 
L 146.2949 550.085438 
L 152.481153 533.693903 
L 158.667406 515.325358 
L 164.853659 495.021019 
L 171.039911 472.913476 
L 177.226164 449.235114 
L 183.412417 424.316755 
L 189.59867 398.574462 
L 195.784922 372.484603 
L 201.971175 346.549864 
L 208.157428 321.261119 
L 214.343681 297.061179 
L 220.529933 274.315911 
L 226.716186 253.296377 
L 232.902439 234.173055 
L 239.088692 217.020843 
L 245.274945 201.831925 
L 251.461197 188.533046 
L 257.64745 177.003987 
L 263.833703 167.094886 
L 270.019956 158.640937 
L 276.206208 151.473885 
L 282.392461 145.430312 
L 288.578714 140.357097 
L 294.764967 136.114578 
L 300.95122 132.577987 
L 307.137472 129.63766 
L 313.323725 127.198444 
L 319.509978 125.178633 
L 325.696231 123.50864 
L 331.882483 122.129608 
L 338.068736 120.992019 
L 344.254989 120.0544 
L 350.441242 119.282142 
L 356.627494 118.646451 
L 362.813747 118.123425 
L 369 117.693265 
L 375.186253 117.339596 
L 381.372506 117.048893 
L 387.558758 116.809999 
L 393.745011 116.613715 
L 399.931264 116.452464 
L 406.117517 116.320011 
L 412.303769 116.211223 
L 418.490022 116.121878 
L 424.676275 116.048508 
L 430.862528 115.988258 
L 437.04878 115.938785 
L 443.235033 115.898163 
L 449.421286 115.86481 
L 455.607539 115.837425 
L 461.793792 115.81494 
L 467.980044 115.79648 
L 474.166297 115.781325 
L 480.35255 115.768881 
L 486.538803 115.758666 
L 492.725055 115.750279 
L 498.911308 115.743393 
L 505.097561 115.737741 
L 511.283814 115.7331 
L 517.470067 115.72929 
L 523.656319 115.726162 
L 529.842572 115.723594 
L 536.028825 115.721486 
L 542.215078 115.719755 
L 548.40133 115.718334 
L 554.587583 115.717168 
L 560.773836 115.71621 
L 566.960089 115.715424 
L 573.146341 115.714778 
L 579.332594 115.714248 
L 585.518847 115.713813 
L 591.7051 115.713456 
L 597.891353 115.713163 
L 604.077605 115.712922 
L 610.263858 115.712725 
L 616.450111 115.712563 
L 622.636364 115.712429 
" style="fill:none;stroke:#ff7f0e;stroke-linecap:square;stroke-width:1.5;"/>
   </g>
   <g id="line2d_29">
    <path clip-path="url(#pbf69ba1909)" d="M 115.363636 605.290909 
L 121.549889 598.590804 
L 127.736142 590.428811 
L 133.922395 580.569661 
L 140.108647 568.780644 
L 146.2949 554.85256 
L 152.481153 538.627204 
L 158.667406 520.029326 
L 164.853659 499.098521 
L 171.039911 476.014207 
L 177.226164 451.105804 
L 183.412417 424.841812 
L 189.59867 397.795959 
L 195.784922 370.594926 
L 201.971175 343.857778 
L 208.157428 318.139579 
L 214.343681 293.889704 
L 220.529933 271.430244 
L 226.716186 250.954103 
L 232.902439 232.538159 
L 239.088692 216.16518 
L 245.274945 201.748613 
L 251.461197 189.156051 
L 257.64745 178.229016 
L 263.833703 168.798222 
L 270.019956 160.694482 
L 276.206208 153.755902 
L 282.392461 147.832187 
L 288.578714 142.78683 
L 294.764967 138.497847 
L 300.95122 134.857562 
L 307.137472 131.771822 
L 313.323725 129.158901 
L 319.509978 126.948261 
L 325.696231 125.079299 
L 331.882483 123.500135 
L 338.068736 122.166484 
L 344.254989 121.040631 
L 350.441242 120.090517 
L 356.627494 119.288936 
L 362.813747 118.612825 
L 369 118.042656 
L 375.186253 117.561907 
L 381.372506 117.156609 
L 387.558758 116.81496 
L 393.745011 116.526992 
L 399.931264 116.28429 
L 406.117517 116.079753 
L 412.303769 115.907388 
L 418.490022 115.762143 
L 424.676275 115.639755 
L 430.862528 115.53663 
L 437.04878 115.44974 
L 443.235033 115.37653 
L 449.421286 115.314848 
L 455.607539 115.262879 
L 461.793792 115.219094 
L 467.980044 115.182205 
L 474.166297 115.151127 
L 480.35255 115.124944 
L 486.538803 115.102885 
L 492.725055 115.0843 
L 498.911308 115.068644 
L 505.097561 115.055453 
L 511.283814 115.044341 
L 517.470067 115.034979 
L 523.656319 115.027092 
L 529.842572 115.020448 
L 536.028825 115.01485 
L 542.215078 115.010135 
L 548.40133 115.006162 
L 554.587583 115.002815 
L 560.773836 114.999995 
L 566.960089 114.99762 
L 573.146341 114.995619 
L 579.332594 114.993933 
L 585.518847 114.992512 
L 591.7051 114.991316 
L 597.891353 114.990308 
L 604.077605 114.989459 
L 610.263858 114.988743 
L 616.450111 114.988141 
L 622.636364 114.987633 
" style="fill:none;stroke:#2ca02c;stroke-linecap:square;stroke-width:1.5;"/>
   </g>
   <g id="line2d_30">
    <path clip-path="url(#pbf69ba1909)" d="M 115.363636 605.290909 
L 121.549889 598.997641 
L 127.736142 591.167308 
L 133.922395 581.554692 
L 140.108647 569.916678 
L 146.2949 556.033902 
L 152.481153 539.739513 
L 158.667406 520.95318 
L 164.853659 499.715835 
L 171.039911 476.217979 
L 177.226164 450.812831 
L 183.412417 424.006697 
L 189.59867 396.42341 
L 195.784922 368.746704 
L 201.971175 341.651361 
L 208.157428 315.737635 
L 214.343681 291.482105 
L 220.529933 269.212405 
L 226.716186 249.106092 
L 232.902439 231.208226 
L 239.088692 215.459665 
L 245.274945 201.728465 
L 251.461197 189.838844 
L 257.64745 179.594774 
L 263.833703 170.79727 
L 270.019956 163.255858 
L 276.206208 156.795295 
L 282.392461 151.258789 
L 288.578714 146.508841 
L 294.764967 142.426604 
L 300.95122 138.910418 
L 307.137472 135.873958 
L 313.323725 133.244288 
L 319.509978 130.959975 
L 325.696231 128.969373 
L 331.882483 127.229088 
L 338.068736 125.702653 
L 344.254989 124.359397 
L 350.441242 123.173488 
L 356.627494 122.123128 
L 362.813747 121.189888 
L 369 120.358147 
L 375.186253 119.614632 
L 381.372506 118.948036 
L 387.558758 118.348698 
L 393.745011 117.808344 
L 399.931264 117.319865 
L 406.117517 116.877134 
L 412.303769 116.47486 
L 418.490022 116.108458 
L 424.676275 115.773943 
L 430.862528 115.467845 
L 437.04878 115.187132 
L 443.235033 114.929148 
L 449.421286 114.69156 
L 455.607539 114.472315 
L 461.793792 114.269602 
L 467.980044 114.081816 
L 474.166297 113.907536 
L 480.35255 113.745499 
L 486.538803 113.594578 
L 492.725055 113.453769 
L 498.911308 113.322174 
L 505.097561 113.198986 
L 511.283814 113.083482 
L 517.470067 112.975012 
L 523.656319 112.872988 
L 529.842572 112.776881 
L 536.028825 112.686212 
L 542.215078 112.600545 
L 548.40133 112.519489 
L 554.587583 112.442684 
L 560.773836 112.369804 
L 566.960089 112.300554 
L 573.146341 112.234661 
L 579.332594 112.171879 
L 585.518847 112.111981 
L 591.7051 112.054759 
L 597.891353 112.000023 
L 604.077605 111.947599 
L 610.263858 111.897327 
L 616.450111 111.849058 
L 622.636364 111.802657 
" style="fill:none;stroke:#d62728;stroke-linecap:square;stroke-width:1.5;"/>
   </g>
   <g id="line2d_31">
    <path clip-path="url(#pbf69ba1909)" d="M 115.363636 605.290909 
L 121.549889 603.590471 
L 127.736142 599.234467 
L 133.922395 592.466775 
L 140.108647 582.95697 
L 146.2949 570.172761 
L 152.481153 553.609484 
L 158.667406 533.00048 
L 164.853659 508.501454 
L 171.039911 480.774522 
L 177.226164 450.905637 
L 183.412417 420.17477 
L 189.59867 389.788585 
L 195.784922 360.692449 
L 201.971175 333.506572 
L 208.157428 308.557583 
L 214.343681 285.95214 
L 220.529933 265.652637 
L 226.716186 247.537243 
L 232.902439 231.441345 
L 239.088692 217.183769 
L 245.274945 204.582308 
L 251.461197 193.462343 
L 257.64745 183.661227 
L 263.833703 175.030136 
L 270.019956 167.434475 
L 276.206208 160.753475 
L 282.392461 154.879362 
L 288.578714 149.716333 
L 294.764967 145.179468 
L 300.95122 141.193653 
L 307.137472 137.692547 
L 313.323725 134.617633 
L 319.509978 131.917342 
L 325.696231 129.546263 
L 331.882483 127.464426 
L 338.068736 125.636672 
L 344.254989 124.032086 
L 350.441242 122.623486 
L 356.627494 121.386988 
L 362.813747 120.301604 
L 369 119.348895 
L 375.186253 118.512667 
L 381.372506 117.778694 
L 387.558758 117.134486 
L 393.745011 116.569074 
L 399.931264 116.072828 
L 406.117517 115.637293 
L 412.303769 115.255045 
L 418.490022 114.919569 
L 424.676275 114.625143 
L 430.862528 114.366748 
L 437.04878 114.139974 
L 443.235033 113.940954 
L 449.421286 113.766292 
L 455.607539 113.613007 
L 461.793792 113.478483 
L 467.980044 113.360425 
L 474.166297 113.256817 
L 480.35255 113.165891 
L 486.538803 113.086095 
L 492.725055 113.016067 
L 498.911308 112.954611 
L 505.097561 112.900677 
L 511.283814 112.853346 
L 517.470067 112.811809 
L 523.656319 112.775356 
L 529.842572 112.743365 
L 536.028825 112.715291 
L 542.215078 112.690654 
L 548.40133 112.669032 
L 554.587583 112.650057 
L 560.773836 112.633405 
L 566.960089 112.618792 
L 573.146341 112.605967 
L 579.332594 112.594713 
L 585.518847 112.584836 
L 591.7051 112.576168 
L 597.891353 112.568562 
L 604.077605 112.561886 
L 610.263858 112.556028 
L 616.450111 112.550887 
L 622.636364 112.546375 
" style="fill:none;stroke:#9467bd;stroke-linecap:square;stroke-width:1.5;"/>
   </g>
   <g id="line2d_32">
    <path clip-path="url(#pbf69ba1909)" d="M 115.363636 605.290909 
L 121.549889 602.545864 
L 127.736142 595.642757 
L 133.922395 585.66371 
L 140.108647 573.033002 
L 146.2949 557.905143 
L 152.481153 540.354609 
L 158.667406 520.474151 
L 164.853659 498.428014 
L 171.039911 474.478811 
L 177.226164 448.994657 
L 183.412417 422.438792 
L 189.59867 395.343722 
L 195.784922 368.273736 
L 201.971175 341.781753 
L 208.157428 316.367656 
L 214.343681 292.444741 
L 220.529933 270.318755 
L 226.716186 250.181031 
L 232.902439 232.114324 
L 239.088692 216.107955 
L 245.274945 202.078156 
L 251.461197 189.889771 
L 257.64745 179.376416 
L 263.833703 170.357395 
L 270.019956 162.650643 
L 276.206208 156.081789 
L 282.392461 150.489819 
L 288.578714 145.730066 
L 294.764967 141.675229 
L 300.95122 138.215065 
L 307.137472 135.255269 
L 313.323725 132.715912 
L 319.509978 130.529718 
L 325.696231 128.640333 
L 331.882483 127.000711 
L 338.068736 125.571648 
L 344.254989 124.320506 
L 350.441242 123.220107 
L 356.627494 122.247801 
L 362.813747 121.384684 
L 369 120.614947 
L 375.186253 119.92534 
L 381.372506 119.304729 
L 387.558758 118.743728 
L 393.745011 118.234405 
L 399.931264 117.770038 
L 406.117517 117.344906 
L 412.303769 116.954134 
L 418.490022 116.593549 
L 424.676275 116.25957 
L 430.862528 115.949116 
L 437.04878 115.65953 
L 443.235033 115.388512 
L 449.421286 115.134067 
L 455.607539 114.894459 
L 461.793792 114.668176 
L 467.980044 114.453898 
L 474.166297 114.250466 
L 480.35255 114.056867 
L 486.538803 113.872206 
L 492.725055 113.695698 
L 498.911308 113.526647 
L 505.097561 113.364438 
L 511.283814 113.208527 
L 517.470067 113.05843 
L 523.656319 112.913716 
L 529.842572 112.774 
L 536.028825 112.638941 
L 542.215078 112.508229 
L 548.40133 112.38159 
L 554.587583 112.258776 
L 560.773836 112.139563 
L 566.960089 112.02375 
L 573.146341 111.911154 
L 579.332594 111.801609 
L 585.518847 111.694965 
L 591.7051 111.591085 
L 597.891353 111.489843 
L 604.077605 111.391124 
L 610.263858 111.294823 
L 616.450111 111.200842 
L 622.636364 111.109091 
" style="fill:none;stroke:#8c564b;stroke-linecap:square;stroke-width:1.5;"/>
   </g>
   <g id="line2d_33">
    <path clip-path="url(#pbf69ba1909)" d="M 115.363636 605.290909 
L 121.549889 603.218911 
L 127.736142 598.039117 
L 133.922395 590.282841 
L 140.108647 579.833293 
L 146.2949 566.362713 
L 152.481153 549.557474 
L 158.667406 529.277785 
L 164.853659 505.676778 
L 171.039911 479.254504 
L 177.226164 450.819036 
L 183.412417 421.359882 
L 189.59867 391.880585 
L 195.784922 363.25271 
L 201.971175 336.13199 
L 208.157428 310.940886 
L 214.343681 287.896842 
L 220.529933 267.060319 
L 226.716186 248.383863 
L 232.902439 231.75298 
L 239.088692 217.016427 
L 245.274945 204.006959 
L 251.461197 192.554685 
L 257.64745 182.495164 
L 263.833703 173.673962 
L 270.019956 165.948913 
L 276.206208 159.190923 
L 282.392461 153.283911 
L 288.578714 148.124233 
L 294.764967 143.619834 
L 300.95122 139.689283 
L 307.137472 136.26076 
L 313.323725 133.271079 
L 319.509978 130.664749 
L 325.696231 128.393113 
L 331.882483 126.413558 
L 338.068736 124.688798 
L 344.254989 123.186239 
L 350.441242 121.877403 
L 356.627494 120.737423 
L 362.813747 119.744599 
L 369 118.879995 
L 375.186253 118.1271 
L 381.372506 117.471513 
L 387.558758 116.900686 
L 393.745011 116.403678 
L 399.931264 115.970959 
L 406.117517 115.594223 
L 412.303769 115.266236 
L 418.490022 114.980697 
L 424.676275 114.732116 
L 430.862528 114.515713 
L 437.04878 114.327327 
L 443.235033 114.163331 
L 449.421286 114.020569 
L 455.607539 113.896294 
L 461.793792 113.788112 
L 467.980044 113.69394 
L 474.166297 113.611964 
L 480.35255 113.540605 
L 486.538803 113.478488 
L 492.725055 113.424417 
L 498.911308 113.377349 
L 505.097561 113.336377 
L 511.283814 113.300713 
L 517.470067 113.269668 
L 523.656319 113.242645 
L 529.842572 113.219122 
L 536.028825 113.198646 
L 542.215078 113.180822 
L 548.40133 113.165308 
L 554.587583 113.151803 
L 560.773836 113.140047 
L 566.960089 113.129815 
L 573.146341 113.120907 
L 579.332594 113.113154 
L 585.518847 113.106405 
L 591.7051 113.10053 
L 597.891353 113.095417 
L 604.077605 113.090966 
L 610.263858 113.087091 
L 616.450111 113.083718 
L 622.636364 113.080783 
" style="fill:none;stroke:#e377c2;stroke-linecap:square;stroke-width:1.5;"/>
   </g>
   <g id="line2d_34">
    <path clip-path="url(#pbf69ba1909)" d="M 115.363636 605.290909 
L 121.549889 603.134717 
L 127.736142 597.174946 
L 133.922395 587.88793 
L 140.108647 575.521002 
L 146.2949 560.22696 
L 152.481153 542.154241 
L 158.667406 521.507302 
L 164.853659 498.582531 
L 171.039911 473.781024 
L 177.226164 447.599226 
L 183.412417 420.600574 
L 189.59867 393.374396 
L 195.784922 366.490532 
L 201.971175 340.45838 
L 208.157428 315.696964 
L 214.343681 292.519171 
L 220.529933 271.129741 
L 226.716186 251.634052 
L 232.902439 234.053692 
L 239.088692 218.344909 
L 245.274945 204.416957 
L 251.461197 192.148437 
L 257.64745 181.400738 
L 263.833703 172.028383 
L 270.019956 163.886512 
L 276.206208 156.835976 
L 282.392461 150.746513 
L 288.578714 145.498512 
L 294.764967 140.983748 
L 300.95122 137.105407 
L 307.137472 133.77767 
L 313.323725 130.925012 
L 319.509978 128.481351 
L 325.696231 126.389145 
L 331.882483 124.598482 
L 338.068736 123.066209 
L 344.254989 121.755114 
L 350.441242 120.633182 
L 356.627494 119.672918 
L 362.813747 118.850747 
L 369 118.146482 
L 375.186253 117.542856 
L 381.372506 117.025111 
L 387.558758 116.580648 
L 393.745011 116.198711 
L 399.931264 115.870131 
L 406.117517 115.587087 
L 412.303769 115.342916 
L 418.490022 115.131939 
L 424.676275 114.949319 
L 430.862528 114.790936 
L 437.04878 114.653282 
L 443.235033 114.533366 
L 449.421286 114.428644 
L 455.607539 114.336947 
L 461.793792 114.256428 
L 467.980044 114.185511 
L 474.166297 114.122856 
L 480.35255 114.067316 
L 486.538803 114.017916 
L 492.725055 113.973824 
L 498.911308 113.934326 
L 505.097561 113.898816 
L 511.283814 113.866773 
L 517.470067 113.837752 
L 523.656319 113.811373 
L 529.842572 113.787309 
L 536.028825 113.76528 
L 542.215078 113.745044 
L 548.40133 113.726395 
L 554.587583 113.709153 
L 560.773836 113.693164 
L 566.960089 113.678295 
L 573.146341 113.664431 
L 579.332594 113.651471 
L 585.518847 113.639327 
L 591.7051 113.627924 
L 597.891353 113.617195 
L 604.077605 113.607081 
L 610.263858 113.597532 
L 616.450111 113.588501 
L 622.636364 113.579948 
" style="fill:none;stroke:#7f7f7f;stroke-linecap:square;stroke-width:1.5;"/>
   </g>
   <g id="line2d_35">
    <path clip-path="url(#pbf69ba1909)" d="M 115.363636 605.290909 
L 121.549889 603.174694 
L 127.736142 597.432174 
L 133.922395 588.522536 
L 140.108647 576.584582 
L 146.2949 561.651493 
L 152.481153 543.776814 
L 158.667406 523.111443 
L 164.853659 499.945314 
L 171.039911 474.716954 
L 177.226164 447.992655 
L 183.412417 420.420825 
L 189.59867 392.672207 
L 195.784922 365.379407 
L 201.971175 339.087818 
L 208.157428 314.225196 
L 214.343681 291.091137 
L 220.529933 269.86306 
L 226.716186 250.612981 
L 232.902439 233.329347 
L 239.088692 217.939445 
L 245.274945 204.329598 
L 251.461197 192.361822 
L 257.64745 181.886658 
L 263.833703 172.752477 
L 270.019956 164.811845 
L 276.206208 157.925567 
L 282.392461 151.965015 
L 288.578714 146.813224 
L 294.764967 142.365135 
L 300.95122 138.527292 
L 307.137472 135.217192 
L 313.323725 132.362451 
L 319.509978 129.899877 
L 325.696231 127.774528 
L 331.882483 125.938798 
L 338.068736 124.351554 
L 344.254989 122.977337 
L 350.441242 121.785643 
L 356.627494 120.750274 
L 362.813747 119.848761 
L 369 119.061861 
L 375.186253 118.373107 
L 381.372506 117.768421 
L 387.558758 117.235778 
L 393.745011 116.76491 
L 399.931264 116.34706 
L 406.117517 115.974755 
L 412.303769 115.641625 
L 418.490022 115.34224 
L 424.676275 115.071971 
L 430.862528 114.826873 
L 437.04878 114.603585 
L 443.235033 114.399238 
L 449.421286 114.211388 
L 455.607539 114.03795 
L 461.793792 113.877142 
L 467.980044 113.727443 
L 474.166297 113.587552 
L 480.35255 113.456357 
L 486.538803 113.332902 
L 492.725055 113.216369 
L 498.911308 113.106053 
L 505.097561 113.00135 
L 511.283814 112.901733 
L 517.470067 112.806752 
L 523.656319 112.716013 
L 529.842572 112.629174 
L 536.028825 112.545937 
L 542.215078 112.466039 
L 548.40133 112.389252 
L 554.587583 112.315372 
L 560.773836 112.244218 
L 566.960089 112.175632 
L 573.146341 112.109469 
L 579.332594 112.045601 
L 585.518847 111.983911 
L 591.7051 111.924293 
L 597.891353 111.866652 
L 604.077605 111.810899 
L 610.263858 111.756952 
L 616.450111 111.704738 
L 622.636364 111.654186 
" style="fill:none;stroke:#bcbd22;stroke-linecap:square;stroke-width:1.5;"/>
   </g>
   <g id="line2d_36">
    <path clip-path="url(#pbf69ba1909)" d="M 115.363636 605.290909 
L 121.549889 601.615963 
L 127.736142 597.272845 
L 133.922395 580.568544 
L 140.108647 580.568544 
L 146.2949 562.861985 
L 152.481153 546.157685 
L 158.667406 520.098976 
L 164.853659 491.701665 
L 171.039911 463.972526 
L 177.226164 442.925107 
L 183.412417 417.868656 
L 189.59867 398.491667 
L 195.784922 378.11242 
L 201.971175 348.378765 
L 208.157428 324.658658 
L 214.343681 297.263605 
L 220.529933 267.52995 
L 226.716186 245.146187 
L 232.902439 227.105542 
L 239.088692 210.401242 
L 245.274945 200.712747 
L 251.461197 186.012963 
L 257.64745 176.324468 
L 263.833703 170.31092 
L 270.019956 163.963286 
L 276.206208 158.283824 
L 282.392461 151.602104 
L 288.578714 146.590813 
L 294.764967 143.918125 
L 300.95122 139.575007 
L 307.137472 136.568233 
L 313.323725 133.561459 
L 319.509978 131.891029 
L 325.696231 129.886513 
L 331.882483 128.216083 
L 338.068736 126.545653 
L 344.254989 123.538878 
L 350.441242 123.872964 
L 356.627494 122.870706 
L 362.813747 122.202534 
L 369 121.534362 
L 375.186253 120.532104 
L 381.372506 118.527588 
L 387.558758 117.859416 
L 393.745011 117.859416 
L 399.931264 118.193502 
L 406.117517 117.52533 
L 412.303769 117.191244 
L 418.490022 116.857158 
L 424.676275 116.188986 
L 430.862528 115.520814 
L 437.04878 114.518556 
L 443.235033 114.518556 
L 449.421286 114.518556 
L 455.607539 114.518556 
L 461.793792 114.18447 
L 467.980044 114.18447 
L 474.166297 113.850384 
L 480.35255 113.850384 
L 486.538803 113.850384 
L 492.725055 112.51404 
L 498.911308 112.51404 
L 505.097561 112.179954 
L 511.283814 112.179954 
L 517.470067 112.179954 
L 523.656319 112.179954 
L 529.842572 112.179954 
L 536.028825 112.179954 
L 542.215078 112.179954 
L 548.40133 112.179954 
L 554.587583 112.179954 
L 560.773836 112.179954 
L 566.960089 112.179954 
L 573.146341 112.179954 
L 579.332594 112.179954 
L 585.518847 112.179954 
L 591.7051 112.179954 
L 597.891353 112.179954 
L 604.077605 112.179954 
L 610.263858 112.179954 
L 616.450111 112.179954 
L 622.636364 112.179954 
" style="fill:none;stroke:#17becf;stroke-dasharray:14.8,6.4;stroke-dashoffset:0;stroke-width:4;"/>
   </g>
   <g id="patch_3">
    <path d="M 90 630 
L 90 86.4 
" style="fill:none;stroke:#000000;stroke-linecap:square;stroke-linejoin:miter;stroke-width:0.8;"/>
   </g>
   <g id="patch_4">
    <path d="M 648 630 
L 648 86.4 
" style="fill:none;stroke:#000000;stroke-linecap:square;stroke-linejoin:miter;stroke-width:0.8;"/>
   </g>
   <g id="patch_5">
    <path d="M 90 630 
L 648 630 
" style="fill:none;stroke:#000000;stroke-linecap:square;stroke-linejoin:miter;stroke-width:0.8;"/>
   </g>
   <g id="patch_6">
    <path d="M 90 86.4 
L 648 86.4 
" style="fill:none;stroke:#000000;stroke-linecap:square;stroke-linejoin:miter;stroke-width:0.8;"/>
   </g>
   <g id="text_16">
    <!-- New Zealand relative err =  -->
    <g transform="translate(285.766875 80.4)scale(0.12 -0.12)">
     <defs>
      <path d="M 9.8125 72.90625 
L 23.09375 72.90625 
L 55.421875 11.921875 
L 55.421875 72.90625 
L 64.984375 72.90625 
L 64.984375 0 
L 51.703125 0 
L 19.390625 60.984375 
L 19.390625 0 
L 9.8125 0 
z
" id="DejaVuSans-78"/>
      <path d="M 4.203125 54.6875 
L 13.1875 54.6875 
L 24.421875 12.015625 
L 35.59375 54.6875 
L 46.1875 54.6875 
L 57.421875 12.015625 
L 68.609375 54.6875 
L 77.59375 54.6875 
L 63.28125 0 
L 52.6875 0 
L 40.921875 44.828125 
L 29.109375 0 
L 18.5 0 
z
" id="DejaVuSans-119"/>
      <path d="M 5.609375 72.90625 
L 62.890625 72.90625 
L 62.890625 65.375 
L 16.796875 8.296875 
L 64.015625 8.296875 
L 64.015625 0 
L 4.5 0 
L 4.5 7.515625 
L 50.59375 64.59375 
L 5.609375 64.59375 
z
" id="DejaVuSans-90"/>
      <path d="M 54.890625 33.015625 
L 54.890625 0 
L 45.90625 0 
L 45.90625 32.71875 
Q 45.90625 40.484375 42.875 44.328125 
Q 39.84375 48.1875 33.796875 48.1875 
Q 26.515625 48.1875 22.3125 43.546875 
Q 18.109375 38.921875 18.109375 30.90625 
L 18.109375 0 
L 9.078125 0 
L 9.078125 54.6875 
L 18.109375 54.6875 
L 18.109375 46.1875 
Q 21.34375 51.125 25.703125 53.5625 
Q 30.078125 56 35.796875 56 
Q 45.21875 56 50.046875 50.171875 
Q 54.890625 44.34375 54.890625 33.015625 
z
" id="DejaVuSans-110"/>
      <path d="M 45.40625 46.390625 
L 45.40625 75.984375 
L 54.390625 75.984375 
L 54.390625 0 
L 45.40625 0 
L 45.40625 8.203125 
Q 42.578125 3.328125 38.25 0.953125 
Q 33.9375 -1.421875 27.875 -1.421875 
Q 17.96875 -1.421875 11.734375 6.484375 
Q 5.515625 14.40625 5.515625 27.296875 
Q 5.515625 40.1875 11.734375 48.09375 
Q 17.96875 56 27.875 56 
Q 33.9375 56 38.25 53.625 
Q 42.578125 51.265625 45.40625 46.390625 
z
M 14.796875 27.296875 
Q 14.796875 17.390625 18.875 11.75 
Q 22.953125 6.109375 30.078125 6.109375 
Q 37.203125 6.109375 41.296875 11.75 
Q 45.40625 17.390625 45.40625 27.296875 
Q 45.40625 37.203125 41.296875 42.84375 
Q 37.203125 48.484375 30.078125 48.484375 
Q 22.953125 48.484375 18.875 42.84375 
Q 14.796875 37.203125 14.796875 27.296875 
z
" id="DejaVuSans-100"/>
      <path d="M 41.109375 46.296875 
Q 39.59375 47.171875 37.8125 47.578125 
Q 36.03125 48 33.890625 48 
Q 26.265625 48 22.1875 43.046875 
Q 18.109375 38.09375 18.109375 28.8125 
L 18.109375 0 
L 9.078125 0 
L 9.078125 54.6875 
L 18.109375 54.6875 
L 18.109375 46.1875 
Q 20.953125 51.171875 25.484375 53.578125 
Q 30.03125 56 36.53125 56 
Q 37.453125 56 38.578125 55.875 
Q 39.703125 55.765625 41.0625 55.515625 
z
" id="DejaVuSans-114"/>
      <path d="M 10.59375 45.40625 
L 73.1875 45.40625 
L 73.1875 37.203125 
L 10.59375 37.203125 
z
M 10.59375 25.484375 
L 73.1875 25.484375 
L 73.1875 17.1875 
L 10.59375 17.1875 
z
" id="DejaVuSans-61"/>
     </defs>
     <use xlink:href="#DejaVuSans-78"/>
     <use x="74.804688" xlink:href="#DejaVuSans-101"/>
     <use x="136.328125" xlink:href="#DejaVuSans-119"/>
     <use x="218.115234" xlink:href="#DejaVuSans-32"/>
     <use x="249.902344" xlink:href="#DejaVuSans-90"/>
     <use x="318.408203" xlink:href="#DejaVuSans-101"/>
     <use x="379.931641" xlink:href="#DejaVuSans-97"/>
     <use x="441.210938" xlink:href="#DejaVuSans-108"/>
     <use x="468.994141" xlink:href="#DejaVuSans-97"/>
     <use x="530.273438" xlink:href="#DejaVuSans-110"/>
     <use x="593.652344" xlink:href="#DejaVuSans-100"/>
     <use x="657.128906" xlink:href="#DejaVuSans-32"/>
     <use x="688.916016" xlink:href="#DejaVuSans-114"/>
     <use x="727.779297" xlink:href="#DejaVuSans-101"/>
     <use x="789.302734" xlink:href="#DejaVuSans-108"/>
     <use x="817.085938" xlink:href="#DejaVuSans-97"/>
     <use x="878.365234" xlink:href="#DejaVuSans-116"/>
     <use x="917.574219" xlink:href="#DejaVuSans-105"/>
     <use x="945.357422" xlink:href="#DejaVuSans-118"/>
     <use x="1004.537109" xlink:href="#DejaVuSans-101"/>
     <use x="1066.060547" xlink:href="#DejaVuSans-32"/>
     <use x="1097.847656" xlink:href="#DejaVuSans-101"/>
     <use x="1159.371094" xlink:href="#DejaVuSans-114"/>
     <use x="1198.734375" xlink:href="#DejaVuSans-114"/>
     <use x="1239.847656" xlink:href="#DejaVuSans-32"/>
     <use x="1271.634766" xlink:href="#DejaVuSans-61"/>
     <use x="1355.423828" xlink:href="#DejaVuSans-32"/>
    </g>
   </g>
   <g id="legend_1">
    <g id="patch_7">
     <path d="M 97 226.503125 
L 185.6 226.503125 
Q 187.6 226.503125 187.6 224.503125 
L 187.6 93.4 
Q 187.6 91.4 185.6 91.4 
L 97 91.4 
Q 95 91.4 95 93.4 
L 95 224.503125 
Q 95 226.503125 97 226.503125 
z
" style="fill:#ffffff;opacity:0.8;stroke:#cccccc;stroke-linejoin:miter;"/>
    </g>
    <g id="line2d_37">
     <path d="M 99 99.498438 
L 119 99.498438 
" style="fill:none;stroke:#1f77b4;stroke-linecap:square;stroke-width:1.5;"/>
    </g>
    <g id="line2d_38"/>
    <g id="text_17">
     <!-- SI -->
     <g transform="translate(127 102.998438)scale(0.1 -0.1)">
      <defs>
       <path d="M 53.515625 70.515625 
L 53.515625 60.890625 
Q 47.90625 63.578125 42.921875 64.890625 
Q 37.9375 66.21875 33.296875 66.21875 
Q 25.25 66.21875 20.875 63.09375 
Q 16.5 59.96875 16.5 54.203125 
Q 16.5 49.359375 19.40625 46.890625 
Q 22.3125 44.4375 30.421875 42.921875 
L 36.375 41.703125 
Q 47.40625 39.59375 52.65625 34.296875 
Q 57.90625 29 57.90625 20.125 
Q 57.90625 9.515625 50.796875 4.046875 
Q 43.703125 -1.421875 29.984375 -1.421875 
Q 24.8125 -1.421875 18.96875 -0.25 
Q 13.140625 0.921875 6.890625 3.21875 
L 6.890625 13.375 
Q 12.890625 10.015625 18.65625 8.296875 
Q 24.421875 6.59375 29.984375 6.59375 
Q 38.421875 6.59375 43.015625 9.90625 
Q 47.609375 13.234375 47.609375 19.390625 
Q 47.609375 24.75 44.3125 27.78125 
Q 41.015625 30.8125 33.5 32.328125 
L 27.484375 33.5 
Q 16.453125 35.6875 11.515625 40.375 
Q 6.59375 45.0625 6.59375 53.421875 
Q 6.59375 63.09375 13.40625 68.65625 
Q 20.21875 74.21875 32.171875 74.21875 
Q 37.3125 74.21875 42.625 73.28125 
Q 47.953125 72.359375 53.515625 70.515625 
z
" id="DejaVuSans-83"/>
       <path d="M 9.8125 72.90625 
L 19.671875 72.90625 
L 19.671875 0 
L 9.8125 0 
z
" id="DejaVuSans-73"/>
      </defs>
      <use xlink:href="#DejaVuSans-83"/>
      <use x="63.476562" xlink:href="#DejaVuSans-73"/>
     </g>
    </g>
    <g id="line2d_39">
     <path d="M 99 114.176563 
L 119 114.176563 
" style="fill:none;stroke:#ff7f0e;stroke-linecap:square;stroke-width:1.5;"/>
    </g>
    <g id="line2d_40"/>
    <g id="text_18">
     <!-- BD -->
     <g transform="translate(127 117.676563)scale(0.1 -0.1)">
      <defs>
       <path d="M 19.671875 34.8125 
L 19.671875 8.109375 
L 35.5 8.109375 
Q 43.453125 8.109375 47.28125 11.40625 
Q 51.125 14.703125 51.125 21.484375 
Q 51.125 28.328125 47.28125 31.5625 
Q 43.453125 34.8125 35.5 34.8125 
z
M 19.671875 64.796875 
L 19.671875 42.828125 
L 34.28125 42.828125 
Q 41.5 42.828125 45.03125 45.53125 
Q 48.578125 48.25 48.578125 53.8125 
Q 48.578125 59.328125 45.03125 62.0625 
Q 41.5 64.796875 34.28125 64.796875 
z
M 9.8125 72.90625 
L 35.015625 72.90625 
Q 46.296875 72.90625 52.390625 68.21875 
Q 58.5 63.53125 58.5 54.890625 
Q 58.5 48.1875 55.375 44.234375 
Q 52.25 40.28125 46.1875 39.3125 
Q 53.46875 37.75 57.5 32.78125 
Q 61.53125 27.828125 61.53125 20.40625 
Q 61.53125 10.640625 54.890625 5.3125 
Q 48.25 0 35.984375 0 
L 9.8125 0 
z
" id="DejaVuSans-66"/>
      </defs>
      <use xlink:href="#DejaVuSans-66"/>
      <use x="68.603516" xlink:href="#DejaVuSans-68"/>
     </g>
    </g>
    <g id="line2d_41">
     <path d="M 99 128.854688 
L 119 128.854688 
" style="fill:none;stroke:#2ca02c;stroke-linecap:square;stroke-width:1.5;"/>
    </g>
    <g id="line2d_42"/>
    <g id="text_19">
     <!-- SIR -->
     <g transform="translate(127 132.354688)scale(0.1 -0.1)">
      <defs>
       <path d="M 44.390625 34.1875 
Q 47.5625 33.109375 50.5625 29.59375 
Q 53.5625 26.078125 56.59375 19.921875 
L 66.609375 0 
L 56 0 
L 46.6875 18.703125 
Q 43.0625 26.03125 39.671875 28.421875 
Q 36.28125 30.8125 30.421875 30.8125 
L 19.671875 30.8125 
L 19.671875 0 
L 9.8125 0 
L 9.8125 72.90625 
L 32.078125 72.90625 
Q 44.578125 72.90625 50.734375 67.671875 
Q 56.890625 62.453125 56.890625 51.90625 
Q 56.890625 45.015625 53.6875 40.46875 
Q 50.484375 35.9375 44.390625 34.1875 
z
M 19.671875 64.796875 
L 19.671875 38.921875 
L 32.078125 38.921875 
Q 39.203125 38.921875 42.84375 42.21875 
Q 46.484375 45.515625 46.484375 51.90625 
Q 46.484375 58.296875 42.84375 61.546875 
Q 39.203125 64.796875 32.078125 64.796875 
z
" id="DejaVuSans-82"/>
      </defs>
      <use xlink:href="#DejaVuSans-83"/>
      <use x="63.476562" xlink:href="#DejaVuSans-73"/>
      <use x="92.96875" xlink:href="#DejaVuSans-82"/>
     </g>
    </g>
    <g id="line2d_43">
     <path d="M 99 143.532812 
L 119 143.532812 
" style="fill:none;stroke:#d62728;stroke-linecap:square;stroke-width:1.5;"/>
    </g>
    <g id="line2d_44"/>
    <g id="text_20">
     <!-- eSIR -->
     <g transform="translate(127 147.032812)scale(0.1 -0.1)">
      <use xlink:href="#DejaVuSans-101"/>
      <use x="61.523438" xlink:href="#DejaVuSans-83"/>
      <use x="125" xlink:href="#DejaVuSans-73"/>
      <use x="154.492188" xlink:href="#DejaVuSans-82"/>
     </g>
    </g>
    <g id="line2d_45">
     <path d="M 99 158.210938 
L 119 158.210938 
" style="fill:none;stroke:#9467bd;stroke-linecap:square;stroke-width:1.5;"/>
    </g>
    <g id="line2d_46"/>
    <g id="text_21">
     <!-- SEIR -->
     <g transform="translate(127 161.710938)scale(0.1 -0.1)">
      <defs>
       <path d="M 9.8125 72.90625 
L 55.90625 72.90625 
L 55.90625 64.59375 
L 19.671875 64.59375 
L 19.671875 43.015625 
L 54.390625 43.015625 
L 54.390625 34.71875 
L 19.671875 34.71875 
L 19.671875 8.296875 
L 56.78125 8.296875 
L 56.78125 0 
L 9.8125 0 
z
" id="DejaVuSans-69"/>
      </defs>
      <use xlink:href="#DejaVuSans-83"/>
      <use x="63.476562" xlink:href="#DejaVuSans-69"/>
      <use x="126.660156" xlink:href="#DejaVuSans-73"/>
      <use x="156.152344" xlink:href="#DejaVuSans-82"/>
     </g>
    </g>
    <g id="line2d_47">
     <path d="M 99 172.889063 
L 119 172.889063 
" style="fill:none;stroke:#8c564b;stroke-linecap:square;stroke-width:1.5;"/>
    </g>
    <g id="line2d_48"/>
    <g id="text_22">
     <!-- eSEIR -->
     <g transform="translate(127 176.389063)scale(0.1 -0.1)">
      <use xlink:href="#DejaVuSans-101"/>
      <use x="61.523438" xlink:href="#DejaVuSans-83"/>
      <use x="125" xlink:href="#DejaVuSans-69"/>
      <use x="188.183594" xlink:href="#DejaVuSans-73"/>
      <use x="217.675781" xlink:href="#DejaVuSans-82"/>
     </g>
    </g>
    <g id="line2d_49">
     <path d="M 99 187.567188 
L 119 187.567188 
" style="fill:none;stroke:#e377c2;stroke-linecap:square;stroke-width:1.5;"/>
    </g>
    <g id="line2d_50"/>
    <g id="text_23">
     <!-- SEIUR -->
     <g transform="translate(127 191.067188)scale(0.1 -0.1)">
      <defs>
       <path d="M 8.6875 72.90625 
L 18.609375 72.90625 
L 18.609375 28.609375 
Q 18.609375 16.890625 22.84375 11.734375 
Q 27.09375 6.59375 36.625 6.59375 
Q 46.09375 6.59375 50.34375 11.734375 
Q 54.59375 16.890625 54.59375 28.609375 
L 54.59375 72.90625 
L 64.5 72.90625 
L 64.5 27.390625 
Q 64.5 13.140625 57.4375 5.859375 
Q 50.390625 -1.421875 36.625 -1.421875 
Q 22.796875 -1.421875 15.734375 5.859375 
Q 8.6875 13.140625 8.6875 27.390625 
z
" id="DejaVuSans-85"/>
      </defs>
      <use xlink:href="#DejaVuSans-83"/>
      <use x="63.476562" xlink:href="#DejaVuSans-69"/>
      <use x="126.660156" xlink:href="#DejaVuSans-73"/>
      <use x="156.152344" xlink:href="#DejaVuSans-85"/>
      <use x="229.345703" xlink:href="#DejaVuSans-82"/>
     </g>
    </g>
    <g id="line2d_51">
     <path d="M 99 202.245312 
L 119 202.245312 
" style="fill:none;stroke:#7f7f7f;stroke-linecap:square;stroke-width:1.5;"/>
    </g>
    <g id="line2d_52"/>
    <g id="text_24">
     <!-- eSEIUR -->
     <g transform="translate(127 205.745312)scale(0.1 -0.1)">
      <use xlink:href="#DejaVuSans-101"/>
      <use x="61.523438" xlink:href="#DejaVuSans-83"/>
      <use x="125" xlink:href="#DejaVuSans-69"/>
      <use x="188.183594" xlink:href="#DejaVuSans-73"/>
      <use x="217.675781" xlink:href="#DejaVuSans-85"/>
      <use x="290.869141" xlink:href="#DejaVuSans-82"/>
     </g>
    </g>
    <g id="line2d_53">
     <path d="M 99 216.923437 
L 119 216.923437 
" style="fill:none;stroke:#bcbd22;stroke-linecap:square;stroke-width:1.5;"/>
    </g>
    <g id="line2d_54"/>
    <g id="text_25">
     <!-- eSEIUR$^{range}$ -->
     <g transform="translate(127 220.423437)scale(0.1 -0.1)">
      <defs>
       <path d="M 44.578125 46.390625 
Q 43.21875 47.125 41.453125 47.515625 
Q 39.703125 47.90625 37.703125 47.90625 
Q 30.515625 47.90625 25.140625 42.453125 
Q 19.78125 37.015625 18.015625 27.875 
L 12.5 0 
L 3.515625 0 
L 14.203125 54.6875 
L 23.1875 54.6875 
L 21.484375 46.1875 
Q 25.046875 50.921875 30 53.453125 
Q 34.96875 56 40.578125 56 
Q 42.046875 56 43.453125 55.828125 
Q 44.875 55.671875 46.296875 55.28125 
z
" id="DejaVuSans-Oblique-114"/>
       <path d="M 53.71875 31.203125 
L 47.609375 0 
L 38.625 0 
L 40.28125 8.296875 
Q 36.328125 3.421875 31.265625 1 
Q 26.21875 -1.421875 20.015625 -1.421875 
Q 13.03125 -1.421875 8.5625 2.84375 
Q 4.109375 7.125 4.109375 13.8125 
Q 4.109375 23.390625 11.75 28.953125 
Q 19.390625 34.515625 32.8125 34.515625 
L 45.3125 34.515625 
L 45.796875 36.921875 
Q 45.90625 37.3125 45.953125 37.765625 
Q 46 38.234375 46 39.203125 
Q 46 43.5625 42.453125 45.96875 
Q 38.921875 48.390625 32.515625 48.390625 
Q 28.125 48.390625 23.5 47.265625 
Q 18.890625 46.140625 14.015625 43.890625 
L 15.578125 52.203125 
Q 20.65625 54.109375 25.515625 55.046875 
Q 30.375 56 34.90625 56 
Q 44.578125 56 49.625 51.796875 
Q 54.6875 47.609375 54.6875 39.59375 
Q 54.6875 37.984375 54.4375 35.8125 
Q 54.203125 33.640625 53.71875 31.203125 
z
M 44 27.484375 
L 35.015625 27.484375 
Q 23.96875 27.484375 18.671875 24.53125 
Q 13.375 21.578125 13.375 15.375 
Q 13.375 11.078125 16.078125 8.640625 
Q 18.796875 6.203125 23.578125 6.203125 
Q 30.90625 6.203125 36.375 11.453125 
Q 41.84375 16.703125 43.609375 25.484375 
z
" id="DejaVuSans-Oblique-97"/>
       <path d="M 55.71875 33.015625 
L 49.3125 0 
L 40.28125 0 
L 46.6875 32.671875 
Q 47.125 34.96875 47.359375 36.71875 
Q 47.609375 38.484375 47.609375 39.5 
Q 47.609375 43.609375 45.015625 45.890625 
Q 42.4375 48.1875 37.796875 48.1875 
Q 30.5625 48.1875 25.34375 43.375 
Q 20.125 38.578125 18.5 30.328125 
L 12.5 0 
L 3.515625 0 
L 14.109375 54.6875 
L 23.09375 54.6875 
L 21.296875 46.09375 
Q 25.046875 50.828125 30.3125 53.40625 
Q 35.59375 56 41.40625 56 
Q 48.640625 56 52.609375 52.09375 
Q 56.59375 48.1875 56.59375 41.109375 
Q 56.59375 39.359375 56.375 37.359375 
Q 56.15625 35.359375 55.71875 33.015625 
z
" id="DejaVuSans-Oblique-110"/>
       <path d="M 59.625 54.6875 
L 50.296875 6.78125 
Q 47.609375 -7.125 40.015625 -13.953125 
Q 32.421875 -20.796875 19.578125 -20.796875 
Q 14.84375 -20.796875 10.78125 -20.09375 
Q 6.734375 -19.390625 3.21875 -17.921875 
L 4.890625 -9.1875 
Q 8.203125 -11.328125 11.90625 -12.34375 
Q 15.625 -13.375 19.828125 -13.375 
Q 28.375 -13.375 33.859375 -8.703125 
Q 39.359375 -4.046875 41.109375 4.6875 
L 41.890625 8.796875 
Q 38.140625 4.5 33.15625 2.25 
Q 28.171875 0 22.40625 0 
Q 14.109375 0 9.34375 5.484375 
Q 4.59375 10.984375 4.59375 20.609375 
Q 4.59375 28.171875 7.46875 35.421875 
Q 10.359375 42.671875 15.578125 48.296875 
Q 19.046875 52 23.65625 54 
Q 28.265625 56 33.296875 56 
Q 38.8125 56 42.90625 53.4375 
Q 47.015625 50.875 49.03125 46.1875 
L 50.59375 54.6875 
z
M 46.09375 34.625 
Q 46.09375 41.265625 42.96875 44.875 
Q 39.84375 48.484375 34.078125 48.484375 
Q 30.515625 48.484375 27.296875 47.0625 
Q 24.078125 45.65625 21.78125 43.109375 
Q 18.0625 38.921875 15.984375 33.234375 
Q 13.921875 27.546875 13.921875 21.484375 
Q 13.921875 14.75 17.0625 11.125 
Q 20.21875 7.515625 26.125 7.515625 
Q 34.671875 7.515625 40.375 15.25 
Q 46.09375 23 46.09375 34.625 
z
" id="DejaVuSans-Oblique-103"/>
       <path d="M 48.09375 32.234375 
Q 48.25 33.015625 48.3125 33.84375 
Q 48.390625 34.671875 48.390625 35.5 
Q 48.390625 41.453125 44.890625 44.921875 
Q 41.40625 48.390625 35.40625 48.390625 
Q 28.71875 48.390625 23.578125 44.15625 
Q 18.453125 39.9375 15.828125 32.171875 
z
M 55.90625 25.203125 
L 14.109375 25.203125 
Q 13.8125 23.34375 13.71875 22.265625 
Q 13.625 21.1875 13.625 20.40625 
Q 13.625 13.625 17.796875 9.90625 
Q 21.96875 6.203125 29.59375 6.203125 
Q 35.453125 6.203125 40.671875 7.515625 
Q 45.90625 8.84375 50.390625 11.375 
L 48.6875 2.484375 
Q 43.84375 0.53125 38.6875 -0.4375 
Q 33.546875 -1.421875 28.21875 -1.421875 
Q 16.84375 -1.421875 10.71875 4.015625 
Q 4.59375 9.46875 4.59375 19.484375 
Q 4.59375 28.03125 7.640625 35.375 
Q 10.6875 42.71875 16.609375 48.484375 
Q 20.40625 52.09375 25.65625 54.046875 
Q 30.90625 56 36.8125 56 
Q 46.09375 56 51.578125 50.4375 
Q 57.078125 44.875 57.078125 35.5 
Q 57.078125 33.25 56.78125 30.6875 
Q 56.5 28.125 55.90625 25.203125 
z
" id="DejaVuSans-Oblique-101"/>
      </defs>
      <use transform="translate(0 0.51875)" xlink:href="#DejaVuSans-101"/>
      <use transform="translate(61.523438 0.51875)" xlink:href="#DejaVuSans-83"/>
      <use transform="translate(125 0.51875)" xlink:href="#DejaVuSans-69"/>
      <use transform="translate(188.183594 0.51875)" xlink:href="#DejaVuSans-73"/>
      <use transform="translate(217.675781 0.51875)" xlink:href="#DejaVuSans-85"/>
      <use transform="translate(288.619141 0.51875)" xlink:href="#DejaVuSans-82"/>
      <use transform="translate(359.058594 38.8)scale(0.7)" xlink:href="#DejaVuSans-Oblique-114"/>
      <use transform="translate(387.837891 38.8)scale(0.7)" xlink:href="#DejaVuSans-Oblique-97"/>
      <use transform="translate(430.733398 38.8)scale(0.7)" xlink:href="#DejaVuSans-Oblique-110"/>
      <use transform="translate(475.098633 38.8)scale(0.7)" xlink:href="#DejaVuSans-Oblique-103"/>
      <use transform="translate(519.532227 38.8)scale(0.7)" xlink:href="#DejaVuSans-Oblique-101"/>
     </g>
    </g>
   </g>
  </g>
 </g>
 <defs>
  <clipPath id="pbf69ba1909">
   <rect height="543.6" width="558" x="90" y="86.4"/>
  </clipPath>
 </defs>
</svg>
