<?xml version="1.0" encoding="utf-8" standalone="no"?>
<!DOCTYPE svg PUBLIC "-//W3C//DTD SVG 1.1//EN"
  "http://www.w3.org/Graphics/SVG/1.1/DTD/svg11.dtd">
<!-- Created with matplotlib (https://matplotlib.org/) -->
<svg height="720pt" version="1.1" viewBox="0 0 720 720" width="720pt" xmlns="http://www.w3.org/2000/svg" xmlns:xlink="http://www.w3.org/1999/xlink">
 <metadata>
  <rdf:RDF xmlns:cc="http://creativecommons.org/ns#" xmlns:dc="http://purl.org/dc/elements/1.1/" xmlns:rdf="http://www.w3.org/1999/02/22-rdf-syntax-ns#">
   <cc:Work>
    <dc:type rdf:resource="http://purl.org/dc/dcmitype/StillImage"/>
    <dc:date>2022-10-11T20:58:32.221721</dc:date>
    <dc:format>image/svg+xml</dc:format>
    <dc:creator>
     <cc:Agent>
      <dc:title>Matplotlib v3.3.2, https://matplotlib.org/</dc:title>
     </cc:Agent>
    </dc:creator>
   </cc:Work>
  </rdf:RDF>
 </metadata>
 <defs>
  <style type="text/css">*{stroke-linecap:butt;stroke-linejoin:round;}</style>
 </defs>
 <g id="figure_1">
  <g id="patch_1">
   <path d="M 0 720 
L 720 720 
L 720 0 
L 0 0 
z
" style="fill:none;"/>
  </g>
  <g id="axes_1">
   <g id="patch_2">
    <path d="M 90 630 
L 648 630 
L 648 86.4 
L 90 86.4 
z
" style="fill:#ffffff;"/>
   </g>
   <g id="matplotlib.axis_1">
    <g id="xtick_1">
     <g id="line2d_1">
      <path clip-path="url(#p424b7ce0d3)" d="M 115.363636 630 
L 115.363636 86.4 
" style="fill:none;stroke:#b0b0b0;stroke-linecap:square;stroke-width:0.8;"/>
     </g>
     <g id="line2d_2">
      <defs>
       <path d="M 0 0 
L 0 3.5 
" id="m9cfe1236f3" style="stroke:#000000;stroke-width:0.8;"/>
      </defs>
      <g>
       <use style="stroke:#000000;stroke-width:0.8;" x="115.363636" xlink:href="#m9cfe1236f3" y="630"/>
      </g>
     </g>
     <g id="text_1">
      <!-- 0 -->
      <g transform="translate(112.182386 644.598438)scale(0.1 -0.1)">
       <defs>
        <path d="M 31.78125 66.40625 
Q 24.171875 66.40625 20.328125 58.90625 
Q 16.5 51.421875 16.5 36.375 
Q 16.5 21.390625 20.328125 13.890625 
Q 24.171875 6.390625 31.78125 6.390625 
Q 39.453125 6.390625 43.28125 13.890625 
Q 47.125 21.390625 47.125 36.375 
Q 47.125 51.421875 43.28125 58.90625 
Q 39.453125 66.40625 31.78125 66.40625 
z
M 31.78125 74.21875 
Q 44.046875 74.21875 50.515625 64.515625 
Q 56.984375 54.828125 56.984375 36.375 
Q 56.984375 17.96875 50.515625 8.265625 
Q 44.046875 -1.421875 31.78125 -1.421875 
Q 19.53125 -1.421875 13.0625 8.265625 
Q 6.59375 17.96875 6.59375 36.375 
Q 6.59375 54.828125 13.0625 64.515625 
Q 19.53125 74.21875 31.78125 74.21875 
z
" id="DejaVuSans-48"/>
       </defs>
       <use xlink:href="#DejaVuSans-48"/>
      </g>
     </g>
    </g>
    <g id="xtick_2">
     <g id="line2d_3">
      <path clip-path="url(#p424b7ce0d3)" d="M 181.673797 630 
L 181.673797 86.4 
" style="fill:none;stroke:#b0b0b0;stroke-linecap:square;stroke-width:0.8;"/>
     </g>
     <g id="line2d_4">
      <g>
       <use style="stroke:#000000;stroke-width:0.8;" x="181.673797" xlink:href="#m9cfe1236f3" y="630"/>
      </g>
     </g>
     <g id="text_2">
      <!-- 20 -->
      <g transform="translate(175.311297 644.598438)scale(0.1 -0.1)">
       <defs>
        <path d="M 19.1875 8.296875 
L 53.609375 8.296875 
L 53.609375 0 
L 7.328125 0 
L 7.328125 8.296875 
Q 12.9375 14.109375 22.625 23.890625 
Q 32.328125 33.6875 34.8125 36.53125 
Q 39.546875 41.84375 41.421875 45.53125 
Q 43.3125 49.21875 43.3125 52.78125 
Q 43.3125 58.59375 39.234375 62.25 
Q 35.15625 65.921875 28.609375 65.921875 
Q 23.96875 65.921875 18.8125 64.3125 
Q 13.671875 62.703125 7.8125 59.421875 
L 7.8125 69.390625 
Q 13.765625 71.78125 18.9375 73 
Q 24.125 74.21875 28.421875 74.21875 
Q 39.75 74.21875 46.484375 68.546875 
Q 53.21875 62.890625 53.21875 53.421875 
Q 53.21875 48.921875 51.53125 44.890625 
Q 49.859375 40.875 45.40625 35.40625 
Q 44.1875 33.984375 37.640625 27.21875 
Q 31.109375 20.453125 19.1875 8.296875 
z
" id="DejaVuSans-50"/>
       </defs>
       <use xlink:href="#DejaVuSans-50"/>
       <use x="63.623047" xlink:href="#DejaVuSans-48"/>
      </g>
     </g>
    </g>
    <g id="xtick_3">
     <g id="line2d_5">
      <path clip-path="url(#p424b7ce0d3)" d="M 247.983957 630 
L 247.983957 86.4 
" style="fill:none;stroke:#b0b0b0;stroke-linecap:square;stroke-width:0.8;"/>
     </g>
     <g id="line2d_6">
      <g>
       <use style="stroke:#000000;stroke-width:0.8;" x="247.983957" xlink:href="#m9cfe1236f3" y="630"/>
      </g>
     </g>
     <g id="text_3">
      <!-- 40 -->
      <g transform="translate(241.621457 644.598438)scale(0.1 -0.1)">
       <defs>
        <path d="M 37.796875 64.3125 
L 12.890625 25.390625 
L 37.796875 25.390625 
z
M 35.203125 72.90625 
L 47.609375 72.90625 
L 47.609375 25.390625 
L 58.015625 25.390625 
L 58.015625 17.1875 
L 47.609375 17.1875 
L 47.609375 0 
L 37.796875 0 
L 37.796875 17.1875 
L 4.890625 17.1875 
L 4.890625 26.703125 
z
" id="DejaVuSans-52"/>
       </defs>
       <use xlink:href="#DejaVuSans-52"/>
       <use x="63.623047" xlink:href="#DejaVuSans-48"/>
      </g>
     </g>
    </g>
    <g id="xtick_4">
     <g id="line2d_7">
      <path clip-path="url(#p424b7ce0d3)" d="M 314.294118 630 
L 314.294118 86.4 
" style="fill:none;stroke:#b0b0b0;stroke-linecap:square;stroke-width:0.8;"/>
     </g>
     <g id="line2d_8">
      <g>
       <use style="stroke:#000000;stroke-width:0.8;" x="314.294118" xlink:href="#m9cfe1236f3" y="630"/>
      </g>
     </g>
     <g id="text_4">
      <!-- 60 -->
      <g transform="translate(307.931618 644.598438)scale(0.1 -0.1)">
       <defs>
        <path d="M 33.015625 40.375 
Q 26.375 40.375 22.484375 35.828125 
Q 18.609375 31.296875 18.609375 23.390625 
Q 18.609375 15.53125 22.484375 10.953125 
Q 26.375 6.390625 33.015625 6.390625 
Q 39.65625 6.390625 43.53125 10.953125 
Q 47.40625 15.53125 47.40625 23.390625 
Q 47.40625 31.296875 43.53125 35.828125 
Q 39.65625 40.375 33.015625 40.375 
z
M 52.59375 71.296875 
L 52.59375 62.3125 
Q 48.875 64.0625 45.09375 64.984375 
Q 41.3125 65.921875 37.59375 65.921875 
Q 27.828125 65.921875 22.671875 59.328125 
Q 17.53125 52.734375 16.796875 39.40625 
Q 19.671875 43.65625 24.015625 45.921875 
Q 28.375 48.1875 33.59375 48.1875 
Q 44.578125 48.1875 50.953125 41.515625 
Q 57.328125 34.859375 57.328125 23.390625 
Q 57.328125 12.15625 50.6875 5.359375 
Q 44.046875 -1.421875 33.015625 -1.421875 
Q 20.359375 -1.421875 13.671875 8.265625 
Q 6.984375 17.96875 6.984375 36.375 
Q 6.984375 53.65625 15.1875 63.9375 
Q 23.390625 74.21875 37.203125 74.21875 
Q 40.921875 74.21875 44.703125 73.484375 
Q 48.484375 72.75 52.59375 71.296875 
z
" id="DejaVuSans-54"/>
       </defs>
       <use xlink:href="#DejaVuSans-54"/>
       <use x="63.623047" xlink:href="#DejaVuSans-48"/>
      </g>
     </g>
    </g>
    <g id="xtick_5">
     <g id="line2d_9">
      <path clip-path="url(#p424b7ce0d3)" d="M 380.604278 630 
L 380.604278 86.4 
" style="fill:none;stroke:#b0b0b0;stroke-linecap:square;stroke-width:0.8;"/>
     </g>
     <g id="line2d_10">
      <g>
       <use style="stroke:#000000;stroke-width:0.8;" x="380.604278" xlink:href="#m9cfe1236f3" y="630"/>
      </g>
     </g>
     <g id="text_5">
      <!-- 80 -->
      <g transform="translate(374.241778 644.598438)scale(0.1 -0.1)">
       <defs>
        <path d="M 31.78125 34.625 
Q 24.75 34.625 20.71875 30.859375 
Q 16.703125 27.09375 16.703125 20.515625 
Q 16.703125 13.921875 20.71875 10.15625 
Q 24.75 6.390625 31.78125 6.390625 
Q 38.8125 6.390625 42.859375 10.171875 
Q 46.921875 13.96875 46.921875 20.515625 
Q 46.921875 27.09375 42.890625 30.859375 
Q 38.875 34.625 31.78125 34.625 
z
M 21.921875 38.8125 
Q 15.578125 40.375 12.03125 44.71875 
Q 8.5 49.078125 8.5 55.328125 
Q 8.5 64.0625 14.71875 69.140625 
Q 20.953125 74.21875 31.78125 74.21875 
Q 42.671875 74.21875 48.875 69.140625 
Q 55.078125 64.0625 55.078125 55.328125 
Q 55.078125 49.078125 51.53125 44.71875 
Q 48 40.375 41.703125 38.8125 
Q 48.828125 37.15625 52.796875 32.3125 
Q 56.78125 27.484375 56.78125 20.515625 
Q 56.78125 9.90625 50.3125 4.234375 
Q 43.84375 -1.421875 31.78125 -1.421875 
Q 19.734375 -1.421875 13.25 4.234375 
Q 6.78125 9.90625 6.78125 20.515625 
Q 6.78125 27.484375 10.78125 32.3125 
Q 14.796875 37.15625 21.921875 38.8125 
z
M 18.3125 54.390625 
Q 18.3125 48.734375 21.84375 45.5625 
Q 25.390625 42.390625 31.78125 42.390625 
Q 38.140625 42.390625 41.71875 45.5625 
Q 45.3125 48.734375 45.3125 54.390625 
Q 45.3125 60.0625 41.71875 63.234375 
Q 38.140625 66.40625 31.78125 66.40625 
Q 25.390625 66.40625 21.84375 63.234375 
Q 18.3125 60.0625 18.3125 54.390625 
z
" id="DejaVuSans-56"/>
       </defs>
       <use xlink:href="#DejaVuSans-56"/>
       <use x="63.623047" xlink:href="#DejaVuSans-48"/>
      </g>
     </g>
    </g>
    <g id="xtick_6">
     <g id="line2d_11">
      <path clip-path="url(#p424b7ce0d3)" d="M 446.914439 630 
L 446.914439 86.4 
" style="fill:none;stroke:#b0b0b0;stroke-linecap:square;stroke-width:0.8;"/>
     </g>
     <g id="line2d_12">
      <g>
       <use style="stroke:#000000;stroke-width:0.8;" x="446.914439" xlink:href="#m9cfe1236f3" y="630"/>
      </g>
     </g>
     <g id="text_6">
      <!-- 100 -->
      <g transform="translate(437.370689 644.598438)scale(0.1 -0.1)">
       <defs>
        <path d="M 12.40625 8.296875 
L 28.515625 8.296875 
L 28.515625 63.921875 
L 10.984375 60.40625 
L 10.984375 69.390625 
L 28.421875 72.90625 
L 38.28125 72.90625 
L 38.28125 8.296875 
L 54.390625 8.296875 
L 54.390625 0 
L 12.40625 0 
z
" id="DejaVuSans-49"/>
       </defs>
       <use xlink:href="#DejaVuSans-49"/>
       <use x="63.623047" xlink:href="#DejaVuSans-48"/>
       <use x="127.246094" xlink:href="#DejaVuSans-48"/>
      </g>
     </g>
    </g>
    <g id="xtick_7">
     <g id="line2d_13">
      <path clip-path="url(#p424b7ce0d3)" d="M 513.224599 630 
L 513.224599 86.4 
" style="fill:none;stroke:#b0b0b0;stroke-linecap:square;stroke-width:0.8;"/>
     </g>
     <g id="line2d_14">
      <g>
       <use style="stroke:#000000;stroke-width:0.8;" x="513.224599" xlink:href="#m9cfe1236f3" y="630"/>
      </g>
     </g>
     <g id="text_7">
      <!-- 120 -->
      <g transform="translate(503.680849 644.598438)scale(0.1 -0.1)">
       <use xlink:href="#DejaVuSans-49"/>
       <use x="63.623047" xlink:href="#DejaVuSans-50"/>
       <use x="127.246094" xlink:href="#DejaVuSans-48"/>
      </g>
     </g>
    </g>
    <g id="xtick_8">
     <g id="line2d_15">
      <path clip-path="url(#p424b7ce0d3)" d="M 579.534759 630 
L 579.534759 86.4 
" style="fill:none;stroke:#b0b0b0;stroke-linecap:square;stroke-width:0.8;"/>
     </g>
     <g id="line2d_16">
      <g>
       <use style="stroke:#000000;stroke-width:0.8;" x="579.534759" xlink:href="#m9cfe1236f3" y="630"/>
      </g>
     </g>
     <g id="text_8">
      <!-- 140 -->
      <g transform="translate(569.991009 644.598438)scale(0.1 -0.1)">
       <use xlink:href="#DejaVuSans-49"/>
       <use x="63.623047" xlink:href="#DejaVuSans-52"/>
       <use x="127.246094" xlink:href="#DejaVuSans-48"/>
      </g>
     </g>
    </g>
    <g id="xtick_9">
     <g id="line2d_17">
      <path clip-path="url(#p424b7ce0d3)" d="M 645.84492 630 
L 645.84492 86.4 
" style="fill:none;stroke:#b0b0b0;stroke-linecap:square;stroke-width:0.8;"/>
     </g>
     <g id="line2d_18">
      <g>
       <use style="stroke:#000000;stroke-width:0.8;" x="645.84492" xlink:href="#m9cfe1236f3" y="630"/>
      </g>
     </g>
     <g id="text_9">
      <!-- 160 -->
      <g transform="translate(636.30117 644.598438)scale(0.1 -0.1)">
       <use xlink:href="#DejaVuSans-49"/>
       <use x="63.623047" xlink:href="#DejaVuSans-54"/>
       <use x="127.246094" xlink:href="#DejaVuSans-48"/>
      </g>
     </g>
    </g>
    <g id="text_10">
     <!-- Days -->
     <g transform="translate(356.521875 658.276562)scale(0.1 -0.1)">
      <defs>
       <path d="M 19.671875 64.796875 
L 19.671875 8.109375 
L 31.59375 8.109375 
Q 46.6875 8.109375 53.6875 14.9375 
Q 60.6875 21.78125 60.6875 36.53125 
Q 60.6875 51.171875 53.6875 57.984375 
Q 46.6875 64.796875 31.59375 64.796875 
z
M 9.8125 72.90625 
L 30.078125 72.90625 
Q 51.265625 72.90625 61.171875 64.09375 
Q 71.09375 55.28125 71.09375 36.53125 
Q 71.09375 17.671875 61.125 8.828125 
Q 51.171875 0 30.078125 0 
L 9.8125 0 
z
" id="DejaVuSans-68"/>
       <path d="M 34.28125 27.484375 
Q 23.390625 27.484375 19.1875 25 
Q 14.984375 22.515625 14.984375 16.5 
Q 14.984375 11.71875 18.140625 8.90625 
Q 21.296875 6.109375 26.703125 6.109375 
Q 34.1875 6.109375 38.703125 11.40625 
Q 43.21875 16.703125 43.21875 25.484375 
L 43.21875 27.484375 
z
M 52.203125 31.203125 
L 52.203125 0 
L 43.21875 0 
L 43.21875 8.296875 
Q 40.140625 3.328125 35.546875 0.953125 
Q 30.953125 -1.421875 24.3125 -1.421875 
Q 15.921875 -1.421875 10.953125 3.296875 
Q 6 8.015625 6 15.921875 
Q 6 25.140625 12.171875 29.828125 
Q 18.359375 34.515625 30.609375 34.515625 
L 43.21875 34.515625 
L 43.21875 35.40625 
Q 43.21875 41.609375 39.140625 45 
Q 35.0625 48.390625 27.6875 48.390625 
Q 23 48.390625 18.546875 47.265625 
Q 14.109375 46.140625 10.015625 43.890625 
L 10.015625 52.203125 
Q 14.9375 54.109375 19.578125 55.046875 
Q 24.21875 56 28.609375 56 
Q 40.484375 56 46.34375 49.84375 
Q 52.203125 43.703125 52.203125 31.203125 
z
" id="DejaVuSans-97"/>
       <path d="M 32.171875 -5.078125 
Q 28.375 -14.84375 24.75 -17.8125 
Q 21.140625 -20.796875 15.09375 -20.796875 
L 7.90625 -20.796875 
L 7.90625 -13.28125 
L 13.1875 -13.28125 
Q 16.890625 -13.28125 18.9375 -11.515625 
Q 21 -9.765625 23.484375 -3.21875 
L 25.09375 0.875 
L 2.984375 54.6875 
L 12.5 54.6875 
L 29.59375 11.921875 
L 46.6875 54.6875 
L 56.203125 54.6875 
z
" id="DejaVuSans-121"/>
       <path d="M 44.28125 53.078125 
L 44.28125 44.578125 
Q 40.484375 46.53125 36.375 47.5 
Q 32.28125 48.484375 27.875 48.484375 
Q 21.1875 48.484375 17.84375 46.4375 
Q 14.5 44.390625 14.5 40.28125 
Q 14.5 37.15625 16.890625 35.375 
Q 19.28125 33.59375 26.515625 31.984375 
L 29.59375 31.296875 
Q 39.15625 29.25 43.1875 25.515625 
Q 47.21875 21.78125 47.21875 15.09375 
Q 47.21875 7.46875 41.1875 3.015625 
Q 35.15625 -1.421875 24.609375 -1.421875 
Q 20.21875 -1.421875 15.453125 -0.5625 
Q 10.6875 0.296875 5.421875 2 
L 5.421875 11.28125 
Q 10.40625 8.6875 15.234375 7.390625 
Q 20.0625 6.109375 24.8125 6.109375 
Q 31.15625 6.109375 34.5625 8.28125 
Q 37.984375 10.453125 37.984375 14.40625 
Q 37.984375 18.0625 35.515625 20.015625 
Q 33.0625 21.96875 24.703125 23.78125 
L 21.578125 24.515625 
Q 13.234375 26.265625 9.515625 29.90625 
Q 5.8125 33.546875 5.8125 39.890625 
Q 5.8125 47.609375 11.28125 51.796875 
Q 16.75 56 26.8125 56 
Q 31.78125 56 36.171875 55.265625 
Q 40.578125 54.546875 44.28125 53.078125 
z
" id="DejaVuSans-115"/>
      </defs>
      <use xlink:href="#DejaVuSans-68"/>
      <use x="77.001953" xlink:href="#DejaVuSans-97"/>
      <use x="138.28125" xlink:href="#DejaVuSans-121"/>
      <use x="197.460938" xlink:href="#DejaVuSans-115"/>
     </g>
    </g>
   </g>
   <g id="matplotlib.axis_2">
    <g id="ytick_1">
     <g id="line2d_19">
      <path clip-path="url(#p424b7ce0d3)" d="M 90 605.480084 
L 648 605.480084 
" style="fill:none;stroke:#b0b0b0;stroke-linecap:square;stroke-width:0.8;"/>
     </g>
     <g id="line2d_20">
      <defs>
       <path d="M 0 0 
L -3.5 0 
" id="m86c83f859a" style="stroke:#000000;stroke-width:0.8;"/>
      </defs>
      <g>
       <use style="stroke:#000000;stroke-width:0.8;" x="90" xlink:href="#m86c83f859a" y="605.480084"/>
      </g>
     </g>
     <g id="text_11">
      <!-- 0 -->
      <g transform="translate(76.6375 609.279302)scale(0.1 -0.1)">
       <use xlink:href="#DejaVuSans-48"/>
      </g>
     </g>
    </g>
    <g id="ytick_2">
     <g id="line2d_21">
      <path clip-path="url(#p424b7ce0d3)" d="M 90 535.415439 
L 648 535.415439 
" style="fill:none;stroke:#b0b0b0;stroke-linecap:square;stroke-width:0.8;"/>
     </g>
     <g id="line2d_22">
      <g>
       <use style="stroke:#000000;stroke-width:0.8;" x="90" xlink:href="#m86c83f859a" y="535.415439"/>
      </g>
     </g>
     <g id="text_12">
      <!-- 10000 -->
      <g transform="translate(51.1875 539.214658)scale(0.1 -0.1)">
       <use xlink:href="#DejaVuSans-49"/>
       <use x="63.623047" xlink:href="#DejaVuSans-48"/>
       <use x="127.246094" xlink:href="#DejaVuSans-48"/>
       <use x="190.869141" xlink:href="#DejaVuSans-48"/>
       <use x="254.492188" xlink:href="#DejaVuSans-48"/>
      </g>
     </g>
    </g>
    <g id="ytick_3">
     <g id="line2d_23">
      <path clip-path="url(#p424b7ce0d3)" d="M 90 465.350794 
L 648 465.350794 
" style="fill:none;stroke:#b0b0b0;stroke-linecap:square;stroke-width:0.8;"/>
     </g>
     <g id="line2d_24">
      <g>
       <use style="stroke:#000000;stroke-width:0.8;" x="90" xlink:href="#m86c83f859a" y="465.350794"/>
      </g>
     </g>
     <g id="text_13">
      <!-- 20000 -->
      <g transform="translate(51.1875 469.150013)scale(0.1 -0.1)">
       <use xlink:href="#DejaVuSans-50"/>
       <use x="63.623047" xlink:href="#DejaVuSans-48"/>
       <use x="127.246094" xlink:href="#DejaVuSans-48"/>
       <use x="190.869141" xlink:href="#DejaVuSans-48"/>
       <use x="254.492188" xlink:href="#DejaVuSans-48"/>
      </g>
     </g>
    </g>
    <g id="ytick_4">
     <g id="line2d_25">
      <path clip-path="url(#p424b7ce0d3)" d="M 90 395.28615 
L 648 395.28615 
" style="fill:none;stroke:#b0b0b0;stroke-linecap:square;stroke-width:0.8;"/>
     </g>
     <g id="line2d_26">
      <g>
       <use style="stroke:#000000;stroke-width:0.8;" x="90" xlink:href="#m86c83f859a" y="395.28615"/>
      </g>
     </g>
     <g id="text_14">
      <!-- 30000 -->
      <g transform="translate(51.1875 399.085369)scale(0.1 -0.1)">
       <defs>
        <path d="M 40.578125 39.3125 
Q 47.65625 37.796875 51.625 33 
Q 55.609375 28.21875 55.609375 21.1875 
Q 55.609375 10.40625 48.1875 4.484375 
Q 40.765625 -1.421875 27.09375 -1.421875 
Q 22.515625 -1.421875 17.65625 -0.515625 
Q 12.796875 0.390625 7.625 2.203125 
L 7.625 11.71875 
Q 11.71875 9.328125 16.59375 8.109375 
Q 21.484375 6.890625 26.8125 6.890625 
Q 36.078125 6.890625 40.9375 10.546875 
Q 45.796875 14.203125 45.796875 21.1875 
Q 45.796875 27.640625 41.28125 31.265625 
Q 36.765625 34.90625 28.71875 34.90625 
L 20.21875 34.90625 
L 20.21875 43.015625 
L 29.109375 43.015625 
Q 36.375 43.015625 40.234375 45.921875 
Q 44.09375 48.828125 44.09375 54.296875 
Q 44.09375 59.90625 40.109375 62.90625 
Q 36.140625 65.921875 28.71875 65.921875 
Q 24.65625 65.921875 20.015625 65.03125 
Q 15.375 64.15625 9.8125 62.3125 
L 9.8125 71.09375 
Q 15.4375 72.65625 20.34375 73.4375 
Q 25.25 74.21875 29.59375 74.21875 
Q 40.828125 74.21875 47.359375 69.109375 
Q 53.90625 64.015625 53.90625 55.328125 
Q 53.90625 49.265625 50.4375 45.09375 
Q 46.96875 40.921875 40.578125 39.3125 
z
" id="DejaVuSans-51"/>
       </defs>
       <use xlink:href="#DejaVuSans-51"/>
       <use x="63.623047" xlink:href="#DejaVuSans-48"/>
       <use x="127.246094" xlink:href="#DejaVuSans-48"/>
       <use x="190.869141" xlink:href="#DejaVuSans-48"/>
       <use x="254.492188" xlink:href="#DejaVuSans-48"/>
      </g>
     </g>
    </g>
    <g id="ytick_5">
     <g id="line2d_27">
      <path clip-path="url(#p424b7ce0d3)" d="M 90 325.221505 
L 648 325.221505 
" style="fill:none;stroke:#b0b0b0;stroke-linecap:square;stroke-width:0.8;"/>
     </g>
     <g id="line2d_28">
      <g>
       <use style="stroke:#000000;stroke-width:0.8;" x="90" xlink:href="#m86c83f859a" y="325.221505"/>
      </g>
     </g>
     <g id="text_15">
      <!-- 40000 -->
      <g transform="translate(51.1875 329.020724)scale(0.1 -0.1)">
       <use xlink:href="#DejaVuSans-52"/>
       <use x="63.623047" xlink:href="#DejaVuSans-48"/>
       <use x="127.246094" xlink:href="#DejaVuSans-48"/>
       <use x="190.869141" xlink:href="#DejaVuSans-48"/>
       <use x="254.492188" xlink:href="#DejaVuSans-48"/>
      </g>
     </g>
    </g>
    <g id="ytick_6">
     <g id="line2d_29">
      <path clip-path="url(#p424b7ce0d3)" d="M 90 255.156861 
L 648 255.156861 
" style="fill:none;stroke:#b0b0b0;stroke-linecap:square;stroke-width:0.8;"/>
     </g>
     <g id="line2d_30">
      <g>
       <use style="stroke:#000000;stroke-width:0.8;" x="90" xlink:href="#m86c83f859a" y="255.156861"/>
      </g>
     </g>
     <g id="text_16">
      <!-- 50000 -->
      <g transform="translate(51.1875 258.956079)scale(0.1 -0.1)">
       <defs>
        <path d="M 10.796875 72.90625 
L 49.515625 72.90625 
L 49.515625 64.59375 
L 19.828125 64.59375 
L 19.828125 46.734375 
Q 21.96875 47.46875 24.109375 47.828125 
Q 26.265625 48.1875 28.421875 48.1875 
Q 40.625 48.1875 47.75 41.5 
Q 54.890625 34.8125 54.890625 23.390625 
Q 54.890625 11.625 47.5625 5.09375 
Q 40.234375 -1.421875 26.90625 -1.421875 
Q 22.3125 -1.421875 17.546875 -0.640625 
Q 12.796875 0.140625 7.71875 1.703125 
L 7.71875 11.625 
Q 12.109375 9.234375 16.796875 8.0625 
Q 21.484375 6.890625 26.703125 6.890625 
Q 35.15625 6.890625 40.078125 11.328125 
Q 45.015625 15.765625 45.015625 23.390625 
Q 45.015625 31 40.078125 35.4375 
Q 35.15625 39.890625 26.703125 39.890625 
Q 22.75 39.890625 18.8125 39.015625 
Q 14.890625 38.140625 10.796875 36.28125 
z
" id="DejaVuSans-53"/>
       </defs>
       <use xlink:href="#DejaVuSans-53"/>
       <use x="63.623047" xlink:href="#DejaVuSans-48"/>
       <use x="127.246094" xlink:href="#DejaVuSans-48"/>
       <use x="190.869141" xlink:href="#DejaVuSans-48"/>
       <use x="254.492188" xlink:href="#DejaVuSans-48"/>
      </g>
     </g>
    </g>
    <g id="ytick_7">
     <g id="line2d_31">
      <path clip-path="url(#p424b7ce0d3)" d="M 90 185.092216 
L 648 185.092216 
" style="fill:none;stroke:#b0b0b0;stroke-linecap:square;stroke-width:0.8;"/>
     </g>
     <g id="line2d_32">
      <g>
       <use style="stroke:#000000;stroke-width:0.8;" x="90" xlink:href="#m86c83f859a" y="185.092216"/>
      </g>
     </g>
     <g id="text_17">
      <!-- 60000 -->
      <g transform="translate(51.1875 188.891435)scale(0.1 -0.1)">
       <use xlink:href="#DejaVuSans-54"/>
       <use x="63.623047" xlink:href="#DejaVuSans-48"/>
       <use x="127.246094" xlink:href="#DejaVuSans-48"/>
       <use x="190.869141" xlink:href="#DejaVuSans-48"/>
       <use x="254.492188" xlink:href="#DejaVuSans-48"/>
      </g>
     </g>
    </g>
    <g id="ytick_8">
     <g id="line2d_33">
      <path clip-path="url(#p424b7ce0d3)" d="M 90 115.027572 
L 648 115.027572 
" style="fill:none;stroke:#b0b0b0;stroke-linecap:square;stroke-width:0.8;"/>
     </g>
     <g id="line2d_34">
      <g>
       <use style="stroke:#000000;stroke-width:0.8;" x="90" xlink:href="#m86c83f859a" y="115.027572"/>
      </g>
     </g>
     <g id="text_18">
      <!-- 70000 -->
      <g transform="translate(51.1875 118.82679)scale(0.1 -0.1)">
       <defs>
        <path d="M 8.203125 72.90625 
L 55.078125 72.90625 
L 55.078125 68.703125 
L 28.609375 0 
L 18.3125 0 
L 43.21875 64.59375 
L 8.203125 64.59375 
z
" id="DejaVuSans-55"/>
       </defs>
       <use xlink:href="#DejaVuSans-55"/>
       <use x="63.623047" xlink:href="#DejaVuSans-48"/>
       <use x="127.246094" xlink:href="#DejaVuSans-48"/>
       <use x="190.869141" xlink:href="#DejaVuSans-48"/>
       <use x="254.492188" xlink:href="#DejaVuSans-48"/>
      </g>
     </g>
    </g>
    <g id="text_19">
     <!-- Cumulative cases -->
     <g transform="translate(45.107812 402.425781)rotate(-90)scale(0.1 -0.1)">
      <defs>
       <path d="M 64.40625 67.28125 
L 64.40625 56.890625 
Q 59.421875 61.53125 53.78125 63.8125 
Q 48.140625 66.109375 41.796875 66.109375 
Q 29.296875 66.109375 22.65625 58.46875 
Q 16.015625 50.828125 16.015625 36.375 
Q 16.015625 21.96875 22.65625 14.328125 
Q 29.296875 6.6875 41.796875 6.6875 
Q 48.140625 6.6875 53.78125 8.984375 
Q 59.421875 11.28125 64.40625 15.921875 
L 64.40625 5.609375 
Q 59.234375 2.09375 53.4375 0.328125 
Q 47.65625 -1.421875 41.21875 -1.421875 
Q 24.65625 -1.421875 15.125 8.703125 
Q 5.609375 18.84375 5.609375 36.375 
Q 5.609375 53.953125 15.125 64.078125 
Q 24.65625 74.21875 41.21875 74.21875 
Q 47.75 74.21875 53.53125 72.484375 
Q 59.328125 70.75 64.40625 67.28125 
z
" id="DejaVuSans-67"/>
       <path d="M 8.5 21.578125 
L 8.5 54.6875 
L 17.484375 54.6875 
L 17.484375 21.921875 
Q 17.484375 14.15625 20.5 10.265625 
Q 23.53125 6.390625 29.59375 6.390625 
Q 36.859375 6.390625 41.078125 11.03125 
Q 45.3125 15.671875 45.3125 23.6875 
L 45.3125 54.6875 
L 54.296875 54.6875 
L 54.296875 0 
L 45.3125 0 
L 45.3125 8.40625 
Q 42.046875 3.421875 37.71875 1 
Q 33.40625 -1.421875 27.6875 -1.421875 
Q 18.265625 -1.421875 13.375 4.4375 
Q 8.5 10.296875 8.5 21.578125 
z
M 31.109375 56 
z
" id="DejaVuSans-117"/>
       <path d="M 52 44.1875 
Q 55.375 50.25 60.0625 53.125 
Q 64.75 56 71.09375 56 
Q 79.640625 56 84.28125 50.015625 
Q 88.921875 44.046875 88.921875 33.015625 
L 88.921875 0 
L 79.890625 0 
L 79.890625 32.71875 
Q 79.890625 40.578125 77.09375 44.375 
Q 74.3125 48.1875 68.609375 48.1875 
Q 61.625 48.1875 57.5625 43.546875 
Q 53.515625 38.921875 53.515625 30.90625 
L 53.515625 0 
L 44.484375 0 
L 44.484375 32.71875 
Q 44.484375 40.625 41.703125 44.40625 
Q 38.921875 48.1875 33.109375 48.1875 
Q 26.21875 48.1875 22.15625 43.53125 
Q 18.109375 38.875 18.109375 30.90625 
L 18.109375 0 
L 9.078125 0 
L 9.078125 54.6875 
L 18.109375 54.6875 
L 18.109375 46.1875 
Q 21.1875 51.21875 25.484375 53.609375 
Q 29.78125 56 35.6875 56 
Q 41.65625 56 45.828125 52.96875 
Q 50 49.953125 52 44.1875 
z
" id="DejaVuSans-109"/>
       <path d="M 9.421875 75.984375 
L 18.40625 75.984375 
L 18.40625 0 
L 9.421875 0 
z
" id="DejaVuSans-108"/>
       <path d="M 18.3125 70.21875 
L 18.3125 54.6875 
L 36.8125 54.6875 
L 36.8125 47.703125 
L 18.3125 47.703125 
L 18.3125 18.015625 
Q 18.3125 11.328125 20.140625 9.421875 
Q 21.96875 7.515625 27.59375 7.515625 
L 36.8125 7.515625 
L 36.8125 0 
L 27.59375 0 
Q 17.1875 0 13.234375 3.875 
Q 9.28125 7.765625 9.28125 18.015625 
L 9.28125 47.703125 
L 2.6875 47.703125 
L 2.6875 54.6875 
L 9.28125 54.6875 
L 9.28125 70.21875 
z
" id="DejaVuSans-116"/>
       <path d="M 9.421875 54.6875 
L 18.40625 54.6875 
L 18.40625 0 
L 9.421875 0 
z
M 9.421875 75.984375 
L 18.40625 75.984375 
L 18.40625 64.59375 
L 9.421875 64.59375 
z
" id="DejaVuSans-105"/>
       <path d="M 2.984375 54.6875 
L 12.5 54.6875 
L 29.59375 8.796875 
L 46.6875 54.6875 
L 56.203125 54.6875 
L 35.6875 0 
L 23.484375 0 
z
" id="DejaVuSans-118"/>
       <path d="M 56.203125 29.59375 
L 56.203125 25.203125 
L 14.890625 25.203125 
Q 15.484375 15.921875 20.484375 11.0625 
Q 25.484375 6.203125 34.421875 6.203125 
Q 39.59375 6.203125 44.453125 7.46875 
Q 49.3125 8.734375 54.109375 11.28125 
L 54.109375 2.78125 
Q 49.265625 0.734375 44.1875 -0.34375 
Q 39.109375 -1.421875 33.890625 -1.421875 
Q 20.796875 -1.421875 13.15625 6.1875 
Q 5.515625 13.8125 5.515625 26.8125 
Q 5.515625 40.234375 12.765625 48.109375 
Q 20.015625 56 32.328125 56 
Q 43.359375 56 49.78125 48.890625 
Q 56.203125 41.796875 56.203125 29.59375 
z
M 47.21875 32.234375 
Q 47.125 39.59375 43.09375 43.984375 
Q 39.0625 48.390625 32.421875 48.390625 
Q 24.90625 48.390625 20.390625 44.140625 
Q 15.875 39.890625 15.1875 32.171875 
z
" id="DejaVuSans-101"/>
       <path id="DejaVuSans-32"/>
       <path d="M 48.78125 52.59375 
L 48.78125 44.1875 
Q 44.96875 46.296875 41.140625 47.34375 
Q 37.3125 48.390625 33.40625 48.390625 
Q 24.65625 48.390625 19.8125 42.84375 
Q 14.984375 37.3125 14.984375 27.296875 
Q 14.984375 17.28125 19.8125 11.734375 
Q 24.65625 6.203125 33.40625 6.203125 
Q 37.3125 6.203125 41.140625 7.25 
Q 44.96875 8.296875 48.78125 10.40625 
L 48.78125 2.09375 
Q 45.015625 0.34375 40.984375 -0.53125 
Q 36.96875 -1.421875 32.421875 -1.421875 
Q 20.0625 -1.421875 12.78125 6.34375 
Q 5.515625 14.109375 5.515625 27.296875 
Q 5.515625 40.671875 12.859375 48.328125 
Q 20.21875 56 33.015625 56 
Q 37.15625 56 41.109375 55.140625 
Q 45.0625 54.296875 48.78125 52.59375 
z
" id="DejaVuSans-99"/>
      </defs>
      <use xlink:href="#DejaVuSans-67"/>
      <use x="69.824219" xlink:href="#DejaVuSans-117"/>
      <use x="133.203125" xlink:href="#DejaVuSans-109"/>
      <use x="230.615234" xlink:href="#DejaVuSans-117"/>
      <use x="293.994141" xlink:href="#DejaVuSans-108"/>
      <use x="321.777344" xlink:href="#DejaVuSans-97"/>
      <use x="383.056641" xlink:href="#DejaVuSans-116"/>
      <use x="422.265625" xlink:href="#DejaVuSans-105"/>
      <use x="450.048828" xlink:href="#DejaVuSans-118"/>
      <use x="509.228516" xlink:href="#DejaVuSans-101"/>
      <use x="570.751953" xlink:href="#DejaVuSans-32"/>
      <use x="602.539062" xlink:href="#DejaVuSans-99"/>
      <use x="657.519531" xlink:href="#DejaVuSans-97"/>
      <use x="718.798828" xlink:href="#DejaVuSans-115"/>
      <use x="770.898438" xlink:href="#DejaVuSans-101"/>
      <use x="832.421875" xlink:href="#DejaVuSans-115"/>
     </g>
    </g>
   </g>
   <g id="line2d_35">
    <path clip-path="url(#p424b7ce0d3)" d="M 115.363636 605.290909 
L 141.887701 605.006528 
L 158.465241 604.640132 
L 171.727273 604.152169 
L 181.673797 603.608614 
L 191.620321 602.843885 
L 198.251337 602.168682 
L 204.882353 601.322164 
L 211.513369 600.261799 
L 218.144385 598.935026 
L 224.775401 597.277201 
L 231.406417 595.209283 
L 234.721925 593.992295 
L 238.037433 592.635363 
L 241.352941 591.123452 
L 244.668449 589.440176 
L 247.983957 587.567741 
L 251.299465 585.486901 
L 254.614973 583.176943 
L 257.930481 580.615694 
L 261.245989 577.779568 
L 264.561497 574.643659 
L 267.877005 571.181885 
L 271.192513 567.367203 
L 274.508021 563.171902 
L 277.823529 558.567979 
L 281.139037 553.527618 
L 284.454545 548.023771 
L 287.770053 542.030854 
L 291.085561 535.525539 
L 294.40107 528.487661 
L 297.716578 520.901194 
L 301.032086 512.75529 
L 304.347594 504.045337 
L 307.663102 494.773979 
L 310.97861 484.952058 
L 314.294118 474.599391 
L 317.609626 463.745327 
L 320.925134 452.429013 
L 327.55615 428.614327 
L 334.187166 403.651435 
L 350.764706 340.319655 
L 357.395722 316.309571 
L 360.71123 304.87105 
L 364.026738 293.881939 
L 367.342246 283.384156 
L 370.657754 273.409809 
L 373.973262 263.981362 
L 377.28877 255.112123 
L 380.604278 246.806965 
L 383.919786 239.063225 
L 387.235294 231.871711 
L 390.550802 225.217754 
L 393.86631 219.082256 
L 397.181818 213.442687 
L 400.497326 208.274017 
L 403.812834 203.549535 
L 407.128342 199.24158 
L 410.44385 195.322148 
L 413.759358 191.763403 
L 417.074866 188.53808 
L 420.390374 185.619802 
L 423.705882 182.983311 
L 427.02139 180.604636 
L 430.336898 178.461201 
L 433.652406 176.531876 
L 436.967914 174.797001 
L 440.283422 173.238376 
L 443.59893 171.839222 
L 446.914439 170.584127 
L 453.545455 168.45094 
L 460.176471 166.740317 
L 466.807487 165.370988 
L 473.438503 164.276419 
L 480.069519 163.402471 
L 486.700535 162.705311 
L 496.647059 161.91563 
L 506.593583 161.354284 
L 519.855615 160.850312 
L 536.433155 160.471871 
L 559.641711 160.201883 
L 596.112299 160.044747 
L 622.636364 160.007483 
L 622.636364 160.007483 
" style="fill:none;stroke:#1f77b4;stroke-linecap:square;stroke-width:1.5;"/>
   </g>
   <g id="line2d_36">
    <path clip-path="url(#p424b7ce0d3)" d="M 115.363636 605.290909 
L 125.31016 603.861542 
L 135.256684 602.158233 
L 141.887701 600.846181 
L 148.518717 599.373637 
L 155.149733 597.722187 
L 161.780749 595.871621 
L 168.411765 593.79985 
L 175.042781 591.482832 
L 181.673797 588.894536 
L 188.304813 586.006936 
L 194.935829 582.790068 
L 201.566845 579.21214 
L 208.197861 575.239734 
L 214.828877 570.838102 
L 221.459893 565.971575 
L 228.090909 560.604114 
L 234.721925 554.700001 
L 241.352941 548.224697 
L 247.983957 541.145864 
L 254.614973 533.434545 
L 261.245989 525.066496 
L 267.877005 516.023625 
L 274.508021 506.2955 
L 281.139037 495.880857 
L 287.770053 484.78901 
L 294.40107 473.041083 
L 301.032086 460.670937 
L 307.663102 447.72569 
L 314.294118 434.265732 
L 320.925134 420.364165 
L 330.871658 398.871638 
L 344.13369 369.53426 
L 360.71123 332.960172 
L 370.657754 311.696569 
L 377.28877 298.002292 
L 383.919786 284.787105 
L 390.550802 272.117966 
L 397.181818 260.048771 
L 403.812834 248.620084 
L 410.44385 237.859407 
L 417.074866 227.781921 
L 423.705882 218.391568 
L 430.336898 209.682391 
L 436.967914 201.640002 
L 443.59893 194.243096 
L 450.229947 187.464939 
L 456.860963 181.274752 
L 463.491979 175.638977 
L 470.122995 170.522379 
L 476.754011 165.888983 
L 483.385027 161.702857 
L 490.016043 157.928725 
L 496.647059 154.532448 
L 503.278075 151.481377 
L 509.909091 148.744602 
L 516.540107 146.2931 
L 523.171123 144.099824 
L 529.802139 142.139724 
L 536.433155 140.389725 
L 543.064171 138.828673 
L 549.695187 137.437254 
L 559.641711 135.630199 
L 569.588235 134.11315 
L 579.534759 132.841017 
L 589.481283 131.77528 
L 602.743316 130.619448 
L 616.005348 129.708644 
L 622.636364 129.328666 
L 622.636364 129.328666 
" style="fill:none;stroke:#ff7f0e;stroke-linecap:square;stroke-width:1.5;"/>
   </g>
   <g id="line2d_37">
    <path clip-path="url(#p424b7ce0d3)" d="M 115.363636 605.290909 
L 128.625668 604.760528 
L 141.887701 604.011377 
L 151.834225 603.253664 
L 161.780749 602.273755 
L 171.727273 601.008034 
L 178.358289 599.966357 
L 184.989305 598.733195 
L 191.620321 597.274825 
L 198.251337 595.552184 
L 204.882353 593.520253 
L 211.513369 591.12749 
L 218.144385 588.315328 
L 221.459893 586.731664 
L 224.775401 585.017844 
L 228.090909 583.164464 
L 231.406417 581.161669 
L 234.721925 578.99917 
L 238.037433 576.666281 
L 241.352941 574.151953 
L 244.668449 571.44483 
L 247.983957 568.533315 
L 251.299465 565.405653 
L 254.614973 562.05003 
L 257.930481 558.454686 
L 261.245989 554.608054 
L 264.561497 550.498911 
L 267.877005 546.116551 
L 271.192513 541.450976 
L 274.508021 536.493104 
L 277.823529 531.234987 
L 281.139037 525.670046 
L 284.454545 519.793312 
L 287.770053 513.601664 
L 291.085561 507.094062 
L 294.40107 500.271777 
L 297.716578 493.138587 
L 301.032086 485.700953 
L 304.347594 477.968157 
L 310.97861 461.668789 
L 317.609626 444.37318 
L 324.240642 426.258917 
L 330.871658 407.542567 
L 357.395722 331.728425 
L 364.026738 313.798312 
L 370.657754 296.705868 
L 377.28877 280.601053 
L 380.604278 272.954035 
L 383.919786 265.590594 
L 387.235294 258.517504 
L 390.550802 251.739133 
L 393.86631 245.257603 
L 397.181818 239.072976 
L 400.497326 233.18345 
L 403.812834 227.585561 
L 407.128342 222.274389 
L 410.44385 217.24376 
L 413.759358 212.48644 
L 417.074866 207.99432 
L 420.390374 203.758588 
L 423.705882 199.76989 
L 427.02139 196.018474 
L 430.336898 192.49432 
L 433.652406 189.18726 
L 436.967914 186.087072 
L 440.283422 183.183573 
L 443.59893 180.466696 
L 446.914439 177.926545 
L 450.229947 175.553456 
L 453.545455 173.338034 
L 456.860963 171.271185 
L 460.176471 169.344146 
L 466.807487 165.876188 
L 473.438503 162.871169 
L 480.069519 160.271969 
L 486.700535 158.027267 
L 493.331551 156.091301 
L 499.962567 154.423524 
L 506.593583 152.988203 
L 513.224599 151.753986 
L 519.855615 150.693468 
L 529.802139 149.377015 
L 539.748663 148.330628 
L 549.695187 147.499674 
L 562.957219 146.652327 
L 576.219251 146.030425 
L 592.796791 145.480762 
L 612.68984 145.049323 
L 622.636364 144.898344 
L 622.636364 144.898344 
" style="fill:none;stroke:#2ca02c;stroke-linecap:square;stroke-width:1.5;"/>
   </g>
   <g id="line2d_38">
    <path clip-path="url(#p424b7ce0d3)" d="M 115.363636 605.290909 
L 125.31016 604.669764 
L 131.941176 604.080158 
L 138.572193 603.330452 
L 145.203209 602.401712 
L 151.834225 601.273039 
L 158.465241 599.921447 
L 165.096257 598.321773 
L 171.727273 596.446606 
L 178.358289 594.26626 
L 184.989305 591.748815 
L 191.620321 588.860214 
L 198.251337 585.564468 
L 204.882353 581.823971 
L 211.513369 577.599946 
L 214.828877 575.294319 
L 218.144385 572.853056 
L 221.459893 570.27128 
L 224.775401 567.544188 
L 228.090909 564.667085 
L 231.406417 561.635424 
L 234.721925 558.444841 
L 238.037433 555.091207 
L 241.352941 551.570666 
L 244.668449 547.87969 
L 247.983957 544.015125 
L 251.299465 539.974246 
L 254.614973 535.754807 
L 261.245989 526.773975 
L 267.877005 517.066236 
L 274.508021 506.636099 
L 281.139037 495.500336 
L 287.770053 483.688997 
L 294.40107 471.245962 
L 301.032086 458.228937 
L 307.663102 444.7088 
L 314.294118 430.768295 
L 324.240642 409.274168 
L 357.395722 336.760672 
L 364.026738 322.851877 
L 370.657754 309.343849 
L 377.28877 296.303058 
L 383.919786 283.783848 
L 390.550802 271.828319 
L 397.181818 260.466673 
L 403.812834 249.717955 
L 410.44385 239.591057 
L 417.074866 230.085913 
L 423.705882 221.194778 
L 430.336898 212.903525 
L 436.967914 205.192902 
L 443.59893 198.039697 
L 450.229947 191.417794 
L 456.860963 185.299111 
L 463.491979 179.654389 
L 470.122995 174.453868 
L 476.754011 169.667832 
L 483.385027 165.267046 
L 490.016043 161.223096 
L 496.647059 157.508644 
L 503.278075 154.097604 
L 509.909091 150.965269 
L 516.540107 148.08838 
L 523.171123 145.445154 
L 529.802139 143.015289 
L 536.433155 140.779937 
L 543.064171 138.721664 
L 553.010695 135.931456 
L 562.957219 133.454907 
L 572.903743 131.249117 
L 582.850267 129.276616 
L 592.796791 127.504799 
L 606.058824 125.406235 
L 619.320856 123.557928 
L 622.636364 123.129304 
L 622.636364 123.129304 
" style="fill:none;stroke:#d62728;stroke-linecap:square;stroke-width:1.5;"/>
   </g>
   <g id="line2d_39">
    <path clip-path="url(#p424b7ce0d3)" d="M 115.363636 605.290909 
L 131.941176 605.140601 
L 148.518717 604.756926 
L 158.465241 604.351905 
L 168.411765 603.729805 
L 175.042781 603.140694 
L 181.673797 602.359836 
L 188.304813 601.327691 
L 194.935829 599.968352 
L 198.251337 599.137052 
L 201.566845 598.186586 
L 204.882353 597.101632 
L 208.197861 595.865437 
L 211.513369 594.45984 
L 214.828877 592.865356 
L 218.144385 591.061337 
L 221.459893 589.026208 
L 224.775401 586.737812 
L 228.090909 584.173856 
L 231.406417 581.312474 
L 234.721925 578.132886 
L 238.037433 574.61616 
L 241.352941 570.746018 
L 244.668449 566.509671 
L 247.983957 561.898606 
L 251.299465 556.909272 
L 254.614973 551.543604 
L 257.930481 545.809314 
L 261.245989 539.719921 
L 264.561497 533.2945 
L 267.877005 526.557151 
L 274.508021 512.263418 
L 281.139037 497.099124 
L 287.770053 481.344405 
L 314.294118 417.29488 
L 320.925134 401.899125 
L 327.55615 386.960723 
L 334.187166 372.5306 
L 340.818182 358.638941 
L 347.449198 345.300535 
L 354.080214 332.519003 
L 360.71123 320.290019 
L 367.342246 308.603724 
L 373.973262 297.446488 
L 380.604278 286.802202 
L 387.235294 276.653203 
L 393.86631 266.980948 
L 400.497326 257.76649 
L 407.128342 248.99082 
L 413.759358 240.635108 
L 420.390374 232.680869 
L 427.02139 225.110085 
L 433.652406 217.905276 
L 440.283422 211.049551 
L 446.914439 204.526639 
L 453.545455 198.320902 
L 460.176471 192.417336 
L 466.807487 186.80157 
L 473.438503 181.459854 
L 480.069519 176.379044 
L 486.700535 171.546587 
L 493.331551 166.950501 
L 499.962567 162.579356 
L 506.593583 158.422254 
L 513.224599 154.468805 
L 519.855615 150.709112 
L 526.486631 147.133743 
L 533.117647 143.733718 
L 543.064171 138.943858 
L 553.010695 134.502225 
L 562.957219 130.383606 
L 572.903743 126.564592 
L 582.850267 123.023454 
L 592.796791 119.740025 
L 602.743316 116.695595 
L 612.68984 113.872801 
L 622.636364 111.255536 
L 622.636364 111.255536 
" style="fill:none;stroke:#9467bd;stroke-linecap:square;stroke-width:1.5;"/>
   </g>
   <g id="line2d_40">
    <path clip-path="url(#p424b7ce0d3)" d="M 115.363636 605.290909 
L 125.31016 605.119945 
L 135.256684 604.630366 
L 141.887701 604.110154 
L 148.518717 603.410967 
L 155.149733 602.507821 
L 161.780749 601.37239 
L 168.411765 599.973022 
L 175.042781 598.274664 
L 181.673797 596.23884 
L 188.304813 593.823727 
L 194.935829 590.984389 
L 198.251337 589.390844 
L 201.566845 587.673211 
L 204.882353 585.825232 
L 208.197861 583.840579 
L 211.513369 581.712896 
L 214.828877 579.435839 
L 218.144385 577.003124 
L 221.459893 574.408582 
L 224.775401 571.646216 
L 228.090909 568.710264 
L 231.406417 565.595267 
L 234.721925 562.296141 
L 238.037433 558.808253 
L 241.352941 555.127492 
L 244.668449 551.250354 
L 247.983957 547.174013 
L 251.299465 542.8964 
L 254.614973 538.416269 
L 257.930481 533.733271 
L 261.245989 528.848004 
L 267.877005 518.478112 
L 274.508021 507.332044 
L 281.139037 495.452455 
L 287.770053 482.898958 
L 294.40107 469.746918 
L 301.032086 456.085335 
L 310.97861 434.857862 
L 324.240642 405.753166 
L 340.818182 369.308 
L 350.764706 347.999293 
L 357.395722 334.198374 
L 364.026738 320.798162 
L 370.657754 307.851308 
L 377.28877 295.399082 
L 383.919786 283.47206 
L 390.550802 272.091034 
L 397.181818 261.268068 
L 403.812834 251.007618 
L 410.44385 241.307646 
L 417.074866 232.160691 
L 423.705882 223.554872 
L 430.336898 215.474794 
L 436.967914 207.902355 
L 443.59893 200.817448 
L 450.229947 194.198576 
L 456.860963 188.023355 
L 463.491979 182.26895 
L 470.122995 176.91242 
L 476.754011 171.93101 
L 483.385027 167.302371 
L 490.016043 163.004737 
L 496.647059 159.017062 
L 503.278075 155.319112 
L 509.909091 151.891534 
L 516.540107 148.715902 
L 523.171123 145.774734 
L 529.802139 143.051503 
L 536.433155 140.530629 
L 543.064171 138.197463 
L 549.695187 136.038262 
L 559.641711 133.09773 
L 569.588235 130.479961 
L 579.534759 128.149024 
L 589.481283 126.072673 
L 599.427807 124.222039 
L 609.374332 122.571339 
L 622.636364 120.642049 
L 622.636364 120.642049 
" style="fill:none;stroke:#8c564b;stroke-linecap:square;stroke-width:1.5;"/>
   </g>
   <g id="line2d_41">
    <path clip-path="url(#p424b7ce0d3)" d="M 115.363636 605.290909 
L 128.625668 605.17266 
L 145.203209 604.795709 
L 155.149733 604.403081 
L 165.096257 603.808591 
L 171.727273 603.252084 
L 178.358289 602.521188 
L 184.989305 601.563589 
L 191.620321 600.312929 
L 198.251337 598.686197 
L 201.566845 597.700727 
L 204.882353 596.581427 
L 208.197861 595.31237 
L 211.513369 593.876377 
L 214.828877 592.255103 
L 218.144385 590.429187 
L 221.459893 588.378475 
L 224.775401 586.082326 
L 228.090909 583.52001 
L 231.406417 580.671201 
L 234.721925 577.516559 
L 238.037433 574.038383 
L 241.352941 570.221325 
L 244.668449 566.053106 
L 247.983957 561.52522 
L 251.299465 556.633552 
L 254.614973 551.37886 
L 257.930481 545.767092 
L 261.245989 539.809467 
L 264.561497 533.522332 
L 267.877005 526.926774 
L 274.508021 512.914681 
L 281.139037 498.010115 
L 287.770053 482.47494 
L 301.032086 450.525864 
L 310.97861 426.631833 
L 320.925134 403.374249 
L 327.55615 388.387545 
L 334.187166 373.887698 
L 340.818182 359.911383 
L 347.449198 346.478716 
L 354.080214 333.597546 
L 360.71123 321.266817 
L 367.342246 309.479133 
L 373.973262 298.222687 
L 380.604278 287.482678 
L 387.235294 277.242352 
L 393.86631 267.483767 
L 400.497326 258.188344 
L 407.128342 249.337261 
L 413.759358 240.911743 
L 420.390374 232.893262 
L 427.02139 225.263682 
L 433.652406 218.005353 
L 440.283422 211.101181 
L 446.914439 204.534664 
L 453.545455 198.289919 
L 460.176471 192.351689 
L 466.807487 186.705347 
L 473.438503 181.336889 
L 480.069519 176.232921 
L 486.700535 171.380647 
L 493.331551 166.767848 
L 499.962567 162.382869 
L 506.593583 158.214594 
L 513.224599 154.252427 
L 519.855615 150.486274 
L 526.486631 146.90652 
L 533.117647 143.504008 
L 543.064171 138.713618 
L 553.010695 134.274844 
L 562.957219 130.162005 
L 572.903743 126.351269 
L 582.850267 122.820528 
L 592.796791 119.549275 
L 602.743316 116.518492 
L 612.68984 113.710547 
L 622.636364 111.109091 
L 622.636364 111.109091 
" style="fill:none;stroke:#e377c2;stroke-linecap:square;stroke-width:1.5;"/>
   </g>
   <g id="line2d_42">
    <path clip-path="url(#p424b7ce0d3)" d="M 115.363636 605.290909 
L 125.31016 605.136071 
L 135.256684 604.688076 
L 141.887701 604.211877 
L 148.518717 603.57136 
L 155.149733 602.742128 
L 161.780749 601.695841 
L 168.411765 600.400273 
L 175.042781 598.819217 
L 181.673797 596.912386 
L 188.304813 594.635413 
L 194.935829 591.940008 
L 198.251337 590.41932 
L 201.566845 588.774345 
L 204.882353 586.998162 
L 208.197861 585.083733 
L 211.513369 583.023943 
L 214.828877 580.811647 
L 218.144385 578.439728 
L 221.459893 575.901157 
L 224.775401 573.189062 
L 228.090909 570.296803 
L 231.406417 567.218056 
L 234.721925 563.9469 
L 238.037433 560.477904 
L 241.352941 556.80623 
L 244.668449 552.927721 
L 247.983957 548.839002 
L 251.299465 544.537572 
L 254.614973 540.021892 
L 257.930481 535.29147 
L 261.245989 530.346928 
L 264.561497 525.190064 
L 271.192513 514.252714 
L 277.823529 502.518665 
L 284.454545 490.047097 
L 291.085561 476.915928 
L 297.716578 463.219405 
L 304.347594 449.064662 
L 314.294118 427.228075 
L 344.13369 361.058153 
L 350.764706 346.891242 
L 357.395722 333.100387 
L 364.026738 319.745099 
L 370.657754 306.872236 
L 377.28877 294.516821 
L 383.919786 282.703123 
L 390.550802 271.445899 
L 397.181818 260.751682 
L 403.812834 250.620046 
L 410.44385 241.044812 
L 417.074866 232.015143 
L 423.705882 223.516524 
L 430.336898 215.531629 
L 436.967914 208.041052 
L 443.59893 201.023944 
L 450.229947 194.45853 
L 456.860963 188.322548 
L 463.491979 182.593595 
L 470.122995 177.249413 
L 476.754011 172.26811 
L 483.385027 167.628332 
L 490.016043 163.309391 
L 496.647059 159.291361 
L 503.278075 155.555144 
L 509.909091 152.08251 
L 516.540107 148.856123 
L 523.171123 145.859545 
L 529.802139 143.077233 
L 536.433155 140.494528 
L 543.064171 138.097629 
L 549.695187 135.873571 
L 559.641711 132.835164 
L 569.588235 130.120627 
L 579.534759 127.695758 
L 589.481283 125.529713 
L 599.427807 123.594735 
L 609.374332 121.865891 
L 619.320856 120.320817 
L 622.636364 119.843105 
L 622.636364 119.843105 
" style="fill:none;stroke:#7f7f7f;stroke-linecap:square;stroke-width:1.5;"/>
   </g>
   <g id="line2d_43">
    <path clip-path="url(#p424b7ce0d3)" d="M 115.363636 605.290909 
L 125.31016 605.152974 
L 135.256684 604.741891 
L 145.203209 604.028597 
L 151.834225 603.355923 
L 158.465241 602.497415 
L 165.096257 601.423446 
L 171.727273 600.099435 
L 178.358289 598.485694 
L 184.989305 596.537284 
L 191.620321 594.203968 
L 198.251337 591.430363 
L 201.566845 589.859839 
L 204.882353 588.156383 
L 208.197861 586.311886 
L 211.513369 584.318078 
L 214.828877 582.166585 
L 218.144385 579.848991 
L 221.459893 577.356915 
L 224.775401 574.682099 
L 228.090909 571.816506 
L 231.406417 568.752423 
L 234.721925 565.482582 
L 238.037433 562.00028 
L 241.352941 558.299513 
L 244.668449 554.375105 
L 247.983957 550.222844 
L 251.299465 545.839617 
L 254.614973 541.223528 
L 257.930481 536.374019 
L 261.245989 531.291967 
L 264.561497 525.979766 
L 267.877005 520.441387 
L 274.508021 508.710036 
L 281.139037 496.161758 
L 287.770053 482.884687 
L 294.40107 468.988032 
L 301.032086 454.597221 
L 310.97861 432.382445 
L 334.187166 379.987899 
L 344.13369 358.258665 
L 350.764706 344.244582 
L 357.395722 330.682586 
L 364.026738 317.619193 
L 370.657754 305.087168 
L 377.28877 293.107276 
L 383.919786 281.690118 
L 390.550802 270.837899 
L 397.181818 260.546063 
L 403.812834 250.804743 
L 410.44385 241.600008 
L 417.074866 232.914919 
L 423.705882 224.7304 
L 430.336898 217.025952 
L 436.967914 209.780217 
L 443.59893 202.971432 
L 450.229947 196.577781 
L 456.860963 190.577665 
L 463.491979 184.949909 
L 470.122995 179.673906 
L 476.754011 174.729736 
L 483.385027 170.09823 
L 490.016043 165.761026 
L 496.647059 161.70059 
L 503.278075 157.900234 
L 509.909091 154.344104 
L 516.540107 151.01718 
L 523.171123 147.905248 
L 529.802139 144.994886 
L 536.433155 142.273428 
L 543.064171 139.72894 
L 549.695187 137.350189 
L 559.641711 134.06988 
L 569.588235 131.105839 
L 579.534759 128.428027 
L 589.481283 126.009147 
L 599.427807 123.824418 
L 609.374332 121.851361 
L 619.320856 120.069602 
L 622.636364 119.514951 
L 622.636364 119.514951 
" style="fill:none;stroke:#bcbd22;stroke-linecap:square;stroke-width:1.5;"/>
   </g>
   <g id="line2d_44">
    <path clip-path="url(#p424b7ce0d3)" d="M 115.363636 605.290909 
L 125.31016 605.227851 
L 135.256684 604.996638 
L 145.203209 604.91256 
L 165.096257 604.821476 
L 168.411765 604.415101 
L 175.042781 604.33803 
L 178.358289 603.350118 
L 181.673797 603.020815 
L 184.989305 602.397239 
L 191.620321 600.575559 
L 194.935829 599.447518 
L 198.251337 598.011193 
L 201.566845 595.068477 
L 204.882353 591.600278 
L 208.197861 589.883694 
L 218.144385 582.491874 
L 221.459893 579.359984 
L 224.775401 576.024907 
L 228.090909 571.99619 
L 234.721925 564.793545 
L 241.352941 558.375623 
L 244.668449 554.466016 
L 251.299465 544.012371 
L 254.614973 538.288089 
L 257.930481 532.171446 
L 261.245989 526.384106 
L 264.561497 519.945166 
L 267.877005 513.127876 
L 271.192513 507.200407 
L 281.139037 488.437095 
L 284.454545 482.944027 
L 287.770053 476.911461 
L 294.40107 464.173708 
L 307.663102 437.983544 
L 317.609626 417.903017 
L 330.871658 391.278452 
L 357.395722 338.821053 
L 373.973262 307.312982 
L 383.919786 289.376433 
L 390.550802 277.101107 
L 397.181818 264.755717 
L 403.812834 253.300148 
L 407.128342 247.68797 
L 410.44385 242.433121 
L 417.074866 232.448909 
L 423.705882 222.366607 
L 430.336898 212.893867 
L 433.652406 208.514827 
L 436.967914 203.778457 
L 440.283422 199.553559 
L 443.59893 195.566881 
L 446.914439 191.937532 
L 453.545455 185.477572 
L 456.860963 182.415747 
L 460.176471 180.096607 
L 466.807487 174.757681 
L 476.754011 168.108546 
L 480.069519 166.188775 
L 483.385027 164.093842 
L 493.331551 158.439625 
L 496.647059 157.045339 
L 499.962567 155.49691 
L 506.593583 152.834454 
L 513.224599 150.536333 
L 516.540107 149.261157 
L 519.855615 148.175155 
L 533.117647 143.382733 
L 536.433155 142.387815 
L 539.748663 141.561052 
L 543.064171 140.61518 
L 549.695187 138.232982 
L 556.326203 136.032952 
L 562.957219 134.288342 
L 566.272727 133.482599 
L 576.219251 130.385742 
L 579.534759 129.41885 
L 582.850267 128.571067 
L 592.796791 126.40607 
L 599.427807 124.738531 
L 606.058824 123.085006 
L 609.374332 122.405379 
L 612.68984 121.999004 
L 622.636364 119.876045 
L 622.636364 119.876045 
" style="fill:none;stroke:#17becf;stroke-dasharray:14.8,6.4;stroke-dashoffset:0;stroke-width:4;"/>
   </g>
   <g id="patch_3">
    <path d="M 90 630 
L 90 86.4 
" style="fill:none;stroke:#000000;stroke-linecap:square;stroke-linejoin:miter;stroke-width:0.8;"/>
   </g>
   <g id="patch_4">
    <path d="M 648 630 
L 648 86.4 
" style="fill:none;stroke:#000000;stroke-linecap:square;stroke-linejoin:miter;stroke-width:0.8;"/>
   </g>
   <g id="patch_5">
    <path d="M 90 630 
L 648 630 
" style="fill:none;stroke:#000000;stroke-linecap:square;stroke-linejoin:miter;stroke-width:0.8;"/>
   </g>
   <g id="patch_6">
    <path d="M 90 86.4 
L 648 86.4 
" style="fill:none;stroke:#000000;stroke-linecap:square;stroke-linejoin:miter;stroke-width:0.8;"/>
   </g>
   <g id="text_20">
    <!-- Belarus relative err =  -->
    <g transform="translate(302.648438 80.4)scale(0.12 -0.12)">
     <defs>
      <path d="M 19.671875 34.8125 
L 19.671875 8.109375 
L 35.5 8.109375 
Q 43.453125 8.109375 47.28125 11.40625 
Q 51.125 14.703125 51.125 21.484375 
Q 51.125 28.328125 47.28125 31.5625 
Q 43.453125 34.8125 35.5 34.8125 
z
M 19.671875 64.796875 
L 19.671875 42.828125 
L 34.28125 42.828125 
Q 41.5 42.828125 45.03125 45.53125 
Q 48.578125 48.25 48.578125 53.8125 
Q 48.578125 59.328125 45.03125 62.0625 
Q 41.5 64.796875 34.28125 64.796875 
z
M 9.8125 72.90625 
L 35.015625 72.90625 
Q 46.296875 72.90625 52.390625 68.21875 
Q 58.5 63.53125 58.5 54.890625 
Q 58.5 48.1875 55.375 44.234375 
Q 52.25 40.28125 46.1875 39.3125 
Q 53.46875 37.75 57.5 32.78125 
Q 61.53125 27.828125 61.53125 20.40625 
Q 61.53125 10.640625 54.890625 5.3125 
Q 48.25 0 35.984375 0 
L 9.8125 0 
z
" id="DejaVuSans-66"/>
      <path d="M 41.109375 46.296875 
Q 39.59375 47.171875 37.8125 47.578125 
Q 36.03125 48 33.890625 48 
Q 26.265625 48 22.1875 43.046875 
Q 18.109375 38.09375 18.109375 28.8125 
L 18.109375 0 
L 9.078125 0 
L 9.078125 54.6875 
L 18.109375 54.6875 
L 18.109375 46.1875 
Q 20.953125 51.171875 25.484375 53.578125 
Q 30.03125 56 36.53125 56 
Q 37.453125 56 38.578125 55.875 
Q 39.703125 55.765625 41.0625 55.515625 
z
" id="DejaVuSans-114"/>
      <path d="M 10.59375 45.40625 
L 73.1875 45.40625 
L 73.1875 37.203125 
L 10.59375 37.203125 
z
M 10.59375 25.484375 
L 73.1875 25.484375 
L 73.1875 17.1875 
L 10.59375 17.1875 
z
" id="DejaVuSans-61"/>
     </defs>
     <use xlink:href="#DejaVuSans-66"/>
     <use x="68.603516" xlink:href="#DejaVuSans-101"/>
     <use x="130.126953" xlink:href="#DejaVuSans-108"/>
     <use x="157.910156" xlink:href="#DejaVuSans-97"/>
     <use x="219.189453" xlink:href="#DejaVuSans-114"/>
     <use x="260.302734" xlink:href="#DejaVuSans-117"/>
     <use x="323.681641" xlink:href="#DejaVuSans-115"/>
     <use x="375.78125" xlink:href="#DejaVuSans-32"/>
     <use x="407.568359" xlink:href="#DejaVuSans-114"/>
     <use x="446.431641" xlink:href="#DejaVuSans-101"/>
     <use x="507.955078" xlink:href="#DejaVuSans-108"/>
     <use x="535.738281" xlink:href="#DejaVuSans-97"/>
     <use x="597.017578" xlink:href="#DejaVuSans-116"/>
     <use x="636.226562" xlink:href="#DejaVuSans-105"/>
     <use x="664.009766" xlink:href="#DejaVuSans-118"/>
     <use x="723.189453" xlink:href="#DejaVuSans-101"/>
     <use x="784.712891" xlink:href="#DejaVuSans-32"/>
     <use x="816.5" xlink:href="#DejaVuSans-101"/>
     <use x="878.023438" xlink:href="#DejaVuSans-114"/>
     <use x="917.386719" xlink:href="#DejaVuSans-114"/>
     <use x="958.5" xlink:href="#DejaVuSans-32"/>
     <use x="990.287109" xlink:href="#DejaVuSans-61"/>
     <use x="1074.076172" xlink:href="#DejaVuSans-32"/>
    </g>
   </g>
   <g id="legend_1">
    <g id="patch_7">
     <path d="M 97 226.503125 
L 185.6 226.503125 
Q 187.6 226.503125 187.6 224.503125 
L 187.6 93.4 
Q 187.6 91.4 185.6 91.4 
L 97 91.4 
Q 95 91.4 95 93.4 
L 95 224.503125 
Q 95 226.503125 97 226.503125 
z
" style="fill:#ffffff;opacity:0.8;stroke:#cccccc;stroke-linejoin:miter;"/>
    </g>
    <g id="line2d_45">
     <path d="M 99 99.498438 
L 119 99.498438 
" style="fill:none;stroke:#1f77b4;stroke-linecap:square;stroke-width:1.5;"/>
    </g>
    <g id="line2d_46"/>
    <g id="text_21">
     <!-- SI -->
     <g transform="translate(127 102.998438)scale(0.1 -0.1)">
      <defs>
       <path d="M 53.515625 70.515625 
L 53.515625 60.890625 
Q 47.90625 63.578125 42.921875 64.890625 
Q 37.9375 66.21875 33.296875 66.21875 
Q 25.25 66.21875 20.875 63.09375 
Q 16.5 59.96875 16.5 54.203125 
Q 16.5 49.359375 19.40625 46.890625 
Q 22.3125 44.4375 30.421875 42.921875 
L 36.375 41.703125 
Q 47.40625 39.59375 52.65625 34.296875 
Q 57.90625 29 57.90625 20.125 
Q 57.90625 9.515625 50.796875 4.046875 
Q 43.703125 -1.421875 29.984375 -1.421875 
Q 24.8125 -1.421875 18.96875 -0.25 
Q 13.140625 0.921875 6.890625 3.21875 
L 6.890625 13.375 
Q 12.890625 10.015625 18.65625 8.296875 
Q 24.421875 6.59375 29.984375 6.59375 
Q 38.421875 6.59375 43.015625 9.90625 
Q 47.609375 13.234375 47.609375 19.390625 
Q 47.609375 24.75 44.3125 27.78125 
Q 41.015625 30.8125 33.5 32.328125 
L 27.484375 33.5 
Q 16.453125 35.6875 11.515625 40.375 
Q 6.59375 45.0625 6.59375 53.421875 
Q 6.59375 63.09375 13.40625 68.65625 
Q 20.21875 74.21875 32.171875 74.21875 
Q 37.3125 74.21875 42.625 73.28125 
Q 47.953125 72.359375 53.515625 70.515625 
z
" id="DejaVuSans-83"/>
       <path d="M 9.8125 72.90625 
L 19.671875 72.90625 
L 19.671875 0 
L 9.8125 0 
z
" id="DejaVuSans-73"/>
      </defs>
      <use xlink:href="#DejaVuSans-83"/>
      <use x="63.476562" xlink:href="#DejaVuSans-73"/>
     </g>
    </g>
    <g id="line2d_47">
     <path d="M 99 114.176563 
L 119 114.176563 
" style="fill:none;stroke:#ff7f0e;stroke-linecap:square;stroke-width:1.5;"/>
    </g>
    <g id="line2d_48"/>
    <g id="text_22">
     <!-- BD -->
     <g transform="translate(127 117.676563)scale(0.1 -0.1)">
      <use xlink:href="#DejaVuSans-66"/>
      <use x="68.603516" xlink:href="#DejaVuSans-68"/>
     </g>
    </g>
    <g id="line2d_49">
     <path d="M 99 128.854688 
L 119 128.854688 
" style="fill:none;stroke:#2ca02c;stroke-linecap:square;stroke-width:1.5;"/>
    </g>
    <g id="line2d_50"/>
    <g id="text_23">
     <!-- SIR -->
     <g transform="translate(127 132.354688)scale(0.1 -0.1)">
      <defs>
       <path d="M 44.390625 34.1875 
Q 47.5625 33.109375 50.5625 29.59375 
Q 53.5625 26.078125 56.59375 19.921875 
L 66.609375 0 
L 56 0 
L 46.6875 18.703125 
Q 43.0625 26.03125 39.671875 28.421875 
Q 36.28125 30.8125 30.421875 30.8125 
L 19.671875 30.8125 
L 19.671875 0 
L 9.8125 0 
L 9.8125 72.90625 
L 32.078125 72.90625 
Q 44.578125 72.90625 50.734375 67.671875 
Q 56.890625 62.453125 56.890625 51.90625 
Q 56.890625 45.015625 53.6875 40.46875 
Q 50.484375 35.9375 44.390625 34.1875 
z
M 19.671875 64.796875 
L 19.671875 38.921875 
L 32.078125 38.921875 
Q 39.203125 38.921875 42.84375 42.21875 
Q 46.484375 45.515625 46.484375 51.90625 
Q 46.484375 58.296875 42.84375 61.546875 
Q 39.203125 64.796875 32.078125 64.796875 
z
" id="DejaVuSans-82"/>
      </defs>
      <use xlink:href="#DejaVuSans-83"/>
      <use x="63.476562" xlink:href="#DejaVuSans-73"/>
      <use x="92.96875" xlink:href="#DejaVuSans-82"/>
     </g>
    </g>
    <g id="line2d_51">
     <path d="M 99 143.532812 
L 119 143.532812 
" style="fill:none;stroke:#d62728;stroke-linecap:square;stroke-width:1.5;"/>
    </g>
    <g id="line2d_52"/>
    <g id="text_24">
     <!-- eSIR -->
     <g transform="translate(127 147.032812)scale(0.1 -0.1)">
      <use xlink:href="#DejaVuSans-101"/>
      <use x="61.523438" xlink:href="#DejaVuSans-83"/>
      <use x="125" xlink:href="#DejaVuSans-73"/>
      <use x="154.492188" xlink:href="#DejaVuSans-82"/>
     </g>
    </g>
    <g id="line2d_53">
     <path d="M 99 158.210938 
L 119 158.210938 
" style="fill:none;stroke:#9467bd;stroke-linecap:square;stroke-width:1.5;"/>
    </g>
    <g id="line2d_54"/>
    <g id="text_25">
     <!-- SEIR -->
     <g transform="translate(127 161.710938)scale(0.1 -0.1)">
      <defs>
       <path d="M 9.8125 72.90625 
L 55.90625 72.90625 
L 55.90625 64.59375 
L 19.671875 64.59375 
L 19.671875 43.015625 
L 54.390625 43.015625 
L 54.390625 34.71875 
L 19.671875 34.71875 
L 19.671875 8.296875 
L 56.78125 8.296875 
L 56.78125 0 
L 9.8125 0 
z
" id="DejaVuSans-69"/>
      </defs>
      <use xlink:href="#DejaVuSans-83"/>
      <use x="63.476562" xlink:href="#DejaVuSans-69"/>
      <use x="126.660156" xlink:href="#DejaVuSans-73"/>
      <use x="156.152344" xlink:href="#DejaVuSans-82"/>
     </g>
    </g>
    <g id="line2d_55">
     <path d="M 99 172.889063 
L 119 172.889063 
" style="fill:none;stroke:#8c564b;stroke-linecap:square;stroke-width:1.5;"/>
    </g>
    <g id="line2d_56"/>
    <g id="text_26">
     <!-- eSEIR -->
     <g transform="translate(127 176.389063)scale(0.1 -0.1)">
      <use xlink:href="#DejaVuSans-101"/>
      <use x="61.523438" xlink:href="#DejaVuSans-83"/>
      <use x="125" xlink:href="#DejaVuSans-69"/>
      <use x="188.183594" xlink:href="#DejaVuSans-73"/>
      <use x="217.675781" xlink:href="#DejaVuSans-82"/>
     </g>
    </g>
    <g id="line2d_57">
     <path d="M 99 187.567188 
L 119 187.567188 
" style="fill:none;stroke:#e377c2;stroke-linecap:square;stroke-width:1.5;"/>
    </g>
    <g id="line2d_58"/>
    <g id="text_27">
     <!-- SEIUR -->
     <g transform="translate(127 191.067188)scale(0.1 -0.1)">
      <defs>
       <path d="M 8.6875 72.90625 
L 18.609375 72.90625 
L 18.609375 28.609375 
Q 18.609375 16.890625 22.84375 11.734375 
Q 27.09375 6.59375 36.625 6.59375 
Q 46.09375 6.59375 50.34375 11.734375 
Q 54.59375 16.890625 54.59375 28.609375 
L 54.59375 72.90625 
L 64.5 72.90625 
L 64.5 27.390625 
Q 64.5 13.140625 57.4375 5.859375 
Q 50.390625 -1.421875 36.625 -1.421875 
Q 22.796875 -1.421875 15.734375 5.859375 
Q 8.6875 13.140625 8.6875 27.390625 
z
" id="DejaVuSans-85"/>
      </defs>
      <use xlink:href="#DejaVuSans-83"/>
      <use x="63.476562" xlink:href="#DejaVuSans-69"/>
      <use x="126.660156" xlink:href="#DejaVuSans-73"/>
      <use x="156.152344" xlink:href="#DejaVuSans-85"/>
      <use x="229.345703" xlink:href="#DejaVuSans-82"/>
     </g>
    </g>
    <g id="line2d_59">
     <path d="M 99 202.245312 
L 119 202.245312 
" style="fill:none;stroke:#7f7f7f;stroke-linecap:square;stroke-width:1.5;"/>
    </g>
    <g id="line2d_60"/>
    <g id="text_28">
     <!-- eSEIUR -->
     <g transform="translate(127 205.745312)scale(0.1 -0.1)">
      <use xlink:href="#DejaVuSans-101"/>
      <use x="61.523438" xlink:href="#DejaVuSans-83"/>
      <use x="125" xlink:href="#DejaVuSans-69"/>
      <use x="188.183594" xlink:href="#DejaVuSans-73"/>
      <use x="217.675781" xlink:href="#DejaVuSans-85"/>
      <use x="290.869141" xlink:href="#DejaVuSans-82"/>
     </g>
    </g>
    <g id="line2d_61">
     <path d="M 99 216.923437 
L 119 216.923437 
" style="fill:none;stroke:#bcbd22;stroke-linecap:square;stroke-width:1.5;"/>
    </g>
    <g id="line2d_62"/>
    <g id="text_29">
     <!-- eSEIUR$^{range}$ -->
     <g transform="translate(127 220.423437)scale(0.1 -0.1)">
      <defs>
       <path d="M 44.578125 46.390625 
Q 43.21875 47.125 41.453125 47.515625 
Q 39.703125 47.90625 37.703125 47.90625 
Q 30.515625 47.90625 25.140625 42.453125 
Q 19.78125 37.015625 18.015625 27.875 
L 12.5 0 
L 3.515625 0 
L 14.203125 54.6875 
L 23.1875 54.6875 
L 21.484375 46.1875 
Q 25.046875 50.921875 30 53.453125 
Q 34.96875 56 40.578125 56 
Q 42.046875 56 43.453125 55.828125 
Q 44.875 55.671875 46.296875 55.28125 
z
" id="DejaVuSans-Oblique-114"/>
       <path d="M 53.71875 31.203125 
L 47.609375 0 
L 38.625 0 
L 40.28125 8.296875 
Q 36.328125 3.421875 31.265625 1 
Q 26.21875 -1.421875 20.015625 -1.421875 
Q 13.03125 -1.421875 8.5625 2.84375 
Q 4.109375 7.125 4.109375 13.8125 
Q 4.109375 23.390625 11.75 28.953125 
Q 19.390625 34.515625 32.8125 34.515625 
L 45.3125 34.515625 
L 45.796875 36.921875 
Q 45.90625 37.3125 45.953125 37.765625 
Q 46 38.234375 46 39.203125 
Q 46 43.5625 42.453125 45.96875 
Q 38.921875 48.390625 32.515625 48.390625 
Q 28.125 48.390625 23.5 47.265625 
Q 18.890625 46.140625 14.015625 43.890625 
L 15.578125 52.203125 
Q 20.65625 54.109375 25.515625 55.046875 
Q 30.375 56 34.90625 56 
Q 44.578125 56 49.625 51.796875 
Q 54.6875 47.609375 54.6875 39.59375 
Q 54.6875 37.984375 54.4375 35.8125 
Q 54.203125 33.640625 53.71875 31.203125 
z
M 44 27.484375 
L 35.015625 27.484375 
Q 23.96875 27.484375 18.671875 24.53125 
Q 13.375 21.578125 13.375 15.375 
Q 13.375 11.078125 16.078125 8.640625 
Q 18.796875 6.203125 23.578125 6.203125 
Q 30.90625 6.203125 36.375 11.453125 
Q 41.84375 16.703125 43.609375 25.484375 
z
" id="DejaVuSans-Oblique-97"/>
       <path d="M 55.71875 33.015625 
L 49.3125 0 
L 40.28125 0 
L 46.6875 32.671875 
Q 47.125 34.96875 47.359375 36.71875 
Q 47.609375 38.484375 47.609375 39.5 
Q 47.609375 43.609375 45.015625 45.890625 
Q 42.4375 48.1875 37.796875 48.1875 
Q 30.5625 48.1875 25.34375 43.375 
Q 20.125 38.578125 18.5 30.328125 
L 12.5 0 
L 3.515625 0 
L 14.109375 54.6875 
L 23.09375 54.6875 
L 21.296875 46.09375 
Q 25.046875 50.828125 30.3125 53.40625 
Q 35.59375 56 41.40625 56 
Q 48.640625 56 52.609375 52.09375 
Q 56.59375 48.1875 56.59375 41.109375 
Q 56.59375 39.359375 56.375 37.359375 
Q 56.15625 35.359375 55.71875 33.015625 
z
" id="DejaVuSans-Oblique-110"/>
       <path d="M 59.625 54.6875 
L 50.296875 6.78125 
Q 47.609375 -7.125 40.015625 -13.953125 
Q 32.421875 -20.796875 19.578125 -20.796875 
Q 14.84375 -20.796875 10.78125 -20.09375 
Q 6.734375 -19.390625 3.21875 -17.921875 
L 4.890625 -9.1875 
Q 8.203125 -11.328125 11.90625 -12.34375 
Q 15.625 -13.375 19.828125 -13.375 
Q 28.375 -13.375 33.859375 -8.703125 
Q 39.359375 -4.046875 41.109375 4.6875 
L 41.890625 8.796875 
Q 38.140625 4.5 33.15625 2.25 
Q 28.171875 0 22.40625 0 
Q 14.109375 0 9.34375 5.484375 
Q 4.59375 10.984375 4.59375 20.609375 
Q 4.59375 28.171875 7.46875 35.421875 
Q 10.359375 42.671875 15.578125 48.296875 
Q 19.046875 52 23.65625 54 
Q 28.265625 56 33.296875 56 
Q 38.8125 56 42.90625 53.4375 
Q 47.015625 50.875 49.03125 46.1875 
L 50.59375 54.6875 
z
M 46.09375 34.625 
Q 46.09375 41.265625 42.96875 44.875 
Q 39.84375 48.484375 34.078125 48.484375 
Q 30.515625 48.484375 27.296875 47.0625 
Q 24.078125 45.65625 21.78125 43.109375 
Q 18.0625 38.921875 15.984375 33.234375 
Q 13.921875 27.546875 13.921875 21.484375 
Q 13.921875 14.75 17.0625 11.125 
Q 20.21875 7.515625 26.125 7.515625 
Q 34.671875 7.515625 40.375 15.25 
Q 46.09375 23 46.09375 34.625 
z
" id="DejaVuSans-Oblique-103"/>
       <path d="M 48.09375 32.234375 
Q 48.25 33.015625 48.3125 33.84375 
Q 48.390625 34.671875 48.390625 35.5 
Q 48.390625 41.453125 44.890625 44.921875 
Q 41.40625 48.390625 35.40625 48.390625 
Q 28.71875 48.390625 23.578125 44.15625 
Q 18.453125 39.9375 15.828125 32.171875 
z
M 55.90625 25.203125 
L 14.109375 25.203125 
Q 13.8125 23.34375 13.71875 22.265625 
Q 13.625 21.1875 13.625 20.40625 
Q 13.625 13.625 17.796875 9.90625 
Q 21.96875 6.203125 29.59375 6.203125 
Q 35.453125 6.203125 40.671875 7.515625 
Q 45.90625 8.84375 50.390625 11.375 
L 48.6875 2.484375 
Q 43.84375 0.53125 38.6875 -0.4375 
Q 33.546875 -1.421875 28.21875 -1.421875 
Q 16.84375 -1.421875 10.71875 4.015625 
Q 4.59375 9.46875 4.59375 19.484375 
Q 4.59375 28.03125 7.640625 35.375 
Q 10.6875 42.71875 16.609375 48.484375 
Q 20.40625 52.09375 25.65625 54.046875 
Q 30.90625 56 36.8125 56 
Q 46.09375 56 51.578125 50.4375 
Q 57.078125 44.875 57.078125 35.5 
Q 57.078125 33.25 56.78125 30.6875 
Q 56.5 28.125 55.90625 25.203125 
z
" id="DejaVuSans-Oblique-101"/>
      </defs>
      <use transform="translate(0 0.51875)" xlink:href="#DejaVuSans-101"/>
      <use transform="translate(61.523438 0.51875)" xlink:href="#DejaVuSans-83"/>
      <use transform="translate(125 0.51875)" xlink:href="#DejaVuSans-69"/>
      <use transform="translate(188.183594 0.51875)" xlink:href="#DejaVuSans-73"/>
      <use transform="translate(217.675781 0.51875)" xlink:href="#DejaVuSans-85"/>
      <use transform="translate(288.619141 0.51875)" xlink:href="#DejaVuSans-82"/>
      <use transform="translate(359.058594 38.8)scale(0.7)" xlink:href="#DejaVuSans-Oblique-114"/>
      <use transform="translate(387.837891 38.8)scale(0.7)" xlink:href="#DejaVuSans-Oblique-97"/>
      <use transform="translate(430.733398 38.8)scale(0.7)" xlink:href="#DejaVuSans-Oblique-110"/>
      <use transform="translate(475.098633 38.8)scale(0.7)" xlink:href="#DejaVuSans-Oblique-103"/>
      <use transform="translate(519.532227 38.8)scale(0.7)" xlink:href="#DejaVuSans-Oblique-101"/>
     </g>
    </g>
   </g>
  </g>
 </g>
 <defs>
  <clipPath id="p424b7ce0d3">
   <rect height="543.6" width="558" x="90" y="86.4"/>
  </clipPath>
 </defs>
</svg>
