<?xml version="1.0" encoding="utf-8" standalone="no"?>
<!DOCTYPE svg PUBLIC "-//W3C//DTD SVG 1.1//EN"
  "http://www.w3.org/Graphics/SVG/1.1/DTD/svg11.dtd">
<!-- Created with matplotlib (https://matplotlib.org/) -->
<svg height="720pt" version="1.1" viewBox="0 0 720 720" width="720pt" xmlns="http://www.w3.org/2000/svg" xmlns:xlink="http://www.w3.org/1999/xlink">
 <metadata>
  <rdf:RDF xmlns:cc="http://creativecommons.org/ns#" xmlns:dc="http://purl.org/dc/elements/1.1/" xmlns:rdf="http://www.w3.org/1999/02/22-rdf-syntax-ns#">
   <cc:Work>
    <dc:type rdf:resource="http://purl.org/dc/dcmitype/StillImage"/>
    <dc:date>2022-10-11T20:59:01.697624</dc:date>
    <dc:format>image/svg+xml</dc:format>
    <dc:creator>
     <cc:Agent>
      <dc:title>Matplotlib v3.3.2, https://matplotlib.org/</dc:title>
     </cc:Agent>
    </dc:creator>
   </cc:Work>
  </rdf:RDF>
 </metadata>
 <defs>
  <style type="text/css">*{stroke-linecap:butt;stroke-linejoin:round;}</style>
 </defs>
 <g id="figure_1">
  <g id="patch_1">
   <path d="M 0 720 
L 720 720 
L 720 0 
L 0 0 
z
" style="fill:none;"/>
  </g>
  <g id="axes_1">
   <g id="patch_2">
    <path d="M 90 630 
L 648 630 
L 648 86.4 
L 90 86.4 
z
" style="fill:#ffffff;"/>
   </g>
   <g id="matplotlib.axis_1">
    <g id="xtick_1">
     <g id="line2d_1">
      <path clip-path="url(#paf9a2cf90a)" d="M 115.363636 630 
L 115.363636 86.4 
" style="fill:none;stroke:#b0b0b0;stroke-linecap:square;stroke-width:0.8;"/>
     </g>
     <g id="line2d_2">
      <defs>
       <path d="M 0 0 
L 0 3.5 
" id="mc81434c52e" style="stroke:#000000;stroke-width:0.8;"/>
      </defs>
      <g>
       <use style="stroke:#000000;stroke-width:0.8;" x="115.363636" xlink:href="#mc81434c52e" y="630"/>
      </g>
     </g>
     <g id="text_1">
      <!-- 0 -->
      <g transform="translate(112.182386 644.598438)scale(0.1 -0.1)">
       <defs>
        <path d="M 31.78125 66.40625 
Q 24.171875 66.40625 20.328125 58.90625 
Q 16.5 51.421875 16.5 36.375 
Q 16.5 21.390625 20.328125 13.890625 
Q 24.171875 6.390625 31.78125 6.390625 
Q 39.453125 6.390625 43.28125 13.890625 
Q 47.125 21.390625 47.125 36.375 
Q 47.125 51.421875 43.28125 58.90625 
Q 39.453125 66.40625 31.78125 66.40625 
z
M 31.78125 74.21875 
Q 44.046875 74.21875 50.515625 64.515625 
Q 56.984375 54.828125 56.984375 36.375 
Q 56.984375 17.96875 50.515625 8.265625 
Q 44.046875 -1.421875 31.78125 -1.421875 
Q 19.53125 -1.421875 13.0625 8.265625 
Q 6.59375 17.96875 6.59375 36.375 
Q 6.59375 54.828125 13.0625 64.515625 
Q 19.53125 74.21875 31.78125 74.21875 
z
" id="DejaVuSans-48"/>
       </defs>
       <use xlink:href="#DejaVuSans-48"/>
      </g>
     </g>
    </g>
    <g id="xtick_2">
     <g id="line2d_3">
      <path clip-path="url(#paf9a2cf90a)" d="M 185.818182 630 
L 185.818182 86.4 
" style="fill:none;stroke:#b0b0b0;stroke-linecap:square;stroke-width:0.8;"/>
     </g>
     <g id="line2d_4">
      <g>
       <use style="stroke:#000000;stroke-width:0.8;" x="185.818182" xlink:href="#mc81434c52e" y="630"/>
      </g>
     </g>
     <g id="text_2">
      <!-- 10 -->
      <g transform="translate(179.455682 644.598438)scale(0.1 -0.1)">
       <defs>
        <path d="M 12.40625 8.296875 
L 28.515625 8.296875 
L 28.515625 63.921875 
L 10.984375 60.40625 
L 10.984375 69.390625 
L 28.421875 72.90625 
L 38.28125 72.90625 
L 38.28125 8.296875 
L 54.390625 8.296875 
L 54.390625 0 
L 12.40625 0 
z
" id="DejaVuSans-49"/>
       </defs>
       <use xlink:href="#DejaVuSans-49"/>
       <use x="63.623047" xlink:href="#DejaVuSans-48"/>
      </g>
     </g>
    </g>
    <g id="xtick_3">
     <g id="line2d_5">
      <path clip-path="url(#paf9a2cf90a)" d="M 256.272727 630 
L 256.272727 86.4 
" style="fill:none;stroke:#b0b0b0;stroke-linecap:square;stroke-width:0.8;"/>
     </g>
     <g id="line2d_6">
      <g>
       <use style="stroke:#000000;stroke-width:0.8;" x="256.272727" xlink:href="#mc81434c52e" y="630"/>
      </g>
     </g>
     <g id="text_3">
      <!-- 20 -->
      <g transform="translate(249.910227 644.598438)scale(0.1 -0.1)">
       <defs>
        <path d="M 19.1875 8.296875 
L 53.609375 8.296875 
L 53.609375 0 
L 7.328125 0 
L 7.328125 8.296875 
Q 12.9375 14.109375 22.625 23.890625 
Q 32.328125 33.6875 34.8125 36.53125 
Q 39.546875 41.84375 41.421875 45.53125 
Q 43.3125 49.21875 43.3125 52.78125 
Q 43.3125 58.59375 39.234375 62.25 
Q 35.15625 65.921875 28.609375 65.921875 
Q 23.96875 65.921875 18.8125 64.3125 
Q 13.671875 62.703125 7.8125 59.421875 
L 7.8125 69.390625 
Q 13.765625 71.78125 18.9375 73 
Q 24.125 74.21875 28.421875 74.21875 
Q 39.75 74.21875 46.484375 68.546875 
Q 53.21875 62.890625 53.21875 53.421875 
Q 53.21875 48.921875 51.53125 44.890625 
Q 49.859375 40.875 45.40625 35.40625 
Q 44.1875 33.984375 37.640625 27.21875 
Q 31.109375 20.453125 19.1875 8.296875 
z
" id="DejaVuSans-50"/>
       </defs>
       <use xlink:href="#DejaVuSans-50"/>
       <use x="63.623047" xlink:href="#DejaVuSans-48"/>
      </g>
     </g>
    </g>
    <g id="xtick_4">
     <g id="line2d_7">
      <path clip-path="url(#paf9a2cf90a)" d="M 326.727273 630 
L 326.727273 86.4 
" style="fill:none;stroke:#b0b0b0;stroke-linecap:square;stroke-width:0.8;"/>
     </g>
     <g id="line2d_8">
      <g>
       <use style="stroke:#000000;stroke-width:0.8;" x="326.727273" xlink:href="#mc81434c52e" y="630"/>
      </g>
     </g>
     <g id="text_4">
      <!-- 30 -->
      <g transform="translate(320.364773 644.598438)scale(0.1 -0.1)">
       <defs>
        <path d="M 40.578125 39.3125 
Q 47.65625 37.796875 51.625 33 
Q 55.609375 28.21875 55.609375 21.1875 
Q 55.609375 10.40625 48.1875 4.484375 
Q 40.765625 -1.421875 27.09375 -1.421875 
Q 22.515625 -1.421875 17.65625 -0.515625 
Q 12.796875 0.390625 7.625 2.203125 
L 7.625 11.71875 
Q 11.71875 9.328125 16.59375 8.109375 
Q 21.484375 6.890625 26.8125 6.890625 
Q 36.078125 6.890625 40.9375 10.546875 
Q 45.796875 14.203125 45.796875 21.1875 
Q 45.796875 27.640625 41.28125 31.265625 
Q 36.765625 34.90625 28.71875 34.90625 
L 20.21875 34.90625 
L 20.21875 43.015625 
L 29.109375 43.015625 
Q 36.375 43.015625 40.234375 45.921875 
Q 44.09375 48.828125 44.09375 54.296875 
Q 44.09375 59.90625 40.109375 62.90625 
Q 36.140625 65.921875 28.71875 65.921875 
Q 24.65625 65.921875 20.015625 65.03125 
Q 15.375 64.15625 9.8125 62.3125 
L 9.8125 71.09375 
Q 15.4375 72.65625 20.34375 73.4375 
Q 25.25 74.21875 29.59375 74.21875 
Q 40.828125 74.21875 47.359375 69.109375 
Q 53.90625 64.015625 53.90625 55.328125 
Q 53.90625 49.265625 50.4375 45.09375 
Q 46.96875 40.921875 40.578125 39.3125 
z
" id="DejaVuSans-51"/>
       </defs>
       <use xlink:href="#DejaVuSans-51"/>
       <use x="63.623047" xlink:href="#DejaVuSans-48"/>
      </g>
     </g>
    </g>
    <g id="xtick_5">
     <g id="line2d_9">
      <path clip-path="url(#paf9a2cf90a)" d="M 397.181818 630 
L 397.181818 86.4 
" style="fill:none;stroke:#b0b0b0;stroke-linecap:square;stroke-width:0.8;"/>
     </g>
     <g id="line2d_10">
      <g>
       <use style="stroke:#000000;stroke-width:0.8;" x="397.181818" xlink:href="#mc81434c52e" y="630"/>
      </g>
     </g>
     <g id="text_5">
      <!-- 40 -->
      <g transform="translate(390.819318 644.598438)scale(0.1 -0.1)">
       <defs>
        <path d="M 37.796875 64.3125 
L 12.890625 25.390625 
L 37.796875 25.390625 
z
M 35.203125 72.90625 
L 47.609375 72.90625 
L 47.609375 25.390625 
L 58.015625 25.390625 
L 58.015625 17.1875 
L 47.609375 17.1875 
L 47.609375 0 
L 37.796875 0 
L 37.796875 17.1875 
L 4.890625 17.1875 
L 4.890625 26.703125 
z
" id="DejaVuSans-52"/>
       </defs>
       <use xlink:href="#DejaVuSans-52"/>
       <use x="63.623047" xlink:href="#DejaVuSans-48"/>
      </g>
     </g>
    </g>
    <g id="xtick_6">
     <g id="line2d_11">
      <path clip-path="url(#paf9a2cf90a)" d="M 467.636364 630 
L 467.636364 86.4 
" style="fill:none;stroke:#b0b0b0;stroke-linecap:square;stroke-width:0.8;"/>
     </g>
     <g id="line2d_12">
      <g>
       <use style="stroke:#000000;stroke-width:0.8;" x="467.636364" xlink:href="#mc81434c52e" y="630"/>
      </g>
     </g>
     <g id="text_6">
      <!-- 50 -->
      <g transform="translate(461.273864 644.598438)scale(0.1 -0.1)">
       <defs>
        <path d="M 10.796875 72.90625 
L 49.515625 72.90625 
L 49.515625 64.59375 
L 19.828125 64.59375 
L 19.828125 46.734375 
Q 21.96875 47.46875 24.109375 47.828125 
Q 26.265625 48.1875 28.421875 48.1875 
Q 40.625 48.1875 47.75 41.5 
Q 54.890625 34.8125 54.890625 23.390625 
Q 54.890625 11.625 47.5625 5.09375 
Q 40.234375 -1.421875 26.90625 -1.421875 
Q 22.3125 -1.421875 17.546875 -0.640625 
Q 12.796875 0.140625 7.71875 1.703125 
L 7.71875 11.625 
Q 12.109375 9.234375 16.796875 8.0625 
Q 21.484375 6.890625 26.703125 6.890625 
Q 35.15625 6.890625 40.078125 11.328125 
Q 45.015625 15.765625 45.015625 23.390625 
Q 45.015625 31 40.078125 35.4375 
Q 35.15625 39.890625 26.703125 39.890625 
Q 22.75 39.890625 18.8125 39.015625 
Q 14.890625 38.140625 10.796875 36.28125 
z
" id="DejaVuSans-53"/>
       </defs>
       <use xlink:href="#DejaVuSans-53"/>
       <use x="63.623047" xlink:href="#DejaVuSans-48"/>
      </g>
     </g>
    </g>
    <g id="xtick_7">
     <g id="line2d_13">
      <path clip-path="url(#paf9a2cf90a)" d="M 538.090909 630 
L 538.090909 86.4 
" style="fill:none;stroke:#b0b0b0;stroke-linecap:square;stroke-width:0.8;"/>
     </g>
     <g id="line2d_14">
      <g>
       <use style="stroke:#000000;stroke-width:0.8;" x="538.090909" xlink:href="#mc81434c52e" y="630"/>
      </g>
     </g>
     <g id="text_7">
      <!-- 60 -->
      <g transform="translate(531.728409 644.598438)scale(0.1 -0.1)">
       <defs>
        <path d="M 33.015625 40.375 
Q 26.375 40.375 22.484375 35.828125 
Q 18.609375 31.296875 18.609375 23.390625 
Q 18.609375 15.53125 22.484375 10.953125 
Q 26.375 6.390625 33.015625 6.390625 
Q 39.65625 6.390625 43.53125 10.953125 
Q 47.40625 15.53125 47.40625 23.390625 
Q 47.40625 31.296875 43.53125 35.828125 
Q 39.65625 40.375 33.015625 40.375 
z
M 52.59375 71.296875 
L 52.59375 62.3125 
Q 48.875 64.0625 45.09375 64.984375 
Q 41.3125 65.921875 37.59375 65.921875 
Q 27.828125 65.921875 22.671875 59.328125 
Q 17.53125 52.734375 16.796875 39.40625 
Q 19.671875 43.65625 24.015625 45.921875 
Q 28.375 48.1875 33.59375 48.1875 
Q 44.578125 48.1875 50.953125 41.515625 
Q 57.328125 34.859375 57.328125 23.390625 
Q 57.328125 12.15625 50.6875 5.359375 
Q 44.046875 -1.421875 33.015625 -1.421875 
Q 20.359375 -1.421875 13.671875 8.265625 
Q 6.984375 17.96875 6.984375 36.375 
Q 6.984375 53.65625 15.1875 63.9375 
Q 23.390625 74.21875 37.203125 74.21875 
Q 40.921875 74.21875 44.703125 73.484375 
Q 48.484375 72.75 52.59375 71.296875 
z
" id="DejaVuSans-54"/>
       </defs>
       <use xlink:href="#DejaVuSans-54"/>
       <use x="63.623047" xlink:href="#DejaVuSans-48"/>
      </g>
     </g>
    </g>
    <g id="xtick_8">
     <g id="line2d_15">
      <path clip-path="url(#paf9a2cf90a)" d="M 608.545455 630 
L 608.545455 86.4 
" style="fill:none;stroke:#b0b0b0;stroke-linecap:square;stroke-width:0.8;"/>
     </g>
     <g id="line2d_16">
      <g>
       <use style="stroke:#000000;stroke-width:0.8;" x="608.545455" xlink:href="#mc81434c52e" y="630"/>
      </g>
     </g>
     <g id="text_8">
      <!-- 70 -->
      <g transform="translate(602.182955 644.598438)scale(0.1 -0.1)">
       <defs>
        <path d="M 8.203125 72.90625 
L 55.078125 72.90625 
L 55.078125 68.703125 
L 28.609375 0 
L 18.3125 0 
L 43.21875 64.59375 
L 8.203125 64.59375 
z
" id="DejaVuSans-55"/>
       </defs>
       <use xlink:href="#DejaVuSans-55"/>
       <use x="63.623047" xlink:href="#DejaVuSans-48"/>
      </g>
     </g>
    </g>
    <g id="text_9">
     <!-- Days -->
     <g transform="translate(356.521875 658.276562)scale(0.1 -0.1)">
      <defs>
       <path d="M 19.671875 64.796875 
L 19.671875 8.109375 
L 31.59375 8.109375 
Q 46.6875 8.109375 53.6875 14.9375 
Q 60.6875 21.78125 60.6875 36.53125 
Q 60.6875 51.171875 53.6875 57.984375 
Q 46.6875 64.796875 31.59375 64.796875 
z
M 9.8125 72.90625 
L 30.078125 72.90625 
Q 51.265625 72.90625 61.171875 64.09375 
Q 71.09375 55.28125 71.09375 36.53125 
Q 71.09375 17.671875 61.125 8.828125 
Q 51.171875 0 30.078125 0 
L 9.8125 0 
z
" id="DejaVuSans-68"/>
       <path d="M 34.28125 27.484375 
Q 23.390625 27.484375 19.1875 25 
Q 14.984375 22.515625 14.984375 16.5 
Q 14.984375 11.71875 18.140625 8.90625 
Q 21.296875 6.109375 26.703125 6.109375 
Q 34.1875 6.109375 38.703125 11.40625 
Q 43.21875 16.703125 43.21875 25.484375 
L 43.21875 27.484375 
z
M 52.203125 31.203125 
L 52.203125 0 
L 43.21875 0 
L 43.21875 8.296875 
Q 40.140625 3.328125 35.546875 0.953125 
Q 30.953125 -1.421875 24.3125 -1.421875 
Q 15.921875 -1.421875 10.953125 3.296875 
Q 6 8.015625 6 15.921875 
Q 6 25.140625 12.171875 29.828125 
Q 18.359375 34.515625 30.609375 34.515625 
L 43.21875 34.515625 
L 43.21875 35.40625 
Q 43.21875 41.609375 39.140625 45 
Q 35.0625 48.390625 27.6875 48.390625 
Q 23 48.390625 18.546875 47.265625 
Q 14.109375 46.140625 10.015625 43.890625 
L 10.015625 52.203125 
Q 14.9375 54.109375 19.578125 55.046875 
Q 24.21875 56 28.609375 56 
Q 40.484375 56 46.34375 49.84375 
Q 52.203125 43.703125 52.203125 31.203125 
z
" id="DejaVuSans-97"/>
       <path d="M 32.171875 -5.078125 
Q 28.375 -14.84375 24.75 -17.8125 
Q 21.140625 -20.796875 15.09375 -20.796875 
L 7.90625 -20.796875 
L 7.90625 -13.28125 
L 13.1875 -13.28125 
Q 16.890625 -13.28125 18.9375 -11.515625 
Q 21 -9.765625 23.484375 -3.21875 
L 25.09375 0.875 
L 2.984375 54.6875 
L 12.5 54.6875 
L 29.59375 11.921875 
L 46.6875 54.6875 
L 56.203125 54.6875 
z
" id="DejaVuSans-121"/>
       <path d="M 44.28125 53.078125 
L 44.28125 44.578125 
Q 40.484375 46.53125 36.375 47.5 
Q 32.28125 48.484375 27.875 48.484375 
Q 21.1875 48.484375 17.84375 46.4375 
Q 14.5 44.390625 14.5 40.28125 
Q 14.5 37.15625 16.890625 35.375 
Q 19.28125 33.59375 26.515625 31.984375 
L 29.59375 31.296875 
Q 39.15625 29.25 43.1875 25.515625 
Q 47.21875 21.78125 47.21875 15.09375 
Q 47.21875 7.46875 41.1875 3.015625 
Q 35.15625 -1.421875 24.609375 -1.421875 
Q 20.21875 -1.421875 15.453125 -0.5625 
Q 10.6875 0.296875 5.421875 2 
L 5.421875 11.28125 
Q 10.40625 8.6875 15.234375 7.390625 
Q 20.0625 6.109375 24.8125 6.109375 
Q 31.15625 6.109375 34.5625 8.28125 
Q 37.984375 10.453125 37.984375 14.40625 
Q 37.984375 18.0625 35.515625 20.015625 
Q 33.0625 21.96875 24.703125 23.78125 
L 21.578125 24.515625 
Q 13.234375 26.265625 9.515625 29.90625 
Q 5.8125 33.546875 5.8125 39.890625 
Q 5.8125 47.609375 11.28125 51.796875 
Q 16.75 56 26.8125 56 
Q 31.78125 56 36.171875 55.265625 
Q 40.578125 54.546875 44.28125 53.078125 
z
" id="DejaVuSans-115"/>
      </defs>
      <use xlink:href="#DejaVuSans-68"/>
      <use x="77.001953" xlink:href="#DejaVuSans-97"/>
      <use x="138.28125" xlink:href="#DejaVuSans-121"/>
      <use x="197.460938" xlink:href="#DejaVuSans-115"/>
     </g>
    </g>
   </g>
   <g id="matplotlib.axis_2">
    <g id="ytick_1">
     <g id="line2d_17">
      <path clip-path="url(#paf9a2cf90a)" d="M 90 613.721983 
L 648 613.721983 
" style="fill:none;stroke:#b0b0b0;stroke-linecap:square;stroke-width:0.8;"/>
     </g>
     <g id="line2d_18">
      <defs>
       <path d="M 0 0 
L -3.5 0 
" id="m78c1e38c08" style="stroke:#000000;stroke-width:0.8;"/>
      </defs>
      <g>
       <use style="stroke:#000000;stroke-width:0.8;" x="90" xlink:href="#m78c1e38c08" y="613.721983"/>
      </g>
     </g>
     <g id="text_10">
      <!-- 0 -->
      <g transform="translate(76.6375 617.521202)scale(0.1 -0.1)">
       <use xlink:href="#DejaVuSans-48"/>
      </g>
     </g>
    </g>
    <g id="ytick_2">
     <g id="line2d_19">
      <path clip-path="url(#paf9a2cf90a)" d="M 90 493.278064 
L 648 493.278064 
" style="fill:none;stroke:#b0b0b0;stroke-linecap:square;stroke-width:0.8;"/>
     </g>
     <g id="line2d_20">
      <g>
       <use style="stroke:#000000;stroke-width:0.8;" x="90" xlink:href="#m78c1e38c08" y="493.278064"/>
      </g>
     </g>
     <g id="text_11">
      <!-- 500 -->
      <g transform="translate(63.9125 497.077282)scale(0.1 -0.1)">
       <use xlink:href="#DejaVuSans-53"/>
       <use x="63.623047" xlink:href="#DejaVuSans-48"/>
       <use x="127.246094" xlink:href="#DejaVuSans-48"/>
      </g>
     </g>
    </g>
    <g id="ytick_3">
     <g id="line2d_21">
      <path clip-path="url(#paf9a2cf90a)" d="M 90 372.834144 
L 648 372.834144 
" style="fill:none;stroke:#b0b0b0;stroke-linecap:square;stroke-width:0.8;"/>
     </g>
     <g id="line2d_22">
      <g>
       <use style="stroke:#000000;stroke-width:0.8;" x="90" xlink:href="#m78c1e38c08" y="372.834144"/>
      </g>
     </g>
     <g id="text_12">
      <!-- 1000 -->
      <g transform="translate(57.55 376.633362)scale(0.1 -0.1)">
       <use xlink:href="#DejaVuSans-49"/>
       <use x="63.623047" xlink:href="#DejaVuSans-48"/>
       <use x="127.246094" xlink:href="#DejaVuSans-48"/>
       <use x="190.869141" xlink:href="#DejaVuSans-48"/>
      </g>
     </g>
    </g>
    <g id="ytick_4">
     <g id="line2d_23">
      <path clip-path="url(#paf9a2cf90a)" d="M 90 252.390224 
L 648 252.390224 
" style="fill:none;stroke:#b0b0b0;stroke-linecap:square;stroke-width:0.8;"/>
     </g>
     <g id="line2d_24">
      <g>
       <use style="stroke:#000000;stroke-width:0.8;" x="90" xlink:href="#m78c1e38c08" y="252.390224"/>
      </g>
     </g>
     <g id="text_13">
      <!-- 1500 -->
      <g transform="translate(57.55 256.189443)scale(0.1 -0.1)">
       <use xlink:href="#DejaVuSans-49"/>
       <use x="63.623047" xlink:href="#DejaVuSans-53"/>
       <use x="127.246094" xlink:href="#DejaVuSans-48"/>
       <use x="190.869141" xlink:href="#DejaVuSans-48"/>
      </g>
     </g>
    </g>
    <g id="ytick_5">
     <g id="line2d_25">
      <path clip-path="url(#paf9a2cf90a)" d="M 90 131.946304 
L 648 131.946304 
" style="fill:none;stroke:#b0b0b0;stroke-linecap:square;stroke-width:0.8;"/>
     </g>
     <g id="line2d_26">
      <g>
       <use style="stroke:#000000;stroke-width:0.8;" x="90" xlink:href="#m78c1e38c08" y="131.946304"/>
      </g>
     </g>
     <g id="text_14">
      <!-- 2000 -->
      <g transform="translate(57.55 135.745523)scale(0.1 -0.1)">
       <use xlink:href="#DejaVuSans-50"/>
       <use x="63.623047" xlink:href="#DejaVuSans-48"/>
       <use x="127.246094" xlink:href="#DejaVuSans-48"/>
       <use x="190.869141" xlink:href="#DejaVuSans-48"/>
      </g>
     </g>
    </g>
    <g id="text_15">
     <!-- Cumulative cases -->
     <g transform="translate(51.470312 402.425781)rotate(-90)scale(0.1 -0.1)">
      <defs>
       <path d="M 64.40625 67.28125 
L 64.40625 56.890625 
Q 59.421875 61.53125 53.78125 63.8125 
Q 48.140625 66.109375 41.796875 66.109375 
Q 29.296875 66.109375 22.65625 58.46875 
Q 16.015625 50.828125 16.015625 36.375 
Q 16.015625 21.96875 22.65625 14.328125 
Q 29.296875 6.6875 41.796875 6.6875 
Q 48.140625 6.6875 53.78125 8.984375 
Q 59.421875 11.28125 64.40625 15.921875 
L 64.40625 5.609375 
Q 59.234375 2.09375 53.4375 0.328125 
Q 47.65625 -1.421875 41.21875 -1.421875 
Q 24.65625 -1.421875 15.125 8.703125 
Q 5.609375 18.84375 5.609375 36.375 
Q 5.609375 53.953125 15.125 64.078125 
Q 24.65625 74.21875 41.21875 74.21875 
Q 47.75 74.21875 53.53125 72.484375 
Q 59.328125 70.75 64.40625 67.28125 
z
" id="DejaVuSans-67"/>
       <path d="M 8.5 21.578125 
L 8.5 54.6875 
L 17.484375 54.6875 
L 17.484375 21.921875 
Q 17.484375 14.15625 20.5 10.265625 
Q 23.53125 6.390625 29.59375 6.390625 
Q 36.859375 6.390625 41.078125 11.03125 
Q 45.3125 15.671875 45.3125 23.6875 
L 45.3125 54.6875 
L 54.296875 54.6875 
L 54.296875 0 
L 45.3125 0 
L 45.3125 8.40625 
Q 42.046875 3.421875 37.71875 1 
Q 33.40625 -1.421875 27.6875 -1.421875 
Q 18.265625 -1.421875 13.375 4.4375 
Q 8.5 10.296875 8.5 21.578125 
z
M 31.109375 56 
z
" id="DejaVuSans-117"/>
       <path d="M 52 44.1875 
Q 55.375 50.25 60.0625 53.125 
Q 64.75 56 71.09375 56 
Q 79.640625 56 84.28125 50.015625 
Q 88.921875 44.046875 88.921875 33.015625 
L 88.921875 0 
L 79.890625 0 
L 79.890625 32.71875 
Q 79.890625 40.578125 77.09375 44.375 
Q 74.3125 48.1875 68.609375 48.1875 
Q 61.625 48.1875 57.5625 43.546875 
Q 53.515625 38.921875 53.515625 30.90625 
L 53.515625 0 
L 44.484375 0 
L 44.484375 32.71875 
Q 44.484375 40.625 41.703125 44.40625 
Q 38.921875 48.1875 33.109375 48.1875 
Q 26.21875 48.1875 22.15625 43.53125 
Q 18.109375 38.875 18.109375 30.90625 
L 18.109375 0 
L 9.078125 0 
L 9.078125 54.6875 
L 18.109375 54.6875 
L 18.109375 46.1875 
Q 21.1875 51.21875 25.484375 53.609375 
Q 29.78125 56 35.6875 56 
Q 41.65625 56 45.828125 52.96875 
Q 50 49.953125 52 44.1875 
z
" id="DejaVuSans-109"/>
       <path d="M 9.421875 75.984375 
L 18.40625 75.984375 
L 18.40625 0 
L 9.421875 0 
z
" id="DejaVuSans-108"/>
       <path d="M 18.3125 70.21875 
L 18.3125 54.6875 
L 36.8125 54.6875 
L 36.8125 47.703125 
L 18.3125 47.703125 
L 18.3125 18.015625 
Q 18.3125 11.328125 20.140625 9.421875 
Q 21.96875 7.515625 27.59375 7.515625 
L 36.8125 7.515625 
L 36.8125 0 
L 27.59375 0 
Q 17.1875 0 13.234375 3.875 
Q 9.28125 7.765625 9.28125 18.015625 
L 9.28125 47.703125 
L 2.6875 47.703125 
L 2.6875 54.6875 
L 9.28125 54.6875 
L 9.28125 70.21875 
z
" id="DejaVuSans-116"/>
       <path d="M 9.421875 54.6875 
L 18.40625 54.6875 
L 18.40625 0 
L 9.421875 0 
z
M 9.421875 75.984375 
L 18.40625 75.984375 
L 18.40625 64.59375 
L 9.421875 64.59375 
z
" id="DejaVuSans-105"/>
       <path d="M 2.984375 54.6875 
L 12.5 54.6875 
L 29.59375 8.796875 
L 46.6875 54.6875 
L 56.203125 54.6875 
L 35.6875 0 
L 23.484375 0 
z
" id="DejaVuSans-118"/>
       <path d="M 56.203125 29.59375 
L 56.203125 25.203125 
L 14.890625 25.203125 
Q 15.484375 15.921875 20.484375 11.0625 
Q 25.484375 6.203125 34.421875 6.203125 
Q 39.59375 6.203125 44.453125 7.46875 
Q 49.3125 8.734375 54.109375 11.28125 
L 54.109375 2.78125 
Q 49.265625 0.734375 44.1875 -0.34375 
Q 39.109375 -1.421875 33.890625 -1.421875 
Q 20.796875 -1.421875 13.15625 6.1875 
Q 5.515625 13.8125 5.515625 26.8125 
Q 5.515625 40.234375 12.765625 48.109375 
Q 20.015625 56 32.328125 56 
Q 43.359375 56 49.78125 48.890625 
Q 56.203125 41.796875 56.203125 29.59375 
z
M 47.21875 32.234375 
Q 47.125 39.59375 43.09375 43.984375 
Q 39.0625 48.390625 32.421875 48.390625 
Q 24.90625 48.390625 20.390625 44.140625 
Q 15.875 39.890625 15.1875 32.171875 
z
" id="DejaVuSans-101"/>
       <path id="DejaVuSans-32"/>
       <path d="M 48.78125 52.59375 
L 48.78125 44.1875 
Q 44.96875 46.296875 41.140625 47.34375 
Q 37.3125 48.390625 33.40625 48.390625 
Q 24.65625 48.390625 19.8125 42.84375 
Q 14.984375 37.3125 14.984375 27.296875 
Q 14.984375 17.28125 19.8125 11.734375 
Q 24.65625 6.203125 33.40625 6.203125 
Q 37.3125 6.203125 41.140625 7.25 
Q 44.96875 8.296875 48.78125 10.40625 
L 48.78125 2.09375 
Q 45.015625 0.34375 40.984375 -0.53125 
Q 36.96875 -1.421875 32.421875 -1.421875 
Q 20.0625 -1.421875 12.78125 6.34375 
Q 5.515625 14.109375 5.515625 27.296875 
Q 5.515625 40.671875 12.859375 48.328125 
Q 20.21875 56 33.015625 56 
Q 37.15625 56 41.109375 55.140625 
Q 45.0625 54.296875 48.78125 52.59375 
z
" id="DejaVuSans-99"/>
      </defs>
      <use xlink:href="#DejaVuSans-67"/>
      <use x="69.824219" xlink:href="#DejaVuSans-117"/>
      <use x="133.203125" xlink:href="#DejaVuSans-109"/>
      <use x="230.615234" xlink:href="#DejaVuSans-117"/>
      <use x="293.994141" xlink:href="#DejaVuSans-108"/>
      <use x="321.777344" xlink:href="#DejaVuSans-97"/>
      <use x="383.056641" xlink:href="#DejaVuSans-116"/>
      <use x="422.265625" xlink:href="#DejaVuSans-105"/>
      <use x="450.048828" xlink:href="#DejaVuSans-118"/>
      <use x="509.228516" xlink:href="#DejaVuSans-101"/>
      <use x="570.751953" xlink:href="#DejaVuSans-32"/>
      <use x="602.539062" xlink:href="#DejaVuSans-99"/>
      <use x="657.519531" xlink:href="#DejaVuSans-97"/>
      <use x="718.798828" xlink:href="#DejaVuSans-115"/>
      <use x="770.898438" xlink:href="#DejaVuSans-101"/>
      <use x="832.421875" xlink:href="#DejaVuSans-115"/>
     </g>
    </g>
   </g>
   <g id="line2d_27">
    <path clip-path="url(#paf9a2cf90a)" d="M 115.363636 605.290909 
L 122.409091 604.163829 
L 129.454545 602.889473 
L 136.5 601.449558 
L 143.545455 599.823802 
L 150.590909 597.989781 
L 157.636364 595.922801 
L 164.681818 593.595793 
L 171.727273 590.979234 
L 178.772727 588.041123 
L 185.818182 584.747013 
L 192.863636 581.060133 
L 199.909091 576.941606 
L 206.954545 572.350802 
L 214 567.245841 
L 221.045455 561.584281 
L 228.090909 555.324004 
L 235.136364 548.424322 
L 242.181818 540.847317 
L 249.227273 532.559397 
L 256.272727 523.533051 
L 263.318182 513.748756 
L 270.363636 503.196954 
L 277.409091 491.879997 
L 284.454545 479.813939 
L 291.5 467.030005 
L 298.545455 453.575591 
L 305.590909 439.514644 
L 312.636364 424.927274 
L 319.681818 409.908548 
L 326.727273 394.566424 
L 333.772727 379.018901 
L 340.818182 363.390524 
L 347.863636 347.80845 
L 354.909091 332.398337 
L 361.954545 317.280338 
L 369 302.565458 
L 376.045455 288.352513 
L 383.090909 274.725847 
L 390.136364 261.753879 
L 397.181818 249.488507 
L 404.227273 237.965287 
L 411.272727 227.204274 
L 418.318182 217.211388 
L 425.363636 207.980125 
L 432.409091 199.493481 
L 439.454545 191.725926 
L 446.5 184.645344 
L 453.545455 178.214831 
L 460.590909 172.394313 
L 467.636364 167.141942 
L 474.681818 162.415267 
L 481.727273 158.172179 
L 488.772727 154.371651 
L 495.818182 150.974286 
L 502.863636 147.942713 
L 509.909091 145.241837 
L 516.954545 142.838984 
L 524 140.703956 
L 531.045455 138.809022 
L 538.090909 137.128848 
L 545.136364 135.640407 
L 552.181818 134.322845 
L 559.227273 133.15735 
L 566.272727 132.126999 
L 573.318182 131.216614 
L 580.363636 130.412611 
L 587.409091 129.702856 
L 594.454545 129.076535 
L 601.5 128.524022 
L 608.545455 128.036759 
L 615.590909 127.60715 
L 622.636364 127.228459 
" style="fill:none;stroke:#1f77b4;stroke-linecap:square;stroke-width:1.5;"/>
   </g>
   <g id="line2d_28">
    <path clip-path="url(#paf9a2cf90a)" d="M 115.363636 605.290909 
L 122.409091 603.573715 
L 129.454545 601.671539 
L 136.5 599.566187 
L 143.545455 597.238077 
L 150.590909 594.666231 
L 157.636364 591.828292 
L 164.681818 588.700567 
L 171.727273 585.258128 
L 178.772727 581.474941 
L 185.818182 577.324073 
L 192.863636 572.777956 
L 199.909091 567.80873 
L 206.954545 562.388669 
L 214 556.490706 
L 221.045455 550.089039 
L 228.090909 543.159846 
L 235.136364 535.682077 
L 242.181818 527.638332 
L 249.227273 519.015783 
L 256.272727 509.807142 
L 263.318182 500.011603 
L 270.363636 489.635742 
L 277.409091 478.694303 
L 284.454545 467.210828 
L 291.5 455.218057 
L 298.545455 442.758065 
L 305.590909 429.882072 
L 312.636364 416.649916 
L 319.681818 403.129162 
L 326.727273 389.393876 
L 333.772727 375.523096 
L 340.818182 361.59906 
L 347.863636 347.705277 
L 354.909091 333.924532 
L 361.954545 320.336931 
L 369 307.018078 
L 376.045455 294.037468 
L 383.090909 281.457175 
L 390.136364 269.330865 
L 397.181818 257.70317 
L 404.227273 246.609407 
L 411.272727 236.075624 
L 418.318182 226.118941 
L 425.363636 216.748115 
L 432.409091 207.96429 
L 439.454545 199.761874 
L 446.5 192.129473 
L 453.545455 185.050852 
L 460.590909 178.50588 
L 467.636364 172.471415 
L 474.681818 166.922129 
L 481.727273 161.831236 
L 488.772727 157.171139 
L 495.818182 152.913967 
L 502.863636 149.032033 
L 509.909091 145.4982 
L 516.954545 142.286163 
L 524 139.370672 
L 531.045455 136.727683 
L 538.090909 134.334464 
L 545.136364 132.169652 
L 552.181818 130.213281 
L 559.227273 128.446776 
L 566.272727 126.852929 
L 573.318182 125.415857 
L 580.363636 124.120942 
L 587.409091 122.954777 
L 594.454545 121.905089 
L 601.5 120.960675 
L 608.545455 120.111322 
L 615.590909 119.347744 
L 622.636364 118.661504 
" style="fill:none;stroke:#ff7f0e;stroke-linecap:square;stroke-width:1.5;"/>
   </g>
   <g id="line2d_29">
    <path clip-path="url(#paf9a2cf90a)" d="M 115.363636 605.290909 
L 122.409091 603.81869 
L 129.454545 602.16842 
L 136.5 600.320196 
L 143.545455 598.252318 
L 150.590909 595.941232 
L 157.636364 593.361518 
L 164.681818 590.48591 
L 171.727273 587.285374 
L 178.772727 583.729256 
L 185.818182 579.785507 
L 192.863636 575.421018 
L 199.909091 570.602056 
L 206.954545 565.294839 
L 214 559.466245 
L 221.045455 553.084672 
L 228.090909 546.121037 
L 235.136364 538.549918 
L 242.181818 530.350797 
L 249.227273 521.509382 
L 256.272727 512.018945 
L 263.318182 501.881609 
L 270.363636 491.109496 
L 277.409091 479.725649 
L 284.454545 467.764637 
L 291.5 455.27274 
L 298.545455 442.307664 
L 305.590909 428.937737 
L 312.636364 415.240586 
L 319.681818 401.301324 
L 326.727273 387.210351 
L 333.772727 373.060866 
L 340.818182 358.946251 
L 347.863636 344.957478 
L 354.909091 331.180694 
L 361.954545 317.695122 
L 369 304.571374 
L 376.045455 291.870238 
L 383.090909 279.64197 
L 390.136364 267.926052 
L 397.181818 256.751392 
L 404.227273 246.136872 
L 411.272727 236.092174 
L 418.318182 226.618797 
L 425.363636 217.711174 
L 432.409091 209.357829 
L 439.454545 201.542515 
L 446.5 194.245282 
L 453.545455 187.443451 
L 460.590909 181.112478 
L 467.636364 175.226693 
L 474.681818 169.759924 
L 481.727273 164.686006 
L 488.772727 159.979179 
L 495.818182 155.614403 
L 502.863636 151.567583 
L 509.909091 147.815731 
L 516.954545 144.337073 
L 524 141.111102 
L 531.045455 138.118605 
L 538.090909 135.341652 
L 545.136364 132.763574 
L 552.181818 130.368917 
L 559.227273 128.143385 
L 566.272727 126.073788 
L 573.318182 124.147967 
L 580.363636 122.354737 
L 587.409091 120.683811 
L 594.454545 119.125743 
L 601.5 117.67186 
L 608.545455 116.314202 
L 615.590909 115.045468 
L 622.636364 113.858959 
" style="fill:none;stroke:#2ca02c;stroke-linecap:square;stroke-width:1.5;"/>
   </g>
   <g id="line2d_30">
    <path clip-path="url(#paf9a2cf90a)" d="M 115.363636 605.290909 
L 122.409091 603.729984 
L 129.454545 601.983241 
L 136.5 600.031268 
L 143.545455 597.85306 
L 150.590909 595.425993 
L 157.636364 592.725834 
L 164.681818 589.726791 
L 171.727273 586.401611 
L 178.772727 582.721738 
L 185.818182 578.657547 
L 192.863636 574.178658 
L 199.909091 569.254356 
L 206.954545 563.854105 
L 214 557.948185 
L 221.045455 551.508444 
L 228.090909 544.50917 
L 235.136364 536.928059 
L 242.181818 528.747278 
L 249.227273 519.954582 
L 256.272727 510.544437 
L 263.318182 500.519114 
L 270.363636 489.889663 
L 277.409091 478.676727 
L 284.454545 466.91109 
L 291.5 454.633921 
L 298.545455 441.896626 
L 305.590909 428.760294 
L 312.636364 415.294713 
L 319.681818 401.576974 
L 326.727273 387.689709 
L 333.772727 373.719061 
L 340.818182 359.752472 
L 347.863636 345.876416 
L 354.909091 332.174211 
L 361.954545 318.724017 
L 369 305.597119 
L 376.045455 292.856579 
L 383.090909 280.556283 
L 390.136364 268.740413 
L 397.181818 257.443307 
L 404.227273 246.689675 
L 411.272727 236.495111 
L 418.318182 226.86684 
L 425.363636 217.804616 
L 432.409091 209.301718 
L 439.454545 201.345983 
L 446.5 193.92082 
L 453.545455 187.006175 
L 460.590909 180.579426 
L 467.636364 174.616166 
L 474.681818 169.090902 
L 481.727273 163.977638 
L 488.772727 159.250357 
L 495.818182 154.883413 
L 502.863636 150.851839 
L 509.909091 147.131569 
L 516.954545 143.69961 
L 524 140.534149 
L 531.045455 137.614622 
L 538.090909 134.921739 
L 545.136364 132.43749 
L 552.181818 130.14512 
L 559.227273 128.029094 
L 566.272727 126.075049 
L 573.318182 124.269734 
L 580.363636 122.600948 
L 587.409091 121.057476 
L 594.454545 119.629026 
L 601.5 118.306158 
L 608.545455 117.080226 
L 615.590909 115.943316 
L 622.636364 114.888184 
" style="fill:none;stroke:#d62728;stroke-linecap:square;stroke-width:1.5;"/>
   </g>
   <g id="line2d_31">
    <path clip-path="url(#paf9a2cf90a)" d="M 115.363636 605.290909 
L 122.409091 604.757585 
L 129.454545 603.451628 
L 136.5 601.638255 
L 143.545455 599.442011 
L 150.590909 596.914995 
L 157.636364 594.071615 
L 164.681818 590.906374 
L 171.727273 587.403035 
L 178.772727 583.539431 
L 185.818182 579.290074 
L 192.863636 574.627701 
L 199.909091 569.524299 
L 206.954545 563.951939 
L 214 557.883545 
L 221.045455 551.293682 
L 228.090909 544.159407 
L 235.136364 536.461178 
L 242.181818 528.183811 
L 249.227273 519.317475 
L 256.272727 509.858675 
L 263.318182 499.811181 
L 270.363636 489.186859 
L 277.409091 478.006325 
L 284.454545 466.299387 
L 291.5 454.105203 
L 298.545455 441.472119 
L 305.590909 428.457159 
L 312.636364 415.12516 
L 319.681818 401.547566 
L 326.727273 387.800927 
L 333.772727 373.965163 
L 340.818182 360.121687 
L 347.863636 346.35146 
L 354.909091 332.733106 
L 361.954545 319.341147 
L 369 306.244469 
L 376.045455 293.505058 
L 383.090909 281.177058 
L 390.136364 269.306162 
L 397.181818 257.929327 
L 404.227273 247.074802 
L 411.272727 236.762408 
L 418.318182 227.004044 
L 425.363636 217.804356 
L 432.409091 209.161511 
L 439.454545 201.068046 
L 446.5 193.51173 
L 453.545455 186.476419 
L 460.590909 179.942863 
L 467.636364 173.889459 
L 474.681818 168.29293 
L 481.727273 163.128916 
L 488.772727 158.372494 
L 495.818182 153.998611 
L 502.863636 149.982438 
L 509.909091 146.29966 
L 516.954545 142.926702 
L 524 139.840895 
L 531.045455 137.020599 
L 538.090909 134.445284 
L 545.136364 132.095577 
L 552.181818 129.953283 
L 559.227273 128.001382 
L 566.272727 126.224012 
L 573.318182 124.606436 
L 580.363636 123.134999 
L 587.409091 121.797081 
L 594.454545 120.581045 
L 601.5 119.476179 
L 608.545455 118.472638 
L 615.590909 117.561394 
L 622.636364 116.734171 
" style="fill:none;stroke:#9467bd;stroke-linecap:square;stroke-width:1.5;"/>
   </g>
   <g id="line2d_32">
    <path clip-path="url(#paf9a2cf90a)" d="M 115.363636 605.290909 
L 122.409091 604.95417 
L 129.454545 604.016244 
L 136.5 602.55954 
L 143.545455 600.638929 
L 150.590909 598.288711 
L 157.636364 595.527786 
L 164.681818 592.363512 
L 171.727273 588.794619 
L 178.772727 584.813443 
L 185.818182 580.407677 
L 192.863636 575.56179 
L 199.909091 570.25822 
L 206.954545 564.478412 
L 214 558.203779 
L 221.045455 551.416603 
L 228.090909 544.100919 
L 235.136364 536.243386 
L 242.181818 527.834154 
L 249.227273 518.867715 
L 256.272727 509.343721 
L 263.318182 499.267754 
L 270.363636 488.652003 
L 277.409091 477.515827 
L 284.454545 465.886159 
L 291.5 453.797715 
L 298.545455 441.29298 
L 305.590909 428.421943 
L 312.636364 415.241562 
L 319.681818 401.814975 
L 326.727273 388.210447 
L 333.772727 374.500114 
L 340.818182 360.758538 
L 347.863636 347.061161 
L 354.909091 333.482704 
L 361.954545 320.095591 
L 369 306.968463 
L 376.045455 294.164856 
L 383.090909 281.742078 
L 390.136364 269.750329 
L 397.181818 258.2321 
L 404.227273 247.221825 
L 411.272727 236.745814 
L 418.318182 226.822408 
L 425.363636 217.462353 
L 432.409091 208.669336 
L 439.454545 200.44065 
L 446.5 192.767944 
L 453.545455 185.63802 
L 460.590909 179.03364 
L 467.636364 172.934321 
L 474.681818 167.317084 
L 481.727273 162.15715 
L 488.772727 157.428563 
L 495.818182 153.104747 
L 502.863636 149.158976 
L 509.909091 145.564769 
L 516.954545 142.296223 
L 524 139.32826 
L 531.045455 136.636832 
L 538.090909 134.199062 
L 545.136364 131.993337 
L 552.181818 129.99937 
L 559.227273 128.198218 
L 566.272727 126.572285 
L 573.318182 125.105297 
L 580.363636 123.78226 
L 587.409091 122.589408 
L 594.454545 121.514144 
L 601.5 120.544972 
L 608.545455 119.671427 
L 615.590909 118.884007 
L 622.636364 118.174098 
" style="fill:none;stroke:#8c564b;stroke-linecap:square;stroke-width:1.5;"/>
   </g>
   <g id="line2d_33">
    <path clip-path="url(#paf9a2cf90a)" d="M 115.363636 605.290909 
L 122.409091 604.896593 
L 129.454545 603.857681 
L 136.5 602.321639 
L 143.545455 600.371929 
L 150.590909 598.051302 
L 157.636364 595.376327 
L 164.681818 592.346552 
L 171.727273 588.950342 
L 178.772727 585.168677 
L 185.818182 580.977709 
L 192.863636 576.350583 
L 199.909091 571.258831 
L 206.954545 565.673566 
L 214 559.566567 
L 221.045455 552.911365 
L 228.090909 545.684342 
L 235.136364 537.865874 
L 242.181818 529.441485 
L 249.227273 520.403004 
L 256.272727 510.749666 
L 263.318182 500.489091 
L 270.363636 489.638097 
L 277.409091 478.223252 
L 284.454545 466.281124 
L 291.5 453.858165 
L 298.545455 441.010199 
L 305.590909 427.801515 
L 312.636364 414.303586 
L 319.681818 400.593458 
L 326.727273 386.751902 
L 333.772727 372.861416 
L 340.818182 359.004188 
L 347.863636 345.260134 
L 354.909091 331.705095 
L 361.954545 318.40929 
L 369 305.436078 
L 376.045455 292.841042 
L 383.090909 280.671439 
L 390.136364 268.965956 
L 397.181818 257.754777 
L 404.227273 247.05989 
L 411.272727 236.895597 
L 418.318182 227.269164 
L 425.363636 218.181573 
L 432.409091 209.628321 
L 439.454545 201.600226 
L 446.5 194.084226 
L 453.545455 187.064126 
L 460.590909 180.521291 
L 467.636364 174.435278 
L 474.681818 168.784382 
L 481.727273 163.546127 
L 488.772727 158.697665 
L 495.818182 154.21613 
L 502.863636 150.078909 
L 509.909091 146.263874 
L 516.954545 142.749556 
L 524 139.515275 
L 531.045455 136.54124 
L 538.090909 133.808612 
L 545.136364 131.299546 
L 552.181818 128.997204 
L 559.227273 126.88576 
L 566.272727 124.950386 
L 573.318182 123.177228 
L 580.363636 121.553375 
L 587.409091 120.066823 
L 594.454545 118.706431 
L 601.5 117.461879 
L 608.545455 116.323622 
L 615.590909 115.282845 
L 622.636364 114.331417 
" style="fill:none;stroke:#e377c2;stroke-linecap:square;stroke-width:1.5;"/>
   </g>
   <g id="line2d_34">
    <path clip-path="url(#paf9a2cf90a)" d="M 115.363636 605.290909 
L 122.409091 604.880012 
L 129.454545 603.792851 
L 136.5 602.174402 
L 143.545455 600.103045 
L 150.590909 597.616409 
L 157.636364 594.727059 
L 164.681818 591.432124 
L 171.727273 587.719298 
L 178.772727 583.570678 
L 185.818182 578.965316 
L 192.863636 573.881023 
L 199.909091 568.295741 
L 206.954545 562.188693 
L 214 555.541389 
L 221.045455 548.338589 
L 228.090909 540.569203 
L 235.136364 532.227159 
L 242.181818 523.312201 
L 249.227273 513.830598 
L 256.272727 503.79572 
L 263.318182 493.228455 
L 270.363636 482.157406 
L 277.409091 470.618872 
L 284.454545 458.656553 
L 291.5 446.321008 
L 298.545455 433.668851 
L 305.590909 420.761718 
L 312.636364 407.665047 
L 319.681818 394.446724 
L 326.727273 381.175652 
L 333.772727 367.920316 
L 340.818182 354.747402 
L 347.863636 341.720531 
L 354.909091 328.899156 
L 361.954545 316.337653 
L 369 304.084632 
L 376.045455 292.182469 
L 383.090909 280.667053 
L 390.136364 269.56774 
L 397.181818 258.907476 
L 404.227273 248.703069 
L 411.272727 238.96558 
L 418.318182 229.700795 
L 425.363636 220.909755 
L 432.409091 212.589316 
L 439.454545 204.732712 
L 446.5 197.330115 
L 453.545455 190.369166 
L 460.590909 183.835469 
L 467.636364 177.71305 
L 474.681818 171.984767 
L 481.727273 166.63267 
L 488.772727 161.638321 
L 495.818182 156.983067 
L 502.863636 152.648266 
L 509.909091 148.615482 
L 516.954545 144.866639 
L 524 141.384145 
L 531.045455 138.150989 
L 538.090909 135.150812 
L 545.136364 132.367961 
L 552.181818 129.787523 
L 559.227273 127.395338 
L 566.272727 125.178015 
L 573.318182 123.122924 
L 580.363636 121.218182 
L 587.409091 119.452642 
L 594.454545 117.815866 
L 601.5 116.298102 
L 608.545455 114.89025 
L 615.590909 113.583839 
L 622.636364 112.37099 
" style="fill:none;stroke:#7f7f7f;stroke-linecap:square;stroke-width:1.5;"/>
   </g>
   <g id="line2d_35">
    <path clip-path="url(#paf9a2cf90a)" d="M 115.363636 605.290909 
L 122.409091 605.030835 
L 129.454545 604.299253 
L 136.5 603.147164 
L 143.545455 601.602482 
L 150.590909 599.675873 
L 157.636364 597.364953 
L 164.681818 594.657377 
L 171.727273 591.533189 
L 178.772727 587.966688 
L 185.818182 583.928014 
L 192.863636 579.384588 
L 199.909091 574.302514 
L 206.954545 568.648001 
L 214 562.388871 
L 221.045455 555.496148 
L 228.090909 547.94572 
L 235.136364 539.720045 
L 242.181818 530.809808 
L 249.227273 521.215467 
L 256.272727 510.948548 
L 263.318182 500.032588 
L 270.363636 488.503621 
L 277.409091 476.410097 
L 284.454545 463.812207 
L 291.5 450.780603 
L 298.545455 437.394562 
L 305.590909 423.73972 
L 312.636364 409.905502 
L 319.681818 395.982448 
L 326.727273 382.059596 
L 333.772727 368.222095 
L 340.818182 354.549183 
L 347.863636 341.112595 
L 354.909091 327.975473 
L 361.954545 315.191733 
L 369 302.805885 
L 376.045455 290.853219 
L 383.090909 279.360277 
L 390.136364 268.345546 
L 397.181818 257.82028 
L 404.227273 247.78939 
L 411.272727 238.252352 
L 418.318182 229.204083 
L 425.363636 220.635765 
L 432.409091 212.535597 
L 439.454545 204.889461 
L 446.5 197.681506 
L 453.545455 190.894648 
L 460.590909 184.510992 
L 467.636364 178.512183 
L 474.681818 172.879692 
L 481.727273 167.595049 
L 488.772727 162.640029 
L 495.818182 157.996789 
L 502.863636 153.647985 
L 509.909091 149.576845 
L 516.954545 145.767231 
L 524 142.203677 
L 531.045455 138.871405 
L 538.090909 135.756342 
L 545.136364 132.845119 
L 552.181818 130.125057 
L 559.227273 127.584164 
L 566.272727 125.211105 
L 573.318182 122.995191 
L 580.363636 120.926349 
L 587.409091 118.995099 
L 594.454545 117.192527 
L 601.5 115.51026 
L 608.545455 113.940437 
L 615.590909 112.475685 
L 622.636364 111.109091 
" style="fill:none;stroke:#bcbd22;stroke-linecap:square;stroke-width:1.5;"/>
   </g>
   <g id="line2d_36">
    <path clip-path="url(#paf9a2cf90a)" d="M 115.363636 605.290909 
L 122.409091 602.882031 
L 129.454545 602.882031 
L 136.5 602.641143 
L 143.545455 602.641143 
L 150.590909 601.195816 
L 157.636364 599.750489 
L 164.681818 595.896283 
L 171.727273 584.815443 
L 178.772727 584.815443 
L 185.818182 584.815443 
L 192.863636 576.14348 
L 199.909091 566.989743 
L 206.954545 564.821752 
L 214 564.821752 
L 221.045455 556.872453 
L 228.090909 556.872453 
L 235.136364 543.86451 
L 242.181818 543.86451 
L 249.227273 543.86451 
L 256.272727 543.86451 
L 263.318182 497.854933 
L 270.363636 478.10213 
L 277.409091 455.940448 
L 284.454545 455.940448 
L 291.5 419.566385 
L 298.545455 419.566385 
L 305.590909 374.279471 
L 312.636364 374.279471 
L 319.681818 374.279471 
L 326.727273 374.279471 
L 333.772727 374.279471 
L 340.818182 374.279471 
L 347.863636 374.279471 
L 354.909091 374.279471 
L 361.954545 374.279471 
L 369 374.279471 
L 376.045455 374.279471 
L 383.090909 296.472698 
L 390.136364 227.337888 
L 397.181818 227.337888 
L 404.227273 227.337888 
L 411.272727 211.439291 
L 418.318182 211.439291 
L 425.363636 205.898871 
L 432.409091 205.898871 
L 439.454545 205.898871 
L 446.5 185.90518 
L 453.545455 176.99233 
L 460.590909 172.897237 
L 467.636364 164.70705 
L 474.681818 160.371069 
L 481.727273 157.962191 
L 488.772727 152.180882 
L 495.818182 148.808453 
L 502.863636 145.917799 
L 509.909091 145.917799 
L 516.954545 145.917799 
L 524 145.917799 
L 531.045455 134.59607 
L 538.090909 134.59607 
L 545.136364 130.260089 
L 552.181818 126.887659 
L 559.227273 126.887659 
L 566.272727 126.887659 
L 573.318182 126.887659 
L 580.363636 126.887659 
L 587.409091 126.887659 
L 594.454545 126.887659 
L 601.5 126.887659 
L 608.545455 126.887659 
L 615.590909 126.887659 
L 622.636364 126.887659 
" style="fill:none;stroke:#17becf;stroke-dasharray:14.8,6.4;stroke-dashoffset:0;stroke-width:4;"/>
   </g>
   <g id="patch_3">
    <path d="M 90 630 
L 90 86.4 
" style="fill:none;stroke:#000000;stroke-linecap:square;stroke-linejoin:miter;stroke-width:0.8;"/>
   </g>
   <g id="patch_4">
    <path d="M 648 630 
L 648 86.4 
" style="fill:none;stroke:#000000;stroke-linecap:square;stroke-linejoin:miter;stroke-width:0.8;"/>
   </g>
   <g id="patch_5">
    <path d="M 90 630 
L 648 630 
" style="fill:none;stroke:#000000;stroke-linecap:square;stroke-linejoin:miter;stroke-width:0.8;"/>
   </g>
   <g id="patch_6">
    <path d="M 90 86.4 
L 648 86.4 
" style="fill:none;stroke:#000000;stroke-linecap:square;stroke-linejoin:miter;stroke-width:0.8;"/>
   </g>
   <g id="text_16">
    <!-- South Sudan relative err =  -->
    <g transform="translate(286.950938 80.4)scale(0.12 -0.12)">
     <defs>
      <path d="M 53.515625 70.515625 
L 53.515625 60.890625 
Q 47.90625 63.578125 42.921875 64.890625 
Q 37.9375 66.21875 33.296875 66.21875 
Q 25.25 66.21875 20.875 63.09375 
Q 16.5 59.96875 16.5 54.203125 
Q 16.5 49.359375 19.40625 46.890625 
Q 22.3125 44.4375 30.421875 42.921875 
L 36.375 41.703125 
Q 47.40625 39.59375 52.65625 34.296875 
Q 57.90625 29 57.90625 20.125 
Q 57.90625 9.515625 50.796875 4.046875 
Q 43.703125 -1.421875 29.984375 -1.421875 
Q 24.8125 -1.421875 18.96875 -0.25 
Q 13.140625 0.921875 6.890625 3.21875 
L 6.890625 13.375 
Q 12.890625 10.015625 18.65625 8.296875 
Q 24.421875 6.59375 29.984375 6.59375 
Q 38.421875 6.59375 43.015625 9.90625 
Q 47.609375 13.234375 47.609375 19.390625 
Q 47.609375 24.75 44.3125 27.78125 
Q 41.015625 30.8125 33.5 32.328125 
L 27.484375 33.5 
Q 16.453125 35.6875 11.515625 40.375 
Q 6.59375 45.0625 6.59375 53.421875 
Q 6.59375 63.09375 13.40625 68.65625 
Q 20.21875 74.21875 32.171875 74.21875 
Q 37.3125 74.21875 42.625 73.28125 
Q 47.953125 72.359375 53.515625 70.515625 
z
" id="DejaVuSans-83"/>
      <path d="M 30.609375 48.390625 
Q 23.390625 48.390625 19.1875 42.75 
Q 14.984375 37.109375 14.984375 27.296875 
Q 14.984375 17.484375 19.15625 11.84375 
Q 23.34375 6.203125 30.609375 6.203125 
Q 37.796875 6.203125 41.984375 11.859375 
Q 46.1875 17.53125 46.1875 27.296875 
Q 46.1875 37.015625 41.984375 42.703125 
Q 37.796875 48.390625 30.609375 48.390625 
z
M 30.609375 56 
Q 42.328125 56 49.015625 48.375 
Q 55.71875 40.765625 55.71875 27.296875 
Q 55.71875 13.875 49.015625 6.21875 
Q 42.328125 -1.421875 30.609375 -1.421875 
Q 18.84375 -1.421875 12.171875 6.21875 
Q 5.515625 13.875 5.515625 27.296875 
Q 5.515625 40.765625 12.171875 48.375 
Q 18.84375 56 30.609375 56 
z
" id="DejaVuSans-111"/>
      <path d="M 54.890625 33.015625 
L 54.890625 0 
L 45.90625 0 
L 45.90625 32.71875 
Q 45.90625 40.484375 42.875 44.328125 
Q 39.84375 48.1875 33.796875 48.1875 
Q 26.515625 48.1875 22.3125 43.546875 
Q 18.109375 38.921875 18.109375 30.90625 
L 18.109375 0 
L 9.078125 0 
L 9.078125 75.984375 
L 18.109375 75.984375 
L 18.109375 46.1875 
Q 21.34375 51.125 25.703125 53.5625 
Q 30.078125 56 35.796875 56 
Q 45.21875 56 50.046875 50.171875 
Q 54.890625 44.34375 54.890625 33.015625 
z
" id="DejaVuSans-104"/>
      <path d="M 45.40625 46.390625 
L 45.40625 75.984375 
L 54.390625 75.984375 
L 54.390625 0 
L 45.40625 0 
L 45.40625 8.203125 
Q 42.578125 3.328125 38.25 0.953125 
Q 33.9375 -1.421875 27.875 -1.421875 
Q 17.96875 -1.421875 11.734375 6.484375 
Q 5.515625 14.40625 5.515625 27.296875 
Q 5.515625 40.1875 11.734375 48.09375 
Q 17.96875 56 27.875 56 
Q 33.9375 56 38.25 53.625 
Q 42.578125 51.265625 45.40625 46.390625 
z
M 14.796875 27.296875 
Q 14.796875 17.390625 18.875 11.75 
Q 22.953125 6.109375 30.078125 6.109375 
Q 37.203125 6.109375 41.296875 11.75 
Q 45.40625 17.390625 45.40625 27.296875 
Q 45.40625 37.203125 41.296875 42.84375 
Q 37.203125 48.484375 30.078125 48.484375 
Q 22.953125 48.484375 18.875 42.84375 
Q 14.796875 37.203125 14.796875 27.296875 
z
" id="DejaVuSans-100"/>
      <path d="M 54.890625 33.015625 
L 54.890625 0 
L 45.90625 0 
L 45.90625 32.71875 
Q 45.90625 40.484375 42.875 44.328125 
Q 39.84375 48.1875 33.796875 48.1875 
Q 26.515625 48.1875 22.3125 43.546875 
Q 18.109375 38.921875 18.109375 30.90625 
L 18.109375 0 
L 9.078125 0 
L 9.078125 54.6875 
L 18.109375 54.6875 
L 18.109375 46.1875 
Q 21.34375 51.125 25.703125 53.5625 
Q 30.078125 56 35.796875 56 
Q 45.21875 56 50.046875 50.171875 
Q 54.890625 44.34375 54.890625 33.015625 
z
" id="DejaVuSans-110"/>
      <path d="M 41.109375 46.296875 
Q 39.59375 47.171875 37.8125 47.578125 
Q 36.03125 48 33.890625 48 
Q 26.265625 48 22.1875 43.046875 
Q 18.109375 38.09375 18.109375 28.8125 
L 18.109375 0 
L 9.078125 0 
L 9.078125 54.6875 
L 18.109375 54.6875 
L 18.109375 46.1875 
Q 20.953125 51.171875 25.484375 53.578125 
Q 30.03125 56 36.53125 56 
Q 37.453125 56 38.578125 55.875 
Q 39.703125 55.765625 41.0625 55.515625 
z
" id="DejaVuSans-114"/>
      <path d="M 10.59375 45.40625 
L 73.1875 45.40625 
L 73.1875 37.203125 
L 10.59375 37.203125 
z
M 10.59375 25.484375 
L 73.1875 25.484375 
L 73.1875 17.1875 
L 10.59375 17.1875 
z
" id="DejaVuSans-61"/>
     </defs>
     <use xlink:href="#DejaVuSans-83"/>
     <use x="63.476562" xlink:href="#DejaVuSans-111"/>
     <use x="124.658203" xlink:href="#DejaVuSans-117"/>
     <use x="188.037109" xlink:href="#DejaVuSans-116"/>
     <use x="227.246094" xlink:href="#DejaVuSans-104"/>
     <use x="290.625" xlink:href="#DejaVuSans-32"/>
     <use x="322.412109" xlink:href="#DejaVuSans-83"/>
     <use x="385.888672" xlink:href="#DejaVuSans-117"/>
     <use x="449.267578" xlink:href="#DejaVuSans-100"/>
     <use x="512.744141" xlink:href="#DejaVuSans-97"/>
     <use x="574.023438" xlink:href="#DejaVuSans-110"/>
     <use x="637.402344" xlink:href="#DejaVuSans-32"/>
     <use x="669.189453" xlink:href="#DejaVuSans-114"/>
     <use x="708.052734" xlink:href="#DejaVuSans-101"/>
     <use x="769.576172" xlink:href="#DejaVuSans-108"/>
     <use x="797.359375" xlink:href="#DejaVuSans-97"/>
     <use x="858.638672" xlink:href="#DejaVuSans-116"/>
     <use x="897.847656" xlink:href="#DejaVuSans-105"/>
     <use x="925.630859" xlink:href="#DejaVuSans-118"/>
     <use x="984.810547" xlink:href="#DejaVuSans-101"/>
     <use x="1046.333984" xlink:href="#DejaVuSans-32"/>
     <use x="1078.121094" xlink:href="#DejaVuSans-101"/>
     <use x="1139.644531" xlink:href="#DejaVuSans-114"/>
     <use x="1179.007812" xlink:href="#DejaVuSans-114"/>
     <use x="1220.121094" xlink:href="#DejaVuSans-32"/>
     <use x="1251.908203" xlink:href="#DejaVuSans-61"/>
     <use x="1335.697266" xlink:href="#DejaVuSans-32"/>
    </g>
   </g>
   <g id="legend_1">
    <g id="patch_7">
     <path d="M 97 226.503125 
L 185.6 226.503125 
Q 187.6 226.503125 187.6 224.503125 
L 187.6 93.4 
Q 187.6 91.4 185.6 91.4 
L 97 91.4 
Q 95 91.4 95 93.4 
L 95 224.503125 
Q 95 226.503125 97 226.503125 
z
" style="fill:#ffffff;opacity:0.8;stroke:#cccccc;stroke-linejoin:miter;"/>
    </g>
    <g id="line2d_37">
     <path d="M 99 99.498438 
L 119 99.498438 
" style="fill:none;stroke:#1f77b4;stroke-linecap:square;stroke-width:1.5;"/>
    </g>
    <g id="line2d_38"/>
    <g id="text_17">
     <!-- SI -->
     <g transform="translate(127 102.998438)scale(0.1 -0.1)">
      <defs>
       <path d="M 9.8125 72.90625 
L 19.671875 72.90625 
L 19.671875 0 
L 9.8125 0 
z
" id="DejaVuSans-73"/>
      </defs>
      <use xlink:href="#DejaVuSans-83"/>
      <use x="63.476562" xlink:href="#DejaVuSans-73"/>
     </g>
    </g>
    <g id="line2d_39">
     <path d="M 99 114.176563 
L 119 114.176563 
" style="fill:none;stroke:#ff7f0e;stroke-linecap:square;stroke-width:1.5;"/>
    </g>
    <g id="line2d_40"/>
    <g id="text_18">
     <!-- BD -->
     <g transform="translate(127 117.676563)scale(0.1 -0.1)">
      <defs>
       <path d="M 19.671875 34.8125 
L 19.671875 8.109375 
L 35.5 8.109375 
Q 43.453125 8.109375 47.28125 11.40625 
Q 51.125 14.703125 51.125 21.484375 
Q 51.125 28.328125 47.28125 31.5625 
Q 43.453125 34.8125 35.5 34.8125 
z
M 19.671875 64.796875 
L 19.671875 42.828125 
L 34.28125 42.828125 
Q 41.5 42.828125 45.03125 45.53125 
Q 48.578125 48.25 48.578125 53.8125 
Q 48.578125 59.328125 45.03125 62.0625 
Q 41.5 64.796875 34.28125 64.796875 
z
M 9.8125 72.90625 
L 35.015625 72.90625 
Q 46.296875 72.90625 52.390625 68.21875 
Q 58.5 63.53125 58.5 54.890625 
Q 58.5 48.1875 55.375 44.234375 
Q 52.25 40.28125 46.1875 39.3125 
Q 53.46875 37.75 57.5 32.78125 
Q 61.53125 27.828125 61.53125 20.40625 
Q 61.53125 10.640625 54.890625 5.3125 
Q 48.25 0 35.984375 0 
L 9.8125 0 
z
" id="DejaVuSans-66"/>
      </defs>
      <use xlink:href="#DejaVuSans-66"/>
      <use x="68.603516" xlink:href="#DejaVuSans-68"/>
     </g>
    </g>
    <g id="line2d_41">
     <path d="M 99 128.854688 
L 119 128.854688 
" style="fill:none;stroke:#2ca02c;stroke-linecap:square;stroke-width:1.5;"/>
    </g>
    <g id="line2d_42"/>
    <g id="text_19">
     <!-- SIR -->
     <g transform="translate(127 132.354688)scale(0.1 -0.1)">
      <defs>
       <path d="M 44.390625 34.1875 
Q 47.5625 33.109375 50.5625 29.59375 
Q 53.5625 26.078125 56.59375 19.921875 
L 66.609375 0 
L 56 0 
L 46.6875 18.703125 
Q 43.0625 26.03125 39.671875 28.421875 
Q 36.28125 30.8125 30.421875 30.8125 
L 19.671875 30.8125 
L 19.671875 0 
L 9.8125 0 
L 9.8125 72.90625 
L 32.078125 72.90625 
Q 44.578125 72.90625 50.734375 67.671875 
Q 56.890625 62.453125 56.890625 51.90625 
Q 56.890625 45.015625 53.6875 40.46875 
Q 50.484375 35.9375 44.390625 34.1875 
z
M 19.671875 64.796875 
L 19.671875 38.921875 
L 32.078125 38.921875 
Q 39.203125 38.921875 42.84375 42.21875 
Q 46.484375 45.515625 46.484375 51.90625 
Q 46.484375 58.296875 42.84375 61.546875 
Q 39.203125 64.796875 32.078125 64.796875 
z
" id="DejaVuSans-82"/>
      </defs>
      <use xlink:href="#DejaVuSans-83"/>
      <use x="63.476562" xlink:href="#DejaVuSans-73"/>
      <use x="92.96875" xlink:href="#DejaVuSans-82"/>
     </g>
    </g>
    <g id="line2d_43">
     <path d="M 99 143.532812 
L 119 143.532812 
" style="fill:none;stroke:#d62728;stroke-linecap:square;stroke-width:1.5;"/>
    </g>
    <g id="line2d_44"/>
    <g id="text_20">
     <!-- eSIR -->
     <g transform="translate(127 147.032812)scale(0.1 -0.1)">
      <use xlink:href="#DejaVuSans-101"/>
      <use x="61.523438" xlink:href="#DejaVuSans-83"/>
      <use x="125" xlink:href="#DejaVuSans-73"/>
      <use x="154.492188" xlink:href="#DejaVuSans-82"/>
     </g>
    </g>
    <g id="line2d_45">
     <path d="M 99 158.210938 
L 119 158.210938 
" style="fill:none;stroke:#9467bd;stroke-linecap:square;stroke-width:1.5;"/>
    </g>
    <g id="line2d_46"/>
    <g id="text_21">
     <!-- SEIR -->
     <g transform="translate(127 161.710938)scale(0.1 -0.1)">
      <defs>
       <path d="M 9.8125 72.90625 
L 55.90625 72.90625 
L 55.90625 64.59375 
L 19.671875 64.59375 
L 19.671875 43.015625 
L 54.390625 43.015625 
L 54.390625 34.71875 
L 19.671875 34.71875 
L 19.671875 8.296875 
L 56.78125 8.296875 
L 56.78125 0 
L 9.8125 0 
z
" id="DejaVuSans-69"/>
      </defs>
      <use xlink:href="#DejaVuSans-83"/>
      <use x="63.476562" xlink:href="#DejaVuSans-69"/>
      <use x="126.660156" xlink:href="#DejaVuSans-73"/>
      <use x="156.152344" xlink:href="#DejaVuSans-82"/>
     </g>
    </g>
    <g id="line2d_47">
     <path d="M 99 172.889063 
L 119 172.889063 
" style="fill:none;stroke:#8c564b;stroke-linecap:square;stroke-width:1.5;"/>
    </g>
    <g id="line2d_48"/>
    <g id="text_22">
     <!-- eSEIR -->
     <g transform="translate(127 176.389063)scale(0.1 -0.1)">
      <use xlink:href="#DejaVuSans-101"/>
      <use x="61.523438" xlink:href="#DejaVuSans-83"/>
      <use x="125" xlink:href="#DejaVuSans-69"/>
      <use x="188.183594" xlink:href="#DejaVuSans-73"/>
      <use x="217.675781" xlink:href="#DejaVuSans-82"/>
     </g>
    </g>
    <g id="line2d_49">
     <path d="M 99 187.567188 
L 119 187.567188 
" style="fill:none;stroke:#e377c2;stroke-linecap:square;stroke-width:1.5;"/>
    </g>
    <g id="line2d_50"/>
    <g id="text_23">
     <!-- SEIUR -->
     <g transform="translate(127 191.067188)scale(0.1 -0.1)">
      <defs>
       <path d="M 8.6875 72.90625 
L 18.609375 72.90625 
L 18.609375 28.609375 
Q 18.609375 16.890625 22.84375 11.734375 
Q 27.09375 6.59375 36.625 6.59375 
Q 46.09375 6.59375 50.34375 11.734375 
Q 54.59375 16.890625 54.59375 28.609375 
L 54.59375 72.90625 
L 64.5 72.90625 
L 64.5 27.390625 
Q 64.5 13.140625 57.4375 5.859375 
Q 50.390625 -1.421875 36.625 -1.421875 
Q 22.796875 -1.421875 15.734375 5.859375 
Q 8.6875 13.140625 8.6875 27.390625 
z
" id="DejaVuSans-85"/>
      </defs>
      <use xlink:href="#DejaVuSans-83"/>
      <use x="63.476562" xlink:href="#DejaVuSans-69"/>
      <use x="126.660156" xlink:href="#DejaVuSans-73"/>
      <use x="156.152344" xlink:href="#DejaVuSans-85"/>
      <use x="229.345703" xlink:href="#DejaVuSans-82"/>
     </g>
    </g>
    <g id="line2d_51">
     <path d="M 99 202.245312 
L 119 202.245312 
" style="fill:none;stroke:#7f7f7f;stroke-linecap:square;stroke-width:1.5;"/>
    </g>
    <g id="line2d_52"/>
    <g id="text_24">
     <!-- eSEIUR -->
     <g transform="translate(127 205.745312)scale(0.1 -0.1)">
      <use xlink:href="#DejaVuSans-101"/>
      <use x="61.523438" xlink:href="#DejaVuSans-83"/>
      <use x="125" xlink:href="#DejaVuSans-69"/>
      <use x="188.183594" xlink:href="#DejaVuSans-73"/>
      <use x="217.675781" xlink:href="#DejaVuSans-85"/>
      <use x="290.869141" xlink:href="#DejaVuSans-82"/>
     </g>
    </g>
    <g id="line2d_53">
     <path d="M 99 216.923437 
L 119 216.923437 
" style="fill:none;stroke:#bcbd22;stroke-linecap:square;stroke-width:1.5;"/>
    </g>
    <g id="line2d_54"/>
    <g id="text_25">
     <!-- eSEIUR$^{range}$ -->
     <g transform="translate(127 220.423437)scale(0.1 -0.1)">
      <defs>
       <path d="M 44.578125 46.390625 
Q 43.21875 47.125 41.453125 47.515625 
Q 39.703125 47.90625 37.703125 47.90625 
Q 30.515625 47.90625 25.140625 42.453125 
Q 19.78125 37.015625 18.015625 27.875 
L 12.5 0 
L 3.515625 0 
L 14.203125 54.6875 
L 23.1875 54.6875 
L 21.484375 46.1875 
Q 25.046875 50.921875 30 53.453125 
Q 34.96875 56 40.578125 56 
Q 42.046875 56 43.453125 55.828125 
Q 44.875 55.671875 46.296875 55.28125 
z
" id="DejaVuSans-Oblique-114"/>
       <path d="M 53.71875 31.203125 
L 47.609375 0 
L 38.625 0 
L 40.28125 8.296875 
Q 36.328125 3.421875 31.265625 1 
Q 26.21875 -1.421875 20.015625 -1.421875 
Q 13.03125 -1.421875 8.5625 2.84375 
Q 4.109375 7.125 4.109375 13.8125 
Q 4.109375 23.390625 11.75 28.953125 
Q 19.390625 34.515625 32.8125 34.515625 
L 45.3125 34.515625 
L 45.796875 36.921875 
Q 45.90625 37.3125 45.953125 37.765625 
Q 46 38.234375 46 39.203125 
Q 46 43.5625 42.453125 45.96875 
Q 38.921875 48.390625 32.515625 48.390625 
Q 28.125 48.390625 23.5 47.265625 
Q 18.890625 46.140625 14.015625 43.890625 
L 15.578125 52.203125 
Q 20.65625 54.109375 25.515625 55.046875 
Q 30.375 56 34.90625 56 
Q 44.578125 56 49.625 51.796875 
Q 54.6875 47.609375 54.6875 39.59375 
Q 54.6875 37.984375 54.4375 35.8125 
Q 54.203125 33.640625 53.71875 31.203125 
z
M 44 27.484375 
L 35.015625 27.484375 
Q 23.96875 27.484375 18.671875 24.53125 
Q 13.375 21.578125 13.375 15.375 
Q 13.375 11.078125 16.078125 8.640625 
Q 18.796875 6.203125 23.578125 6.203125 
Q 30.90625 6.203125 36.375 11.453125 
Q 41.84375 16.703125 43.609375 25.484375 
z
" id="DejaVuSans-Oblique-97"/>
       <path d="M 55.71875 33.015625 
L 49.3125 0 
L 40.28125 0 
L 46.6875 32.671875 
Q 47.125 34.96875 47.359375 36.71875 
Q 47.609375 38.484375 47.609375 39.5 
Q 47.609375 43.609375 45.015625 45.890625 
Q 42.4375 48.1875 37.796875 48.1875 
Q 30.5625 48.1875 25.34375 43.375 
Q 20.125 38.578125 18.5 30.328125 
L 12.5 0 
L 3.515625 0 
L 14.109375 54.6875 
L 23.09375 54.6875 
L 21.296875 46.09375 
Q 25.046875 50.828125 30.3125 53.40625 
Q 35.59375 56 41.40625 56 
Q 48.640625 56 52.609375 52.09375 
Q 56.59375 48.1875 56.59375 41.109375 
Q 56.59375 39.359375 56.375 37.359375 
Q 56.15625 35.359375 55.71875 33.015625 
z
" id="DejaVuSans-Oblique-110"/>
       <path d="M 59.625 54.6875 
L 50.296875 6.78125 
Q 47.609375 -7.125 40.015625 -13.953125 
Q 32.421875 -20.796875 19.578125 -20.796875 
Q 14.84375 -20.796875 10.78125 -20.09375 
Q 6.734375 -19.390625 3.21875 -17.921875 
L 4.890625 -9.1875 
Q 8.203125 -11.328125 11.90625 -12.34375 
Q 15.625 -13.375 19.828125 -13.375 
Q 28.375 -13.375 33.859375 -8.703125 
Q 39.359375 -4.046875 41.109375 4.6875 
L 41.890625 8.796875 
Q 38.140625 4.5 33.15625 2.25 
Q 28.171875 0 22.40625 0 
Q 14.109375 0 9.34375 5.484375 
Q 4.59375 10.984375 4.59375 20.609375 
Q 4.59375 28.171875 7.46875 35.421875 
Q 10.359375 42.671875 15.578125 48.296875 
Q 19.046875 52 23.65625 54 
Q 28.265625 56 33.296875 56 
Q 38.8125 56 42.90625 53.4375 
Q 47.015625 50.875 49.03125 46.1875 
L 50.59375 54.6875 
z
M 46.09375 34.625 
Q 46.09375 41.265625 42.96875 44.875 
Q 39.84375 48.484375 34.078125 48.484375 
Q 30.515625 48.484375 27.296875 47.0625 
Q 24.078125 45.65625 21.78125 43.109375 
Q 18.0625 38.921875 15.984375 33.234375 
Q 13.921875 27.546875 13.921875 21.484375 
Q 13.921875 14.75 17.0625 11.125 
Q 20.21875 7.515625 26.125 7.515625 
Q 34.671875 7.515625 40.375 15.25 
Q 46.09375 23 46.09375 34.625 
z
" id="DejaVuSans-Oblique-103"/>
       <path d="M 48.09375 32.234375 
Q 48.25 33.015625 48.3125 33.84375 
Q 48.390625 34.671875 48.390625 35.5 
Q 48.390625 41.453125 44.890625 44.921875 
Q 41.40625 48.390625 35.40625 48.390625 
Q 28.71875 48.390625 23.578125 44.15625 
Q 18.453125 39.9375 15.828125 32.171875 
z
M 55.90625 25.203125 
L 14.109375 25.203125 
Q 13.8125 23.34375 13.71875 22.265625 
Q 13.625 21.1875 13.625 20.40625 
Q 13.625 13.625 17.796875 9.90625 
Q 21.96875 6.203125 29.59375 6.203125 
Q 35.453125 6.203125 40.671875 7.515625 
Q 45.90625 8.84375 50.390625 11.375 
L 48.6875 2.484375 
Q 43.84375 0.53125 38.6875 -0.4375 
Q 33.546875 -1.421875 28.21875 -1.421875 
Q 16.84375 -1.421875 10.71875 4.015625 
Q 4.59375 9.46875 4.59375 19.484375 
Q 4.59375 28.03125 7.640625 35.375 
Q 10.6875 42.71875 16.609375 48.484375 
Q 20.40625 52.09375 25.65625 54.046875 
Q 30.90625 56 36.8125 56 
Q 46.09375 56 51.578125 50.4375 
Q 57.078125 44.875 57.078125 35.5 
Q 57.078125 33.25 56.78125 30.6875 
Q 56.5 28.125 55.90625 25.203125 
z
" id="DejaVuSans-Oblique-101"/>
      </defs>
      <use transform="translate(0 0.51875)" xlink:href="#DejaVuSans-101"/>
      <use transform="translate(61.523438 0.51875)" xlink:href="#DejaVuSans-83"/>
      <use transform="translate(125 0.51875)" xlink:href="#DejaVuSans-69"/>
      <use transform="translate(188.183594 0.51875)" xlink:href="#DejaVuSans-73"/>
      <use transform="translate(217.675781 0.51875)" xlink:href="#DejaVuSans-85"/>
      <use transform="translate(288.619141 0.51875)" xlink:href="#DejaVuSans-82"/>
      <use transform="translate(359.058594 38.8)scale(0.7)" xlink:href="#DejaVuSans-Oblique-114"/>
      <use transform="translate(387.837891 38.8)scale(0.7)" xlink:href="#DejaVuSans-Oblique-97"/>
      <use transform="translate(430.733398 38.8)scale(0.7)" xlink:href="#DejaVuSans-Oblique-110"/>
      <use transform="translate(475.098633 38.8)scale(0.7)" xlink:href="#DejaVuSans-Oblique-103"/>
      <use transform="translate(519.532227 38.8)scale(0.7)" xlink:href="#DejaVuSans-Oblique-101"/>
     </g>
    </g>
   </g>
  </g>
 </g>
 <defs>
  <clipPath id="paf9a2cf90a">
   <rect height="543.6" width="558" x="90" y="86.4"/>
  </clipPath>
 </defs>
</svg>
