<?xml version="1.0" encoding="utf-8" standalone="no"?>
<!DOCTYPE svg PUBLIC "-//W3C//DTD SVG 1.1//EN"
  "http://www.w3.org/Graphics/SVG/1.1/DTD/svg11.dtd">
<!-- Created with matplotlib (https://matplotlib.org/) -->
<svg height="720pt" version="1.1" viewBox="0 0 720 720" width="720pt" xmlns="http://www.w3.org/2000/svg" xmlns:xlink="http://www.w3.org/1999/xlink">
 <metadata>
  <rdf:RDF xmlns:cc="http://creativecommons.org/ns#" xmlns:dc="http://purl.org/dc/elements/1.1/" xmlns:rdf="http://www.w3.org/1999/02/22-rdf-syntax-ns#">
   <cc:Work>
    <dc:type rdf:resource="http://purl.org/dc/dcmitype/StillImage"/>
    <dc:date>2022-10-11T20:58:29.162047</dc:date>
    <dc:format>image/svg+xml</dc:format>
    <dc:creator>
     <cc:Agent>
      <dc:title>Matplotlib v3.3.2, https://matplotlib.org/</dc:title>
     </cc:Agent>
    </dc:creator>
   </cc:Work>
  </rdf:RDF>
 </metadata>
 <defs>
  <style type="text/css">*{stroke-linecap:butt;stroke-linejoin:round;}</style>
 </defs>
 <g id="figure_1">
  <g id="patch_1">
   <path d="M 0 720 
L 720 720 
L 720 0 
L 0 0 
z
" style="fill:none;"/>
  </g>
  <g id="axes_1">
   <g id="patch_2">
    <path d="M 90 630 
L 648 630 
L 648 86.4 
L 90 86.4 
z
" style="fill:#ffffff;"/>
   </g>
   <g id="matplotlib.axis_1">
    <g id="xtick_1">
     <g id="line2d_1">
      <path clip-path="url(#pec6ab7f883)" d="M 115.363636 630 
L 115.363636 86.4 
" style="fill:none;stroke:#b0b0b0;stroke-linecap:square;stroke-width:0.8;"/>
     </g>
     <g id="line2d_2">
      <defs>
       <path d="M 0 0 
L 0 3.5 
" id="m7ae2664b3f" style="stroke:#000000;stroke-width:0.8;"/>
      </defs>
      <g>
       <use style="stroke:#000000;stroke-width:0.8;" x="115.363636" xlink:href="#m7ae2664b3f" y="630"/>
      </g>
     </g>
     <g id="text_1">
      <!-- 0 -->
      <g transform="translate(112.182386 644.598438)scale(0.1 -0.1)">
       <defs>
        <path d="M 31.78125 66.40625 
Q 24.171875 66.40625 20.328125 58.90625 
Q 16.5 51.421875 16.5 36.375 
Q 16.5 21.390625 20.328125 13.890625 
Q 24.171875 6.390625 31.78125 6.390625 
Q 39.453125 6.390625 43.28125 13.890625 
Q 47.125 21.390625 47.125 36.375 
Q 47.125 51.421875 43.28125 58.90625 
Q 39.453125 66.40625 31.78125 66.40625 
z
M 31.78125 74.21875 
Q 44.046875 74.21875 50.515625 64.515625 
Q 56.984375 54.828125 56.984375 36.375 
Q 56.984375 17.96875 50.515625 8.265625 
Q 44.046875 -1.421875 31.78125 -1.421875 
Q 19.53125 -1.421875 13.0625 8.265625 
Q 6.59375 17.96875 6.59375 36.375 
Q 6.59375 54.828125 13.0625 64.515625 
Q 19.53125 74.21875 31.78125 74.21875 
z
" id="DejaVuSans-48"/>
       </defs>
       <use xlink:href="#DejaVuSans-48"/>
      </g>
     </g>
    </g>
    <g id="xtick_2">
     <g id="line2d_3">
      <path clip-path="url(#pec6ab7f883)" d="M 189.962567 630 
L 189.962567 86.4 
" style="fill:none;stroke:#b0b0b0;stroke-linecap:square;stroke-width:0.8;"/>
     </g>
     <g id="line2d_4">
      <g>
       <use style="stroke:#000000;stroke-width:0.8;" x="189.962567" xlink:href="#m7ae2664b3f" y="630"/>
      </g>
     </g>
     <g id="text_2">
      <!-- 25 -->
      <g transform="translate(183.600067 644.598438)scale(0.1 -0.1)">
       <defs>
        <path d="M 19.1875 8.296875 
L 53.609375 8.296875 
L 53.609375 0 
L 7.328125 0 
L 7.328125 8.296875 
Q 12.9375 14.109375 22.625 23.890625 
Q 32.328125 33.6875 34.8125 36.53125 
Q 39.546875 41.84375 41.421875 45.53125 
Q 43.3125 49.21875 43.3125 52.78125 
Q 43.3125 58.59375 39.234375 62.25 
Q 35.15625 65.921875 28.609375 65.921875 
Q 23.96875 65.921875 18.8125 64.3125 
Q 13.671875 62.703125 7.8125 59.421875 
L 7.8125 69.390625 
Q 13.765625 71.78125 18.9375 73 
Q 24.125 74.21875 28.421875 74.21875 
Q 39.75 74.21875 46.484375 68.546875 
Q 53.21875 62.890625 53.21875 53.421875 
Q 53.21875 48.921875 51.53125 44.890625 
Q 49.859375 40.875 45.40625 35.40625 
Q 44.1875 33.984375 37.640625 27.21875 
Q 31.109375 20.453125 19.1875 8.296875 
z
" id="DejaVuSans-50"/>
        <path d="M 10.796875 72.90625 
L 49.515625 72.90625 
L 49.515625 64.59375 
L 19.828125 64.59375 
L 19.828125 46.734375 
Q 21.96875 47.46875 24.109375 47.828125 
Q 26.265625 48.1875 28.421875 48.1875 
Q 40.625 48.1875 47.75 41.5 
Q 54.890625 34.8125 54.890625 23.390625 
Q 54.890625 11.625 47.5625 5.09375 
Q 40.234375 -1.421875 26.90625 -1.421875 
Q 22.3125 -1.421875 17.546875 -0.640625 
Q 12.796875 0.140625 7.71875 1.703125 
L 7.71875 11.625 
Q 12.109375 9.234375 16.796875 8.0625 
Q 21.484375 6.890625 26.703125 6.890625 
Q 35.15625 6.890625 40.078125 11.328125 
Q 45.015625 15.765625 45.015625 23.390625 
Q 45.015625 31 40.078125 35.4375 
Q 35.15625 39.890625 26.703125 39.890625 
Q 22.75 39.890625 18.8125 39.015625 
Q 14.890625 38.140625 10.796875 36.28125 
z
" id="DejaVuSans-53"/>
       </defs>
       <use xlink:href="#DejaVuSans-50"/>
       <use x="63.623047" xlink:href="#DejaVuSans-53"/>
      </g>
     </g>
    </g>
    <g id="xtick_3">
     <g id="line2d_5">
      <path clip-path="url(#pec6ab7f883)" d="M 264.561497 630 
L 264.561497 86.4 
" style="fill:none;stroke:#b0b0b0;stroke-linecap:square;stroke-width:0.8;"/>
     </g>
     <g id="line2d_6">
      <g>
       <use style="stroke:#000000;stroke-width:0.8;" x="264.561497" xlink:href="#m7ae2664b3f" y="630"/>
      </g>
     </g>
     <g id="text_3">
      <!-- 50 -->
      <g transform="translate(258.198997 644.598438)scale(0.1 -0.1)">
       <use xlink:href="#DejaVuSans-53"/>
       <use x="63.623047" xlink:href="#DejaVuSans-48"/>
      </g>
     </g>
    </g>
    <g id="xtick_4">
     <g id="line2d_7">
      <path clip-path="url(#pec6ab7f883)" d="M 339.160428 630 
L 339.160428 86.4 
" style="fill:none;stroke:#b0b0b0;stroke-linecap:square;stroke-width:0.8;"/>
     </g>
     <g id="line2d_8">
      <g>
       <use style="stroke:#000000;stroke-width:0.8;" x="339.160428" xlink:href="#m7ae2664b3f" y="630"/>
      </g>
     </g>
     <g id="text_4">
      <!-- 75 -->
      <g transform="translate(332.797928 644.598438)scale(0.1 -0.1)">
       <defs>
        <path d="M 8.203125 72.90625 
L 55.078125 72.90625 
L 55.078125 68.703125 
L 28.609375 0 
L 18.3125 0 
L 43.21875 64.59375 
L 8.203125 64.59375 
z
" id="DejaVuSans-55"/>
       </defs>
       <use xlink:href="#DejaVuSans-55"/>
       <use x="63.623047" xlink:href="#DejaVuSans-53"/>
      </g>
     </g>
    </g>
    <g id="xtick_5">
     <g id="line2d_9">
      <path clip-path="url(#pec6ab7f883)" d="M 413.759358 630 
L 413.759358 86.4 
" style="fill:none;stroke:#b0b0b0;stroke-linecap:square;stroke-width:0.8;"/>
     </g>
     <g id="line2d_10">
      <g>
       <use style="stroke:#000000;stroke-width:0.8;" x="413.759358" xlink:href="#m7ae2664b3f" y="630"/>
      </g>
     </g>
     <g id="text_5">
      <!-- 100 -->
      <g transform="translate(404.215608 644.598438)scale(0.1 -0.1)">
       <defs>
        <path d="M 12.40625 8.296875 
L 28.515625 8.296875 
L 28.515625 63.921875 
L 10.984375 60.40625 
L 10.984375 69.390625 
L 28.421875 72.90625 
L 38.28125 72.90625 
L 38.28125 8.296875 
L 54.390625 8.296875 
L 54.390625 0 
L 12.40625 0 
z
" id="DejaVuSans-49"/>
       </defs>
       <use xlink:href="#DejaVuSans-49"/>
       <use x="63.623047" xlink:href="#DejaVuSans-48"/>
       <use x="127.246094" xlink:href="#DejaVuSans-48"/>
      </g>
     </g>
    </g>
    <g id="xtick_6">
     <g id="line2d_11">
      <path clip-path="url(#pec6ab7f883)" d="M 488.358289 630 
L 488.358289 86.4 
" style="fill:none;stroke:#b0b0b0;stroke-linecap:square;stroke-width:0.8;"/>
     </g>
     <g id="line2d_12">
      <g>
       <use style="stroke:#000000;stroke-width:0.8;" x="488.358289" xlink:href="#m7ae2664b3f" y="630"/>
      </g>
     </g>
     <g id="text_6">
      <!-- 125 -->
      <g transform="translate(478.814539 644.598438)scale(0.1 -0.1)">
       <use xlink:href="#DejaVuSans-49"/>
       <use x="63.623047" xlink:href="#DejaVuSans-50"/>
       <use x="127.246094" xlink:href="#DejaVuSans-53"/>
      </g>
     </g>
    </g>
    <g id="xtick_7">
     <g id="line2d_13">
      <path clip-path="url(#pec6ab7f883)" d="M 562.957219 630 
L 562.957219 86.4 
" style="fill:none;stroke:#b0b0b0;stroke-linecap:square;stroke-width:0.8;"/>
     </g>
     <g id="line2d_14">
      <g>
       <use style="stroke:#000000;stroke-width:0.8;" x="562.957219" xlink:href="#m7ae2664b3f" y="630"/>
      </g>
     </g>
     <g id="text_7">
      <!-- 150 -->
      <g transform="translate(553.413469 644.598438)scale(0.1 -0.1)">
       <use xlink:href="#DejaVuSans-49"/>
       <use x="63.623047" xlink:href="#DejaVuSans-53"/>
       <use x="127.246094" xlink:href="#DejaVuSans-48"/>
      </g>
     </g>
    </g>
    <g id="xtick_8">
     <g id="line2d_15">
      <path clip-path="url(#pec6ab7f883)" d="M 637.55615 630 
L 637.55615 86.4 
" style="fill:none;stroke:#b0b0b0;stroke-linecap:square;stroke-width:0.8;"/>
     </g>
     <g id="line2d_16">
      <g>
       <use style="stroke:#000000;stroke-width:0.8;" x="637.55615" xlink:href="#m7ae2664b3f" y="630"/>
      </g>
     </g>
     <g id="text_8">
      <!-- 175 -->
      <g transform="translate(628.0124 644.598438)scale(0.1 -0.1)">
       <use xlink:href="#DejaVuSans-49"/>
       <use x="63.623047" xlink:href="#DejaVuSans-55"/>
       <use x="127.246094" xlink:href="#DejaVuSans-53"/>
      </g>
     </g>
    </g>
    <g id="text_9">
     <!-- Days -->
     <g transform="translate(356.521875 658.276562)scale(0.1 -0.1)">
      <defs>
       <path d="M 19.671875 64.796875 
L 19.671875 8.109375 
L 31.59375 8.109375 
Q 46.6875 8.109375 53.6875 14.9375 
Q 60.6875 21.78125 60.6875 36.53125 
Q 60.6875 51.171875 53.6875 57.984375 
Q 46.6875 64.796875 31.59375 64.796875 
z
M 9.8125 72.90625 
L 30.078125 72.90625 
Q 51.265625 72.90625 61.171875 64.09375 
Q 71.09375 55.28125 71.09375 36.53125 
Q 71.09375 17.671875 61.125 8.828125 
Q 51.171875 0 30.078125 0 
L 9.8125 0 
z
" id="DejaVuSans-68"/>
       <path d="M 34.28125 27.484375 
Q 23.390625 27.484375 19.1875 25 
Q 14.984375 22.515625 14.984375 16.5 
Q 14.984375 11.71875 18.140625 8.90625 
Q 21.296875 6.109375 26.703125 6.109375 
Q 34.1875 6.109375 38.703125 11.40625 
Q 43.21875 16.703125 43.21875 25.484375 
L 43.21875 27.484375 
z
M 52.203125 31.203125 
L 52.203125 0 
L 43.21875 0 
L 43.21875 8.296875 
Q 40.140625 3.328125 35.546875 0.953125 
Q 30.953125 -1.421875 24.3125 -1.421875 
Q 15.921875 -1.421875 10.953125 3.296875 
Q 6 8.015625 6 15.921875 
Q 6 25.140625 12.171875 29.828125 
Q 18.359375 34.515625 30.609375 34.515625 
L 43.21875 34.515625 
L 43.21875 35.40625 
Q 43.21875 41.609375 39.140625 45 
Q 35.0625 48.390625 27.6875 48.390625 
Q 23 48.390625 18.546875 47.265625 
Q 14.109375 46.140625 10.015625 43.890625 
L 10.015625 52.203125 
Q 14.9375 54.109375 19.578125 55.046875 
Q 24.21875 56 28.609375 56 
Q 40.484375 56 46.34375 49.84375 
Q 52.203125 43.703125 52.203125 31.203125 
z
" id="DejaVuSans-97"/>
       <path d="M 32.171875 -5.078125 
Q 28.375 -14.84375 24.75 -17.8125 
Q 21.140625 -20.796875 15.09375 -20.796875 
L 7.90625 -20.796875 
L 7.90625 -13.28125 
L 13.1875 -13.28125 
Q 16.890625 -13.28125 18.9375 -11.515625 
Q 21 -9.765625 23.484375 -3.21875 
L 25.09375 0.875 
L 2.984375 54.6875 
L 12.5 54.6875 
L 29.59375 11.921875 
L 46.6875 54.6875 
L 56.203125 54.6875 
z
" id="DejaVuSans-121"/>
       <path d="M 44.28125 53.078125 
L 44.28125 44.578125 
Q 40.484375 46.53125 36.375 47.5 
Q 32.28125 48.484375 27.875 48.484375 
Q 21.1875 48.484375 17.84375 46.4375 
Q 14.5 44.390625 14.5 40.28125 
Q 14.5 37.15625 16.890625 35.375 
Q 19.28125 33.59375 26.515625 31.984375 
L 29.59375 31.296875 
Q 39.15625 29.25 43.1875 25.515625 
Q 47.21875 21.78125 47.21875 15.09375 
Q 47.21875 7.46875 41.1875 3.015625 
Q 35.15625 -1.421875 24.609375 -1.421875 
Q 20.21875 -1.421875 15.453125 -0.5625 
Q 10.6875 0.296875 5.421875 2 
L 5.421875 11.28125 
Q 10.40625 8.6875 15.234375 7.390625 
Q 20.0625 6.109375 24.8125 6.109375 
Q 31.15625 6.109375 34.5625 8.28125 
Q 37.984375 10.453125 37.984375 14.40625 
Q 37.984375 18.0625 35.515625 20.015625 
Q 33.0625 21.96875 24.703125 23.78125 
L 21.578125 24.515625 
Q 13.234375 26.265625 9.515625 29.90625 
Q 5.8125 33.546875 5.8125 39.890625 
Q 5.8125 47.609375 11.28125 51.796875 
Q 16.75 56 26.8125 56 
Q 31.78125 56 36.171875 55.265625 
Q 40.578125 54.546875 44.28125 53.078125 
z
" id="DejaVuSans-115"/>
      </defs>
      <use xlink:href="#DejaVuSans-68"/>
      <use x="77.001953" xlink:href="#DejaVuSans-97"/>
      <use x="138.28125" xlink:href="#DejaVuSans-121"/>
      <use x="197.460938" xlink:href="#DejaVuSans-115"/>
     </g>
    </g>
   </g>
   <g id="matplotlib.axis_2">
    <g id="ytick_1">
     <g id="line2d_17">
      <path clip-path="url(#pec6ab7f883)" d="M 90 605.458377 
L 648 605.458377 
" style="fill:none;stroke:#b0b0b0;stroke-linecap:square;stroke-width:0.8;"/>
     </g>
     <g id="line2d_18">
      <defs>
       <path d="M 0 0 
L -3.5 0 
" id="m9392804544" style="stroke:#000000;stroke-width:0.8;"/>
      </defs>
      <g>
       <use style="stroke:#000000;stroke-width:0.8;" x="90" xlink:href="#m9392804544" y="605.458377"/>
      </g>
     </g>
     <g id="text_10">
      <!-- 0 -->
      <g transform="translate(76.6375 609.257596)scale(0.1 -0.1)">
       <use xlink:href="#DejaVuSans-48"/>
      </g>
     </g>
    </g>
    <g id="ytick_2">
     <g id="line2d_19">
      <path clip-path="url(#pec6ab7f883)" d="M 90 541.047624 
L 648 541.047624 
" style="fill:none;stroke:#b0b0b0;stroke-linecap:square;stroke-width:0.8;"/>
     </g>
     <g id="line2d_20">
      <g>
       <use style="stroke:#000000;stroke-width:0.8;" x="90" xlink:href="#m9392804544" y="541.047624"/>
      </g>
     </g>
     <g id="text_11">
      <!-- 5000 -->
      <g transform="translate(57.55 544.846843)scale(0.1 -0.1)">
       <use xlink:href="#DejaVuSans-53"/>
       <use x="63.623047" xlink:href="#DejaVuSans-48"/>
       <use x="127.246094" xlink:href="#DejaVuSans-48"/>
       <use x="190.869141" xlink:href="#DejaVuSans-48"/>
      </g>
     </g>
    </g>
    <g id="ytick_3">
     <g id="line2d_21">
      <path clip-path="url(#pec6ab7f883)" d="M 90 476.636871 
L 648 476.636871 
" style="fill:none;stroke:#b0b0b0;stroke-linecap:square;stroke-width:0.8;"/>
     </g>
     <g id="line2d_22">
      <g>
       <use style="stroke:#000000;stroke-width:0.8;" x="90" xlink:href="#m9392804544" y="476.636871"/>
      </g>
     </g>
     <g id="text_12">
      <!-- 10000 -->
      <g transform="translate(51.1875 480.43609)scale(0.1 -0.1)">
       <use xlink:href="#DejaVuSans-49"/>
       <use x="63.623047" xlink:href="#DejaVuSans-48"/>
       <use x="127.246094" xlink:href="#DejaVuSans-48"/>
       <use x="190.869141" xlink:href="#DejaVuSans-48"/>
       <use x="254.492188" xlink:href="#DejaVuSans-48"/>
      </g>
     </g>
    </g>
    <g id="ytick_4">
     <g id="line2d_23">
      <path clip-path="url(#pec6ab7f883)" d="M 90 412.226118 
L 648 412.226118 
" style="fill:none;stroke:#b0b0b0;stroke-linecap:square;stroke-width:0.8;"/>
     </g>
     <g id="line2d_24">
      <g>
       <use style="stroke:#000000;stroke-width:0.8;" x="90" xlink:href="#m9392804544" y="412.226118"/>
      </g>
     </g>
     <g id="text_13">
      <!-- 15000 -->
      <g transform="translate(51.1875 416.025337)scale(0.1 -0.1)">
       <use xlink:href="#DejaVuSans-49"/>
       <use x="63.623047" xlink:href="#DejaVuSans-53"/>
       <use x="127.246094" xlink:href="#DejaVuSans-48"/>
       <use x="190.869141" xlink:href="#DejaVuSans-48"/>
       <use x="254.492188" xlink:href="#DejaVuSans-48"/>
      </g>
     </g>
    </g>
    <g id="ytick_5">
     <g id="line2d_25">
      <path clip-path="url(#pec6ab7f883)" d="M 90 347.815365 
L 648 347.815365 
" style="fill:none;stroke:#b0b0b0;stroke-linecap:square;stroke-width:0.8;"/>
     </g>
     <g id="line2d_26">
      <g>
       <use style="stroke:#000000;stroke-width:0.8;" x="90" xlink:href="#m9392804544" y="347.815365"/>
      </g>
     </g>
     <g id="text_14">
      <!-- 20000 -->
      <g transform="translate(51.1875 351.614584)scale(0.1 -0.1)">
       <use xlink:href="#DejaVuSans-50"/>
       <use x="63.623047" xlink:href="#DejaVuSans-48"/>
       <use x="127.246094" xlink:href="#DejaVuSans-48"/>
       <use x="190.869141" xlink:href="#DejaVuSans-48"/>
       <use x="254.492188" xlink:href="#DejaVuSans-48"/>
      </g>
     </g>
    </g>
    <g id="ytick_6">
     <g id="line2d_27">
      <path clip-path="url(#pec6ab7f883)" d="M 90 283.404612 
L 648 283.404612 
" style="fill:none;stroke:#b0b0b0;stroke-linecap:square;stroke-width:0.8;"/>
     </g>
     <g id="line2d_28">
      <g>
       <use style="stroke:#000000;stroke-width:0.8;" x="90" xlink:href="#m9392804544" y="283.404612"/>
      </g>
     </g>
     <g id="text_15">
      <!-- 25000 -->
      <g transform="translate(51.1875 287.203831)scale(0.1 -0.1)">
       <use xlink:href="#DejaVuSans-50"/>
       <use x="63.623047" xlink:href="#DejaVuSans-53"/>
       <use x="127.246094" xlink:href="#DejaVuSans-48"/>
       <use x="190.869141" xlink:href="#DejaVuSans-48"/>
       <use x="254.492188" xlink:href="#DejaVuSans-48"/>
      </g>
     </g>
    </g>
    <g id="ytick_7">
     <g id="line2d_29">
      <path clip-path="url(#pec6ab7f883)" d="M 90 218.993859 
L 648 218.993859 
" style="fill:none;stroke:#b0b0b0;stroke-linecap:square;stroke-width:0.8;"/>
     </g>
     <g id="line2d_30">
      <g>
       <use style="stroke:#000000;stroke-width:0.8;" x="90" xlink:href="#m9392804544" y="218.993859"/>
      </g>
     </g>
     <g id="text_16">
      <!-- 30000 -->
      <g transform="translate(51.1875 222.793078)scale(0.1 -0.1)">
       <defs>
        <path d="M 40.578125 39.3125 
Q 47.65625 37.796875 51.625 33 
Q 55.609375 28.21875 55.609375 21.1875 
Q 55.609375 10.40625 48.1875 4.484375 
Q 40.765625 -1.421875 27.09375 -1.421875 
Q 22.515625 -1.421875 17.65625 -0.515625 
Q 12.796875 0.390625 7.625 2.203125 
L 7.625 11.71875 
Q 11.71875 9.328125 16.59375 8.109375 
Q 21.484375 6.890625 26.8125 6.890625 
Q 36.078125 6.890625 40.9375 10.546875 
Q 45.796875 14.203125 45.796875 21.1875 
Q 45.796875 27.640625 41.28125 31.265625 
Q 36.765625 34.90625 28.71875 34.90625 
L 20.21875 34.90625 
L 20.21875 43.015625 
L 29.109375 43.015625 
Q 36.375 43.015625 40.234375 45.921875 
Q 44.09375 48.828125 44.09375 54.296875 
Q 44.09375 59.90625 40.109375 62.90625 
Q 36.140625 65.921875 28.71875 65.921875 
Q 24.65625 65.921875 20.015625 65.03125 
Q 15.375 64.15625 9.8125 62.3125 
L 9.8125 71.09375 
Q 15.4375 72.65625 20.34375 73.4375 
Q 25.25 74.21875 29.59375 74.21875 
Q 40.828125 74.21875 47.359375 69.109375 
Q 53.90625 64.015625 53.90625 55.328125 
Q 53.90625 49.265625 50.4375 45.09375 
Q 46.96875 40.921875 40.578125 39.3125 
z
" id="DejaVuSans-51"/>
       </defs>
       <use xlink:href="#DejaVuSans-51"/>
       <use x="63.623047" xlink:href="#DejaVuSans-48"/>
       <use x="127.246094" xlink:href="#DejaVuSans-48"/>
       <use x="190.869141" xlink:href="#DejaVuSans-48"/>
       <use x="254.492188" xlink:href="#DejaVuSans-48"/>
      </g>
     </g>
    </g>
    <g id="ytick_8">
     <g id="line2d_31">
      <path clip-path="url(#pec6ab7f883)" d="M 90 154.583106 
L 648 154.583106 
" style="fill:none;stroke:#b0b0b0;stroke-linecap:square;stroke-width:0.8;"/>
     </g>
     <g id="line2d_32">
      <g>
       <use style="stroke:#000000;stroke-width:0.8;" x="90" xlink:href="#m9392804544" y="154.583106"/>
      </g>
     </g>
     <g id="text_17">
      <!-- 35000 -->
      <g transform="translate(51.1875 158.382325)scale(0.1 -0.1)">
       <use xlink:href="#DejaVuSans-51"/>
       <use x="63.623047" xlink:href="#DejaVuSans-53"/>
       <use x="127.246094" xlink:href="#DejaVuSans-48"/>
       <use x="190.869141" xlink:href="#DejaVuSans-48"/>
       <use x="254.492188" xlink:href="#DejaVuSans-48"/>
      </g>
     </g>
    </g>
    <g id="ytick_9">
     <g id="line2d_33">
      <path clip-path="url(#pec6ab7f883)" d="M 90 90.172353 
L 648 90.172353 
" style="fill:none;stroke:#b0b0b0;stroke-linecap:square;stroke-width:0.8;"/>
     </g>
     <g id="line2d_34">
      <g>
       <use style="stroke:#000000;stroke-width:0.8;" x="90" xlink:href="#m9392804544" y="90.172353"/>
      </g>
     </g>
     <g id="text_18">
      <!-- 40000 -->
      <g transform="translate(51.1875 93.971572)scale(0.1 -0.1)">
       <defs>
        <path d="M 37.796875 64.3125 
L 12.890625 25.390625 
L 37.796875 25.390625 
z
M 35.203125 72.90625 
L 47.609375 72.90625 
L 47.609375 25.390625 
L 58.015625 25.390625 
L 58.015625 17.1875 
L 47.609375 17.1875 
L 47.609375 0 
L 37.796875 0 
L 37.796875 17.1875 
L 4.890625 17.1875 
L 4.890625 26.703125 
z
" id="DejaVuSans-52"/>
       </defs>
       <use xlink:href="#DejaVuSans-52"/>
       <use x="63.623047" xlink:href="#DejaVuSans-48"/>
       <use x="127.246094" xlink:href="#DejaVuSans-48"/>
       <use x="190.869141" xlink:href="#DejaVuSans-48"/>
       <use x="254.492188" xlink:href="#DejaVuSans-48"/>
      </g>
     </g>
    </g>
    <g id="text_19">
     <!-- Cumulative cases -->
     <g transform="translate(45.107812 402.425781)rotate(-90)scale(0.1 -0.1)">
      <defs>
       <path d="M 64.40625 67.28125 
L 64.40625 56.890625 
Q 59.421875 61.53125 53.78125 63.8125 
Q 48.140625 66.109375 41.796875 66.109375 
Q 29.296875 66.109375 22.65625 58.46875 
Q 16.015625 50.828125 16.015625 36.375 
Q 16.015625 21.96875 22.65625 14.328125 
Q 29.296875 6.6875 41.796875 6.6875 
Q 48.140625 6.6875 53.78125 8.984375 
Q 59.421875 11.28125 64.40625 15.921875 
L 64.40625 5.609375 
Q 59.234375 2.09375 53.4375 0.328125 
Q 47.65625 -1.421875 41.21875 -1.421875 
Q 24.65625 -1.421875 15.125 8.703125 
Q 5.609375 18.84375 5.609375 36.375 
Q 5.609375 53.953125 15.125 64.078125 
Q 24.65625 74.21875 41.21875 74.21875 
Q 47.75 74.21875 53.53125 72.484375 
Q 59.328125 70.75 64.40625 67.28125 
z
" id="DejaVuSans-67"/>
       <path d="M 8.5 21.578125 
L 8.5 54.6875 
L 17.484375 54.6875 
L 17.484375 21.921875 
Q 17.484375 14.15625 20.5 10.265625 
Q 23.53125 6.390625 29.59375 6.390625 
Q 36.859375 6.390625 41.078125 11.03125 
Q 45.3125 15.671875 45.3125 23.6875 
L 45.3125 54.6875 
L 54.296875 54.6875 
L 54.296875 0 
L 45.3125 0 
L 45.3125 8.40625 
Q 42.046875 3.421875 37.71875 1 
Q 33.40625 -1.421875 27.6875 -1.421875 
Q 18.265625 -1.421875 13.375 4.4375 
Q 8.5 10.296875 8.5 21.578125 
z
M 31.109375 56 
z
" id="DejaVuSans-117"/>
       <path d="M 52 44.1875 
Q 55.375 50.25 60.0625 53.125 
Q 64.75 56 71.09375 56 
Q 79.640625 56 84.28125 50.015625 
Q 88.921875 44.046875 88.921875 33.015625 
L 88.921875 0 
L 79.890625 0 
L 79.890625 32.71875 
Q 79.890625 40.578125 77.09375 44.375 
Q 74.3125 48.1875 68.609375 48.1875 
Q 61.625 48.1875 57.5625 43.546875 
Q 53.515625 38.921875 53.515625 30.90625 
L 53.515625 0 
L 44.484375 0 
L 44.484375 32.71875 
Q 44.484375 40.625 41.703125 44.40625 
Q 38.921875 48.1875 33.109375 48.1875 
Q 26.21875 48.1875 22.15625 43.53125 
Q 18.109375 38.875 18.109375 30.90625 
L 18.109375 0 
L 9.078125 0 
L 9.078125 54.6875 
L 18.109375 54.6875 
L 18.109375 46.1875 
Q 21.1875 51.21875 25.484375 53.609375 
Q 29.78125 56 35.6875 56 
Q 41.65625 56 45.828125 52.96875 
Q 50 49.953125 52 44.1875 
z
" id="DejaVuSans-109"/>
       <path d="M 9.421875 75.984375 
L 18.40625 75.984375 
L 18.40625 0 
L 9.421875 0 
z
" id="DejaVuSans-108"/>
       <path d="M 18.3125 70.21875 
L 18.3125 54.6875 
L 36.8125 54.6875 
L 36.8125 47.703125 
L 18.3125 47.703125 
L 18.3125 18.015625 
Q 18.3125 11.328125 20.140625 9.421875 
Q 21.96875 7.515625 27.59375 7.515625 
L 36.8125 7.515625 
L 36.8125 0 
L 27.59375 0 
Q 17.1875 0 13.234375 3.875 
Q 9.28125 7.765625 9.28125 18.015625 
L 9.28125 47.703125 
L 2.6875 47.703125 
L 2.6875 54.6875 
L 9.28125 54.6875 
L 9.28125 70.21875 
z
" id="DejaVuSans-116"/>
       <path d="M 9.421875 54.6875 
L 18.40625 54.6875 
L 18.40625 0 
L 9.421875 0 
z
M 9.421875 75.984375 
L 18.40625 75.984375 
L 18.40625 64.59375 
L 9.421875 64.59375 
z
" id="DejaVuSans-105"/>
       <path d="M 2.984375 54.6875 
L 12.5 54.6875 
L 29.59375 8.796875 
L 46.6875 54.6875 
L 56.203125 54.6875 
L 35.6875 0 
L 23.484375 0 
z
" id="DejaVuSans-118"/>
       <path d="M 56.203125 29.59375 
L 56.203125 25.203125 
L 14.890625 25.203125 
Q 15.484375 15.921875 20.484375 11.0625 
Q 25.484375 6.203125 34.421875 6.203125 
Q 39.59375 6.203125 44.453125 7.46875 
Q 49.3125 8.734375 54.109375 11.28125 
L 54.109375 2.78125 
Q 49.265625 0.734375 44.1875 -0.34375 
Q 39.109375 -1.421875 33.890625 -1.421875 
Q 20.796875 -1.421875 13.15625 6.1875 
Q 5.515625 13.8125 5.515625 26.8125 
Q 5.515625 40.234375 12.765625 48.109375 
Q 20.015625 56 32.328125 56 
Q 43.359375 56 49.78125 48.890625 
Q 56.203125 41.796875 56.203125 29.59375 
z
M 47.21875 32.234375 
Q 47.125 39.59375 43.09375 43.984375 
Q 39.0625 48.390625 32.421875 48.390625 
Q 24.90625 48.390625 20.390625 44.140625 
Q 15.875 39.890625 15.1875 32.171875 
z
" id="DejaVuSans-101"/>
       <path id="DejaVuSans-32"/>
       <path d="M 48.78125 52.59375 
L 48.78125 44.1875 
Q 44.96875 46.296875 41.140625 47.34375 
Q 37.3125 48.390625 33.40625 48.390625 
Q 24.65625 48.390625 19.8125 42.84375 
Q 14.984375 37.3125 14.984375 27.296875 
Q 14.984375 17.28125 19.8125 11.734375 
Q 24.65625 6.203125 33.40625 6.203125 
Q 37.3125 6.203125 41.140625 7.25 
Q 44.96875 8.296875 48.78125 10.40625 
L 48.78125 2.09375 
Q 45.015625 0.34375 40.984375 -0.53125 
Q 36.96875 -1.421875 32.421875 -1.421875 
Q 20.0625 -1.421875 12.78125 6.34375 
Q 5.515625 14.109375 5.515625 27.296875 
Q 5.515625 40.671875 12.859375 48.328125 
Q 20.21875 56 33.015625 56 
Q 37.15625 56 41.109375 55.140625 
Q 45.0625 54.296875 48.78125 52.59375 
z
" id="DejaVuSans-99"/>
      </defs>
      <use xlink:href="#DejaVuSans-67"/>
      <use x="69.824219" xlink:href="#DejaVuSans-117"/>
      <use x="133.203125" xlink:href="#DejaVuSans-109"/>
      <use x="230.615234" xlink:href="#DejaVuSans-117"/>
      <use x="293.994141" xlink:href="#DejaVuSans-108"/>
      <use x="321.777344" xlink:href="#DejaVuSans-97"/>
      <use x="383.056641" xlink:href="#DejaVuSans-116"/>
      <use x="422.265625" xlink:href="#DejaVuSans-105"/>
      <use x="450.048828" xlink:href="#DejaVuSans-118"/>
      <use x="509.228516" xlink:href="#DejaVuSans-101"/>
      <use x="570.751953" xlink:href="#DejaVuSans-32"/>
      <use x="602.539062" xlink:href="#DejaVuSans-99"/>
      <use x="657.519531" xlink:href="#DejaVuSans-97"/>
      <use x="718.798828" xlink:href="#DejaVuSans-115"/>
      <use x="770.898438" xlink:href="#DejaVuSans-101"/>
      <use x="832.421875" xlink:href="#DejaVuSans-115"/>
     </g>
    </g>
   </g>
   <g id="line2d_35">
    <path clip-path="url(#pec6ab7f883)" d="M 115.363636 605.290909 
L 145.203209 605.026538 
L 166.090909 604.620673 
L 181.010695 604.114258 
L 192.946524 603.497194 
L 201.898396 602.855752 
L 210.850267 602.006068 
L 219.802139 600.881708 
L 225.770053 599.9377 
L 231.737968 598.801769 
L 237.705882 597.436158 
L 243.673797 595.796249 
L 249.641711 593.829571 
L 255.609626 591.474781 
L 258.593583 590.130004 
L 261.57754 588.660679 
L 264.561497 587.056228 
L 267.545455 585.30536 
L 270.529412 583.396068 
L 273.513369 581.315628 
L 276.497326 579.050605 
L 279.481283 576.586884 
L 282.465241 573.909705 
L 285.449198 571.003727 
L 288.433155 567.853104 
L 291.417112 564.441594 
L 294.40107 560.752692 
L 297.385027 556.769794 
L 300.368984 552.476398 
L 303.352941 547.856332 
L 306.336898 542.894027 
L 309.320856 537.574825 
L 312.304813 531.885315 
L 315.28877 525.813712 
L 318.272727 519.35025 
L 321.256684 512.487607 
L 324.240642 505.221331 
L 327.224599 497.550258 
L 330.208556 489.476926 
L 333.192513 481.007938 
L 336.176471 472.154275 
L 342.144385 453.360112 
L 348.112299 433.276605 
L 354.080214 412.16042 
L 363.032086 379.267913 
L 374.967914 335.135866 
L 380.935829 313.822492 
L 386.903743 293.471819 
L 392.871658 274.35693 
L 395.855615 265.32838 
L 398.839572 256.677791 
L 401.823529 248.418283 
L 404.807487 240.558473 
L 407.791444 233.102756 
L 410.775401 226.051651 
L 413.759358 219.402194 
L 416.743316 213.14835 
L 419.727273 207.281445 
L 422.71123 201.790587 
L 425.695187 196.663078 
L 428.679144 191.884798 
L 431.663102 187.440564 
L 434.647059 183.31445 
L 437.631016 179.490079 
L 440.614973 175.950866 
L 443.59893 172.680237 
L 446.582888 169.66181 
L 449.566845 166.879538 
L 452.550802 164.317833 
L 455.534759 161.961654 
L 458.518717 159.796578 
L 461.502674 157.808848 
L 464.486631 155.985406 
L 467.470588 154.313908 
L 470.454545 152.782729 
L 476.42246 150.09839 
L 482.390374 147.853403 
L 488.358289 145.979282 
L 494.326203 144.417143 
L 500.294118 143.116705 
L 506.262032 142.035269 
L 512.229947 141.136746 
L 521.181818 140.066793 
L 530.13369 139.258392 
L 539.085561 138.648211 
L 551.02139 138.061297 
L 565.941176 137.579683 
L 583.84492 137.234516 
L 610.700535 136.975571 
L 622.636364 136.91486 
L 622.636364 136.91486 
" style="fill:none;stroke:#1f77b4;stroke-linecap:square;stroke-width:1.5;"/>
   </g>
   <g id="line2d_36">
    <path clip-path="url(#pec6ab7f883)" d="M 115.363636 605.290909 
L 133.26738 604.76416 
L 148.187166 604.108473 
L 160.122995 603.3807 
L 172.058824 602.406244 
L 181.010695 601.465083 
L 189.962567 600.295652 
L 198.914439 598.844161 
L 204.882353 597.68795 
L 210.850267 596.354713 
L 216.818182 594.818608 
L 222.786096 593.050436 
L 228.754011 591.017351 
L 234.721925 588.682583 
L 240.68984 586.005215 
L 246.657754 582.940026 
L 252.625668 579.437444 
L 258.593583 575.443666 
L 261.57754 573.244681 
L 264.561497 570.900973 
L 267.545455 568.404816 
L 270.529412 565.748327 
L 273.513369 562.923511 
L 276.497326 559.922303 
L 279.481283 556.736624 
L 282.465241 553.358438 
L 285.449198 549.77982 
L 288.433155 545.993039 
L 291.417112 541.990637 
L 294.40107 537.765527 
L 297.385027 533.311091 
L 300.368984 528.621294 
L 303.352941 523.690796 
L 306.336898 518.515075 
L 309.320856 513.09055 
L 312.304813 507.41471 
L 315.28877 501.486238 
L 321.256684 488.872839 
L 327.224599 475.268216 
L 333.192513 460.716319 
L 339.160428 445.289352 
L 345.128342 429.088516 
L 351.096257 412.242955 
L 360.048128 386.108437 
L 380.935829 324.289611 
L 386.903743 307.258836 
L 392.871658 290.822993 
L 398.839572 275.12014 
L 404.807487 260.261191 
L 410.775401 246.328211 
L 416.743316 233.374574 
L 422.71123 221.426695 
L 425.695187 215.831495 
L 428.679144 210.48693 
L 431.663102 205.390133 
L 434.647059 200.537208 
L 437.631016 195.923358 
L 440.614973 191.543007 
L 443.59893 187.389922 
L 446.582888 183.457323 
L 449.566845 179.737994 
L 452.550802 176.224379 
L 455.534759 172.908676 
L 458.518717 169.782917 
L 461.502674 166.839046 
L 464.486631 164.06898 
L 467.470588 161.464672 
L 470.454545 159.01816 
L 473.438503 156.721605 
L 479.406417 152.547871 
L 485.374332 148.88454 
L 491.342246 145.676429 
L 497.31016 142.872505 
L 503.278075 140.426069 
L 509.245989 138.29475 
L 515.213904 136.440393 
L 521.181818 134.828844 
L 527.149733 133.4297 
L 533.117647 132.21601 
L 542.069519 130.691935 
L 551.02139 129.463682 
L 559.973262 128.474958 
L 568.925134 127.679779 
L 580.860963 126.856986 
L 592.796791 126.242825 
L 607.716578 125.689747 
L 622.636364 125.306706 
L 622.636364 125.306706 
" style="fill:none;stroke:#ff7f0e;stroke-linecap:square;stroke-width:1.5;"/>
   </g>
   <g id="line2d_37">
    <path clip-path="url(#pec6ab7f883)" d="M 115.363636 605.290909 
L 136.251337 604.889492 
L 151.171123 604.421936 
L 163.106952 603.881258 
L 175.042781 603.130063 
L 183.994652 602.381004 
L 192.946524 601.424143 
L 201.898396 600.203242 
L 207.86631 599.20845 
L 213.834225 598.040224 
L 219.802139 596.669604 
L 225.770053 595.063281 
L 231.737968 593.183128 
L 237.705882 590.985752 
L 243.673797 588.422106 
L 249.641711 585.437212 
L 252.625668 583.767961 
L 255.609626 581.970047 
L 258.593583 580.034921 
L 261.57754 577.953696 
L 264.561497 575.71717 
L 267.545455 573.315859 
L 270.529412 570.740044 
L 273.513369 567.979824 
L 276.497326 565.025177 
L 279.481283 561.866044 
L 282.465241 558.492414 
L 285.449198 554.89443 
L 288.433155 551.062504 
L 291.417112 546.987451 
L 294.40107 542.660625 
L 297.385027 538.074085 
L 300.368984 533.220749 
L 303.352941 528.094575 
L 306.336898 522.690738 
L 309.320856 517.00581 
L 312.304813 511.037937 
L 315.28877 504.787008 
L 318.272727 498.254818 
L 324.240642 484.364153 
L 330.208556 469.422983 
L 336.176471 453.524719 
L 342.144385 436.798735 
L 348.112299 419.407118 
L 357.064171 392.489635 
L 374.967914 338.272305 
L 380.935829 320.838531 
L 386.903743 304.019141 
L 392.871658 287.950367 
L 398.839572 272.736831 
L 404.807487 258.451589 
L 410.775401 245.138079 
L 416.743316 232.813396 
L 419.727273 227.020989 
L 422.71123 221.472331 
L 425.695187 216.163996 
L 428.679144 211.091702 
L 431.663102 206.250434 
L 434.647059 201.634565 
L 437.631016 197.237963 
L 440.614973 193.054092 
L 443.59893 189.076104 
L 446.582888 185.296925 
L 449.566845 181.709325 
L 452.550802 178.305987 
L 455.534759 175.079563 
L 458.518717 172.022726 
L 461.502674 169.128209 
L 467.470588 163.797602 
L 473.438503 159.032114 
L 479.406417 154.778893 
L 485.374332 150.988327 
L 491.342246 147.614302 
L 497.31016 144.614296 
L 503.278075 141.949357 
L 509.245989 139.583999 
L 515.213904 137.486037 
L 521.181818 135.626398 
L 527.149733 133.9789 
L 533.117647 132.520031 
L 539.085561 131.228727 
L 548.037433 129.565314 
L 556.989305 128.181779 
L 565.941176 127.031683 
L 574.893048 126.076082 
L 586.828877 125.04896 
L 598.764706 124.247481 
L 613.684492 123.488875 
L 622.636364 123.134892 
L 622.636364 123.134892 
" style="fill:none;stroke:#2ca02c;stroke-linecap:square;stroke-width:1.5;"/>
   </g>
   <g id="line2d_38">
    <path clip-path="url(#pec6ab7f883)" d="M 115.363636 605.290909 
L 136.251337 604.928409 
L 151.171123 604.482709 
L 163.106952 603.954333 
L 175.042781 603.209202 
L 183.994652 602.459421 
L 192.946524 601.49618 
L 201.898396 600.261988 
L 207.86631 599.253774 
L 213.834225 598.0679 
L 219.802139 596.674856 
L 225.770053 595.040731 
L 231.737968 593.12675 
L 237.705882 590.888835 
L 243.673797 588.277227 
L 249.641711 585.236227 
L 252.625668 583.535649 
L 255.609626 581.704115 
L 258.593583 579.732997 
L 261.57754 577.613339 
L 264.561497 575.335876 
L 267.545455 572.891075 
L 270.529412 570.269181 
L 273.513369 567.460272 
L 276.497326 564.454328 
L 279.481283 561.241313 
L 282.465241 557.811268 
L 285.449198 554.154418 
L 288.433155 550.261295 
L 291.417112 546.12287 
L 294.40107 541.730705 
L 297.385027 537.077109 
L 300.368984 532.15531 
L 303.352941 526.959634 
L 306.336898 521.485687 
L 309.320856 515.730538 
L 312.304813 509.6929 
L 315.28877 503.373303 
L 318.272727 496.774251 
L 324.240642 482.758472 
L 330.208556 467.709628 
L 336.176471 451.728997 
L 342.144385 434.954293 
L 348.112299 417.555874 
L 357.064171 390.722874 
L 371.983957 345.833605 
L 377.951872 328.428861 
L 383.919786 311.611713 
L 389.887701 295.524935 
L 395.855615 280.277999 
L 401.823529 265.946738 
L 407.791444 252.57527 
L 413.759358 240.179546 
L 419.727273 228.751867 
L 422.71123 223.39337 
L 425.695187 218.265754 
L 428.679144 213.363556 
L 431.663102 208.680716 
L 434.647059 204.210693 
L 437.631016 199.946583 
L 440.614973 195.881212 
L 443.59893 192.007228 
L 449.566845 184.803601 
L 455.534759 178.276087 
L 461.502674 172.366262 
L 467.470588 167.018117 
L 473.438503 162.178854 
L 479.406417 157.799352 
L 485.374332 153.834376 
L 491.342246 150.242599 
L 497.31016 146.986506 
L 503.278075 144.032206 
L 509.245989 141.349194 
L 515.213904 138.910094 
L 521.181818 136.690386 
L 527.149733 134.668138 
L 533.117647 132.823755 
L 542.069519 130.352903 
L 551.02139 128.191907 
L 559.973262 126.29736 
L 568.925134 124.632554 
L 577.877005 123.166388 
L 589.812834 121.475417 
L 601.748663 120.039015 
L 613.684492 118.814956 
L 622.636364 118.015306 
L 622.636364 118.015306 
" style="fill:none;stroke:#d62728;stroke-linecap:square;stroke-width:1.5;"/>
   </g>
   <g id="line2d_39">
    <path clip-path="url(#pec6ab7f883)" d="M 115.363636 605.290909 
L 133.26738 605.147452 
L 154.15508 604.763411 
L 169.074866 604.278621 
L 181.010695 603.68359 
L 189.962567 603.061777 
L 198.914439 602.234623 
L 207.86631 601.136002 
L 213.834225 600.211208 
L 219.802139 599.096504 
L 225.770053 597.754709 
L 231.737968 596.142184 
L 237.705882 594.208072 
L 243.673797 591.893624 
L 249.641711 589.131693 
L 252.625668 587.559586 
L 255.609626 585.846545 
L 258.593583 583.981806 
L 261.57754 581.954142 
L 264.561497 579.751907 
L 267.545455 577.36311 
L 270.529412 574.77549 
L 273.513369 571.976629 
L 276.497326 568.954067 
L 279.481283 565.695457 
L 282.465241 562.188728 
L 285.449198 558.422276 
L 288.433155 554.385174 
L 291.417112 550.067399 
L 294.40107 545.460069 
L 297.385027 540.555698 
L 300.368984 535.348438 
L 303.352941 529.834331 
L 306.336898 524.011534 
L 309.320856 517.88053 
L 312.304813 511.444302 
L 315.28877 504.708464 
L 321.256684 490.374018 
L 327.224599 474.976468 
L 333.192513 458.656356 
L 339.160428 441.589483 
L 348.112299 415.034681 
L 369 352.378615 
L 374.967914 335.18043 
L 380.935829 318.580926 
L 386.903743 302.689327 
L 392.871658 287.585899 
L 398.839572 273.324211 
L 404.807487 259.934294 
L 410.775401 247.426226 
L 416.743316 235.793763 
L 422.71123 225.017792 
L 428.679144 215.069432 
L 434.647059 205.912737 
L 440.614973 197.506969 
L 446.582888 189.808454 
L 452.550802 182.772082 
L 458.518717 176.352464 
L 464.486631 170.504821 
L 470.454545 165.185643 
L 476.42246 160.353152 
L 482.390374 155.967618 
L 488.358289 151.991559 
L 494.326203 148.389838 
L 500.294118 145.129702 
L 506.262032 142.180755 
L 512.229947 139.514903 
L 518.197861 137.106264 
L 524.165775 134.931062 
L 530.13369 132.967513 
L 536.101604 131.195698 
L 542.069519 129.597439 
L 551.02139 127.489653 
L 559.973262 125.685738 
L 568.925134 124.142669 
L 577.877005 122.823294 
L 586.828877 121.695594 
L 598.764706 120.443111 
L 610.700535 119.428036 
L 622.636364 118.605671 
L 622.636364 118.605671 
" style="fill:none;stroke:#9467bd;stroke-linecap:square;stroke-width:1.5;"/>
   </g>
   <g id="line2d_40">
    <path clip-path="url(#pec6ab7f883)" d="M 115.363636 605.290909 
L 133.26738 605.162706 
L 148.187166 604.85854 
L 163.106952 604.327601 
L 175.042781 603.675296 
L 183.994652 603.004171 
L 192.946524 602.12841 
L 201.898396 600.990606 
L 207.86631 600.05117 
L 213.834225 598.937012 
L 219.802139 597.617669 
L 225.770053 596.057881 
L 231.737968 594.217051 
L 237.705882 592.048737 
L 243.673797 589.500216 
L 249.641711 586.512182 
L 252.625668 584.832988 
L 255.609626 583.018664 
L 258.593583 581.059963 
L 261.57754 578.947276 
L 264.561497 576.670664 
L 267.545455 574.219909 
L 270.529412 571.584567 
L 273.513369 568.75404 
L 276.497326 565.71766 
L 279.481283 562.464786 
L 282.465241 558.984921 
L 285.449198 555.267842 
L 288.433155 551.303747 
L 291.417112 547.083415 
L 294.40107 542.59838 
L 297.385027 537.841122 
L 300.368984 532.80526 
L 303.352941 527.48575 
L 306.336898 521.879095 
L 309.320856 515.983533 
L 312.304813 509.799228 
L 315.28877 503.328441 
L 318.272727 496.575668 
L 324.240642 482.253997 
L 330.208556 466.918291 
L 336.176471 450.691291 
L 342.144385 433.73132 
L 351.096257 407.333043 
L 371.983957 344.967528 
L 377.951872 327.860777 
L 383.919786 311.37601 
L 389.887701 295.631811 
L 395.855615 280.714682 
L 401.823529 266.680742 
L 407.791444 253.558983 
L 413.759358 241.355418 
L 419.727273 230.057527 
L 425.695187 219.638584 
L 431.663102 210.061573 
L 437.631016 201.282549 
L 443.59893 193.253399 
L 449.566845 185.92401 
L 455.534759 179.243928 
L 461.502674 173.163563 
L 467.470588 167.635039 
L 473.438503 162.61275 
L 479.406417 158.053706 
L 485.374332 153.917704 
L 491.342246 150.167391 
L 497.31016 146.768233 
L 503.278075 143.688432 
L 509.245989 140.898801 
L 515.213904 138.372624 
L 521.181818 136.085492 
L 527.149733 134.015146 
L 533.117647 132.141315 
L 539.085561 130.445558 
L 548.037433 128.199575 
L 556.989305 126.266708 
L 565.941176 124.603568 
L 574.893048 123.172695 
L 583.84492 121.941778 
L 595.780749 120.56402 
L 607.716578 119.437049 
L 619.652406 118.515298 
L 622.636364 118.312394 
L 622.636364 118.312394 
" style="fill:none;stroke:#8c564b;stroke-linecap:square;stroke-width:1.5;"/>
   </g>
   <g id="line2d_41">
    <path clip-path="url(#pec6ab7f883)" d="M 115.363636 605.290909 
L 130.283422 605.182316 
L 151.171123 604.796034 
L 166.090909 604.307516 
L 178.026738 603.712209 
L 186.97861 603.093733 
L 195.930481 602.275186 
L 204.882353 601.193454 
L 210.850267 600.286585 
L 216.818182 599.197049 
L 222.786096 597.889751 
L 228.754011 596.323601 
L 234.721925 594.450818 
L 240.68984 592.216304 
L 246.657754 589.557166 
L 249.641711 588.046517 
L 252.625668 586.402502 
L 255.609626 584.615038 
L 258.593583 582.6736 
L 261.57754 580.56726 
L 264.561497 578.284741 
L 267.545455 575.814493 
L 270.529412 573.144781 
L 273.513369 570.263793 
L 276.497326 567.159763 
L 279.481283 563.821125 
L 282.465241 560.236676 
L 285.449198 556.395762 
L 288.433155 552.288481 
L 291.417112 547.9059 
L 294.40107 543.240282 
L 297.385027 538.285316 
L 300.368984 533.036348 
L 303.352941 527.490601 
L 306.336898 521.647377 
L 309.320856 515.50824 
L 312.304813 509.077158 
L 315.28877 502.360606 
L 321.256684 488.109812 
L 327.224599 472.858523 
L 333.192513 456.747222 
L 339.160428 439.947934 
L 348.112299 413.887806 
L 366.016043 361.192592 
L 371.983957 344.145398 
L 377.951872 327.613056 
L 383.919786 311.709035 
L 389.887701 296.519342 
L 395.855615 282.104256 
L 401.823529 268.501068 
L 407.791444 255.727327 
L 413.759358 243.784234 
L 419.727273 232.659908 
L 425.695187 222.332358 
L 431.663102 212.772101 
L 437.631016 203.944368 
L 443.59893 195.810939 
L 449.566845 188.331611 
L 455.534759 181.465369 
L 461.502674 175.171282 
L 467.470588 169.409174 
L 473.438503 164.140127 
L 479.406417 159.326818 
L 485.374332 154.933757 
L 491.342246 150.927426 
L 497.31016 147.276342 
L 503.278075 143.951081 
L 509.245989 140.924244 
L 515.213904 138.17041 
L 521.181818 135.666062 
L 527.149733 133.389493 
L 533.117647 131.320714 
L 539.085561 129.441352 
L 545.053476 127.734547 
L 554.005348 125.464445 
L 562.957219 123.501416 
L 571.909091 121.804644 
L 580.860963 120.338548 
L 589.812834 119.072162 
L 601.748663 117.648309 
L 613.684492 116.477873 
L 622.636364 115.739099 
L 622.636364 115.739099 
" style="fill:none;stroke:#e377c2;stroke-linecap:square;stroke-width:1.5;"/>
   </g>
   <g id="line2d_42">
    <path clip-path="url(#pec6ab7f883)" d="M 115.363636 605.290909 
L 133.26738 605.160055 
L 148.187166 604.857675 
L 163.106952 604.333891 
L 175.042781 603.689888 
L 183.994652 603.025592 
L 192.946524 602.156389 
L 201.898396 601.02397 
L 207.86631 600.086911 
L 213.834225 598.973666 
L 219.802139 597.653258 
L 225.770053 596.089817 
L 231.737968 594.242036 
L 237.705882 592.06266 
L 243.673797 589.498059 
L 249.641711 586.487947 
L 252.625668 584.79515 
L 255.609626 582.965346 
L 258.593583 580.989168 
L 261.57754 578.856894 
L 264.561497 576.558487 
L 267.545455 574.083644 
L 270.529412 571.421858 
L 273.513369 568.562493 
L 276.497326 565.494876 
L 279.481283 562.2084 
L 282.465241 558.692645 
L 285.449198 554.937517 
L 288.433155 550.933396 
L 291.417112 546.671306 
L 294.40107 542.143094 
L 297.385027 537.341616 
L 300.368984 532.260937 
L 303.352941 526.896531 
L 306.336898 521.245475 
L 309.320856 515.306642 
L 312.304813 509.080873 
L 315.28877 502.571139 
L 321.256684 488.723009 
L 327.224599 473.832469 
L 333.192513 458.007875 
L 339.160428 441.393565 
L 345.128342 424.164481 
L 354.080214 397.603456 
L 369 353.164006 
L 374.967914 335.902978 
L 380.935829 319.186439 
L 386.903743 303.143121 
L 392.871658 287.871382 
L 398.839572 273.44005 
L 404.807487 259.890875 
L 410.775401 247.242017 
L 416.743316 235.491991 
L 422.71123 224.623674 
L 428.679144 214.608056 
L 434.647059 205.407572 
L 440.614973 196.978926 
L 446.582888 189.275401 
L 452.550802 182.24869 
L 458.518717 175.850296 
L 464.486631 170.032573 
L 470.454545 164.749466 
L 476.42246 159.957017 
L 482.390374 155.613683 
L 488.358289 151.680513 
L 494.326203 148.121222 
L 500.294118 144.902179 
L 506.262032 141.992354 
L 512.229947 139.363211 
L 518.197861 136.988591 
L 524.165775 134.84457 
L 530.13369 132.909317 
L 536.101604 131.162942 
L 542.069519 129.587354 
L 551.02139 127.508672 
L 559.973262 125.728462 
L 568.925134 124.204301 
L 577.877005 122.899653 
L 586.828877 121.783096 
L 598.764706 120.540848 
L 610.700535 119.53179 
L 622.636364 118.71222 
L 622.636364 118.71222 
" style="fill:none;stroke:#7f7f7f;stroke-linecap:square;stroke-width:1.5;"/>
   </g>
   <g id="line2d_43">
    <path clip-path="url(#pec6ab7f883)" d="M 115.363636 605.290909 
L 133.26738 605.188102 
L 151.171123 604.899428 
L 166.090909 604.460218 
L 178.026738 603.904987 
L 186.97861 603.31591 
L 195.930481 602.524565 
L 204.882353 601.465386 
L 210.850267 600.569193 
L 216.818182 599.485147 
L 222.786096 598.17626 
L 228.754011 596.599103 
L 234.721925 594.703055 
L 240.68984 592.429655 
L 246.657754 589.712136 
L 249.641711 588.163655 
L 252.625668 586.475295 
L 255.609626 584.636398 
L 258.593583 582.635866 
L 261.57754 580.46221 
L 264.561497 578.103627 
L 267.545455 575.548091 
L 270.529412 572.78346 
L 273.513369 569.797613 
L 276.497326 566.578601 
L 279.481283 563.114826 
L 282.465241 559.395238 
L 285.449198 555.409551 
L 288.433155 551.148478 
L 291.417112 546.603971 
L 294.40107 541.769475 
L 297.385027 536.640172 
L 300.368984 531.213219 
L 303.352941 525.487969 
L 306.336898 519.466156 
L 309.320856 513.152046 
L 312.304813 506.55254 
L 318.272727 492.53833 
L 324.240642 477.531605 
L 330.208556 461.678974 
L 336.176471 445.158105 
L 345.128342 419.560323 
L 363.032086 367.929699 
L 369 351.252172 
L 374.967914 335.077922 
L 380.935829 319.507588 
L 386.903743 304.614945 
L 392.871658 290.449519 
L 398.839572 277.039919 
L 404.807487 264.397402 
L 410.775401 252.519322 
L 416.743316 241.392266 
L 422.71123 230.994776 
L 428.679144 221.299632 
L 434.647059 212.275709 
L 440.614973 203.889461 
L 446.582888 196.106069 
L 452.550802 188.890331 
L 458.518717 182.207321 
L 464.486631 176.022869 
L 470.454545 170.30391 
L 476.42246 165.018717 
L 482.390374 160.13705 
L 488.358289 155.630245 
L 494.326203 151.471249 
L 500.294118 147.634627 
L 506.262032 144.096532 
L 512.229947 140.834667 
L 518.197861 137.828225 
L 524.165775 135.057826 
L 530.13369 132.505449 
L 536.101604 130.154355 
L 542.069519 127.989016 
L 548.037433 125.99504 
L 556.989305 123.296504 
L 565.941176 120.912936 
L 574.893048 118.808027 
L 583.84492 116.949543 
L 592.796791 115.308894 
L 601.748663 113.860744 
L 613.684492 112.190917 
L 622.636364 111.109091 
L 622.636364 111.109091 
" style="fill:none;stroke:#bcbd22;stroke-linecap:square;stroke-width:1.5;"/>
   </g>
   <g id="line2d_44">
    <path clip-path="url(#pec6ab7f883)" d="M 115.363636 605.290909 
L 148.187166 604.904445 
L 151.171123 604.479334 
L 157.139037 604.286101 
L 166.090909 603.577583 
L 175.042781 602.366661 
L 178.026738 601.915786 
L 181.010695 601.593732 
L 186.97861 600.717746 
L 189.962567 599.996345 
L 192.946524 599.72582 
L 198.914439 598.605073 
L 201.898396 598.295901 
L 210.850267 596.247639 
L 213.834225 595.345889 
L 216.818182 594.624488 
L 219.802139 593.774266 
L 222.786096 593.426448 
L 225.770053 592.614873 
L 228.754011 592.228408 
L 231.737968 591.378186 
L 234.721925 590.296086 
L 237.705882 589.536039 
L 240.68984 588.312235 
L 243.673797 586.598909 
L 246.657754 585.722922 
L 249.641711 583.507192 
L 252.625668 581.884041 
L 255.609626 580.467005 
L 258.593583 578.058043 
L 261.57754 575.94537 
L 264.561497 573.639465 
L 267.545455 570.61216 
L 270.529412 568.164551 
L 273.513369 563.913441 
L 279.481283 559.546392 
L 282.465241 556.750966 
L 285.449198 553.388724 
L 288.433155 548.738268 
L 294.40107 541.459853 
L 297.385027 538.123376 
L 303.352941 527.469837 
L 306.336898 522.973967 
L 309.320856 519.598843 
L 312.304813 514.342926 
L 315.28877 506.858396 
L 318.272727 500.520378 
L 324.240642 486.697831 
L 327.224599 476.623989 
L 333.192513 461.487462 
L 336.176471 453.011007 
L 339.160428 444.959663 
L 342.144385 437.488015 
L 345.128342 429.462435 
L 348.112299 418.306493 
L 351.096257 409.546631 
L 354.080214 402.525859 
L 363.032086 372.845384 
L 366.016043 361.058216 
L 369 353.560804 
L 371.983957 343.371023 
L 374.967914 335.963786 
L 377.951872 328.981661 
L 380.935829 320.17027 
L 383.919786 310.534421 
L 386.903743 302.08373 
L 389.887701 294.921255 
L 392.871658 286.367507 
L 398.839572 266.477466 
L 401.823529 259.211933 
L 404.807487 250.735478 
L 407.791444 246.278254 
L 410.775401 239.2446 
L 413.759358 233.9758 
L 419.727273 225.808517 
L 422.71123 222.794093 
L 425.695187 216.868304 
L 428.679144 213.31283 
L 431.663102 211.187276 
L 434.647059 206.665641 
L 440.614973 199.580458 
L 443.59893 195.471052 
L 446.582888 193.074972 
L 449.566845 189.184562 
L 452.550802 184.701574 
L 455.534759 181.107454 
L 458.518717 178.02862 
L 461.502674 175.529483 
L 464.486631 172.824231 
L 467.470588 168.779236 
L 470.454545 165.094941 
L 473.438503 162.879211 
L 476.42246 161.784228 
L 479.406417 159.800377 
L 482.390374 158.061286 
L 485.374332 154.78922 
L 488.358289 153.810177 
L 491.342246 151.761915 
L 494.326203 150.988986 
L 497.31016 148.747492 
L 500.294118 148.232206 
L 506.262032 145.346604 
L 509.245989 142.757292 
L 512.229947 141.984363 
L 515.213904 141.366019 
L 518.197861 139.807279 
L 527.149733 135.736519 
L 530.13369 134.847651 
L 533.117647 133.134325 
L 536.101604 132.68345 
L 539.085561 132.670568 
L 545.053476 131.743053 
L 548.037433 131.137592 
L 551.02139 129.746319 
L 554.005348 128.741512 
L 559.973262 127.749586 
L 562.957219 126.847836 
L 565.941176 125.469445 
L 568.925134 124.490402 
L 571.909091 123.382537 
L 574.893048 122.416376 
L 580.860963 121.218336 
L 583.84492 120.22641 
L 589.812834 119.157192 
L 592.796791 117.843212 
L 595.780749 117.418101 
L 598.764706 116.658054 
L 601.748663 116.065476 
L 604.73262 115.356957 
L 607.716578 115.150843 
L 610.700535 114.609792 
L 616.668449 114.261974 
L 619.652406 114.223328 
L 622.636364 113.939921 
L 622.636364 113.939921 
" style="fill:none;stroke:#17becf;stroke-dasharray:14.8,6.4;stroke-dashoffset:0;stroke-width:4;"/>
   </g>
   <g id="patch_3">
    <path d="M 90 630 
L 90 86.4 
" style="fill:none;stroke:#000000;stroke-linecap:square;stroke-linejoin:miter;stroke-width:0.8;"/>
   </g>
   <g id="patch_4">
    <path d="M 648 630 
L 648 86.4 
" style="fill:none;stroke:#000000;stroke-linecap:square;stroke-linejoin:miter;stroke-width:0.8;"/>
   </g>
   <g id="patch_5">
    <path d="M 90 630 
L 648 630 
" style="fill:none;stroke:#000000;stroke-linecap:square;stroke-linejoin:miter;stroke-width:0.8;"/>
   </g>
   <g id="patch_6">
    <path d="M 90 86.4 
L 648 86.4 
" style="fill:none;stroke:#000000;stroke-linecap:square;stroke-linejoin:miter;stroke-width:0.8;"/>
   </g>
   <g id="text_20">
    <!-- Afghanistan relative err =  -->
    <g transform="translate(289.48125 80.4)scale(0.12 -0.12)">
     <defs>
      <path d="M 34.1875 63.1875 
L 20.796875 26.90625 
L 47.609375 26.90625 
z
M 28.609375 72.90625 
L 39.796875 72.90625 
L 67.578125 0 
L 57.328125 0 
L 50.6875 18.703125 
L 17.828125 18.703125 
L 11.1875 0 
L 0.78125 0 
z
" id="DejaVuSans-65"/>
      <path d="M 37.109375 75.984375 
L 37.109375 68.5 
L 28.515625 68.5 
Q 23.6875 68.5 21.796875 66.546875 
Q 19.921875 64.59375 19.921875 59.515625 
L 19.921875 54.6875 
L 34.71875 54.6875 
L 34.71875 47.703125 
L 19.921875 47.703125 
L 19.921875 0 
L 10.890625 0 
L 10.890625 47.703125 
L 2.296875 47.703125 
L 2.296875 54.6875 
L 10.890625 54.6875 
L 10.890625 58.5 
Q 10.890625 67.625 15.140625 71.796875 
Q 19.390625 75.984375 28.609375 75.984375 
z
" id="DejaVuSans-102"/>
      <path d="M 45.40625 27.984375 
Q 45.40625 37.75 41.375 43.109375 
Q 37.359375 48.484375 30.078125 48.484375 
Q 22.859375 48.484375 18.828125 43.109375 
Q 14.796875 37.75 14.796875 27.984375 
Q 14.796875 18.265625 18.828125 12.890625 
Q 22.859375 7.515625 30.078125 7.515625 
Q 37.359375 7.515625 41.375 12.890625 
Q 45.40625 18.265625 45.40625 27.984375 
z
M 54.390625 6.78125 
Q 54.390625 -7.171875 48.1875 -13.984375 
Q 42 -20.796875 29.203125 -20.796875 
Q 24.46875 -20.796875 20.265625 -20.09375 
Q 16.0625 -19.390625 12.109375 -17.921875 
L 12.109375 -9.1875 
Q 16.0625 -11.328125 19.921875 -12.34375 
Q 23.78125 -13.375 27.78125 -13.375 
Q 36.625 -13.375 41.015625 -8.765625 
Q 45.40625 -4.15625 45.40625 5.171875 
L 45.40625 9.625 
Q 42.625 4.78125 38.28125 2.390625 
Q 33.9375 0 27.875 0 
Q 17.828125 0 11.671875 7.65625 
Q 5.515625 15.328125 5.515625 27.984375 
Q 5.515625 40.671875 11.671875 48.328125 
Q 17.828125 56 27.875 56 
Q 33.9375 56 38.28125 53.609375 
Q 42.625 51.21875 45.40625 46.390625 
L 45.40625 54.6875 
L 54.390625 54.6875 
z
" id="DejaVuSans-103"/>
      <path d="M 54.890625 33.015625 
L 54.890625 0 
L 45.90625 0 
L 45.90625 32.71875 
Q 45.90625 40.484375 42.875 44.328125 
Q 39.84375 48.1875 33.796875 48.1875 
Q 26.515625 48.1875 22.3125 43.546875 
Q 18.109375 38.921875 18.109375 30.90625 
L 18.109375 0 
L 9.078125 0 
L 9.078125 75.984375 
L 18.109375 75.984375 
L 18.109375 46.1875 
Q 21.34375 51.125 25.703125 53.5625 
Q 30.078125 56 35.796875 56 
Q 45.21875 56 50.046875 50.171875 
Q 54.890625 44.34375 54.890625 33.015625 
z
" id="DejaVuSans-104"/>
      <path d="M 54.890625 33.015625 
L 54.890625 0 
L 45.90625 0 
L 45.90625 32.71875 
Q 45.90625 40.484375 42.875 44.328125 
Q 39.84375 48.1875 33.796875 48.1875 
Q 26.515625 48.1875 22.3125 43.546875 
Q 18.109375 38.921875 18.109375 30.90625 
L 18.109375 0 
L 9.078125 0 
L 9.078125 54.6875 
L 18.109375 54.6875 
L 18.109375 46.1875 
Q 21.34375 51.125 25.703125 53.5625 
Q 30.078125 56 35.796875 56 
Q 45.21875 56 50.046875 50.171875 
Q 54.890625 44.34375 54.890625 33.015625 
z
" id="DejaVuSans-110"/>
      <path d="M 41.109375 46.296875 
Q 39.59375 47.171875 37.8125 47.578125 
Q 36.03125 48 33.890625 48 
Q 26.265625 48 22.1875 43.046875 
Q 18.109375 38.09375 18.109375 28.8125 
L 18.109375 0 
L 9.078125 0 
L 9.078125 54.6875 
L 18.109375 54.6875 
L 18.109375 46.1875 
Q 20.953125 51.171875 25.484375 53.578125 
Q 30.03125 56 36.53125 56 
Q 37.453125 56 38.578125 55.875 
Q 39.703125 55.765625 41.0625 55.515625 
z
" id="DejaVuSans-114"/>
      <path d="M 10.59375 45.40625 
L 73.1875 45.40625 
L 73.1875 37.203125 
L 10.59375 37.203125 
z
M 10.59375 25.484375 
L 73.1875 25.484375 
L 73.1875 17.1875 
L 10.59375 17.1875 
z
" id="DejaVuSans-61"/>
     </defs>
     <use xlink:href="#DejaVuSans-65"/>
     <use x="64.783203" xlink:href="#DejaVuSans-102"/>
     <use x="99.988281" xlink:href="#DejaVuSans-103"/>
     <use x="163.464844" xlink:href="#DejaVuSans-104"/>
     <use x="226.84375" xlink:href="#DejaVuSans-97"/>
     <use x="288.123047" xlink:href="#DejaVuSans-110"/>
     <use x="351.501953" xlink:href="#DejaVuSans-105"/>
     <use x="379.285156" xlink:href="#DejaVuSans-115"/>
     <use x="431.384766" xlink:href="#DejaVuSans-116"/>
     <use x="470.59375" xlink:href="#DejaVuSans-97"/>
     <use x="531.873047" xlink:href="#DejaVuSans-110"/>
     <use x="595.251953" xlink:href="#DejaVuSans-32"/>
     <use x="627.039062" xlink:href="#DejaVuSans-114"/>
     <use x="665.902344" xlink:href="#DejaVuSans-101"/>
     <use x="727.425781" xlink:href="#DejaVuSans-108"/>
     <use x="755.208984" xlink:href="#DejaVuSans-97"/>
     <use x="816.488281" xlink:href="#DejaVuSans-116"/>
     <use x="855.697266" xlink:href="#DejaVuSans-105"/>
     <use x="883.480469" xlink:href="#DejaVuSans-118"/>
     <use x="942.660156" xlink:href="#DejaVuSans-101"/>
     <use x="1004.183594" xlink:href="#DejaVuSans-32"/>
     <use x="1035.970703" xlink:href="#DejaVuSans-101"/>
     <use x="1097.494141" xlink:href="#DejaVuSans-114"/>
     <use x="1136.857422" xlink:href="#DejaVuSans-114"/>
     <use x="1177.970703" xlink:href="#DejaVuSans-32"/>
     <use x="1209.757812" xlink:href="#DejaVuSans-61"/>
     <use x="1293.546875" xlink:href="#DejaVuSans-32"/>
    </g>
   </g>
   <g id="legend_1">
    <g id="patch_7">
     <path d="M 97 226.503125 
L 185.6 226.503125 
Q 187.6 226.503125 187.6 224.503125 
L 187.6 93.4 
Q 187.6 91.4 185.6 91.4 
L 97 91.4 
Q 95 91.4 95 93.4 
L 95 224.503125 
Q 95 226.503125 97 226.503125 
z
" style="fill:#ffffff;opacity:0.8;stroke:#cccccc;stroke-linejoin:miter;"/>
    </g>
    <g id="line2d_45">
     <path d="M 99 99.498438 
L 119 99.498438 
" style="fill:none;stroke:#1f77b4;stroke-linecap:square;stroke-width:1.5;"/>
    </g>
    <g id="line2d_46"/>
    <g id="text_21">
     <!-- SI -->
     <g transform="translate(127 102.998438)scale(0.1 -0.1)">
      <defs>
       <path d="M 53.515625 70.515625 
L 53.515625 60.890625 
Q 47.90625 63.578125 42.921875 64.890625 
Q 37.9375 66.21875 33.296875 66.21875 
Q 25.25 66.21875 20.875 63.09375 
Q 16.5 59.96875 16.5 54.203125 
Q 16.5 49.359375 19.40625 46.890625 
Q 22.3125 44.4375 30.421875 42.921875 
L 36.375 41.703125 
Q 47.40625 39.59375 52.65625 34.296875 
Q 57.90625 29 57.90625 20.125 
Q 57.90625 9.515625 50.796875 4.046875 
Q 43.703125 -1.421875 29.984375 -1.421875 
Q 24.8125 -1.421875 18.96875 -0.25 
Q 13.140625 0.921875 6.890625 3.21875 
L 6.890625 13.375 
Q 12.890625 10.015625 18.65625 8.296875 
Q 24.421875 6.59375 29.984375 6.59375 
Q 38.421875 6.59375 43.015625 9.90625 
Q 47.609375 13.234375 47.609375 19.390625 
Q 47.609375 24.75 44.3125 27.78125 
Q 41.015625 30.8125 33.5 32.328125 
L 27.484375 33.5 
Q 16.453125 35.6875 11.515625 40.375 
Q 6.59375 45.0625 6.59375 53.421875 
Q 6.59375 63.09375 13.40625 68.65625 
Q 20.21875 74.21875 32.171875 74.21875 
Q 37.3125 74.21875 42.625 73.28125 
Q 47.953125 72.359375 53.515625 70.515625 
z
" id="DejaVuSans-83"/>
       <path d="M 9.8125 72.90625 
L 19.671875 72.90625 
L 19.671875 0 
L 9.8125 0 
z
" id="DejaVuSans-73"/>
      </defs>
      <use xlink:href="#DejaVuSans-83"/>
      <use x="63.476562" xlink:href="#DejaVuSans-73"/>
     </g>
    </g>
    <g id="line2d_47">
     <path d="M 99 114.176563 
L 119 114.176563 
" style="fill:none;stroke:#ff7f0e;stroke-linecap:square;stroke-width:1.5;"/>
    </g>
    <g id="line2d_48"/>
    <g id="text_22">
     <!-- BD -->
     <g transform="translate(127 117.676563)scale(0.1 -0.1)">
      <defs>
       <path d="M 19.671875 34.8125 
L 19.671875 8.109375 
L 35.5 8.109375 
Q 43.453125 8.109375 47.28125 11.40625 
Q 51.125 14.703125 51.125 21.484375 
Q 51.125 28.328125 47.28125 31.5625 
Q 43.453125 34.8125 35.5 34.8125 
z
M 19.671875 64.796875 
L 19.671875 42.828125 
L 34.28125 42.828125 
Q 41.5 42.828125 45.03125 45.53125 
Q 48.578125 48.25 48.578125 53.8125 
Q 48.578125 59.328125 45.03125 62.0625 
Q 41.5 64.796875 34.28125 64.796875 
z
M 9.8125 72.90625 
L 35.015625 72.90625 
Q 46.296875 72.90625 52.390625 68.21875 
Q 58.5 63.53125 58.5 54.890625 
Q 58.5 48.1875 55.375 44.234375 
Q 52.25 40.28125 46.1875 39.3125 
Q 53.46875 37.75 57.5 32.78125 
Q 61.53125 27.828125 61.53125 20.40625 
Q 61.53125 10.640625 54.890625 5.3125 
Q 48.25 0 35.984375 0 
L 9.8125 0 
z
" id="DejaVuSans-66"/>
      </defs>
      <use xlink:href="#DejaVuSans-66"/>
      <use x="68.603516" xlink:href="#DejaVuSans-68"/>
     </g>
    </g>
    <g id="line2d_49">
     <path d="M 99 128.854688 
L 119 128.854688 
" style="fill:none;stroke:#2ca02c;stroke-linecap:square;stroke-width:1.5;"/>
    </g>
    <g id="line2d_50"/>
    <g id="text_23">
     <!-- SIR -->
     <g transform="translate(127 132.354688)scale(0.1 -0.1)">
      <defs>
       <path d="M 44.390625 34.1875 
Q 47.5625 33.109375 50.5625 29.59375 
Q 53.5625 26.078125 56.59375 19.921875 
L 66.609375 0 
L 56 0 
L 46.6875 18.703125 
Q 43.0625 26.03125 39.671875 28.421875 
Q 36.28125 30.8125 30.421875 30.8125 
L 19.671875 30.8125 
L 19.671875 0 
L 9.8125 0 
L 9.8125 72.90625 
L 32.078125 72.90625 
Q 44.578125 72.90625 50.734375 67.671875 
Q 56.890625 62.453125 56.890625 51.90625 
Q 56.890625 45.015625 53.6875 40.46875 
Q 50.484375 35.9375 44.390625 34.1875 
z
M 19.671875 64.796875 
L 19.671875 38.921875 
L 32.078125 38.921875 
Q 39.203125 38.921875 42.84375 42.21875 
Q 46.484375 45.515625 46.484375 51.90625 
Q 46.484375 58.296875 42.84375 61.546875 
Q 39.203125 64.796875 32.078125 64.796875 
z
" id="DejaVuSans-82"/>
      </defs>
      <use xlink:href="#DejaVuSans-83"/>
      <use x="63.476562" xlink:href="#DejaVuSans-73"/>
      <use x="92.96875" xlink:href="#DejaVuSans-82"/>
     </g>
    </g>
    <g id="line2d_51">
     <path d="M 99 143.532812 
L 119 143.532812 
" style="fill:none;stroke:#d62728;stroke-linecap:square;stroke-width:1.5;"/>
    </g>
    <g id="line2d_52"/>
    <g id="text_24">
     <!-- eSIR -->
     <g transform="translate(127 147.032812)scale(0.1 -0.1)">
      <use xlink:href="#DejaVuSans-101"/>
      <use x="61.523438" xlink:href="#DejaVuSans-83"/>
      <use x="125" xlink:href="#DejaVuSans-73"/>
      <use x="154.492188" xlink:href="#DejaVuSans-82"/>
     </g>
    </g>
    <g id="line2d_53">
     <path d="M 99 158.210938 
L 119 158.210938 
" style="fill:none;stroke:#9467bd;stroke-linecap:square;stroke-width:1.5;"/>
    </g>
    <g id="line2d_54"/>
    <g id="text_25">
     <!-- SEIR -->
     <g transform="translate(127 161.710938)scale(0.1 -0.1)">
      <defs>
       <path d="M 9.8125 72.90625 
L 55.90625 72.90625 
L 55.90625 64.59375 
L 19.671875 64.59375 
L 19.671875 43.015625 
L 54.390625 43.015625 
L 54.390625 34.71875 
L 19.671875 34.71875 
L 19.671875 8.296875 
L 56.78125 8.296875 
L 56.78125 0 
L 9.8125 0 
z
" id="DejaVuSans-69"/>
      </defs>
      <use xlink:href="#DejaVuSans-83"/>
      <use x="63.476562" xlink:href="#DejaVuSans-69"/>
      <use x="126.660156" xlink:href="#DejaVuSans-73"/>
      <use x="156.152344" xlink:href="#DejaVuSans-82"/>
     </g>
    </g>
    <g id="line2d_55">
     <path d="M 99 172.889063 
L 119 172.889063 
" style="fill:none;stroke:#8c564b;stroke-linecap:square;stroke-width:1.5;"/>
    </g>
    <g id="line2d_56"/>
    <g id="text_26">
     <!-- eSEIR -->
     <g transform="translate(127 176.389063)scale(0.1 -0.1)">
      <use xlink:href="#DejaVuSans-101"/>
      <use x="61.523438" xlink:href="#DejaVuSans-83"/>
      <use x="125" xlink:href="#DejaVuSans-69"/>
      <use x="188.183594" xlink:href="#DejaVuSans-73"/>
      <use x="217.675781" xlink:href="#DejaVuSans-82"/>
     </g>
    </g>
    <g id="line2d_57">
     <path d="M 99 187.567188 
L 119 187.567188 
" style="fill:none;stroke:#e377c2;stroke-linecap:square;stroke-width:1.5;"/>
    </g>
    <g id="line2d_58"/>
    <g id="text_27">
     <!-- SEIUR -->
     <g transform="translate(127 191.067188)scale(0.1 -0.1)">
      <defs>
       <path d="M 8.6875 72.90625 
L 18.609375 72.90625 
L 18.609375 28.609375 
Q 18.609375 16.890625 22.84375 11.734375 
Q 27.09375 6.59375 36.625 6.59375 
Q 46.09375 6.59375 50.34375 11.734375 
Q 54.59375 16.890625 54.59375 28.609375 
L 54.59375 72.90625 
L 64.5 72.90625 
L 64.5 27.390625 
Q 64.5 13.140625 57.4375 5.859375 
Q 50.390625 -1.421875 36.625 -1.421875 
Q 22.796875 -1.421875 15.734375 5.859375 
Q 8.6875 13.140625 8.6875 27.390625 
z
" id="DejaVuSans-85"/>
      </defs>
      <use xlink:href="#DejaVuSans-83"/>
      <use x="63.476562" xlink:href="#DejaVuSans-69"/>
      <use x="126.660156" xlink:href="#DejaVuSans-73"/>
      <use x="156.152344" xlink:href="#DejaVuSans-85"/>
      <use x="229.345703" xlink:href="#DejaVuSans-82"/>
     </g>
    </g>
    <g id="line2d_59">
     <path d="M 99 202.245312 
L 119 202.245312 
" style="fill:none;stroke:#7f7f7f;stroke-linecap:square;stroke-width:1.5;"/>
    </g>
    <g id="line2d_60"/>
    <g id="text_28">
     <!-- eSEIUR -->
     <g transform="translate(127 205.745312)scale(0.1 -0.1)">
      <use xlink:href="#DejaVuSans-101"/>
      <use x="61.523438" xlink:href="#DejaVuSans-83"/>
      <use x="125" xlink:href="#DejaVuSans-69"/>
      <use x="188.183594" xlink:href="#DejaVuSans-73"/>
      <use x="217.675781" xlink:href="#DejaVuSans-85"/>
      <use x="290.869141" xlink:href="#DejaVuSans-82"/>
     </g>
    </g>
    <g id="line2d_61">
     <path d="M 99 216.923437 
L 119 216.923437 
" style="fill:none;stroke:#bcbd22;stroke-linecap:square;stroke-width:1.5;"/>
    </g>
    <g id="line2d_62"/>
    <g id="text_29">
     <!-- eSEIUR$^{range}$ -->
     <g transform="translate(127 220.423437)scale(0.1 -0.1)">
      <defs>
       <path d="M 44.578125 46.390625 
Q 43.21875 47.125 41.453125 47.515625 
Q 39.703125 47.90625 37.703125 47.90625 
Q 30.515625 47.90625 25.140625 42.453125 
Q 19.78125 37.015625 18.015625 27.875 
L 12.5 0 
L 3.515625 0 
L 14.203125 54.6875 
L 23.1875 54.6875 
L 21.484375 46.1875 
Q 25.046875 50.921875 30 53.453125 
Q 34.96875 56 40.578125 56 
Q 42.046875 56 43.453125 55.828125 
Q 44.875 55.671875 46.296875 55.28125 
z
" id="DejaVuSans-Oblique-114"/>
       <path d="M 53.71875 31.203125 
L 47.609375 0 
L 38.625 0 
L 40.28125 8.296875 
Q 36.328125 3.421875 31.265625 1 
Q 26.21875 -1.421875 20.015625 -1.421875 
Q 13.03125 -1.421875 8.5625 2.84375 
Q 4.109375 7.125 4.109375 13.8125 
Q 4.109375 23.390625 11.75 28.953125 
Q 19.390625 34.515625 32.8125 34.515625 
L 45.3125 34.515625 
L 45.796875 36.921875 
Q 45.90625 37.3125 45.953125 37.765625 
Q 46 38.234375 46 39.203125 
Q 46 43.5625 42.453125 45.96875 
Q 38.921875 48.390625 32.515625 48.390625 
Q 28.125 48.390625 23.5 47.265625 
Q 18.890625 46.140625 14.015625 43.890625 
L 15.578125 52.203125 
Q 20.65625 54.109375 25.515625 55.046875 
Q 30.375 56 34.90625 56 
Q 44.578125 56 49.625 51.796875 
Q 54.6875 47.609375 54.6875 39.59375 
Q 54.6875 37.984375 54.4375 35.8125 
Q 54.203125 33.640625 53.71875 31.203125 
z
M 44 27.484375 
L 35.015625 27.484375 
Q 23.96875 27.484375 18.671875 24.53125 
Q 13.375 21.578125 13.375 15.375 
Q 13.375 11.078125 16.078125 8.640625 
Q 18.796875 6.203125 23.578125 6.203125 
Q 30.90625 6.203125 36.375 11.453125 
Q 41.84375 16.703125 43.609375 25.484375 
z
" id="DejaVuSans-Oblique-97"/>
       <path d="M 55.71875 33.015625 
L 49.3125 0 
L 40.28125 0 
L 46.6875 32.671875 
Q 47.125 34.96875 47.359375 36.71875 
Q 47.609375 38.484375 47.609375 39.5 
Q 47.609375 43.609375 45.015625 45.890625 
Q 42.4375 48.1875 37.796875 48.1875 
Q 30.5625 48.1875 25.34375 43.375 
Q 20.125 38.578125 18.5 30.328125 
L 12.5 0 
L 3.515625 0 
L 14.109375 54.6875 
L 23.09375 54.6875 
L 21.296875 46.09375 
Q 25.046875 50.828125 30.3125 53.40625 
Q 35.59375 56 41.40625 56 
Q 48.640625 56 52.609375 52.09375 
Q 56.59375 48.1875 56.59375 41.109375 
Q 56.59375 39.359375 56.375 37.359375 
Q 56.15625 35.359375 55.71875 33.015625 
z
" id="DejaVuSans-Oblique-110"/>
       <path d="M 59.625 54.6875 
L 50.296875 6.78125 
Q 47.609375 -7.125 40.015625 -13.953125 
Q 32.421875 -20.796875 19.578125 -20.796875 
Q 14.84375 -20.796875 10.78125 -20.09375 
Q 6.734375 -19.390625 3.21875 -17.921875 
L 4.890625 -9.1875 
Q 8.203125 -11.328125 11.90625 -12.34375 
Q 15.625 -13.375 19.828125 -13.375 
Q 28.375 -13.375 33.859375 -8.703125 
Q 39.359375 -4.046875 41.109375 4.6875 
L 41.890625 8.796875 
Q 38.140625 4.5 33.15625 2.25 
Q 28.171875 0 22.40625 0 
Q 14.109375 0 9.34375 5.484375 
Q 4.59375 10.984375 4.59375 20.609375 
Q 4.59375 28.171875 7.46875 35.421875 
Q 10.359375 42.671875 15.578125 48.296875 
Q 19.046875 52 23.65625 54 
Q 28.265625 56 33.296875 56 
Q 38.8125 56 42.90625 53.4375 
Q 47.015625 50.875 49.03125 46.1875 
L 50.59375 54.6875 
z
M 46.09375 34.625 
Q 46.09375 41.265625 42.96875 44.875 
Q 39.84375 48.484375 34.078125 48.484375 
Q 30.515625 48.484375 27.296875 47.0625 
Q 24.078125 45.65625 21.78125 43.109375 
Q 18.0625 38.921875 15.984375 33.234375 
Q 13.921875 27.546875 13.921875 21.484375 
Q 13.921875 14.75 17.0625 11.125 
Q 20.21875 7.515625 26.125 7.515625 
Q 34.671875 7.515625 40.375 15.25 
Q 46.09375 23 46.09375 34.625 
z
" id="DejaVuSans-Oblique-103"/>
       <path d="M 48.09375 32.234375 
Q 48.25 33.015625 48.3125 33.84375 
Q 48.390625 34.671875 48.390625 35.5 
Q 48.390625 41.453125 44.890625 44.921875 
Q 41.40625 48.390625 35.40625 48.390625 
Q 28.71875 48.390625 23.578125 44.15625 
Q 18.453125 39.9375 15.828125 32.171875 
z
M 55.90625 25.203125 
L 14.109375 25.203125 
Q 13.8125 23.34375 13.71875 22.265625 
Q 13.625 21.1875 13.625 20.40625 
Q 13.625 13.625 17.796875 9.90625 
Q 21.96875 6.203125 29.59375 6.203125 
Q 35.453125 6.203125 40.671875 7.515625 
Q 45.90625 8.84375 50.390625 11.375 
L 48.6875 2.484375 
Q 43.84375 0.53125 38.6875 -0.4375 
Q 33.546875 -1.421875 28.21875 -1.421875 
Q 16.84375 -1.421875 10.71875 4.015625 
Q 4.59375 9.46875 4.59375 19.484375 
Q 4.59375 28.03125 7.640625 35.375 
Q 10.6875 42.71875 16.609375 48.484375 
Q 20.40625 52.09375 25.65625 54.046875 
Q 30.90625 56 36.8125 56 
Q 46.09375 56 51.578125 50.4375 
Q 57.078125 44.875 57.078125 35.5 
Q 57.078125 33.25 56.78125 30.6875 
Q 56.5 28.125 55.90625 25.203125 
z
" id="DejaVuSans-Oblique-101"/>
      </defs>
      <use transform="translate(0 0.51875)" xlink:href="#DejaVuSans-101"/>
      <use transform="translate(61.523438 0.51875)" xlink:href="#DejaVuSans-83"/>
      <use transform="translate(125 0.51875)" xlink:href="#DejaVuSans-69"/>
      <use transform="translate(188.183594 0.51875)" xlink:href="#DejaVuSans-73"/>
      <use transform="translate(217.675781 0.51875)" xlink:href="#DejaVuSans-85"/>
      <use transform="translate(288.619141 0.51875)" xlink:href="#DejaVuSans-82"/>
      <use transform="translate(359.058594 38.8)scale(0.7)" xlink:href="#DejaVuSans-Oblique-114"/>
      <use transform="translate(387.837891 38.8)scale(0.7)" xlink:href="#DejaVuSans-Oblique-97"/>
      <use transform="translate(430.733398 38.8)scale(0.7)" xlink:href="#DejaVuSans-Oblique-110"/>
      <use transform="translate(475.098633 38.8)scale(0.7)" xlink:href="#DejaVuSans-Oblique-103"/>
      <use transform="translate(519.532227 38.8)scale(0.7)" xlink:href="#DejaVuSans-Oblique-101"/>
     </g>
    </g>
   </g>
  </g>
 </g>
 <defs>
  <clipPath id="pec6ab7f883">
   <rect height="543.6" width="558" x="90" y="86.4"/>
  </clipPath>
 </defs>
</svg>
