<?xml version="1.0" encoding="utf-8" standalone="no"?>
<!DOCTYPE svg PUBLIC "-//W3C//DTD SVG 1.1//EN"
  "http://www.w3.org/Graphics/SVG/1.1/DTD/svg11.dtd">
<!-- Created with matplotlib (https://matplotlib.org/) -->
<svg height="288pt" version="1.1" viewBox="0 0 576 288" width="576pt" xmlns="http://www.w3.org/2000/svg" xmlns:xlink="http://www.w3.org/1999/xlink">
 <metadata>
  <rdf:RDF xmlns:cc="http://creativecommons.org/ns#" xmlns:dc="http://purl.org/dc/elements/1.1/" xmlns:rdf="http://www.w3.org/1999/02/22-rdf-syntax-ns#">
   <cc:Work>
    <dc:type rdf:resource="http://purl.org/dc/dcmitype/StillImage"/>
    <dc:date>2022-07-13T18:35:37.798926</dc:date>
    <dc:format>image/svg+xml</dc:format>
    <dc:creator>
     <cc:Agent>
      <dc:title>Matplotlib v3.3.2, https://matplotlib.org/</dc:title>
     </cc:Agent>
    </dc:creator>
   </cc:Work>
  </rdf:RDF>
 </metadata>
 <defs>
  <style type="text/css">*{stroke-linecap:butt;stroke-linejoin:round;}</style>
 </defs>
 <g id="figure_1">
  <g id="patch_1">
   <path d="M 0 288 
L 576 288 
L 576 0 
L 0 0 
z
" style="fill:none;"/>
  </g>
  <g id="axes_1">
   <g id="patch_2">
    <path d="M 72 252 
L 518.4 252 
L 518.4 34.56 
L 72 34.56 
z
" style="fill:#ffffff;"/>
   </g>
   <g id="matplotlib.axis_1">
    <g id="xtick_1">
     <g id="line2d_1">
      <path clip-path="url(#p6e4a153fa1)" d="M 72 252 
L 72 34.56 
" style="fill:none;stroke:#b0b0b0;stroke-linecap:square;stroke-width:0.8;"/>
     </g>
     <g id="line2d_2">
      <defs>
       <path d="M 0 0 
L 0 3.5 
" id="mfe1055e623" style="stroke:#000000;stroke-width:0.8;"/>
      </defs>
      <g>
       <use style="stroke:#000000;stroke-width:0.8;" x="72" xlink:href="#mfe1055e623" y="252"/>
      </g>
     </g>
     <g id="text_1">
      <!-- 0 -->
      <g transform="translate(68.81875 266.598437)scale(0.1 -0.1)">
       <defs>
        <path d="M 31.78125 66.40625 
Q 24.171875 66.40625 20.328125 58.90625 
Q 16.5 51.421875 16.5 36.375 
Q 16.5 21.390625 20.328125 13.890625 
Q 24.171875 6.390625 31.78125 6.390625 
Q 39.453125 6.390625 43.28125 13.890625 
Q 47.125 21.390625 47.125 36.375 
Q 47.125 51.421875 43.28125 58.90625 
Q 39.453125 66.40625 31.78125 66.40625 
z
M 31.78125 74.21875 
Q 44.046875 74.21875 50.515625 64.515625 
Q 56.984375 54.828125 56.984375 36.375 
Q 56.984375 17.96875 50.515625 8.265625 
Q 44.046875 -1.421875 31.78125 -1.421875 
Q 19.53125 -1.421875 13.0625 8.265625 
Q 6.59375 17.96875 6.59375 36.375 
Q 6.59375 54.828125 13.0625 64.515625 
Q 19.53125 74.21875 31.78125 74.21875 
z
" id="DejaVuSans-48"/>
       </defs>
       <use xlink:href="#DejaVuSans-48"/>
      </g>
     </g>
    </g>
    <g id="xtick_2">
     <g id="line2d_3">
      <path clip-path="url(#p6e4a153fa1)" d="M 146.4 252 
L 146.4 34.56 
" style="fill:none;stroke:#b0b0b0;stroke-linecap:square;stroke-width:0.8;"/>
     </g>
     <g id="line2d_4">
      <g>
       <use style="stroke:#000000;stroke-width:0.8;" x="146.4" xlink:href="#mfe1055e623" y="252"/>
      </g>
     </g>
     <g id="text_2">
      <!-- 10 -->
      <g transform="translate(140.0375 266.598437)scale(0.1 -0.1)">
       <defs>
        <path d="M 12.40625 8.296875 
L 28.515625 8.296875 
L 28.515625 63.921875 
L 10.984375 60.40625 
L 10.984375 69.390625 
L 28.421875 72.90625 
L 38.28125 72.90625 
L 38.28125 8.296875 
L 54.390625 8.296875 
L 54.390625 0 
L 12.40625 0 
z
" id="DejaVuSans-49"/>
       </defs>
       <use xlink:href="#DejaVuSans-49"/>
       <use x="63.623047" xlink:href="#DejaVuSans-48"/>
      </g>
     </g>
    </g>
    <g id="xtick_3">
     <g id="line2d_5">
      <path clip-path="url(#p6e4a153fa1)" d="M 220.8 252 
L 220.8 34.56 
" style="fill:none;stroke:#b0b0b0;stroke-linecap:square;stroke-width:0.8;"/>
     </g>
     <g id="line2d_6">
      <g>
       <use style="stroke:#000000;stroke-width:0.8;" x="220.8" xlink:href="#mfe1055e623" y="252"/>
      </g>
     </g>
     <g id="text_3">
      <!-- 20 -->
      <g transform="translate(214.4375 266.598437)scale(0.1 -0.1)">
       <defs>
        <path d="M 19.1875 8.296875 
L 53.609375 8.296875 
L 53.609375 0 
L 7.328125 0 
L 7.328125 8.296875 
Q 12.9375 14.109375 22.625 23.890625 
Q 32.328125 33.6875 34.8125 36.53125 
Q 39.546875 41.84375 41.421875 45.53125 
Q 43.3125 49.21875 43.3125 52.78125 
Q 43.3125 58.59375 39.234375 62.25 
Q 35.15625 65.921875 28.609375 65.921875 
Q 23.96875 65.921875 18.8125 64.3125 
Q 13.671875 62.703125 7.8125 59.421875 
L 7.8125 69.390625 
Q 13.765625 71.78125 18.9375 73 
Q 24.125 74.21875 28.421875 74.21875 
Q 39.75 74.21875 46.484375 68.546875 
Q 53.21875 62.890625 53.21875 53.421875 
Q 53.21875 48.921875 51.53125 44.890625 
Q 49.859375 40.875 45.40625 35.40625 
Q 44.1875 33.984375 37.640625 27.21875 
Q 31.109375 20.453125 19.1875 8.296875 
z
" id="DejaVuSans-50"/>
       </defs>
       <use xlink:href="#DejaVuSans-50"/>
       <use x="63.623047" xlink:href="#DejaVuSans-48"/>
      </g>
     </g>
    </g>
    <g id="xtick_4">
     <g id="line2d_7">
      <path clip-path="url(#p6e4a153fa1)" d="M 295.2 252 
L 295.2 34.56 
" style="fill:none;stroke:#b0b0b0;stroke-linecap:square;stroke-width:0.8;"/>
     </g>
     <g id="line2d_8">
      <g>
       <use style="stroke:#000000;stroke-width:0.8;" x="295.2" xlink:href="#mfe1055e623" y="252"/>
      </g>
     </g>
     <g id="text_4">
      <!-- 30 -->
      <g transform="translate(288.8375 266.598437)scale(0.1 -0.1)">
       <defs>
        <path d="M 40.578125 39.3125 
Q 47.65625 37.796875 51.625 33 
Q 55.609375 28.21875 55.609375 21.1875 
Q 55.609375 10.40625 48.1875 4.484375 
Q 40.765625 -1.421875 27.09375 -1.421875 
Q 22.515625 -1.421875 17.65625 -0.515625 
Q 12.796875 0.390625 7.625 2.203125 
L 7.625 11.71875 
Q 11.71875 9.328125 16.59375 8.109375 
Q 21.484375 6.890625 26.8125 6.890625 
Q 36.078125 6.890625 40.9375 10.546875 
Q 45.796875 14.203125 45.796875 21.1875 
Q 45.796875 27.640625 41.28125 31.265625 
Q 36.765625 34.90625 28.71875 34.90625 
L 20.21875 34.90625 
L 20.21875 43.015625 
L 29.109375 43.015625 
Q 36.375 43.015625 40.234375 45.921875 
Q 44.09375 48.828125 44.09375 54.296875 
Q 44.09375 59.90625 40.109375 62.90625 
Q 36.140625 65.921875 28.71875 65.921875 
Q 24.65625 65.921875 20.015625 65.03125 
Q 15.375 64.15625 9.8125 62.3125 
L 9.8125 71.09375 
Q 15.4375 72.65625 20.34375 73.4375 
Q 25.25 74.21875 29.59375 74.21875 
Q 40.828125 74.21875 47.359375 69.109375 
Q 53.90625 64.015625 53.90625 55.328125 
Q 53.90625 49.265625 50.4375 45.09375 
Q 46.96875 40.921875 40.578125 39.3125 
z
" id="DejaVuSans-51"/>
       </defs>
       <use xlink:href="#DejaVuSans-51"/>
       <use x="63.623047" xlink:href="#DejaVuSans-48"/>
      </g>
     </g>
    </g>
    <g id="xtick_5">
     <g id="line2d_9">
      <path clip-path="url(#p6e4a153fa1)" d="M 369.6 252 
L 369.6 34.56 
" style="fill:none;stroke:#b0b0b0;stroke-linecap:square;stroke-width:0.8;"/>
     </g>
     <g id="line2d_10">
      <g>
       <use style="stroke:#000000;stroke-width:0.8;" x="369.6" xlink:href="#mfe1055e623" y="252"/>
      </g>
     </g>
     <g id="text_5">
      <!-- 40 -->
      <g transform="translate(363.2375 266.598437)scale(0.1 -0.1)">
       <defs>
        <path d="M 37.796875 64.3125 
L 12.890625 25.390625 
L 37.796875 25.390625 
z
M 35.203125 72.90625 
L 47.609375 72.90625 
L 47.609375 25.390625 
L 58.015625 25.390625 
L 58.015625 17.1875 
L 47.609375 17.1875 
L 47.609375 0 
L 37.796875 0 
L 37.796875 17.1875 
L 4.890625 17.1875 
L 4.890625 26.703125 
z
" id="DejaVuSans-52"/>
       </defs>
       <use xlink:href="#DejaVuSans-52"/>
       <use x="63.623047" xlink:href="#DejaVuSans-48"/>
      </g>
     </g>
    </g>
    <g id="xtick_6">
     <g id="line2d_11">
      <path clip-path="url(#p6e4a153fa1)" d="M 444 252 
L 444 34.56 
" style="fill:none;stroke:#b0b0b0;stroke-linecap:square;stroke-width:0.8;"/>
     </g>
     <g id="line2d_12">
      <g>
       <use style="stroke:#000000;stroke-width:0.8;" x="444" xlink:href="#mfe1055e623" y="252"/>
      </g>
     </g>
     <g id="text_6">
      <!-- 50 -->
      <g transform="translate(437.6375 266.598437)scale(0.1 -0.1)">
       <defs>
        <path d="M 10.796875 72.90625 
L 49.515625 72.90625 
L 49.515625 64.59375 
L 19.828125 64.59375 
L 19.828125 46.734375 
Q 21.96875 47.46875 24.109375 47.828125 
Q 26.265625 48.1875 28.421875 48.1875 
Q 40.625 48.1875 47.75 41.5 
Q 54.890625 34.8125 54.890625 23.390625 
Q 54.890625 11.625 47.5625 5.09375 
Q 40.234375 -1.421875 26.90625 -1.421875 
Q 22.3125 -1.421875 17.546875 -0.640625 
Q 12.796875 0.140625 7.71875 1.703125 
L 7.71875 11.625 
Q 12.109375 9.234375 16.796875 8.0625 
Q 21.484375 6.890625 26.703125 6.890625 
Q 35.15625 6.890625 40.078125 11.328125 
Q 45.015625 15.765625 45.015625 23.390625 
Q 45.015625 31 40.078125 35.4375 
Q 35.15625 39.890625 26.703125 39.890625 
Q 22.75 39.890625 18.8125 39.015625 
Q 14.890625 38.140625 10.796875 36.28125 
z
" id="DejaVuSans-53"/>
       </defs>
       <use xlink:href="#DejaVuSans-53"/>
       <use x="63.623047" xlink:href="#DejaVuSans-48"/>
      </g>
     </g>
    </g>
    <g id="xtick_7">
     <g id="line2d_13">
      <path clip-path="url(#p6e4a153fa1)" d="M 518.4 252 
L 518.4 34.56 
" style="fill:none;stroke:#b0b0b0;stroke-linecap:square;stroke-width:0.8;"/>
     </g>
     <g id="line2d_14">
      <g>
       <use style="stroke:#000000;stroke-width:0.8;" x="518.4" xlink:href="#mfe1055e623" y="252"/>
      </g>
     </g>
     <g id="text_7">
      <!-- 60 -->
      <g transform="translate(512.0375 266.598437)scale(0.1 -0.1)">
       <defs>
        <path d="M 33.015625 40.375 
Q 26.375 40.375 22.484375 35.828125 
Q 18.609375 31.296875 18.609375 23.390625 
Q 18.609375 15.53125 22.484375 10.953125 
Q 26.375 6.390625 33.015625 6.390625 
Q 39.65625 6.390625 43.53125 10.953125 
Q 47.40625 15.53125 47.40625 23.390625 
Q 47.40625 31.296875 43.53125 35.828125 
Q 39.65625 40.375 33.015625 40.375 
z
M 52.59375 71.296875 
L 52.59375 62.3125 
Q 48.875 64.0625 45.09375 64.984375 
Q 41.3125 65.921875 37.59375 65.921875 
Q 27.828125 65.921875 22.671875 59.328125 
Q 17.53125 52.734375 16.796875 39.40625 
Q 19.671875 43.65625 24.015625 45.921875 
Q 28.375 48.1875 33.59375 48.1875 
Q 44.578125 48.1875 50.953125 41.515625 
Q 57.328125 34.859375 57.328125 23.390625 
Q 57.328125 12.15625 50.6875 5.359375 
Q 44.046875 -1.421875 33.015625 -1.421875 
Q 20.359375 -1.421875 13.671875 8.265625 
Q 6.984375 17.96875 6.984375 36.375 
Q 6.984375 53.65625 15.1875 63.9375 
Q 23.390625 74.21875 37.203125 74.21875 
Q 40.921875 74.21875 44.703125 73.484375 
Q 48.484375 72.75 52.59375 71.296875 
z
" id="DejaVuSans-54"/>
       </defs>
       <use xlink:href="#DejaVuSans-54"/>
       <use x="63.623047" xlink:href="#DejaVuSans-48"/>
      </g>
     </g>
    </g>
    <g id="text_8">
     <!-- Country number -->
     <g transform="translate(254.233594 280.276563)scale(0.1 -0.1)">
      <defs>
       <path d="M 64.40625 67.28125 
L 64.40625 56.890625 
Q 59.421875 61.53125 53.78125 63.8125 
Q 48.140625 66.109375 41.796875 66.109375 
Q 29.296875 66.109375 22.65625 58.46875 
Q 16.015625 50.828125 16.015625 36.375 
Q 16.015625 21.96875 22.65625 14.328125 
Q 29.296875 6.6875 41.796875 6.6875 
Q 48.140625 6.6875 53.78125 8.984375 
Q 59.421875 11.28125 64.40625 15.921875 
L 64.40625 5.609375 
Q 59.234375 2.09375 53.4375 0.328125 
Q 47.65625 -1.421875 41.21875 -1.421875 
Q 24.65625 -1.421875 15.125 8.703125 
Q 5.609375 18.84375 5.609375 36.375 
Q 5.609375 53.953125 15.125 64.078125 
Q 24.65625 74.21875 41.21875 74.21875 
Q 47.75 74.21875 53.53125 72.484375 
Q 59.328125 70.75 64.40625 67.28125 
z
" id="DejaVuSans-67"/>
       <path d="M 30.609375 48.390625 
Q 23.390625 48.390625 19.1875 42.75 
Q 14.984375 37.109375 14.984375 27.296875 
Q 14.984375 17.484375 19.15625 11.84375 
Q 23.34375 6.203125 30.609375 6.203125 
Q 37.796875 6.203125 41.984375 11.859375 
Q 46.1875 17.53125 46.1875 27.296875 
Q 46.1875 37.015625 41.984375 42.703125 
Q 37.796875 48.390625 30.609375 48.390625 
z
M 30.609375 56 
Q 42.328125 56 49.015625 48.375 
Q 55.71875 40.765625 55.71875 27.296875 
Q 55.71875 13.875 49.015625 6.21875 
Q 42.328125 -1.421875 30.609375 -1.421875 
Q 18.84375 -1.421875 12.171875 6.21875 
Q 5.515625 13.875 5.515625 27.296875 
Q 5.515625 40.765625 12.171875 48.375 
Q 18.84375 56 30.609375 56 
z
" id="DejaVuSans-111"/>
       <path d="M 8.5 21.578125 
L 8.5 54.6875 
L 17.484375 54.6875 
L 17.484375 21.921875 
Q 17.484375 14.15625 20.5 10.265625 
Q 23.53125 6.390625 29.59375 6.390625 
Q 36.859375 6.390625 41.078125 11.03125 
Q 45.3125 15.671875 45.3125 23.6875 
L 45.3125 54.6875 
L 54.296875 54.6875 
L 54.296875 0 
L 45.3125 0 
L 45.3125 8.40625 
Q 42.046875 3.421875 37.71875 1 
Q 33.40625 -1.421875 27.6875 -1.421875 
Q 18.265625 -1.421875 13.375 4.4375 
Q 8.5 10.296875 8.5 21.578125 
z
M 31.109375 56 
z
" id="DejaVuSans-117"/>
       <path d="M 54.890625 33.015625 
L 54.890625 0 
L 45.90625 0 
L 45.90625 32.71875 
Q 45.90625 40.484375 42.875 44.328125 
Q 39.84375 48.1875 33.796875 48.1875 
Q 26.515625 48.1875 22.3125 43.546875 
Q 18.109375 38.921875 18.109375 30.90625 
L 18.109375 0 
L 9.078125 0 
L 9.078125 54.6875 
L 18.109375 54.6875 
L 18.109375 46.1875 
Q 21.34375 51.125 25.703125 53.5625 
Q 30.078125 56 35.796875 56 
Q 45.21875 56 50.046875 50.171875 
Q 54.890625 44.34375 54.890625 33.015625 
z
" id="DejaVuSans-110"/>
       <path d="M 18.3125 70.21875 
L 18.3125 54.6875 
L 36.8125 54.6875 
L 36.8125 47.703125 
L 18.3125 47.703125 
L 18.3125 18.015625 
Q 18.3125 11.328125 20.140625 9.421875 
Q 21.96875 7.515625 27.59375 7.515625 
L 36.8125 7.515625 
L 36.8125 0 
L 27.59375 0 
Q 17.1875 0 13.234375 3.875 
Q 9.28125 7.765625 9.28125 18.015625 
L 9.28125 47.703125 
L 2.6875 47.703125 
L 2.6875 54.6875 
L 9.28125 54.6875 
L 9.28125 70.21875 
z
" id="DejaVuSans-116"/>
       <path d="M 41.109375 46.296875 
Q 39.59375 47.171875 37.8125 47.578125 
Q 36.03125 48 33.890625 48 
Q 26.265625 48 22.1875 43.046875 
Q 18.109375 38.09375 18.109375 28.8125 
L 18.109375 0 
L 9.078125 0 
L 9.078125 54.6875 
L 18.109375 54.6875 
L 18.109375 46.1875 
Q 20.953125 51.171875 25.484375 53.578125 
Q 30.03125 56 36.53125 56 
Q 37.453125 56 38.578125 55.875 
Q 39.703125 55.765625 41.0625 55.515625 
z
" id="DejaVuSans-114"/>
       <path d="M 32.171875 -5.078125 
Q 28.375 -14.84375 24.75 -17.8125 
Q 21.140625 -20.796875 15.09375 -20.796875 
L 7.90625 -20.796875 
L 7.90625 -13.28125 
L 13.1875 -13.28125 
Q 16.890625 -13.28125 18.9375 -11.515625 
Q 21 -9.765625 23.484375 -3.21875 
L 25.09375 0.875 
L 2.984375 54.6875 
L 12.5 54.6875 
L 29.59375 11.921875 
L 46.6875 54.6875 
L 56.203125 54.6875 
z
" id="DejaVuSans-121"/>
       <path id="DejaVuSans-32"/>
       <path d="M 52 44.1875 
Q 55.375 50.25 60.0625 53.125 
Q 64.75 56 71.09375 56 
Q 79.640625 56 84.28125 50.015625 
Q 88.921875 44.046875 88.921875 33.015625 
L 88.921875 0 
L 79.890625 0 
L 79.890625 32.71875 
Q 79.890625 40.578125 77.09375 44.375 
Q 74.3125 48.1875 68.609375 48.1875 
Q 61.625 48.1875 57.5625 43.546875 
Q 53.515625 38.921875 53.515625 30.90625 
L 53.515625 0 
L 44.484375 0 
L 44.484375 32.71875 
Q 44.484375 40.625 41.703125 44.40625 
Q 38.921875 48.1875 33.109375 48.1875 
Q 26.21875 48.1875 22.15625 43.53125 
Q 18.109375 38.875 18.109375 30.90625 
L 18.109375 0 
L 9.078125 0 
L 9.078125 54.6875 
L 18.109375 54.6875 
L 18.109375 46.1875 
Q 21.1875 51.21875 25.484375 53.609375 
Q 29.78125 56 35.6875 56 
Q 41.65625 56 45.828125 52.96875 
Q 50 49.953125 52 44.1875 
z
" id="DejaVuSans-109"/>
       <path d="M 48.6875 27.296875 
Q 48.6875 37.203125 44.609375 42.84375 
Q 40.53125 48.484375 33.40625 48.484375 
Q 26.265625 48.484375 22.1875 42.84375 
Q 18.109375 37.203125 18.109375 27.296875 
Q 18.109375 17.390625 22.1875 11.75 
Q 26.265625 6.109375 33.40625 6.109375 
Q 40.53125 6.109375 44.609375 11.75 
Q 48.6875 17.390625 48.6875 27.296875 
z
M 18.109375 46.390625 
Q 20.953125 51.265625 25.265625 53.625 
Q 29.59375 56 35.59375 56 
Q 45.5625 56 51.78125 48.09375 
Q 58.015625 40.1875 58.015625 27.296875 
Q 58.015625 14.40625 51.78125 6.484375 
Q 45.5625 -1.421875 35.59375 -1.421875 
Q 29.59375 -1.421875 25.265625 0.953125 
Q 20.953125 3.328125 18.109375 8.203125 
L 18.109375 0 
L 9.078125 0 
L 9.078125 75.984375 
L 18.109375 75.984375 
z
" id="DejaVuSans-98"/>
       <path d="M 56.203125 29.59375 
L 56.203125 25.203125 
L 14.890625 25.203125 
Q 15.484375 15.921875 20.484375 11.0625 
Q 25.484375 6.203125 34.421875 6.203125 
Q 39.59375 6.203125 44.453125 7.46875 
Q 49.3125 8.734375 54.109375 11.28125 
L 54.109375 2.78125 
Q 49.265625 0.734375 44.1875 -0.34375 
Q 39.109375 -1.421875 33.890625 -1.421875 
Q 20.796875 -1.421875 13.15625 6.1875 
Q 5.515625 13.8125 5.515625 26.8125 
Q 5.515625 40.234375 12.765625 48.109375 
Q 20.015625 56 32.328125 56 
Q 43.359375 56 49.78125 48.890625 
Q 56.203125 41.796875 56.203125 29.59375 
z
M 47.21875 32.234375 
Q 47.125 39.59375 43.09375 43.984375 
Q 39.0625 48.390625 32.421875 48.390625 
Q 24.90625 48.390625 20.390625 44.140625 
Q 15.875 39.890625 15.1875 32.171875 
z
" id="DejaVuSans-101"/>
      </defs>
      <use xlink:href="#DejaVuSans-67"/>
      <use x="69.824219" xlink:href="#DejaVuSans-111"/>
      <use x="131.005859" xlink:href="#DejaVuSans-117"/>
      <use x="194.384766" xlink:href="#DejaVuSans-110"/>
      <use x="257.763672" xlink:href="#DejaVuSans-116"/>
      <use x="296.972656" xlink:href="#DejaVuSans-114"/>
      <use x="338.085938" xlink:href="#DejaVuSans-121"/>
      <use x="397.265625" xlink:href="#DejaVuSans-32"/>
      <use x="429.052734" xlink:href="#DejaVuSans-110"/>
      <use x="492.431641" xlink:href="#DejaVuSans-117"/>
      <use x="555.810547" xlink:href="#DejaVuSans-109"/>
      <use x="653.222656" xlink:href="#DejaVuSans-98"/>
      <use x="716.699219" xlink:href="#DejaVuSans-101"/>
      <use x="778.222656" xlink:href="#DejaVuSans-114"/>
     </g>
    </g>
   </g>
   <g id="matplotlib.axis_2">
    <g id="ytick_1">
     <g id="line2d_15">
      <path clip-path="url(#p6e4a153fa1)" d="M 72 208.615412 
L 518.4 208.615412 
" style="fill:none;stroke:#b0b0b0;stroke-linecap:square;stroke-width:0.8;"/>
     </g>
     <g id="line2d_16">
      <defs>
       <path d="M 0 0 
L -3.5 0 
" id="md72ef5acce" style="stroke:#000000;stroke-width:0.8;"/>
      </defs>
      <g>
       <use style="stroke:#000000;stroke-width:0.8;" x="72" xlink:href="#md72ef5acce" y="208.615412"/>
      </g>
     </g>
     <g id="text_9">
      <!-- $\mathdefault{10^{-1}}$ -->
      <g transform="translate(41.5 212.414631)scale(0.1 -0.1)">
       <defs>
        <path d="M 10.59375 35.5 
L 73.1875 35.5 
L 73.1875 27.203125 
L 10.59375 27.203125 
z
" id="DejaVuSans-8722"/>
       </defs>
       <use transform="translate(0 0.684375)" xlink:href="#DejaVuSans-49"/>
       <use transform="translate(63.623047 0.684375)" xlink:href="#DejaVuSans-48"/>
       <use transform="translate(128.203125 38.965625)scale(0.7)" xlink:href="#DejaVuSans-8722"/>
       <use transform="translate(186.855469 38.965625)scale(0.7)" xlink:href="#DejaVuSans-49"/>
      </g>
     </g>
    </g>
    <g id="ytick_2">
     <g id="line2d_17">
      <path clip-path="url(#p6e4a153fa1)" d="M 72 154.145724 
L 518.4 154.145724 
" style="fill:none;stroke:#b0b0b0;stroke-linecap:square;stroke-width:0.8;"/>
     </g>
     <g id="line2d_18">
      <g>
       <use style="stroke:#000000;stroke-width:0.8;" x="72" xlink:href="#md72ef5acce" y="154.145724"/>
      </g>
     </g>
     <g id="text_10">
      <!-- $\mathdefault{10^{0}}$ -->
      <g transform="translate(47.4 157.944942)scale(0.1 -0.1)">
       <use transform="translate(0 0.765625)" xlink:href="#DejaVuSans-49"/>
       <use transform="translate(63.623047 0.765625)" xlink:href="#DejaVuSans-48"/>
       <use transform="translate(128.203125 39.046875)scale(0.7)" xlink:href="#DejaVuSans-48"/>
      </g>
     </g>
    </g>
    <g id="ytick_3">
     <g id="line2d_19">
      <path clip-path="url(#p6e4a153fa1)" d="M 72 99.676035 
L 518.4 99.676035 
" style="fill:none;stroke:#b0b0b0;stroke-linecap:square;stroke-width:0.8;"/>
     </g>
     <g id="line2d_20">
      <g>
       <use style="stroke:#000000;stroke-width:0.8;" x="72" xlink:href="#md72ef5acce" y="99.676035"/>
      </g>
     </g>
     <g id="text_11">
      <!-- $\mathdefault{10^{1}}$ -->
      <g transform="translate(47.4 103.475254)scale(0.1 -0.1)">
       <use transform="translate(0 0.684375)" xlink:href="#DejaVuSans-49"/>
       <use transform="translate(63.623047 0.684375)" xlink:href="#DejaVuSans-48"/>
       <use transform="translate(128.203125 38.965625)scale(0.7)" xlink:href="#DejaVuSans-49"/>
      </g>
     </g>
    </g>
    <g id="ytick_4">
     <g id="line2d_21">
      <path clip-path="url(#p6e4a153fa1)" d="M 72 45.206347 
L 518.4 45.206347 
" style="fill:none;stroke:#b0b0b0;stroke-linecap:square;stroke-width:0.8;"/>
     </g>
     <g id="line2d_22">
      <g>
       <use style="stroke:#000000;stroke-width:0.8;" x="72" xlink:href="#md72ef5acce" y="45.206347"/>
      </g>
     </g>
     <g id="text_12">
      <!-- $\mathdefault{10^{2}}$ -->
      <g transform="translate(47.4 49.005566)scale(0.1 -0.1)">
       <use transform="translate(0 0.765625)" xlink:href="#DejaVuSans-49"/>
       <use transform="translate(63.623047 0.765625)" xlink:href="#DejaVuSans-48"/>
       <use transform="translate(128.203125 39.046875)scale(0.7)" xlink:href="#DejaVuSans-50"/>
      </g>
     </g>
    </g>
    <g id="ytick_5">
     <g id="line2d_23">
      <defs>
       <path d="M 0 0 
L -2 0 
" id="m58fd454bbe" style="stroke:#000000;stroke-width:0.6;"/>
      </defs>
      <g>
       <use style="stroke:#000000;stroke-width:0.6;" x="72" xlink:href="#m58fd454bbe" y="246.68809"/>
      </g>
     </g>
    </g>
    <g id="ytick_6">
     <g id="line2d_24">
      <g>
       <use style="stroke:#000000;stroke-width:0.6;" x="72" xlink:href="#m58fd454bbe" y="237.096454"/>
      </g>
     </g>
    </g>
    <g id="ytick_7">
     <g id="line2d_25">
      <g>
       <use style="stroke:#000000;stroke-width:0.6;" x="72" xlink:href="#m58fd454bbe" y="230.29108"/>
      </g>
     </g>
    </g>
    <g id="ytick_8">
     <g id="line2d_26">
      <g>
       <use style="stroke:#000000;stroke-width:0.6;" x="72" xlink:href="#m58fd454bbe" y="225.012422"/>
      </g>
     </g>
    </g>
    <g id="ytick_9">
     <g id="line2d_27">
      <g>
       <use style="stroke:#000000;stroke-width:0.6;" x="72" xlink:href="#m58fd454bbe" y="220.699444"/>
      </g>
     </g>
    </g>
    <g id="ytick_10">
     <g id="line2d_28">
      <g>
       <use style="stroke:#000000;stroke-width:0.6;" x="72" xlink:href="#m58fd454bbe" y="217.052874"/>
      </g>
     </g>
    </g>
    <g id="ytick_11">
     <g id="line2d_29">
      <g>
       <use style="stroke:#000000;stroke-width:0.6;" x="72" xlink:href="#m58fd454bbe" y="213.89407"/>
      </g>
     </g>
    </g>
    <g id="ytick_12">
     <g id="line2d_30">
      <g>
       <use style="stroke:#000000;stroke-width:0.6;" x="72" xlink:href="#m58fd454bbe" y="211.107808"/>
      </g>
     </g>
    </g>
    <g id="ytick_13">
     <g id="line2d_31">
      <g>
       <use style="stroke:#000000;stroke-width:0.6;" x="72" xlink:href="#m58fd454bbe" y="192.218402"/>
      </g>
     </g>
    </g>
    <g id="ytick_14">
     <g id="line2d_32">
      <g>
       <use style="stroke:#000000;stroke-width:0.6;" x="72" xlink:href="#m58fd454bbe" y="182.626766"/>
      </g>
     </g>
    </g>
    <g id="ytick_15">
     <g id="line2d_33">
      <g>
       <use style="stroke:#000000;stroke-width:0.6;" x="72" xlink:href="#m58fd454bbe" y="175.821392"/>
      </g>
     </g>
    </g>
    <g id="ytick_16">
     <g id="line2d_34">
      <g>
       <use style="stroke:#000000;stroke-width:0.6;" x="72" xlink:href="#m58fd454bbe" y="170.542734"/>
      </g>
     </g>
    </g>
    <g id="ytick_17">
     <g id="line2d_35">
      <g>
       <use style="stroke:#000000;stroke-width:0.6;" x="72" xlink:href="#m58fd454bbe" y="166.229756"/>
      </g>
     </g>
    </g>
    <g id="ytick_18">
     <g id="line2d_36">
      <g>
       <use style="stroke:#000000;stroke-width:0.6;" x="72" xlink:href="#m58fd454bbe" y="162.583185"/>
      </g>
     </g>
    </g>
    <g id="ytick_19">
     <g id="line2d_37">
      <g>
       <use style="stroke:#000000;stroke-width:0.6;" x="72" xlink:href="#m58fd454bbe" y="159.424382"/>
      </g>
     </g>
    </g>
    <g id="ytick_20">
     <g id="line2d_38">
      <g>
       <use style="stroke:#000000;stroke-width:0.6;" x="72" xlink:href="#m58fd454bbe" y="156.63812"/>
      </g>
     </g>
    </g>
    <g id="ytick_21">
     <g id="line2d_39">
      <g>
       <use style="stroke:#000000;stroke-width:0.6;" x="72" xlink:href="#m58fd454bbe" y="137.748714"/>
      </g>
     </g>
    </g>
    <g id="ytick_22">
     <g id="line2d_40">
      <g>
       <use style="stroke:#000000;stroke-width:0.6;" x="72" xlink:href="#m58fd454bbe" y="128.157078"/>
      </g>
     </g>
    </g>
    <g id="ytick_23">
     <g id="line2d_41">
      <g>
       <use style="stroke:#000000;stroke-width:0.6;" x="72" xlink:href="#m58fd454bbe" y="121.351704"/>
      </g>
     </g>
    </g>
    <g id="ytick_24">
     <g id="line2d_42">
      <g>
       <use style="stroke:#000000;stroke-width:0.6;" x="72" xlink:href="#m58fd454bbe" y="116.073045"/>
      </g>
     </g>
    </g>
    <g id="ytick_25">
     <g id="line2d_43">
      <g>
       <use style="stroke:#000000;stroke-width:0.6;" x="72" xlink:href="#m58fd454bbe" y="111.760068"/>
      </g>
     </g>
    </g>
    <g id="ytick_26">
     <g id="line2d_44">
      <g>
       <use style="stroke:#000000;stroke-width:0.6;" x="72" xlink:href="#m58fd454bbe" y="108.113497"/>
      </g>
     </g>
    </g>
    <g id="ytick_27">
     <g id="line2d_45">
      <g>
       <use style="stroke:#000000;stroke-width:0.6;" x="72" xlink:href="#m58fd454bbe" y="104.954694"/>
      </g>
     </g>
    </g>
    <g id="ytick_28">
     <g id="line2d_46">
      <g>
       <use style="stroke:#000000;stroke-width:0.6;" x="72" xlink:href="#m58fd454bbe" y="102.168432"/>
      </g>
     </g>
    </g>
    <g id="ytick_29">
     <g id="line2d_47">
      <g>
       <use style="stroke:#000000;stroke-width:0.6;" x="72" xlink:href="#m58fd454bbe" y="83.279025"/>
      </g>
     </g>
    </g>
    <g id="ytick_30">
     <g id="line2d_48">
      <g>
       <use style="stroke:#000000;stroke-width:0.6;" x="72" xlink:href="#m58fd454bbe" y="73.687389"/>
      </g>
     </g>
    </g>
    <g id="ytick_31">
     <g id="line2d_49">
      <g>
       <use style="stroke:#000000;stroke-width:0.6;" x="72" xlink:href="#m58fd454bbe" y="66.882015"/>
      </g>
     </g>
    </g>
    <g id="ytick_32">
     <g id="line2d_50">
      <g>
       <use style="stroke:#000000;stroke-width:0.6;" x="72" xlink:href="#m58fd454bbe" y="61.603357"/>
      </g>
     </g>
    </g>
    <g id="ytick_33">
     <g id="line2d_51">
      <g>
       <use style="stroke:#000000;stroke-width:0.6;" x="72" xlink:href="#m58fd454bbe" y="57.290379"/>
      </g>
     </g>
    </g>
    <g id="ytick_34">
     <g id="line2d_52">
      <g>
       <use style="stroke:#000000;stroke-width:0.6;" x="72" xlink:href="#m58fd454bbe" y="53.643809"/>
      </g>
     </g>
    </g>
    <g id="ytick_35">
     <g id="line2d_53">
      <g>
       <use style="stroke:#000000;stroke-width:0.6;" x="72" xlink:href="#m58fd454bbe" y="50.485005"/>
      </g>
     </g>
    </g>
    <g id="ytick_36">
     <g id="line2d_54">
      <g>
       <use style="stroke:#000000;stroke-width:0.6;" x="72" xlink:href="#m58fd454bbe" y="47.698743"/>
      </g>
     </g>
    </g>
    <g id="text_13">
     <!-- Relative Error, scaled, SEIR as baseline -->
     <g transform="translate(35.420312 240.705)rotate(-90)scale(0.1 -0.1)">
      <defs>
       <path d="M 44.390625 34.1875 
Q 47.5625 33.109375 50.5625 29.59375 
Q 53.5625 26.078125 56.59375 19.921875 
L 66.609375 0 
L 56 0 
L 46.6875 18.703125 
Q 43.0625 26.03125 39.671875 28.421875 
Q 36.28125 30.8125 30.421875 30.8125 
L 19.671875 30.8125 
L 19.671875 0 
L 9.8125 0 
L 9.8125 72.90625 
L 32.078125 72.90625 
Q 44.578125 72.90625 50.734375 67.671875 
Q 56.890625 62.453125 56.890625 51.90625 
Q 56.890625 45.015625 53.6875 40.46875 
Q 50.484375 35.9375 44.390625 34.1875 
z
M 19.671875 64.796875 
L 19.671875 38.921875 
L 32.078125 38.921875 
Q 39.203125 38.921875 42.84375 42.21875 
Q 46.484375 45.515625 46.484375 51.90625 
Q 46.484375 58.296875 42.84375 61.546875 
Q 39.203125 64.796875 32.078125 64.796875 
z
" id="DejaVuSans-82"/>
       <path d="M 9.421875 75.984375 
L 18.40625 75.984375 
L 18.40625 0 
L 9.421875 0 
z
" id="DejaVuSans-108"/>
       <path d="M 34.28125 27.484375 
Q 23.390625 27.484375 19.1875 25 
Q 14.984375 22.515625 14.984375 16.5 
Q 14.984375 11.71875 18.140625 8.90625 
Q 21.296875 6.109375 26.703125 6.109375 
Q 34.1875 6.109375 38.703125 11.40625 
Q 43.21875 16.703125 43.21875 25.484375 
L 43.21875 27.484375 
z
M 52.203125 31.203125 
L 52.203125 0 
L 43.21875 0 
L 43.21875 8.296875 
Q 40.140625 3.328125 35.546875 0.953125 
Q 30.953125 -1.421875 24.3125 -1.421875 
Q 15.921875 -1.421875 10.953125 3.296875 
Q 6 8.015625 6 15.921875 
Q 6 25.140625 12.171875 29.828125 
Q 18.359375 34.515625 30.609375 34.515625 
L 43.21875 34.515625 
L 43.21875 35.40625 
Q 43.21875 41.609375 39.140625 45 
Q 35.0625 48.390625 27.6875 48.390625 
Q 23 48.390625 18.546875 47.265625 
Q 14.109375 46.140625 10.015625 43.890625 
L 10.015625 52.203125 
Q 14.9375 54.109375 19.578125 55.046875 
Q 24.21875 56 28.609375 56 
Q 40.484375 56 46.34375 49.84375 
Q 52.203125 43.703125 52.203125 31.203125 
z
" id="DejaVuSans-97"/>
       <path d="M 9.421875 54.6875 
L 18.40625 54.6875 
L 18.40625 0 
L 9.421875 0 
z
M 9.421875 75.984375 
L 18.40625 75.984375 
L 18.40625 64.59375 
L 9.421875 64.59375 
z
" id="DejaVuSans-105"/>
       <path d="M 2.984375 54.6875 
L 12.5 54.6875 
L 29.59375 8.796875 
L 46.6875 54.6875 
L 56.203125 54.6875 
L 35.6875 0 
L 23.484375 0 
z
" id="DejaVuSans-118"/>
       <path d="M 9.8125 72.90625 
L 55.90625 72.90625 
L 55.90625 64.59375 
L 19.671875 64.59375 
L 19.671875 43.015625 
L 54.390625 43.015625 
L 54.390625 34.71875 
L 19.671875 34.71875 
L 19.671875 8.296875 
L 56.78125 8.296875 
L 56.78125 0 
L 9.8125 0 
z
" id="DejaVuSans-69"/>
       <path d="M 11.71875 12.40625 
L 22.015625 12.40625 
L 22.015625 4 
L 14.015625 -11.625 
L 7.71875 -11.625 
L 11.71875 4 
z
" id="DejaVuSans-44"/>
       <path d="M 44.28125 53.078125 
L 44.28125 44.578125 
Q 40.484375 46.53125 36.375 47.5 
Q 32.28125 48.484375 27.875 48.484375 
Q 21.1875 48.484375 17.84375 46.4375 
Q 14.5 44.390625 14.5 40.28125 
Q 14.5 37.15625 16.890625 35.375 
Q 19.28125 33.59375 26.515625 31.984375 
L 29.59375 31.296875 
Q 39.15625 29.25 43.1875 25.515625 
Q 47.21875 21.78125 47.21875 15.09375 
Q 47.21875 7.46875 41.1875 3.015625 
Q 35.15625 -1.421875 24.609375 -1.421875 
Q 20.21875 -1.421875 15.453125 -0.5625 
Q 10.6875 0.296875 5.421875 2 
L 5.421875 11.28125 
Q 10.40625 8.6875 15.234375 7.390625 
Q 20.0625 6.109375 24.8125 6.109375 
Q 31.15625 6.109375 34.5625 8.28125 
Q 37.984375 10.453125 37.984375 14.40625 
Q 37.984375 18.0625 35.515625 20.015625 
Q 33.0625 21.96875 24.703125 23.78125 
L 21.578125 24.515625 
Q 13.234375 26.265625 9.515625 29.90625 
Q 5.8125 33.546875 5.8125 39.890625 
Q 5.8125 47.609375 11.28125 51.796875 
Q 16.75 56 26.8125 56 
Q 31.78125 56 36.171875 55.265625 
Q 40.578125 54.546875 44.28125 53.078125 
z
" id="DejaVuSans-115"/>
       <path d="M 48.78125 52.59375 
L 48.78125 44.1875 
Q 44.96875 46.296875 41.140625 47.34375 
Q 37.3125 48.390625 33.40625 48.390625 
Q 24.65625 48.390625 19.8125 42.84375 
Q 14.984375 37.3125 14.984375 27.296875 
Q 14.984375 17.28125 19.8125 11.734375 
Q 24.65625 6.203125 33.40625 6.203125 
Q 37.3125 6.203125 41.140625 7.25 
Q 44.96875 8.296875 48.78125 10.40625 
L 48.78125 2.09375 
Q 45.015625 0.34375 40.984375 -0.53125 
Q 36.96875 -1.421875 32.421875 -1.421875 
Q 20.0625 -1.421875 12.78125 6.34375 
Q 5.515625 14.109375 5.515625 27.296875 
Q 5.515625 40.671875 12.859375 48.328125 
Q 20.21875 56 33.015625 56 
Q 37.15625 56 41.109375 55.140625 
Q 45.0625 54.296875 48.78125 52.59375 
z
" id="DejaVuSans-99"/>
       <path d="M 45.40625 46.390625 
L 45.40625 75.984375 
L 54.390625 75.984375 
L 54.390625 0 
L 45.40625 0 
L 45.40625 8.203125 
Q 42.578125 3.328125 38.25 0.953125 
Q 33.9375 -1.421875 27.875 -1.421875 
Q 17.96875 -1.421875 11.734375 6.484375 
Q 5.515625 14.40625 5.515625 27.296875 
Q 5.515625 40.1875 11.734375 48.09375 
Q 17.96875 56 27.875 56 
Q 33.9375 56 38.25 53.625 
Q 42.578125 51.265625 45.40625 46.390625 
z
M 14.796875 27.296875 
Q 14.796875 17.390625 18.875 11.75 
Q 22.953125 6.109375 30.078125 6.109375 
Q 37.203125 6.109375 41.296875 11.75 
Q 45.40625 17.390625 45.40625 27.296875 
Q 45.40625 37.203125 41.296875 42.84375 
Q 37.203125 48.484375 30.078125 48.484375 
Q 22.953125 48.484375 18.875 42.84375 
Q 14.796875 37.203125 14.796875 27.296875 
z
" id="DejaVuSans-100"/>
       <path d="M 53.515625 70.515625 
L 53.515625 60.890625 
Q 47.90625 63.578125 42.921875 64.890625 
Q 37.9375 66.21875 33.296875 66.21875 
Q 25.25 66.21875 20.875 63.09375 
Q 16.5 59.96875 16.5 54.203125 
Q 16.5 49.359375 19.40625 46.890625 
Q 22.3125 44.4375 30.421875 42.921875 
L 36.375 41.703125 
Q 47.40625 39.59375 52.65625 34.296875 
Q 57.90625 29 57.90625 20.125 
Q 57.90625 9.515625 50.796875 4.046875 
Q 43.703125 -1.421875 29.984375 -1.421875 
Q 24.8125 -1.421875 18.96875 -0.25 
Q 13.140625 0.921875 6.890625 3.21875 
L 6.890625 13.375 
Q 12.890625 10.015625 18.65625 8.296875 
Q 24.421875 6.59375 29.984375 6.59375 
Q 38.421875 6.59375 43.015625 9.90625 
Q 47.609375 13.234375 47.609375 19.390625 
Q 47.609375 24.75 44.3125 27.78125 
Q 41.015625 30.8125 33.5 32.328125 
L 27.484375 33.5 
Q 16.453125 35.6875 11.515625 40.375 
Q 6.59375 45.0625 6.59375 53.421875 
Q 6.59375 63.09375 13.40625 68.65625 
Q 20.21875 74.21875 32.171875 74.21875 
Q 37.3125 74.21875 42.625 73.28125 
Q 47.953125 72.359375 53.515625 70.515625 
z
" id="DejaVuSans-83"/>
       <path d="M 9.8125 72.90625 
L 19.671875 72.90625 
L 19.671875 0 
L 9.8125 0 
z
" id="DejaVuSans-73"/>
      </defs>
      <use xlink:href="#DejaVuSans-82"/>
      <use x="64.982422" xlink:href="#DejaVuSans-101"/>
      <use x="126.505859" xlink:href="#DejaVuSans-108"/>
      <use x="154.289062" xlink:href="#DejaVuSans-97"/>
      <use x="215.568359" xlink:href="#DejaVuSans-116"/>
      <use x="254.777344" xlink:href="#DejaVuSans-105"/>
      <use x="282.560547" xlink:href="#DejaVuSans-118"/>
      <use x="341.740234" xlink:href="#DejaVuSans-101"/>
      <use x="403.263672" xlink:href="#DejaVuSans-32"/>
      <use x="435.050781" xlink:href="#DejaVuSans-69"/>
      <use x="498.234375" xlink:href="#DejaVuSans-114"/>
      <use x="537.597656" xlink:href="#DejaVuSans-114"/>
      <use x="576.460938" xlink:href="#DejaVuSans-111"/>
      <use x="637.642578" xlink:href="#DejaVuSans-114"/>
      <use x="678.755859" xlink:href="#DejaVuSans-44"/>
      <use x="710.542969" xlink:href="#DejaVuSans-32"/>
      <use x="742.330078" xlink:href="#DejaVuSans-115"/>
      <use x="794.429688" xlink:href="#DejaVuSans-99"/>
      <use x="849.410156" xlink:href="#DejaVuSans-97"/>
      <use x="910.689453" xlink:href="#DejaVuSans-108"/>
      <use x="938.472656" xlink:href="#DejaVuSans-101"/>
      <use x="999.996094" xlink:href="#DejaVuSans-100"/>
      <use x="1063.472656" xlink:href="#DejaVuSans-44"/>
      <use x="1095.259766" xlink:href="#DejaVuSans-32"/>
      <use x="1127.046875" xlink:href="#DejaVuSans-83"/>
      <use x="1190.523438" xlink:href="#DejaVuSans-69"/>
      <use x="1253.707031" xlink:href="#DejaVuSans-73"/>
      <use x="1283.199219" xlink:href="#DejaVuSans-82"/>
      <use x="1352.681641" xlink:href="#DejaVuSans-32"/>
      <use x="1384.46875" xlink:href="#DejaVuSans-97"/>
      <use x="1445.748047" xlink:href="#DejaVuSans-115"/>
      <use x="1497.847656" xlink:href="#DejaVuSans-32"/>
      <use x="1529.634766" xlink:href="#DejaVuSans-98"/>
      <use x="1593.111328" xlink:href="#DejaVuSans-97"/>
      <use x="1654.390625" xlink:href="#DejaVuSans-115"/>
      <use x="1706.490234" xlink:href="#DejaVuSans-101"/>
      <use x="1768.013672" xlink:href="#DejaVuSans-108"/>
      <use x="1795.796875" xlink:href="#DejaVuSans-105"/>
      <use x="1823.580078" xlink:href="#DejaVuSans-110"/>
      <use x="1886.958984" xlink:href="#DejaVuSans-101"/>
     </g>
    </g>
   </g>
   <g id="line2d_55">
    <path clip-path="url(#p6e4a153fa1)" d="M 72 131.646656 
L 79.44 140.524383 
L 86.88 135.167732 
L 94.32 130.016006 
L 101.76 128.729735 
L 109.2 119.078858 
L 116.64 103.916065 
L 124.08 130.677063 
L 131.52 116.981837 
L 138.96 142.674376 
L 146.4 140.428976 
L 153.84 109.650933 
L 161.28 135.398402 
L 168.72 137.714833 
L 176.16 113.074563 
L 183.6 117.533742 
L 191.04 101.607246 
L 198.48 130.283665 
L 205.92 146.36353 
L 213.36 98.183266 
L 220.8 139.645448 
L 228.24 119.38877 
L 235.68 114.853898 
L 243.12 118.683257 
L 250.56 113.315058 
L 258 103.244706 
L 265.44 78.217433 
L 272.88 59.391821 
L 280.32 103.532352 
L 287.76 113.13635 
L 295.2 97.591007 
L 302.64 71.568845 
L 310.08 124.411421 
L 317.52 125.667959 
L 324.96 114.76984 
L 332.4 153.604213 
L 339.84 101.188226 
L 347.28 132.752945 
L 354.72 146.821465 
L 362.16 129.851249 
L 369.6 152.630316 
L 377.04 145.668069 
L 384.48 103.809413 
L 391.92 145.16175 
L 399.36 80.875527 
L 406.8 116.202713 
L 414.24 150.634558 
L 421.68 138.586293 
L 429.12 130.480436 
L 436.56 44.443636 
L 444 81.840116 
L 451.44 136.353111 
L 458.88 154.446794 
L 466.32 148.557451 
L 473.76 148.916325 
L 481.2 104.351581 
L 488.64 159.689159 
L 496.08 75.284203 
L 503.52 156.64341 
L 510.96 113.097426 
L 518.4 91.784313 
" style="fill:none;stroke:#1f77b4;stroke-linecap:square;"/>
   </g>
   <g id="line2d_56">
    <path clip-path="url(#p6e4a153fa1)" d="M 72 227.670712 
L 79.44 213.199848 
L 86.88 235.887562 
L 94.32 192.347295 
L 101.76 187.221716 
L 109.2 168.112317 
L 116.64 151.043139 
L 124.08 191.407514 
L 131.52 173.140458 
L 138.96 219.577687 
L 146.4 218.777229 
L 153.84 160.632652 
L 161.28 204.894773 
L 168.72 217.416734 
L 176.16 162.694996 
L 183.6 178.12838 
L 191.04 121.601297 
L 198.48 164.624272 
L 205.92 183.484785 
L 213.36 146.789798 
L 220.8 188.293074 
L 228.24 142.126156 
L 235.68 154.355924 
L 243.12 207.672307 
L 250.56 161.16365 
L 258 150.775632 
L 265.44 117.416732 
L 272.88 92.955245 
L 280.32 159.134455 
L 287.76 152.181674 
L 295.2 147.595977 
L 302.64 119.623145 
L 310.08 169.555295 
L 317.52 191.037401 
L 324.96 119.727077 
L 332.4 153.848798 
L 339.84 141.219265 
L 347.28 162.749777 
L 354.72 155.777596 
L 362.16 161.49807 
L 369.6 158.9633 
L 377.04 160.875072 
L 384.48 126.235171 
L 391.92 193.935456 
L 399.36 105.433611 
L 406.8 153.463815 
L 414.24 152.889599 
L 421.68 145.804877 
L 429.12 132.013248 
L 436.56 65.587461 
L 444 116.046894 
L 451.44 155.404971 
L 458.88 152.404798 
L 466.32 156.02373 
L 473.76 151.943452 
L 481.2 128.320731 
L 488.64 157.683012 
L 496.08 88.213938 
L 503.52 142.878815 
L 510.96 141.842659 
L 518.4 126.565194 
" style="fill:none;stroke:#ff7f0e;stroke-linecap:square;"/>
   </g>
   <g id="line2d_57">
    <path clip-path="url(#p6e4a153fa1)" d="M 72 155.224576 
L 79.44 155.421191 
L 86.88 168.242189 
L 94.32 149.398825 
L 101.76 157.106608 
L 109.2 149.112836 
L 116.64 135.331415 
L 124.08 151.541447 
L 131.52 138.486993 
L 138.96 156.295357 
L 146.4 168.150711 
L 153.84 132.511161 
L 161.28 140.639158 
L 168.72 174.373742 
L 176.16 154.095702 
L 183.6 211.31253 
L 191.04 159.156263 
L 198.48 154.926728 
L 205.92 152.965665 
L 213.36 132.714777 
L 220.8 167.218868 
L 228.24 157.063005 
L 235.68 143.045161 
L 243.12 151.594737 
L 250.56 143.558317 
L 258 167.656921 
L 265.44 106.213299 
L 272.88 126.137155 
L 280.32 136.075428 
L 287.76 157.274836 
L 295.2 149.148434 
L 302.64 107.690344 
L 310.08 161.406297 
L 317.52 163.642105 
L 324.96 157.043172 
L 332.4 154.598496 
L 339.84 140.209579 
L 347.28 169.124607 
L 354.72 155.698478 
L 362.16 166.825136 
L 369.6 157.149967 
L 377.04 162.374179 
L 384.48 166.935257 
L 391.92 129.116152 
L 399.36 136.937564 
L 406.8 165.506684 
L 414.24 151.662486 
L 421.68 154.428647 
L 429.12 144.090534 
L 436.56 109.979534 
L 444 109.004267 
L 451.44 149.175454 
L 458.88 146.637882 
L 466.32 145.264254 
L 473.76 129.468349 
L 481.2 164.574346 
L 488.64 137.574856 
L 496.08 127.653272 
L 503.52 132.14278 
L 510.96 149.730324 
L 518.4 154.30656 
" style="fill:none;stroke:#2ca02c;stroke-linecap:square;"/>
   </g>
   <g id="line2d_58">
    <path clip-path="url(#p6e4a153fa1)" d="M 72 209.080906 
L 79.44 207.263287 
L 86.88 170.63152 
L 94.32 229.583986 
L 101.76 212.283873 
L 109.2 200.492916 
L 116.64 205.205714 
L 124.08 209.56007 
L 131.52 206.304155 
L 138.96 158.365599 
L 146.4 179.501968 
L 153.84 197.818659 
L 161.28 217.676735 
L 168.72 200.031682 
L 176.16 168.398456 
L 183.6 173.578494 
L 191.04 100.374399 
L 198.48 189.251261 
L 205.92 190.611626 
L 213.36 181.742301 
L 220.8 160.47404 
L 228.24 179.571588 
L 235.68 172.705783 
L 243.12 192.465562 
L 250.56 186.91003 
L 258 177.814971 
L 265.44 156.194839 
L 272.88 129.64135 
L 280.32 179.949312 
L 287.76 169.242618 
L 295.2 154.506652 
L 302.64 142.483198 
L 310.08 134.817129 
L 317.52 144.603984 
L 324.96 159.549767 
L 332.4 169.581921 
L 339.84 147.659652 
L 347.28 129.373062 
L 354.72 166.426267 
L 362.16 134.410971 
L 369.6 155.906073 
L 377.04 144.858228 
L 384.48 102.843409 
L 391.92 67.741766 
L 399.36 128.228304 
L 406.8 139.636064 
L 414.24 139.276426 
L 421.68 140.006779 
L 429.12 137.710094 
L 436.56 113.674029 
L 444 119.619231 
L 451.44 129.36349 
L 458.88 135.307897 
L 466.32 123.363016 
L 473.76 128.161318 
L 481.2 70.177864 
L 488.64 99.831879 
L 496.08 98.725618 
L 503.52 118.05136 
L 510.96 98.886003 
L 518.4 76.563828 
" style="fill:none;stroke:#d62728;stroke-linecap:square;"/>
   </g>
   <g id="line2d_59">
    <path clip-path="url(#p6e4a153fa1)" d="M 72 154.145724 
L 79.44 154.145724 
L 86.88 154.145724 
L 94.32 154.145724 
L 101.76 154.145724 
L 109.2 154.145724 
L 116.64 154.145724 
L 124.08 154.145724 
L 131.52 154.145724 
L 138.96 154.145724 
L 146.4 154.145724 
L 153.84 154.145724 
L 161.28 154.145724 
L 168.72 154.145724 
L 176.16 154.145724 
L 183.6 154.145724 
L 191.04 154.145724 
L 198.48 154.145724 
L 205.92 154.145724 
L 213.36 154.145724 
L 220.8 154.145724 
L 228.24 154.145724 
L 235.68 154.145724 
L 243.12 154.145724 
L 250.56 154.145724 
L 258 154.145724 
L 265.44 154.145724 
L 272.88 154.145724 
L 280.32 154.145724 
L 287.76 154.145724 
L 295.2 154.145724 
L 302.64 154.145724 
L 310.08 154.145724 
L 317.52 154.145724 
L 324.96 154.145724 
L 332.4 154.145724 
L 339.84 154.145724 
L 347.28 154.145724 
L 354.72 154.145724 
L 362.16 154.145724 
L 369.6 154.145724 
L 377.04 154.145724 
L 384.48 154.145724 
L 391.92 154.145724 
L 399.36 154.145724 
L 406.8 154.145724 
L 414.24 154.145724 
L 421.68 154.145724 
L 429.12 154.145724 
L 436.56 154.145724 
L 444 154.145724 
L 451.44 154.145724 
L 458.88 154.145724 
L 466.32 154.145724 
L 473.76 154.145724 
L 481.2 154.145724 
L 488.64 154.145724 
L 496.08 154.145724 
L 503.52 154.145724 
L 510.96 154.145724 
L 518.4 154.145724 
" style="fill:none;stroke:#9467bd;stroke-linecap:square;stroke-width:3;"/>
   </g>
   <g id="line2d_60">
    <path clip-path="url(#p6e4a153fa1)" d="M 72 242.116364 
L 79.44 237.256143 
L 86.88 235.80488 
L 94.32 235.549481 
L 101.76 229.244563 
L 109.2 226.968076 
L 116.64 222.797812 
L 124.08 220.383863 
L 131.52 219.994839 
L 138.96 219.576036 
L 146.4 214.10233 
L 153.84 213.487517 
L 161.28 212.087223 
L 168.72 206.989376 
L 176.16 202.833897 
L 183.6 200.765903 
L 191.04 200.149069 
L 198.48 194.436612 
L 205.92 193.087056 
L 213.36 191.788145 
L 220.8 191.498252 
L 228.24 191.487953 
L 235.68 189.514383 
L 243.12 187.264 
L 250.56 183.649107 
L 258 180.646776 
L 265.44 180.070598 
L 272.88 179.01658 
L 280.32 177.828409 
L 287.76 176.613371 
L 295.2 176.003423 
L 302.64 173.340342 
L 310.08 173.105009 
L 317.52 168.857085 
L 324.96 168.411281 
L 332.4 162.402698 
L 339.84 160.530708 
L 347.28 160.431444 
L 354.72 160.394451 
L 362.16 158.839672 
L 369.6 158.810368 
L 377.04 158.780177 
L 384.48 158.686364 
L 391.92 157.772792 
L 399.36 157.120891 
L 406.8 155.809857 
L 414.24 153.662056 
L 421.68 153.390896 
L 429.12 153.120459 
L 436.56 151.896853 
L 444 151.834808 
L 451.44 151.701933 
L 458.88 149.06518 
L 466.32 143.780933 
L 473.76 142.190765 
L 481.2 138.683117 
L 488.64 136.958897 
L 496.08 133.451227 
L 503.52 133.271341 
L 510.96 126.536738 
L 518.4 112.827586 
" style="fill:none;stroke:#8c564b;stroke-linecap:square;"/>
   </g>
   <g id="line2d_61">
    <path clip-path="url(#p6e4a153fa1)" d="M 72 153.995309 
L 79.44 153.368201 
L 86.88 151.445347 
L 94.32 154.138681 
L 101.76 153.556414 
L 109.2 154.029624 
L 116.64 154.123329 
L 124.08 154.120184 
L 131.52 154.128261 
L 138.96 153.104173 
L 146.4 152.91486 
L 153.84 154.140881 
L 161.28 114.589935 
L 168.72 153.482233 
L 176.16 153.386768 
L 183.6 151.902748 
L 191.04 154.329518 
L 198.48 153.756725 
L 205.92 154.07437 
L 213.36 154.132043 
L 220.8 153.121859 
L 228.24 153.584108 
L 235.68 153.65846 
L 243.12 154.137027 
L 250.56 154.126937 
L 258 154.105406 
L 265.44 154.155965 
L 272.88 153.852563 
L 280.32 153.656464 
L 287.76 151.957435 
L 295.2 153.700658 
L 302.64 154.073965 
L 310.08 152.646121 
L 317.52 148.464677 
L 324.96 152.445066 
L 332.4 154.100732 
L 339.84 112.569214 
L 347.28 152.33652 
L 354.72 154.044994 
L 362.16 150.536877 
L 369.6 154.174497 
L 377.04 154.055423 
L 384.48 151.295439 
L 391.92 164.012463 
L 399.36 152.026236 
L 406.8 147.101883 
L 414.24 152.049342 
L 421.68 153.073393 
L 429.12 153.951307 
L 436.56 153.874882 
L 444 153.706319 
L 451.44 153.110259 
L 458.88 153.414522 
L 466.32 150.01293 
L 473.76 147.224342 
L 481.2 148.261446 
L 488.64 151.317267 
L 496.08 152.544217 
L 503.52 147.65908 
L 510.96 147.3552 
L 518.4 147.296842 
" style="fill:none;stroke:#e377c2;stroke-linecap:square;"/>
   </g>
   <g id="line2d_62">
    <path clip-path="url(#p6e4a153fa1)" d="M 72 237.806302 
L 79.44 223.764343 
L 86.88 193.794252 
L 94.32 233.181154 
L 101.76 212.640637 
L 109.2 216.074193 
L 116.64 216.121234 
L 124.08 219.493792 
L 131.52 216.354812 
L 138.96 206.387476 
L 146.4 202.397851 
L 153.84 207.177763 
L 161.28 210.782797 
L 168.72 207.00817 
L 176.16 197.136171 
L 183.6 173.47533 
L 191.04 198.204046 
L 198.48 191.40635 
L 205.92 192.317476 
L 213.36 189.727837 
L 220.8 172.406885 
L 228.24 189.13854 
L 235.68 177.041305 
L 243.12 187.155715 
L 250.56 183.210896 
L 258 180.534488 
L 265.44 171.164859 
L 272.88 171.305194 
L 280.32 175.870367 
L 287.76 175.465979 
L 295.2 175.717915 
L 302.64 151.29826 
L 310.08 138.078446 
L 317.52 157.41896 
L 324.96 167.038265 
L 332.4 162.230074 
L 339.84 158.331862 
L 347.28 148.946257 
L 354.72 162.475357 
L 362.16 146.692071 
L 369.6 157.601485 
L 377.04 157.738003 
L 384.48 127.178107 
L 391.92 189.399456 
L 399.36 149.009782 
L 406.8 151.135467 
L 414.24 153.46023 
L 421.68 149.481435 
L 429.12 151.906581 
L 436.56 141.292959 
L 444 141.840936 
L 451.44 137.24598 
L 458.88 135.403322 
L 466.32 133.156376 
L 473.76 150.490256 
L 481.2 97.542808 
L 488.64 117.570658 
L 496.08 108.683903 
L 503.52 126.133988 
L 510.96 110.433073 
L 518.4 98.599715 
" style="fill:none;stroke:#7f7f7f;stroke-linecap:square;"/>
   </g>
   <g id="line2d_63">
    <path clip-path="url(#p6e4a153fa1)" d="M 72 232.151663 
L 79.44 221.563362 
L 86.88 195.232283 
L 94.32 226.140544 
L 101.76 215.174219 
L 109.2 233.312214 
L 116.64 218.726381 
L 124.08 216.324443 
L 131.52 236.229204 
L 138.96 189.594534 
L 146.4 198.608987 
L 153.84 218.606891 
L 161.28 207.580883 
L 168.72 207.831637 
L 176.16 209.451355 
L 183.6 181.825244 
L 191.04 198.428335 
L 198.48 195.699548 
L 205.92 192.825052 
L 213.36 190.554826 
L 220.8 194.959868 
L 228.24 193.542568 
L 235.68 188.528077 
L 243.12 186.184113 
L 250.56 181.843369 
L 258 177.396908 
L 265.44 178.339712 
L 272.88 177.566189 
L 280.32 174.211416 
L 287.76 175.75007 
L 295.2 175.288294 
L 302.64 159.729229 
L 310.08 174.291956 
L 317.52 175.653625 
L 324.96 170.526932 
L 332.4 169.424353 
L 339.84 161.692517 
L 347.28 162.962803 
L 354.72 157.165229 
L 362.16 152.949973 
L 369.6 157.65865 
L 377.04 157.060099 
L 384.48 126.853674 
L 391.92 185.434907 
L 399.36 152.448675 
L 406.8 149.983104 
L 414.24 153.588191 
L 421.68 162.860987 
L 429.12 157.10346 
L 436.56 140.180127 
L 444 152.135778 
L 451.44 137.992302 
L 458.88 157.053834 
L 466.32 146.177083 
L 473.76 182.590308 
L 481.2 133.976112 
L 488.64 144.374166 
L 496.08 134.093351 
L 503.52 140.50106 
L 510.96 153.220064 
L 518.4 106.455203 
" style="fill:none;stroke:#bcbd22;stroke-linecap:square;"/>
   </g>
   <g id="patch_3">
    <path d="M 72 252 
L 72 34.56 
" style="fill:none;stroke:#000000;stroke-linecap:square;stroke-linejoin:miter;stroke-width:0.8;"/>
   </g>
   <g id="patch_4">
    <path d="M 518.4 252 
L 518.4 34.56 
" style="fill:none;stroke:#000000;stroke-linecap:square;stroke-linejoin:miter;stroke-width:0.8;"/>
   </g>
   <g id="patch_5">
    <path d="M 72 252 
L 518.4 252 
" style="fill:none;stroke:#000000;stroke-linecap:square;stroke-linejoin:miter;stroke-width:0.8;"/>
   </g>
   <g id="patch_6">
    <path d="M 72 34.56 
L 518.4 34.56 
" style="fill:none;stroke:#000000;stroke-linecap:square;stroke-linejoin:miter;stroke-width:0.8;"/>
   </g>
   <g id="legend_1">
    <g id="patch_7">
     <path d="M 538.792 172.488725 
L 627.392 172.488725 
Q 629.392 172.488725 629.392 170.488725 
L 629.392 39.3856 
Q 629.392 37.3856 627.392 37.3856 
L 538.792 37.3856 
Q 536.792 37.3856 536.792 39.3856 
L 536.792 170.488725 
Q 536.792 172.488725 538.792 172.488725 
z
" style="fill:#ffffff;opacity:0.8;stroke:#cccccc;stroke-linejoin:miter;"/>
    </g>
    <g id="line2d_64">
     <path d="M 540.792 45.484037 
L 560.792 45.484037 
" style="fill:none;stroke:#1f77b4;stroke-linecap:square;"/>
    </g>
    <g id="line2d_65"/>
    <g id="text_14">
     <!-- SI -->
     <g transform="translate(568.792 48.984037)scale(0.1 -0.1)">
      <use xlink:href="#DejaVuSans-83"/>
      <use x="63.476562" xlink:href="#DejaVuSans-73"/>
     </g>
    </g>
    <g id="line2d_66">
     <path d="M 540.792 60.162163 
L 560.792 60.162163 
" style="fill:none;stroke:#ff7f0e;stroke-linecap:square;"/>
    </g>
    <g id="line2d_67"/>
    <g id="text_15">
     <!-- BD -->
     <g transform="translate(568.792 63.662163)scale(0.1 -0.1)">
      <defs>
       <path d="M 19.671875 34.8125 
L 19.671875 8.109375 
L 35.5 8.109375 
Q 43.453125 8.109375 47.28125 11.40625 
Q 51.125 14.703125 51.125 21.484375 
Q 51.125 28.328125 47.28125 31.5625 
Q 43.453125 34.8125 35.5 34.8125 
z
M 19.671875 64.796875 
L 19.671875 42.828125 
L 34.28125 42.828125 
Q 41.5 42.828125 45.03125 45.53125 
Q 48.578125 48.25 48.578125 53.8125 
Q 48.578125 59.328125 45.03125 62.0625 
Q 41.5 64.796875 34.28125 64.796875 
z
M 9.8125 72.90625 
L 35.015625 72.90625 
Q 46.296875 72.90625 52.390625 68.21875 
Q 58.5 63.53125 58.5 54.890625 
Q 58.5 48.1875 55.375 44.234375 
Q 52.25 40.28125 46.1875 39.3125 
Q 53.46875 37.75 57.5 32.78125 
Q 61.53125 27.828125 61.53125 20.40625 
Q 61.53125 10.640625 54.890625 5.3125 
Q 48.25 0 35.984375 0 
L 9.8125 0 
z
" id="DejaVuSans-66"/>
       <path d="M 19.671875 64.796875 
L 19.671875 8.109375 
L 31.59375 8.109375 
Q 46.6875 8.109375 53.6875 14.9375 
Q 60.6875 21.78125 60.6875 36.53125 
Q 60.6875 51.171875 53.6875 57.984375 
Q 46.6875 64.796875 31.59375 64.796875 
z
M 9.8125 72.90625 
L 30.078125 72.90625 
Q 51.265625 72.90625 61.171875 64.09375 
Q 71.09375 55.28125 71.09375 36.53125 
Q 71.09375 17.671875 61.125 8.828125 
Q 51.171875 0 30.078125 0 
L 9.8125 0 
z
" id="DejaVuSans-68"/>
      </defs>
      <use xlink:href="#DejaVuSans-66"/>
      <use x="68.603516" xlink:href="#DejaVuSans-68"/>
     </g>
    </g>
    <g id="line2d_68">
     <path d="M 540.792 74.840287 
L 560.792 74.840287 
" style="fill:none;stroke:#2ca02c;stroke-linecap:square;"/>
    </g>
    <g id="line2d_69"/>
    <g id="text_16">
     <!-- SIR -->
     <g transform="translate(568.792 78.340287)scale(0.1 -0.1)">
      <use xlink:href="#DejaVuSans-83"/>
      <use x="63.476562" xlink:href="#DejaVuSans-73"/>
      <use x="92.96875" xlink:href="#DejaVuSans-82"/>
     </g>
    </g>
    <g id="line2d_70">
     <path d="M 540.792 89.518413 
L 560.792 89.518413 
" style="fill:none;stroke:#d62728;stroke-linecap:square;"/>
    </g>
    <g id="line2d_71"/>
    <g id="text_17">
     <!-- eSIR -->
     <g transform="translate(568.792 93.018413)scale(0.1 -0.1)">
      <use xlink:href="#DejaVuSans-101"/>
      <use x="61.523438" xlink:href="#DejaVuSans-83"/>
      <use x="125" xlink:href="#DejaVuSans-73"/>
      <use x="154.492188" xlink:href="#DejaVuSans-82"/>
     </g>
    </g>
    <g id="line2d_72">
     <path d="M 540.792 104.196538 
L 560.792 104.196538 
" style="fill:none;stroke:#9467bd;stroke-linecap:square;stroke-width:3;"/>
    </g>
    <g id="line2d_73"/>
    <g id="text_18">
     <!-- SEIR -->
     <g transform="translate(568.792 107.696538)scale(0.1 -0.1)">
      <use xlink:href="#DejaVuSans-83"/>
      <use x="63.476562" xlink:href="#DejaVuSans-69"/>
      <use x="126.660156" xlink:href="#DejaVuSans-73"/>
      <use x="156.152344" xlink:href="#DejaVuSans-82"/>
     </g>
    </g>
    <g id="line2d_74">
     <path d="M 540.792 118.874662 
L 560.792 118.874662 
" style="fill:none;stroke:#8c564b;stroke-linecap:square;"/>
    </g>
    <g id="line2d_75"/>
    <g id="text_19">
     <!-- eSEIR -->
     <g transform="translate(568.792 122.374662)scale(0.1 -0.1)">
      <use xlink:href="#DejaVuSans-101"/>
      <use x="61.523438" xlink:href="#DejaVuSans-83"/>
      <use x="125" xlink:href="#DejaVuSans-69"/>
      <use x="188.183594" xlink:href="#DejaVuSans-73"/>
      <use x="217.675781" xlink:href="#DejaVuSans-82"/>
     </g>
    </g>
    <g id="line2d_76">
     <path d="M 540.792 133.552787 
L 560.792 133.552787 
" style="fill:none;stroke:#e377c2;stroke-linecap:square;"/>
    </g>
    <g id="line2d_77"/>
    <g id="text_20">
     <!-- SEIUR -->
     <g transform="translate(568.792 137.052787)scale(0.1 -0.1)">
      <defs>
       <path d="M 8.6875 72.90625 
L 18.609375 72.90625 
L 18.609375 28.609375 
Q 18.609375 16.890625 22.84375 11.734375 
Q 27.09375 6.59375 36.625 6.59375 
Q 46.09375 6.59375 50.34375 11.734375 
Q 54.59375 16.890625 54.59375 28.609375 
L 54.59375 72.90625 
L 64.5 72.90625 
L 64.5 27.390625 
Q 64.5 13.140625 57.4375 5.859375 
Q 50.390625 -1.421875 36.625 -1.421875 
Q 22.796875 -1.421875 15.734375 5.859375 
Q 8.6875 13.140625 8.6875 27.390625 
z
" id="DejaVuSans-85"/>
      </defs>
      <use xlink:href="#DejaVuSans-83"/>
      <use x="63.476562" xlink:href="#DejaVuSans-69"/>
      <use x="126.660156" xlink:href="#DejaVuSans-73"/>
      <use x="156.152344" xlink:href="#DejaVuSans-85"/>
      <use x="229.345703" xlink:href="#DejaVuSans-82"/>
     </g>
    </g>
    <g id="line2d_78">
     <path d="M 540.792 148.230912 
L 560.792 148.230912 
" style="fill:none;stroke:#7f7f7f;stroke-linecap:square;"/>
    </g>
    <g id="line2d_79"/>
    <g id="text_21">
     <!-- eSEIUR -->
     <g transform="translate(568.792 151.730912)scale(0.1 -0.1)">
      <use xlink:href="#DejaVuSans-101"/>
      <use x="61.523438" xlink:href="#DejaVuSans-83"/>
      <use x="125" xlink:href="#DejaVuSans-69"/>
      <use x="188.183594" xlink:href="#DejaVuSans-73"/>
      <use x="217.675781" xlink:href="#DejaVuSans-85"/>
      <use x="290.869141" xlink:href="#DejaVuSans-82"/>
     </g>
    </g>
    <g id="line2d_80">
     <path d="M 540.792 162.909037 
L 560.792 162.909037 
" style="fill:none;stroke:#bcbd22;stroke-linecap:square;"/>
    </g>
    <g id="line2d_81"/>
    <g id="text_22">
     <!-- eSEIUR$^{range}$ -->
     <g transform="translate(568.792 166.409037)scale(0.1 -0.1)">
      <defs>
       <path d="M 44.578125 46.390625 
Q 43.21875 47.125 41.453125 47.515625 
Q 39.703125 47.90625 37.703125 47.90625 
Q 30.515625 47.90625 25.140625 42.453125 
Q 19.78125 37.015625 18.015625 27.875 
L 12.5 0 
L 3.515625 0 
L 14.203125 54.6875 
L 23.1875 54.6875 
L 21.484375 46.1875 
Q 25.046875 50.921875 30 53.453125 
Q 34.96875 56 40.578125 56 
Q 42.046875 56 43.453125 55.828125 
Q 44.875 55.671875 46.296875 55.28125 
z
" id="DejaVuSans-Oblique-114"/>
       <path d="M 53.71875 31.203125 
L 47.609375 0 
L 38.625 0 
L 40.28125 8.296875 
Q 36.328125 3.421875 31.265625 1 
Q 26.21875 -1.421875 20.015625 -1.421875 
Q 13.03125 -1.421875 8.5625 2.84375 
Q 4.109375 7.125 4.109375 13.8125 
Q 4.109375 23.390625 11.75 28.953125 
Q 19.390625 34.515625 32.8125 34.515625 
L 45.3125 34.515625 
L 45.796875 36.921875 
Q 45.90625 37.3125 45.953125 37.765625 
Q 46 38.234375 46 39.203125 
Q 46 43.5625 42.453125 45.96875 
Q 38.921875 48.390625 32.515625 48.390625 
Q 28.125 48.390625 23.5 47.265625 
Q 18.890625 46.140625 14.015625 43.890625 
L 15.578125 52.203125 
Q 20.65625 54.109375 25.515625 55.046875 
Q 30.375 56 34.90625 56 
Q 44.578125 56 49.625 51.796875 
Q 54.6875 47.609375 54.6875 39.59375 
Q 54.6875 37.984375 54.4375 35.8125 
Q 54.203125 33.640625 53.71875 31.203125 
z
M 44 27.484375 
L 35.015625 27.484375 
Q 23.96875 27.484375 18.671875 24.53125 
Q 13.375 21.578125 13.375 15.375 
Q 13.375 11.078125 16.078125 8.640625 
Q 18.796875 6.203125 23.578125 6.203125 
Q 30.90625 6.203125 36.375 11.453125 
Q 41.84375 16.703125 43.609375 25.484375 
z
" id="DejaVuSans-Oblique-97"/>
       <path d="M 55.71875 33.015625 
L 49.3125 0 
L 40.28125 0 
L 46.6875 32.671875 
Q 47.125 34.96875 47.359375 36.71875 
Q 47.609375 38.484375 47.609375 39.5 
Q 47.609375 43.609375 45.015625 45.890625 
Q 42.4375 48.1875 37.796875 48.1875 
Q 30.5625 48.1875 25.34375 43.375 
Q 20.125 38.578125 18.5 30.328125 
L 12.5 0 
L 3.515625 0 
L 14.109375 54.6875 
L 23.09375 54.6875 
L 21.296875 46.09375 
Q 25.046875 50.828125 30.3125 53.40625 
Q 35.59375 56 41.40625 56 
Q 48.640625 56 52.609375 52.09375 
Q 56.59375 48.1875 56.59375 41.109375 
Q 56.59375 39.359375 56.375 37.359375 
Q 56.15625 35.359375 55.71875 33.015625 
z
" id="DejaVuSans-Oblique-110"/>
       <path d="M 59.625 54.6875 
L 50.296875 6.78125 
Q 47.609375 -7.125 40.015625 -13.953125 
Q 32.421875 -20.796875 19.578125 -20.796875 
Q 14.84375 -20.796875 10.78125 -20.09375 
Q 6.734375 -19.390625 3.21875 -17.921875 
L 4.890625 -9.1875 
Q 8.203125 -11.328125 11.90625 -12.34375 
Q 15.625 -13.375 19.828125 -13.375 
Q 28.375 -13.375 33.859375 -8.703125 
Q 39.359375 -4.046875 41.109375 4.6875 
L 41.890625 8.796875 
Q 38.140625 4.5 33.15625 2.25 
Q 28.171875 0 22.40625 0 
Q 14.109375 0 9.34375 5.484375 
Q 4.59375 10.984375 4.59375 20.609375 
Q 4.59375 28.171875 7.46875 35.421875 
Q 10.359375 42.671875 15.578125 48.296875 
Q 19.046875 52 23.65625 54 
Q 28.265625 56 33.296875 56 
Q 38.8125 56 42.90625 53.4375 
Q 47.015625 50.875 49.03125 46.1875 
L 50.59375 54.6875 
z
M 46.09375 34.625 
Q 46.09375 41.265625 42.96875 44.875 
Q 39.84375 48.484375 34.078125 48.484375 
Q 30.515625 48.484375 27.296875 47.0625 
Q 24.078125 45.65625 21.78125 43.109375 
Q 18.0625 38.921875 15.984375 33.234375 
Q 13.921875 27.546875 13.921875 21.484375 
Q 13.921875 14.75 17.0625 11.125 
Q 20.21875 7.515625 26.125 7.515625 
Q 34.671875 7.515625 40.375 15.25 
Q 46.09375 23 46.09375 34.625 
z
" id="DejaVuSans-Oblique-103"/>
       <path d="M 48.09375 32.234375 
Q 48.25 33.015625 48.3125 33.84375 
Q 48.390625 34.671875 48.390625 35.5 
Q 48.390625 41.453125 44.890625 44.921875 
Q 41.40625 48.390625 35.40625 48.390625 
Q 28.71875 48.390625 23.578125 44.15625 
Q 18.453125 39.9375 15.828125 32.171875 
z
M 55.90625 25.203125 
L 14.109375 25.203125 
Q 13.8125 23.34375 13.71875 22.265625 
Q 13.625 21.1875 13.625 20.40625 
Q 13.625 13.625 17.796875 9.90625 
Q 21.96875 6.203125 29.59375 6.203125 
Q 35.453125 6.203125 40.671875 7.515625 
Q 45.90625 8.84375 50.390625 11.375 
L 48.6875 2.484375 
Q 43.84375 0.53125 38.6875 -0.4375 
Q 33.546875 -1.421875 28.21875 -1.421875 
Q 16.84375 -1.421875 10.71875 4.015625 
Q 4.59375 9.46875 4.59375 19.484375 
Q 4.59375 28.03125 7.640625 35.375 
Q 10.6875 42.71875 16.609375 48.484375 
Q 20.40625 52.09375 25.65625 54.046875 
Q 30.90625 56 36.8125 56 
Q 46.09375 56 51.578125 50.4375 
Q 57.078125 44.875 57.078125 35.5 
Q 57.078125 33.25 56.78125 30.6875 
Q 56.5 28.125 55.90625 25.203125 
z
" id="DejaVuSans-Oblique-101"/>
      </defs>
      <use transform="translate(0 0.51875)" xlink:href="#DejaVuSans-101"/>
      <use transform="translate(61.523438 0.51875)" xlink:href="#DejaVuSans-83"/>
      <use transform="translate(125 0.51875)" xlink:href="#DejaVuSans-69"/>
      <use transform="translate(188.183594 0.51875)" xlink:href="#DejaVuSans-73"/>
      <use transform="translate(217.675781 0.51875)" xlink:href="#DejaVuSans-85"/>
      <use transform="translate(288.619141 0.51875)" xlink:href="#DejaVuSans-82"/>
      <use transform="translate(359.058594 38.8)scale(0.7)" xlink:href="#DejaVuSans-Oblique-114"/>
      <use transform="translate(387.837891 38.8)scale(0.7)" xlink:href="#DejaVuSans-Oblique-97"/>
      <use transform="translate(430.733398 38.8)scale(0.7)" xlink:href="#DejaVuSans-Oblique-110"/>
      <use transform="translate(475.098633 38.8)scale(0.7)" xlink:href="#DejaVuSans-Oblique-103"/>
      <use transform="translate(519.532227 38.8)scale(0.7)" xlink:href="#DejaVuSans-Oblique-101"/>
     </g>
    </g>
   </g>
  </g>
 </g>
 <defs>
  <clipPath id="p6e4a153fa1">
   <rect height="217.44" width="446.4" x="72" y="34.56"/>
  </clipPath>
 </defs>
</svg>
