<?xml version="1.0" encoding="utf-8" standalone="no"?>
<!DOCTYPE svg PUBLIC "-//W3C//DTD SVG 1.1//EN"
  "http://www.w3.org/Graphics/SVG/1.1/DTD/svg11.dtd">
<!-- Created with matplotlib (https://matplotlib.org/) -->
<svg height="360pt" version="1.1" viewBox="0 0 720 360" width="720pt" xmlns="http://www.w3.org/2000/svg" xmlns:xlink="http://www.w3.org/1999/xlink">
 <metadata>
  <rdf:RDF xmlns:cc="http://creativecommons.org/ns#" xmlns:dc="http://purl.org/dc/elements/1.1/" xmlns:rdf="http://www.w3.org/1999/02/22-rdf-syntax-ns#">
   <cc:Work>
    <dc:type rdf:resource="http://purl.org/dc/dcmitype/StillImage"/>
    <dc:date>2022-07-12T16:28:36.630052</dc:date>
    <dc:format>image/svg+xml</dc:format>
    <dc:creator>
     <cc:Agent>
      <dc:title>Matplotlib v3.3.2, https://matplotlib.org/</dc:title>
     </cc:Agent>
    </dc:creator>
   </cc:Work>
  </rdf:RDF>
 </metadata>
 <defs>
  <style type="text/css">*{stroke-linecap:butt;stroke-linejoin:round;}</style>
 </defs>
 <g id="figure_1">
  <g id="patch_1">
   <path d="M 0 360 
L 720 360 
L 720 0 
L 0 0 
z
" style="fill:none;"/>
  </g>
  <g id="axes_1">
   <g id="patch_2">
    <path d="M 90 315 
L 648 315 
L 648 43.2 
L 90 43.2 
z
" style="fill:#ffffff;"/>
   </g>
   <g id="matplotlib.axis_1">
    <g id="xtick_1">
     <g id="line2d_1">
      <path clip-path="url(#p5d32a3f1b4)" d="M 115.363636 315 
L 115.363636 43.2 
" style="fill:none;stroke:#b0b0b0;stroke-linecap:square;stroke-width:0.8;"/>
     </g>
     <g id="line2d_2">
      <defs>
       <path d="M 0 0 
L 0 3.5 
" id="m49a70f9ab3" style="stroke:#000000;stroke-width:0.8;"/>
      </defs>
      <g>
       <use style="stroke:#000000;stroke-width:0.8;" x="115.363636" xlink:href="#m49a70f9ab3" y="315"/>
      </g>
     </g>
     <g id="text_1">
      <!-- 0 -->
      <g transform="translate(112.182386 329.598437)scale(0.1 -0.1)">
       <defs>
        <path d="M 31.78125 66.40625 
Q 24.171875 66.40625 20.328125 58.90625 
Q 16.5 51.421875 16.5 36.375 
Q 16.5 21.390625 20.328125 13.890625 
Q 24.171875 6.390625 31.78125 6.390625 
Q 39.453125 6.390625 43.28125 13.890625 
Q 47.125 21.390625 47.125 36.375 
Q 47.125 51.421875 43.28125 58.90625 
Q 39.453125 66.40625 31.78125 66.40625 
z
M 31.78125 74.21875 
Q 44.046875 74.21875 50.515625 64.515625 
Q 56.984375 54.828125 56.984375 36.375 
Q 56.984375 17.96875 50.515625 8.265625 
Q 44.046875 -1.421875 31.78125 -1.421875 
Q 19.53125 -1.421875 13.0625 8.265625 
Q 6.59375 17.96875 6.59375 36.375 
Q 6.59375 54.828125 13.0625 64.515625 
Q 19.53125 74.21875 31.78125 74.21875 
z
" id="DejaVuSans-48"/>
       </defs>
       <use xlink:href="#DejaVuSans-48"/>
      </g>
     </g>
    </g>
    <g id="xtick_2">
     <g id="line2d_3">
      <path clip-path="url(#p5d32a3f1b4)" d="M 235.286267 315 
L 235.286267 43.2 
" style="fill:none;stroke:#b0b0b0;stroke-linecap:square;stroke-width:0.8;"/>
     </g>
     <g id="line2d_4">
      <g>
       <use style="stroke:#000000;stroke-width:0.8;" x="235.286267" xlink:href="#m49a70f9ab3" y="315"/>
      </g>
     </g>
     <g id="text_2">
      <!-- 100 -->
      <g transform="translate(225.742517 329.598437)scale(0.1 -0.1)">
       <defs>
        <path d="M 12.40625 8.296875 
L 28.515625 8.296875 
L 28.515625 63.921875 
L 10.984375 60.40625 
L 10.984375 69.390625 
L 28.421875 72.90625 
L 38.28125 72.90625 
L 38.28125 8.296875 
L 54.390625 8.296875 
L 54.390625 0 
L 12.40625 0 
z
" id="DejaVuSans-49"/>
       </defs>
       <use xlink:href="#DejaVuSans-49"/>
       <use x="63.623047" xlink:href="#DejaVuSans-48"/>
       <use x="127.246094" xlink:href="#DejaVuSans-48"/>
      </g>
     </g>
    </g>
    <g id="xtick_3">
     <g id="line2d_5">
      <path clip-path="url(#p5d32a3f1b4)" d="M 355.208897 315 
L 355.208897 43.2 
" style="fill:none;stroke:#b0b0b0;stroke-linecap:square;stroke-width:0.8;"/>
     </g>
     <g id="line2d_6">
      <g>
       <use style="stroke:#000000;stroke-width:0.8;" x="355.208897" xlink:href="#m49a70f9ab3" y="315"/>
      </g>
     </g>
     <g id="text_3">
      <!-- 200 -->
      <g transform="translate(345.665147 329.598437)scale(0.1 -0.1)">
       <defs>
        <path d="M 19.1875 8.296875 
L 53.609375 8.296875 
L 53.609375 0 
L 7.328125 0 
L 7.328125 8.296875 
Q 12.9375 14.109375 22.625 23.890625 
Q 32.328125 33.6875 34.8125 36.53125 
Q 39.546875 41.84375 41.421875 45.53125 
Q 43.3125 49.21875 43.3125 52.78125 
Q 43.3125 58.59375 39.234375 62.25 
Q 35.15625 65.921875 28.609375 65.921875 
Q 23.96875 65.921875 18.8125 64.3125 
Q 13.671875 62.703125 7.8125 59.421875 
L 7.8125 69.390625 
Q 13.765625 71.78125 18.9375 73 
Q 24.125 74.21875 28.421875 74.21875 
Q 39.75 74.21875 46.484375 68.546875 
Q 53.21875 62.890625 53.21875 53.421875 
Q 53.21875 48.921875 51.53125 44.890625 
Q 49.859375 40.875 45.40625 35.40625 
Q 44.1875 33.984375 37.640625 27.21875 
Q 31.109375 20.453125 19.1875 8.296875 
z
" id="DejaVuSans-50"/>
       </defs>
       <use xlink:href="#DejaVuSans-50"/>
       <use x="63.623047" xlink:href="#DejaVuSans-48"/>
       <use x="127.246094" xlink:href="#DejaVuSans-48"/>
      </g>
     </g>
    </g>
    <g id="xtick_4">
     <g id="line2d_7">
      <path clip-path="url(#p5d32a3f1b4)" d="M 475.131528 315 
L 475.131528 43.2 
" style="fill:none;stroke:#b0b0b0;stroke-linecap:square;stroke-width:0.8;"/>
     </g>
     <g id="line2d_8">
      <g>
       <use style="stroke:#000000;stroke-width:0.8;" x="475.131528" xlink:href="#m49a70f9ab3" y="315"/>
      </g>
     </g>
     <g id="text_4">
      <!-- 300 -->
      <g transform="translate(465.587778 329.598437)scale(0.1 -0.1)">
       <defs>
        <path d="M 40.578125 39.3125 
Q 47.65625 37.796875 51.625 33 
Q 55.609375 28.21875 55.609375 21.1875 
Q 55.609375 10.40625 48.1875 4.484375 
Q 40.765625 -1.421875 27.09375 -1.421875 
Q 22.515625 -1.421875 17.65625 -0.515625 
Q 12.796875 0.390625 7.625 2.203125 
L 7.625 11.71875 
Q 11.71875 9.328125 16.59375 8.109375 
Q 21.484375 6.890625 26.8125 6.890625 
Q 36.078125 6.890625 40.9375 10.546875 
Q 45.796875 14.203125 45.796875 21.1875 
Q 45.796875 27.640625 41.28125 31.265625 
Q 36.765625 34.90625 28.71875 34.90625 
L 20.21875 34.90625 
L 20.21875 43.015625 
L 29.109375 43.015625 
Q 36.375 43.015625 40.234375 45.921875 
Q 44.09375 48.828125 44.09375 54.296875 
Q 44.09375 59.90625 40.109375 62.90625 
Q 36.140625 65.921875 28.71875 65.921875 
Q 24.65625 65.921875 20.015625 65.03125 
Q 15.375 64.15625 9.8125 62.3125 
L 9.8125 71.09375 
Q 15.4375 72.65625 20.34375 73.4375 
Q 25.25 74.21875 29.59375 74.21875 
Q 40.828125 74.21875 47.359375 69.109375 
Q 53.90625 64.015625 53.90625 55.328125 
Q 53.90625 49.265625 50.4375 45.09375 
Q 46.96875 40.921875 40.578125 39.3125 
z
" id="DejaVuSans-51"/>
       </defs>
       <use xlink:href="#DejaVuSans-51"/>
       <use x="63.623047" xlink:href="#DejaVuSans-48"/>
       <use x="127.246094" xlink:href="#DejaVuSans-48"/>
      </g>
     </g>
    </g>
    <g id="xtick_5">
     <g id="line2d_9">
      <path clip-path="url(#p5d32a3f1b4)" d="M 595.054159 315 
L 595.054159 43.2 
" style="fill:none;stroke:#b0b0b0;stroke-linecap:square;stroke-width:0.8;"/>
     </g>
     <g id="line2d_10">
      <g>
       <use style="stroke:#000000;stroke-width:0.8;" x="595.054159" xlink:href="#m49a70f9ab3" y="315"/>
      </g>
     </g>
     <g id="text_5">
      <!-- 400 -->
      <g transform="translate(585.510409 329.598437)scale(0.1 -0.1)">
       <defs>
        <path d="M 37.796875 64.3125 
L 12.890625 25.390625 
L 37.796875 25.390625 
z
M 35.203125 72.90625 
L 47.609375 72.90625 
L 47.609375 25.390625 
L 58.015625 25.390625 
L 58.015625 17.1875 
L 47.609375 17.1875 
L 47.609375 0 
L 37.796875 0 
L 37.796875 17.1875 
L 4.890625 17.1875 
L 4.890625 26.703125 
z
" id="DejaVuSans-52"/>
       </defs>
       <use xlink:href="#DejaVuSans-52"/>
       <use x="63.623047" xlink:href="#DejaVuSans-48"/>
       <use x="127.246094" xlink:href="#DejaVuSans-48"/>
      </g>
     </g>
    </g>
    <g id="text_6">
     <!-- Days -->
     <g transform="translate(356.521875 343.276563)scale(0.1 -0.1)">
      <defs>
       <path d="M 19.671875 64.796875 
L 19.671875 8.109375 
L 31.59375 8.109375 
Q 46.6875 8.109375 53.6875 14.9375 
Q 60.6875 21.78125 60.6875 36.53125 
Q 60.6875 51.171875 53.6875 57.984375 
Q 46.6875 64.796875 31.59375 64.796875 
z
M 9.8125 72.90625 
L 30.078125 72.90625 
Q 51.265625 72.90625 61.171875 64.09375 
Q 71.09375 55.28125 71.09375 36.53125 
Q 71.09375 17.671875 61.125 8.828125 
Q 51.171875 0 30.078125 0 
L 9.8125 0 
z
" id="DejaVuSans-68"/>
       <path d="M 34.28125 27.484375 
Q 23.390625 27.484375 19.1875 25 
Q 14.984375 22.515625 14.984375 16.5 
Q 14.984375 11.71875 18.140625 8.90625 
Q 21.296875 6.109375 26.703125 6.109375 
Q 34.1875 6.109375 38.703125 11.40625 
Q 43.21875 16.703125 43.21875 25.484375 
L 43.21875 27.484375 
z
M 52.203125 31.203125 
L 52.203125 0 
L 43.21875 0 
L 43.21875 8.296875 
Q 40.140625 3.328125 35.546875 0.953125 
Q 30.953125 -1.421875 24.3125 -1.421875 
Q 15.921875 -1.421875 10.953125 3.296875 
Q 6 8.015625 6 15.921875 
Q 6 25.140625 12.171875 29.828125 
Q 18.359375 34.515625 30.609375 34.515625 
L 43.21875 34.515625 
L 43.21875 35.40625 
Q 43.21875 41.609375 39.140625 45 
Q 35.0625 48.390625 27.6875 48.390625 
Q 23 48.390625 18.546875 47.265625 
Q 14.109375 46.140625 10.015625 43.890625 
L 10.015625 52.203125 
Q 14.9375 54.109375 19.578125 55.046875 
Q 24.21875 56 28.609375 56 
Q 40.484375 56 46.34375 49.84375 
Q 52.203125 43.703125 52.203125 31.203125 
z
" id="DejaVuSans-97"/>
       <path d="M 32.171875 -5.078125 
Q 28.375 -14.84375 24.75 -17.8125 
Q 21.140625 -20.796875 15.09375 -20.796875 
L 7.90625 -20.796875 
L 7.90625 -13.28125 
L 13.1875 -13.28125 
Q 16.890625 -13.28125 18.9375 -11.515625 
Q 21 -9.765625 23.484375 -3.21875 
L 25.09375 0.875 
L 2.984375 54.6875 
L 12.5 54.6875 
L 29.59375 11.921875 
L 46.6875 54.6875 
L 56.203125 54.6875 
z
" id="DejaVuSans-121"/>
       <path d="M 44.28125 53.078125 
L 44.28125 44.578125 
Q 40.484375 46.53125 36.375 47.5 
Q 32.28125 48.484375 27.875 48.484375 
Q 21.1875 48.484375 17.84375 46.4375 
Q 14.5 44.390625 14.5 40.28125 
Q 14.5 37.15625 16.890625 35.375 
Q 19.28125 33.59375 26.515625 31.984375 
L 29.59375 31.296875 
Q 39.15625 29.25 43.1875 25.515625 
Q 47.21875 21.78125 47.21875 15.09375 
Q 47.21875 7.46875 41.1875 3.015625 
Q 35.15625 -1.421875 24.609375 -1.421875 
Q 20.21875 -1.421875 15.453125 -0.5625 
Q 10.6875 0.296875 5.421875 2 
L 5.421875 11.28125 
Q 10.40625 8.6875 15.234375 7.390625 
Q 20.0625 6.109375 24.8125 6.109375 
Q 31.15625 6.109375 34.5625 8.28125 
Q 37.984375 10.453125 37.984375 14.40625 
Q 37.984375 18.0625 35.515625 20.015625 
Q 33.0625 21.96875 24.703125 23.78125 
L 21.578125 24.515625 
Q 13.234375 26.265625 9.515625 29.90625 
Q 5.8125 33.546875 5.8125 39.890625 
Q 5.8125 47.609375 11.28125 51.796875 
Q 16.75 56 26.8125 56 
Q 31.78125 56 36.171875 55.265625 
Q 40.578125 54.546875 44.28125 53.078125 
z
" id="DejaVuSans-115"/>
      </defs>
      <use xlink:href="#DejaVuSans-68"/>
      <use x="77.001953" xlink:href="#DejaVuSans-97"/>
      <use x="138.28125" xlink:href="#DejaVuSans-121"/>
      <use x="197.460938" xlink:href="#DejaVuSans-115"/>
     </g>
    </g>
   </g>
   <g id="matplotlib.axis_2">
    <g id="ytick_1">
     <g id="line2d_11">
      <path clip-path="url(#p5d32a3f1b4)" d="M 90 302.679273 
L 648 302.679273 
" style="fill:none;stroke:#b0b0b0;stroke-linecap:square;stroke-width:0.8;"/>
     </g>
     <g id="line2d_12">
      <defs>
       <path d="M 0 0 
L -3.5 0 
" id="m69c24202bc" style="stroke:#000000;stroke-width:0.8;"/>
      </defs>
      <g>
       <use style="stroke:#000000;stroke-width:0.8;" x="90" xlink:href="#m69c24202bc" y="302.679273"/>
      </g>
     </g>
     <g id="text_7">
      <!-- 0 -->
      <g transform="translate(76.6375 306.478491)scale(0.1 -0.1)">
       <use xlink:href="#DejaVuSans-48"/>
      </g>
     </g>
    </g>
    <g id="ytick_2">
     <g id="line2d_13">
      <path clip-path="url(#p5d32a3f1b4)" d="M 90 260.406825 
L 648 260.406825 
" style="fill:none;stroke:#b0b0b0;stroke-linecap:square;stroke-width:0.8;"/>
     </g>
     <g id="line2d_14">
      <g>
       <use style="stroke:#000000;stroke-width:0.8;" x="90" xlink:href="#m69c24202bc" y="260.406825"/>
      </g>
     </g>
     <g id="text_8">
      <!-- 5000 -->
      <g transform="translate(57.55 264.206044)scale(0.1 -0.1)">
       <defs>
        <path d="M 10.796875 72.90625 
L 49.515625 72.90625 
L 49.515625 64.59375 
L 19.828125 64.59375 
L 19.828125 46.734375 
Q 21.96875 47.46875 24.109375 47.828125 
Q 26.265625 48.1875 28.421875 48.1875 
Q 40.625 48.1875 47.75 41.5 
Q 54.890625 34.8125 54.890625 23.390625 
Q 54.890625 11.625 47.5625 5.09375 
Q 40.234375 -1.421875 26.90625 -1.421875 
Q 22.3125 -1.421875 17.546875 -0.640625 
Q 12.796875 0.140625 7.71875 1.703125 
L 7.71875 11.625 
Q 12.109375 9.234375 16.796875 8.0625 
Q 21.484375 6.890625 26.703125 6.890625 
Q 35.15625 6.890625 40.078125 11.328125 
Q 45.015625 15.765625 45.015625 23.390625 
Q 45.015625 31 40.078125 35.4375 
Q 35.15625 39.890625 26.703125 39.890625 
Q 22.75 39.890625 18.8125 39.015625 
Q 14.890625 38.140625 10.796875 36.28125 
z
" id="DejaVuSans-53"/>
       </defs>
       <use xlink:href="#DejaVuSans-53"/>
       <use x="63.623047" xlink:href="#DejaVuSans-48"/>
       <use x="127.246094" xlink:href="#DejaVuSans-48"/>
       <use x="190.869141" xlink:href="#DejaVuSans-48"/>
      </g>
     </g>
    </g>
    <g id="ytick_3">
     <g id="line2d_15">
      <path clip-path="url(#p5d32a3f1b4)" d="M 90 218.134378 
L 648 218.134378 
" style="fill:none;stroke:#b0b0b0;stroke-linecap:square;stroke-width:0.8;"/>
     </g>
     <g id="line2d_16">
      <g>
       <use style="stroke:#000000;stroke-width:0.8;" x="90" xlink:href="#m69c24202bc" y="218.134378"/>
      </g>
     </g>
     <g id="text_9">
      <!-- 10000 -->
      <g transform="translate(51.1875 221.933597)scale(0.1 -0.1)">
       <use xlink:href="#DejaVuSans-49"/>
       <use x="63.623047" xlink:href="#DejaVuSans-48"/>
       <use x="127.246094" xlink:href="#DejaVuSans-48"/>
       <use x="190.869141" xlink:href="#DejaVuSans-48"/>
       <use x="254.492188" xlink:href="#DejaVuSans-48"/>
      </g>
     </g>
    </g>
    <g id="ytick_4">
     <g id="line2d_17">
      <path clip-path="url(#p5d32a3f1b4)" d="M 90 175.861931 
L 648 175.861931 
" style="fill:none;stroke:#b0b0b0;stroke-linecap:square;stroke-width:0.8;"/>
     </g>
     <g id="line2d_18">
      <g>
       <use style="stroke:#000000;stroke-width:0.8;" x="90" xlink:href="#m69c24202bc" y="175.861931"/>
      </g>
     </g>
     <g id="text_10">
      <!-- 15000 -->
      <g transform="translate(51.1875 179.661149)scale(0.1 -0.1)">
       <use xlink:href="#DejaVuSans-49"/>
       <use x="63.623047" xlink:href="#DejaVuSans-53"/>
       <use x="127.246094" xlink:href="#DejaVuSans-48"/>
       <use x="190.869141" xlink:href="#DejaVuSans-48"/>
       <use x="254.492188" xlink:href="#DejaVuSans-48"/>
      </g>
     </g>
    </g>
    <g id="ytick_5">
     <g id="line2d_19">
      <path clip-path="url(#p5d32a3f1b4)" d="M 90 133.589483 
L 648 133.589483 
" style="fill:none;stroke:#b0b0b0;stroke-linecap:square;stroke-width:0.8;"/>
     </g>
     <g id="line2d_20">
      <g>
       <use style="stroke:#000000;stroke-width:0.8;" x="90" xlink:href="#m69c24202bc" y="133.589483"/>
      </g>
     </g>
     <g id="text_11">
      <!-- 20000 -->
      <g transform="translate(51.1875 137.388702)scale(0.1 -0.1)">
       <use xlink:href="#DejaVuSans-50"/>
       <use x="63.623047" xlink:href="#DejaVuSans-48"/>
       <use x="127.246094" xlink:href="#DejaVuSans-48"/>
       <use x="190.869141" xlink:href="#DejaVuSans-48"/>
       <use x="254.492188" xlink:href="#DejaVuSans-48"/>
      </g>
     </g>
    </g>
    <g id="ytick_6">
     <g id="line2d_21">
      <path clip-path="url(#p5d32a3f1b4)" d="M 90 91.317036 
L 648 91.317036 
" style="fill:none;stroke:#b0b0b0;stroke-linecap:square;stroke-width:0.8;"/>
     </g>
     <g id="line2d_22">
      <g>
       <use style="stroke:#000000;stroke-width:0.8;" x="90" xlink:href="#m69c24202bc" y="91.317036"/>
      </g>
     </g>
     <g id="text_12">
      <!-- 25000 -->
      <g transform="translate(51.1875 95.116255)scale(0.1 -0.1)">
       <use xlink:href="#DejaVuSans-50"/>
       <use x="63.623047" xlink:href="#DejaVuSans-53"/>
       <use x="127.246094" xlink:href="#DejaVuSans-48"/>
       <use x="190.869141" xlink:href="#DejaVuSans-48"/>
       <use x="254.492188" xlink:href="#DejaVuSans-48"/>
      </g>
     </g>
    </g>
    <g id="ytick_7">
     <g id="line2d_23">
      <path clip-path="url(#p5d32a3f1b4)" d="M 90 49.044589 
L 648 49.044589 
" style="fill:none;stroke:#b0b0b0;stroke-linecap:square;stroke-width:0.8;"/>
     </g>
     <g id="line2d_24">
      <g>
       <use style="stroke:#000000;stroke-width:0.8;" x="90" xlink:href="#m69c24202bc" y="49.044589"/>
      </g>
     </g>
     <g id="text_13">
      <!-- 30000 -->
      <g transform="translate(51.1875 52.843807)scale(0.1 -0.1)">
       <use xlink:href="#DejaVuSans-51"/>
       <use x="63.623047" xlink:href="#DejaVuSans-48"/>
       <use x="127.246094" xlink:href="#DejaVuSans-48"/>
       <use x="190.869141" xlink:href="#DejaVuSans-48"/>
       <use x="254.492188" xlink:href="#DejaVuSans-48"/>
      </g>
     </g>
    </g>
    <g id="text_14">
     <!-- Total cases -->
     <g transform="translate(45.107812 206.464844)rotate(-90)scale(0.1 -0.1)">
      <defs>
       <path d="M -0.296875 72.90625 
L 61.375 72.90625 
L 61.375 64.59375 
L 35.5 64.59375 
L 35.5 0 
L 25.59375 0 
L 25.59375 64.59375 
L -0.296875 64.59375 
z
" id="DejaVuSans-84"/>
       <path d="M 30.609375 48.390625 
Q 23.390625 48.390625 19.1875 42.75 
Q 14.984375 37.109375 14.984375 27.296875 
Q 14.984375 17.484375 19.15625 11.84375 
Q 23.34375 6.203125 30.609375 6.203125 
Q 37.796875 6.203125 41.984375 11.859375 
Q 46.1875 17.53125 46.1875 27.296875 
Q 46.1875 37.015625 41.984375 42.703125 
Q 37.796875 48.390625 30.609375 48.390625 
z
M 30.609375 56 
Q 42.328125 56 49.015625 48.375 
Q 55.71875 40.765625 55.71875 27.296875 
Q 55.71875 13.875 49.015625 6.21875 
Q 42.328125 -1.421875 30.609375 -1.421875 
Q 18.84375 -1.421875 12.171875 6.21875 
Q 5.515625 13.875 5.515625 27.296875 
Q 5.515625 40.765625 12.171875 48.375 
Q 18.84375 56 30.609375 56 
z
" id="DejaVuSans-111"/>
       <path d="M 18.3125 70.21875 
L 18.3125 54.6875 
L 36.8125 54.6875 
L 36.8125 47.703125 
L 18.3125 47.703125 
L 18.3125 18.015625 
Q 18.3125 11.328125 20.140625 9.421875 
Q 21.96875 7.515625 27.59375 7.515625 
L 36.8125 7.515625 
L 36.8125 0 
L 27.59375 0 
Q 17.1875 0 13.234375 3.875 
Q 9.28125 7.765625 9.28125 18.015625 
L 9.28125 47.703125 
L 2.6875 47.703125 
L 2.6875 54.6875 
L 9.28125 54.6875 
L 9.28125 70.21875 
z
" id="DejaVuSans-116"/>
       <path d="M 9.421875 75.984375 
L 18.40625 75.984375 
L 18.40625 0 
L 9.421875 0 
z
" id="DejaVuSans-108"/>
       <path id="DejaVuSans-32"/>
       <path d="M 48.78125 52.59375 
L 48.78125 44.1875 
Q 44.96875 46.296875 41.140625 47.34375 
Q 37.3125 48.390625 33.40625 48.390625 
Q 24.65625 48.390625 19.8125 42.84375 
Q 14.984375 37.3125 14.984375 27.296875 
Q 14.984375 17.28125 19.8125 11.734375 
Q 24.65625 6.203125 33.40625 6.203125 
Q 37.3125 6.203125 41.140625 7.25 
Q 44.96875 8.296875 48.78125 10.40625 
L 48.78125 2.09375 
Q 45.015625 0.34375 40.984375 -0.53125 
Q 36.96875 -1.421875 32.421875 -1.421875 
Q 20.0625 -1.421875 12.78125 6.34375 
Q 5.515625 14.109375 5.515625 27.296875 
Q 5.515625 40.671875 12.859375 48.328125 
Q 20.21875 56 33.015625 56 
Q 37.15625 56 41.109375 55.140625 
Q 45.0625 54.296875 48.78125 52.59375 
z
" id="DejaVuSans-99"/>
       <path d="M 56.203125 29.59375 
L 56.203125 25.203125 
L 14.890625 25.203125 
Q 15.484375 15.921875 20.484375 11.0625 
Q 25.484375 6.203125 34.421875 6.203125 
Q 39.59375 6.203125 44.453125 7.46875 
Q 49.3125 8.734375 54.109375 11.28125 
L 54.109375 2.78125 
Q 49.265625 0.734375 44.1875 -0.34375 
Q 39.109375 -1.421875 33.890625 -1.421875 
Q 20.796875 -1.421875 13.15625 6.1875 
Q 5.515625 13.8125 5.515625 26.8125 
Q 5.515625 40.234375 12.765625 48.109375 
Q 20.015625 56 32.328125 56 
Q 43.359375 56 49.78125 48.890625 
Q 56.203125 41.796875 56.203125 29.59375 
z
M 47.21875 32.234375 
Q 47.125 39.59375 43.09375 43.984375 
Q 39.0625 48.390625 32.421875 48.390625 
Q 24.90625 48.390625 20.390625 44.140625 
Q 15.875 39.890625 15.1875 32.171875 
z
" id="DejaVuSans-101"/>
      </defs>
      <use xlink:href="#DejaVuSans-84"/>
      <use x="44.083984" xlink:href="#DejaVuSans-111"/>
      <use x="105.265625" xlink:href="#DejaVuSans-116"/>
      <use x="144.474609" xlink:href="#DejaVuSans-97"/>
      <use x="205.753906" xlink:href="#DejaVuSans-108"/>
      <use x="233.537109" xlink:href="#DejaVuSans-32"/>
      <use x="265.324219" xlink:href="#DejaVuSans-99"/>
      <use x="320.304688" xlink:href="#DejaVuSans-97"/>
      <use x="381.583984" xlink:href="#DejaVuSans-115"/>
      <use x="433.683594" xlink:href="#DejaVuSans-101"/>
      <use x="495.207031" xlink:href="#DejaVuSans-115"/>
     </g>
    </g>
   </g>
   <g id="line2d_25">
    <path clip-path="url(#p5d32a3f1b4)" d="M 115.363636 302.645455 
L 144.145068 302.552455 
L 157.336557 302.451001 
L 159.73501 302.349547 
L 162.133462 302.214276 
L 165.731141 302.036731 
L 170.528046 301.597098 
L 171.727273 300.988375 
L 174.125725 300.168289 
L 176.524178 298.857843 
L 180.121857 295.991771 
L 181.321083 293.624514 
L 182.520309 289.583268 
L 183.719536 288.458821 
L 184.918762 285.398296 
L 186.117988 282.692859 
L 187.317215 278.922157 
L 188.516441 276.106812 
L 189.715667 271.904931 
L 192.11412 265.809244 
L 193.313346 264.135255 
L 194.512573 261.573545 
L 195.711799 259.426104 
L 198.110251 255.756856 
L 199.309478 254.598591 
L 202.907157 251.867791 
L 206.504836 249.390625 
L 207.704062 249.289172 
L 208.903288 248.98481 
L 210.102515 248.443723 
L 212.500967 248.046362 
L 214.89942 247.150186 
L 216.098646 246.795097 
L 225.692456 245.856649 
L 226.891683 245.662196 
L 230.489362 245.374743 
L 240.083172 244.01357 
L 242.481625 243.751481 
L 244.880077 243.590846 
L 246.079304 243.337211 
L 249.676983 243.041304 
L 252.075435 242.889123 
L 262.868472 242.102855 
L 265.266925 241.874584 
L 274.860735 241.257407 
L 277.259188 241.181316 
L 284.454545 240.564138 
L 288.052224 240.03996 
L 289.251451 240.023051 
L 290.450677 239.600327 
L 292.84913 239.338237 
L 295.247582 238.780241 
L 296.446809 238.467425 
L 297.646035 238.416698 
L 300.044487 237.038616 
L 301.243714 236.446802 
L 303.642166 235.034902 
L 304.841393 234.48536 
L 307.239845 231.298018 
L 308.439072 230.114389 
L 309.638298 228.660217 
L 310.837524 227.552679 
L 312.03675 226.115416 
L 313.235977 223.426888 
L 314.435203 221.913535 
L 315.634429 219.850639 
L 316.833656 218.303468 
L 318.032882 216.012301 
L 319.232108 214.017041 
L 320.431335 211.286241 
L 321.630561 207.709992 
L 322.829787 205.951459 
L 324.029014 202.899388 
L 325.22824 200.642039 
L 326.427466 197.606877 
L 327.626692 193.667085 
L 328.825919 190.217654 
L 330.025145 187.740488 
L 331.224371 184.739144 
L 332.423598 180.909261 
L 333.622824 176.411472 
L 334.82205 173.30022 
L 336.021277 170.941418 
L 337.220503 164.888003 
L 338.419729 159.773037 
L 339.618956 156.585695 
L 340.818182 151.386184 
L 343.216634 144.326685 
L 344.415861 138.281725 
L 345.615087 134.519477 
L 346.814313 131.289862 
L 349.212766 124.424817 
L 351.611219 119.106943 
L 352.810445 115.606784 
L 354.009671 113.653797 
L 355.208897 110.407273 
L 356.408124 107.930108 
L 360.005803 101.690694 
L 361.205029 99.864525 
L 362.404255 97.776266 
L 363.603482 96.330548 
L 366.001934 92.914934 
L 367.201161 92.035667 
L 370.798839 88.59469 
L 371.998066 87.529425 
L 373.197292 86.69243 
L 374.396518 85.652528 
L 376.794971 84.392809 
L 377.994197 83.513542 
L 379.193424 82.448276 
L 380.39265 81.712736 
L 382.791103 80.512198 
L 385.189555 79.709022 
L 386.388781 78.931209 
L 387.588008 78.432394 
L 392.384913 77.01204 
L 394.783366 76.284954 
L 398.381044 75.380323 
L 400.779497 75.152052 
L 403.17795 74.644783 
L 405.576402 74.408057 
L 425.96325 71.998527 
L 429.560928 71.389804 
L 433.158607 71.110806 
L 435.55706 70.983989 
L 436.756286 70.662718 
L 449.947776 69.377636 
L 454.744681 69.081729 
L 457.143133 68.89573 
L 466.736944 68.396915 
L 467.93617 68.075644 
L 473.932302 67.593738 
L 478.729207 67.196377 
L 485.924565 66.697563 
L 499.116054 65.742205 
L 502.713733 65.547752 
L 506.311412 65.1673 
L 511.108317 64.102034 
L 519.502901 63.002951 
L 521.901354 62.529499 
L 523.10058 62.360409 
L 525.499033 61.861595 
L 529.096712 61.421961 
L 530.295938 61.337416 
L 531.495164 61.126054 
L 535.092843 60.762511 
L 537.491296 60.458149 
L 541.088975 60.128424 
L 543.487427 59.857881 
L 549.483559 59.528156 
L 597.452611 57.439897 
L 599.851064 57.253898 
L 602.249516 57.110172 
L 608.245648 56.552175 
L 611.843327 56.340813 
L 616.640232 55.875816 
L 621.437137 55.630636 
L 622.636364 55.554545 
L 622.636364 55.554545 
" style="fill:none;stroke:#1a1ae6;stroke-linecap:square;stroke-width:2;"/>
   </g>
   <g id="line2d_26">
    <path clip-path="url(#p5d32a3f1b4)" d="M 122.558994 302.577819 
L 123.769223 302.577819 
L 124.979451 302.577819 
L 126.189679 302.569364 
L 127.399908 302.569364 
L 128.610136 302.56091 
L 129.820364 302.552455 
L 131.030593 302.552455 
L 132.240821 302.552455 
L 133.45105 302.552455 
L 134.661278 302.552455 
L 135.871506 302.552455 
L 137.081735 302.552455 
L 138.291963 302.552455 
L 139.502192 302.552455 
L 140.71242 302.552455 
L 141.922648 302.552455 
L 143.132877 302.552455 
L 144.343105 302.552455 
L 145.553333 302.552455 
L 146.763562 302.552455 
L 147.97379 302.552455 
L 149.184019 302.552455 
L 150.394247 302.552455 
L 151.604475 302.552455 
L 152.814704 302.552455 
L 154.024932 302.552455 
L 155.235161 302.552455 
L 156.445389 302.46791 
L 157.655617 302.451001 
L 158.865846 302.425638 
L 160.076074 302.349547 
L 161.286302 302.239639 
L 162.496531 302.214276 
L 163.706759 302.172003 
L 164.916988 302.14664 
L 166.127216 302.036731 
L 167.337444 301.909914 
L 168.547673 301.774642 
L 169.757901 301.597098 
L 170.968129 301.597098 
L 172.178358 300.988375 
L 173.388586 300.56565 
L 174.598815 300.168289 
L 175.809043 299.49193 
L 177.019271 298.857843 
L 178.2295 297.877122 
L 179.439728 296.921765 
L 180.649957 295.991771 
L 181.860185 293.624514 
L 183.070413 289.583268 
L 184.280642 288.458821 
L 185.49087 285.398296 
L 186.701098 282.692859 
L 187.911327 278.922157 
L 189.121555 276.106812 
L 190.331784 271.904931 
L 191.542012 268.996586 
L 192.75224 265.809244 
L 193.962469 264.135255 
L 195.172697 261.573545 
L 196.382925 259.426104 
L 197.593154 257.616844 
L 198.803382 255.756856 
L 200.013611 254.598591 
L 201.223839 253.668597 
L 202.434067 252.840057 
L 203.644296 251.867791 
L 204.854524 251.039251 
L 206.064753 250.13462 
L 207.274981 249.390625 
L 208.485209 249.289172 
L 209.695438 248.98481 
L 210.905666 248.443723 
L 212.115894 248.23236 
L 213.326123 248.046362 
L 214.536351 247.539092 
L 215.74658 247.150186 
L 216.956808 246.795097 
L 218.167036 246.685189 
L 219.377265 246.49919 
L 220.587493 246.440009 
L 221.797722 246.355464 
L 223.00795 246.228646 
L 224.218178 246.08492 
L 225.428407 245.91583 
L 226.638635 245.856649 
L 227.848863 245.662196 
L 229.059092 245.59456 
L 230.26932 245.476197 
L 231.479549 245.374743 
L 232.689777 245.197199 
L 233.900005 245.002745 
L 235.110234 244.791383 
L 236.320462 244.554657 
L 237.53069 244.394022 
L 238.740919 244.233387 
L 239.951147 244.191114 
L 241.161376 244.01357 
L 242.371604 243.93748 
L 243.581832 243.751481 
L 244.792061 243.666936 
L 246.002289 243.590846 
L 247.212518 243.337211 
L 248.422746 243.201939 
L 249.632974 243.125849 
L 250.843203 243.041304 
L 252.053431 242.922941 
L 253.263659 242.889123 
L 254.473888 242.813033 
" style="fill:none;stroke:#e61a1a;stroke-linecap:square;stroke-width:6;"/>
   </g>
   <g id="patch_3">
    <path d="M 90 315 
L 90 43.2 
" style="fill:none;stroke:#000000;stroke-linecap:square;stroke-linejoin:miter;stroke-width:0.8;"/>
   </g>
   <g id="patch_4">
    <path d="M 648 315 
L 648 43.2 
" style="fill:none;stroke:#000000;stroke-linecap:square;stroke-linejoin:miter;stroke-width:0.8;"/>
   </g>
   <g id="patch_5">
    <path d="M 90 315 
L 648 315 
" style="fill:none;stroke:#000000;stroke-linecap:square;stroke-linejoin:miter;stroke-width:0.8;"/>
   </g>
   <g id="patch_6">
    <path d="M 90 43.2 
L 648 43.2 
" style="fill:none;stroke:#000000;stroke-linecap:square;stroke-linejoin:miter;stroke-width:0.8;"/>
   </g>
   <g id="text_15">
    <!-- Australia -->
    <g transform="translate(342.46125 37.2)scale(0.12 -0.12)">
     <defs>
      <path d="M 34.1875 63.1875 
L 20.796875 26.90625 
L 47.609375 26.90625 
z
M 28.609375 72.90625 
L 39.796875 72.90625 
L 67.578125 0 
L 57.328125 0 
L 50.6875 18.703125 
L 17.828125 18.703125 
L 11.1875 0 
L 0.78125 0 
z
" id="DejaVuSans-65"/>
      <path d="M 8.5 21.578125 
L 8.5 54.6875 
L 17.484375 54.6875 
L 17.484375 21.921875 
Q 17.484375 14.15625 20.5 10.265625 
Q 23.53125 6.390625 29.59375 6.390625 
Q 36.859375 6.390625 41.078125 11.03125 
Q 45.3125 15.671875 45.3125 23.6875 
L 45.3125 54.6875 
L 54.296875 54.6875 
L 54.296875 0 
L 45.3125 0 
L 45.3125 8.40625 
Q 42.046875 3.421875 37.71875 1 
Q 33.40625 -1.421875 27.6875 -1.421875 
Q 18.265625 -1.421875 13.375 4.4375 
Q 8.5 10.296875 8.5 21.578125 
z
M 31.109375 56 
z
" id="DejaVuSans-117"/>
      <path d="M 41.109375 46.296875 
Q 39.59375 47.171875 37.8125 47.578125 
Q 36.03125 48 33.890625 48 
Q 26.265625 48 22.1875 43.046875 
Q 18.109375 38.09375 18.109375 28.8125 
L 18.109375 0 
L 9.078125 0 
L 9.078125 54.6875 
L 18.109375 54.6875 
L 18.109375 46.1875 
Q 20.953125 51.171875 25.484375 53.578125 
Q 30.03125 56 36.53125 56 
Q 37.453125 56 38.578125 55.875 
Q 39.703125 55.765625 41.0625 55.515625 
z
" id="DejaVuSans-114"/>
      <path d="M 9.421875 54.6875 
L 18.40625 54.6875 
L 18.40625 0 
L 9.421875 0 
z
M 9.421875 75.984375 
L 18.40625 75.984375 
L 18.40625 64.59375 
L 9.421875 64.59375 
z
" id="DejaVuSans-105"/>
     </defs>
     <use xlink:href="#DejaVuSans-65"/>
     <use x="68.408203" xlink:href="#DejaVuSans-117"/>
     <use x="131.787109" xlink:href="#DejaVuSans-115"/>
     <use x="183.886719" xlink:href="#DejaVuSans-116"/>
     <use x="223.095703" xlink:href="#DejaVuSans-114"/>
     <use x="264.208984" xlink:href="#DejaVuSans-97"/>
     <use x="325.488281" xlink:href="#DejaVuSans-108"/>
     <use x="353.271484" xlink:href="#DejaVuSans-105"/>
     <use x="381.054688" xlink:href="#DejaVuSans-97"/>
    </g>
   </g>
  </g>
 </g>
 <defs>
  <clipPath id="p5d32a3f1b4">
   <rect height="271.8" width="558" x="90" y="43.2"/>
  </clipPath>
 </defs>
</svg>
