<?xml version="1.0" encoding="utf-8" standalone="no"?>
<!DOCTYPE svg PUBLIC "-//W3C//DTD SVG 1.1//EN"
  "http://www.w3.org/Graphics/SVG/1.1/DTD/svg11.dtd">
<!-- Created with matplotlib (https://matplotlib.org/) -->
<svg height="720pt" version="1.1" viewBox="0 0 720 720" width="720pt" xmlns="http://www.w3.org/2000/svg" xmlns:xlink="http://www.w3.org/1999/xlink">
 <metadata>
  <rdf:RDF xmlns:cc="http://creativecommons.org/ns#" xmlns:dc="http://purl.org/dc/elements/1.1/" xmlns:rdf="http://www.w3.org/1999/02/22-rdf-syntax-ns#">
   <cc:Work>
    <dc:type rdf:resource="http://purl.org/dc/dcmitype/StillImage"/>
    <dc:date>2022-07-13T18:54:16.003874</dc:date>
    <dc:format>image/svg+xml</dc:format>
    <dc:creator>
     <cc:Agent>
      <dc:title>Matplotlib v3.3.2, https://matplotlib.org/</dc:title>
     </cc:Agent>
    </dc:creator>
   </cc:Work>
  </rdf:RDF>
 </metadata>
 <defs>
  <style type="text/css">*{stroke-linecap:butt;stroke-linejoin:round;}</style>
 </defs>
 <g id="figure_1">
  <g id="patch_1">
   <path d="M 0 720 
L 720 720 
L 720 0 
L 0 0 
z
" style="fill:none;"/>
  </g>
  <g id="axes_1">
   <g id="patch_2">
    <path d="M 90 630 
L 648 630 
L 648 86.4 
L 90 86.4 
z
" style="fill:#ffffff;"/>
   </g>
   <g id="matplotlib.axis_1">
    <g id="xtick_1">
     <g id="line2d_1">
      <path clip-path="url(#pfe72dd1027)" d="M 115.363636 630 
L 115.363636 86.4 
" style="fill:none;stroke:#b0b0b0;stroke-linecap:square;stroke-width:0.8;"/>
     </g>
     <g id="line2d_2">
      <defs>
       <path d="M 0 0 
L 0 3.5 
" id="md35f64a853" style="stroke:#000000;stroke-width:0.8;"/>
      </defs>
      <g>
       <use style="stroke:#000000;stroke-width:0.8;" x="115.363636" xlink:href="#md35f64a853" y="630"/>
      </g>
     </g>
     <g id="text_1">
      <!-- 0 -->
      <g transform="translate(112.182386 644.598438)scale(0.1 -0.1)">
       <defs>
        <path d="M 31.78125 66.40625 
Q 24.171875 66.40625 20.328125 58.90625 
Q 16.5 51.421875 16.5 36.375 
Q 16.5 21.390625 20.328125 13.890625 
Q 24.171875 6.390625 31.78125 6.390625 
Q 39.453125 6.390625 43.28125 13.890625 
Q 47.125 21.390625 47.125 36.375 
Q 47.125 51.421875 43.28125 58.90625 
Q 39.453125 66.40625 31.78125 66.40625 
z
M 31.78125 74.21875 
Q 44.046875 74.21875 50.515625 64.515625 
Q 56.984375 54.828125 56.984375 36.375 
Q 56.984375 17.96875 50.515625 8.265625 
Q 44.046875 -1.421875 31.78125 -1.421875 
Q 19.53125 -1.421875 13.0625 8.265625 
Q 6.59375 17.96875 6.59375 36.375 
Q 6.59375 54.828125 13.0625 64.515625 
Q 19.53125 74.21875 31.78125 74.21875 
z
" id="DejaVuSans-48"/>
       </defs>
       <use xlink:href="#DejaVuSans-48"/>
      </g>
     </g>
    </g>
    <g id="xtick_2">
     <g id="line2d_3">
      <path clip-path="url(#pfe72dd1027)" d="M 183.914005 630 
L 183.914005 86.4 
" style="fill:none;stroke:#b0b0b0;stroke-linecap:square;stroke-width:0.8;"/>
     </g>
     <g id="line2d_4">
      <g>
       <use style="stroke:#000000;stroke-width:0.8;" x="183.914005" xlink:href="#md35f64a853" y="630"/>
      </g>
     </g>
     <g id="text_2">
      <!-- 20 -->
      <g transform="translate(177.551505 644.598438)scale(0.1 -0.1)">
       <defs>
        <path d="M 19.1875 8.296875 
L 53.609375 8.296875 
L 53.609375 0 
L 7.328125 0 
L 7.328125 8.296875 
Q 12.9375 14.109375 22.625 23.890625 
Q 32.328125 33.6875 34.8125 36.53125 
Q 39.546875 41.84375 41.421875 45.53125 
Q 43.3125 49.21875 43.3125 52.78125 
Q 43.3125 58.59375 39.234375 62.25 
Q 35.15625 65.921875 28.609375 65.921875 
Q 23.96875 65.921875 18.8125 64.3125 
Q 13.671875 62.703125 7.8125 59.421875 
L 7.8125 69.390625 
Q 13.765625 71.78125 18.9375 73 
Q 24.125 74.21875 28.421875 74.21875 
Q 39.75 74.21875 46.484375 68.546875 
Q 53.21875 62.890625 53.21875 53.421875 
Q 53.21875 48.921875 51.53125 44.890625 
Q 49.859375 40.875 45.40625 35.40625 
Q 44.1875 33.984375 37.640625 27.21875 
Q 31.109375 20.453125 19.1875 8.296875 
z
" id="DejaVuSans-50"/>
       </defs>
       <use xlink:href="#DejaVuSans-50"/>
       <use x="63.623047" xlink:href="#DejaVuSans-48"/>
      </g>
     </g>
    </g>
    <g id="xtick_3">
     <g id="line2d_5">
      <path clip-path="url(#pfe72dd1027)" d="M 252.464373 630 
L 252.464373 86.4 
" style="fill:none;stroke:#b0b0b0;stroke-linecap:square;stroke-width:0.8;"/>
     </g>
     <g id="line2d_6">
      <g>
       <use style="stroke:#000000;stroke-width:0.8;" x="252.464373" xlink:href="#md35f64a853" y="630"/>
      </g>
     </g>
     <g id="text_3">
      <!-- 40 -->
      <g transform="translate(246.101873 644.598438)scale(0.1 -0.1)">
       <defs>
        <path d="M 37.796875 64.3125 
L 12.890625 25.390625 
L 37.796875 25.390625 
z
M 35.203125 72.90625 
L 47.609375 72.90625 
L 47.609375 25.390625 
L 58.015625 25.390625 
L 58.015625 17.1875 
L 47.609375 17.1875 
L 47.609375 0 
L 37.796875 0 
L 37.796875 17.1875 
L 4.890625 17.1875 
L 4.890625 26.703125 
z
" id="DejaVuSans-52"/>
       </defs>
       <use xlink:href="#DejaVuSans-52"/>
       <use x="63.623047" xlink:href="#DejaVuSans-48"/>
      </g>
     </g>
    </g>
    <g id="xtick_4">
     <g id="line2d_7">
      <path clip-path="url(#pfe72dd1027)" d="M 321.014742 630 
L 321.014742 86.4 
" style="fill:none;stroke:#b0b0b0;stroke-linecap:square;stroke-width:0.8;"/>
     </g>
     <g id="line2d_8">
      <g>
       <use style="stroke:#000000;stroke-width:0.8;" x="321.014742" xlink:href="#md35f64a853" y="630"/>
      </g>
     </g>
     <g id="text_4">
      <!-- 60 -->
      <g transform="translate(314.652242 644.598438)scale(0.1 -0.1)">
       <defs>
        <path d="M 33.015625 40.375 
Q 26.375 40.375 22.484375 35.828125 
Q 18.609375 31.296875 18.609375 23.390625 
Q 18.609375 15.53125 22.484375 10.953125 
Q 26.375 6.390625 33.015625 6.390625 
Q 39.65625 6.390625 43.53125 10.953125 
Q 47.40625 15.53125 47.40625 23.390625 
Q 47.40625 31.296875 43.53125 35.828125 
Q 39.65625 40.375 33.015625 40.375 
z
M 52.59375 71.296875 
L 52.59375 62.3125 
Q 48.875 64.0625 45.09375 64.984375 
Q 41.3125 65.921875 37.59375 65.921875 
Q 27.828125 65.921875 22.671875 59.328125 
Q 17.53125 52.734375 16.796875 39.40625 
Q 19.671875 43.65625 24.015625 45.921875 
Q 28.375 48.1875 33.59375 48.1875 
Q 44.578125 48.1875 50.953125 41.515625 
Q 57.328125 34.859375 57.328125 23.390625 
Q 57.328125 12.15625 50.6875 5.359375 
Q 44.046875 -1.421875 33.015625 -1.421875 
Q 20.359375 -1.421875 13.671875 8.265625 
Q 6.984375 17.96875 6.984375 36.375 
Q 6.984375 53.65625 15.1875 63.9375 
Q 23.390625 74.21875 37.203125 74.21875 
Q 40.921875 74.21875 44.703125 73.484375 
Q 48.484375 72.75 52.59375 71.296875 
z
" id="DejaVuSans-54"/>
       </defs>
       <use xlink:href="#DejaVuSans-54"/>
       <use x="63.623047" xlink:href="#DejaVuSans-48"/>
      </g>
     </g>
    </g>
    <g id="xtick_5">
     <g id="line2d_9">
      <path clip-path="url(#pfe72dd1027)" d="M 389.565111 630 
L 389.565111 86.4 
" style="fill:none;stroke:#b0b0b0;stroke-linecap:square;stroke-width:0.8;"/>
     </g>
     <g id="line2d_10">
      <g>
       <use style="stroke:#000000;stroke-width:0.8;" x="389.565111" xlink:href="#md35f64a853" y="630"/>
      </g>
     </g>
     <g id="text_5">
      <!-- 80 -->
      <g transform="translate(383.202611 644.598438)scale(0.1 -0.1)">
       <defs>
        <path d="M 31.78125 34.625 
Q 24.75 34.625 20.71875 30.859375 
Q 16.703125 27.09375 16.703125 20.515625 
Q 16.703125 13.921875 20.71875 10.15625 
Q 24.75 6.390625 31.78125 6.390625 
Q 38.8125 6.390625 42.859375 10.171875 
Q 46.921875 13.96875 46.921875 20.515625 
Q 46.921875 27.09375 42.890625 30.859375 
Q 38.875 34.625 31.78125 34.625 
z
M 21.921875 38.8125 
Q 15.578125 40.375 12.03125 44.71875 
Q 8.5 49.078125 8.5 55.328125 
Q 8.5 64.0625 14.71875 69.140625 
Q 20.953125 74.21875 31.78125 74.21875 
Q 42.671875 74.21875 48.875 69.140625 
Q 55.078125 64.0625 55.078125 55.328125 
Q 55.078125 49.078125 51.53125 44.71875 
Q 48 40.375 41.703125 38.8125 
Q 48.828125 37.15625 52.796875 32.3125 
Q 56.78125 27.484375 56.78125 20.515625 
Q 56.78125 9.90625 50.3125 4.234375 
Q 43.84375 -1.421875 31.78125 -1.421875 
Q 19.734375 -1.421875 13.25 4.234375 
Q 6.78125 9.90625 6.78125 20.515625 
Q 6.78125 27.484375 10.78125 32.3125 
Q 14.796875 37.15625 21.921875 38.8125 
z
M 18.3125 54.390625 
Q 18.3125 48.734375 21.84375 45.5625 
Q 25.390625 42.390625 31.78125 42.390625 
Q 38.140625 42.390625 41.71875 45.5625 
Q 45.3125 48.734375 45.3125 54.390625 
Q 45.3125 60.0625 41.71875 63.234375 
Q 38.140625 66.40625 31.78125 66.40625 
Q 25.390625 66.40625 21.84375 63.234375 
Q 18.3125 60.0625 18.3125 54.390625 
z
" id="DejaVuSans-56"/>
       </defs>
       <use xlink:href="#DejaVuSans-56"/>
       <use x="63.623047" xlink:href="#DejaVuSans-48"/>
      </g>
     </g>
    </g>
    <g id="xtick_6">
     <g id="line2d_11">
      <path clip-path="url(#pfe72dd1027)" d="M 458.115479 630 
L 458.115479 86.4 
" style="fill:none;stroke:#b0b0b0;stroke-linecap:square;stroke-width:0.8;"/>
     </g>
     <g id="line2d_12">
      <g>
       <use style="stroke:#000000;stroke-width:0.8;" x="458.115479" xlink:href="#md35f64a853" y="630"/>
      </g>
     </g>
     <g id="text_6">
      <!-- 100 -->
      <g transform="translate(448.571729 644.598438)scale(0.1 -0.1)">
       <defs>
        <path d="M 12.40625 8.296875 
L 28.515625 8.296875 
L 28.515625 63.921875 
L 10.984375 60.40625 
L 10.984375 69.390625 
L 28.421875 72.90625 
L 38.28125 72.90625 
L 38.28125 8.296875 
L 54.390625 8.296875 
L 54.390625 0 
L 12.40625 0 
z
" id="DejaVuSans-49"/>
       </defs>
       <use xlink:href="#DejaVuSans-49"/>
       <use x="63.623047" xlink:href="#DejaVuSans-48"/>
       <use x="127.246094" xlink:href="#DejaVuSans-48"/>
      </g>
     </g>
    </g>
    <g id="xtick_7">
     <g id="line2d_13">
      <path clip-path="url(#pfe72dd1027)" d="M 526.665848 630 
L 526.665848 86.4 
" style="fill:none;stroke:#b0b0b0;stroke-linecap:square;stroke-width:0.8;"/>
     </g>
     <g id="line2d_14">
      <g>
       <use style="stroke:#000000;stroke-width:0.8;" x="526.665848" xlink:href="#md35f64a853" y="630"/>
      </g>
     </g>
     <g id="text_7">
      <!-- 120 -->
      <g transform="translate(517.122098 644.598438)scale(0.1 -0.1)">
       <use xlink:href="#DejaVuSans-49"/>
       <use x="63.623047" xlink:href="#DejaVuSans-50"/>
       <use x="127.246094" xlink:href="#DejaVuSans-48"/>
      </g>
     </g>
    </g>
    <g id="xtick_8">
     <g id="line2d_15">
      <path clip-path="url(#pfe72dd1027)" d="M 595.216216 630 
L 595.216216 86.4 
" style="fill:none;stroke:#b0b0b0;stroke-linecap:square;stroke-width:0.8;"/>
     </g>
     <g id="line2d_16">
      <g>
       <use style="stroke:#000000;stroke-width:0.8;" x="595.216216" xlink:href="#md35f64a853" y="630"/>
      </g>
     </g>
     <g id="text_8">
      <!-- 140 -->
      <g transform="translate(585.672466 644.598438)scale(0.1 -0.1)">
       <use xlink:href="#DejaVuSans-49"/>
       <use x="63.623047" xlink:href="#DejaVuSans-52"/>
       <use x="127.246094" xlink:href="#DejaVuSans-48"/>
      </g>
     </g>
    </g>
    <g id="text_9">
     <!-- Days -->
     <g transform="translate(356.521875 658.276562)scale(0.1 -0.1)">
      <defs>
       <path d="M 19.671875 64.796875 
L 19.671875 8.109375 
L 31.59375 8.109375 
Q 46.6875 8.109375 53.6875 14.9375 
Q 60.6875 21.78125 60.6875 36.53125 
Q 60.6875 51.171875 53.6875 57.984375 
Q 46.6875 64.796875 31.59375 64.796875 
z
M 9.8125 72.90625 
L 30.078125 72.90625 
Q 51.265625 72.90625 61.171875 64.09375 
Q 71.09375 55.28125 71.09375 36.53125 
Q 71.09375 17.671875 61.125 8.828125 
Q 51.171875 0 30.078125 0 
L 9.8125 0 
z
" id="DejaVuSans-68"/>
       <path d="M 34.28125 27.484375 
Q 23.390625 27.484375 19.1875 25 
Q 14.984375 22.515625 14.984375 16.5 
Q 14.984375 11.71875 18.140625 8.90625 
Q 21.296875 6.109375 26.703125 6.109375 
Q 34.1875 6.109375 38.703125 11.40625 
Q 43.21875 16.703125 43.21875 25.484375 
L 43.21875 27.484375 
z
M 52.203125 31.203125 
L 52.203125 0 
L 43.21875 0 
L 43.21875 8.296875 
Q 40.140625 3.328125 35.546875 0.953125 
Q 30.953125 -1.421875 24.3125 -1.421875 
Q 15.921875 -1.421875 10.953125 3.296875 
Q 6 8.015625 6 15.921875 
Q 6 25.140625 12.171875 29.828125 
Q 18.359375 34.515625 30.609375 34.515625 
L 43.21875 34.515625 
L 43.21875 35.40625 
Q 43.21875 41.609375 39.140625 45 
Q 35.0625 48.390625 27.6875 48.390625 
Q 23 48.390625 18.546875 47.265625 
Q 14.109375 46.140625 10.015625 43.890625 
L 10.015625 52.203125 
Q 14.9375 54.109375 19.578125 55.046875 
Q 24.21875 56 28.609375 56 
Q 40.484375 56 46.34375 49.84375 
Q 52.203125 43.703125 52.203125 31.203125 
z
" id="DejaVuSans-97"/>
       <path d="M 32.171875 -5.078125 
Q 28.375 -14.84375 24.75 -17.8125 
Q 21.140625 -20.796875 15.09375 -20.796875 
L 7.90625 -20.796875 
L 7.90625 -13.28125 
L 13.1875 -13.28125 
Q 16.890625 -13.28125 18.9375 -11.515625 
Q 21 -9.765625 23.484375 -3.21875 
L 25.09375 0.875 
L 2.984375 54.6875 
L 12.5 54.6875 
L 29.59375 11.921875 
L 46.6875 54.6875 
L 56.203125 54.6875 
z
" id="DejaVuSans-121"/>
       <path d="M 44.28125 53.078125 
L 44.28125 44.578125 
Q 40.484375 46.53125 36.375 47.5 
Q 32.28125 48.484375 27.875 48.484375 
Q 21.1875 48.484375 17.84375 46.4375 
Q 14.5 44.390625 14.5 40.28125 
Q 14.5 37.15625 16.890625 35.375 
Q 19.28125 33.59375 26.515625 31.984375 
L 29.59375 31.296875 
Q 39.15625 29.25 43.1875 25.515625 
Q 47.21875 21.78125 47.21875 15.09375 
Q 47.21875 7.46875 41.1875 3.015625 
Q 35.15625 -1.421875 24.609375 -1.421875 
Q 20.21875 -1.421875 15.453125 -0.5625 
Q 10.6875 0.296875 5.421875 2 
L 5.421875 11.28125 
Q 10.40625 8.6875 15.234375 7.390625 
Q 20.0625 6.109375 24.8125 6.109375 
Q 31.15625 6.109375 34.5625 8.28125 
Q 37.984375 10.453125 37.984375 14.40625 
Q 37.984375 18.0625 35.515625 20.015625 
Q 33.0625 21.96875 24.703125 23.78125 
L 21.578125 24.515625 
Q 13.234375 26.265625 9.515625 29.90625 
Q 5.8125 33.546875 5.8125 39.890625 
Q 5.8125 47.609375 11.28125 51.796875 
Q 16.75 56 26.8125 56 
Q 31.78125 56 36.171875 55.265625 
Q 40.578125 54.546875 44.28125 53.078125 
z
" id="DejaVuSans-115"/>
      </defs>
      <use xlink:href="#DejaVuSans-68"/>
      <use x="77.001953" xlink:href="#DejaVuSans-97"/>
      <use x="138.28125" xlink:href="#DejaVuSans-121"/>
      <use x="197.460938" xlink:href="#DejaVuSans-115"/>
     </g>
    </g>
   </g>
   <g id="matplotlib.axis_2">
    <g id="ytick_1">
     <g id="line2d_17">
      <path clip-path="url(#pfe72dd1027)" d="M 90 607.304821 
L 648 607.304821 
" style="fill:none;stroke:#b0b0b0;stroke-linecap:square;stroke-width:0.8;"/>
     </g>
     <g id="line2d_18">
      <defs>
       <path d="M 0 0 
L -3.5 0 
" id="m7bf61a5d07" style="stroke:#000000;stroke-width:0.8;"/>
      </defs>
      <g>
       <use style="stroke:#000000;stroke-width:0.8;" x="90" xlink:href="#m7bf61a5d07" y="607.304821"/>
      </g>
     </g>
     <g id="text_10">
      <!-- 0 -->
      <g transform="translate(76.6375 611.104039)scale(0.1 -0.1)">
       <use xlink:href="#DejaVuSans-48"/>
      </g>
     </g>
    </g>
    <g id="ytick_2">
     <g id="line2d_19">
      <path clip-path="url(#pfe72dd1027)" d="M 90 535.379408 
L 648 535.379408 
" style="fill:none;stroke:#b0b0b0;stroke-linecap:square;stroke-width:0.8;"/>
     </g>
     <g id="line2d_20">
      <g>
       <use style="stroke:#000000;stroke-width:0.8;" x="90" xlink:href="#m7bf61a5d07" y="535.379408"/>
      </g>
     </g>
     <g id="text_11">
      <!-- 500 -->
      <g transform="translate(63.9125 539.178626)scale(0.1 -0.1)">
       <defs>
        <path d="M 10.796875 72.90625 
L 49.515625 72.90625 
L 49.515625 64.59375 
L 19.828125 64.59375 
L 19.828125 46.734375 
Q 21.96875 47.46875 24.109375 47.828125 
Q 26.265625 48.1875 28.421875 48.1875 
Q 40.625 48.1875 47.75 41.5 
Q 54.890625 34.8125 54.890625 23.390625 
Q 54.890625 11.625 47.5625 5.09375 
Q 40.234375 -1.421875 26.90625 -1.421875 
Q 22.3125 -1.421875 17.546875 -0.640625 
Q 12.796875 0.140625 7.71875 1.703125 
L 7.71875 11.625 
Q 12.109375 9.234375 16.796875 8.0625 
Q 21.484375 6.890625 26.703125 6.890625 
Q 35.15625 6.890625 40.078125 11.328125 
Q 45.015625 15.765625 45.015625 23.390625 
Q 45.015625 31 40.078125 35.4375 
Q 35.15625 39.890625 26.703125 39.890625 
Q 22.75 39.890625 18.8125 39.015625 
Q 14.890625 38.140625 10.796875 36.28125 
z
" id="DejaVuSans-53"/>
       </defs>
       <use xlink:href="#DejaVuSans-53"/>
       <use x="63.623047" xlink:href="#DejaVuSans-48"/>
       <use x="127.246094" xlink:href="#DejaVuSans-48"/>
      </g>
     </g>
    </g>
    <g id="ytick_3">
     <g id="line2d_21">
      <path clip-path="url(#pfe72dd1027)" d="M 90 463.453995 
L 648 463.453995 
" style="fill:none;stroke:#b0b0b0;stroke-linecap:square;stroke-width:0.8;"/>
     </g>
     <g id="line2d_22">
      <g>
       <use style="stroke:#000000;stroke-width:0.8;" x="90" xlink:href="#m7bf61a5d07" y="463.453995"/>
      </g>
     </g>
     <g id="text_12">
      <!-- 1000 -->
      <g transform="translate(57.55 467.253214)scale(0.1 -0.1)">
       <use xlink:href="#DejaVuSans-49"/>
       <use x="63.623047" xlink:href="#DejaVuSans-48"/>
       <use x="127.246094" xlink:href="#DejaVuSans-48"/>
       <use x="190.869141" xlink:href="#DejaVuSans-48"/>
      </g>
     </g>
    </g>
    <g id="ytick_4">
     <g id="line2d_23">
      <path clip-path="url(#pfe72dd1027)" d="M 90 391.528582 
L 648 391.528582 
" style="fill:none;stroke:#b0b0b0;stroke-linecap:square;stroke-width:0.8;"/>
     </g>
     <g id="line2d_24">
      <g>
       <use style="stroke:#000000;stroke-width:0.8;" x="90" xlink:href="#m7bf61a5d07" y="391.528582"/>
      </g>
     </g>
     <g id="text_13">
      <!-- 1500 -->
      <g transform="translate(57.55 395.327801)scale(0.1 -0.1)">
       <use xlink:href="#DejaVuSans-49"/>
       <use x="63.623047" xlink:href="#DejaVuSans-53"/>
       <use x="127.246094" xlink:href="#DejaVuSans-48"/>
       <use x="190.869141" xlink:href="#DejaVuSans-48"/>
      </g>
     </g>
    </g>
    <g id="ytick_5">
     <g id="line2d_25">
      <path clip-path="url(#pfe72dd1027)" d="M 90 319.603169 
L 648 319.603169 
" style="fill:none;stroke:#b0b0b0;stroke-linecap:square;stroke-width:0.8;"/>
     </g>
     <g id="line2d_26">
      <g>
       <use style="stroke:#000000;stroke-width:0.8;" x="90" xlink:href="#m7bf61a5d07" y="319.603169"/>
      </g>
     </g>
     <g id="text_14">
      <!-- 2000 -->
      <g transform="translate(57.55 323.402388)scale(0.1 -0.1)">
       <use xlink:href="#DejaVuSans-50"/>
       <use x="63.623047" xlink:href="#DejaVuSans-48"/>
       <use x="127.246094" xlink:href="#DejaVuSans-48"/>
       <use x="190.869141" xlink:href="#DejaVuSans-48"/>
      </g>
     </g>
    </g>
    <g id="ytick_6">
     <g id="line2d_27">
      <path clip-path="url(#pfe72dd1027)" d="M 90 247.677756 
L 648 247.677756 
" style="fill:none;stroke:#b0b0b0;stroke-linecap:square;stroke-width:0.8;"/>
     </g>
     <g id="line2d_28">
      <g>
       <use style="stroke:#000000;stroke-width:0.8;" x="90" xlink:href="#m7bf61a5d07" y="247.677756"/>
      </g>
     </g>
     <g id="text_15">
      <!-- 2500 -->
      <g transform="translate(57.55 251.476975)scale(0.1 -0.1)">
       <use xlink:href="#DejaVuSans-50"/>
       <use x="63.623047" xlink:href="#DejaVuSans-53"/>
       <use x="127.246094" xlink:href="#DejaVuSans-48"/>
       <use x="190.869141" xlink:href="#DejaVuSans-48"/>
      </g>
     </g>
    </g>
    <g id="ytick_7">
     <g id="line2d_29">
      <path clip-path="url(#pfe72dd1027)" d="M 90 175.752343 
L 648 175.752343 
" style="fill:none;stroke:#b0b0b0;stroke-linecap:square;stroke-width:0.8;"/>
     </g>
     <g id="line2d_30">
      <g>
       <use style="stroke:#000000;stroke-width:0.8;" x="90" xlink:href="#m7bf61a5d07" y="175.752343"/>
      </g>
     </g>
     <g id="text_16">
      <!-- 3000 -->
      <g transform="translate(57.55 179.551562)scale(0.1 -0.1)">
       <defs>
        <path d="M 40.578125 39.3125 
Q 47.65625 37.796875 51.625 33 
Q 55.609375 28.21875 55.609375 21.1875 
Q 55.609375 10.40625 48.1875 4.484375 
Q 40.765625 -1.421875 27.09375 -1.421875 
Q 22.515625 -1.421875 17.65625 -0.515625 
Q 12.796875 0.390625 7.625 2.203125 
L 7.625 11.71875 
Q 11.71875 9.328125 16.59375 8.109375 
Q 21.484375 6.890625 26.8125 6.890625 
Q 36.078125 6.890625 40.9375 10.546875 
Q 45.796875 14.203125 45.796875 21.1875 
Q 45.796875 27.640625 41.28125 31.265625 
Q 36.765625 34.90625 28.71875 34.90625 
L 20.21875 34.90625 
L 20.21875 43.015625 
L 29.109375 43.015625 
Q 36.375 43.015625 40.234375 45.921875 
Q 44.09375 48.828125 44.09375 54.296875 
Q 44.09375 59.90625 40.109375 62.90625 
Q 36.140625 65.921875 28.71875 65.921875 
Q 24.65625 65.921875 20.015625 65.03125 
Q 15.375 64.15625 9.8125 62.3125 
L 9.8125 71.09375 
Q 15.4375 72.65625 20.34375 73.4375 
Q 25.25 74.21875 29.59375 74.21875 
Q 40.828125 74.21875 47.359375 69.109375 
Q 53.90625 64.015625 53.90625 55.328125 
Q 53.90625 49.265625 50.4375 45.09375 
Q 46.96875 40.921875 40.578125 39.3125 
z
" id="DejaVuSans-51"/>
       </defs>
       <use xlink:href="#DejaVuSans-51"/>
       <use x="63.623047" xlink:href="#DejaVuSans-48"/>
       <use x="127.246094" xlink:href="#DejaVuSans-48"/>
       <use x="190.869141" xlink:href="#DejaVuSans-48"/>
      </g>
     </g>
    </g>
    <g id="ytick_8">
     <g id="line2d_31">
      <path clip-path="url(#pfe72dd1027)" d="M 90 103.82693 
L 648 103.82693 
" style="fill:none;stroke:#b0b0b0;stroke-linecap:square;stroke-width:0.8;"/>
     </g>
     <g id="line2d_32">
      <g>
       <use style="stroke:#000000;stroke-width:0.8;" x="90" xlink:href="#m7bf61a5d07" y="103.82693"/>
      </g>
     </g>
     <g id="text_17">
      <!-- 3500 -->
      <g transform="translate(57.55 107.626149)scale(0.1 -0.1)">
       <use xlink:href="#DejaVuSans-51"/>
       <use x="63.623047" xlink:href="#DejaVuSans-53"/>
       <use x="127.246094" xlink:href="#DejaVuSans-48"/>
       <use x="190.869141" xlink:href="#DejaVuSans-48"/>
      </g>
     </g>
    </g>
    <g id="text_18">
     <!-- Cumulative cases -->
     <g transform="translate(51.470312 402.425781)rotate(-90)scale(0.1 -0.1)">
      <defs>
       <path d="M 64.40625 67.28125 
L 64.40625 56.890625 
Q 59.421875 61.53125 53.78125 63.8125 
Q 48.140625 66.109375 41.796875 66.109375 
Q 29.296875 66.109375 22.65625 58.46875 
Q 16.015625 50.828125 16.015625 36.375 
Q 16.015625 21.96875 22.65625 14.328125 
Q 29.296875 6.6875 41.796875 6.6875 
Q 48.140625 6.6875 53.78125 8.984375 
Q 59.421875 11.28125 64.40625 15.921875 
L 64.40625 5.609375 
Q 59.234375 2.09375 53.4375 0.328125 
Q 47.65625 -1.421875 41.21875 -1.421875 
Q 24.65625 -1.421875 15.125 8.703125 
Q 5.609375 18.84375 5.609375 36.375 
Q 5.609375 53.953125 15.125 64.078125 
Q 24.65625 74.21875 41.21875 74.21875 
Q 47.75 74.21875 53.53125 72.484375 
Q 59.328125 70.75 64.40625 67.28125 
z
" id="DejaVuSans-67"/>
       <path d="M 8.5 21.578125 
L 8.5 54.6875 
L 17.484375 54.6875 
L 17.484375 21.921875 
Q 17.484375 14.15625 20.5 10.265625 
Q 23.53125 6.390625 29.59375 6.390625 
Q 36.859375 6.390625 41.078125 11.03125 
Q 45.3125 15.671875 45.3125 23.6875 
L 45.3125 54.6875 
L 54.296875 54.6875 
L 54.296875 0 
L 45.3125 0 
L 45.3125 8.40625 
Q 42.046875 3.421875 37.71875 1 
Q 33.40625 -1.421875 27.6875 -1.421875 
Q 18.265625 -1.421875 13.375 4.4375 
Q 8.5 10.296875 8.5 21.578125 
z
M 31.109375 56 
z
" id="DejaVuSans-117"/>
       <path d="M 52 44.1875 
Q 55.375 50.25 60.0625 53.125 
Q 64.75 56 71.09375 56 
Q 79.640625 56 84.28125 50.015625 
Q 88.921875 44.046875 88.921875 33.015625 
L 88.921875 0 
L 79.890625 0 
L 79.890625 32.71875 
Q 79.890625 40.578125 77.09375 44.375 
Q 74.3125 48.1875 68.609375 48.1875 
Q 61.625 48.1875 57.5625 43.546875 
Q 53.515625 38.921875 53.515625 30.90625 
L 53.515625 0 
L 44.484375 0 
L 44.484375 32.71875 
Q 44.484375 40.625 41.703125 44.40625 
Q 38.921875 48.1875 33.109375 48.1875 
Q 26.21875 48.1875 22.15625 43.53125 
Q 18.109375 38.875 18.109375 30.90625 
L 18.109375 0 
L 9.078125 0 
L 9.078125 54.6875 
L 18.109375 54.6875 
L 18.109375 46.1875 
Q 21.1875 51.21875 25.484375 53.609375 
Q 29.78125 56 35.6875 56 
Q 41.65625 56 45.828125 52.96875 
Q 50 49.953125 52 44.1875 
z
" id="DejaVuSans-109"/>
       <path d="M 9.421875 75.984375 
L 18.40625 75.984375 
L 18.40625 0 
L 9.421875 0 
z
" id="DejaVuSans-108"/>
       <path d="M 18.3125 70.21875 
L 18.3125 54.6875 
L 36.8125 54.6875 
L 36.8125 47.703125 
L 18.3125 47.703125 
L 18.3125 18.015625 
Q 18.3125 11.328125 20.140625 9.421875 
Q 21.96875 7.515625 27.59375 7.515625 
L 36.8125 7.515625 
L 36.8125 0 
L 27.59375 0 
Q 17.1875 0 13.234375 3.875 
Q 9.28125 7.765625 9.28125 18.015625 
L 9.28125 47.703125 
L 2.6875 47.703125 
L 2.6875 54.6875 
L 9.28125 54.6875 
L 9.28125 70.21875 
z
" id="DejaVuSans-116"/>
       <path d="M 9.421875 54.6875 
L 18.40625 54.6875 
L 18.40625 0 
L 9.421875 0 
z
M 9.421875 75.984375 
L 18.40625 75.984375 
L 18.40625 64.59375 
L 9.421875 64.59375 
z
" id="DejaVuSans-105"/>
       <path d="M 2.984375 54.6875 
L 12.5 54.6875 
L 29.59375 8.796875 
L 46.6875 54.6875 
L 56.203125 54.6875 
L 35.6875 0 
L 23.484375 0 
z
" id="DejaVuSans-118"/>
       <path d="M 56.203125 29.59375 
L 56.203125 25.203125 
L 14.890625 25.203125 
Q 15.484375 15.921875 20.484375 11.0625 
Q 25.484375 6.203125 34.421875 6.203125 
Q 39.59375 6.203125 44.453125 7.46875 
Q 49.3125 8.734375 54.109375 11.28125 
L 54.109375 2.78125 
Q 49.265625 0.734375 44.1875 -0.34375 
Q 39.109375 -1.421875 33.890625 -1.421875 
Q 20.796875 -1.421875 13.15625 6.1875 
Q 5.515625 13.8125 5.515625 26.8125 
Q 5.515625 40.234375 12.765625 48.109375 
Q 20.015625 56 32.328125 56 
Q 43.359375 56 49.78125 48.890625 
Q 56.203125 41.796875 56.203125 29.59375 
z
M 47.21875 32.234375 
Q 47.125 39.59375 43.09375 43.984375 
Q 39.0625 48.390625 32.421875 48.390625 
Q 24.90625 48.390625 20.390625 44.140625 
Q 15.875 39.890625 15.1875 32.171875 
z
" id="DejaVuSans-101"/>
       <path id="DejaVuSans-32"/>
       <path d="M 48.78125 52.59375 
L 48.78125 44.1875 
Q 44.96875 46.296875 41.140625 47.34375 
Q 37.3125 48.390625 33.40625 48.390625 
Q 24.65625 48.390625 19.8125 42.84375 
Q 14.984375 37.3125 14.984375 27.296875 
Q 14.984375 17.28125 19.8125 11.734375 
Q 24.65625 6.203125 33.40625 6.203125 
Q 37.3125 6.203125 41.140625 7.25 
Q 44.96875 8.296875 48.78125 10.40625 
L 48.78125 2.09375 
Q 45.015625 0.34375 40.984375 -0.53125 
Q 36.96875 -1.421875 32.421875 -1.421875 
Q 20.0625 -1.421875 12.78125 6.34375 
Q 5.515625 14.109375 5.515625 27.296875 
Q 5.515625 40.671875 12.859375 48.328125 
Q 20.21875 56 33.015625 56 
Q 37.15625 56 41.109375 55.140625 
Q 45.0625 54.296875 48.78125 52.59375 
z
" id="DejaVuSans-99"/>
      </defs>
      <use xlink:href="#DejaVuSans-67"/>
      <use x="69.824219" xlink:href="#DejaVuSans-117"/>
      <use x="133.203125" xlink:href="#DejaVuSans-109"/>
      <use x="230.615234" xlink:href="#DejaVuSans-117"/>
      <use x="293.994141" xlink:href="#DejaVuSans-108"/>
      <use x="321.777344" xlink:href="#DejaVuSans-97"/>
      <use x="383.056641" xlink:href="#DejaVuSans-116"/>
      <use x="422.265625" xlink:href="#DejaVuSans-105"/>
      <use x="450.048828" xlink:href="#DejaVuSans-118"/>
      <use x="509.228516" xlink:href="#DejaVuSans-101"/>
      <use x="570.751953" xlink:href="#DejaVuSans-32"/>
      <use x="602.539062" xlink:href="#DejaVuSans-99"/>
      <use x="657.519531" xlink:href="#DejaVuSans-97"/>
      <use x="718.798828" xlink:href="#DejaVuSans-115"/>
      <use x="770.898438" xlink:href="#DejaVuSans-101"/>
      <use x="832.421875" xlink:href="#DejaVuSans-115"/>
     </g>
    </g>
   </g>
   <g id="line2d_33">
    <path clip-path="url(#pfe72dd1027)" d="M 115.363636 605.290909 
L 129.07371 604.482781 
L 139.356265 603.671749 
L 149.638821 602.62984 
L 159.921376 601.292771 
L 166.776413 600.198105 
L 173.63145 598.907536 
L 180.486486 597.387348 
L 187.341523 595.598555 
L 194.19656 593.496275 
L 201.051597 591.029126 
L 207.906634 588.138674 
L 211.334152 586.514408 
L 214.761671 584.758991 
L 218.189189 582.862971 
L 221.616708 580.816411 
L 225.044226 578.608903 
L 228.471744 576.229584 
L 231.899263 573.667166 
L 235.326781 570.909972 
L 238.7543 567.94599 
L 242.181818 564.762936 
L 245.609337 561.34833 
L 249.036855 557.689599 
L 252.464373 553.774184 
L 255.891892 549.589675 
L 259.31941 545.123965 
L 262.746929 540.365418 
L 266.174447 535.303064 
L 269.601966 529.926807 
L 273.029484 524.227653 
L 276.457002 518.197952 
L 279.884521 511.83165 
L 283.312039 505.124549 
L 286.739558 498.074564 
L 290.167076 490.681974 
L 293.594595 482.949665 
L 297.022113 474.883339 
L 300.449631 466.491698 
L 307.304668 448.783076 
L 314.159705 429.957424 
L 321.014742 410.199411 
L 327.869779 389.740128 
L 355.289926 306.518447 
L 362.144963 286.812516 
L 369 268.051953 
L 375.855037 250.418315 
L 379.282555 242.06686 
L 382.710074 234.041981 
L 386.137592 226.351994 
L 389.565111 219.002238 
L 392.992629 211.99526 
L 396.420147 205.331029 
L 399.847666 199.007182 
L 403.275184 193.019273 
L 406.702703 187.361035 
L 410.130221 182.024635 
L 413.55774 177.000929 
L 416.985258 172.279698 
L 420.412776 167.849879 
L 423.840295 163.699765 
L 427.267813 159.817203 
L 430.695332 156.189756 
L 434.12285 152.804857 
L 437.550369 149.649939 
L 440.977887 146.712541 
L 444.405405 143.980409 
L 447.832924 141.44157 
L 451.260442 139.084393 
L 454.687961 136.897642 
L 458.115479 134.870509 
L 461.542998 132.992644 
L 464.970516 131.254171 
L 471.825553 128.158325 
L 478.68059 125.513673 
L 485.535627 123.258547 
L 492.390663 121.338546 
L 499.2457 119.706017 
L 506.100737 118.319471 
L 512.955774 117.142964 
L 519.810811 116.145483 
L 530.093366 114.927663 
L 540.375921 113.979092 
L 550.658477 113.240966 
L 564.36855 112.505701 
L 581.506143 111.874623 
L 602.071253 111.396856 
L 622.636364 111.109091 
L 622.636364 111.109091 
" style="fill:none;stroke:#1f77b4;stroke-linecap:square;stroke-width:1.5;"/>
   </g>
   <g id="line2d_34">
    <path clip-path="url(#pfe72dd1027)" d="M 115.363636 605.290909 
L 129.07371 604.436277 
L 139.356265 603.570601 
L 149.638821 602.449709 
L 156.493857 601.525206 
L 163.348894 600.428632 
L 170.203931 599.129057 
L 177.058968 597.590441 
L 183.914005 595.770968 
L 190.769042 593.622381 
L 197.624079 591.089338 
L 204.479115 588.108856 
L 207.906634 586.428954 
L 211.334152 584.609926 
L 214.761671 582.641622 
L 218.189189 580.513398 
L 221.616708 578.214137 
L 225.044226 575.732281 
L 228.471744 573.055876 
L 231.899263 570.172629 
L 235.326781 567.069985 
L 238.7543 563.735215 
L 242.181818 560.15553 
L 245.609337 556.318208 
L 249.036855 552.210749 
L 252.464373 547.821049 
L 255.891892 543.137595 
L 259.31941 538.149686 
L 262.746929 532.847669 
L 266.174447 527.223194 
L 269.601966 521.26949 
L 273.029484 514.981636 
L 276.457002 508.356848 
L 279.884521 501.394753 
L 283.312039 494.097654 
L 286.739558 486.470766 
L 290.167076 478.522426 
L 293.594595 470.26425 
L 300.449631 452.881813 
L 307.304668 434.484273 
L 314.159705 415.284228 
L 324.44226 385.550303 
L 338.152334 345.713291 
L 345.007371 326.385734 
L 351.862408 307.813847 
L 358.717445 290.219585 
L 362.144963 281.844686 
L 365.572482 273.774192 
L 369 266.021026 
L 372.427518 258.594784 
L 375.855037 251.501876 
L 379.282555 244.74571 
L 382.710074 238.326925 
L 386.137592 232.243642 
L 389.565111 226.49174 
L 392.992629 221.065133 
L 396.420147 215.956053 
L 399.847666 211.155324 
L 403.275184 206.652623 
L 406.702703 202.436726 
L 410.130221 198.495734 
L 413.55774 194.81728 
L 416.985258 191.388708 
L 420.412776 188.197239 
L 423.840295 185.230106 
L 427.267813 182.474675 
L 430.695332 179.918541 
L 434.12285 177.54961 
L 437.550369 175.356164 
L 440.977887 173.326911 
L 444.405405 171.451019 
L 447.832924 169.718143 
L 451.260442 168.118443 
L 458.115479 165.281764 
L 464.970516 162.872451 
L 471.825553 160.829906 
L 478.68059 159.101015 
L 485.535627 157.639557 
L 492.390663 156.405552 
L 499.2457 155.36459 
L 509.528256 154.101771 
L 519.810811 153.125936 
L 530.093366 152.372719 
L 543.80344 151.629479 
L 557.513514 151.10444 
L 574.651106 150.659701 
L 598.643735 150.288075 
L 622.636364 150.086521 
L 622.636364 150.086521 
" style="fill:none;stroke:#ff7f0e;stroke-linecap:square;stroke-width:1.5;"/>
   </g>
   <g id="line2d_35">
    <path clip-path="url(#pfe72dd1027)" d="M 115.363636 605.290909 
L 125.646192 604.247387 
L 135.928747 602.922613 
L 142.783784 601.84778 
L 149.638821 600.590043 
L 156.493857 599.119787 
L 163.348894 597.403169 
L 170.203931 595.401714 
L 177.058968 593.071963 
L 183.914005 590.365207 
L 190.769042 587.227351 
L 194.19656 585.478395 
L 197.624079 583.598985 
L 201.051597 581.580922 
L 204.479115 579.415741 
L 207.906634 577.09474 
L 211.334152 574.609028 
L 214.761671 571.949573 
L 218.189189 569.107263 
L 221.616708 566.072979 
L 225.044226 562.837679 
L 228.471744 559.392493 
L 231.899263 555.72883 
L 235.326781 551.838496 
L 238.7543 547.713822 
L 242.181818 543.347808 
L 245.609337 538.734266 
L 249.036855 533.867978 
L 252.464373 528.744853 
L 255.891892 523.362086 
L 259.31941 517.718315 
L 262.746929 511.813766 
L 266.174447 505.650396 
L 269.601966 499.232006 
L 276.457002 485.65518 
L 283.312039 471.153671 
L 290.167076 455.830527 
L 297.022113 439.819713 
L 303.87715 423.281797 
L 317.587224 389.358159 
L 331.297297 355.584897 
L 338.152334 339.208587 
L 345.007371 323.378396 
L 351.862408 308.216649 
L 358.717445 293.817108 
L 365.572482 280.2451 
L 372.427518 267.539359 
L 379.282555 255.71507 
L 382.710074 250.13269 
L 386.137592 244.767608 
L 389.565111 239.6168 
L 392.992629 234.676498 
L 396.420147 229.942298 
L 399.847666 225.409271 
L 403.275184 221.072056 
L 406.702703 216.924958 
L 410.130221 212.962021 
L 413.55774 209.177108 
L 416.985258 205.563963 
L 420.412776 202.116269 
L 427.267813 195.691947 
L 434.12285 189.854095 
L 440.977887 184.554176 
L 447.832924 179.745901 
L 454.687961 175.385688 
L 461.542998 171.432911 
L 468.398034 167.850003 
L 475.253071 164.602432 
L 482.108108 161.658616 
L 488.963145 158.989775 
L 495.818182 156.569763 
L 502.673219 154.374876 
L 509.528256 152.383657 
L 516.383292 150.576713 
L 523.238329 148.936522 
L 533.520885 146.754722 
L 543.80344 144.865842 
L 554.085995 143.229536 
L 564.36855 141.811195 
L 574.651106 140.581108 
L 588.361179 139.190231 
L 602.071253 138.038177 
L 615.781327 137.083258 
L 622.636364 136.668779 
L 622.636364 136.668779 
" style="fill:none;stroke:#2ca02c;stroke-linecap:square;stroke-width:1.5;"/>
   </g>
   <g id="line2d_36">
    <path clip-path="url(#pfe72dd1027)" d="M 115.363636 605.290909 
L 125.646192 604.16129 
L 135.928747 602.781873 
L 146.211302 601.100522 
L 153.066339 599.781752 
L 159.921376 598.280485 
L 166.776413 596.573354 
L 173.63145 594.634496 
L 180.486486 592.435438 
L 187.341523 589.945018 
L 194.19656 587.129376 
L 201.051597 583.952021 
L 207.906634 580.374007 
L 214.761671 576.354251 
L 221.616708 571.850011 
L 225.044226 569.402561 
L 228.471744 566.817564 
L 231.899263 564.089548 
L 235.326781 561.21311 
L 238.7543 558.182951 
L 242.181818 554.993924 
L 245.609337 551.641087 
L 249.036855 548.119755 
L 252.464373 544.425553 
L 255.891892 540.554483 
L 259.31941 536.502983 
L 262.746929 532.267989 
L 266.174447 527.847007 
L 269.601966 523.238174 
L 276.457002 513.453051 
L 283.312039 502.912761 
L 290.167076 491.631376 
L 297.022113 479.638299 
L 303.87715 466.9791 
L 310.732187 453.715624 
L 317.587224 439.925263 
L 324.44226 425.699352 
L 334.724816 403.771179 
L 365.572482 337.333112 
L 372.427518 323.145285 
L 379.282555 309.373058 
L 386.137592 296.088956 
L 392.992629 283.351444 
L 399.847666 271.204898 
L 406.702703 259.680181 
L 413.55774 248.795669 
L 420.412776 238.5586 
L 427.267813 228.966594 
L 434.12285 220.00924 
L 440.977887 211.669645 
L 447.832924 203.925895 
L 454.687961 196.752363 
L 461.542998 190.120865 
L 468.398034 184.001629 
L 475.253071 178.364111 
L 482.108108 173.177648 
L 488.963145 168.411964 
L 495.818182 164.037568 
L 502.673219 160.026036 
L 509.528256 156.350212 
L 516.383292 152.984341 
L 523.238329 149.90414 
L 530.093366 147.086828 
L 536.948403 144.511126 
L 543.80344 142.157228 
L 550.658477 140.006751 
L 557.513514 138.042679 
L 564.36855 136.249296 
L 574.651106 133.847884 
L 584.933661 131.754068 
L 595.216216 129.92899 
L 605.498771 128.338513 
L 615.781327 126.952698 
L 622.636364 126.129439 
L 622.636364 126.129439 
" style="fill:none;stroke:#d62728;stroke-linecap:square;stroke-width:1.5;"/>
   </g>
   <g id="line2d_37">
    <path clip-path="url(#pfe72dd1027)" d="M 115.363636 605.290909 
L 125.646192 605.131789 
L 135.928747 604.680915 
L 146.211302 603.940358 
L 153.066339 603.267995 
L 159.921376 602.42989 
L 166.776413 601.398659 
L 173.63145 600.139685 
L 180.486486 598.610592 
L 187.341523 596.760588 
L 194.19656 594.529753 
L 197.624079 593.250144 
L 201.051597 591.848405 
L 204.479115 590.314232 
L 207.906634 588.636679 
L 211.334152 586.804175 
L 214.761671 584.804543 
L 218.189189 582.62505 
L 221.616708 580.252459 
L 225.044226 577.673109 
L 228.471744 574.873013 
L 231.899263 571.837986 
L 235.326781 568.553794 
L 238.7543 565.00633 
L 242.181818 561.181827 
L 245.609337 557.067083 
L 249.036855 552.649729 
L 252.464373 547.918512 
L 255.891892 542.863591 
L 259.31941 537.476856 
L 262.746929 531.752244 
L 266.174447 525.686048 
L 269.601966 519.277213 
L 273.029484 512.527602 
L 276.457002 505.442212 
L 279.884521 498.029351 
L 283.312039 490.300734 
L 290.167076 473.960218 
L 297.022113 456.581567 
L 303.87715 438.373399 
L 314.159705 410.049796 
L 331.297297 362.40061 
L 338.152334 343.941717 
L 345.007371 326.156334 
L 351.862408 309.212322 
L 358.717445 293.235227 
L 362.144963 285.637135 
L 365.572482 278.309311 
L 369 271.256417 
L 372.427518 264.481064 
L 375.855037 257.983994 
L 379.282555 251.764268 
L 382.710074 245.819454 
L 386.137592 240.145809 
L 389.565111 234.738459 
L 392.992629 229.591568 
L 396.420147 224.6985 
L 399.847666 220.051961 
L 403.275184 215.64414 
L 406.702703 211.466828 
L 410.130221 207.511532 
L 413.55774 203.769572 
L 416.985258 200.232164 
L 420.412776 196.890502 
L 423.840295 193.735817 
L 427.267813 190.759436 
L 430.695332 187.952829 
L 434.12285 185.307643 
L 437.550369 182.815741 
L 440.977887 180.469219 
L 447.832924 176.182005 
L 454.687961 172.388147 
L 461.542998 169.034362 
L 468.398034 166.072009 
L 475.253071 163.456998 
L 482.108108 161.149606 
L 488.963145 159.114221 
L 495.818182 157.319045 
L 502.673219 155.735787 
L 509.528256 154.339345 
L 516.383292 153.107499 
L 526.665848 151.526045 
L 536.948403 150.214544 
L 547.230958 149.126082 
L 560.941032 147.95585 
L 574.651106 147.040607 
L 591.788698 146.169925 
L 608.92629 145.526552 
L 622.636364 145.134267 
L 622.636364 145.134267 
" style="fill:none;stroke:#9467bd;stroke-linecap:square;stroke-width:1.5;"/>
   </g>
   <g id="line2d_38">
    <path clip-path="url(#pfe72dd1027)" d="M 115.363636 605.290909 
L 122.218673 605.14696 
L 129.07371 604.780366 
L 135.928747 604.246573 
L 146.211302 603.17074 
L 153.066339 602.266062 
L 159.921376 601.194407 
L 166.776413 599.933303 
L 173.63145 598.45476 
L 180.486486 596.72576 
L 187.341523 594.70839 
L 194.19656 592.359843 
L 201.051597 589.632446 
L 207.906634 586.473826 
L 211.334152 584.715252 
L 214.761671 582.827325 
L 218.189189 580.80242 
L 221.616708 578.632759 
L 225.044226 576.310468 
L 228.471744 573.827633 
L 231.899263 571.176371 
L 235.326781 568.348912 
L 238.7543 565.337685 
L 242.181818 562.135423 
L 245.609337 558.735276 
L 249.036855 555.130929 
L 252.464373 551.316736 
L 255.891892 547.287851 
L 259.31941 543.04038 
L 262.746929 538.571514 
L 266.174447 533.879681 
L 269.601966 528.964679 
L 273.029484 523.827809 
L 276.457002 518.471988 
L 283.312039 507.123836 
L 290.167076 494.979105 
L 297.022113 482.126215 
L 303.87715 468.682043 
L 310.732187 454.788503 
L 324.44226 426.310358 
L 334.724816 405.034985 
L 341.579853 391.209293 
L 348.434889 377.845467 
L 355.289926 365.069167 
L 362.144963 352.979964 
L 369 341.65002 
L 375.855037 331.124713 
L 379.282555 326.171161 
L 382.710074 321.424791 
L 386.137592 316.884876 
L 389.565111 312.549589 
L 392.992629 308.416119 
L 396.420147 304.480803 
L 399.847666 300.739245 
L 403.275184 297.186427 
L 406.702703 293.816826 
L 410.130221 290.62451 
L 413.55774 287.603238 
L 416.985258 284.746542 
L 420.412776 282.047805 
L 423.840295 279.50033 
L 427.267813 277.0974 
L 434.12285 272.698517 
L 440.977887 268.798826 
L 447.832924 265.348281 
L 454.687961 262.299855 
L 461.542998 259.609971 
L 468.398034 257.238699 
L 475.253071 255.149786 
L 482.108108 253.310553 
L 488.963145 251.691726 
L 495.818182 250.2672 
L 502.673219 249.013789 
L 512.955774 247.410266 
L 523.238329 246.086674 
L 533.520885 244.99384 
L 543.80344 244.091198 
L 557.513514 243.126645 
L 571.223587 242.37814 
L 588.361179 241.673005 
L 608.92629 241.073384 
L 622.636364 240.782204 
L 622.636364 240.782204 
" style="fill:none;stroke:#8c564b;stroke-linecap:square;stroke-width:1.5;"/>
   </g>
   <g id="line2d_39">
    <path clip-path="url(#pfe72dd1027)" d="M 115.363636 605.290909 
L 122.218673 605.157538 
L 129.07371 604.811417 
L 135.928747 604.298536 
L 142.783784 603.634507 
L 149.638821 602.816833 
L 156.493857 601.831314 
L 163.348894 600.655269 
L 170.203931 599.258992 
L 177.058968 597.606263 
L 183.914005 595.654336 
L 190.769042 593.353687 
L 197.624079 590.647673 
L 201.051597 589.122938 
L 204.479115 587.472264 
L 207.906634 585.68648 
L 211.334152 583.755957 
L 214.761671 581.67063 
L 218.189189 579.420021 
L 221.616708 576.993281 
L 225.044226 574.379233 
L 228.471744 571.566438 
L 231.899263 568.543271 
L 235.326781 565.298013 
L 238.7543 561.818962 
L 242.181818 558.094563 
L 245.609337 554.113551 
L 249.036855 549.865122 
L 252.464373 545.339113 
L 255.891892 540.526209 
L 259.31941 535.418156 
L 262.746929 530.007991 
L 266.174447 524.290282 
L 269.601966 518.261363 
L 273.029484 511.919581 
L 276.457002 505.265512 
L 279.884521 498.302182 
L 283.312039 491.035243 
L 286.739558 483.473124 
L 293.594595 467.511527 
L 300.449631 450.54302 
L 307.304668 432.738522 
L 314.159705 414.3089 
L 341.579853 339.351737 
L 348.434889 321.562697 
L 355.289926 304.585987 
L 362.144963 288.574421 
L 365.572482 280.966452 
L 369 273.637418 
L 372.427518 266.594362 
L 375.855037 259.841883 
L 379.282555 253.382301 
L 382.710074 247.215838 
L 386.137592 241.34082 
L 389.565111 235.753882 
L 392.992629 230.450181 
L 396.420147 225.423594 
L 399.847666 220.666928 
L 403.275184 216.1721 
L 406.702703 211.930322 
L 410.130221 207.93226 
L 413.55774 204.168184 
L 416.985258 200.628103 
L 420.412776 197.301884 
L 423.840295 194.179353 
L 427.267813 191.250385 
L 430.695332 188.504981 
L 434.12285 185.933333 
L 437.550369 183.525872 
L 440.977887 181.273313 
L 444.405405 179.166685 
L 447.832924 177.197358 
L 454.687961 173.637882 
L 461.542998 170.533139 
L 468.398034 167.827355 
L 475.253071 165.470597 
L 482.108108 163.418502 
L 488.963145 161.631884 
L 495.818182 160.076302 
L 502.673219 158.721606 
L 509.528256 157.541478 
L 519.810811 156.049312 
L 530.093366 154.834011 
L 540.375921 153.842992 
L 554.085995 152.798396 
L 567.796069 151.999409 
L 584.933661 151.257502 
L 605.498771 150.636392 
L 622.636364 150.275605 
L 622.636364 150.275605 
" style="fill:none;stroke:#e377c2;stroke-linecap:square;stroke-width:1.5;"/>
   </g>
   <g id="line2d_40">
    <path clip-path="url(#pfe72dd1027)" d="M 115.363636 605.290909 
L 122.218673 605.190985 
L 129.07371 604.917635 
L 139.356265 604.226395 
L 146.211302 603.580977 
L 153.066339 602.775256 
L 159.921376 601.788404 
L 166.776413 600.591817 
L 173.63145 599.149385 
L 180.486486 597.417332 
L 187.341523 595.343835 
L 194.19656 592.868573 
L 197.624079 591.459006 
L 201.051597 589.922338 
L 204.479115 588.248506 
L 207.906634 586.426893 
L 211.334152 584.446356 
L 214.761671 582.295251 
L 218.189189 579.961489 
L 221.616708 577.432597 
L 225.044226 574.695796 
L 228.471744 571.73811 
L 231.899263 568.546482 
L 235.326781 565.107924 
L 238.7543 561.409686 
L 242.181818 557.439448 
L 245.609337 553.18554 
L 249.036855 548.637174 
L 252.464373 543.784704 
L 255.891892 538.619894 
L 259.31941 533.136196 
L 262.746929 527.32903 
L 266.174447 521.196053 
L 269.601966 514.737413 
L 273.029484 507.955981 
L 276.457002 500.857532 
L 279.884521 493.450891 
L 283.312039 485.748015 
L 290.167076 469.517065 
L 297.022113 452.321777 
L 303.87715 434.362814 
L 314.159705 406.511502 
L 331.297297 359.801232 
L 338.152334 341.734042 
L 345.007371 324.334095 
L 351.862408 307.761791 
L 358.717445 292.137292 
L 365.572482 277.541335 
L 369 270.644268 
L 372.427518 264.018455 
L 375.855037 257.66459 
L 379.282555 251.581748 
L 382.710074 245.76756 
L 386.137592 240.218394 
L 389.565111 234.929523 
L 392.992629 229.895291 
L 396.420147 225.109263 
L 399.847666 220.564371 
L 403.275184 216.253038 
L 406.702703 212.167307 
L 410.130221 208.298936 
L 413.55774 204.639501 
L 416.985258 201.180477 
L 420.412776 197.913309 
L 423.840295 194.829477 
L 427.267813 191.920548 
L 430.695332 189.178225 
L 434.12285 186.59438 
L 437.550369 184.161084 
L 440.977887 181.870637 
L 447.832924 177.688721 
L 454.687961 173.992146 
L 461.542998 170.728807 
L 468.398034 167.851056 
L 475.253071 165.31563 
L 482.108108 163.083478 
L 488.963145 161.119524 
L 495.818182 159.392397 
L 502.673219 157.874132 
L 509.528256 156.539875 
L 519.810811 154.836008 
L 530.093366 153.433246 
L 540.375921 152.278575 
L 550.658477 151.328152 
L 564.36855 150.317051 
L 578.078624 149.536827 
L 595.216216 148.806769 
L 615.781327 148.191401 
L 622.636364 148.033761 
L 622.636364 148.033761 
" style="fill:none;stroke:#7f7f7f;stroke-linecap:square;stroke-width:1.5;"/>
   </g>
   <g id="line2d_41">
    <path clip-path="url(#pfe72dd1027)" d="M 115.363636 605.290909 
L 183.914005 605.19104 
L 201.051597 604.976366 
L 211.334152 604.669775 
L 218.189189 604.315292 
L 225.044226 603.761002 
L 231.899263 602.896473 
L 235.326781 602.298183 
L 238.7543 601.553339 
L 242.181818 600.627552 
L 245.609337 599.479184 
L 249.036855 598.058251 
L 252.464373 596.305402 
L 255.891892 594.151117 
L 259.31941 591.51535 
L 262.746929 588.307909 
L 266.174447 584.42993 
L 269.601966 579.776827 
L 273.029484 574.243026 
L 276.457002 567.728613 
L 279.884521 560.147672 
L 283.312039 551.437643 
L 286.739558 541.568492 
L 290.167076 530.550187 
L 293.594595 518.436914 
L 297.022113 505.326937 
L 300.449631 491.357801 
L 303.87715 476.69755 
L 310.732187 446.059611 
L 321.014742 399.609783 
L 327.869779 370.124175 
L 331.297297 356.154015 
L 334.724816 342.790086 
L 338.152334 330.075115 
L 341.579853 318.034599 
L 345.007371 306.67964 
L 348.434889 296.009622 
L 351.862408 286.01465 
L 355.289926 276.677678 
L 358.717445 267.976331 
L 362.144963 259.884426 
L 365.572482 252.373226 
L 369 245.412445 
L 372.427518 238.971052 
L 375.855037 233.017903 
L 379.282555 227.522217 
L 382.710074 222.453947 
L 386.137592 217.784035 
L 389.565111 213.484611 
L 392.992629 209.529106 
L 396.420147 205.892334 
L 399.847666 202.550528 
L 403.275184 199.481342 
L 406.702703 196.66384 
L 410.130221 194.078457 
L 413.55774 191.706961 
L 416.985258 189.532393 
L 420.412776 187.539009 
L 423.840295 185.712216 
L 427.267813 184.038512 
L 430.695332 182.505414 
L 437.550369 179.815832 
L 444.405405 177.561656 
L 451.260442 175.673508 
L 458.115479 174.092719 
L 464.970516 172.769788 
L 471.825553 171.66302 
L 478.68059 170.737351 
L 488.963145 169.625287 
L 499.2457 168.775312 
L 509.528256 168.125859 
L 523.238329 167.491931 
L 540.375921 166.961458 
L 560.941032 166.571801 
L 588.361179 166.292407 
L 622.636364 166.135147 
L 622.636364 166.135147 
" style="fill:none;stroke:#bcbd22;stroke-linecap:square;stroke-width:1.5;"/>
   </g>
   <g id="line2d_42">
    <path clip-path="url(#pfe72dd1027)" d="M 115.363636 605.290909 
L 118.791155 604.571655 
L 129.07371 604.571655 
L 132.501229 603.70855 
L 142.783784 603.70855 
L 146.211302 602.701594 
L 153.066339 602.701594 
L 156.493857 602.557743 
L 166.776413 602.557743 
L 170.203931 602.413893 
L 173.63145 602.413893 
L 177.058968 602.270042 
L 201.051597 602.270042 
L 204.479115 601.98234 
L 207.906634 601.550788 
L 211.334152 601.550788 
L 218.189189 601.263086 
L 221.616708 601.263086 
L 225.044226 601.119235 
L 231.899263 601.119235 
L 235.326781 600.543832 
L 238.7543 600.399981 
L 242.181818 600.112279 
L 249.036855 600.112279 
L 252.464373 599.680727 
L 255.891892 598.817622 
L 259.31941 597.235263 
L 262.746929 596.516009 
L 266.174447 595.509053 
L 276.457002 581.843224 
L 279.884521 576.808446 
L 283.312039 568.177396 
L 286.739558 560.984855 
L 290.167076 548.182131 
L 293.594595 521.138176 
L 297.022113 503.588375 
L 303.87715 472.948149 
L 307.304668 456.980708 
L 310.732187 443.890283 
L 314.159705 428.210542 
L 317.587224 407.639874 
L 321.014742 388.076162 
L 324.44226 369.807107 
L 327.869779 352.545008 
L 334.724816 322.767887 
L 338.152334 309.965164 
L 341.579853 295.292379 
L 345.007371 287.955987 
L 348.434889 282.489656 
L 351.862408 266.522214 
L 355.289926 258.75427 
L 358.717445 251.561728 
L 362.144963 245.088441 
L 365.572482 240.341364 
L 369 236.313541 
L 372.427518 231.422613 
L 379.282555 222.935414 
L 382.710074 218.907591 
L 389.565111 209.557287 
L 392.992629 205.673315 
L 396.420147 202.940149 
L 399.847666 200.782387 
L 403.275184 198.912326 
L 406.702703 196.754564 
L 410.130221 189.13047 
L 413.55774 186.972708 
L 416.985258 185.67805 
L 420.412776 184.671094 
L 423.840295 183.376437 
L 427.267813 182.369481 
L 434.12285 180.643271 
L 437.550369 180.211719 
L 440.977887 177.622404 
L 447.832924 177.334702 
L 451.260442 176.90315 
L 454.687961 175.752343 
L 458.115479 175.17694 
L 461.542998 174.457686 
L 464.970516 173.594581 
L 468.398034 173.306879 
L 471.825553 173.306879 
L 475.253071 173.163028 
L 478.68059 172.156073 
L 482.108108 172.156073 
L 488.963145 171.292968 
L 492.390663 171.005266 
L 495.818182 170.861415 
L 499.2457 170.429863 
L 502.673219 170.429863 
L 506.100737 169.99831 
L 509.528256 169.99831 
L 512.955774 169.710608 
L 516.383292 169.279056 
L 519.810811 167.984399 
L 526.665848 164.81968 
L 530.093366 164.67583 
L 533.520885 164.100426 
L 543.80344 163.668874 
L 547.230958 161.22341 
L 550.658477 161.079559 
L 554.085995 160.791857 
L 557.513514 159.641051 
L 560.941032 158.634095 
L 564.36855 158.346393 
L 567.796069 157.77099 
L 571.223587 157.77099 
L 574.651106 157.195587 
L 578.078624 156.476333 
L 581.506143 156.332482 
L 591.788698 156.332482 
L 595.216216 155.469377 
L 598.643735 154.750123 
L 605.498771 154.462421 
L 608.92629 154.030868 
L 612.353808 153.311614 
L 619.208845 153.023913 
L 622.636364 152.448509 
L 622.636364 152.448509 
" style="fill:none;stroke:#17becf;stroke-dasharray:14.8,6.4;stroke-dashoffset:0;stroke-width:4;"/>
   </g>
   <g id="patch_3">
    <path d="M 90 630 
L 90 86.4 
" style="fill:none;stroke:#000000;stroke-linecap:square;stroke-linejoin:miter;stroke-width:0.8;"/>
   </g>
   <g id="patch_4">
    <path d="M 648 630 
L 648 86.4 
" style="fill:none;stroke:#000000;stroke-linecap:square;stroke-linejoin:miter;stroke-width:0.8;"/>
   </g>
   <g id="patch_5">
    <path d="M 90 630 
L 648 630 
" style="fill:none;stroke:#000000;stroke-linecap:square;stroke-linejoin:miter;stroke-width:0.8;"/>
   </g>
   <g id="patch_6">
    <path d="M 90 86.4 
L 648 86.4 
" style="fill:none;stroke:#000000;stroke-linecap:square;stroke-linejoin:miter;stroke-width:0.8;"/>
   </g>
   <g id="text_19">
    <!-- Thailand relative err =  -->
    <g transform="translate(299.429062 80.4)scale(0.12 -0.12)">
     <defs>
      <path d="M -0.296875 72.90625 
L 61.375 72.90625 
L 61.375 64.59375 
L 35.5 64.59375 
L 35.5 0 
L 25.59375 0 
L 25.59375 64.59375 
L -0.296875 64.59375 
z
" id="DejaVuSans-84"/>
      <path d="M 54.890625 33.015625 
L 54.890625 0 
L 45.90625 0 
L 45.90625 32.71875 
Q 45.90625 40.484375 42.875 44.328125 
Q 39.84375 48.1875 33.796875 48.1875 
Q 26.515625 48.1875 22.3125 43.546875 
Q 18.109375 38.921875 18.109375 30.90625 
L 18.109375 0 
L 9.078125 0 
L 9.078125 75.984375 
L 18.109375 75.984375 
L 18.109375 46.1875 
Q 21.34375 51.125 25.703125 53.5625 
Q 30.078125 56 35.796875 56 
Q 45.21875 56 50.046875 50.171875 
Q 54.890625 44.34375 54.890625 33.015625 
z
" id="DejaVuSans-104"/>
      <path d="M 54.890625 33.015625 
L 54.890625 0 
L 45.90625 0 
L 45.90625 32.71875 
Q 45.90625 40.484375 42.875 44.328125 
Q 39.84375 48.1875 33.796875 48.1875 
Q 26.515625 48.1875 22.3125 43.546875 
Q 18.109375 38.921875 18.109375 30.90625 
L 18.109375 0 
L 9.078125 0 
L 9.078125 54.6875 
L 18.109375 54.6875 
L 18.109375 46.1875 
Q 21.34375 51.125 25.703125 53.5625 
Q 30.078125 56 35.796875 56 
Q 45.21875 56 50.046875 50.171875 
Q 54.890625 44.34375 54.890625 33.015625 
z
" id="DejaVuSans-110"/>
      <path d="M 45.40625 46.390625 
L 45.40625 75.984375 
L 54.390625 75.984375 
L 54.390625 0 
L 45.40625 0 
L 45.40625 8.203125 
Q 42.578125 3.328125 38.25 0.953125 
Q 33.9375 -1.421875 27.875 -1.421875 
Q 17.96875 -1.421875 11.734375 6.484375 
Q 5.515625 14.40625 5.515625 27.296875 
Q 5.515625 40.1875 11.734375 48.09375 
Q 17.96875 56 27.875 56 
Q 33.9375 56 38.25 53.625 
Q 42.578125 51.265625 45.40625 46.390625 
z
M 14.796875 27.296875 
Q 14.796875 17.390625 18.875 11.75 
Q 22.953125 6.109375 30.078125 6.109375 
Q 37.203125 6.109375 41.296875 11.75 
Q 45.40625 17.390625 45.40625 27.296875 
Q 45.40625 37.203125 41.296875 42.84375 
Q 37.203125 48.484375 30.078125 48.484375 
Q 22.953125 48.484375 18.875 42.84375 
Q 14.796875 37.203125 14.796875 27.296875 
z
" id="DejaVuSans-100"/>
      <path d="M 41.109375 46.296875 
Q 39.59375 47.171875 37.8125 47.578125 
Q 36.03125 48 33.890625 48 
Q 26.265625 48 22.1875 43.046875 
Q 18.109375 38.09375 18.109375 28.8125 
L 18.109375 0 
L 9.078125 0 
L 9.078125 54.6875 
L 18.109375 54.6875 
L 18.109375 46.1875 
Q 20.953125 51.171875 25.484375 53.578125 
Q 30.03125 56 36.53125 56 
Q 37.453125 56 38.578125 55.875 
Q 39.703125 55.765625 41.0625 55.515625 
z
" id="DejaVuSans-114"/>
      <path d="M 10.59375 45.40625 
L 73.1875 45.40625 
L 73.1875 37.203125 
L 10.59375 37.203125 
z
M 10.59375 25.484375 
L 73.1875 25.484375 
L 73.1875 17.1875 
L 10.59375 17.1875 
z
" id="DejaVuSans-61"/>
     </defs>
     <use xlink:href="#DejaVuSans-84"/>
     <use x="61.083984" xlink:href="#DejaVuSans-104"/>
     <use x="124.462891" xlink:href="#DejaVuSans-97"/>
     <use x="185.742188" xlink:href="#DejaVuSans-105"/>
     <use x="213.525391" xlink:href="#DejaVuSans-108"/>
     <use x="241.308594" xlink:href="#DejaVuSans-97"/>
     <use x="302.587891" xlink:href="#DejaVuSans-110"/>
     <use x="365.966797" xlink:href="#DejaVuSans-100"/>
     <use x="429.443359" xlink:href="#DejaVuSans-32"/>
     <use x="461.230469" xlink:href="#DejaVuSans-114"/>
     <use x="500.09375" xlink:href="#DejaVuSans-101"/>
     <use x="561.617188" xlink:href="#DejaVuSans-108"/>
     <use x="589.400391" xlink:href="#DejaVuSans-97"/>
     <use x="650.679688" xlink:href="#DejaVuSans-116"/>
     <use x="689.888672" xlink:href="#DejaVuSans-105"/>
     <use x="717.671875" xlink:href="#DejaVuSans-118"/>
     <use x="776.851562" xlink:href="#DejaVuSans-101"/>
     <use x="838.375" xlink:href="#DejaVuSans-32"/>
     <use x="870.162109" xlink:href="#DejaVuSans-101"/>
     <use x="931.685547" xlink:href="#DejaVuSans-114"/>
     <use x="971.048828" xlink:href="#DejaVuSans-114"/>
     <use x="1012.162109" xlink:href="#DejaVuSans-32"/>
     <use x="1043.949219" xlink:href="#DejaVuSans-61"/>
     <use x="1127.738281" xlink:href="#DejaVuSans-32"/>
    </g>
   </g>
   <g id="legend_1">
    <g id="patch_7">
     <path d="M 97 226.503125 
L 185.6 226.503125 
Q 187.6 226.503125 187.6 224.503125 
L 187.6 93.4 
Q 187.6 91.4 185.6 91.4 
L 97 91.4 
Q 95 91.4 95 93.4 
L 95 224.503125 
Q 95 226.503125 97 226.503125 
z
" style="fill:#ffffff;opacity:0.8;stroke:#cccccc;stroke-linejoin:miter;"/>
    </g>
    <g id="line2d_43">
     <path d="M 99 99.498438 
L 119 99.498438 
" style="fill:none;stroke:#1f77b4;stroke-linecap:square;stroke-width:1.5;"/>
    </g>
    <g id="line2d_44"/>
    <g id="text_20">
     <!-- SI -->
     <g transform="translate(127 102.998438)scale(0.1 -0.1)">
      <defs>
       <path d="M 53.515625 70.515625 
L 53.515625 60.890625 
Q 47.90625 63.578125 42.921875 64.890625 
Q 37.9375 66.21875 33.296875 66.21875 
Q 25.25 66.21875 20.875 63.09375 
Q 16.5 59.96875 16.5 54.203125 
Q 16.5 49.359375 19.40625 46.890625 
Q 22.3125 44.4375 30.421875 42.921875 
L 36.375 41.703125 
Q 47.40625 39.59375 52.65625 34.296875 
Q 57.90625 29 57.90625 20.125 
Q 57.90625 9.515625 50.796875 4.046875 
Q 43.703125 -1.421875 29.984375 -1.421875 
Q 24.8125 -1.421875 18.96875 -0.25 
Q 13.140625 0.921875 6.890625 3.21875 
L 6.890625 13.375 
Q 12.890625 10.015625 18.65625 8.296875 
Q 24.421875 6.59375 29.984375 6.59375 
Q 38.421875 6.59375 43.015625 9.90625 
Q 47.609375 13.234375 47.609375 19.390625 
Q 47.609375 24.75 44.3125 27.78125 
Q 41.015625 30.8125 33.5 32.328125 
L 27.484375 33.5 
Q 16.453125 35.6875 11.515625 40.375 
Q 6.59375 45.0625 6.59375 53.421875 
Q 6.59375 63.09375 13.40625 68.65625 
Q 20.21875 74.21875 32.171875 74.21875 
Q 37.3125 74.21875 42.625 73.28125 
Q 47.953125 72.359375 53.515625 70.515625 
z
" id="DejaVuSans-83"/>
       <path d="M 9.8125 72.90625 
L 19.671875 72.90625 
L 19.671875 0 
L 9.8125 0 
z
" id="DejaVuSans-73"/>
      </defs>
      <use xlink:href="#DejaVuSans-83"/>
      <use x="63.476562" xlink:href="#DejaVuSans-73"/>
     </g>
    </g>
    <g id="line2d_45">
     <path d="M 99 114.176563 
L 119 114.176563 
" style="fill:none;stroke:#ff7f0e;stroke-linecap:square;stroke-width:1.5;"/>
    </g>
    <g id="line2d_46"/>
    <g id="text_21">
     <!-- BD -->
     <g transform="translate(127 117.676563)scale(0.1 -0.1)">
      <defs>
       <path d="M 19.671875 34.8125 
L 19.671875 8.109375 
L 35.5 8.109375 
Q 43.453125 8.109375 47.28125 11.40625 
Q 51.125 14.703125 51.125 21.484375 
Q 51.125 28.328125 47.28125 31.5625 
Q 43.453125 34.8125 35.5 34.8125 
z
M 19.671875 64.796875 
L 19.671875 42.828125 
L 34.28125 42.828125 
Q 41.5 42.828125 45.03125 45.53125 
Q 48.578125 48.25 48.578125 53.8125 
Q 48.578125 59.328125 45.03125 62.0625 
Q 41.5 64.796875 34.28125 64.796875 
z
M 9.8125 72.90625 
L 35.015625 72.90625 
Q 46.296875 72.90625 52.390625 68.21875 
Q 58.5 63.53125 58.5 54.890625 
Q 58.5 48.1875 55.375 44.234375 
Q 52.25 40.28125 46.1875 39.3125 
Q 53.46875 37.75 57.5 32.78125 
Q 61.53125 27.828125 61.53125 20.40625 
Q 61.53125 10.640625 54.890625 5.3125 
Q 48.25 0 35.984375 0 
L 9.8125 0 
z
" id="DejaVuSans-66"/>
      </defs>
      <use xlink:href="#DejaVuSans-66"/>
      <use x="68.603516" xlink:href="#DejaVuSans-68"/>
     </g>
    </g>
    <g id="line2d_47">
     <path d="M 99 128.854688 
L 119 128.854688 
" style="fill:none;stroke:#2ca02c;stroke-linecap:square;stroke-width:1.5;"/>
    </g>
    <g id="line2d_48"/>
    <g id="text_22">
     <!-- SIR -->
     <g transform="translate(127 132.354688)scale(0.1 -0.1)">
      <defs>
       <path d="M 44.390625 34.1875 
Q 47.5625 33.109375 50.5625 29.59375 
Q 53.5625 26.078125 56.59375 19.921875 
L 66.609375 0 
L 56 0 
L 46.6875 18.703125 
Q 43.0625 26.03125 39.671875 28.421875 
Q 36.28125 30.8125 30.421875 30.8125 
L 19.671875 30.8125 
L 19.671875 0 
L 9.8125 0 
L 9.8125 72.90625 
L 32.078125 72.90625 
Q 44.578125 72.90625 50.734375 67.671875 
Q 56.890625 62.453125 56.890625 51.90625 
Q 56.890625 45.015625 53.6875 40.46875 
Q 50.484375 35.9375 44.390625 34.1875 
z
M 19.671875 64.796875 
L 19.671875 38.921875 
L 32.078125 38.921875 
Q 39.203125 38.921875 42.84375 42.21875 
Q 46.484375 45.515625 46.484375 51.90625 
Q 46.484375 58.296875 42.84375 61.546875 
Q 39.203125 64.796875 32.078125 64.796875 
z
" id="DejaVuSans-82"/>
      </defs>
      <use xlink:href="#DejaVuSans-83"/>
      <use x="63.476562" xlink:href="#DejaVuSans-73"/>
      <use x="92.96875" xlink:href="#DejaVuSans-82"/>
     </g>
    </g>
    <g id="line2d_49">
     <path d="M 99 143.532812 
L 119 143.532812 
" style="fill:none;stroke:#d62728;stroke-linecap:square;stroke-width:1.5;"/>
    </g>
    <g id="line2d_50"/>
    <g id="text_23">
     <!-- eSIR -->
     <g transform="translate(127 147.032812)scale(0.1 -0.1)">
      <use xlink:href="#DejaVuSans-101"/>
      <use x="61.523438" xlink:href="#DejaVuSans-83"/>
      <use x="125" xlink:href="#DejaVuSans-73"/>
      <use x="154.492188" xlink:href="#DejaVuSans-82"/>
     </g>
    </g>
    <g id="line2d_51">
     <path d="M 99 158.210938 
L 119 158.210938 
" style="fill:none;stroke:#9467bd;stroke-linecap:square;stroke-width:1.5;"/>
    </g>
    <g id="line2d_52"/>
    <g id="text_24">
     <!-- SEIR -->
     <g transform="translate(127 161.710938)scale(0.1 -0.1)">
      <defs>
       <path d="M 9.8125 72.90625 
L 55.90625 72.90625 
L 55.90625 64.59375 
L 19.671875 64.59375 
L 19.671875 43.015625 
L 54.390625 43.015625 
L 54.390625 34.71875 
L 19.671875 34.71875 
L 19.671875 8.296875 
L 56.78125 8.296875 
L 56.78125 0 
L 9.8125 0 
z
" id="DejaVuSans-69"/>
      </defs>
      <use xlink:href="#DejaVuSans-83"/>
      <use x="63.476562" xlink:href="#DejaVuSans-69"/>
      <use x="126.660156" xlink:href="#DejaVuSans-73"/>
      <use x="156.152344" xlink:href="#DejaVuSans-82"/>
     </g>
    </g>
    <g id="line2d_53">
     <path d="M 99 172.889063 
L 119 172.889063 
" style="fill:none;stroke:#8c564b;stroke-linecap:square;stroke-width:1.5;"/>
    </g>
    <g id="line2d_54"/>
    <g id="text_25">
     <!-- eSEIR -->
     <g transform="translate(127 176.389063)scale(0.1 -0.1)">
      <use xlink:href="#DejaVuSans-101"/>
      <use x="61.523438" xlink:href="#DejaVuSans-83"/>
      <use x="125" xlink:href="#DejaVuSans-69"/>
      <use x="188.183594" xlink:href="#DejaVuSans-73"/>
      <use x="217.675781" xlink:href="#DejaVuSans-82"/>
     </g>
    </g>
    <g id="line2d_55">
     <path d="M 99 187.567188 
L 119 187.567188 
" style="fill:none;stroke:#e377c2;stroke-linecap:square;stroke-width:1.5;"/>
    </g>
    <g id="line2d_56"/>
    <g id="text_26">
     <!-- SEIUR -->
     <g transform="translate(127 191.067188)scale(0.1 -0.1)">
      <defs>
       <path d="M 8.6875 72.90625 
L 18.609375 72.90625 
L 18.609375 28.609375 
Q 18.609375 16.890625 22.84375 11.734375 
Q 27.09375 6.59375 36.625 6.59375 
Q 46.09375 6.59375 50.34375 11.734375 
Q 54.59375 16.890625 54.59375 28.609375 
L 54.59375 72.90625 
L 64.5 72.90625 
L 64.5 27.390625 
Q 64.5 13.140625 57.4375 5.859375 
Q 50.390625 -1.421875 36.625 -1.421875 
Q 22.796875 -1.421875 15.734375 5.859375 
Q 8.6875 13.140625 8.6875 27.390625 
z
" id="DejaVuSans-85"/>
      </defs>
      <use xlink:href="#DejaVuSans-83"/>
      <use x="63.476562" xlink:href="#DejaVuSans-69"/>
      <use x="126.660156" xlink:href="#DejaVuSans-73"/>
      <use x="156.152344" xlink:href="#DejaVuSans-85"/>
      <use x="229.345703" xlink:href="#DejaVuSans-82"/>
     </g>
    </g>
    <g id="line2d_57">
     <path d="M 99 202.245312 
L 119 202.245312 
" style="fill:none;stroke:#7f7f7f;stroke-linecap:square;stroke-width:1.5;"/>
    </g>
    <g id="line2d_58"/>
    <g id="text_27">
     <!-- eSEIUR -->
     <g transform="translate(127 205.745312)scale(0.1 -0.1)">
      <use xlink:href="#DejaVuSans-101"/>
      <use x="61.523438" xlink:href="#DejaVuSans-83"/>
      <use x="125" xlink:href="#DejaVuSans-69"/>
      <use x="188.183594" xlink:href="#DejaVuSans-73"/>
      <use x="217.675781" xlink:href="#DejaVuSans-85"/>
      <use x="290.869141" xlink:href="#DejaVuSans-82"/>
     </g>
    </g>
    <g id="line2d_59">
     <path d="M 99 216.923437 
L 119 216.923437 
" style="fill:none;stroke:#bcbd22;stroke-linecap:square;stroke-width:1.5;"/>
    </g>
    <g id="line2d_60"/>
    <g id="text_28">
     <!-- eSEIUR$^{range}$ -->
     <g transform="translate(127 220.423437)scale(0.1 -0.1)">
      <defs>
       <path d="M 44.578125 46.390625 
Q 43.21875 47.125 41.453125 47.515625 
Q 39.703125 47.90625 37.703125 47.90625 
Q 30.515625 47.90625 25.140625 42.453125 
Q 19.78125 37.015625 18.015625 27.875 
L 12.5 0 
L 3.515625 0 
L 14.203125 54.6875 
L 23.1875 54.6875 
L 21.484375 46.1875 
Q 25.046875 50.921875 30 53.453125 
Q 34.96875 56 40.578125 56 
Q 42.046875 56 43.453125 55.828125 
Q 44.875 55.671875 46.296875 55.28125 
z
" id="DejaVuSans-Oblique-114"/>
       <path d="M 53.71875 31.203125 
L 47.609375 0 
L 38.625 0 
L 40.28125 8.296875 
Q 36.328125 3.421875 31.265625 1 
Q 26.21875 -1.421875 20.015625 -1.421875 
Q 13.03125 -1.421875 8.5625 2.84375 
Q 4.109375 7.125 4.109375 13.8125 
Q 4.109375 23.390625 11.75 28.953125 
Q 19.390625 34.515625 32.8125 34.515625 
L 45.3125 34.515625 
L 45.796875 36.921875 
Q 45.90625 37.3125 45.953125 37.765625 
Q 46 38.234375 46 39.203125 
Q 46 43.5625 42.453125 45.96875 
Q 38.921875 48.390625 32.515625 48.390625 
Q 28.125 48.390625 23.5 47.265625 
Q 18.890625 46.140625 14.015625 43.890625 
L 15.578125 52.203125 
Q 20.65625 54.109375 25.515625 55.046875 
Q 30.375 56 34.90625 56 
Q 44.578125 56 49.625 51.796875 
Q 54.6875 47.609375 54.6875 39.59375 
Q 54.6875 37.984375 54.4375 35.8125 
Q 54.203125 33.640625 53.71875 31.203125 
z
M 44 27.484375 
L 35.015625 27.484375 
Q 23.96875 27.484375 18.671875 24.53125 
Q 13.375 21.578125 13.375 15.375 
Q 13.375 11.078125 16.078125 8.640625 
Q 18.796875 6.203125 23.578125 6.203125 
Q 30.90625 6.203125 36.375 11.453125 
Q 41.84375 16.703125 43.609375 25.484375 
z
" id="DejaVuSans-Oblique-97"/>
       <path d="M 55.71875 33.015625 
L 49.3125 0 
L 40.28125 0 
L 46.6875 32.671875 
Q 47.125 34.96875 47.359375 36.71875 
Q 47.609375 38.484375 47.609375 39.5 
Q 47.609375 43.609375 45.015625 45.890625 
Q 42.4375 48.1875 37.796875 48.1875 
Q 30.5625 48.1875 25.34375 43.375 
Q 20.125 38.578125 18.5 30.328125 
L 12.5 0 
L 3.515625 0 
L 14.109375 54.6875 
L 23.09375 54.6875 
L 21.296875 46.09375 
Q 25.046875 50.828125 30.3125 53.40625 
Q 35.59375 56 41.40625 56 
Q 48.640625 56 52.609375 52.09375 
Q 56.59375 48.1875 56.59375 41.109375 
Q 56.59375 39.359375 56.375 37.359375 
Q 56.15625 35.359375 55.71875 33.015625 
z
" id="DejaVuSans-Oblique-110"/>
       <path d="M 59.625 54.6875 
L 50.296875 6.78125 
Q 47.609375 -7.125 40.015625 -13.953125 
Q 32.421875 -20.796875 19.578125 -20.796875 
Q 14.84375 -20.796875 10.78125 -20.09375 
Q 6.734375 -19.390625 3.21875 -17.921875 
L 4.890625 -9.1875 
Q 8.203125 -11.328125 11.90625 -12.34375 
Q 15.625 -13.375 19.828125 -13.375 
Q 28.375 -13.375 33.859375 -8.703125 
Q 39.359375 -4.046875 41.109375 4.6875 
L 41.890625 8.796875 
Q 38.140625 4.5 33.15625 2.25 
Q 28.171875 0 22.40625 0 
Q 14.109375 0 9.34375 5.484375 
Q 4.59375 10.984375 4.59375 20.609375 
Q 4.59375 28.171875 7.46875 35.421875 
Q 10.359375 42.671875 15.578125 48.296875 
Q 19.046875 52 23.65625 54 
Q 28.265625 56 33.296875 56 
Q 38.8125 56 42.90625 53.4375 
Q 47.015625 50.875 49.03125 46.1875 
L 50.59375 54.6875 
z
M 46.09375 34.625 
Q 46.09375 41.265625 42.96875 44.875 
Q 39.84375 48.484375 34.078125 48.484375 
Q 30.515625 48.484375 27.296875 47.0625 
Q 24.078125 45.65625 21.78125 43.109375 
Q 18.0625 38.921875 15.984375 33.234375 
Q 13.921875 27.546875 13.921875 21.484375 
Q 13.921875 14.75 17.0625 11.125 
Q 20.21875 7.515625 26.125 7.515625 
Q 34.671875 7.515625 40.375 15.25 
Q 46.09375 23 46.09375 34.625 
z
" id="DejaVuSans-Oblique-103"/>
       <path d="M 48.09375 32.234375 
Q 48.25 33.015625 48.3125 33.84375 
Q 48.390625 34.671875 48.390625 35.5 
Q 48.390625 41.453125 44.890625 44.921875 
Q 41.40625 48.390625 35.40625 48.390625 
Q 28.71875 48.390625 23.578125 44.15625 
Q 18.453125 39.9375 15.828125 32.171875 
z
M 55.90625 25.203125 
L 14.109375 25.203125 
Q 13.8125 23.34375 13.71875 22.265625 
Q 13.625 21.1875 13.625 20.40625 
Q 13.625 13.625 17.796875 9.90625 
Q 21.96875 6.203125 29.59375 6.203125 
Q 35.453125 6.203125 40.671875 7.515625 
Q 45.90625 8.84375 50.390625 11.375 
L 48.6875 2.484375 
Q 43.84375 0.53125 38.6875 -0.4375 
Q 33.546875 -1.421875 28.21875 -1.421875 
Q 16.84375 -1.421875 10.71875 4.015625 
Q 4.59375 9.46875 4.59375 19.484375 
Q 4.59375 28.03125 7.640625 35.375 
Q 10.6875 42.71875 16.609375 48.484375 
Q 20.40625 52.09375 25.65625 54.046875 
Q 30.90625 56 36.8125 56 
Q 46.09375 56 51.578125 50.4375 
Q 57.078125 44.875 57.078125 35.5 
Q 57.078125 33.25 56.78125 30.6875 
Q 56.5 28.125 55.90625 25.203125 
z
" id="DejaVuSans-Oblique-101"/>
      </defs>
      <use transform="translate(0 0.51875)" xlink:href="#DejaVuSans-101"/>
      <use transform="translate(61.523438 0.51875)" xlink:href="#DejaVuSans-83"/>
      <use transform="translate(125 0.51875)" xlink:href="#DejaVuSans-69"/>
      <use transform="translate(188.183594 0.51875)" xlink:href="#DejaVuSans-73"/>
      <use transform="translate(217.675781 0.51875)" xlink:href="#DejaVuSans-85"/>
      <use transform="translate(288.619141 0.51875)" xlink:href="#DejaVuSans-82"/>
      <use transform="translate(359.058594 38.8)scale(0.7)" xlink:href="#DejaVuSans-Oblique-114"/>
      <use transform="translate(387.837891 38.8)scale(0.7)" xlink:href="#DejaVuSans-Oblique-97"/>
      <use transform="translate(430.733398 38.8)scale(0.7)" xlink:href="#DejaVuSans-Oblique-110"/>
      <use transform="translate(475.098633 38.8)scale(0.7)" xlink:href="#DejaVuSans-Oblique-103"/>
      <use transform="translate(519.532227 38.8)scale(0.7)" xlink:href="#DejaVuSans-Oblique-101"/>
     </g>
    </g>
   </g>
  </g>
 </g>
 <defs>
  <clipPath id="pfe72dd1027">
   <rect height="543.6" width="558" x="90" y="86.4"/>
  </clipPath>
 </defs>
</svg>
