<?xml version="1.0" encoding="utf-8" standalone="no"?>
<!DOCTYPE svg PUBLIC "-//W3C//DTD SVG 1.1//EN"
  "http://www.w3.org/Graphics/SVG/1.1/DTD/svg11.dtd">
<!-- Created with matplotlib (https://matplotlib.org/) -->
<svg height="720pt" version="1.1" viewBox="0 0 720 720" width="720pt" xmlns="http://www.w3.org/2000/svg" xmlns:xlink="http://www.w3.org/1999/xlink">
 <metadata>
  <rdf:RDF xmlns:cc="http://creativecommons.org/ns#" xmlns:dc="http://purl.org/dc/elements/1.1/" xmlns:rdf="http://www.w3.org/1999/02/22-rdf-syntax-ns#">
   <cc:Work>
    <dc:type rdf:resource="http://purl.org/dc/dcmitype/StillImage"/>
    <dc:date>2022-07-13T18:54:05.476715</dc:date>
    <dc:format>image/svg+xml</dc:format>
    <dc:creator>
     <cc:Agent>
      <dc:title>Matplotlib v3.3.2, https://matplotlib.org/</dc:title>
     </cc:Agent>
    </dc:creator>
   </cc:Work>
  </rdf:RDF>
 </metadata>
 <defs>
  <style type="text/css">*{stroke-linecap:butt;stroke-linejoin:round;}</style>
 </defs>
 <g id="figure_1">
  <g id="patch_1">
   <path d="M 0 720 
L 720 720 
L 720 0 
L 0 0 
z
" style="fill:none;"/>
  </g>
  <g id="axes_1">
   <g id="patch_2">
    <path d="M 90 630 
L 648 630 
L 648 86.4 
L 90 86.4 
z
" style="fill:#ffffff;"/>
   </g>
   <g id="matplotlib.axis_1">
    <g id="xtick_1">
     <g id="line2d_1">
      <path clip-path="url(#pd63b3f1481)" d="M 115.363636 630 
L 115.363636 86.4 
" style="fill:none;stroke:#b0b0b0;stroke-linecap:square;stroke-width:0.8;"/>
     </g>
     <g id="line2d_2">
      <defs>
       <path d="M 0 0 
L 0 3.5 
" id="m71ae9c5f48" style="stroke:#000000;stroke-width:0.8;"/>
      </defs>
      <g>
       <use style="stroke:#000000;stroke-width:0.8;" x="115.363636" xlink:href="#m71ae9c5f48" y="630"/>
      </g>
     </g>
     <g id="text_1">
      <!-- 0 -->
      <g transform="translate(112.182386 644.598438)scale(0.1 -0.1)">
       <defs>
        <path d="M 31.78125 66.40625 
Q 24.171875 66.40625 20.328125 58.90625 
Q 16.5 51.421875 16.5 36.375 
Q 16.5 21.390625 20.328125 13.890625 
Q 24.171875 6.390625 31.78125 6.390625 
Q 39.453125 6.390625 43.28125 13.890625 
Q 47.125 21.390625 47.125 36.375 
Q 47.125 51.421875 43.28125 58.90625 
Q 39.453125 66.40625 31.78125 66.40625 
z
M 31.78125 74.21875 
Q 44.046875 74.21875 50.515625 64.515625 
Q 56.984375 54.828125 56.984375 36.375 
Q 56.984375 17.96875 50.515625 8.265625 
Q 44.046875 -1.421875 31.78125 -1.421875 
Q 19.53125 -1.421875 13.0625 8.265625 
Q 6.59375 17.96875 6.59375 36.375 
Q 6.59375 54.828125 13.0625 64.515625 
Q 19.53125 74.21875 31.78125 74.21875 
z
" id="DejaVuSans-48"/>
       </defs>
       <use xlink:href="#DejaVuSans-48"/>
      </g>
     </g>
    </g>
    <g id="xtick_2">
     <g id="line2d_3">
      <path clip-path="url(#pd63b3f1481)" d="M 182.552077 630 
L 182.552077 86.4 
" style="fill:none;stroke:#b0b0b0;stroke-linecap:square;stroke-width:0.8;"/>
     </g>
     <g id="line2d_4">
      <g>
       <use style="stroke:#000000;stroke-width:0.8;" x="182.552077" xlink:href="#m71ae9c5f48" y="630"/>
      </g>
     </g>
     <g id="text_2">
      <!-- 20 -->
      <g transform="translate(176.189577 644.598438)scale(0.1 -0.1)">
       <defs>
        <path d="M 19.1875 8.296875 
L 53.609375 8.296875 
L 53.609375 0 
L 7.328125 0 
L 7.328125 8.296875 
Q 12.9375 14.109375 22.625 23.890625 
Q 32.328125 33.6875 34.8125 36.53125 
Q 39.546875 41.84375 41.421875 45.53125 
Q 43.3125 49.21875 43.3125 52.78125 
Q 43.3125 58.59375 39.234375 62.25 
Q 35.15625 65.921875 28.609375 65.921875 
Q 23.96875 65.921875 18.8125 64.3125 
Q 13.671875 62.703125 7.8125 59.421875 
L 7.8125 69.390625 
Q 13.765625 71.78125 18.9375 73 
Q 24.125 74.21875 28.421875 74.21875 
Q 39.75 74.21875 46.484375 68.546875 
Q 53.21875 62.890625 53.21875 53.421875 
Q 53.21875 48.921875 51.53125 44.890625 
Q 49.859375 40.875 45.40625 35.40625 
Q 44.1875 33.984375 37.640625 27.21875 
Q 31.109375 20.453125 19.1875 8.296875 
z
" id="DejaVuSans-50"/>
       </defs>
       <use xlink:href="#DejaVuSans-50"/>
       <use x="63.623047" xlink:href="#DejaVuSans-48"/>
      </g>
     </g>
    </g>
    <g id="xtick_3">
     <g id="line2d_5">
      <path clip-path="url(#pd63b3f1481)" d="M 249.740518 630 
L 249.740518 86.4 
" style="fill:none;stroke:#b0b0b0;stroke-linecap:square;stroke-width:0.8;"/>
     </g>
     <g id="line2d_6">
      <g>
       <use style="stroke:#000000;stroke-width:0.8;" x="249.740518" xlink:href="#m71ae9c5f48" y="630"/>
      </g>
     </g>
     <g id="text_3">
      <!-- 40 -->
      <g transform="translate(243.378018 644.598438)scale(0.1 -0.1)">
       <defs>
        <path d="M 37.796875 64.3125 
L 12.890625 25.390625 
L 37.796875 25.390625 
z
M 35.203125 72.90625 
L 47.609375 72.90625 
L 47.609375 25.390625 
L 58.015625 25.390625 
L 58.015625 17.1875 
L 47.609375 17.1875 
L 47.609375 0 
L 37.796875 0 
L 37.796875 17.1875 
L 4.890625 17.1875 
L 4.890625 26.703125 
z
" id="DejaVuSans-52"/>
       </defs>
       <use xlink:href="#DejaVuSans-52"/>
       <use x="63.623047" xlink:href="#DejaVuSans-48"/>
      </g>
     </g>
    </g>
    <g id="xtick_4">
     <g id="line2d_7">
      <path clip-path="url(#pd63b3f1481)" d="M 316.928958 630 
L 316.928958 86.4 
" style="fill:none;stroke:#b0b0b0;stroke-linecap:square;stroke-width:0.8;"/>
     </g>
     <g id="line2d_8">
      <g>
       <use style="stroke:#000000;stroke-width:0.8;" x="316.928958" xlink:href="#m71ae9c5f48" y="630"/>
      </g>
     </g>
     <g id="text_4">
      <!-- 60 -->
      <g transform="translate(310.566458 644.598438)scale(0.1 -0.1)">
       <defs>
        <path d="M 33.015625 40.375 
Q 26.375 40.375 22.484375 35.828125 
Q 18.609375 31.296875 18.609375 23.390625 
Q 18.609375 15.53125 22.484375 10.953125 
Q 26.375 6.390625 33.015625 6.390625 
Q 39.65625 6.390625 43.53125 10.953125 
Q 47.40625 15.53125 47.40625 23.390625 
Q 47.40625 31.296875 43.53125 35.828125 
Q 39.65625 40.375 33.015625 40.375 
z
M 52.59375 71.296875 
L 52.59375 62.3125 
Q 48.875 64.0625 45.09375 64.984375 
Q 41.3125 65.921875 37.59375 65.921875 
Q 27.828125 65.921875 22.671875 59.328125 
Q 17.53125 52.734375 16.796875 39.40625 
Q 19.671875 43.65625 24.015625 45.921875 
Q 28.375 48.1875 33.59375 48.1875 
Q 44.578125 48.1875 50.953125 41.515625 
Q 57.328125 34.859375 57.328125 23.390625 
Q 57.328125 12.15625 50.6875 5.359375 
Q 44.046875 -1.421875 33.015625 -1.421875 
Q 20.359375 -1.421875 13.671875 8.265625 
Q 6.984375 17.96875 6.984375 36.375 
Q 6.984375 53.65625 15.1875 63.9375 
Q 23.390625 74.21875 37.203125 74.21875 
Q 40.921875 74.21875 44.703125 73.484375 
Q 48.484375 72.75 52.59375 71.296875 
z
" id="DejaVuSans-54"/>
       </defs>
       <use xlink:href="#DejaVuSans-54"/>
       <use x="63.623047" xlink:href="#DejaVuSans-48"/>
      </g>
     </g>
    </g>
    <g id="xtick_5">
     <g id="line2d_9">
      <path clip-path="url(#pd63b3f1481)" d="M 384.117399 630 
L 384.117399 86.4 
" style="fill:none;stroke:#b0b0b0;stroke-linecap:square;stroke-width:0.8;"/>
     </g>
     <g id="line2d_10">
      <g>
       <use style="stroke:#000000;stroke-width:0.8;" x="384.117399" xlink:href="#m71ae9c5f48" y="630"/>
      </g>
     </g>
     <g id="text_5">
      <!-- 80 -->
      <g transform="translate(377.754899 644.598438)scale(0.1 -0.1)">
       <defs>
        <path d="M 31.78125 34.625 
Q 24.75 34.625 20.71875 30.859375 
Q 16.703125 27.09375 16.703125 20.515625 
Q 16.703125 13.921875 20.71875 10.15625 
Q 24.75 6.390625 31.78125 6.390625 
Q 38.8125 6.390625 42.859375 10.171875 
Q 46.921875 13.96875 46.921875 20.515625 
Q 46.921875 27.09375 42.890625 30.859375 
Q 38.875 34.625 31.78125 34.625 
z
M 21.921875 38.8125 
Q 15.578125 40.375 12.03125 44.71875 
Q 8.5 49.078125 8.5 55.328125 
Q 8.5 64.0625 14.71875 69.140625 
Q 20.953125 74.21875 31.78125 74.21875 
Q 42.671875 74.21875 48.875 69.140625 
Q 55.078125 64.0625 55.078125 55.328125 
Q 55.078125 49.078125 51.53125 44.71875 
Q 48 40.375 41.703125 38.8125 
Q 48.828125 37.15625 52.796875 32.3125 
Q 56.78125 27.484375 56.78125 20.515625 
Q 56.78125 9.90625 50.3125 4.234375 
Q 43.84375 -1.421875 31.78125 -1.421875 
Q 19.734375 -1.421875 13.25 4.234375 
Q 6.78125 9.90625 6.78125 20.515625 
Q 6.78125 27.484375 10.78125 32.3125 
Q 14.796875 37.15625 21.921875 38.8125 
z
M 18.3125 54.390625 
Q 18.3125 48.734375 21.84375 45.5625 
Q 25.390625 42.390625 31.78125 42.390625 
Q 38.140625 42.390625 41.71875 45.5625 
Q 45.3125 48.734375 45.3125 54.390625 
Q 45.3125 60.0625 41.71875 63.234375 
Q 38.140625 66.40625 31.78125 66.40625 
Q 25.390625 66.40625 21.84375 63.234375 
Q 18.3125 60.0625 18.3125 54.390625 
z
" id="DejaVuSans-56"/>
       </defs>
       <use xlink:href="#DejaVuSans-56"/>
       <use x="63.623047" xlink:href="#DejaVuSans-48"/>
      </g>
     </g>
    </g>
    <g id="xtick_6">
     <g id="line2d_11">
      <path clip-path="url(#pd63b3f1481)" d="M 451.30584 630 
L 451.30584 86.4 
" style="fill:none;stroke:#b0b0b0;stroke-linecap:square;stroke-width:0.8;"/>
     </g>
     <g id="line2d_12">
      <g>
       <use style="stroke:#000000;stroke-width:0.8;" x="451.30584" xlink:href="#m71ae9c5f48" y="630"/>
      </g>
     </g>
     <g id="text_6">
      <!-- 100 -->
      <g transform="translate(441.76209 644.598438)scale(0.1 -0.1)">
       <defs>
        <path d="M 12.40625 8.296875 
L 28.515625 8.296875 
L 28.515625 63.921875 
L 10.984375 60.40625 
L 10.984375 69.390625 
L 28.421875 72.90625 
L 38.28125 72.90625 
L 38.28125 8.296875 
L 54.390625 8.296875 
L 54.390625 0 
L 12.40625 0 
z
" id="DejaVuSans-49"/>
       </defs>
       <use xlink:href="#DejaVuSans-49"/>
       <use x="63.623047" xlink:href="#DejaVuSans-48"/>
       <use x="127.246094" xlink:href="#DejaVuSans-48"/>
      </g>
     </g>
    </g>
    <g id="xtick_7">
     <g id="line2d_13">
      <path clip-path="url(#pd63b3f1481)" d="M 518.494281 630 
L 518.494281 86.4 
" style="fill:none;stroke:#b0b0b0;stroke-linecap:square;stroke-width:0.8;"/>
     </g>
     <g id="line2d_14">
      <g>
       <use style="stroke:#000000;stroke-width:0.8;" x="518.494281" xlink:href="#m71ae9c5f48" y="630"/>
      </g>
     </g>
     <g id="text_7">
      <!-- 120 -->
      <g transform="translate(508.950531 644.598438)scale(0.1 -0.1)">
       <use xlink:href="#DejaVuSans-49"/>
       <use x="63.623047" xlink:href="#DejaVuSans-50"/>
       <use x="127.246094" xlink:href="#DejaVuSans-48"/>
      </g>
     </g>
    </g>
    <g id="xtick_8">
     <g id="line2d_15">
      <path clip-path="url(#pd63b3f1481)" d="M 585.682721 630 
L 585.682721 86.4 
" style="fill:none;stroke:#b0b0b0;stroke-linecap:square;stroke-width:0.8;"/>
     </g>
     <g id="line2d_16">
      <g>
       <use style="stroke:#000000;stroke-width:0.8;" x="585.682721" xlink:href="#m71ae9c5f48" y="630"/>
      </g>
     </g>
     <g id="text_8">
      <!-- 140 -->
      <g transform="translate(576.138971 644.598438)scale(0.1 -0.1)">
       <use xlink:href="#DejaVuSans-49"/>
       <use x="63.623047" xlink:href="#DejaVuSans-52"/>
       <use x="127.246094" xlink:href="#DejaVuSans-48"/>
      </g>
     </g>
    </g>
    <g id="text_9">
     <!-- Days -->
     <g transform="translate(356.521875 658.276562)scale(0.1 -0.1)">
      <defs>
       <path d="M 19.671875 64.796875 
L 19.671875 8.109375 
L 31.59375 8.109375 
Q 46.6875 8.109375 53.6875 14.9375 
Q 60.6875 21.78125 60.6875 36.53125 
Q 60.6875 51.171875 53.6875 57.984375 
Q 46.6875 64.796875 31.59375 64.796875 
z
M 9.8125 72.90625 
L 30.078125 72.90625 
Q 51.265625 72.90625 61.171875 64.09375 
Q 71.09375 55.28125 71.09375 36.53125 
Q 71.09375 17.671875 61.125 8.828125 
Q 51.171875 0 30.078125 0 
L 9.8125 0 
z
" id="DejaVuSans-68"/>
       <path d="M 34.28125 27.484375 
Q 23.390625 27.484375 19.1875 25 
Q 14.984375 22.515625 14.984375 16.5 
Q 14.984375 11.71875 18.140625 8.90625 
Q 21.296875 6.109375 26.703125 6.109375 
Q 34.1875 6.109375 38.703125 11.40625 
Q 43.21875 16.703125 43.21875 25.484375 
L 43.21875 27.484375 
z
M 52.203125 31.203125 
L 52.203125 0 
L 43.21875 0 
L 43.21875 8.296875 
Q 40.140625 3.328125 35.546875 0.953125 
Q 30.953125 -1.421875 24.3125 -1.421875 
Q 15.921875 -1.421875 10.953125 3.296875 
Q 6 8.015625 6 15.921875 
Q 6 25.140625 12.171875 29.828125 
Q 18.359375 34.515625 30.609375 34.515625 
L 43.21875 34.515625 
L 43.21875 35.40625 
Q 43.21875 41.609375 39.140625 45 
Q 35.0625 48.390625 27.6875 48.390625 
Q 23 48.390625 18.546875 47.265625 
Q 14.109375 46.140625 10.015625 43.890625 
L 10.015625 52.203125 
Q 14.9375 54.109375 19.578125 55.046875 
Q 24.21875 56 28.609375 56 
Q 40.484375 56 46.34375 49.84375 
Q 52.203125 43.703125 52.203125 31.203125 
z
" id="DejaVuSans-97"/>
       <path d="M 32.171875 -5.078125 
Q 28.375 -14.84375 24.75 -17.8125 
Q 21.140625 -20.796875 15.09375 -20.796875 
L 7.90625 -20.796875 
L 7.90625 -13.28125 
L 13.1875 -13.28125 
Q 16.890625 -13.28125 18.9375 -11.515625 
Q 21 -9.765625 23.484375 -3.21875 
L 25.09375 0.875 
L 2.984375 54.6875 
L 12.5 54.6875 
L 29.59375 11.921875 
L 46.6875 54.6875 
L 56.203125 54.6875 
z
" id="DejaVuSans-121"/>
       <path d="M 44.28125 53.078125 
L 44.28125 44.578125 
Q 40.484375 46.53125 36.375 47.5 
Q 32.28125 48.484375 27.875 48.484375 
Q 21.1875 48.484375 17.84375 46.4375 
Q 14.5 44.390625 14.5 40.28125 
Q 14.5 37.15625 16.890625 35.375 
Q 19.28125 33.59375 26.515625 31.984375 
L 29.59375 31.296875 
Q 39.15625 29.25 43.1875 25.515625 
Q 47.21875 21.78125 47.21875 15.09375 
Q 47.21875 7.46875 41.1875 3.015625 
Q 35.15625 -1.421875 24.609375 -1.421875 
Q 20.21875 -1.421875 15.453125 -0.5625 
Q 10.6875 0.296875 5.421875 2 
L 5.421875 11.28125 
Q 10.40625 8.6875 15.234375 7.390625 
Q 20.0625 6.109375 24.8125 6.109375 
Q 31.15625 6.109375 34.5625 8.28125 
Q 37.984375 10.453125 37.984375 14.40625 
Q 37.984375 18.0625 35.515625 20.015625 
Q 33.0625 21.96875 24.703125 23.78125 
L 21.578125 24.515625 
Q 13.234375 26.265625 9.515625 29.90625 
Q 5.8125 33.546875 5.8125 39.890625 
Q 5.8125 47.609375 11.28125 51.796875 
Q 16.75 56 26.8125 56 
Q 31.78125 56 36.171875 55.265625 
Q 40.578125 54.546875 44.28125 53.078125 
z
" id="DejaVuSans-115"/>
      </defs>
      <use xlink:href="#DejaVuSans-68"/>
      <use x="77.001953" xlink:href="#DejaVuSans-97"/>
      <use x="138.28125" xlink:href="#DejaVuSans-121"/>
      <use x="197.460938" xlink:href="#DejaVuSans-115"/>
     </g>
    </g>
   </g>
   <g id="matplotlib.axis_2">
    <g id="ytick_1">
     <g id="line2d_17">
      <path clip-path="url(#pd63b3f1481)" d="M 90 609.917542 
L 648 609.917542 
" style="fill:none;stroke:#b0b0b0;stroke-linecap:square;stroke-width:0.8;"/>
     </g>
     <g id="line2d_18">
      <defs>
       <path d="M 0 0 
L -3.5 0 
" id="m51dbdcf41e" style="stroke:#000000;stroke-width:0.8;"/>
      </defs>
      <g>
       <use style="stroke:#000000;stroke-width:0.8;" x="90" xlink:href="#m51dbdcf41e" y="609.917542"/>
      </g>
     </g>
     <g id="text_10">
      <!-- 0 -->
      <g transform="translate(76.6375 613.716761)scale(0.1 -0.1)">
       <use xlink:href="#DejaVuSans-48"/>
      </g>
     </g>
    </g>
    <g id="ytick_2">
     <g id="line2d_19">
      <path clip-path="url(#pd63b3f1481)" d="M 90 543.822787 
L 648 543.822787 
" style="fill:none;stroke:#b0b0b0;stroke-linecap:square;stroke-width:0.8;"/>
     </g>
     <g id="line2d_20">
      <g>
       <use style="stroke:#000000;stroke-width:0.8;" x="90" xlink:href="#m51dbdcf41e" y="543.822787"/>
      </g>
     </g>
     <g id="text_11">
      <!-- 200 -->
      <g transform="translate(63.9125 547.622005)scale(0.1 -0.1)">
       <use xlink:href="#DejaVuSans-50"/>
       <use x="63.623047" xlink:href="#DejaVuSans-48"/>
       <use x="127.246094" xlink:href="#DejaVuSans-48"/>
      </g>
     </g>
    </g>
    <g id="ytick_3">
     <g id="line2d_21">
      <path clip-path="url(#pd63b3f1481)" d="M 90 477.728031 
L 648 477.728031 
" style="fill:none;stroke:#b0b0b0;stroke-linecap:square;stroke-width:0.8;"/>
     </g>
     <g id="line2d_22">
      <g>
       <use style="stroke:#000000;stroke-width:0.8;" x="90" xlink:href="#m51dbdcf41e" y="477.728031"/>
      </g>
     </g>
     <g id="text_12">
      <!-- 400 -->
      <g transform="translate(63.9125 481.52725)scale(0.1 -0.1)">
       <use xlink:href="#DejaVuSans-52"/>
       <use x="63.623047" xlink:href="#DejaVuSans-48"/>
       <use x="127.246094" xlink:href="#DejaVuSans-48"/>
      </g>
     </g>
    </g>
    <g id="ytick_4">
     <g id="line2d_23">
      <path clip-path="url(#pd63b3f1481)" d="M 90 411.633276 
L 648 411.633276 
" style="fill:none;stroke:#b0b0b0;stroke-linecap:square;stroke-width:0.8;"/>
     </g>
     <g id="line2d_24">
      <g>
       <use style="stroke:#000000;stroke-width:0.8;" x="90" xlink:href="#m51dbdcf41e" y="411.633276"/>
      </g>
     </g>
     <g id="text_13">
      <!-- 600 -->
      <g transform="translate(63.9125 415.432495)scale(0.1 -0.1)">
       <use xlink:href="#DejaVuSans-54"/>
       <use x="63.623047" xlink:href="#DejaVuSans-48"/>
       <use x="127.246094" xlink:href="#DejaVuSans-48"/>
      </g>
     </g>
    </g>
    <g id="ytick_5">
     <g id="line2d_25">
      <path clip-path="url(#pd63b3f1481)" d="M 90 345.538521 
L 648 345.538521 
" style="fill:none;stroke:#b0b0b0;stroke-linecap:square;stroke-width:0.8;"/>
     </g>
     <g id="line2d_26">
      <g>
       <use style="stroke:#000000;stroke-width:0.8;" x="90" xlink:href="#m51dbdcf41e" y="345.538521"/>
      </g>
     </g>
     <g id="text_14">
      <!-- 800 -->
      <g transform="translate(63.9125 349.337739)scale(0.1 -0.1)">
       <use xlink:href="#DejaVuSans-56"/>
       <use x="63.623047" xlink:href="#DejaVuSans-48"/>
       <use x="127.246094" xlink:href="#DejaVuSans-48"/>
      </g>
     </g>
    </g>
    <g id="ytick_6">
     <g id="line2d_27">
      <path clip-path="url(#pd63b3f1481)" d="M 90 279.443765 
L 648 279.443765 
" style="fill:none;stroke:#b0b0b0;stroke-linecap:square;stroke-width:0.8;"/>
     </g>
     <g id="line2d_28">
      <g>
       <use style="stroke:#000000;stroke-width:0.8;" x="90" xlink:href="#m51dbdcf41e" y="279.443765"/>
      </g>
     </g>
     <g id="text_15">
      <!-- 1000 -->
      <g transform="translate(57.55 283.242984)scale(0.1 -0.1)">
       <use xlink:href="#DejaVuSans-49"/>
       <use x="63.623047" xlink:href="#DejaVuSans-48"/>
       <use x="127.246094" xlink:href="#DejaVuSans-48"/>
       <use x="190.869141" xlink:href="#DejaVuSans-48"/>
      </g>
     </g>
    </g>
    <g id="ytick_7">
     <g id="line2d_29">
      <path clip-path="url(#pd63b3f1481)" d="M 90 213.34901 
L 648 213.34901 
" style="fill:none;stroke:#b0b0b0;stroke-linecap:square;stroke-width:0.8;"/>
     </g>
     <g id="line2d_30">
      <g>
       <use style="stroke:#000000;stroke-width:0.8;" x="90" xlink:href="#m51dbdcf41e" y="213.34901"/>
      </g>
     </g>
     <g id="text_16">
      <!-- 1200 -->
      <g transform="translate(57.55 217.148229)scale(0.1 -0.1)">
       <use xlink:href="#DejaVuSans-49"/>
       <use x="63.623047" xlink:href="#DejaVuSans-50"/>
       <use x="127.246094" xlink:href="#DejaVuSans-48"/>
       <use x="190.869141" xlink:href="#DejaVuSans-48"/>
      </g>
     </g>
    </g>
    <g id="ytick_8">
     <g id="line2d_31">
      <path clip-path="url(#pd63b3f1481)" d="M 90 147.254255 
L 648 147.254255 
" style="fill:none;stroke:#b0b0b0;stroke-linecap:square;stroke-width:0.8;"/>
     </g>
     <g id="line2d_32">
      <g>
       <use style="stroke:#000000;stroke-width:0.8;" x="90" xlink:href="#m51dbdcf41e" y="147.254255"/>
      </g>
     </g>
     <g id="text_17">
      <!-- 1400 -->
      <g transform="translate(57.55 151.053473)scale(0.1 -0.1)">
       <use xlink:href="#DejaVuSans-49"/>
       <use x="63.623047" xlink:href="#DejaVuSans-52"/>
       <use x="127.246094" xlink:href="#DejaVuSans-48"/>
       <use x="190.869141" xlink:href="#DejaVuSans-48"/>
      </g>
     </g>
    </g>
    <g id="text_18">
     <!-- Cumulative cases -->
     <g transform="translate(51.470312 402.425781)rotate(-90)scale(0.1 -0.1)">
      <defs>
       <path d="M 64.40625 67.28125 
L 64.40625 56.890625 
Q 59.421875 61.53125 53.78125 63.8125 
Q 48.140625 66.109375 41.796875 66.109375 
Q 29.296875 66.109375 22.65625 58.46875 
Q 16.015625 50.828125 16.015625 36.375 
Q 16.015625 21.96875 22.65625 14.328125 
Q 29.296875 6.6875 41.796875 6.6875 
Q 48.140625 6.6875 53.78125 8.984375 
Q 59.421875 11.28125 64.40625 15.921875 
L 64.40625 5.609375 
Q 59.234375 2.09375 53.4375 0.328125 
Q 47.65625 -1.421875 41.21875 -1.421875 
Q 24.65625 -1.421875 15.125 8.703125 
Q 5.609375 18.84375 5.609375 36.375 
Q 5.609375 53.953125 15.125 64.078125 
Q 24.65625 74.21875 41.21875 74.21875 
Q 47.75 74.21875 53.53125 72.484375 
Q 59.328125 70.75 64.40625 67.28125 
z
" id="DejaVuSans-67"/>
       <path d="M 8.5 21.578125 
L 8.5 54.6875 
L 17.484375 54.6875 
L 17.484375 21.921875 
Q 17.484375 14.15625 20.5 10.265625 
Q 23.53125 6.390625 29.59375 6.390625 
Q 36.859375 6.390625 41.078125 11.03125 
Q 45.3125 15.671875 45.3125 23.6875 
L 45.3125 54.6875 
L 54.296875 54.6875 
L 54.296875 0 
L 45.3125 0 
L 45.3125 8.40625 
Q 42.046875 3.421875 37.71875 1 
Q 33.40625 -1.421875 27.6875 -1.421875 
Q 18.265625 -1.421875 13.375 4.4375 
Q 8.5 10.296875 8.5 21.578125 
z
M 31.109375 56 
z
" id="DejaVuSans-117"/>
       <path d="M 52 44.1875 
Q 55.375 50.25 60.0625 53.125 
Q 64.75 56 71.09375 56 
Q 79.640625 56 84.28125 50.015625 
Q 88.921875 44.046875 88.921875 33.015625 
L 88.921875 0 
L 79.890625 0 
L 79.890625 32.71875 
Q 79.890625 40.578125 77.09375 44.375 
Q 74.3125 48.1875 68.609375 48.1875 
Q 61.625 48.1875 57.5625 43.546875 
Q 53.515625 38.921875 53.515625 30.90625 
L 53.515625 0 
L 44.484375 0 
L 44.484375 32.71875 
Q 44.484375 40.625 41.703125 44.40625 
Q 38.921875 48.1875 33.109375 48.1875 
Q 26.21875 48.1875 22.15625 43.53125 
Q 18.109375 38.875 18.109375 30.90625 
L 18.109375 0 
L 9.078125 0 
L 9.078125 54.6875 
L 18.109375 54.6875 
L 18.109375 46.1875 
Q 21.1875 51.21875 25.484375 53.609375 
Q 29.78125 56 35.6875 56 
Q 41.65625 56 45.828125 52.96875 
Q 50 49.953125 52 44.1875 
z
" id="DejaVuSans-109"/>
       <path d="M 9.421875 75.984375 
L 18.40625 75.984375 
L 18.40625 0 
L 9.421875 0 
z
" id="DejaVuSans-108"/>
       <path d="M 18.3125 70.21875 
L 18.3125 54.6875 
L 36.8125 54.6875 
L 36.8125 47.703125 
L 18.3125 47.703125 
L 18.3125 18.015625 
Q 18.3125 11.328125 20.140625 9.421875 
Q 21.96875 7.515625 27.59375 7.515625 
L 36.8125 7.515625 
L 36.8125 0 
L 27.59375 0 
Q 17.1875 0 13.234375 3.875 
Q 9.28125 7.765625 9.28125 18.015625 
L 9.28125 47.703125 
L 2.6875 47.703125 
L 2.6875 54.6875 
L 9.28125 54.6875 
L 9.28125 70.21875 
z
" id="DejaVuSans-116"/>
       <path d="M 9.421875 54.6875 
L 18.40625 54.6875 
L 18.40625 0 
L 9.421875 0 
z
M 9.421875 75.984375 
L 18.40625 75.984375 
L 18.40625 64.59375 
L 9.421875 64.59375 
z
" id="DejaVuSans-105"/>
       <path d="M 2.984375 54.6875 
L 12.5 54.6875 
L 29.59375 8.796875 
L 46.6875 54.6875 
L 56.203125 54.6875 
L 35.6875 0 
L 23.484375 0 
z
" id="DejaVuSans-118"/>
       <path d="M 56.203125 29.59375 
L 56.203125 25.203125 
L 14.890625 25.203125 
Q 15.484375 15.921875 20.484375 11.0625 
Q 25.484375 6.203125 34.421875 6.203125 
Q 39.59375 6.203125 44.453125 7.46875 
Q 49.3125 8.734375 54.109375 11.28125 
L 54.109375 2.78125 
Q 49.265625 0.734375 44.1875 -0.34375 
Q 39.109375 -1.421875 33.890625 -1.421875 
Q 20.796875 -1.421875 13.15625 6.1875 
Q 5.515625 13.8125 5.515625 26.8125 
Q 5.515625 40.234375 12.765625 48.109375 
Q 20.015625 56 32.328125 56 
Q 43.359375 56 49.78125 48.890625 
Q 56.203125 41.796875 56.203125 29.59375 
z
M 47.21875 32.234375 
Q 47.125 39.59375 43.09375 43.984375 
Q 39.0625 48.390625 32.421875 48.390625 
Q 24.90625 48.390625 20.390625 44.140625 
Q 15.875 39.890625 15.1875 32.171875 
z
" id="DejaVuSans-101"/>
       <path id="DejaVuSans-32"/>
       <path d="M 48.78125 52.59375 
L 48.78125 44.1875 
Q 44.96875 46.296875 41.140625 47.34375 
Q 37.3125 48.390625 33.40625 48.390625 
Q 24.65625 48.390625 19.8125 42.84375 
Q 14.984375 37.3125 14.984375 27.296875 
Q 14.984375 17.28125 19.8125 11.734375 
Q 24.65625 6.203125 33.40625 6.203125 
Q 37.3125 6.203125 41.140625 7.25 
Q 44.96875 8.296875 48.78125 10.40625 
L 48.78125 2.09375 
Q 45.015625 0.34375 40.984375 -0.53125 
Q 36.96875 -1.421875 32.421875 -1.421875 
Q 20.0625 -1.421875 12.78125 6.34375 
Q 5.515625 14.109375 5.515625 27.296875 
Q 5.515625 40.671875 12.859375 48.328125 
Q 20.21875 56 33.015625 56 
Q 37.15625 56 41.109375 55.140625 
Q 45.0625 54.296875 48.78125 52.59375 
z
" id="DejaVuSans-99"/>
      </defs>
      <use xlink:href="#DejaVuSans-67"/>
      <use x="69.824219" xlink:href="#DejaVuSans-117"/>
      <use x="133.203125" xlink:href="#DejaVuSans-109"/>
      <use x="230.615234" xlink:href="#DejaVuSans-117"/>
      <use x="293.994141" xlink:href="#DejaVuSans-108"/>
      <use x="321.777344" xlink:href="#DejaVuSans-97"/>
      <use x="383.056641" xlink:href="#DejaVuSans-116"/>
      <use x="422.265625" xlink:href="#DejaVuSans-105"/>
      <use x="450.048828" xlink:href="#DejaVuSans-118"/>
      <use x="509.228516" xlink:href="#DejaVuSans-101"/>
      <use x="570.751953" xlink:href="#DejaVuSans-32"/>
      <use x="602.539062" xlink:href="#DejaVuSans-99"/>
      <use x="657.519531" xlink:href="#DejaVuSans-97"/>
      <use x="718.798828" xlink:href="#DejaVuSans-115"/>
      <use x="770.898438" xlink:href="#DejaVuSans-101"/>
      <use x="832.421875" xlink:href="#DejaVuSans-115"/>
     </g>
    </g>
   </g>
   <g id="line2d_33">
    <path clip-path="url(#pd63b3f1481)" d="M 115.363636 605.290909 
L 128.801325 604.089855 
L 138.879591 602.991771 
L 148.957857 601.690732 
L 159.036123 600.15084 
L 169.114389 598.330506 
L 175.833233 596.937765 
L 182.552077 595.383341 
L 189.270921 593.649912 
L 195.989765 591.718656 
L 202.708609 589.569222 
L 209.427453 587.179716 
L 216.146297 584.526723 
L 222.865141 581.58537 
L 229.583986 578.329451 
L 236.30283 574.731602 
L 243.021674 570.763569 
L 249.740518 566.396553 
L 256.459362 561.601661 
L 263.178206 556.350469 
L 269.89705 550.615697 
L 276.615894 544.372008 
L 283.334738 537.596917 
L 290.053582 530.2718 
L 296.772426 522.382984 
L 303.49127 513.922867 
L 310.210114 504.891039 
L 316.928958 495.295325 
L 323.647803 485.152697 
L 330.366647 474.489958 
L 337.085491 463.344148 
L 343.804335 451.762583 
L 350.523179 439.802483 
L 360.601445 421.299829 
L 374.039133 395.984778 
L 390.836243 364.253927 
L 400.914509 345.679079 
L 407.633353 333.653412 
L 414.352197 321.994178 
L 421.071042 310.760428 
L 427.789886 300.001427 
L 434.50873 289.756203 
L 441.227574 280.053513 
L 447.946418 270.912174 
L 454.665262 262.34171 
L 461.384106 254.343218 
L 468.10295 246.910398 
L 474.821794 240.030657 
L 481.540638 233.686239 
L 488.259482 227.855321 
L 494.978326 222.513042 
L 501.69717 217.632431 
L 508.416014 213.185227 
L 515.134859 209.14258 
L 521.853703 205.475636 
L 528.572547 202.156005 
L 535.291391 199.156129 
L 542.010235 196.449562 
L 548.729079 194.011163 
L 555.447923 191.81723 
L 562.166767 189.845573 
L 568.885611 188.075543 
L 575.604455 186.488028 
L 582.323299 185.065418 
L 592.401565 183.205735 
L 602.479831 181.63228 
L 612.558098 180.302687 
L 622.636364 179.180364 
L 622.636364 179.180364 
" style="fill:none;stroke:#1f77b4;stroke-linecap:square;stroke-width:1.5;"/>
   </g>
   <g id="line2d_34">
    <path clip-path="url(#pd63b3f1481)" d="M 115.363636 605.290909 
L 125.441902 603.940531 
L 135.520169 602.382562 
L 145.598435 600.58693 
L 155.676701 598.519828 
L 165.754967 596.143446 
L 172.473811 594.366803 
L 179.192655 592.420614 
L 185.911499 590.290514 
L 192.630343 587.9613 
L 199.349187 585.416953 
L 206.068031 582.6407 
L 212.786875 579.615082 
L 219.505719 576.322068 
L 226.224564 572.743189 
L 232.943408 568.859717 
L 239.662252 564.652888 
L 246.381096 560.104161 
L 253.09994 555.195531 
L 259.818784 549.909891 
L 266.537628 544.231432 
L 273.256472 538.146102 
L 279.975316 531.642087 
L 286.69416 524.710334 
L 293.413004 517.345081 
L 300.131848 509.544388 
L 306.850692 501.310654 
L 313.569536 492.651076 
L 320.28838 483.578054 
L 327.007225 474.109487 
L 333.726069 464.268952 
L 340.444913 454.085741 
L 347.163757 443.594727 
L 357.242023 427.370223 
L 367.320289 410.699608 
L 387.476821 376.726832 
L 400.914509 354.212263 
L 410.992775 337.707476 
L 421.071042 321.71605 
L 427.789886 311.413173 
L 434.50873 301.440552 
L 441.227574 291.829593 
L 447.946418 282.606018 
L 454.665262 273.789841 
L 461.384106 265.39549 
L 468.10295 257.432071 
L 474.821794 249.903726 
L 481.540638 242.810085 
L 488.259482 236.146754 
L 494.978326 229.90585 
L 501.69717 224.076532 
L 508.416014 218.645527 
L 515.134859 213.597629 
L 521.853703 208.916168 
L 528.572547 204.583429 
L 535.291391 200.581034 
L 542.010235 196.890269 
L 548.729079 193.492364 
L 555.447923 190.36873 
L 562.166767 187.501155 
L 568.885611 184.87195 
L 575.604455 182.464074 
L 582.323299 180.261221 
L 589.042143 178.247875 
L 595.760987 176.409356 
L 605.839253 173.949359 
L 615.91752 171.808731 
L 622.636364 170.539723 
L 622.636364 170.539723 
" style="fill:none;stroke:#ff7f0e;stroke-linecap:square;stroke-width:1.5;"/>
   </g>
   <g id="line2d_35">
    <path clip-path="url(#pd63b3f1481)" d="M 115.363636 605.290909 
L 125.441902 603.330359 
L 135.520169 601.100604 
L 145.598435 598.568522 
L 152.317279 596.694826 
L 159.036123 594.65941 
L 165.754967 592.450347 
L 172.473811 590.055206 
L 179.192655 587.46111 
L 185.911499 584.654802 
L 192.630343 581.622739 
L 199.349187 578.351198 
L 206.068031 574.826416 
L 212.786875 571.034742 
L 219.505719 566.96283 
L 226.224564 562.597841 
L 232.943408 557.927686 
L 239.662252 552.941283 
L 246.381096 547.628834 
L 253.09994 541.982128 
L 259.818784 535.99484 
L 266.537628 529.662845 
L 273.256472 522.984516 
L 279.975316 515.961011 
L 286.69416 508.596522 
L 293.413004 500.898496 
L 300.131848 492.877787 
L 306.850692 484.548752 
L 313.569536 475.929271 
L 320.28838 467.040679 
L 330.366647 453.257944 
L 340.444913 439.021572 
L 353.882601 419.523003 
L 400.914509 350.572448 
L 410.992775 336.430088 
L 421.071042 322.734349 
L 431.149308 309.560438 
L 437.868152 301.097915 
L 444.586996 292.908143 
L 451.30584 285.002088 
L 458.024684 277.387896 
L 464.743528 270.071065 
L 471.462372 263.054639 
L 478.181216 256.339437 
L 484.90006 249.924274 
L 491.618904 243.806202 
L 498.337748 237.980736 
L 505.056592 232.442082 
L 511.775436 227.18335 
L 518.494281 222.196747 
L 525.213125 217.473769 
L 531.931969 213.005359 
L 538.650813 208.782058 
L 545.369657 204.794139 
L 552.088501 201.031723 
L 558.807345 197.484872 
L 565.526189 194.143681 
L 572.245033 190.998348 
L 578.963877 188.039232 
L 585.682721 185.256901 
L 592.401565 182.642174 
L 602.479831 179.01495 
L 612.558098 175.716127 
L 622.636364 172.718596 
L 622.636364 172.718596 
" style="fill:none;stroke:#2ca02c;stroke-linecap:square;stroke-width:1.5;"/>
   </g>
   <g id="line2d_36">
    <path clip-path="url(#pd63b3f1481)" d="M 115.363636 605.290909 
L 122.08248 603.301373 
L 128.801325 601.111999 
L 135.520169 598.72145 
L 142.239013 596.128573 
L 148.957857 593.332412 
L 155.676701 590.332227 
L 162.395545 587.127507 
L 169.114389 583.717988 
L 175.833233 580.103663 
L 182.552077 576.284803 
L 189.270921 572.261965 
L 195.989765 568.036007 
L 202.708609 563.608103 
L 209.427453 558.979747 
L 216.146297 554.152772 
L 222.865141 549.129351 
L 229.583986 543.912006 
L 239.662252 535.728778 
L 249.740518 527.127017 
L 259.818784 518.119782 
L 269.89705 508.721953 
L 279.975316 498.950192 
L 290.053582 488.822889 
L 300.131848 478.360081 
L 310.210114 467.583344 
L 320.28838 456.515671 
L 330.366647 445.18132 
L 343.804335 429.69798 
L 357.242023 413.848274 
L 374.039133 393.619468 
L 394.195665 368.903539 
L 427.789886 327.212085 
L 454.665262 293.970367 
L 474.821794 269.400858 
L 491.618904 249.297004 
L 505.056592 233.516238 
L 518.494281 218.043715 
L 531.931969 202.910509 
L 545.369657 188.142648 
L 558.807345 173.76125 
L 572.245033 159.782732 
L 585.682721 146.219076 
L 595.760987 136.323464 
L 605.839253 126.667622 
L 615.91752 117.252353 
L 622.636364 111.109091 
L 622.636364 111.109091 
" style="fill:none;stroke:#d62728;stroke-linecap:square;stroke-width:1.5;"/>
   </g>
   <g id="line2d_37">
    <path clip-path="url(#pd63b3f1481)" d="M 115.363636 605.290909 
L 118.723058 605.190483 
L 122.08248 604.9285 
L 128.801325 604.080481 
L 135.520169 602.947811 
L 142.239013 601.615681 
L 148.957857 600.116573 
L 155.676701 598.458728 
L 162.395545 596.639015 
L 169.114389 594.648754 
L 175.833233 592.476366 
L 182.552077 590.108597 
L 189.270921 587.531093 
L 195.989765 584.728716 
L 202.708609 581.685733 
L 209.427453 578.385984 
L 216.146297 574.813044 
L 222.865141 570.950402 
L 229.583986 566.781676 
L 236.30283 562.290858 
L 243.021674 557.462591 
L 249.740518 552.282487 
L 256.459362 546.737476 
L 263.178206 540.816182 
L 269.89705 534.509324 
L 276.615894 527.810135 
L 283.334738 520.714774 
L 290.053582 513.22274 
L 296.772426 505.337245 
L 303.49127 497.06555 
L 310.210114 488.419243 
L 316.928958 479.414423 
L 323.647803 470.071796 
L 330.366647 460.416651 
L 340.444913 445.414157 
L 350.523179 429.8939 
L 363.960867 408.630561 
L 400.914509 349.601489 
L 410.992775 334.074698 
L 421.071042 319.051635 
L 427.789886 309.37099 
L 434.50873 299.990629 
L 441.227574 290.9336 
L 447.946418 282.218628 
L 454.665262 273.860184 
L 461.384106 265.868637 
L 468.10295 258.250483 
L 474.821794 251.008627 
L 481.540638 244.142715 
L 488.259482 237.64948 
L 494.978326 231.523108 
L 501.69717 225.755603 
L 508.416014 220.337141 
L 515.134859 215.256409 
L 521.853703 210.500925 
L 528.572547 206.057321 
L 535.291391 201.911612 
L 542.010235 198.049422 
L 548.729079 194.45619 
L 555.447923 191.117343 
L 562.166767 188.018441 
L 568.885611 185.145301 
L 575.604455 182.484094 
L 582.323299 180.021424 
L 589.042143 177.744385 
L 595.760987 175.64061 
L 605.839253 172.784158 
L 615.91752 170.25377 
L 622.636364 168.730899 
L 622.636364 168.730899 
" style="fill:none;stroke:#9467bd;stroke-linecap:square;stroke-width:1.5;"/>
   </g>
   <g id="line2d_38">
    <path clip-path="url(#pd63b3f1481)" d="M 115.363636 605.290909 
L 118.723058 605.197577 
L 122.08248 604.950235 
L 128.801325 604.130665 
L 135.520169 603.009116 
L 142.239013 601.665156 
L 148.957857 600.131127 
L 155.676701 598.416292 
L 162.395545 596.518475 
L 169.114389 594.429692 
L 175.833233 592.138887 
L 182.552077 589.633296 
L 189.270921 586.899138 
L 195.989765 583.922022 
L 202.708609 580.687208 
L 209.427453 577.179823 
L 216.146297 573.385064 
L 222.865141 569.288422 
L 229.583986 564.875914 
L 236.30283 560.134351 
L 243.021674 555.051626 
L 249.740518 549.617028 
L 256.459362 543.821569 
L 263.178206 537.658337 
L 269.89705 531.122839 
L 276.615894 524.213349 
L 283.334738 516.931231 
L 290.053582 509.281241 
L 296.772426 501.27177 
L 303.49127 492.915045 
L 310.210114 484.227236 
L 316.928958 475.228498 
L 323.647803 465.942905 
L 333.726069 451.538493 
L 343.804335 436.660309 
L 357.242023 416.299581 
L 394.195665 359.729716 
L 404.273931 344.788169 
L 414.352197 330.285155 
L 421.071042 320.90938 
L 427.789886 311.797397 
L 434.50873 302.970389 
L 441.227574 294.445864 
L 447.946418 286.237703 
L 454.665262 278.356275 
L 461.384106 270.808612 
L 468.10295 263.598639 
L 474.821794 256.727428 
L 481.540638 250.193484 
L 488.259482 243.993039 
L 494.978326 238.12035 
L 501.69717 232.567991 
L 508.416014 227.327136 
L 515.134859 222.387822 
L 521.853703 217.739197 
L 528.572547 213.369742 
L 535.291391 209.267473 
L 542.010235 205.420118 
L 548.729079 201.81527 
L 555.447923 198.440523 
L 562.166767 195.283582 
L 568.885611 192.332357 
L 575.604455 189.575042 
L 582.323299 187.000169 
L 589.042143 184.596662 
L 599.120409 181.289535 
L 609.198675 178.310079 
L 619.276942 175.626628 
L 622.636364 174.792796 
L 622.636364 174.792796 
" style="fill:none;stroke:#8c564b;stroke-linecap:square;stroke-width:1.5;"/>
   </g>
   <g id="line2d_39">
    <path clip-path="url(#pd63b3f1481)" d="M 115.363636 605.290909 
L 122.08248 605.152343 
L 128.801325 604.779501 
L 135.520169 604.217772 
L 142.239013 603.493913 
L 152.317279 602.132204 
L 162.395545 600.447469 
L 169.114389 599.137935 
L 175.833233 597.66885 
L 182.552077 596.028048 
L 189.270921 594.201079 
L 195.989765 592.171537 
L 202.708609 589.921303 
L 209.427453 587.430742 
L 216.146297 584.678873 
L 222.865141 581.643567 
L 229.583986 578.301753 
L 236.30283 574.629687 
L 243.021674 570.603267 
L 249.740518 566.198421 
L 256.459362 561.39157 
L 263.178206 556.160166 
L 269.89705 550.483312 
L 276.615894 544.342448 
L 283.334738 537.722103 
L 290.053582 530.610676 
L 296.772426 523.00124 
L 303.49127 514.892311 
L 310.210114 506.288564 
L 316.928958 497.201436 
L 323.647803 487.649574 
L 330.366647 477.659092 
L 337.085491 467.263582 
L 343.804335 456.503875 
L 353.882601 439.787111 
L 363.960867 422.543715 
L 380.757977 393.199626 
L 397.555087 363.972117 
L 407.633353 346.893643 
L 417.71162 330.383305 
L 424.430464 319.768126 
L 431.149308 309.510416 
L 437.868152 299.64058 
L 444.586996 290.182462 
L 451.30584 281.153551 
L 458.024684 272.56534 
L 464.743528 264.423793 
L 471.462372 256.729895 
L 478.181216 249.480242 
L 484.90006 242.667654 
L 491.618904 236.281778 
L 498.337748 230.309674 
L 505.056592 224.736356 
L 511.775436 219.54529 
L 518.494281 214.718844 
L 525.213125 210.238675 
L 531.931969 206.086071 
L 538.650813 202.242238 
L 545.369657 198.688532 
L 552.088501 195.406661 
L 558.807345 192.37883 
L 565.526189 189.58786 
L 572.245033 187.01728 
L 578.963877 184.651381 
L 585.682721 182.475258 
L 592.401565 180.47483 
L 599.120409 178.636843 
L 609.198675 176.157463 
L 619.276942 173.977202 
L 622.636364 173.310812 
L 622.636364 173.310812 
" style="fill:none;stroke:#e377c2;stroke-linecap:square;stroke-width:1.5;"/>
   </g>
   <g id="line2d_40">
    <path clip-path="url(#pd63b3f1481)" d="M 115.363636 605.290909 
L 118.723058 605.197112 
L 122.08248 604.93542 
L 125.441902 604.52989 
L 132.160747 603.355463 
L 138.879591 601.771517 
L 145.598435 599.832849 
L 152.317279 597.569636 
L 159.036123 594.998026 
L 165.754967 592.126303 
L 172.473811 588.958473 
L 179.192655 585.496374 
L 185.911499 581.740924 
L 192.630343 577.692871 
L 199.349187 573.353247 
L 206.068031 568.723664 
L 212.786875 563.806495 
L 219.505719 558.605001 
L 226.224564 553.12342 
L 232.943408 547.367023 
L 239.662252 541.342154 
L 246.381096 535.056254 
L 253.09994 528.517869 
L 259.818784 521.736641 
L 266.537628 514.72329 
L 276.615894 503.794039 
L 286.69416 492.413058 
L 296.772426 480.628745 
L 306.850692 468.493441 
L 316.928958 456.062689 
L 330.366647 439.129099 
L 347.163757 417.583308 
L 387.476821 365.706734 
L 400.914509 348.812453 
L 414.352197 332.302667 
L 424.430464 320.227365 
L 434.50873 308.451381 
L 444.586996 297.001711 
L 454.665262 285.900283 
L 464.743528 275.164114 
L 474.821794 264.805538 
L 484.90006 254.832518 
L 494.978326 245.248996 
L 505.056592 236.055291 
L 515.134859 227.248506 
L 525.213125 218.822946 
L 535.291391 210.770531 
L 545.369657 203.081194 
L 555.447923 195.743253 
L 565.526189 188.743764 
L 575.604455 182.068838 
L 585.682721 175.703924 
L 595.760987 169.634064 
L 605.839253 163.844114 
L 615.91752 158.31893 
L 622.636364 154.775157 
L 622.636364 154.775157 
" style="fill:none;stroke:#7f7f7f;stroke-linecap:square;stroke-width:1.5;"/>
   </g>
   <g id="line2d_41">
    <path clip-path="url(#pd63b3f1481)" d="M 115.363636 605.290909 
L 122.08248 605.080524 
L 128.801325 604.541612 
L 135.520169 603.756532 
L 142.239013 602.762251 
L 148.957857 601.571957 
L 155.676701 600.186237 
L 162.395545 598.598884 
L 169.114389 596.799939 
L 175.833233 594.777288 
L 182.552077 592.51755 
L 189.270921 590.006576 
L 195.989765 587.229788 
L 202.708609 584.172426 
L 209.427453 580.819767 
L 216.146297 577.157351 
L 222.865141 573.171202 
L 229.583986 568.848083 
L 236.30283 564.175762 
L 243.021674 559.143293 
L 249.740518 553.741316 
L 256.459362 547.962369 
L 263.178206 541.801187 
L 269.89705 535.255014 
L 276.615894 528.323875 
L 283.334738 521.010838 
L 290.053582 513.322228 
L 296.772426 505.267785 
L 303.49127 496.860771 
L 310.210114 488.118 
L 316.928958 479.059789 
L 323.647803 469.709836 
L 333.726069 455.197457 
L 343.804335 440.192225 
L 353.882601 424.808234 
L 370.679711 398.660595 
L 394.195665 361.968572 
L 407.633353 341.479987 
L 417.71162 326.535613 
L 427.789886 312.052384 
L 437.868152 298.104326 
L 444.586996 289.132789 
L 451.30584 280.439627 
L 458.024684 272.035917 
L 464.743528 263.930027 
L 471.462372 256.127771 
L 478.181216 248.632587 
L 484.90006 241.445725 
L 491.618904 234.566458 
L 498.337748 227.992286 
L 505.056592 221.719146 
L 511.775436 215.74162 
L 518.494281 210.053129 
L 525.213125 204.646118 
L 531.931969 199.512239 
L 538.650813 194.642507 
L 545.369657 190.027449 
L 552.088501 185.657238 
L 558.807345 181.521816 
L 565.526189 177.610994 
L 572.245033 173.91455 
L 578.963877 170.422306 
L 585.682721 167.124197 
L 592.401565 164.01033 
L 599.120409 161.071029 
L 609.198675 156.968865 
L 619.276942 153.207813 
L 622.636364 152.024883 
L 622.636364 152.024883 
" style="fill:none;stroke:#bcbd22;stroke-linecap:square;stroke-width:1.5;"/>
   </g>
   <g id="line2d_42">
    <path clip-path="url(#pd63b3f1481)" d="M 115.363636 605.290909 
L 118.723058 605.290909 
L 122.08248 599.672855 
L 125.441902 599.672855 
L 128.801325 597.690012 
L 132.160747 594.054801 
L 135.520169 593.393853 
L 138.879591 590.419589 
L 148.957857 590.419589 
L 152.317279 584.801535 
L 155.676701 584.801535 
L 159.036123 579.844428 
L 162.395545 577.200638 
L 165.754967 576.539691 
L 172.473811 576.539691 
L 175.833233 571.25211 
L 179.192655 570.260689 
L 182.552077 568.938794 
L 185.911499 568.938794 
L 189.270921 563.320739 
L 195.989765 563.320739 
L 199.349187 559.685528 
L 202.708609 559.02458 
L 206.068031 557.702685 
L 209.427453 555.058895 
L 212.786875 553.737 
L 216.146297 551.09321 
L 219.505719 547.457998 
L 222.865141 544.15326 
L 229.583986 544.15326 
L 232.943408 540.187575 
L 236.30283 540.187575 
L 243.021674 538.86568 
L 249.740518 536.22189 
L 256.459362 534.239047 
L 259.818784 532.917152 
L 263.178206 531.264783 
L 266.537628 530.603836 
L 269.89705 527.629572 
L 273.256472 525.646729 
L 276.615894 522.341991 
L 279.975316 522.341991 
L 283.334738 522.011517 
L 286.69416 522.011517 
L 290.053582 521.020096 
L 293.413004 519.698201 
L 296.772426 517.384885 
L 303.49127 512.097304 
L 306.850692 507.140197 
L 313.569536 503.83546 
L 316.928958 499.539301 
L 320.28838 495.904089 
L 323.647803 491.277456 
L 327.007225 487.642245 
L 330.366647 483.346086 
L 333.726069 478.719453 
L 337.085491 474.423294 
L 340.444913 470.788082 
L 343.804335 462.526238 
L 347.163757 458.560552 
L 350.523179 445.341601 
L 353.882601 441.70639 
L 357.242023 439.393073 
L 360.601445 430.800755 
L 363.960867 417.912278 
L 367.320289 411.302802 
L 370.679711 403.040958 
L 374.039133 395.109587 
L 377.398555 394.44864 
L 380.757977 391.143902 
L 384.117399 384.8649 
L 387.476821 383.873479 
L 390.836243 369.002159 
L 394.195665 356.113682 
L 397.555087 355.452734 
L 400.914509 352.147996 
L 404.273931 344.216626 
L 407.633353 339.259519 
L 410.992775 334.632886 
L 414.352197 322.73583 
L 417.71162 321.083461 
L 421.071042 315.465407 
L 424.430464 306.873089 
L 427.789886 303.898825 
L 431.149308 293.654138 
L 434.50873 291.671295 
L 437.868152 280.104713 
L 441.227574 276.139028 
L 444.586996 271.512395 
L 447.946418 271.512395 
L 451.30584 260.937234 
L 454.665262 256.310601 
L 458.024684 251.353494 
L 464.743528 249.370652 
L 468.10295 244.083071 
L 471.462372 243.752597 
L 474.821794 241.769755 
L 478.181216 240.778334 
L 481.540638 234.829806 
L 484.90006 228.22033 
L 488.259482 225.907014 
L 491.618904 224.254645 
L 494.978326 220.949907 
L 501.69717 219.628012 
L 505.056592 217.975643 
L 508.416014 216.984222 
L 511.775436 211.035694 
L 515.134859 208.722377 
L 518.494281 208.06143 
L 521.853703 206.409061 
L 525.213125 205.417639 
L 528.572547 203.434797 
L 531.931969 202.112902 
L 538.650813 200.130059 
L 542.010235 196.825321 
L 545.369657 196.164374 
L 552.088501 196.164374 
L 555.447923 194.512005 
L 558.807345 194.512005 
L 562.166767 187.902529 
L 565.526189 186.25016 
L 568.885611 186.25016 
L 572.245033 185.589213 
L 578.963877 184.928265 
L 582.323299 184.928265 
L 585.682721 183.60637 
L 589.042143 181.954001 
L 592.401565 180.96258 
L 599.120409 180.96258 
L 602.479831 178.979737 
L 609.198675 178.979737 
L 612.558098 178.649264 
L 615.91752 178.649264 
L 619.276942 178.31879 
L 622.636364 178.31879 
L 622.636364 178.31879 
" style="fill:none;stroke:#17becf;stroke-dasharray:14.8,6.4;stroke-dashoffset:0;stroke-width:4;"/>
   </g>
   <g id="patch_3">
    <path d="M 90 630 
L 90 86.4 
" style="fill:none;stroke:#000000;stroke-linecap:square;stroke-linejoin:miter;stroke-width:0.8;"/>
   </g>
   <g id="patch_4">
    <path d="M 648 630 
L 648 86.4 
" style="fill:none;stroke:#000000;stroke-linecap:square;stroke-linejoin:miter;stroke-width:0.8;"/>
   </g>
   <g id="patch_5">
    <path d="M 90 630 
L 648 630 
" style="fill:none;stroke:#000000;stroke-linecap:square;stroke-linejoin:miter;stroke-width:0.8;"/>
   </g>
   <g id="patch_6">
    <path d="M 90 86.4 
L 648 86.4 
" style="fill:none;stroke:#000000;stroke-linecap:square;stroke-linejoin:miter;stroke-width:0.8;"/>
   </g>
   <g id="text_19">
    <!-- Liberia relative err =  -->
    <g transform="translate(304.874063 80.4)scale(0.12 -0.12)">
     <defs>
      <path d="M 9.8125 72.90625 
L 19.671875 72.90625 
L 19.671875 8.296875 
L 55.171875 8.296875 
L 55.171875 0 
L 9.8125 0 
z
" id="DejaVuSans-76"/>
      <path d="M 48.6875 27.296875 
Q 48.6875 37.203125 44.609375 42.84375 
Q 40.53125 48.484375 33.40625 48.484375 
Q 26.265625 48.484375 22.1875 42.84375 
Q 18.109375 37.203125 18.109375 27.296875 
Q 18.109375 17.390625 22.1875 11.75 
Q 26.265625 6.109375 33.40625 6.109375 
Q 40.53125 6.109375 44.609375 11.75 
Q 48.6875 17.390625 48.6875 27.296875 
z
M 18.109375 46.390625 
Q 20.953125 51.265625 25.265625 53.625 
Q 29.59375 56 35.59375 56 
Q 45.5625 56 51.78125 48.09375 
Q 58.015625 40.1875 58.015625 27.296875 
Q 58.015625 14.40625 51.78125 6.484375 
Q 45.5625 -1.421875 35.59375 -1.421875 
Q 29.59375 -1.421875 25.265625 0.953125 
Q 20.953125 3.328125 18.109375 8.203125 
L 18.109375 0 
L 9.078125 0 
L 9.078125 75.984375 
L 18.109375 75.984375 
z
" id="DejaVuSans-98"/>
      <path d="M 41.109375 46.296875 
Q 39.59375 47.171875 37.8125 47.578125 
Q 36.03125 48 33.890625 48 
Q 26.265625 48 22.1875 43.046875 
Q 18.109375 38.09375 18.109375 28.8125 
L 18.109375 0 
L 9.078125 0 
L 9.078125 54.6875 
L 18.109375 54.6875 
L 18.109375 46.1875 
Q 20.953125 51.171875 25.484375 53.578125 
Q 30.03125 56 36.53125 56 
Q 37.453125 56 38.578125 55.875 
Q 39.703125 55.765625 41.0625 55.515625 
z
" id="DejaVuSans-114"/>
      <path d="M 10.59375 45.40625 
L 73.1875 45.40625 
L 73.1875 37.203125 
L 10.59375 37.203125 
z
M 10.59375 25.484375 
L 73.1875 25.484375 
L 73.1875 17.1875 
L 10.59375 17.1875 
z
" id="DejaVuSans-61"/>
     </defs>
     <use xlink:href="#DejaVuSans-76"/>
     <use x="55.712891" xlink:href="#DejaVuSans-105"/>
     <use x="83.496094" xlink:href="#DejaVuSans-98"/>
     <use x="146.972656" xlink:href="#DejaVuSans-101"/>
     <use x="208.496094" xlink:href="#DejaVuSans-114"/>
     <use x="249.609375" xlink:href="#DejaVuSans-105"/>
     <use x="277.392578" xlink:href="#DejaVuSans-97"/>
     <use x="338.671875" xlink:href="#DejaVuSans-32"/>
     <use x="370.458984" xlink:href="#DejaVuSans-114"/>
     <use x="409.322266" xlink:href="#DejaVuSans-101"/>
     <use x="470.845703" xlink:href="#DejaVuSans-108"/>
     <use x="498.628906" xlink:href="#DejaVuSans-97"/>
     <use x="559.908203" xlink:href="#DejaVuSans-116"/>
     <use x="599.117188" xlink:href="#DejaVuSans-105"/>
     <use x="626.900391" xlink:href="#DejaVuSans-118"/>
     <use x="686.080078" xlink:href="#DejaVuSans-101"/>
     <use x="747.603516" xlink:href="#DejaVuSans-32"/>
     <use x="779.390625" xlink:href="#DejaVuSans-101"/>
     <use x="840.914062" xlink:href="#DejaVuSans-114"/>
     <use x="880.277344" xlink:href="#DejaVuSans-114"/>
     <use x="921.390625" xlink:href="#DejaVuSans-32"/>
     <use x="953.177734" xlink:href="#DejaVuSans-61"/>
     <use x="1036.966797" xlink:href="#DejaVuSans-32"/>
    </g>
   </g>
   <g id="legend_1">
    <g id="patch_7">
     <path d="M 97 226.503125 
L 185.6 226.503125 
Q 187.6 226.503125 187.6 224.503125 
L 187.6 93.4 
Q 187.6 91.4 185.6 91.4 
L 97 91.4 
Q 95 91.4 95 93.4 
L 95 224.503125 
Q 95 226.503125 97 226.503125 
z
" style="fill:#ffffff;opacity:0.8;stroke:#cccccc;stroke-linejoin:miter;"/>
    </g>
    <g id="line2d_43">
     <path d="M 99 99.498438 
L 119 99.498438 
" style="fill:none;stroke:#1f77b4;stroke-linecap:square;stroke-width:1.5;"/>
    </g>
    <g id="line2d_44"/>
    <g id="text_20">
     <!-- SI -->
     <g transform="translate(127 102.998438)scale(0.1 -0.1)">
      <defs>
       <path d="M 53.515625 70.515625 
L 53.515625 60.890625 
Q 47.90625 63.578125 42.921875 64.890625 
Q 37.9375 66.21875 33.296875 66.21875 
Q 25.25 66.21875 20.875 63.09375 
Q 16.5 59.96875 16.5 54.203125 
Q 16.5 49.359375 19.40625 46.890625 
Q 22.3125 44.4375 30.421875 42.921875 
L 36.375 41.703125 
Q 47.40625 39.59375 52.65625 34.296875 
Q 57.90625 29 57.90625 20.125 
Q 57.90625 9.515625 50.796875 4.046875 
Q 43.703125 -1.421875 29.984375 -1.421875 
Q 24.8125 -1.421875 18.96875 -0.25 
Q 13.140625 0.921875 6.890625 3.21875 
L 6.890625 13.375 
Q 12.890625 10.015625 18.65625 8.296875 
Q 24.421875 6.59375 29.984375 6.59375 
Q 38.421875 6.59375 43.015625 9.90625 
Q 47.609375 13.234375 47.609375 19.390625 
Q 47.609375 24.75 44.3125 27.78125 
Q 41.015625 30.8125 33.5 32.328125 
L 27.484375 33.5 
Q 16.453125 35.6875 11.515625 40.375 
Q 6.59375 45.0625 6.59375 53.421875 
Q 6.59375 63.09375 13.40625 68.65625 
Q 20.21875 74.21875 32.171875 74.21875 
Q 37.3125 74.21875 42.625 73.28125 
Q 47.953125 72.359375 53.515625 70.515625 
z
" id="DejaVuSans-83"/>
       <path d="M 9.8125 72.90625 
L 19.671875 72.90625 
L 19.671875 0 
L 9.8125 0 
z
" id="DejaVuSans-73"/>
      </defs>
      <use xlink:href="#DejaVuSans-83"/>
      <use x="63.476562" xlink:href="#DejaVuSans-73"/>
     </g>
    </g>
    <g id="line2d_45">
     <path d="M 99 114.176563 
L 119 114.176563 
" style="fill:none;stroke:#ff7f0e;stroke-linecap:square;stroke-width:1.5;"/>
    </g>
    <g id="line2d_46"/>
    <g id="text_21">
     <!-- BD -->
     <g transform="translate(127 117.676563)scale(0.1 -0.1)">
      <defs>
       <path d="M 19.671875 34.8125 
L 19.671875 8.109375 
L 35.5 8.109375 
Q 43.453125 8.109375 47.28125 11.40625 
Q 51.125 14.703125 51.125 21.484375 
Q 51.125 28.328125 47.28125 31.5625 
Q 43.453125 34.8125 35.5 34.8125 
z
M 19.671875 64.796875 
L 19.671875 42.828125 
L 34.28125 42.828125 
Q 41.5 42.828125 45.03125 45.53125 
Q 48.578125 48.25 48.578125 53.8125 
Q 48.578125 59.328125 45.03125 62.0625 
Q 41.5 64.796875 34.28125 64.796875 
z
M 9.8125 72.90625 
L 35.015625 72.90625 
Q 46.296875 72.90625 52.390625 68.21875 
Q 58.5 63.53125 58.5 54.890625 
Q 58.5 48.1875 55.375 44.234375 
Q 52.25 40.28125 46.1875 39.3125 
Q 53.46875 37.75 57.5 32.78125 
Q 61.53125 27.828125 61.53125 20.40625 
Q 61.53125 10.640625 54.890625 5.3125 
Q 48.25 0 35.984375 0 
L 9.8125 0 
z
" id="DejaVuSans-66"/>
      </defs>
      <use xlink:href="#DejaVuSans-66"/>
      <use x="68.603516" xlink:href="#DejaVuSans-68"/>
     </g>
    </g>
    <g id="line2d_47">
     <path d="M 99 128.854688 
L 119 128.854688 
" style="fill:none;stroke:#2ca02c;stroke-linecap:square;stroke-width:1.5;"/>
    </g>
    <g id="line2d_48"/>
    <g id="text_22">
     <!-- SIR -->
     <g transform="translate(127 132.354688)scale(0.1 -0.1)">
      <defs>
       <path d="M 44.390625 34.1875 
Q 47.5625 33.109375 50.5625 29.59375 
Q 53.5625 26.078125 56.59375 19.921875 
L 66.609375 0 
L 56 0 
L 46.6875 18.703125 
Q 43.0625 26.03125 39.671875 28.421875 
Q 36.28125 30.8125 30.421875 30.8125 
L 19.671875 30.8125 
L 19.671875 0 
L 9.8125 0 
L 9.8125 72.90625 
L 32.078125 72.90625 
Q 44.578125 72.90625 50.734375 67.671875 
Q 56.890625 62.453125 56.890625 51.90625 
Q 56.890625 45.015625 53.6875 40.46875 
Q 50.484375 35.9375 44.390625 34.1875 
z
M 19.671875 64.796875 
L 19.671875 38.921875 
L 32.078125 38.921875 
Q 39.203125 38.921875 42.84375 42.21875 
Q 46.484375 45.515625 46.484375 51.90625 
Q 46.484375 58.296875 42.84375 61.546875 
Q 39.203125 64.796875 32.078125 64.796875 
z
" id="DejaVuSans-82"/>
      </defs>
      <use xlink:href="#DejaVuSans-83"/>
      <use x="63.476562" xlink:href="#DejaVuSans-73"/>
      <use x="92.96875" xlink:href="#DejaVuSans-82"/>
     </g>
    </g>
    <g id="line2d_49">
     <path d="M 99 143.532812 
L 119 143.532812 
" style="fill:none;stroke:#d62728;stroke-linecap:square;stroke-width:1.5;"/>
    </g>
    <g id="line2d_50"/>
    <g id="text_23">
     <!-- eSIR -->
     <g transform="translate(127 147.032812)scale(0.1 -0.1)">
      <use xlink:href="#DejaVuSans-101"/>
      <use x="61.523438" xlink:href="#DejaVuSans-83"/>
      <use x="125" xlink:href="#DejaVuSans-73"/>
      <use x="154.492188" xlink:href="#DejaVuSans-82"/>
     </g>
    </g>
    <g id="line2d_51">
     <path d="M 99 158.210938 
L 119 158.210938 
" style="fill:none;stroke:#9467bd;stroke-linecap:square;stroke-width:1.5;"/>
    </g>
    <g id="line2d_52"/>
    <g id="text_24">
     <!-- SEIR -->
     <g transform="translate(127 161.710938)scale(0.1 -0.1)">
      <defs>
       <path d="M 9.8125 72.90625 
L 55.90625 72.90625 
L 55.90625 64.59375 
L 19.671875 64.59375 
L 19.671875 43.015625 
L 54.390625 43.015625 
L 54.390625 34.71875 
L 19.671875 34.71875 
L 19.671875 8.296875 
L 56.78125 8.296875 
L 56.78125 0 
L 9.8125 0 
z
" id="DejaVuSans-69"/>
      </defs>
      <use xlink:href="#DejaVuSans-83"/>
      <use x="63.476562" xlink:href="#DejaVuSans-69"/>
      <use x="126.660156" xlink:href="#DejaVuSans-73"/>
      <use x="156.152344" xlink:href="#DejaVuSans-82"/>
     </g>
    </g>
    <g id="line2d_53">
     <path d="M 99 172.889063 
L 119 172.889063 
" style="fill:none;stroke:#8c564b;stroke-linecap:square;stroke-width:1.5;"/>
    </g>
    <g id="line2d_54"/>
    <g id="text_25">
     <!-- eSEIR -->
     <g transform="translate(127 176.389063)scale(0.1 -0.1)">
      <use xlink:href="#DejaVuSans-101"/>
      <use x="61.523438" xlink:href="#DejaVuSans-83"/>
      <use x="125" xlink:href="#DejaVuSans-69"/>
      <use x="188.183594" xlink:href="#DejaVuSans-73"/>
      <use x="217.675781" xlink:href="#DejaVuSans-82"/>
     </g>
    </g>
    <g id="line2d_55">
     <path d="M 99 187.567188 
L 119 187.567188 
" style="fill:none;stroke:#e377c2;stroke-linecap:square;stroke-width:1.5;"/>
    </g>
    <g id="line2d_56"/>
    <g id="text_26">
     <!-- SEIUR -->
     <g transform="translate(127 191.067188)scale(0.1 -0.1)">
      <defs>
       <path d="M 8.6875 72.90625 
L 18.609375 72.90625 
L 18.609375 28.609375 
Q 18.609375 16.890625 22.84375 11.734375 
Q 27.09375 6.59375 36.625 6.59375 
Q 46.09375 6.59375 50.34375 11.734375 
Q 54.59375 16.890625 54.59375 28.609375 
L 54.59375 72.90625 
L 64.5 72.90625 
L 64.5 27.390625 
Q 64.5 13.140625 57.4375 5.859375 
Q 50.390625 -1.421875 36.625 -1.421875 
Q 22.796875 -1.421875 15.734375 5.859375 
Q 8.6875 13.140625 8.6875 27.390625 
z
" id="DejaVuSans-85"/>
      </defs>
      <use xlink:href="#DejaVuSans-83"/>
      <use x="63.476562" xlink:href="#DejaVuSans-69"/>
      <use x="126.660156" xlink:href="#DejaVuSans-73"/>
      <use x="156.152344" xlink:href="#DejaVuSans-85"/>
      <use x="229.345703" xlink:href="#DejaVuSans-82"/>
     </g>
    </g>
    <g id="line2d_57">
     <path d="M 99 202.245312 
L 119 202.245312 
" style="fill:none;stroke:#7f7f7f;stroke-linecap:square;stroke-width:1.5;"/>
    </g>
    <g id="line2d_58"/>
    <g id="text_27">
     <!-- eSEIUR -->
     <g transform="translate(127 205.745312)scale(0.1 -0.1)">
      <use xlink:href="#DejaVuSans-101"/>
      <use x="61.523438" xlink:href="#DejaVuSans-83"/>
      <use x="125" xlink:href="#DejaVuSans-69"/>
      <use x="188.183594" xlink:href="#DejaVuSans-73"/>
      <use x="217.675781" xlink:href="#DejaVuSans-85"/>
      <use x="290.869141" xlink:href="#DejaVuSans-82"/>
     </g>
    </g>
    <g id="line2d_59">
     <path d="M 99 216.923437 
L 119 216.923437 
" style="fill:none;stroke:#bcbd22;stroke-linecap:square;stroke-width:1.5;"/>
    </g>
    <g id="line2d_60"/>
    <g id="text_28">
     <!-- eSEIUR$^{range}$ -->
     <g transform="translate(127 220.423437)scale(0.1 -0.1)">
      <defs>
       <path d="M 44.578125 46.390625 
Q 43.21875 47.125 41.453125 47.515625 
Q 39.703125 47.90625 37.703125 47.90625 
Q 30.515625 47.90625 25.140625 42.453125 
Q 19.78125 37.015625 18.015625 27.875 
L 12.5 0 
L 3.515625 0 
L 14.203125 54.6875 
L 23.1875 54.6875 
L 21.484375 46.1875 
Q 25.046875 50.921875 30 53.453125 
Q 34.96875 56 40.578125 56 
Q 42.046875 56 43.453125 55.828125 
Q 44.875 55.671875 46.296875 55.28125 
z
" id="DejaVuSans-Oblique-114"/>
       <path d="M 53.71875 31.203125 
L 47.609375 0 
L 38.625 0 
L 40.28125 8.296875 
Q 36.328125 3.421875 31.265625 1 
Q 26.21875 -1.421875 20.015625 -1.421875 
Q 13.03125 -1.421875 8.5625 2.84375 
Q 4.109375 7.125 4.109375 13.8125 
Q 4.109375 23.390625 11.75 28.953125 
Q 19.390625 34.515625 32.8125 34.515625 
L 45.3125 34.515625 
L 45.796875 36.921875 
Q 45.90625 37.3125 45.953125 37.765625 
Q 46 38.234375 46 39.203125 
Q 46 43.5625 42.453125 45.96875 
Q 38.921875 48.390625 32.515625 48.390625 
Q 28.125 48.390625 23.5 47.265625 
Q 18.890625 46.140625 14.015625 43.890625 
L 15.578125 52.203125 
Q 20.65625 54.109375 25.515625 55.046875 
Q 30.375 56 34.90625 56 
Q 44.578125 56 49.625 51.796875 
Q 54.6875 47.609375 54.6875 39.59375 
Q 54.6875 37.984375 54.4375 35.8125 
Q 54.203125 33.640625 53.71875 31.203125 
z
M 44 27.484375 
L 35.015625 27.484375 
Q 23.96875 27.484375 18.671875 24.53125 
Q 13.375 21.578125 13.375 15.375 
Q 13.375 11.078125 16.078125 8.640625 
Q 18.796875 6.203125 23.578125 6.203125 
Q 30.90625 6.203125 36.375 11.453125 
Q 41.84375 16.703125 43.609375 25.484375 
z
" id="DejaVuSans-Oblique-97"/>
       <path d="M 55.71875 33.015625 
L 49.3125 0 
L 40.28125 0 
L 46.6875 32.671875 
Q 47.125 34.96875 47.359375 36.71875 
Q 47.609375 38.484375 47.609375 39.5 
Q 47.609375 43.609375 45.015625 45.890625 
Q 42.4375 48.1875 37.796875 48.1875 
Q 30.5625 48.1875 25.34375 43.375 
Q 20.125 38.578125 18.5 30.328125 
L 12.5 0 
L 3.515625 0 
L 14.109375 54.6875 
L 23.09375 54.6875 
L 21.296875 46.09375 
Q 25.046875 50.828125 30.3125 53.40625 
Q 35.59375 56 41.40625 56 
Q 48.640625 56 52.609375 52.09375 
Q 56.59375 48.1875 56.59375 41.109375 
Q 56.59375 39.359375 56.375 37.359375 
Q 56.15625 35.359375 55.71875 33.015625 
z
" id="DejaVuSans-Oblique-110"/>
       <path d="M 59.625 54.6875 
L 50.296875 6.78125 
Q 47.609375 -7.125 40.015625 -13.953125 
Q 32.421875 -20.796875 19.578125 -20.796875 
Q 14.84375 -20.796875 10.78125 -20.09375 
Q 6.734375 -19.390625 3.21875 -17.921875 
L 4.890625 -9.1875 
Q 8.203125 -11.328125 11.90625 -12.34375 
Q 15.625 -13.375 19.828125 -13.375 
Q 28.375 -13.375 33.859375 -8.703125 
Q 39.359375 -4.046875 41.109375 4.6875 
L 41.890625 8.796875 
Q 38.140625 4.5 33.15625 2.25 
Q 28.171875 0 22.40625 0 
Q 14.109375 0 9.34375 5.484375 
Q 4.59375 10.984375 4.59375 20.609375 
Q 4.59375 28.171875 7.46875 35.421875 
Q 10.359375 42.671875 15.578125 48.296875 
Q 19.046875 52 23.65625 54 
Q 28.265625 56 33.296875 56 
Q 38.8125 56 42.90625 53.4375 
Q 47.015625 50.875 49.03125 46.1875 
L 50.59375 54.6875 
z
M 46.09375 34.625 
Q 46.09375 41.265625 42.96875 44.875 
Q 39.84375 48.484375 34.078125 48.484375 
Q 30.515625 48.484375 27.296875 47.0625 
Q 24.078125 45.65625 21.78125 43.109375 
Q 18.0625 38.921875 15.984375 33.234375 
Q 13.921875 27.546875 13.921875 21.484375 
Q 13.921875 14.75 17.0625 11.125 
Q 20.21875 7.515625 26.125 7.515625 
Q 34.671875 7.515625 40.375 15.25 
Q 46.09375 23 46.09375 34.625 
z
" id="DejaVuSans-Oblique-103"/>
       <path d="M 48.09375 32.234375 
Q 48.25 33.015625 48.3125 33.84375 
Q 48.390625 34.671875 48.390625 35.5 
Q 48.390625 41.453125 44.890625 44.921875 
Q 41.40625 48.390625 35.40625 48.390625 
Q 28.71875 48.390625 23.578125 44.15625 
Q 18.453125 39.9375 15.828125 32.171875 
z
M 55.90625 25.203125 
L 14.109375 25.203125 
Q 13.8125 23.34375 13.71875 22.265625 
Q 13.625 21.1875 13.625 20.40625 
Q 13.625 13.625 17.796875 9.90625 
Q 21.96875 6.203125 29.59375 6.203125 
Q 35.453125 6.203125 40.671875 7.515625 
Q 45.90625 8.84375 50.390625 11.375 
L 48.6875 2.484375 
Q 43.84375 0.53125 38.6875 -0.4375 
Q 33.546875 -1.421875 28.21875 -1.421875 
Q 16.84375 -1.421875 10.71875 4.015625 
Q 4.59375 9.46875 4.59375 19.484375 
Q 4.59375 28.03125 7.640625 35.375 
Q 10.6875 42.71875 16.609375 48.484375 
Q 20.40625 52.09375 25.65625 54.046875 
Q 30.90625 56 36.8125 56 
Q 46.09375 56 51.578125 50.4375 
Q 57.078125 44.875 57.078125 35.5 
Q 57.078125 33.25 56.78125 30.6875 
Q 56.5 28.125 55.90625 25.203125 
z
" id="DejaVuSans-Oblique-101"/>
      </defs>
      <use transform="translate(0 0.51875)" xlink:href="#DejaVuSans-101"/>
      <use transform="translate(61.523438 0.51875)" xlink:href="#DejaVuSans-83"/>
      <use transform="translate(125 0.51875)" xlink:href="#DejaVuSans-69"/>
      <use transform="translate(188.183594 0.51875)" xlink:href="#DejaVuSans-73"/>
      <use transform="translate(217.675781 0.51875)" xlink:href="#DejaVuSans-85"/>
      <use transform="translate(288.619141 0.51875)" xlink:href="#DejaVuSans-82"/>
      <use transform="translate(359.058594 38.8)scale(0.7)" xlink:href="#DejaVuSans-Oblique-114"/>
      <use transform="translate(387.837891 38.8)scale(0.7)" xlink:href="#DejaVuSans-Oblique-97"/>
      <use transform="translate(430.733398 38.8)scale(0.7)" xlink:href="#DejaVuSans-Oblique-110"/>
      <use transform="translate(475.098633 38.8)scale(0.7)" xlink:href="#DejaVuSans-Oblique-103"/>
      <use transform="translate(519.532227 38.8)scale(0.7)" xlink:href="#DejaVuSans-Oblique-101"/>
     </g>
    </g>
   </g>
  </g>
 </g>
 <defs>
  <clipPath id="pd63b3f1481">
   <rect height="543.6" width="558" x="90" y="86.4"/>
  </clipPath>
 </defs>
</svg>
