<?xml version="1.0" encoding="utf-8" standalone="no"?>
<!DOCTYPE svg PUBLIC "-//W3C//DTD SVG 1.1//EN"
  "http://www.w3.org/Graphics/SVG/1.1/DTD/svg11.dtd">
<!-- Created with matplotlib (https://matplotlib.org/) -->
<svg height="720pt" version="1.1" viewBox="0 0 720 720" width="720pt" xmlns="http://www.w3.org/2000/svg" xmlns:xlink="http://www.w3.org/1999/xlink">
 <metadata>
  <rdf:RDF xmlns:cc="http://creativecommons.org/ns#" xmlns:dc="http://purl.org/dc/elements/1.1/" xmlns:rdf="http://www.w3.org/1999/02/22-rdf-syntax-ns#">
   <cc:Work>
    <dc:type rdf:resource="http://purl.org/dc/dcmitype/StillImage"/>
    <dc:date>2022-07-13T18:53:51.036769</dc:date>
    <dc:format>image/svg+xml</dc:format>
    <dc:creator>
     <cc:Agent>
      <dc:title>Matplotlib v3.3.2, https://matplotlib.org/</dc:title>
     </cc:Agent>
    </dc:creator>
   </cc:Work>
  </rdf:RDF>
 </metadata>
 <defs>
  <style type="text/css">*{stroke-linecap:butt;stroke-linejoin:round;}</style>
 </defs>
 <g id="figure_1">
  <g id="patch_1">
   <path d="M 0 720 
L 720 720 
L 720 0 
L 0 0 
z
" style="fill:none;"/>
  </g>
  <g id="axes_1">
   <g id="patch_2">
    <path d="M 90 630 
L 648 630 
L 648 86.4 
L 90 86.4 
z
" style="fill:#ffffff;"/>
   </g>
   <g id="matplotlib.axis_1">
    <g id="xtick_1">
     <g id="line2d_1">
      <path clip-path="url(#p8ce4d4f49a)" d="M 115.363636 630 
L 115.363636 86.4 
" style="fill:none;stroke:#b0b0b0;stroke-linecap:square;stroke-width:0.8;"/>
     </g>
     <g id="line2d_2">
      <defs>
       <path d="M 0 0 
L 0 3.5 
" id="m019d77de3d" style="stroke:#000000;stroke-width:0.8;"/>
      </defs>
      <g>
       <use style="stroke:#000000;stroke-width:0.8;" x="115.363636" xlink:href="#m019d77de3d" y="630"/>
      </g>
     </g>
     <g id="text_1">
      <!-- 0 -->
      <g transform="translate(112.182386 644.598438)scale(0.1 -0.1)">
       <defs>
        <path d="M 31.78125 66.40625 
Q 24.171875 66.40625 20.328125 58.90625 
Q 16.5 51.421875 16.5 36.375 
Q 16.5 21.390625 20.328125 13.890625 
Q 24.171875 6.390625 31.78125 6.390625 
Q 39.453125 6.390625 43.28125 13.890625 
Q 47.125 21.390625 47.125 36.375 
Q 47.125 51.421875 43.28125 58.90625 
Q 39.453125 66.40625 31.78125 66.40625 
z
M 31.78125 74.21875 
Q 44.046875 74.21875 50.515625 64.515625 
Q 56.984375 54.828125 56.984375 36.375 
Q 56.984375 17.96875 50.515625 8.265625 
Q 44.046875 -1.421875 31.78125 -1.421875 
Q 19.53125 -1.421875 13.0625 8.265625 
Q 6.59375 17.96875 6.59375 36.375 
Q 6.59375 54.828125 13.0625 64.515625 
Q 19.53125 74.21875 31.78125 74.21875 
z
" id="DejaVuSans-48"/>
       </defs>
       <use xlink:href="#DejaVuSans-48"/>
      </g>
     </g>
    </g>
    <g id="xtick_2">
     <g id="line2d_3">
      <path clip-path="url(#p8ce4d4f49a)" d="M 214.054828 630 
L 214.054828 86.4 
" style="fill:none;stroke:#b0b0b0;stroke-linecap:square;stroke-width:0.8;"/>
     </g>
     <g id="line2d_4">
      <g>
       <use style="stroke:#000000;stroke-width:0.8;" x="214.054828" xlink:href="#m019d77de3d" y="630"/>
      </g>
     </g>
     <g id="text_2">
      <!-- 50 -->
      <g transform="translate(207.692328 644.598438)scale(0.1 -0.1)">
       <defs>
        <path d="M 10.796875 72.90625 
L 49.515625 72.90625 
L 49.515625 64.59375 
L 19.828125 64.59375 
L 19.828125 46.734375 
Q 21.96875 47.46875 24.109375 47.828125 
Q 26.265625 48.1875 28.421875 48.1875 
Q 40.625 48.1875 47.75 41.5 
Q 54.890625 34.8125 54.890625 23.390625 
Q 54.890625 11.625 47.5625 5.09375 
Q 40.234375 -1.421875 26.90625 -1.421875 
Q 22.3125 -1.421875 17.546875 -0.640625 
Q 12.796875 0.140625 7.71875 1.703125 
L 7.71875 11.625 
Q 12.109375 9.234375 16.796875 8.0625 
Q 21.484375 6.890625 26.703125 6.890625 
Q 35.15625 6.890625 40.078125 11.328125 
Q 45.015625 15.765625 45.015625 23.390625 
Q 45.015625 31 40.078125 35.4375 
Q 35.15625 39.890625 26.703125 39.890625 
Q 22.75 39.890625 18.8125 39.015625 
Q 14.890625 38.140625 10.796875 36.28125 
z
" id="DejaVuSans-53"/>
       </defs>
       <use xlink:href="#DejaVuSans-53"/>
       <use x="63.623047" xlink:href="#DejaVuSans-48"/>
      </g>
     </g>
    </g>
    <g id="xtick_3">
     <g id="line2d_5">
      <path clip-path="url(#p8ce4d4f49a)" d="M 312.746021 630 
L 312.746021 86.4 
" style="fill:none;stroke:#b0b0b0;stroke-linecap:square;stroke-width:0.8;"/>
     </g>
     <g id="line2d_6">
      <g>
       <use style="stroke:#000000;stroke-width:0.8;" x="312.746021" xlink:href="#m019d77de3d" y="630"/>
      </g>
     </g>
     <g id="text_3">
      <!-- 100 -->
      <g transform="translate(303.202271 644.598438)scale(0.1 -0.1)">
       <defs>
        <path d="M 12.40625 8.296875 
L 28.515625 8.296875 
L 28.515625 63.921875 
L 10.984375 60.40625 
L 10.984375 69.390625 
L 28.421875 72.90625 
L 38.28125 72.90625 
L 38.28125 8.296875 
L 54.390625 8.296875 
L 54.390625 0 
L 12.40625 0 
z
" id="DejaVuSans-49"/>
       </defs>
       <use xlink:href="#DejaVuSans-49"/>
       <use x="63.623047" xlink:href="#DejaVuSans-48"/>
       <use x="127.246094" xlink:href="#DejaVuSans-48"/>
      </g>
     </g>
    </g>
    <g id="xtick_4">
     <g id="line2d_7">
      <path clip-path="url(#p8ce4d4f49a)" d="M 411.437213 630 
L 411.437213 86.4 
" style="fill:none;stroke:#b0b0b0;stroke-linecap:square;stroke-width:0.8;"/>
     </g>
     <g id="line2d_8">
      <g>
       <use style="stroke:#000000;stroke-width:0.8;" x="411.437213" xlink:href="#m019d77de3d" y="630"/>
      </g>
     </g>
     <g id="text_4">
      <!-- 150 -->
      <g transform="translate(401.893463 644.598438)scale(0.1 -0.1)">
       <use xlink:href="#DejaVuSans-49"/>
       <use x="63.623047" xlink:href="#DejaVuSans-53"/>
       <use x="127.246094" xlink:href="#DejaVuSans-48"/>
      </g>
     </g>
    </g>
    <g id="xtick_5">
     <g id="line2d_9">
      <path clip-path="url(#p8ce4d4f49a)" d="M 510.128405 630 
L 510.128405 86.4 
" style="fill:none;stroke:#b0b0b0;stroke-linecap:square;stroke-width:0.8;"/>
     </g>
     <g id="line2d_10">
      <g>
       <use style="stroke:#000000;stroke-width:0.8;" x="510.128405" xlink:href="#m019d77de3d" y="630"/>
      </g>
     </g>
     <g id="text_5">
      <!-- 200 -->
      <g transform="translate(500.584655 644.598438)scale(0.1 -0.1)">
       <defs>
        <path d="M 19.1875 8.296875 
L 53.609375 8.296875 
L 53.609375 0 
L 7.328125 0 
L 7.328125 8.296875 
Q 12.9375 14.109375 22.625 23.890625 
Q 32.328125 33.6875 34.8125 36.53125 
Q 39.546875 41.84375 41.421875 45.53125 
Q 43.3125 49.21875 43.3125 52.78125 
Q 43.3125 58.59375 39.234375 62.25 
Q 35.15625 65.921875 28.609375 65.921875 
Q 23.96875 65.921875 18.8125 64.3125 
Q 13.671875 62.703125 7.8125 59.421875 
L 7.8125 69.390625 
Q 13.765625 71.78125 18.9375 73 
Q 24.125 74.21875 28.421875 74.21875 
Q 39.75 74.21875 46.484375 68.546875 
Q 53.21875 62.890625 53.21875 53.421875 
Q 53.21875 48.921875 51.53125 44.890625 
Q 49.859375 40.875 45.40625 35.40625 
Q 44.1875 33.984375 37.640625 27.21875 
Q 31.109375 20.453125 19.1875 8.296875 
z
" id="DejaVuSans-50"/>
       </defs>
       <use xlink:href="#DejaVuSans-50"/>
       <use x="63.623047" xlink:href="#DejaVuSans-48"/>
       <use x="127.246094" xlink:href="#DejaVuSans-48"/>
      </g>
     </g>
    </g>
    <g id="xtick_6">
     <g id="line2d_11">
      <path clip-path="url(#p8ce4d4f49a)" d="M 608.819597 630 
L 608.819597 86.4 
" style="fill:none;stroke:#b0b0b0;stroke-linecap:square;stroke-width:0.8;"/>
     </g>
     <g id="line2d_12">
      <g>
       <use style="stroke:#000000;stroke-width:0.8;" x="608.819597" xlink:href="#m019d77de3d" y="630"/>
      </g>
     </g>
     <g id="text_6">
      <!-- 250 -->
      <g transform="translate(599.275847 644.598438)scale(0.1 -0.1)">
       <use xlink:href="#DejaVuSans-50"/>
       <use x="63.623047" xlink:href="#DejaVuSans-53"/>
       <use x="127.246094" xlink:href="#DejaVuSans-48"/>
      </g>
     </g>
    </g>
    <g id="text_7">
     <!-- Days -->
     <g transform="translate(356.521875 658.276562)scale(0.1 -0.1)">
      <defs>
       <path d="M 19.671875 64.796875 
L 19.671875 8.109375 
L 31.59375 8.109375 
Q 46.6875 8.109375 53.6875 14.9375 
Q 60.6875 21.78125 60.6875 36.53125 
Q 60.6875 51.171875 53.6875 57.984375 
Q 46.6875 64.796875 31.59375 64.796875 
z
M 9.8125 72.90625 
L 30.078125 72.90625 
Q 51.265625 72.90625 61.171875 64.09375 
Q 71.09375 55.28125 71.09375 36.53125 
Q 71.09375 17.671875 61.125 8.828125 
Q 51.171875 0 30.078125 0 
L 9.8125 0 
z
" id="DejaVuSans-68"/>
       <path d="M 34.28125 27.484375 
Q 23.390625 27.484375 19.1875 25 
Q 14.984375 22.515625 14.984375 16.5 
Q 14.984375 11.71875 18.140625 8.90625 
Q 21.296875 6.109375 26.703125 6.109375 
Q 34.1875 6.109375 38.703125 11.40625 
Q 43.21875 16.703125 43.21875 25.484375 
L 43.21875 27.484375 
z
M 52.203125 31.203125 
L 52.203125 0 
L 43.21875 0 
L 43.21875 8.296875 
Q 40.140625 3.328125 35.546875 0.953125 
Q 30.953125 -1.421875 24.3125 -1.421875 
Q 15.921875 -1.421875 10.953125 3.296875 
Q 6 8.015625 6 15.921875 
Q 6 25.140625 12.171875 29.828125 
Q 18.359375 34.515625 30.609375 34.515625 
L 43.21875 34.515625 
L 43.21875 35.40625 
Q 43.21875 41.609375 39.140625 45 
Q 35.0625 48.390625 27.6875 48.390625 
Q 23 48.390625 18.546875 47.265625 
Q 14.109375 46.140625 10.015625 43.890625 
L 10.015625 52.203125 
Q 14.9375 54.109375 19.578125 55.046875 
Q 24.21875 56 28.609375 56 
Q 40.484375 56 46.34375 49.84375 
Q 52.203125 43.703125 52.203125 31.203125 
z
" id="DejaVuSans-97"/>
       <path d="M 32.171875 -5.078125 
Q 28.375 -14.84375 24.75 -17.8125 
Q 21.140625 -20.796875 15.09375 -20.796875 
L 7.90625 -20.796875 
L 7.90625 -13.28125 
L 13.1875 -13.28125 
Q 16.890625 -13.28125 18.9375 -11.515625 
Q 21 -9.765625 23.484375 -3.21875 
L 25.09375 0.875 
L 2.984375 54.6875 
L 12.5 54.6875 
L 29.59375 11.921875 
L 46.6875 54.6875 
L 56.203125 54.6875 
z
" id="DejaVuSans-121"/>
       <path d="M 44.28125 53.078125 
L 44.28125 44.578125 
Q 40.484375 46.53125 36.375 47.5 
Q 32.28125 48.484375 27.875 48.484375 
Q 21.1875 48.484375 17.84375 46.4375 
Q 14.5 44.390625 14.5 40.28125 
Q 14.5 37.15625 16.890625 35.375 
Q 19.28125 33.59375 26.515625 31.984375 
L 29.59375 31.296875 
Q 39.15625 29.25 43.1875 25.515625 
Q 47.21875 21.78125 47.21875 15.09375 
Q 47.21875 7.46875 41.1875 3.015625 
Q 35.15625 -1.421875 24.609375 -1.421875 
Q 20.21875 -1.421875 15.453125 -0.5625 
Q 10.6875 0.296875 5.421875 2 
L 5.421875 11.28125 
Q 10.40625 8.6875 15.234375 7.390625 
Q 20.0625 6.109375 24.8125 6.109375 
Q 31.15625 6.109375 34.5625 8.28125 
Q 37.984375 10.453125 37.984375 14.40625 
Q 37.984375 18.0625 35.515625 20.015625 
Q 33.0625 21.96875 24.703125 23.78125 
L 21.578125 24.515625 
Q 13.234375 26.265625 9.515625 29.90625 
Q 5.8125 33.546875 5.8125 39.890625 
Q 5.8125 47.609375 11.28125 51.796875 
Q 16.75 56 26.8125 56 
Q 31.78125 56 36.171875 55.265625 
Q 40.578125 54.546875 44.28125 53.078125 
z
" id="DejaVuSans-115"/>
      </defs>
      <use xlink:href="#DejaVuSans-68"/>
      <use x="77.001953" xlink:href="#DejaVuSans-97"/>
      <use x="138.28125" xlink:href="#DejaVuSans-121"/>
      <use x="197.460938" xlink:href="#DejaVuSans-115"/>
     </g>
    </g>
   </g>
   <g id="matplotlib.axis_2">
    <g id="ytick_1">
     <g id="line2d_13">
      <path clip-path="url(#p8ce4d4f49a)" d="M 90 605.327744 
L 648 605.327744 
" style="fill:none;stroke:#b0b0b0;stroke-linecap:square;stroke-width:0.8;"/>
     </g>
     <g id="line2d_14">
      <defs>
       <path d="M 0 0 
L -3.5 0 
" id="med1008dcc0" style="stroke:#000000;stroke-width:0.8;"/>
      </defs>
      <g>
       <use style="stroke:#000000;stroke-width:0.8;" x="90" xlink:href="#med1008dcc0" y="605.327744"/>
      </g>
     </g>
     <g id="text_8">
      <!-- 0 -->
      <g transform="translate(76.6375 609.126963)scale(0.1 -0.1)">
       <use xlink:href="#DejaVuSans-48"/>
      </g>
     </g>
    </g>
    <g id="ytick_2">
     <g id="line2d_15">
      <path clip-path="url(#p8ce4d4f49a)" d="M 90 538.354333 
L 648 538.354333 
" style="fill:none;stroke:#b0b0b0;stroke-linecap:square;stroke-width:0.8;"/>
     </g>
     <g id="line2d_16">
      <g>
       <use style="stroke:#000000;stroke-width:0.8;" x="90" xlink:href="#med1008dcc0" y="538.354333"/>
      </g>
     </g>
     <g id="text_9">
      <!-- 20000 -->
      <g transform="translate(51.1875 542.153552)scale(0.1 -0.1)">
       <use xlink:href="#DejaVuSans-50"/>
       <use x="63.623047" xlink:href="#DejaVuSans-48"/>
       <use x="127.246094" xlink:href="#DejaVuSans-48"/>
       <use x="190.869141" xlink:href="#DejaVuSans-48"/>
       <use x="254.492188" xlink:href="#DejaVuSans-48"/>
      </g>
     </g>
    </g>
    <g id="ytick_3">
     <g id="line2d_17">
      <path clip-path="url(#p8ce4d4f49a)" d="M 90 471.380921 
L 648 471.380921 
" style="fill:none;stroke:#b0b0b0;stroke-linecap:square;stroke-width:0.8;"/>
     </g>
     <g id="line2d_18">
      <g>
       <use style="stroke:#000000;stroke-width:0.8;" x="90" xlink:href="#med1008dcc0" y="471.380921"/>
      </g>
     </g>
     <g id="text_10">
      <!-- 40000 -->
      <g transform="translate(51.1875 475.18014)scale(0.1 -0.1)">
       <defs>
        <path d="M 37.796875 64.3125 
L 12.890625 25.390625 
L 37.796875 25.390625 
z
M 35.203125 72.90625 
L 47.609375 72.90625 
L 47.609375 25.390625 
L 58.015625 25.390625 
L 58.015625 17.1875 
L 47.609375 17.1875 
L 47.609375 0 
L 37.796875 0 
L 37.796875 17.1875 
L 4.890625 17.1875 
L 4.890625 26.703125 
z
" id="DejaVuSans-52"/>
       </defs>
       <use xlink:href="#DejaVuSans-52"/>
       <use x="63.623047" xlink:href="#DejaVuSans-48"/>
       <use x="127.246094" xlink:href="#DejaVuSans-48"/>
       <use x="190.869141" xlink:href="#DejaVuSans-48"/>
       <use x="254.492188" xlink:href="#DejaVuSans-48"/>
      </g>
     </g>
    </g>
    <g id="ytick_4">
     <g id="line2d_19">
      <path clip-path="url(#p8ce4d4f49a)" d="M 90 404.40751 
L 648 404.40751 
" style="fill:none;stroke:#b0b0b0;stroke-linecap:square;stroke-width:0.8;"/>
     </g>
     <g id="line2d_20">
      <g>
       <use style="stroke:#000000;stroke-width:0.8;" x="90" xlink:href="#med1008dcc0" y="404.40751"/>
      </g>
     </g>
     <g id="text_11">
      <!-- 60000 -->
      <g transform="translate(51.1875 408.206729)scale(0.1 -0.1)">
       <defs>
        <path d="M 33.015625 40.375 
Q 26.375 40.375 22.484375 35.828125 
Q 18.609375 31.296875 18.609375 23.390625 
Q 18.609375 15.53125 22.484375 10.953125 
Q 26.375 6.390625 33.015625 6.390625 
Q 39.65625 6.390625 43.53125 10.953125 
Q 47.40625 15.53125 47.40625 23.390625 
Q 47.40625 31.296875 43.53125 35.828125 
Q 39.65625 40.375 33.015625 40.375 
z
M 52.59375 71.296875 
L 52.59375 62.3125 
Q 48.875 64.0625 45.09375 64.984375 
Q 41.3125 65.921875 37.59375 65.921875 
Q 27.828125 65.921875 22.671875 59.328125 
Q 17.53125 52.734375 16.796875 39.40625 
Q 19.671875 43.65625 24.015625 45.921875 
Q 28.375 48.1875 33.59375 48.1875 
Q 44.578125 48.1875 50.953125 41.515625 
Q 57.328125 34.859375 57.328125 23.390625 
Q 57.328125 12.15625 50.6875 5.359375 
Q 44.046875 -1.421875 33.015625 -1.421875 
Q 20.359375 -1.421875 13.671875 8.265625 
Q 6.984375 17.96875 6.984375 36.375 
Q 6.984375 53.65625 15.1875 63.9375 
Q 23.390625 74.21875 37.203125 74.21875 
Q 40.921875 74.21875 44.703125 73.484375 
Q 48.484375 72.75 52.59375 71.296875 
z
" id="DejaVuSans-54"/>
       </defs>
       <use xlink:href="#DejaVuSans-54"/>
       <use x="63.623047" xlink:href="#DejaVuSans-48"/>
       <use x="127.246094" xlink:href="#DejaVuSans-48"/>
       <use x="190.869141" xlink:href="#DejaVuSans-48"/>
       <use x="254.492188" xlink:href="#DejaVuSans-48"/>
      </g>
     </g>
    </g>
    <g id="ytick_5">
     <g id="line2d_21">
      <path clip-path="url(#p8ce4d4f49a)" d="M 90 337.434098 
L 648 337.434098 
" style="fill:none;stroke:#b0b0b0;stroke-linecap:square;stroke-width:0.8;"/>
     </g>
     <g id="line2d_22">
      <g>
       <use style="stroke:#000000;stroke-width:0.8;" x="90" xlink:href="#med1008dcc0" y="337.434098"/>
      </g>
     </g>
     <g id="text_12">
      <!-- 80000 -->
      <g transform="translate(51.1875 341.233317)scale(0.1 -0.1)">
       <defs>
        <path d="M 31.78125 34.625 
Q 24.75 34.625 20.71875 30.859375 
Q 16.703125 27.09375 16.703125 20.515625 
Q 16.703125 13.921875 20.71875 10.15625 
Q 24.75 6.390625 31.78125 6.390625 
Q 38.8125 6.390625 42.859375 10.171875 
Q 46.921875 13.96875 46.921875 20.515625 
Q 46.921875 27.09375 42.890625 30.859375 
Q 38.875 34.625 31.78125 34.625 
z
M 21.921875 38.8125 
Q 15.578125 40.375 12.03125 44.71875 
Q 8.5 49.078125 8.5 55.328125 
Q 8.5 64.0625 14.71875 69.140625 
Q 20.953125 74.21875 31.78125 74.21875 
Q 42.671875 74.21875 48.875 69.140625 
Q 55.078125 64.0625 55.078125 55.328125 
Q 55.078125 49.078125 51.53125 44.71875 
Q 48 40.375 41.703125 38.8125 
Q 48.828125 37.15625 52.796875 32.3125 
Q 56.78125 27.484375 56.78125 20.515625 
Q 56.78125 9.90625 50.3125 4.234375 
Q 43.84375 -1.421875 31.78125 -1.421875 
Q 19.734375 -1.421875 13.25 4.234375 
Q 6.78125 9.90625 6.78125 20.515625 
Q 6.78125 27.484375 10.78125 32.3125 
Q 14.796875 37.15625 21.921875 38.8125 
z
M 18.3125 54.390625 
Q 18.3125 48.734375 21.84375 45.5625 
Q 25.390625 42.390625 31.78125 42.390625 
Q 38.140625 42.390625 41.71875 45.5625 
Q 45.3125 48.734375 45.3125 54.390625 
Q 45.3125 60.0625 41.71875 63.234375 
Q 38.140625 66.40625 31.78125 66.40625 
Q 25.390625 66.40625 21.84375 63.234375 
Q 18.3125 60.0625 18.3125 54.390625 
z
" id="DejaVuSans-56"/>
       </defs>
       <use xlink:href="#DejaVuSans-56"/>
       <use x="63.623047" xlink:href="#DejaVuSans-48"/>
       <use x="127.246094" xlink:href="#DejaVuSans-48"/>
       <use x="190.869141" xlink:href="#DejaVuSans-48"/>
       <use x="254.492188" xlink:href="#DejaVuSans-48"/>
      </g>
     </g>
    </g>
    <g id="ytick_6">
     <g id="line2d_23">
      <path clip-path="url(#p8ce4d4f49a)" d="M 90 270.460687 
L 648 270.460687 
" style="fill:none;stroke:#b0b0b0;stroke-linecap:square;stroke-width:0.8;"/>
     </g>
     <g id="line2d_24">
      <g>
       <use style="stroke:#000000;stroke-width:0.8;" x="90" xlink:href="#med1008dcc0" y="270.460687"/>
      </g>
     </g>
     <g id="text_13">
      <!-- 100000 -->
      <g transform="translate(44.825 274.259905)scale(0.1 -0.1)">
       <use xlink:href="#DejaVuSans-49"/>
       <use x="63.623047" xlink:href="#DejaVuSans-48"/>
       <use x="127.246094" xlink:href="#DejaVuSans-48"/>
       <use x="190.869141" xlink:href="#DejaVuSans-48"/>
       <use x="254.492188" xlink:href="#DejaVuSans-48"/>
       <use x="318.115234" xlink:href="#DejaVuSans-48"/>
      </g>
     </g>
    </g>
    <g id="ytick_7">
     <g id="line2d_25">
      <path clip-path="url(#p8ce4d4f49a)" d="M 90 203.487275 
L 648 203.487275 
" style="fill:none;stroke:#b0b0b0;stroke-linecap:square;stroke-width:0.8;"/>
     </g>
     <g id="line2d_26">
      <g>
       <use style="stroke:#000000;stroke-width:0.8;" x="90" xlink:href="#med1008dcc0" y="203.487275"/>
      </g>
     </g>
     <g id="text_14">
      <!-- 120000 -->
      <g transform="translate(44.825 207.286494)scale(0.1 -0.1)">
       <use xlink:href="#DejaVuSans-49"/>
       <use x="63.623047" xlink:href="#DejaVuSans-50"/>
       <use x="127.246094" xlink:href="#DejaVuSans-48"/>
       <use x="190.869141" xlink:href="#DejaVuSans-48"/>
       <use x="254.492188" xlink:href="#DejaVuSans-48"/>
       <use x="318.115234" xlink:href="#DejaVuSans-48"/>
      </g>
     </g>
    </g>
    <g id="ytick_8">
     <g id="line2d_27">
      <path clip-path="url(#p8ce4d4f49a)" d="M 90 136.513864 
L 648 136.513864 
" style="fill:none;stroke:#b0b0b0;stroke-linecap:square;stroke-width:0.8;"/>
     </g>
     <g id="line2d_28">
      <g>
       <use style="stroke:#000000;stroke-width:0.8;" x="90" xlink:href="#med1008dcc0" y="136.513864"/>
      </g>
     </g>
     <g id="text_15">
      <!-- 140000 -->
      <g transform="translate(44.825 140.313082)scale(0.1 -0.1)">
       <use xlink:href="#DejaVuSans-49"/>
       <use x="63.623047" xlink:href="#DejaVuSans-52"/>
       <use x="127.246094" xlink:href="#DejaVuSans-48"/>
       <use x="190.869141" xlink:href="#DejaVuSans-48"/>
       <use x="254.492188" xlink:href="#DejaVuSans-48"/>
       <use x="318.115234" xlink:href="#DejaVuSans-48"/>
      </g>
     </g>
    </g>
    <g id="text_16">
     <!-- Cumulative cases -->
     <g transform="translate(38.745312 402.425781)rotate(-90)scale(0.1 -0.1)">
      <defs>
       <path d="M 64.40625 67.28125 
L 64.40625 56.890625 
Q 59.421875 61.53125 53.78125 63.8125 
Q 48.140625 66.109375 41.796875 66.109375 
Q 29.296875 66.109375 22.65625 58.46875 
Q 16.015625 50.828125 16.015625 36.375 
Q 16.015625 21.96875 22.65625 14.328125 
Q 29.296875 6.6875 41.796875 6.6875 
Q 48.140625 6.6875 53.78125 8.984375 
Q 59.421875 11.28125 64.40625 15.921875 
L 64.40625 5.609375 
Q 59.234375 2.09375 53.4375 0.328125 
Q 47.65625 -1.421875 41.21875 -1.421875 
Q 24.65625 -1.421875 15.125 8.703125 
Q 5.609375 18.84375 5.609375 36.375 
Q 5.609375 53.953125 15.125 64.078125 
Q 24.65625 74.21875 41.21875 74.21875 
Q 47.75 74.21875 53.53125 72.484375 
Q 59.328125 70.75 64.40625 67.28125 
z
" id="DejaVuSans-67"/>
       <path d="M 8.5 21.578125 
L 8.5 54.6875 
L 17.484375 54.6875 
L 17.484375 21.921875 
Q 17.484375 14.15625 20.5 10.265625 
Q 23.53125 6.390625 29.59375 6.390625 
Q 36.859375 6.390625 41.078125 11.03125 
Q 45.3125 15.671875 45.3125 23.6875 
L 45.3125 54.6875 
L 54.296875 54.6875 
L 54.296875 0 
L 45.3125 0 
L 45.3125 8.40625 
Q 42.046875 3.421875 37.71875 1 
Q 33.40625 -1.421875 27.6875 -1.421875 
Q 18.265625 -1.421875 13.375 4.4375 
Q 8.5 10.296875 8.5 21.578125 
z
M 31.109375 56 
z
" id="DejaVuSans-117"/>
       <path d="M 52 44.1875 
Q 55.375 50.25 60.0625 53.125 
Q 64.75 56 71.09375 56 
Q 79.640625 56 84.28125 50.015625 
Q 88.921875 44.046875 88.921875 33.015625 
L 88.921875 0 
L 79.890625 0 
L 79.890625 32.71875 
Q 79.890625 40.578125 77.09375 44.375 
Q 74.3125 48.1875 68.609375 48.1875 
Q 61.625 48.1875 57.5625 43.546875 
Q 53.515625 38.921875 53.515625 30.90625 
L 53.515625 0 
L 44.484375 0 
L 44.484375 32.71875 
Q 44.484375 40.625 41.703125 44.40625 
Q 38.921875 48.1875 33.109375 48.1875 
Q 26.21875 48.1875 22.15625 43.53125 
Q 18.109375 38.875 18.109375 30.90625 
L 18.109375 0 
L 9.078125 0 
L 9.078125 54.6875 
L 18.109375 54.6875 
L 18.109375 46.1875 
Q 21.1875 51.21875 25.484375 53.609375 
Q 29.78125 56 35.6875 56 
Q 41.65625 56 45.828125 52.96875 
Q 50 49.953125 52 44.1875 
z
" id="DejaVuSans-109"/>
       <path d="M 9.421875 75.984375 
L 18.40625 75.984375 
L 18.40625 0 
L 9.421875 0 
z
" id="DejaVuSans-108"/>
       <path d="M 18.3125 70.21875 
L 18.3125 54.6875 
L 36.8125 54.6875 
L 36.8125 47.703125 
L 18.3125 47.703125 
L 18.3125 18.015625 
Q 18.3125 11.328125 20.140625 9.421875 
Q 21.96875 7.515625 27.59375 7.515625 
L 36.8125 7.515625 
L 36.8125 0 
L 27.59375 0 
Q 17.1875 0 13.234375 3.875 
Q 9.28125 7.765625 9.28125 18.015625 
L 9.28125 47.703125 
L 2.6875 47.703125 
L 2.6875 54.6875 
L 9.28125 54.6875 
L 9.28125 70.21875 
z
" id="DejaVuSans-116"/>
       <path d="M 9.421875 54.6875 
L 18.40625 54.6875 
L 18.40625 0 
L 9.421875 0 
z
M 9.421875 75.984375 
L 18.40625 75.984375 
L 18.40625 64.59375 
L 9.421875 64.59375 
z
" id="DejaVuSans-105"/>
       <path d="M 2.984375 54.6875 
L 12.5 54.6875 
L 29.59375 8.796875 
L 46.6875 54.6875 
L 56.203125 54.6875 
L 35.6875 0 
L 23.484375 0 
z
" id="DejaVuSans-118"/>
       <path d="M 56.203125 29.59375 
L 56.203125 25.203125 
L 14.890625 25.203125 
Q 15.484375 15.921875 20.484375 11.0625 
Q 25.484375 6.203125 34.421875 6.203125 
Q 39.59375 6.203125 44.453125 7.46875 
Q 49.3125 8.734375 54.109375 11.28125 
L 54.109375 2.78125 
Q 49.265625 0.734375 44.1875 -0.34375 
Q 39.109375 -1.421875 33.890625 -1.421875 
Q 20.796875 -1.421875 13.15625 6.1875 
Q 5.515625 13.8125 5.515625 26.8125 
Q 5.515625 40.234375 12.765625 48.109375 
Q 20.015625 56 32.328125 56 
Q 43.359375 56 49.78125 48.890625 
Q 56.203125 41.796875 56.203125 29.59375 
z
M 47.21875 32.234375 
Q 47.125 39.59375 43.09375 43.984375 
Q 39.0625 48.390625 32.421875 48.390625 
Q 24.90625 48.390625 20.390625 44.140625 
Q 15.875 39.890625 15.1875 32.171875 
z
" id="DejaVuSans-101"/>
       <path id="DejaVuSans-32"/>
       <path d="M 48.78125 52.59375 
L 48.78125 44.1875 
Q 44.96875 46.296875 41.140625 47.34375 
Q 37.3125 48.390625 33.40625 48.390625 
Q 24.65625 48.390625 19.8125 42.84375 
Q 14.984375 37.3125 14.984375 27.296875 
Q 14.984375 17.28125 19.8125 11.734375 
Q 24.65625 6.203125 33.40625 6.203125 
Q 37.3125 6.203125 41.140625 7.25 
Q 44.96875 8.296875 48.78125 10.40625 
L 48.78125 2.09375 
Q 45.015625 0.34375 40.984375 -0.53125 
Q 36.96875 -1.421875 32.421875 -1.421875 
Q 20.0625 -1.421875 12.78125 6.34375 
Q 5.515625 14.109375 5.515625 27.296875 
Q 5.515625 40.671875 12.859375 48.328125 
Q 20.21875 56 33.015625 56 
Q 37.15625 56 41.109375 55.140625 
Q 45.0625 54.296875 48.78125 52.59375 
z
" id="DejaVuSans-99"/>
      </defs>
      <use xlink:href="#DejaVuSans-67"/>
      <use x="69.824219" xlink:href="#DejaVuSans-117"/>
      <use x="133.203125" xlink:href="#DejaVuSans-109"/>
      <use x="230.615234" xlink:href="#DejaVuSans-117"/>
      <use x="293.994141" xlink:href="#DejaVuSans-108"/>
      <use x="321.777344" xlink:href="#DejaVuSans-97"/>
      <use x="383.056641" xlink:href="#DejaVuSans-116"/>
      <use x="422.265625" xlink:href="#DejaVuSans-105"/>
      <use x="450.048828" xlink:href="#DejaVuSans-118"/>
      <use x="509.228516" xlink:href="#DejaVuSans-101"/>
      <use x="570.751953" xlink:href="#DejaVuSans-32"/>
      <use x="602.539062" xlink:href="#DejaVuSans-99"/>
      <use x="657.519531" xlink:href="#DejaVuSans-97"/>
      <use x="718.798828" xlink:href="#DejaVuSans-115"/>
      <use x="770.898438" xlink:href="#DejaVuSans-101"/>
      <use x="832.421875" xlink:href="#DejaVuSans-115"/>
     </g>
    </g>
   </g>
   <g id="line2d_29">
    <path clip-path="url(#p8ce4d4f49a)" d="M 115.363636 605.290909 
L 162.735409 605.124054 
L 186.421295 604.848957 
L 202.211885 604.481654 
L 216.028652 603.935968 
L 225.897771 603.342694 
L 233.793067 602.691624 
L 241.688362 601.828639 
L 247.609834 601.002313 
L 253.531305 599.983127 
L 259.452777 598.727265 
L 265.374248 597.181583 
L 269.321896 595.95895 
L 273.269544 594.557181 
L 277.217191 592.951427 
L 281.164839 591.113836 
L 285.112487 589.013332 
L 289.060134 586.615424 
L 293.007782 583.882072 
L 296.95543 580.771629 
L 300.903077 577.238891 
L 304.850725 573.235304 
L 308.798373 568.70936 
L 312.746021 563.607238 
L 316.693668 557.873746 
L 320.641316 551.453602 
L 324.588964 544.293105 
L 328.536611 536.34222 
L 332.484259 527.557056 
L 336.431907 517.902721 
L 340.379554 507.356418 
L 344.327202 495.910666 
L 348.27485 483.576381 
L 352.222497 470.385576 
L 356.170145 456.393334 
L 360.117793 441.67876 
L 366.039264 418.483366 
L 373.93456 386.160365 
L 385.777503 337.242558 
L 391.698974 313.76639 
L 395.646622 298.80815 
L 399.59427 284.536719 
L 403.541917 271.04012 
L 407.489565 258.382324 
L 411.437213 246.603743 
L 415.38486 235.722856 
L 419.332508 225.738677 
L 423.280156 216.633734 
L 427.227803 208.377259 
L 431.175451 200.92836 
L 435.123099 194.238976 
L 439.070746 188.256505 
L 443.018394 182.926035 
L 446.966042 178.192171 
L 450.913689 174.000455 
L 454.861337 170.29843 
L 458.808985 167.036384 
L 462.756632 164.167835 
L 466.70428 161.649798 
L 470.651928 159.442893 
L 474.599576 157.511323 
L 478.547223 155.822761 
L 482.494871 154.34818 
L 486.442519 153.061641 
L 492.36399 151.434636 
L 498.285462 150.112263 
L 504.206933 149.038812 
L 510.128405 148.168299 
L 518.0237 147.258986 
L 525.918995 146.572841 
L 535.788115 145.947515 
L 547.631058 145.438031 
L 563.421648 145.022277 
L 583.159887 144.746147 
L 612.767244 144.571542 
L 622.636364 144.544164 
L 622.636364 144.544164 
" style="fill:none;stroke:#1f77b4;stroke-linecap:square;stroke-width:1.5;"/>
   </g>
   <g id="line2d_30">
    <path clip-path="url(#p8ce4d4f49a)" d="M 115.363636 605.290909 
L 131.154227 604.665848 
L 144.970994 603.914391 
L 156.813937 603.066833 
L 166.683056 602.176583 
L 176.552175 601.077932 
L 186.421295 599.723414 
L 194.31659 598.417263 
L 202.211885 596.875841 
L 210.107181 595.058751 
L 216.028652 593.487271 
L 221.950124 591.712564 
L 227.871595 589.71023 
L 233.793067 587.453463 
L 239.714538 584.912966 
L 245.63601 582.056907 
L 251.557481 578.850933 
L 255.505129 576.501153 
L 259.452777 573.968098 
L 263.400424 571.239908 
L 267.348072 568.304369 
L 271.29572 565.148985 
L 275.243368 561.761057 
L 279.191015 558.127782 
L 283.138663 554.236371 
L 287.086311 550.07419 
L 291.033958 545.628912 
L 294.981606 540.888704 
L 298.929254 535.842422 
L 302.876901 530.479834 
L 306.824549 524.791856 
L 310.772197 518.770804 
L 314.719844 512.410661 
L 318.667492 505.707345 
L 322.61514 498.658979 
L 326.562787 491.266154 
L 330.510435 483.53217 
L 336.431907 471.306007 
L 342.353378 458.36133 
L 348.27485 444.749138 
L 354.196321 430.537361 
L 360.117793 415.810323 
L 368.013088 395.546284 
L 379.856031 364.362842 
L 393.672798 327.99569 
L 401.568093 307.803524 
L 407.489565 293.149447 
L 413.411036 279.024589 
L 419.332508 265.510826 
L 425.253979 252.673505 
L 431.175451 240.561032 
L 435.123099 232.905124 
L 439.070746 225.591387 
L 443.018394 218.622477 
L 446.966042 211.998394 
L 450.913689 205.71673 
L 454.861337 199.772933 
L 458.808985 194.16058 
L 462.756632 188.871641 
L 466.70428 183.896747 
L 470.651928 179.225433 
L 474.599576 174.84638 
L 478.547223 170.747623 
L 482.494871 166.91675 
L 486.442519 163.341078 
L 490.390166 160.007803 
L 494.337814 156.904136 
L 498.285462 154.017417 
L 502.233109 151.335207 
L 506.180757 148.84537 
L 510.128405 146.536134 
L 516.049876 143.386179 
L 521.971348 140.580707 
L 527.892819 138.085748 
L 533.814291 135.86986 
L 539.735762 133.904132 
L 545.657234 132.162134 
L 551.578705 130.619823 
L 559.474001 128.836703 
L 567.369296 127.324303 
L 575.264591 126.042889 
L 583.159887 124.958167 
L 593.029006 123.834349 
L 602.898125 122.923619 
L 614.741068 122.05649 
L 622.636364 121.589415 
L 622.636364 121.589415 
" style="fill:none;stroke:#ff7f0e;stroke-linecap:square;stroke-width:1.5;"/>
   </g>
   <g id="line2d_31">
    <path clip-path="url(#p8ce4d4f49a)" d="M 115.363636 605.290909 
L 142.99717 604.981968 
L 162.735409 604.549149 
L 178.525999 603.973079 
L 190.368942 603.3318 
L 200.238062 602.602585 
L 210.107181 601.634957 
L 218.002476 600.63867 
L 225.897771 599.391977 
L 231.819243 598.25651 
L 237.740715 596.915648 
L 243.662186 595.333931 
L 249.583658 593.470453 
L 255.505129 591.278283 
L 259.452777 589.608106 
L 263.400424 587.750671 
L 267.348072 585.687012 
L 271.29572 583.396735 
L 275.243368 580.858025 
L 279.191015 578.047703 
L 283.138663 574.941313 
L 287.086311 571.51327 
L 291.033958 567.737076 
L 294.981606 563.585602 
L 298.929254 559.031458 
L 302.876901 554.047454 
L 306.824549 548.60716 
L 310.772197 542.685567 
L 314.719844 536.259837 
L 318.667492 529.310153 
L 322.61514 521.820629 
L 326.562787 513.780267 
L 330.510435 505.183922 
L 334.458083 496.033226 
L 338.40573 486.337425 
L 342.353378 476.114063 
L 346.301026 465.389459 
L 352.222497 448.442398 
L 358.143969 430.605264 
L 364.06544 412.074891 
L 373.93456 380.284193 
L 385.777503 342.094115 
L 391.698974 323.567915 
L 397.620446 305.717729 
L 403.541917 288.724406 
L 407.489565 277.942697 
L 411.437213 267.636418 
L 415.38486 257.828646 
L 419.332508 248.534644 
L 423.280156 239.762426 
L 427.227803 231.51345 
L 431.175451 223.783393 
L 435.123099 216.562976 
L 439.070746 209.838776 
L 443.018394 203.594027 
L 446.966042 197.809362 
L 450.913689 192.463494 
L 454.861337 187.533824 
L 458.808985 182.996969 
L 462.756632 178.82922 
L 466.70428 175.00691 
L 470.651928 171.506731 
L 474.599576 168.305975 
L 478.547223 165.382723 
L 482.494871 162.715982 
L 486.442519 160.285786 
L 490.390166 158.073258 
L 494.337814 156.060638 
L 498.285462 154.231297 
L 504.206933 151.797308 
L 510.128405 149.693293 
L 516.049876 147.87674 
L 521.971348 146.310023 
L 527.892819 144.960006 
L 533.814291 143.797622 
L 541.709586 142.496213 
L 549.604881 141.432206 
L 559.474001 140.371874 
L 569.34312 139.549205 
L 581.186063 138.802264 
L 595.00283 138.176082 
L 610.793421 137.687771 
L 622.636364 137.432745 
L 622.636364 137.432745 
" style="fill:none;stroke:#2ca02c;stroke-linecap:square;stroke-width:1.5;"/>
   </g>
   <g id="line2d_32">
    <path clip-path="url(#p8ce4d4f49a)" d="M 115.363636 605.290909 
L 131.154227 604.995989 
L 144.970994 604.514337 
L 156.813937 603.872019 
L 166.683056 603.123715 
L 176.552175 602.128397 
L 184.447471 601.11259 
L 192.342766 599.860008 
L 198.264238 598.737972 
L 204.185709 597.435056 
L 210.107181 595.926429 
L 216.028652 594.184363 
L 221.950124 592.178066 
L 227.871595 589.873554 
L 233.793067 587.233603 
L 237.740715 585.267447 
L 241.688362 583.121569 
L 245.63601 580.782681 
L 249.583658 578.236996 
L 253.531305 575.470308 
L 257.478953 572.468101 
L 261.426601 569.215669 
L 265.374248 565.698278 
L 269.321896 561.901349 
L 273.269544 557.810674 
L 277.217191 553.412663 
L 281.164839 548.694618 
L 285.112487 543.645037 
L 289.060134 538.253943 
L 293.007782 532.513221 
L 296.95543 526.416977 
L 300.903077 519.961884 
L 304.850725 513.147523 
L 308.798373 505.976693 
L 312.746021 498.45568 
L 316.693668 490.594474 
L 322.61514 478.19613 
L 328.536611 465.127504 
L 334.458083 451.470879 
L 342.353378 432.522066 
L 352.222497 408.040748 
L 371.960736 358.716926 
L 379.856031 339.685559 
L 385.777503 325.916033 
L 391.698974 312.673838 
L 397.620446 300.026456 
L 403.541917 288.024272 
L 409.463389 276.701284 
L 413.411036 269.53987 
L 417.358684 262.691238 
L 421.306332 256.15524 
L 425.253979 249.929611 
L 429.201627 244.010241 
L 433.149275 238.391434 
L 437.096923 233.066163 
L 441.04457 228.026303 
L 444.992218 223.262853 
L 448.939866 218.766135 
L 452.887513 214.525969 
L 456.835161 210.531839 
L 460.782809 206.773024 
L 464.730456 203.238725 
L 468.678104 199.918162 
L 472.625752 196.800663 
L 476.573399 193.875735 
L 482.494871 189.827055 
L 488.416342 186.155262 
L 494.337814 182.828649 
L 500.259285 179.817347 
L 506.180757 177.09341 
L 512.102229 174.630842 
L 518.0237 172.40558 
L 523.945172 170.395441 
L 529.866643 168.580048 
L 537.761938 166.430451 
L 545.657234 164.554288 
L 553.552529 162.916428 
L 561.447825 161.485972 
L 571.316944 159.948595 
L 581.186063 158.647571 
L 593.029006 157.34457 
L 604.871949 156.271696 
L 618.688716 155.251724 
L 622.636364 154.998476 
L 622.636364 154.998476 
" style="fill:none;stroke:#d62728;stroke-linecap:square;stroke-width:1.5;"/>
   </g>
   <g id="line2d_33">
    <path clip-path="url(#p8ce4d4f49a)" d="M 115.363636 605.290909 
L 148.918642 605.173294 
L 174.578352 604.901 
L 192.342766 604.497697 
L 206.159533 603.949432 
L 216.028652 603.354872 
L 223.923948 602.703827 
L 231.819243 601.842822 
L 237.740715 601.020215 
L 243.662186 600.007828 
L 249.583658 598.763424 
L 255.505129 597.236159 
L 259.452777 596.031262 
L 263.400424 594.653103 
L 267.348072 593.078521 
L 271.29572 591.2818 
L 275.243368 589.234558 
L 279.191015 586.905681 
L 283.138663 584.26134 
L 287.086311 581.265098 
L 291.033958 577.878144 
L 294.981606 574.059697 
L 298.929254 569.767582 
L 302.876901 564.959044 
L 306.824549 559.591791 
L 310.772197 553.625302 
L 314.719844 547.022373 
L 318.667492 539.750891 
L 322.61514 531.785757 
L 326.562787 523.110879 
L 330.510435 513.721104 
L 334.458083 503.623938 
L 338.40573 492.840886 
L 342.353378 481.408261 
L 346.301026 469.377309 
L 352.222497 450.356005 
L 358.143969 430.412413 
L 366.039264 402.944762 
L 379.856031 354.756712 
L 385.777503 334.890363 
L 391.698974 315.875828 
L 395.646622 303.769193 
L 399.59427 292.169162 
L 403.541917 281.106851 
L 407.489565 270.603113 
L 411.437213 260.669509 
L 415.38486 251.309407 
L 419.332508 242.519145 
L 423.280156 234.289167 
L 427.227803 226.605128 
L 431.175451 219.448904 
L 435.123099 212.799503 
L 439.070746 206.633875 
L 443.018394 200.927603 
L 446.966042 195.65549 
L 450.913689 190.792049 
L 454.861337 186.311899 
L 458.808985 182.190078 
L 462.756632 178.402295 
L 466.70428 174.925111 
L 470.651928 171.736072 
L 474.599576 168.813805 
L 478.547223 166.138071 
L 482.494871 163.689794 
L 486.442519 161.451066 
L 490.390166 159.405132 
L 494.337814 157.53637 
L 500.259285 155.03392 
L 506.180757 152.852976 
L 512.102229 150.953787 
L 518.0237 149.301122 
L 523.945172 147.86386 
L 529.866643 146.614587 
L 537.761938 145.200106 
L 545.657234 144.028269 
L 553.552529 143.058003 
L 563.421648 142.076936 
L 575.264591 141.169034 
L 587.107534 140.486402 
L 600.924301 139.901271 
L 618.688716 139.386003 
L 622.636364 139.298576 
L 622.636364 139.298576 
" style="fill:none;stroke:#9467bd;stroke-linecap:square;stroke-width:1.5;"/>
   </g>
   <g id="line2d_34">
    <path clip-path="url(#p8ce4d4f49a)" d="M 115.363636 605.290909 
L 129.180403 605.165051 
L 142.99717 604.827035 
L 154.840113 604.33738 
L 166.683056 603.607802 
L 176.552175 602.767136 
L 184.447471 601.906988 
L 192.342766 600.847247 
L 200.238062 599.552193 
L 208.133357 597.980276 
L 214.054828 596.590986 
L 219.9763 594.996134 
L 225.897771 593.170348 
L 231.819243 591.085685 
L 237.740715 588.711526 
L 243.662186 586.014531 
L 247.609834 584.019493 
L 251.557481 581.853684 
L 255.505129 579.50529 
L 259.452777 576.962053 
L 263.400424 574.211314 
L 267.348072 571.24009 
L 271.29572 568.03515 
L 275.243368 564.583125 
L 279.191015 560.870627 
L 283.138663 556.884399 
L 287.086311 552.611476 
L 291.033958 548.039383 
L 294.981606 543.156339 
L 298.929254 537.951501 
L 302.876901 532.415205 
L 306.824549 526.539245 
L 310.772197 520.317145 
L 314.719844 513.744444 
L 318.667492 506.818982 
L 322.61514 499.541166 
L 326.562787 491.914224 
L 330.510435 483.944427 
L 336.431907 471.368559 
L 342.353378 458.089657 
L 348.27485 444.171245 
L 354.196321 429.693674 
L 362.091617 409.688051 
L 371.960736 383.927559 
L 391.698974 332.088306 
L 399.59427 312.048233 
L 405.515741 297.523665 
L 411.437213 283.532914 
L 417.358684 270.149833 
L 423.280156 257.432096 
L 429.201627 245.421256 
L 433.149275 237.820263 
L 437.096923 230.549549 
L 441.04457 223.610708 
L 444.992218 217.002965 
L 448.939866 210.72342 
L 452.887513 204.767302 
L 456.835161 199.128212 
L 460.782809 193.798373 
L 464.730456 188.768859 
L 468.678104 184.029818 
L 472.625752 179.570673 
L 476.573399 175.380308 
L 480.521047 171.447239 
L 484.468695 167.759758 
L 488.416342 164.306069 
L 492.36399 161.074394 
L 496.311638 158.053075 
L 500.259285 155.230652 
L 504.206933 152.595927 
L 510.128405 148.972077 
L 516.049876 145.710992 
L 521.971348 142.779544 
L 527.892819 140.146768 
L 533.814291 137.783919 
L 539.735762 135.664468 
L 545.657234 133.764053 
L 551.578705 132.060402 
L 559.474001 130.060154 
L 567.369296 128.330886 
L 575.264591 126.83501 
L 583.159887 125.539785 
L 593.029006 124.159998 
L 602.898125 123.002385 
L 614.741068 121.851729 
L 622.636364 121.203366 
L 622.636364 121.203366 
" style="fill:none;stroke:#8c564b;stroke-linecap:square;stroke-width:1.5;"/>
   </g>
   <g id="line2d_35">
    <path clip-path="url(#p8ce4d4f49a)" d="M 115.363636 605.290909 
L 148.918642 605.171174 
L 174.578352 604.896537 
L 192.342766 604.493481 
L 206.159533 603.949244 
L 216.028652 603.361994 
L 225.897771 602.53152 
L 233.793067 601.626799 
L 239.714538 600.765073 
L 245.63601 599.707345 
L 251.557481 598.410625 
L 257.478953 596.823293 
L 261.426601 595.573664 
L 265.374248 594.146762 
L 269.321896 592.519211 
L 273.269544 590.665098 
L 277.217191 588.555854 
L 281.164839 586.160202 
L 285.112487 583.444166 
L 289.060134 580.371177 
L 293.007782 576.90231 
L 296.95543 572.996664 
L 300.903077 568.611936 
L 304.850725 563.705209 
L 308.798373 558.233974 
L 312.746021 552.157407 
L 316.693668 545.437894 
L 320.641316 538.042777 
L 324.588964 529.946272 
L 328.536611 521.131463 
L 332.484259 511.592267 
L 336.431907 501.335215 
L 340.379554 490.380883 
L 344.327202 478.764824 
L 348.27485 466.53784 
L 354.196321 447.199058 
L 360.117793 426.912509 
L 368.013088 398.959466 
L 381.829855 349.920604 
L 387.751326 329.7256 
L 393.672798 310.423883 
L 397.620446 298.154301 
L 401.568093 286.416979 
L 405.515741 275.244637 
L 409.463389 264.658979 
L 413.411036 254.671698 
L 417.358684 245.28565 
L 421.306332 236.496098 
L 425.253979 228.291954 
L 429.201627 220.656989 
L 433.149275 213.57094 
L 437.096923 207.010519 
L 441.04457 200.950303 
L 444.992218 195.363496 
L 448.939866 190.222574 
L 452.887513 185.499821 
L 456.835161 181.167755 
L 460.782809 177.199473 
L 464.730456 173.568907 
L 468.678104 170.25102 
L 472.625752 167.221939 
L 476.573399 164.459045 
L 480.521047 161.941024 
L 484.468695 159.647882 
L 488.416342 157.560941 
L 492.36399 155.662815 
L 496.311638 153.937371 
L 502.233109 151.640639 
L 508.154581 149.653505 
L 514.076052 147.935694 
L 519.997524 146.451788 
L 525.918995 145.170741 
L 533.814291 143.731844 
L 541.709586 142.550841 
L 549.604881 141.582148 
L 559.474001 140.612991 
L 569.34312 139.857494 
L 581.186063 139.167779 
L 595.00283 138.585648 
L 612.767244 138.082645 
L 622.636364 137.887079 
L 622.636364 137.887079 
" style="fill:none;stroke:#e377c2;stroke-linecap:square;stroke-width:1.5;"/>
   </g>
   <g id="line2d_36">
    <path clip-path="url(#p8ce4d4f49a)" d="M 115.363636 605.290909 
L 127.206579 605.187766 
L 141.023346 604.826956 
L 152.866289 604.288286 
L 162.735409 603.63877 
L 172.604528 602.762836 
L 180.499823 601.864451 
L 188.395119 600.756116 
L 196.290414 599.400556 
L 202.211885 598.195867 
L 208.133357 596.807248 
L 214.054828 595.211773 
L 219.9763 593.384128 
L 225.897771 591.296499 
L 231.819243 588.918501 
L 237.740715 586.21716 
L 241.688362 584.219199 
L 245.63601 582.050684 
L 249.583658 579.700063 
L 253.531305 577.155388 
L 257.478953 574.404378 
L 261.426601 571.434496 
L 265.374248 568.233036 
L 269.321896 564.787234 
L 273.269544 561.084403 
L 277.217191 557.112078 
L 281.164839 552.858187 
L 285.112487 548.311249 
L 289.060134 543.460577 
L 293.007782 538.296513 
L 296.95543 532.810669 
L 300.903077 526.996179 
L 304.850725 520.847963 
L 308.798373 514.362986 
L 312.746021 507.540504 
L 316.693668 500.382301 
L 320.641316 492.892902 
L 326.562787 481.054901 
L 332.484259 468.527155 
L 338.40573 455.363483 
L 344.327202 441.633271 
L 350.248674 427.420433 
L 358.143969 407.88775 
L 369.986912 377.868927 
L 383.803679 342.864278 
L 391.698974 323.39119 
L 399.59427 304.599651 
L 405.515741 291.071571 
L 411.437213 278.102922 
L 417.358684 265.745516 
L 423.280156 254.037096 
L 429.201627 243.002024 
L 433.149275 236.025814 
L 437.096923 229.355271 
L 441.04457 222.989248 
L 444.992218 216.924843 
L 448.939866 211.157611 
L 452.887513 205.681767 
L 456.835161 200.49039 
L 460.782809 195.575612 
L 464.730456 190.928795 
L 468.678104 186.5407 
L 472.625752 182.401635 
L 476.573399 178.50159 
L 480.521047 174.830362 
L 484.468695 171.377655 
L 488.416342 168.13318 
L 492.36399 165.086729 
L 498.285462 160.866397 
L 504.206933 157.035996 
L 510.128405 153.563842 
L 516.049876 150.419836 
L 521.971348 147.575609 
L 527.892819 145.004602 
L 533.814291 142.682095 
L 539.735762 140.58519 
L 545.657234 138.692772 
L 551.578705 136.985438 
L 559.474001 134.966408 
L 567.369296 133.207088 
L 575.264591 131.674015 
L 583.159887 130.33776 
L 593.029006 128.905215 
L 602.898125 127.696709 
L 614.741068 126.491115 
L 622.636364 125.81121 
L 622.636364 125.81121 
" style="fill:none;stroke:#7f7f7f;stroke-linecap:square;stroke-width:1.5;"/>
   </g>
   <g id="line2d_37">
    <path clip-path="url(#p8ce4d4f49a)" d="M 115.363636 605.290909 
L 133.128051 605.180825 
L 148.918642 604.870684 
L 162.735409 604.372282 
L 174.578352 603.711214 
L 184.447471 602.941213 
L 192.342766 602.143642 
L 200.238062 601.14824 
L 208.133357 599.914406 
L 214.054828 598.803844 
L 219.9763 597.508643 
L 225.897771 596.002199 
L 231.819243 594.254597 
L 237.740715 592.232367 
L 243.662186 589.898294 
L 247.609834 588.148869 
L 251.557481 586.229528 
L 255.505129 584.126372 
L 259.452777 581.82477 
L 263.400424 579.309403 
L 267.348072 576.564332 
L 271.29572 573.573088 
L 275.243368 570.318789 
L 279.191015 566.784293 
L 283.138663 562.952379 
L 287.086311 558.805966 
L 291.033958 554.328368 
L 294.981606 549.503588 
L 298.929254 544.316644 
L 302.876901 538.753931 
L 306.824549 532.803604 
L 310.772197 526.455989 
L 314.719844 519.703996 
L 318.667492 512.543528 
L 322.61514 504.973874 
L 326.562787 496.998071 
L 330.510435 488.623203 
L 334.458083 479.860644 
L 340.379554 466.025694 
L 346.301026 451.427283 
L 352.222497 436.159523 
L 358.143969 420.336382 
L 366.039264 398.602328 
L 393.672798 321.593721 
L 399.59427 305.844533 
L 405.515741 290.631312 
L 411.437213 276.044144 
L 417.358684 262.153953 
L 423.280156 249.012621 
L 427.227803 240.685148 
L 431.175451 232.711698 
L 435.123099 225.095091 
L 439.070746 217.835403 
L 443.018394 210.930254 
L 446.966042 204.37511 
L 450.913689 198.163568 
L 454.861337 192.287647 
L 458.808985 186.738051 
L 462.756632 181.504426 
L 466.70428 176.575586 
L 470.651928 171.939727 
L 474.599576 167.584613 
L 478.547223 163.497742 
L 482.494871 159.666493 
L 486.442519 156.078246 
L 490.390166 152.720495 
L 494.337814 149.58093 
L 498.285462 146.647513 
L 502.233109 143.908537 
L 508.154581 140.139972 
L 514.076052 136.74701 
L 519.997524 133.695411 
L 525.918995 130.953267 
L 531.840467 128.491024 
L 537.761938 126.28145 
L 543.68341 124.29956 
L 549.604881 122.522525 
L 555.526353 120.92955 
L 563.421648 119.059519 
L 571.316944 117.443431 
L 579.212239 116.046437 
L 589.081358 114.56248 
L 598.950478 113.323188 
L 610.793421 112.100059 
L 622.636364 111.109091 
L 622.636364 111.109091 
" style="fill:none;stroke:#bcbd22;stroke-linecap:square;stroke-width:1.5;"/>
   </g>
   <g id="line2d_38">
    <path clip-path="url(#p8ce4d4f49a)" d="M 115.363636 605.290909 
L 135.101875 605.183752 
L 144.970994 604.969437 
L 158.787761 604.678102 
L 160.761585 604.624524 
L 162.735409 604.443695 
L 168.65688 604.323143 
L 188.395119 603.288404 
L 194.31659 602.427796 
L 198.264238 601.932193 
L 202.211885 601.61072 
L 206.159533 601.212228 
L 208.133357 600.405199 
L 210.107181 599.989964 
L 212.081005 599.698629 
L 214.054828 599.29344 
L 216.028652 599.012152 
L 221.950124 597.167034 
L 223.923948 596.768542 
L 225.897771 595.847658 
L 227.871595 595.402285 
L 229.845419 594.786129 
L 235.766891 592.515731 
L 237.740715 591.638379 
L 239.714538 591.052362 
L 241.688362 590.322352 
L 243.662186 588.855634 
L 245.63601 587.95819 
L 247.609834 586.645511 
L 251.557481 584.355021 
L 253.531305 583.025598 
L 255.505129 581.431631 
L 259.452777 577.242444 
L 261.426601 576.090502 
L 263.400424 573.207296 
L 265.374248 571.901315 
L 267.348072 570.062895 
L 269.321896 568.522506 
L 273.269544 564.323273 
L 275.243368 562.705865 
L 277.217191 560.596203 
L 281.164839 558.617139 
L 283.138663 556.289813 
L 285.112487 554.156709 
L 287.086311 551.196485 
L 289.060134 548.6381 
L 291.033958 545.580764 
L 294.981606 541.458551 
L 300.903077 533.334676 
L 306.824549 523.660366 
L 308.798373 519.960085 
L 310.772197 516.959677 
L 312.746021 513.282836 
L 314.719844 509.880587 
L 316.693668 506.79981 
L 318.667492 502.603926 
L 320.641316 499.764253 
L 322.61514 497.751702 
L 324.588964 494.088257 
L 326.562787 490.712797 
L 332.484259 477.840507 
L 336.431907 469.676448 
L 338.40573 466.207225 
L 340.379554 461.388488 
L 342.353378 457.607839 
L 344.327202 452.74557 
L 346.301026 447.270493 
L 348.27485 443.965355 
L 350.248674 440.405718 
L 352.222497 434.990918 
L 354.196321 430.466864 
L 360.117793 410.642734 
L 364.06544 401.088977 
L 366.039264 396.514693 
L 368.013088 390.560757 
L 369.986912 386.820292 
L 371.960736 382.788493 
L 373.93456 376.677169 
L 375.908383 372.832895 
L 377.882207 366.966024 
L 381.829855 359.086602 
L 383.803679 353.393862 
L 385.777503 348.186679 
L 387.751326 341.475944 
L 389.72515 336.921752 
L 391.698974 331.252452 
L 393.672798 326.179216 
L 395.646622 320.218583 
L 397.620446 315.925587 
L 399.59427 311.009739 
L 401.568093 307.111886 
L 403.541917 303.950741 
L 407.489565 292.803017 
L 409.463389 286.966284 
L 411.437213 282.318329 
L 413.411036 277.325461 
L 417.358684 269.308744 
L 419.332508 266.365263 
L 421.306332 260.35105 
L 423.280156 253.5499 
L 425.253979 250.151 
L 427.227803 245.563321 
L 429.201627 242.24144 
L 431.175451 239.8237 
L 433.149275 236.478378 
L 435.123099 233.628659 
L 439.070746 226.495991 
L 441.04457 222.209692 
L 443.018394 219.045199 
L 446.966042 214.879452 
L 450.913689 210.425721 
L 454.861337 204.893717 
L 456.835161 202.680245 
L 458.808985 200.912147 
L 460.782809 198.116007 
L 462.756632 195.758543 
L 464.730456 192.285972 
L 466.70428 189.406115 
L 468.678104 186.167951 
L 474.599576 177.973754 
L 476.573399 175.740191 
L 482.494871 169.829787 
L 484.468695 168.426694 
L 486.442519 167.736868 
L 488.416342 166.69878 
L 490.390166 165.134951 
L 492.36399 163.336715 
L 496.311638 159.211153 
L 498.285462 157.972145 
L 502.233109 155.859133 
L 504.206933 154.459389 
L 506.180757 152.21578 
L 508.154581 150.859568 
L 510.128405 149.175187 
L 512.102229 148.003152 
L 514.076052 147.0019 
L 516.049876 146.201568 
L 518.0237 144.992697 
L 521.971348 143.315013 
L 525.918995 141.66077 
L 529.866643 140.883879 
L 533.814291 139.390372 
L 535.788115 138.794308 
L 537.761938 137.980581 
L 539.735762 137.484978 
L 541.709586 137.280709 
L 545.657234 136.389963 
L 553.552529 133.905249 
L 557.500177 133.325929 
L 565.395472 131.052182 
L 567.369296 130.630249 
L 569.34312 130.37575 
L 571.316944 130.261896 
L 573.290768 130.030837 
L 581.186063 128.38664 
L 583.159887 128.225904 
L 587.107534 127.593005 
L 591.055182 126.839554 
L 593.029006 126.236794 
L 595.00283 125.861742 
L 596.976654 125.644079 
L 600.924301 124.883931 
L 602.898125 124.562458 
L 604.871949 123.936257 
L 608.819597 123.380378 
L 612.767244 123.005326 
L 622.636364 121.136768 
L 622.636364 121.136768 
" style="fill:none;stroke:#17becf;stroke-dasharray:14.8,6.4;stroke-dashoffset:0;stroke-width:4;"/>
   </g>
   <g id="patch_3">
    <path d="M 90 630 
L 90 86.4 
" style="fill:none;stroke:#000000;stroke-linecap:square;stroke-linejoin:miter;stroke-width:0.8;"/>
   </g>
   <g id="patch_4">
    <path d="M 648 630 
L 648 86.4 
" style="fill:none;stroke:#000000;stroke-linecap:square;stroke-linejoin:miter;stroke-width:0.8;"/>
   </g>
   <g id="patch_5">
    <path d="M 90 630 
L 648 630 
" style="fill:none;stroke:#000000;stroke-linecap:square;stroke-linejoin:miter;stroke-width:0.8;"/>
   </g>
   <g id="patch_6">
    <path d="M 90 86.4 
L 648 86.4 
" style="fill:none;stroke:#000000;stroke-linecap:square;stroke-linejoin:miter;stroke-width:0.8;"/>
   </g>
   <g id="text_17">
    <!-- Bolivia relative err =  -->
    <g transform="translate(305.17875 80.4)scale(0.12 -0.12)">
     <defs>
      <path d="M 19.671875 34.8125 
L 19.671875 8.109375 
L 35.5 8.109375 
Q 43.453125 8.109375 47.28125 11.40625 
Q 51.125 14.703125 51.125 21.484375 
Q 51.125 28.328125 47.28125 31.5625 
Q 43.453125 34.8125 35.5 34.8125 
z
M 19.671875 64.796875 
L 19.671875 42.828125 
L 34.28125 42.828125 
Q 41.5 42.828125 45.03125 45.53125 
Q 48.578125 48.25 48.578125 53.8125 
Q 48.578125 59.328125 45.03125 62.0625 
Q 41.5 64.796875 34.28125 64.796875 
z
M 9.8125 72.90625 
L 35.015625 72.90625 
Q 46.296875 72.90625 52.390625 68.21875 
Q 58.5 63.53125 58.5 54.890625 
Q 58.5 48.1875 55.375 44.234375 
Q 52.25 40.28125 46.1875 39.3125 
Q 53.46875 37.75 57.5 32.78125 
Q 61.53125 27.828125 61.53125 20.40625 
Q 61.53125 10.640625 54.890625 5.3125 
Q 48.25 0 35.984375 0 
L 9.8125 0 
z
" id="DejaVuSans-66"/>
      <path d="M 30.609375 48.390625 
Q 23.390625 48.390625 19.1875 42.75 
Q 14.984375 37.109375 14.984375 27.296875 
Q 14.984375 17.484375 19.15625 11.84375 
Q 23.34375 6.203125 30.609375 6.203125 
Q 37.796875 6.203125 41.984375 11.859375 
Q 46.1875 17.53125 46.1875 27.296875 
Q 46.1875 37.015625 41.984375 42.703125 
Q 37.796875 48.390625 30.609375 48.390625 
z
M 30.609375 56 
Q 42.328125 56 49.015625 48.375 
Q 55.71875 40.765625 55.71875 27.296875 
Q 55.71875 13.875 49.015625 6.21875 
Q 42.328125 -1.421875 30.609375 -1.421875 
Q 18.84375 -1.421875 12.171875 6.21875 
Q 5.515625 13.875 5.515625 27.296875 
Q 5.515625 40.765625 12.171875 48.375 
Q 18.84375 56 30.609375 56 
z
" id="DejaVuSans-111"/>
      <path d="M 41.109375 46.296875 
Q 39.59375 47.171875 37.8125 47.578125 
Q 36.03125 48 33.890625 48 
Q 26.265625 48 22.1875 43.046875 
Q 18.109375 38.09375 18.109375 28.8125 
L 18.109375 0 
L 9.078125 0 
L 9.078125 54.6875 
L 18.109375 54.6875 
L 18.109375 46.1875 
Q 20.953125 51.171875 25.484375 53.578125 
Q 30.03125 56 36.53125 56 
Q 37.453125 56 38.578125 55.875 
Q 39.703125 55.765625 41.0625 55.515625 
z
" id="DejaVuSans-114"/>
      <path d="M 10.59375 45.40625 
L 73.1875 45.40625 
L 73.1875 37.203125 
L 10.59375 37.203125 
z
M 10.59375 25.484375 
L 73.1875 25.484375 
L 73.1875 17.1875 
L 10.59375 17.1875 
z
" id="DejaVuSans-61"/>
     </defs>
     <use xlink:href="#DejaVuSans-66"/>
     <use x="68.603516" xlink:href="#DejaVuSans-111"/>
     <use x="129.785156" xlink:href="#DejaVuSans-108"/>
     <use x="157.568359" xlink:href="#DejaVuSans-105"/>
     <use x="185.351562" xlink:href="#DejaVuSans-118"/>
     <use x="244.53125" xlink:href="#DejaVuSans-105"/>
     <use x="272.314453" xlink:href="#DejaVuSans-97"/>
     <use x="333.59375" xlink:href="#DejaVuSans-32"/>
     <use x="365.380859" xlink:href="#DejaVuSans-114"/>
     <use x="404.244141" xlink:href="#DejaVuSans-101"/>
     <use x="465.767578" xlink:href="#DejaVuSans-108"/>
     <use x="493.550781" xlink:href="#DejaVuSans-97"/>
     <use x="554.830078" xlink:href="#DejaVuSans-116"/>
     <use x="594.039062" xlink:href="#DejaVuSans-105"/>
     <use x="621.822266" xlink:href="#DejaVuSans-118"/>
     <use x="681.001953" xlink:href="#DejaVuSans-101"/>
     <use x="742.525391" xlink:href="#DejaVuSans-32"/>
     <use x="774.3125" xlink:href="#DejaVuSans-101"/>
     <use x="835.835938" xlink:href="#DejaVuSans-114"/>
     <use x="875.199219" xlink:href="#DejaVuSans-114"/>
     <use x="916.3125" xlink:href="#DejaVuSans-32"/>
     <use x="948.099609" xlink:href="#DejaVuSans-61"/>
     <use x="1031.888672" xlink:href="#DejaVuSans-32"/>
    </g>
   </g>
   <g id="legend_1">
    <g id="patch_7">
     <path d="M 97 226.503125 
L 185.6 226.503125 
Q 187.6 226.503125 187.6 224.503125 
L 187.6 93.4 
Q 187.6 91.4 185.6 91.4 
L 97 91.4 
Q 95 91.4 95 93.4 
L 95 224.503125 
Q 95 226.503125 97 226.503125 
z
" style="fill:#ffffff;opacity:0.8;stroke:#cccccc;stroke-linejoin:miter;"/>
    </g>
    <g id="line2d_39">
     <path d="M 99 99.498438 
L 119 99.498438 
" style="fill:none;stroke:#1f77b4;stroke-linecap:square;stroke-width:1.5;"/>
    </g>
    <g id="line2d_40"/>
    <g id="text_18">
     <!-- SI -->
     <g transform="translate(127 102.998438)scale(0.1 -0.1)">
      <defs>
       <path d="M 53.515625 70.515625 
L 53.515625 60.890625 
Q 47.90625 63.578125 42.921875 64.890625 
Q 37.9375 66.21875 33.296875 66.21875 
Q 25.25 66.21875 20.875 63.09375 
Q 16.5 59.96875 16.5 54.203125 
Q 16.5 49.359375 19.40625 46.890625 
Q 22.3125 44.4375 30.421875 42.921875 
L 36.375 41.703125 
Q 47.40625 39.59375 52.65625 34.296875 
Q 57.90625 29 57.90625 20.125 
Q 57.90625 9.515625 50.796875 4.046875 
Q 43.703125 -1.421875 29.984375 -1.421875 
Q 24.8125 -1.421875 18.96875 -0.25 
Q 13.140625 0.921875 6.890625 3.21875 
L 6.890625 13.375 
Q 12.890625 10.015625 18.65625 8.296875 
Q 24.421875 6.59375 29.984375 6.59375 
Q 38.421875 6.59375 43.015625 9.90625 
Q 47.609375 13.234375 47.609375 19.390625 
Q 47.609375 24.75 44.3125 27.78125 
Q 41.015625 30.8125 33.5 32.328125 
L 27.484375 33.5 
Q 16.453125 35.6875 11.515625 40.375 
Q 6.59375 45.0625 6.59375 53.421875 
Q 6.59375 63.09375 13.40625 68.65625 
Q 20.21875 74.21875 32.171875 74.21875 
Q 37.3125 74.21875 42.625 73.28125 
Q 47.953125 72.359375 53.515625 70.515625 
z
" id="DejaVuSans-83"/>
       <path d="M 9.8125 72.90625 
L 19.671875 72.90625 
L 19.671875 0 
L 9.8125 0 
z
" id="DejaVuSans-73"/>
      </defs>
      <use xlink:href="#DejaVuSans-83"/>
      <use x="63.476562" xlink:href="#DejaVuSans-73"/>
     </g>
    </g>
    <g id="line2d_41">
     <path d="M 99 114.176563 
L 119 114.176563 
" style="fill:none;stroke:#ff7f0e;stroke-linecap:square;stroke-width:1.5;"/>
    </g>
    <g id="line2d_42"/>
    <g id="text_19">
     <!-- BD -->
     <g transform="translate(127 117.676563)scale(0.1 -0.1)">
      <use xlink:href="#DejaVuSans-66"/>
      <use x="68.603516" xlink:href="#DejaVuSans-68"/>
     </g>
    </g>
    <g id="line2d_43">
     <path d="M 99 128.854688 
L 119 128.854688 
" style="fill:none;stroke:#2ca02c;stroke-linecap:square;stroke-width:1.5;"/>
    </g>
    <g id="line2d_44"/>
    <g id="text_20">
     <!-- SIR -->
     <g transform="translate(127 132.354688)scale(0.1 -0.1)">
      <defs>
       <path d="M 44.390625 34.1875 
Q 47.5625 33.109375 50.5625 29.59375 
Q 53.5625 26.078125 56.59375 19.921875 
L 66.609375 0 
L 56 0 
L 46.6875 18.703125 
Q 43.0625 26.03125 39.671875 28.421875 
Q 36.28125 30.8125 30.421875 30.8125 
L 19.671875 30.8125 
L 19.671875 0 
L 9.8125 0 
L 9.8125 72.90625 
L 32.078125 72.90625 
Q 44.578125 72.90625 50.734375 67.671875 
Q 56.890625 62.453125 56.890625 51.90625 
Q 56.890625 45.015625 53.6875 40.46875 
Q 50.484375 35.9375 44.390625 34.1875 
z
M 19.671875 64.796875 
L 19.671875 38.921875 
L 32.078125 38.921875 
Q 39.203125 38.921875 42.84375 42.21875 
Q 46.484375 45.515625 46.484375 51.90625 
Q 46.484375 58.296875 42.84375 61.546875 
Q 39.203125 64.796875 32.078125 64.796875 
z
" id="DejaVuSans-82"/>
      </defs>
      <use xlink:href="#DejaVuSans-83"/>
      <use x="63.476562" xlink:href="#DejaVuSans-73"/>
      <use x="92.96875" xlink:href="#DejaVuSans-82"/>
     </g>
    </g>
    <g id="line2d_45">
     <path d="M 99 143.532812 
L 119 143.532812 
" style="fill:none;stroke:#d62728;stroke-linecap:square;stroke-width:1.5;"/>
    </g>
    <g id="line2d_46"/>
    <g id="text_21">
     <!-- eSIR -->
     <g transform="translate(127 147.032812)scale(0.1 -0.1)">
      <use xlink:href="#DejaVuSans-101"/>
      <use x="61.523438" xlink:href="#DejaVuSans-83"/>
      <use x="125" xlink:href="#DejaVuSans-73"/>
      <use x="154.492188" xlink:href="#DejaVuSans-82"/>
     </g>
    </g>
    <g id="line2d_47">
     <path d="M 99 158.210938 
L 119 158.210938 
" style="fill:none;stroke:#9467bd;stroke-linecap:square;stroke-width:1.5;"/>
    </g>
    <g id="line2d_48"/>
    <g id="text_22">
     <!-- SEIR -->
     <g transform="translate(127 161.710938)scale(0.1 -0.1)">
      <defs>
       <path d="M 9.8125 72.90625 
L 55.90625 72.90625 
L 55.90625 64.59375 
L 19.671875 64.59375 
L 19.671875 43.015625 
L 54.390625 43.015625 
L 54.390625 34.71875 
L 19.671875 34.71875 
L 19.671875 8.296875 
L 56.78125 8.296875 
L 56.78125 0 
L 9.8125 0 
z
" id="DejaVuSans-69"/>
      </defs>
      <use xlink:href="#DejaVuSans-83"/>
      <use x="63.476562" xlink:href="#DejaVuSans-69"/>
      <use x="126.660156" xlink:href="#DejaVuSans-73"/>
      <use x="156.152344" xlink:href="#DejaVuSans-82"/>
     </g>
    </g>
    <g id="line2d_49">
     <path d="M 99 172.889063 
L 119 172.889063 
" style="fill:none;stroke:#8c564b;stroke-linecap:square;stroke-width:1.5;"/>
    </g>
    <g id="line2d_50"/>
    <g id="text_23">
     <!-- eSEIR -->
     <g transform="translate(127 176.389063)scale(0.1 -0.1)">
      <use xlink:href="#DejaVuSans-101"/>
      <use x="61.523438" xlink:href="#DejaVuSans-83"/>
      <use x="125" xlink:href="#DejaVuSans-69"/>
      <use x="188.183594" xlink:href="#DejaVuSans-73"/>
      <use x="217.675781" xlink:href="#DejaVuSans-82"/>
     </g>
    </g>
    <g id="line2d_51">
     <path d="M 99 187.567188 
L 119 187.567188 
" style="fill:none;stroke:#e377c2;stroke-linecap:square;stroke-width:1.5;"/>
    </g>
    <g id="line2d_52"/>
    <g id="text_24">
     <!-- SEIUR -->
     <g transform="translate(127 191.067188)scale(0.1 -0.1)">
      <defs>
       <path d="M 8.6875 72.90625 
L 18.609375 72.90625 
L 18.609375 28.609375 
Q 18.609375 16.890625 22.84375 11.734375 
Q 27.09375 6.59375 36.625 6.59375 
Q 46.09375 6.59375 50.34375 11.734375 
Q 54.59375 16.890625 54.59375 28.609375 
L 54.59375 72.90625 
L 64.5 72.90625 
L 64.5 27.390625 
Q 64.5 13.140625 57.4375 5.859375 
Q 50.390625 -1.421875 36.625 -1.421875 
Q 22.796875 -1.421875 15.734375 5.859375 
Q 8.6875 13.140625 8.6875 27.390625 
z
" id="DejaVuSans-85"/>
      </defs>
      <use xlink:href="#DejaVuSans-83"/>
      <use x="63.476562" xlink:href="#DejaVuSans-69"/>
      <use x="126.660156" xlink:href="#DejaVuSans-73"/>
      <use x="156.152344" xlink:href="#DejaVuSans-85"/>
      <use x="229.345703" xlink:href="#DejaVuSans-82"/>
     </g>
    </g>
    <g id="line2d_53">
     <path d="M 99 202.245312 
L 119 202.245312 
" style="fill:none;stroke:#7f7f7f;stroke-linecap:square;stroke-width:1.5;"/>
    </g>
    <g id="line2d_54"/>
    <g id="text_25">
     <!-- eSEIUR -->
     <g transform="translate(127 205.745312)scale(0.1 -0.1)">
      <use xlink:href="#DejaVuSans-101"/>
      <use x="61.523438" xlink:href="#DejaVuSans-83"/>
      <use x="125" xlink:href="#DejaVuSans-69"/>
      <use x="188.183594" xlink:href="#DejaVuSans-73"/>
      <use x="217.675781" xlink:href="#DejaVuSans-85"/>
      <use x="290.869141" xlink:href="#DejaVuSans-82"/>
     </g>
    </g>
    <g id="line2d_55">
     <path d="M 99 216.923437 
L 119 216.923437 
" style="fill:none;stroke:#bcbd22;stroke-linecap:square;stroke-width:1.5;"/>
    </g>
    <g id="line2d_56"/>
    <g id="text_26">
     <!-- eSEIUR$^{range}$ -->
     <g transform="translate(127 220.423437)scale(0.1 -0.1)">
      <defs>
       <path d="M 44.578125 46.390625 
Q 43.21875 47.125 41.453125 47.515625 
Q 39.703125 47.90625 37.703125 47.90625 
Q 30.515625 47.90625 25.140625 42.453125 
Q 19.78125 37.015625 18.015625 27.875 
L 12.5 0 
L 3.515625 0 
L 14.203125 54.6875 
L 23.1875 54.6875 
L 21.484375 46.1875 
Q 25.046875 50.921875 30 53.453125 
Q 34.96875 56 40.578125 56 
Q 42.046875 56 43.453125 55.828125 
Q 44.875 55.671875 46.296875 55.28125 
z
" id="DejaVuSans-Oblique-114"/>
       <path d="M 53.71875 31.203125 
L 47.609375 0 
L 38.625 0 
L 40.28125 8.296875 
Q 36.328125 3.421875 31.265625 1 
Q 26.21875 -1.421875 20.015625 -1.421875 
Q 13.03125 -1.421875 8.5625 2.84375 
Q 4.109375 7.125 4.109375 13.8125 
Q 4.109375 23.390625 11.75 28.953125 
Q 19.390625 34.515625 32.8125 34.515625 
L 45.3125 34.515625 
L 45.796875 36.921875 
Q 45.90625 37.3125 45.953125 37.765625 
Q 46 38.234375 46 39.203125 
Q 46 43.5625 42.453125 45.96875 
Q 38.921875 48.390625 32.515625 48.390625 
Q 28.125 48.390625 23.5 47.265625 
Q 18.890625 46.140625 14.015625 43.890625 
L 15.578125 52.203125 
Q 20.65625 54.109375 25.515625 55.046875 
Q 30.375 56 34.90625 56 
Q 44.578125 56 49.625 51.796875 
Q 54.6875 47.609375 54.6875 39.59375 
Q 54.6875 37.984375 54.4375 35.8125 
Q 54.203125 33.640625 53.71875 31.203125 
z
M 44 27.484375 
L 35.015625 27.484375 
Q 23.96875 27.484375 18.671875 24.53125 
Q 13.375 21.578125 13.375 15.375 
Q 13.375 11.078125 16.078125 8.640625 
Q 18.796875 6.203125 23.578125 6.203125 
Q 30.90625 6.203125 36.375 11.453125 
Q 41.84375 16.703125 43.609375 25.484375 
z
" id="DejaVuSans-Oblique-97"/>
       <path d="M 55.71875 33.015625 
L 49.3125 0 
L 40.28125 0 
L 46.6875 32.671875 
Q 47.125 34.96875 47.359375 36.71875 
Q 47.609375 38.484375 47.609375 39.5 
Q 47.609375 43.609375 45.015625 45.890625 
Q 42.4375 48.1875 37.796875 48.1875 
Q 30.5625 48.1875 25.34375 43.375 
Q 20.125 38.578125 18.5 30.328125 
L 12.5 0 
L 3.515625 0 
L 14.109375 54.6875 
L 23.09375 54.6875 
L 21.296875 46.09375 
Q 25.046875 50.828125 30.3125 53.40625 
Q 35.59375 56 41.40625 56 
Q 48.640625 56 52.609375 52.09375 
Q 56.59375 48.1875 56.59375 41.109375 
Q 56.59375 39.359375 56.375 37.359375 
Q 56.15625 35.359375 55.71875 33.015625 
z
" id="DejaVuSans-Oblique-110"/>
       <path d="M 59.625 54.6875 
L 50.296875 6.78125 
Q 47.609375 -7.125 40.015625 -13.953125 
Q 32.421875 -20.796875 19.578125 -20.796875 
Q 14.84375 -20.796875 10.78125 -20.09375 
Q 6.734375 -19.390625 3.21875 -17.921875 
L 4.890625 -9.1875 
Q 8.203125 -11.328125 11.90625 -12.34375 
Q 15.625 -13.375 19.828125 -13.375 
Q 28.375 -13.375 33.859375 -8.703125 
Q 39.359375 -4.046875 41.109375 4.6875 
L 41.890625 8.796875 
Q 38.140625 4.5 33.15625 2.25 
Q 28.171875 0 22.40625 0 
Q 14.109375 0 9.34375 5.484375 
Q 4.59375 10.984375 4.59375 20.609375 
Q 4.59375 28.171875 7.46875 35.421875 
Q 10.359375 42.671875 15.578125 48.296875 
Q 19.046875 52 23.65625 54 
Q 28.265625 56 33.296875 56 
Q 38.8125 56 42.90625 53.4375 
Q 47.015625 50.875 49.03125 46.1875 
L 50.59375 54.6875 
z
M 46.09375 34.625 
Q 46.09375 41.265625 42.96875 44.875 
Q 39.84375 48.484375 34.078125 48.484375 
Q 30.515625 48.484375 27.296875 47.0625 
Q 24.078125 45.65625 21.78125 43.109375 
Q 18.0625 38.921875 15.984375 33.234375 
Q 13.921875 27.546875 13.921875 21.484375 
Q 13.921875 14.75 17.0625 11.125 
Q 20.21875 7.515625 26.125 7.515625 
Q 34.671875 7.515625 40.375 15.25 
Q 46.09375 23 46.09375 34.625 
z
" id="DejaVuSans-Oblique-103"/>
       <path d="M 48.09375 32.234375 
Q 48.25 33.015625 48.3125 33.84375 
Q 48.390625 34.671875 48.390625 35.5 
Q 48.390625 41.453125 44.890625 44.921875 
Q 41.40625 48.390625 35.40625 48.390625 
Q 28.71875 48.390625 23.578125 44.15625 
Q 18.453125 39.9375 15.828125 32.171875 
z
M 55.90625 25.203125 
L 14.109375 25.203125 
Q 13.8125 23.34375 13.71875 22.265625 
Q 13.625 21.1875 13.625 20.40625 
Q 13.625 13.625 17.796875 9.90625 
Q 21.96875 6.203125 29.59375 6.203125 
Q 35.453125 6.203125 40.671875 7.515625 
Q 45.90625 8.84375 50.390625 11.375 
L 48.6875 2.484375 
Q 43.84375 0.53125 38.6875 -0.4375 
Q 33.546875 -1.421875 28.21875 -1.421875 
Q 16.84375 -1.421875 10.71875 4.015625 
Q 4.59375 9.46875 4.59375 19.484375 
Q 4.59375 28.03125 7.640625 35.375 
Q 10.6875 42.71875 16.609375 48.484375 
Q 20.40625 52.09375 25.65625 54.046875 
Q 30.90625 56 36.8125 56 
Q 46.09375 56 51.578125 50.4375 
Q 57.078125 44.875 57.078125 35.5 
Q 57.078125 33.25 56.78125 30.6875 
Q 56.5 28.125 55.90625 25.203125 
z
" id="DejaVuSans-Oblique-101"/>
      </defs>
      <use transform="translate(0 0.51875)" xlink:href="#DejaVuSans-101"/>
      <use transform="translate(61.523438 0.51875)" xlink:href="#DejaVuSans-83"/>
      <use transform="translate(125 0.51875)" xlink:href="#DejaVuSans-69"/>
      <use transform="translate(188.183594 0.51875)" xlink:href="#DejaVuSans-73"/>
      <use transform="translate(217.675781 0.51875)" xlink:href="#DejaVuSans-85"/>
      <use transform="translate(288.619141 0.51875)" xlink:href="#DejaVuSans-82"/>
      <use transform="translate(359.058594 38.8)scale(0.7)" xlink:href="#DejaVuSans-Oblique-114"/>
      <use transform="translate(387.837891 38.8)scale(0.7)" xlink:href="#DejaVuSans-Oblique-97"/>
      <use transform="translate(430.733398 38.8)scale(0.7)" xlink:href="#DejaVuSans-Oblique-110"/>
      <use transform="translate(475.098633 38.8)scale(0.7)" xlink:href="#DejaVuSans-Oblique-103"/>
      <use transform="translate(519.532227 38.8)scale(0.7)" xlink:href="#DejaVuSans-Oblique-101"/>
     </g>
    </g>
   </g>
  </g>
 </g>
 <defs>
  <clipPath id="p8ce4d4f49a">
   <rect height="543.6" width="558" x="90" y="86.4"/>
  </clipPath>
 </defs>
</svg>
