<?xml version="1.0" encoding="utf-8" standalone="no"?>
<!DOCTYPE svg PUBLIC "-//W3C//DTD SVG 1.1//EN"
  "http://www.w3.org/Graphics/SVG/1.1/DTD/svg11.dtd">
<!-- Created with matplotlib (https://matplotlib.org/) -->
<svg height="720pt" version="1.1" viewBox="0 0 720 720" width="720pt" xmlns="http://www.w3.org/2000/svg" xmlns:xlink="http://www.w3.org/1999/xlink">
 <metadata>
  <rdf:RDF xmlns:cc="http://creativecommons.org/ns#" xmlns:dc="http://purl.org/dc/elements/1.1/" xmlns:rdf="http://www.w3.org/1999/02/22-rdf-syntax-ns#">
   <cc:Work>
    <dc:type rdf:resource="http://purl.org/dc/dcmitype/StillImage"/>
    <dc:date>2022-07-13T18:53:57.899262</dc:date>
    <dc:format>image/svg+xml</dc:format>
    <dc:creator>
     <cc:Agent>
      <dc:title>Matplotlib v3.3.2, https://matplotlib.org/</dc:title>
     </cc:Agent>
    </dc:creator>
   </cc:Work>
  </rdf:RDF>
 </metadata>
 <defs>
  <style type="text/css">*{stroke-linecap:butt;stroke-linejoin:round;}</style>
 </defs>
 <g id="figure_1">
  <g id="patch_1">
   <path d="M 0 720 
L 720 720 
L 720 0 
L 0 0 
z
" style="fill:none;"/>
  </g>
  <g id="axes_1">
   <g id="patch_2">
    <path d="M 90 630 
L 648 630 
L 648 86.4 
L 90 86.4 
z
" style="fill:#ffffff;"/>
   </g>
   <g id="matplotlib.axis_1">
    <g id="xtick_1">
     <g id="line2d_1">
      <path clip-path="url(#p99cb24cf41)" d="M 115.363636 630 
L 115.363636 86.4 
" style="fill:none;stroke:#b0b0b0;stroke-linecap:square;stroke-width:0.8;"/>
     </g>
     <g id="line2d_2">
      <defs>
       <path d="M 0 0 
L 0 3.5 
" id="mee5d7c5a74" style="stroke:#000000;stroke-width:0.8;"/>
      </defs>
      <g>
       <use style="stroke:#000000;stroke-width:0.8;" x="115.363636" xlink:href="#mee5d7c5a74" y="630"/>
      </g>
     </g>
     <g id="text_1">
      <!-- 0 -->
      <g transform="translate(112.182386 644.598438)scale(0.1 -0.1)">
       <defs>
        <path d="M 31.78125 66.40625 
Q 24.171875 66.40625 20.328125 58.90625 
Q 16.5 51.421875 16.5 36.375 
Q 16.5 21.390625 20.328125 13.890625 
Q 24.171875 6.390625 31.78125 6.390625 
Q 39.453125 6.390625 43.28125 13.890625 
Q 47.125 21.390625 47.125 36.375 
Q 47.125 51.421875 43.28125 58.90625 
Q 39.453125 66.40625 31.78125 66.40625 
z
M 31.78125 74.21875 
Q 44.046875 74.21875 50.515625 64.515625 
Q 56.984375 54.828125 56.984375 36.375 
Q 56.984375 17.96875 50.515625 8.265625 
Q 44.046875 -1.421875 31.78125 -1.421875 
Q 19.53125 -1.421875 13.0625 8.265625 
Q 6.59375 17.96875 6.59375 36.375 
Q 6.59375 54.828125 13.0625 64.515625 
Q 19.53125 74.21875 31.78125 74.21875 
z
" id="DejaVuSans-48"/>
       </defs>
       <use xlink:href="#DejaVuSans-48"/>
      </g>
     </g>
    </g>
    <g id="xtick_2">
     <g id="line2d_3">
      <path clip-path="url(#p99cb24cf41)" d="M 237.598028 630 
L 237.598028 86.4 
" style="fill:none;stroke:#b0b0b0;stroke-linecap:square;stroke-width:0.8;"/>
     </g>
     <g id="line2d_4">
      <g>
       <use style="stroke:#000000;stroke-width:0.8;" x="237.598028" xlink:href="#mee5d7c5a74" y="630"/>
      </g>
     </g>
     <g id="text_2">
      <!-- 20 -->
      <g transform="translate(231.235528 644.598438)scale(0.1 -0.1)">
       <defs>
        <path d="M 19.1875 8.296875 
L 53.609375 8.296875 
L 53.609375 0 
L 7.328125 0 
L 7.328125 8.296875 
Q 12.9375 14.109375 22.625 23.890625 
Q 32.328125 33.6875 34.8125 36.53125 
Q 39.546875 41.84375 41.421875 45.53125 
Q 43.3125 49.21875 43.3125 52.78125 
Q 43.3125 58.59375 39.234375 62.25 
Q 35.15625 65.921875 28.609375 65.921875 
Q 23.96875 65.921875 18.8125 64.3125 
Q 13.671875 62.703125 7.8125 59.421875 
L 7.8125 69.390625 
Q 13.765625 71.78125 18.9375 73 
Q 24.125 74.21875 28.421875 74.21875 
Q 39.75 74.21875 46.484375 68.546875 
Q 53.21875 62.890625 53.21875 53.421875 
Q 53.21875 48.921875 51.53125 44.890625 
Q 49.859375 40.875 45.40625 35.40625 
Q 44.1875 33.984375 37.640625 27.21875 
Q 31.109375 20.453125 19.1875 8.296875 
z
" id="DejaVuSans-50"/>
       </defs>
       <use xlink:href="#DejaVuSans-50"/>
       <use x="63.623047" xlink:href="#DejaVuSans-48"/>
      </g>
     </g>
    </g>
    <g id="xtick_3">
     <g id="line2d_5">
      <path clip-path="url(#p99cb24cf41)" d="M 359.832421 630 
L 359.832421 86.4 
" style="fill:none;stroke:#b0b0b0;stroke-linecap:square;stroke-width:0.8;"/>
     </g>
     <g id="line2d_6">
      <g>
       <use style="stroke:#000000;stroke-width:0.8;" x="359.832421" xlink:href="#mee5d7c5a74" y="630"/>
      </g>
     </g>
     <g id="text_3">
      <!-- 40 -->
      <g transform="translate(353.469921 644.598438)scale(0.1 -0.1)">
       <defs>
        <path d="M 37.796875 64.3125 
L 12.890625 25.390625 
L 37.796875 25.390625 
z
M 35.203125 72.90625 
L 47.609375 72.90625 
L 47.609375 25.390625 
L 58.015625 25.390625 
L 58.015625 17.1875 
L 47.609375 17.1875 
L 47.609375 0 
L 37.796875 0 
L 37.796875 17.1875 
L 4.890625 17.1875 
L 4.890625 26.703125 
z
" id="DejaVuSans-52"/>
       </defs>
       <use xlink:href="#DejaVuSans-52"/>
       <use x="63.623047" xlink:href="#DejaVuSans-48"/>
      </g>
     </g>
    </g>
    <g id="xtick_4">
     <g id="line2d_7">
      <path clip-path="url(#p99cb24cf41)" d="M 482.066813 630 
L 482.066813 86.4 
" style="fill:none;stroke:#b0b0b0;stroke-linecap:square;stroke-width:0.8;"/>
     </g>
     <g id="line2d_8">
      <g>
       <use style="stroke:#000000;stroke-width:0.8;" x="482.066813" xlink:href="#mee5d7c5a74" y="630"/>
      </g>
     </g>
     <g id="text_4">
      <!-- 60 -->
      <g transform="translate(475.704313 644.598438)scale(0.1 -0.1)">
       <defs>
        <path d="M 33.015625 40.375 
Q 26.375 40.375 22.484375 35.828125 
Q 18.609375 31.296875 18.609375 23.390625 
Q 18.609375 15.53125 22.484375 10.953125 
Q 26.375 6.390625 33.015625 6.390625 
Q 39.65625 6.390625 43.53125 10.953125 
Q 47.40625 15.53125 47.40625 23.390625 
Q 47.40625 31.296875 43.53125 35.828125 
Q 39.65625 40.375 33.015625 40.375 
z
M 52.59375 71.296875 
L 52.59375 62.3125 
Q 48.875 64.0625 45.09375 64.984375 
Q 41.3125 65.921875 37.59375 65.921875 
Q 27.828125 65.921875 22.671875 59.328125 
Q 17.53125 52.734375 16.796875 39.40625 
Q 19.671875 43.65625 24.015625 45.921875 
Q 28.375 48.1875 33.59375 48.1875 
Q 44.578125 48.1875 50.953125 41.515625 
Q 57.328125 34.859375 57.328125 23.390625 
Q 57.328125 12.15625 50.6875 5.359375 
Q 44.046875 -1.421875 33.015625 -1.421875 
Q 20.359375 -1.421875 13.671875 8.265625 
Q 6.984375 17.96875 6.984375 36.375 
Q 6.984375 53.65625 15.1875 63.9375 
Q 23.390625 74.21875 37.203125 74.21875 
Q 40.921875 74.21875 44.703125 73.484375 
Q 48.484375 72.75 52.59375 71.296875 
z
" id="DejaVuSans-54"/>
       </defs>
       <use xlink:href="#DejaVuSans-54"/>
       <use x="63.623047" xlink:href="#DejaVuSans-48"/>
      </g>
     </g>
    </g>
    <g id="xtick_5">
     <g id="line2d_9">
      <path clip-path="url(#p99cb24cf41)" d="M 604.301205 630 
L 604.301205 86.4 
" style="fill:none;stroke:#b0b0b0;stroke-linecap:square;stroke-width:0.8;"/>
     </g>
     <g id="line2d_10">
      <g>
       <use style="stroke:#000000;stroke-width:0.8;" x="604.301205" xlink:href="#mee5d7c5a74" y="630"/>
      </g>
     </g>
     <g id="text_5">
      <!-- 80 -->
      <g transform="translate(597.938705 644.598438)scale(0.1 -0.1)">
       <defs>
        <path d="M 31.78125 34.625 
Q 24.75 34.625 20.71875 30.859375 
Q 16.703125 27.09375 16.703125 20.515625 
Q 16.703125 13.921875 20.71875 10.15625 
Q 24.75 6.390625 31.78125 6.390625 
Q 38.8125 6.390625 42.859375 10.171875 
Q 46.921875 13.96875 46.921875 20.515625 
Q 46.921875 27.09375 42.890625 30.859375 
Q 38.875 34.625 31.78125 34.625 
z
M 21.921875 38.8125 
Q 15.578125 40.375 12.03125 44.71875 
Q 8.5 49.078125 8.5 55.328125 
Q 8.5 64.0625 14.71875 69.140625 
Q 20.953125 74.21875 31.78125 74.21875 
Q 42.671875 74.21875 48.875 69.140625 
Q 55.078125 64.0625 55.078125 55.328125 
Q 55.078125 49.078125 51.53125 44.71875 
Q 48 40.375 41.703125 38.8125 
Q 48.828125 37.15625 52.796875 32.3125 
Q 56.78125 27.484375 56.78125 20.515625 
Q 56.78125 9.90625 50.3125 4.234375 
Q 43.84375 -1.421875 31.78125 -1.421875 
Q 19.734375 -1.421875 13.25 4.234375 
Q 6.78125 9.90625 6.78125 20.515625 
Q 6.78125 27.484375 10.78125 32.3125 
Q 14.796875 37.15625 21.921875 38.8125 
z
M 18.3125 54.390625 
Q 18.3125 48.734375 21.84375 45.5625 
Q 25.390625 42.390625 31.78125 42.390625 
Q 38.140625 42.390625 41.71875 45.5625 
Q 45.3125 48.734375 45.3125 54.390625 
Q 45.3125 60.0625 41.71875 63.234375 
Q 38.140625 66.40625 31.78125 66.40625 
Q 25.390625 66.40625 21.84375 63.234375 
Q 18.3125 60.0625 18.3125 54.390625 
z
" id="DejaVuSans-56"/>
       </defs>
       <use xlink:href="#DejaVuSans-56"/>
       <use x="63.623047" xlink:href="#DejaVuSans-48"/>
      </g>
     </g>
    </g>
    <g id="text_6">
     <!-- Days -->
     <g transform="translate(356.521875 658.276562)scale(0.1 -0.1)">
      <defs>
       <path d="M 19.671875 64.796875 
L 19.671875 8.109375 
L 31.59375 8.109375 
Q 46.6875 8.109375 53.6875 14.9375 
Q 60.6875 21.78125 60.6875 36.53125 
Q 60.6875 51.171875 53.6875 57.984375 
Q 46.6875 64.796875 31.59375 64.796875 
z
M 9.8125 72.90625 
L 30.078125 72.90625 
Q 51.265625 72.90625 61.171875 64.09375 
Q 71.09375 55.28125 71.09375 36.53125 
Q 71.09375 17.671875 61.125 8.828125 
Q 51.171875 0 30.078125 0 
L 9.8125 0 
z
" id="DejaVuSans-68"/>
       <path d="M 34.28125 27.484375 
Q 23.390625 27.484375 19.1875 25 
Q 14.984375 22.515625 14.984375 16.5 
Q 14.984375 11.71875 18.140625 8.90625 
Q 21.296875 6.109375 26.703125 6.109375 
Q 34.1875 6.109375 38.703125 11.40625 
Q 43.21875 16.703125 43.21875 25.484375 
L 43.21875 27.484375 
z
M 52.203125 31.203125 
L 52.203125 0 
L 43.21875 0 
L 43.21875 8.296875 
Q 40.140625 3.328125 35.546875 0.953125 
Q 30.953125 -1.421875 24.3125 -1.421875 
Q 15.921875 -1.421875 10.953125 3.296875 
Q 6 8.015625 6 15.921875 
Q 6 25.140625 12.171875 29.828125 
Q 18.359375 34.515625 30.609375 34.515625 
L 43.21875 34.515625 
L 43.21875 35.40625 
Q 43.21875 41.609375 39.140625 45 
Q 35.0625 48.390625 27.6875 48.390625 
Q 23 48.390625 18.546875 47.265625 
Q 14.109375 46.140625 10.015625 43.890625 
L 10.015625 52.203125 
Q 14.9375 54.109375 19.578125 55.046875 
Q 24.21875 56 28.609375 56 
Q 40.484375 56 46.34375 49.84375 
Q 52.203125 43.703125 52.203125 31.203125 
z
" id="DejaVuSans-97"/>
       <path d="M 32.171875 -5.078125 
Q 28.375 -14.84375 24.75 -17.8125 
Q 21.140625 -20.796875 15.09375 -20.796875 
L 7.90625 -20.796875 
L 7.90625 -13.28125 
L 13.1875 -13.28125 
Q 16.890625 -13.28125 18.9375 -11.515625 
Q 21 -9.765625 23.484375 -3.21875 
L 25.09375 0.875 
L 2.984375 54.6875 
L 12.5 54.6875 
L 29.59375 11.921875 
L 46.6875 54.6875 
L 56.203125 54.6875 
z
" id="DejaVuSans-121"/>
       <path d="M 44.28125 53.078125 
L 44.28125 44.578125 
Q 40.484375 46.53125 36.375 47.5 
Q 32.28125 48.484375 27.875 48.484375 
Q 21.1875 48.484375 17.84375 46.4375 
Q 14.5 44.390625 14.5 40.28125 
Q 14.5 37.15625 16.890625 35.375 
Q 19.28125 33.59375 26.515625 31.984375 
L 29.59375 31.296875 
Q 39.15625 29.25 43.1875 25.515625 
Q 47.21875 21.78125 47.21875 15.09375 
Q 47.21875 7.46875 41.1875 3.015625 
Q 35.15625 -1.421875 24.609375 -1.421875 
Q 20.21875 -1.421875 15.453125 -0.5625 
Q 10.6875 0.296875 5.421875 2 
L 5.421875 11.28125 
Q 10.40625 8.6875 15.234375 7.390625 
Q 20.0625 6.109375 24.8125 6.109375 
Q 31.15625 6.109375 34.5625 8.28125 
Q 37.984375 10.453125 37.984375 14.40625 
Q 37.984375 18.0625 35.515625 20.015625 
Q 33.0625 21.96875 24.703125 23.78125 
L 21.578125 24.515625 
Q 13.234375 26.265625 9.515625 29.90625 
Q 5.8125 33.546875 5.8125 39.890625 
Q 5.8125 47.609375 11.28125 51.796875 
Q 16.75 56 26.8125 56 
Q 31.78125 56 36.171875 55.265625 
Q 40.578125 54.546875 44.28125 53.078125 
z
" id="DejaVuSans-115"/>
      </defs>
      <use xlink:href="#DejaVuSans-68"/>
      <use x="77.001953" xlink:href="#DejaVuSans-97"/>
      <use x="138.28125" xlink:href="#DejaVuSans-121"/>
      <use x="197.460938" xlink:href="#DejaVuSans-115"/>
     </g>
    </g>
   </g>
   <g id="matplotlib.axis_2">
    <g id="ytick_1">
     <g id="line2d_11">
      <path clip-path="url(#p99cb24cf41)" d="M 90 607.954962 
L 648 607.954962 
" style="fill:none;stroke:#b0b0b0;stroke-linecap:square;stroke-width:0.8;"/>
     </g>
     <g id="line2d_12">
      <defs>
       <path d="M 0 0 
L -3.5 0 
" id="m8a538e1aa7" style="stroke:#000000;stroke-width:0.8;"/>
      </defs>
      <g>
       <use style="stroke:#000000;stroke-width:0.8;" x="90" xlink:href="#m8a538e1aa7" y="607.954962"/>
      </g>
     </g>
     <g id="text_7">
      <!-- 0 -->
      <g transform="translate(76.6375 611.754181)scale(0.1 -0.1)">
       <use xlink:href="#DejaVuSans-48"/>
      </g>
     </g>
    </g>
    <g id="ytick_2">
     <g id="line2d_13">
      <path clip-path="url(#p99cb24cf41)" d="M 90 541.353639 
L 648 541.353639 
" style="fill:none;stroke:#b0b0b0;stroke-linecap:square;stroke-width:0.8;"/>
     </g>
     <g id="line2d_14">
      <g>
       <use style="stroke:#000000;stroke-width:0.8;" x="90" xlink:href="#m8a538e1aa7" y="541.353639"/>
      </g>
     </g>
     <g id="text_8">
      <!-- 250 -->
      <g transform="translate(63.9125 545.152858)scale(0.1 -0.1)">
       <defs>
        <path d="M 10.796875 72.90625 
L 49.515625 72.90625 
L 49.515625 64.59375 
L 19.828125 64.59375 
L 19.828125 46.734375 
Q 21.96875 47.46875 24.109375 47.828125 
Q 26.265625 48.1875 28.421875 48.1875 
Q 40.625 48.1875 47.75 41.5 
Q 54.890625 34.8125 54.890625 23.390625 
Q 54.890625 11.625 47.5625 5.09375 
Q 40.234375 -1.421875 26.90625 -1.421875 
Q 22.3125 -1.421875 17.546875 -0.640625 
Q 12.796875 0.140625 7.71875 1.703125 
L 7.71875 11.625 
Q 12.109375 9.234375 16.796875 8.0625 
Q 21.484375 6.890625 26.703125 6.890625 
Q 35.15625 6.890625 40.078125 11.328125 
Q 45.015625 15.765625 45.015625 23.390625 
Q 45.015625 31 40.078125 35.4375 
Q 35.15625 39.890625 26.703125 39.890625 
Q 22.75 39.890625 18.8125 39.015625 
Q 14.890625 38.140625 10.796875 36.28125 
z
" id="DejaVuSans-53"/>
       </defs>
       <use xlink:href="#DejaVuSans-50"/>
       <use x="63.623047" xlink:href="#DejaVuSans-53"/>
       <use x="127.246094" xlink:href="#DejaVuSans-48"/>
      </g>
     </g>
    </g>
    <g id="ytick_3">
     <g id="line2d_15">
      <path clip-path="url(#p99cb24cf41)" d="M 90 474.752316 
L 648 474.752316 
" style="fill:none;stroke:#b0b0b0;stroke-linecap:square;stroke-width:0.8;"/>
     </g>
     <g id="line2d_16">
      <g>
       <use style="stroke:#000000;stroke-width:0.8;" x="90" xlink:href="#m8a538e1aa7" y="474.752316"/>
      </g>
     </g>
     <g id="text_9">
      <!-- 500 -->
      <g transform="translate(63.9125 478.551534)scale(0.1 -0.1)">
       <use xlink:href="#DejaVuSans-53"/>
       <use x="63.623047" xlink:href="#DejaVuSans-48"/>
       <use x="127.246094" xlink:href="#DejaVuSans-48"/>
      </g>
     </g>
    </g>
    <g id="ytick_4">
     <g id="line2d_17">
      <path clip-path="url(#p99cb24cf41)" d="M 90 408.150992 
L 648 408.150992 
" style="fill:none;stroke:#b0b0b0;stroke-linecap:square;stroke-width:0.8;"/>
     </g>
     <g id="line2d_18">
      <g>
       <use style="stroke:#000000;stroke-width:0.8;" x="90" xlink:href="#m8a538e1aa7" y="408.150992"/>
      </g>
     </g>
     <g id="text_10">
      <!-- 750 -->
      <g transform="translate(63.9125 411.950211)scale(0.1 -0.1)">
       <defs>
        <path d="M 8.203125 72.90625 
L 55.078125 72.90625 
L 55.078125 68.703125 
L 28.609375 0 
L 18.3125 0 
L 43.21875 64.59375 
L 8.203125 64.59375 
z
" id="DejaVuSans-55"/>
       </defs>
       <use xlink:href="#DejaVuSans-55"/>
       <use x="63.623047" xlink:href="#DejaVuSans-53"/>
       <use x="127.246094" xlink:href="#DejaVuSans-48"/>
      </g>
     </g>
    </g>
    <g id="ytick_5">
     <g id="line2d_19">
      <path clip-path="url(#p99cb24cf41)" d="M 90 341.549669 
L 648 341.549669 
" style="fill:none;stroke:#b0b0b0;stroke-linecap:square;stroke-width:0.8;"/>
     </g>
     <g id="line2d_20">
      <g>
       <use style="stroke:#000000;stroke-width:0.8;" x="90" xlink:href="#m8a538e1aa7" y="341.549669"/>
      </g>
     </g>
     <g id="text_11">
      <!-- 1000 -->
      <g transform="translate(57.55 345.348888)scale(0.1 -0.1)">
       <defs>
        <path d="M 12.40625 8.296875 
L 28.515625 8.296875 
L 28.515625 63.921875 
L 10.984375 60.40625 
L 10.984375 69.390625 
L 28.421875 72.90625 
L 38.28125 72.90625 
L 38.28125 8.296875 
L 54.390625 8.296875 
L 54.390625 0 
L 12.40625 0 
z
" id="DejaVuSans-49"/>
       </defs>
       <use xlink:href="#DejaVuSans-49"/>
       <use x="63.623047" xlink:href="#DejaVuSans-48"/>
       <use x="127.246094" xlink:href="#DejaVuSans-48"/>
       <use x="190.869141" xlink:href="#DejaVuSans-48"/>
      </g>
     </g>
    </g>
    <g id="ytick_6">
     <g id="line2d_21">
      <path clip-path="url(#p99cb24cf41)" d="M 90 274.948346 
L 648 274.948346 
" style="fill:none;stroke:#b0b0b0;stroke-linecap:square;stroke-width:0.8;"/>
     </g>
     <g id="line2d_22">
      <g>
       <use style="stroke:#000000;stroke-width:0.8;" x="90" xlink:href="#m8a538e1aa7" y="274.948346"/>
      </g>
     </g>
     <g id="text_12">
      <!-- 1250 -->
      <g transform="translate(57.55 278.747565)scale(0.1 -0.1)">
       <use xlink:href="#DejaVuSans-49"/>
       <use x="63.623047" xlink:href="#DejaVuSans-50"/>
       <use x="127.246094" xlink:href="#DejaVuSans-53"/>
       <use x="190.869141" xlink:href="#DejaVuSans-48"/>
      </g>
     </g>
    </g>
    <g id="ytick_7">
     <g id="line2d_23">
      <path clip-path="url(#p99cb24cf41)" d="M 90 208.347023 
L 648 208.347023 
" style="fill:none;stroke:#b0b0b0;stroke-linecap:square;stroke-width:0.8;"/>
     </g>
     <g id="line2d_24">
      <g>
       <use style="stroke:#000000;stroke-width:0.8;" x="90" xlink:href="#m8a538e1aa7" y="208.347023"/>
      </g>
     </g>
     <g id="text_13">
      <!-- 1500 -->
      <g transform="translate(57.55 212.146242)scale(0.1 -0.1)">
       <use xlink:href="#DejaVuSans-49"/>
       <use x="63.623047" xlink:href="#DejaVuSans-53"/>
       <use x="127.246094" xlink:href="#DejaVuSans-48"/>
       <use x="190.869141" xlink:href="#DejaVuSans-48"/>
      </g>
     </g>
    </g>
    <g id="ytick_8">
     <g id="line2d_25">
      <path clip-path="url(#p99cb24cf41)" d="M 90 141.7457 
L 648 141.7457 
" style="fill:none;stroke:#b0b0b0;stroke-linecap:square;stroke-width:0.8;"/>
     </g>
     <g id="line2d_26">
      <g>
       <use style="stroke:#000000;stroke-width:0.8;" x="90" xlink:href="#m8a538e1aa7" y="141.7457"/>
      </g>
     </g>
     <g id="text_14">
      <!-- 1750 -->
      <g transform="translate(57.55 145.544918)scale(0.1 -0.1)">
       <use xlink:href="#DejaVuSans-49"/>
       <use x="63.623047" xlink:href="#DejaVuSans-55"/>
       <use x="127.246094" xlink:href="#DejaVuSans-53"/>
       <use x="190.869141" xlink:href="#DejaVuSans-48"/>
      </g>
     </g>
    </g>
    <g id="text_15">
     <!-- Cumulative cases -->
     <g transform="translate(51.470312 402.425781)rotate(-90)scale(0.1 -0.1)">
      <defs>
       <path d="M 64.40625 67.28125 
L 64.40625 56.890625 
Q 59.421875 61.53125 53.78125 63.8125 
Q 48.140625 66.109375 41.796875 66.109375 
Q 29.296875 66.109375 22.65625 58.46875 
Q 16.015625 50.828125 16.015625 36.375 
Q 16.015625 21.96875 22.65625 14.328125 
Q 29.296875 6.6875 41.796875 6.6875 
Q 48.140625 6.6875 53.78125 8.984375 
Q 59.421875 11.28125 64.40625 15.921875 
L 64.40625 5.609375 
Q 59.234375 2.09375 53.4375 0.328125 
Q 47.65625 -1.421875 41.21875 -1.421875 
Q 24.65625 -1.421875 15.125 8.703125 
Q 5.609375 18.84375 5.609375 36.375 
Q 5.609375 53.953125 15.125 64.078125 
Q 24.65625 74.21875 41.21875 74.21875 
Q 47.75 74.21875 53.53125 72.484375 
Q 59.328125 70.75 64.40625 67.28125 
z
" id="DejaVuSans-67"/>
       <path d="M 8.5 21.578125 
L 8.5 54.6875 
L 17.484375 54.6875 
L 17.484375 21.921875 
Q 17.484375 14.15625 20.5 10.265625 
Q 23.53125 6.390625 29.59375 6.390625 
Q 36.859375 6.390625 41.078125 11.03125 
Q 45.3125 15.671875 45.3125 23.6875 
L 45.3125 54.6875 
L 54.296875 54.6875 
L 54.296875 0 
L 45.3125 0 
L 45.3125 8.40625 
Q 42.046875 3.421875 37.71875 1 
Q 33.40625 -1.421875 27.6875 -1.421875 
Q 18.265625 -1.421875 13.375 4.4375 
Q 8.5 10.296875 8.5 21.578125 
z
M 31.109375 56 
z
" id="DejaVuSans-117"/>
       <path d="M 52 44.1875 
Q 55.375 50.25 60.0625 53.125 
Q 64.75 56 71.09375 56 
Q 79.640625 56 84.28125 50.015625 
Q 88.921875 44.046875 88.921875 33.015625 
L 88.921875 0 
L 79.890625 0 
L 79.890625 32.71875 
Q 79.890625 40.578125 77.09375 44.375 
Q 74.3125 48.1875 68.609375 48.1875 
Q 61.625 48.1875 57.5625 43.546875 
Q 53.515625 38.921875 53.515625 30.90625 
L 53.515625 0 
L 44.484375 0 
L 44.484375 32.71875 
Q 44.484375 40.625 41.703125 44.40625 
Q 38.921875 48.1875 33.109375 48.1875 
Q 26.21875 48.1875 22.15625 43.53125 
Q 18.109375 38.875 18.109375 30.90625 
L 18.109375 0 
L 9.078125 0 
L 9.078125 54.6875 
L 18.109375 54.6875 
L 18.109375 46.1875 
Q 21.1875 51.21875 25.484375 53.609375 
Q 29.78125 56 35.6875 56 
Q 41.65625 56 45.828125 52.96875 
Q 50 49.953125 52 44.1875 
z
" id="DejaVuSans-109"/>
       <path d="M 9.421875 75.984375 
L 18.40625 75.984375 
L 18.40625 0 
L 9.421875 0 
z
" id="DejaVuSans-108"/>
       <path d="M 18.3125 70.21875 
L 18.3125 54.6875 
L 36.8125 54.6875 
L 36.8125 47.703125 
L 18.3125 47.703125 
L 18.3125 18.015625 
Q 18.3125 11.328125 20.140625 9.421875 
Q 21.96875 7.515625 27.59375 7.515625 
L 36.8125 7.515625 
L 36.8125 0 
L 27.59375 0 
Q 17.1875 0 13.234375 3.875 
Q 9.28125 7.765625 9.28125 18.015625 
L 9.28125 47.703125 
L 2.6875 47.703125 
L 2.6875 54.6875 
L 9.28125 54.6875 
L 9.28125 70.21875 
z
" id="DejaVuSans-116"/>
       <path d="M 9.421875 54.6875 
L 18.40625 54.6875 
L 18.40625 0 
L 9.421875 0 
z
M 9.421875 75.984375 
L 18.40625 75.984375 
L 18.40625 64.59375 
L 9.421875 64.59375 
z
" id="DejaVuSans-105"/>
       <path d="M 2.984375 54.6875 
L 12.5 54.6875 
L 29.59375 8.796875 
L 46.6875 54.6875 
L 56.203125 54.6875 
L 35.6875 0 
L 23.484375 0 
z
" id="DejaVuSans-118"/>
       <path d="M 56.203125 29.59375 
L 56.203125 25.203125 
L 14.890625 25.203125 
Q 15.484375 15.921875 20.484375 11.0625 
Q 25.484375 6.203125 34.421875 6.203125 
Q 39.59375 6.203125 44.453125 7.46875 
Q 49.3125 8.734375 54.109375 11.28125 
L 54.109375 2.78125 
Q 49.265625 0.734375 44.1875 -0.34375 
Q 39.109375 -1.421875 33.890625 -1.421875 
Q 20.796875 -1.421875 13.15625 6.1875 
Q 5.515625 13.8125 5.515625 26.8125 
Q 5.515625 40.234375 12.765625 48.109375 
Q 20.015625 56 32.328125 56 
Q 43.359375 56 49.78125 48.890625 
Q 56.203125 41.796875 56.203125 29.59375 
z
M 47.21875 32.234375 
Q 47.125 39.59375 43.09375 43.984375 
Q 39.0625 48.390625 32.421875 48.390625 
Q 24.90625 48.390625 20.390625 44.140625 
Q 15.875 39.890625 15.1875 32.171875 
z
" id="DejaVuSans-101"/>
       <path id="DejaVuSans-32"/>
       <path d="M 48.78125 52.59375 
L 48.78125 44.1875 
Q 44.96875 46.296875 41.140625 47.34375 
Q 37.3125 48.390625 33.40625 48.390625 
Q 24.65625 48.390625 19.8125 42.84375 
Q 14.984375 37.3125 14.984375 27.296875 
Q 14.984375 17.28125 19.8125 11.734375 
Q 24.65625 6.203125 33.40625 6.203125 
Q 37.3125 6.203125 41.140625 7.25 
Q 44.96875 8.296875 48.78125 10.40625 
L 48.78125 2.09375 
Q 45.015625 0.34375 40.984375 -0.53125 
Q 36.96875 -1.421875 32.421875 -1.421875 
Q 20.0625 -1.421875 12.78125 6.34375 
Q 5.515625 14.109375 5.515625 27.296875 
Q 5.515625 40.671875 12.859375 48.328125 
Q 20.21875 56 33.015625 56 
Q 37.15625 56 41.109375 55.140625 
Q 45.0625 54.296875 48.78125 52.59375 
z
" id="DejaVuSans-99"/>
      </defs>
      <use xlink:href="#DejaVuSans-67"/>
      <use x="69.824219" xlink:href="#DejaVuSans-117"/>
      <use x="133.203125" xlink:href="#DejaVuSans-109"/>
      <use x="230.615234" xlink:href="#DejaVuSans-117"/>
      <use x="293.994141" xlink:href="#DejaVuSans-108"/>
      <use x="321.777344" xlink:href="#DejaVuSans-97"/>
      <use x="383.056641" xlink:href="#DejaVuSans-116"/>
      <use x="422.265625" xlink:href="#DejaVuSans-105"/>
      <use x="450.048828" xlink:href="#DejaVuSans-118"/>
      <use x="509.228516" xlink:href="#DejaVuSans-101"/>
      <use x="570.751953" xlink:href="#DejaVuSans-32"/>
      <use x="602.539062" xlink:href="#DejaVuSans-99"/>
      <use x="657.519531" xlink:href="#DejaVuSans-97"/>
      <use x="718.798828" xlink:href="#DejaVuSans-115"/>
      <use x="770.898438" xlink:href="#DejaVuSans-101"/>
      <use x="832.421875" xlink:href="#DejaVuSans-115"/>
     </g>
    </g>
   </g>
   <g id="line2d_27">
    <path clip-path="url(#p99cb24cf41)" d="M 115.363636 605.290909 
L 121.475356 604.717234 
L 127.587076 604.02106 
L 133.698795 603.17672 
L 139.810515 602.153404 
L 145.922234 600.914234 
L 152.033954 599.415234 
L 158.145674 597.604193 
L 164.257393 595.419466 
L 170.369113 592.788757 
L 176.480832 589.627979 
L 182.592552 585.840347 
L 188.704272 581.315878 
L 194.815991 575.931612 
L 200.927711 569.552896 
L 207.03943 562.036175 
L 213.15115 553.233782 
L 219.26287 543.001175 
L 225.374589 531.206949 
L 231.486309 517.745618 
L 237.598028 502.552655 
L 243.709748 485.620545 
L 249.821468 467.013806 
L 255.933187 446.880252 
L 262.044907 425.455506 
L 268.156627 403.05825 
L 274.268346 380.075035 
L 280.380066 356.935498 
L 286.491785 334.08105 
L 292.603505 311.931717 
L 298.715225 290.856315 
L 304.826944 271.150262 
L 310.938664 253.023454 
L 317.050383 236.598442 
L 323.162103 221.917213 
L 329.273823 208.953873 
L 335.385542 197.630226 
L 341.497262 187.831707 
L 347.608981 179.421849 
L 353.720701 172.254285 
L 359.832421 166.181919 
L 365.94414 161.063412 
L 372.05586 156.767327 
L 378.167579 153.174437 
L 384.279299 150.178645 
L 390.391019 147.686967 
L 396.502738 145.618884 
L 402.614458 143.905349 
L 408.726177 142.487611 
L 414.837897 141.315998 
L 420.949617 140.348731 
L 427.061336 139.550813 
L 433.173056 138.893036 
L 439.284775 138.351083 
L 445.396495 137.904762 
L 451.508215 137.537335 
L 457.619934 137.23495 
L 463.731654 136.986156 
L 469.843373 136.781497 
L 475.955093 136.613173 
L 482.066813 136.474753 
L 488.178532 136.360937 
L 494.290252 136.267361 
L 500.401972 136.190431 
L 506.513691 136.127191 
L 512.625411 136.075206 
L 518.73713 136.032476 
L 524.84885 135.997355 
L 530.96057 135.968488 
L 537.072289 135.944762 
L 543.184009 135.925262 
L 549.295728 135.909235 
L 555.407448 135.896063 
L 561.519168 135.885238 
L 567.630887 135.876342 
L 573.742607 135.86903 
L 579.854326 135.863021 
L 585.966046 135.858083 
L 592.077766 135.854025 
L 598.189485 135.85069 
L 604.301205 135.847949 
L 610.412924 135.845696 
L 616.524644 135.843845 
L 622.636364 135.842323 
" style="fill:none;stroke:#1f77b4;stroke-linecap:square;stroke-width:1.5;"/>
   </g>
   <g id="line2d_28">
    <path clip-path="url(#p99cb24cf41)" d="M 115.363636 605.290909 
L 121.475356 600.430346 
L 127.587076 595.236629 
L 133.698795 589.695905 
L 139.810515 583.795198 
L 145.922234 577.522673 
L 152.033954 570.867934 
L 158.145674 563.822328 
L 164.257393 556.379267 
L 170.369113 548.534561 
L 176.480832 540.286733 
L 182.592552 531.637339 
L 188.704272 522.591255 
L 194.815991 513.156931 
L 200.927711 503.346598 
L 207.03943 493.176419 
L 213.15115 482.666562 
L 219.26287 471.841202 
L 225.374589 460.728423 
L 231.486309 449.360035 
L 237.598028 437.771286 
L 243.709748 426.000493 
L 249.821468 414.088566 
L 255.933187 402.078477 
L 262.044907 390.014649 
L 268.156627 377.942309 
L 274.268346 365.90681 
L 280.380066 353.952954 
L 286.491785 342.124331 
L 292.603505 330.462692 
L 298.715225 319.007384 
L 304.826944 307.794856 
L 310.938664 296.858243 
L 317.050383 286.227055 
L 323.162103 275.926948 
L 329.273823 265.979597 
L 335.385542 256.402661 
L 341.497262 247.209833 
L 347.608981 238.410958 
L 353.720701 230.012225 
L 359.832421 222.0164 
L 365.94414 214.423111 
L 372.05586 207.229145 
L 378.167579 200.428776 
L 384.279299 194.014087 
L 390.391019 187.975298 
L 396.502738 182.301078 
L 402.614458 176.978846 
L 408.726177 171.995048 
L 414.837897 167.335413 
L 420.949617 162.985184 
L 427.061336 158.929326 
L 433.173056 155.1527 
L 439.284775 151.640223 
L 445.396495 148.376998 
L 451.508215 145.348424 
L 457.619934 142.540282 
L 463.731654 139.938809 
L 469.843373 137.53075 
L 475.955093 135.3034 
L 482.066813 133.24463 
L 488.178532 131.342902 
L 494.290252 129.58728 
L 500.401972 127.967427 
L 506.513691 126.473598 
L 512.625411 125.096631 
L 518.73713 123.827929 
L 524.84885 122.659444 
L 530.96057 121.58365 
L 537.072289 120.593527 
L 543.184009 119.682535 
L 549.295728 118.844588 
L 555.407448 118.074031 
L 561.519168 117.365614 
L 567.630887 116.71447 
L 573.742607 116.11609 
L 579.854326 115.566302 
L 585.966046 115.061247 
L 592.077766 114.597357 
L 598.189485 114.171339 
L 604.301205 113.780154 
L 610.412924 113.420997 
L 616.524644 113.091283 
L 622.636364 112.788629 
" style="fill:none;stroke:#ff7f0e;stroke-linecap:square;stroke-width:1.5;"/>
   </g>
   <g id="line2d_29">
    <path clip-path="url(#p99cb24cf41)" d="M 115.363636 605.290909 
L 121.475356 603.867337 
L 127.587076 602.201557 
L 133.698795 600.254998 
L 139.810515 597.983929 
L 145.922234 595.339128 
L 152.033954 592.265682 
L 158.145674 588.702981 
L 164.257393 584.584986 
L 170.369113 579.84088 
L 176.480832 574.396206 
L 182.592552 568.174609 
L 188.704272 561.100297 
L 194.815991 553.101267 
L 200.927711 544.113338 
L 207.03943 534.084875 
L 213.15115 522.982009 
L 219.26287 510.793977 
L 225.374589 497.538085 
L 231.486309 483.26365 
L 237.598028 468.054276 
L 243.709748 452.02787 
L 249.821468 435.33402 
L 255.933187 418.148687 
L 262.044907 400.666546 
L 268.156627 383.091676 
L 274.268346 365.627574 
L 280.380066 348.467536 
L 286.491785 331.786375 
L 292.603505 315.734161 
L 298.715225 300.432339 
L 304.826944 285.972226 
L 310.938664 272.415606 
L 317.050383 259.796946 
L 323.162103 248.12673 
L 329.273823 237.395368 
L 335.385542 227.577269 
L 341.497262 218.634747 
L 347.608981 210.521553 
L 353.720701 203.185922 
L 359.832421 196.573082 
L 365.94414 190.627257 
L 372.05586 185.293201 
L 378.167579 180.517315 
L 384.279299 176.248441 
L 390.391019 172.438365 
L 396.502738 169.042119 
L 402.614458 166.018112 
L 408.726177 163.328137 
L 414.837897 160.937303 
L 420.949617 158.813891 
L 427.061336 156.92919 
L 433.173056 155.257289 
L 439.284775 153.774879 
L 445.396495 152.461039 
L 451.508215 151.297031 
L 457.619934 150.266101 
L 463.731654 149.353294 
L 469.843373 148.545277 
L 475.955093 147.830175 
L 482.066813 147.197426 
L 488.178532 146.63764 
L 494.290252 146.142476 
L 500.401972 145.704532 
L 506.513691 145.31724 
L 512.625411 144.974776 
L 518.73713 144.671978 
L 524.84885 144.404273 
L 530.96057 144.16761 
L 537.072289 143.958403 
L 543.184009 143.773475 
L 549.295728 143.610018 
L 555.407448 143.465544 
L 561.519168 143.337853 
L 567.630887 143.224999 
L 573.742607 143.125262 
L 579.854326 143.037119 
L 585.966046 142.959223 
L 592.077766 142.890386 
L 598.189485 142.829554 
L 604.301205 142.775797 
L 610.412924 142.728294 
L 616.524644 142.686317 
L 622.636364 142.649224 
" style="fill:none;stroke:#2ca02c;stroke-linecap:square;stroke-width:1.5;"/>
   </g>
   <g id="line2d_30">
    <path clip-path="url(#p99cb24cf41)" d="M 115.363636 605.290909 
L 121.475356 603.090883 
L 127.587076 600.419788 
L 133.698795 597.238289 
L 139.810515 593.506445 
L 145.922234 589.184492 
L 152.033954 584.233798 
L 158.145674 578.618019 
L 164.257393 572.304434 
L 170.369113 565.265441 
L 176.480832 557.480172 
L 182.592552 548.936152 
L 188.704272 539.630922 
L 194.815991 529.57352 
L 200.927711 518.785682 
L 207.03943 507.30266 
L 213.15115 495.173522 
L 219.26287 482.460859 
L 225.374589 469.239836 
L 231.486309 455.596596 
L 237.598028 441.62607 
L 243.709748 427.429316 
L 249.821468 413.110544 
L 255.933187 398.774017 
L 262.044907 384.521039 
L 268.156627 370.447204 
L 274.268346 356.640065 
L 280.380066 343.177333 
L 286.491785 330.125653 
L 292.603505 317.539955 
L 298.715225 305.463351 
L 304.826944 293.927483 
L 310.938664 282.953252 
L 317.050383 272.551794 
L 323.162103 262.725642 
L 329.273823 253.469956 
L 335.385542 244.773766 
L 341.497262 236.621163 
L 347.608981 228.99241 
L 353.720701 221.864933 
L 359.832421 215.214195 
L 365.94414 209.01444 
L 372.05586 203.239314 
L 378.167579 197.862372 
L 384.279299 192.857484 
L 390.391019 188.199145 
L 396.502738 183.862714 
L 402.614458 179.824581 
L 408.726177 176.062284 
L 414.837897 172.554579 
L 420.949617 169.281475 
L 427.061336 166.224244 
L 433.173056 163.365404 
L 439.284775 160.68869 
L 445.396495 158.179012 
L 451.508215 155.822406 
L 457.619934 153.605977 
L 463.731654 151.517838 
L 469.843373 149.547054 
L 475.955093 147.683579 
L 482.066813 145.918194 
L 488.178532 144.242455 
L 494.290252 142.64863 
L 500.401972 141.129649 
L 506.513691 139.679055 
L 512.625411 138.290951 
L 518.73713 136.95996 
L 524.84885 135.681181 
L 530.96057 134.450146 
L 537.072289 133.262792 
L 543.184009 132.115418 
L 549.295728 131.00466 
L 555.407448 129.927459 
L 561.519168 128.881035 
L 567.630887 127.862863 
L 573.742607 126.870649 
L 579.854326 125.902312 
L 585.966046 124.955961 
L 592.077766 124.029883 
L 598.189485 123.122521 
L 604.301205 122.232464 
L 610.412924 121.358432 
L 616.524644 120.499264 
L 622.636364 119.653907 
" style="fill:none;stroke:#d62728;stroke-linecap:square;stroke-width:1.5;"/>
   </g>
   <g id="line2d_31">
    <path clip-path="url(#p99cb24cf41)" d="M 115.363636 605.290909 
L 121.475356 605.058438 
L 127.587076 604.437657 
L 133.698795 603.474321 
L 139.810515 602.152831 
L 145.922234 600.417387 
L 152.033954 598.181566 
L 158.145674 595.332612 
L 164.257393 591.734028 
L 170.369113 587.228948 
L 176.480832 581.646263 
L 182.592552 574.81117 
L 188.704272 566.561136 
L 194.815991 556.76699 
L 200.927711 545.356839 
L 207.03943 532.338156 
L 213.15115 517.81187 
L 219.26287 501.972787 
L 225.374589 485.09402 
L 231.486309 467.498113 
L 237.598028 449.521961 
L 243.709748 431.484044 
L 249.821468 413.660482 
L 255.933187 396.272477 
L 262.044907 379.484038 
L 268.156627 363.406841 
L 274.268346 348.10878 
L 280.380066 333.623497 
L 286.491785 319.959227 
L 292.603505 307.106221 
L 298.715225 295.042552 
L 304.826944 283.738464 
L 310.938664 273.159523 
L 317.050383 263.268835 
L 323.162103 254.028578 
L 329.273823 245.40104 
L 335.385542 237.349305 
L 341.497262 229.837684 
L 347.608981 222.831991 
L 353.720701 216.299683 
L 359.832421 210.209936 
L 365.94414 204.53365 
L 372.05586 199.243437 
L 378.167579 194.313564 
L 384.279299 189.719898 
L 390.391019 185.439833 
L 396.502738 181.452216 
L 402.614458 177.737266 
L 408.726177 174.276501 
L 414.837897 171.052659 
L 420.949617 168.049626 
L 427.061336 165.252362 
L 433.173056 162.646838 
L 439.284775 160.219968 
L 445.396495 157.959549 
L 451.508215 155.854202 
L 457.619934 153.893322 
L 463.731654 152.067021 
L 469.843373 150.366085 
L 475.955093 148.781926 
L 482.066813 147.306544 
L 488.178532 145.93248 
L 494.290252 144.65279 
L 500.401972 143.460999 
L 506.513691 142.351078 
L 512.625411 141.31741 
L 518.73713 140.354761 
L 524.84885 139.458256 
L 530.96057 138.623355 
L 537.072289 137.845829 
L 543.184009 137.121736 
L 549.295728 136.447407 
L 555.407448 135.819425 
L 561.519168 135.234606 
L 567.630887 134.689985 
L 573.742607 134.182799 
L 579.854326 133.710477 
L 585.966046 133.270624 
L 592.077766 132.861008 
L 598.189485 132.479551 
L 604.301205 132.124318 
L 610.412924 131.793507 
L 616.524644 131.485439 
L 622.636364 131.198551 
" style="fill:none;stroke:#9467bd;stroke-linecap:square;stroke-width:1.5;"/>
   </g>
   <g id="line2d_32">
    <path clip-path="url(#p99cb24cf41)" d="M 115.363636 605.290909 
L 121.475356 604.674469 
L 127.587076 602.980666 
L 133.698795 600.359887 
L 139.810515 596.88995 
L 145.922234 592.607469 
L 152.033954 587.526824 
L 158.145674 581.651841 
L 164.257393 574.983166 
L 170.369113 567.523066 
L 176.480832 559.27865 
L 182.592552 550.264084 
L 188.704272 540.502087 
L 194.815991 530.024873 
L 200.927711 518.874612 
L 207.03943 507.103434 
L 213.15115 494.772997 
L 219.26287 481.95364 
L 225.374589 468.723158 
L 231.486309 455.165246 
L 237.598028 441.36769 
L 243.709748 427.420394 
L 249.821468 413.413338 
L 255.933187 399.434574 
L 262.044907 385.568349 
L 268.156627 371.893446 
L 274.268346 358.481796 
L 280.380066 345.397414 
L 286.491785 332.695671 
L 292.603505 320.422904 
L 298.715225 308.61633 
L 304.826944 297.304254 
L 310.938664 286.506494 
L 317.050383 276.234993 
L 323.162103 266.494563 
L 329.273823 257.283709 
L 335.385542 248.595491 
L 341.497262 240.418388 
L 347.608981 232.737136 
L 353.720701 225.533511 
L 359.832421 218.787056 
L 365.94414 212.475722 
L 372.05586 206.576437 
L 378.167579 201.065596 
L 384.279299 195.919471 
L 390.391019 191.114548 
L 396.502738 186.627803 
L 402.614458 182.436912 
L 408.726177 178.520416 
L 414.837897 174.857839 
L 420.949617 171.42976 
L 427.061336 168.217869 
L 433.173056 165.204983 
L 439.284775 162.375044 
L 445.396495 159.713107 
L 451.508215 157.205308 
L 457.619934 154.838824 
L 463.731654 152.60183 
L 469.843373 150.483443 
L 475.955093 148.473675 
L 482.066813 146.563371 
L 488.178532 144.744159 
L 494.290252 143.008396 
L 500.401972 141.349108 
L 506.513691 139.759946 
L 512.625411 138.235136 
L 518.73713 136.769427 
L 524.84885 135.358055 
L 530.96057 133.996694 
L 537.072289 132.681426 
L 543.184009 131.408697 
L 549.295728 130.17529 
L 555.407448 128.97829 
L 561.519168 127.81506 
L 567.630887 126.683213 
L 573.742607 125.580586 
L 579.854326 124.505224 
L 585.966046 123.455354 
L 592.077766 122.429372 
L 598.189485 121.425825 
L 604.301205 120.443393 
L 610.412924 119.48088 
L 616.524644 118.537201 
L 622.636364 117.611367 
" style="fill:none;stroke:#8c564b;stroke-linecap:square;stroke-width:1.5;"/>
   </g>
   <g id="line2d_33">
    <path clip-path="url(#p99cb24cf41)" d="M 115.363636 605.290909 
L 121.475356 605.058751 
L 127.587076 604.438421 
L 133.698795 603.475232 
L 139.810515 602.153303 
L 145.922234 600.416552 
L 152.033954 598.178224 
L 158.145674 595.325151 
L 164.257393 591.720357 
L 170.369113 587.206466 
L 176.480832 581.611906 
L 182.592552 574.761574 
L 188.704272 566.492958 
L 194.815991 556.677379 
L 200.927711 545.244019 
L 207.03943 532.201992 
L 213.15115 517.654245 
L 219.26287 501.797654 
L 225.374589 484.907046 
L 231.486309 467.306011 
L 237.598028 449.331686 
L 243.709748 431.302064 
L 249.821468 413.49227 
L 255.933187 396.122273 
L 262.044907 379.354832 
L 268.156627 363.300507 
L 274.268346 348.026278 
L 280.380066 333.565086 
L 286.491785 319.924658 
L 292.603505 307.094894 
L 298.715225 295.053637 
L 304.826944 283.770993 
L 310.938664 273.21245 
L 317.050383 263.341085 
L 323.162103 254.119074 
L 329.273823 245.508727 
L 335.385542 237.473157 
L 341.497262 229.976719 
L 347.608981 222.98527 
L 353.720701 216.466315 
L 359.832421 210.389078 
L 365.94414 204.724507 
L 372.05586 199.445259 
L 378.167579 194.525647 
L 384.279299 189.941581 
L 390.391019 185.670494 
L 396.502738 181.691273 
L 402.614458 177.984174 
L 408.726177 174.530749 
L 414.837897 171.313768 
L 420.949617 168.317148 
L 427.061336 165.525879 
L 433.173056 162.925958 
L 439.284775 160.504324 
L 445.396495 158.248798 
L 451.508215 156.148024 
L 457.619934 154.191416 
L 463.731654 152.369107 
L 469.843373 150.671902 
L 475.955093 149.091229 
L 482.066813 147.619102 
L 488.178532 146.248082 
L 494.290252 144.971234 
L 500.401972 143.782099 
L 506.513691 142.674659 
L 512.625411 141.643308 
L 518.73713 140.682825 
L 524.84885 139.788343 
L 530.96057 138.955332 
L 537.072289 138.17957 
L 543.184009 137.457126 
L 549.295728 136.784338 
L 555.407448 136.157795 
L 561.519168 135.57432 
L 567.630887 135.030954 
L 573.742607 134.524941 
L 579.854326 134.053714 
L 585.966046 133.614884 
L 592.077766 133.206224 
L 598.189485 132.825659 
L 604.301205 132.47126 
L 610.412924 132.141228 
L 616.524644 131.833887 
L 622.636364 131.547679 
" style="fill:none;stroke:#e377c2;stroke-linecap:square;stroke-width:1.5;"/>
   </g>
   <g id="line2d_34">
    <path clip-path="url(#p99cb24cf41)" d="M 115.363636 605.290909 
L 121.475356 604.711482 
L 127.587076 603.067401 
L 133.698795 600.455375 
L 139.810515 596.931463 
L 145.922234 592.527745 
L 152.033954 587.263394 
L 158.145674 581.15215 
L 164.257393 574.207437 
L 170.369113 566.445898 
L 176.480832 557.889809 
L 182.592552 548.568675 
L 188.704272 538.520155 
L 194.815991 527.790451 
L 200.927711 516.434198 
L 207.03943 504.513945 
L 213.15115 492.099247 
L 219.26287 479.265461 
L 225.374589 466.092294 
L 231.486309 452.662188 
L 237.598028 439.058628 
L 243.709748 425.36446 
L 249.821468 411.660278 
L 255.933187 398.022977 
L 262.044907 384.524489 
L 268.156627 371.230775 
L 274.268346 358.201056 
L 280.380066 345.487321 
L 286.491785 333.134069 
L 292.603505 321.178282 
L 298.715225 309.649593 
L 304.826944 298.570617 
L 310.938664 287.957402 
L 317.050383 277.81997 
L 323.162103 268.162923 
L 329.273823 258.986066 
L 335.385542 250.285047 
L 341.497262 242.051969 
L 347.608981 234.275988 
L 353.720701 226.943859 
L 359.832421 220.040444 
L 365.94414 213.549166 
L 372.05586 207.452413 
L 378.167579 201.731889 
L 384.279299 196.368923 
L 390.391019 191.34472 
L 396.502738 186.640584 
L 402.614458 182.238092 
L 408.726177 178.119238 
L 414.837897 174.266547 
L 420.949617 170.663161 
L 427.061336 167.292902 
L 433.173056 164.140318 
L 439.284775 161.190711 
L 445.396495 158.43015 
L 451.508215 155.845472 
L 457.619934 153.424282 
L 463.731654 151.154931 
L 469.843373 149.026505 
L 475.955093 147.028793 
L 482.066813 145.152264 
L 488.178532 143.388038 
L 494.290252 141.727854 
L 500.401972 140.164035 
L 506.513691 138.689461 
L 512.625411 137.297533 
L 518.73713 135.982144 
L 524.84885 134.737645 
L 530.96057 133.558817 
L 537.072289 132.440844 
L 543.184009 131.379279 
L 549.295728 130.370027 
L 555.407448 129.409312 
L 561.519168 128.493657 
L 567.630887 127.619862 
L 573.742607 126.784981 
L 579.854326 125.986305 
L 585.966046 125.221341 
L 592.077766 124.487799 
L 598.189485 123.783571 
L 604.301205 123.10672 
L 610.412924 122.455464 
L 616.524644 121.828165 
L 622.636364 121.223317 
" style="fill:none;stroke:#7f7f7f;stroke-linecap:square;stroke-width:1.5;"/>
   </g>
   <g id="line2d_35">
    <path clip-path="url(#p99cb24cf41)" d="M 115.363636 605.290909 
L 121.475356 604.720421 
L 127.587076 603.085153 
L 133.698795 600.46469 
L 139.810515 596.907029 
L 145.922234 592.441899 
L 152.033954 587.089804 
L 158.145674 580.868249 
L 164.257393 573.79605 
L 170.369113 565.896297 
L 176.480832 557.198337 
L 182.592552 547.738987 
L 188.704272 537.563129 
L 194.815991 526.723782 
L 200.927711 515.281708 
L 207.03943 503.304638 
L 213.15115 490.866172 
L 219.26287 478.044425 
L 225.374589 464.920507 
L 231.486309 451.576908 
L 237.598028 438.095872 
L 243.709748 424.557842 
L 249.821468 411.040025 
L 255.933187 397.61515 
L 262.044907 384.350435 
L 268.156627 371.306798 
L 274.268346 358.538309 
L 280.380066 346.091877 
L 286.491785 334.007162 
L 292.603505 322.316667 
L 298.715225 311.045999 
L 304.826944 300.214256 
L 310.938664 289.834504 
L 317.050383 279.91433 
L 323.162103 270.456415 
L 329.273823 261.459143 
L 335.385542 252.917182 
L 341.497262 244.822062 
L 347.608981 237.162712 
L 353.720701 229.925961 
L 359.832421 223.096992 
L 365.94414 216.659754 
L 372.05586 210.59732 
L 378.167579 204.892205 
L 384.279299 199.526634 
L 390.391019 194.482779 
L 396.502738 189.742941 
L 402.614458 185.289717 
L 408.726177 181.106123 
L 414.837897 177.175695 
L 420.949617 173.482563 
L 427.061336 170.011512 
L 433.173056 166.748015 
L 439.284775 163.678262 
L 445.396495 160.789168 
L 451.508215 158.068373 
L 457.619934 155.504239 
L 463.731654 153.085833 
L 469.843373 150.80291 
L 475.955093 148.645888 
L 482.066813 146.605824 
L 488.178532 144.674383 
L 494.290252 142.843813 
L 500.401972 141.106909 
L 506.513691 139.45699 
L 512.625411 137.88786 
L 518.73713 136.393785 
L 524.84885 134.96946 
L 530.96057 133.609985 
L 537.072289 132.310832 
L 543.184009 131.067824 
L 549.295728 129.877106 
L 555.407448 128.735127 
L 561.519168 127.638613 
L 567.630887 126.584547 
L 573.742607 125.570152 
L 579.854326 124.592869 
L 585.966046 123.650343 
L 592.077766 122.740405 
L 598.189485 121.861057 
L 604.301205 121.010461 
L 610.412924 120.186922 
L 616.524644 119.388879 
L 622.636364 118.614893 
" style="fill:none;stroke:#bcbd22;stroke-linecap:square;stroke-width:1.5;"/>
   </g>
   <g id="line2d_36">
    <path clip-path="url(#p99cb24cf41)" d="M 115.363636 605.290909 
L 121.475356 605.290909 
L 127.587076 604.758099 
L 133.698795 603.692477 
L 139.810515 603.692477 
L 145.922234 586.908944 
L 152.033954 577.318353 
L 158.145674 562.399657 
L 164.257393 553.341877 
L 170.369113 548.013771 
L 176.480832 539.222396 
L 182.592552 536.824749 
L 188.704272 532.562264 
L 194.815991 526.434942 
L 200.927711 521.106837 
L 207.03943 514.180299 
L 213.15115 509.651409 
L 219.26287 500.327224 
L 225.374589 464.628914 
L 231.486309 454.771919 
L 237.598028 436.123548 
L 243.709748 427.065768 
L 249.821468 417.475178 
L 255.933187 409.483019 
L 262.044907 400.425239 
L 268.156627 379.379221 
L 274.268346 351.939476 
L 280.380066 331.159863 
L 286.491785 315.708356 
L 292.603505 312.777898 
L 298.715225 301.855281 
L 304.826944 292.26469 
L 310.938664 286.403774 
L 317.050383 272.817104 
L 323.162103 260.56246 
L 329.273823 259.230434 
L 335.385542 253.103112 
L 341.497262 242.180495 
L 347.608981 234.987552 
L 353.720701 225.929772 
L 359.832421 219.26964 
L 365.94414 205.150159 
L 372.05586 200.887675 
L 378.167579 199.022838 
L 384.279299 194.493948 
L 390.391019 192.629111 
L 396.502738 183.837736 
L 402.614458 180.374467 
L 408.726177 172.382308 
L 414.837897 170.251066 
L 420.949617 169.185445 
L 427.061336 165.722176 
L 433.173056 164.123744 
L 439.284775 157.996422 
L 445.396495 156.664396 
L 451.508215 155.33237 
L 457.619934 155.065964 
L 463.731654 154.266748 
L 469.843373 152.135506 
L 475.955093 151.602695 
L 482.066813 149.737858 
L 488.178532 148.405832 
L 494.290252 146.27459 
L 500.401972 144.676158 
L 506.513691 144.143347 
L 512.625411 142.811321 
L 518.73713 141.479294 
L 524.84885 139.614457 
L 530.96057 137.483215 
L 537.072289 136.417594 
L 543.184009 135.351973 
L 549.295728 132.68792 
L 555.407448 130.823083 
L 561.519168 130.023867 
L 567.630887 128.425435 
L 573.742607 126.560598 
L 579.854326 122.830924 
L 585.966046 122.298113 
L 592.077766 122.031708 
L 598.189485 119.367655 
L 604.301205 117.769223 
L 610.412924 114.838765 
L 616.524644 112.707523 
L 622.636364 111.109091 
" style="fill:none;stroke:#17becf;stroke-dasharray:14.8,6.4;stroke-dashoffset:0;stroke-width:4;"/>
   </g>
   <g id="patch_3">
    <path d="M 90 630 
L 90 86.4 
" style="fill:none;stroke:#000000;stroke-linecap:square;stroke-linejoin:miter;stroke-width:0.8;"/>
   </g>
   <g id="patch_4">
    <path d="M 648 630 
L 648 86.4 
" style="fill:none;stroke:#000000;stroke-linecap:square;stroke-linejoin:miter;stroke-width:0.8;"/>
   </g>
   <g id="patch_5">
    <path d="M 90 630 
L 648 630 
" style="fill:none;stroke:#000000;stroke-linecap:square;stroke-linejoin:miter;stroke-width:0.8;"/>
   </g>
   <g id="patch_6">
    <path d="M 90 86.4 
L 648 86.4 
" style="fill:none;stroke:#000000;stroke-linecap:square;stroke-linejoin:miter;stroke-width:0.8;"/>
   </g>
   <g id="text_16">
    <!-- Estonia relative err =  -->
    <g transform="translate(303.10875 80.4)scale(0.12 -0.12)">
     <defs>
      <path d="M 9.8125 72.90625 
L 55.90625 72.90625 
L 55.90625 64.59375 
L 19.671875 64.59375 
L 19.671875 43.015625 
L 54.390625 43.015625 
L 54.390625 34.71875 
L 19.671875 34.71875 
L 19.671875 8.296875 
L 56.78125 8.296875 
L 56.78125 0 
L 9.8125 0 
z
" id="DejaVuSans-69"/>
      <path d="M 30.609375 48.390625 
Q 23.390625 48.390625 19.1875 42.75 
Q 14.984375 37.109375 14.984375 27.296875 
Q 14.984375 17.484375 19.15625 11.84375 
Q 23.34375 6.203125 30.609375 6.203125 
Q 37.796875 6.203125 41.984375 11.859375 
Q 46.1875 17.53125 46.1875 27.296875 
Q 46.1875 37.015625 41.984375 42.703125 
Q 37.796875 48.390625 30.609375 48.390625 
z
M 30.609375 56 
Q 42.328125 56 49.015625 48.375 
Q 55.71875 40.765625 55.71875 27.296875 
Q 55.71875 13.875 49.015625 6.21875 
Q 42.328125 -1.421875 30.609375 -1.421875 
Q 18.84375 -1.421875 12.171875 6.21875 
Q 5.515625 13.875 5.515625 27.296875 
Q 5.515625 40.765625 12.171875 48.375 
Q 18.84375 56 30.609375 56 
z
" id="DejaVuSans-111"/>
      <path d="M 54.890625 33.015625 
L 54.890625 0 
L 45.90625 0 
L 45.90625 32.71875 
Q 45.90625 40.484375 42.875 44.328125 
Q 39.84375 48.1875 33.796875 48.1875 
Q 26.515625 48.1875 22.3125 43.546875 
Q 18.109375 38.921875 18.109375 30.90625 
L 18.109375 0 
L 9.078125 0 
L 9.078125 54.6875 
L 18.109375 54.6875 
L 18.109375 46.1875 
Q 21.34375 51.125 25.703125 53.5625 
Q 30.078125 56 35.796875 56 
Q 45.21875 56 50.046875 50.171875 
Q 54.890625 44.34375 54.890625 33.015625 
z
" id="DejaVuSans-110"/>
      <path d="M 41.109375 46.296875 
Q 39.59375 47.171875 37.8125 47.578125 
Q 36.03125 48 33.890625 48 
Q 26.265625 48 22.1875 43.046875 
Q 18.109375 38.09375 18.109375 28.8125 
L 18.109375 0 
L 9.078125 0 
L 9.078125 54.6875 
L 18.109375 54.6875 
L 18.109375 46.1875 
Q 20.953125 51.171875 25.484375 53.578125 
Q 30.03125 56 36.53125 56 
Q 37.453125 56 38.578125 55.875 
Q 39.703125 55.765625 41.0625 55.515625 
z
" id="DejaVuSans-114"/>
      <path d="M 10.59375 45.40625 
L 73.1875 45.40625 
L 73.1875 37.203125 
L 10.59375 37.203125 
z
M 10.59375 25.484375 
L 73.1875 25.484375 
L 73.1875 17.1875 
L 10.59375 17.1875 
z
" id="DejaVuSans-61"/>
     </defs>
     <use xlink:href="#DejaVuSans-69"/>
     <use x="63.183594" xlink:href="#DejaVuSans-115"/>
     <use x="115.283203" xlink:href="#DejaVuSans-116"/>
     <use x="154.492188" xlink:href="#DejaVuSans-111"/>
     <use x="215.673828" xlink:href="#DejaVuSans-110"/>
     <use x="279.052734" xlink:href="#DejaVuSans-105"/>
     <use x="306.835938" xlink:href="#DejaVuSans-97"/>
     <use x="368.115234" xlink:href="#DejaVuSans-32"/>
     <use x="399.902344" xlink:href="#DejaVuSans-114"/>
     <use x="438.765625" xlink:href="#DejaVuSans-101"/>
     <use x="500.289062" xlink:href="#DejaVuSans-108"/>
     <use x="528.072266" xlink:href="#DejaVuSans-97"/>
     <use x="589.351562" xlink:href="#DejaVuSans-116"/>
     <use x="628.560547" xlink:href="#DejaVuSans-105"/>
     <use x="656.34375" xlink:href="#DejaVuSans-118"/>
     <use x="715.523438" xlink:href="#DejaVuSans-101"/>
     <use x="777.046875" xlink:href="#DejaVuSans-32"/>
     <use x="808.833984" xlink:href="#DejaVuSans-101"/>
     <use x="870.357422" xlink:href="#DejaVuSans-114"/>
     <use x="909.720703" xlink:href="#DejaVuSans-114"/>
     <use x="950.833984" xlink:href="#DejaVuSans-32"/>
     <use x="982.621094" xlink:href="#DejaVuSans-61"/>
     <use x="1066.410156" xlink:href="#DejaVuSans-32"/>
    </g>
   </g>
   <g id="legend_1">
    <g id="patch_7">
     <path d="M 97 226.503125 
L 185.6 226.503125 
Q 187.6 226.503125 187.6 224.503125 
L 187.6 93.4 
Q 187.6 91.4 185.6 91.4 
L 97 91.4 
Q 95 91.4 95 93.4 
L 95 224.503125 
Q 95 226.503125 97 226.503125 
z
" style="fill:#ffffff;opacity:0.8;stroke:#cccccc;stroke-linejoin:miter;"/>
    </g>
    <g id="line2d_37">
     <path d="M 99 99.498438 
L 119 99.498438 
" style="fill:none;stroke:#1f77b4;stroke-linecap:square;stroke-width:1.5;"/>
    </g>
    <g id="line2d_38"/>
    <g id="text_17">
     <!-- SI -->
     <g transform="translate(127 102.998438)scale(0.1 -0.1)">
      <defs>
       <path d="M 53.515625 70.515625 
L 53.515625 60.890625 
Q 47.90625 63.578125 42.921875 64.890625 
Q 37.9375 66.21875 33.296875 66.21875 
Q 25.25 66.21875 20.875 63.09375 
Q 16.5 59.96875 16.5 54.203125 
Q 16.5 49.359375 19.40625 46.890625 
Q 22.3125 44.4375 30.421875 42.921875 
L 36.375 41.703125 
Q 47.40625 39.59375 52.65625 34.296875 
Q 57.90625 29 57.90625 20.125 
Q 57.90625 9.515625 50.796875 4.046875 
Q 43.703125 -1.421875 29.984375 -1.421875 
Q 24.8125 -1.421875 18.96875 -0.25 
Q 13.140625 0.921875 6.890625 3.21875 
L 6.890625 13.375 
Q 12.890625 10.015625 18.65625 8.296875 
Q 24.421875 6.59375 29.984375 6.59375 
Q 38.421875 6.59375 43.015625 9.90625 
Q 47.609375 13.234375 47.609375 19.390625 
Q 47.609375 24.75 44.3125 27.78125 
Q 41.015625 30.8125 33.5 32.328125 
L 27.484375 33.5 
Q 16.453125 35.6875 11.515625 40.375 
Q 6.59375 45.0625 6.59375 53.421875 
Q 6.59375 63.09375 13.40625 68.65625 
Q 20.21875 74.21875 32.171875 74.21875 
Q 37.3125 74.21875 42.625 73.28125 
Q 47.953125 72.359375 53.515625 70.515625 
z
" id="DejaVuSans-83"/>
       <path d="M 9.8125 72.90625 
L 19.671875 72.90625 
L 19.671875 0 
L 9.8125 0 
z
" id="DejaVuSans-73"/>
      </defs>
      <use xlink:href="#DejaVuSans-83"/>
      <use x="63.476562" xlink:href="#DejaVuSans-73"/>
     </g>
    </g>
    <g id="line2d_39">
     <path d="M 99 114.176563 
L 119 114.176563 
" style="fill:none;stroke:#ff7f0e;stroke-linecap:square;stroke-width:1.5;"/>
    </g>
    <g id="line2d_40"/>
    <g id="text_18">
     <!-- BD -->
     <g transform="translate(127 117.676563)scale(0.1 -0.1)">
      <defs>
       <path d="M 19.671875 34.8125 
L 19.671875 8.109375 
L 35.5 8.109375 
Q 43.453125 8.109375 47.28125 11.40625 
Q 51.125 14.703125 51.125 21.484375 
Q 51.125 28.328125 47.28125 31.5625 
Q 43.453125 34.8125 35.5 34.8125 
z
M 19.671875 64.796875 
L 19.671875 42.828125 
L 34.28125 42.828125 
Q 41.5 42.828125 45.03125 45.53125 
Q 48.578125 48.25 48.578125 53.8125 
Q 48.578125 59.328125 45.03125 62.0625 
Q 41.5 64.796875 34.28125 64.796875 
z
M 9.8125 72.90625 
L 35.015625 72.90625 
Q 46.296875 72.90625 52.390625 68.21875 
Q 58.5 63.53125 58.5 54.890625 
Q 58.5 48.1875 55.375 44.234375 
Q 52.25 40.28125 46.1875 39.3125 
Q 53.46875 37.75 57.5 32.78125 
Q 61.53125 27.828125 61.53125 20.40625 
Q 61.53125 10.640625 54.890625 5.3125 
Q 48.25 0 35.984375 0 
L 9.8125 0 
z
" id="DejaVuSans-66"/>
      </defs>
      <use xlink:href="#DejaVuSans-66"/>
      <use x="68.603516" xlink:href="#DejaVuSans-68"/>
     </g>
    </g>
    <g id="line2d_41">
     <path d="M 99 128.854688 
L 119 128.854688 
" style="fill:none;stroke:#2ca02c;stroke-linecap:square;stroke-width:1.5;"/>
    </g>
    <g id="line2d_42"/>
    <g id="text_19">
     <!-- SIR -->
     <g transform="translate(127 132.354688)scale(0.1 -0.1)">
      <defs>
       <path d="M 44.390625 34.1875 
Q 47.5625 33.109375 50.5625 29.59375 
Q 53.5625 26.078125 56.59375 19.921875 
L 66.609375 0 
L 56 0 
L 46.6875 18.703125 
Q 43.0625 26.03125 39.671875 28.421875 
Q 36.28125 30.8125 30.421875 30.8125 
L 19.671875 30.8125 
L 19.671875 0 
L 9.8125 0 
L 9.8125 72.90625 
L 32.078125 72.90625 
Q 44.578125 72.90625 50.734375 67.671875 
Q 56.890625 62.453125 56.890625 51.90625 
Q 56.890625 45.015625 53.6875 40.46875 
Q 50.484375 35.9375 44.390625 34.1875 
z
M 19.671875 64.796875 
L 19.671875 38.921875 
L 32.078125 38.921875 
Q 39.203125 38.921875 42.84375 42.21875 
Q 46.484375 45.515625 46.484375 51.90625 
Q 46.484375 58.296875 42.84375 61.546875 
Q 39.203125 64.796875 32.078125 64.796875 
z
" id="DejaVuSans-82"/>
      </defs>
      <use xlink:href="#DejaVuSans-83"/>
      <use x="63.476562" xlink:href="#DejaVuSans-73"/>
      <use x="92.96875" xlink:href="#DejaVuSans-82"/>
     </g>
    </g>
    <g id="line2d_43">
     <path d="M 99 143.532812 
L 119 143.532812 
" style="fill:none;stroke:#d62728;stroke-linecap:square;stroke-width:1.5;"/>
    </g>
    <g id="line2d_44"/>
    <g id="text_20">
     <!-- eSIR -->
     <g transform="translate(127 147.032812)scale(0.1 -0.1)">
      <use xlink:href="#DejaVuSans-101"/>
      <use x="61.523438" xlink:href="#DejaVuSans-83"/>
      <use x="125" xlink:href="#DejaVuSans-73"/>
      <use x="154.492188" xlink:href="#DejaVuSans-82"/>
     </g>
    </g>
    <g id="line2d_45">
     <path d="M 99 158.210938 
L 119 158.210938 
" style="fill:none;stroke:#9467bd;stroke-linecap:square;stroke-width:1.5;"/>
    </g>
    <g id="line2d_46"/>
    <g id="text_21">
     <!-- SEIR -->
     <g transform="translate(127 161.710938)scale(0.1 -0.1)">
      <use xlink:href="#DejaVuSans-83"/>
      <use x="63.476562" xlink:href="#DejaVuSans-69"/>
      <use x="126.660156" xlink:href="#DejaVuSans-73"/>
      <use x="156.152344" xlink:href="#DejaVuSans-82"/>
     </g>
    </g>
    <g id="line2d_47">
     <path d="M 99 172.889063 
L 119 172.889063 
" style="fill:none;stroke:#8c564b;stroke-linecap:square;stroke-width:1.5;"/>
    </g>
    <g id="line2d_48"/>
    <g id="text_22">
     <!-- eSEIR -->
     <g transform="translate(127 176.389063)scale(0.1 -0.1)">
      <use xlink:href="#DejaVuSans-101"/>
      <use x="61.523438" xlink:href="#DejaVuSans-83"/>
      <use x="125" xlink:href="#DejaVuSans-69"/>
      <use x="188.183594" xlink:href="#DejaVuSans-73"/>
      <use x="217.675781" xlink:href="#DejaVuSans-82"/>
     </g>
    </g>
    <g id="line2d_49">
     <path d="M 99 187.567188 
L 119 187.567188 
" style="fill:none;stroke:#e377c2;stroke-linecap:square;stroke-width:1.5;"/>
    </g>
    <g id="line2d_50"/>
    <g id="text_23">
     <!-- SEIUR -->
     <g transform="translate(127 191.067188)scale(0.1 -0.1)">
      <defs>
       <path d="M 8.6875 72.90625 
L 18.609375 72.90625 
L 18.609375 28.609375 
Q 18.609375 16.890625 22.84375 11.734375 
Q 27.09375 6.59375 36.625 6.59375 
Q 46.09375 6.59375 50.34375 11.734375 
Q 54.59375 16.890625 54.59375 28.609375 
L 54.59375 72.90625 
L 64.5 72.90625 
L 64.5 27.390625 
Q 64.5 13.140625 57.4375 5.859375 
Q 50.390625 -1.421875 36.625 -1.421875 
Q 22.796875 -1.421875 15.734375 5.859375 
Q 8.6875 13.140625 8.6875 27.390625 
z
" id="DejaVuSans-85"/>
      </defs>
      <use xlink:href="#DejaVuSans-83"/>
      <use x="63.476562" xlink:href="#DejaVuSans-69"/>
      <use x="126.660156" xlink:href="#DejaVuSans-73"/>
      <use x="156.152344" xlink:href="#DejaVuSans-85"/>
      <use x="229.345703" xlink:href="#DejaVuSans-82"/>
     </g>
    </g>
    <g id="line2d_51">
     <path d="M 99 202.245312 
L 119 202.245312 
" style="fill:none;stroke:#7f7f7f;stroke-linecap:square;stroke-width:1.5;"/>
    </g>
    <g id="line2d_52"/>
    <g id="text_24">
     <!-- eSEIUR -->
     <g transform="translate(127 205.745312)scale(0.1 -0.1)">
      <use xlink:href="#DejaVuSans-101"/>
      <use x="61.523438" xlink:href="#DejaVuSans-83"/>
      <use x="125" xlink:href="#DejaVuSans-69"/>
      <use x="188.183594" xlink:href="#DejaVuSans-73"/>
      <use x="217.675781" xlink:href="#DejaVuSans-85"/>
      <use x="290.869141" xlink:href="#DejaVuSans-82"/>
     </g>
    </g>
    <g id="line2d_53">
     <path d="M 99 216.923437 
L 119 216.923437 
" style="fill:none;stroke:#bcbd22;stroke-linecap:square;stroke-width:1.5;"/>
    </g>
    <g id="line2d_54"/>
    <g id="text_25">
     <!-- eSEIUR$^{range}$ -->
     <g transform="translate(127 220.423437)scale(0.1 -0.1)">
      <defs>
       <path d="M 44.578125 46.390625 
Q 43.21875 47.125 41.453125 47.515625 
Q 39.703125 47.90625 37.703125 47.90625 
Q 30.515625 47.90625 25.140625 42.453125 
Q 19.78125 37.015625 18.015625 27.875 
L 12.5 0 
L 3.515625 0 
L 14.203125 54.6875 
L 23.1875 54.6875 
L 21.484375 46.1875 
Q 25.046875 50.921875 30 53.453125 
Q 34.96875 56 40.578125 56 
Q 42.046875 56 43.453125 55.828125 
Q 44.875 55.671875 46.296875 55.28125 
z
" id="DejaVuSans-Oblique-114"/>
       <path d="M 53.71875 31.203125 
L 47.609375 0 
L 38.625 0 
L 40.28125 8.296875 
Q 36.328125 3.421875 31.265625 1 
Q 26.21875 -1.421875 20.015625 -1.421875 
Q 13.03125 -1.421875 8.5625 2.84375 
Q 4.109375 7.125 4.109375 13.8125 
Q 4.109375 23.390625 11.75 28.953125 
Q 19.390625 34.515625 32.8125 34.515625 
L 45.3125 34.515625 
L 45.796875 36.921875 
Q 45.90625 37.3125 45.953125 37.765625 
Q 46 38.234375 46 39.203125 
Q 46 43.5625 42.453125 45.96875 
Q 38.921875 48.390625 32.515625 48.390625 
Q 28.125 48.390625 23.5 47.265625 
Q 18.890625 46.140625 14.015625 43.890625 
L 15.578125 52.203125 
Q 20.65625 54.109375 25.515625 55.046875 
Q 30.375 56 34.90625 56 
Q 44.578125 56 49.625 51.796875 
Q 54.6875 47.609375 54.6875 39.59375 
Q 54.6875 37.984375 54.4375 35.8125 
Q 54.203125 33.640625 53.71875 31.203125 
z
M 44 27.484375 
L 35.015625 27.484375 
Q 23.96875 27.484375 18.671875 24.53125 
Q 13.375 21.578125 13.375 15.375 
Q 13.375 11.078125 16.078125 8.640625 
Q 18.796875 6.203125 23.578125 6.203125 
Q 30.90625 6.203125 36.375 11.453125 
Q 41.84375 16.703125 43.609375 25.484375 
z
" id="DejaVuSans-Oblique-97"/>
       <path d="M 55.71875 33.015625 
L 49.3125 0 
L 40.28125 0 
L 46.6875 32.671875 
Q 47.125 34.96875 47.359375 36.71875 
Q 47.609375 38.484375 47.609375 39.5 
Q 47.609375 43.609375 45.015625 45.890625 
Q 42.4375 48.1875 37.796875 48.1875 
Q 30.5625 48.1875 25.34375 43.375 
Q 20.125 38.578125 18.5 30.328125 
L 12.5 0 
L 3.515625 0 
L 14.109375 54.6875 
L 23.09375 54.6875 
L 21.296875 46.09375 
Q 25.046875 50.828125 30.3125 53.40625 
Q 35.59375 56 41.40625 56 
Q 48.640625 56 52.609375 52.09375 
Q 56.59375 48.1875 56.59375 41.109375 
Q 56.59375 39.359375 56.375 37.359375 
Q 56.15625 35.359375 55.71875 33.015625 
z
" id="DejaVuSans-Oblique-110"/>
       <path d="M 59.625 54.6875 
L 50.296875 6.78125 
Q 47.609375 -7.125 40.015625 -13.953125 
Q 32.421875 -20.796875 19.578125 -20.796875 
Q 14.84375 -20.796875 10.78125 -20.09375 
Q 6.734375 -19.390625 3.21875 -17.921875 
L 4.890625 -9.1875 
Q 8.203125 -11.328125 11.90625 -12.34375 
Q 15.625 -13.375 19.828125 -13.375 
Q 28.375 -13.375 33.859375 -8.703125 
Q 39.359375 -4.046875 41.109375 4.6875 
L 41.890625 8.796875 
Q 38.140625 4.5 33.15625 2.25 
Q 28.171875 0 22.40625 0 
Q 14.109375 0 9.34375 5.484375 
Q 4.59375 10.984375 4.59375 20.609375 
Q 4.59375 28.171875 7.46875 35.421875 
Q 10.359375 42.671875 15.578125 48.296875 
Q 19.046875 52 23.65625 54 
Q 28.265625 56 33.296875 56 
Q 38.8125 56 42.90625 53.4375 
Q 47.015625 50.875 49.03125 46.1875 
L 50.59375 54.6875 
z
M 46.09375 34.625 
Q 46.09375 41.265625 42.96875 44.875 
Q 39.84375 48.484375 34.078125 48.484375 
Q 30.515625 48.484375 27.296875 47.0625 
Q 24.078125 45.65625 21.78125 43.109375 
Q 18.0625 38.921875 15.984375 33.234375 
Q 13.921875 27.546875 13.921875 21.484375 
Q 13.921875 14.75 17.0625 11.125 
Q 20.21875 7.515625 26.125 7.515625 
Q 34.671875 7.515625 40.375 15.25 
Q 46.09375 23 46.09375 34.625 
z
" id="DejaVuSans-Oblique-103"/>
       <path d="M 48.09375 32.234375 
Q 48.25 33.015625 48.3125 33.84375 
Q 48.390625 34.671875 48.390625 35.5 
Q 48.390625 41.453125 44.890625 44.921875 
Q 41.40625 48.390625 35.40625 48.390625 
Q 28.71875 48.390625 23.578125 44.15625 
Q 18.453125 39.9375 15.828125 32.171875 
z
M 55.90625 25.203125 
L 14.109375 25.203125 
Q 13.8125 23.34375 13.71875 22.265625 
Q 13.625 21.1875 13.625 20.40625 
Q 13.625 13.625 17.796875 9.90625 
Q 21.96875 6.203125 29.59375 6.203125 
Q 35.453125 6.203125 40.671875 7.515625 
Q 45.90625 8.84375 50.390625 11.375 
L 48.6875 2.484375 
Q 43.84375 0.53125 38.6875 -0.4375 
Q 33.546875 -1.421875 28.21875 -1.421875 
Q 16.84375 -1.421875 10.71875 4.015625 
Q 4.59375 9.46875 4.59375 19.484375 
Q 4.59375 28.03125 7.640625 35.375 
Q 10.6875 42.71875 16.609375 48.484375 
Q 20.40625 52.09375 25.65625 54.046875 
Q 30.90625 56 36.8125 56 
Q 46.09375 56 51.578125 50.4375 
Q 57.078125 44.875 57.078125 35.5 
Q 57.078125 33.25 56.78125 30.6875 
Q 56.5 28.125 55.90625 25.203125 
z
" id="DejaVuSans-Oblique-101"/>
      </defs>
      <use transform="translate(0 0.51875)" xlink:href="#DejaVuSans-101"/>
      <use transform="translate(61.523438 0.51875)" xlink:href="#DejaVuSans-83"/>
      <use transform="translate(125 0.51875)" xlink:href="#DejaVuSans-69"/>
      <use transform="translate(188.183594 0.51875)" xlink:href="#DejaVuSans-73"/>
      <use transform="translate(217.675781 0.51875)" xlink:href="#DejaVuSans-85"/>
      <use transform="translate(288.619141 0.51875)" xlink:href="#DejaVuSans-82"/>
      <use transform="translate(359.058594 38.8)scale(0.7)" xlink:href="#DejaVuSans-Oblique-114"/>
      <use transform="translate(387.837891 38.8)scale(0.7)" xlink:href="#DejaVuSans-Oblique-97"/>
      <use transform="translate(430.733398 38.8)scale(0.7)" xlink:href="#DejaVuSans-Oblique-110"/>
      <use transform="translate(475.098633 38.8)scale(0.7)" xlink:href="#DejaVuSans-Oblique-103"/>
      <use transform="translate(519.532227 38.8)scale(0.7)" xlink:href="#DejaVuSans-Oblique-101"/>
     </g>
    </g>
   </g>
  </g>
 </g>
 <defs>
  <clipPath id="p99cb24cf41">
   <rect height="543.6" width="558" x="90" y="86.4"/>
  </clipPath>
 </defs>
</svg>
