<?xml version="1.0" encoding="utf-8" standalone="no"?>
<!DOCTYPE svg PUBLIC "-//W3C//DTD SVG 1.1//EN"
  "http://www.w3.org/Graphics/SVG/1.1/DTD/svg11.dtd">
<!-- Created with matplotlib (https://matplotlib.org/) -->
<svg height="720pt" version="1.1" viewBox="0 0 720 720" width="720pt" xmlns="http://www.w3.org/2000/svg" xmlns:xlink="http://www.w3.org/1999/xlink">
 <metadata>
  <rdf:RDF xmlns:cc="http://creativecommons.org/ns#" xmlns:dc="http://purl.org/dc/elements/1.1/" xmlns:rdf="http://www.w3.org/1999/02/22-rdf-syntax-ns#">
   <cc:Work>
    <dc:type rdf:resource="http://purl.org/dc/dcmitype/StillImage"/>
    <dc:date>2022-07-13T18:54:05.968916</dc:date>
    <dc:format>image/svg+xml</dc:format>
    <dc:creator>
     <cc:Agent>
      <dc:title>Matplotlib v3.3.2, https://matplotlib.org/</dc:title>
     </cc:Agent>
    </dc:creator>
   </cc:Work>
  </rdf:RDF>
 </metadata>
 <defs>
  <style type="text/css">*{stroke-linecap:butt;stroke-linejoin:round;}</style>
 </defs>
 <g id="figure_1">
  <g id="patch_1">
   <path d="M 0 720 
L 720 720 
L 720 0 
L 0 0 
z
" style="fill:none;"/>
  </g>
  <g id="axes_1">
   <g id="patch_2">
    <path d="M 90 630 
L 648 630 
L 648 86.4 
L 90 86.4 
z
" style="fill:#ffffff;"/>
   </g>
   <g id="matplotlib.axis_1">
    <g id="xtick_1">
     <g id="line2d_1">
      <path clip-path="url(#p4bd380a1d6)" d="M 115.363636 630 
L 115.363636 86.4 
" style="fill:none;stroke:#b0b0b0;stroke-linecap:square;stroke-width:0.8;"/>
     </g>
     <g id="line2d_2">
      <defs>
       <path d="M 0 0 
L 0 3.5 
" id="mdf9cf3c9f9" style="stroke:#000000;stroke-width:0.8;"/>
      </defs>
      <g>
       <use style="stroke:#000000;stroke-width:0.8;" x="115.363636" xlink:href="#mdf9cf3c9f9" y="630"/>
      </g>
     </g>
     <g id="text_1">
      <!-- 0 -->
      <g transform="translate(112.182386 644.598438)scale(0.1 -0.1)">
       <defs>
        <path d="M 31.78125 66.40625 
Q 24.171875 66.40625 20.328125 58.90625 
Q 16.5 51.421875 16.5 36.375 
Q 16.5 21.390625 20.328125 13.890625 
Q 24.171875 6.390625 31.78125 6.390625 
Q 39.453125 6.390625 43.28125 13.890625 
Q 47.125 21.390625 47.125 36.375 
Q 47.125 51.421875 43.28125 58.90625 
Q 39.453125 66.40625 31.78125 66.40625 
z
M 31.78125 74.21875 
Q 44.046875 74.21875 50.515625 64.515625 
Q 56.984375 54.828125 56.984375 36.375 
Q 56.984375 17.96875 50.515625 8.265625 
Q 44.046875 -1.421875 31.78125 -1.421875 
Q 19.53125 -1.421875 13.0625 8.265625 
Q 6.59375 17.96875 6.59375 36.375 
Q 6.59375 54.828125 13.0625 64.515625 
Q 19.53125 74.21875 31.78125 74.21875 
z
" id="DejaVuSans-48"/>
       </defs>
       <use xlink:href="#DejaVuSans-48"/>
      </g>
     </g>
    </g>
    <g id="xtick_2">
     <g id="line2d_3">
      <path clip-path="url(#p4bd380a1d6)" d="M 211.987013 630 
L 211.987013 86.4 
" style="fill:none;stroke:#b0b0b0;stroke-linecap:square;stroke-width:0.8;"/>
     </g>
     <g id="line2d_4">
      <g>
       <use style="stroke:#000000;stroke-width:0.8;" x="211.987013" xlink:href="#mdf9cf3c9f9" y="630"/>
      </g>
     </g>
     <g id="text_2">
      <!-- 20 -->
      <g transform="translate(205.624513 644.598438)scale(0.1 -0.1)">
       <defs>
        <path d="M 19.1875 8.296875 
L 53.609375 8.296875 
L 53.609375 0 
L 7.328125 0 
L 7.328125 8.296875 
Q 12.9375 14.109375 22.625 23.890625 
Q 32.328125 33.6875 34.8125 36.53125 
Q 39.546875 41.84375 41.421875 45.53125 
Q 43.3125 49.21875 43.3125 52.78125 
Q 43.3125 58.59375 39.234375 62.25 
Q 35.15625 65.921875 28.609375 65.921875 
Q 23.96875 65.921875 18.8125 64.3125 
Q 13.671875 62.703125 7.8125 59.421875 
L 7.8125 69.390625 
Q 13.765625 71.78125 18.9375 73 
Q 24.125 74.21875 28.421875 74.21875 
Q 39.75 74.21875 46.484375 68.546875 
Q 53.21875 62.890625 53.21875 53.421875 
Q 53.21875 48.921875 51.53125 44.890625 
Q 49.859375 40.875 45.40625 35.40625 
Q 44.1875 33.984375 37.640625 27.21875 
Q 31.109375 20.453125 19.1875 8.296875 
z
" id="DejaVuSans-50"/>
       </defs>
       <use xlink:href="#DejaVuSans-50"/>
       <use x="63.623047" xlink:href="#DejaVuSans-48"/>
      </g>
     </g>
    </g>
    <g id="xtick_3">
     <g id="line2d_5">
      <path clip-path="url(#p4bd380a1d6)" d="M 308.61039 630 
L 308.61039 86.4 
" style="fill:none;stroke:#b0b0b0;stroke-linecap:square;stroke-width:0.8;"/>
     </g>
     <g id="line2d_6">
      <g>
       <use style="stroke:#000000;stroke-width:0.8;" x="308.61039" xlink:href="#mdf9cf3c9f9" y="630"/>
      </g>
     </g>
     <g id="text_3">
      <!-- 40 -->
      <g transform="translate(302.24789 644.598438)scale(0.1 -0.1)">
       <defs>
        <path d="M 37.796875 64.3125 
L 12.890625 25.390625 
L 37.796875 25.390625 
z
M 35.203125 72.90625 
L 47.609375 72.90625 
L 47.609375 25.390625 
L 58.015625 25.390625 
L 58.015625 17.1875 
L 47.609375 17.1875 
L 47.609375 0 
L 37.796875 0 
L 37.796875 17.1875 
L 4.890625 17.1875 
L 4.890625 26.703125 
z
" id="DejaVuSans-52"/>
       </defs>
       <use xlink:href="#DejaVuSans-52"/>
       <use x="63.623047" xlink:href="#DejaVuSans-48"/>
      </g>
     </g>
    </g>
    <g id="xtick_4">
     <g id="line2d_7">
      <path clip-path="url(#p4bd380a1d6)" d="M 405.233766 630 
L 405.233766 86.4 
" style="fill:none;stroke:#b0b0b0;stroke-linecap:square;stroke-width:0.8;"/>
     </g>
     <g id="line2d_8">
      <g>
       <use style="stroke:#000000;stroke-width:0.8;" x="405.233766" xlink:href="#mdf9cf3c9f9" y="630"/>
      </g>
     </g>
     <g id="text_4">
      <!-- 60 -->
      <g transform="translate(398.871266 644.598438)scale(0.1 -0.1)">
       <defs>
        <path d="M 33.015625 40.375 
Q 26.375 40.375 22.484375 35.828125 
Q 18.609375 31.296875 18.609375 23.390625 
Q 18.609375 15.53125 22.484375 10.953125 
Q 26.375 6.390625 33.015625 6.390625 
Q 39.65625 6.390625 43.53125 10.953125 
Q 47.40625 15.53125 47.40625 23.390625 
Q 47.40625 31.296875 43.53125 35.828125 
Q 39.65625 40.375 33.015625 40.375 
z
M 52.59375 71.296875 
L 52.59375 62.3125 
Q 48.875 64.0625 45.09375 64.984375 
Q 41.3125 65.921875 37.59375 65.921875 
Q 27.828125 65.921875 22.671875 59.328125 
Q 17.53125 52.734375 16.796875 39.40625 
Q 19.671875 43.65625 24.015625 45.921875 
Q 28.375 48.1875 33.59375 48.1875 
Q 44.578125 48.1875 50.953125 41.515625 
Q 57.328125 34.859375 57.328125 23.390625 
Q 57.328125 12.15625 50.6875 5.359375 
Q 44.046875 -1.421875 33.015625 -1.421875 
Q 20.359375 -1.421875 13.671875 8.265625 
Q 6.984375 17.96875 6.984375 36.375 
Q 6.984375 53.65625 15.1875 63.9375 
Q 23.390625 74.21875 37.203125 74.21875 
Q 40.921875 74.21875 44.703125 73.484375 
Q 48.484375 72.75 52.59375 71.296875 
z
" id="DejaVuSans-54"/>
       </defs>
       <use xlink:href="#DejaVuSans-54"/>
       <use x="63.623047" xlink:href="#DejaVuSans-48"/>
      </g>
     </g>
    </g>
    <g id="xtick_5">
     <g id="line2d_9">
      <path clip-path="url(#p4bd380a1d6)" d="M 501.857143 630 
L 501.857143 86.4 
" style="fill:none;stroke:#b0b0b0;stroke-linecap:square;stroke-width:0.8;"/>
     </g>
     <g id="line2d_10">
      <g>
       <use style="stroke:#000000;stroke-width:0.8;" x="501.857143" xlink:href="#mdf9cf3c9f9" y="630"/>
      </g>
     </g>
     <g id="text_5">
      <!-- 80 -->
      <g transform="translate(495.494643 644.598438)scale(0.1 -0.1)">
       <defs>
        <path d="M 31.78125 34.625 
Q 24.75 34.625 20.71875 30.859375 
Q 16.703125 27.09375 16.703125 20.515625 
Q 16.703125 13.921875 20.71875 10.15625 
Q 24.75 6.390625 31.78125 6.390625 
Q 38.8125 6.390625 42.859375 10.171875 
Q 46.921875 13.96875 46.921875 20.515625 
Q 46.921875 27.09375 42.890625 30.859375 
Q 38.875 34.625 31.78125 34.625 
z
M 21.921875 38.8125 
Q 15.578125 40.375 12.03125 44.71875 
Q 8.5 49.078125 8.5 55.328125 
Q 8.5 64.0625 14.71875 69.140625 
Q 20.953125 74.21875 31.78125 74.21875 
Q 42.671875 74.21875 48.875 69.140625 
Q 55.078125 64.0625 55.078125 55.328125 
Q 55.078125 49.078125 51.53125 44.71875 
Q 48 40.375 41.703125 38.8125 
Q 48.828125 37.15625 52.796875 32.3125 
Q 56.78125 27.484375 56.78125 20.515625 
Q 56.78125 9.90625 50.3125 4.234375 
Q 43.84375 -1.421875 31.78125 -1.421875 
Q 19.734375 -1.421875 13.25 4.234375 
Q 6.78125 9.90625 6.78125 20.515625 
Q 6.78125 27.484375 10.78125 32.3125 
Q 14.796875 37.15625 21.921875 38.8125 
z
M 18.3125 54.390625 
Q 18.3125 48.734375 21.84375 45.5625 
Q 25.390625 42.390625 31.78125 42.390625 
Q 38.140625 42.390625 41.71875 45.5625 
Q 45.3125 48.734375 45.3125 54.390625 
Q 45.3125 60.0625 41.71875 63.234375 
Q 38.140625 66.40625 31.78125 66.40625 
Q 25.390625 66.40625 21.84375 63.234375 
Q 18.3125 60.0625 18.3125 54.390625 
z
" id="DejaVuSans-56"/>
       </defs>
       <use xlink:href="#DejaVuSans-56"/>
       <use x="63.623047" xlink:href="#DejaVuSans-48"/>
      </g>
     </g>
    </g>
    <g id="xtick_6">
     <g id="line2d_11">
      <path clip-path="url(#p4bd380a1d6)" d="M 598.480519 630 
L 598.480519 86.4 
" style="fill:none;stroke:#b0b0b0;stroke-linecap:square;stroke-width:0.8;"/>
     </g>
     <g id="line2d_12">
      <g>
       <use style="stroke:#000000;stroke-width:0.8;" x="598.480519" xlink:href="#mdf9cf3c9f9" y="630"/>
      </g>
     </g>
     <g id="text_6">
      <!-- 100 -->
      <g transform="translate(588.936769 644.598438)scale(0.1 -0.1)">
       <defs>
        <path d="M 12.40625 8.296875 
L 28.515625 8.296875 
L 28.515625 63.921875 
L 10.984375 60.40625 
L 10.984375 69.390625 
L 28.421875 72.90625 
L 38.28125 72.90625 
L 38.28125 8.296875 
L 54.390625 8.296875 
L 54.390625 0 
L 12.40625 0 
z
" id="DejaVuSans-49"/>
       </defs>
       <use xlink:href="#DejaVuSans-49"/>
       <use x="63.623047" xlink:href="#DejaVuSans-48"/>
       <use x="127.246094" xlink:href="#DejaVuSans-48"/>
      </g>
     </g>
    </g>
    <g id="text_7">
     <!-- Days -->
     <g transform="translate(356.521875 658.276562)scale(0.1 -0.1)">
      <defs>
       <path d="M 19.671875 64.796875 
L 19.671875 8.109375 
L 31.59375 8.109375 
Q 46.6875 8.109375 53.6875 14.9375 
Q 60.6875 21.78125 60.6875 36.53125 
Q 60.6875 51.171875 53.6875 57.984375 
Q 46.6875 64.796875 31.59375 64.796875 
z
M 9.8125 72.90625 
L 30.078125 72.90625 
Q 51.265625 72.90625 61.171875 64.09375 
Q 71.09375 55.28125 71.09375 36.53125 
Q 71.09375 17.671875 61.125 8.828125 
Q 51.171875 0 30.078125 0 
L 9.8125 0 
z
" id="DejaVuSans-68"/>
       <path d="M 34.28125 27.484375 
Q 23.390625 27.484375 19.1875 25 
Q 14.984375 22.515625 14.984375 16.5 
Q 14.984375 11.71875 18.140625 8.90625 
Q 21.296875 6.109375 26.703125 6.109375 
Q 34.1875 6.109375 38.703125 11.40625 
Q 43.21875 16.703125 43.21875 25.484375 
L 43.21875 27.484375 
z
M 52.203125 31.203125 
L 52.203125 0 
L 43.21875 0 
L 43.21875 8.296875 
Q 40.140625 3.328125 35.546875 0.953125 
Q 30.953125 -1.421875 24.3125 -1.421875 
Q 15.921875 -1.421875 10.953125 3.296875 
Q 6 8.015625 6 15.921875 
Q 6 25.140625 12.171875 29.828125 
Q 18.359375 34.515625 30.609375 34.515625 
L 43.21875 34.515625 
L 43.21875 35.40625 
Q 43.21875 41.609375 39.140625 45 
Q 35.0625 48.390625 27.6875 48.390625 
Q 23 48.390625 18.546875 47.265625 
Q 14.109375 46.140625 10.015625 43.890625 
L 10.015625 52.203125 
Q 14.9375 54.109375 19.578125 55.046875 
Q 24.21875 56 28.609375 56 
Q 40.484375 56 46.34375 49.84375 
Q 52.203125 43.703125 52.203125 31.203125 
z
" id="DejaVuSans-97"/>
       <path d="M 32.171875 -5.078125 
Q 28.375 -14.84375 24.75 -17.8125 
Q 21.140625 -20.796875 15.09375 -20.796875 
L 7.90625 -20.796875 
L 7.90625 -13.28125 
L 13.1875 -13.28125 
Q 16.890625 -13.28125 18.9375 -11.515625 
Q 21 -9.765625 23.484375 -3.21875 
L 25.09375 0.875 
L 2.984375 54.6875 
L 12.5 54.6875 
L 29.59375 11.921875 
L 46.6875 54.6875 
L 56.203125 54.6875 
z
" id="DejaVuSans-121"/>
       <path d="M 44.28125 53.078125 
L 44.28125 44.578125 
Q 40.484375 46.53125 36.375 47.5 
Q 32.28125 48.484375 27.875 48.484375 
Q 21.1875 48.484375 17.84375 46.4375 
Q 14.5 44.390625 14.5 40.28125 
Q 14.5 37.15625 16.890625 35.375 
Q 19.28125 33.59375 26.515625 31.984375 
L 29.59375 31.296875 
Q 39.15625 29.25 43.1875 25.515625 
Q 47.21875 21.78125 47.21875 15.09375 
Q 47.21875 7.46875 41.1875 3.015625 
Q 35.15625 -1.421875 24.609375 -1.421875 
Q 20.21875 -1.421875 15.453125 -0.5625 
Q 10.6875 0.296875 5.421875 2 
L 5.421875 11.28125 
Q 10.40625 8.6875 15.234375 7.390625 
Q 20.0625 6.109375 24.8125 6.109375 
Q 31.15625 6.109375 34.5625 8.28125 
Q 37.984375 10.453125 37.984375 14.40625 
Q 37.984375 18.0625 35.515625 20.015625 
Q 33.0625 21.96875 24.703125 23.78125 
L 21.578125 24.515625 
Q 13.234375 26.265625 9.515625 29.90625 
Q 5.8125 33.546875 5.8125 39.890625 
Q 5.8125 47.609375 11.28125 51.796875 
Q 16.75 56 26.8125 56 
Q 31.78125 56 36.171875 55.265625 
Q 40.578125 54.546875 44.28125 53.078125 
z
" id="DejaVuSans-115"/>
      </defs>
      <use xlink:href="#DejaVuSans-68"/>
      <use x="77.001953" xlink:href="#DejaVuSans-97"/>
      <use x="138.28125" xlink:href="#DejaVuSans-121"/>
      <use x="197.460938" xlink:href="#DejaVuSans-115"/>
     </g>
    </g>
   </g>
   <g id="matplotlib.axis_2">
    <g id="ytick_1">
     <g id="line2d_13">
      <path clip-path="url(#p4bd380a1d6)" d="M 90 610.428195 
L 648 610.428195 
" style="fill:none;stroke:#b0b0b0;stroke-linecap:square;stroke-width:0.8;"/>
     </g>
     <g id="line2d_14">
      <defs>
       <path d="M 0 0 
L -3.5 0 
" id="m2246e66ea0" style="stroke:#000000;stroke-width:0.8;"/>
      </defs>
      <g>
       <use style="stroke:#000000;stroke-width:0.8;" x="90" xlink:href="#m2246e66ea0" y="610.428195"/>
      </g>
     </g>
     <g id="text_8">
      <!-- 0 -->
      <g transform="translate(76.6375 614.227414)scale(0.1 -0.1)">
       <use xlink:href="#DejaVuSans-48"/>
      </g>
     </g>
    </g>
    <g id="ytick_2">
     <g id="line2d_15">
      <path clip-path="url(#p4bd380a1d6)" d="M 90 542.832326 
L 648 542.832326 
" style="fill:none;stroke:#b0b0b0;stroke-linecap:square;stroke-width:0.8;"/>
     </g>
     <g id="line2d_16">
      <g>
       <use style="stroke:#000000;stroke-width:0.8;" x="90" xlink:href="#m2246e66ea0" y="542.832326"/>
      </g>
     </g>
     <g id="text_9">
      <!-- 250 -->
      <g transform="translate(63.9125 546.631545)scale(0.1 -0.1)">
       <defs>
        <path d="M 10.796875 72.90625 
L 49.515625 72.90625 
L 49.515625 64.59375 
L 19.828125 64.59375 
L 19.828125 46.734375 
Q 21.96875 47.46875 24.109375 47.828125 
Q 26.265625 48.1875 28.421875 48.1875 
Q 40.625 48.1875 47.75 41.5 
Q 54.890625 34.8125 54.890625 23.390625 
Q 54.890625 11.625 47.5625 5.09375 
Q 40.234375 -1.421875 26.90625 -1.421875 
Q 22.3125 -1.421875 17.546875 -0.640625 
Q 12.796875 0.140625 7.71875 1.703125 
L 7.71875 11.625 
Q 12.109375 9.234375 16.796875 8.0625 
Q 21.484375 6.890625 26.703125 6.890625 
Q 35.15625 6.890625 40.078125 11.328125 
Q 45.015625 15.765625 45.015625 23.390625 
Q 45.015625 31 40.078125 35.4375 
Q 35.15625 39.890625 26.703125 39.890625 
Q 22.75 39.890625 18.8125 39.015625 
Q 14.890625 38.140625 10.796875 36.28125 
z
" id="DejaVuSans-53"/>
       </defs>
       <use xlink:href="#DejaVuSans-50"/>
       <use x="63.623047" xlink:href="#DejaVuSans-53"/>
       <use x="127.246094" xlink:href="#DejaVuSans-48"/>
      </g>
     </g>
    </g>
    <g id="ytick_3">
     <g id="line2d_17">
      <path clip-path="url(#p4bd380a1d6)" d="M 90 475.236457 
L 648 475.236457 
" style="fill:none;stroke:#b0b0b0;stroke-linecap:square;stroke-width:0.8;"/>
     </g>
     <g id="line2d_18">
      <g>
       <use style="stroke:#000000;stroke-width:0.8;" x="90" xlink:href="#m2246e66ea0" y="475.236457"/>
      </g>
     </g>
     <g id="text_10">
      <!-- 500 -->
      <g transform="translate(63.9125 479.035676)scale(0.1 -0.1)">
       <use xlink:href="#DejaVuSans-53"/>
       <use x="63.623047" xlink:href="#DejaVuSans-48"/>
       <use x="127.246094" xlink:href="#DejaVuSans-48"/>
      </g>
     </g>
    </g>
    <g id="ytick_4">
     <g id="line2d_19">
      <path clip-path="url(#p4bd380a1d6)" d="M 90 407.640589 
L 648 407.640589 
" style="fill:none;stroke:#b0b0b0;stroke-linecap:square;stroke-width:0.8;"/>
     </g>
     <g id="line2d_20">
      <g>
       <use style="stroke:#000000;stroke-width:0.8;" x="90" xlink:href="#m2246e66ea0" y="407.640589"/>
      </g>
     </g>
     <g id="text_11">
      <!-- 750 -->
      <g transform="translate(63.9125 411.439807)scale(0.1 -0.1)">
       <defs>
        <path d="M 8.203125 72.90625 
L 55.078125 72.90625 
L 55.078125 68.703125 
L 28.609375 0 
L 18.3125 0 
L 43.21875 64.59375 
L 8.203125 64.59375 
z
" id="DejaVuSans-55"/>
       </defs>
       <use xlink:href="#DejaVuSans-55"/>
       <use x="63.623047" xlink:href="#DejaVuSans-53"/>
       <use x="127.246094" xlink:href="#DejaVuSans-48"/>
      </g>
     </g>
    </g>
    <g id="ytick_5">
     <g id="line2d_21">
      <path clip-path="url(#p4bd380a1d6)" d="M 90 340.04472 
L 648 340.04472 
" style="fill:none;stroke:#b0b0b0;stroke-linecap:square;stroke-width:0.8;"/>
     </g>
     <g id="line2d_22">
      <g>
       <use style="stroke:#000000;stroke-width:0.8;" x="90" xlink:href="#m2246e66ea0" y="340.04472"/>
      </g>
     </g>
     <g id="text_12">
      <!-- 1000 -->
      <g transform="translate(57.55 343.843939)scale(0.1 -0.1)">
       <use xlink:href="#DejaVuSans-49"/>
       <use x="63.623047" xlink:href="#DejaVuSans-48"/>
       <use x="127.246094" xlink:href="#DejaVuSans-48"/>
       <use x="190.869141" xlink:href="#DejaVuSans-48"/>
      </g>
     </g>
    </g>
    <g id="ytick_6">
     <g id="line2d_23">
      <path clip-path="url(#p4bd380a1d6)" d="M 90 272.448851 
L 648 272.448851 
" style="fill:none;stroke:#b0b0b0;stroke-linecap:square;stroke-width:0.8;"/>
     </g>
     <g id="line2d_24">
      <g>
       <use style="stroke:#000000;stroke-width:0.8;" x="90" xlink:href="#m2246e66ea0" y="272.448851"/>
      </g>
     </g>
     <g id="text_13">
      <!-- 1250 -->
      <g transform="translate(57.55 276.24807)scale(0.1 -0.1)">
       <use xlink:href="#DejaVuSans-49"/>
       <use x="63.623047" xlink:href="#DejaVuSans-50"/>
       <use x="127.246094" xlink:href="#DejaVuSans-53"/>
       <use x="190.869141" xlink:href="#DejaVuSans-48"/>
      </g>
     </g>
    </g>
    <g id="ytick_7">
     <g id="line2d_25">
      <path clip-path="url(#p4bd380a1d6)" d="M 90 204.852982 
L 648 204.852982 
" style="fill:none;stroke:#b0b0b0;stroke-linecap:square;stroke-width:0.8;"/>
     </g>
     <g id="line2d_26">
      <g>
       <use style="stroke:#000000;stroke-width:0.8;" x="90" xlink:href="#m2246e66ea0" y="204.852982"/>
      </g>
     </g>
     <g id="text_14">
      <!-- 1500 -->
      <g transform="translate(57.55 208.652201)scale(0.1 -0.1)">
       <use xlink:href="#DejaVuSans-49"/>
       <use x="63.623047" xlink:href="#DejaVuSans-53"/>
       <use x="127.246094" xlink:href="#DejaVuSans-48"/>
       <use x="190.869141" xlink:href="#DejaVuSans-48"/>
      </g>
     </g>
    </g>
    <g id="ytick_8">
     <g id="line2d_27">
      <path clip-path="url(#p4bd380a1d6)" d="M 90 137.257113 
L 648 137.257113 
" style="fill:none;stroke:#b0b0b0;stroke-linecap:square;stroke-width:0.8;"/>
     </g>
     <g id="line2d_28">
      <g>
       <use style="stroke:#000000;stroke-width:0.8;" x="90" xlink:href="#m2246e66ea0" y="137.257113"/>
      </g>
     </g>
     <g id="text_15">
      <!-- 1750 -->
      <g transform="translate(57.55 141.056332)scale(0.1 -0.1)">
       <use xlink:href="#DejaVuSans-49"/>
       <use x="63.623047" xlink:href="#DejaVuSans-55"/>
       <use x="127.246094" xlink:href="#DejaVuSans-53"/>
       <use x="190.869141" xlink:href="#DejaVuSans-48"/>
      </g>
     </g>
    </g>
    <g id="text_16">
     <!-- Cumulative cases -->
     <g transform="translate(51.470312 402.425781)rotate(-90)scale(0.1 -0.1)">
      <defs>
       <path d="M 64.40625 67.28125 
L 64.40625 56.890625 
Q 59.421875 61.53125 53.78125 63.8125 
Q 48.140625 66.109375 41.796875 66.109375 
Q 29.296875 66.109375 22.65625 58.46875 
Q 16.015625 50.828125 16.015625 36.375 
Q 16.015625 21.96875 22.65625 14.328125 
Q 29.296875 6.6875 41.796875 6.6875 
Q 48.140625 6.6875 53.78125 8.984375 
Q 59.421875 11.28125 64.40625 15.921875 
L 64.40625 5.609375 
Q 59.234375 2.09375 53.4375 0.328125 
Q 47.65625 -1.421875 41.21875 -1.421875 
Q 24.65625 -1.421875 15.125 8.703125 
Q 5.609375 18.84375 5.609375 36.375 
Q 5.609375 53.953125 15.125 64.078125 
Q 24.65625 74.21875 41.21875 74.21875 
Q 47.75 74.21875 53.53125 72.484375 
Q 59.328125 70.75 64.40625 67.28125 
z
" id="DejaVuSans-67"/>
       <path d="M 8.5 21.578125 
L 8.5 54.6875 
L 17.484375 54.6875 
L 17.484375 21.921875 
Q 17.484375 14.15625 20.5 10.265625 
Q 23.53125 6.390625 29.59375 6.390625 
Q 36.859375 6.390625 41.078125 11.03125 
Q 45.3125 15.671875 45.3125 23.6875 
L 45.3125 54.6875 
L 54.296875 54.6875 
L 54.296875 0 
L 45.3125 0 
L 45.3125 8.40625 
Q 42.046875 3.421875 37.71875 1 
Q 33.40625 -1.421875 27.6875 -1.421875 
Q 18.265625 -1.421875 13.375 4.4375 
Q 8.5 10.296875 8.5 21.578125 
z
M 31.109375 56 
z
" id="DejaVuSans-117"/>
       <path d="M 52 44.1875 
Q 55.375 50.25 60.0625 53.125 
Q 64.75 56 71.09375 56 
Q 79.640625 56 84.28125 50.015625 
Q 88.921875 44.046875 88.921875 33.015625 
L 88.921875 0 
L 79.890625 0 
L 79.890625 32.71875 
Q 79.890625 40.578125 77.09375 44.375 
Q 74.3125 48.1875 68.609375 48.1875 
Q 61.625 48.1875 57.5625 43.546875 
Q 53.515625 38.921875 53.515625 30.90625 
L 53.515625 0 
L 44.484375 0 
L 44.484375 32.71875 
Q 44.484375 40.625 41.703125 44.40625 
Q 38.921875 48.1875 33.109375 48.1875 
Q 26.21875 48.1875 22.15625 43.53125 
Q 18.109375 38.875 18.109375 30.90625 
L 18.109375 0 
L 9.078125 0 
L 9.078125 54.6875 
L 18.109375 54.6875 
L 18.109375 46.1875 
Q 21.1875 51.21875 25.484375 53.609375 
Q 29.78125 56 35.6875 56 
Q 41.65625 56 45.828125 52.96875 
Q 50 49.953125 52 44.1875 
z
" id="DejaVuSans-109"/>
       <path d="M 9.421875 75.984375 
L 18.40625 75.984375 
L 18.40625 0 
L 9.421875 0 
z
" id="DejaVuSans-108"/>
       <path d="M 18.3125 70.21875 
L 18.3125 54.6875 
L 36.8125 54.6875 
L 36.8125 47.703125 
L 18.3125 47.703125 
L 18.3125 18.015625 
Q 18.3125 11.328125 20.140625 9.421875 
Q 21.96875 7.515625 27.59375 7.515625 
L 36.8125 7.515625 
L 36.8125 0 
L 27.59375 0 
Q 17.1875 0 13.234375 3.875 
Q 9.28125 7.765625 9.28125 18.015625 
L 9.28125 47.703125 
L 2.6875 47.703125 
L 2.6875 54.6875 
L 9.28125 54.6875 
L 9.28125 70.21875 
z
" id="DejaVuSans-116"/>
       <path d="M 9.421875 54.6875 
L 18.40625 54.6875 
L 18.40625 0 
L 9.421875 0 
z
M 9.421875 75.984375 
L 18.40625 75.984375 
L 18.40625 64.59375 
L 9.421875 64.59375 
z
" id="DejaVuSans-105"/>
       <path d="M 2.984375 54.6875 
L 12.5 54.6875 
L 29.59375 8.796875 
L 46.6875 54.6875 
L 56.203125 54.6875 
L 35.6875 0 
L 23.484375 0 
z
" id="DejaVuSans-118"/>
       <path d="M 56.203125 29.59375 
L 56.203125 25.203125 
L 14.890625 25.203125 
Q 15.484375 15.921875 20.484375 11.0625 
Q 25.484375 6.203125 34.421875 6.203125 
Q 39.59375 6.203125 44.453125 7.46875 
Q 49.3125 8.734375 54.109375 11.28125 
L 54.109375 2.78125 
Q 49.265625 0.734375 44.1875 -0.34375 
Q 39.109375 -1.421875 33.890625 -1.421875 
Q 20.796875 -1.421875 13.15625 6.1875 
Q 5.515625 13.8125 5.515625 26.8125 
Q 5.515625 40.234375 12.765625 48.109375 
Q 20.015625 56 32.328125 56 
Q 43.359375 56 49.78125 48.890625 
Q 56.203125 41.796875 56.203125 29.59375 
z
M 47.21875 32.234375 
Q 47.125 39.59375 43.09375 43.984375 
Q 39.0625 48.390625 32.421875 48.390625 
Q 24.90625 48.390625 20.390625 44.140625 
Q 15.875 39.890625 15.1875 32.171875 
z
" id="DejaVuSans-101"/>
       <path id="DejaVuSans-32"/>
       <path d="M 48.78125 52.59375 
L 48.78125 44.1875 
Q 44.96875 46.296875 41.140625 47.34375 
Q 37.3125 48.390625 33.40625 48.390625 
Q 24.65625 48.390625 19.8125 42.84375 
Q 14.984375 37.3125 14.984375 27.296875 
Q 14.984375 17.28125 19.8125 11.734375 
Q 24.65625 6.203125 33.40625 6.203125 
Q 37.3125 6.203125 41.140625 7.25 
Q 44.96875 8.296875 48.78125 10.40625 
L 48.78125 2.09375 
Q 45.015625 0.34375 40.984375 -0.53125 
Q 36.96875 -1.421875 32.421875 -1.421875 
Q 20.0625 -1.421875 12.78125 6.34375 
Q 5.515625 14.109375 5.515625 27.296875 
Q 5.515625 40.671875 12.859375 48.328125 
Q 20.21875 56 33.015625 56 
Q 37.15625 56 41.109375 55.140625 
Q 45.0625 54.296875 48.78125 52.59375 
z
" id="DejaVuSans-99"/>
      </defs>
      <use xlink:href="#DejaVuSans-67"/>
      <use x="69.824219" xlink:href="#DejaVuSans-117"/>
      <use x="133.203125" xlink:href="#DejaVuSans-109"/>
      <use x="230.615234" xlink:href="#DejaVuSans-117"/>
      <use x="293.994141" xlink:href="#DejaVuSans-108"/>
      <use x="321.777344" xlink:href="#DejaVuSans-97"/>
      <use x="383.056641" xlink:href="#DejaVuSans-116"/>
      <use x="422.265625" xlink:href="#DejaVuSans-105"/>
      <use x="450.048828" xlink:href="#DejaVuSans-118"/>
      <use x="509.228516" xlink:href="#DejaVuSans-101"/>
      <use x="570.751953" xlink:href="#DejaVuSans-32"/>
      <use x="602.539062" xlink:href="#DejaVuSans-99"/>
      <use x="657.519531" xlink:href="#DejaVuSans-97"/>
      <use x="718.798828" xlink:href="#DejaVuSans-115"/>
      <use x="770.898438" xlink:href="#DejaVuSans-101"/>
      <use x="832.421875" xlink:href="#DejaVuSans-115"/>
     </g>
    </g>
   </g>
   <g id="line2d_29">
    <path clip-path="url(#p4bd380a1d6)" d="M 115.363636 605.290909 
L 120.194805 604.331021 
L 125.025974 603.194693 
L 129.857143 601.850677 
L 134.688312 600.262665 
L 139.519481 598.388665 
L 144.350649 596.180377 
L 149.181818 593.582609 
L 154.012987 590.532802 
L 158.844156 586.960728 
L 163.675325 582.788488 
L 168.506494 577.930934 
L 173.337662 572.296684 
L 178.168831 565.789926 
L 183 558.313204 
L 187.831169 549.771362 
L 192.662338 540.076767 
L 197.493506 529.155806 
L 202.324675 516.956473 
L 207.155844 503.456608 
L 211.987013 488.672064 
L 216.818182 472.663793 
L 221.649351 455.542667 
L 226.480519 437.470831 
L 231.311688 418.658658 
L 236.142857 399.356894 
L 240.974026 379.844336 
L 245.805195 360.412192 
L 250.636364 341.34691 
L 255.467532 322.913605 
L 260.298701 305.342053 
L 265.12987 288.816742 
L 269.961039 273.47167 
L 274.792208 259.389813 
L 279.623377 246.606526 
L 284.454545 235.115764 
L 289.285714 224.877905 
L 294.116883 215.828055 
L 298.948052 207.884008 
L 303.779221 200.953265 
L 308.61039 194.93884 
L 313.441558 189.743774 
L 318.272727 185.274417 
L 323.103896 181.442648 
L 327.935065 178.167227 
L 332.766234 175.374456 
L 337.597403 172.998351 
L 342.428571 170.98046 
L 347.25974 169.269451 
L 352.090909 167.820573 
L 356.922078 166.595041 
L 361.753247 165.559409 
L 366.584416 164.684952 
L 371.415584 163.947086 
L 376.246753 163.324831 
L 381.077922 162.800325 
L 385.909091 162.358392 
L 390.74026 161.986161 
L 395.571429 161.672727 
L 400.402597 161.408868 
L 405.233766 161.186788 
L 410.064935 160.999904 
L 414.896104 160.84266 
L 419.727273 160.710372 
L 424.558442 160.59909 
L 429.38961 160.505487 
L 434.220779 160.42676 
L 439.051948 160.360548 
L 443.883117 160.304866 
L 448.714286 160.25804 
L 453.545455 160.218664 
L 458.376623 160.185553 
L 463.207792 160.157711 
L 468.038961 160.1343 
L 472.87013 160.114615 
L 477.701299 160.098064 
L 482.532468 160.084148 
L 487.363636 160.072447 
L 492.194805 160.062609 
L 497.025974 160.054337 
L 501.857143 160.047382 
L 506.688312 160.041535 
L 511.519481 160.036619 
L 516.350649 160.032485 
L 521.181818 160.02901 
L 526.012987 160.026088 
L 530.844156 160.023632 
L 535.675325 160.021566 
L 540.506494 160.01983 
L 545.337662 160.01837 
L 550.168831 160.017142 
L 555 160.01611 
L 559.831169 160.015243 
L 564.662338 160.014513 
L 569.493506 160.0139 
L 574.324675 160.013384 
L 579.155844 160.012951 
L 583.987013 160.012586 
L 588.818182 160.01228 
L 593.649351 160.012022 
L 598.480519 160.011805 
L 603.311688 160.011623 
L 608.142857 160.01147 
L 612.974026 160.011341 
L 617.805195 160.011233 
L 622.636364 160.011142 
" style="fill:none;stroke:#1f77b4;stroke-linecap:square;stroke-width:1.5;"/>
   </g>
   <g id="line2d_30">
    <path clip-path="url(#p4bd380a1d6)" d="M 115.363636 605.290909 
L 120.194805 595.384828 
L 125.025974 585.465307 
L 129.857143 575.541141 
L 134.688312 565.621138 
L 139.519481 555.714095 
L 144.350649 545.828761 
L 149.181818 535.973807 
L 154.012987 526.1578 
L 158.844156 516.389168 
L 163.675325 506.676176 
L 168.506494 497.026897 
L 173.337662 487.449184 
L 178.168831 477.95065 
L 183 468.538642 
L 187.831169 459.220224 
L 192.662338 450.002152 
L 197.493506 440.890865 
L 202.324675 431.892463 
L 207.155844 423.012701 
L 211.987013 414.256974 
L 216.818182 405.63031 
L 221.649351 397.137364 
L 226.480519 388.782416 
L 231.311688 380.569365 
L 236.142857 372.501732 
L 240.974026 364.582661 
L 245.805195 356.814923 
L 250.636364 349.200919 
L 255.467532 341.74269 
L 260.298701 334.441924 
L 265.12987 327.299961 
L 269.961039 320.317813 
L 274.792208 313.496166 
L 279.623377 306.835397 
L 284.454545 300.335589 
L 289.285714 293.996538 
L 294.116883 287.817776 
L 298.948052 281.798578 
L 303.779221 275.937981 
L 308.61039 270.234798 
L 313.441558 264.687633 
L 318.272727 259.294894 
L 323.103896 254.054813 
L 327.935065 248.965455 
L 332.766234 244.024736 
L 337.597403 239.230434 
L 342.428571 234.580207 
L 347.25974 230.071601 
L 352.090909 225.702066 
L 356.922078 221.46897 
L 361.753247 217.369603 
L 366.584416 213.401199 
L 371.415584 209.560937 
L 376.246753 205.845956 
L 381.077922 202.253365 
L 385.909091 198.780247 
L 390.74026 195.423673 
L 395.571429 192.180707 
L 400.402597 189.048413 
L 405.233766 186.023861 
L 410.064935 183.104137 
L 414.896104 180.286344 
L 419.727273 177.567608 
L 424.558442 174.945085 
L 429.38961 172.415965 
L 434.220779 169.977473 
L 439.051948 167.626874 
L 443.883117 165.361477 
L 448.714286 163.178637 
L 453.545455 161.075755 
L 458.376623 159.050284 
L 463.207792 157.099728 
L 468.038961 155.221644 
L 472.87013 153.413644 
L 477.701299 151.673393 
L 482.532468 149.998613 
L 487.363636 148.387084 
L 492.194805 146.836641 
L 497.025974 145.345174 
L 501.857143 143.910631 
L 506.688312 142.531018 
L 511.519481 141.204395 
L 516.350649 139.928878 
L 521.181818 138.702638 
L 526.012987 137.523901 
L 530.844156 136.390947 
L 535.675325 135.302106 
L 540.506494 134.255765 
L 545.337662 133.250358 
L 550.168831 132.28437 
L 555 131.356337 
L 559.831169 130.464841 
L 564.662338 129.608512 
L 569.493506 128.786025 
L 574.324675 127.996102 
L 579.155844 127.237507 
L 583.987013 126.509047 
L 588.818182 125.809571 
L 593.649351 125.137966 
L 598.480519 124.493162 
L 603.311688 123.874125 
L 608.142857 123.279858 
L 612.974026 122.7094 
L 617.805195 122.161825 
L 622.636364 121.636241 
" style="fill:none;stroke:#ff7f0e;stroke-linecap:square;stroke-width:1.5;"/>
   </g>
   <g id="line2d_31">
    <path clip-path="url(#p4bd380a1d6)" d="M 115.363636 605.290909 
L 120.194805 602.799282 
L 125.025974 599.993044 
L 129.857143 596.838244 
L 134.688312 593.298854 
L 139.519481 589.337097 
L 144.350649 584.913925 
L 149.181818 579.989666 
L 154.012987 574.524882 
L 158.844156 568.481428 
L 163.675325 561.823738 
L 168.506494 554.520306 
L 173.337662 546.545355 
L 178.168831 537.880611 
L 183 528.517121 
L 187.831169 518.456991 
L 192.662338 507.714919 
L 197.493506 496.319375 
L 202.324675 484.313282 
L 207.155844 471.754073 
L 211.987013 458.713042 
L 216.818182 445.273945 
L 221.649351 431.530891 
L 226.480519 417.585625 
L 231.311688 403.544379 
L 236.142857 389.51449 
L 240.974026 375.601022 
L 245.805195 361.903632 
L 250.636364 348.513854 
L 255.467532 335.512954 
L 260.298701 322.970438 
L 265.12987 310.943214 
L 269.961039 299.475387 
L 274.792208 288.598583 
L 279.623377 278.332724 
L 284.454545 268.687104 
L 289.285714 259.661676 
L 294.116883 251.24843 
L 298.948052 243.432793 
L 303.779221 236.194962 
L 308.61039 229.511152 
L 313.441558 223.354702 
L 318.272727 217.697052 
L 323.103896 212.508558 
L 327.935065 207.75918 
L 332.766234 203.419029 
L 337.597403 199.458804 
L 342.428571 195.850116 
L 347.25974 192.565737 
L 352.090909 189.579761 
L 356.922078 186.867716 
L 361.753247 184.406616 
L 366.584416 182.174986 
L 371.415584 180.152848 
L 376.246753 178.321686 
L 381.077922 176.664399 
L 385.909091 175.165234 
L 390.74026 173.809719 
L 395.571429 172.584589 
L 400.402597 171.477705 
L 405.233766 170.477985 
L 410.064935 169.575317 
L 414.896104 168.760496 
L 419.727273 168.025148 
L 424.558442 167.361662 
L 429.38961 166.763132 
L 434.220779 166.22329 
L 439.051948 165.736458 
L 443.883117 165.297491 
L 448.714286 164.901734 
L 453.545455 164.544973 
L 458.376623 164.223398 
L 463.207792 163.933565 
L 468.038961 163.672363 
L 472.87013 163.43698 
L 477.701299 163.22488 
L 482.532468 163.033769 
L 487.363636 162.86158 
L 492.194805 162.706448 
L 497.025974 162.566689 
L 501.857143 162.440784 
L 506.688312 162.327364 
L 511.519481 162.225194 
L 516.350649 162.133161 
L 521.181818 162.050261 
L 526.012987 161.97559 
L 530.844156 161.908333 
L 535.675325 161.847753 
L 540.506494 161.79319 
L 545.337662 161.744047 
L 550.168831 161.699785 
L 555 161.659921 
L 559.831169 161.624017 
L 564.662338 161.591681 
L 569.493506 161.562559 
L 574.324675 161.536331 
L 579.155844 161.512709 
L 583.987013 161.491436 
L 588.818182 161.472277 
L 593.649351 161.455023 
L 598.480519 161.439484 
L 603.311688 161.425489 
L 608.142857 161.412886 
L 612.974026 161.401536 
L 617.805195 161.391315 
L 622.636364 161.382109 
" style="fill:none;stroke:#2ca02c;stroke-linecap:square;stroke-width:1.5;"/>
   </g>
   <g id="line2d_32">
    <path clip-path="url(#p4bd380a1d6)" d="M 115.363636 605.290909 
L 120.194805 600.681612 
L 125.025974 595.294893 
L 129.857143 589.144174 
L 134.688312 582.25061 
L 139.519481 574.643464 
L 144.350649 566.360229 
L 149.181818 557.446487 
L 154.012987 547.955455 
L 158.844156 537.947246 
L 163.675325 527.487835 
L 168.506494 516.647804 
L 173.337662 505.500877 
L 178.168831 494.122364 
L 183 482.587545 
L 187.831169 470.970107 
L 192.662338 459.340694 
L 197.493506 447.76562 
L 202.324675 436.305825 
L 207.155844 425.016059 
L 211.987013 413.944347 
L 216.818182 403.131704 
L 221.649351 392.612081 
L 226.480519 382.412529 
L 231.311688 372.553529 
L 236.142857 363.049452 
L 240.974026 353.909116 
L 245.805195 345.1364 
L 250.636364 336.730879 
L 255.467532 328.688464 
L 260.298701 321.002019 
L 265.12987 313.661936 
L 269.961039 306.656669 
L 274.792208 299.973211 
L 279.623377 293.597517 
L 284.454545 287.514865 
L 289.285714 281.710173 
L 294.116883 276.168253 
L 298.948052 270.874025 
L 303.779221 265.812691 
L 308.61039 260.969868 
L 313.441558 256.331688 
L 318.272727 251.884875 
L 323.103896 247.616792 
L 327.935065 243.515479 
L 332.766234 239.569661 
L 337.597403 235.768756 
L 342.428571 232.102866 
L 347.25974 228.562761 
L 352.090909 225.139855 
L 356.922078 221.826183 
L 361.753247 218.614372 
L 366.584416 215.497604 
L 371.415584 212.46959 
L 376.246753 209.524534 
L 381.077922 206.6571 
L 385.909091 203.862381 
L 390.74026 201.135868 
L 395.571429 198.473417 
L 400.402597 195.871226 
L 405.233766 193.325802 
L 410.064935 190.83394 
L 414.896104 188.392699 
L 419.727273 185.999375 
L 424.558442 183.651486 
L 429.38961 181.34675 
L 434.220779 179.083068 
L 439.051948 176.858509 
L 443.883117 174.67129 
L 448.714286 172.51977 
L 453.545455 170.402433 
L 458.376623 168.317874 
L 463.207792 166.264796 
L 468.038961 164.241994 
L 472.87013 162.248349 
L 477.701299 160.282821 
L 482.532468 158.344439 
L 487.363636 156.432299 
L 492.194805 154.545555 
L 497.025974 152.683413 
L 501.857143 150.845131 
L 506.688312 149.030008 
L 511.519481 147.237386 
L 516.350649 145.466644 
L 521.181818 143.717196 
L 526.012987 141.988485 
L 530.844156 140.279986 
L 535.675325 138.591197 
L 540.506494 136.921643 
L 545.337662 135.27087 
L 550.168831 133.638446 
L 555 132.023959 
L 559.831169 130.427012 
L 564.662338 128.847227 
L 569.493506 127.284242 
L 574.324675 125.737706 
L 579.155844 124.207286 
L 583.987013 122.692659 
L 588.818182 121.193514 
L 593.649351 119.709552 
L 598.480519 118.240483 
L 603.311688 116.786029 
L 608.142857 115.345919 
L 612.974026 113.919894 
L 617.805195 112.507699 
L 622.636364 111.109091 
" style="fill:none;stroke:#d62728;stroke-linecap:square;stroke-width:1.5;"/>
   </g>
   <g id="line2d_33">
    <path clip-path="url(#p4bd380a1d6)" d="M 115.363636 605.290909 
L 120.194805 604.88159 
L 125.025974 603.799721 
L 129.857143 602.146834 
L 134.688312 599.924654 
L 139.519481 597.075916 
L 144.350649 593.505848 
L 149.181818 589.095303 
L 154.012987 583.711404 
L 158.844156 577.218932 
L 163.675325 569.494099 
L 168.506494 560.440821 
L 173.337662 550.008089 
L 178.168831 538.205496 
L 183 525.113106 
L 187.831169 510.882193 
L 192.662338 495.725298 
L 197.493506 479.896976 
L 202.324675 463.669348 
L 207.155844 447.307791 
L 211.987013 431.051378 
L 216.818182 415.100585 
L 221.649351 399.612388 
L 226.480519 384.70127 
L 231.311688 370.443971 
L 236.142857 356.885957 
L 240.974026 344.048164 
L 245.805195 331.933134 
L 250.636364 320.530163 
L 255.467532 309.8194 
L 260.298701 299.77497 
L 265.12987 290.367297 
L 269.961039 281.564787 
L 274.792208 273.335019 
L 279.623377 265.645589 
L 284.454545 258.464667 
L 289.285714 251.761386 
L 294.116883 245.506075 
L 298.948052 239.670406 
L 303.779221 234.227468 
L 308.61039 229.151796 
L 313.441558 224.419361 
L 318.272727 220.007545 
L 323.103896 215.895096 
L 327.935065 212.062072 
L 332.766234 208.489786 
L 337.597403 205.160742 
L 342.428571 202.05857 
L 347.25974 199.167966 
L 352.090909 196.47463 
L 356.922078 193.965205 
L 361.753247 191.627218 
L 366.584416 189.449029 
L 371.415584 187.419774 
L 376.246753 185.529318 
L 381.077922 183.768209 
L 385.909091 182.12763 
L 390.74026 180.599361 
L 395.571429 179.175737 
L 400.402597 177.849612 
L 405.233766 176.614327 
L 410.064935 175.463673 
L 414.896104 174.391863 
L 419.727273 173.393506 
L 424.558442 172.463576 
L 429.38961 171.597391 
L 434.220779 170.790587 
L 439.051948 170.039099 
L 443.883117 169.339138 
L 448.714286 168.687176 
L 453.545455 168.079925 
L 458.376623 167.514321 
L 463.207792 166.98751 
L 468.038961 166.496834 
L 472.87013 166.039815 
L 477.701299 165.614148 
L 482.532468 165.217681 
L 487.363636 164.848414 
L 492.194805 164.504482 
L 497.025974 164.184146 
L 501.857143 163.885789 
L 506.688312 163.607904 
L 511.519481 163.349086 
L 516.350649 163.108027 
L 521.181818 162.883509 
L 526.012987 162.674398 
L 530.844156 162.479637 
L 535.675325 162.298241 
L 540.506494 162.129293 
L 545.337662 161.971939 
L 550.168831 161.825384 
L 555 161.688887 
L 559.831169 161.561758 
L 564.662338 161.443353 
L 569.493506 161.333074 
L 574.324675 161.230364 
L 579.155844 161.134703 
L 583.987013 161.045608 
L 588.818182 160.962628 
L 593.649351 160.885342 
L 598.480519 160.813361 
L 603.311688 160.746321 
L 608.142857 160.683882 
L 612.974026 160.625728 
L 617.805195 160.571566 
L 622.636364 160.521121 
" style="fill:none;stroke:#9467bd;stroke-linecap:square;stroke-width:1.5;"/>
   </g>
   <g id="line2d_34">
    <path clip-path="url(#p4bd380a1d6)" d="M 115.363636 605.290909 
L 120.194805 603.97535 
L 125.025974 600.438263 
L 129.857143 595.138079 
L 134.688312 588.395823 
L 139.519481 580.452293 
L 144.350649 571.501159 
L 149.181818 561.707806 
L 154.012987 551.219714 
L 158.844156 540.171886 
L 163.675325 528.689399 
L 168.506494 516.888364 
L 173.337662 504.876049 
L 178.168831 492.750635 
L 183 480.60089 
L 187.831169 468.505899 
L 192.662338 456.534957 
L 197.493506 444.747642 
L 202.324675 433.19407 
L 207.155844 421.915325 
L 211.987013 410.944027 
L 216.818182 400.305005 
L 221.649351 390.01604 
L 226.480519 380.088655 
L 231.311688 370.528901 
L 236.142857 361.338144 
L 240.974026 352.513805 
L 245.805195 344.050058 
L 250.636364 335.938472 
L 255.467532 328.168581 
L 260.298701 320.728393 
L 265.12987 313.604836 
L 269.961039 306.784133 
L 274.792208 300.252123 
L 279.623377 293.994521 
L 284.454545 287.997136 
L 289.285714 282.24604 
L 294.116883 276.727694 
L 298.948052 271.429055 
L 303.779221 266.337636 
L 308.61039 261.441559 
L 313.441558 256.729578 
L 318.272727 252.191093 
L 323.103896 247.816144 
L 327.935065 243.595404 
L 332.766234 239.520158 
L 337.597403 235.582279 
L 342.428571 231.774201 
L 347.25974 228.088887 
L 352.090909 224.519802 
L 356.922078 221.060873 
L 361.753247 217.706467 
L 366.584416 214.45135 
L 371.415584 211.290665 
L 376.246753 208.219899 
L 381.077922 205.234858 
L 385.909091 202.331638 
L 390.74026 199.506607 
L 395.571429 196.756379 
L 400.402597 194.077794 
L 405.233766 191.467898 
L 410.064935 188.92393 
L 414.896104 186.443303 
L 419.727273 184.023589 
L 424.558442 181.662507 
L 429.38961 179.357912 
L 434.220779 177.107782 
L 439.051948 174.910211 
L 443.883117 172.763395 
L 448.714286 170.665629 
L 453.545455 168.615298 
L 458.376623 166.610868 
L 463.207792 164.650884 
L 468.038961 162.73396 
L 472.87013 160.858777 
L 477.701299 159.024077 
L 482.532468 157.228661 
L 487.363636 155.471381 
L 492.194805 153.75114 
L 497.025974 152.066889 
L 501.857143 150.417621 
L 506.688312 148.802372 
L 511.519481 147.220214 
L 516.350649 145.670259 
L 521.181818 144.151651 
L 526.012987 142.663566 
L 530.844156 141.205214 
L 535.675325 139.77583 
L 540.506494 138.374678 
L 545.337662 137.001051 
L 550.168831 135.654261 
L 555 134.333649 
L 559.831169 133.038576 
L 564.662338 131.768424 
L 569.493506 130.522596 
L 574.324675 129.300514 
L 579.155844 128.10162 
L 583.987013 126.925371 
L 588.818182 125.771244 
L 593.649351 124.63873 
L 598.480519 123.527337 
L 603.311688 122.436586 
L 608.142857 121.366013 
L 612.974026 120.31517 
L 617.805195 119.283619 
L 622.636364 118.270935 
" style="fill:none;stroke:#8c564b;stroke-linecap:square;stroke-width:1.5;"/>
   </g>
   <g id="line2d_35">
    <path clip-path="url(#p4bd380a1d6)" d="M 115.363636 605.290909 
L 120.194805 604.884189 
L 125.025974 603.809223 
L 129.857143 602.167429 
L 134.688312 599.961381 
L 139.519481 597.135195 
L 144.350649 593.59579 
L 149.181818 589.225844 
L 154.012987 583.894205 
L 158.844156 577.466983 
L 163.675325 569.820911 
L 168.506494 560.859199 
L 173.337662 550.528558 
L 178.168831 538.834609 
L 183 525.851996 
L 187.831169 511.725766 
L 192.662338 496.662339 
L 197.493506 480.911207 
L 202.324675 464.741178 
L 207.155844 448.416339 
L 211.987013 432.176342 
L 216.818182 416.223634 
L 221.649351 400.717996 
L 226.480519 385.777023 
L 231.311688 371.480482 
L 236.142857 357.876552 
L 240.974026 344.988456 
L 245.805195 332.820578 
L 250.636364 321.363654 
L 255.467532 310.598916 
L 260.298701 300.501287 
L 265.12987 291.04176 
L 269.961039 282.189131 
L 274.792208 273.91124 
L 279.623377 266.175834 
L 284.454545 258.951166 
L 289.285714 252.206393 
L 294.116883 245.91183 
L 298.948052 240.039105 
L 303.779221 234.561246 
L 308.61039 229.452709 
L 313.441558 224.689383 
L 318.272727 220.248559 
L 323.103896 216.108892 
L 327.935065 212.250349 
L 332.766234 208.65415 
L 337.597403 205.302711 
L 342.428571 202.179574 
L 347.25974 199.269353 
L 352.090909 196.557666 
L 356.922078 194.031079 
L 361.753247 191.677047 
L 366.584416 189.48386 
L 371.415584 187.440589 
L 376.246753 185.537038 
L 381.077922 183.763695 
L 385.909091 182.11169 
L 390.74026 180.572748 
L 395.571429 179.139158 
L 400.402597 177.803728 
L 405.233766 176.559754 
L 410.064935 175.400989 
L 414.896104 174.321608 
L 419.727273 173.316183 
L 424.558442 172.379656 
L 429.38961 171.507314 
L 434.220779 170.694765 
L 439.051948 169.937914 
L 443.883117 169.23295 
L 448.714286 168.576319 
L 453.545455 167.964711 
L 458.376623 167.395042 
L 463.207792 166.864438 
L 468.038961 166.370223 
L 472.87013 165.909903 
L 477.701299 165.481155 
L 482.532468 165.081815 
L 487.363636 164.709867 
L 492.194805 164.363433 
L 497.025974 164.040764 
L 501.857143 163.740231 
L 506.688312 163.460315 
L 511.519481 163.199603 
L 516.350649 162.956777 
L 521.181818 162.730612 
L 526.012987 162.519964 
L 530.844156 162.323769 
L 535.675325 162.141035 
L 540.506494 161.97084 
L 545.337662 161.812322 
L 550.168831 161.664682 
L 555 161.527172 
L 559.831169 161.399098 
L 564.662338 161.279813 
L 569.493506 161.168713 
L 574.324675 161.065237 
L 579.155844 160.968861 
L 583.987013 160.879099 
L 588.818182 160.795497 
L 593.649351 160.717632 
L 598.480519 160.645111 
L 603.311688 160.577566 
L 608.142857 160.514656 
L 612.974026 160.456064 
L 617.805195 160.401492 
L 622.636364 160.350666 
" style="fill:none;stroke:#e377c2;stroke-linecap:square;stroke-width:1.5;"/>
   </g>
   <g id="line2d_36">
    <path clip-path="url(#p4bd380a1d6)" d="M 115.363636 605.290909 
L 120.194805 604.033684 
L 125.025974 600.610527 
L 129.857143 595.429828 
L 134.688312 588.794221 
L 139.519481 580.940347 
L 144.350649 572.063305 
L 149.181818 562.3314 
L 154.012987 551.894792 
L 158.844156 540.89033 
L 163.675325 529.444044 
L 168.506494 517.672267 
L 173.337662 505.681979 
L 178.168831 493.570793 
L 183 481.426801 
L 187.831169 469.328463 
L 192.662338 457.344592 
L 197.493506 445.534492 
L 202.324675 433.948245 
L 207.155844 422.627149 
L 211.987013 411.604269 
L 216.818182 400.905088 
L 221.649351 390.548212 
L 226.480519 380.54612 
L 231.311688 370.905912 
L 236.142857 361.630056 
L 240.974026 352.717088 
L 245.805195 344.162286 
L 250.636364 335.958275 
L 255.467532 328.095587 
L 260.298701 320.563148 
L 265.12987 313.348713 
L 269.961039 306.439234 
L 274.792208 299.821184 
L 279.623377 293.48081 
L 284.454545 287.404358 
L 289.285714 281.578246 
L 294.116883 275.989199 
L 298.948052 270.624358 
L 303.779221 265.471351 
L 308.61039 260.518357 
L 313.441558 255.754132 
L 318.272727 251.168031 
L 323.103896 246.750015 
L 327.935065 242.490644 
L 332.766234 238.381067 
L 337.597403 234.413002 
L 342.428571 230.578713 
L 347.25974 226.870985 
L 352.090909 223.283094 
L 356.922078 219.808783 
L 361.753247 216.442227 
L 366.584416 213.178008 
L 371.415584 210.011087 
L 376.246753 206.936772 
L 381.077922 203.950698 
L 385.909091 201.0488 
L 390.74026 198.227286 
L 395.571429 195.482624 
L 400.402597 192.811511 
L 405.233766 190.210863 
L 410.064935 187.677793 
L 414.896104 185.209598 
L 419.727273 182.80374 
L 424.558442 180.457837 
L 429.38961 178.169649 
L 434.220779 175.937064 
L 439.051948 173.758093 
L 443.883117 171.630856 
L 448.714286 169.553579 
L 453.545455 167.524576 
L 458.376623 165.542256 
L 463.207792 163.605103 
L 468.038961 161.711678 
L 472.87013 159.860615 
L 477.701299 158.050608 
L 482.532468 156.280414 
L 487.363636 154.548846 
L 492.194805 152.854771 
L 497.025974 151.197102 
L 501.857143 149.574802 
L 506.688312 147.986874 
L 511.519481 146.432364 
L 516.350649 144.910355 
L 521.181818 143.419967 
L 526.012987 141.960353 
L 530.844156 140.530698 
L 535.675325 139.130218 
L 540.506494 137.758159 
L 545.337662 136.413791 
L 550.168831 135.096413 
L 555 133.805346 
L 559.831169 132.539937 
L 564.662338 131.299552 
L 569.493506 130.083581 
L 574.324675 128.891433 
L 579.155844 127.722536 
L 583.987013 126.576336 
L 588.818182 125.452297 
L 593.649351 124.349901 
L 598.480519 123.268645 
L 603.311688 122.20804 
L 608.142857 121.167613 
L 612.974026 120.146907 
L 617.805195 119.145475 
L 622.636364 118.162885 
" style="fill:none;stroke:#7f7f7f;stroke-linecap:square;stroke-width:1.5;"/>
   </g>
   <g id="line2d_37">
    <path clip-path="url(#p4bd380a1d6)" d="M 115.363636 605.290909 
L 120.194805 604.444586 
L 125.025974 601.842942 
L 129.857143 597.455329 
L 134.688312 591.342453 
L 139.519481 583.650778 
L 144.350649 574.592085 
L 149.181818 564.414971 
L 154.012987 553.376423 
L 158.844156 541.71945 
L 163.675325 529.659117 
L 168.506494 517.376363 
L 173.337662 505.017516 
L 178.168831 492.697208 
L 183 480.502848 
L 187.831169 468.499452 
L 192.662338 456.734161 
L 197.493506 445.240139 
L 202.324675 434.039796 
L 207.155844 423.147348 
L 211.987013 412.570838 
L 216.818182 402.313678 
L 221.649351 392.375848 
L 226.480519 382.754789 
L 231.311688 373.446095 
L 236.142857 364.444027 
L 240.974026 355.741904 
L 245.805195 347.3324 
L 250.636364 339.207764 
L 255.467532 331.359989 
L 260.298701 323.780937 
L 265.12987 316.462434 
L 269.961039 309.396341 
L 274.792208 302.574604 
L 279.623377 295.989298 
L 284.454545 289.632647 
L 289.285714 283.497053 
L 294.116883 277.575103 
L 298.948052 271.859582 
L 303.779221 266.343475 
L 308.61039 261.019975 
L 313.441558 255.882478 
L 318.272727 250.924587 
L 323.103896 246.140104 
L 327.935065 241.523034 
L 332.766234 237.067575 
L 337.597403 232.768119 
L 342.428571 228.619241 
L 347.25974 224.615703 
L 352.090909 220.752439 
L 356.922078 217.024559 
L 361.753247 213.427338 
L 366.584416 209.956212 
L 371.415584 206.606776 
L 376.246753 203.374776 
L 381.077922 200.256103 
L 385.909091 197.246794 
L 390.74026 194.343019 
L 395.571429 191.541085 
L 400.402597 188.837424 
L 405.233766 186.228595 
L 410.064935 183.711276 
L 414.896104 181.28226 
L 419.727273 178.938452 
L 424.558442 176.676866 
L 429.38961 174.494619 
L 434.220779 172.388931 
L 439.051948 170.357117 
L 443.883117 168.396586 
L 448.714286 166.504839 
L 453.545455 164.679465 
L 458.376623 162.918134 
L 463.207792 161.218601 
L 468.038961 159.578699 
L 472.87013 157.996336 
L 477.701299 156.469493 
L 482.532468 154.996223 
L 487.363636 153.574647 
L 492.194805 152.202951 
L 497.025974 150.879386 
L 501.857143 149.602262 
L 506.688312 148.369951 
L 511.519481 147.18088 
L 516.350649 146.033533 
L 521.181818 144.926445 
L 526.012987 143.858204 
L 530.844156 142.827447 
L 535.675325 141.832858 
L 540.506494 140.87317 
L 545.337662 139.947156 
L 550.168831 139.053636 
L 555 138.19147 
L 559.831169 137.359558 
L 564.662338 136.556837 
L 569.493506 135.782283 
L 574.324675 135.034909 
L 579.155844 134.313761 
L 583.987013 133.617918 
L 588.818182 132.946492 
L 593.649351 132.298627 
L 598.480519 131.673496 
L 603.311688 131.070301 
L 608.142857 130.488272 
L 612.974026 129.926667 
L 617.805195 129.384769 
L 622.636364 128.861887 
" style="fill:none;stroke:#bcbd22;stroke-linecap:square;stroke-width:1.5;"/>
   </g>
   <g id="line2d_38">
    <path clip-path="url(#p4bd380a1d6)" d="M 115.363636 605.290909 
L 120.194805 603.127841 
L 125.025974 600.69439 
L 129.857143 597.720172 
L 134.688312 591.771735 
L 139.519481 580.415629 
L 144.350649 575.81911 
L 149.181818 565.544538 
L 154.012987 554.188432 
L 158.844156 539.317341 
L 163.675325 531.47622 
L 168.506494 518.768197 
L 173.337662 508.223241 
L 178.168831 495.785602 
L 183 483.888729 
L 187.831169 471.991856 
L 192.662338 453.876163 
L 197.493506 439.816222 
L 202.324675 425.756282 
L 207.155844 416.833627 
L 211.987013 407.640589 
L 216.818182 398.717934 
L 221.649351 388.443362 
L 226.480519 378.439173 
L 231.311688 368.164601 
L 236.142857 360.053097 
L 240.974026 353.023127 
L 245.805195 348.156224 
L 250.636364 346.26354 
L 255.467532 341.396637 
L 260.298701 334.096283 
L 265.12987 326.525546 
L 269.961039 315.439824 
L 274.792208 298.676048 
L 279.623377 293.268379 
L 284.454545 278.938054 
L 289.285714 272.448851 
L 294.116883 266.500415 
L 298.948052 261.363129 
L 303.779221 258.659294 
L 308.61039 254.603542 
L 313.441558 251.35894 
L 318.272727 248.925489 
L 323.103896 241.625135 
L 327.935065 238.650917 
L 332.766234 234.865548 
L 337.597403 233.513631 
L 342.428571 232.161713 
L 347.25974 229.998645 
L 352.090909 229.187495 
L 356.922078 227.565194 
L 361.753247 226.213277 
L 366.584416 223.779825 
L 371.415584 215.938705 
L 376.246753 212.694103 
L 381.077922 210.531035 
L 385.909091 208.097584 
L 390.74026 204.312215 
L 395.571429 201.878764 
L 400.402597 199.174929 
L 405.233766 195.119177 
L 410.064935 192.685726 
L 414.896104 191.063425 
L 419.727273 188.900357 
L 424.558442 183.222304 
L 429.38961 179.977702 
L 434.220779 178.355402 
L 439.051948 174.570033 
L 443.883117 172.947732 
L 448.714286 170.243897 
L 453.545455 169.162363 
L 458.376623 166.999296 
L 463.207792 164.565844 
L 468.038961 163.213927 
L 472.87013 161.050859 
L 477.701299 159.698942 
L 482.532468 158.617408 
L 487.363636 157.265491 
L 492.194805 156.45434 
L 497.025974 155.102423 
L 501.857143 153.750505 
L 506.688312 150.776287 
L 511.519481 148.342836 
L 516.350649 146.450152 
L 521.181818 144.827851 
L 526.012987 143.20555 
L 530.844156 138.068264 
L 535.675325 136.98673 
L 540.506494 135.094046 
L 545.337662 133.742128 
L 550.168831 132.390211 
L 555 131.57906 
L 559.831169 131.038293 
L 564.662338 129.415993 
L 569.493506 127.252925 
L 574.324675 126.441774 
L 579.155844 125.630624 
L 583.987013 124.819474 
L 588.818182 124.278707 
L 593.649351 124.008323 
L 598.480519 123.467556 
L 603.311688 122.926789 
L 608.142857 121.574872 
L 612.974026 121.034105 
L 617.805195 120.763721 
L 622.636364 120.493338 
" style="fill:none;stroke:#17becf;stroke-dasharray:14.8,6.4;stroke-dashoffset:0;stroke-width:4;"/>
   </g>
   <g id="patch_3">
    <path d="M 90 630 
L 90 86.4 
" style="fill:none;stroke:#000000;stroke-linecap:square;stroke-linejoin:miter;stroke-width:0.8;"/>
   </g>
   <g id="patch_4">
    <path d="M 648 630 
L 648 86.4 
" style="fill:none;stroke:#000000;stroke-linecap:square;stroke-linejoin:miter;stroke-width:0.8;"/>
   </g>
   <g id="patch_5">
    <path d="M 90 630 
L 648 630 
" style="fill:none;stroke:#000000;stroke-linecap:square;stroke-linejoin:miter;stroke-width:0.8;"/>
   </g>
   <g id="patch_6">
    <path d="M 90 86.4 
L 648 86.4 
" style="fill:none;stroke:#000000;stroke-linecap:square;stroke-linejoin:miter;stroke-width:0.8;"/>
   </g>
   <g id="text_17">
    <!-- Lithuania relative err =  -->
    <g transform="translate(297.405 80.4)scale(0.12 -0.12)">
     <defs>
      <path d="M 9.8125 72.90625 
L 19.671875 72.90625 
L 19.671875 8.296875 
L 55.171875 8.296875 
L 55.171875 0 
L 9.8125 0 
z
" id="DejaVuSans-76"/>
      <path d="M 54.890625 33.015625 
L 54.890625 0 
L 45.90625 0 
L 45.90625 32.71875 
Q 45.90625 40.484375 42.875 44.328125 
Q 39.84375 48.1875 33.796875 48.1875 
Q 26.515625 48.1875 22.3125 43.546875 
Q 18.109375 38.921875 18.109375 30.90625 
L 18.109375 0 
L 9.078125 0 
L 9.078125 75.984375 
L 18.109375 75.984375 
L 18.109375 46.1875 
Q 21.34375 51.125 25.703125 53.5625 
Q 30.078125 56 35.796875 56 
Q 45.21875 56 50.046875 50.171875 
Q 54.890625 44.34375 54.890625 33.015625 
z
" id="DejaVuSans-104"/>
      <path d="M 54.890625 33.015625 
L 54.890625 0 
L 45.90625 0 
L 45.90625 32.71875 
Q 45.90625 40.484375 42.875 44.328125 
Q 39.84375 48.1875 33.796875 48.1875 
Q 26.515625 48.1875 22.3125 43.546875 
Q 18.109375 38.921875 18.109375 30.90625 
L 18.109375 0 
L 9.078125 0 
L 9.078125 54.6875 
L 18.109375 54.6875 
L 18.109375 46.1875 
Q 21.34375 51.125 25.703125 53.5625 
Q 30.078125 56 35.796875 56 
Q 45.21875 56 50.046875 50.171875 
Q 54.890625 44.34375 54.890625 33.015625 
z
" id="DejaVuSans-110"/>
      <path d="M 41.109375 46.296875 
Q 39.59375 47.171875 37.8125 47.578125 
Q 36.03125 48 33.890625 48 
Q 26.265625 48 22.1875 43.046875 
Q 18.109375 38.09375 18.109375 28.8125 
L 18.109375 0 
L 9.078125 0 
L 9.078125 54.6875 
L 18.109375 54.6875 
L 18.109375 46.1875 
Q 20.953125 51.171875 25.484375 53.578125 
Q 30.03125 56 36.53125 56 
Q 37.453125 56 38.578125 55.875 
Q 39.703125 55.765625 41.0625 55.515625 
z
" id="DejaVuSans-114"/>
      <path d="M 10.59375 45.40625 
L 73.1875 45.40625 
L 73.1875 37.203125 
L 10.59375 37.203125 
z
M 10.59375 25.484375 
L 73.1875 25.484375 
L 73.1875 17.1875 
L 10.59375 17.1875 
z
" id="DejaVuSans-61"/>
     </defs>
     <use xlink:href="#DejaVuSans-76"/>
     <use x="55.712891" xlink:href="#DejaVuSans-105"/>
     <use x="83.496094" xlink:href="#DejaVuSans-116"/>
     <use x="122.705078" xlink:href="#DejaVuSans-104"/>
     <use x="186.083984" xlink:href="#DejaVuSans-117"/>
     <use x="249.462891" xlink:href="#DejaVuSans-97"/>
     <use x="310.742188" xlink:href="#DejaVuSans-110"/>
     <use x="374.121094" xlink:href="#DejaVuSans-105"/>
     <use x="401.904297" xlink:href="#DejaVuSans-97"/>
     <use x="463.183594" xlink:href="#DejaVuSans-32"/>
     <use x="494.970703" xlink:href="#DejaVuSans-114"/>
     <use x="533.833984" xlink:href="#DejaVuSans-101"/>
     <use x="595.357422" xlink:href="#DejaVuSans-108"/>
     <use x="623.140625" xlink:href="#DejaVuSans-97"/>
     <use x="684.419922" xlink:href="#DejaVuSans-116"/>
     <use x="723.628906" xlink:href="#DejaVuSans-105"/>
     <use x="751.412109" xlink:href="#DejaVuSans-118"/>
     <use x="810.591797" xlink:href="#DejaVuSans-101"/>
     <use x="872.115234" xlink:href="#DejaVuSans-32"/>
     <use x="903.902344" xlink:href="#DejaVuSans-101"/>
     <use x="965.425781" xlink:href="#DejaVuSans-114"/>
     <use x="1004.789062" xlink:href="#DejaVuSans-114"/>
     <use x="1045.902344" xlink:href="#DejaVuSans-32"/>
     <use x="1077.689453" xlink:href="#DejaVuSans-61"/>
     <use x="1161.478516" xlink:href="#DejaVuSans-32"/>
    </g>
   </g>
   <g id="legend_1">
    <g id="patch_7">
     <path d="M 97 226.503125 
L 185.6 226.503125 
Q 187.6 226.503125 187.6 224.503125 
L 187.6 93.4 
Q 187.6 91.4 185.6 91.4 
L 97 91.4 
Q 95 91.4 95 93.4 
L 95 224.503125 
Q 95 226.503125 97 226.503125 
z
" style="fill:#ffffff;opacity:0.8;stroke:#cccccc;stroke-linejoin:miter;"/>
    </g>
    <g id="line2d_39">
     <path d="M 99 99.498438 
L 119 99.498438 
" style="fill:none;stroke:#1f77b4;stroke-linecap:square;stroke-width:1.5;"/>
    </g>
    <g id="line2d_40"/>
    <g id="text_18">
     <!-- SI -->
     <g transform="translate(127 102.998438)scale(0.1 -0.1)">
      <defs>
       <path d="M 53.515625 70.515625 
L 53.515625 60.890625 
Q 47.90625 63.578125 42.921875 64.890625 
Q 37.9375 66.21875 33.296875 66.21875 
Q 25.25 66.21875 20.875 63.09375 
Q 16.5 59.96875 16.5 54.203125 
Q 16.5 49.359375 19.40625 46.890625 
Q 22.3125 44.4375 30.421875 42.921875 
L 36.375 41.703125 
Q 47.40625 39.59375 52.65625 34.296875 
Q 57.90625 29 57.90625 20.125 
Q 57.90625 9.515625 50.796875 4.046875 
Q 43.703125 -1.421875 29.984375 -1.421875 
Q 24.8125 -1.421875 18.96875 -0.25 
Q 13.140625 0.921875 6.890625 3.21875 
L 6.890625 13.375 
Q 12.890625 10.015625 18.65625 8.296875 
Q 24.421875 6.59375 29.984375 6.59375 
Q 38.421875 6.59375 43.015625 9.90625 
Q 47.609375 13.234375 47.609375 19.390625 
Q 47.609375 24.75 44.3125 27.78125 
Q 41.015625 30.8125 33.5 32.328125 
L 27.484375 33.5 
Q 16.453125 35.6875 11.515625 40.375 
Q 6.59375 45.0625 6.59375 53.421875 
Q 6.59375 63.09375 13.40625 68.65625 
Q 20.21875 74.21875 32.171875 74.21875 
Q 37.3125 74.21875 42.625 73.28125 
Q 47.953125 72.359375 53.515625 70.515625 
z
" id="DejaVuSans-83"/>
       <path d="M 9.8125 72.90625 
L 19.671875 72.90625 
L 19.671875 0 
L 9.8125 0 
z
" id="DejaVuSans-73"/>
      </defs>
      <use xlink:href="#DejaVuSans-83"/>
      <use x="63.476562" xlink:href="#DejaVuSans-73"/>
     </g>
    </g>
    <g id="line2d_41">
     <path d="M 99 114.176563 
L 119 114.176563 
" style="fill:none;stroke:#ff7f0e;stroke-linecap:square;stroke-width:1.5;"/>
    </g>
    <g id="line2d_42"/>
    <g id="text_19">
     <!-- BD -->
     <g transform="translate(127 117.676563)scale(0.1 -0.1)">
      <defs>
       <path d="M 19.671875 34.8125 
L 19.671875 8.109375 
L 35.5 8.109375 
Q 43.453125 8.109375 47.28125 11.40625 
Q 51.125 14.703125 51.125 21.484375 
Q 51.125 28.328125 47.28125 31.5625 
Q 43.453125 34.8125 35.5 34.8125 
z
M 19.671875 64.796875 
L 19.671875 42.828125 
L 34.28125 42.828125 
Q 41.5 42.828125 45.03125 45.53125 
Q 48.578125 48.25 48.578125 53.8125 
Q 48.578125 59.328125 45.03125 62.0625 
Q 41.5 64.796875 34.28125 64.796875 
z
M 9.8125 72.90625 
L 35.015625 72.90625 
Q 46.296875 72.90625 52.390625 68.21875 
Q 58.5 63.53125 58.5 54.890625 
Q 58.5 48.1875 55.375 44.234375 
Q 52.25 40.28125 46.1875 39.3125 
Q 53.46875 37.75 57.5 32.78125 
Q 61.53125 27.828125 61.53125 20.40625 
Q 61.53125 10.640625 54.890625 5.3125 
Q 48.25 0 35.984375 0 
L 9.8125 0 
z
" id="DejaVuSans-66"/>
      </defs>
      <use xlink:href="#DejaVuSans-66"/>
      <use x="68.603516" xlink:href="#DejaVuSans-68"/>
     </g>
    </g>
    <g id="line2d_43">
     <path d="M 99 128.854688 
L 119 128.854688 
" style="fill:none;stroke:#2ca02c;stroke-linecap:square;stroke-width:1.5;"/>
    </g>
    <g id="line2d_44"/>
    <g id="text_20">
     <!-- SIR -->
     <g transform="translate(127 132.354688)scale(0.1 -0.1)">
      <defs>
       <path d="M 44.390625 34.1875 
Q 47.5625 33.109375 50.5625 29.59375 
Q 53.5625 26.078125 56.59375 19.921875 
L 66.609375 0 
L 56 0 
L 46.6875 18.703125 
Q 43.0625 26.03125 39.671875 28.421875 
Q 36.28125 30.8125 30.421875 30.8125 
L 19.671875 30.8125 
L 19.671875 0 
L 9.8125 0 
L 9.8125 72.90625 
L 32.078125 72.90625 
Q 44.578125 72.90625 50.734375 67.671875 
Q 56.890625 62.453125 56.890625 51.90625 
Q 56.890625 45.015625 53.6875 40.46875 
Q 50.484375 35.9375 44.390625 34.1875 
z
M 19.671875 64.796875 
L 19.671875 38.921875 
L 32.078125 38.921875 
Q 39.203125 38.921875 42.84375 42.21875 
Q 46.484375 45.515625 46.484375 51.90625 
Q 46.484375 58.296875 42.84375 61.546875 
Q 39.203125 64.796875 32.078125 64.796875 
z
" id="DejaVuSans-82"/>
      </defs>
      <use xlink:href="#DejaVuSans-83"/>
      <use x="63.476562" xlink:href="#DejaVuSans-73"/>
      <use x="92.96875" xlink:href="#DejaVuSans-82"/>
     </g>
    </g>
    <g id="line2d_45">
     <path d="M 99 143.532812 
L 119 143.532812 
" style="fill:none;stroke:#d62728;stroke-linecap:square;stroke-width:1.5;"/>
    </g>
    <g id="line2d_46"/>
    <g id="text_21">
     <!-- eSIR -->
     <g transform="translate(127 147.032812)scale(0.1 -0.1)">
      <use xlink:href="#DejaVuSans-101"/>
      <use x="61.523438" xlink:href="#DejaVuSans-83"/>
      <use x="125" xlink:href="#DejaVuSans-73"/>
      <use x="154.492188" xlink:href="#DejaVuSans-82"/>
     </g>
    </g>
    <g id="line2d_47">
     <path d="M 99 158.210938 
L 119 158.210938 
" style="fill:none;stroke:#9467bd;stroke-linecap:square;stroke-width:1.5;"/>
    </g>
    <g id="line2d_48"/>
    <g id="text_22">
     <!-- SEIR -->
     <g transform="translate(127 161.710938)scale(0.1 -0.1)">
      <defs>
       <path d="M 9.8125 72.90625 
L 55.90625 72.90625 
L 55.90625 64.59375 
L 19.671875 64.59375 
L 19.671875 43.015625 
L 54.390625 43.015625 
L 54.390625 34.71875 
L 19.671875 34.71875 
L 19.671875 8.296875 
L 56.78125 8.296875 
L 56.78125 0 
L 9.8125 0 
z
" id="DejaVuSans-69"/>
      </defs>
      <use xlink:href="#DejaVuSans-83"/>
      <use x="63.476562" xlink:href="#DejaVuSans-69"/>
      <use x="126.660156" xlink:href="#DejaVuSans-73"/>
      <use x="156.152344" xlink:href="#DejaVuSans-82"/>
     </g>
    </g>
    <g id="line2d_49">
     <path d="M 99 172.889063 
L 119 172.889063 
" style="fill:none;stroke:#8c564b;stroke-linecap:square;stroke-width:1.5;"/>
    </g>
    <g id="line2d_50"/>
    <g id="text_23">
     <!-- eSEIR -->
     <g transform="translate(127 176.389063)scale(0.1 -0.1)">
      <use xlink:href="#DejaVuSans-101"/>
      <use x="61.523438" xlink:href="#DejaVuSans-83"/>
      <use x="125" xlink:href="#DejaVuSans-69"/>
      <use x="188.183594" xlink:href="#DejaVuSans-73"/>
      <use x="217.675781" xlink:href="#DejaVuSans-82"/>
     </g>
    </g>
    <g id="line2d_51">
     <path d="M 99 187.567188 
L 119 187.567188 
" style="fill:none;stroke:#e377c2;stroke-linecap:square;stroke-width:1.5;"/>
    </g>
    <g id="line2d_52"/>
    <g id="text_24">
     <!-- SEIUR -->
     <g transform="translate(127 191.067188)scale(0.1 -0.1)">
      <defs>
       <path d="M 8.6875 72.90625 
L 18.609375 72.90625 
L 18.609375 28.609375 
Q 18.609375 16.890625 22.84375 11.734375 
Q 27.09375 6.59375 36.625 6.59375 
Q 46.09375 6.59375 50.34375 11.734375 
Q 54.59375 16.890625 54.59375 28.609375 
L 54.59375 72.90625 
L 64.5 72.90625 
L 64.5 27.390625 
Q 64.5 13.140625 57.4375 5.859375 
Q 50.390625 -1.421875 36.625 -1.421875 
Q 22.796875 -1.421875 15.734375 5.859375 
Q 8.6875 13.140625 8.6875 27.390625 
z
" id="DejaVuSans-85"/>
      </defs>
      <use xlink:href="#DejaVuSans-83"/>
      <use x="63.476562" xlink:href="#DejaVuSans-69"/>
      <use x="126.660156" xlink:href="#DejaVuSans-73"/>
      <use x="156.152344" xlink:href="#DejaVuSans-85"/>
      <use x="229.345703" xlink:href="#DejaVuSans-82"/>
     </g>
    </g>
    <g id="line2d_53">
     <path d="M 99 202.245312 
L 119 202.245312 
" style="fill:none;stroke:#7f7f7f;stroke-linecap:square;stroke-width:1.5;"/>
    </g>
    <g id="line2d_54"/>
    <g id="text_25">
     <!-- eSEIUR -->
     <g transform="translate(127 205.745312)scale(0.1 -0.1)">
      <use xlink:href="#DejaVuSans-101"/>
      <use x="61.523438" xlink:href="#DejaVuSans-83"/>
      <use x="125" xlink:href="#DejaVuSans-69"/>
      <use x="188.183594" xlink:href="#DejaVuSans-73"/>
      <use x="217.675781" xlink:href="#DejaVuSans-85"/>
      <use x="290.869141" xlink:href="#DejaVuSans-82"/>
     </g>
    </g>
    <g id="line2d_55">
     <path d="M 99 216.923437 
L 119 216.923437 
" style="fill:none;stroke:#bcbd22;stroke-linecap:square;stroke-width:1.5;"/>
    </g>
    <g id="line2d_56"/>
    <g id="text_26">
     <!-- eSEIUR$^{range}$ -->
     <g transform="translate(127 220.423437)scale(0.1 -0.1)">
      <defs>
       <path d="M 44.578125 46.390625 
Q 43.21875 47.125 41.453125 47.515625 
Q 39.703125 47.90625 37.703125 47.90625 
Q 30.515625 47.90625 25.140625 42.453125 
Q 19.78125 37.015625 18.015625 27.875 
L 12.5 0 
L 3.515625 0 
L 14.203125 54.6875 
L 23.1875 54.6875 
L 21.484375 46.1875 
Q 25.046875 50.921875 30 53.453125 
Q 34.96875 56 40.578125 56 
Q 42.046875 56 43.453125 55.828125 
Q 44.875 55.671875 46.296875 55.28125 
z
" id="DejaVuSans-Oblique-114"/>
       <path d="M 53.71875 31.203125 
L 47.609375 0 
L 38.625 0 
L 40.28125 8.296875 
Q 36.328125 3.421875 31.265625 1 
Q 26.21875 -1.421875 20.015625 -1.421875 
Q 13.03125 -1.421875 8.5625 2.84375 
Q 4.109375 7.125 4.109375 13.8125 
Q 4.109375 23.390625 11.75 28.953125 
Q 19.390625 34.515625 32.8125 34.515625 
L 45.3125 34.515625 
L 45.796875 36.921875 
Q 45.90625 37.3125 45.953125 37.765625 
Q 46 38.234375 46 39.203125 
Q 46 43.5625 42.453125 45.96875 
Q 38.921875 48.390625 32.515625 48.390625 
Q 28.125 48.390625 23.5 47.265625 
Q 18.890625 46.140625 14.015625 43.890625 
L 15.578125 52.203125 
Q 20.65625 54.109375 25.515625 55.046875 
Q 30.375 56 34.90625 56 
Q 44.578125 56 49.625 51.796875 
Q 54.6875 47.609375 54.6875 39.59375 
Q 54.6875 37.984375 54.4375 35.8125 
Q 54.203125 33.640625 53.71875 31.203125 
z
M 44 27.484375 
L 35.015625 27.484375 
Q 23.96875 27.484375 18.671875 24.53125 
Q 13.375 21.578125 13.375 15.375 
Q 13.375 11.078125 16.078125 8.640625 
Q 18.796875 6.203125 23.578125 6.203125 
Q 30.90625 6.203125 36.375 11.453125 
Q 41.84375 16.703125 43.609375 25.484375 
z
" id="DejaVuSans-Oblique-97"/>
       <path d="M 55.71875 33.015625 
L 49.3125 0 
L 40.28125 0 
L 46.6875 32.671875 
Q 47.125 34.96875 47.359375 36.71875 
Q 47.609375 38.484375 47.609375 39.5 
Q 47.609375 43.609375 45.015625 45.890625 
Q 42.4375 48.1875 37.796875 48.1875 
Q 30.5625 48.1875 25.34375 43.375 
Q 20.125 38.578125 18.5 30.328125 
L 12.5 0 
L 3.515625 0 
L 14.109375 54.6875 
L 23.09375 54.6875 
L 21.296875 46.09375 
Q 25.046875 50.828125 30.3125 53.40625 
Q 35.59375 56 41.40625 56 
Q 48.640625 56 52.609375 52.09375 
Q 56.59375 48.1875 56.59375 41.109375 
Q 56.59375 39.359375 56.375 37.359375 
Q 56.15625 35.359375 55.71875 33.015625 
z
" id="DejaVuSans-Oblique-110"/>
       <path d="M 59.625 54.6875 
L 50.296875 6.78125 
Q 47.609375 -7.125 40.015625 -13.953125 
Q 32.421875 -20.796875 19.578125 -20.796875 
Q 14.84375 -20.796875 10.78125 -20.09375 
Q 6.734375 -19.390625 3.21875 -17.921875 
L 4.890625 -9.1875 
Q 8.203125 -11.328125 11.90625 -12.34375 
Q 15.625 -13.375 19.828125 -13.375 
Q 28.375 -13.375 33.859375 -8.703125 
Q 39.359375 -4.046875 41.109375 4.6875 
L 41.890625 8.796875 
Q 38.140625 4.5 33.15625 2.25 
Q 28.171875 0 22.40625 0 
Q 14.109375 0 9.34375 5.484375 
Q 4.59375 10.984375 4.59375 20.609375 
Q 4.59375 28.171875 7.46875 35.421875 
Q 10.359375 42.671875 15.578125 48.296875 
Q 19.046875 52 23.65625 54 
Q 28.265625 56 33.296875 56 
Q 38.8125 56 42.90625 53.4375 
Q 47.015625 50.875 49.03125 46.1875 
L 50.59375 54.6875 
z
M 46.09375 34.625 
Q 46.09375 41.265625 42.96875 44.875 
Q 39.84375 48.484375 34.078125 48.484375 
Q 30.515625 48.484375 27.296875 47.0625 
Q 24.078125 45.65625 21.78125 43.109375 
Q 18.0625 38.921875 15.984375 33.234375 
Q 13.921875 27.546875 13.921875 21.484375 
Q 13.921875 14.75 17.0625 11.125 
Q 20.21875 7.515625 26.125 7.515625 
Q 34.671875 7.515625 40.375 15.25 
Q 46.09375 23 46.09375 34.625 
z
" id="DejaVuSans-Oblique-103"/>
       <path d="M 48.09375 32.234375 
Q 48.25 33.015625 48.3125 33.84375 
Q 48.390625 34.671875 48.390625 35.5 
Q 48.390625 41.453125 44.890625 44.921875 
Q 41.40625 48.390625 35.40625 48.390625 
Q 28.71875 48.390625 23.578125 44.15625 
Q 18.453125 39.9375 15.828125 32.171875 
z
M 55.90625 25.203125 
L 14.109375 25.203125 
Q 13.8125 23.34375 13.71875 22.265625 
Q 13.625 21.1875 13.625 20.40625 
Q 13.625 13.625 17.796875 9.90625 
Q 21.96875 6.203125 29.59375 6.203125 
Q 35.453125 6.203125 40.671875 7.515625 
Q 45.90625 8.84375 50.390625 11.375 
L 48.6875 2.484375 
Q 43.84375 0.53125 38.6875 -0.4375 
Q 33.546875 -1.421875 28.21875 -1.421875 
Q 16.84375 -1.421875 10.71875 4.015625 
Q 4.59375 9.46875 4.59375 19.484375 
Q 4.59375 28.03125 7.640625 35.375 
Q 10.6875 42.71875 16.609375 48.484375 
Q 20.40625 52.09375 25.65625 54.046875 
Q 30.90625 56 36.8125 56 
Q 46.09375 56 51.578125 50.4375 
Q 57.078125 44.875 57.078125 35.5 
Q 57.078125 33.25 56.78125 30.6875 
Q 56.5 28.125 55.90625 25.203125 
z
" id="DejaVuSans-Oblique-101"/>
      </defs>
      <use transform="translate(0 0.51875)" xlink:href="#DejaVuSans-101"/>
      <use transform="translate(61.523438 0.51875)" xlink:href="#DejaVuSans-83"/>
      <use transform="translate(125 0.51875)" xlink:href="#DejaVuSans-69"/>
      <use transform="translate(188.183594 0.51875)" xlink:href="#DejaVuSans-73"/>
      <use transform="translate(217.675781 0.51875)" xlink:href="#DejaVuSans-85"/>
      <use transform="translate(288.619141 0.51875)" xlink:href="#DejaVuSans-82"/>
      <use transform="translate(359.058594 38.8)scale(0.7)" xlink:href="#DejaVuSans-Oblique-114"/>
      <use transform="translate(387.837891 38.8)scale(0.7)" xlink:href="#DejaVuSans-Oblique-97"/>
      <use transform="translate(430.733398 38.8)scale(0.7)" xlink:href="#DejaVuSans-Oblique-110"/>
      <use transform="translate(475.098633 38.8)scale(0.7)" xlink:href="#DejaVuSans-Oblique-103"/>
      <use transform="translate(519.532227 38.8)scale(0.7)" xlink:href="#DejaVuSans-Oblique-101"/>
     </g>
    </g>
   </g>
  </g>
 </g>
 <defs>
  <clipPath id="p4bd380a1d6">
   <rect height="543.6" width="558" x="90" y="86.4"/>
  </clipPath>
 </defs>
</svg>
