<?xml version="1.0" encoding="utf-8" standalone="no"?>
<!DOCTYPE svg PUBLIC "-//W3C//DTD SVG 1.1//EN"
  "http://www.w3.org/Graphics/SVG/1.1/DTD/svg11.dtd">
<!-- Created with matplotlib (https://matplotlib.org/) -->
<svg height="720pt" version="1.1" viewBox="0 0 720 720" width="720pt" xmlns="http://www.w3.org/2000/svg" xmlns:xlink="http://www.w3.org/1999/xlink">
 <metadata>
  <rdf:RDF xmlns:cc="http://creativecommons.org/ns#" xmlns:dc="http://purl.org/dc/elements/1.1/" xmlns:rdf="http://www.w3.org/1999/02/22-rdf-syntax-ns#">
   <cc:Work>
    <dc:type rdf:resource="http://purl.org/dc/dcmitype/StillImage"/>
    <dc:date>2022-07-13T18:54:14.552663</dc:date>
    <dc:format>image/svg+xml</dc:format>
    <dc:creator>
     <cc:Agent>
      <dc:title>Matplotlib v3.3.2, https://matplotlib.org/</dc:title>
     </cc:Agent>
    </dc:creator>
   </cc:Work>
  </rdf:RDF>
 </metadata>
 <defs>
  <style type="text/css">*{stroke-linecap:butt;stroke-linejoin:round;}</style>
 </defs>
 <g id="figure_1">
  <g id="patch_1">
   <path d="M 0 720 
L 720 720 
L 720 0 
L 0 0 
z
" style="fill:none;"/>
  </g>
  <g id="axes_1">
   <g id="patch_2">
    <path d="M 90 630 
L 648 630 
L 648 86.4 
L 90 86.4 
z
" style="fill:#ffffff;"/>
   </g>
   <g id="matplotlib.axis_1">
    <g id="xtick_1">
     <g id="line2d_1">
      <path clip-path="url(#p56b3b9e121)" d="M 115.363636 630 
L 115.363636 86.4 
" style="fill:none;stroke:#b0b0b0;stroke-linecap:square;stroke-width:0.8;"/>
     </g>
     <g id="line2d_2">
      <defs>
       <path d="M 0 0 
L 0 3.5 
" id="m3799d3ce29" style="stroke:#000000;stroke-width:0.8;"/>
      </defs>
      <g>
       <use style="stroke:#000000;stroke-width:0.8;" x="115.363636" xlink:href="#m3799d3ce29" y="630"/>
      </g>
     </g>
     <g id="text_1">
      <!-- 0 -->
      <g transform="translate(112.182386 644.598438)scale(0.1 -0.1)">
       <defs>
        <path d="M 31.78125 66.40625 
Q 24.171875 66.40625 20.328125 58.90625 
Q 16.5 51.421875 16.5 36.375 
Q 16.5 21.390625 20.328125 13.890625 
Q 24.171875 6.390625 31.78125 6.390625 
Q 39.453125 6.390625 43.28125 13.890625 
Q 47.125 21.390625 47.125 36.375 
Q 47.125 51.421875 43.28125 58.90625 
Q 39.453125 66.40625 31.78125 66.40625 
z
M 31.78125 74.21875 
Q 44.046875 74.21875 50.515625 64.515625 
Q 56.984375 54.828125 56.984375 36.375 
Q 56.984375 17.96875 50.515625 8.265625 
Q 44.046875 -1.421875 31.78125 -1.421875 
Q 19.53125 -1.421875 13.0625 8.265625 
Q 6.59375 17.96875 6.59375 36.375 
Q 6.59375 54.828125 13.0625 64.515625 
Q 19.53125 74.21875 31.78125 74.21875 
z
" id="DejaVuSans-48"/>
       </defs>
       <use xlink:href="#DejaVuSans-48"/>
      </g>
     </g>
    </g>
    <g id="xtick_2">
     <g id="line2d_3">
      <path clip-path="url(#p56b3b9e121)" d="M 185.818182 630 
L 185.818182 86.4 
" style="fill:none;stroke:#b0b0b0;stroke-linecap:square;stroke-width:0.8;"/>
     </g>
     <g id="line2d_4">
      <g>
       <use style="stroke:#000000;stroke-width:0.8;" x="185.818182" xlink:href="#m3799d3ce29" y="630"/>
      </g>
     </g>
     <g id="text_2">
      <!-- 10 -->
      <g transform="translate(179.455682 644.598438)scale(0.1 -0.1)">
       <defs>
        <path d="M 12.40625 8.296875 
L 28.515625 8.296875 
L 28.515625 63.921875 
L 10.984375 60.40625 
L 10.984375 69.390625 
L 28.421875 72.90625 
L 38.28125 72.90625 
L 38.28125 8.296875 
L 54.390625 8.296875 
L 54.390625 0 
L 12.40625 0 
z
" id="DejaVuSans-49"/>
       </defs>
       <use xlink:href="#DejaVuSans-49"/>
       <use x="63.623047" xlink:href="#DejaVuSans-48"/>
      </g>
     </g>
    </g>
    <g id="xtick_3">
     <g id="line2d_5">
      <path clip-path="url(#p56b3b9e121)" d="M 256.272727 630 
L 256.272727 86.4 
" style="fill:none;stroke:#b0b0b0;stroke-linecap:square;stroke-width:0.8;"/>
     </g>
     <g id="line2d_6">
      <g>
       <use style="stroke:#000000;stroke-width:0.8;" x="256.272727" xlink:href="#m3799d3ce29" y="630"/>
      </g>
     </g>
     <g id="text_3">
      <!-- 20 -->
      <g transform="translate(249.910227 644.598438)scale(0.1 -0.1)">
       <defs>
        <path d="M 19.1875 8.296875 
L 53.609375 8.296875 
L 53.609375 0 
L 7.328125 0 
L 7.328125 8.296875 
Q 12.9375 14.109375 22.625 23.890625 
Q 32.328125 33.6875 34.8125 36.53125 
Q 39.546875 41.84375 41.421875 45.53125 
Q 43.3125 49.21875 43.3125 52.78125 
Q 43.3125 58.59375 39.234375 62.25 
Q 35.15625 65.921875 28.609375 65.921875 
Q 23.96875 65.921875 18.8125 64.3125 
Q 13.671875 62.703125 7.8125 59.421875 
L 7.8125 69.390625 
Q 13.765625 71.78125 18.9375 73 
Q 24.125 74.21875 28.421875 74.21875 
Q 39.75 74.21875 46.484375 68.546875 
Q 53.21875 62.890625 53.21875 53.421875 
Q 53.21875 48.921875 51.53125 44.890625 
Q 49.859375 40.875 45.40625 35.40625 
Q 44.1875 33.984375 37.640625 27.21875 
Q 31.109375 20.453125 19.1875 8.296875 
z
" id="DejaVuSans-50"/>
       </defs>
       <use xlink:href="#DejaVuSans-50"/>
       <use x="63.623047" xlink:href="#DejaVuSans-48"/>
      </g>
     </g>
    </g>
    <g id="xtick_4">
     <g id="line2d_7">
      <path clip-path="url(#p56b3b9e121)" d="M 326.727273 630 
L 326.727273 86.4 
" style="fill:none;stroke:#b0b0b0;stroke-linecap:square;stroke-width:0.8;"/>
     </g>
     <g id="line2d_8">
      <g>
       <use style="stroke:#000000;stroke-width:0.8;" x="326.727273" xlink:href="#m3799d3ce29" y="630"/>
      </g>
     </g>
     <g id="text_4">
      <!-- 30 -->
      <g transform="translate(320.364773 644.598438)scale(0.1 -0.1)">
       <defs>
        <path d="M 40.578125 39.3125 
Q 47.65625 37.796875 51.625 33 
Q 55.609375 28.21875 55.609375 21.1875 
Q 55.609375 10.40625 48.1875 4.484375 
Q 40.765625 -1.421875 27.09375 -1.421875 
Q 22.515625 -1.421875 17.65625 -0.515625 
Q 12.796875 0.390625 7.625 2.203125 
L 7.625 11.71875 
Q 11.71875 9.328125 16.59375 8.109375 
Q 21.484375 6.890625 26.8125 6.890625 
Q 36.078125 6.890625 40.9375 10.546875 
Q 45.796875 14.203125 45.796875 21.1875 
Q 45.796875 27.640625 41.28125 31.265625 
Q 36.765625 34.90625 28.71875 34.90625 
L 20.21875 34.90625 
L 20.21875 43.015625 
L 29.109375 43.015625 
Q 36.375 43.015625 40.234375 45.921875 
Q 44.09375 48.828125 44.09375 54.296875 
Q 44.09375 59.90625 40.109375 62.90625 
Q 36.140625 65.921875 28.71875 65.921875 
Q 24.65625 65.921875 20.015625 65.03125 
Q 15.375 64.15625 9.8125 62.3125 
L 9.8125 71.09375 
Q 15.4375 72.65625 20.34375 73.4375 
Q 25.25 74.21875 29.59375 74.21875 
Q 40.828125 74.21875 47.359375 69.109375 
Q 53.90625 64.015625 53.90625 55.328125 
Q 53.90625 49.265625 50.4375 45.09375 
Q 46.96875 40.921875 40.578125 39.3125 
z
" id="DejaVuSans-51"/>
       </defs>
       <use xlink:href="#DejaVuSans-51"/>
       <use x="63.623047" xlink:href="#DejaVuSans-48"/>
      </g>
     </g>
    </g>
    <g id="xtick_5">
     <g id="line2d_9">
      <path clip-path="url(#p56b3b9e121)" d="M 397.181818 630 
L 397.181818 86.4 
" style="fill:none;stroke:#b0b0b0;stroke-linecap:square;stroke-width:0.8;"/>
     </g>
     <g id="line2d_10">
      <g>
       <use style="stroke:#000000;stroke-width:0.8;" x="397.181818" xlink:href="#m3799d3ce29" y="630"/>
      </g>
     </g>
     <g id="text_5">
      <!-- 40 -->
      <g transform="translate(390.819318 644.598438)scale(0.1 -0.1)">
       <defs>
        <path d="M 37.796875 64.3125 
L 12.890625 25.390625 
L 37.796875 25.390625 
z
M 35.203125 72.90625 
L 47.609375 72.90625 
L 47.609375 25.390625 
L 58.015625 25.390625 
L 58.015625 17.1875 
L 47.609375 17.1875 
L 47.609375 0 
L 37.796875 0 
L 37.796875 17.1875 
L 4.890625 17.1875 
L 4.890625 26.703125 
z
" id="DejaVuSans-52"/>
       </defs>
       <use xlink:href="#DejaVuSans-52"/>
       <use x="63.623047" xlink:href="#DejaVuSans-48"/>
      </g>
     </g>
    </g>
    <g id="xtick_6">
     <g id="line2d_11">
      <path clip-path="url(#p56b3b9e121)" d="M 467.636364 630 
L 467.636364 86.4 
" style="fill:none;stroke:#b0b0b0;stroke-linecap:square;stroke-width:0.8;"/>
     </g>
     <g id="line2d_12">
      <g>
       <use style="stroke:#000000;stroke-width:0.8;" x="467.636364" xlink:href="#m3799d3ce29" y="630"/>
      </g>
     </g>
     <g id="text_6">
      <!-- 50 -->
      <g transform="translate(461.273864 644.598438)scale(0.1 -0.1)">
       <defs>
        <path d="M 10.796875 72.90625 
L 49.515625 72.90625 
L 49.515625 64.59375 
L 19.828125 64.59375 
L 19.828125 46.734375 
Q 21.96875 47.46875 24.109375 47.828125 
Q 26.265625 48.1875 28.421875 48.1875 
Q 40.625 48.1875 47.75 41.5 
Q 54.890625 34.8125 54.890625 23.390625 
Q 54.890625 11.625 47.5625 5.09375 
Q 40.234375 -1.421875 26.90625 -1.421875 
Q 22.3125 -1.421875 17.546875 -0.640625 
Q 12.796875 0.140625 7.71875 1.703125 
L 7.71875 11.625 
Q 12.109375 9.234375 16.796875 8.0625 
Q 21.484375 6.890625 26.703125 6.890625 
Q 35.15625 6.890625 40.078125 11.328125 
Q 45.015625 15.765625 45.015625 23.390625 
Q 45.015625 31 40.078125 35.4375 
Q 35.15625 39.890625 26.703125 39.890625 
Q 22.75 39.890625 18.8125 39.015625 
Q 14.890625 38.140625 10.796875 36.28125 
z
" id="DejaVuSans-53"/>
       </defs>
       <use xlink:href="#DejaVuSans-53"/>
       <use x="63.623047" xlink:href="#DejaVuSans-48"/>
      </g>
     </g>
    </g>
    <g id="xtick_7">
     <g id="line2d_13">
      <path clip-path="url(#p56b3b9e121)" d="M 538.090909 630 
L 538.090909 86.4 
" style="fill:none;stroke:#b0b0b0;stroke-linecap:square;stroke-width:0.8;"/>
     </g>
     <g id="line2d_14">
      <g>
       <use style="stroke:#000000;stroke-width:0.8;" x="538.090909" xlink:href="#m3799d3ce29" y="630"/>
      </g>
     </g>
     <g id="text_7">
      <!-- 60 -->
      <g transform="translate(531.728409 644.598438)scale(0.1 -0.1)">
       <defs>
        <path d="M 33.015625 40.375 
Q 26.375 40.375 22.484375 35.828125 
Q 18.609375 31.296875 18.609375 23.390625 
Q 18.609375 15.53125 22.484375 10.953125 
Q 26.375 6.390625 33.015625 6.390625 
Q 39.65625 6.390625 43.53125 10.953125 
Q 47.40625 15.53125 47.40625 23.390625 
Q 47.40625 31.296875 43.53125 35.828125 
Q 39.65625 40.375 33.015625 40.375 
z
M 52.59375 71.296875 
L 52.59375 62.3125 
Q 48.875 64.0625 45.09375 64.984375 
Q 41.3125 65.921875 37.59375 65.921875 
Q 27.828125 65.921875 22.671875 59.328125 
Q 17.53125 52.734375 16.796875 39.40625 
Q 19.671875 43.65625 24.015625 45.921875 
Q 28.375 48.1875 33.59375 48.1875 
Q 44.578125 48.1875 50.953125 41.515625 
Q 57.328125 34.859375 57.328125 23.390625 
Q 57.328125 12.15625 50.6875 5.359375 
Q 44.046875 -1.421875 33.015625 -1.421875 
Q 20.359375 -1.421875 13.671875 8.265625 
Q 6.984375 17.96875 6.984375 36.375 
Q 6.984375 53.65625 15.1875 63.9375 
Q 23.390625 74.21875 37.203125 74.21875 
Q 40.921875 74.21875 44.703125 73.484375 
Q 48.484375 72.75 52.59375 71.296875 
z
" id="DejaVuSans-54"/>
       </defs>
       <use xlink:href="#DejaVuSans-54"/>
       <use x="63.623047" xlink:href="#DejaVuSans-48"/>
      </g>
     </g>
    </g>
    <g id="xtick_8">
     <g id="line2d_15">
      <path clip-path="url(#p56b3b9e121)" d="M 608.545455 630 
L 608.545455 86.4 
" style="fill:none;stroke:#b0b0b0;stroke-linecap:square;stroke-width:0.8;"/>
     </g>
     <g id="line2d_16">
      <g>
       <use style="stroke:#000000;stroke-width:0.8;" x="608.545455" xlink:href="#m3799d3ce29" y="630"/>
      </g>
     </g>
     <g id="text_8">
      <!-- 70 -->
      <g transform="translate(602.182955 644.598438)scale(0.1 -0.1)">
       <defs>
        <path d="M 8.203125 72.90625 
L 55.078125 72.90625 
L 55.078125 68.703125 
L 28.609375 0 
L 18.3125 0 
L 43.21875 64.59375 
L 8.203125 64.59375 
z
" id="DejaVuSans-55"/>
       </defs>
       <use xlink:href="#DejaVuSans-55"/>
       <use x="63.623047" xlink:href="#DejaVuSans-48"/>
      </g>
     </g>
    </g>
    <g id="text_9">
     <!-- Days -->
     <g transform="translate(356.521875 658.276562)scale(0.1 -0.1)">
      <defs>
       <path d="M 19.671875 64.796875 
L 19.671875 8.109375 
L 31.59375 8.109375 
Q 46.6875 8.109375 53.6875 14.9375 
Q 60.6875 21.78125 60.6875 36.53125 
Q 60.6875 51.171875 53.6875 57.984375 
Q 46.6875 64.796875 31.59375 64.796875 
z
M 9.8125 72.90625 
L 30.078125 72.90625 
Q 51.265625 72.90625 61.171875 64.09375 
Q 71.09375 55.28125 71.09375 36.53125 
Q 71.09375 17.671875 61.125 8.828125 
Q 51.171875 0 30.078125 0 
L 9.8125 0 
z
" id="DejaVuSans-68"/>
       <path d="M 34.28125 27.484375 
Q 23.390625 27.484375 19.1875 25 
Q 14.984375 22.515625 14.984375 16.5 
Q 14.984375 11.71875 18.140625 8.90625 
Q 21.296875 6.109375 26.703125 6.109375 
Q 34.1875 6.109375 38.703125 11.40625 
Q 43.21875 16.703125 43.21875 25.484375 
L 43.21875 27.484375 
z
M 52.203125 31.203125 
L 52.203125 0 
L 43.21875 0 
L 43.21875 8.296875 
Q 40.140625 3.328125 35.546875 0.953125 
Q 30.953125 -1.421875 24.3125 -1.421875 
Q 15.921875 -1.421875 10.953125 3.296875 
Q 6 8.015625 6 15.921875 
Q 6 25.140625 12.171875 29.828125 
Q 18.359375 34.515625 30.609375 34.515625 
L 43.21875 34.515625 
L 43.21875 35.40625 
Q 43.21875 41.609375 39.140625 45 
Q 35.0625 48.390625 27.6875 48.390625 
Q 23 48.390625 18.546875 47.265625 
Q 14.109375 46.140625 10.015625 43.890625 
L 10.015625 52.203125 
Q 14.9375 54.109375 19.578125 55.046875 
Q 24.21875 56 28.609375 56 
Q 40.484375 56 46.34375 49.84375 
Q 52.203125 43.703125 52.203125 31.203125 
z
" id="DejaVuSans-97"/>
       <path d="M 32.171875 -5.078125 
Q 28.375 -14.84375 24.75 -17.8125 
Q 21.140625 -20.796875 15.09375 -20.796875 
L 7.90625 -20.796875 
L 7.90625 -13.28125 
L 13.1875 -13.28125 
Q 16.890625 -13.28125 18.9375 -11.515625 
Q 21 -9.765625 23.484375 -3.21875 
L 25.09375 0.875 
L 2.984375 54.6875 
L 12.5 54.6875 
L 29.59375 11.921875 
L 46.6875 54.6875 
L 56.203125 54.6875 
z
" id="DejaVuSans-121"/>
       <path d="M 44.28125 53.078125 
L 44.28125 44.578125 
Q 40.484375 46.53125 36.375 47.5 
Q 32.28125 48.484375 27.875 48.484375 
Q 21.1875 48.484375 17.84375 46.4375 
Q 14.5 44.390625 14.5 40.28125 
Q 14.5 37.15625 16.890625 35.375 
Q 19.28125 33.59375 26.515625 31.984375 
L 29.59375 31.296875 
Q 39.15625 29.25 43.1875 25.515625 
Q 47.21875 21.78125 47.21875 15.09375 
Q 47.21875 7.46875 41.1875 3.015625 
Q 35.15625 -1.421875 24.609375 -1.421875 
Q 20.21875 -1.421875 15.453125 -0.5625 
Q 10.6875 0.296875 5.421875 2 
L 5.421875 11.28125 
Q 10.40625 8.6875 15.234375 7.390625 
Q 20.0625 6.109375 24.8125 6.109375 
Q 31.15625 6.109375 34.5625 8.28125 
Q 37.984375 10.453125 37.984375 14.40625 
Q 37.984375 18.0625 35.515625 20.015625 
Q 33.0625 21.96875 24.703125 23.78125 
L 21.578125 24.515625 
Q 13.234375 26.265625 9.515625 29.90625 
Q 5.8125 33.546875 5.8125 39.890625 
Q 5.8125 47.609375 11.28125 51.796875 
Q 16.75 56 26.8125 56 
Q 31.78125 56 36.171875 55.265625 
Q 40.578125 54.546875 44.28125 53.078125 
z
" id="DejaVuSans-115"/>
      </defs>
      <use xlink:href="#DejaVuSans-68"/>
      <use x="77.001953" xlink:href="#DejaVuSans-97"/>
      <use x="138.28125" xlink:href="#DejaVuSans-121"/>
      <use x="197.460938" xlink:href="#DejaVuSans-115"/>
     </g>
    </g>
   </g>
   <g id="matplotlib.axis_2">
    <g id="ytick_1">
     <g id="line2d_17">
      <path clip-path="url(#p56b3b9e121)" d="M 90 613.644516 
L 648 613.644516 
" style="fill:none;stroke:#b0b0b0;stroke-linecap:square;stroke-width:0.8;"/>
     </g>
     <g id="line2d_18">
      <defs>
       <path d="M 0 0 
L -3.5 0 
" id="mc968129587" style="stroke:#000000;stroke-width:0.8;"/>
      </defs>
      <g>
       <use style="stroke:#000000;stroke-width:0.8;" x="90" xlink:href="#mc968129587" y="613.644516"/>
      </g>
     </g>
     <g id="text_10">
      <!-- 0 -->
      <g transform="translate(76.6375 617.443735)scale(0.1 -0.1)">
       <use xlink:href="#DejaVuSans-48"/>
      </g>
     </g>
    </g>
    <g id="ytick_2">
     <g id="line2d_19">
      <path clip-path="url(#p56b3b9e121)" d="M 90 494.307275 
L 648 494.307275 
" style="fill:none;stroke:#b0b0b0;stroke-linecap:square;stroke-width:0.8;"/>
     </g>
     <g id="line2d_20">
      <g>
       <use style="stroke:#000000;stroke-width:0.8;" x="90" xlink:href="#mc968129587" y="494.307275"/>
      </g>
     </g>
     <g id="text_11">
      <!-- 500 -->
      <g transform="translate(63.9125 498.106494)scale(0.1 -0.1)">
       <use xlink:href="#DejaVuSans-53"/>
       <use x="63.623047" xlink:href="#DejaVuSans-48"/>
       <use x="127.246094" xlink:href="#DejaVuSans-48"/>
      </g>
     </g>
    </g>
    <g id="ytick_3">
     <g id="line2d_21">
      <path clip-path="url(#p56b3b9e121)" d="M 90 374.970034 
L 648 374.970034 
" style="fill:none;stroke:#b0b0b0;stroke-linecap:square;stroke-width:0.8;"/>
     </g>
     <g id="line2d_22">
      <g>
       <use style="stroke:#000000;stroke-width:0.8;" x="90" xlink:href="#mc968129587" y="374.970034"/>
      </g>
     </g>
     <g id="text_12">
      <!-- 1000 -->
      <g transform="translate(57.55 378.769253)scale(0.1 -0.1)">
       <use xlink:href="#DejaVuSans-49"/>
       <use x="63.623047" xlink:href="#DejaVuSans-48"/>
       <use x="127.246094" xlink:href="#DejaVuSans-48"/>
       <use x="190.869141" xlink:href="#DejaVuSans-48"/>
      </g>
     </g>
    </g>
    <g id="ytick_4">
     <g id="line2d_23">
      <path clip-path="url(#p56b3b9e121)" d="M 90 255.632793 
L 648 255.632793 
" style="fill:none;stroke:#b0b0b0;stroke-linecap:square;stroke-width:0.8;"/>
     </g>
     <g id="line2d_24">
      <g>
       <use style="stroke:#000000;stroke-width:0.8;" x="90" xlink:href="#mc968129587" y="255.632793"/>
      </g>
     </g>
     <g id="text_13">
      <!-- 1500 -->
      <g transform="translate(57.55 259.432012)scale(0.1 -0.1)">
       <use xlink:href="#DejaVuSans-49"/>
       <use x="63.623047" xlink:href="#DejaVuSans-53"/>
       <use x="127.246094" xlink:href="#DejaVuSans-48"/>
       <use x="190.869141" xlink:href="#DejaVuSans-48"/>
      </g>
     </g>
    </g>
    <g id="ytick_5">
     <g id="line2d_25">
      <path clip-path="url(#p56b3b9e121)" d="M 90 136.295552 
L 648 136.295552 
" style="fill:none;stroke:#b0b0b0;stroke-linecap:square;stroke-width:0.8;"/>
     </g>
     <g id="line2d_26">
      <g>
       <use style="stroke:#000000;stroke-width:0.8;" x="90" xlink:href="#mc968129587" y="136.295552"/>
      </g>
     </g>
     <g id="text_14">
      <!-- 2000 -->
      <g transform="translate(57.55 140.094771)scale(0.1 -0.1)">
       <use xlink:href="#DejaVuSans-50"/>
       <use x="63.623047" xlink:href="#DejaVuSans-48"/>
       <use x="127.246094" xlink:href="#DejaVuSans-48"/>
       <use x="190.869141" xlink:href="#DejaVuSans-48"/>
      </g>
     </g>
    </g>
    <g id="text_15">
     <!-- Cumulative cases -->
     <g transform="translate(51.470312 402.425781)rotate(-90)scale(0.1 -0.1)">
      <defs>
       <path d="M 64.40625 67.28125 
L 64.40625 56.890625 
Q 59.421875 61.53125 53.78125 63.8125 
Q 48.140625 66.109375 41.796875 66.109375 
Q 29.296875 66.109375 22.65625 58.46875 
Q 16.015625 50.828125 16.015625 36.375 
Q 16.015625 21.96875 22.65625 14.328125 
Q 29.296875 6.6875 41.796875 6.6875 
Q 48.140625 6.6875 53.78125 8.984375 
Q 59.421875 11.28125 64.40625 15.921875 
L 64.40625 5.609375 
Q 59.234375 2.09375 53.4375 0.328125 
Q 47.65625 -1.421875 41.21875 -1.421875 
Q 24.65625 -1.421875 15.125 8.703125 
Q 5.609375 18.84375 5.609375 36.375 
Q 5.609375 53.953125 15.125 64.078125 
Q 24.65625 74.21875 41.21875 74.21875 
Q 47.75 74.21875 53.53125 72.484375 
Q 59.328125 70.75 64.40625 67.28125 
z
" id="DejaVuSans-67"/>
       <path d="M 8.5 21.578125 
L 8.5 54.6875 
L 17.484375 54.6875 
L 17.484375 21.921875 
Q 17.484375 14.15625 20.5 10.265625 
Q 23.53125 6.390625 29.59375 6.390625 
Q 36.859375 6.390625 41.078125 11.03125 
Q 45.3125 15.671875 45.3125 23.6875 
L 45.3125 54.6875 
L 54.296875 54.6875 
L 54.296875 0 
L 45.3125 0 
L 45.3125 8.40625 
Q 42.046875 3.421875 37.71875 1 
Q 33.40625 -1.421875 27.6875 -1.421875 
Q 18.265625 -1.421875 13.375 4.4375 
Q 8.5 10.296875 8.5 21.578125 
z
M 31.109375 56 
z
" id="DejaVuSans-117"/>
       <path d="M 52 44.1875 
Q 55.375 50.25 60.0625 53.125 
Q 64.75 56 71.09375 56 
Q 79.640625 56 84.28125 50.015625 
Q 88.921875 44.046875 88.921875 33.015625 
L 88.921875 0 
L 79.890625 0 
L 79.890625 32.71875 
Q 79.890625 40.578125 77.09375 44.375 
Q 74.3125 48.1875 68.609375 48.1875 
Q 61.625 48.1875 57.5625 43.546875 
Q 53.515625 38.921875 53.515625 30.90625 
L 53.515625 0 
L 44.484375 0 
L 44.484375 32.71875 
Q 44.484375 40.625 41.703125 44.40625 
Q 38.921875 48.1875 33.109375 48.1875 
Q 26.21875 48.1875 22.15625 43.53125 
Q 18.109375 38.875 18.109375 30.90625 
L 18.109375 0 
L 9.078125 0 
L 9.078125 54.6875 
L 18.109375 54.6875 
L 18.109375 46.1875 
Q 21.1875 51.21875 25.484375 53.609375 
Q 29.78125 56 35.6875 56 
Q 41.65625 56 45.828125 52.96875 
Q 50 49.953125 52 44.1875 
z
" id="DejaVuSans-109"/>
       <path d="M 9.421875 75.984375 
L 18.40625 75.984375 
L 18.40625 0 
L 9.421875 0 
z
" id="DejaVuSans-108"/>
       <path d="M 18.3125 70.21875 
L 18.3125 54.6875 
L 36.8125 54.6875 
L 36.8125 47.703125 
L 18.3125 47.703125 
L 18.3125 18.015625 
Q 18.3125 11.328125 20.140625 9.421875 
Q 21.96875 7.515625 27.59375 7.515625 
L 36.8125 7.515625 
L 36.8125 0 
L 27.59375 0 
Q 17.1875 0 13.234375 3.875 
Q 9.28125 7.765625 9.28125 18.015625 
L 9.28125 47.703125 
L 2.6875 47.703125 
L 2.6875 54.6875 
L 9.28125 54.6875 
L 9.28125 70.21875 
z
" id="DejaVuSans-116"/>
       <path d="M 9.421875 54.6875 
L 18.40625 54.6875 
L 18.40625 0 
L 9.421875 0 
z
M 9.421875 75.984375 
L 18.40625 75.984375 
L 18.40625 64.59375 
L 9.421875 64.59375 
z
" id="DejaVuSans-105"/>
       <path d="M 2.984375 54.6875 
L 12.5 54.6875 
L 29.59375 8.796875 
L 46.6875 54.6875 
L 56.203125 54.6875 
L 35.6875 0 
L 23.484375 0 
z
" id="DejaVuSans-118"/>
       <path d="M 56.203125 29.59375 
L 56.203125 25.203125 
L 14.890625 25.203125 
Q 15.484375 15.921875 20.484375 11.0625 
Q 25.484375 6.203125 34.421875 6.203125 
Q 39.59375 6.203125 44.453125 7.46875 
Q 49.3125 8.734375 54.109375 11.28125 
L 54.109375 2.78125 
Q 49.265625 0.734375 44.1875 -0.34375 
Q 39.109375 -1.421875 33.890625 -1.421875 
Q 20.796875 -1.421875 13.15625 6.1875 
Q 5.515625 13.8125 5.515625 26.8125 
Q 5.515625 40.234375 12.765625 48.109375 
Q 20.015625 56 32.328125 56 
Q 43.359375 56 49.78125 48.890625 
Q 56.203125 41.796875 56.203125 29.59375 
z
M 47.21875 32.234375 
Q 47.125 39.59375 43.09375 43.984375 
Q 39.0625 48.390625 32.421875 48.390625 
Q 24.90625 48.390625 20.390625 44.140625 
Q 15.875 39.890625 15.1875 32.171875 
z
" id="DejaVuSans-101"/>
       <path id="DejaVuSans-32"/>
       <path d="M 48.78125 52.59375 
L 48.78125 44.1875 
Q 44.96875 46.296875 41.140625 47.34375 
Q 37.3125 48.390625 33.40625 48.390625 
Q 24.65625 48.390625 19.8125 42.84375 
Q 14.984375 37.3125 14.984375 27.296875 
Q 14.984375 17.28125 19.8125 11.734375 
Q 24.65625 6.203125 33.40625 6.203125 
Q 37.3125 6.203125 41.140625 7.25 
Q 44.96875 8.296875 48.78125 10.40625 
L 48.78125 2.09375 
Q 45.015625 0.34375 40.984375 -0.53125 
Q 36.96875 -1.421875 32.421875 -1.421875 
Q 20.0625 -1.421875 12.78125 6.34375 
Q 5.515625 14.109375 5.515625 27.296875 
Q 5.515625 40.671875 12.859375 48.328125 
Q 20.21875 56 33.015625 56 
Q 37.15625 56 41.109375 55.140625 
Q 45.0625 54.296875 48.78125 52.59375 
z
" id="DejaVuSans-99"/>
      </defs>
      <use xlink:href="#DejaVuSans-67"/>
      <use x="69.824219" xlink:href="#DejaVuSans-117"/>
      <use x="133.203125" xlink:href="#DejaVuSans-109"/>
      <use x="230.615234" xlink:href="#DejaVuSans-117"/>
      <use x="293.994141" xlink:href="#DejaVuSans-108"/>
      <use x="321.777344" xlink:href="#DejaVuSans-97"/>
      <use x="383.056641" xlink:href="#DejaVuSans-116"/>
      <use x="422.265625" xlink:href="#DejaVuSans-105"/>
      <use x="450.048828" xlink:href="#DejaVuSans-118"/>
      <use x="509.228516" xlink:href="#DejaVuSans-101"/>
      <use x="570.751953" xlink:href="#DejaVuSans-32"/>
      <use x="602.539062" xlink:href="#DejaVuSans-99"/>
      <use x="657.519531" xlink:href="#DejaVuSans-97"/>
      <use x="718.798828" xlink:href="#DejaVuSans-115"/>
      <use x="770.898438" xlink:href="#DejaVuSans-101"/>
      <use x="832.421875" xlink:href="#DejaVuSans-115"/>
     </g>
    </g>
   </g>
   <g id="line2d_27">
    <path clip-path="url(#p56b3b9e121)" d="M 115.363636 605.290909 
L 122.409091 604.183162 
L 129.454545 602.931776 
L 136.5 601.51904 
L 143.545455 599.925314 
L 150.590909 598.128894 
L 157.636364 596.10588 
L 164.681818 593.83007 
L 171.727273 591.272886 
L 178.772727 588.403337 
L 185.818182 585.188037 
L 192.863636 581.591311 
L 199.909091 577.575382 
L 206.954545 573.100687 
L 214 568.12633 
L 221.045455 562.610712 
L 228.090909 556.512337 
L 235.136364 549.790835 
L 242.181818 542.408206 
L 249.227273 534.330268 
L 256.272727 525.528317 
L 263.318182 515.980929 
L 270.363636 505.675867 
L 277.409091 494.611978 
L 284.454545 482.800983 
L 291.5 470.268995 
L 298.545455 457.057645 
L 305.590909 443.224639 
L 312.636364 428.843628 
L 319.681818 414.003299 
L 326.727273 398.805649 
L 333.772727 383.36347 
L 340.818182 367.79717 
L 347.863636 352.231091 
L 354.909091 336.789568 
L 361.954545 321.592988 
L 369 306.754112 
L 376.045455 292.374891 
L 383.090909 278.543964 
L 390.136364 265.334925 
L 397.181818 252.805423 
L 404.227273 240.997032 
L 411.272727 229.935816 
L 418.318182 219.633442 
L 425.363636 210.088719 
L 432.409091 201.289371 
L 439.454545 193.213947 
L 446.5 185.833719 
L 453.545455 179.11449 
L 460.590909 173.018248 
L 467.636364 167.504618 
L 474.681818 162.532102 
L 481.727273 158.0591 
L 488.772727 154.044723 
L 495.818182 150.449411 
L 502.863636 147.235396 
L 509.909091 144.367009 
L 516.954545 141.810874 
L 524 139.536007 
L 531.045455 137.513839 
L 538.090909 135.718176 
L 545.136364 134.125128 
L 552.181818 132.712997 
L 559.227273 131.462149 
L 566.272727 130.35488 
L 573.318182 129.375271 
L 580.363636 128.509043 
L 587.409091 127.743416 
L 594.454545 127.066974 
L 601.5 126.469537 
L 608.545455 125.942041 
L 615.590909 125.476426 
L 622.636364 125.06553 
" style="fill:none;stroke:#1f77b4;stroke-linecap:square;stroke-width:1.5;"/>
   </g>
   <g id="line2d_28">
    <path clip-path="url(#p56b3b9e121)" d="M 115.363636 605.290909 
L 122.409091 603.423764 
L 129.454545 601.366844 
L 136.5 599.102766 
L 143.545455 596.612973 
L 150.590909 593.877748 
L 157.636364 590.876258 
L 164.681818 587.586622 
L 171.727273 583.986025 
L 178.772727 580.050869 
L 185.818182 575.756982 
L 192.863636 571.079878 
L 199.909091 565.995088 
L 206.954545 560.478553 
L 214 554.50709 
L 221.045455 548.058939 
L 228.090909 541.11437 
L 235.136364 533.656356 
L 242.181818 525.671302 
L 249.227273 517.149805 
L 256.272727 508.087425 
L 263.318182 498.485433 
L 270.363636 488.351512 
L 277.409091 477.700359 
L 284.454545 466.554149 
L 291.5 454.942829 
L 298.545455 442.904183 
L 305.590909 430.483666 
L 312.636364 417.733958 
L 319.681818 404.714254 
L 326.727273 391.489287 
L 333.772727 378.128122 
L 340.818182 364.70275 
L 347.863636 351.286559 
L 354.909091 337.952737 
L 361.954545 324.772686 
L 369 311.814511 
L 376.045455 299.14167 
L 383.090909 286.811811 
L 390.136364 274.875869 
L 397.181818 263.377413 
L 404.227273 252.352279 
L 411.272727 241.828456 
L 418.318182 231.826219 
L 425.363636 222.358464 
L 432.409091 213.431212 
L 439.454545 205.044242 
L 446.5 197.191803 
L 453.545455 189.863372 
L 460.590909 183.044428 
L 467.636364 176.717204 
L 474.681818 170.861402 
L 481.727273 165.45485 
L 488.772727 160.474101 
L 495.818182 155.894953 
L 502.863636 151.692896 
L 509.909091 147.843497 
L 516.954545 144.322703 
L 524 141.107095 
L 531.045455 138.174078 
L 538.090909 135.502026 
L 545.136364 133.070376 
L 552.181818 130.8597 
L 559.227273 128.851733 
L 566.272727 127.029384 
L 573.318182 125.376728 
L 580.363636 123.878976 
L 587.409091 122.52244 
L 594.454545 121.294486 
L 601.5 120.183486 
L 608.545455 119.178756 
L 615.590909 118.270506 
L 622.636364 117.449775 
" style="fill:none;stroke:#ff7f0e;stroke-linecap:square;stroke-width:1.5;"/>
   </g>
   <g id="line2d_29">
    <path clip-path="url(#p56b3b9e121)" d="M 115.363636 605.290909 
L 122.409091 603.246608 
L 129.454545 601.000021 
L 136.5 598.533711 
L 143.545455 595.829285 
L 150.590909 592.867469 
L 157.636364 589.628206 
L 164.681818 586.090804 
L 171.727273 582.234114 
L 178.772727 578.036763 
L 185.818182 573.477447 
L 192.863636 568.535262 
L 199.909091 563.190112 
L 206.954545 557.423159 
L 214 551.217335 
L 221.045455 544.557888 
L 228.090909 537.432977 
L 235.136364 529.834271 
L 242.181818 521.75755 
L 249.227273 513.203283 
L 256.272727 504.177141 
L 263.318182 494.690432 
L 270.363636 484.760415 
L 277.409091 474.41047 
L 284.454545 463.670095 
L 291.5 452.574717 
L 298.545455 441.165307 
L 305.590909 429.487796 
L 312.636364 417.592317 
L 319.681818 405.532284 
L 326.727273 393.36336 
L 333.772727 381.142345 
L 340.818182 368.92604 
L 347.863636 356.770129 
L 354.909091 344.728141 
L 361.954545 332.850511 
L 369 321.183795 
L 376.045455 309.770046 
L 383.090909 298.646361 
L 390.136364 287.844615 
L 397.181818 277.391351 
L 404.227273 267.307832 
L 411.272727 257.610215 
L 418.318182 248.309837 
L 425.363636 239.413573 
L 432.409091 230.924257 
L 439.454545 222.841129 
L 446.5 215.160302 
L 453.545455 207.875215 
L 460.590909 200.977082 
L 467.636364 194.4553 
L 474.681818 188.297833 
L 481.727273 182.49156 
L 488.772727 177.022575 
L 495.818182 171.876458 
L 502.863636 167.038505 
L 509.909091 162.493915 
L 516.954545 158.227959 
L 524 154.226107 
L 531.045455 150.474135 
L 538.090909 146.958208 
L 545.136364 143.66494 
L 552.181818 140.581442 
L 559.227273 137.695356 
L 566.272727 134.994867 
L 573.318182 132.46872 
L 580.363636 130.106218 
L 587.409091 127.897218 
L 594.454545 125.832122 
L 601.5 123.901863 
L 608.545455 122.097888 
L 615.590909 120.41214 
L 622.636364 118.837037 
" style="fill:none;stroke:#2ca02c;stroke-linecap:square;stroke-width:1.5;"/>
   </g>
   <g id="line2d_30">
    <path clip-path="url(#p56b3b9e121)" d="M 115.363636 605.290909 
L 122.409091 602.838694 
L 129.454545 600.104531 
L 136.5 597.069194 
L 143.545455 593.713135 
L 150.590909 590.016691 
L 157.636364 585.960334 
L 164.681818 581.52497 
L 171.727273 576.69228 
L 178.772727 571.445106 
L 185.818182 565.767879 
L 192.863636 559.647085 
L 199.909091 553.071755 
L 206.954545 546.033967 
L 214 538.529357 
L 221.045455 530.557598 
L 228.090909 522.122846 
L 235.136364 513.234124 
L 242.181818 503.905607 
L 249.227273 494.156812 
L 256.272727 484.012641 
L 263.318182 473.503291 
L 270.363636 462.663997 
L 277.409091 451.534619 
L 284.454545 440.159077 
L 291.5 428.584647 
L 298.545455 416.861139 
L 305.590909 405.039998 
L 312.636364 393.173344 
L 319.681818 381.313019 
L 326.727273 369.509642 
L 333.772727 357.811748 
L 340.818182 346.265008 
L 347.863636 334.911579 
L 354.909091 323.789585 
L 361.954545 312.932744 
L 369 302.370141 
L 376.045455 292.126142 
L 383.090909 282.220428 
L 390.136364 272.668141 
L 397.181818 263.480123 
L 404.227273 254.66322 
L 411.272727 246.220635 
L 418.318182 238.152315 
L 425.363636 230.455354 
L 432.409091 223.124387 
L 439.454545 216.151981 
L 446.5 209.529003 
L 453.545455 203.244961 
L 460.590909 197.288313 
L 467.636364 191.646749 
L 474.681818 186.30743 
L 481.727273 181.257204 
L 488.772727 176.482786 
L 495.818182 171.97091 
L 502.863636 167.708452 
L 509.909091 163.682532 
L 516.954545 159.880596 
L 524 156.290476 
L 531.045455 152.900435 
L 538.090909 149.699199 
L 545.136364 146.675981 
L 552.181818 143.820489 
L 559.227273 141.122929 
L 566.272727 138.574005 
L 573.318182 136.164911 
L 580.363636 133.887319 
L 587.409091 131.733362 
L 594.454545 129.695624 
L 601.5 127.767116 
L 608.545455 125.941259 
L 615.590909 124.211867 
L 622.636364 122.573123 
" style="fill:none;stroke:#d62728;stroke-linecap:square;stroke-width:1.5;"/>
   </g>
   <g id="line2d_31">
    <path clip-path="url(#p56b3b9e121)" d="M 115.363636 605.290909 
L 122.409091 604.878785 
L 129.454545 603.829991 
L 136.5 602.323657 
L 143.545455 600.450672 
L 150.590909 598.251353 
L 157.636364 595.73663 
L 164.681818 592.900033 
L 171.727273 589.724552 
L 178.772727 586.186618 
L 185.818182 582.258527 
L 192.863636 577.910006 
L 199.909091 573.109372 
L 206.954545 567.8245 
L 214 562.023763 
L 221.045455 555.677001 
L 228.090909 548.756573 
L 235.136364 541.238494 
L 242.181818 533.103637 
L 249.227273 524.338982 
L 256.272727 514.938859 
L 263.318182 504.906106 
L 270.363636 494.253091 
L 277.409091 483.002492 
L 284.454545 471.18778 
L 291.5 458.853311 
L 298.545455 446.053997 
L 305.590909 432.854514 
L 312.636364 419.328078 
L 319.681818 405.554804 
L 326.727273 391.619751 
L 333.772727 377.610738 
L 340.818182 363.616071 
L 347.863636 349.722284 
L 354.909091 336.012043 
L 361.954545 322.562291 
L 369 309.442737 
L 376.045455 296.714709 
L 383.090909 284.430419 
L 390.136364 272.632605 
L 397.181818 261.35453 
L 404.227273 250.620283 
L 411.272727 240.445325 
L 418.318182 230.837219 
L 425.363636 221.796476 
L 432.409091 213.317475 
L 439.454545 205.38939 
L 446.5 197.997112 
L 453.545455 191.122113 
L 460.590909 184.743247 
L 467.636364 178.837467 
L 474.681818 173.380461 
L 481.727273 168.347199 
L 488.772727 163.712388 
L 495.818182 159.450858 
L 502.863636 155.537865 
L 509.909091 151.949338 
L 516.954545 148.662058 
L 524 145.653798 
L 531.045455 142.903411 
L 538.090909 140.390892 
L 545.136364 138.097404 
L 552.181818 136.005287 
L 559.227273 134.098043 
L 566.272727 132.36031 
L 573.318182 130.777826 
L 580.363636 129.33738 
L 587.409091 128.026769 
L 594.454545 126.834737 
L 601.5 125.750921 
L 608.545455 124.765802 
L 615.590909 123.870637 
L 622.636364 123.057418 
" style="fill:none;stroke:#9467bd;stroke-linecap:square;stroke-width:1.5;"/>
   </g>
   <g id="line2d_32">
    <path clip-path="url(#p56b3b9e121)" d="M 115.363636 605.290909 
L 122.409091 605.018141 
L 129.454545 604.240808 
L 136.5 603.00407 
L 143.545455 601.335371 
L 150.590909 599.248461 
L 157.636364 596.746482 
L 164.681818 593.824383 
L 171.727273 590.470844 
L 178.772727 586.669866 
L 185.818182 582.402126 
L 192.863636 577.64619 
L 199.909091 572.379643 
L 206.954545 566.580175 
L 214 560.226664 
L 221.045455 553.30026 
L 228.090909 545.785468 
L 235.136364 537.671235 
L 242.181818 528.951995 
L 249.227273 519.628653 
L 256.272727 509.709458 
L 263.318182 499.210714 
L 270.363636 488.157284 
L 277.409091 476.582832 
L 284.454545 464.529777 
L 291.5 452.048923 
L 298.545455 439.198758 
L 305.590909 426.04445 
L 312.636364 412.656554 
L 319.681818 399.109508 
L 326.727273 385.479965 
L 333.772727 371.845068 
L 340.818182 358.280725 
L 347.863636 344.859988 
L 354.909091 331.6516 
L 361.954545 318.718754 
L 369 306.118122 
L 376.045455 293.899163 
L 383.090909 282.103704 
L 390.136364 270.765799 
L 397.181818 259.911815 
L 404.227273 249.560727 
L 411.272727 239.724581 
L 418.318182 230.409062 
L 425.363636 221.614163 
L 432.409091 213.334883 
L 439.454545 205.561943 
L 446.5 198.282497 
L 453.545455 191.480801 
L 460.590909 185.13884 
L 467.636364 179.236899 
L 474.681818 173.754073 
L 481.727273 168.668713 
L 488.772727 163.958809 
L 495.818182 159.602316 
L 502.863636 155.577418 
L 509.909091 151.862752 
L 516.954545 148.437573 
L 524 145.281887 
L 531.045455 142.376552 
L 538.090909 139.703338 
L 545.136364 137.244972 
L 552.181818 134.985159 
L 559.227273 132.908586 
L 566.272727 131.000906 
L 573.318182 129.248728 
L 580.363636 127.639578 
L 587.409091 126.161866 
L 594.454545 124.804852 
L 601.5 123.558596 
L 608.545455 122.413918 
L 615.590909 121.362351 
L 622.636364 120.396099 
" style="fill:none;stroke:#8c564b;stroke-linecap:square;stroke-width:1.5;"/>
   </g>
   <g id="line2d_33">
    <path clip-path="url(#p56b3b9e121)" d="M 115.363636 605.290909 
L 122.409091 604.81609 
L 129.454545 603.633392 
L 136.5 601.966552 
L 143.545455 599.924343 
L 150.590909 597.553463 
L 157.636364 594.866695 
L 164.681818 591.857982 
L 171.727273 588.510569 
L 178.772727 584.80146 
L 185.818182 580.70397 
L 192.863636 576.18929 
L 199.909091 571.22758 
L 206.954545 565.788866 
L 214 559.843884 
L 221.045455 553.364955 
L 228.090909 546.32692 
L 235.136364 538.708152 
L 242.181818 530.491623 
L 249.227273 521.666006 
L 256.272727 512.226771 
L 263.318182 502.177215 
L 270.363636 491.529368 
L 277.409091 480.304706 
L 284.454545 468.534604 
L 291.5 456.260466 
L 298.545455 443.533496 
L 305.590909 430.414066 
L 312.636364 416.970697 
L 319.681818 403.278677 
L 326.727273 389.418363 
L 333.772727 375.473263 
L 340.818182 361.52798 
L 347.863636 347.666145 
L 354.909091 333.968425 
L 361.954545 320.510725 
L 369 307.362649 
L 376.045455 294.586277 
L 383.090909 282.235306 
L 390.136364 270.354532 
L 397.181818 258.979683 
L 404.227273 248.137552 
L 411.272727 237.846387 
L 418.318182 228.116485 
L 425.363636 218.950934 
L 432.409091 210.346452 
L 439.454545 202.294264 
L 446.5 194.780994 
L 453.545455 187.789524 
L 460.590909 181.299802 
L 467.636364 175.289587 
L 474.681818 169.735106 
L 481.727273 164.611638 
L 488.772727 159.894005 
L 495.818182 155.556989 
L 502.863636 151.575675 
L 509.909091 147.925718 
L 516.954545 144.583555 
L 524 141.526565 
L 531.045455 138.733176 
L 538.090909 136.182945 
L 545.136364 133.856593 
L 552.181818 131.736023 
L 559.227273 129.804316 
L 566.272727 128.045708 
L 573.318182 126.445559 
L 580.363636 124.990304 
L 587.409091 123.66741 
L 594.454545 122.465322 
L 601.5 121.373403 
L 608.545455 120.381881 
L 615.590909 119.481792 
L 622.636364 118.664922 
" style="fill:none;stroke:#e377c2;stroke-linecap:square;stroke-width:1.5;"/>
   </g>
   <g id="line2d_34">
    <path clip-path="url(#p56b3b9e121)" d="M 115.363636 605.290909 
L 122.409091 604.898268 
L 129.454545 603.874911 
L 136.5 602.373867 
L 143.545455 600.477154 
L 150.590909 598.223798 
L 157.636364 595.626555 
L 164.681818 592.681963 
L 171.727273 589.376435 
L 178.772727 585.690022 
L 185.818182 581.598829 
L 192.863636 577.076641 
L 199.909091 572.096144 
L 206.954545 566.629926 
L 214 560.651397 
L 221.045455 554.135703 
L 228.090909 547.060655 
L 235.136364 539.407704 
L 242.181818 531.162939 
L 249.227273 522.318098 
L 256.272727 512.871533 
L 263.318182 502.82912 
L 270.363636 492.205013 
L 277.409091 481.022233 
L 284.454545 469.312995 
L 291.5 457.118751 
L 298.545455 444.489902 
L 305.590909 431.48517 
L 312.636364 418.170614 
L 319.681818 404.618345 
L 326.727273 390.904969 
L 333.772727 377.10984 
L 340.818182 363.313206 
L 347.863636 349.594334 
L 354.909091 336.029723 
L 361.954545 322.691473 
L 369 309.645883 
L 376.045455 296.952335 
L 383.090909 284.662485 
L 390.136364 272.819768 
L 397.181818 261.45921 
L 404.227273 250.607514 
L 411.272727 240.283378 
L 418.318182 230.498009 
L 425.363636 221.255774 
L 432.409091 212.554944 
L 439.454545 204.388493 
L 446.5 196.744908 
L 453.545455 189.608983 
L 460.590909 182.962571 
L 467.636364 176.785282 
L 474.681818 171.05511 
L 481.727273 165.74899 
L 488.772727 160.843275 
L 495.818182 156.314144 
L 502.863636 152.137939 
L 509.909091 148.291435 
L 516.954545 144.752058 
L 524 141.498047 
L 531.045455 138.508573 
L 538.090909 135.763824 
L 545.136364 133.245054 
L 552.181818 130.934608 
L 559.227273 128.815925 
L 566.272727 126.873527 
L 573.318182 125.092993 
L 580.363636 123.460924 
L 587.409091 121.964899 
L 594.454545 120.593433 
L 601.5 119.33592 
L 608.545455 118.182589 
L 615.590909 117.124447 
L 622.636364 116.15323 
" style="fill:none;stroke:#7f7f7f;stroke-linecap:square;stroke-width:1.5;"/>
   </g>
   <g id="line2d_35">
    <path clip-path="url(#p56b3b9e121)" d="M 115.363636 605.290909 
L 122.409091 605.003453 
L 129.454545 604.222026 
L 136.5 603.026712 
L 143.545455 601.458306 
L 150.590909 599.531963 
L 157.636364 597.245891 
L 164.681818 594.586984 
L 171.727273 591.534537 
L 178.772727 588.062797 
L 185.818182 584.142824 
L 192.863636 579.743959 
L 199.909091 574.835096 
L 206.954545 569.385881 
L 214 563.367905 
L 221.045455 556.755912 
L 228.090909 549.529042 
L 235.136364 541.67207 
L 242.181818 533.176602 
L 249.227273 524.042177 
L 256.272727 514.277188 
L 263.318182 503.899575 
L 270.363636 492.937208 
L 277.409091 481.427901 
L 284.454545 469.419054 
L 291.5 456.966879 
L 298.545455 444.135271 
L 305.590909 430.994346 
L 312.636364 417.618749 
L 319.681818 404.085806 
L 326.727273 390.473635 
L 333.772727 376.859312 
L 340.818182 363.317179 
L 347.863636 349.917366 
L 354.909091 336.724584 
L 361.954545 323.797199 
L 369 311.186614 
L 376.045455 298.936923 
L 383.090909 287.084831 
L 390.136364 275.659785 
L 397.181818 264.684287 
L 404.227273 254.174344 
L 411.272727 244.14001 
L 418.318182 234.585989 
L 425.363636 225.512265 
L 432.409091 216.914735 
L 439.454545 208.785825 
L 446.5 201.115072 
L 453.545455 193.889665 
L 460.590909 187.09494 
L 467.636364 180.714821 
L 474.681818 174.732209 
L 481.727273 169.129325 
L 488.772727 163.887996 
L 495.818182 158.989908 
L 502.863636 154.41681 
L 509.909091 150.150683 
L 516.954545 146.173879 
L 524 142.469225 
L 531.045455 139.020114 
L 538.090909 135.810561 
L 545.136364 132.825248 
L 552.181818 130.049554 
L 559.227273 127.469572 
L 566.272727 125.07211 
L 573.318182 122.844693 
L 580.363636 120.775548 
L 587.409091 118.85359 
L 594.454545 117.068404 
L 601.5 115.410219 
L 608.545455 113.869884 
L 615.590909 112.438839 
L 622.636364 111.109091 
" style="fill:none;stroke:#bcbd22;stroke-linecap:square;stroke-width:1.5;"/>
   </g>
   <g id="line2d_36">
    <path clip-path="url(#p56b3b9e121)" d="M 115.363636 605.290909 
L 122.409091 602.904164 
L 129.454545 602.904164 
L 136.5 602.66549 
L 143.545455 602.66549 
L 150.590909 601.233443 
L 157.636364 599.801396 
L 164.681818 595.982604 
L 171.727273 585.003578 
L 178.772727 585.003578 
L 185.818182 585.003578 
L 192.863636 576.411297 
L 199.909091 567.341666 
L 206.954545 565.193596 
L 214 565.193596 
L 221.045455 557.317338 
L 228.090909 557.317338 
L 235.136364 544.428916 
L 242.181818 544.428916 
L 249.227273 544.428916 
L 256.272727 544.428916 
L 263.318182 498.84209 
L 270.363636 479.270783 
L 277.409091 457.31273 
L 284.454545 457.31273 
L 291.5 421.272884 
L 298.545455 421.272884 
L 305.590909 376.402081 
L 312.636364 376.402081 
L 319.681818 376.402081 
L 326.727273 376.402081 
L 333.772727 376.402081 
L 340.818182 376.402081 
L 347.863636 376.402081 
L 354.909091 376.402081 
L 361.954545 376.402081 
L 369 376.402081 
L 376.045455 376.402081 
L 383.090909 299.310223 
L 390.136364 230.810647 
L 397.181818 230.810647 
L 404.227273 230.810647 
L 411.272727 215.058131 
L 418.318182 215.058131 
L 425.363636 209.568618 
L 432.409091 209.568618 
L 439.454545 209.568618 
L 446.5 189.758636 
L 453.545455 180.927681 
L 460.590909 176.870214 
L 467.636364 168.755282 
L 474.681818 164.459141 
L 481.727273 162.072396 
L 488.772727 156.344209 
L 495.818182 153.002766 
L 502.863636 150.138672 
L 509.909091 150.138672 
L 516.954545 150.138672 
L 524 150.138672 
L 531.045455 138.920972 
L 538.090909 138.920972 
L 545.136364 134.624831 
L 552.181818 131.283388 
L 559.227273 131.283388 
L 566.272727 131.283388 
L 573.318182 131.283388 
L 580.363636 131.283388 
L 587.409091 131.283388 
L 594.454545 131.283388 
L 601.5 131.283388 
L 608.545455 131.283388 
L 615.590909 131.283388 
L 622.636364 131.283388 
" style="fill:none;stroke:#17becf;stroke-dasharray:14.8,6.4;stroke-dashoffset:0;stroke-width:4;"/>
   </g>
   <g id="patch_3">
    <path d="M 90 630 
L 90 86.4 
" style="fill:none;stroke:#000000;stroke-linecap:square;stroke-linejoin:miter;stroke-width:0.8;"/>
   </g>
   <g id="patch_4">
    <path d="M 648 630 
L 648 86.4 
" style="fill:none;stroke:#000000;stroke-linecap:square;stroke-linejoin:miter;stroke-width:0.8;"/>
   </g>
   <g id="patch_5">
    <path d="M 90 630 
L 648 630 
" style="fill:none;stroke:#000000;stroke-linecap:square;stroke-linejoin:miter;stroke-width:0.8;"/>
   </g>
   <g id="patch_6">
    <path d="M 90 86.4 
L 648 86.4 
" style="fill:none;stroke:#000000;stroke-linecap:square;stroke-linejoin:miter;stroke-width:0.8;"/>
   </g>
   <g id="text_16">
    <!-- South Sudan relative err =  -->
    <g transform="translate(286.950938 80.4)scale(0.12 -0.12)">
     <defs>
      <path d="M 53.515625 70.515625 
L 53.515625 60.890625 
Q 47.90625 63.578125 42.921875 64.890625 
Q 37.9375 66.21875 33.296875 66.21875 
Q 25.25 66.21875 20.875 63.09375 
Q 16.5 59.96875 16.5 54.203125 
Q 16.5 49.359375 19.40625 46.890625 
Q 22.3125 44.4375 30.421875 42.921875 
L 36.375 41.703125 
Q 47.40625 39.59375 52.65625 34.296875 
Q 57.90625 29 57.90625 20.125 
Q 57.90625 9.515625 50.796875 4.046875 
Q 43.703125 -1.421875 29.984375 -1.421875 
Q 24.8125 -1.421875 18.96875 -0.25 
Q 13.140625 0.921875 6.890625 3.21875 
L 6.890625 13.375 
Q 12.890625 10.015625 18.65625 8.296875 
Q 24.421875 6.59375 29.984375 6.59375 
Q 38.421875 6.59375 43.015625 9.90625 
Q 47.609375 13.234375 47.609375 19.390625 
Q 47.609375 24.75 44.3125 27.78125 
Q 41.015625 30.8125 33.5 32.328125 
L 27.484375 33.5 
Q 16.453125 35.6875 11.515625 40.375 
Q 6.59375 45.0625 6.59375 53.421875 
Q 6.59375 63.09375 13.40625 68.65625 
Q 20.21875 74.21875 32.171875 74.21875 
Q 37.3125 74.21875 42.625 73.28125 
Q 47.953125 72.359375 53.515625 70.515625 
z
" id="DejaVuSans-83"/>
      <path d="M 30.609375 48.390625 
Q 23.390625 48.390625 19.1875 42.75 
Q 14.984375 37.109375 14.984375 27.296875 
Q 14.984375 17.484375 19.15625 11.84375 
Q 23.34375 6.203125 30.609375 6.203125 
Q 37.796875 6.203125 41.984375 11.859375 
Q 46.1875 17.53125 46.1875 27.296875 
Q 46.1875 37.015625 41.984375 42.703125 
Q 37.796875 48.390625 30.609375 48.390625 
z
M 30.609375 56 
Q 42.328125 56 49.015625 48.375 
Q 55.71875 40.765625 55.71875 27.296875 
Q 55.71875 13.875 49.015625 6.21875 
Q 42.328125 -1.421875 30.609375 -1.421875 
Q 18.84375 -1.421875 12.171875 6.21875 
Q 5.515625 13.875 5.515625 27.296875 
Q 5.515625 40.765625 12.171875 48.375 
Q 18.84375 56 30.609375 56 
z
" id="DejaVuSans-111"/>
      <path d="M 54.890625 33.015625 
L 54.890625 0 
L 45.90625 0 
L 45.90625 32.71875 
Q 45.90625 40.484375 42.875 44.328125 
Q 39.84375 48.1875 33.796875 48.1875 
Q 26.515625 48.1875 22.3125 43.546875 
Q 18.109375 38.921875 18.109375 30.90625 
L 18.109375 0 
L 9.078125 0 
L 9.078125 75.984375 
L 18.109375 75.984375 
L 18.109375 46.1875 
Q 21.34375 51.125 25.703125 53.5625 
Q 30.078125 56 35.796875 56 
Q 45.21875 56 50.046875 50.171875 
Q 54.890625 44.34375 54.890625 33.015625 
z
" id="DejaVuSans-104"/>
      <path d="M 45.40625 46.390625 
L 45.40625 75.984375 
L 54.390625 75.984375 
L 54.390625 0 
L 45.40625 0 
L 45.40625 8.203125 
Q 42.578125 3.328125 38.25 0.953125 
Q 33.9375 -1.421875 27.875 -1.421875 
Q 17.96875 -1.421875 11.734375 6.484375 
Q 5.515625 14.40625 5.515625 27.296875 
Q 5.515625 40.1875 11.734375 48.09375 
Q 17.96875 56 27.875 56 
Q 33.9375 56 38.25 53.625 
Q 42.578125 51.265625 45.40625 46.390625 
z
M 14.796875 27.296875 
Q 14.796875 17.390625 18.875 11.75 
Q 22.953125 6.109375 30.078125 6.109375 
Q 37.203125 6.109375 41.296875 11.75 
Q 45.40625 17.390625 45.40625 27.296875 
Q 45.40625 37.203125 41.296875 42.84375 
Q 37.203125 48.484375 30.078125 48.484375 
Q 22.953125 48.484375 18.875 42.84375 
Q 14.796875 37.203125 14.796875 27.296875 
z
" id="DejaVuSans-100"/>
      <path d="M 54.890625 33.015625 
L 54.890625 0 
L 45.90625 0 
L 45.90625 32.71875 
Q 45.90625 40.484375 42.875 44.328125 
Q 39.84375 48.1875 33.796875 48.1875 
Q 26.515625 48.1875 22.3125 43.546875 
Q 18.109375 38.921875 18.109375 30.90625 
L 18.109375 0 
L 9.078125 0 
L 9.078125 54.6875 
L 18.109375 54.6875 
L 18.109375 46.1875 
Q 21.34375 51.125 25.703125 53.5625 
Q 30.078125 56 35.796875 56 
Q 45.21875 56 50.046875 50.171875 
Q 54.890625 44.34375 54.890625 33.015625 
z
" id="DejaVuSans-110"/>
      <path d="M 41.109375 46.296875 
Q 39.59375 47.171875 37.8125 47.578125 
Q 36.03125 48 33.890625 48 
Q 26.265625 48 22.1875 43.046875 
Q 18.109375 38.09375 18.109375 28.8125 
L 18.109375 0 
L 9.078125 0 
L 9.078125 54.6875 
L 18.109375 54.6875 
L 18.109375 46.1875 
Q 20.953125 51.171875 25.484375 53.578125 
Q 30.03125 56 36.53125 56 
Q 37.453125 56 38.578125 55.875 
Q 39.703125 55.765625 41.0625 55.515625 
z
" id="DejaVuSans-114"/>
      <path d="M 10.59375 45.40625 
L 73.1875 45.40625 
L 73.1875 37.203125 
L 10.59375 37.203125 
z
M 10.59375 25.484375 
L 73.1875 25.484375 
L 73.1875 17.1875 
L 10.59375 17.1875 
z
" id="DejaVuSans-61"/>
     </defs>
     <use xlink:href="#DejaVuSans-83"/>
     <use x="63.476562" xlink:href="#DejaVuSans-111"/>
     <use x="124.658203" xlink:href="#DejaVuSans-117"/>
     <use x="188.037109" xlink:href="#DejaVuSans-116"/>
     <use x="227.246094" xlink:href="#DejaVuSans-104"/>
     <use x="290.625" xlink:href="#DejaVuSans-32"/>
     <use x="322.412109" xlink:href="#DejaVuSans-83"/>
     <use x="385.888672" xlink:href="#DejaVuSans-117"/>
     <use x="449.267578" xlink:href="#DejaVuSans-100"/>
     <use x="512.744141" xlink:href="#DejaVuSans-97"/>
     <use x="574.023438" xlink:href="#DejaVuSans-110"/>
     <use x="637.402344" xlink:href="#DejaVuSans-32"/>
     <use x="669.189453" xlink:href="#DejaVuSans-114"/>
     <use x="708.052734" xlink:href="#DejaVuSans-101"/>
     <use x="769.576172" xlink:href="#DejaVuSans-108"/>
     <use x="797.359375" xlink:href="#DejaVuSans-97"/>
     <use x="858.638672" xlink:href="#DejaVuSans-116"/>
     <use x="897.847656" xlink:href="#DejaVuSans-105"/>
     <use x="925.630859" xlink:href="#DejaVuSans-118"/>
     <use x="984.810547" xlink:href="#DejaVuSans-101"/>
     <use x="1046.333984" xlink:href="#DejaVuSans-32"/>
     <use x="1078.121094" xlink:href="#DejaVuSans-101"/>
     <use x="1139.644531" xlink:href="#DejaVuSans-114"/>
     <use x="1179.007812" xlink:href="#DejaVuSans-114"/>
     <use x="1220.121094" xlink:href="#DejaVuSans-32"/>
     <use x="1251.908203" xlink:href="#DejaVuSans-61"/>
     <use x="1335.697266" xlink:href="#DejaVuSans-32"/>
    </g>
   </g>
   <g id="legend_1">
    <g id="patch_7">
     <path d="M 97 226.503125 
L 185.6 226.503125 
Q 187.6 226.503125 187.6 224.503125 
L 187.6 93.4 
Q 187.6 91.4 185.6 91.4 
L 97 91.4 
Q 95 91.4 95 93.4 
L 95 224.503125 
Q 95 226.503125 97 226.503125 
z
" style="fill:#ffffff;opacity:0.8;stroke:#cccccc;stroke-linejoin:miter;"/>
    </g>
    <g id="line2d_37">
     <path d="M 99 99.498438 
L 119 99.498438 
" style="fill:none;stroke:#1f77b4;stroke-linecap:square;stroke-width:1.5;"/>
    </g>
    <g id="line2d_38"/>
    <g id="text_17">
     <!-- SI -->
     <g transform="translate(127 102.998438)scale(0.1 -0.1)">
      <defs>
       <path d="M 9.8125 72.90625 
L 19.671875 72.90625 
L 19.671875 0 
L 9.8125 0 
z
" id="DejaVuSans-73"/>
      </defs>
      <use xlink:href="#DejaVuSans-83"/>
      <use x="63.476562" xlink:href="#DejaVuSans-73"/>
     </g>
    </g>
    <g id="line2d_39">
     <path d="M 99 114.176563 
L 119 114.176563 
" style="fill:none;stroke:#ff7f0e;stroke-linecap:square;stroke-width:1.5;"/>
    </g>
    <g id="line2d_40"/>
    <g id="text_18">
     <!-- BD -->
     <g transform="translate(127 117.676563)scale(0.1 -0.1)">
      <defs>
       <path d="M 19.671875 34.8125 
L 19.671875 8.109375 
L 35.5 8.109375 
Q 43.453125 8.109375 47.28125 11.40625 
Q 51.125 14.703125 51.125 21.484375 
Q 51.125 28.328125 47.28125 31.5625 
Q 43.453125 34.8125 35.5 34.8125 
z
M 19.671875 64.796875 
L 19.671875 42.828125 
L 34.28125 42.828125 
Q 41.5 42.828125 45.03125 45.53125 
Q 48.578125 48.25 48.578125 53.8125 
Q 48.578125 59.328125 45.03125 62.0625 
Q 41.5 64.796875 34.28125 64.796875 
z
M 9.8125 72.90625 
L 35.015625 72.90625 
Q 46.296875 72.90625 52.390625 68.21875 
Q 58.5 63.53125 58.5 54.890625 
Q 58.5 48.1875 55.375 44.234375 
Q 52.25 40.28125 46.1875 39.3125 
Q 53.46875 37.75 57.5 32.78125 
Q 61.53125 27.828125 61.53125 20.40625 
Q 61.53125 10.640625 54.890625 5.3125 
Q 48.25 0 35.984375 0 
L 9.8125 0 
z
" id="DejaVuSans-66"/>
      </defs>
      <use xlink:href="#DejaVuSans-66"/>
      <use x="68.603516" xlink:href="#DejaVuSans-68"/>
     </g>
    </g>
    <g id="line2d_41">
     <path d="M 99 128.854688 
L 119 128.854688 
" style="fill:none;stroke:#2ca02c;stroke-linecap:square;stroke-width:1.5;"/>
    </g>
    <g id="line2d_42"/>
    <g id="text_19">
     <!-- SIR -->
     <g transform="translate(127 132.354688)scale(0.1 -0.1)">
      <defs>
       <path d="M 44.390625 34.1875 
Q 47.5625 33.109375 50.5625 29.59375 
Q 53.5625 26.078125 56.59375 19.921875 
L 66.609375 0 
L 56 0 
L 46.6875 18.703125 
Q 43.0625 26.03125 39.671875 28.421875 
Q 36.28125 30.8125 30.421875 30.8125 
L 19.671875 30.8125 
L 19.671875 0 
L 9.8125 0 
L 9.8125 72.90625 
L 32.078125 72.90625 
Q 44.578125 72.90625 50.734375 67.671875 
Q 56.890625 62.453125 56.890625 51.90625 
Q 56.890625 45.015625 53.6875 40.46875 
Q 50.484375 35.9375 44.390625 34.1875 
z
M 19.671875 64.796875 
L 19.671875 38.921875 
L 32.078125 38.921875 
Q 39.203125 38.921875 42.84375 42.21875 
Q 46.484375 45.515625 46.484375 51.90625 
Q 46.484375 58.296875 42.84375 61.546875 
Q 39.203125 64.796875 32.078125 64.796875 
z
" id="DejaVuSans-82"/>
      </defs>
      <use xlink:href="#DejaVuSans-83"/>
      <use x="63.476562" xlink:href="#DejaVuSans-73"/>
      <use x="92.96875" xlink:href="#DejaVuSans-82"/>
     </g>
    </g>
    <g id="line2d_43">
     <path d="M 99 143.532812 
L 119 143.532812 
" style="fill:none;stroke:#d62728;stroke-linecap:square;stroke-width:1.5;"/>
    </g>
    <g id="line2d_44"/>
    <g id="text_20">
     <!-- eSIR -->
     <g transform="translate(127 147.032812)scale(0.1 -0.1)">
      <use xlink:href="#DejaVuSans-101"/>
      <use x="61.523438" xlink:href="#DejaVuSans-83"/>
      <use x="125" xlink:href="#DejaVuSans-73"/>
      <use x="154.492188" xlink:href="#DejaVuSans-82"/>
     </g>
    </g>
    <g id="line2d_45">
     <path d="M 99 158.210938 
L 119 158.210938 
" style="fill:none;stroke:#9467bd;stroke-linecap:square;stroke-width:1.5;"/>
    </g>
    <g id="line2d_46"/>
    <g id="text_21">
     <!-- SEIR -->
     <g transform="translate(127 161.710938)scale(0.1 -0.1)">
      <defs>
       <path d="M 9.8125 72.90625 
L 55.90625 72.90625 
L 55.90625 64.59375 
L 19.671875 64.59375 
L 19.671875 43.015625 
L 54.390625 43.015625 
L 54.390625 34.71875 
L 19.671875 34.71875 
L 19.671875 8.296875 
L 56.78125 8.296875 
L 56.78125 0 
L 9.8125 0 
z
" id="DejaVuSans-69"/>
      </defs>
      <use xlink:href="#DejaVuSans-83"/>
      <use x="63.476562" xlink:href="#DejaVuSans-69"/>
      <use x="126.660156" xlink:href="#DejaVuSans-73"/>
      <use x="156.152344" xlink:href="#DejaVuSans-82"/>
     </g>
    </g>
    <g id="line2d_47">
     <path d="M 99 172.889063 
L 119 172.889063 
" style="fill:none;stroke:#8c564b;stroke-linecap:square;stroke-width:1.5;"/>
    </g>
    <g id="line2d_48"/>
    <g id="text_22">
     <!-- eSEIR -->
     <g transform="translate(127 176.389063)scale(0.1 -0.1)">
      <use xlink:href="#DejaVuSans-101"/>
      <use x="61.523438" xlink:href="#DejaVuSans-83"/>
      <use x="125" xlink:href="#DejaVuSans-69"/>
      <use x="188.183594" xlink:href="#DejaVuSans-73"/>
      <use x="217.675781" xlink:href="#DejaVuSans-82"/>
     </g>
    </g>
    <g id="line2d_49">
     <path d="M 99 187.567188 
L 119 187.567188 
" style="fill:none;stroke:#e377c2;stroke-linecap:square;stroke-width:1.5;"/>
    </g>
    <g id="line2d_50"/>
    <g id="text_23">
     <!-- SEIUR -->
     <g transform="translate(127 191.067188)scale(0.1 -0.1)">
      <defs>
       <path d="M 8.6875 72.90625 
L 18.609375 72.90625 
L 18.609375 28.609375 
Q 18.609375 16.890625 22.84375 11.734375 
Q 27.09375 6.59375 36.625 6.59375 
Q 46.09375 6.59375 50.34375 11.734375 
Q 54.59375 16.890625 54.59375 28.609375 
L 54.59375 72.90625 
L 64.5 72.90625 
L 64.5 27.390625 
Q 64.5 13.140625 57.4375 5.859375 
Q 50.390625 -1.421875 36.625 -1.421875 
Q 22.796875 -1.421875 15.734375 5.859375 
Q 8.6875 13.140625 8.6875 27.390625 
z
" id="DejaVuSans-85"/>
      </defs>
      <use xlink:href="#DejaVuSans-83"/>
      <use x="63.476562" xlink:href="#DejaVuSans-69"/>
      <use x="126.660156" xlink:href="#DejaVuSans-73"/>
      <use x="156.152344" xlink:href="#DejaVuSans-85"/>
      <use x="229.345703" xlink:href="#DejaVuSans-82"/>
     </g>
    </g>
    <g id="line2d_51">
     <path d="M 99 202.245312 
L 119 202.245312 
" style="fill:none;stroke:#7f7f7f;stroke-linecap:square;stroke-width:1.5;"/>
    </g>
    <g id="line2d_52"/>
    <g id="text_24">
     <!-- eSEIUR -->
     <g transform="translate(127 205.745312)scale(0.1 -0.1)">
      <use xlink:href="#DejaVuSans-101"/>
      <use x="61.523438" xlink:href="#DejaVuSans-83"/>
      <use x="125" xlink:href="#DejaVuSans-69"/>
      <use x="188.183594" xlink:href="#DejaVuSans-73"/>
      <use x="217.675781" xlink:href="#DejaVuSans-85"/>
      <use x="290.869141" xlink:href="#DejaVuSans-82"/>
     </g>
    </g>
    <g id="line2d_53">
     <path d="M 99 216.923437 
L 119 216.923437 
" style="fill:none;stroke:#bcbd22;stroke-linecap:square;stroke-width:1.5;"/>
    </g>
    <g id="line2d_54"/>
    <g id="text_25">
     <!-- eSEIUR$^{range}$ -->
     <g transform="translate(127 220.423437)scale(0.1 -0.1)">
      <defs>
       <path d="M 44.578125 46.390625 
Q 43.21875 47.125 41.453125 47.515625 
Q 39.703125 47.90625 37.703125 47.90625 
Q 30.515625 47.90625 25.140625 42.453125 
Q 19.78125 37.015625 18.015625 27.875 
L 12.5 0 
L 3.515625 0 
L 14.203125 54.6875 
L 23.1875 54.6875 
L 21.484375 46.1875 
Q 25.046875 50.921875 30 53.453125 
Q 34.96875 56 40.578125 56 
Q 42.046875 56 43.453125 55.828125 
Q 44.875 55.671875 46.296875 55.28125 
z
" id="DejaVuSans-Oblique-114"/>
       <path d="M 53.71875 31.203125 
L 47.609375 0 
L 38.625 0 
L 40.28125 8.296875 
Q 36.328125 3.421875 31.265625 1 
Q 26.21875 -1.421875 20.015625 -1.421875 
Q 13.03125 -1.421875 8.5625 2.84375 
Q 4.109375 7.125 4.109375 13.8125 
Q 4.109375 23.390625 11.75 28.953125 
Q 19.390625 34.515625 32.8125 34.515625 
L 45.3125 34.515625 
L 45.796875 36.921875 
Q 45.90625 37.3125 45.953125 37.765625 
Q 46 38.234375 46 39.203125 
Q 46 43.5625 42.453125 45.96875 
Q 38.921875 48.390625 32.515625 48.390625 
Q 28.125 48.390625 23.5 47.265625 
Q 18.890625 46.140625 14.015625 43.890625 
L 15.578125 52.203125 
Q 20.65625 54.109375 25.515625 55.046875 
Q 30.375 56 34.90625 56 
Q 44.578125 56 49.625 51.796875 
Q 54.6875 47.609375 54.6875 39.59375 
Q 54.6875 37.984375 54.4375 35.8125 
Q 54.203125 33.640625 53.71875 31.203125 
z
M 44 27.484375 
L 35.015625 27.484375 
Q 23.96875 27.484375 18.671875 24.53125 
Q 13.375 21.578125 13.375 15.375 
Q 13.375 11.078125 16.078125 8.640625 
Q 18.796875 6.203125 23.578125 6.203125 
Q 30.90625 6.203125 36.375 11.453125 
Q 41.84375 16.703125 43.609375 25.484375 
z
" id="DejaVuSans-Oblique-97"/>
       <path d="M 55.71875 33.015625 
L 49.3125 0 
L 40.28125 0 
L 46.6875 32.671875 
Q 47.125 34.96875 47.359375 36.71875 
Q 47.609375 38.484375 47.609375 39.5 
Q 47.609375 43.609375 45.015625 45.890625 
Q 42.4375 48.1875 37.796875 48.1875 
Q 30.5625 48.1875 25.34375 43.375 
Q 20.125 38.578125 18.5 30.328125 
L 12.5 0 
L 3.515625 0 
L 14.109375 54.6875 
L 23.09375 54.6875 
L 21.296875 46.09375 
Q 25.046875 50.828125 30.3125 53.40625 
Q 35.59375 56 41.40625 56 
Q 48.640625 56 52.609375 52.09375 
Q 56.59375 48.1875 56.59375 41.109375 
Q 56.59375 39.359375 56.375 37.359375 
Q 56.15625 35.359375 55.71875 33.015625 
z
" id="DejaVuSans-Oblique-110"/>
       <path d="M 59.625 54.6875 
L 50.296875 6.78125 
Q 47.609375 -7.125 40.015625 -13.953125 
Q 32.421875 -20.796875 19.578125 -20.796875 
Q 14.84375 -20.796875 10.78125 -20.09375 
Q 6.734375 -19.390625 3.21875 -17.921875 
L 4.890625 -9.1875 
Q 8.203125 -11.328125 11.90625 -12.34375 
Q 15.625 -13.375 19.828125 -13.375 
Q 28.375 -13.375 33.859375 -8.703125 
Q 39.359375 -4.046875 41.109375 4.6875 
L 41.890625 8.796875 
Q 38.140625 4.5 33.15625 2.25 
Q 28.171875 0 22.40625 0 
Q 14.109375 0 9.34375 5.484375 
Q 4.59375 10.984375 4.59375 20.609375 
Q 4.59375 28.171875 7.46875 35.421875 
Q 10.359375 42.671875 15.578125 48.296875 
Q 19.046875 52 23.65625 54 
Q 28.265625 56 33.296875 56 
Q 38.8125 56 42.90625 53.4375 
Q 47.015625 50.875 49.03125 46.1875 
L 50.59375 54.6875 
z
M 46.09375 34.625 
Q 46.09375 41.265625 42.96875 44.875 
Q 39.84375 48.484375 34.078125 48.484375 
Q 30.515625 48.484375 27.296875 47.0625 
Q 24.078125 45.65625 21.78125 43.109375 
Q 18.0625 38.921875 15.984375 33.234375 
Q 13.921875 27.546875 13.921875 21.484375 
Q 13.921875 14.75 17.0625 11.125 
Q 20.21875 7.515625 26.125 7.515625 
Q 34.671875 7.515625 40.375 15.25 
Q 46.09375 23 46.09375 34.625 
z
" id="DejaVuSans-Oblique-103"/>
       <path d="M 48.09375 32.234375 
Q 48.25 33.015625 48.3125 33.84375 
Q 48.390625 34.671875 48.390625 35.5 
Q 48.390625 41.453125 44.890625 44.921875 
Q 41.40625 48.390625 35.40625 48.390625 
Q 28.71875 48.390625 23.578125 44.15625 
Q 18.453125 39.9375 15.828125 32.171875 
z
M 55.90625 25.203125 
L 14.109375 25.203125 
Q 13.8125 23.34375 13.71875 22.265625 
Q 13.625 21.1875 13.625 20.40625 
Q 13.625 13.625 17.796875 9.90625 
Q 21.96875 6.203125 29.59375 6.203125 
Q 35.453125 6.203125 40.671875 7.515625 
Q 45.90625 8.84375 50.390625 11.375 
L 48.6875 2.484375 
Q 43.84375 0.53125 38.6875 -0.4375 
Q 33.546875 -1.421875 28.21875 -1.421875 
Q 16.84375 -1.421875 10.71875 4.015625 
Q 4.59375 9.46875 4.59375 19.484375 
Q 4.59375 28.03125 7.640625 35.375 
Q 10.6875 42.71875 16.609375 48.484375 
Q 20.40625 52.09375 25.65625 54.046875 
Q 30.90625 56 36.8125 56 
Q 46.09375 56 51.578125 50.4375 
Q 57.078125 44.875 57.078125 35.5 
Q 57.078125 33.25 56.78125 30.6875 
Q 56.5 28.125 55.90625 25.203125 
z
" id="DejaVuSans-Oblique-101"/>
      </defs>
      <use transform="translate(0 0.51875)" xlink:href="#DejaVuSans-101"/>
      <use transform="translate(61.523438 0.51875)" xlink:href="#DejaVuSans-83"/>
      <use transform="translate(125 0.51875)" xlink:href="#DejaVuSans-69"/>
      <use transform="translate(188.183594 0.51875)" xlink:href="#DejaVuSans-73"/>
      <use transform="translate(217.675781 0.51875)" xlink:href="#DejaVuSans-85"/>
      <use transform="translate(288.619141 0.51875)" xlink:href="#DejaVuSans-82"/>
      <use transform="translate(359.058594 38.8)scale(0.7)" xlink:href="#DejaVuSans-Oblique-114"/>
      <use transform="translate(387.837891 38.8)scale(0.7)" xlink:href="#DejaVuSans-Oblique-97"/>
      <use transform="translate(430.733398 38.8)scale(0.7)" xlink:href="#DejaVuSans-Oblique-110"/>
      <use transform="translate(475.098633 38.8)scale(0.7)" xlink:href="#DejaVuSans-Oblique-103"/>
      <use transform="translate(519.532227 38.8)scale(0.7)" xlink:href="#DejaVuSans-Oblique-101"/>
     </g>
    </g>
   </g>
  </g>
 </g>
 <defs>
  <clipPath id="p56b3b9e121">
   <rect height="543.6" width="558" x="90" y="86.4"/>
  </clipPath>
 </defs>
</svg>
