<?xml version="1.0" encoding="utf-8" standalone="no"?>
<!DOCTYPE svg PUBLIC "-//W3C//DTD SVG 1.1//EN"
  "http://www.w3.org/Graphics/SVG/1.1/DTD/svg11.dtd">
<!-- Created with matplotlib (https://matplotlib.org/) -->
<svg height="720pt" version="1.1" viewBox="0 0 720 720" width="720pt" xmlns="http://www.w3.org/2000/svg" xmlns:xlink="http://www.w3.org/1999/xlink">
 <metadata>
  <rdf:RDF xmlns:cc="http://creativecommons.org/ns#" xmlns:dc="http://purl.org/dc/elements/1.1/" xmlns:rdf="http://www.w3.org/1999/02/22-rdf-syntax-ns#">
   <cc:Work>
    <dc:type rdf:resource="http://purl.org/dc/dcmitype/StillImage"/>
    <dc:date>2022-07-13T18:53:47.941958</dc:date>
    <dc:format>image/svg+xml</dc:format>
    <dc:creator>
     <cc:Agent>
      <dc:title>Matplotlib v3.3.2, https://matplotlib.org/</dc:title>
     </cc:Agent>
    </dc:creator>
   </cc:Work>
  </rdf:RDF>
 </metadata>
 <defs>
  <style type="text/css">*{stroke-linecap:butt;stroke-linejoin:round;}</style>
 </defs>
 <g id="figure_1">
  <g id="patch_1">
   <path d="M 0 720 
L 720 720 
L 720 0 
L 0 0 
z
" style="fill:none;"/>
  </g>
  <g id="axes_1">
   <g id="patch_2">
    <path d="M 90 630 
L 648 630 
L 648 86.4 
L 90 86.4 
z
" style="fill:#ffffff;"/>
   </g>
   <g id="matplotlib.axis_1">
    <g id="xtick_1">
     <g id="line2d_1">
      <path clip-path="url(#pa34bda055b)" d="M 115.363636 630 
L 115.363636 86.4 
" style="fill:none;stroke:#b0b0b0;stroke-linecap:square;stroke-width:0.8;"/>
     </g>
     <g id="line2d_2">
      <defs>
       <path d="M 0 0 
L 0 3.5 
" id="m80fa132115" style="stroke:#000000;stroke-width:0.8;"/>
      </defs>
      <g>
       <use style="stroke:#000000;stroke-width:0.8;" x="115.363636" xlink:href="#m80fa132115" y="630"/>
      </g>
     </g>
     <g id="text_1">
      <!-- 0 -->
      <g transform="translate(112.182386 644.598438)scale(0.1 -0.1)">
       <defs>
        <path d="M 31.78125 66.40625 
Q 24.171875 66.40625 20.328125 58.90625 
Q 16.5 51.421875 16.5 36.375 
Q 16.5 21.390625 20.328125 13.890625 
Q 24.171875 6.390625 31.78125 6.390625 
Q 39.453125 6.390625 43.28125 13.890625 
Q 47.125 21.390625 47.125 36.375 
Q 47.125 51.421875 43.28125 58.90625 
Q 39.453125 66.40625 31.78125 66.40625 
z
M 31.78125 74.21875 
Q 44.046875 74.21875 50.515625 64.515625 
Q 56.984375 54.828125 56.984375 36.375 
Q 56.984375 17.96875 50.515625 8.265625 
Q 44.046875 -1.421875 31.78125 -1.421875 
Q 19.53125 -1.421875 13.0625 8.265625 
Q 6.59375 17.96875 6.59375 36.375 
Q 6.59375 54.828125 13.0625 64.515625 
Q 19.53125 74.21875 31.78125 74.21875 
z
" id="DejaVuSans-48"/>
       </defs>
       <use xlink:href="#DejaVuSans-48"/>
      </g>
     </g>
    </g>
    <g id="xtick_2">
     <g id="line2d_3">
      <path clip-path="url(#pa34bda055b)" d="M 190.850649 630 
L 190.850649 86.4 
" style="fill:none;stroke:#b0b0b0;stroke-linecap:square;stroke-width:0.8;"/>
     </g>
     <g id="line2d_4">
      <g>
       <use style="stroke:#000000;stroke-width:0.8;" x="190.850649" xlink:href="#m80fa132115" y="630"/>
      </g>
     </g>
     <g id="text_2">
      <!-- 25 -->
      <g transform="translate(184.488149 644.598438)scale(0.1 -0.1)">
       <defs>
        <path d="M 19.1875 8.296875 
L 53.609375 8.296875 
L 53.609375 0 
L 7.328125 0 
L 7.328125 8.296875 
Q 12.9375 14.109375 22.625 23.890625 
Q 32.328125 33.6875 34.8125 36.53125 
Q 39.546875 41.84375 41.421875 45.53125 
Q 43.3125 49.21875 43.3125 52.78125 
Q 43.3125 58.59375 39.234375 62.25 
Q 35.15625 65.921875 28.609375 65.921875 
Q 23.96875 65.921875 18.8125 64.3125 
Q 13.671875 62.703125 7.8125 59.421875 
L 7.8125 69.390625 
Q 13.765625 71.78125 18.9375 73 
Q 24.125 74.21875 28.421875 74.21875 
Q 39.75 74.21875 46.484375 68.546875 
Q 53.21875 62.890625 53.21875 53.421875 
Q 53.21875 48.921875 51.53125 44.890625 
Q 49.859375 40.875 45.40625 35.40625 
Q 44.1875 33.984375 37.640625 27.21875 
Q 31.109375 20.453125 19.1875 8.296875 
z
" id="DejaVuSans-50"/>
        <path d="M 10.796875 72.90625 
L 49.515625 72.90625 
L 49.515625 64.59375 
L 19.828125 64.59375 
L 19.828125 46.734375 
Q 21.96875 47.46875 24.109375 47.828125 
Q 26.265625 48.1875 28.421875 48.1875 
Q 40.625 48.1875 47.75 41.5 
Q 54.890625 34.8125 54.890625 23.390625 
Q 54.890625 11.625 47.5625 5.09375 
Q 40.234375 -1.421875 26.90625 -1.421875 
Q 22.3125 -1.421875 17.546875 -0.640625 
Q 12.796875 0.140625 7.71875 1.703125 
L 7.71875 11.625 
Q 12.109375 9.234375 16.796875 8.0625 
Q 21.484375 6.890625 26.703125 6.890625 
Q 35.15625 6.890625 40.078125 11.328125 
Q 45.015625 15.765625 45.015625 23.390625 
Q 45.015625 31 40.078125 35.4375 
Q 35.15625 39.890625 26.703125 39.890625 
Q 22.75 39.890625 18.8125 39.015625 
Q 14.890625 38.140625 10.796875 36.28125 
z
" id="DejaVuSans-53"/>
       </defs>
       <use xlink:href="#DejaVuSans-50"/>
       <use x="63.623047" xlink:href="#DejaVuSans-53"/>
      </g>
     </g>
    </g>
    <g id="xtick_3">
     <g id="line2d_5">
      <path clip-path="url(#pa34bda055b)" d="M 266.337662 630 
L 266.337662 86.4 
" style="fill:none;stroke:#b0b0b0;stroke-linecap:square;stroke-width:0.8;"/>
     </g>
     <g id="line2d_6">
      <g>
       <use style="stroke:#000000;stroke-width:0.8;" x="266.337662" xlink:href="#m80fa132115" y="630"/>
      </g>
     </g>
     <g id="text_3">
      <!-- 50 -->
      <g transform="translate(259.975162 644.598438)scale(0.1 -0.1)">
       <use xlink:href="#DejaVuSans-53"/>
       <use x="63.623047" xlink:href="#DejaVuSans-48"/>
      </g>
     </g>
    </g>
    <g id="xtick_4">
     <g id="line2d_7">
      <path clip-path="url(#pa34bda055b)" d="M 341.824675 630 
L 341.824675 86.4 
" style="fill:none;stroke:#b0b0b0;stroke-linecap:square;stroke-width:0.8;"/>
     </g>
     <g id="line2d_8">
      <g>
       <use style="stroke:#000000;stroke-width:0.8;" x="341.824675" xlink:href="#m80fa132115" y="630"/>
      </g>
     </g>
     <g id="text_4">
      <!-- 75 -->
      <g transform="translate(335.462175 644.598438)scale(0.1 -0.1)">
       <defs>
        <path d="M 8.203125 72.90625 
L 55.078125 72.90625 
L 55.078125 68.703125 
L 28.609375 0 
L 18.3125 0 
L 43.21875 64.59375 
L 8.203125 64.59375 
z
" id="DejaVuSans-55"/>
       </defs>
       <use xlink:href="#DejaVuSans-55"/>
       <use x="63.623047" xlink:href="#DejaVuSans-53"/>
      </g>
     </g>
    </g>
    <g id="xtick_5">
     <g id="line2d_9">
      <path clip-path="url(#pa34bda055b)" d="M 417.311688 630 
L 417.311688 86.4 
" style="fill:none;stroke:#b0b0b0;stroke-linecap:square;stroke-width:0.8;"/>
     </g>
     <g id="line2d_10">
      <g>
       <use style="stroke:#000000;stroke-width:0.8;" x="417.311688" xlink:href="#m80fa132115" y="630"/>
      </g>
     </g>
     <g id="text_5">
      <!-- 100 -->
      <g transform="translate(407.767938 644.598438)scale(0.1 -0.1)">
       <defs>
        <path d="M 12.40625 8.296875 
L 28.515625 8.296875 
L 28.515625 63.921875 
L 10.984375 60.40625 
L 10.984375 69.390625 
L 28.421875 72.90625 
L 38.28125 72.90625 
L 38.28125 8.296875 
L 54.390625 8.296875 
L 54.390625 0 
L 12.40625 0 
z
" id="DejaVuSans-49"/>
       </defs>
       <use xlink:href="#DejaVuSans-49"/>
       <use x="63.623047" xlink:href="#DejaVuSans-48"/>
       <use x="127.246094" xlink:href="#DejaVuSans-48"/>
      </g>
     </g>
    </g>
    <g id="xtick_6">
     <g id="line2d_11">
      <path clip-path="url(#pa34bda055b)" d="M 492.798701 630 
L 492.798701 86.4 
" style="fill:none;stroke:#b0b0b0;stroke-linecap:square;stroke-width:0.8;"/>
     </g>
     <g id="line2d_12">
      <g>
       <use style="stroke:#000000;stroke-width:0.8;" x="492.798701" xlink:href="#m80fa132115" y="630"/>
      </g>
     </g>
     <g id="text_6">
      <!-- 125 -->
      <g transform="translate(483.254951 644.598438)scale(0.1 -0.1)">
       <use xlink:href="#DejaVuSans-49"/>
       <use x="63.623047" xlink:href="#DejaVuSans-50"/>
       <use x="127.246094" xlink:href="#DejaVuSans-53"/>
      </g>
     </g>
    </g>
    <g id="xtick_7">
     <g id="line2d_13">
      <path clip-path="url(#pa34bda055b)" d="M 568.285714 630 
L 568.285714 86.4 
" style="fill:none;stroke:#b0b0b0;stroke-linecap:square;stroke-width:0.8;"/>
     </g>
     <g id="line2d_14">
      <g>
       <use style="stroke:#000000;stroke-width:0.8;" x="568.285714" xlink:href="#m80fa132115" y="630"/>
      </g>
     </g>
     <g id="text_7">
      <!-- 150 -->
      <g transform="translate(558.741964 644.598438)scale(0.1 -0.1)">
       <use xlink:href="#DejaVuSans-49"/>
       <use x="63.623047" xlink:href="#DejaVuSans-53"/>
       <use x="127.246094" xlink:href="#DejaVuSans-48"/>
      </g>
     </g>
    </g>
    <g id="xtick_8">
     <g id="line2d_15">
      <path clip-path="url(#pa34bda055b)" d="M 643.772727 630 
L 643.772727 86.4 
" style="fill:none;stroke:#b0b0b0;stroke-linecap:square;stroke-width:0.8;"/>
     </g>
     <g id="line2d_16">
      <g>
       <use style="stroke:#000000;stroke-width:0.8;" x="643.772727" xlink:href="#m80fa132115" y="630"/>
      </g>
     </g>
     <g id="text_8">
      <!-- 175 -->
      <g transform="translate(634.228977 644.598438)scale(0.1 -0.1)">
       <use xlink:href="#DejaVuSans-49"/>
       <use x="63.623047" xlink:href="#DejaVuSans-55"/>
       <use x="127.246094" xlink:href="#DejaVuSans-53"/>
      </g>
     </g>
    </g>
    <g id="text_9">
     <!-- Days -->
     <g transform="translate(356.521875 658.276562)scale(0.1 -0.1)">
      <defs>
       <path d="M 19.671875 64.796875 
L 19.671875 8.109375 
L 31.59375 8.109375 
Q 46.6875 8.109375 53.6875 14.9375 
Q 60.6875 21.78125 60.6875 36.53125 
Q 60.6875 51.171875 53.6875 57.984375 
Q 46.6875 64.796875 31.59375 64.796875 
z
M 9.8125 72.90625 
L 30.078125 72.90625 
Q 51.265625 72.90625 61.171875 64.09375 
Q 71.09375 55.28125 71.09375 36.53125 
Q 71.09375 17.671875 61.125 8.828125 
Q 51.171875 0 30.078125 0 
L 9.8125 0 
z
" id="DejaVuSans-68"/>
       <path d="M 34.28125 27.484375 
Q 23.390625 27.484375 19.1875 25 
Q 14.984375 22.515625 14.984375 16.5 
Q 14.984375 11.71875 18.140625 8.90625 
Q 21.296875 6.109375 26.703125 6.109375 
Q 34.1875 6.109375 38.703125 11.40625 
Q 43.21875 16.703125 43.21875 25.484375 
L 43.21875 27.484375 
z
M 52.203125 31.203125 
L 52.203125 0 
L 43.21875 0 
L 43.21875 8.296875 
Q 40.140625 3.328125 35.546875 0.953125 
Q 30.953125 -1.421875 24.3125 -1.421875 
Q 15.921875 -1.421875 10.953125 3.296875 
Q 6 8.015625 6 15.921875 
Q 6 25.140625 12.171875 29.828125 
Q 18.359375 34.515625 30.609375 34.515625 
L 43.21875 34.515625 
L 43.21875 35.40625 
Q 43.21875 41.609375 39.140625 45 
Q 35.0625 48.390625 27.6875 48.390625 
Q 23 48.390625 18.546875 47.265625 
Q 14.109375 46.140625 10.015625 43.890625 
L 10.015625 52.203125 
Q 14.9375 54.109375 19.578125 55.046875 
Q 24.21875 56 28.609375 56 
Q 40.484375 56 46.34375 49.84375 
Q 52.203125 43.703125 52.203125 31.203125 
z
" id="DejaVuSans-97"/>
       <path d="M 32.171875 -5.078125 
Q 28.375 -14.84375 24.75 -17.8125 
Q 21.140625 -20.796875 15.09375 -20.796875 
L 7.90625 -20.796875 
L 7.90625 -13.28125 
L 13.1875 -13.28125 
Q 16.890625 -13.28125 18.9375 -11.515625 
Q 21 -9.765625 23.484375 -3.21875 
L 25.09375 0.875 
L 2.984375 54.6875 
L 12.5 54.6875 
L 29.59375 11.921875 
L 46.6875 54.6875 
L 56.203125 54.6875 
z
" id="DejaVuSans-121"/>
       <path d="M 44.28125 53.078125 
L 44.28125 44.578125 
Q 40.484375 46.53125 36.375 47.5 
Q 32.28125 48.484375 27.875 48.484375 
Q 21.1875 48.484375 17.84375 46.4375 
Q 14.5 44.390625 14.5 40.28125 
Q 14.5 37.15625 16.890625 35.375 
Q 19.28125 33.59375 26.515625 31.984375 
L 29.59375 31.296875 
Q 39.15625 29.25 43.1875 25.515625 
Q 47.21875 21.78125 47.21875 15.09375 
Q 47.21875 7.46875 41.1875 3.015625 
Q 35.15625 -1.421875 24.609375 -1.421875 
Q 20.21875 -1.421875 15.453125 -0.5625 
Q 10.6875 0.296875 5.421875 2 
L 5.421875 11.28125 
Q 10.40625 8.6875 15.234375 7.390625 
Q 20.0625 6.109375 24.8125 6.109375 
Q 31.15625 6.109375 34.5625 8.28125 
Q 37.984375 10.453125 37.984375 14.40625 
Q 37.984375 18.0625 35.515625 20.015625 
Q 33.0625 21.96875 24.703125 23.78125 
L 21.578125 24.515625 
Q 13.234375 26.265625 9.515625 29.90625 
Q 5.8125 33.546875 5.8125 39.890625 
Q 5.8125 47.609375 11.28125 51.796875 
Q 16.75 56 26.8125 56 
Q 31.78125 56 36.171875 55.265625 
Q 40.578125 54.546875 44.28125 53.078125 
z
" id="DejaVuSans-115"/>
      </defs>
      <use xlink:href="#DejaVuSans-68"/>
      <use x="77.001953" xlink:href="#DejaVuSans-97"/>
      <use x="138.28125" xlink:href="#DejaVuSans-121"/>
      <use x="197.460938" xlink:href="#DejaVuSans-115"/>
     </g>
    </g>
   </g>
   <g id="matplotlib.axis_2">
    <g id="ytick_1">
     <g id="line2d_17">
      <path clip-path="url(#pa34bda055b)" d="M 90 605.58034 
L 648 605.58034 
" style="fill:none;stroke:#b0b0b0;stroke-linecap:square;stroke-width:0.8;"/>
     </g>
     <g id="line2d_18">
      <defs>
       <path d="M 0 0 
L -3.5 0 
" id="m8fdee343fa" style="stroke:#000000;stroke-width:0.8;"/>
      </defs>
      <g>
       <use style="stroke:#000000;stroke-width:0.8;" x="90" xlink:href="#m8fdee343fa" y="605.58034"/>
      </g>
     </g>
     <g id="text_10">
      <!-- 0 -->
      <g transform="translate(76.6375 609.379559)scale(0.1 -0.1)">
       <use xlink:href="#DejaVuSans-48"/>
      </g>
     </g>
    </g>
    <g id="ytick_2">
     <g id="line2d_19">
      <path clip-path="url(#pa34bda055b)" d="M 90 494.260571 
L 648 494.260571 
" style="fill:none;stroke:#b0b0b0;stroke-linecap:square;stroke-width:0.8;"/>
     </g>
     <g id="line2d_20">
      <g>
       <use style="stroke:#000000;stroke-width:0.8;" x="90" xlink:href="#m8fdee343fa" y="494.260571"/>
      </g>
     </g>
     <g id="text_11">
      <!-- 10000 -->
      <g transform="translate(51.1875 498.05979)scale(0.1 -0.1)">
       <use xlink:href="#DejaVuSans-49"/>
       <use x="63.623047" xlink:href="#DejaVuSans-48"/>
       <use x="127.246094" xlink:href="#DejaVuSans-48"/>
       <use x="190.869141" xlink:href="#DejaVuSans-48"/>
       <use x="254.492188" xlink:href="#DejaVuSans-48"/>
      </g>
     </g>
    </g>
    <g id="ytick_3">
     <g id="line2d_21">
      <path clip-path="url(#pa34bda055b)" d="M 90 382.940802 
L 648 382.940802 
" style="fill:none;stroke:#b0b0b0;stroke-linecap:square;stroke-width:0.8;"/>
     </g>
     <g id="line2d_22">
      <g>
       <use style="stroke:#000000;stroke-width:0.8;" x="90" xlink:href="#m8fdee343fa" y="382.940802"/>
      </g>
     </g>
     <g id="text_12">
      <!-- 20000 -->
      <g transform="translate(51.1875 386.740021)scale(0.1 -0.1)">
       <use xlink:href="#DejaVuSans-50"/>
       <use x="63.623047" xlink:href="#DejaVuSans-48"/>
       <use x="127.246094" xlink:href="#DejaVuSans-48"/>
       <use x="190.869141" xlink:href="#DejaVuSans-48"/>
       <use x="254.492188" xlink:href="#DejaVuSans-48"/>
      </g>
     </g>
    </g>
    <g id="ytick_4">
     <g id="line2d_23">
      <path clip-path="url(#pa34bda055b)" d="M 90 271.621033 
L 648 271.621033 
" style="fill:none;stroke:#b0b0b0;stroke-linecap:square;stroke-width:0.8;"/>
     </g>
     <g id="line2d_24">
      <g>
       <use style="stroke:#000000;stroke-width:0.8;" x="90" xlink:href="#m8fdee343fa" y="271.621033"/>
      </g>
     </g>
     <g id="text_13">
      <!-- 30000 -->
      <g transform="translate(51.1875 275.420252)scale(0.1 -0.1)">
       <defs>
        <path d="M 40.578125 39.3125 
Q 47.65625 37.796875 51.625 33 
Q 55.609375 28.21875 55.609375 21.1875 
Q 55.609375 10.40625 48.1875 4.484375 
Q 40.765625 -1.421875 27.09375 -1.421875 
Q 22.515625 -1.421875 17.65625 -0.515625 
Q 12.796875 0.390625 7.625 2.203125 
L 7.625 11.71875 
Q 11.71875 9.328125 16.59375 8.109375 
Q 21.484375 6.890625 26.8125 6.890625 
Q 36.078125 6.890625 40.9375 10.546875 
Q 45.796875 14.203125 45.796875 21.1875 
Q 45.796875 27.640625 41.28125 31.265625 
Q 36.765625 34.90625 28.71875 34.90625 
L 20.21875 34.90625 
L 20.21875 43.015625 
L 29.109375 43.015625 
Q 36.375 43.015625 40.234375 45.921875 
Q 44.09375 48.828125 44.09375 54.296875 
Q 44.09375 59.90625 40.109375 62.90625 
Q 36.140625 65.921875 28.71875 65.921875 
Q 24.65625 65.921875 20.015625 65.03125 
Q 15.375 64.15625 9.8125 62.3125 
L 9.8125 71.09375 
Q 15.4375 72.65625 20.34375 73.4375 
Q 25.25 74.21875 29.59375 74.21875 
Q 40.828125 74.21875 47.359375 69.109375 
Q 53.90625 64.015625 53.90625 55.328125 
Q 53.90625 49.265625 50.4375 45.09375 
Q 46.96875 40.921875 40.578125 39.3125 
z
" id="DejaVuSans-51"/>
       </defs>
       <use xlink:href="#DejaVuSans-51"/>
       <use x="63.623047" xlink:href="#DejaVuSans-48"/>
       <use x="127.246094" xlink:href="#DejaVuSans-48"/>
       <use x="190.869141" xlink:href="#DejaVuSans-48"/>
       <use x="254.492188" xlink:href="#DejaVuSans-48"/>
      </g>
     </g>
    </g>
    <g id="ytick_5">
     <g id="line2d_25">
      <path clip-path="url(#pa34bda055b)" d="M 90 160.301264 
L 648 160.301264 
" style="fill:none;stroke:#b0b0b0;stroke-linecap:square;stroke-width:0.8;"/>
     </g>
     <g id="line2d_26">
      <g>
       <use style="stroke:#000000;stroke-width:0.8;" x="90" xlink:href="#m8fdee343fa" y="160.301264"/>
      </g>
     </g>
     <g id="text_14">
      <!-- 40000 -->
      <g transform="translate(51.1875 164.100483)scale(0.1 -0.1)">
       <defs>
        <path d="M 37.796875 64.3125 
L 12.890625 25.390625 
L 37.796875 25.390625 
z
M 35.203125 72.90625 
L 47.609375 72.90625 
L 47.609375 25.390625 
L 58.015625 25.390625 
L 58.015625 17.1875 
L 47.609375 17.1875 
L 47.609375 0 
L 37.796875 0 
L 37.796875 17.1875 
L 4.890625 17.1875 
L 4.890625 26.703125 
z
" id="DejaVuSans-52"/>
       </defs>
       <use xlink:href="#DejaVuSans-52"/>
       <use x="63.623047" xlink:href="#DejaVuSans-48"/>
       <use x="127.246094" xlink:href="#DejaVuSans-48"/>
       <use x="190.869141" xlink:href="#DejaVuSans-48"/>
       <use x="254.492188" xlink:href="#DejaVuSans-48"/>
      </g>
     </g>
    </g>
    <g id="text_15">
     <!-- Cumulative cases -->
     <g transform="translate(45.107812 402.425781)rotate(-90)scale(0.1 -0.1)">
      <defs>
       <path d="M 64.40625 67.28125 
L 64.40625 56.890625 
Q 59.421875 61.53125 53.78125 63.8125 
Q 48.140625 66.109375 41.796875 66.109375 
Q 29.296875 66.109375 22.65625 58.46875 
Q 16.015625 50.828125 16.015625 36.375 
Q 16.015625 21.96875 22.65625 14.328125 
Q 29.296875 6.6875 41.796875 6.6875 
Q 48.140625 6.6875 53.78125 8.984375 
Q 59.421875 11.28125 64.40625 15.921875 
L 64.40625 5.609375 
Q 59.234375 2.09375 53.4375 0.328125 
Q 47.65625 -1.421875 41.21875 -1.421875 
Q 24.65625 -1.421875 15.125 8.703125 
Q 5.609375 18.84375 5.609375 36.375 
Q 5.609375 53.953125 15.125 64.078125 
Q 24.65625 74.21875 41.21875 74.21875 
Q 47.75 74.21875 53.53125 72.484375 
Q 59.328125 70.75 64.40625 67.28125 
z
" id="DejaVuSans-67"/>
       <path d="M 8.5 21.578125 
L 8.5 54.6875 
L 17.484375 54.6875 
L 17.484375 21.921875 
Q 17.484375 14.15625 20.5 10.265625 
Q 23.53125 6.390625 29.59375 6.390625 
Q 36.859375 6.390625 41.078125 11.03125 
Q 45.3125 15.671875 45.3125 23.6875 
L 45.3125 54.6875 
L 54.296875 54.6875 
L 54.296875 0 
L 45.3125 0 
L 45.3125 8.40625 
Q 42.046875 3.421875 37.71875 1 
Q 33.40625 -1.421875 27.6875 -1.421875 
Q 18.265625 -1.421875 13.375 4.4375 
Q 8.5 10.296875 8.5 21.578125 
z
M 31.109375 56 
z
" id="DejaVuSans-117"/>
       <path d="M 52 44.1875 
Q 55.375 50.25 60.0625 53.125 
Q 64.75 56 71.09375 56 
Q 79.640625 56 84.28125 50.015625 
Q 88.921875 44.046875 88.921875 33.015625 
L 88.921875 0 
L 79.890625 0 
L 79.890625 32.71875 
Q 79.890625 40.578125 77.09375 44.375 
Q 74.3125 48.1875 68.609375 48.1875 
Q 61.625 48.1875 57.5625 43.546875 
Q 53.515625 38.921875 53.515625 30.90625 
L 53.515625 0 
L 44.484375 0 
L 44.484375 32.71875 
Q 44.484375 40.625 41.703125 44.40625 
Q 38.921875 48.1875 33.109375 48.1875 
Q 26.21875 48.1875 22.15625 43.53125 
Q 18.109375 38.875 18.109375 30.90625 
L 18.109375 0 
L 9.078125 0 
L 9.078125 54.6875 
L 18.109375 54.6875 
L 18.109375 46.1875 
Q 21.1875 51.21875 25.484375 53.609375 
Q 29.78125 56 35.6875 56 
Q 41.65625 56 45.828125 52.96875 
Q 50 49.953125 52 44.1875 
z
" id="DejaVuSans-109"/>
       <path d="M 9.421875 75.984375 
L 18.40625 75.984375 
L 18.40625 0 
L 9.421875 0 
z
" id="DejaVuSans-108"/>
       <path d="M 18.3125 70.21875 
L 18.3125 54.6875 
L 36.8125 54.6875 
L 36.8125 47.703125 
L 18.3125 47.703125 
L 18.3125 18.015625 
Q 18.3125 11.328125 20.140625 9.421875 
Q 21.96875 7.515625 27.59375 7.515625 
L 36.8125 7.515625 
L 36.8125 0 
L 27.59375 0 
Q 17.1875 0 13.234375 3.875 
Q 9.28125 7.765625 9.28125 18.015625 
L 9.28125 47.703125 
L 2.6875 47.703125 
L 2.6875 54.6875 
L 9.28125 54.6875 
L 9.28125 70.21875 
z
" id="DejaVuSans-116"/>
       <path d="M 9.421875 54.6875 
L 18.40625 54.6875 
L 18.40625 0 
L 9.421875 0 
z
M 9.421875 75.984375 
L 18.40625 75.984375 
L 18.40625 64.59375 
L 9.421875 64.59375 
z
" id="DejaVuSans-105"/>
       <path d="M 2.984375 54.6875 
L 12.5 54.6875 
L 29.59375 8.796875 
L 46.6875 54.6875 
L 56.203125 54.6875 
L 35.6875 0 
L 23.484375 0 
z
" id="DejaVuSans-118"/>
       <path d="M 56.203125 29.59375 
L 56.203125 25.203125 
L 14.890625 25.203125 
Q 15.484375 15.921875 20.484375 11.0625 
Q 25.484375 6.203125 34.421875 6.203125 
Q 39.59375 6.203125 44.453125 7.46875 
Q 49.3125 8.734375 54.109375 11.28125 
L 54.109375 2.78125 
Q 49.265625 0.734375 44.1875 -0.34375 
Q 39.109375 -1.421875 33.890625 -1.421875 
Q 20.796875 -1.421875 13.15625 6.1875 
Q 5.515625 13.8125 5.515625 26.8125 
Q 5.515625 40.234375 12.765625 48.109375 
Q 20.015625 56 32.328125 56 
Q 43.359375 56 49.78125 48.890625 
Q 56.203125 41.796875 56.203125 29.59375 
z
M 47.21875 32.234375 
Q 47.125 39.59375 43.09375 43.984375 
Q 39.0625 48.390625 32.421875 48.390625 
Q 24.90625 48.390625 20.390625 44.140625 
Q 15.875 39.890625 15.1875 32.171875 
z
" id="DejaVuSans-101"/>
       <path id="DejaVuSans-32"/>
       <path d="M 48.78125 52.59375 
L 48.78125 44.1875 
Q 44.96875 46.296875 41.140625 47.34375 
Q 37.3125 48.390625 33.40625 48.390625 
Q 24.65625 48.390625 19.8125 42.84375 
Q 14.984375 37.3125 14.984375 27.296875 
Q 14.984375 17.28125 19.8125 11.734375 
Q 24.65625 6.203125 33.40625 6.203125 
Q 37.3125 6.203125 41.140625 7.25 
Q 44.96875 8.296875 48.78125 10.40625 
L 48.78125 2.09375 
Q 45.015625 0.34375 40.984375 -0.53125 
Q 36.96875 -1.421875 32.421875 -1.421875 
Q 20.0625 -1.421875 12.78125 6.34375 
Q 5.515625 14.109375 5.515625 27.296875 
Q 5.515625 40.671875 12.859375 48.328125 
Q 20.21875 56 33.015625 56 
Q 37.15625 56 41.109375 55.140625 
Q 45.0625 54.296875 48.78125 52.59375 
z
" id="DejaVuSans-99"/>
      </defs>
      <use xlink:href="#DejaVuSans-67"/>
      <use x="69.824219" xlink:href="#DejaVuSans-117"/>
      <use x="133.203125" xlink:href="#DejaVuSans-109"/>
      <use x="230.615234" xlink:href="#DejaVuSans-117"/>
      <use x="293.994141" xlink:href="#DejaVuSans-108"/>
      <use x="321.777344" xlink:href="#DejaVuSans-97"/>
      <use x="383.056641" xlink:href="#DejaVuSans-116"/>
      <use x="422.265625" xlink:href="#DejaVuSans-105"/>
      <use x="450.048828" xlink:href="#DejaVuSans-118"/>
      <use x="509.228516" xlink:href="#DejaVuSans-101"/>
      <use x="570.751953" xlink:href="#DejaVuSans-32"/>
      <use x="602.539062" xlink:href="#DejaVuSans-99"/>
      <use x="657.519531" xlink:href="#DejaVuSans-97"/>
      <use x="718.798828" xlink:href="#DejaVuSans-115"/>
      <use x="770.898438" xlink:href="#DejaVuSans-101"/>
      <use x="832.421875" xlink:href="#DejaVuSans-115"/>
     </g>
    </g>
   </g>
   <g id="line2d_27">
    <path clip-path="url(#pa34bda055b)" d="M 115.363636 605.290909 
L 145.558442 604.977202 
L 166.694805 604.572345 
L 184.811688 604.015584 
L 199.909091 603.324043 
L 211.987013 602.557874 
L 224.064935 601.533739 
L 233.123377 600.546085 
L 242.181818 599.320545 
L 251.24026 597.801542 
L 257.279221 596.593002 
L 263.318182 595.200825 
L 269.357143 593.598477 
L 275.396104 591.756044 
L 281.435065 589.639948 
L 287.474026 587.212697 
L 293.512987 584.432683 
L 299.551948 581.254066 
L 305.590909 577.626778 
L 311.62987 573.496692 
L 314.649351 571.225165 
L 317.668831 568.806013 
L 320.688312 566.231548 
L 323.707792 563.493958 
L 326.727273 560.585347 
L 329.746753 557.497782 
L 332.766234 554.22335 
L 335.785714 550.754222 
L 338.805195 547.082722 
L 341.824675 543.201412 
L 344.844156 539.103174 
L 347.863636 534.78131 
L 350.883117 530.229644 
L 353.902597 525.442633 
L 356.922078 520.415481 
L 359.941558 515.144257 
L 362.961039 509.626025 
L 365.980519 503.858958 
L 369 497.842466 
L 375.038961 485.065705 
L 381.077922 471.319928 
L 387.116883 456.655481 
L 393.155844 441.150654 
L 399.194805 424.91197 
L 405.233766 408.07269 
L 414.292208 382.035313 
L 432.409091 329.404144 
L 438.448052 312.376991 
L 444.487013 295.893567 
L 450.525974 280.096482 
L 456.564935 265.102676 
L 462.603896 251.001199 
L 468.642857 237.852855 
L 474.681818 225.691459 
L 477.701299 219.984652 
L 480.720779 214.526348 
L 483.74026 209.314439 
L 486.75974 204.345737 
L 489.779221 199.616092 
L 492.798701 195.120517 
L 495.818182 190.853303 
L 498.837662 186.80814 
L 501.857143 182.978219 
L 504.876623 179.356336 
L 507.896104 175.934988 
L 510.915584 172.706454 
L 513.935065 169.66288 
L 516.954545 166.796341 
L 519.974026 164.098909 
L 522.993506 161.562704 
L 526.012987 159.179939 
L 529.032468 156.942966 
L 535.071429 152.87666 
L 541.11039 149.306405 
L 547.149351 146.178548 
L 553.188312 143.443526 
L 559.227273 141.056014 
L 565.266234 138.974911 
L 571.305195 137.163207 
L 577.344156 135.587784 
L 583.383117 134.219151 
L 589.422078 133.031162 
L 598.480519 131.53814 
L 607.538961 130.333681 
L 616.597403 129.363097 
L 622.636364 128.823533 
L 622.636364 128.823533 
" style="fill:none;stroke:#1f77b4;stroke-linecap:square;stroke-width:1.5;"/>
   </g>
   <g id="line2d_28">
    <path clip-path="url(#pa34bda055b)" d="M 115.363636 605.290909 
L 130.461039 604.42718 
L 145.558442 603.325276 
L 157.636364 602.229664 
L 169.714286 600.90063 
L 178.772727 599.722083 
L 187.831169 598.361795 
L 196.88961 596.792977 
L 205.948052 594.985302 
L 215.006494 592.904582 
L 224.064935 590.512453 
L 230.103896 588.723747 
L 236.142857 586.763886 
L 242.181818 584.618111 
L 248.220779 582.270727 
L 254.25974 579.705109 
L 260.298701 576.903737 
L 266.337662 573.848243 
L 272.376623 570.519491 
L 278.415584 566.897685 
L 284.454545 562.962515 
L 290.493506 558.693336 
L 296.532468 554.0694 
L 302.571429 549.070128 
L 308.61039 543.675439 
L 314.649351 537.866126 
L 320.688312 531.624282 
L 326.727273 524.933786 
L 332.766234 517.780817 
L 338.805195 510.154413 
L 344.844156 502.047047 
L 350.883117 493.45521 
L 356.922078 484.379975 
L 362.961039 474.827527 
L 369 464.809621 
L 375.038961 454.343949 
L 381.077922 443.454381 
L 387.116883 432.171061 
L 393.155844 420.530328 
L 402.214286 402.493059 
L 411.272727 383.913061 
L 426.37013 352.256122 
L 444.487013 314.301878 
L 453.545455 295.816598 
L 462.603896 277.909225 
L 468.642857 266.372116 
L 474.681818 255.204022 
L 480.720779 244.439431 
L 486.75974 234.106597 
L 492.798701 224.227508 
L 498.837662 214.818034 
L 504.876623 205.888205 
L 510.915584 197.442613 
L 516.954545 189.480892 
L 522.993506 181.998258 
L 529.032468 174.986088 
L 535.071429 168.432498 
L 541.11039 162.322914 
L 547.149351 156.640624 
L 553.188312 151.367282 
L 559.227273 146.483373 
L 565.266234 141.968629 
L 571.305195 137.802388 
L 577.344156 133.963906 
L 583.383117 130.432617 
L 589.422078 127.188349 
L 595.461039 124.211492 
L 601.5 121.483131 
L 607.538961 118.985148 
L 613.577922 116.700287 
L 619.616883 114.612203 
L 622.636364 113.637099 
L 622.636364 113.637099 
" style="fill:none;stroke:#ff7f0e;stroke-linecap:square;stroke-width:1.5;"/>
   </g>
   <g id="line2d_29">
    <path clip-path="url(#pa34bda055b)" d="M 115.363636 605.290909 
L 133.480519 604.521494 
L 148.577922 603.65729 
L 160.655844 602.775474 
L 172.733766 601.680662 
L 184.811688 600.32285 
L 193.87013 599.095692 
L 202.928571 597.656173 
L 211.987013 595.969301 
L 221.045455 593.994987 
L 227.084416 592.496771 
L 233.123377 590.835613 
L 239.162338 588.99526 
L 245.201299 586.958181 
L 251.24026 584.705549 
L 257.279221 582.217241 
L 263.318182 579.471871 
L 269.357143 576.446853 
L 275.396104 573.11851 
L 281.435065 569.462232 
L 287.474026 565.452688 
L 293.512987 561.064112 
L 299.551948 556.270654 
L 305.590909 551.046818 
L 311.62987 545.367976 
L 317.668831 539.210976 
L 323.707792 532.554816 
L 329.746753 525.381403 
L 335.785714 517.676355 
L 341.824675 509.429843 
L 347.863636 500.637432 
L 353.902597 491.300885 
L 359.941558 481.428889 
L 365.980519 471.037657 
L 372.019481 460.151352 
L 378.058442 448.802293 
L 384.097403 437.030906 
L 390.136364 424.885384 
L 399.194805 406.088378 
L 411.272727 380.281566 
L 435.428571 328.23734 
L 444.487013 309.301955 
L 453.545455 291.017484 
L 459.584416 279.276735 
L 465.623377 267.945904 
L 471.662338 257.060106 
L 477.701299 246.646898 
L 483.74026 236.726464 
L 489.779221 227.311978 
L 495.818182 218.410124 
L 501.857143 210.021711 
L 507.896104 202.14236 
L 513.935065 194.763219 
L 519.974026 187.87168 
L 526.012987 181.452072 
L 532.051948 175.486313 
L 538.090909 169.954517 
L 544.12987 164.835524 
L 550.168831 160.107381 
L 556.207792 155.747747 
L 562.246753 151.734239 
L 568.285714 148.04472 
L 574.324675 144.657527 
L 580.363636 141.551655 
L 586.402597 138.70689 
L 592.441558 136.103918 
L 598.480519 133.724383 
L 604.519481 131.550936 
L 610.558442 129.56725 
L 616.597403 127.758022 
L 622.636364 126.108956 
L 622.636364 126.108956 
" style="fill:none;stroke:#2ca02c;stroke-linecap:square;stroke-width:1.5;"/>
   </g>
   <g id="line2d_30">
    <path clip-path="url(#pa34bda055b)" d="M 115.363636 605.290909 
L 130.461039 604.757724 
L 145.558442 603.991614 
L 157.636364 603.167904 
L 169.714286 602.112849 
L 178.772727 601.140424 
L 187.831169 599.986015 
L 196.88961 598.621895 
L 205.948052 597.016564 
L 215.006494 595.134393 
L 224.064935 592.935301 
L 230.103896 591.271245 
L 236.142857 589.432039 
L 242.181818 587.402214 
L 248.220779 585.165325 
L 254.25974 582.703974 
L 260.298701 579.999854 
L 266.337662 577.033823 
L 272.376623 573.786015 
L 278.415584 570.235977 
L 284.454545 566.362862 
L 290.493506 562.145656 
L 296.532468 557.563467 
L 302.571429 552.595858 
L 308.61039 547.223241 
L 314.649351 541.427321 
L 320.688312 535.191597 
L 326.727273 528.501891 
L 332.766234 521.346928 
L 338.805195 513.718915 
L 344.844156 505.614129 
L 350.883117 497.033477 
L 356.922078 487.982997 
L 362.961039 478.47429 
L 369 468.524828 
L 375.038961 458.158142 
L 381.077922 447.403832 
L 387.116883 436.297408 
L 396.175325 419.068798 
L 405.233766 401.300581 
L 417.311688 377.080857 
L 438.448052 334.522897 
L 447.506494 316.707766 
L 456.564935 299.395619 
L 465.623377 282.730998 
L 471.662338 272.040767 
L 477.701299 261.720115 
L 483.74026 251.791988 
L 489.779221 242.273965 
L 495.818182 233.178489 
L 501.857143 224.513191 
L 507.896104 216.281285 
L 513.935065 208.482008 
L 519.974026 201.111088 
L 526.012987 194.16122 
L 532.051948 187.622532 
L 538.090909 181.483039 
L 544.12987 175.72906 
L 550.168831 170.345612 
L 556.207792 165.316757 
L 562.246753 160.625915 
L 568.285714 156.256138 
L 574.324675 152.190343 
L 580.363636 148.411511 
L 586.402597 144.902853 
L 592.441558 141.647941 
L 598.480519 138.630819 
L 604.519481 135.836083 
L 610.558442 133.248941 
L 616.597403 130.855261 
L 622.636364 128.641594 
L 622.636364 128.641594 
" style="fill:none;stroke:#d62728;stroke-linecap:square;stroke-width:1.5;"/>
   </g>
   <g id="line2d_31">
    <path clip-path="url(#pa34bda055b)" d="M 115.363636 605.290909 
L 130.461039 605.163444 
L 151.597403 604.762163 
L 169.714286 604.202572 
L 184.811688 603.507516 
L 196.88961 602.737908 
L 208.967532 601.710102 
L 218.025974 600.720019 
L 227.084416 599.493076 
L 236.142857 597.974917 
L 242.181818 596.769142 
L 248.220779 595.382486 
L 254.25974 593.78962 
L 260.298701 591.962247 
L 266.337662 589.868951 
L 272.376623 587.47509 
L 278.415584 584.742781 
L 284.454545 581.631001 
L 290.493506 578.095832 
L 296.532468 574.09091 
L 302.571429 569.568104 
L 305.590909 567.097198 
L 308.61039 564.478466 
L 311.62987 561.705868 
L 314.649351 558.773491 
L 317.668831 555.675601 
L 320.688312 552.406706 
L 323.707792 548.961628 
L 326.727273 545.335564 
L 329.746753 541.524169 
L 332.766234 537.523622 
L 335.785714 533.330714 
L 338.805195 528.942914 
L 344.844156 519.576396 
L 350.883117 509.420294 
L 356.922078 498.486153 
L 362.961039 486.802369 
L 369 474.414999 
L 375.038961 461.387677 
L 381.077922 447.800552 
L 387.116883 433.748249 
L 396.175325 412.032171 
L 423.350649 345.949392 
L 432.409091 324.849253 
L 438.448052 311.307523 
L 444.487013 298.263885 
L 450.525974 285.76994 
L 456.564935 273.864075 
L 462.603896 262.57231 
L 468.642857 251.909444 
L 474.681818 241.880385 
L 480.720779 232.481562 
L 486.75974 223.702331 
L 492.798701 215.526328 
L 498.837662 207.932711 
L 504.876623 200.897277 
L 510.915584 194.393446 
L 516.954545 188.393098 
L 522.993506 182.86728 
L 529.032468 177.786787 
L 535.071429 173.122629 
L 541.11039 168.846396 
L 547.149351 164.930544 
L 553.188312 161.348597 
L 559.227273 158.075299 
L 565.266234 155.086702 
L 571.305195 152.360227 
L 577.344156 149.87468 
L 583.383117 147.61025 
L 589.422078 145.548481 
L 595.461039 143.672234 
L 601.5 141.965639 
L 610.558442 139.692075 
L 619.616883 137.722759 
L 622.636364 137.12697 
L 622.636364 137.12697 
" style="fill:none;stroke:#9467bd;stroke-linecap:square;stroke-width:1.5;"/>
   </g>
   <g id="line2d_32">
    <path clip-path="url(#pa34bda055b)" d="M 115.363636 605.290909 
L 127.441558 605.166577 
L 142.538961 604.741159 
L 154.616883 604.1948 
L 166.694805 603.433478 
L 178.772727 602.411094 
L 187.831169 601.438416 
L 196.88961 600.257201 
L 205.948052 598.833863 
L 215.006494 597.129986 
L 221.045455 595.816862 
L 227.084416 594.345406 
L 233.123377 592.700107 
L 239.162338 590.864243 
L 245.201299 588.819866 
L 251.24026 586.547796 
L 257.279221 584.027651 
L 263.318182 581.237892 
L 269.357143 578.155924 
L 275.396104 574.758221 
L 281.435065 571.020519 
L 287.474026 566.91806 
L 293.512987 562.425895 
L 299.551948 557.519272 
L 305.590909 552.174084 
L 311.62987 546.367403 
L 317.668831 540.078079 
L 323.707792 533.287409 
L 329.746753 525.979859 
L 335.785714 518.143821 
L 341.824675 509.772379 
L 347.863636 500.864061 
L 353.902597 491.423525 
L 359.941558 481.46216 
L 365.980519 470.998539 
L 372.019481 460.058704 
L 378.058442 448.67623 
L 384.097403 436.892057 
L 393.155844 418.569068 
L 402.214286 399.638426 
L 414.292208 373.819385 
L 435.428571 328.55658 
L 444.487013 309.70166 
L 453.545455 291.458252 
L 459.584416 279.716865 
L 465.623377 268.359719 
L 471.662338 257.420006 
L 477.701299 246.924159 
L 483.74026 236.89201 
L 489.779221 227.337106 
L 495.818182 218.26714 
L 501.857143 209.684475 
L 507.896104 201.586725 
L 513.935065 193.967361 
L 519.974026 186.816329 
L 526.012987 180.120643 
L 532.051948 173.86496 
L 538.090909 168.032099 
L 544.12987 162.603529 
L 550.168831 157.559787 
L 556.207792 152.880857 
L 562.246753 148.546493 
L 568.285714 144.536481 
L 574.324675 140.830873 
L 580.363636 137.410159 
L 586.402597 134.255418 
L 592.441558 131.348422 
L 598.480519 128.671718 
L 604.519481 126.208682 
L 610.558442 123.943552 
L 616.597403 121.861447 
L 622.636364 119.948367 
L 622.636364 119.948367 
" style="fill:none;stroke:#8c564b;stroke-linecap:square;stroke-width:1.5;"/>
   </g>
   <g id="line2d_33">
    <path clip-path="url(#pa34bda055b)" d="M 115.363636 605.290909 
L 127.441558 605.170789 
L 145.558442 604.775077 
L 163.675325 604.166666 
L 178.772727 603.433923 
L 190.850649 602.642921 
L 202.928571 601.610094 
L 211.987013 600.634086 
L 221.045455 599.444155 
L 230.103896 597.995046 
L 236.142857 596.858701 
L 242.181818 595.564908 
L 248.220779 594.093045 
L 254.25974 592.420149 
L 260.298701 590.520752 
L 266.337662 588.366748 
L 272.376623 585.927293 
L 278.415584 583.168765 
L 284.454545 580.05479 
L 290.493506 576.546376 
L 296.532468 572.60217 
L 302.571429 568.17888 
L 308.61039 563.231878 
L 314.649351 557.716041 
L 317.668831 554.730831 
L 320.688312 551.586824 
L 323.707792 548.278763 
L 326.727273 544.801612 
L 329.746753 541.150612 
L 332.766234 537.32134 
L 335.785714 533.309773 
L 341.824675 524.726073 
L 347.863636 515.377919 
L 353.902597 505.254517 
L 359.941558 494.358037 
L 365.980519 482.70554 
L 372.019481 470.330511 
L 378.058442 457.283775 
L 384.097403 443.63366 
L 390.136364 429.465251 
L 399.194805 407.46341 
L 411.272727 377.343202 
L 423.350649 347.248484 
L 432.409091 325.287819 
L 438.448052 311.145769 
L 444.487013 297.511617 
L 450.525974 284.461841 
L 456.564935 272.056651 
L 462.603896 260.33992 
L 468.642857 249.339845 
L 474.681818 239.070153 
L 480.720779 229.531715 
L 486.75974 220.714383 
L 492.798701 212.59892 
L 498.837662 205.15891 
L 504.876623 198.362537 
L 510.915584 192.174211 
L 516.954545 186.555974 
L 522.993506 181.468691 
L 529.032468 176.873032 
L 535.071429 172.730239 
L 541.11039 169.002726 
L 547.149351 165.654508 
L 553.188312 162.651499 
L 559.227273 159.961706 
L 565.266234 157.555324 
L 571.305195 155.404765 
L 577.344156 153.484639 
L 583.383117 151.771683 
L 589.422078 150.244676 
L 595.461039 148.884327 
L 604.519481 147.118508 
L 613.577922 145.636682 
L 622.636364 144.394351 
L 622.636364 144.394351 
" style="fill:none;stroke:#e377c2;stroke-linecap:square;stroke-width:1.5;"/>
   </g>
   <g id="line2d_34">
    <path clip-path="url(#pa34bda055b)" d="M 115.363636 605.290909 
L 127.441558 605.147965 
L 139.519481 604.760566 
L 151.597403 604.141962 
L 163.675325 603.269548 
L 172.733766 602.424126 
L 181.792208 601.390151 
L 190.850649 600.141232 
L 199.909091 598.647203 
L 208.967532 596.873993 
L 218.025974 594.783432 
L 224.064935 593.192633 
L 230.103896 591.42835 
L 236.142857 589.476042 
L 242.181818 587.320301 
L 248.220779 584.94487 
L 254.25974 582.33269 
L 260.298701 579.465958 
L 266.337662 576.32622 
L 272.376623 572.894492 
L 278.415584 569.151412 
L 284.454545 565.077435 
L 290.493506 560.65306 
L 296.532468 555.859112 
L 302.571429 550.677058 
L 308.61039 545.089369 
L 314.649351 539.079927 
L 320.688312 532.634469 
L 326.727273 525.741054 
L 332.766234 518.390556 
L 338.805195 510.577165 
L 344.844156 502.298869 
L 350.883117 493.557913 
L 356.922078 484.361212 
L 362.961039 474.720681 
L 369 464.653478 
L 375.038961 454.182132 
L 381.077922 443.334537 
L 387.116883 432.1438 
L 396.175325 414.798705 
L 405.233766 396.914629 
L 417.311688 372.516359 
L 444.487013 317.365583 
L 453.545455 299.523937 
L 462.603896 282.213453 
L 468.642857 271.032181 
L 474.681818 260.176285 
L 480.720779 249.673052 
L 486.75974 239.544905 
L 492.798701 229.809473 
L 498.837662 220.479756 
L 504.876623 211.564376 
L 510.915584 203.067889 
L 516.954545 194.991146 
L 522.993506 187.331677 
L 529.032468 180.084097 
L 535.071429 173.240506 
L 541.11039 166.790885 
L 547.149351 160.723471 
L 553.188312 155.025106 
L 559.227273 149.681568 
L 565.266234 144.677854 
L 571.305195 139.998446 
L 577.344156 135.627538 
L 583.383117 131.549234 
L 589.422078 127.747714 
L 595.461039 124.207371 
L 601.5 120.912934 
L 607.538961 117.849551 
L 613.577922 115.002864 
L 619.616883 112.359064 
L 622.636364 111.109091 
L 622.636364 111.109091 
" style="fill:none;stroke:#7f7f7f;stroke-linecap:square;stroke-width:1.5;"/>
   </g>
   <g id="line2d_35">
    <path clip-path="url(#pa34bda055b)" d="M 115.363636 605.290909 
L 127.441558 605.166379 
L 139.519481 604.814423 
L 151.597403 604.239088 
L 163.675325 603.418322 
L 172.733766 602.618044 
L 181.792208 601.634777 
L 190.850649 600.44141 
L 199.909091 599.006264 
L 208.967532 597.292895 
L 218.025974 595.259841 
L 224.064935 593.704017 
L 230.103896 591.970271 
L 236.142857 590.042326 
L 242.181818 587.902818 
L 248.220779 585.533323 
L 254.25974 582.914402 
L 260.298701 580.025685 
L 266.337662 576.845984 
L 272.376623 573.353454 
L 278.415584 569.525802 
L 284.454545 565.34054 
L 290.493506 560.775308 
L 296.532468 555.808252 
L 302.571429 550.418458 
L 308.61039 544.586456 
L 314.649351 538.294771 
L 320.688312 531.528517 
L 326.727273 524.276032 
L 332.766234 516.52951 
L 338.805195 508.28564 
L 344.844156 499.54619 
L 350.883117 490.318534 
L 356.922078 480.61607 
L 362.961039 470.458516 
L 369 459.872033 
L 375.038961 448.889172 
L 381.077922 437.548623 
L 390.136364 419.965589 
L 399.194805 401.848842 
L 414.292208 370.985987 
L 432.409091 333.988153 
L 441.467532 315.954669 
L 450.525974 298.459756 
L 456.564935 287.167054 
L 462.603896 276.213011 
L 468.642857 265.627494 
L 474.681818 255.43472 
L 480.720779 245.653368 
L 486.75974 236.296807 
L 492.798701 227.373439 
L 498.837662 218.887093 
L 504.876623 210.837487 
L 510.915584 203.220707 
L 516.954545 196.029697 
L 522.993506 189.25475 
L 529.032468 182.883968 
L 535.071429 176.903703 
L 541.11039 171.29896 
L 547.149351 166.053761 
L 553.188312 161.151469 
L 559.227273 156.57507 
L 565.266234 152.307415 
L 571.305195 148.331426 
L 577.344156 144.630261 
L 583.383117 141.187459 
L 589.422078 137.987039 
L 595.461039 135.013589 
L 601.5 132.252326 
L 607.538961 129.689136 
L 613.577922 127.3106 
L 619.616883 125.104008 
L 622.636364 124.061414 
L 622.636364 124.061414 
" style="fill:none;stroke:#bcbd22;stroke-linecap:square;stroke-width:1.5;"/>
   </g>
   <g id="line2d_36">
    <path clip-path="url(#pa34bda055b)" d="M 115.363636 605.290909 
L 121.402597 604.712046 
L 124.422078 604.645254 
L 130.461039 604.066392 
L 136.5 603.420737 
L 139.519481 602.964326 
L 145.558442 602.630367 
L 148.577922 602.352067 
L 151.597403 601.91792 
L 154.616883 601.049626 
L 157.636364 600.860382 
L 163.675325 599.658129 
L 166.694805 599.223982 
L 169.714286 598.19984 
L 172.733766 597.387205 
L 175.753247 597.008718 
L 178.772727 596.429855 
L 184.811688 596.084764 
L 187.831169 595.773069 
L 190.850649 595.32779 
L 193.87013 595.149678 
L 196.88961 594.815719 
L 199.909091 594.303648 
L 205.948052 593.702521 
L 224.064935 590.674623 
L 236.142857 587.813705 
L 239.162338 586.912015 
L 245.201299 585.453726 
L 251.24026 584.073361 
L 254.25974 582.581676 
L 257.279221 581.668854 
L 260.298701 580.277357 
L 269.357143 576.425693 
L 272.376623 574.611181 
L 275.396104 573.475719 
L 284.454545 568.700101 
L 287.474026 567.820675 
L 290.493506 566.195406 
L 293.512987 564.19165 
L 296.532468 562.61091 
L 299.551948 560.562626 
L 302.571429 557.902083 
L 305.590909 555.79814 
L 308.61039 551.890816 
L 314.649351 546.90369 
L 320.688312 539.589981 
L 326.727273 531.430242 
L 329.746753 526.398589 
L 332.766234 523.181447 
L 335.785714 519.040352 
L 341.824675 508.999309 
L 344.844156 506.205183 
L 347.863636 502.253331 
L 350.883117 499.915616 
L 356.922078 488.427416 
L 359.941558 480.668428 
L 362.961039 474.033769 
L 365.980519 467.944578 
L 369 459.417484 
L 372.019481 457.246748 
L 375.038961 453.350556 
L 378.058442 448.58607 
L 381.077922 442.285371 
L 384.097403 435.472601 
L 387.116883 427.424182 
L 390.136364 420.043681 
L 393.155844 415.624287 
L 396.175325 410.893196 
L 399.194805 404.837401 
L 402.214286 397.434636 
L 405.233766 392.325059 
L 411.272727 379.957433 
L 414.292208 376.3952 
L 417.311688 371.742034 
L 420.331169 363.827198 
L 426.37013 346.795273 
L 429.38961 339.425905 
L 432.409091 331.23277 
L 435.428571 325.867157 
L 438.448052 321.247386 
L 441.467532 315.425362 
L 444.487013 308.8241 
L 447.506494 301.454731 
L 450.525974 294.998185 
L 453.545455 287.139009 
L 456.564935 283.465457 
L 459.584416 279.580397 
L 468.642857 261.568858 
L 471.662338 256.125321 
L 474.681818 249.702171 
L 477.701299 247.676151 
L 480.720779 243.902411 
L 483.74026 238.169443 
L 486.75974 232.002327 
L 495.818182 217.330382 
L 498.837662 216.172656 
L 501.857143 213.133627 
L 504.876623 208.246689 
L 510.915584 198.00527 
L 513.935065 193.741723 
L 516.954545 190.168358 
L 519.974026 189.355724 
L 522.993506 186.695181 
L 526.012987 183.266533 
L 529.032468 180.383351 
L 532.051948 176.442631 
L 535.071429 173.203225 
L 538.090909 170.876642 
L 541.11039 170.297779 
L 544.12987 168.115912 
L 547.149351 164.909903 
L 550.168831 162.316152 
L 553.188312 160.468244 
L 556.207792 158.241848 
L 559.227273 155.737154 
L 562.246753 155.481118 
L 565.266234 153.700002 
L 568.285714 151.462475 
L 571.305195 148.913252 
L 574.324675 145.840826 
L 577.344156 143.658959 
L 580.363636 141.788787 
L 583.383117 141.365771 
L 586.402597 139.751635 
L 589.422078 137.41392 
L 592.441558 134.48621 
L 595.461039 132.727357 
L 598.480519 131.180013 
L 601.5 129.220785 
L 604.519481 128.853429 
L 607.538961 127.61778 
L 610.558442 126.159491 
L 613.577922 123.8997 
L 619.616883 119.936716 
L 622.636364 118.556351 
L 622.636364 118.556351 
" style="fill:none;stroke:#17becf;stroke-dasharray:14.8,6.4;stroke-dashoffset:0;stroke-width:4;"/>
   </g>
   <g id="patch_3">
    <path d="M 90 630 
L 90 86.4 
" style="fill:none;stroke:#000000;stroke-linecap:square;stroke-linejoin:miter;stroke-width:0.8;"/>
   </g>
   <g id="patch_4">
    <path d="M 648 630 
L 648 86.4 
" style="fill:none;stroke:#000000;stroke-linecap:square;stroke-linejoin:miter;stroke-width:0.8;"/>
   </g>
   <g id="patch_5">
    <path d="M 90 630 
L 648 630 
" style="fill:none;stroke:#000000;stroke-linecap:square;stroke-linejoin:miter;stroke-width:0.8;"/>
   </g>
   <g id="patch_6">
    <path d="M 90 86.4 
L 648 86.4 
" style="fill:none;stroke:#000000;stroke-linecap:square;stroke-linejoin:miter;stroke-width:0.8;"/>
   </g>
   <g id="text_16">
    <!-- Armenia relative err =  -->
    <g transform="translate(300.046875 80.4)scale(0.12 -0.12)">
     <defs>
      <path d="M 34.1875 63.1875 
L 20.796875 26.90625 
L 47.609375 26.90625 
z
M 28.609375 72.90625 
L 39.796875 72.90625 
L 67.578125 0 
L 57.328125 0 
L 50.6875 18.703125 
L 17.828125 18.703125 
L 11.1875 0 
L 0.78125 0 
z
" id="DejaVuSans-65"/>
      <path d="M 41.109375 46.296875 
Q 39.59375 47.171875 37.8125 47.578125 
Q 36.03125 48 33.890625 48 
Q 26.265625 48 22.1875 43.046875 
Q 18.109375 38.09375 18.109375 28.8125 
L 18.109375 0 
L 9.078125 0 
L 9.078125 54.6875 
L 18.109375 54.6875 
L 18.109375 46.1875 
Q 20.953125 51.171875 25.484375 53.578125 
Q 30.03125 56 36.53125 56 
Q 37.453125 56 38.578125 55.875 
Q 39.703125 55.765625 41.0625 55.515625 
z
" id="DejaVuSans-114"/>
      <path d="M 54.890625 33.015625 
L 54.890625 0 
L 45.90625 0 
L 45.90625 32.71875 
Q 45.90625 40.484375 42.875 44.328125 
Q 39.84375 48.1875 33.796875 48.1875 
Q 26.515625 48.1875 22.3125 43.546875 
Q 18.109375 38.921875 18.109375 30.90625 
L 18.109375 0 
L 9.078125 0 
L 9.078125 54.6875 
L 18.109375 54.6875 
L 18.109375 46.1875 
Q 21.34375 51.125 25.703125 53.5625 
Q 30.078125 56 35.796875 56 
Q 45.21875 56 50.046875 50.171875 
Q 54.890625 44.34375 54.890625 33.015625 
z
" id="DejaVuSans-110"/>
      <path d="M 10.59375 45.40625 
L 73.1875 45.40625 
L 73.1875 37.203125 
L 10.59375 37.203125 
z
M 10.59375 25.484375 
L 73.1875 25.484375 
L 73.1875 17.1875 
L 10.59375 17.1875 
z
" id="DejaVuSans-61"/>
     </defs>
     <use xlink:href="#DejaVuSans-65"/>
     <use x="68.408203" xlink:href="#DejaVuSans-114"/>
     <use x="107.771484" xlink:href="#DejaVuSans-109"/>
     <use x="205.183594" xlink:href="#DejaVuSans-101"/>
     <use x="266.707031" xlink:href="#DejaVuSans-110"/>
     <use x="330.085938" xlink:href="#DejaVuSans-105"/>
     <use x="357.869141" xlink:href="#DejaVuSans-97"/>
     <use x="419.148438" xlink:href="#DejaVuSans-32"/>
     <use x="450.935547" xlink:href="#DejaVuSans-114"/>
     <use x="489.798828" xlink:href="#DejaVuSans-101"/>
     <use x="551.322266" xlink:href="#DejaVuSans-108"/>
     <use x="579.105469" xlink:href="#DejaVuSans-97"/>
     <use x="640.384766" xlink:href="#DejaVuSans-116"/>
     <use x="679.59375" xlink:href="#DejaVuSans-105"/>
     <use x="707.376953" xlink:href="#DejaVuSans-118"/>
     <use x="766.556641" xlink:href="#DejaVuSans-101"/>
     <use x="828.080078" xlink:href="#DejaVuSans-32"/>
     <use x="859.867188" xlink:href="#DejaVuSans-101"/>
     <use x="921.390625" xlink:href="#DejaVuSans-114"/>
     <use x="960.753906" xlink:href="#DejaVuSans-114"/>
     <use x="1001.867188" xlink:href="#DejaVuSans-32"/>
     <use x="1033.654297" xlink:href="#DejaVuSans-61"/>
     <use x="1117.443359" xlink:href="#DejaVuSans-32"/>
    </g>
   </g>
   <g id="legend_1">
    <g id="patch_7">
     <path d="M 97 226.503125 
L 185.6 226.503125 
Q 187.6 226.503125 187.6 224.503125 
L 187.6 93.4 
Q 187.6 91.4 185.6 91.4 
L 97 91.4 
Q 95 91.4 95 93.4 
L 95 224.503125 
Q 95 226.503125 97 226.503125 
z
" style="fill:#ffffff;opacity:0.8;stroke:#cccccc;stroke-linejoin:miter;"/>
    </g>
    <g id="line2d_37">
     <path d="M 99 99.498438 
L 119 99.498438 
" style="fill:none;stroke:#1f77b4;stroke-linecap:square;stroke-width:1.5;"/>
    </g>
    <g id="line2d_38"/>
    <g id="text_17">
     <!-- SI -->
     <g transform="translate(127 102.998438)scale(0.1 -0.1)">
      <defs>
       <path d="M 53.515625 70.515625 
L 53.515625 60.890625 
Q 47.90625 63.578125 42.921875 64.890625 
Q 37.9375 66.21875 33.296875 66.21875 
Q 25.25 66.21875 20.875 63.09375 
Q 16.5 59.96875 16.5 54.203125 
Q 16.5 49.359375 19.40625 46.890625 
Q 22.3125 44.4375 30.421875 42.921875 
L 36.375 41.703125 
Q 47.40625 39.59375 52.65625 34.296875 
Q 57.90625 29 57.90625 20.125 
Q 57.90625 9.515625 50.796875 4.046875 
Q 43.703125 -1.421875 29.984375 -1.421875 
Q 24.8125 -1.421875 18.96875 -0.25 
Q 13.140625 0.921875 6.890625 3.21875 
L 6.890625 13.375 
Q 12.890625 10.015625 18.65625 8.296875 
Q 24.421875 6.59375 29.984375 6.59375 
Q 38.421875 6.59375 43.015625 9.90625 
Q 47.609375 13.234375 47.609375 19.390625 
Q 47.609375 24.75 44.3125 27.78125 
Q 41.015625 30.8125 33.5 32.328125 
L 27.484375 33.5 
Q 16.453125 35.6875 11.515625 40.375 
Q 6.59375 45.0625 6.59375 53.421875 
Q 6.59375 63.09375 13.40625 68.65625 
Q 20.21875 74.21875 32.171875 74.21875 
Q 37.3125 74.21875 42.625 73.28125 
Q 47.953125 72.359375 53.515625 70.515625 
z
" id="DejaVuSans-83"/>
       <path d="M 9.8125 72.90625 
L 19.671875 72.90625 
L 19.671875 0 
L 9.8125 0 
z
" id="DejaVuSans-73"/>
      </defs>
      <use xlink:href="#DejaVuSans-83"/>
      <use x="63.476562" xlink:href="#DejaVuSans-73"/>
     </g>
    </g>
    <g id="line2d_39">
     <path d="M 99 114.176563 
L 119 114.176563 
" style="fill:none;stroke:#ff7f0e;stroke-linecap:square;stroke-width:1.5;"/>
    </g>
    <g id="line2d_40"/>
    <g id="text_18">
     <!-- BD -->
     <g transform="translate(127 117.676563)scale(0.1 -0.1)">
      <defs>
       <path d="M 19.671875 34.8125 
L 19.671875 8.109375 
L 35.5 8.109375 
Q 43.453125 8.109375 47.28125 11.40625 
Q 51.125 14.703125 51.125 21.484375 
Q 51.125 28.328125 47.28125 31.5625 
Q 43.453125 34.8125 35.5 34.8125 
z
M 19.671875 64.796875 
L 19.671875 42.828125 
L 34.28125 42.828125 
Q 41.5 42.828125 45.03125 45.53125 
Q 48.578125 48.25 48.578125 53.8125 
Q 48.578125 59.328125 45.03125 62.0625 
Q 41.5 64.796875 34.28125 64.796875 
z
M 9.8125 72.90625 
L 35.015625 72.90625 
Q 46.296875 72.90625 52.390625 68.21875 
Q 58.5 63.53125 58.5 54.890625 
Q 58.5 48.1875 55.375 44.234375 
Q 52.25 40.28125 46.1875 39.3125 
Q 53.46875 37.75 57.5 32.78125 
Q 61.53125 27.828125 61.53125 20.40625 
Q 61.53125 10.640625 54.890625 5.3125 
Q 48.25 0 35.984375 0 
L 9.8125 0 
z
" id="DejaVuSans-66"/>
      </defs>
      <use xlink:href="#DejaVuSans-66"/>
      <use x="68.603516" xlink:href="#DejaVuSans-68"/>
     </g>
    </g>
    <g id="line2d_41">
     <path d="M 99 128.854688 
L 119 128.854688 
" style="fill:none;stroke:#2ca02c;stroke-linecap:square;stroke-width:1.5;"/>
    </g>
    <g id="line2d_42"/>
    <g id="text_19">
     <!-- SIR -->
     <g transform="translate(127 132.354688)scale(0.1 -0.1)">
      <defs>
       <path d="M 44.390625 34.1875 
Q 47.5625 33.109375 50.5625 29.59375 
Q 53.5625 26.078125 56.59375 19.921875 
L 66.609375 0 
L 56 0 
L 46.6875 18.703125 
Q 43.0625 26.03125 39.671875 28.421875 
Q 36.28125 30.8125 30.421875 30.8125 
L 19.671875 30.8125 
L 19.671875 0 
L 9.8125 0 
L 9.8125 72.90625 
L 32.078125 72.90625 
Q 44.578125 72.90625 50.734375 67.671875 
Q 56.890625 62.453125 56.890625 51.90625 
Q 56.890625 45.015625 53.6875 40.46875 
Q 50.484375 35.9375 44.390625 34.1875 
z
M 19.671875 64.796875 
L 19.671875 38.921875 
L 32.078125 38.921875 
Q 39.203125 38.921875 42.84375 42.21875 
Q 46.484375 45.515625 46.484375 51.90625 
Q 46.484375 58.296875 42.84375 61.546875 
Q 39.203125 64.796875 32.078125 64.796875 
z
" id="DejaVuSans-82"/>
      </defs>
      <use xlink:href="#DejaVuSans-83"/>
      <use x="63.476562" xlink:href="#DejaVuSans-73"/>
      <use x="92.96875" xlink:href="#DejaVuSans-82"/>
     </g>
    </g>
    <g id="line2d_43">
     <path d="M 99 143.532812 
L 119 143.532812 
" style="fill:none;stroke:#d62728;stroke-linecap:square;stroke-width:1.5;"/>
    </g>
    <g id="line2d_44"/>
    <g id="text_20">
     <!-- eSIR -->
     <g transform="translate(127 147.032812)scale(0.1 -0.1)">
      <use xlink:href="#DejaVuSans-101"/>
      <use x="61.523438" xlink:href="#DejaVuSans-83"/>
      <use x="125" xlink:href="#DejaVuSans-73"/>
      <use x="154.492188" xlink:href="#DejaVuSans-82"/>
     </g>
    </g>
    <g id="line2d_45">
     <path d="M 99 158.210938 
L 119 158.210938 
" style="fill:none;stroke:#9467bd;stroke-linecap:square;stroke-width:1.5;"/>
    </g>
    <g id="line2d_46"/>
    <g id="text_21">
     <!-- SEIR -->
     <g transform="translate(127 161.710938)scale(0.1 -0.1)">
      <defs>
       <path d="M 9.8125 72.90625 
L 55.90625 72.90625 
L 55.90625 64.59375 
L 19.671875 64.59375 
L 19.671875 43.015625 
L 54.390625 43.015625 
L 54.390625 34.71875 
L 19.671875 34.71875 
L 19.671875 8.296875 
L 56.78125 8.296875 
L 56.78125 0 
L 9.8125 0 
z
" id="DejaVuSans-69"/>
      </defs>
      <use xlink:href="#DejaVuSans-83"/>
      <use x="63.476562" xlink:href="#DejaVuSans-69"/>
      <use x="126.660156" xlink:href="#DejaVuSans-73"/>
      <use x="156.152344" xlink:href="#DejaVuSans-82"/>
     </g>
    </g>
    <g id="line2d_47">
     <path d="M 99 172.889063 
L 119 172.889063 
" style="fill:none;stroke:#8c564b;stroke-linecap:square;stroke-width:1.5;"/>
    </g>
    <g id="line2d_48"/>
    <g id="text_22">
     <!-- eSEIR -->
     <g transform="translate(127 176.389063)scale(0.1 -0.1)">
      <use xlink:href="#DejaVuSans-101"/>
      <use x="61.523438" xlink:href="#DejaVuSans-83"/>
      <use x="125" xlink:href="#DejaVuSans-69"/>
      <use x="188.183594" xlink:href="#DejaVuSans-73"/>
      <use x="217.675781" xlink:href="#DejaVuSans-82"/>
     </g>
    </g>
    <g id="line2d_49">
     <path d="M 99 187.567188 
L 119 187.567188 
" style="fill:none;stroke:#e377c2;stroke-linecap:square;stroke-width:1.5;"/>
    </g>
    <g id="line2d_50"/>
    <g id="text_23">
     <!-- SEIUR -->
     <g transform="translate(127 191.067188)scale(0.1 -0.1)">
      <defs>
       <path d="M 8.6875 72.90625 
L 18.609375 72.90625 
L 18.609375 28.609375 
Q 18.609375 16.890625 22.84375 11.734375 
Q 27.09375 6.59375 36.625 6.59375 
Q 46.09375 6.59375 50.34375 11.734375 
Q 54.59375 16.890625 54.59375 28.609375 
L 54.59375 72.90625 
L 64.5 72.90625 
L 64.5 27.390625 
Q 64.5 13.140625 57.4375 5.859375 
Q 50.390625 -1.421875 36.625 -1.421875 
Q 22.796875 -1.421875 15.734375 5.859375 
Q 8.6875 13.140625 8.6875 27.390625 
z
" id="DejaVuSans-85"/>
      </defs>
      <use xlink:href="#DejaVuSans-83"/>
      <use x="63.476562" xlink:href="#DejaVuSans-69"/>
      <use x="126.660156" xlink:href="#DejaVuSans-73"/>
      <use x="156.152344" xlink:href="#DejaVuSans-85"/>
      <use x="229.345703" xlink:href="#DejaVuSans-82"/>
     </g>
    </g>
    <g id="line2d_51">
     <path d="M 99 202.245312 
L 119 202.245312 
" style="fill:none;stroke:#7f7f7f;stroke-linecap:square;stroke-width:1.5;"/>
    </g>
    <g id="line2d_52"/>
    <g id="text_24">
     <!-- eSEIUR -->
     <g transform="translate(127 205.745312)scale(0.1 -0.1)">
      <use xlink:href="#DejaVuSans-101"/>
      <use x="61.523438" xlink:href="#DejaVuSans-83"/>
      <use x="125" xlink:href="#DejaVuSans-69"/>
      <use x="188.183594" xlink:href="#DejaVuSans-73"/>
      <use x="217.675781" xlink:href="#DejaVuSans-85"/>
      <use x="290.869141" xlink:href="#DejaVuSans-82"/>
     </g>
    </g>
    <g id="line2d_53">
     <path d="M 99 216.923437 
L 119 216.923437 
" style="fill:none;stroke:#bcbd22;stroke-linecap:square;stroke-width:1.5;"/>
    </g>
    <g id="line2d_54"/>
    <g id="text_25">
     <!-- eSEIUR$^{range}$ -->
     <g transform="translate(127 220.423437)scale(0.1 -0.1)">
      <defs>
       <path d="M 44.578125 46.390625 
Q 43.21875 47.125 41.453125 47.515625 
Q 39.703125 47.90625 37.703125 47.90625 
Q 30.515625 47.90625 25.140625 42.453125 
Q 19.78125 37.015625 18.015625 27.875 
L 12.5 0 
L 3.515625 0 
L 14.203125 54.6875 
L 23.1875 54.6875 
L 21.484375 46.1875 
Q 25.046875 50.921875 30 53.453125 
Q 34.96875 56 40.578125 56 
Q 42.046875 56 43.453125 55.828125 
Q 44.875 55.671875 46.296875 55.28125 
z
" id="DejaVuSans-Oblique-114"/>
       <path d="M 53.71875 31.203125 
L 47.609375 0 
L 38.625 0 
L 40.28125 8.296875 
Q 36.328125 3.421875 31.265625 1 
Q 26.21875 -1.421875 20.015625 -1.421875 
Q 13.03125 -1.421875 8.5625 2.84375 
Q 4.109375 7.125 4.109375 13.8125 
Q 4.109375 23.390625 11.75 28.953125 
Q 19.390625 34.515625 32.8125 34.515625 
L 45.3125 34.515625 
L 45.796875 36.921875 
Q 45.90625 37.3125 45.953125 37.765625 
Q 46 38.234375 46 39.203125 
Q 46 43.5625 42.453125 45.96875 
Q 38.921875 48.390625 32.515625 48.390625 
Q 28.125 48.390625 23.5 47.265625 
Q 18.890625 46.140625 14.015625 43.890625 
L 15.578125 52.203125 
Q 20.65625 54.109375 25.515625 55.046875 
Q 30.375 56 34.90625 56 
Q 44.578125 56 49.625 51.796875 
Q 54.6875 47.609375 54.6875 39.59375 
Q 54.6875 37.984375 54.4375 35.8125 
Q 54.203125 33.640625 53.71875 31.203125 
z
M 44 27.484375 
L 35.015625 27.484375 
Q 23.96875 27.484375 18.671875 24.53125 
Q 13.375 21.578125 13.375 15.375 
Q 13.375 11.078125 16.078125 8.640625 
Q 18.796875 6.203125 23.578125 6.203125 
Q 30.90625 6.203125 36.375 11.453125 
Q 41.84375 16.703125 43.609375 25.484375 
z
" id="DejaVuSans-Oblique-97"/>
       <path d="M 55.71875 33.015625 
L 49.3125 0 
L 40.28125 0 
L 46.6875 32.671875 
Q 47.125 34.96875 47.359375 36.71875 
Q 47.609375 38.484375 47.609375 39.5 
Q 47.609375 43.609375 45.015625 45.890625 
Q 42.4375 48.1875 37.796875 48.1875 
Q 30.5625 48.1875 25.34375 43.375 
Q 20.125 38.578125 18.5 30.328125 
L 12.5 0 
L 3.515625 0 
L 14.109375 54.6875 
L 23.09375 54.6875 
L 21.296875 46.09375 
Q 25.046875 50.828125 30.3125 53.40625 
Q 35.59375 56 41.40625 56 
Q 48.640625 56 52.609375 52.09375 
Q 56.59375 48.1875 56.59375 41.109375 
Q 56.59375 39.359375 56.375 37.359375 
Q 56.15625 35.359375 55.71875 33.015625 
z
" id="DejaVuSans-Oblique-110"/>
       <path d="M 59.625 54.6875 
L 50.296875 6.78125 
Q 47.609375 -7.125 40.015625 -13.953125 
Q 32.421875 -20.796875 19.578125 -20.796875 
Q 14.84375 -20.796875 10.78125 -20.09375 
Q 6.734375 -19.390625 3.21875 -17.921875 
L 4.890625 -9.1875 
Q 8.203125 -11.328125 11.90625 -12.34375 
Q 15.625 -13.375 19.828125 -13.375 
Q 28.375 -13.375 33.859375 -8.703125 
Q 39.359375 -4.046875 41.109375 4.6875 
L 41.890625 8.796875 
Q 38.140625 4.5 33.15625 2.25 
Q 28.171875 0 22.40625 0 
Q 14.109375 0 9.34375 5.484375 
Q 4.59375 10.984375 4.59375 20.609375 
Q 4.59375 28.171875 7.46875 35.421875 
Q 10.359375 42.671875 15.578125 48.296875 
Q 19.046875 52 23.65625 54 
Q 28.265625 56 33.296875 56 
Q 38.8125 56 42.90625 53.4375 
Q 47.015625 50.875 49.03125 46.1875 
L 50.59375 54.6875 
z
M 46.09375 34.625 
Q 46.09375 41.265625 42.96875 44.875 
Q 39.84375 48.484375 34.078125 48.484375 
Q 30.515625 48.484375 27.296875 47.0625 
Q 24.078125 45.65625 21.78125 43.109375 
Q 18.0625 38.921875 15.984375 33.234375 
Q 13.921875 27.546875 13.921875 21.484375 
Q 13.921875 14.75 17.0625 11.125 
Q 20.21875 7.515625 26.125 7.515625 
Q 34.671875 7.515625 40.375 15.25 
Q 46.09375 23 46.09375 34.625 
z
" id="DejaVuSans-Oblique-103"/>
       <path d="M 48.09375 32.234375 
Q 48.25 33.015625 48.3125 33.84375 
Q 48.390625 34.671875 48.390625 35.5 
Q 48.390625 41.453125 44.890625 44.921875 
Q 41.40625 48.390625 35.40625 48.390625 
Q 28.71875 48.390625 23.578125 44.15625 
Q 18.453125 39.9375 15.828125 32.171875 
z
M 55.90625 25.203125 
L 14.109375 25.203125 
Q 13.8125 23.34375 13.71875 22.265625 
Q 13.625 21.1875 13.625 20.40625 
Q 13.625 13.625 17.796875 9.90625 
Q 21.96875 6.203125 29.59375 6.203125 
Q 35.453125 6.203125 40.671875 7.515625 
Q 45.90625 8.84375 50.390625 11.375 
L 48.6875 2.484375 
Q 43.84375 0.53125 38.6875 -0.4375 
Q 33.546875 -1.421875 28.21875 -1.421875 
Q 16.84375 -1.421875 10.71875 4.015625 
Q 4.59375 9.46875 4.59375 19.484375 
Q 4.59375 28.03125 7.640625 35.375 
Q 10.6875 42.71875 16.609375 48.484375 
Q 20.40625 52.09375 25.65625 54.046875 
Q 30.90625 56 36.8125 56 
Q 46.09375 56 51.578125 50.4375 
Q 57.078125 44.875 57.078125 35.5 
Q 57.078125 33.25 56.78125 30.6875 
Q 56.5 28.125 55.90625 25.203125 
z
" id="DejaVuSans-Oblique-101"/>
      </defs>
      <use transform="translate(0 0.51875)" xlink:href="#DejaVuSans-101"/>
      <use transform="translate(61.523438 0.51875)" xlink:href="#DejaVuSans-83"/>
      <use transform="translate(125 0.51875)" xlink:href="#DejaVuSans-69"/>
      <use transform="translate(188.183594 0.51875)" xlink:href="#DejaVuSans-73"/>
      <use transform="translate(217.675781 0.51875)" xlink:href="#DejaVuSans-85"/>
      <use transform="translate(288.619141 0.51875)" xlink:href="#DejaVuSans-82"/>
      <use transform="translate(359.058594 38.8)scale(0.7)" xlink:href="#DejaVuSans-Oblique-114"/>
      <use transform="translate(387.837891 38.8)scale(0.7)" xlink:href="#DejaVuSans-Oblique-97"/>
      <use transform="translate(430.733398 38.8)scale(0.7)" xlink:href="#DejaVuSans-Oblique-110"/>
      <use transform="translate(475.098633 38.8)scale(0.7)" xlink:href="#DejaVuSans-Oblique-103"/>
      <use transform="translate(519.532227 38.8)scale(0.7)" xlink:href="#DejaVuSans-Oblique-101"/>
     </g>
    </g>
   </g>
  </g>
 </g>
 <defs>
  <clipPath id="pa34bda055b">
   <rect height="543.6" width="558" x="90" y="86.4"/>
  </clipPath>
 </defs>
</svg>
