<?xml version="1.0" encoding="utf-8" standalone="no"?>
<!DOCTYPE svg PUBLIC "-//W3C//DTD SVG 1.1//EN"
  "http://www.w3.org/Graphics/SVG/1.1/DTD/svg11.dtd">
<!-- Created with matplotlib (https://matplotlib.org/) -->
<svg height="720pt" version="1.1" viewBox="0 0 720 720" width="720pt" xmlns="http://www.w3.org/2000/svg" xmlns:xlink="http://www.w3.org/1999/xlink">
 <metadata>
  <rdf:RDF xmlns:cc="http://creativecommons.org/ns#" xmlns:dc="http://purl.org/dc/elements/1.1/" xmlns:rdf="http://www.w3.org/1999/02/22-rdf-syntax-ns#">
   <cc:Work>
    <dc:type rdf:resource="http://purl.org/dc/dcmitype/StillImage"/>
    <dc:date>2022-07-13T18:53:53.048543</dc:date>
    <dc:format>image/svg+xml</dc:format>
    <dc:creator>
     <cc:Agent>
      <dc:title>Matplotlib v3.3.2, https://matplotlib.org/</dc:title>
     </cc:Agent>
    </dc:creator>
   </cc:Work>
  </rdf:RDF>
 </metadata>
 <defs>
  <style type="text/css">*{stroke-linecap:butt;stroke-linejoin:round;}</style>
 </defs>
 <g id="figure_1">
  <g id="patch_1">
   <path d="M 0 720 
L 720 720 
L 720 0 
L 0 0 
z
" style="fill:none;"/>
  </g>
  <g id="axes_1">
   <g id="patch_2">
    <path d="M 90 630 
L 648 630 
L 648 86.4 
L 90 86.4 
z
" style="fill:#ffffff;"/>
   </g>
   <g id="matplotlib.axis_1">
    <g id="xtick_1">
     <g id="line2d_1">
      <path clip-path="url(#p4c3cad4fc0)" d="M 115.363636 630 
L 115.363636 86.4 
" style="fill:none;stroke:#b0b0b0;stroke-linecap:square;stroke-width:0.8;"/>
     </g>
     <g id="line2d_2">
      <defs>
       <path d="M 0 0 
L 0 3.5 
" id="m702c2c7122" style="stroke:#000000;stroke-width:0.8;"/>
      </defs>
      <g>
       <use style="stroke:#000000;stroke-width:0.8;" x="115.363636" xlink:href="#m702c2c7122" y="630"/>
      </g>
     </g>
     <g id="text_1">
      <!-- 0 -->
      <g transform="translate(112.182386 644.598438)scale(0.1 -0.1)">
       <defs>
        <path d="M 31.78125 66.40625 
Q 24.171875 66.40625 20.328125 58.90625 
Q 16.5 51.421875 16.5 36.375 
Q 16.5 21.390625 20.328125 13.890625 
Q 24.171875 6.390625 31.78125 6.390625 
Q 39.453125 6.390625 43.28125 13.890625 
Q 47.125 21.390625 47.125 36.375 
Q 47.125 51.421875 43.28125 58.90625 
Q 39.453125 66.40625 31.78125 66.40625 
z
M 31.78125 74.21875 
Q 44.046875 74.21875 50.515625 64.515625 
Q 56.984375 54.828125 56.984375 36.375 
Q 56.984375 17.96875 50.515625 8.265625 
Q 44.046875 -1.421875 31.78125 -1.421875 
Q 19.53125 -1.421875 13.0625 8.265625 
Q 6.59375 17.96875 6.59375 36.375 
Q 6.59375 54.828125 13.0625 64.515625 
Q 19.53125 74.21875 31.78125 74.21875 
z
" id="DejaVuSans-48"/>
       </defs>
       <use xlink:href="#DejaVuSans-48"/>
      </g>
     </g>
    </g>
    <g id="xtick_2">
     <g id="line2d_3">
      <path clip-path="url(#p4c3cad4fc0)" d="M 197.181818 630 
L 197.181818 86.4 
" style="fill:none;stroke:#b0b0b0;stroke-linecap:square;stroke-width:0.8;"/>
     </g>
     <g id="line2d_4">
      <g>
       <use style="stroke:#000000;stroke-width:0.8;" x="197.181818" xlink:href="#m702c2c7122" y="630"/>
      </g>
     </g>
     <g id="text_2">
      <!-- 20 -->
      <g transform="translate(190.819318 644.598438)scale(0.1 -0.1)">
       <defs>
        <path d="M 19.1875 8.296875 
L 53.609375 8.296875 
L 53.609375 0 
L 7.328125 0 
L 7.328125 8.296875 
Q 12.9375 14.109375 22.625 23.890625 
Q 32.328125 33.6875 34.8125 36.53125 
Q 39.546875 41.84375 41.421875 45.53125 
Q 43.3125 49.21875 43.3125 52.78125 
Q 43.3125 58.59375 39.234375 62.25 
Q 35.15625 65.921875 28.609375 65.921875 
Q 23.96875 65.921875 18.8125 64.3125 
Q 13.671875 62.703125 7.8125 59.421875 
L 7.8125 69.390625 
Q 13.765625 71.78125 18.9375 73 
Q 24.125 74.21875 28.421875 74.21875 
Q 39.75 74.21875 46.484375 68.546875 
Q 53.21875 62.890625 53.21875 53.421875 
Q 53.21875 48.921875 51.53125 44.890625 
Q 49.859375 40.875 45.40625 35.40625 
Q 44.1875 33.984375 37.640625 27.21875 
Q 31.109375 20.453125 19.1875 8.296875 
z
" id="DejaVuSans-50"/>
       </defs>
       <use xlink:href="#DejaVuSans-50"/>
       <use x="63.623047" xlink:href="#DejaVuSans-48"/>
      </g>
     </g>
    </g>
    <g id="xtick_3">
     <g id="line2d_5">
      <path clip-path="url(#p4c3cad4fc0)" d="M 279 630 
L 279 86.4 
" style="fill:none;stroke:#b0b0b0;stroke-linecap:square;stroke-width:0.8;"/>
     </g>
     <g id="line2d_6">
      <g>
       <use style="stroke:#000000;stroke-width:0.8;" x="279" xlink:href="#m702c2c7122" y="630"/>
      </g>
     </g>
     <g id="text_3">
      <!-- 40 -->
      <g transform="translate(272.6375 644.598438)scale(0.1 -0.1)">
       <defs>
        <path d="M 37.796875 64.3125 
L 12.890625 25.390625 
L 37.796875 25.390625 
z
M 35.203125 72.90625 
L 47.609375 72.90625 
L 47.609375 25.390625 
L 58.015625 25.390625 
L 58.015625 17.1875 
L 47.609375 17.1875 
L 47.609375 0 
L 37.796875 0 
L 37.796875 17.1875 
L 4.890625 17.1875 
L 4.890625 26.703125 
z
" id="DejaVuSans-52"/>
       </defs>
       <use xlink:href="#DejaVuSans-52"/>
       <use x="63.623047" xlink:href="#DejaVuSans-48"/>
      </g>
     </g>
    </g>
    <g id="xtick_4">
     <g id="line2d_7">
      <path clip-path="url(#p4c3cad4fc0)" d="M 360.818182 630 
L 360.818182 86.4 
" style="fill:none;stroke:#b0b0b0;stroke-linecap:square;stroke-width:0.8;"/>
     </g>
     <g id="line2d_8">
      <g>
       <use style="stroke:#000000;stroke-width:0.8;" x="360.818182" xlink:href="#m702c2c7122" y="630"/>
      </g>
     </g>
     <g id="text_4">
      <!-- 60 -->
      <g transform="translate(354.455682 644.598438)scale(0.1 -0.1)">
       <defs>
        <path d="M 33.015625 40.375 
Q 26.375 40.375 22.484375 35.828125 
Q 18.609375 31.296875 18.609375 23.390625 
Q 18.609375 15.53125 22.484375 10.953125 
Q 26.375 6.390625 33.015625 6.390625 
Q 39.65625 6.390625 43.53125 10.953125 
Q 47.40625 15.53125 47.40625 23.390625 
Q 47.40625 31.296875 43.53125 35.828125 
Q 39.65625 40.375 33.015625 40.375 
z
M 52.59375 71.296875 
L 52.59375 62.3125 
Q 48.875 64.0625 45.09375 64.984375 
Q 41.3125 65.921875 37.59375 65.921875 
Q 27.828125 65.921875 22.671875 59.328125 
Q 17.53125 52.734375 16.796875 39.40625 
Q 19.671875 43.65625 24.015625 45.921875 
Q 28.375 48.1875 33.59375 48.1875 
Q 44.578125 48.1875 50.953125 41.515625 
Q 57.328125 34.859375 57.328125 23.390625 
Q 57.328125 12.15625 50.6875 5.359375 
Q 44.046875 -1.421875 33.015625 -1.421875 
Q 20.359375 -1.421875 13.671875 8.265625 
Q 6.984375 17.96875 6.984375 36.375 
Q 6.984375 53.65625 15.1875 63.9375 
Q 23.390625 74.21875 37.203125 74.21875 
Q 40.921875 74.21875 44.703125 73.484375 
Q 48.484375 72.75 52.59375 71.296875 
z
" id="DejaVuSans-54"/>
       </defs>
       <use xlink:href="#DejaVuSans-54"/>
       <use x="63.623047" xlink:href="#DejaVuSans-48"/>
      </g>
     </g>
    </g>
    <g id="xtick_5">
     <g id="line2d_9">
      <path clip-path="url(#p4c3cad4fc0)" d="M 442.636364 630 
L 442.636364 86.4 
" style="fill:none;stroke:#b0b0b0;stroke-linecap:square;stroke-width:0.8;"/>
     </g>
     <g id="line2d_10">
      <g>
       <use style="stroke:#000000;stroke-width:0.8;" x="442.636364" xlink:href="#m702c2c7122" y="630"/>
      </g>
     </g>
     <g id="text_5">
      <!-- 80 -->
      <g transform="translate(436.273864 644.598438)scale(0.1 -0.1)">
       <defs>
        <path d="M 31.78125 34.625 
Q 24.75 34.625 20.71875 30.859375 
Q 16.703125 27.09375 16.703125 20.515625 
Q 16.703125 13.921875 20.71875 10.15625 
Q 24.75 6.390625 31.78125 6.390625 
Q 38.8125 6.390625 42.859375 10.171875 
Q 46.921875 13.96875 46.921875 20.515625 
Q 46.921875 27.09375 42.890625 30.859375 
Q 38.875 34.625 31.78125 34.625 
z
M 21.921875 38.8125 
Q 15.578125 40.375 12.03125 44.71875 
Q 8.5 49.078125 8.5 55.328125 
Q 8.5 64.0625 14.71875 69.140625 
Q 20.953125 74.21875 31.78125 74.21875 
Q 42.671875 74.21875 48.875 69.140625 
Q 55.078125 64.0625 55.078125 55.328125 
Q 55.078125 49.078125 51.53125 44.71875 
Q 48 40.375 41.703125 38.8125 
Q 48.828125 37.15625 52.796875 32.3125 
Q 56.78125 27.484375 56.78125 20.515625 
Q 56.78125 9.90625 50.3125 4.234375 
Q 43.84375 -1.421875 31.78125 -1.421875 
Q 19.734375 -1.421875 13.25 4.234375 
Q 6.78125 9.90625 6.78125 20.515625 
Q 6.78125 27.484375 10.78125 32.3125 
Q 14.796875 37.15625 21.921875 38.8125 
z
M 18.3125 54.390625 
Q 18.3125 48.734375 21.84375 45.5625 
Q 25.390625 42.390625 31.78125 42.390625 
Q 38.140625 42.390625 41.71875 45.5625 
Q 45.3125 48.734375 45.3125 54.390625 
Q 45.3125 60.0625 41.71875 63.234375 
Q 38.140625 66.40625 31.78125 66.40625 
Q 25.390625 66.40625 21.84375 63.234375 
Q 18.3125 60.0625 18.3125 54.390625 
z
" id="DejaVuSans-56"/>
       </defs>
       <use xlink:href="#DejaVuSans-56"/>
       <use x="63.623047" xlink:href="#DejaVuSans-48"/>
      </g>
     </g>
    </g>
    <g id="xtick_6">
     <g id="line2d_11">
      <path clip-path="url(#p4c3cad4fc0)" d="M 524.454545 630 
L 524.454545 86.4 
" style="fill:none;stroke:#b0b0b0;stroke-linecap:square;stroke-width:0.8;"/>
     </g>
     <g id="line2d_12">
      <g>
       <use style="stroke:#000000;stroke-width:0.8;" x="524.454545" xlink:href="#m702c2c7122" y="630"/>
      </g>
     </g>
     <g id="text_6">
      <!-- 100 -->
      <g transform="translate(514.910795 644.598438)scale(0.1 -0.1)">
       <defs>
        <path d="M 12.40625 8.296875 
L 28.515625 8.296875 
L 28.515625 63.921875 
L 10.984375 60.40625 
L 10.984375 69.390625 
L 28.421875 72.90625 
L 38.28125 72.90625 
L 38.28125 8.296875 
L 54.390625 8.296875 
L 54.390625 0 
L 12.40625 0 
z
" id="DejaVuSans-49"/>
       </defs>
       <use xlink:href="#DejaVuSans-49"/>
       <use x="63.623047" xlink:href="#DejaVuSans-48"/>
       <use x="127.246094" xlink:href="#DejaVuSans-48"/>
      </g>
     </g>
    </g>
    <g id="xtick_7">
     <g id="line2d_13">
      <path clip-path="url(#p4c3cad4fc0)" d="M 606.272727 630 
L 606.272727 86.4 
" style="fill:none;stroke:#b0b0b0;stroke-linecap:square;stroke-width:0.8;"/>
     </g>
     <g id="line2d_14">
      <g>
       <use style="stroke:#000000;stroke-width:0.8;" x="606.272727" xlink:href="#m702c2c7122" y="630"/>
      </g>
     </g>
     <g id="text_7">
      <!-- 120 -->
      <g transform="translate(596.728977 644.598438)scale(0.1 -0.1)">
       <use xlink:href="#DejaVuSans-49"/>
       <use x="63.623047" xlink:href="#DejaVuSans-50"/>
       <use x="127.246094" xlink:href="#DejaVuSans-48"/>
      </g>
     </g>
    </g>
    <g id="text_8">
     <!-- Days -->
     <g transform="translate(356.521875 658.276562)scale(0.1 -0.1)">
      <defs>
       <path d="M 19.671875 64.796875 
L 19.671875 8.109375 
L 31.59375 8.109375 
Q 46.6875 8.109375 53.6875 14.9375 
Q 60.6875 21.78125 60.6875 36.53125 
Q 60.6875 51.171875 53.6875 57.984375 
Q 46.6875 64.796875 31.59375 64.796875 
z
M 9.8125 72.90625 
L 30.078125 72.90625 
Q 51.265625 72.90625 61.171875 64.09375 
Q 71.09375 55.28125 71.09375 36.53125 
Q 71.09375 17.671875 61.125 8.828125 
Q 51.171875 0 30.078125 0 
L 9.8125 0 
z
" id="DejaVuSans-68"/>
       <path d="M 34.28125 27.484375 
Q 23.390625 27.484375 19.1875 25 
Q 14.984375 22.515625 14.984375 16.5 
Q 14.984375 11.71875 18.140625 8.90625 
Q 21.296875 6.109375 26.703125 6.109375 
Q 34.1875 6.109375 38.703125 11.40625 
Q 43.21875 16.703125 43.21875 25.484375 
L 43.21875 27.484375 
z
M 52.203125 31.203125 
L 52.203125 0 
L 43.21875 0 
L 43.21875 8.296875 
Q 40.140625 3.328125 35.546875 0.953125 
Q 30.953125 -1.421875 24.3125 -1.421875 
Q 15.921875 -1.421875 10.953125 3.296875 
Q 6 8.015625 6 15.921875 
Q 6 25.140625 12.171875 29.828125 
Q 18.359375 34.515625 30.609375 34.515625 
L 43.21875 34.515625 
L 43.21875 35.40625 
Q 43.21875 41.609375 39.140625 45 
Q 35.0625 48.390625 27.6875 48.390625 
Q 23 48.390625 18.546875 47.265625 
Q 14.109375 46.140625 10.015625 43.890625 
L 10.015625 52.203125 
Q 14.9375 54.109375 19.578125 55.046875 
Q 24.21875 56 28.609375 56 
Q 40.484375 56 46.34375 49.84375 
Q 52.203125 43.703125 52.203125 31.203125 
z
" id="DejaVuSans-97"/>
       <path d="M 32.171875 -5.078125 
Q 28.375 -14.84375 24.75 -17.8125 
Q 21.140625 -20.796875 15.09375 -20.796875 
L 7.90625 -20.796875 
L 7.90625 -13.28125 
L 13.1875 -13.28125 
Q 16.890625 -13.28125 18.9375 -11.515625 
Q 21 -9.765625 23.484375 -3.21875 
L 25.09375 0.875 
L 2.984375 54.6875 
L 12.5 54.6875 
L 29.59375 11.921875 
L 46.6875 54.6875 
L 56.203125 54.6875 
z
" id="DejaVuSans-121"/>
       <path d="M 44.28125 53.078125 
L 44.28125 44.578125 
Q 40.484375 46.53125 36.375 47.5 
Q 32.28125 48.484375 27.875 48.484375 
Q 21.1875 48.484375 17.84375 46.4375 
Q 14.5 44.390625 14.5 40.28125 
Q 14.5 37.15625 16.890625 35.375 
Q 19.28125 33.59375 26.515625 31.984375 
L 29.59375 31.296875 
Q 39.15625 29.25 43.1875 25.515625 
Q 47.21875 21.78125 47.21875 15.09375 
Q 47.21875 7.46875 41.1875 3.015625 
Q 35.15625 -1.421875 24.609375 -1.421875 
Q 20.21875 -1.421875 15.453125 -0.5625 
Q 10.6875 0.296875 5.421875 2 
L 5.421875 11.28125 
Q 10.40625 8.6875 15.234375 7.390625 
Q 20.0625 6.109375 24.8125 6.109375 
Q 31.15625 6.109375 34.5625 8.28125 
Q 37.984375 10.453125 37.984375 14.40625 
Q 37.984375 18.0625 35.515625 20.015625 
Q 33.0625 21.96875 24.703125 23.78125 
L 21.578125 24.515625 
Q 13.234375 26.265625 9.515625 29.90625 
Q 5.8125 33.546875 5.8125 39.890625 
Q 5.8125 47.609375 11.28125 51.796875 
Q 16.75 56 26.8125 56 
Q 31.78125 56 36.171875 55.265625 
Q 40.578125 54.546875 44.28125 53.078125 
z
" id="DejaVuSans-115"/>
      </defs>
      <use xlink:href="#DejaVuSans-68"/>
      <use x="77.001953" xlink:href="#DejaVuSans-97"/>
      <use x="138.28125" xlink:href="#DejaVuSans-121"/>
      <use x="197.460938" xlink:href="#DejaVuSans-115"/>
     </g>
    </g>
   </g>
   <g id="matplotlib.axis_2">
    <g id="ytick_1">
     <g id="line2d_15">
      <path clip-path="url(#p4c3cad4fc0)" d="M 90 605.409184 
L 648 605.409184 
" style="fill:none;stroke:#b0b0b0;stroke-linecap:square;stroke-width:0.8;"/>
     </g>
     <g id="line2d_16">
      <defs>
       <path d="M 0 0 
L -3.5 0 
" id="m13686f7bf9" style="stroke:#000000;stroke-width:0.8;"/>
      </defs>
      <g>
       <use style="stroke:#000000;stroke-width:0.8;" x="90" xlink:href="#m13686f7bf9" y="605.409184"/>
      </g>
     </g>
     <g id="text_9">
      <!-- 0 -->
      <g transform="translate(76.6375 609.208402)scale(0.1 -0.1)">
       <use xlink:href="#DejaVuSans-48"/>
      </g>
     </g>
    </g>
    <g id="ytick_2">
     <g id="line2d_17">
      <path clip-path="url(#p4c3cad4fc0)" d="M 90 517.798349 
L 648 517.798349 
" style="fill:none;stroke:#b0b0b0;stroke-linecap:square;stroke-width:0.8;"/>
     </g>
     <g id="line2d_18">
      <g>
       <use style="stroke:#000000;stroke-width:0.8;" x="90" xlink:href="#m13686f7bf9" y="517.798349"/>
      </g>
     </g>
     <g id="text_10">
      <!-- 20000 -->
      <g transform="translate(51.1875 521.597568)scale(0.1 -0.1)">
       <use xlink:href="#DejaVuSans-50"/>
       <use x="63.623047" xlink:href="#DejaVuSans-48"/>
       <use x="127.246094" xlink:href="#DejaVuSans-48"/>
       <use x="190.869141" xlink:href="#DejaVuSans-48"/>
       <use x="254.492188" xlink:href="#DejaVuSans-48"/>
      </g>
     </g>
    </g>
    <g id="ytick_3">
     <g id="line2d_19">
      <path clip-path="url(#p4c3cad4fc0)" d="M 90 430.187515 
L 648 430.187515 
" style="fill:none;stroke:#b0b0b0;stroke-linecap:square;stroke-width:0.8;"/>
     </g>
     <g id="line2d_20">
      <g>
       <use style="stroke:#000000;stroke-width:0.8;" x="90" xlink:href="#m13686f7bf9" y="430.187515"/>
      </g>
     </g>
     <g id="text_11">
      <!-- 40000 -->
      <g transform="translate(51.1875 433.986733)scale(0.1 -0.1)">
       <use xlink:href="#DejaVuSans-52"/>
       <use x="63.623047" xlink:href="#DejaVuSans-48"/>
       <use x="127.246094" xlink:href="#DejaVuSans-48"/>
       <use x="190.869141" xlink:href="#DejaVuSans-48"/>
       <use x="254.492188" xlink:href="#DejaVuSans-48"/>
      </g>
     </g>
    </g>
    <g id="ytick_4">
     <g id="line2d_21">
      <path clip-path="url(#p4c3cad4fc0)" d="M 90 342.57668 
L 648 342.57668 
" style="fill:none;stroke:#b0b0b0;stroke-linecap:square;stroke-width:0.8;"/>
     </g>
     <g id="line2d_22">
      <g>
       <use style="stroke:#000000;stroke-width:0.8;" x="90" xlink:href="#m13686f7bf9" y="342.57668"/>
      </g>
     </g>
     <g id="text_12">
      <!-- 60000 -->
      <g transform="translate(51.1875 346.375899)scale(0.1 -0.1)">
       <use xlink:href="#DejaVuSans-54"/>
       <use x="63.623047" xlink:href="#DejaVuSans-48"/>
       <use x="127.246094" xlink:href="#DejaVuSans-48"/>
       <use x="190.869141" xlink:href="#DejaVuSans-48"/>
       <use x="254.492188" xlink:href="#DejaVuSans-48"/>
      </g>
     </g>
    </g>
    <g id="ytick_5">
     <g id="line2d_23">
      <path clip-path="url(#p4c3cad4fc0)" d="M 90 254.965845 
L 648 254.965845 
" style="fill:none;stroke:#b0b0b0;stroke-linecap:square;stroke-width:0.8;"/>
     </g>
     <g id="line2d_24">
      <g>
       <use style="stroke:#000000;stroke-width:0.8;" x="90" xlink:href="#m13686f7bf9" y="254.965845"/>
      </g>
     </g>
     <g id="text_13">
      <!-- 80000 -->
      <g transform="translate(51.1875 258.765064)scale(0.1 -0.1)">
       <use xlink:href="#DejaVuSans-56"/>
       <use x="63.623047" xlink:href="#DejaVuSans-48"/>
       <use x="127.246094" xlink:href="#DejaVuSans-48"/>
       <use x="190.869141" xlink:href="#DejaVuSans-48"/>
       <use x="254.492188" xlink:href="#DejaVuSans-48"/>
      </g>
     </g>
    </g>
    <g id="ytick_6">
     <g id="line2d_25">
      <path clip-path="url(#p4c3cad4fc0)" d="M 90 167.355011 
L 648 167.355011 
" style="fill:none;stroke:#b0b0b0;stroke-linecap:square;stroke-width:0.8;"/>
     </g>
     <g id="line2d_26">
      <g>
       <use style="stroke:#000000;stroke-width:0.8;" x="90" xlink:href="#m13686f7bf9" y="167.355011"/>
      </g>
     </g>
     <g id="text_14">
      <!-- 100000 -->
      <g transform="translate(44.825 171.15423)scale(0.1 -0.1)">
       <use xlink:href="#DejaVuSans-49"/>
       <use x="63.623047" xlink:href="#DejaVuSans-48"/>
       <use x="127.246094" xlink:href="#DejaVuSans-48"/>
       <use x="190.869141" xlink:href="#DejaVuSans-48"/>
       <use x="254.492188" xlink:href="#DejaVuSans-48"/>
       <use x="318.115234" xlink:href="#DejaVuSans-48"/>
      </g>
     </g>
    </g>
    <g id="text_15">
     <!-- Cumulative cases -->
     <g transform="translate(38.745312 402.425781)rotate(-90)scale(0.1 -0.1)">
      <defs>
       <path d="M 64.40625 67.28125 
L 64.40625 56.890625 
Q 59.421875 61.53125 53.78125 63.8125 
Q 48.140625 66.109375 41.796875 66.109375 
Q 29.296875 66.109375 22.65625 58.46875 
Q 16.015625 50.828125 16.015625 36.375 
Q 16.015625 21.96875 22.65625 14.328125 
Q 29.296875 6.6875 41.796875 6.6875 
Q 48.140625 6.6875 53.78125 8.984375 
Q 59.421875 11.28125 64.40625 15.921875 
L 64.40625 5.609375 
Q 59.234375 2.09375 53.4375 0.328125 
Q 47.65625 -1.421875 41.21875 -1.421875 
Q 24.65625 -1.421875 15.125 8.703125 
Q 5.609375 18.84375 5.609375 36.375 
Q 5.609375 53.953125 15.125 64.078125 
Q 24.65625 74.21875 41.21875 74.21875 
Q 47.75 74.21875 53.53125 72.484375 
Q 59.328125 70.75 64.40625 67.28125 
z
" id="DejaVuSans-67"/>
       <path d="M 8.5 21.578125 
L 8.5 54.6875 
L 17.484375 54.6875 
L 17.484375 21.921875 
Q 17.484375 14.15625 20.5 10.265625 
Q 23.53125 6.390625 29.59375 6.390625 
Q 36.859375 6.390625 41.078125 11.03125 
Q 45.3125 15.671875 45.3125 23.6875 
L 45.3125 54.6875 
L 54.296875 54.6875 
L 54.296875 0 
L 45.3125 0 
L 45.3125 8.40625 
Q 42.046875 3.421875 37.71875 1 
Q 33.40625 -1.421875 27.6875 -1.421875 
Q 18.265625 -1.421875 13.375 4.4375 
Q 8.5 10.296875 8.5 21.578125 
z
M 31.109375 56 
z
" id="DejaVuSans-117"/>
       <path d="M 52 44.1875 
Q 55.375 50.25 60.0625 53.125 
Q 64.75 56 71.09375 56 
Q 79.640625 56 84.28125 50.015625 
Q 88.921875 44.046875 88.921875 33.015625 
L 88.921875 0 
L 79.890625 0 
L 79.890625 32.71875 
Q 79.890625 40.578125 77.09375 44.375 
Q 74.3125 48.1875 68.609375 48.1875 
Q 61.625 48.1875 57.5625 43.546875 
Q 53.515625 38.921875 53.515625 30.90625 
L 53.515625 0 
L 44.484375 0 
L 44.484375 32.71875 
Q 44.484375 40.625 41.703125 44.40625 
Q 38.921875 48.1875 33.109375 48.1875 
Q 26.21875 48.1875 22.15625 43.53125 
Q 18.109375 38.875 18.109375 30.90625 
L 18.109375 0 
L 9.078125 0 
L 9.078125 54.6875 
L 18.109375 54.6875 
L 18.109375 46.1875 
Q 21.1875 51.21875 25.484375 53.609375 
Q 29.78125 56 35.6875 56 
Q 41.65625 56 45.828125 52.96875 
Q 50 49.953125 52 44.1875 
z
" id="DejaVuSans-109"/>
       <path d="M 9.421875 75.984375 
L 18.40625 75.984375 
L 18.40625 0 
L 9.421875 0 
z
" id="DejaVuSans-108"/>
       <path d="M 18.3125 70.21875 
L 18.3125 54.6875 
L 36.8125 54.6875 
L 36.8125 47.703125 
L 18.3125 47.703125 
L 18.3125 18.015625 
Q 18.3125 11.328125 20.140625 9.421875 
Q 21.96875 7.515625 27.59375 7.515625 
L 36.8125 7.515625 
L 36.8125 0 
L 27.59375 0 
Q 17.1875 0 13.234375 3.875 
Q 9.28125 7.765625 9.28125 18.015625 
L 9.28125 47.703125 
L 2.6875 47.703125 
L 2.6875 54.6875 
L 9.28125 54.6875 
L 9.28125 70.21875 
z
" id="DejaVuSans-116"/>
       <path d="M 9.421875 54.6875 
L 18.40625 54.6875 
L 18.40625 0 
L 9.421875 0 
z
M 9.421875 75.984375 
L 18.40625 75.984375 
L 18.40625 64.59375 
L 9.421875 64.59375 
z
" id="DejaVuSans-105"/>
       <path d="M 2.984375 54.6875 
L 12.5 54.6875 
L 29.59375 8.796875 
L 46.6875 54.6875 
L 56.203125 54.6875 
L 35.6875 0 
L 23.484375 0 
z
" id="DejaVuSans-118"/>
       <path d="M 56.203125 29.59375 
L 56.203125 25.203125 
L 14.890625 25.203125 
Q 15.484375 15.921875 20.484375 11.0625 
Q 25.484375 6.203125 34.421875 6.203125 
Q 39.59375 6.203125 44.453125 7.46875 
Q 49.3125 8.734375 54.109375 11.28125 
L 54.109375 2.78125 
Q 49.265625 0.734375 44.1875 -0.34375 
Q 39.109375 -1.421875 33.890625 -1.421875 
Q 20.796875 -1.421875 13.15625 6.1875 
Q 5.515625 13.8125 5.515625 26.8125 
Q 5.515625 40.234375 12.765625 48.109375 
Q 20.015625 56 32.328125 56 
Q 43.359375 56 49.78125 48.890625 
Q 56.203125 41.796875 56.203125 29.59375 
z
M 47.21875 32.234375 
Q 47.125 39.59375 43.09375 43.984375 
Q 39.0625 48.390625 32.421875 48.390625 
Q 24.90625 48.390625 20.390625 44.140625 
Q 15.875 39.890625 15.1875 32.171875 
z
" id="DejaVuSans-101"/>
       <path id="DejaVuSans-32"/>
       <path d="M 48.78125 52.59375 
L 48.78125 44.1875 
Q 44.96875 46.296875 41.140625 47.34375 
Q 37.3125 48.390625 33.40625 48.390625 
Q 24.65625 48.390625 19.8125 42.84375 
Q 14.984375 37.3125 14.984375 27.296875 
Q 14.984375 17.28125 19.8125 11.734375 
Q 24.65625 6.203125 33.40625 6.203125 
Q 37.3125 6.203125 41.140625 7.25 
Q 44.96875 8.296875 48.78125 10.40625 
L 48.78125 2.09375 
Q 45.015625 0.34375 40.984375 -0.53125 
Q 36.96875 -1.421875 32.421875 -1.421875 
Q 20.0625 -1.421875 12.78125 6.34375 
Q 5.515625 14.109375 5.515625 27.296875 
Q 5.515625 40.671875 12.859375 48.328125 
Q 20.21875 56 33.015625 56 
Q 37.15625 56 41.109375 55.140625 
Q 45.0625 54.296875 48.78125 52.59375 
z
" id="DejaVuSans-99"/>
      </defs>
      <use xlink:href="#DejaVuSans-67"/>
      <use x="69.824219" xlink:href="#DejaVuSans-117"/>
      <use x="133.203125" xlink:href="#DejaVuSans-109"/>
      <use x="230.615234" xlink:href="#DejaVuSans-117"/>
      <use x="293.994141" xlink:href="#DejaVuSans-108"/>
      <use x="321.777344" xlink:href="#DejaVuSans-97"/>
      <use x="383.056641" xlink:href="#DejaVuSans-116"/>
      <use x="422.265625" xlink:href="#DejaVuSans-105"/>
      <use x="450.048828" xlink:href="#DejaVuSans-118"/>
      <use x="509.228516" xlink:href="#DejaVuSans-101"/>
      <use x="570.751953" xlink:href="#DejaVuSans-32"/>
      <use x="602.539062" xlink:href="#DejaVuSans-99"/>
      <use x="657.519531" xlink:href="#DejaVuSans-97"/>
      <use x="718.798828" xlink:href="#DejaVuSans-115"/>
      <use x="770.898438" xlink:href="#DejaVuSans-101"/>
      <use x="832.421875" xlink:href="#DejaVuSans-115"/>
     </g>
    </g>
   </g>
   <g id="line2d_27">
    <path clip-path="url(#p4c3cad4fc0)" d="M 115.363636 605.290909 
L 119.454545 605.273723 
L 123.545455 605.254041 
L 127.636364 605.2315 
L 131.727273 605.205686 
L 135.818182 605.176123 
L 139.909091 605.142267 
L 144 605.103497 
L 148.090909 605.059099 
L 152.181818 605.008259 
L 156.272727 604.950042 
L 160.363636 604.883381 
L 164.454545 604.807054 
L 168.545455 604.719664 
L 172.636364 604.619611 
L 176.727273 604.505068 
L 180.818182 604.373944 
L 184.909091 604.22385 
L 189 604.052057 
L 193.090909 603.855447 
L 197.181818 603.63046 
L 201.272727 603.373034 
L 205.363636 603.078534 
L 209.454545 602.741679 
L 213.545455 602.35645 
L 217.636364 601.915998 
L 221.727273 601.412532 
L 225.818182 600.837204 
L 229.909091 600.179971 
L 234 599.429456 
L 238.090909 598.572785 
L 242.181818 597.595421 
L 246.272727 596.480981 
L 250.363636 595.21105 
L 254.454545 593.764979 
L 258.545455 592.119697 
L 262.636364 590.249515 
L 266.727273 588.125959 
L 270.818182 585.71762 
L 274.909091 582.990056 
L 279 579.905755 
L 283.090909 576.424189 
L 287.181818 572.501982 
L 291.272727 568.093235 
L 295.363636 563.150032 
L 299.454545 557.623177 
L 303.545455 551.463189 
L 307.636364 544.621591 
L 311.727273 537.052519 
L 315.818182 528.714641 
L 319.909091 519.573369 
L 324 509.60331 
L 328.090909 498.790851 
L 332.181818 487.136734 
L 336.272727 474.658446 
L 340.363636 461.392182 
L 344.454545 447.394174 
L 348.545455 432.741129 
L 352.636364 417.529613 
L 356.727273 401.87426 
L 360.818182 385.904812 
L 364.909091 369.762102 
L 369 353.593222 
L 373.090909 337.546218 
L 377.181818 321.764712 
L 381.272727 306.382861 
L 385.363636 291.521018 
L 389.454545 277.282384 
L 393.545455 263.750792 
L 397.636364 250.989688 
L 401.727273 239.042221 
L 405.818182 227.932273 
L 409.909091 217.66623 
L 414 208.235249 
L 418.090909 199.617791 
L 422.181818 191.782219 
L 426.272727 184.689312 
L 430.363636 178.294566 
L 434.454545 172.550226 
L 438.545455 167.407003 
L 442.636364 162.815471 
L 446.727273 158.727167 
L 450.818182 155.095411 
L 454.909091 151.875894 
L 459 149.027057 
L 463.090909 146.510315 
L 467.181818 144.290143 
L 471.272727 142.334072 
L 475.363636 140.612609 
L 479.454545 139.099101 
L 483.545455 137.769577 
L 487.636364 136.602556 
L 491.727273 135.578858 
L 495.818182 134.681405 
L 499.909091 133.895033 
L 504 133.2063 
L 508.090909 132.603321 
L 512.181818 132.0756 
L 516.272727 131.613883 
L 520.363636 131.210022 
L 524.454545 130.856847 
L 528.545455 130.548061 
L 532.636364 130.278131 
L 536.727273 130.042204 
L 540.818182 129.836025 
L 544.909091 129.655864 
L 549 129.498454 
L 553.090909 129.360934 
L 557.181818 129.240801 
L 561.272727 129.135863 
L 565.363636 129.044204 
L 569.454545 128.964148 
L 573.545455 128.894229 
L 577.636364 128.833166 
L 581.727273 128.77984 
L 585.818182 128.73327 
L 589.909091 128.692603 
L 594 128.657091 
L 598.090909 128.626081 
L 602.181818 128.599003 
L 606.272727 128.575359 
L 610.363636 128.554714 
L 614.454545 128.536686 
L 618.545455 128.520946 
L 622.636364 128.507202 
" style="fill:none;stroke:#1f77b4;stroke-linecap:square;stroke-width:1.5;"/>
   </g>
   <g id="line2d_28">
    <path clip-path="url(#p4c3cad4fc0)" d="M 115.363636 605.290909 
L 119.454545 604.01706 
L 123.545455 602.689329 
L 127.636364 601.305745 
L 131.727273 599.864294 
L 135.818182 598.362918 
L 139.909091 596.79952 
L 144 595.171964 
L 148.090909 593.478081 
L 152.181818 591.715667 
L 156.272727 589.882494 
L 160.363636 587.976306 
L 164.454545 585.994829 
L 168.545455 583.935773 
L 172.636364 581.796841 
L 176.727273 579.57573 
L 180.818182 577.270144 
L 184.909091 574.877794 
L 189 572.396411 
L 193.090909 569.823753 
L 197.181818 567.157615 
L 201.272727 564.395833 
L 205.363636 561.536303 
L 209.454545 558.576985 
L 213.545455 555.515917 
L 217.636364 552.351225 
L 221.727273 549.081138 
L 225.818182 545.703999 
L 229.909091 542.218279 
L 234 538.62259 
L 238.090909 534.915699 
L 242.181818 531.096543 
L 246.272727 527.16424 
L 250.363636 523.11811 
L 254.454545 518.957681 
L 258.545455 514.68271 
L 262.636364 510.293191 
L 266.727273 505.789372 
L 270.818182 501.171766 
L 274.909091 496.441165 
L 279 491.598646 
L 283.090909 486.645587 
L 287.181818 481.583671 
L 291.272727 476.414897 
L 295.363636 471.141581 
L 299.454545 465.766365 
L 303.545455 460.292218 
L 307.636364 454.722435 
L 311.727273 449.060636 
L 315.818182 443.310764 
L 319.909091 437.477077 
L 324 431.564142 
L 328.090909 425.576821 
L 332.181818 419.520264 
L 336.272727 413.39989 
L 340.363636 407.221371 
L 344.454545 400.990616 
L 348.545455 394.713744 
L 352.636364 388.397068 
L 356.727273 382.047064 
L 360.818182 375.670353 
L 364.909091 369.273664 
L 369 362.863817 
L 373.090909 356.447685 
L 377.181818 350.032167 
L 381.272727 343.624163 
L 385.363636 337.230538 
L 389.454545 330.858097 
L 393.545455 324.513552 
L 397.636364 318.203501 
L 401.727273 311.934391 
L 405.818182 305.712504 
L 409.909091 299.543923 
L 414 293.434515 
L 418.090909 287.389909 
L 422.181818 281.415477 
L 426.272727 275.516318 
L 430.363636 269.697244 
L 434.454545 263.962767 
L 438.545455 258.317089 
L 442.636364 252.764096 
L 446.727273 247.30735 
L 450.818182 241.950089 
L 454.909091 236.695222 
L 459 231.545333 
L 463.090909 226.502682 
L 467.181818 221.569211 
L 471.272727 216.746547 
L 475.363636 212.036015 
L 479.454545 207.438641 
L 483.545455 202.955164 
L 487.636364 198.58605 
L 491.727273 194.331502 
L 495.818182 190.19147 
L 499.909091 186.165668 
L 504 182.253588 
L 508.090909 178.454511 
L 512.181818 174.767523 
L 516.272727 171.19153 
L 520.363636 167.725269 
L 524.454545 164.367326 
L 528.545455 161.116149 
L 532.636364 157.970059 
L 536.727273 154.927266 
L 540.818182 151.98588 
L 544.909091 149.143923 
L 549 146.399345 
L 553.090909 143.750027 
L 557.181818 141.193801 
L 561.272727 138.728452 
L 565.363636 136.351733 
L 569.454545 134.061371 
L 573.545455 131.855076 
L 577.636364 129.730549 
L 581.727273 127.685489 
L 585.818182 125.717598 
L 589.909091 123.82459 
L 594 122.004193 
L 598.090909 120.254157 
L 602.181818 118.572255 
L 606.272727 116.956293 
L 610.363636 115.404104 
L 614.454545 113.913561 
L 618.545455 112.482573 
L 622.636364 111.109091 
" style="fill:none;stroke:#ff7f0e;stroke-linecap:square;stroke-width:1.5;"/>
   </g>
   <g id="line2d_29">
    <path clip-path="url(#p4c3cad4fc0)" d="M 115.363636 605.290909 
L 119.454545 605.233358 
L 123.545455 605.16823 
L 127.636364 605.094531 
L 131.727273 605.011137 
L 135.818182 604.916777 
L 139.909091 604.810017 
L 144 604.689235 
L 148.090909 604.552601 
L 152.181818 604.398048 
L 156.272727 604.223244 
L 160.363636 604.025559 
L 164.454545 603.802027 
L 168.545455 603.549306 
L 172.636364 603.263633 
L 176.727273 602.94077 
L 180.818182 602.575957 
L 184.909091 602.163841 
L 189 601.698415 
L 193.090909 601.172947 
L 197.181818 600.579896 
L 201.272727 599.910832 
L 205.363636 599.156348 
L 209.454545 598.305962 
L 213.545455 597.348021 
L 217.636364 596.269605 
L 221.727273 595.056426 
L 225.818182 593.692734 
L 229.909091 592.161231 
L 234 590.443001 
L 238.090909 588.517451 
L 242.181818 586.362292 
L 246.272727 583.953548 
L 250.363636 581.26562 
L 254.454545 578.271411 
L 258.545455 574.94252 
L 262.636364 571.249539 
L 266.727273 567.162443 
L 270.818182 562.651108 
L 274.909091 557.685951 
L 279 552.238708 
L 283.090909 546.283348 
L 287.181818 539.797103 
L 291.272727 532.761603 
L 295.363636 525.164068 
L 299.454545 516.998514 
L 303.545455 508.266902 
L 307.636364 498.980149 
L 311.727273 489.158927 
L 315.818182 478.834152 
L 319.909091 468.047101 
L 324 456.849085 
L 328.090909 445.300674 
L 332.181818 433.470454 
L 336.272727 421.433385 
L 340.363636 409.268824 
L 344.454545 397.058342 
L 348.545455 384.883455 
L 352.636364 372.823403 
L 356.727273 360.953123 
L 360.818182 349.341495 
L 364.909091 338.049966 
L 369 327.131566 
L 373.090909 316.630351 
L 377.181818 306.581226 
L 381.272727 297.010118 
L 385.363636 287.934433 
L 389.454545 279.363726 
L 393.545455 271.300527 
L 397.636364 263.741236 
L 401.727273 256.677069 
L 405.818182 250.094969 
L 409.909091 243.978487 
L 414 238.308584 
L 418.090909 233.06435 
L 422.181818 228.223637 
L 426.272727 223.763596 
L 430.363636 219.661124 
L 434.454545 215.893241 
L 438.545455 212.437375 
L 442.636364 209.271596 
L 446.727273 206.374788 
L 450.818182 203.726769 
L 454.909091 201.308375 
L 459 199.101512 
L 463.090909 197.089172 
L 467.181818 195.255442 
L 471.272727 193.585481 
L 475.363636 192.065497 
L 479.454545 190.682704 
L 483.545455 189.425283 
L 487.636364 188.282328 
L 491.727273 187.243798 
L 495.818182 186.300464 
L 499.909091 185.443855 
L 504 184.666208 
L 508.090909 183.960417 
L 512.181818 183.319982 
L 516.272727 182.738968 
L 520.363636 182.211956 
L 524.454545 181.734006 
L 528.545455 181.300613 
L 532.636364 180.907676 
L 536.727273 180.551462 
L 540.818182 180.228574 
L 544.909091 179.935923 
L 549 179.670701 
L 553.090909 179.430356 
L 557.181818 179.212572 
L 561.272727 179.015243 
L 565.363636 178.83646 
L 569.454545 178.674487 
L 573.545455 178.527752 
L 577.636364 178.394826 
L 581.727273 178.274416 
L 585.818182 178.165346 
L 589.909091 178.066553 
L 594 177.977069 
L 598.090909 177.896021 
L 602.181818 177.822614 
L 606.272727 177.75613 
L 610.363636 177.695918 
L 614.454545 177.641386 
L 618.545455 177.591999 
L 622.636364 177.547273 
" style="fill:none;stroke:#2ca02c;stroke-linecap:square;stroke-width:1.5;"/>
   </g>
   <g id="line2d_30">
    <path clip-path="url(#p4c3cad4fc0)" d="M 115.363636 605.290909 
L 119.454545 604.825452 
L 123.545455 604.296954 
L 127.636364 603.701617 
L 131.727273 603.035453 
L 135.818182 602.294285 
L 139.909091 601.473744 
L 144 600.569266 
L 148.090909 599.576097 
L 152.181818 598.489293 
L 156.272727 597.303729 
L 160.363636 596.014097 
L 164.454545 594.614927 
L 168.545455 593.100591 
L 172.636364 591.46532 
L 176.727273 589.703226 
L 180.818182 587.808321 
L 184.909091 585.774546 
L 189 583.595801 
L 193.090909 581.265979 
L 197.181818 578.779008 
L 201.272727 576.128898 
L 205.363636 573.309784 
L 209.454545 570.315989 
L 213.545455 567.142079 
L 217.636364 563.782926 
L 221.727273 560.233782 
L 225.818182 556.490345 
L 229.909091 552.548835 
L 234 548.406074 
L 238.090909 544.059561 
L 242.181818 539.507548 
L 246.272727 534.749117 
L 250.363636 529.784254 
L 254.454545 524.613914 
L 258.545455 519.24008 
L 262.636364 513.665818 
L 266.727273 507.89532 
L 270.818182 501.933926 
L 274.909091 495.788149 
L 279 489.465671 
L 283.090909 482.975328 
L 287.181818 476.327081 
L 291.272727 469.531964 
L 295.363636 462.602021 
L 299.454545 455.550222 
L 303.545455 448.390367 
L 307.636364 441.136972 
L 311.727273 433.805148 
L 315.818182 426.410468 
L 319.909091 418.968825 
L 324 411.496286 
L 328.090909 404.00895 
L 332.181818 396.522801 
L 336.272727 389.053568 
L 340.363636 381.616588 
L 344.454545 374.226687 
L 348.545455 366.898067 
L 352.636364 359.644199 
L 356.727273 352.477747 
L 360.818182 345.410489 
L 364.909091 338.453267 
L 369 331.615944 
L 373.090909 324.907383 
L 377.181818 318.335429 
L 381.272727 311.906921 
L 385.363636 305.627698 
L 389.454545 299.50263 
L 393.545455 293.535647 
L 397.636364 287.729788 
L 401.727273 282.087241 
L 405.818182 276.609403 
L 409.909091 271.296932 
L 414 266.149808 
L 418.090909 261.167391 
L 422.181818 256.34848 
L 426.272727 251.691374 
L 430.363636 247.193929 
L 434.454545 242.853608 
L 438.545455 238.66754 
L 442.636364 234.632566 
L 446.727273 230.745285 
L 450.818182 227.002098 
L 454.909091 223.399246 
L 459 219.93285 
L 463.090909 216.598936 
L 467.181818 213.393473 
L 471.272727 210.312394 
L 475.363636 207.35162 
L 479.454545 204.507082 
L 483.545455 201.774739 
L 487.636364 199.150589 
L 491.727273 196.630691 
L 495.818182 194.211166 
L 499.909091 191.888215 
L 504 189.658123 
L 508.090909 187.517262 
L 512.181818 185.462104 
L 516.272727 183.489218 
L 520.363636 181.595273 
L 524.454545 179.777045 
L 528.545455 178.031412 
L 532.636364 176.355358 
L 536.727273 174.745972 
L 540.818182 173.200445 
L 544.909091 171.716073 
L 549 170.29025 
L 553.090909 168.920473 
L 557.181818 167.604332 
L 561.272727 166.339514 
L 565.363636 165.123798 
L 569.454545 163.955051 
L 573.545455 162.831229 
L 577.636364 161.750372 
L 581.727273 160.7106 
L 585.818182 159.710112 
L 589.909091 158.747185 
L 594 157.820166 
L 598.090909 156.927476 
L 602.181818 156.067601 
L 606.272727 155.239094 
L 610.363636 154.440569 
L 614.454545 153.670702 
L 618.545455 152.928226 
L 622.636364 152.21193 
" style="fill:none;stroke:#d62728;stroke-linecap:square;stroke-width:1.5;"/>
   </g>
   <g id="line2d_31">
    <path clip-path="url(#p4c3cad4fc0)" d="M 115.363636 605.290909 
L 119.454545 605.286073 
L 123.545455 605.273186 
L 127.636364 605.253708 
L 131.727273 605.228192 
L 135.818182 605.196593 
L 139.909091 605.158443 
L 144 605.112943 
L 148.090909 605.059002 
L 152.181818 604.995253 
L 156.272727 604.920032 
L 160.363636 604.83135 
L 164.454545 604.726852 
L 168.545455 604.603758 
L 172.636364 604.4588 
L 176.727273 604.288136 
L 180.818182 604.087259 
L 184.909091 603.850891 
L 189 603.572854 
L 193.090909 603.245928 
L 197.181818 602.861691 
L 201.272727 602.410337 
L 205.363636 601.88047 
L 209.454545 601.258886 
L 213.545455 600.530331 
L 217.636364 599.677245 
L 221.727273 598.679504 
L 225.818182 597.514158 
L 229.909091 596.155193 
L 234 594.573333 
L 238.090909 592.735908 
L 242.181818 590.606826 
L 246.272727 588.146695 
L 250.363636 585.313141 
L 254.454545 582.061386 
L 258.545455 578.345121 
L 262.636364 574.117741 
L 266.727273 569.333955 
L 270.818182 563.951761 
L 274.909091 557.934738 
L 279 551.25454 
L 283.090909 543.893425 
L 287.181818 535.846583 
L 291.272727 527.124011 
L 295.363636 517.751686 
L 299.454545 507.771812 
L 303.545455 497.24204 
L 307.636364 486.23366 
L 311.727273 474.828906 
L 315.818182 463.117612 
L 319.909091 451.193562 
L 324 439.150853 
L 328.090909 427.080579 
L 332.181818 415.068066 
L 336.272727 403.190781 
L 340.363636 391.516957 
L 344.454545 380.104884 
L 348.545455 369.002785 
L 352.636364 358.249138 
L 356.727273 347.873326 
L 360.818182 337.896497 
L 364.909091 328.332528 
L 369 319.189022 
L 373.090909 310.468279 
L 377.181818 302.168202 
L 381.272727 294.28312 
L 385.363636 286.804522 
L 389.454545 279.721687 
L 393.545455 273.022227 
L 397.636364 266.692549 
L 401.727273 260.718229 
L 405.818182 255.084332 
L 409.909091 249.775662 
L 414 244.776974 
L 418.090909 240.07313 
L 422.181818 235.649235 
L 426.272727 231.490729 
L 430.363636 227.583466 
L 434.454545 223.913767 
L 438.545455 220.468458 
L 442.636364 217.234895 
L 446.727273 214.200978 
L 450.818182 211.355159 
L 454.909091 208.686437 
L 459 206.184357 
L 463.090909 203.838996 
L 467.181818 201.640949 
L 471.272727 199.581317 
L 475.363636 197.651686 
L 479.454545 195.844111 
L 483.545455 194.151093 
L 487.636364 192.565565 
L 491.727273 191.080867 
L 495.818182 189.690729 
L 499.909091 188.389252 
L 504 187.170886 
L 508.090909 186.030415 
L 512.181818 184.962939 
L 516.272727 183.963853 
L 520.363636 183.028836 
L 524.454545 182.15383 
L 528.545455 181.335028 
L 532.636364 180.568858 
L 536.727273 179.851971 
L 540.818182 179.181225 
L 544.909091 178.553676 
L 549 177.966563 
L 553.090909 177.417301 
L 557.181818 176.903465 
L 561.272727 176.422785 
L 565.363636 175.973135 
L 569.454545 175.552521 
L 573.545455 175.159078 
L 577.636364 174.79106 
L 581.727273 174.44683 
L 585.818182 174.124858 
L 589.909091 173.823709 
L 594 173.542041 
L 598.090909 173.278599 
L 602.181818 173.032207 
L 606.272727 172.801764 
L 610.363636 172.58624 
L 614.454545 172.384673 
L 618.545455 172.196161 
L 622.636364 172.019859 
" style="fill:none;stroke:#9467bd;stroke-linecap:square;stroke-width:1.5;"/>
   </g>
   <g id="line2d_32">
    <path clip-path="url(#p4c3cad4fc0)" d="M 115.363636 605.290909 
L 119.454545 605.250789 
L 123.545455 605.132248 
L 127.636364 604.936403 
L 131.727273 604.662688 
L 135.818182 604.309282 
L 139.909091 603.873425 
L 144 603.351626 
L 148.090909 602.739817 
L 152.181818 602.033462 
L 156.272727 601.227635 
L 160.363636 600.317082 
L 164.454545 599.296261 
L 168.545455 598.159383 
L 172.636364 596.900447 
L 176.727273 595.513265 
L 180.818182 593.9915 
L 184.909091 592.328693 
L 189 590.518303 
L 193.090909 588.553745 
L 197.181818 586.428431 
L 201.272727 584.135823 
L 205.363636 581.669478 
L 209.454545 579.023113 
L 213.545455 576.190663 
L 217.636364 573.166348 
L 221.727273 569.944749 
L 225.818182 566.520875 
L 229.909091 562.890246 
L 234 559.048971 
L 238.090909 554.993828 
L 242.181818 550.722344 
L 246.272727 546.23287 
L 250.363636 541.524657 
L 254.454545 536.597922 
L 258.545455 531.453911 
L 262.636364 526.094946 
L 266.727273 520.524474 
L 270.818182 514.747087 
L 274.909091 508.768542 
L 279 502.595762 
L 283.090909 496.236819 
L 287.181818 489.700901 
L 291.272727 482.998269 
L 295.363636 476.140194 
L 299.454545 469.138875 
L 303.545455 462.007352 
L 307.636364 454.759401 
L 311.727273 447.40942 
L 315.818182 439.972311 
L 319.909091 432.463348 
L 324 424.898046 
L 328.090909 417.292038 
L 332.181818 409.660934 
L 336.272727 402.020203 
L 340.363636 394.385051 
L 344.454545 386.770309 
L 348.545455 379.19033 
L 352.636364 371.658896 
L 356.727273 364.189142 
L 360.818182 356.793482 
L 364.909091 349.483554 
L 369 342.270181 
L 373.090909 335.163331 
L 377.181818 328.172104 
L 381.272727 321.304716 
L 385.363636 314.568504 
L 389.454545 307.96993 
L 393.545455 301.514605 
L 397.636364 295.207304 
L 401.727273 289.052003 
L 405.818182 283.051908 
L 409.909091 277.2095 
L 414 271.526567 
L 418.090909 266.004256 
L 422.181818 260.643112 
L 426.272727 255.443126 
L 430.363636 250.40378 
L 434.454545 245.524089 
L 438.545455 240.802649 
L 442.636364 236.237677 
L 446.727273 231.827053 
L 450.818182 227.568357 
L 454.909091 223.45891 
L 459 219.495805 
L 463.090909 215.675942 
L 467.181818 211.996062 
L 471.272727 208.452766 
L 475.363636 205.042553 
L 479.454545 201.761836 
L 483.545455 198.606965 
L 487.636364 195.574252 
L 491.727273 192.659984 
L 495.818182 189.86044 
L 499.909091 187.17191 
L 504 184.590702 
L 508.090909 182.113158 
L 512.181818 179.735661 
L 516.272727 177.454648 
L 520.363636 175.266612 
L 524.454545 173.168113 
L 528.545455 171.155783 
L 532.636364 169.226327 
L 536.727273 167.376531 
L 540.818182 165.603265 
L 544.909091 163.90348 
L 549 162.274217 
L 553.090909 160.712602 
L 557.181818 159.215851 
L 561.272727 157.781268 
L 565.363636 156.406245 
L 569.454545 155.088262 
L 573.545455 153.824887 
L 577.636364 152.613772 
L 581.727273 151.452656 
L 585.818182 150.339361 
L 589.909091 149.271789 
L 594 148.247923 
L 598.090909 147.265826 
L 602.181818 146.323635 
L 606.272727 145.41956 
L 610.363636 144.551887 
L 614.454545 143.71897 
L 618.545455 142.919229 
L 622.636364 142.151153 
" style="fill:none;stroke:#8c564b;stroke-linecap:square;stroke-width:1.5;"/>
   </g>
   <g id="line2d_33">
    <path clip-path="url(#p4c3cad4fc0)" d="M 115.363636 605.290909 
L 119.454545 605.286211 
L 123.545455 605.273657 
L 127.636364 605.254643 
L 131.727273 605.229699 
L 135.818182 605.19878 
L 139.909091 605.161429 
L 144 605.116867 
L 148.090909 605.064034 
L 152.181818 605.001592 
L 156.272727 604.927916 
L 160.363636 604.841063 
L 164.454545 604.73873 
L 168.545455 604.6182 
L 172.636364 604.476278 
L 176.727273 604.309207 
L 180.818182 604.112583 
L 184.909091 603.881244 
L 189 603.609151 
L 193.090909 603.289244 
L 197.181818 602.91329 
L 201.272727 602.471698 
L 205.363636 601.953325 
L 209.454545 601.345254 
L 213.545455 600.632558 
L 217.636364 599.79805 
L 221.727273 598.822021 
L 225.818182 597.681985 
L 229.909091 596.352435 
L 234 594.804637 
L 238.090909 593.006494 
L 242.181818 590.922497 
L 246.272727 588.513827 
L 250.363636 585.73864 
L 254.454545 582.5526 
L 258.545455 578.909707 
L 262.636364 574.763469 
L 266.727273 570.068448 
L 270.818182 564.782167 
L 274.909091 558.867352 
L 279 552.294379 
L 283.090909 545.04379 
L 287.181818 537.108649 
L 291.272727 528.49648 
L 295.363636 519.230547 
L 299.454545 509.350253 
L 303.545455 498.910527 
L 307.636364 487.980193 
L 311.727273 476.639425 
L 315.818182 464.976529 
L 319.909091 453.084363 
L 324 441.056714 
L 328.090909 428.984949 
L 332.181818 416.955176 
L 336.272727 405.046048 
L 340.363636 393.32728 
L 344.454545 381.858825 
L 348.545455 370.69065 
L 352.636364 359.862972 
L 356.727273 349.406846 
L 360.818182 339.344976 
L 364.909091 329.692652 
L 369 320.458731 
L 373.090909 311.646601 
L 377.181818 303.255095 
L 381.272727 295.279325 
L 385.363636 287.711419 
L 389.454545 280.541176 
L 393.545455 273.756616 
L 397.636364 267.34446 
L 401.727273 261.290516 
L 405.818182 255.580011 
L 409.909091 250.197856 
L 414 245.12886 
L 418.090909 240.357904 
L 422.181818 235.870075 
L 426.272727 231.650773 
L 430.363636 227.685791 
L 434.454545 223.96137 
L 438.545455 220.464247 
L 442.636364 217.181679 
L 446.727273 214.101461 
L 450.818182 211.211936 
L 454.909091 208.501992 
L 459 205.961061 
L 463.090909 203.579108 
L 467.181818 201.346619 
L 471.272727 199.254587 
L 475.363636 197.294491 
L 479.454545 195.458284 
L 483.545455 193.73837 
L 487.636364 192.127584 
L 491.727273 190.619176 
L 495.818182 189.206788 
L 499.909091 187.884437 
L 504 186.646494 
L 508.090909 185.487667 
L 512.181818 184.402984 
L 516.272727 183.387771 
L 520.363636 182.437642 
L 524.454545 181.548478 
L 528.545455 180.716414 
L 532.636364 179.937823 
L 536.727273 179.209305 
L 540.818182 178.527669 
L 544.909091 177.889924 
L 549 177.293268 
L 553.090909 176.735073 
L 557.181818 176.212877 
L 561.272727 175.724374 
L 565.363636 175.267403 
L 569.454545 174.83994 
L 573.545455 174.44009 
L 577.636364 174.066077 
L 581.727273 173.71624 
L 585.818182 173.389022 
L 589.909091 173.082966 
L 594 172.79671 
L 598.090909 172.528976 
L 602.181818 172.27857 
L 606.272727 172.044373 
L 610.363636 171.82534 
L 614.454545 171.620491 
L 618.545455 171.428909 
L 622.636364 171.249738 
" style="fill:none;stroke:#e377c2;stroke-linecap:square;stroke-width:1.5;"/>
   </g>
   <g id="line2d_34">
    <path clip-path="url(#p4c3cad4fc0)" d="M 115.363636 605.290909 
L 119.454545 605.247948 
L 123.545455 605.121311 
L 127.636364 604.912807 
L 131.727273 604.622588 
L 135.818182 604.249561 
L 139.909091 603.791682 
L 144 603.246177 
L 148.090909 602.609695 
L 152.181818 601.878423 
L 156.272727 601.048172 
L 160.363636 600.11444 
L 164.454545 599.072461 
L 168.545455 597.917247 
L 172.636364 596.643622 
L 176.727273 595.246251 
L 180.818182 593.719668 
L 184.909091 592.058305 
L 189 590.256525 
L 193.090909 588.308647 
L 197.181818 586.208985 
L 201.272727 583.951879 
L 205.363636 581.531739 
L 209.454545 578.943087 
L 213.545455 576.1806 
L 217.636364 573.239163 
L 221.727273 570.113919 
L 225.818182 566.800326 
L 229.909091 563.294215 
L 234 559.591851 
L 238.090909 555.689992 
L 242.181818 551.585955 
L 246.272727 547.277676 
L 250.363636 542.763772 
L 254.454545 538.043597 
L 258.545455 533.117304 
L 262.636364 527.985891 
L 266.727273 522.651248 
L 270.818182 517.116197 
L 274.909091 511.384519 
L 279 505.460981 
L 283.090909 499.351343 
L 287.181818 493.06236 
L 291.272727 486.601771 
L 295.363636 479.978274 
L 299.454545 473.201495 
L 303.545455 466.281933 
L 307.636364 459.230911 
L 311.727273 452.060497 
L 315.818182 444.783428 
L 319.909091 437.413019 
L 324 429.963067 
L 328.090909 422.44775 
L 332.181818 414.881513 
L 336.272727 407.278966 
L 340.363636 399.654769 
L 344.454545 392.02352 
L 348.545455 384.399655 
L 352.636364 376.797337 
L 356.727273 369.230367 
L 360.818182 361.712087 
L 364.909091 354.255304 
L 369 346.872215 
L 373.090909 339.574343 
L 377.181818 332.37249 
L 381.272727 325.276685 
L 385.363636 318.296161 
L 389.454545 311.439326 
L 393.545455 304.713755 
L 397.636364 298.126182 
L 401.727273 291.682509 
L 405.818182 285.387812 
L 409.909091 279.246366 
L 414 273.261667 
L 418.090909 267.436464 
L 422.181818 261.772789 
L 426.272727 256.272 
L 430.363636 250.934816 
L 434.454545 245.761365 
L 438.545455 240.751222 
L 442.636364 235.903457 
L 446.727273 231.216676 
L 450.818182 226.689068 
L 454.909091 222.318442 
L 459 218.102276 
L 463.090909 214.037752 
L 467.181818 210.121794 
L 471.272727 206.351106 
L 475.363636 202.722208 
L 479.454545 199.231462 
L 483.545455 195.87511 
L 487.636364 192.649294 
L 491.727273 189.550086 
L 495.818182 186.573511 
L 499.909091 183.715565 
L 504 180.972239 
L 508.090909 178.339532 
L 512.181818 175.813467 
L 516.272727 173.390108 
L 520.363636 171.065568 
L 524.454545 168.83602 
L 528.545455 166.697708 
L 532.636364 164.646953 
L 536.727273 162.680161 
L 540.818182 160.793823 
L 544.909091 158.984529 
L 549 157.248961 
L 553.090909 155.583904 
L 557.181818 153.986241 
L 561.272727 152.45296 
L 565.363636 150.981148 
L 569.454545 149.567999 
L 573.545455 148.210807 
L 577.636364 146.906966 
L 581.727273 145.653973 
L 585.818182 144.449421 
L 589.909091 143.291002 
L 594 142.176501 
L 598.090909 141.103796 
L 602.181818 140.070857 
L 606.272727 139.075738 
L 610.363636 138.116583 
L 614.454545 137.191615 
L 618.545455 136.299139 
L 622.636364 135.437536 
" style="fill:none;stroke:#7f7f7f;stroke-linecap:square;stroke-width:1.5;"/>
   </g>
   <g id="line2d_35">
    <path clip-path="url(#p4c3cad4fc0)" d="M 115.363636 605.290909 
L 119.454545 605.266309 
L 123.545455 605.190453 
L 127.636364 605.059964 
L 131.727273 604.87109 
L 135.818182 604.619717 
L 139.909091 604.30138 
L 144 603.911268 
L 148.090909 603.444227 
L 152.181818 602.894766 
L 156.272727 602.257057 
L 160.363636 601.524944 
L 164.454545 600.691947 
L 168.545455 599.751274 
L 172.636364 598.695837 
L 176.727273 597.518269 
L 180.818182 596.210956 
L 184.909091 594.766059 
L 189 593.175565 
L 193.090909 591.431325 
L 197.181818 589.525117 
L 201.272727 587.448705 
L 205.363636 585.193917 
L 209.454545 582.752727 
L 213.545455 580.117344 
L 217.636364 577.280314 
L 221.727273 574.23462 
L 225.818182 570.973803 
L 229.909091 567.492067 
L 234 563.7844 
L 238.090909 559.846689 
L 242.181818 555.67583 
L 246.272727 551.269834 
L 250.363636 546.62792 
L 254.454545 541.750596 
L 258.545455 536.639726 
L 262.636364 531.298575 
L 266.727273 525.73184 
L 270.818182 519.945647 
L 274.909091 513.947538 
L 279 507.746421 
L 283.090909 501.352514 
L 287.181818 494.777249 
L 291.272727 488.033168 
L 295.363636 481.1338 
L 299.454545 474.093519 
L 303.545455 466.9274 
L 307.636364 459.651059 
L 311.727273 452.280497 
L 315.818182 444.83194 
L 319.909091 437.321683 
L 324 429.765944 
L 328.090909 422.180725 
L 332.181818 414.581682 
L 336.272727 406.984013 
L 340.363636 399.402354 
L 344.454545 391.850697 
L 348.545455 384.342317 
L 352.636364 376.889714 
L 356.727273 369.504573 
L 360.818182 362.197732 
L 364.909091 354.979165 
L 369 347.857978 
L 373.090909 340.842411 
L 377.181818 333.93985 
L 381.272727 327.156848 
L 385.363636 320.49915 
L 389.454545 313.971723 
L 393.545455 307.578794 
L 397.636364 301.323883 
L 401.727273 295.209846 
L 405.818182 289.238918 
L 409.909091 283.412748 
L 414 277.732449 
L 418.090909 272.198634 
L 422.181818 266.81146 
L 426.272727 261.570664 
L 430.363636 256.475605 
L 434.454545 251.525296 
L 438.545455 246.718446 
L 442.636364 242.053485 
L 446.727273 237.528599 
L 450.818182 233.141759 
L 454.909091 228.890749 
L 459 224.77319 
L 463.090909 220.786562 
L 467.181818 216.92823 
L 471.272727 213.19546 
L 475.363636 209.585439 
L 479.454545 206.095291 
L 483.545455 202.722095 
L 487.636364 199.462893 
L 491.727273 196.31471 
L 495.818182 193.274558 
L 499.909091 190.339453 
L 504 187.506417 
L 508.090909 184.772492 
L 512.181818 182.134744 
L 516.272727 179.590271 
L 520.363636 177.136206 
L 524.454545 174.769725 
L 528.545455 172.48805 
L 532.636364 170.288449 
L 536.727273 168.168247 
L 540.818182 166.124818 
L 544.909091 164.155598 
L 549 162.258078 
L 553.090909 160.429811 
L 557.181818 158.668407 
L 561.272727 156.971542 
L 565.363636 155.33695 
L 569.454545 153.762427 
L 573.545455 152.245834 
L 577.636364 150.78509 
L 581.727273 149.378176 
L 585.818182 148.023133 
L 589.909091 146.718064 
L 594 145.461128 
L 598.090909 144.250545 
L 602.181818 143.084589 
L 606.272727 141.961593 
L 610.363636 140.879942 
L 614.454545 139.838078 
L 618.545455 138.834492 
L 622.636364 137.86773 
" style="fill:none;stroke:#bcbd22;stroke-linecap:square;stroke-width:1.5;"/>
   </g>
   <g id="line2d_36">
    <path clip-path="url(#p4c3cad4fc0)" d="M 115.363636 605.290909 
L 119.454545 605.277767 
L 123.545455 605.264626 
L 127.636364 605.247104 
L 131.727273 605.194537 
L 135.818182 605.172634 
L 139.909091 605.128829 
L 144 605.071882 
L 148.090909 605.063121 
L 152.181818 604.936085 
L 156.272727 604.89666 
L 160.363636 604.563739 
L 164.454545 604.541836 
L 168.545455 604.305287 
L 172.636364 603.591259 
L 176.727273 603.315285 
L 180.818182 602.531168 
L 184.909091 601.90475 
L 189 601.278333 
L 193.090909 599.815232 
L 197.181818 598.974168 
L 201.272727 596.262613 
L 205.363636 593.187472 
L 209.454545 591.168043 
L 213.545455 587.703034 
L 217.636364 584.899487 
L 221.727273 580.983283 
L 225.818182 577.899382 
L 229.909091 573.001936 
L 234 568.056304 
L 238.090909 563.531205 
L 242.181818 555.979151 
L 246.272727 550.928386 
L 250.363636 548.558513 
L 254.454545 536.389368 
L 258.545455 532.854271 
L 262.636364 527.120142 
L 266.727273 521.561234 
L 270.818182 514.933475 
L 274.909091 508.778814 
L 279 503.272473 
L 283.090909 498.9664 
L 287.181818 492.916872 
L 291.272727 486.981238 
L 295.363636 481.838482 
L 299.454545 470.449074 
L 303.545455 461.666087 
L 307.636364 454.911292 
L 311.727273 449.31734 
L 315.818182 440.446743 
L 319.909091 432.807079 
L 324 422.902674 
L 328.090909 415.736107 
L 332.181818 408.63963 
L 336.272727 402.279083 
L 340.363636 394.998623 
L 344.454545 388.064225 
L 348.545455 381.344474 
L 352.636364 373.831845 
L 356.727273 366.858023 
L 360.818182 358.596321 
L 364.909091 351.661924 
L 369 340.368887 
L 373.090909 334.00396 
L 377.181818 328.493238 
L 381.272727 322.014417 
L 385.363636 315.412941 
L 389.454545 308.960403 
L 393.545455 303.511009 
L 397.636364 298.372633 
L 401.727273 293.234258 
L 405.818182 288.174732 
L 409.909091 283.14149 
L 414 277.827893 
L 418.090909 272.667615 
L 422.181818 267.205079 
L 426.272727 262.272589 
L 430.363636 257.545984 
L 434.454545 252.806238 
L 438.545455 248.066492 
L 442.636364 242.9544 
L 446.727273 237.675847 
L 450.818182 232.401675 
L 454.909091 228.218258 
L 459 223.780769 
L 463.090909 219.527263 
L 467.181818 215.589156 
L 471.272727 211.265561 
L 475.363636 207.178516 
L 479.454545 203.796737 
L 483.545455 200.301065 
L 487.636364 196.757207 
L 491.727273 193.813483 
L 495.818182 190.830334 
L 499.909091 188.079354 
L 504 185.109346 
L 508.090909 182.79642 
L 512.181818 179.7169 
L 516.272727 177.084194 
L 520.363636 175.060384 
L 524.454545 172.962104 
L 528.545455 171.039046 
L 532.636364 169.12913 
L 536.727273 167.166648 
L 540.818182 165.585272 
L 544.909091 164.012657 
L 549 162.593362 
L 553.090909 160.823623 
L 557.181818 159.132734 
L 561.272727 157.218437 
L 565.363636 155.255955 
L 569.454545 153.871703 
L 573.545455 152.382319 
L 577.636364 150.85351 
L 581.727273 149.451737 
L 585.818182 147.804653 
L 589.909091 147.077483 
L 594 145.986728 
L 598.090909 144.606858 
L 602.181818 141.816453 
L 606.272727 140.646848 
L 610.363636 139.810164 
L 614.454545 138.255072 
L 618.545455 136.857679 
L 622.636364 135.880818 
" style="fill:none;stroke:#17becf;stroke-dasharray:14.8,6.4;stroke-dashoffset:0;stroke-width:4;"/>
   </g>
   <g id="patch_3">
    <path d="M 90 630 
L 90 86.4 
" style="fill:none;stroke:#000000;stroke-linecap:square;stroke-linejoin:miter;stroke-width:0.8;"/>
   </g>
   <g id="patch_4">
    <path d="M 648 630 
L 648 86.4 
" style="fill:none;stroke:#000000;stroke-linecap:square;stroke-linejoin:miter;stroke-width:0.8;"/>
   </g>
   <g id="patch_5">
    <path d="M 90 630 
L 648 630 
" style="fill:none;stroke:#000000;stroke-linecap:square;stroke-linejoin:miter;stroke-width:0.8;"/>
   </g>
   <g id="patch_6">
    <path d="M 90 86.4 
L 648 86.4 
" style="fill:none;stroke:#000000;stroke-linecap:square;stroke-linejoin:miter;stroke-width:0.8;"/>
   </g>
   <g id="text_16">
    <!-- Canada relative err =  -->
    <g transform="translate(302.363438 80.4)scale(0.12 -0.12)">
     <defs>
      <path d="M 54.890625 33.015625 
L 54.890625 0 
L 45.90625 0 
L 45.90625 32.71875 
Q 45.90625 40.484375 42.875 44.328125 
Q 39.84375 48.1875 33.796875 48.1875 
Q 26.515625 48.1875 22.3125 43.546875 
Q 18.109375 38.921875 18.109375 30.90625 
L 18.109375 0 
L 9.078125 0 
L 9.078125 54.6875 
L 18.109375 54.6875 
L 18.109375 46.1875 
Q 21.34375 51.125 25.703125 53.5625 
Q 30.078125 56 35.796875 56 
Q 45.21875 56 50.046875 50.171875 
Q 54.890625 44.34375 54.890625 33.015625 
z
" id="DejaVuSans-110"/>
      <path d="M 45.40625 46.390625 
L 45.40625 75.984375 
L 54.390625 75.984375 
L 54.390625 0 
L 45.40625 0 
L 45.40625 8.203125 
Q 42.578125 3.328125 38.25 0.953125 
Q 33.9375 -1.421875 27.875 -1.421875 
Q 17.96875 -1.421875 11.734375 6.484375 
Q 5.515625 14.40625 5.515625 27.296875 
Q 5.515625 40.1875 11.734375 48.09375 
Q 17.96875 56 27.875 56 
Q 33.9375 56 38.25 53.625 
Q 42.578125 51.265625 45.40625 46.390625 
z
M 14.796875 27.296875 
Q 14.796875 17.390625 18.875 11.75 
Q 22.953125 6.109375 30.078125 6.109375 
Q 37.203125 6.109375 41.296875 11.75 
Q 45.40625 17.390625 45.40625 27.296875 
Q 45.40625 37.203125 41.296875 42.84375 
Q 37.203125 48.484375 30.078125 48.484375 
Q 22.953125 48.484375 18.875 42.84375 
Q 14.796875 37.203125 14.796875 27.296875 
z
" id="DejaVuSans-100"/>
      <path d="M 41.109375 46.296875 
Q 39.59375 47.171875 37.8125 47.578125 
Q 36.03125 48 33.890625 48 
Q 26.265625 48 22.1875 43.046875 
Q 18.109375 38.09375 18.109375 28.8125 
L 18.109375 0 
L 9.078125 0 
L 9.078125 54.6875 
L 18.109375 54.6875 
L 18.109375 46.1875 
Q 20.953125 51.171875 25.484375 53.578125 
Q 30.03125 56 36.53125 56 
Q 37.453125 56 38.578125 55.875 
Q 39.703125 55.765625 41.0625 55.515625 
z
" id="DejaVuSans-114"/>
      <path d="M 10.59375 45.40625 
L 73.1875 45.40625 
L 73.1875 37.203125 
L 10.59375 37.203125 
z
M 10.59375 25.484375 
L 73.1875 25.484375 
L 73.1875 17.1875 
L 10.59375 17.1875 
z
" id="DejaVuSans-61"/>
     </defs>
     <use xlink:href="#DejaVuSans-67"/>
     <use x="69.824219" xlink:href="#DejaVuSans-97"/>
     <use x="131.103516" xlink:href="#DejaVuSans-110"/>
     <use x="194.482422" xlink:href="#DejaVuSans-97"/>
     <use x="255.761719" xlink:href="#DejaVuSans-100"/>
     <use x="319.238281" xlink:href="#DejaVuSans-97"/>
     <use x="380.517578" xlink:href="#DejaVuSans-32"/>
     <use x="412.304688" xlink:href="#DejaVuSans-114"/>
     <use x="451.167969" xlink:href="#DejaVuSans-101"/>
     <use x="512.691406" xlink:href="#DejaVuSans-108"/>
     <use x="540.474609" xlink:href="#DejaVuSans-97"/>
     <use x="601.753906" xlink:href="#DejaVuSans-116"/>
     <use x="640.962891" xlink:href="#DejaVuSans-105"/>
     <use x="668.746094" xlink:href="#DejaVuSans-118"/>
     <use x="727.925781" xlink:href="#DejaVuSans-101"/>
     <use x="789.449219" xlink:href="#DejaVuSans-32"/>
     <use x="821.236328" xlink:href="#DejaVuSans-101"/>
     <use x="882.759766" xlink:href="#DejaVuSans-114"/>
     <use x="922.123047" xlink:href="#DejaVuSans-114"/>
     <use x="963.236328" xlink:href="#DejaVuSans-32"/>
     <use x="995.023438" xlink:href="#DejaVuSans-61"/>
     <use x="1078.8125" xlink:href="#DejaVuSans-32"/>
    </g>
   </g>
   <g id="legend_1">
    <g id="patch_7">
     <path d="M 97 226.503125 
L 185.6 226.503125 
Q 187.6 226.503125 187.6 224.503125 
L 187.6 93.4 
Q 187.6 91.4 185.6 91.4 
L 97 91.4 
Q 95 91.4 95 93.4 
L 95 224.503125 
Q 95 226.503125 97 226.503125 
z
" style="fill:#ffffff;opacity:0.8;stroke:#cccccc;stroke-linejoin:miter;"/>
    </g>
    <g id="line2d_37">
     <path d="M 99 99.498438 
L 119 99.498438 
" style="fill:none;stroke:#1f77b4;stroke-linecap:square;stroke-width:1.5;"/>
    </g>
    <g id="line2d_38"/>
    <g id="text_17">
     <!-- SI -->
     <g transform="translate(127 102.998438)scale(0.1 -0.1)">
      <defs>
       <path d="M 53.515625 70.515625 
L 53.515625 60.890625 
Q 47.90625 63.578125 42.921875 64.890625 
Q 37.9375 66.21875 33.296875 66.21875 
Q 25.25 66.21875 20.875 63.09375 
Q 16.5 59.96875 16.5 54.203125 
Q 16.5 49.359375 19.40625 46.890625 
Q 22.3125 44.4375 30.421875 42.921875 
L 36.375 41.703125 
Q 47.40625 39.59375 52.65625 34.296875 
Q 57.90625 29 57.90625 20.125 
Q 57.90625 9.515625 50.796875 4.046875 
Q 43.703125 -1.421875 29.984375 -1.421875 
Q 24.8125 -1.421875 18.96875 -0.25 
Q 13.140625 0.921875 6.890625 3.21875 
L 6.890625 13.375 
Q 12.890625 10.015625 18.65625 8.296875 
Q 24.421875 6.59375 29.984375 6.59375 
Q 38.421875 6.59375 43.015625 9.90625 
Q 47.609375 13.234375 47.609375 19.390625 
Q 47.609375 24.75 44.3125 27.78125 
Q 41.015625 30.8125 33.5 32.328125 
L 27.484375 33.5 
Q 16.453125 35.6875 11.515625 40.375 
Q 6.59375 45.0625 6.59375 53.421875 
Q 6.59375 63.09375 13.40625 68.65625 
Q 20.21875 74.21875 32.171875 74.21875 
Q 37.3125 74.21875 42.625 73.28125 
Q 47.953125 72.359375 53.515625 70.515625 
z
" id="DejaVuSans-83"/>
       <path d="M 9.8125 72.90625 
L 19.671875 72.90625 
L 19.671875 0 
L 9.8125 0 
z
" id="DejaVuSans-73"/>
      </defs>
      <use xlink:href="#DejaVuSans-83"/>
      <use x="63.476562" xlink:href="#DejaVuSans-73"/>
     </g>
    </g>
    <g id="line2d_39">
     <path d="M 99 114.176563 
L 119 114.176563 
" style="fill:none;stroke:#ff7f0e;stroke-linecap:square;stroke-width:1.5;"/>
    </g>
    <g id="line2d_40"/>
    <g id="text_18">
     <!-- BD -->
     <g transform="translate(127 117.676563)scale(0.1 -0.1)">
      <defs>
       <path d="M 19.671875 34.8125 
L 19.671875 8.109375 
L 35.5 8.109375 
Q 43.453125 8.109375 47.28125 11.40625 
Q 51.125 14.703125 51.125 21.484375 
Q 51.125 28.328125 47.28125 31.5625 
Q 43.453125 34.8125 35.5 34.8125 
z
M 19.671875 64.796875 
L 19.671875 42.828125 
L 34.28125 42.828125 
Q 41.5 42.828125 45.03125 45.53125 
Q 48.578125 48.25 48.578125 53.8125 
Q 48.578125 59.328125 45.03125 62.0625 
Q 41.5 64.796875 34.28125 64.796875 
z
M 9.8125 72.90625 
L 35.015625 72.90625 
Q 46.296875 72.90625 52.390625 68.21875 
Q 58.5 63.53125 58.5 54.890625 
Q 58.5 48.1875 55.375 44.234375 
Q 52.25 40.28125 46.1875 39.3125 
Q 53.46875 37.75 57.5 32.78125 
Q 61.53125 27.828125 61.53125 20.40625 
Q 61.53125 10.640625 54.890625 5.3125 
Q 48.25 0 35.984375 0 
L 9.8125 0 
z
" id="DejaVuSans-66"/>
      </defs>
      <use xlink:href="#DejaVuSans-66"/>
      <use x="68.603516" xlink:href="#DejaVuSans-68"/>
     </g>
    </g>
    <g id="line2d_41">
     <path d="M 99 128.854688 
L 119 128.854688 
" style="fill:none;stroke:#2ca02c;stroke-linecap:square;stroke-width:1.5;"/>
    </g>
    <g id="line2d_42"/>
    <g id="text_19">
     <!-- SIR -->
     <g transform="translate(127 132.354688)scale(0.1 -0.1)">
      <defs>
       <path d="M 44.390625 34.1875 
Q 47.5625 33.109375 50.5625 29.59375 
Q 53.5625 26.078125 56.59375 19.921875 
L 66.609375 0 
L 56 0 
L 46.6875 18.703125 
Q 43.0625 26.03125 39.671875 28.421875 
Q 36.28125 30.8125 30.421875 30.8125 
L 19.671875 30.8125 
L 19.671875 0 
L 9.8125 0 
L 9.8125 72.90625 
L 32.078125 72.90625 
Q 44.578125 72.90625 50.734375 67.671875 
Q 56.890625 62.453125 56.890625 51.90625 
Q 56.890625 45.015625 53.6875 40.46875 
Q 50.484375 35.9375 44.390625 34.1875 
z
M 19.671875 64.796875 
L 19.671875 38.921875 
L 32.078125 38.921875 
Q 39.203125 38.921875 42.84375 42.21875 
Q 46.484375 45.515625 46.484375 51.90625 
Q 46.484375 58.296875 42.84375 61.546875 
Q 39.203125 64.796875 32.078125 64.796875 
z
" id="DejaVuSans-82"/>
      </defs>
      <use xlink:href="#DejaVuSans-83"/>
      <use x="63.476562" xlink:href="#DejaVuSans-73"/>
      <use x="92.96875" xlink:href="#DejaVuSans-82"/>
     </g>
    </g>
    <g id="line2d_43">
     <path d="M 99 143.532812 
L 119 143.532812 
" style="fill:none;stroke:#d62728;stroke-linecap:square;stroke-width:1.5;"/>
    </g>
    <g id="line2d_44"/>
    <g id="text_20">
     <!-- eSIR -->
     <g transform="translate(127 147.032812)scale(0.1 -0.1)">
      <use xlink:href="#DejaVuSans-101"/>
      <use x="61.523438" xlink:href="#DejaVuSans-83"/>
      <use x="125" xlink:href="#DejaVuSans-73"/>
      <use x="154.492188" xlink:href="#DejaVuSans-82"/>
     </g>
    </g>
    <g id="line2d_45">
     <path d="M 99 158.210938 
L 119 158.210938 
" style="fill:none;stroke:#9467bd;stroke-linecap:square;stroke-width:1.5;"/>
    </g>
    <g id="line2d_46"/>
    <g id="text_21">
     <!-- SEIR -->
     <g transform="translate(127 161.710938)scale(0.1 -0.1)">
      <defs>
       <path d="M 9.8125 72.90625 
L 55.90625 72.90625 
L 55.90625 64.59375 
L 19.671875 64.59375 
L 19.671875 43.015625 
L 54.390625 43.015625 
L 54.390625 34.71875 
L 19.671875 34.71875 
L 19.671875 8.296875 
L 56.78125 8.296875 
L 56.78125 0 
L 9.8125 0 
z
" id="DejaVuSans-69"/>
      </defs>
      <use xlink:href="#DejaVuSans-83"/>
      <use x="63.476562" xlink:href="#DejaVuSans-69"/>
      <use x="126.660156" xlink:href="#DejaVuSans-73"/>
      <use x="156.152344" xlink:href="#DejaVuSans-82"/>
     </g>
    </g>
    <g id="line2d_47">
     <path d="M 99 172.889063 
L 119 172.889063 
" style="fill:none;stroke:#8c564b;stroke-linecap:square;stroke-width:1.5;"/>
    </g>
    <g id="line2d_48"/>
    <g id="text_22">
     <!-- eSEIR -->
     <g transform="translate(127 176.389063)scale(0.1 -0.1)">
      <use xlink:href="#DejaVuSans-101"/>
      <use x="61.523438" xlink:href="#DejaVuSans-83"/>
      <use x="125" xlink:href="#DejaVuSans-69"/>
      <use x="188.183594" xlink:href="#DejaVuSans-73"/>
      <use x="217.675781" xlink:href="#DejaVuSans-82"/>
     </g>
    </g>
    <g id="line2d_49">
     <path d="M 99 187.567188 
L 119 187.567188 
" style="fill:none;stroke:#e377c2;stroke-linecap:square;stroke-width:1.5;"/>
    </g>
    <g id="line2d_50"/>
    <g id="text_23">
     <!-- SEIUR -->
     <g transform="translate(127 191.067188)scale(0.1 -0.1)">
      <defs>
       <path d="M 8.6875 72.90625 
L 18.609375 72.90625 
L 18.609375 28.609375 
Q 18.609375 16.890625 22.84375 11.734375 
Q 27.09375 6.59375 36.625 6.59375 
Q 46.09375 6.59375 50.34375 11.734375 
Q 54.59375 16.890625 54.59375 28.609375 
L 54.59375 72.90625 
L 64.5 72.90625 
L 64.5 27.390625 
Q 64.5 13.140625 57.4375 5.859375 
Q 50.390625 -1.421875 36.625 -1.421875 
Q 22.796875 -1.421875 15.734375 5.859375 
Q 8.6875 13.140625 8.6875 27.390625 
z
" id="DejaVuSans-85"/>
      </defs>
      <use xlink:href="#DejaVuSans-83"/>
      <use x="63.476562" xlink:href="#DejaVuSans-69"/>
      <use x="126.660156" xlink:href="#DejaVuSans-73"/>
      <use x="156.152344" xlink:href="#DejaVuSans-85"/>
      <use x="229.345703" xlink:href="#DejaVuSans-82"/>
     </g>
    </g>
    <g id="line2d_51">
     <path d="M 99 202.245312 
L 119 202.245312 
" style="fill:none;stroke:#7f7f7f;stroke-linecap:square;stroke-width:1.5;"/>
    </g>
    <g id="line2d_52"/>
    <g id="text_24">
     <!-- eSEIUR -->
     <g transform="translate(127 205.745312)scale(0.1 -0.1)">
      <use xlink:href="#DejaVuSans-101"/>
      <use x="61.523438" xlink:href="#DejaVuSans-83"/>
      <use x="125" xlink:href="#DejaVuSans-69"/>
      <use x="188.183594" xlink:href="#DejaVuSans-73"/>
      <use x="217.675781" xlink:href="#DejaVuSans-85"/>
      <use x="290.869141" xlink:href="#DejaVuSans-82"/>
     </g>
    </g>
    <g id="line2d_53">
     <path d="M 99 216.923437 
L 119 216.923437 
" style="fill:none;stroke:#bcbd22;stroke-linecap:square;stroke-width:1.5;"/>
    </g>
    <g id="line2d_54"/>
    <g id="text_25">
     <!-- eSEIUR$^{range}$ -->
     <g transform="translate(127 220.423437)scale(0.1 -0.1)">
      <defs>
       <path d="M 44.578125 46.390625 
Q 43.21875 47.125 41.453125 47.515625 
Q 39.703125 47.90625 37.703125 47.90625 
Q 30.515625 47.90625 25.140625 42.453125 
Q 19.78125 37.015625 18.015625 27.875 
L 12.5 0 
L 3.515625 0 
L 14.203125 54.6875 
L 23.1875 54.6875 
L 21.484375 46.1875 
Q 25.046875 50.921875 30 53.453125 
Q 34.96875 56 40.578125 56 
Q 42.046875 56 43.453125 55.828125 
Q 44.875 55.671875 46.296875 55.28125 
z
" id="DejaVuSans-Oblique-114"/>
       <path d="M 53.71875 31.203125 
L 47.609375 0 
L 38.625 0 
L 40.28125 8.296875 
Q 36.328125 3.421875 31.265625 1 
Q 26.21875 -1.421875 20.015625 -1.421875 
Q 13.03125 -1.421875 8.5625 2.84375 
Q 4.109375 7.125 4.109375 13.8125 
Q 4.109375 23.390625 11.75 28.953125 
Q 19.390625 34.515625 32.8125 34.515625 
L 45.3125 34.515625 
L 45.796875 36.921875 
Q 45.90625 37.3125 45.953125 37.765625 
Q 46 38.234375 46 39.203125 
Q 46 43.5625 42.453125 45.96875 
Q 38.921875 48.390625 32.515625 48.390625 
Q 28.125 48.390625 23.5 47.265625 
Q 18.890625 46.140625 14.015625 43.890625 
L 15.578125 52.203125 
Q 20.65625 54.109375 25.515625 55.046875 
Q 30.375 56 34.90625 56 
Q 44.578125 56 49.625 51.796875 
Q 54.6875 47.609375 54.6875 39.59375 
Q 54.6875 37.984375 54.4375 35.8125 
Q 54.203125 33.640625 53.71875 31.203125 
z
M 44 27.484375 
L 35.015625 27.484375 
Q 23.96875 27.484375 18.671875 24.53125 
Q 13.375 21.578125 13.375 15.375 
Q 13.375 11.078125 16.078125 8.640625 
Q 18.796875 6.203125 23.578125 6.203125 
Q 30.90625 6.203125 36.375 11.453125 
Q 41.84375 16.703125 43.609375 25.484375 
z
" id="DejaVuSans-Oblique-97"/>
       <path d="M 55.71875 33.015625 
L 49.3125 0 
L 40.28125 0 
L 46.6875 32.671875 
Q 47.125 34.96875 47.359375 36.71875 
Q 47.609375 38.484375 47.609375 39.5 
Q 47.609375 43.609375 45.015625 45.890625 
Q 42.4375 48.1875 37.796875 48.1875 
Q 30.5625 48.1875 25.34375 43.375 
Q 20.125 38.578125 18.5 30.328125 
L 12.5 0 
L 3.515625 0 
L 14.109375 54.6875 
L 23.09375 54.6875 
L 21.296875 46.09375 
Q 25.046875 50.828125 30.3125 53.40625 
Q 35.59375 56 41.40625 56 
Q 48.640625 56 52.609375 52.09375 
Q 56.59375 48.1875 56.59375 41.109375 
Q 56.59375 39.359375 56.375 37.359375 
Q 56.15625 35.359375 55.71875 33.015625 
z
" id="DejaVuSans-Oblique-110"/>
       <path d="M 59.625 54.6875 
L 50.296875 6.78125 
Q 47.609375 -7.125 40.015625 -13.953125 
Q 32.421875 -20.796875 19.578125 -20.796875 
Q 14.84375 -20.796875 10.78125 -20.09375 
Q 6.734375 -19.390625 3.21875 -17.921875 
L 4.890625 -9.1875 
Q 8.203125 -11.328125 11.90625 -12.34375 
Q 15.625 -13.375 19.828125 -13.375 
Q 28.375 -13.375 33.859375 -8.703125 
Q 39.359375 -4.046875 41.109375 4.6875 
L 41.890625 8.796875 
Q 38.140625 4.5 33.15625 2.25 
Q 28.171875 0 22.40625 0 
Q 14.109375 0 9.34375 5.484375 
Q 4.59375 10.984375 4.59375 20.609375 
Q 4.59375 28.171875 7.46875 35.421875 
Q 10.359375 42.671875 15.578125 48.296875 
Q 19.046875 52 23.65625 54 
Q 28.265625 56 33.296875 56 
Q 38.8125 56 42.90625 53.4375 
Q 47.015625 50.875 49.03125 46.1875 
L 50.59375 54.6875 
z
M 46.09375 34.625 
Q 46.09375 41.265625 42.96875 44.875 
Q 39.84375 48.484375 34.078125 48.484375 
Q 30.515625 48.484375 27.296875 47.0625 
Q 24.078125 45.65625 21.78125 43.109375 
Q 18.0625 38.921875 15.984375 33.234375 
Q 13.921875 27.546875 13.921875 21.484375 
Q 13.921875 14.75 17.0625 11.125 
Q 20.21875 7.515625 26.125 7.515625 
Q 34.671875 7.515625 40.375 15.25 
Q 46.09375 23 46.09375 34.625 
z
" id="DejaVuSans-Oblique-103"/>
       <path d="M 48.09375 32.234375 
Q 48.25 33.015625 48.3125 33.84375 
Q 48.390625 34.671875 48.390625 35.5 
Q 48.390625 41.453125 44.890625 44.921875 
Q 41.40625 48.390625 35.40625 48.390625 
Q 28.71875 48.390625 23.578125 44.15625 
Q 18.453125 39.9375 15.828125 32.171875 
z
M 55.90625 25.203125 
L 14.109375 25.203125 
Q 13.8125 23.34375 13.71875 22.265625 
Q 13.625 21.1875 13.625 20.40625 
Q 13.625 13.625 17.796875 9.90625 
Q 21.96875 6.203125 29.59375 6.203125 
Q 35.453125 6.203125 40.671875 7.515625 
Q 45.90625 8.84375 50.390625 11.375 
L 48.6875 2.484375 
Q 43.84375 0.53125 38.6875 -0.4375 
Q 33.546875 -1.421875 28.21875 -1.421875 
Q 16.84375 -1.421875 10.71875 4.015625 
Q 4.59375 9.46875 4.59375 19.484375 
Q 4.59375 28.03125 7.640625 35.375 
Q 10.6875 42.71875 16.609375 48.484375 
Q 20.40625 52.09375 25.65625 54.046875 
Q 30.90625 56 36.8125 56 
Q 46.09375 56 51.578125 50.4375 
Q 57.078125 44.875 57.078125 35.5 
Q 57.078125 33.25 56.78125 30.6875 
Q 56.5 28.125 55.90625 25.203125 
z
" id="DejaVuSans-Oblique-101"/>
      </defs>
      <use transform="translate(0 0.51875)" xlink:href="#DejaVuSans-101"/>
      <use transform="translate(61.523438 0.51875)" xlink:href="#DejaVuSans-83"/>
      <use transform="translate(125 0.51875)" xlink:href="#DejaVuSans-69"/>
      <use transform="translate(188.183594 0.51875)" xlink:href="#DejaVuSans-73"/>
      <use transform="translate(217.675781 0.51875)" xlink:href="#DejaVuSans-85"/>
      <use transform="translate(288.619141 0.51875)" xlink:href="#DejaVuSans-82"/>
      <use transform="translate(359.058594 38.8)scale(0.7)" xlink:href="#DejaVuSans-Oblique-114"/>
      <use transform="translate(387.837891 38.8)scale(0.7)" xlink:href="#DejaVuSans-Oblique-97"/>
      <use transform="translate(430.733398 38.8)scale(0.7)" xlink:href="#DejaVuSans-Oblique-110"/>
      <use transform="translate(475.098633 38.8)scale(0.7)" xlink:href="#DejaVuSans-Oblique-103"/>
      <use transform="translate(519.532227 38.8)scale(0.7)" xlink:href="#DejaVuSans-Oblique-101"/>
     </g>
    </g>
   </g>
  </g>
 </g>
 <defs>
  <clipPath id="p4c3cad4fc0">
   <rect height="543.6" width="558" x="90" y="86.4"/>
  </clipPath>
 </defs>
</svg>
