<?xml version="1.0" encoding="utf-8" standalone="no"?>
<!DOCTYPE svg PUBLIC "-//W3C//DTD SVG 1.1//EN"
  "http://www.w3.org/Graphics/SVG/1.1/DTD/svg11.dtd">
<!-- Created with matplotlib (https://matplotlib.org/) -->
<svg height="720pt" version="1.1" viewBox="0 0 720 720" width="720pt" xmlns="http://www.w3.org/2000/svg" xmlns:xlink="http://www.w3.org/1999/xlink">
 <metadata>
  <rdf:RDF xmlns:cc="http://creativecommons.org/ns#" xmlns:dc="http://purl.org/dc/elements/1.1/" xmlns:rdf="http://www.w3.org/1999/02/22-rdf-syntax-ns#">
   <cc:Work>
    <dc:type rdf:resource="http://purl.org/dc/dcmitype/StillImage"/>
    <dc:date>2022-07-13T18:54:11.486174</dc:date>
    <dc:format>image/svg+xml</dc:format>
    <dc:creator>
     <cc:Agent>
      <dc:title>Matplotlib v3.3.2, https://matplotlib.org/</dc:title>
     </cc:Agent>
    </dc:creator>
   </cc:Work>
  </rdf:RDF>
 </metadata>
 <defs>
  <style type="text/css">*{stroke-linecap:butt;stroke-linejoin:round;}</style>
 </defs>
 <g id="figure_1">
  <g id="patch_1">
   <path d="M 0 720 
L 720 720 
L 720 0 
L 0 0 
z
" style="fill:none;"/>
  </g>
  <g id="axes_1">
   <g id="patch_2">
    <path d="M 90 630 
L 648 630 
L 648 86.4 
L 90 86.4 
z
" style="fill:#ffffff;"/>
   </g>
   <g id="matplotlib.axis_1">
    <g id="xtick_1">
     <g id="line2d_1">
      <path clip-path="url(#p5839d34a68)" d="M 115.363636 630 
L 115.363636 86.4 
" style="fill:none;stroke:#b0b0b0;stroke-linecap:square;stroke-width:0.8;"/>
     </g>
     <g id="line2d_2">
      <defs>
       <path d="M 0 0 
L 0 3.5 
" id="m74c5f1bd77" style="stroke:#000000;stroke-width:0.8;"/>
      </defs>
      <g>
       <use style="stroke:#000000;stroke-width:0.8;" x="115.363636" xlink:href="#m74c5f1bd77" y="630"/>
      </g>
     </g>
     <g id="text_1">
      <!-- 0 -->
      <g transform="translate(112.182386 644.598438)scale(0.1 -0.1)">
       <defs>
        <path d="M 31.78125 66.40625 
Q 24.171875 66.40625 20.328125 58.90625 
Q 16.5 51.421875 16.5 36.375 
Q 16.5 21.390625 20.328125 13.890625 
Q 24.171875 6.390625 31.78125 6.390625 
Q 39.453125 6.390625 43.28125 13.890625 
Q 47.125 21.390625 47.125 36.375 
Q 47.125 51.421875 43.28125 58.90625 
Q 39.453125 66.40625 31.78125 66.40625 
z
M 31.78125 74.21875 
Q 44.046875 74.21875 50.515625 64.515625 
Q 56.984375 54.828125 56.984375 36.375 
Q 56.984375 17.96875 50.515625 8.265625 
Q 44.046875 -1.421875 31.78125 -1.421875 
Q 19.53125 -1.421875 13.0625 8.265625 
Q 6.59375 17.96875 6.59375 36.375 
Q 6.59375 54.828125 13.0625 64.515625 
Q 19.53125 74.21875 31.78125 74.21875 
z
" id="DejaVuSans-48"/>
       </defs>
       <use xlink:href="#DejaVuSans-48"/>
      </g>
     </g>
    </g>
    <g id="xtick_2">
     <g id="line2d_3">
      <path clip-path="url(#p5839d34a68)" d="M 216.818182 630 
L 216.818182 86.4 
" style="fill:none;stroke:#b0b0b0;stroke-linecap:square;stroke-width:0.8;"/>
     </g>
     <g id="line2d_4">
      <g>
       <use style="stroke:#000000;stroke-width:0.8;" x="216.818182" xlink:href="#m74c5f1bd77" y="630"/>
      </g>
     </g>
     <g id="text_2">
      <!-- 50 -->
      <g transform="translate(210.455682 644.598438)scale(0.1 -0.1)">
       <defs>
        <path d="M 10.796875 72.90625 
L 49.515625 72.90625 
L 49.515625 64.59375 
L 19.828125 64.59375 
L 19.828125 46.734375 
Q 21.96875 47.46875 24.109375 47.828125 
Q 26.265625 48.1875 28.421875 48.1875 
Q 40.625 48.1875 47.75 41.5 
Q 54.890625 34.8125 54.890625 23.390625 
Q 54.890625 11.625 47.5625 5.09375 
Q 40.234375 -1.421875 26.90625 -1.421875 
Q 22.3125 -1.421875 17.546875 -0.640625 
Q 12.796875 0.140625 7.71875 1.703125 
L 7.71875 11.625 
Q 12.109375 9.234375 16.796875 8.0625 
Q 21.484375 6.890625 26.703125 6.890625 
Q 35.15625 6.890625 40.078125 11.328125 
Q 45.015625 15.765625 45.015625 23.390625 
Q 45.015625 31 40.078125 35.4375 
Q 35.15625 39.890625 26.703125 39.890625 
Q 22.75 39.890625 18.8125 39.015625 
Q 14.890625 38.140625 10.796875 36.28125 
z
" id="DejaVuSans-53"/>
       </defs>
       <use xlink:href="#DejaVuSans-53"/>
       <use x="63.623047" xlink:href="#DejaVuSans-48"/>
      </g>
     </g>
    </g>
    <g id="xtick_3">
     <g id="line2d_5">
      <path clip-path="url(#p5839d34a68)" d="M 318.272727 630 
L 318.272727 86.4 
" style="fill:none;stroke:#b0b0b0;stroke-linecap:square;stroke-width:0.8;"/>
     </g>
     <g id="line2d_6">
      <g>
       <use style="stroke:#000000;stroke-width:0.8;" x="318.272727" xlink:href="#m74c5f1bd77" y="630"/>
      </g>
     </g>
     <g id="text_3">
      <!-- 100 -->
      <g transform="translate(308.728977 644.598438)scale(0.1 -0.1)">
       <defs>
        <path d="M 12.40625 8.296875 
L 28.515625 8.296875 
L 28.515625 63.921875 
L 10.984375 60.40625 
L 10.984375 69.390625 
L 28.421875 72.90625 
L 38.28125 72.90625 
L 38.28125 8.296875 
L 54.390625 8.296875 
L 54.390625 0 
L 12.40625 0 
z
" id="DejaVuSans-49"/>
       </defs>
       <use xlink:href="#DejaVuSans-49"/>
       <use x="63.623047" xlink:href="#DejaVuSans-48"/>
       <use x="127.246094" xlink:href="#DejaVuSans-48"/>
      </g>
     </g>
    </g>
    <g id="xtick_4">
     <g id="line2d_7">
      <path clip-path="url(#p5839d34a68)" d="M 419.727273 630 
L 419.727273 86.4 
" style="fill:none;stroke:#b0b0b0;stroke-linecap:square;stroke-width:0.8;"/>
     </g>
     <g id="line2d_8">
      <g>
       <use style="stroke:#000000;stroke-width:0.8;" x="419.727273" xlink:href="#m74c5f1bd77" y="630"/>
      </g>
     </g>
     <g id="text_4">
      <!-- 150 -->
      <g transform="translate(410.183523 644.598438)scale(0.1 -0.1)">
       <use xlink:href="#DejaVuSans-49"/>
       <use x="63.623047" xlink:href="#DejaVuSans-53"/>
       <use x="127.246094" xlink:href="#DejaVuSans-48"/>
      </g>
     </g>
    </g>
    <g id="xtick_5">
     <g id="line2d_9">
      <path clip-path="url(#p5839d34a68)" d="M 521.181818 630 
L 521.181818 86.4 
" style="fill:none;stroke:#b0b0b0;stroke-linecap:square;stroke-width:0.8;"/>
     </g>
     <g id="line2d_10">
      <g>
       <use style="stroke:#000000;stroke-width:0.8;" x="521.181818" xlink:href="#m74c5f1bd77" y="630"/>
      </g>
     </g>
     <g id="text_5">
      <!-- 200 -->
      <g transform="translate(511.638068 644.598438)scale(0.1 -0.1)">
       <defs>
        <path d="M 19.1875 8.296875 
L 53.609375 8.296875 
L 53.609375 0 
L 7.328125 0 
L 7.328125 8.296875 
Q 12.9375 14.109375 22.625 23.890625 
Q 32.328125 33.6875 34.8125 36.53125 
Q 39.546875 41.84375 41.421875 45.53125 
Q 43.3125 49.21875 43.3125 52.78125 
Q 43.3125 58.59375 39.234375 62.25 
Q 35.15625 65.921875 28.609375 65.921875 
Q 23.96875 65.921875 18.8125 64.3125 
Q 13.671875 62.703125 7.8125 59.421875 
L 7.8125 69.390625 
Q 13.765625 71.78125 18.9375 73 
Q 24.125 74.21875 28.421875 74.21875 
Q 39.75 74.21875 46.484375 68.546875 
Q 53.21875 62.890625 53.21875 53.421875 
Q 53.21875 48.921875 51.53125 44.890625 
Q 49.859375 40.875 45.40625 35.40625 
Q 44.1875 33.984375 37.640625 27.21875 
Q 31.109375 20.453125 19.1875 8.296875 
z
" id="DejaVuSans-50"/>
       </defs>
       <use xlink:href="#DejaVuSans-50"/>
       <use x="63.623047" xlink:href="#DejaVuSans-48"/>
       <use x="127.246094" xlink:href="#DejaVuSans-48"/>
      </g>
     </g>
    </g>
    <g id="xtick_6">
     <g id="line2d_11">
      <path clip-path="url(#p5839d34a68)" d="M 622.636364 630 
L 622.636364 86.4 
" style="fill:none;stroke:#b0b0b0;stroke-linecap:square;stroke-width:0.8;"/>
     </g>
     <g id="line2d_12">
      <g>
       <use style="stroke:#000000;stroke-width:0.8;" x="622.636364" xlink:href="#m74c5f1bd77" y="630"/>
      </g>
     </g>
     <g id="text_6">
      <!-- 250 -->
      <g transform="translate(613.092614 644.598438)scale(0.1 -0.1)">
       <use xlink:href="#DejaVuSans-50"/>
       <use x="63.623047" xlink:href="#DejaVuSans-53"/>
       <use x="127.246094" xlink:href="#DejaVuSans-48"/>
      </g>
     </g>
    </g>
    <g id="text_7">
     <!-- Days -->
     <g transform="translate(356.521875 658.276562)scale(0.1 -0.1)">
      <defs>
       <path d="M 19.671875 64.796875 
L 19.671875 8.109375 
L 31.59375 8.109375 
Q 46.6875 8.109375 53.6875 14.9375 
Q 60.6875 21.78125 60.6875 36.53125 
Q 60.6875 51.171875 53.6875 57.984375 
Q 46.6875 64.796875 31.59375 64.796875 
z
M 9.8125 72.90625 
L 30.078125 72.90625 
Q 51.265625 72.90625 61.171875 64.09375 
Q 71.09375 55.28125 71.09375 36.53125 
Q 71.09375 17.671875 61.125 8.828125 
Q 51.171875 0 30.078125 0 
L 9.8125 0 
z
" id="DejaVuSans-68"/>
       <path d="M 34.28125 27.484375 
Q 23.390625 27.484375 19.1875 25 
Q 14.984375 22.515625 14.984375 16.5 
Q 14.984375 11.71875 18.140625 8.90625 
Q 21.296875 6.109375 26.703125 6.109375 
Q 34.1875 6.109375 38.703125 11.40625 
Q 43.21875 16.703125 43.21875 25.484375 
L 43.21875 27.484375 
z
M 52.203125 31.203125 
L 52.203125 0 
L 43.21875 0 
L 43.21875 8.296875 
Q 40.140625 3.328125 35.546875 0.953125 
Q 30.953125 -1.421875 24.3125 -1.421875 
Q 15.921875 -1.421875 10.953125 3.296875 
Q 6 8.015625 6 15.921875 
Q 6 25.140625 12.171875 29.828125 
Q 18.359375 34.515625 30.609375 34.515625 
L 43.21875 34.515625 
L 43.21875 35.40625 
Q 43.21875 41.609375 39.140625 45 
Q 35.0625 48.390625 27.6875 48.390625 
Q 23 48.390625 18.546875 47.265625 
Q 14.109375 46.140625 10.015625 43.890625 
L 10.015625 52.203125 
Q 14.9375 54.109375 19.578125 55.046875 
Q 24.21875 56 28.609375 56 
Q 40.484375 56 46.34375 49.84375 
Q 52.203125 43.703125 52.203125 31.203125 
z
" id="DejaVuSans-97"/>
       <path d="M 32.171875 -5.078125 
Q 28.375 -14.84375 24.75 -17.8125 
Q 21.140625 -20.796875 15.09375 -20.796875 
L 7.90625 -20.796875 
L 7.90625 -13.28125 
L 13.1875 -13.28125 
Q 16.890625 -13.28125 18.9375 -11.515625 
Q 21 -9.765625 23.484375 -3.21875 
L 25.09375 0.875 
L 2.984375 54.6875 
L 12.5 54.6875 
L 29.59375 11.921875 
L 46.6875 54.6875 
L 56.203125 54.6875 
z
" id="DejaVuSans-121"/>
       <path d="M 44.28125 53.078125 
L 44.28125 44.578125 
Q 40.484375 46.53125 36.375 47.5 
Q 32.28125 48.484375 27.875 48.484375 
Q 21.1875 48.484375 17.84375 46.4375 
Q 14.5 44.390625 14.5 40.28125 
Q 14.5 37.15625 16.890625 35.375 
Q 19.28125 33.59375 26.515625 31.984375 
L 29.59375 31.296875 
Q 39.15625 29.25 43.1875 25.515625 
Q 47.21875 21.78125 47.21875 15.09375 
Q 47.21875 7.46875 41.1875 3.015625 
Q 35.15625 -1.421875 24.609375 -1.421875 
Q 20.21875 -1.421875 15.453125 -0.5625 
Q 10.6875 0.296875 5.421875 2 
L 5.421875 11.28125 
Q 10.40625 8.6875 15.234375 7.390625 
Q 20.0625 6.109375 24.8125 6.109375 
Q 31.15625 6.109375 34.5625 8.28125 
Q 37.984375 10.453125 37.984375 14.40625 
Q 37.984375 18.0625 35.515625 20.015625 
Q 33.0625 21.96875 24.703125 23.78125 
L 21.578125 24.515625 
Q 13.234375 26.265625 9.515625 29.90625 
Q 5.8125 33.546875 5.8125 39.890625 
Q 5.8125 47.609375 11.28125 51.796875 
Q 16.75 56 26.8125 56 
Q 31.78125 56 36.171875 55.265625 
Q 40.578125 54.546875 44.28125 53.078125 
z
" id="DejaVuSans-115"/>
      </defs>
      <use xlink:href="#DejaVuSans-68"/>
      <use x="77.001953" xlink:href="#DejaVuSans-97"/>
      <use x="138.28125" xlink:href="#DejaVuSans-121"/>
      <use x="197.460938" xlink:href="#DejaVuSans-115"/>
     </g>
    </g>
   </g>
   <g id="matplotlib.axis_2">
    <g id="ytick_1">
     <g id="line2d_13">
      <path clip-path="url(#p5839d34a68)" d="M 90 605.427629 
L 648 605.427629 
" style="fill:none;stroke:#b0b0b0;stroke-linecap:square;stroke-width:0.8;"/>
     </g>
     <g id="line2d_14">
      <defs>
       <path d="M 0 0 
L -3.5 0 
" id="m426407cda8" style="stroke:#000000;stroke-width:0.8;"/>
      </defs>
      <g>
       <use style="stroke:#000000;stroke-width:0.8;" x="90" xlink:href="#m426407cda8" y="605.427629"/>
      </g>
     </g>
     <g id="text_8">
      <!-- 0 -->
      <g transform="translate(76.6375 609.226848)scale(0.1 -0.1)">
       <use xlink:href="#DejaVuSans-48"/>
      </g>
     </g>
    </g>
    <g id="ytick_2">
     <g id="line2d_15">
      <path clip-path="url(#p5839d34a68)" d="M 90 519.977831 
L 648 519.977831 
" style="fill:none;stroke:#b0b0b0;stroke-linecap:square;stroke-width:0.8;"/>
     </g>
     <g id="line2d_16">
      <g>
       <use style="stroke:#000000;stroke-width:0.8;" x="90" xlink:href="#m426407cda8" y="519.977831"/>
      </g>
     </g>
     <g id="text_9">
      <!-- 10000 -->
      <g transform="translate(51.1875 523.777049)scale(0.1 -0.1)">
       <use xlink:href="#DejaVuSans-49"/>
       <use x="63.623047" xlink:href="#DejaVuSans-48"/>
       <use x="127.246094" xlink:href="#DejaVuSans-48"/>
       <use x="190.869141" xlink:href="#DejaVuSans-48"/>
       <use x="254.492188" xlink:href="#DejaVuSans-48"/>
      </g>
     </g>
    </g>
    <g id="ytick_3">
     <g id="line2d_17">
      <path clip-path="url(#p5839d34a68)" d="M 90 434.528032 
L 648 434.528032 
" style="fill:none;stroke:#b0b0b0;stroke-linecap:square;stroke-width:0.8;"/>
     </g>
     <g id="line2d_18">
      <g>
       <use style="stroke:#000000;stroke-width:0.8;" x="90" xlink:href="#m426407cda8" y="434.528032"/>
      </g>
     </g>
     <g id="text_10">
      <!-- 20000 -->
      <g transform="translate(51.1875 438.327251)scale(0.1 -0.1)">
       <use xlink:href="#DejaVuSans-50"/>
       <use x="63.623047" xlink:href="#DejaVuSans-48"/>
       <use x="127.246094" xlink:href="#DejaVuSans-48"/>
       <use x="190.869141" xlink:href="#DejaVuSans-48"/>
       <use x="254.492188" xlink:href="#DejaVuSans-48"/>
      </g>
     </g>
    </g>
    <g id="ytick_4">
     <g id="line2d_19">
      <path clip-path="url(#p5839d34a68)" d="M 90 349.078234 
L 648 349.078234 
" style="fill:none;stroke:#b0b0b0;stroke-linecap:square;stroke-width:0.8;"/>
     </g>
     <g id="line2d_20">
      <g>
       <use style="stroke:#000000;stroke-width:0.8;" x="90" xlink:href="#m426407cda8" y="349.078234"/>
      </g>
     </g>
     <g id="text_11">
      <!-- 30000 -->
      <g transform="translate(51.1875 352.877453)scale(0.1 -0.1)">
       <defs>
        <path d="M 40.578125 39.3125 
Q 47.65625 37.796875 51.625 33 
Q 55.609375 28.21875 55.609375 21.1875 
Q 55.609375 10.40625 48.1875 4.484375 
Q 40.765625 -1.421875 27.09375 -1.421875 
Q 22.515625 -1.421875 17.65625 -0.515625 
Q 12.796875 0.390625 7.625 2.203125 
L 7.625 11.71875 
Q 11.71875 9.328125 16.59375 8.109375 
Q 21.484375 6.890625 26.8125 6.890625 
Q 36.078125 6.890625 40.9375 10.546875 
Q 45.796875 14.203125 45.796875 21.1875 
Q 45.796875 27.640625 41.28125 31.265625 
Q 36.765625 34.90625 28.71875 34.90625 
L 20.21875 34.90625 
L 20.21875 43.015625 
L 29.109375 43.015625 
Q 36.375 43.015625 40.234375 45.921875 
Q 44.09375 48.828125 44.09375 54.296875 
Q 44.09375 59.90625 40.109375 62.90625 
Q 36.140625 65.921875 28.71875 65.921875 
Q 24.65625 65.921875 20.015625 65.03125 
Q 15.375 64.15625 9.8125 62.3125 
L 9.8125 71.09375 
Q 15.4375 72.65625 20.34375 73.4375 
Q 25.25 74.21875 29.59375 74.21875 
Q 40.828125 74.21875 47.359375 69.109375 
Q 53.90625 64.015625 53.90625 55.328125 
Q 53.90625 49.265625 50.4375 45.09375 
Q 46.96875 40.921875 40.578125 39.3125 
z
" id="DejaVuSans-51"/>
       </defs>
       <use xlink:href="#DejaVuSans-51"/>
       <use x="63.623047" xlink:href="#DejaVuSans-48"/>
       <use x="127.246094" xlink:href="#DejaVuSans-48"/>
       <use x="190.869141" xlink:href="#DejaVuSans-48"/>
       <use x="254.492188" xlink:href="#DejaVuSans-48"/>
      </g>
     </g>
    </g>
    <g id="ytick_5">
     <g id="line2d_21">
      <path clip-path="url(#p5839d34a68)" d="M 90 263.628436 
L 648 263.628436 
" style="fill:none;stroke:#b0b0b0;stroke-linecap:square;stroke-width:0.8;"/>
     </g>
     <g id="line2d_22">
      <g>
       <use style="stroke:#000000;stroke-width:0.8;" x="90" xlink:href="#m426407cda8" y="263.628436"/>
      </g>
     </g>
     <g id="text_12">
      <!-- 40000 -->
      <g transform="translate(51.1875 267.427655)scale(0.1 -0.1)">
       <defs>
        <path d="M 37.796875 64.3125 
L 12.890625 25.390625 
L 37.796875 25.390625 
z
M 35.203125 72.90625 
L 47.609375 72.90625 
L 47.609375 25.390625 
L 58.015625 25.390625 
L 58.015625 17.1875 
L 47.609375 17.1875 
L 47.609375 0 
L 37.796875 0 
L 37.796875 17.1875 
L 4.890625 17.1875 
L 4.890625 26.703125 
z
" id="DejaVuSans-52"/>
       </defs>
       <use xlink:href="#DejaVuSans-52"/>
       <use x="63.623047" xlink:href="#DejaVuSans-48"/>
       <use x="127.246094" xlink:href="#DejaVuSans-48"/>
       <use x="190.869141" xlink:href="#DejaVuSans-48"/>
       <use x="254.492188" xlink:href="#DejaVuSans-48"/>
      </g>
     </g>
    </g>
    <g id="ytick_6">
     <g id="line2d_23">
      <path clip-path="url(#p5839d34a68)" d="M 90 178.178638 
L 648 178.178638 
" style="fill:none;stroke:#b0b0b0;stroke-linecap:square;stroke-width:0.8;"/>
     </g>
     <g id="line2d_24">
      <g>
       <use style="stroke:#000000;stroke-width:0.8;" x="90" xlink:href="#m426407cda8" y="178.178638"/>
      </g>
     </g>
     <g id="text_13">
      <!-- 50000 -->
      <g transform="translate(51.1875 181.977856)scale(0.1 -0.1)">
       <use xlink:href="#DejaVuSans-53"/>
       <use x="63.623047" xlink:href="#DejaVuSans-48"/>
       <use x="127.246094" xlink:href="#DejaVuSans-48"/>
       <use x="190.869141" xlink:href="#DejaVuSans-48"/>
       <use x="254.492188" xlink:href="#DejaVuSans-48"/>
      </g>
     </g>
    </g>
    <g id="ytick_7">
     <g id="line2d_25">
      <path clip-path="url(#p5839d34a68)" d="M 90 92.728839 
L 648 92.728839 
" style="fill:none;stroke:#b0b0b0;stroke-linecap:square;stroke-width:0.8;"/>
     </g>
     <g id="line2d_26">
      <g>
       <use style="stroke:#000000;stroke-width:0.8;" x="90" xlink:href="#m426407cda8" y="92.728839"/>
      </g>
     </g>
     <g id="text_14">
      <!-- 60000 -->
      <g transform="translate(51.1875 96.528058)scale(0.1 -0.1)">
       <defs>
        <path d="M 33.015625 40.375 
Q 26.375 40.375 22.484375 35.828125 
Q 18.609375 31.296875 18.609375 23.390625 
Q 18.609375 15.53125 22.484375 10.953125 
Q 26.375 6.390625 33.015625 6.390625 
Q 39.65625 6.390625 43.53125 10.953125 
Q 47.40625 15.53125 47.40625 23.390625 
Q 47.40625 31.296875 43.53125 35.828125 
Q 39.65625 40.375 33.015625 40.375 
z
M 52.59375 71.296875 
L 52.59375 62.3125 
Q 48.875 64.0625 45.09375 64.984375 
Q 41.3125 65.921875 37.59375 65.921875 
Q 27.828125 65.921875 22.671875 59.328125 
Q 17.53125 52.734375 16.796875 39.40625 
Q 19.671875 43.65625 24.015625 45.921875 
Q 28.375 48.1875 33.59375 48.1875 
Q 44.578125 48.1875 50.953125 41.515625 
Q 57.328125 34.859375 57.328125 23.390625 
Q 57.328125 12.15625 50.6875 5.359375 
Q 44.046875 -1.421875 33.015625 -1.421875 
Q 20.359375 -1.421875 13.671875 8.265625 
Q 6.984375 17.96875 6.984375 36.375 
Q 6.984375 53.65625 15.1875 63.9375 
Q 23.390625 74.21875 37.203125 74.21875 
Q 40.921875 74.21875 44.703125 73.484375 
Q 48.484375 72.75 52.59375 71.296875 
z
" id="DejaVuSans-54"/>
       </defs>
       <use xlink:href="#DejaVuSans-54"/>
       <use x="63.623047" xlink:href="#DejaVuSans-48"/>
       <use x="127.246094" xlink:href="#DejaVuSans-48"/>
       <use x="190.869141" xlink:href="#DejaVuSans-48"/>
       <use x="254.492188" xlink:href="#DejaVuSans-48"/>
      </g>
     </g>
    </g>
    <g id="text_15">
     <!-- Cumulative cases -->
     <g transform="translate(45.107812 402.425781)rotate(-90)scale(0.1 -0.1)">
      <defs>
       <path d="M 64.40625 67.28125 
L 64.40625 56.890625 
Q 59.421875 61.53125 53.78125 63.8125 
Q 48.140625 66.109375 41.796875 66.109375 
Q 29.296875 66.109375 22.65625 58.46875 
Q 16.015625 50.828125 16.015625 36.375 
Q 16.015625 21.96875 22.65625 14.328125 
Q 29.296875 6.6875 41.796875 6.6875 
Q 48.140625 6.6875 53.78125 8.984375 
Q 59.421875 11.28125 64.40625 15.921875 
L 64.40625 5.609375 
Q 59.234375 2.09375 53.4375 0.328125 
Q 47.65625 -1.421875 41.21875 -1.421875 
Q 24.65625 -1.421875 15.125 8.703125 
Q 5.609375 18.84375 5.609375 36.375 
Q 5.609375 53.953125 15.125 64.078125 
Q 24.65625 74.21875 41.21875 74.21875 
Q 47.75 74.21875 53.53125 72.484375 
Q 59.328125 70.75 64.40625 67.28125 
z
" id="DejaVuSans-67"/>
       <path d="M 8.5 21.578125 
L 8.5 54.6875 
L 17.484375 54.6875 
L 17.484375 21.921875 
Q 17.484375 14.15625 20.5 10.265625 
Q 23.53125 6.390625 29.59375 6.390625 
Q 36.859375 6.390625 41.078125 11.03125 
Q 45.3125 15.671875 45.3125 23.6875 
L 45.3125 54.6875 
L 54.296875 54.6875 
L 54.296875 0 
L 45.3125 0 
L 45.3125 8.40625 
Q 42.046875 3.421875 37.71875 1 
Q 33.40625 -1.421875 27.6875 -1.421875 
Q 18.265625 -1.421875 13.375 4.4375 
Q 8.5 10.296875 8.5 21.578125 
z
M 31.109375 56 
z
" id="DejaVuSans-117"/>
       <path d="M 52 44.1875 
Q 55.375 50.25 60.0625 53.125 
Q 64.75 56 71.09375 56 
Q 79.640625 56 84.28125 50.015625 
Q 88.921875 44.046875 88.921875 33.015625 
L 88.921875 0 
L 79.890625 0 
L 79.890625 32.71875 
Q 79.890625 40.578125 77.09375 44.375 
Q 74.3125 48.1875 68.609375 48.1875 
Q 61.625 48.1875 57.5625 43.546875 
Q 53.515625 38.921875 53.515625 30.90625 
L 53.515625 0 
L 44.484375 0 
L 44.484375 32.71875 
Q 44.484375 40.625 41.703125 44.40625 
Q 38.921875 48.1875 33.109375 48.1875 
Q 26.21875 48.1875 22.15625 43.53125 
Q 18.109375 38.875 18.109375 30.90625 
L 18.109375 0 
L 9.078125 0 
L 9.078125 54.6875 
L 18.109375 54.6875 
L 18.109375 46.1875 
Q 21.1875 51.21875 25.484375 53.609375 
Q 29.78125 56 35.6875 56 
Q 41.65625 56 45.828125 52.96875 
Q 50 49.953125 52 44.1875 
z
" id="DejaVuSans-109"/>
       <path d="M 9.421875 75.984375 
L 18.40625 75.984375 
L 18.40625 0 
L 9.421875 0 
z
" id="DejaVuSans-108"/>
       <path d="M 18.3125 70.21875 
L 18.3125 54.6875 
L 36.8125 54.6875 
L 36.8125 47.703125 
L 18.3125 47.703125 
L 18.3125 18.015625 
Q 18.3125 11.328125 20.140625 9.421875 
Q 21.96875 7.515625 27.59375 7.515625 
L 36.8125 7.515625 
L 36.8125 0 
L 27.59375 0 
Q 17.1875 0 13.234375 3.875 
Q 9.28125 7.765625 9.28125 18.015625 
L 9.28125 47.703125 
L 2.6875 47.703125 
L 2.6875 54.6875 
L 9.28125 54.6875 
L 9.28125 70.21875 
z
" id="DejaVuSans-116"/>
       <path d="M 9.421875 54.6875 
L 18.40625 54.6875 
L 18.40625 0 
L 9.421875 0 
z
M 9.421875 75.984375 
L 18.40625 75.984375 
L 18.40625 64.59375 
L 9.421875 64.59375 
z
" id="DejaVuSans-105"/>
       <path d="M 2.984375 54.6875 
L 12.5 54.6875 
L 29.59375 8.796875 
L 46.6875 54.6875 
L 56.203125 54.6875 
L 35.6875 0 
L 23.484375 0 
z
" id="DejaVuSans-118"/>
       <path d="M 56.203125 29.59375 
L 56.203125 25.203125 
L 14.890625 25.203125 
Q 15.484375 15.921875 20.484375 11.0625 
Q 25.484375 6.203125 34.421875 6.203125 
Q 39.59375 6.203125 44.453125 7.46875 
Q 49.3125 8.734375 54.109375 11.28125 
L 54.109375 2.78125 
Q 49.265625 0.734375 44.1875 -0.34375 
Q 39.109375 -1.421875 33.890625 -1.421875 
Q 20.796875 -1.421875 13.15625 6.1875 
Q 5.515625 13.8125 5.515625 26.8125 
Q 5.515625 40.234375 12.765625 48.109375 
Q 20.015625 56 32.328125 56 
Q 43.359375 56 49.78125 48.890625 
Q 56.203125 41.796875 56.203125 29.59375 
z
M 47.21875 32.234375 
Q 47.125 39.59375 43.09375 43.984375 
Q 39.0625 48.390625 32.421875 48.390625 
Q 24.90625 48.390625 20.390625 44.140625 
Q 15.875 39.890625 15.1875 32.171875 
z
" id="DejaVuSans-101"/>
       <path id="DejaVuSans-32"/>
       <path d="M 48.78125 52.59375 
L 48.78125 44.1875 
Q 44.96875 46.296875 41.140625 47.34375 
Q 37.3125 48.390625 33.40625 48.390625 
Q 24.65625 48.390625 19.8125 42.84375 
Q 14.984375 37.3125 14.984375 27.296875 
Q 14.984375 17.28125 19.8125 11.734375 
Q 24.65625 6.203125 33.40625 6.203125 
Q 37.3125 6.203125 41.140625 7.25 
Q 44.96875 8.296875 48.78125 10.40625 
L 48.78125 2.09375 
Q 45.015625 0.34375 40.984375 -0.53125 
Q 36.96875 -1.421875 32.421875 -1.421875 
Q 20.0625 -1.421875 12.78125 6.34375 
Q 5.515625 14.109375 5.515625 27.296875 
Q 5.515625 40.671875 12.859375 48.328125 
Q 20.21875 56 33.015625 56 
Q 37.15625 56 41.109375 55.140625 
Q 45.0625 54.296875 48.78125 52.59375 
z
" id="DejaVuSans-99"/>
      </defs>
      <use xlink:href="#DejaVuSans-67"/>
      <use x="69.824219" xlink:href="#DejaVuSans-117"/>
      <use x="133.203125" xlink:href="#DejaVuSans-109"/>
      <use x="230.615234" xlink:href="#DejaVuSans-117"/>
      <use x="293.994141" xlink:href="#DejaVuSans-108"/>
      <use x="321.777344" xlink:href="#DejaVuSans-97"/>
      <use x="383.056641" xlink:href="#DejaVuSans-116"/>
      <use x="422.265625" xlink:href="#DejaVuSans-105"/>
      <use x="450.048828" xlink:href="#DejaVuSans-118"/>
      <use x="509.228516" xlink:href="#DejaVuSans-101"/>
      <use x="570.751953" xlink:href="#DejaVuSans-32"/>
      <use x="602.539062" xlink:href="#DejaVuSans-99"/>
      <use x="657.519531" xlink:href="#DejaVuSans-97"/>
      <use x="718.798828" xlink:href="#DejaVuSans-115"/>
      <use x="770.898438" xlink:href="#DejaVuSans-101"/>
      <use x="832.421875" xlink:href="#DejaVuSans-115"/>
     </g>
    </g>
   </g>
   <g id="line2d_27">
    <path clip-path="url(#p5839d34a68)" d="M 115.363636 605.290909 
L 141.741818 605.042501 
L 157.974545 604.699562 
L 170.149091 604.254405 
L 180.294545 603.682509 
L 188.410909 603.031237 
L 196.527273 602.139022 
L 202.614545 601.260284 
L 208.701818 600.150022 
L 214.789091 598.749209 
L 218.847273 597.618561 
L 222.905455 596.301164 
L 226.963636 594.767872 
L 231.021818 592.985598 
L 235.08 590.917014 
L 239.138182 588.520292 
L 243.196364 585.748964 
L 247.254545 582.551928 
L 251.312727 578.873674 
L 255.370909 574.654816 
L 259.429091 569.833001 
L 263.487273 564.344301 
L 267.545455 558.125179 
L 271.603636 551.115079 
L 275.661818 543.259696 
L 279.72 534.514849 
L 283.778182 524.850869 
L 287.836364 514.257211 
L 291.894545 502.746946 
L 295.952727 490.360615 
L 300.010909 477.168897 
L 304.069091 463.273518 
L 310.156364 441.405915 
L 330.447273 366.739088 
L 334.505455 352.840513 
L 338.563636 339.645017 
L 342.621818 327.254478 
L 346.68 315.73973 
L 350.738182 305.141459 
L 354.796364 295.472862 
L 358.854545 286.723502 
L 362.912727 278.863792 
L 366.970909 271.849616 
L 371.029091 265.626704 
L 375.087273 260.134526 
L 379.145455 255.309552 
L 383.203636 251.087851 
L 387.261818 247.407058 
L 391.32 244.207768 
L 395.378182 241.434453 
L 399.436364 239.035986 
L 403.494545 236.965876 
L 407.552727 235.182275 
L 411.610909 233.647829 
L 415.669091 232.329433 
L 419.727273 231.197923 
L 425.814545 229.796033 
L 431.901818 228.684912 
L 437.989091 227.80549 
L 446.105455 226.912577 
L 454.221818 226.260795 
L 464.367273 225.688449 
L 476.541818 225.24294 
L 492.774545 224.899729 
L 515.094545 224.674764 
L 553.647273 224.549595 
L 622.636364 224.516644 
L 622.636364 224.516644 
" style="fill:none;stroke:#1f77b4;stroke-linecap:square;stroke-width:1.5;"/>
   </g>
   <g id="line2d_28">
    <path clip-path="url(#p5839d34a68)" d="M 115.363636 605.290909 
L 135.654545 604.921887 
L 149.858182 604.461532 
L 162.032727 603.845225 
L 172.178182 603.09712 
L 180.294545 602.283923 
L 188.410909 601.215651 
L 194.498182 600.201016 
L 200.585455 598.958773 
L 206.672727 597.439903 
L 210.730909 596.245158 
L 214.789091 594.881681 
L 218.847273 593.327163 
L 222.905455 591.556812 
L 226.963636 589.543215 
L 231.021818 587.256256 
L 235.08 584.663076 
L 239.138182 581.728131 
L 243.196364 578.413357 
L 247.254545 574.678477 
L 251.312727 570.481492 
L 255.370909 565.779379 
L 259.429091 560.529052 
L 263.487273 554.688589 
L 267.545455 548.218761 
L 271.603636 541.084851 
L 275.661818 533.25874 
L 279.72 524.721188 
L 283.778182 515.464204 
L 287.836364 505.493364 
L 291.894545 494.82988 
L 295.952727 483.512196 
L 300.010909 471.596898 
L 306.098182 452.771655 
L 312.185455 433.096202 
L 332.476364 366.588655 
L 338.563636 347.956129 
L 342.621818 336.198112 
L 346.68 325.055058 
L 350.738182 314.578535 
L 354.796364 304.802135 
L 358.854545 295.742595 
L 362.912727 287.401551 
L 366.970909 279.767688 
L 371.029091 272.819096 
L 375.087273 266.525625 
L 379.145455 260.851123 
L 383.203636 255.755454 
L 387.261818 251.196236 
L 391.32 247.130289 
L 395.378182 243.514789 
L 399.436364 240.30815 
L 403.494545 237.470659 
L 407.552727 234.964921 
L 411.610909 232.756118 
L 415.669091 230.812142 
L 419.727273 229.103622 
L 423.785455 227.60388 
L 427.843636 226.288816 
L 433.930909 224.615751 
L 440.018182 223.246366 
L 446.105455 222.127196 
L 452.192727 221.213626 
L 460.309091 220.252287 
L 468.425455 219.520852 
L 478.570909 218.848241 
L 490.745455 218.294326 
L 504.949091 217.880692 
L 523.210909 217.572992 
L 549.589091 217.361966 
L 596.258182 217.247071 
L 622.636364 217.229718 
L 622.636364 217.229718 
" style="fill:none;stroke:#ff7f0e;stroke-linecap:square;stroke-width:1.5;"/>
   </g>
   <g id="line2d_29">
    <path clip-path="url(#p5839d34a68)" d="M 115.363636 605.290909 
L 131.596364 604.752015 
L 143.770909 604.154682 
L 153.916364 603.47769 
L 164.061818 602.582011 
L 172.178182 601.662152 
L 180.294545 600.513611 
L 186.381818 599.469422 
L 192.469091 598.238158 
L 198.556364 596.787716 
L 204.643636 595.081032 
L 210.730909 593.075541 
L 214.789091 591.548806 
L 218.847273 589.851822 
L 222.905455 587.967276 
L 226.963636 585.876498 
L 231.021818 583.559453 
L 235.08 580.994755 
L 239.138182 578.159726 
L 243.196364 575.030493 
L 247.254545 571.582137 
L 251.312727 567.788906 
L 255.370909 563.6245 
L 259.429091 559.062427 
L 263.487273 554.076463 
L 267.545455 548.641182 
L 271.603636 542.732601 
L 275.661818 536.328896 
L 279.72 529.411215 
L 283.778182 521.964542 
L 287.836364 513.978605 
L 291.894545 505.448786 
L 295.952727 496.376996 
L 300.010909 486.772456 
L 304.069091 476.652341 
L 308.127273 466.042228 
L 312.185455 454.976288 
L 318.272727 437.618295 
L 324.36 419.510023 
L 332.476364 394.568507 
L 350.738182 337.928457 
L 356.825455 319.751135 
L 362.912727 302.281922 
L 369 285.686917 
L 373.058182 275.173561 
L 377.116364 265.133608 
L 381.174545 255.586959 
L 385.232727 246.546188 
L 389.290909 238.01711 
L 393.349091 229.999471 
L 397.407273 222.4877 
L 401.465455 215.471683 
L 405.523636 208.937538 
L 409.581818 202.86836 
L 413.64 197.24491 
L 417.698182 192.046249 
L 421.756364 187.250293 
L 425.814545 182.834302 
L 429.872727 178.775296 
L 433.930909 175.050398 
L 437.989091 171.637115 
L 442.047273 168.513564 
L 446.105455 165.658639 
L 450.163636 163.052139 
L 454.221818 160.674857 
L 458.28 158.50863 
L 462.338182 156.536375 
L 466.396364 154.742086 
L 472.483636 152.351965 
L 478.570909 150.282905 
L 484.658182 148.49391 
L 490.745455 146.948659 
L 496.832727 145.615126 
L 504.949091 144.118313 
L 513.065455 142.891129 
L 521.181818 141.885946 
L 531.327273 140.882101 
L 541.472727 140.101353 
L 553.647273 139.390545 
L 567.850909 138.792708 
L 586.112727 138.278475 
L 608.432727 137.898549 
L 622.636364 137.746711 
L 622.636364 137.746711 
" style="fill:none;stroke:#2ca02c;stroke-linecap:square;stroke-width:1.5;"/>
   </g>
   <g id="line2d_30">
    <path clip-path="url(#p5839d34a68)" d="M 115.363636 605.290909 
L 125.509091 604.858506 
L 135.654545 604.179125 
L 143.770909 603.421502 
L 151.887273 602.438107 
L 160.003636 601.19075 
L 166.090909 600.055791 
L 172.178182 598.726879 
L 178.265455 597.181002 
L 184.352727 595.392901 
L 190.44 593.334992 
L 196.527273 590.97733 
L 202.614545 588.287635 
L 206.672727 586.293084 
L 210.730909 584.124921 
L 214.789091 581.772035 
L 218.847273 579.222999 
L 222.905455 576.466132 
L 226.963636 573.489576 
L 231.021818 570.281391 
L 235.08 566.829665 
L 239.138182 563.122642 
L 243.196364 559.148869 
L 247.254545 554.897362 
L 251.312727 550.357785 
L 255.370909 545.520649 
L 259.429091 540.377529 
L 263.487273 534.92128 
L 267.545455 529.146277 
L 271.603636 523.048639 
L 275.661818 516.626465 
L 279.72 509.880052 
L 283.778182 502.812094 
L 287.836364 495.427856 
L 293.923636 483.776704 
L 300.010909 471.471401 
L 306.098182 458.565266 
L 312.185455 445.125693 
L 320.301818 426.517067 
L 328.418182 407.324758 
L 346.68 363.296063 
L 356.825455 339.164981 
L 364.941818 320.429213 
L 371.029091 306.841668 
L 377.116364 293.730664 
L 383.203636 281.153313 
L 389.290909 269.153917 
L 395.378182 257.7643 
L 401.465455 247.004542 
L 407.552727 236.884042 
L 411.610909 230.492514 
L 415.669091 224.383188 
L 419.727273 218.552586 
L 423.785455 212.995997 
L 427.843636 207.707651 
L 431.901818 202.680883 
L 435.96 197.908291 
L 440.018182 193.381882 
L 444.076364 189.093203 
L 448.134545 185.033462 
L 452.192727 181.193634 
L 456.250909 177.564563 
L 460.309091 174.137039 
L 466.396364 169.353573 
L 472.483636 164.97233 
L 478.570909 160.963507 
L 484.658182 157.298389 
L 490.745455 153.949556 
L 496.832727 150.891025 
L 502.92 148.098334 
L 509.007273 145.548579 
L 515.094545 143.220422 
L 521.181818 141.094065 
L 529.298182 138.541412 
L 537.414545 136.27571 
L 545.530909 134.261774 
L 553.647273 132.468338 
L 563.792727 130.494767 
L 573.938182 128.775702 
L 584.083636 127.27108 
L 596.258182 125.701071 
L 608.432727 124.342119 
L 622.636364 122.970453 
L 622.636364 122.970453 
" style="fill:none;stroke:#d62728;stroke-linecap:square;stroke-width:1.5;"/>
   </g>
   <g id="line2d_31">
    <path clip-path="url(#p5839d34a68)" d="M 115.363636 605.290909 
L 131.596364 605.163469 
L 149.858182 604.832823 
L 164.061818 604.372719 
L 176.236364 603.740061 
L 186.381818 602.954782 
L 194.498182 602.085726 
L 200.585455 601.247853 
L 206.672727 600.208618 
L 212.76 598.921373 
L 218.847273 597.329601 
L 222.905455 596.066187 
L 226.963636 594.61418 
L 231.021818 592.947505 
L 235.08 591.037148 
L 239.138182 588.851039 
L 243.196364 586.354011 
L 247.254545 583.50785 
L 251.312727 580.271491 
L 255.370909 576.601371 
L 259.429091 572.452006 
L 263.487273 567.776812 
L 267.545455 562.529211 
L 271.603636 556.664039 
L 275.661818 550.139263 
L 279.72 542.917973 
L 283.778182 534.970584 
L 287.836364 526.277155 
L 291.894545 516.829657 
L 295.952727 506.634021 
L 300.010909 495.711762 
L 304.069091 484.100964 
L 308.127273 471.856473 
L 312.185455 459.049175 
L 318.272727 438.97284 
L 326.389091 411.121115 
L 342.621818 354.991581 
L 348.709091 334.853236 
L 354.796364 315.643774 
L 358.854545 303.450772 
L 362.912727 291.798122 
L 366.970909 280.715004 
L 371.029091 270.219703 
L 375.087273 260.320802 
L 379.145455 251.018466 
L 383.203636 242.305752 
L 387.261818 234.169878 
L 391.32 226.593414 
L 395.378182 219.555358 
L 399.436364 213.032092 
L 403.494545 206.998211 
L 407.552727 201.427217 
L 411.610909 196.292112 
L 415.669091 191.565866 
L 419.727273 187.2218 
L 423.785455 183.233881 
L 427.843636 179.576946 
L 431.901818 176.226865 
L 435.96 173.160652 
L 440.018182 170.356536 
L 444.076364 167.794001 
L 448.134545 165.453791 
L 452.192727 163.317903 
L 456.250909 161.369559 
L 462.338182 158.76489 
L 468.425455 156.499501 
L 474.512727 154.530861 
L 480.6 152.821341 
L 486.687273 151.337767 
L 492.774545 150.050972 
L 500.890909 148.597598 
L 509.007273 147.396971 
L 517.123636 146.405707 
L 527.269091 145.406612 
L 537.414545 144.621246 
L 549.589091 143.897654 
L 563.792727 143.280232 
L 582.054545 142.739555 
L 604.374545 142.330917 
L 622.636364 142.125865 
L 622.636364 142.125865 
" style="fill:none;stroke:#9467bd;stroke-linecap:square;stroke-width:1.5;"/>
   </g>
   <g id="line2d_32">
    <path clip-path="url(#p5839d34a68)" d="M 115.363636 605.290909 
L 125.509091 605.15491 
L 133.625455 604.849275 
L 141.741818 604.351345 
L 149.858182 603.631906 
L 157.974545 602.652536 
L 164.061818 601.719595 
L 170.149091 600.591445 
L 176.236364 599.242461 
L 182.323636 597.644107 
L 188.410909 595.76483 
L 194.498182 593.569989 
L 198.556364 591.912941 
L 202.614545 590.087014 
L 206.672727 588.079718 
L 210.730909 585.878042 
L 214.789091 583.468508 
L 218.847273 580.837247 
L 222.905455 577.970093 
L 226.963636 574.852705 
L 231.021818 571.470703 
L 235.08 567.809842 
L 239.138182 563.856195 
L 243.196364 559.596382 
L 247.254545 555.017802 
L 251.312727 550.108907 
L 255.370909 544.859477 
L 259.429091 539.260921 
L 263.487273 533.306581 
L 267.545455 526.992025 
L 271.603636 520.31535 
L 275.661818 513.277439 
L 279.72 505.882205 
L 283.778182 498.136782 
L 287.836364 490.051662 
L 293.923636 477.318448 
L 300.010909 463.914449 
L 306.098182 449.917623 
L 312.185455 435.420851 
L 320.301818 415.497553 
L 332.476364 384.901594 
L 346.68 349.278396 
L 354.796364 329.483064 
L 360.883636 315.08433 
L 366.970909 301.160451 
L 373.058182 287.77842 
L 379.145455 274.991083 
L 385.232727 262.837444 
L 391.32 251.343446 
L 397.407273 240.523086 
L 401.465455 233.685828 
L 405.523636 227.148355 
L 409.581818 220.907753 
L 413.64 214.959697 
L 417.698182 209.298644 
L 421.756364 203.918011 
L 425.814545 198.810351 
L 429.872727 193.967513 
L 433.930909 189.380787 
L 437.989091 185.041038 
L 442.047273 180.938831 
L 446.105455 177.064533 
L 450.163636 173.408412 
L 454.221818 169.96072 
L 458.28 166.71176 
L 464.367273 162.190034 
L 470.454545 158.062357 
L 476.541818 154.298287 
L 482.629091 150.868749 
L 488.716364 147.746183 
L 494.803636 144.904637 
L 500.890909 142.319813 
L 506.978182 139.969072 
L 513.065455 137.831408 
L 519.152727 135.887408 
L 527.269091 133.565961 
L 535.385455 131.518772 
L 543.501818 129.711697 
L 551.618182 128.114498 
L 561.763636 126.372779 
L 571.909091 124.87231 
L 584.083636 123.336548 
L 596.258182 122.037849 
L 610.461818 120.762536 
L 622.636364 119.833639 
L 622.636364 119.833639 
" style="fill:none;stroke:#8c564b;stroke-linecap:square;stroke-width:1.5;"/>
   </g>
   <g id="line2d_33">
    <path clip-path="url(#p5839d34a68)" d="M 115.363636 605.290909 
L 135.654545 605.160662 
L 155.945455 604.822889 
L 170.149091 604.369926 
L 180.294545 603.857516 
L 188.410909 603.278134 
L 196.527273 602.489493 
L 202.614545 601.717069 
L 208.701818 600.745822 
L 214.789091 599.526267 
L 220.876364 597.997577 
L 224.934545 596.770677 
L 228.992727 595.347995 
L 233.050909 593.700484 
L 237.109091 591.795542 
L 241.167273 589.596833 
L 245.225455 587.064202 
L 249.283636 584.153712 
L 253.341818 580.817855 
L 257.4 577.005991 
L 261.458182 572.665072 
L 265.516364 567.740701 
L 269.574545 562.178575 
L 273.632727 555.926337 
L 277.690909 548.935831 
L 281.749091 541.165708 
L 285.807273 532.584281 
L 289.865455 523.172452 
L 293.923636 512.926492 
L 297.981818 501.860409 
L 302.04 490.007613 
L 306.098182 477.421635 
L 310.156364 464.175712 
L 316.243636 443.273473 
L 322.330909 421.464279 
L 342.621818 347.591105 
L 348.709091 326.588794 
L 352.767273 313.175776 
L 356.825455 300.307525 
L 360.883636 288.03085 
L 364.941818 276.378656 
L 369 265.371136 
L 373.058182 255.017207 
L 377.116364 245.31607 
L 381.174545 236.258783 
L 385.232727 227.829784 
L 389.290909 220.008303 
L 393.349091 212.76964 
L 397.407273 206.086279 
L 401.465455 199.92885 
L 405.523636 194.26694 
L 409.581818 189.069754 
L 413.64 184.306652 
L 417.698182 179.947567 
L 421.756364 175.963326 
L 425.814545 172.325892 
L 429.872727 169.008523 
L 433.930909 165.985887 
L 437.989091 163.234122 
L 442.047273 160.730858 
L 446.105455 158.455216 
L 450.163636 156.387776 
L 454.221818 154.510537 
L 458.28 152.806858 
L 464.367273 150.543532 
L 470.454545 148.58978 
L 476.541818 146.904558 
L 482.629091 145.451919 
L 488.716364 144.200473 
L 496.832727 142.798109 
L 504.949091 141.650107 
L 513.065455 140.710884 
L 523.210909 139.773822 
L 535.385455 138.920708 
L 547.56 138.290703 
L 563.792727 137.69954 
L 582.054545 137.266481 
L 606.403636 136.925268 
L 622.636364 136.789532 
L 622.636364 136.789532 
" style="fill:none;stroke:#e377c2;stroke-linecap:square;stroke-width:1.5;"/>
   </g>
   <g id="line2d_34">
    <path clip-path="url(#p5839d34a68)" d="M 115.363636 605.290909 
L 125.509091 605.182828 
L 135.654545 604.862799 
L 145.8 604.298457 
L 153.916364 603.632113 
L 162.032727 602.733374 
L 168.12 601.879261 
L 174.207273 600.845932 
L 180.294545 599.607851 
L 186.381818 598.13633 
L 192.469091 596.399306 
L 198.556364 594.361165 
L 202.614545 592.815876 
L 206.672727 591.106833 
L 210.730909 589.220776 
L 214.789091 587.143757 
L 218.847273 584.861187 
L 222.905455 582.357897 
L 226.963636 579.618231 
L 231.021818 576.626154 
L 235.08 573.3654 
L 239.138182 569.819641 
L 243.196364 565.972698 
L 247.254545 561.808779 
L 251.312727 557.312751 
L 255.370909 552.470449 
L 259.429091 547.269007 
L 263.487273 541.697216 
L 267.545455 535.745899 
L 271.603636 529.408284 
L 275.661818 522.680381 
L 279.72 515.561331 
L 283.778182 508.053733 
L 287.836364 500.163905 
L 291.894545 491.902096 
L 295.952727 483.282608 
L 302.04 469.724065 
L 308.127273 455.481947 
L 314.214545 440.653918 
L 322.330909 420.170409 
L 332.476364 393.850778 
L 350.738182 346.377604 
L 358.854545 325.984481 
L 364.941818 311.205415 
L 371.029091 296.966309 
L 377.116364 283.337327 
L 383.203636 270.371973 
L 389.290909 258.107722 
L 393.349091 250.332792 
L 397.407273 242.883133 
L 401.465455 235.759684 
L 405.523636 228.961218 
L 409.581818 222.48459 
L 413.64 216.324977 
L 417.698182 210.476113 
L 421.756364 204.930516 
L 425.814545 199.679695 
L 429.872727 194.714349 
L 433.930909 190.024543 
L 437.989091 185.599874 
L 442.047273 181.429614 
L 446.105455 177.502836 
L 450.163636 173.808532 
L 454.221818 170.335702 
L 458.28 167.073444 
L 462.338182 164.01102 
L 468.425455 159.769141 
L 474.512727 155.918975 
L 480.6 152.427828 
L 486.687273 149.264809 
L 492.774545 146.400932 
L 498.861818 143.809161 
L 504.949091 141.464411 
L 511.036364 139.343509 
L 517.123636 137.425134 
L 525.24 135.148792 
L 533.356364 133.156181 
L 541.472727 131.410418 
L 549.589091 129.879054 
L 559.734545 128.223341 
L 569.88 126.810587 
L 582.054545 125.379704 
L 594.229091 124.183419 
L 608.432727 123.022713 
L 622.636364 122.059788 
L 622.636364 122.059788 
" style="fill:none;stroke:#7f7f7f;stroke-linecap:square;stroke-width:1.5;"/>
   </g>
   <g id="line2d_35">
    <path clip-path="url(#p5839d34a68)" d="M 115.363636 605.290909 
L 131.596364 605.190259 
L 145.8 604.881723 
L 155.945455 604.472182 
L 166.090909 603.835892 
L 174.207273 603.10586 
L 182.323636 602.116076 
L 188.410909 601.158468 
L 194.498182 599.97351 
L 200.585455 598.514981 
L 204.643636 597.36424 
L 208.701818 596.049851 
L 212.76 594.551879 
L 216.818182 592.848585 
L 220.876364 590.916449 
L 224.934545 588.73024 
L 228.992727 586.263174 
L 233.050909 583.487152 
L 237.109091 580.373114 
L 241.167273 576.891502 
L 245.225455 573.012859 
L 249.283636 568.708546 
L 253.341818 563.951596 
L 257.4 558.717649 
L 261.458182 552.985976 
L 265.516364 546.740519 
L 269.574545 539.970895 
L 273.632727 532.673304 
L 277.690909 524.851274 
L 281.749091 516.516161 
L 285.807273 507.687375 
L 289.865455 498.392275 
L 293.923636 488.66575 
L 300.010909 473.359803 
L 306.098182 457.341975 
L 314.214545 435.195882 
L 342.621818 356.669192 
L 348.709091 340.696379 
L 354.796364 325.287978 
L 360.883636 310.517857 
L 366.970909 296.43871 
L 373.058182 283.084471 
L 379.145455 270.472954 
L 383.203636 262.480531 
L 387.261818 254.818869 
L 391.32 247.48462 
L 395.378182 240.472873 
L 399.436364 233.777419 
L 403.494545 227.390978 
L 407.552727 221.305415 
L 411.610909 215.511922 
L 415.669091 210.001182 
L 419.727273 204.763512 
L 423.785455 199.788983 
L 427.843636 195.06753 
L 431.901818 190.589041 
L 435.96 186.34343 
L 440.018182 182.320704 
L 444.076364 178.511017 
L 450.163636 173.174863 
L 456.250909 168.264733 
L 462.338182 163.750316 
L 468.425455 159.602754 
L 474.512727 155.794718 
L 480.6 152.300446 
L 486.687273 149.09575 
L 492.774545 146.157991 
L 498.861818 143.466043 
L 504.949091 141.000243 
L 511.036364 138.742326 
L 517.123636 136.675361 
L 525.24 134.189532 
L 533.356364 131.981566 
L 541.472727 130.021029 
L 549.589091 128.280641 
L 557.705455 126.735994 
L 567.850909 125.047446 
L 577.996364 123.593329 
L 588.141818 122.341164 
L 600.316364 121.065874 
L 612.490909 119.999802 
L 622.636364 119.24606 
L 622.636364 119.24606 
" style="fill:none;stroke:#bcbd22;stroke-linecap:square;stroke-width:1.5;"/>
   </g>
   <g id="line2d_36">
    <path clip-path="url(#p5839d34a68)" d="M 115.363636 605.290909 
L 137.683636 605.00038 
L 147.829091 604.769665 
L 160.003636 604.667126 
L 172.178182 604.556041 
L 186.381818 604.248422 
L 190.44 604.145882 
L 200.585455 603.616093 
L 206.672727 603.154664 
L 208.701818 602.75305 
L 212.76 602.137812 
L 214.789091 601.736197 
L 216.818182 601.539663 
L 220.876364 600.65953 
L 222.905455 600.035746 
L 226.963636 599.172704 
L 228.992727 598.574555 
L 235.08 597.514977 
L 237.109091 596.882649 
L 239.138182 596.463945 
L 243.196364 595.267648 
L 245.225455 594.24225 
L 247.254545 593.678282 
L 249.283636 592.772514 
L 251.312727 591.559127 
L 253.341818 589.106717 
L 257.4 585.78272 
L 259.429091 583.79174 
L 261.458182 580.493378 
L 263.487273 577.639354 
L 265.516364 573.819748 
L 267.545455 567.599003 
L 269.574545 562.275481 
L 271.603636 554.22611 
L 273.632727 549.133302 
L 275.661818 536.94816 
L 277.690909 527.454688 
L 281.749091 509.911844 
L 283.778182 502.246997 
L 285.807273 496.9662 
L 287.836364 489.010824 
L 289.865455 482.183385 
L 291.894545 477.671635 
L 293.923636 471.775599 
L 295.952727 467.26385 
L 297.981818 459.299929 
L 300.010909 455.480323 
L 302.04 449.866271 
L 304.069091 444.969998 
L 306.098182 439.56957 
L 308.127273 432.836126 
L 314.214545 413.507382 
L 316.243636 406.02198 
L 318.272727 401.869119 
L 320.301818 394.614432 
L 322.330909 388.84657 
L 326.389091 375.644576 
L 328.418182 371.671161 
L 330.447273 365.843484 
L 332.476364 363.237266 
L 334.505455 359.38348 
L 336.534545 354.512841 
L 338.563636 350.68469 
L 342.621818 339.952196 
L 344.650909 335.269547 
L 346.68 332.330074 
L 348.709091 329.057346 
L 350.738182 324.502872 
L 352.767273 321.315595 
L 354.796364 316.094612 
L 358.854545 307.344553 
L 360.883636 303.858201 
L 366.970909 289.929884 
L 369 287.699644 
L 371.029091 284.760171 
L 375.087273 278.189081 
L 377.116364 276.326276 
L 379.145455 272.47249 
L 381.174545 268.866508 
L 383.203636 264.910183 
L 385.232727 261.945075 
L 387.261818 258.467268 
L 389.290909 256.638642 
L 391.32 255.34835 
L 395.378182 251.041681 
L 397.407273 249.828293 
L 399.436364 247.965488 
L 401.465455 245.726703 
L 403.494545 243.863897 
L 405.523636 242.847045 
L 407.552727 241.214954 
L 409.581818 240.249371 
L 411.610909 238.37802 
L 413.64 235.891431 
L 417.698182 232.345265 
L 419.727273 230.2432 
L 421.756364 228.406029 
L 423.785455 226.799573 
L 425.814545 225.355471 
L 427.843636 223.77465 
L 429.872727 222.612533 
L 431.901818 221.048801 
L 435.96 218.357133 
L 437.989091 217.28901 
L 440.018182 215.656919 
L 444.076364 212.691811 
L 446.105455 209.940328 
L 448.134545 206.97522 
L 452.192727 202.73691 
L 454.221818 199.942701 
L 456.250909 198.216615 
L 458.28 196.020555 
L 460.309091 194.969523 
L 462.338182 191.560076 
L 464.367273 188.911132 
L 466.396364 185.886209 
L 468.425455 183.51925 
L 470.454545 179.135675 
L 474.512727 171.017944 
L 476.541818 167.950297 
L 478.570909 165.096273 
L 480.6 162.720769 
L 482.629091 159.336957 
L 486.687273 154.03907 
L 488.716364 152.107904 
L 490.745455 149.587135 
L 492.774545 141.828293 
L 494.803636 139.256254 
L 496.832727 137.188369 
L 498.861818 136.060432 
L 502.92 132.958604 
L 504.949091 132.437361 
L 506.978182 132.078471 
L 509.007273 131.206883 
L 517.123636 128.293045 
L 521.181818 126.643864 
L 523.210909 126.062806 
L 525.24 125.063043 
L 527.269091 124.635794 
L 529.298182 123.892381 
L 531.327273 123.456587 
L 533.356364 123.191692 
L 535.385455 122.678994 
L 537.414545 122.02103 
L 539.443636 121.217802 
L 545.530909 119.970235 
L 547.56 119.628436 
L 549.589091 119.560076 
L 553.647273 118.808118 
L 561.763636 117.586186 
L 567.850909 115.67211 
L 577.996364 113.971659 
L 600.316364 112.382293 
L 604.374545 112.023404 
L 608.432727 111.664515 
L 622.636364 111.109091 
L 622.636364 111.109091 
" style="fill:none;stroke:#17becf;stroke-dasharray:14.8,6.4;stroke-dashoffset:0;stroke-width:4;"/>
   </g>
   <g id="patch_3">
    <path d="M 90 630 
L 90 86.4 
" style="fill:none;stroke:#000000;stroke-linecap:square;stroke-linejoin:miter;stroke-width:0.8;"/>
   </g>
   <g id="patch_4">
    <path d="M 648 630 
L 648 86.4 
" style="fill:none;stroke:#000000;stroke-linecap:square;stroke-linejoin:miter;stroke-width:0.8;"/>
   </g>
   <g id="patch_5">
    <path d="M 90 630 
L 648 630 
" style="fill:none;stroke:#000000;stroke-linecap:square;stroke-linejoin:miter;stroke-width:0.8;"/>
   </g>
   <g id="patch_6">
    <path d="M 90 86.4 
L 648 86.4 
" style="fill:none;stroke:#000000;stroke-linecap:square;stroke-linejoin:miter;stroke-width:0.8;"/>
   </g>
   <g id="text_16">
    <!-- Singapore relative err =  -->
    <g transform="translate(294.927188 80.4)scale(0.12 -0.12)">
     <defs>
      <path d="M 53.515625 70.515625 
L 53.515625 60.890625 
Q 47.90625 63.578125 42.921875 64.890625 
Q 37.9375 66.21875 33.296875 66.21875 
Q 25.25 66.21875 20.875 63.09375 
Q 16.5 59.96875 16.5 54.203125 
Q 16.5 49.359375 19.40625 46.890625 
Q 22.3125 44.4375 30.421875 42.921875 
L 36.375 41.703125 
Q 47.40625 39.59375 52.65625 34.296875 
Q 57.90625 29 57.90625 20.125 
Q 57.90625 9.515625 50.796875 4.046875 
Q 43.703125 -1.421875 29.984375 -1.421875 
Q 24.8125 -1.421875 18.96875 -0.25 
Q 13.140625 0.921875 6.890625 3.21875 
L 6.890625 13.375 
Q 12.890625 10.015625 18.65625 8.296875 
Q 24.421875 6.59375 29.984375 6.59375 
Q 38.421875 6.59375 43.015625 9.90625 
Q 47.609375 13.234375 47.609375 19.390625 
Q 47.609375 24.75 44.3125 27.78125 
Q 41.015625 30.8125 33.5 32.328125 
L 27.484375 33.5 
Q 16.453125 35.6875 11.515625 40.375 
Q 6.59375 45.0625 6.59375 53.421875 
Q 6.59375 63.09375 13.40625 68.65625 
Q 20.21875 74.21875 32.171875 74.21875 
Q 37.3125 74.21875 42.625 73.28125 
Q 47.953125 72.359375 53.515625 70.515625 
z
" id="DejaVuSans-83"/>
      <path d="M 54.890625 33.015625 
L 54.890625 0 
L 45.90625 0 
L 45.90625 32.71875 
Q 45.90625 40.484375 42.875 44.328125 
Q 39.84375 48.1875 33.796875 48.1875 
Q 26.515625 48.1875 22.3125 43.546875 
Q 18.109375 38.921875 18.109375 30.90625 
L 18.109375 0 
L 9.078125 0 
L 9.078125 54.6875 
L 18.109375 54.6875 
L 18.109375 46.1875 
Q 21.34375 51.125 25.703125 53.5625 
Q 30.078125 56 35.796875 56 
Q 45.21875 56 50.046875 50.171875 
Q 54.890625 44.34375 54.890625 33.015625 
z
" id="DejaVuSans-110"/>
      <path d="M 45.40625 27.984375 
Q 45.40625 37.75 41.375 43.109375 
Q 37.359375 48.484375 30.078125 48.484375 
Q 22.859375 48.484375 18.828125 43.109375 
Q 14.796875 37.75 14.796875 27.984375 
Q 14.796875 18.265625 18.828125 12.890625 
Q 22.859375 7.515625 30.078125 7.515625 
Q 37.359375 7.515625 41.375 12.890625 
Q 45.40625 18.265625 45.40625 27.984375 
z
M 54.390625 6.78125 
Q 54.390625 -7.171875 48.1875 -13.984375 
Q 42 -20.796875 29.203125 -20.796875 
Q 24.46875 -20.796875 20.265625 -20.09375 
Q 16.0625 -19.390625 12.109375 -17.921875 
L 12.109375 -9.1875 
Q 16.0625 -11.328125 19.921875 -12.34375 
Q 23.78125 -13.375 27.78125 -13.375 
Q 36.625 -13.375 41.015625 -8.765625 
Q 45.40625 -4.15625 45.40625 5.171875 
L 45.40625 9.625 
Q 42.625 4.78125 38.28125 2.390625 
Q 33.9375 0 27.875 0 
Q 17.828125 0 11.671875 7.65625 
Q 5.515625 15.328125 5.515625 27.984375 
Q 5.515625 40.671875 11.671875 48.328125 
Q 17.828125 56 27.875 56 
Q 33.9375 56 38.28125 53.609375 
Q 42.625 51.21875 45.40625 46.390625 
L 45.40625 54.6875 
L 54.390625 54.6875 
z
" id="DejaVuSans-103"/>
      <path d="M 18.109375 8.203125 
L 18.109375 -20.796875 
L 9.078125 -20.796875 
L 9.078125 54.6875 
L 18.109375 54.6875 
L 18.109375 46.390625 
Q 20.953125 51.265625 25.265625 53.625 
Q 29.59375 56 35.59375 56 
Q 45.5625 56 51.78125 48.09375 
Q 58.015625 40.1875 58.015625 27.296875 
Q 58.015625 14.40625 51.78125 6.484375 
Q 45.5625 -1.421875 35.59375 -1.421875 
Q 29.59375 -1.421875 25.265625 0.953125 
Q 20.953125 3.328125 18.109375 8.203125 
z
M 48.6875 27.296875 
Q 48.6875 37.203125 44.609375 42.84375 
Q 40.53125 48.484375 33.40625 48.484375 
Q 26.265625 48.484375 22.1875 42.84375 
Q 18.109375 37.203125 18.109375 27.296875 
Q 18.109375 17.390625 22.1875 11.75 
Q 26.265625 6.109375 33.40625 6.109375 
Q 40.53125 6.109375 44.609375 11.75 
Q 48.6875 17.390625 48.6875 27.296875 
z
" id="DejaVuSans-112"/>
      <path d="M 30.609375 48.390625 
Q 23.390625 48.390625 19.1875 42.75 
Q 14.984375 37.109375 14.984375 27.296875 
Q 14.984375 17.484375 19.15625 11.84375 
Q 23.34375 6.203125 30.609375 6.203125 
Q 37.796875 6.203125 41.984375 11.859375 
Q 46.1875 17.53125 46.1875 27.296875 
Q 46.1875 37.015625 41.984375 42.703125 
Q 37.796875 48.390625 30.609375 48.390625 
z
M 30.609375 56 
Q 42.328125 56 49.015625 48.375 
Q 55.71875 40.765625 55.71875 27.296875 
Q 55.71875 13.875 49.015625 6.21875 
Q 42.328125 -1.421875 30.609375 -1.421875 
Q 18.84375 -1.421875 12.171875 6.21875 
Q 5.515625 13.875 5.515625 27.296875 
Q 5.515625 40.765625 12.171875 48.375 
Q 18.84375 56 30.609375 56 
z
" id="DejaVuSans-111"/>
      <path d="M 41.109375 46.296875 
Q 39.59375 47.171875 37.8125 47.578125 
Q 36.03125 48 33.890625 48 
Q 26.265625 48 22.1875 43.046875 
Q 18.109375 38.09375 18.109375 28.8125 
L 18.109375 0 
L 9.078125 0 
L 9.078125 54.6875 
L 18.109375 54.6875 
L 18.109375 46.1875 
Q 20.953125 51.171875 25.484375 53.578125 
Q 30.03125 56 36.53125 56 
Q 37.453125 56 38.578125 55.875 
Q 39.703125 55.765625 41.0625 55.515625 
z
" id="DejaVuSans-114"/>
      <path d="M 10.59375 45.40625 
L 73.1875 45.40625 
L 73.1875 37.203125 
L 10.59375 37.203125 
z
M 10.59375 25.484375 
L 73.1875 25.484375 
L 73.1875 17.1875 
L 10.59375 17.1875 
z
" id="DejaVuSans-61"/>
     </defs>
     <use xlink:href="#DejaVuSans-83"/>
     <use x="63.476562" xlink:href="#DejaVuSans-105"/>
     <use x="91.259766" xlink:href="#DejaVuSans-110"/>
     <use x="154.638672" xlink:href="#DejaVuSans-103"/>
     <use x="218.115234" xlink:href="#DejaVuSans-97"/>
     <use x="279.394531" xlink:href="#DejaVuSans-112"/>
     <use x="342.871094" xlink:href="#DejaVuSans-111"/>
     <use x="404.052734" xlink:href="#DejaVuSans-114"/>
     <use x="442.916016" xlink:href="#DejaVuSans-101"/>
     <use x="504.439453" xlink:href="#DejaVuSans-32"/>
     <use x="536.226562" xlink:href="#DejaVuSans-114"/>
     <use x="575.089844" xlink:href="#DejaVuSans-101"/>
     <use x="636.613281" xlink:href="#DejaVuSans-108"/>
     <use x="664.396484" xlink:href="#DejaVuSans-97"/>
     <use x="725.675781" xlink:href="#DejaVuSans-116"/>
     <use x="764.884766" xlink:href="#DejaVuSans-105"/>
     <use x="792.667969" xlink:href="#DejaVuSans-118"/>
     <use x="851.847656" xlink:href="#DejaVuSans-101"/>
     <use x="913.371094" xlink:href="#DejaVuSans-32"/>
     <use x="945.158203" xlink:href="#DejaVuSans-101"/>
     <use x="1006.681641" xlink:href="#DejaVuSans-114"/>
     <use x="1046.044922" xlink:href="#DejaVuSans-114"/>
     <use x="1087.158203" xlink:href="#DejaVuSans-32"/>
     <use x="1118.945312" xlink:href="#DejaVuSans-61"/>
     <use x="1202.734375" xlink:href="#DejaVuSans-32"/>
    </g>
   </g>
   <g id="legend_1">
    <g id="patch_7">
     <path d="M 97 226.503125 
L 185.6 226.503125 
Q 187.6 226.503125 187.6 224.503125 
L 187.6 93.4 
Q 187.6 91.4 185.6 91.4 
L 97 91.4 
Q 95 91.4 95 93.4 
L 95 224.503125 
Q 95 226.503125 97 226.503125 
z
" style="fill:#ffffff;opacity:0.8;stroke:#cccccc;stroke-linejoin:miter;"/>
    </g>
    <g id="line2d_37">
     <path d="M 99 99.498438 
L 119 99.498438 
" style="fill:none;stroke:#1f77b4;stroke-linecap:square;stroke-width:1.5;"/>
    </g>
    <g id="line2d_38"/>
    <g id="text_17">
     <!-- SI -->
     <g transform="translate(127 102.998438)scale(0.1 -0.1)">
      <defs>
       <path d="M 9.8125 72.90625 
L 19.671875 72.90625 
L 19.671875 0 
L 9.8125 0 
z
" id="DejaVuSans-73"/>
      </defs>
      <use xlink:href="#DejaVuSans-83"/>
      <use x="63.476562" xlink:href="#DejaVuSans-73"/>
     </g>
    </g>
    <g id="line2d_39">
     <path d="M 99 114.176563 
L 119 114.176563 
" style="fill:none;stroke:#ff7f0e;stroke-linecap:square;stroke-width:1.5;"/>
    </g>
    <g id="line2d_40"/>
    <g id="text_18">
     <!-- BD -->
     <g transform="translate(127 117.676563)scale(0.1 -0.1)">
      <defs>
       <path d="M 19.671875 34.8125 
L 19.671875 8.109375 
L 35.5 8.109375 
Q 43.453125 8.109375 47.28125 11.40625 
Q 51.125 14.703125 51.125 21.484375 
Q 51.125 28.328125 47.28125 31.5625 
Q 43.453125 34.8125 35.5 34.8125 
z
M 19.671875 64.796875 
L 19.671875 42.828125 
L 34.28125 42.828125 
Q 41.5 42.828125 45.03125 45.53125 
Q 48.578125 48.25 48.578125 53.8125 
Q 48.578125 59.328125 45.03125 62.0625 
Q 41.5 64.796875 34.28125 64.796875 
z
M 9.8125 72.90625 
L 35.015625 72.90625 
Q 46.296875 72.90625 52.390625 68.21875 
Q 58.5 63.53125 58.5 54.890625 
Q 58.5 48.1875 55.375 44.234375 
Q 52.25 40.28125 46.1875 39.3125 
Q 53.46875 37.75 57.5 32.78125 
Q 61.53125 27.828125 61.53125 20.40625 
Q 61.53125 10.640625 54.890625 5.3125 
Q 48.25 0 35.984375 0 
L 9.8125 0 
z
" id="DejaVuSans-66"/>
      </defs>
      <use xlink:href="#DejaVuSans-66"/>
      <use x="68.603516" xlink:href="#DejaVuSans-68"/>
     </g>
    </g>
    <g id="line2d_41">
     <path d="M 99 128.854688 
L 119 128.854688 
" style="fill:none;stroke:#2ca02c;stroke-linecap:square;stroke-width:1.5;"/>
    </g>
    <g id="line2d_42"/>
    <g id="text_19">
     <!-- SIR -->
     <g transform="translate(127 132.354688)scale(0.1 -0.1)">
      <defs>
       <path d="M 44.390625 34.1875 
Q 47.5625 33.109375 50.5625 29.59375 
Q 53.5625 26.078125 56.59375 19.921875 
L 66.609375 0 
L 56 0 
L 46.6875 18.703125 
Q 43.0625 26.03125 39.671875 28.421875 
Q 36.28125 30.8125 30.421875 30.8125 
L 19.671875 30.8125 
L 19.671875 0 
L 9.8125 0 
L 9.8125 72.90625 
L 32.078125 72.90625 
Q 44.578125 72.90625 50.734375 67.671875 
Q 56.890625 62.453125 56.890625 51.90625 
Q 56.890625 45.015625 53.6875 40.46875 
Q 50.484375 35.9375 44.390625 34.1875 
z
M 19.671875 64.796875 
L 19.671875 38.921875 
L 32.078125 38.921875 
Q 39.203125 38.921875 42.84375 42.21875 
Q 46.484375 45.515625 46.484375 51.90625 
Q 46.484375 58.296875 42.84375 61.546875 
Q 39.203125 64.796875 32.078125 64.796875 
z
" id="DejaVuSans-82"/>
      </defs>
      <use xlink:href="#DejaVuSans-83"/>
      <use x="63.476562" xlink:href="#DejaVuSans-73"/>
      <use x="92.96875" xlink:href="#DejaVuSans-82"/>
     </g>
    </g>
    <g id="line2d_43">
     <path d="M 99 143.532812 
L 119 143.532812 
" style="fill:none;stroke:#d62728;stroke-linecap:square;stroke-width:1.5;"/>
    </g>
    <g id="line2d_44"/>
    <g id="text_20">
     <!-- eSIR -->
     <g transform="translate(127 147.032812)scale(0.1 -0.1)">
      <use xlink:href="#DejaVuSans-101"/>
      <use x="61.523438" xlink:href="#DejaVuSans-83"/>
      <use x="125" xlink:href="#DejaVuSans-73"/>
      <use x="154.492188" xlink:href="#DejaVuSans-82"/>
     </g>
    </g>
    <g id="line2d_45">
     <path d="M 99 158.210938 
L 119 158.210938 
" style="fill:none;stroke:#9467bd;stroke-linecap:square;stroke-width:1.5;"/>
    </g>
    <g id="line2d_46"/>
    <g id="text_21">
     <!-- SEIR -->
     <g transform="translate(127 161.710938)scale(0.1 -0.1)">
      <defs>
       <path d="M 9.8125 72.90625 
L 55.90625 72.90625 
L 55.90625 64.59375 
L 19.671875 64.59375 
L 19.671875 43.015625 
L 54.390625 43.015625 
L 54.390625 34.71875 
L 19.671875 34.71875 
L 19.671875 8.296875 
L 56.78125 8.296875 
L 56.78125 0 
L 9.8125 0 
z
" id="DejaVuSans-69"/>
      </defs>
      <use xlink:href="#DejaVuSans-83"/>
      <use x="63.476562" xlink:href="#DejaVuSans-69"/>
      <use x="126.660156" xlink:href="#DejaVuSans-73"/>
      <use x="156.152344" xlink:href="#DejaVuSans-82"/>
     </g>
    </g>
    <g id="line2d_47">
     <path d="M 99 172.889063 
L 119 172.889063 
" style="fill:none;stroke:#8c564b;stroke-linecap:square;stroke-width:1.5;"/>
    </g>
    <g id="line2d_48"/>
    <g id="text_22">
     <!-- eSEIR -->
     <g transform="translate(127 176.389063)scale(0.1 -0.1)">
      <use xlink:href="#DejaVuSans-101"/>
      <use x="61.523438" xlink:href="#DejaVuSans-83"/>
      <use x="125" xlink:href="#DejaVuSans-69"/>
      <use x="188.183594" xlink:href="#DejaVuSans-73"/>
      <use x="217.675781" xlink:href="#DejaVuSans-82"/>
     </g>
    </g>
    <g id="line2d_49">
     <path d="M 99 187.567188 
L 119 187.567188 
" style="fill:none;stroke:#e377c2;stroke-linecap:square;stroke-width:1.5;"/>
    </g>
    <g id="line2d_50"/>
    <g id="text_23">
     <!-- SEIUR -->
     <g transform="translate(127 191.067188)scale(0.1 -0.1)">
      <defs>
       <path d="M 8.6875 72.90625 
L 18.609375 72.90625 
L 18.609375 28.609375 
Q 18.609375 16.890625 22.84375 11.734375 
Q 27.09375 6.59375 36.625 6.59375 
Q 46.09375 6.59375 50.34375 11.734375 
Q 54.59375 16.890625 54.59375 28.609375 
L 54.59375 72.90625 
L 64.5 72.90625 
L 64.5 27.390625 
Q 64.5 13.140625 57.4375 5.859375 
Q 50.390625 -1.421875 36.625 -1.421875 
Q 22.796875 -1.421875 15.734375 5.859375 
Q 8.6875 13.140625 8.6875 27.390625 
z
" id="DejaVuSans-85"/>
      </defs>
      <use xlink:href="#DejaVuSans-83"/>
      <use x="63.476562" xlink:href="#DejaVuSans-69"/>
      <use x="126.660156" xlink:href="#DejaVuSans-73"/>
      <use x="156.152344" xlink:href="#DejaVuSans-85"/>
      <use x="229.345703" xlink:href="#DejaVuSans-82"/>
     </g>
    </g>
    <g id="line2d_51">
     <path d="M 99 202.245312 
L 119 202.245312 
" style="fill:none;stroke:#7f7f7f;stroke-linecap:square;stroke-width:1.5;"/>
    </g>
    <g id="line2d_52"/>
    <g id="text_24">
     <!-- eSEIUR -->
     <g transform="translate(127 205.745312)scale(0.1 -0.1)">
      <use xlink:href="#DejaVuSans-101"/>
      <use x="61.523438" xlink:href="#DejaVuSans-83"/>
      <use x="125" xlink:href="#DejaVuSans-69"/>
      <use x="188.183594" xlink:href="#DejaVuSans-73"/>
      <use x="217.675781" xlink:href="#DejaVuSans-85"/>
      <use x="290.869141" xlink:href="#DejaVuSans-82"/>
     </g>
    </g>
    <g id="line2d_53">
     <path d="M 99 216.923437 
L 119 216.923437 
" style="fill:none;stroke:#bcbd22;stroke-linecap:square;stroke-width:1.5;"/>
    </g>
    <g id="line2d_54"/>
    <g id="text_25">
     <!-- eSEIUR$^{range}$ -->
     <g transform="translate(127 220.423437)scale(0.1 -0.1)">
      <defs>
       <path d="M 44.578125 46.390625 
Q 43.21875 47.125 41.453125 47.515625 
Q 39.703125 47.90625 37.703125 47.90625 
Q 30.515625 47.90625 25.140625 42.453125 
Q 19.78125 37.015625 18.015625 27.875 
L 12.5 0 
L 3.515625 0 
L 14.203125 54.6875 
L 23.1875 54.6875 
L 21.484375 46.1875 
Q 25.046875 50.921875 30 53.453125 
Q 34.96875 56 40.578125 56 
Q 42.046875 56 43.453125 55.828125 
Q 44.875 55.671875 46.296875 55.28125 
z
" id="DejaVuSans-Oblique-114"/>
       <path d="M 53.71875 31.203125 
L 47.609375 0 
L 38.625 0 
L 40.28125 8.296875 
Q 36.328125 3.421875 31.265625 1 
Q 26.21875 -1.421875 20.015625 -1.421875 
Q 13.03125 -1.421875 8.5625 2.84375 
Q 4.109375 7.125 4.109375 13.8125 
Q 4.109375 23.390625 11.75 28.953125 
Q 19.390625 34.515625 32.8125 34.515625 
L 45.3125 34.515625 
L 45.796875 36.921875 
Q 45.90625 37.3125 45.953125 37.765625 
Q 46 38.234375 46 39.203125 
Q 46 43.5625 42.453125 45.96875 
Q 38.921875 48.390625 32.515625 48.390625 
Q 28.125 48.390625 23.5 47.265625 
Q 18.890625 46.140625 14.015625 43.890625 
L 15.578125 52.203125 
Q 20.65625 54.109375 25.515625 55.046875 
Q 30.375 56 34.90625 56 
Q 44.578125 56 49.625 51.796875 
Q 54.6875 47.609375 54.6875 39.59375 
Q 54.6875 37.984375 54.4375 35.8125 
Q 54.203125 33.640625 53.71875 31.203125 
z
M 44 27.484375 
L 35.015625 27.484375 
Q 23.96875 27.484375 18.671875 24.53125 
Q 13.375 21.578125 13.375 15.375 
Q 13.375 11.078125 16.078125 8.640625 
Q 18.796875 6.203125 23.578125 6.203125 
Q 30.90625 6.203125 36.375 11.453125 
Q 41.84375 16.703125 43.609375 25.484375 
z
" id="DejaVuSans-Oblique-97"/>
       <path d="M 55.71875 33.015625 
L 49.3125 0 
L 40.28125 0 
L 46.6875 32.671875 
Q 47.125 34.96875 47.359375 36.71875 
Q 47.609375 38.484375 47.609375 39.5 
Q 47.609375 43.609375 45.015625 45.890625 
Q 42.4375 48.1875 37.796875 48.1875 
Q 30.5625 48.1875 25.34375 43.375 
Q 20.125 38.578125 18.5 30.328125 
L 12.5 0 
L 3.515625 0 
L 14.109375 54.6875 
L 23.09375 54.6875 
L 21.296875 46.09375 
Q 25.046875 50.828125 30.3125 53.40625 
Q 35.59375 56 41.40625 56 
Q 48.640625 56 52.609375 52.09375 
Q 56.59375 48.1875 56.59375 41.109375 
Q 56.59375 39.359375 56.375 37.359375 
Q 56.15625 35.359375 55.71875 33.015625 
z
" id="DejaVuSans-Oblique-110"/>
       <path d="M 59.625 54.6875 
L 50.296875 6.78125 
Q 47.609375 -7.125 40.015625 -13.953125 
Q 32.421875 -20.796875 19.578125 -20.796875 
Q 14.84375 -20.796875 10.78125 -20.09375 
Q 6.734375 -19.390625 3.21875 -17.921875 
L 4.890625 -9.1875 
Q 8.203125 -11.328125 11.90625 -12.34375 
Q 15.625 -13.375 19.828125 -13.375 
Q 28.375 -13.375 33.859375 -8.703125 
Q 39.359375 -4.046875 41.109375 4.6875 
L 41.890625 8.796875 
Q 38.140625 4.5 33.15625 2.25 
Q 28.171875 0 22.40625 0 
Q 14.109375 0 9.34375 5.484375 
Q 4.59375 10.984375 4.59375 20.609375 
Q 4.59375 28.171875 7.46875 35.421875 
Q 10.359375 42.671875 15.578125 48.296875 
Q 19.046875 52 23.65625 54 
Q 28.265625 56 33.296875 56 
Q 38.8125 56 42.90625 53.4375 
Q 47.015625 50.875 49.03125 46.1875 
L 50.59375 54.6875 
z
M 46.09375 34.625 
Q 46.09375 41.265625 42.96875 44.875 
Q 39.84375 48.484375 34.078125 48.484375 
Q 30.515625 48.484375 27.296875 47.0625 
Q 24.078125 45.65625 21.78125 43.109375 
Q 18.0625 38.921875 15.984375 33.234375 
Q 13.921875 27.546875 13.921875 21.484375 
Q 13.921875 14.75 17.0625 11.125 
Q 20.21875 7.515625 26.125 7.515625 
Q 34.671875 7.515625 40.375 15.25 
Q 46.09375 23 46.09375 34.625 
z
" id="DejaVuSans-Oblique-103"/>
       <path d="M 48.09375 32.234375 
Q 48.25 33.015625 48.3125 33.84375 
Q 48.390625 34.671875 48.390625 35.5 
Q 48.390625 41.453125 44.890625 44.921875 
Q 41.40625 48.390625 35.40625 48.390625 
Q 28.71875 48.390625 23.578125 44.15625 
Q 18.453125 39.9375 15.828125 32.171875 
z
M 55.90625 25.203125 
L 14.109375 25.203125 
Q 13.8125 23.34375 13.71875 22.265625 
Q 13.625 21.1875 13.625 20.40625 
Q 13.625 13.625 17.796875 9.90625 
Q 21.96875 6.203125 29.59375 6.203125 
Q 35.453125 6.203125 40.671875 7.515625 
Q 45.90625 8.84375 50.390625 11.375 
L 48.6875 2.484375 
Q 43.84375 0.53125 38.6875 -0.4375 
Q 33.546875 -1.421875 28.21875 -1.421875 
Q 16.84375 -1.421875 10.71875 4.015625 
Q 4.59375 9.46875 4.59375 19.484375 
Q 4.59375 28.03125 7.640625 35.375 
Q 10.6875 42.71875 16.609375 48.484375 
Q 20.40625 52.09375 25.65625 54.046875 
Q 30.90625 56 36.8125 56 
Q 46.09375 56 51.578125 50.4375 
Q 57.078125 44.875 57.078125 35.5 
Q 57.078125 33.25 56.78125 30.6875 
Q 56.5 28.125 55.90625 25.203125 
z
" id="DejaVuSans-Oblique-101"/>
      </defs>
      <use transform="translate(0 0.51875)" xlink:href="#DejaVuSans-101"/>
      <use transform="translate(61.523438 0.51875)" xlink:href="#DejaVuSans-83"/>
      <use transform="translate(125 0.51875)" xlink:href="#DejaVuSans-69"/>
      <use transform="translate(188.183594 0.51875)" xlink:href="#DejaVuSans-73"/>
      <use transform="translate(217.675781 0.51875)" xlink:href="#DejaVuSans-85"/>
      <use transform="translate(288.619141 0.51875)" xlink:href="#DejaVuSans-82"/>
      <use transform="translate(359.058594 38.8)scale(0.7)" xlink:href="#DejaVuSans-Oblique-114"/>
      <use transform="translate(387.837891 38.8)scale(0.7)" xlink:href="#DejaVuSans-Oblique-97"/>
      <use transform="translate(430.733398 38.8)scale(0.7)" xlink:href="#DejaVuSans-Oblique-110"/>
      <use transform="translate(475.098633 38.8)scale(0.7)" xlink:href="#DejaVuSans-Oblique-103"/>
      <use transform="translate(519.532227 38.8)scale(0.7)" xlink:href="#DejaVuSans-Oblique-101"/>
     </g>
    </g>
   </g>
  </g>
 </g>
 <defs>
  <clipPath id="p5839d34a68">
   <rect height="543.6" width="558" x="90" y="86.4"/>
  </clipPath>
 </defs>
</svg>
