<?xml version="1.0" encoding="utf-8" standalone="no"?>
<!DOCTYPE svg PUBLIC "-//W3C//DTD SVG 1.1//EN"
  "http://www.w3.org/Graphics/SVG/1.1/DTD/svg11.dtd">
<!-- Created with matplotlib (https://matplotlib.org/) -->
<svg height="720pt" version="1.1" viewBox="0 0 720 720" width="720pt" xmlns="http://www.w3.org/2000/svg" xmlns:xlink="http://www.w3.org/1999/xlink">
 <metadata>
  <rdf:RDF xmlns:cc="http://creativecommons.org/ns#" xmlns:dc="http://purl.org/dc/elements/1.1/" xmlns:rdf="http://www.w3.org/1999/02/22-rdf-syntax-ns#">
   <cc:Work>
    <dc:type rdf:resource="http://purl.org/dc/dcmitype/StillImage"/>
    <dc:date>2022-07-13T18:53:48.423416</dc:date>
    <dc:format>image/svg+xml</dc:format>
    <dc:creator>
     <cc:Agent>
      <dc:title>Matplotlib v3.3.2, https://matplotlib.org/</dc:title>
     </cc:Agent>
    </dc:creator>
   </cc:Work>
  </rdf:RDF>
 </metadata>
 <defs>
  <style type="text/css">*{stroke-linecap:butt;stroke-linejoin:round;}</style>
 </defs>
 <g id="figure_1">
  <g id="patch_1">
   <path d="M 0 720 
L 720 720 
L 720 0 
L 0 0 
z
" style="fill:none;"/>
  </g>
  <g id="axes_1">
   <g id="patch_2">
    <path d="M 90 630 
L 648 630 
L 648 86.4 
L 90 86.4 
z
" style="fill:#ffffff;"/>
   </g>
   <g id="matplotlib.axis_1">
    <g id="xtick_1">
     <g id="line2d_1">
      <path clip-path="url(#p7d03ff4aa1)" d="M 115.363636 630 
L 115.363636 86.4 
" style="fill:none;stroke:#b0b0b0;stroke-linecap:square;stroke-width:0.8;"/>
     </g>
     <g id="line2d_2">
      <defs>
       <path d="M 0 0 
L 0 3.5 
" id="ma3795e754a" style="stroke:#000000;stroke-width:0.8;"/>
      </defs>
      <g>
       <use style="stroke:#000000;stroke-width:0.8;" x="115.363636" xlink:href="#ma3795e754a" y="630"/>
      </g>
     </g>
     <g id="text_1">
      <!-- 0 -->
      <g transform="translate(112.182386 644.598438)scale(0.1 -0.1)">
       <defs>
        <path d="M 31.78125 66.40625 
Q 24.171875 66.40625 20.328125 58.90625 
Q 16.5 51.421875 16.5 36.375 
Q 16.5 21.390625 20.328125 13.890625 
Q 24.171875 6.390625 31.78125 6.390625 
Q 39.453125 6.390625 43.28125 13.890625 
Q 47.125 21.390625 47.125 36.375 
Q 47.125 51.421875 43.28125 58.90625 
Q 39.453125 66.40625 31.78125 66.40625 
z
M 31.78125 74.21875 
Q 44.046875 74.21875 50.515625 64.515625 
Q 56.984375 54.828125 56.984375 36.375 
Q 56.984375 17.96875 50.515625 8.265625 
Q 44.046875 -1.421875 31.78125 -1.421875 
Q 19.53125 -1.421875 13.0625 8.265625 
Q 6.59375 17.96875 6.59375 36.375 
Q 6.59375 54.828125 13.0625 64.515625 
Q 19.53125 74.21875 31.78125 74.21875 
z
" id="DejaVuSans-48"/>
       </defs>
       <use xlink:href="#DejaVuSans-48"/>
      </g>
     </g>
    </g>
    <g id="xtick_2">
     <g id="line2d_3">
      <path clip-path="url(#p7d03ff4aa1)" d="M 229.357508 630 
L 229.357508 86.4 
" style="fill:none;stroke:#b0b0b0;stroke-linecap:square;stroke-width:0.8;"/>
     </g>
     <g id="line2d_4">
      <g>
       <use style="stroke:#000000;stroke-width:0.8;" x="229.357508" xlink:href="#ma3795e754a" y="630"/>
      </g>
     </g>
     <g id="text_2">
      <!-- 20 -->
      <g transform="translate(222.995008 644.598438)scale(0.1 -0.1)">
       <defs>
        <path d="M 19.1875 8.296875 
L 53.609375 8.296875 
L 53.609375 0 
L 7.328125 0 
L 7.328125 8.296875 
Q 12.9375 14.109375 22.625 23.890625 
Q 32.328125 33.6875 34.8125 36.53125 
Q 39.546875 41.84375 41.421875 45.53125 
Q 43.3125 49.21875 43.3125 52.78125 
Q 43.3125 58.59375 39.234375 62.25 
Q 35.15625 65.921875 28.609375 65.921875 
Q 23.96875 65.921875 18.8125 64.3125 
Q 13.671875 62.703125 7.8125 59.421875 
L 7.8125 69.390625 
Q 13.765625 71.78125 18.9375 73 
Q 24.125 74.21875 28.421875 74.21875 
Q 39.75 74.21875 46.484375 68.546875 
Q 53.21875 62.890625 53.21875 53.421875 
Q 53.21875 48.921875 51.53125 44.890625 
Q 49.859375 40.875 45.40625 35.40625 
Q 44.1875 33.984375 37.640625 27.21875 
Q 31.109375 20.453125 19.1875 8.296875 
z
" id="DejaVuSans-50"/>
       </defs>
       <use xlink:href="#DejaVuSans-50"/>
       <use x="63.623047" xlink:href="#DejaVuSans-48"/>
      </g>
     </g>
    </g>
    <g id="xtick_3">
     <g id="line2d_5">
      <path clip-path="url(#p7d03ff4aa1)" d="M 343.351379 630 
L 343.351379 86.4 
" style="fill:none;stroke:#b0b0b0;stroke-linecap:square;stroke-width:0.8;"/>
     </g>
     <g id="line2d_6">
      <g>
       <use style="stroke:#000000;stroke-width:0.8;" x="343.351379" xlink:href="#ma3795e754a" y="630"/>
      </g>
     </g>
     <g id="text_3">
      <!-- 40 -->
      <g transform="translate(336.988879 644.598438)scale(0.1 -0.1)">
       <defs>
        <path d="M 37.796875 64.3125 
L 12.890625 25.390625 
L 37.796875 25.390625 
z
M 35.203125 72.90625 
L 47.609375 72.90625 
L 47.609375 25.390625 
L 58.015625 25.390625 
L 58.015625 17.1875 
L 47.609375 17.1875 
L 47.609375 0 
L 37.796875 0 
L 37.796875 17.1875 
L 4.890625 17.1875 
L 4.890625 26.703125 
z
" id="DejaVuSans-52"/>
       </defs>
       <use xlink:href="#DejaVuSans-52"/>
       <use x="63.623047" xlink:href="#DejaVuSans-48"/>
      </g>
     </g>
    </g>
    <g id="xtick_4">
     <g id="line2d_7">
      <path clip-path="url(#p7d03ff4aa1)" d="M 457.34525 630 
L 457.34525 86.4 
" style="fill:none;stroke:#b0b0b0;stroke-linecap:square;stroke-width:0.8;"/>
     </g>
     <g id="line2d_8">
      <g>
       <use style="stroke:#000000;stroke-width:0.8;" x="457.34525" xlink:href="#ma3795e754a" y="630"/>
      </g>
     </g>
     <g id="text_4">
      <!-- 60 -->
      <g transform="translate(450.98275 644.598438)scale(0.1 -0.1)">
       <defs>
        <path d="M 33.015625 40.375 
Q 26.375 40.375 22.484375 35.828125 
Q 18.609375 31.296875 18.609375 23.390625 
Q 18.609375 15.53125 22.484375 10.953125 
Q 26.375 6.390625 33.015625 6.390625 
Q 39.65625 6.390625 43.53125 10.953125 
Q 47.40625 15.53125 47.40625 23.390625 
Q 47.40625 31.296875 43.53125 35.828125 
Q 39.65625 40.375 33.015625 40.375 
z
M 52.59375 71.296875 
L 52.59375 62.3125 
Q 48.875 64.0625 45.09375 64.984375 
Q 41.3125 65.921875 37.59375 65.921875 
Q 27.828125 65.921875 22.671875 59.328125 
Q 17.53125 52.734375 16.796875 39.40625 
Q 19.671875 43.65625 24.015625 45.921875 
Q 28.375 48.1875 33.59375 48.1875 
Q 44.578125 48.1875 50.953125 41.515625 
Q 57.328125 34.859375 57.328125 23.390625 
Q 57.328125 12.15625 50.6875 5.359375 
Q 44.046875 -1.421875 33.015625 -1.421875 
Q 20.359375 -1.421875 13.671875 8.265625 
Q 6.984375 17.96875 6.984375 36.375 
Q 6.984375 53.65625 15.1875 63.9375 
Q 23.390625 74.21875 37.203125 74.21875 
Q 40.921875 74.21875 44.703125 73.484375 
Q 48.484375 72.75 52.59375 71.296875 
z
" id="DejaVuSans-54"/>
       </defs>
       <use xlink:href="#DejaVuSans-54"/>
       <use x="63.623047" xlink:href="#DejaVuSans-48"/>
      </g>
     </g>
    </g>
    <g id="xtick_5">
     <g id="line2d_9">
      <path clip-path="url(#p7d03ff4aa1)" d="M 571.339122 630 
L 571.339122 86.4 
" style="fill:none;stroke:#b0b0b0;stroke-linecap:square;stroke-width:0.8;"/>
     </g>
     <g id="line2d_10">
      <g>
       <use style="stroke:#000000;stroke-width:0.8;" x="571.339122" xlink:href="#ma3795e754a" y="630"/>
      </g>
     </g>
     <g id="text_5">
      <!-- 80 -->
      <g transform="translate(564.976622 644.598438)scale(0.1 -0.1)">
       <defs>
        <path d="M 31.78125 34.625 
Q 24.75 34.625 20.71875 30.859375 
Q 16.703125 27.09375 16.703125 20.515625 
Q 16.703125 13.921875 20.71875 10.15625 
Q 24.75 6.390625 31.78125 6.390625 
Q 38.8125 6.390625 42.859375 10.171875 
Q 46.921875 13.96875 46.921875 20.515625 
Q 46.921875 27.09375 42.890625 30.859375 
Q 38.875 34.625 31.78125 34.625 
z
M 21.921875 38.8125 
Q 15.578125 40.375 12.03125 44.71875 
Q 8.5 49.078125 8.5 55.328125 
Q 8.5 64.0625 14.71875 69.140625 
Q 20.953125 74.21875 31.78125 74.21875 
Q 42.671875 74.21875 48.875 69.140625 
Q 55.078125 64.0625 55.078125 55.328125 
Q 55.078125 49.078125 51.53125 44.71875 
Q 48 40.375 41.703125 38.8125 
Q 48.828125 37.15625 52.796875 32.3125 
Q 56.78125 27.484375 56.78125 20.515625 
Q 56.78125 9.90625 50.3125 4.234375 
Q 43.84375 -1.421875 31.78125 -1.421875 
Q 19.734375 -1.421875 13.25 4.234375 
Q 6.78125 9.90625 6.78125 20.515625 
Q 6.78125 27.484375 10.78125 32.3125 
Q 14.796875 37.15625 21.921875 38.8125 
z
M 18.3125 54.390625 
Q 18.3125 48.734375 21.84375 45.5625 
Q 25.390625 42.390625 31.78125 42.390625 
Q 38.140625 42.390625 41.71875 45.5625 
Q 45.3125 48.734375 45.3125 54.390625 
Q 45.3125 60.0625 41.71875 63.234375 
Q 38.140625 66.40625 31.78125 66.40625 
Q 25.390625 66.40625 21.84375 63.234375 
Q 18.3125 60.0625 18.3125 54.390625 
z
" id="DejaVuSans-56"/>
       </defs>
       <use xlink:href="#DejaVuSans-56"/>
       <use x="63.623047" xlink:href="#DejaVuSans-48"/>
      </g>
     </g>
    </g>
    <g id="text_6">
     <!-- Days -->
     <g transform="translate(356.521875 658.276562)scale(0.1 -0.1)">
      <defs>
       <path d="M 19.671875 64.796875 
L 19.671875 8.109375 
L 31.59375 8.109375 
Q 46.6875 8.109375 53.6875 14.9375 
Q 60.6875 21.78125 60.6875 36.53125 
Q 60.6875 51.171875 53.6875 57.984375 
Q 46.6875 64.796875 31.59375 64.796875 
z
M 9.8125 72.90625 
L 30.078125 72.90625 
Q 51.265625 72.90625 61.171875 64.09375 
Q 71.09375 55.28125 71.09375 36.53125 
Q 71.09375 17.671875 61.125 8.828125 
Q 51.171875 0 30.078125 0 
L 9.8125 0 
z
" id="DejaVuSans-68"/>
       <path d="M 34.28125 27.484375 
Q 23.390625 27.484375 19.1875 25 
Q 14.984375 22.515625 14.984375 16.5 
Q 14.984375 11.71875 18.140625 8.90625 
Q 21.296875 6.109375 26.703125 6.109375 
Q 34.1875 6.109375 38.703125 11.40625 
Q 43.21875 16.703125 43.21875 25.484375 
L 43.21875 27.484375 
z
M 52.203125 31.203125 
L 52.203125 0 
L 43.21875 0 
L 43.21875 8.296875 
Q 40.140625 3.328125 35.546875 0.953125 
Q 30.953125 -1.421875 24.3125 -1.421875 
Q 15.921875 -1.421875 10.953125 3.296875 
Q 6 8.015625 6 15.921875 
Q 6 25.140625 12.171875 29.828125 
Q 18.359375 34.515625 30.609375 34.515625 
L 43.21875 34.515625 
L 43.21875 35.40625 
Q 43.21875 41.609375 39.140625 45 
Q 35.0625 48.390625 27.6875 48.390625 
Q 23 48.390625 18.546875 47.265625 
Q 14.109375 46.140625 10.015625 43.890625 
L 10.015625 52.203125 
Q 14.9375 54.109375 19.578125 55.046875 
Q 24.21875 56 28.609375 56 
Q 40.484375 56 46.34375 49.84375 
Q 52.203125 43.703125 52.203125 31.203125 
z
" id="DejaVuSans-97"/>
       <path d="M 32.171875 -5.078125 
Q 28.375 -14.84375 24.75 -17.8125 
Q 21.140625 -20.796875 15.09375 -20.796875 
L 7.90625 -20.796875 
L 7.90625 -13.28125 
L 13.1875 -13.28125 
Q 16.890625 -13.28125 18.9375 -11.515625 
Q 21 -9.765625 23.484375 -3.21875 
L 25.09375 0.875 
L 2.984375 54.6875 
L 12.5 54.6875 
L 29.59375 11.921875 
L 46.6875 54.6875 
L 56.203125 54.6875 
z
" id="DejaVuSans-121"/>
       <path d="M 44.28125 53.078125 
L 44.28125 44.578125 
Q 40.484375 46.53125 36.375 47.5 
Q 32.28125 48.484375 27.875 48.484375 
Q 21.1875 48.484375 17.84375 46.4375 
Q 14.5 44.390625 14.5 40.28125 
Q 14.5 37.15625 16.890625 35.375 
Q 19.28125 33.59375 26.515625 31.984375 
L 29.59375 31.296875 
Q 39.15625 29.25 43.1875 25.515625 
Q 47.21875 21.78125 47.21875 15.09375 
Q 47.21875 7.46875 41.1875 3.015625 
Q 35.15625 -1.421875 24.609375 -1.421875 
Q 20.21875 -1.421875 15.453125 -0.5625 
Q 10.6875 0.296875 5.421875 2 
L 5.421875 11.28125 
Q 10.40625 8.6875 15.234375 7.390625 
Q 20.0625 6.109375 24.8125 6.109375 
Q 31.15625 6.109375 34.5625 8.28125 
Q 37.984375 10.453125 37.984375 14.40625 
Q 37.984375 18.0625 35.515625 20.015625 
Q 33.0625 21.96875 24.703125 23.78125 
L 21.578125 24.515625 
Q 13.234375 26.265625 9.515625 29.90625 
Q 5.8125 33.546875 5.8125 39.890625 
Q 5.8125 47.609375 11.28125 51.796875 
Q 16.75 56 26.8125 56 
Q 31.78125 56 36.171875 55.265625 
Q 40.578125 54.546875 44.28125 53.078125 
z
" id="DejaVuSans-115"/>
      </defs>
      <use xlink:href="#DejaVuSans-68"/>
      <use x="77.001953" xlink:href="#DejaVuSans-97"/>
      <use x="138.28125" xlink:href="#DejaVuSans-121"/>
      <use x="197.460938" xlink:href="#DejaVuSans-115"/>
     </g>
    </g>
   </g>
   <g id="matplotlib.axis_2">
    <g id="ytick_1">
     <g id="line2d_11">
      <path clip-path="url(#p7d03ff4aa1)" d="M 90 606.007327 
L 648 606.007327 
" style="fill:none;stroke:#b0b0b0;stroke-linecap:square;stroke-width:0.8;"/>
     </g>
     <g id="line2d_12">
      <defs>
       <path d="M 0 0 
L -3.5 0 
" id="m48b7e6bed6" style="stroke:#000000;stroke-width:0.8;"/>
      </defs>
      <g>
       <use style="stroke:#000000;stroke-width:0.8;" x="90" xlink:href="#m48b7e6bed6" y="606.007327"/>
      </g>
     </g>
     <g id="text_7">
      <!-- 0 -->
      <g transform="translate(76.6375 609.806546)scale(0.1 -0.1)">
       <use xlink:href="#DejaVuSans-48"/>
      </g>
     </g>
    </g>
    <g id="ytick_2">
     <g id="line2d_13">
      <path clip-path="url(#p7d03ff4aa1)" d="M 90 486.604281 
L 648 486.604281 
" style="fill:none;stroke:#b0b0b0;stroke-linecap:square;stroke-width:0.8;"/>
     </g>
     <g id="line2d_14">
      <g>
       <use style="stroke:#000000;stroke-width:0.8;" x="90" xlink:href="#m48b7e6bed6" y="486.604281"/>
      </g>
     </g>
     <g id="text_8">
      <!-- 2000 -->
      <g transform="translate(57.55 490.4035)scale(0.1 -0.1)">
       <use xlink:href="#DejaVuSans-50"/>
       <use x="63.623047" xlink:href="#DejaVuSans-48"/>
       <use x="127.246094" xlink:href="#DejaVuSans-48"/>
       <use x="190.869141" xlink:href="#DejaVuSans-48"/>
      </g>
     </g>
    </g>
    <g id="ytick_3">
     <g id="line2d_15">
      <path clip-path="url(#p7d03ff4aa1)" d="M 90 367.201235 
L 648 367.201235 
" style="fill:none;stroke:#b0b0b0;stroke-linecap:square;stroke-width:0.8;"/>
     </g>
     <g id="line2d_16">
      <g>
       <use style="stroke:#000000;stroke-width:0.8;" x="90" xlink:href="#m48b7e6bed6" y="367.201235"/>
      </g>
     </g>
     <g id="text_9">
      <!-- 4000 -->
      <g transform="translate(57.55 371.000454)scale(0.1 -0.1)">
       <use xlink:href="#DejaVuSans-52"/>
       <use x="63.623047" xlink:href="#DejaVuSans-48"/>
       <use x="127.246094" xlink:href="#DejaVuSans-48"/>
       <use x="190.869141" xlink:href="#DejaVuSans-48"/>
      </g>
     </g>
    </g>
    <g id="ytick_4">
     <g id="line2d_17">
      <path clip-path="url(#p7d03ff4aa1)" d="M 90 247.798189 
L 648 247.798189 
" style="fill:none;stroke:#b0b0b0;stroke-linecap:square;stroke-width:0.8;"/>
     </g>
     <g id="line2d_18">
      <g>
       <use style="stroke:#000000;stroke-width:0.8;" x="90" xlink:href="#m48b7e6bed6" y="247.798189"/>
      </g>
     </g>
     <g id="text_10">
      <!-- 6000 -->
      <g transform="translate(57.55 251.597408)scale(0.1 -0.1)">
       <use xlink:href="#DejaVuSans-54"/>
       <use x="63.623047" xlink:href="#DejaVuSans-48"/>
       <use x="127.246094" xlink:href="#DejaVuSans-48"/>
       <use x="190.869141" xlink:href="#DejaVuSans-48"/>
      </g>
     </g>
    </g>
    <g id="ytick_5">
     <g id="line2d_19">
      <path clip-path="url(#p7d03ff4aa1)" d="M 90 128.395143 
L 648 128.395143 
" style="fill:none;stroke:#b0b0b0;stroke-linecap:square;stroke-width:0.8;"/>
     </g>
     <g id="line2d_20">
      <g>
       <use style="stroke:#000000;stroke-width:0.8;" x="90" xlink:href="#m48b7e6bed6" y="128.395143"/>
      </g>
     </g>
     <g id="text_11">
      <!-- 8000 -->
      <g transform="translate(57.55 132.194362)scale(0.1 -0.1)">
       <use xlink:href="#DejaVuSans-56"/>
       <use x="63.623047" xlink:href="#DejaVuSans-48"/>
       <use x="127.246094" xlink:href="#DejaVuSans-48"/>
       <use x="190.869141" xlink:href="#DejaVuSans-48"/>
      </g>
     </g>
    </g>
    <g id="text_12">
     <!-- Cumulative cases -->
     <g transform="translate(51.470312 402.425781)rotate(-90)scale(0.1 -0.1)">
      <defs>
       <path d="M 64.40625 67.28125 
L 64.40625 56.890625 
Q 59.421875 61.53125 53.78125 63.8125 
Q 48.140625 66.109375 41.796875 66.109375 
Q 29.296875 66.109375 22.65625 58.46875 
Q 16.015625 50.828125 16.015625 36.375 
Q 16.015625 21.96875 22.65625 14.328125 
Q 29.296875 6.6875 41.796875 6.6875 
Q 48.140625 6.6875 53.78125 8.984375 
Q 59.421875 11.28125 64.40625 15.921875 
L 64.40625 5.609375 
Q 59.234375 2.09375 53.4375 0.328125 
Q 47.65625 -1.421875 41.21875 -1.421875 
Q 24.65625 -1.421875 15.125 8.703125 
Q 5.609375 18.84375 5.609375 36.375 
Q 5.609375 53.953125 15.125 64.078125 
Q 24.65625 74.21875 41.21875 74.21875 
Q 47.75 74.21875 53.53125 72.484375 
Q 59.328125 70.75 64.40625 67.28125 
z
" id="DejaVuSans-67"/>
       <path d="M 8.5 21.578125 
L 8.5 54.6875 
L 17.484375 54.6875 
L 17.484375 21.921875 
Q 17.484375 14.15625 20.5 10.265625 
Q 23.53125 6.390625 29.59375 6.390625 
Q 36.859375 6.390625 41.078125 11.03125 
Q 45.3125 15.671875 45.3125 23.6875 
L 45.3125 54.6875 
L 54.296875 54.6875 
L 54.296875 0 
L 45.3125 0 
L 45.3125 8.40625 
Q 42.046875 3.421875 37.71875 1 
Q 33.40625 -1.421875 27.6875 -1.421875 
Q 18.265625 -1.421875 13.375 4.4375 
Q 8.5 10.296875 8.5 21.578125 
z
M 31.109375 56 
z
" id="DejaVuSans-117"/>
       <path d="M 52 44.1875 
Q 55.375 50.25 60.0625 53.125 
Q 64.75 56 71.09375 56 
Q 79.640625 56 84.28125 50.015625 
Q 88.921875 44.046875 88.921875 33.015625 
L 88.921875 0 
L 79.890625 0 
L 79.890625 32.71875 
Q 79.890625 40.578125 77.09375 44.375 
Q 74.3125 48.1875 68.609375 48.1875 
Q 61.625 48.1875 57.5625 43.546875 
Q 53.515625 38.921875 53.515625 30.90625 
L 53.515625 0 
L 44.484375 0 
L 44.484375 32.71875 
Q 44.484375 40.625 41.703125 44.40625 
Q 38.921875 48.1875 33.109375 48.1875 
Q 26.21875 48.1875 22.15625 43.53125 
Q 18.109375 38.875 18.109375 30.90625 
L 18.109375 0 
L 9.078125 0 
L 9.078125 54.6875 
L 18.109375 54.6875 
L 18.109375 46.1875 
Q 21.1875 51.21875 25.484375 53.609375 
Q 29.78125 56 35.6875 56 
Q 41.65625 56 45.828125 52.96875 
Q 50 49.953125 52 44.1875 
z
" id="DejaVuSans-109"/>
       <path d="M 9.421875 75.984375 
L 18.40625 75.984375 
L 18.40625 0 
L 9.421875 0 
z
" id="DejaVuSans-108"/>
       <path d="M 18.3125 70.21875 
L 18.3125 54.6875 
L 36.8125 54.6875 
L 36.8125 47.703125 
L 18.3125 47.703125 
L 18.3125 18.015625 
Q 18.3125 11.328125 20.140625 9.421875 
Q 21.96875 7.515625 27.59375 7.515625 
L 36.8125 7.515625 
L 36.8125 0 
L 27.59375 0 
Q 17.1875 0 13.234375 3.875 
Q 9.28125 7.765625 9.28125 18.015625 
L 9.28125 47.703125 
L 2.6875 47.703125 
L 2.6875 54.6875 
L 9.28125 54.6875 
L 9.28125 70.21875 
z
" id="DejaVuSans-116"/>
       <path d="M 9.421875 54.6875 
L 18.40625 54.6875 
L 18.40625 0 
L 9.421875 0 
z
M 9.421875 75.984375 
L 18.40625 75.984375 
L 18.40625 64.59375 
L 9.421875 64.59375 
z
" id="DejaVuSans-105"/>
       <path d="M 2.984375 54.6875 
L 12.5 54.6875 
L 29.59375 8.796875 
L 46.6875 54.6875 
L 56.203125 54.6875 
L 35.6875 0 
L 23.484375 0 
z
" id="DejaVuSans-118"/>
       <path d="M 56.203125 29.59375 
L 56.203125 25.203125 
L 14.890625 25.203125 
Q 15.484375 15.921875 20.484375 11.0625 
Q 25.484375 6.203125 34.421875 6.203125 
Q 39.59375 6.203125 44.453125 7.46875 
Q 49.3125 8.734375 54.109375 11.28125 
L 54.109375 2.78125 
Q 49.265625 0.734375 44.1875 -0.34375 
Q 39.109375 -1.421875 33.890625 -1.421875 
Q 20.796875 -1.421875 13.15625 6.1875 
Q 5.515625 13.8125 5.515625 26.8125 
Q 5.515625 40.234375 12.765625 48.109375 
Q 20.015625 56 32.328125 56 
Q 43.359375 56 49.78125 48.890625 
Q 56.203125 41.796875 56.203125 29.59375 
z
M 47.21875 32.234375 
Q 47.125 39.59375 43.09375 43.984375 
Q 39.0625 48.390625 32.421875 48.390625 
Q 24.90625 48.390625 20.390625 44.140625 
Q 15.875 39.890625 15.1875 32.171875 
z
" id="DejaVuSans-101"/>
       <path id="DejaVuSans-32"/>
       <path d="M 48.78125 52.59375 
L 48.78125 44.1875 
Q 44.96875 46.296875 41.140625 47.34375 
Q 37.3125 48.390625 33.40625 48.390625 
Q 24.65625 48.390625 19.8125 42.84375 
Q 14.984375 37.3125 14.984375 27.296875 
Q 14.984375 17.28125 19.8125 11.734375 
Q 24.65625 6.203125 33.40625 6.203125 
Q 37.3125 6.203125 41.140625 7.25 
Q 44.96875 8.296875 48.78125 10.40625 
L 48.78125 2.09375 
Q 45.015625 0.34375 40.984375 -0.53125 
Q 36.96875 -1.421875 32.421875 -1.421875 
Q 20.0625 -1.421875 12.78125 6.34375 
Q 5.515625 14.109375 5.515625 27.296875 
Q 5.515625 40.671875 12.859375 48.328125 
Q 20.21875 56 33.015625 56 
Q 37.15625 56 41.109375 55.140625 
Q 45.0625 54.296875 48.78125 52.59375 
z
" id="DejaVuSans-99"/>
      </defs>
      <use xlink:href="#DejaVuSans-67"/>
      <use x="69.824219" xlink:href="#DejaVuSans-117"/>
      <use x="133.203125" xlink:href="#DejaVuSans-109"/>
      <use x="230.615234" xlink:href="#DejaVuSans-117"/>
      <use x="293.994141" xlink:href="#DejaVuSans-108"/>
      <use x="321.777344" xlink:href="#DejaVuSans-97"/>
      <use x="383.056641" xlink:href="#DejaVuSans-116"/>
      <use x="422.265625" xlink:href="#DejaVuSans-105"/>
      <use x="450.048828" xlink:href="#DejaVuSans-118"/>
      <use x="509.228516" xlink:href="#DejaVuSans-101"/>
      <use x="570.751953" xlink:href="#DejaVuSans-32"/>
      <use x="602.539062" xlink:href="#DejaVuSans-99"/>
      <use x="657.519531" xlink:href="#DejaVuSans-97"/>
      <use x="718.798828" xlink:href="#DejaVuSans-115"/>
      <use x="770.898438" xlink:href="#DejaVuSans-101"/>
      <use x="832.421875" xlink:href="#DejaVuSans-115"/>
     </g>
    </g>
   </g>
   <g id="line2d_21">
    <path clip-path="url(#p7d03ff4aa1)" d="M 115.363636 605.290909 
L 121.06333 605.20577 
L 126.763023 605.110534 
L 132.462717 605.00401 
L 138.162411 604.884865 
L 143.862104 604.751614 
L 149.561798 604.602595 
L 155.261491 604.435958 
L 160.961185 604.249635 
L 166.660878 604.041321 
L 172.360572 603.808445 
L 178.060266 603.548145 
L 183.759959 603.257229 
L 189.459653 602.932148 
L 195.159346 602.568951 
L 200.85904 602.163247 
L 206.558733 601.710157 
L 212.258427 601.204268 
L 217.958121 600.639577 
L 223.657814 600.009438 
L 229.357508 599.306498 
L 235.057201 598.522638 
L 240.756895 597.648902 
L 246.456588 596.675434 
L 252.156282 595.591407 
L 257.855975 594.384953 
L 263.555669 593.043099 
L 269.255363 591.551704 
L 274.955056 589.895405 
L 280.65475 588.057573 
L 286.354443 586.020285 
L 292.054137 583.764317 
L 297.75383 581.269164 
L 303.453524 578.51309 
L 309.153218 575.473228 
L 314.852911 572.125719 
L 320.552605 568.445923 
L 326.252298 564.408684 
L 331.951992 559.988689 
L 337.651685 555.160898 
L 343.351379 549.901071 
L 349.051073 544.186389 
L 354.750766 537.996165 
L 360.45046 531.312635 
L 366.150153 524.121818 
L 371.849847 516.414425 
L 377.54954 508.18677 
L 383.249234 499.441663 
L 388.948927 490.189208 
L 394.648621 480.447483 
L 400.348315 470.243014 
L 406.048008 459.611007 
L 411.747702 448.595285 
L 417.447395 437.247885 
L 423.147089 425.628321 
L 428.846782 413.802496 
L 434.546476 401.841306 
L 440.24617 389.819001 
L 445.945863 377.81136 
L 451.645557 365.893796 
L 457.34525 354.13947 
L 463.044944 342.617534 
L 468.744637 331.391572 
L 474.444331 320.518319 
L 480.144025 310.046711 
L 485.843718 300.01727 
L 491.543412 290.46184 
L 497.243105 281.403643 
L 502.942799 272.857607 
L 508.642492 264.830933 
L 514.342186 257.323819 
L 520.041879 250.330307 
L 525.741573 243.839188 
L 531.441267 237.834915 
L 537.14096 232.298496 
L 542.840654 227.208329 
L 548.540347 222.540969 
L 554.240041 218.271798 
L 559.939734 214.375613 
L 565.639428 210.827115 
L 571.339122 207.60131 
L 577.038815 204.673832 
L 582.738509 202.021183 
L 588.438202 199.62092 
L 594.137896 197.451773 
L 599.837589 195.493727 
L 605.537283 193.728061 
L 611.236977 192.137353 
L 616.93667 190.705468 
L 622.636364 189.41752 
" style="fill:none;stroke:#1f77b4;stroke-linecap:square;stroke-width:1.5;"/>
   </g>
   <g id="line2d_22">
    <path clip-path="url(#p7d03ff4aa1)" d="M 115.363636 605.290909 
L 121.06333 605.183123 
L 126.763023 605.063035 
L 132.462717 604.92925 
L 138.162411 604.780214 
L 143.862104 604.614203 
L 149.561798 604.429299 
L 155.261491 604.223371 
L 160.961185 603.994051 
L 166.660878 603.738715 
L 172.360572 603.454445 
L 178.060266 603.138011 
L 183.759959 602.78583 
L 189.459653 602.393932 
L 195.159346 601.957928 
L 200.85904 601.47296 
L 206.558733 600.933663 
L 212.258427 600.334117 
L 217.958121 599.667793 
L 223.657814 598.927505 
L 229.357508 598.105355 
L 235.057201 597.192672 
L 240.756895 596.179958 
L 246.456588 595.05683 
L 252.156282 593.811962 
L 257.855975 592.433036 
L 263.555669 590.906686 
L 269.255363 589.218467 
L 274.955056 587.352819 
L 280.65475 585.293053 
L 286.354443 583.021359 
L 292.054137 580.518832 
L 297.75383 577.765529 
L 303.453524 574.740569 
L 309.153218 571.422269 
L 314.852911 567.788331 
L 320.552605 563.816096 
L 326.252298 559.482848 
L 331.951992 554.766202 
L 337.651685 549.644556 
L 343.351379 544.097624 
L 349.051073 538.107041 
L 354.750766 531.657028 
L 360.45046 524.735124 
L 366.150153 517.332937 
L 371.849847 509.446914 
L 377.54954 501.079087 
L 383.249234 492.237754 
L 388.948927 482.938056 
L 394.648621 473.202408 
L 400.348315 463.060732 
L 406.048008 452.550461 
L 411.747702 441.716275 
L 417.447395 430.609566 
L 423.147089 419.287616 
L 428.846782 407.812517 
L 434.546476 396.249871 
L 440.24617 384.667315 
L 445.945863 373.132956 
L 451.645557 361.713771 
L 457.34525 350.474071 
L 463.044944 339.474095 
L 468.744637 328.768791 
L 474.444331 318.406842 
L 480.144025 308.429963 
L 485.843718 298.872477 
L 491.543412 289.76117 
L 497.243105 281.115389 
L 502.942799 272.947368 
L 508.642492 265.262721 
L 514.342186 258.061067 
L 520.041879 251.33675 
L 525.741573 245.07959 
L 531.441267 239.275655 
L 537.14096 233.908007 
L 542.840654 228.957401 
L 548.540347 224.402937 
L 554.240041 220.222625 
L 559.939734 216.393893 
L 565.639428 212.894005 
L 571.339122 209.700418 
L 577.038815 206.791065 
L 582.738509 204.144575 
L 588.438202 201.740444 
L 594.137896 199.559151 
L 599.837589 197.582242 
L 605.537283 195.79237 
L 611.236977 194.173318 
L 616.93667 192.709991 
L 622.636364 191.388398 
" style="fill:none;stroke:#ff7f0e;stroke-linecap:square;stroke-width:1.5;"/>
   </g>
   <g id="line2d_23">
    <path clip-path="url(#p7d03ff4aa1)" d="M 115.363636 605.290909 
L 121.06333 605.159947 
L 126.763023 605.015057 
L 132.462717 604.854767 
L 138.162411 604.677456 
L 143.862104 604.481332 
L 149.561798 604.264421 
L 155.261491 604.024544 
L 160.961185 603.759303 
L 166.660878 603.466052 
L 172.360572 603.14188 
L 178.060266 602.783585 
L 183.759959 602.387644 
L 189.459653 601.950186 
L 195.159346 601.466962 
L 200.85904 600.93331 
L 206.558733 600.344121 
L 212.258427 599.693804 
L 217.958121 598.976245 
L 223.657814 598.18477 
L 229.357508 597.312103 
L 235.057201 596.350325 
L 240.756895 595.290834 
L 246.456588 594.124309 
L 252.156282 592.840667 
L 257.855975 591.429035 
L 263.555669 589.877719 
L 269.255363 588.174187 
L 274.955056 586.305053 
L 280.65475 584.256083 
L 286.354443 582.012211 
L 292.054137 579.557571 
L 297.75383 576.87556 
L 303.453524 573.948919 
L 309.153218 570.75985 
L 314.852911 567.290165 
L 320.552605 563.521476 
L 326.252298 559.435423 
L 331.951992 555.013955 
L 337.651685 550.239645 
L 343.351379 545.096067 
L 349.051073 539.568197 
L 354.750766 533.642871 
L 360.45046 527.309261 
L 366.150153 520.559375 
L 371.849847 513.388554 
L 377.54954 505.795967 
L 383.249234 497.78505 
L 388.948927 489.363905 
L 394.648621 480.545596 
L 400.348315 471.34835 
L 406.048008 461.795615 
L 411.747702 451.915979 
L 417.447395 441.742927 
L 423.147089 431.314432 
L 428.846782 420.672395 
L 434.546476 409.861943 
L 440.24617 398.930603 
L 445.945863 387.927405 
L 451.645557 376.901924 
L 457.34525 365.903322 
L 463.044944 354.979421 
L 468.744637 344.175845 
L 474.444331 333.535267 
L 480.144025 323.096783 
L 485.843718 312.89542 
L 491.543412 302.961806 
L 497.243105 293.321978 
L 502.942799 283.997334 
L 508.642492 275.004708 
L 514.342186 266.356554 
L 520.041879 258.061208 
L 525.741573 250.123226 
L 531.441267 242.543751 
L 537.14096 235.320917 
L 542.840654 228.450256 
L 548.540347 221.925091 
L 554.240041 215.736927 
L 559.939734 209.875807 
L 565.639428 204.330639 
L 571.339122 199.089491 
L 577.038815 194.139855 
L 582.738509 189.468868 
L 588.438202 185.063508 
L 594.137896 180.910754 
L 599.837589 176.997722 
L 605.537283 173.311767 
L 611.236977 169.840572 
L 616.93667 166.572212 
L 622.636364 163.495198 
" style="fill:none;stroke:#2ca02c;stroke-linecap:square;stroke-width:1.5;"/>
   </g>
   <g id="line2d_24">
    <path clip-path="url(#p7d03ff4aa1)" d="M 115.363636 605.290909 
L 121.06333 605.131926 
L 126.763023 604.95683 
L 132.462717 604.764245 
L 138.162411 604.552678 
L 143.862104 604.320515 
L 149.561798 604.066004 
L 155.261491 603.78725 
L 160.961185 603.482202 
L 166.660878 603.148641 
L 172.360572 602.784168 
L 178.060266 602.386188 
L 183.759959 601.9519 
L 189.459653 601.478278 
L 195.159346 600.962055 
L 200.85904 600.399712 
L 206.558733 599.787454 
L 212.258427 599.121194 
L 217.958121 598.396538 
L 223.657814 597.608759 
L 229.357508 596.752785 
L 235.057201 595.823175 
L 240.756895 594.814097 
L 246.456588 593.719317 
L 252.156282 592.53217 
L 257.855975 591.24555 
L 263.555669 589.851891 
L 269.255363 588.343152 
L 274.955056 586.710803 
L 280.65475 584.945822 
L 286.354443 583.038686 
L 292.054137 580.979372 
L 297.75383 578.757363 
L 303.453524 576.361661 
L 309.153218 573.780811 
L 314.852911 571.002926 
L 320.552605 568.015734 
L 326.252298 564.806627 
L 331.951992 561.362732 
L 337.651685 557.670987 
L 343.351379 553.718243 
L 349.051073 549.491377 
L 354.750766 544.977423 
L 360.45046 540.163723 
L 366.150153 535.038096 
L 371.849847 529.589024 
L 377.54954 523.805852 
L 383.249234 517.679008 
L 388.948927 511.20023 
L 394.648621 504.362806 
L 400.348315 497.161808 
L 406.048008 489.594336 
L 411.747702 481.659744 
L 417.447395 473.359858 
L 423.147089 464.69916 
L 428.846782 455.684955 
L 434.546476 446.327484 
L 440.24617 436.640007 
L 445.945863 426.638813 
L 451.645557 416.343195 
L 457.34525 405.775342 
L 463.044944 394.960181 
L 468.744637 383.925154 
L 474.444331 372.699933 
L 480.144025 361.316087 
L 485.843718 349.806694 
L 491.543412 338.205934 
L 497.243105 326.548638 
L 502.942799 314.869845 
L 508.642492 303.204346 
L 514.342186 291.586249 
L 520.041879 280.048569 
L 525.741573 268.622854 
L 531.441267 257.338854 
L 537.14096 246.224243 
L 542.840654 235.304394 
L 548.540347 224.602213 
L 554.240041 214.138029 
L 559.939734 203.929538 
L 565.639428 193.991795 
L 571.339122 184.337259 
L 577.038815 174.975871 
L 582.738509 165.915165 
L 588.438202 157.160412 
L 594.137896 148.714775 
L 599.837589 140.579485 
L 605.537283 132.754027 
L 611.236977 125.236316 
L 616.93667 118.022892 
L 622.636364 111.109091 
" style="fill:none;stroke:#d62728;stroke-linecap:square;stroke-width:1.5;"/>
   </g>
   <g id="line2d_25">
    <path clip-path="url(#p7d03ff4aa1)" d="M 115.363636 605.290909 
L 121.06333 605.274951 
L 126.763023 605.230847 
L 132.462717 605.162719 
L 138.162411 605.073078 
L 143.862104 604.963226 
L 149.561798 604.833542 
L 155.261491 604.68368 
L 160.961185 604.512699 
L 166.660878 604.319158 
L 172.360572 604.101167 
L 178.060266 603.856421 
L 183.759959 603.582206 
L 189.459653 603.275399 
L 195.159346 602.932458 
L 200.85904 602.549389 
L 206.558733 602.121725 
L 212.258427 601.64448 
L 217.958121 601.112113 
L 223.657814 600.518475 
L 229.357508 599.856756 
L 235.057201 599.119434 
L 240.756895 598.298205 
L 246.456588 597.383931 
L 252.156282 596.366568 
L 257.855975 595.235103 
L 263.555669 593.97749 
L 269.255363 592.580591 
L 274.955056 591.030118 
L 280.65475 589.310586 
L 286.354443 587.405277 
L 292.054137 585.296224 
L 297.75383 582.964214 
L 303.453524 580.388814 
L 309.153218 577.54844 
L 314.852911 574.420463 
L 320.552605 570.981365 
L 326.252298 567.206949 
L 331.951992 563.072628 
L 337.651685 558.553769 
L 343.351379 553.626131 
L 349.051073 548.266381 
L 354.750766 542.452687 
L 360.45046 536.165402 
L 366.150153 529.387806 
L 371.849847 522.106905 
L 377.54954 514.314262 
L 383.249234 506.006815 
L 388.948927 497.187665 
L 394.648621 487.866773 
L 400.348315 478.061516 
L 406.048008 467.797074 
L 411.747702 457.106579 
L 417.447395 446.031003 
L 423.147089 434.618753 
L 428.846782 422.92498 
L 434.546476 411.010594 
L 440.24617 398.941031 
L 445.945863 386.784816 
L 451.645557 374.611994 
L 457.34525 362.492503 
L 463.044944 350.494561 
L 468.744637 338.683164 
L 474.444331 327.118744 
L 480.144025 315.856053 
L 485.843718 304.943305 
L 491.543412 294.421591 
L 497.243105 284.324578 
L 502.942799 274.678456 
L 508.642492 265.502123 
L 514.342186 256.807559 
L 520.041879 248.60035 
L 525.741573 240.88032 
L 531.441267 233.642233 
L 537.14096 226.876517 
L 542.840654 220.569995 
L 548.540347 214.706588 
L 554.240041 209.267972 
L 559.939734 204.234179 
L 565.639428 199.584133 
L 571.339122 195.296122 
L 577.038815 191.348192 
L 582.738509 187.718487 
L 588.438202 184.385519 
L 594.137896 181.328385 
L 599.837589 178.526933 
L 605.537283 175.961889 
L 611.236977 173.614937 
L 616.93667 171.468778 
L 622.636364 169.507152 
" style="fill:none;stroke:#9467bd;stroke-linecap:square;stroke-width:1.5;"/>
   </g>
   <g id="line2d_26">
    <path clip-path="url(#p7d03ff4aa1)" d="M 115.363636 605.290909 
L 121.06333 605.272545 
L 126.763023 605.220496 
L 132.462717 605.138051 
L 138.162411 605.027093 
L 143.862104 604.88839 
L 149.561798 604.721803 
L 155.261491 604.52644 
L 160.961185 604.300756 
L 166.660878 604.042627 
L 172.360572 603.749388 
L 178.060266 603.417862 
L 183.759959 603.044359 
L 189.459653 602.624674 
L 195.159346 602.154069 
L 200.85904 601.627247 
L 206.558733 601.03832 
L 212.258427 600.380771 
L 217.958121 599.647416 
L 223.657814 598.830353 
L 229.357508 597.920923 
L 235.057201 596.909656 
L 240.756895 595.78623 
L 246.456588 594.539423 
L 252.156282 593.157078 
L 257.855975 591.626072 
L 263.555669 589.93229 
L 269.255363 588.060624 
L 274.955056 585.994977 
L 280.65475 583.718301 
L 286.354443 581.212653 
L 292.054137 578.459288 
L 297.75383 575.438788 
L 303.453524 572.131237 
L 309.153218 568.516444 
L 314.852911 564.574218 
L 320.552605 560.284703 
L 326.252298 555.628772 
L 331.951992 550.588476 
L 337.651685 545.147552 
L 343.351379 539.29197 
L 349.051073 533.010526 
L 354.750766 526.295438 
L 360.45046 519.142948 
L 366.150153 511.553887 
L 371.849847 503.534181 
L 377.54954 495.095259 
L 383.249234 486.25435 
L 388.948927 477.034606 
L 394.648621 467.46507 
L 400.348315 457.580432 
L 406.048008 447.420603 
L 411.747702 437.030086 
L 417.447395 426.457182 
L 423.147089 415.753051 
L 428.846782 404.970668 
L 434.546476 394.16373 
L 440.24617 383.385551 
L 445.945863 372.687998 
L 451.645557 362.12052 
L 457.34525 351.729296 
L 463.044944 341.556531 
L 468.744637 331.639924 
L 474.444331 322.012302 
L 480.144025 312.701425 
L 485.843718 303.729945 
L 491.543412 295.115505 
L 497.243105 286.870947 
L 502.942799 279.004619 
L 508.642492 271.520742 
L 514.342186 264.419822 
L 520.041879 257.699091 
L 525.741573 251.352949 
L 531.441267 245.373399 
L 537.14096 239.750463 
L 542.840654 234.472575 
L 548.540347 229.526935 
L 554.240041 224.89983 
L 559.939734 220.576922 
L 565.639428 216.543494 
L 571.339122 212.784664 
L 577.038815 209.285564 
L 582.738509 206.031492 
L 588.438202 203.008032 
L 594.137896 200.201151 
L 599.837589 197.597277 
L 605.537283 195.183352 
L 611.236977 192.946876 
L 616.93667 190.875933 
L 622.636364 188.959201 
" style="fill:none;stroke:#8c564b;stroke-linecap:square;stroke-width:1.5;"/>
   </g>
   <g id="line2d_27">
    <path clip-path="url(#p7d03ff4aa1)" d="M 115.363636 605.290909 
L 121.06333 605.279054 
L 126.763023 605.245199 
L 132.462717 605.19121 
L 138.162411 605.118154 
L 143.862104 605.026431 
L 149.561798 604.915872 
L 155.261491 604.785809 
L 160.961185 604.635122 
L 166.660878 604.462268 
L 172.360572 604.265292 
L 178.060266 604.041835 
L 183.759959 603.789118 
L 189.459653 603.503929 
L 195.159346 603.182594 
L 200.85904 602.820946 
L 206.558733 602.414282 
L 212.258427 601.957317 
L 217.958121 601.444132 
L 223.657814 600.868117 
L 229.357508 600.221903 
L 235.057201 599.497299 
L 240.756895 598.685214 
L 246.456588 597.775588 
L 252.156282 596.75731 
L 257.855975 595.618141 
L 263.555669 594.344644 
L 269.255363 592.922106 
L 274.955056 591.33448 
L 280.65475 589.564338 
L 286.354443 587.592835 
L 292.054137 585.399702 
L 297.75383 582.963276 
L 303.453524 580.260557 
L 309.153218 577.267325 
L 314.852911 573.958307 
L 320.552605 570.307423 
L 326.252298 566.288099 
L 331.951992 561.873674 
L 337.651685 557.037893 
L 343.351379 551.755507 
L 349.051073 546.002954 
L 354.750766 539.759135 
L 360.45046 533.006256 
L 366.150153 525.730717 
L 371.849847 517.924018 
L 377.54954 509.583633 
L 383.249234 500.713811 
L 388.948927 491.326247 
L 394.648621 481.44057 
L 400.348315 471.084601 
L 406.048008 460.294336 
L 411.747702 449.113631 
L 417.447395 437.593577 
L 423.147089 425.791582 
L 428.846782 413.770186 
L 434.546476 401.595673 
L 440.24617 389.336533 
L 445.945863 377.061871 
L 451.645557 364.839819 
L 457.34525 352.736055 
L 463.044944 340.812464 
L 468.744637 329.126022 
L 474.444331 317.727913 
L 480.144025 306.662901 
L 485.843718 295.968969 
L 491.543412 285.677183 
L 497.243105 275.811783 
L 502.942799 266.390442 
L 508.642492 257.424679 
L 514.342186 248.920368 
L 520.041879 240.878321 
L 525.741573 233.294907 
L 531.441267 226.162681 
L 537.14096 219.471005 
L 542.840654 213.206634 
L 548.540347 207.354263 
L 554.240041 201.897032 
L 559.939734 196.816966 
L 565.639428 192.095368 
L 571.339122 187.713158 
L 577.038815 183.651157 
L 582.738509 179.890328 
L 588.438202 176.411964 
L 594.137896 173.197847 
L 599.837589 170.230367 
L 605.537283 167.492611 
L 611.236977 164.968426 
L 616.93667 162.64246 
L 622.636364 160.500187 
" style="fill:none;stroke:#e377c2;stroke-linecap:square;stroke-width:1.5;"/>
   </g>
   <g id="line2d_28">
    <path clip-path="url(#p7d03ff4aa1)" d="M 115.363636 605.290909 
L 121.06333 605.25902 
L 126.763023 605.176454 
L 132.462717 605.056061 
L 138.162411 604.904551 
L 143.862104 604.724898 
L 149.561798 604.517746 
L 155.261491 604.282236 
L 160.961185 604.016479 
L 166.660878 603.717826 
L 172.360572 603.383008 
L 178.060266 603.008209 
L 183.759959 602.589091 
L 189.459653 602.120784 
L 195.159346 601.59787 
L 200.85904 601.014352 
L 206.558733 600.36361 
L 212.258427 599.638361 
L 217.958121 598.830617 
L 223.657814 597.931634 
L 229.357508 596.93187 
L 235.057201 595.820949 
L 240.756895 594.587623 
L 246.456588 593.219751 
L 252.156282 591.704281 
L 257.855975 590.027258 
L 263.555669 588.173847 
L 269.255363 586.128379 
L 274.955056 583.874431 
L 280.65475 581.394943 
L 286.354443 578.672374 
L 292.054137 575.688903 
L 297.75383 572.426693 
L 303.453524 568.868196 
L 309.153218 564.996528 
L 314.852911 560.795896 
L 320.552605 556.252081 
L 326.252298 551.352962 
L 331.951992 546.089079 
L 337.651685 540.45421 
L 343.351379 534.445934 
L 349.051073 528.066168 
L 354.750766 521.321635 
L 360.45046 514.224235 
L 366.150153 506.791281 
L 371.849847 499.045587 
L 377.54954 491.015369 
L 383.249234 482.733949 
L 388.948927 474.239275 
L 394.648621 465.573244 
L 400.348315 456.780874 
L 406.048008 447.909344 
L 411.747702 439.006955 
L 417.447395 430.122058 
L 423.147089 421.301999 
L 428.846782 412.592135 
L 434.546476 404.034953 
L 440.24617 395.669333 
L 445.945863 387.529971 
L 451.645557 379.646981 
L 457.34525 372.045658 
L 463.044944 364.746417 
L 468.744637 357.764864 
L 474.444331 351.111997 
L 480.144025 344.794505 
L 485.843718 338.815136 
L 491.543412 333.173116 
L 497.243105 327.864591 
L 502.942799 322.883078 
L 508.642492 318.219906 
L 514.342186 313.864636 
L 520.041879 309.805452 
L 525.741573 306.029517 
L 531.441267 302.523285 
L 537.14096 299.272784 
L 542.840654 296.263844 
L 548.540347 293.482306 
L 554.240041 290.914181 
L 559.939734 288.545785 
L 565.639428 286.363842 
L 571.339122 284.355565 
L 577.038815 282.508712 
L 582.738509 280.811629 
L 588.438202 279.253269 
L 594.137896 277.823209 
L 599.837589 276.511645 
L 605.537283 275.309389 
L 611.236977 274.207853 
L 616.93667 273.19903 
L 622.636364 272.275473 
" style="fill:none;stroke:#7f7f7f;stroke-linecap:square;stroke-width:1.5;"/>
   </g>
   <g id="line2d_29">
    <path clip-path="url(#p7d03ff4aa1)" d="M 115.363636 605.290909 
L 121.06333 605.288931 
L 126.763023 605.283164 
L 132.462717 605.273721 
L 138.162411 605.260546 
L 143.862104 605.243433 
L 149.561798 605.222037 
L 155.261491 605.195872 
L 160.961185 605.164309 
L 166.660878 605.126568 
L 172.360572 605.081701 
L 178.060266 605.028574 
L 183.759959 604.96584 
L 189.459653 604.891911 
L 195.159346 604.804918 
L 200.85904 604.70267 
L 206.558733 604.582601 
L 212.258427 604.44171 
L 217.958121 604.276492 
L 223.657814 604.082858 
L 229.357508 603.856039 
L 235.057201 603.590483 
L 240.756895 603.279731 
L 246.456588 602.916276 
L 252.156282 602.491411 
L 257.855975 601.995051 
L 263.555669 601.415533 
L 269.255363 600.739409 
L 274.955056 599.951204 
L 280.65475 599.03317 
L 286.354443 597.965023 
L 292.054137 596.723682 
L 297.75383 595.283008 
L 303.453524 593.613573 
L 309.153218 591.682475 
L 314.852911 589.453221 
L 320.552605 586.885719 
L 326.252298 583.936427 
L 331.951992 580.558684 
L 337.651685 576.703304 
L 343.351379 572.319451 
L 349.051073 567.355864 
L 354.750766 561.762431 
L 360.45046 555.49213 
L 366.150153 548.503282 
L 371.849847 540.762029 
L 377.54954 532.244902 
L 383.249234 522.941283 
L 388.948927 512.855543 
L 394.648621 502.008621 
L 400.348315 490.438842 
L 406.048008 478.201809 
L 411.747702 465.369319 
L 417.447395 452.027337 
L 423.147089 438.273165 
L 428.846782 424.212045 
L 434.546476 409.953461 
L 440.24617 395.60743 
L 445.945863 381.281056 
L 451.645557 367.075528 
L 457.34525 353.083722 
L 463.044944 339.388455 
L 468.744637 326.061388 
L 474.444331 313.162537 
L 480.144025 300.74029 
L 485.843718 288.831841 
L 491.543412 277.463927 
L 497.243105 266.653773 
L 502.942799 256.410159 
L 508.642492 246.734531 
L 514.342186 237.622109 
L 520.041879 229.062943 
L 525.741573 221.042903 
L 531.441267 213.544571 
L 537.14096 206.548036 
L 542.840654 200.031587 
L 548.540347 193.972309 
L 554.240041 188.346589 
L 559.939734 183.130533 
L 565.639428 178.300308 
L 571.339122 173.832417 
L 577.038815 169.703918 
L 582.738509 165.892587 
L 588.438202 162.377043 
L 594.137896 159.136833 
L 599.837589 156.152491 
L 605.537283 153.405568 
L 611.236977 150.878649 
L 616.93667 148.555344 
L 622.636364 146.420278 
" style="fill:none;stroke:#bcbd22;stroke-linecap:square;stroke-width:1.5;"/>
   </g>
   <g id="line2d_30">
    <path clip-path="url(#p7d03ff4aa1)" d="M 115.363636 605.290909 
L 121.06333 605.290909 
L 126.763023 605.290909 
L 132.462717 605.231208 
L 138.162411 605.231208 
L 143.862104 605.171506 
L 149.561798 605.111805 
L 155.261491 605.111805 
L 160.961185 605.111805 
L 166.660878 605.111805 
L 172.360572 605.111805 
L 178.060266 605.111805 
L 183.759959 605.111805 
L 189.459653 605.111805 
L 195.159346 605.111805 
L 200.85904 605.111805 
L 206.558733 605.111805 
L 212.258427 605.111805 
L 217.958121 605.111805 
L 223.657814 605.111805 
L 229.357508 605.111805 
L 235.057201 605.111805 
L 240.756895 605.111805 
L 246.456588 605.111805 
L 252.156282 605.111805 
L 257.855975 605.111805 
L 263.555669 605.111805 
L 269.255363 605.111805 
L 274.955056 604.514789 
L 280.65475 604.395386 
L 286.354443 604.216282 
L 292.054137 603.678968 
L 297.75383 602.902848 
L 303.453524 602.723744 
L 309.153218 602.425236 
L 314.852911 602.246131 
L 320.552605 601.470012 
L 326.252298 600.574489 
L 331.951992 599.619264 
L 337.651685 598.365532 
L 343.351379 598.365532 
L 349.051073 594.067023 
L 354.750766 591.081947 
L 360.45046 588.275975 
L 366.150153 583.499853 
L 371.849847 579.022239 
L 377.54954 572.096862 
L 383.249234 565.35059 
L 388.948927 558.783423 
L 394.648621 542.066996 
L 400.348315 513.529668 
L 406.048008 505.589366 
L 411.747702 483.977414 
L 417.447395 464.872927 
L 423.147089 438.246048 
L 428.846782 418.36544 
L 434.546476 388.693783 
L 440.24617 368.15646 
L 445.945863 345.648985 
L 451.645557 333.828084 
L 457.34525 315.738522 
L 463.044944 300.574335 
L 468.744637 287.79821 
L 474.444331 274.663874 
L 480.144025 266.484766 
L 485.843718 259.917598 
L 491.543412 254.066849 
L 497.243105 247.201174 
L 502.942799 241.350425 
L 508.642492 234.962362 
L 514.342186 229.708628 
L 520.041879 228.992209 
L 525.741573 226.842955 
L 531.441267 223.022057 
L 537.14096 221.529519 
L 542.840654 220.216085 
L 548.540347 216.633994 
L 554.240041 213.887724 
L 559.939734 211.38026 
L 565.639428 210.60414 
L 571.339122 209.290707 
L 577.038815 208.872796 
L 582.738509 208.275781 
L 588.438202 207.380258 
L 594.137896 206.365332 
L 599.837589 205.171302 
L 605.537283 204.753391 
L 611.236977 203.380256 
L 616.93667 202.902644 
L 622.636364 202.066822 
" style="fill:none;stroke:#17becf;stroke-dasharray:14.8,6.4;stroke-dashoffset:0;stroke-width:4;"/>
   </g>
   <g id="patch_3">
    <path d="M 90 630 
L 90 86.4 
" style="fill:none;stroke:#000000;stroke-linecap:square;stroke-linejoin:miter;stroke-width:0.8;"/>
   </g>
   <g id="patch_4">
    <path d="M 648 630 
L 648 86.4 
" style="fill:none;stroke:#000000;stroke-linecap:square;stroke-linejoin:miter;stroke-width:0.8;"/>
   </g>
   <g id="patch_5">
    <path d="M 90 630 
L 648 630 
" style="fill:none;stroke:#000000;stroke-linecap:square;stroke-linejoin:miter;stroke-width:0.8;"/>
   </g>
   <g id="patch_6">
    <path d="M 90 86.4 
L 648 86.4 
" style="fill:none;stroke:#000000;stroke-linecap:square;stroke-linejoin:miter;stroke-width:0.8;"/>
   </g>
   <g id="text_13">
    <!-- Australia relative err =  -->
    <g transform="translate(298.656563 80.4)scale(0.12 -0.12)">
     <defs>
      <path d="M 34.1875 63.1875 
L 20.796875 26.90625 
L 47.609375 26.90625 
z
M 28.609375 72.90625 
L 39.796875 72.90625 
L 67.578125 0 
L 57.328125 0 
L 50.6875 18.703125 
L 17.828125 18.703125 
L 11.1875 0 
L 0.78125 0 
z
" id="DejaVuSans-65"/>
      <path d="M 41.109375 46.296875 
Q 39.59375 47.171875 37.8125 47.578125 
Q 36.03125 48 33.890625 48 
Q 26.265625 48 22.1875 43.046875 
Q 18.109375 38.09375 18.109375 28.8125 
L 18.109375 0 
L 9.078125 0 
L 9.078125 54.6875 
L 18.109375 54.6875 
L 18.109375 46.1875 
Q 20.953125 51.171875 25.484375 53.578125 
Q 30.03125 56 36.53125 56 
Q 37.453125 56 38.578125 55.875 
Q 39.703125 55.765625 41.0625 55.515625 
z
" id="DejaVuSans-114"/>
      <path d="M 10.59375 45.40625 
L 73.1875 45.40625 
L 73.1875 37.203125 
L 10.59375 37.203125 
z
M 10.59375 25.484375 
L 73.1875 25.484375 
L 73.1875 17.1875 
L 10.59375 17.1875 
z
" id="DejaVuSans-61"/>
     </defs>
     <use xlink:href="#DejaVuSans-65"/>
     <use x="68.408203" xlink:href="#DejaVuSans-117"/>
     <use x="131.787109" xlink:href="#DejaVuSans-115"/>
     <use x="183.886719" xlink:href="#DejaVuSans-116"/>
     <use x="223.095703" xlink:href="#DejaVuSans-114"/>
     <use x="264.208984" xlink:href="#DejaVuSans-97"/>
     <use x="325.488281" xlink:href="#DejaVuSans-108"/>
     <use x="353.271484" xlink:href="#DejaVuSans-105"/>
     <use x="381.054688" xlink:href="#DejaVuSans-97"/>
     <use x="442.333984" xlink:href="#DejaVuSans-32"/>
     <use x="474.121094" xlink:href="#DejaVuSans-114"/>
     <use x="512.984375" xlink:href="#DejaVuSans-101"/>
     <use x="574.507812" xlink:href="#DejaVuSans-108"/>
     <use x="602.291016" xlink:href="#DejaVuSans-97"/>
     <use x="663.570312" xlink:href="#DejaVuSans-116"/>
     <use x="702.779297" xlink:href="#DejaVuSans-105"/>
     <use x="730.5625" xlink:href="#DejaVuSans-118"/>
     <use x="789.742188" xlink:href="#DejaVuSans-101"/>
     <use x="851.265625" xlink:href="#DejaVuSans-32"/>
     <use x="883.052734" xlink:href="#DejaVuSans-101"/>
     <use x="944.576172" xlink:href="#DejaVuSans-114"/>
     <use x="983.939453" xlink:href="#DejaVuSans-114"/>
     <use x="1025.052734" xlink:href="#DejaVuSans-32"/>
     <use x="1056.839844" xlink:href="#DejaVuSans-61"/>
     <use x="1140.628906" xlink:href="#DejaVuSans-32"/>
    </g>
   </g>
   <g id="legend_1">
    <g id="patch_7">
     <path d="M 97 226.503125 
L 185.6 226.503125 
Q 187.6 226.503125 187.6 224.503125 
L 187.6 93.4 
Q 187.6 91.4 185.6 91.4 
L 97 91.4 
Q 95 91.4 95 93.4 
L 95 224.503125 
Q 95 226.503125 97 226.503125 
z
" style="fill:#ffffff;opacity:0.8;stroke:#cccccc;stroke-linejoin:miter;"/>
    </g>
    <g id="line2d_31">
     <path d="M 99 99.498438 
L 119 99.498438 
" style="fill:none;stroke:#1f77b4;stroke-linecap:square;stroke-width:1.5;"/>
    </g>
    <g id="line2d_32"/>
    <g id="text_14">
     <!-- SI -->
     <g transform="translate(127 102.998438)scale(0.1 -0.1)">
      <defs>
       <path d="M 53.515625 70.515625 
L 53.515625 60.890625 
Q 47.90625 63.578125 42.921875 64.890625 
Q 37.9375 66.21875 33.296875 66.21875 
Q 25.25 66.21875 20.875 63.09375 
Q 16.5 59.96875 16.5 54.203125 
Q 16.5 49.359375 19.40625 46.890625 
Q 22.3125 44.4375 30.421875 42.921875 
L 36.375 41.703125 
Q 47.40625 39.59375 52.65625 34.296875 
Q 57.90625 29 57.90625 20.125 
Q 57.90625 9.515625 50.796875 4.046875 
Q 43.703125 -1.421875 29.984375 -1.421875 
Q 24.8125 -1.421875 18.96875 -0.25 
Q 13.140625 0.921875 6.890625 3.21875 
L 6.890625 13.375 
Q 12.890625 10.015625 18.65625 8.296875 
Q 24.421875 6.59375 29.984375 6.59375 
Q 38.421875 6.59375 43.015625 9.90625 
Q 47.609375 13.234375 47.609375 19.390625 
Q 47.609375 24.75 44.3125 27.78125 
Q 41.015625 30.8125 33.5 32.328125 
L 27.484375 33.5 
Q 16.453125 35.6875 11.515625 40.375 
Q 6.59375 45.0625 6.59375 53.421875 
Q 6.59375 63.09375 13.40625 68.65625 
Q 20.21875 74.21875 32.171875 74.21875 
Q 37.3125 74.21875 42.625 73.28125 
Q 47.953125 72.359375 53.515625 70.515625 
z
" id="DejaVuSans-83"/>
       <path d="M 9.8125 72.90625 
L 19.671875 72.90625 
L 19.671875 0 
L 9.8125 0 
z
" id="DejaVuSans-73"/>
      </defs>
      <use xlink:href="#DejaVuSans-83"/>
      <use x="63.476562" xlink:href="#DejaVuSans-73"/>
     </g>
    </g>
    <g id="line2d_33">
     <path d="M 99 114.176563 
L 119 114.176563 
" style="fill:none;stroke:#ff7f0e;stroke-linecap:square;stroke-width:1.5;"/>
    </g>
    <g id="line2d_34"/>
    <g id="text_15">
     <!-- BD -->
     <g transform="translate(127 117.676563)scale(0.1 -0.1)">
      <defs>
       <path d="M 19.671875 34.8125 
L 19.671875 8.109375 
L 35.5 8.109375 
Q 43.453125 8.109375 47.28125 11.40625 
Q 51.125 14.703125 51.125 21.484375 
Q 51.125 28.328125 47.28125 31.5625 
Q 43.453125 34.8125 35.5 34.8125 
z
M 19.671875 64.796875 
L 19.671875 42.828125 
L 34.28125 42.828125 
Q 41.5 42.828125 45.03125 45.53125 
Q 48.578125 48.25 48.578125 53.8125 
Q 48.578125 59.328125 45.03125 62.0625 
Q 41.5 64.796875 34.28125 64.796875 
z
M 9.8125 72.90625 
L 35.015625 72.90625 
Q 46.296875 72.90625 52.390625 68.21875 
Q 58.5 63.53125 58.5 54.890625 
Q 58.5 48.1875 55.375 44.234375 
Q 52.25 40.28125 46.1875 39.3125 
Q 53.46875 37.75 57.5 32.78125 
Q 61.53125 27.828125 61.53125 20.40625 
Q 61.53125 10.640625 54.890625 5.3125 
Q 48.25 0 35.984375 0 
L 9.8125 0 
z
" id="DejaVuSans-66"/>
      </defs>
      <use xlink:href="#DejaVuSans-66"/>
      <use x="68.603516" xlink:href="#DejaVuSans-68"/>
     </g>
    </g>
    <g id="line2d_35">
     <path d="M 99 128.854688 
L 119 128.854688 
" style="fill:none;stroke:#2ca02c;stroke-linecap:square;stroke-width:1.5;"/>
    </g>
    <g id="line2d_36"/>
    <g id="text_16">
     <!-- SIR -->
     <g transform="translate(127 132.354688)scale(0.1 -0.1)">
      <defs>
       <path d="M 44.390625 34.1875 
Q 47.5625 33.109375 50.5625 29.59375 
Q 53.5625 26.078125 56.59375 19.921875 
L 66.609375 0 
L 56 0 
L 46.6875 18.703125 
Q 43.0625 26.03125 39.671875 28.421875 
Q 36.28125 30.8125 30.421875 30.8125 
L 19.671875 30.8125 
L 19.671875 0 
L 9.8125 0 
L 9.8125 72.90625 
L 32.078125 72.90625 
Q 44.578125 72.90625 50.734375 67.671875 
Q 56.890625 62.453125 56.890625 51.90625 
Q 56.890625 45.015625 53.6875 40.46875 
Q 50.484375 35.9375 44.390625 34.1875 
z
M 19.671875 64.796875 
L 19.671875 38.921875 
L 32.078125 38.921875 
Q 39.203125 38.921875 42.84375 42.21875 
Q 46.484375 45.515625 46.484375 51.90625 
Q 46.484375 58.296875 42.84375 61.546875 
Q 39.203125 64.796875 32.078125 64.796875 
z
" id="DejaVuSans-82"/>
      </defs>
      <use xlink:href="#DejaVuSans-83"/>
      <use x="63.476562" xlink:href="#DejaVuSans-73"/>
      <use x="92.96875" xlink:href="#DejaVuSans-82"/>
     </g>
    </g>
    <g id="line2d_37">
     <path d="M 99 143.532812 
L 119 143.532812 
" style="fill:none;stroke:#d62728;stroke-linecap:square;stroke-width:1.5;"/>
    </g>
    <g id="line2d_38"/>
    <g id="text_17">
     <!-- eSIR -->
     <g transform="translate(127 147.032812)scale(0.1 -0.1)">
      <use xlink:href="#DejaVuSans-101"/>
      <use x="61.523438" xlink:href="#DejaVuSans-83"/>
      <use x="125" xlink:href="#DejaVuSans-73"/>
      <use x="154.492188" xlink:href="#DejaVuSans-82"/>
     </g>
    </g>
    <g id="line2d_39">
     <path d="M 99 158.210938 
L 119 158.210938 
" style="fill:none;stroke:#9467bd;stroke-linecap:square;stroke-width:1.5;"/>
    </g>
    <g id="line2d_40"/>
    <g id="text_18">
     <!-- SEIR -->
     <g transform="translate(127 161.710938)scale(0.1 -0.1)">
      <defs>
       <path d="M 9.8125 72.90625 
L 55.90625 72.90625 
L 55.90625 64.59375 
L 19.671875 64.59375 
L 19.671875 43.015625 
L 54.390625 43.015625 
L 54.390625 34.71875 
L 19.671875 34.71875 
L 19.671875 8.296875 
L 56.78125 8.296875 
L 56.78125 0 
L 9.8125 0 
z
" id="DejaVuSans-69"/>
      </defs>
      <use xlink:href="#DejaVuSans-83"/>
      <use x="63.476562" xlink:href="#DejaVuSans-69"/>
      <use x="126.660156" xlink:href="#DejaVuSans-73"/>
      <use x="156.152344" xlink:href="#DejaVuSans-82"/>
     </g>
    </g>
    <g id="line2d_41">
     <path d="M 99 172.889063 
L 119 172.889063 
" style="fill:none;stroke:#8c564b;stroke-linecap:square;stroke-width:1.5;"/>
    </g>
    <g id="line2d_42"/>
    <g id="text_19">
     <!-- eSEIR -->
     <g transform="translate(127 176.389063)scale(0.1 -0.1)">
      <use xlink:href="#DejaVuSans-101"/>
      <use x="61.523438" xlink:href="#DejaVuSans-83"/>
      <use x="125" xlink:href="#DejaVuSans-69"/>
      <use x="188.183594" xlink:href="#DejaVuSans-73"/>
      <use x="217.675781" xlink:href="#DejaVuSans-82"/>
     </g>
    </g>
    <g id="line2d_43">
     <path d="M 99 187.567188 
L 119 187.567188 
" style="fill:none;stroke:#e377c2;stroke-linecap:square;stroke-width:1.5;"/>
    </g>
    <g id="line2d_44"/>
    <g id="text_20">
     <!-- SEIUR -->
     <g transform="translate(127 191.067188)scale(0.1 -0.1)">
      <defs>
       <path d="M 8.6875 72.90625 
L 18.609375 72.90625 
L 18.609375 28.609375 
Q 18.609375 16.890625 22.84375 11.734375 
Q 27.09375 6.59375 36.625 6.59375 
Q 46.09375 6.59375 50.34375 11.734375 
Q 54.59375 16.890625 54.59375 28.609375 
L 54.59375 72.90625 
L 64.5 72.90625 
L 64.5 27.390625 
Q 64.5 13.140625 57.4375 5.859375 
Q 50.390625 -1.421875 36.625 -1.421875 
Q 22.796875 -1.421875 15.734375 5.859375 
Q 8.6875 13.140625 8.6875 27.390625 
z
" id="DejaVuSans-85"/>
      </defs>
      <use xlink:href="#DejaVuSans-83"/>
      <use x="63.476562" xlink:href="#DejaVuSans-69"/>
      <use x="126.660156" xlink:href="#DejaVuSans-73"/>
      <use x="156.152344" xlink:href="#DejaVuSans-85"/>
      <use x="229.345703" xlink:href="#DejaVuSans-82"/>
     </g>
    </g>
    <g id="line2d_45">
     <path d="M 99 202.245312 
L 119 202.245312 
" style="fill:none;stroke:#7f7f7f;stroke-linecap:square;stroke-width:1.5;"/>
    </g>
    <g id="line2d_46"/>
    <g id="text_21">
     <!-- eSEIUR -->
     <g transform="translate(127 205.745312)scale(0.1 -0.1)">
      <use xlink:href="#DejaVuSans-101"/>
      <use x="61.523438" xlink:href="#DejaVuSans-83"/>
      <use x="125" xlink:href="#DejaVuSans-69"/>
      <use x="188.183594" xlink:href="#DejaVuSans-73"/>
      <use x="217.675781" xlink:href="#DejaVuSans-85"/>
      <use x="290.869141" xlink:href="#DejaVuSans-82"/>
     </g>
    </g>
    <g id="line2d_47">
     <path d="M 99 216.923437 
L 119 216.923437 
" style="fill:none;stroke:#bcbd22;stroke-linecap:square;stroke-width:1.5;"/>
    </g>
    <g id="line2d_48"/>
    <g id="text_22">
     <!-- eSEIUR$^{range}$ -->
     <g transform="translate(127 220.423437)scale(0.1 -0.1)">
      <defs>
       <path d="M 44.578125 46.390625 
Q 43.21875 47.125 41.453125 47.515625 
Q 39.703125 47.90625 37.703125 47.90625 
Q 30.515625 47.90625 25.140625 42.453125 
Q 19.78125 37.015625 18.015625 27.875 
L 12.5 0 
L 3.515625 0 
L 14.203125 54.6875 
L 23.1875 54.6875 
L 21.484375 46.1875 
Q 25.046875 50.921875 30 53.453125 
Q 34.96875 56 40.578125 56 
Q 42.046875 56 43.453125 55.828125 
Q 44.875 55.671875 46.296875 55.28125 
z
" id="DejaVuSans-Oblique-114"/>
       <path d="M 53.71875 31.203125 
L 47.609375 0 
L 38.625 0 
L 40.28125 8.296875 
Q 36.328125 3.421875 31.265625 1 
Q 26.21875 -1.421875 20.015625 -1.421875 
Q 13.03125 -1.421875 8.5625 2.84375 
Q 4.109375 7.125 4.109375 13.8125 
Q 4.109375 23.390625 11.75 28.953125 
Q 19.390625 34.515625 32.8125 34.515625 
L 45.3125 34.515625 
L 45.796875 36.921875 
Q 45.90625 37.3125 45.953125 37.765625 
Q 46 38.234375 46 39.203125 
Q 46 43.5625 42.453125 45.96875 
Q 38.921875 48.390625 32.515625 48.390625 
Q 28.125 48.390625 23.5 47.265625 
Q 18.890625 46.140625 14.015625 43.890625 
L 15.578125 52.203125 
Q 20.65625 54.109375 25.515625 55.046875 
Q 30.375 56 34.90625 56 
Q 44.578125 56 49.625 51.796875 
Q 54.6875 47.609375 54.6875 39.59375 
Q 54.6875 37.984375 54.4375 35.8125 
Q 54.203125 33.640625 53.71875 31.203125 
z
M 44 27.484375 
L 35.015625 27.484375 
Q 23.96875 27.484375 18.671875 24.53125 
Q 13.375 21.578125 13.375 15.375 
Q 13.375 11.078125 16.078125 8.640625 
Q 18.796875 6.203125 23.578125 6.203125 
Q 30.90625 6.203125 36.375 11.453125 
Q 41.84375 16.703125 43.609375 25.484375 
z
" id="DejaVuSans-Oblique-97"/>
       <path d="M 55.71875 33.015625 
L 49.3125 0 
L 40.28125 0 
L 46.6875 32.671875 
Q 47.125 34.96875 47.359375 36.71875 
Q 47.609375 38.484375 47.609375 39.5 
Q 47.609375 43.609375 45.015625 45.890625 
Q 42.4375 48.1875 37.796875 48.1875 
Q 30.5625 48.1875 25.34375 43.375 
Q 20.125 38.578125 18.5 30.328125 
L 12.5 0 
L 3.515625 0 
L 14.109375 54.6875 
L 23.09375 54.6875 
L 21.296875 46.09375 
Q 25.046875 50.828125 30.3125 53.40625 
Q 35.59375 56 41.40625 56 
Q 48.640625 56 52.609375 52.09375 
Q 56.59375 48.1875 56.59375 41.109375 
Q 56.59375 39.359375 56.375 37.359375 
Q 56.15625 35.359375 55.71875 33.015625 
z
" id="DejaVuSans-Oblique-110"/>
       <path d="M 59.625 54.6875 
L 50.296875 6.78125 
Q 47.609375 -7.125 40.015625 -13.953125 
Q 32.421875 -20.796875 19.578125 -20.796875 
Q 14.84375 -20.796875 10.78125 -20.09375 
Q 6.734375 -19.390625 3.21875 -17.921875 
L 4.890625 -9.1875 
Q 8.203125 -11.328125 11.90625 -12.34375 
Q 15.625 -13.375 19.828125 -13.375 
Q 28.375 -13.375 33.859375 -8.703125 
Q 39.359375 -4.046875 41.109375 4.6875 
L 41.890625 8.796875 
Q 38.140625 4.5 33.15625 2.25 
Q 28.171875 0 22.40625 0 
Q 14.109375 0 9.34375 5.484375 
Q 4.59375 10.984375 4.59375 20.609375 
Q 4.59375 28.171875 7.46875 35.421875 
Q 10.359375 42.671875 15.578125 48.296875 
Q 19.046875 52 23.65625 54 
Q 28.265625 56 33.296875 56 
Q 38.8125 56 42.90625 53.4375 
Q 47.015625 50.875 49.03125 46.1875 
L 50.59375 54.6875 
z
M 46.09375 34.625 
Q 46.09375 41.265625 42.96875 44.875 
Q 39.84375 48.484375 34.078125 48.484375 
Q 30.515625 48.484375 27.296875 47.0625 
Q 24.078125 45.65625 21.78125 43.109375 
Q 18.0625 38.921875 15.984375 33.234375 
Q 13.921875 27.546875 13.921875 21.484375 
Q 13.921875 14.75 17.0625 11.125 
Q 20.21875 7.515625 26.125 7.515625 
Q 34.671875 7.515625 40.375 15.25 
Q 46.09375 23 46.09375 34.625 
z
" id="DejaVuSans-Oblique-103"/>
       <path d="M 48.09375 32.234375 
Q 48.25 33.015625 48.3125 33.84375 
Q 48.390625 34.671875 48.390625 35.5 
Q 48.390625 41.453125 44.890625 44.921875 
Q 41.40625 48.390625 35.40625 48.390625 
Q 28.71875 48.390625 23.578125 44.15625 
Q 18.453125 39.9375 15.828125 32.171875 
z
M 55.90625 25.203125 
L 14.109375 25.203125 
Q 13.8125 23.34375 13.71875 22.265625 
Q 13.625 21.1875 13.625 20.40625 
Q 13.625 13.625 17.796875 9.90625 
Q 21.96875 6.203125 29.59375 6.203125 
Q 35.453125 6.203125 40.671875 7.515625 
Q 45.90625 8.84375 50.390625 11.375 
L 48.6875 2.484375 
Q 43.84375 0.53125 38.6875 -0.4375 
Q 33.546875 -1.421875 28.21875 -1.421875 
Q 16.84375 -1.421875 10.71875 4.015625 
Q 4.59375 9.46875 4.59375 19.484375 
Q 4.59375 28.03125 7.640625 35.375 
Q 10.6875 42.71875 16.609375 48.484375 
Q 20.40625 52.09375 25.65625 54.046875 
Q 30.90625 56 36.8125 56 
Q 46.09375 56 51.578125 50.4375 
Q 57.078125 44.875 57.078125 35.5 
Q 57.078125 33.25 56.78125 30.6875 
Q 56.5 28.125 55.90625 25.203125 
z
" id="DejaVuSans-Oblique-101"/>
      </defs>
      <use transform="translate(0 0.51875)" xlink:href="#DejaVuSans-101"/>
      <use transform="translate(61.523438 0.51875)" xlink:href="#DejaVuSans-83"/>
      <use transform="translate(125 0.51875)" xlink:href="#DejaVuSans-69"/>
      <use transform="translate(188.183594 0.51875)" xlink:href="#DejaVuSans-73"/>
      <use transform="translate(217.675781 0.51875)" xlink:href="#DejaVuSans-85"/>
      <use transform="translate(288.619141 0.51875)" xlink:href="#DejaVuSans-82"/>
      <use transform="translate(359.058594 38.8)scale(0.7)" xlink:href="#DejaVuSans-Oblique-114"/>
      <use transform="translate(387.837891 38.8)scale(0.7)" xlink:href="#DejaVuSans-Oblique-97"/>
      <use transform="translate(430.733398 38.8)scale(0.7)" xlink:href="#DejaVuSans-Oblique-110"/>
      <use transform="translate(475.098633 38.8)scale(0.7)" xlink:href="#DejaVuSans-Oblique-103"/>
      <use transform="translate(519.532227 38.8)scale(0.7)" xlink:href="#DejaVuSans-Oblique-101"/>
     </g>
    </g>
   </g>
  </g>
 </g>
 <defs>
  <clipPath id="p7d03ff4aa1">
   <rect height="543.6" width="558" x="90" y="86.4"/>
  </clipPath>
 </defs>
</svg>
