<?xml version="1.0" encoding="utf-8" standalone="no"?>
<!DOCTYPE svg PUBLIC "-//W3C//DTD SVG 1.1//EN"
  "http://www.w3.org/Graphics/SVG/1.1/DTD/svg11.dtd">
<!-- Created with matplotlib (https://matplotlib.org/) -->
<svg height="720pt" version="1.1" viewBox="0 0 720 720" width="720pt" xmlns="http://www.w3.org/2000/svg" xmlns:xlink="http://www.w3.org/1999/xlink">
 <metadata>
  <rdf:RDF xmlns:cc="http://creativecommons.org/ns#" xmlns:dc="http://purl.org/dc/elements/1.1/" xmlns:rdf="http://www.w3.org/1999/02/22-rdf-syntax-ns#">
   <cc:Work>
    <dc:type rdf:resource="http://purl.org/dc/dcmitype/StillImage"/>
    <dc:date>2022-07-13T18:54:15.018496</dc:date>
    <dc:format>image/svg+xml</dc:format>
    <dc:creator>
     <cc:Agent>
      <dc:title>Matplotlib v3.3.2, https://matplotlib.org/</dc:title>
     </cc:Agent>
    </dc:creator>
   </cc:Work>
  </rdf:RDF>
 </metadata>
 <defs>
  <style type="text/css">*{stroke-linecap:butt;stroke-linejoin:round;}</style>
 </defs>
 <g id="figure_1">
  <g id="patch_1">
   <path d="M 0 720 
L 720 720 
L 720 0 
L 0 0 
z
" style="fill:none;"/>
  </g>
  <g id="axes_1">
   <g id="patch_2">
    <path d="M 90 630 
L 648 630 
L 648 86.4 
L 90 86.4 
z
" style="fill:#ffffff;"/>
   </g>
   <g id="matplotlib.axis_1">
    <g id="xtick_1">
     <g id="line2d_1">
      <path clip-path="url(#p09f9d8ed62)" d="M 115.363636 630 
L 115.363636 86.4 
" style="fill:none;stroke:#b0b0b0;stroke-linecap:square;stroke-width:0.8;"/>
     </g>
     <g id="line2d_2">
      <defs>
       <path d="M 0 0 
L 0 3.5 
" id="mca4d25cdbd" style="stroke:#000000;stroke-width:0.8;"/>
      </defs>
      <g>
       <use style="stroke:#000000;stroke-width:0.8;" x="115.363636" xlink:href="#mca4d25cdbd" y="630"/>
      </g>
     </g>
     <g id="text_1">
      <!-- 0 -->
      <g transform="translate(112.182386 644.598438)scale(0.1 -0.1)">
       <defs>
        <path d="M 31.78125 66.40625 
Q 24.171875 66.40625 20.328125 58.90625 
Q 16.5 51.421875 16.5 36.375 
Q 16.5 21.390625 20.328125 13.890625 
Q 24.171875 6.390625 31.78125 6.390625 
Q 39.453125 6.390625 43.28125 13.890625 
Q 47.125 21.390625 47.125 36.375 
Q 47.125 51.421875 43.28125 58.90625 
Q 39.453125 66.40625 31.78125 66.40625 
z
M 31.78125 74.21875 
Q 44.046875 74.21875 50.515625 64.515625 
Q 56.984375 54.828125 56.984375 36.375 
Q 56.984375 17.96875 50.515625 8.265625 
Q 44.046875 -1.421875 31.78125 -1.421875 
Q 19.53125 -1.421875 13.0625 8.265625 
Q 6.59375 17.96875 6.59375 36.375 
Q 6.59375 54.828125 13.0625 64.515625 
Q 19.53125 74.21875 31.78125 74.21875 
z
" id="DejaVuSans-48"/>
       </defs>
       <use xlink:href="#DejaVuSans-48"/>
      </g>
     </g>
    </g>
    <g id="xtick_2">
     <g id="line2d_3">
      <path clip-path="url(#p09f9d8ed62)" d="M 236.142857 630 
L 236.142857 86.4 
" style="fill:none;stroke:#b0b0b0;stroke-linecap:square;stroke-width:0.8;"/>
     </g>
     <g id="line2d_4">
      <g>
       <use style="stroke:#000000;stroke-width:0.8;" x="236.142857" xlink:href="#mca4d25cdbd" y="630"/>
      </g>
     </g>
     <g id="text_2">
      <!-- 20 -->
      <g transform="translate(229.780357 644.598438)scale(0.1 -0.1)">
       <defs>
        <path d="M 19.1875 8.296875 
L 53.609375 8.296875 
L 53.609375 0 
L 7.328125 0 
L 7.328125 8.296875 
Q 12.9375 14.109375 22.625 23.890625 
Q 32.328125 33.6875 34.8125 36.53125 
Q 39.546875 41.84375 41.421875 45.53125 
Q 43.3125 49.21875 43.3125 52.78125 
Q 43.3125 58.59375 39.234375 62.25 
Q 35.15625 65.921875 28.609375 65.921875 
Q 23.96875 65.921875 18.8125 64.3125 
Q 13.671875 62.703125 7.8125 59.421875 
L 7.8125 69.390625 
Q 13.765625 71.78125 18.9375 73 
Q 24.125 74.21875 28.421875 74.21875 
Q 39.75 74.21875 46.484375 68.546875 
Q 53.21875 62.890625 53.21875 53.421875 
Q 53.21875 48.921875 51.53125 44.890625 
Q 49.859375 40.875 45.40625 35.40625 
Q 44.1875 33.984375 37.640625 27.21875 
Q 31.109375 20.453125 19.1875 8.296875 
z
" id="DejaVuSans-50"/>
       </defs>
       <use xlink:href="#DejaVuSans-50"/>
       <use x="63.623047" xlink:href="#DejaVuSans-48"/>
      </g>
     </g>
    </g>
    <g id="xtick_3">
     <g id="line2d_5">
      <path clip-path="url(#p09f9d8ed62)" d="M 356.922078 630 
L 356.922078 86.4 
" style="fill:none;stroke:#b0b0b0;stroke-linecap:square;stroke-width:0.8;"/>
     </g>
     <g id="line2d_6">
      <g>
       <use style="stroke:#000000;stroke-width:0.8;" x="356.922078" xlink:href="#mca4d25cdbd" y="630"/>
      </g>
     </g>
     <g id="text_3">
      <!-- 40 -->
      <g transform="translate(350.559578 644.598438)scale(0.1 -0.1)">
       <defs>
        <path d="M 37.796875 64.3125 
L 12.890625 25.390625 
L 37.796875 25.390625 
z
M 35.203125 72.90625 
L 47.609375 72.90625 
L 47.609375 25.390625 
L 58.015625 25.390625 
L 58.015625 17.1875 
L 47.609375 17.1875 
L 47.609375 0 
L 37.796875 0 
L 37.796875 17.1875 
L 4.890625 17.1875 
L 4.890625 26.703125 
z
" id="DejaVuSans-52"/>
       </defs>
       <use xlink:href="#DejaVuSans-52"/>
       <use x="63.623047" xlink:href="#DejaVuSans-48"/>
      </g>
     </g>
    </g>
    <g id="xtick_4">
     <g id="line2d_7">
      <path clip-path="url(#p09f9d8ed62)" d="M 477.701299 630 
L 477.701299 86.4 
" style="fill:none;stroke:#b0b0b0;stroke-linecap:square;stroke-width:0.8;"/>
     </g>
     <g id="line2d_8">
      <g>
       <use style="stroke:#000000;stroke-width:0.8;" x="477.701299" xlink:href="#mca4d25cdbd" y="630"/>
      </g>
     </g>
     <g id="text_4">
      <!-- 60 -->
      <g transform="translate(471.338799 644.598438)scale(0.1 -0.1)">
       <defs>
        <path d="M 33.015625 40.375 
Q 26.375 40.375 22.484375 35.828125 
Q 18.609375 31.296875 18.609375 23.390625 
Q 18.609375 15.53125 22.484375 10.953125 
Q 26.375 6.390625 33.015625 6.390625 
Q 39.65625 6.390625 43.53125 10.953125 
Q 47.40625 15.53125 47.40625 23.390625 
Q 47.40625 31.296875 43.53125 35.828125 
Q 39.65625 40.375 33.015625 40.375 
z
M 52.59375 71.296875 
L 52.59375 62.3125 
Q 48.875 64.0625 45.09375 64.984375 
Q 41.3125 65.921875 37.59375 65.921875 
Q 27.828125 65.921875 22.671875 59.328125 
Q 17.53125 52.734375 16.796875 39.40625 
Q 19.671875 43.65625 24.015625 45.921875 
Q 28.375 48.1875 33.59375 48.1875 
Q 44.578125 48.1875 50.953125 41.515625 
Q 57.328125 34.859375 57.328125 23.390625 
Q 57.328125 12.15625 50.6875 5.359375 
Q 44.046875 -1.421875 33.015625 -1.421875 
Q 20.359375 -1.421875 13.671875 8.265625 
Q 6.984375 17.96875 6.984375 36.375 
Q 6.984375 53.65625 15.1875 63.9375 
Q 23.390625 74.21875 37.203125 74.21875 
Q 40.921875 74.21875 44.703125 73.484375 
Q 48.484375 72.75 52.59375 71.296875 
z
" id="DejaVuSans-54"/>
       </defs>
       <use xlink:href="#DejaVuSans-54"/>
       <use x="63.623047" xlink:href="#DejaVuSans-48"/>
      </g>
     </g>
    </g>
    <g id="xtick_5">
     <g id="line2d_9">
      <path clip-path="url(#p09f9d8ed62)" d="M 598.480519 630 
L 598.480519 86.4 
" style="fill:none;stroke:#b0b0b0;stroke-linecap:square;stroke-width:0.8;"/>
     </g>
     <g id="line2d_10">
      <g>
       <use style="stroke:#000000;stroke-width:0.8;" x="598.480519" xlink:href="#mca4d25cdbd" y="630"/>
      </g>
     </g>
     <g id="text_5">
      <!-- 80 -->
      <g transform="translate(592.118019 644.598438)scale(0.1 -0.1)">
       <defs>
        <path d="M 31.78125 34.625 
Q 24.75 34.625 20.71875 30.859375 
Q 16.703125 27.09375 16.703125 20.515625 
Q 16.703125 13.921875 20.71875 10.15625 
Q 24.75 6.390625 31.78125 6.390625 
Q 38.8125 6.390625 42.859375 10.171875 
Q 46.921875 13.96875 46.921875 20.515625 
Q 46.921875 27.09375 42.890625 30.859375 
Q 38.875 34.625 31.78125 34.625 
z
M 21.921875 38.8125 
Q 15.578125 40.375 12.03125 44.71875 
Q 8.5 49.078125 8.5 55.328125 
Q 8.5 64.0625 14.71875 69.140625 
Q 20.953125 74.21875 31.78125 74.21875 
Q 42.671875 74.21875 48.875 69.140625 
Q 55.078125 64.0625 55.078125 55.328125 
Q 55.078125 49.078125 51.53125 44.71875 
Q 48 40.375 41.703125 38.8125 
Q 48.828125 37.15625 52.796875 32.3125 
Q 56.78125 27.484375 56.78125 20.515625 
Q 56.78125 9.90625 50.3125 4.234375 
Q 43.84375 -1.421875 31.78125 -1.421875 
Q 19.734375 -1.421875 13.25 4.234375 
Q 6.78125 9.90625 6.78125 20.515625 
Q 6.78125 27.484375 10.78125 32.3125 
Q 14.796875 37.15625 21.921875 38.8125 
z
M 18.3125 54.390625 
Q 18.3125 48.734375 21.84375 45.5625 
Q 25.390625 42.390625 31.78125 42.390625 
Q 38.140625 42.390625 41.71875 45.5625 
Q 45.3125 48.734375 45.3125 54.390625 
Q 45.3125 60.0625 41.71875 63.234375 
Q 38.140625 66.40625 31.78125 66.40625 
Q 25.390625 66.40625 21.84375 63.234375 
Q 18.3125 60.0625 18.3125 54.390625 
z
" id="DejaVuSans-56"/>
       </defs>
       <use xlink:href="#DejaVuSans-56"/>
       <use x="63.623047" xlink:href="#DejaVuSans-48"/>
      </g>
     </g>
    </g>
    <g id="text_6">
     <!-- Days -->
     <g transform="translate(356.521875 658.276562)scale(0.1 -0.1)">
      <defs>
       <path d="M 19.671875 64.796875 
L 19.671875 8.109375 
L 31.59375 8.109375 
Q 46.6875 8.109375 53.6875 14.9375 
Q 60.6875 21.78125 60.6875 36.53125 
Q 60.6875 51.171875 53.6875 57.984375 
Q 46.6875 64.796875 31.59375 64.796875 
z
M 9.8125 72.90625 
L 30.078125 72.90625 
Q 51.265625 72.90625 61.171875 64.09375 
Q 71.09375 55.28125 71.09375 36.53125 
Q 71.09375 17.671875 61.125 8.828125 
Q 51.171875 0 30.078125 0 
L 9.8125 0 
z
" id="DejaVuSans-68"/>
       <path d="M 34.28125 27.484375 
Q 23.390625 27.484375 19.1875 25 
Q 14.984375 22.515625 14.984375 16.5 
Q 14.984375 11.71875 18.140625 8.90625 
Q 21.296875 6.109375 26.703125 6.109375 
Q 34.1875 6.109375 38.703125 11.40625 
Q 43.21875 16.703125 43.21875 25.484375 
L 43.21875 27.484375 
z
M 52.203125 31.203125 
L 52.203125 0 
L 43.21875 0 
L 43.21875 8.296875 
Q 40.140625 3.328125 35.546875 0.953125 
Q 30.953125 -1.421875 24.3125 -1.421875 
Q 15.921875 -1.421875 10.953125 3.296875 
Q 6 8.015625 6 15.921875 
Q 6 25.140625 12.171875 29.828125 
Q 18.359375 34.515625 30.609375 34.515625 
L 43.21875 34.515625 
L 43.21875 35.40625 
Q 43.21875 41.609375 39.140625 45 
Q 35.0625 48.390625 27.6875 48.390625 
Q 23 48.390625 18.546875 47.265625 
Q 14.109375 46.140625 10.015625 43.890625 
L 10.015625 52.203125 
Q 14.9375 54.109375 19.578125 55.046875 
Q 24.21875 56 28.609375 56 
Q 40.484375 56 46.34375 49.84375 
Q 52.203125 43.703125 52.203125 31.203125 
z
" id="DejaVuSans-97"/>
       <path d="M 32.171875 -5.078125 
Q 28.375 -14.84375 24.75 -17.8125 
Q 21.140625 -20.796875 15.09375 -20.796875 
L 7.90625 -20.796875 
L 7.90625 -13.28125 
L 13.1875 -13.28125 
Q 16.890625 -13.28125 18.9375 -11.515625 
Q 21 -9.765625 23.484375 -3.21875 
L 25.09375 0.875 
L 2.984375 54.6875 
L 12.5 54.6875 
L 29.59375 11.921875 
L 46.6875 54.6875 
L 56.203125 54.6875 
z
" id="DejaVuSans-121"/>
       <path d="M 44.28125 53.078125 
L 44.28125 44.578125 
Q 40.484375 46.53125 36.375 47.5 
Q 32.28125 48.484375 27.875 48.484375 
Q 21.1875 48.484375 17.84375 46.4375 
Q 14.5 44.390625 14.5 40.28125 
Q 14.5 37.15625 16.890625 35.375 
Q 19.28125 33.59375 26.515625 31.984375 
L 29.59375 31.296875 
Q 39.15625 29.25 43.1875 25.515625 
Q 47.21875 21.78125 47.21875 15.09375 
Q 47.21875 7.46875 41.1875 3.015625 
Q 35.15625 -1.421875 24.609375 -1.421875 
Q 20.21875 -1.421875 15.453125 -0.5625 
Q 10.6875 0.296875 5.421875 2 
L 5.421875 11.28125 
Q 10.40625 8.6875 15.234375 7.390625 
Q 20.0625 6.109375 24.8125 6.109375 
Q 31.15625 6.109375 34.5625 8.28125 
Q 37.984375 10.453125 37.984375 14.40625 
Q 37.984375 18.0625 35.515625 20.015625 
Q 33.0625 21.96875 24.703125 23.78125 
L 21.578125 24.515625 
Q 13.234375 26.265625 9.515625 29.90625 
Q 5.8125 33.546875 5.8125 39.890625 
Q 5.8125 47.609375 11.28125 51.796875 
Q 16.75 56 26.8125 56 
Q 31.78125 56 36.171875 55.265625 
Q 40.578125 54.546875 44.28125 53.078125 
z
" id="DejaVuSans-115"/>
      </defs>
      <use xlink:href="#DejaVuSans-68"/>
      <use x="77.001953" xlink:href="#DejaVuSans-97"/>
      <use x="138.28125" xlink:href="#DejaVuSans-121"/>
      <use x="197.460938" xlink:href="#DejaVuSans-115"/>
     </g>
    </g>
   </g>
   <g id="matplotlib.axis_2">
    <g id="ytick_1">
     <g id="line2d_11">
      <path clip-path="url(#p09f9d8ed62)" d="M 90 605.356676 
L 648 605.356676 
" style="fill:none;stroke:#b0b0b0;stroke-linecap:square;stroke-width:0.8;"/>
     </g>
     <g id="line2d_12">
      <defs>
       <path d="M 0 0 
L -3.5 0 
" id="mbee2f212bf" style="stroke:#000000;stroke-width:0.8;"/>
      </defs>
      <g>
       <use style="stroke:#000000;stroke-width:0.8;" x="90" xlink:href="#mbee2f212bf" y="605.356676"/>
      </g>
     </g>
     <g id="text_7">
      <!-- 0 -->
      <g transform="translate(76.6375 609.155895)scale(0.1 -0.1)">
       <use xlink:href="#DejaVuSans-48"/>
      </g>
     </g>
    </g>
    <g id="ytick_2">
     <g id="line2d_13">
      <path clip-path="url(#p09f9d8ed62)" d="M 90 502.595619 
L 648 502.595619 
" style="fill:none;stroke:#b0b0b0;stroke-linecap:square;stroke-width:0.8;"/>
     </g>
     <g id="line2d_14">
      <g>
       <use style="stroke:#000000;stroke-width:0.8;" x="90" xlink:href="#mbee2f212bf" y="502.595619"/>
      </g>
     </g>
     <g id="text_8">
      <!-- 50000 -->
      <g transform="translate(51.1875 506.394837)scale(0.1 -0.1)">
       <defs>
        <path d="M 10.796875 72.90625 
L 49.515625 72.90625 
L 49.515625 64.59375 
L 19.828125 64.59375 
L 19.828125 46.734375 
Q 21.96875 47.46875 24.109375 47.828125 
Q 26.265625 48.1875 28.421875 48.1875 
Q 40.625 48.1875 47.75 41.5 
Q 54.890625 34.8125 54.890625 23.390625 
Q 54.890625 11.625 47.5625 5.09375 
Q 40.234375 -1.421875 26.90625 -1.421875 
Q 22.3125 -1.421875 17.546875 -0.640625 
Q 12.796875 0.140625 7.71875 1.703125 
L 7.71875 11.625 
Q 12.109375 9.234375 16.796875 8.0625 
Q 21.484375 6.890625 26.703125 6.890625 
Q 35.15625 6.890625 40.078125 11.328125 
Q 45.015625 15.765625 45.015625 23.390625 
Q 45.015625 31 40.078125 35.4375 
Q 35.15625 39.890625 26.703125 39.890625 
Q 22.75 39.890625 18.8125 39.015625 
Q 14.890625 38.140625 10.796875 36.28125 
z
" id="DejaVuSans-53"/>
       </defs>
       <use xlink:href="#DejaVuSans-53"/>
       <use x="63.623047" xlink:href="#DejaVuSans-48"/>
       <use x="127.246094" xlink:href="#DejaVuSans-48"/>
       <use x="190.869141" xlink:href="#DejaVuSans-48"/>
       <use x="254.492188" xlink:href="#DejaVuSans-48"/>
      </g>
     </g>
    </g>
    <g id="ytick_3">
     <g id="line2d_15">
      <path clip-path="url(#p09f9d8ed62)" d="M 90 399.834561 
L 648 399.834561 
" style="fill:none;stroke:#b0b0b0;stroke-linecap:square;stroke-width:0.8;"/>
     </g>
     <g id="line2d_16">
      <g>
       <use style="stroke:#000000;stroke-width:0.8;" x="90" xlink:href="#mbee2f212bf" y="399.834561"/>
      </g>
     </g>
     <g id="text_9">
      <!-- 100000 -->
      <g transform="translate(44.825 403.63378)scale(0.1 -0.1)">
       <defs>
        <path d="M 12.40625 8.296875 
L 28.515625 8.296875 
L 28.515625 63.921875 
L 10.984375 60.40625 
L 10.984375 69.390625 
L 28.421875 72.90625 
L 38.28125 72.90625 
L 38.28125 8.296875 
L 54.390625 8.296875 
L 54.390625 0 
L 12.40625 0 
z
" id="DejaVuSans-49"/>
       </defs>
       <use xlink:href="#DejaVuSans-49"/>
       <use x="63.623047" xlink:href="#DejaVuSans-48"/>
       <use x="127.246094" xlink:href="#DejaVuSans-48"/>
       <use x="190.869141" xlink:href="#DejaVuSans-48"/>
       <use x="254.492188" xlink:href="#DejaVuSans-48"/>
       <use x="318.115234" xlink:href="#DejaVuSans-48"/>
      </g>
     </g>
    </g>
    <g id="ytick_4">
     <g id="line2d_17">
      <path clip-path="url(#p09f9d8ed62)" d="M 90 297.073503 
L 648 297.073503 
" style="fill:none;stroke:#b0b0b0;stroke-linecap:square;stroke-width:0.8;"/>
     </g>
     <g id="line2d_18">
      <g>
       <use style="stroke:#000000;stroke-width:0.8;" x="90" xlink:href="#mbee2f212bf" y="297.073503"/>
      </g>
     </g>
     <g id="text_10">
      <!-- 150000 -->
      <g transform="translate(44.825 300.872722)scale(0.1 -0.1)">
       <use xlink:href="#DejaVuSans-49"/>
       <use x="63.623047" xlink:href="#DejaVuSans-53"/>
       <use x="127.246094" xlink:href="#DejaVuSans-48"/>
       <use x="190.869141" xlink:href="#DejaVuSans-48"/>
       <use x="254.492188" xlink:href="#DejaVuSans-48"/>
       <use x="318.115234" xlink:href="#DejaVuSans-48"/>
      </g>
     </g>
    </g>
    <g id="ytick_5">
     <g id="line2d_19">
      <path clip-path="url(#p09f9d8ed62)" d="M 90 194.312446 
L 648 194.312446 
" style="fill:none;stroke:#b0b0b0;stroke-linecap:square;stroke-width:0.8;"/>
     </g>
     <g id="line2d_20">
      <g>
       <use style="stroke:#000000;stroke-width:0.8;" x="90" xlink:href="#mbee2f212bf" y="194.312446"/>
      </g>
     </g>
     <g id="text_11">
      <!-- 200000 -->
      <g transform="translate(44.825 198.111665)scale(0.1 -0.1)">
       <use xlink:href="#DejaVuSans-50"/>
       <use x="63.623047" xlink:href="#DejaVuSans-48"/>
       <use x="127.246094" xlink:href="#DejaVuSans-48"/>
       <use x="190.869141" xlink:href="#DejaVuSans-48"/>
       <use x="254.492188" xlink:href="#DejaVuSans-48"/>
       <use x="318.115234" xlink:href="#DejaVuSans-48"/>
      </g>
     </g>
    </g>
    <g id="ytick_6">
     <g id="line2d_21">
      <path clip-path="url(#p09f9d8ed62)" d="M 90 91.551388 
L 648 91.551388 
" style="fill:none;stroke:#b0b0b0;stroke-linecap:square;stroke-width:0.8;"/>
     </g>
     <g id="line2d_22">
      <g>
       <use style="stroke:#000000;stroke-width:0.8;" x="90" xlink:href="#mbee2f212bf" y="91.551388"/>
      </g>
     </g>
     <g id="text_12">
      <!-- 250000 -->
      <g transform="translate(44.825 95.350607)scale(0.1 -0.1)">
       <use xlink:href="#DejaVuSans-50"/>
       <use x="63.623047" xlink:href="#DejaVuSans-53"/>
       <use x="127.246094" xlink:href="#DejaVuSans-48"/>
       <use x="190.869141" xlink:href="#DejaVuSans-48"/>
       <use x="254.492188" xlink:href="#DejaVuSans-48"/>
       <use x="318.115234" xlink:href="#DejaVuSans-48"/>
      </g>
     </g>
    </g>
    <g id="text_13">
     <!-- Cumulative cases -->
     <g transform="translate(38.745312 402.425781)rotate(-90)scale(0.1 -0.1)">
      <defs>
       <path d="M 64.40625 67.28125 
L 64.40625 56.890625 
Q 59.421875 61.53125 53.78125 63.8125 
Q 48.140625 66.109375 41.796875 66.109375 
Q 29.296875 66.109375 22.65625 58.46875 
Q 16.015625 50.828125 16.015625 36.375 
Q 16.015625 21.96875 22.65625 14.328125 
Q 29.296875 6.6875 41.796875 6.6875 
Q 48.140625 6.6875 53.78125 8.984375 
Q 59.421875 11.28125 64.40625 15.921875 
L 64.40625 5.609375 
Q 59.234375 2.09375 53.4375 0.328125 
Q 47.65625 -1.421875 41.21875 -1.421875 
Q 24.65625 -1.421875 15.125 8.703125 
Q 5.609375 18.84375 5.609375 36.375 
Q 5.609375 53.953125 15.125 64.078125 
Q 24.65625 74.21875 41.21875 74.21875 
Q 47.75 74.21875 53.53125 72.484375 
Q 59.328125 70.75 64.40625 67.28125 
z
" id="DejaVuSans-67"/>
       <path d="M 8.5 21.578125 
L 8.5 54.6875 
L 17.484375 54.6875 
L 17.484375 21.921875 
Q 17.484375 14.15625 20.5 10.265625 
Q 23.53125 6.390625 29.59375 6.390625 
Q 36.859375 6.390625 41.078125 11.03125 
Q 45.3125 15.671875 45.3125 23.6875 
L 45.3125 54.6875 
L 54.296875 54.6875 
L 54.296875 0 
L 45.3125 0 
L 45.3125 8.40625 
Q 42.046875 3.421875 37.71875 1 
Q 33.40625 -1.421875 27.6875 -1.421875 
Q 18.265625 -1.421875 13.375 4.4375 
Q 8.5 10.296875 8.5 21.578125 
z
M 31.109375 56 
z
" id="DejaVuSans-117"/>
       <path d="M 52 44.1875 
Q 55.375 50.25 60.0625 53.125 
Q 64.75 56 71.09375 56 
Q 79.640625 56 84.28125 50.015625 
Q 88.921875 44.046875 88.921875 33.015625 
L 88.921875 0 
L 79.890625 0 
L 79.890625 32.71875 
Q 79.890625 40.578125 77.09375 44.375 
Q 74.3125 48.1875 68.609375 48.1875 
Q 61.625 48.1875 57.5625 43.546875 
Q 53.515625 38.921875 53.515625 30.90625 
L 53.515625 0 
L 44.484375 0 
L 44.484375 32.71875 
Q 44.484375 40.625 41.703125 44.40625 
Q 38.921875 48.1875 33.109375 48.1875 
Q 26.21875 48.1875 22.15625 43.53125 
Q 18.109375 38.875 18.109375 30.90625 
L 18.109375 0 
L 9.078125 0 
L 9.078125 54.6875 
L 18.109375 54.6875 
L 18.109375 46.1875 
Q 21.1875 51.21875 25.484375 53.609375 
Q 29.78125 56 35.6875 56 
Q 41.65625 56 45.828125 52.96875 
Q 50 49.953125 52 44.1875 
z
" id="DejaVuSans-109"/>
       <path d="M 9.421875 75.984375 
L 18.40625 75.984375 
L 18.40625 0 
L 9.421875 0 
z
" id="DejaVuSans-108"/>
       <path d="M 18.3125 70.21875 
L 18.3125 54.6875 
L 36.8125 54.6875 
L 36.8125 47.703125 
L 18.3125 47.703125 
L 18.3125 18.015625 
Q 18.3125 11.328125 20.140625 9.421875 
Q 21.96875 7.515625 27.59375 7.515625 
L 36.8125 7.515625 
L 36.8125 0 
L 27.59375 0 
Q 17.1875 0 13.234375 3.875 
Q 9.28125 7.765625 9.28125 18.015625 
L 9.28125 47.703125 
L 2.6875 47.703125 
L 2.6875 54.6875 
L 9.28125 54.6875 
L 9.28125 70.21875 
z
" id="DejaVuSans-116"/>
       <path d="M 9.421875 54.6875 
L 18.40625 54.6875 
L 18.40625 0 
L 9.421875 0 
z
M 9.421875 75.984375 
L 18.40625 75.984375 
L 18.40625 64.59375 
L 9.421875 64.59375 
z
" id="DejaVuSans-105"/>
       <path d="M 2.984375 54.6875 
L 12.5 54.6875 
L 29.59375 8.796875 
L 46.6875 54.6875 
L 56.203125 54.6875 
L 35.6875 0 
L 23.484375 0 
z
" id="DejaVuSans-118"/>
       <path d="M 56.203125 29.59375 
L 56.203125 25.203125 
L 14.890625 25.203125 
Q 15.484375 15.921875 20.484375 11.0625 
Q 25.484375 6.203125 34.421875 6.203125 
Q 39.59375 6.203125 44.453125 7.46875 
Q 49.3125 8.734375 54.109375 11.28125 
L 54.109375 2.78125 
Q 49.265625 0.734375 44.1875 -0.34375 
Q 39.109375 -1.421875 33.890625 -1.421875 
Q 20.796875 -1.421875 13.15625 6.1875 
Q 5.515625 13.8125 5.515625 26.8125 
Q 5.515625 40.234375 12.765625 48.109375 
Q 20.015625 56 32.328125 56 
Q 43.359375 56 49.78125 48.890625 
Q 56.203125 41.796875 56.203125 29.59375 
z
M 47.21875 32.234375 
Q 47.125 39.59375 43.09375 43.984375 
Q 39.0625 48.390625 32.421875 48.390625 
Q 24.90625 48.390625 20.390625 44.140625 
Q 15.875 39.890625 15.1875 32.171875 
z
" id="DejaVuSans-101"/>
       <path id="DejaVuSans-32"/>
       <path d="M 48.78125 52.59375 
L 48.78125 44.1875 
Q 44.96875 46.296875 41.140625 47.34375 
Q 37.3125 48.390625 33.40625 48.390625 
Q 24.65625 48.390625 19.8125 42.84375 
Q 14.984375 37.3125 14.984375 27.296875 
Q 14.984375 17.28125 19.8125 11.734375 
Q 24.65625 6.203125 33.40625 6.203125 
Q 37.3125 6.203125 41.140625 7.25 
Q 44.96875 8.296875 48.78125 10.40625 
L 48.78125 2.09375 
Q 45.015625 0.34375 40.984375 -0.53125 
Q 36.96875 -1.421875 32.421875 -1.421875 
Q 20.0625 -1.421875 12.78125 6.34375 
Q 5.515625 14.109375 5.515625 27.296875 
Q 5.515625 40.671875 12.859375 48.328125 
Q 20.21875 56 33.015625 56 
Q 37.15625 56 41.109375 55.140625 
Q 45.0625 54.296875 48.78125 52.59375 
z
" id="DejaVuSans-99"/>
      </defs>
      <use xlink:href="#DejaVuSans-67"/>
      <use x="69.824219" xlink:href="#DejaVuSans-117"/>
      <use x="133.203125" xlink:href="#DejaVuSans-109"/>
      <use x="230.615234" xlink:href="#DejaVuSans-117"/>
      <use x="293.994141" xlink:href="#DejaVuSans-108"/>
      <use x="321.777344" xlink:href="#DejaVuSans-97"/>
      <use x="383.056641" xlink:href="#DejaVuSans-116"/>
      <use x="422.265625" xlink:href="#DejaVuSans-105"/>
      <use x="450.048828" xlink:href="#DejaVuSans-118"/>
      <use x="509.228516" xlink:href="#DejaVuSans-101"/>
      <use x="570.751953" xlink:href="#DejaVuSans-32"/>
      <use x="602.539062" xlink:href="#DejaVuSans-99"/>
      <use x="657.519531" xlink:href="#DejaVuSans-97"/>
      <use x="718.798828" xlink:href="#DejaVuSans-115"/>
      <use x="770.898438" xlink:href="#DejaVuSans-101"/>
      <use x="832.421875" xlink:href="#DejaVuSans-115"/>
     </g>
    </g>
   </g>
   <g id="line2d_23">
    <path clip-path="url(#p09f9d8ed62)" d="M 115.363636 605.290909 
L 121.402597 605.272616 
L 127.441558 605.249237 
L 133.480519 605.219356 
L 139.519481 605.181168 
L 145.558442 605.132366 
L 151.597403 605.070001 
L 157.636364 604.990311 
L 163.675325 604.88849 
L 169.714286 604.758405 
L 175.753247 604.592235 
L 181.792208 604.380005 
L 187.831169 604.109008 
L 193.87013 603.763068 
L 199.909091 603.321617 
L 205.948052 602.758543 
L 211.987013 602.040756 
L 218.025974 601.126426 
L 224.064935 599.962835 
L 230.103896 598.483811 
L 236.142857 596.606716 
L 242.181818 594.229028 
L 248.220779 591.224634 
L 254.25974 587.440109 
L 260.298701 582.69147 
L 266.337662 576.762228 
L 272.376623 569.403986 
L 278.415584 560.341317 
L 284.454545 549.283068 
L 290.493506 535.942402 
L 296.532468 520.067275 
L 302.571429 501.481364 
L 308.61039 480.132185 
L 314.649351 456.138717 
L 320.688312 429.826414 
L 326.727273 401.735655 
L 332.766234 372.592948 
L 338.805195 343.243554 
L 344.844156 314.556817 
L 350.883117 287.325738 
L 356.922078 262.184552 
L 362.961039 239.561151 
L 369 219.668855 
L 375.038961 202.530575 
L 381.077922 188.022203 
L 387.116883 175.921753 
L 393.155844 165.954333 
L 399.194805 157.827719 
L 405.233766 151.257174 
L 411.272727 145.980604 
L 417.311688 141.766178 
L 423.350649 138.414703 
L 429.38961 135.758687 
L 435.428571 133.659582 
L 441.467532 132.004209 
L 447.506494 130.701 
L 453.545455 129.676415 
L 459.584416 128.871738 
L 465.623377 128.240295 
L 471.662338 127.745116 
L 477.701299 127.356994 
L 483.74026 127.052904 
L 489.779221 126.814729 
L 495.818182 126.628226 
L 501.857143 126.482214 
L 507.896104 126.367919 
L 513.935065 126.278461 
L 519.974026 126.20845 
L 526.012987 126.153663 
L 532.051948 126.110791 
L 538.090909 126.077245 
L 544.12987 126.050996 
L 550.168831 126.030459 
L 556.207792 126.01439 
L 562.246753 126.001818 
L 568.285714 125.991981 
L 574.324675 125.984286 
L 580.363636 125.978265 
L 586.402597 125.973554 
L 592.441558 125.969868 
L 598.480519 125.966985 
L 604.519481 125.964729 
L 610.558442 125.962964 
L 616.597403 125.961583 
L 622.636364 125.960503 
" style="fill:none;stroke:#1f77b4;stroke-linecap:square;stroke-width:1.5;"/>
   </g>
   <g id="line2d_24">
    <path clip-path="url(#p09f9d8ed62)" d="M 115.363636 605.290909 
L 121.402597 604.123894 
L 127.441558 602.835724 
L 133.480519 601.414571 
L 139.519481 599.847613 
L 145.558442 598.120998 
L 151.597403 596.219798 
L 157.636364 594.127984 
L 163.675325 591.828409 
L 169.714286 589.30281 
L 175.753247 586.531829 
L 181.792208 583.495061 
L 187.831169 580.171134 
L 193.87013 576.537826 
L 199.909091 572.572223 
L 205.948052 568.250931 
L 211.987013 563.550343 
L 218.025974 558.446962 
L 224.064935 552.917793 
L 230.103896 546.940808 
L 236.142857 540.495467 
L 242.181818 533.563315 
L 248.220779 526.128627 
L 254.25974 518.179107 
L 260.298701 509.706606 
L 266.337662 500.707851 
L 272.376623 491.185144 
L 278.415584 481.147012 
L 284.454545 470.608753 
L 290.493506 459.592851 
L 296.532468 448.129222 
L 302.571429 436.255251 
L 308.61039 424.015594 
L 314.649351 411.461732 
L 320.688312 398.651267 
L 326.727273 385.646979 
L 332.766234 372.515662 
L 338.805195 359.326796 
L 344.844156 346.151084 
L 350.883117 333.05895 
L 356.922078 320.11904 
L 362.961039 307.396805 
L 369 294.953229 
L 375.038961 282.843736 
L 381.077922 271.11734 
L 387.116883 259.816037 
L 393.155844 248.974446 
L 399.194805 238.619708 
L 405.233766 228.771599 
L 411.272727 219.442846 
L 417.311688 210.639593 
L 423.350649 202.361993 
L 429.38961 194.604878 
L 435.428571 187.358473 
L 441.467532 180.609126 
L 447.506494 174.340019 
L 453.545455 168.531849 
L 459.584416 163.163458 
L 465.623377 158.212401 
L 471.662338 153.655446 
L 477.701299 149.469014 
L 483.74026 145.62954 
L 489.779221 142.113783 
L 495.818182 138.899063 
L 501.857143 135.963458 
L 507.896104 133.285943 
L 513.935065 130.846495 
L 519.974026 128.626159 
L 526.012987 126.607083 
L 532.051948 124.772538 
L 538.090909 123.106907 
L 544.12987 121.595664 
L 550.168831 120.225346 
L 556.207792 118.983504 
L 562.246753 117.858665 
L 568.285714 116.840273 
L 574.324675 115.918637 
L 580.363636 115.084878 
L 586.402597 114.330874 
L 592.441558 113.649206 
L 598.480519 113.033106 
L 604.519481 112.476407 
L 610.558442 111.973496 
L 616.597403 111.51927 
L 622.636364 111.109091 
" style="fill:none;stroke:#ff7f0e;stroke-linecap:square;stroke-width:1.5;"/>
   </g>
   <g id="line2d_25">
    <path clip-path="url(#p09f9d8ed62)" d="M 115.363636 605.290909 
L 121.402597 605.248708 
L 127.441558 605.195296 
L 133.480519 605.1277 
L 139.519481 605.042159 
L 145.558442 604.933921 
L 151.597403 604.796985 
L 157.636364 604.623769 
L 163.675325 604.40471 
L 169.714286 604.127754 
L 175.753247 603.777721 
L 181.792208 603.335523 
L 187.831169 602.777209 
L 193.87013 602.072784 
L 199.909091 601.184805 
L 205.948052 600.066699 
L 211.987013 598.660815 
L 218.025974 596.896222 
L 224.064935 594.686318 
L 230.103896 591.926419 
L 236.142857 588.491577 
L 242.181818 584.235098 
L 248.220779 578.988419 
L 254.25974 572.563277 
L 260.298701 564.757332 
L 266.337662 555.364514 
L 272.376623 544.191157 
L 278.415584 531.078249 
L 284.454545 515.928697 
L 290.493506 498.736377 
L 296.532468 479.611471 
L 302.571429 458.795018 
L 308.61039 436.656102 
L 314.649351 413.668302 
L 320.688312 390.367537 
L 326.727273 367.299135 
L 332.766234 344.965302 
L 338.805195 323.783582 
L 344.844156 304.062742 
L 350.883117 285.997066 
L 356.922078 269.675577 
L 362.961039 255.10048 
L 369 242.209181 
L 375.038961 230.895649 
L 381.077922 221.028616 
L 387.116883 212.4657 
L 393.155844 205.063474 
L 399.194805 198.6841 
L 405.233766 193.199276 
L 411.272727 188.492238 
L 417.311688 184.458448 
L 423.350649 181.005421 
L 429.38961 178.052067 
L 435.428571 175.527751 
L 441.467532 173.371258 
L 447.506494 171.52973 
L 453.545455 169.957658 
L 459.584416 168.615948 
L 465.623377 167.471065 
L 471.662338 166.494288 
L 477.701299 165.661035 
L 483.74026 164.950289 
L 489.779221 164.344086 
L 495.818182 163.827082 
L 501.857143 163.386177 
L 507.896104 163.010184 
L 513.935065 162.689559 
L 519.974026 162.416156 
L 526.012987 162.183027 
L 532.051948 161.984242 
L 538.090909 161.814744 
L 544.12987 161.670222 
L 550.168831 161.546996 
L 556.207792 161.441929 
L 562.246753 161.352346 
L 568.285714 161.275966 
L 574.324675 161.210842 
L 580.363636 161.155318 
L 586.402597 161.107977 
L 592.441558 161.067613 
L 598.480519 161.0332 
L 604.519481 161.003858 
L 610.558442 160.978842 
L 616.597403 160.957513 
L 622.636364 160.939328 
" style="fill:none;stroke:#2ca02c;stroke-linecap:square;stroke-width:1.5;"/>
   </g>
   <g id="line2d_26">
    <path clip-path="url(#p09f9d8ed62)" d="M 115.363636 605.290909 
L 121.402597 604.958967 
L 127.441558 604.544796 
L 133.480519 604.035869 
L 139.519481 603.417848 
L 145.558442 602.674356 
L 151.597403 601.786729 
L 157.636364 600.73376 
L 163.675325 599.491435 
L 169.714286 598.032667 
L 175.753247 596.327045 
L 181.792208 594.340609 
L 187.831169 592.035687 
L 193.87013 589.370796 
L 199.909091 586.30068 
L 205.948052 582.776492 
L 211.987013 578.746196 
L 218.025974 574.155235 
L 224.064935 568.947524 
L 230.103896 563.066822 
L 236.142857 556.458532 
L 242.181818 549.071932 
L 248.220779 540.86284 
L 254.25974 531.796626 
L 260.298701 521.851449 
L 266.337662 511.021515 
L 272.376623 499.320079 
L 278.415584 486.781874 
L 284.454545 473.464625 
L 290.493506 459.449334 
L 296.532468 444.839112 
L 302.571429 429.756466 
L 308.61039 414.33914 
L 314.649351 398.734785 
L 320.688312 383.094886 
L 326.727273 367.568505 
L 332.766234 352.296378 
L 338.805195 337.405867 
L 344.844156 323.007121 
L 350.883117 309.190637 
L 356.922078 296.026225 
L 362.961039 283.563244 
L 369 271.831878 
L 375.038961 260.845139 
L 381.077922 250.60133 
L 387.116883 241.08669 
L 393.155844 232.278009 
L 399.194805 224.145071 
L 405.233766 216.652821 
L 411.272727 209.763208 
L 417.311688 203.436697 
L 423.350649 197.633471 
L 429.38961 192.31434 
L 435.428571 187.441401 
L 441.467532 182.978505 
L 447.506494 178.891544 
L 453.545455 175.148616 
L 459.584416 171.720091 
L 465.623377 168.578599 
L 471.662338 165.698973 
L 477.701299 163.058148 
L 483.74026 160.635049 
L 489.779221 158.410456 
L 495.818182 156.366873 
L 501.857143 154.488385 
L 507.896104 152.760533 
L 513.935065 151.170185 
L 519.974026 149.705414 
L 526.012987 148.355392 
L 532.051948 147.110285 
L 538.090909 145.961157 
L 544.12987 144.89989 
L 550.168831 143.919099 
L 556.207792 143.012068 
L 562.246753 142.17268 
L 568.285714 141.395363 
L 574.324675 140.675039 
L 580.363636 140.007073 
L 586.402597 139.387233 
L 592.441558 138.811654 
L 598.480519 138.276801 
L 604.519481 137.779439 
L 610.558442 137.316608 
L 616.597403 136.885593 
L 622.636364 136.483907 
" style="fill:none;stroke:#d62728;stroke-linecap:square;stroke-width:1.5;"/>
   </g>
   <g id="line2d_27">
    <path clip-path="url(#p09f9d8ed62)" d="M 115.363636 605.290909 
L 121.402597 605.285261 
L 127.441558 605.269372 
L 133.480519 605.243209 
L 139.519481 605.204984 
L 145.558442 605.151312 
L 151.597403 605.077062 
L 157.636364 604.974946 
L 163.675325 604.834858 
L 169.714286 604.642938 
L 175.753247 604.380267 
L 181.792208 604.021135 
L 187.831169 603.530751 
L 193.87013 602.862283 
L 199.909091 601.953142 
L 205.948052 600.720494 
L 211.987013 599.056158 
L 218.025974 596.821415 
L 224.064935 593.842813 
L 230.103896 589.910927 
L 236.142857 584.784982 
L 242.181818 578.206982 
L 248.220779 569.928434 
L 254.25974 559.749856 
L 260.298701 547.567444 
L 266.337662 533.414196 
L 272.376623 517.479172 
L 278.415584 500.093214 
L 284.454545 481.682508 
L 290.493506 462.705201 
L 296.532468 443.591813 
L 302.571429 424.704627 
L 308.61039 406.320379 
L 314.649351 388.631697 
L 320.688312 371.759349 
L 326.727273 355.768258 
L 332.766234 340.682872 
L 338.805195 326.499879 
L 344.844156 313.197856 
L 350.883117 300.744187 
L 356.922078 289.099836 
L 362.961039 278.222543 
L 369 268.068924 
L 375.038961 258.595819 
L 381.077922 249.761132 
L 387.116883 241.52434 
L 393.155844 233.846779 
L 399.194805 226.691789 
L 405.233766 220.024763 
L 411.272727 213.813133 
L 417.311688 208.026327 
L 423.350649 202.635693 
L 429.38961 197.614417 
L 435.428571 192.937427 
L 441.467532 188.581298 
L 447.506494 184.524163 
L 453.545455 180.745609 
L 459.584416 177.226598 
L 465.623377 173.949373 
L 471.662338 170.897377 
L 477.701299 168.055176 
L 483.74026 165.408386 
L 489.779221 162.943602 
L 495.818182 160.648332 
L 501.857143 158.510938 
L 507.896104 156.520578 
L 513.935065 154.667149 
L 519.974026 152.941244 
L 526.012987 151.334097 
L 532.051948 149.837544 
L 538.090909 148.443981 
L 544.12987 147.146327 
L 550.168831 145.937984 
L 556.207792 144.812811 
L 562.246753 143.765086 
L 568.285714 142.78948 
L 574.324675 141.881031 
L 580.363636 141.03512 
L 586.402597 140.247441 
L 592.441558 139.513989 
L 598.480519 138.831031 
L 604.519481 138.195092 
L 610.558442 137.602935 
L 616.597403 137.051548 
L 622.636364 136.538123 
" style="fill:none;stroke:#9467bd;stroke-linecap:square;stroke-width:1.5;"/>
   </g>
   <g id="line2d_28">
    <path clip-path="url(#p09f9d8ed62)" d="M 115.363636 605.290909 
L 121.402597 605.270509 
L 127.441558 605.20819 
L 133.480519 605.099368 
L 139.519481 604.936012 
L 145.558442 604.706808 
L 151.597403 604.396958 
L 157.636364 603.987742 
L 163.675325 603.455873 
L 169.714286 602.772673 
L 175.753247 601.903106 
L 181.792208 600.804702 
L 187.831169 599.426415 
L 193.87013 597.707519 
L 199.909091 595.576678 
L 205.948052 592.951409 
L 211.987013 589.738224 
L 218.025974 585.833832 
L 224.064935 581.127804 
L 230.103896 575.507117 
L 236.142857 568.862821 
L 242.181818 561.098779 
L 248.220779 552.141924 
L 254.25974 541.952898 
L 260.298701 530.535366 
L 266.337662 517.942071 
L 272.376623 504.275969 
L 278.415584 489.685632 
L 284.454545 474.355346 
L 290.493506 458.491524 
L 296.532468 442.30778 
L 302.571429 426.011043 
L 308.61039 409.790508 
L 314.649351 393.810296 
L 320.688312 378.20584 
L 326.727273 363.083404 
L 332.766234 348.521833 
L 338.805195 334.575658 
L 344.844156 321.278802 
L 350.883117 308.648356 
L 356.922078 296.688099 
L 362.961039 285.391587 
L 369 274.744754 
L 375.038961 264.728044 
L 381.077922 255.318103 
L 387.116883 246.489107 
L 393.155844 238.213787 
L 399.194805 230.4642 
L 405.233766 223.212313 
L 411.272727 216.430424 
L 417.311688 210.091471 
L 423.350649 204.169246 
L 429.38961 198.638538 
L 435.428571 193.475229 
L 441.467532 188.65634 
L 447.506494 184.160058 
L 453.545455 179.965732 
L 459.584416 176.053857 
L 465.623377 172.40605 
L 471.662338 169.005008 
L 477.701299 165.83447 
L 483.74026 162.879172 
L 489.779221 160.124798 
L 495.818182 157.557935 
L 501.857143 155.166024 
L 507.896104 152.937312 
L 513.935065 150.860807 
L 519.974026 148.926234 
L 526.012987 147.123993 
L 532.051948 145.445115 
L 538.090909 143.881228 
L 544.12987 142.424514 
L 550.168831 141.067679 
L 556.207792 139.803914 
L 562.246753 138.626871 
L 568.285714 137.530628 
L 574.324675 136.509661 
L 580.363636 135.558821 
L 586.402597 134.673307 
L 592.441558 133.848645 
L 598.480519 133.080662 
L 604.519481 132.365472 
L 610.558442 131.699453 
L 616.597403 131.079227 
L 622.636364 130.50165 
" style="fill:none;stroke:#8c564b;stroke-linecap:square;stroke-width:1.5;"/>
   </g>
   <g id="line2d_29">
    <path clip-path="url(#p09f9d8ed62)" d="M 115.363636 605.290909 
L 121.402597 605.285208 
L 127.441558 605.269178 
L 133.480519 605.242788 
L 139.519481 605.204242 
L 145.558442 605.150134 
L 151.597403 605.075297 
L 157.636364 604.972395 
L 163.675325 604.831258 
L 169.714286 604.637941 
L 175.753247 604.373413 
L 181.792208 604.011819 
L 187.831169 603.518179 
L 193.87013 602.845419 
L 199.909091 601.930648 
L 205.948052 600.690656 
L 211.987013 599.016809 
L 218.025974 596.769863 
L 224.064935 593.775798 
L 230.103896 589.824611 
L 236.142857 584.675041 
L 242.181818 578.068811 
L 248.220779 569.757508 
L 254.25974 559.54223 
L 260.298701 547.32033 
L 266.337662 533.126488 
L 272.376623 517.151757 
L 278.415584 499.728955 
L 284.454545 481.28589 
L 290.493506 462.281734 
L 296.532468 443.147371 
L 302.571429 424.244883 
L 308.61039 405.850414 
L 314.649351 388.155803 
L 320.688312 371.280989 
L 326.727273 355.290126 
L 332.766234 340.206992 
L 338.805195 326.02773 
L 344.844156 312.730485 
L 350.883117 300.282306 
L 356.922078 288.643899 
L 362.961039 277.772815 
L 369 267.625526 
L 375.038961 258.158767 
L 381.077922 249.330365 
L 387.116883 241.099742 
L 393.155844 233.428194 
L 399.194805 226.279034 
L 405.233766 219.617635 
L 411.272727 213.411419 
L 417.311688 207.629808 
L 423.350649 202.244147 
L 429.38961 197.227622 
L 435.428571 192.555163 
L 441.467532 188.203351 
L 447.506494 184.150322 
L 453.545455 180.375672 
L 459.584416 176.860368 
L 465.623377 173.58666 
L 471.662338 170.537999 
L 477.701299 167.698959 
L 483.74026 165.055162 
L 489.779221 162.593211 
L 495.818182 160.300622 
L 501.857143 158.165764 
L 507.896104 156.1778 
L 513.935065 154.326637 
L 519.974026 152.602871 
L 526.012987 150.997745 
L 532.051948 149.5031 
L 538.090909 148.111339 
L 544.12987 146.815384 
L 550.168831 145.608645 
L 556.207792 144.484984 
L 562.246753 143.438684 
L 568.285714 142.464423 
L 574.324675 141.557242 
L 580.363636 140.712524 
L 586.402597 139.925971 
L 592.441558 139.193579 
L 598.480519 138.51162 
L 604.519481 137.876621 
L 610.558442 137.28535 
L 616.597403 136.734797 
L 622.636364 136.222158 
" style="fill:none;stroke:#e377c2;stroke-linecap:square;stroke-width:1.5;"/>
   </g>
   <g id="line2d_30">
    <path clip-path="url(#p09f9d8ed62)" d="M 115.363636 605.290909 
L 121.402597 605.267024 
L 127.441558 605.193578 
L 133.480519 605.065431 
L 139.519481 604.874211 
L 145.558442 604.608171 
L 151.597403 604.251856 
L 157.636364 603.785596 
L 163.675325 603.184828 
L 169.714286 602.419274 
L 175.753247 601.451982 
L 181.792208 600.238276 
L 187.831169 598.724661 
L 193.87013 596.847794 
L 199.909091 594.533679 
L 205.948052 591.697291 
L 211.987013 588.242946 
L 218.025974 584.065786 
L 224.064935 579.054777 
L 230.103896 573.097598 
L 236.142857 566.087639 
L 242.181818 557.932976 
L 248.220779 548.56673 
L 254.25974 537.957617 
L 260.298701 526.118961 
L 266.337662 513.114287 
L 272.376623 499.057865 
L 278.415584 484.109478 
L 284.454545 468.463884 
L 290.493506 452.336653 
L 296.532468 435.948737 
L 302.571429 419.512207 
L 308.61039 403.218982 
L 314.649351 387.233453 
L 320.688312 371.68904 
L 326.727273 356.688033 
L 332.766234 342.303785 
L 338.805195 328.584299 
L 344.844156 315.556408 
L 350.883117 303.229962 
L 356.922078 291.601678 
L 362.961039 280.658471 
L 369 270.380214 
L 375.038961 260.741949 
L 381.077922 251.715617 
L 387.116883 243.27137 
L 393.155844 235.378563 
L 399.194805 228.00647 
L 405.233766 221.124807 
L 411.272727 214.704089 
L 417.311688 208.715875 
L 423.350649 203.13293 
L 429.38961 197.929307 
L 435.428571 193.0804 
L 441.467532 188.562946 
L 447.506494 184.355018 
L 453.545455 180.435987 
L 459.584416 176.786481 
L 465.623377 173.388337 
L 471.662338 170.224542 
L 477.701299 167.279176 
L 483.74026 164.537356 
L 489.779221 161.985177 
L 495.818182 159.609653 
L 501.857143 157.398664 
L 507.896104 155.340902 
L 513.935065 153.425822 
L 519.974026 151.643591 
L 526.012987 149.985043 
L 532.051948 148.441637 
L 538.090909 147.005413 
L 544.12987 145.668958 
L 550.168831 144.425364 
L 556.207792 143.268201 
L 562.246753 142.191476 
L 568.285714 141.189614 
L 574.324675 140.257421 
L 580.363636 139.390062 
L 586.402597 138.583036 
L 592.441558 137.832153 
L 598.480519 137.133513 
L 604.519481 136.483486 
L 610.558442 135.878693 
L 616.597403 135.31599 
L 622.636364 134.79245 
" style="fill:none;stroke:#7f7f7f;stroke-linecap:square;stroke-width:1.5;"/>
   </g>
   <g id="line2d_31">
    <path clip-path="url(#p09f9d8ed62)" d="M 115.363636 605.290909 
L 121.402597 605.281646 
L 127.441558 605.251499 
L 133.480519 605.195853 
L 139.519481 605.108381 
L 145.558442 604.980611 
L 151.597403 604.801355 
L 157.636364 604.555985 
L 163.675325 604.225501 
L 169.714286 603.785385 
L 175.753247 603.204185 
L 181.792208 602.44183 
L 187.831169 601.447683 
L 193.87013 600.158403 
L 199.909091 598.495782 
L 205.948052 596.36486 
L 211.987013 593.652826 
L 218.025974 590.229426 
L 224.064935 585.949821 
L 230.103896 580.660893 
L 236.142857 574.211769 
L 242.181818 566.46856 
L 248.220779 557.33206 
L 254.25974 546.755604 
L 260.298701 534.759048 
L 266.337662 521.434905 
L 272.376623 506.944186 
L 278.415584 491.502359 
L 284.454545 475.358555 
L 290.493506 458.772717 
L 296.532468 441.995115 
L 302.571429 425.251127 
L 308.61039 408.732237 
L 314.649351 392.592648 
L 320.688312 376.950126 
L 326.727273 361.889492 
L 332.766234 347.467401 
L 338.805195 333.717456 
L 344.844156 320.65505 
L 350.883117 308.281617 
L 356.922078 296.58821 
L 362.961039 285.558386 
L 369 275.170486 
L 375.038961 265.399397 
L 381.077922 256.217888 
L 387.116883 247.597608 
L 393.155844 239.509829 
L 399.194805 231.925975 
L 405.233766 224.818009 
L 411.272727 218.158692 
L 417.311688 211.921763 
L 423.350649 206.082052 
L 429.38961 200.615544 
L 435.428571 195.499409 
L 441.467532 190.712002 
L 447.506494 186.232856 
L 453.545455 182.042645 
L 459.584416 178.123158 
L 465.623377 174.457247 
L 471.662338 171.028787 
L 477.701299 167.822629 
L 483.74026 164.824546 
L 489.779221 162.02119 
L 495.818182 159.400042 
L 501.857143 156.949364 
L 507.896104 154.658159 
L 513.935065 152.516122 
L 519.974026 150.513603 
L 526.012987 148.641567 
L 532.051948 146.891554 
L 538.090909 145.255648 
L 544.12987 143.726438 
L 550.168831 142.296992 
L 556.207792 140.960823 
L 562.246753 139.711862 
L 568.285714 138.544435 
L 574.324675 137.45323 
L 580.363636 136.433284 
L 586.402597 135.479953 
L 592.441558 134.588893 
L 598.480519 133.756044 
L 604.519481 132.97761 
L 610.558442 132.250041 
L 616.597403 131.570016 
L 622.636364 130.934433 
" style="fill:none;stroke:#bcbd22;stroke-linecap:square;stroke-width:1.5;"/>
   </g>
   <g id="line2d_32">
    <path clip-path="url(#p09f9d8ed62)" d="M 115.363636 605.290909 
L 121.402597 605.264191 
L 127.441558 605.184038 
L 133.480519 605.11005 
L 139.519481 605.017565 
L 145.558442 604.900417 
L 151.597403 604.824374 
L 157.636364 604.534588 
L 163.675325 604.329066 
L 169.714286 603.973512 
L 175.753247 603.151424 
L 181.792208 601.873076 
L 187.831169 600.676938 
L 193.87013 600.676938 
L 199.909091 594.603759 
L 205.948052 592.221758 
L 211.987013 589.330062 
L 218.025974 584.923667 
L 224.064935 581.211938 
L 230.103896 576.76855 
L 236.142857 568.438739 
L 242.181818 563.409612 
L 248.220779 553.207495 
L 254.25974 546.232074 
L 260.298701 533.144426 
L 266.337662 523.384181 
L 272.376623 503.592401 
L 278.415584 486.593667 
L 284.454545 470.289597 
L 290.493506 454.842555 
L 296.532468 440.71291 
L 302.571429 424.587645 
L 308.61039 408.213698 
L 314.649351 391.37116 
L 320.688312 375.038318 
L 326.727273 360.37637 
L 332.766234 346.053534 
L 338.805195 334.795032 
L 344.844156 324.459325 
L 350.883117 313.634475 
L 356.922078 300.731797 
L 362.961039 290.451581 
L 369 280.070659 
L 375.038961 270.300137 
L 381.077922 262.482076 
L 387.116883 255.765613 
L 393.155844 250.746763 
L 399.194805 240.25897 
L 405.233766 225.247635 
L 411.272727 213.140327 
L 417.311688 211.317346 
L 423.350649 197.037669 
L 429.38961 193.880849 
L 435.428571 185.725732 
L 441.467532 177.071196 
L 447.506494 167.545246 
L 453.545455 188.167335 
L 459.584416 182.176365 
L 465.623377 178.622888 
L 471.662338 174.859778 
L 477.701299 172.171548 
L 483.74026 167.765154 
L 489.779221 166.70055 
L 495.818182 163.040201 
L 501.857143 160.232769 
L 507.896104 158.415953 
L 513.935065 157.295858 
L 519.974026 154.587076 
L 526.012987 152.540076 
L 532.051948 150.234118 
L 538.090909 147.336256 
L 544.12987 145.854441 
L 550.168831 144.267811 
L 556.207792 137.925398 
L 562.246753 136.704597 
L 568.285714 135.346096 
L 574.324675 133.601213 
L 580.363636 132.279706 
L 586.402597 131.221267 
L 592.441558 131.221267 
L 598.480519 129.355126 
L 604.519481 128.469326 
L 610.558442 127.404721 
L 616.597403 126.414105 
L 622.636364 122.741424 
" style="fill:none;stroke:#17becf;stroke-dasharray:14.8,6.4;stroke-dashoffset:0;stroke-width:4;"/>
   </g>
   <g id="patch_3">
    <path d="M 90 630 
L 90 86.4 
" style="fill:none;stroke:#000000;stroke-linecap:square;stroke-linejoin:miter;stroke-width:0.8;"/>
   </g>
   <g id="patch_4">
    <path d="M 648 630 
L 648 86.4 
" style="fill:none;stroke:#000000;stroke-linecap:square;stroke-linejoin:miter;stroke-width:0.8;"/>
   </g>
   <g id="patch_5">
    <path d="M 90 630 
L 648 630 
" style="fill:none;stroke:#000000;stroke-linecap:square;stroke-linejoin:miter;stroke-width:0.8;"/>
   </g>
   <g id="patch_6">
    <path d="M 90 86.4 
L 648 86.4 
" style="fill:none;stroke:#000000;stroke-linecap:square;stroke-linejoin:miter;stroke-width:0.8;"/>
   </g>
   <g id="text_14">
    <!-- Spain relative err =  -->
    <g transform="translate(308.430938 80.4)scale(0.12 -0.12)">
     <defs>
      <path d="M 53.515625 70.515625 
L 53.515625 60.890625 
Q 47.90625 63.578125 42.921875 64.890625 
Q 37.9375 66.21875 33.296875 66.21875 
Q 25.25 66.21875 20.875 63.09375 
Q 16.5 59.96875 16.5 54.203125 
Q 16.5 49.359375 19.40625 46.890625 
Q 22.3125 44.4375 30.421875 42.921875 
L 36.375 41.703125 
Q 47.40625 39.59375 52.65625 34.296875 
Q 57.90625 29 57.90625 20.125 
Q 57.90625 9.515625 50.796875 4.046875 
Q 43.703125 -1.421875 29.984375 -1.421875 
Q 24.8125 -1.421875 18.96875 -0.25 
Q 13.140625 0.921875 6.890625 3.21875 
L 6.890625 13.375 
Q 12.890625 10.015625 18.65625 8.296875 
Q 24.421875 6.59375 29.984375 6.59375 
Q 38.421875 6.59375 43.015625 9.90625 
Q 47.609375 13.234375 47.609375 19.390625 
Q 47.609375 24.75 44.3125 27.78125 
Q 41.015625 30.8125 33.5 32.328125 
L 27.484375 33.5 
Q 16.453125 35.6875 11.515625 40.375 
Q 6.59375 45.0625 6.59375 53.421875 
Q 6.59375 63.09375 13.40625 68.65625 
Q 20.21875 74.21875 32.171875 74.21875 
Q 37.3125 74.21875 42.625 73.28125 
Q 47.953125 72.359375 53.515625 70.515625 
z
" id="DejaVuSans-83"/>
      <path d="M 18.109375 8.203125 
L 18.109375 -20.796875 
L 9.078125 -20.796875 
L 9.078125 54.6875 
L 18.109375 54.6875 
L 18.109375 46.390625 
Q 20.953125 51.265625 25.265625 53.625 
Q 29.59375 56 35.59375 56 
Q 45.5625 56 51.78125 48.09375 
Q 58.015625 40.1875 58.015625 27.296875 
Q 58.015625 14.40625 51.78125 6.484375 
Q 45.5625 -1.421875 35.59375 -1.421875 
Q 29.59375 -1.421875 25.265625 0.953125 
Q 20.953125 3.328125 18.109375 8.203125 
z
M 48.6875 27.296875 
Q 48.6875 37.203125 44.609375 42.84375 
Q 40.53125 48.484375 33.40625 48.484375 
Q 26.265625 48.484375 22.1875 42.84375 
Q 18.109375 37.203125 18.109375 27.296875 
Q 18.109375 17.390625 22.1875 11.75 
Q 26.265625 6.109375 33.40625 6.109375 
Q 40.53125 6.109375 44.609375 11.75 
Q 48.6875 17.390625 48.6875 27.296875 
z
" id="DejaVuSans-112"/>
      <path d="M 54.890625 33.015625 
L 54.890625 0 
L 45.90625 0 
L 45.90625 32.71875 
Q 45.90625 40.484375 42.875 44.328125 
Q 39.84375 48.1875 33.796875 48.1875 
Q 26.515625 48.1875 22.3125 43.546875 
Q 18.109375 38.921875 18.109375 30.90625 
L 18.109375 0 
L 9.078125 0 
L 9.078125 54.6875 
L 18.109375 54.6875 
L 18.109375 46.1875 
Q 21.34375 51.125 25.703125 53.5625 
Q 30.078125 56 35.796875 56 
Q 45.21875 56 50.046875 50.171875 
Q 54.890625 44.34375 54.890625 33.015625 
z
" id="DejaVuSans-110"/>
      <path d="M 41.109375 46.296875 
Q 39.59375 47.171875 37.8125 47.578125 
Q 36.03125 48 33.890625 48 
Q 26.265625 48 22.1875 43.046875 
Q 18.109375 38.09375 18.109375 28.8125 
L 18.109375 0 
L 9.078125 0 
L 9.078125 54.6875 
L 18.109375 54.6875 
L 18.109375 46.1875 
Q 20.953125 51.171875 25.484375 53.578125 
Q 30.03125 56 36.53125 56 
Q 37.453125 56 38.578125 55.875 
Q 39.703125 55.765625 41.0625 55.515625 
z
" id="DejaVuSans-114"/>
      <path d="M 10.59375 45.40625 
L 73.1875 45.40625 
L 73.1875 37.203125 
L 10.59375 37.203125 
z
M 10.59375 25.484375 
L 73.1875 25.484375 
L 73.1875 17.1875 
L 10.59375 17.1875 
z
" id="DejaVuSans-61"/>
     </defs>
     <use xlink:href="#DejaVuSans-83"/>
     <use x="63.476562" xlink:href="#DejaVuSans-112"/>
     <use x="126.953125" xlink:href="#DejaVuSans-97"/>
     <use x="188.232422" xlink:href="#DejaVuSans-105"/>
     <use x="216.015625" xlink:href="#DejaVuSans-110"/>
     <use x="279.394531" xlink:href="#DejaVuSans-32"/>
     <use x="311.181641" xlink:href="#DejaVuSans-114"/>
     <use x="350.044922" xlink:href="#DejaVuSans-101"/>
     <use x="411.568359" xlink:href="#DejaVuSans-108"/>
     <use x="439.351562" xlink:href="#DejaVuSans-97"/>
     <use x="500.630859" xlink:href="#DejaVuSans-116"/>
     <use x="539.839844" xlink:href="#DejaVuSans-105"/>
     <use x="567.623047" xlink:href="#DejaVuSans-118"/>
     <use x="626.802734" xlink:href="#DejaVuSans-101"/>
     <use x="688.326172" xlink:href="#DejaVuSans-32"/>
     <use x="720.113281" xlink:href="#DejaVuSans-101"/>
     <use x="781.636719" xlink:href="#DejaVuSans-114"/>
     <use x="821" xlink:href="#DejaVuSans-114"/>
     <use x="862.113281" xlink:href="#DejaVuSans-32"/>
     <use x="893.900391" xlink:href="#DejaVuSans-61"/>
     <use x="977.689453" xlink:href="#DejaVuSans-32"/>
    </g>
   </g>
   <g id="legend_1">
    <g id="patch_7">
     <path d="M 97 226.503125 
L 185.6 226.503125 
Q 187.6 226.503125 187.6 224.503125 
L 187.6 93.4 
Q 187.6 91.4 185.6 91.4 
L 97 91.4 
Q 95 91.4 95 93.4 
L 95 224.503125 
Q 95 226.503125 97 226.503125 
z
" style="fill:#ffffff;opacity:0.8;stroke:#cccccc;stroke-linejoin:miter;"/>
    </g>
    <g id="line2d_33">
     <path d="M 99 99.498438 
L 119 99.498438 
" style="fill:none;stroke:#1f77b4;stroke-linecap:square;stroke-width:1.5;"/>
    </g>
    <g id="line2d_34"/>
    <g id="text_15">
     <!-- SI -->
     <g transform="translate(127 102.998438)scale(0.1 -0.1)">
      <defs>
       <path d="M 9.8125 72.90625 
L 19.671875 72.90625 
L 19.671875 0 
L 9.8125 0 
z
" id="DejaVuSans-73"/>
      </defs>
      <use xlink:href="#DejaVuSans-83"/>
      <use x="63.476562" xlink:href="#DejaVuSans-73"/>
     </g>
    </g>
    <g id="line2d_35">
     <path d="M 99 114.176563 
L 119 114.176563 
" style="fill:none;stroke:#ff7f0e;stroke-linecap:square;stroke-width:1.5;"/>
    </g>
    <g id="line2d_36"/>
    <g id="text_16">
     <!-- BD -->
     <g transform="translate(127 117.676563)scale(0.1 -0.1)">
      <defs>
       <path d="M 19.671875 34.8125 
L 19.671875 8.109375 
L 35.5 8.109375 
Q 43.453125 8.109375 47.28125 11.40625 
Q 51.125 14.703125 51.125 21.484375 
Q 51.125 28.328125 47.28125 31.5625 
Q 43.453125 34.8125 35.5 34.8125 
z
M 19.671875 64.796875 
L 19.671875 42.828125 
L 34.28125 42.828125 
Q 41.5 42.828125 45.03125 45.53125 
Q 48.578125 48.25 48.578125 53.8125 
Q 48.578125 59.328125 45.03125 62.0625 
Q 41.5 64.796875 34.28125 64.796875 
z
M 9.8125 72.90625 
L 35.015625 72.90625 
Q 46.296875 72.90625 52.390625 68.21875 
Q 58.5 63.53125 58.5 54.890625 
Q 58.5 48.1875 55.375 44.234375 
Q 52.25 40.28125 46.1875 39.3125 
Q 53.46875 37.75 57.5 32.78125 
Q 61.53125 27.828125 61.53125 20.40625 
Q 61.53125 10.640625 54.890625 5.3125 
Q 48.25 0 35.984375 0 
L 9.8125 0 
z
" id="DejaVuSans-66"/>
      </defs>
      <use xlink:href="#DejaVuSans-66"/>
      <use x="68.603516" xlink:href="#DejaVuSans-68"/>
     </g>
    </g>
    <g id="line2d_37">
     <path d="M 99 128.854688 
L 119 128.854688 
" style="fill:none;stroke:#2ca02c;stroke-linecap:square;stroke-width:1.5;"/>
    </g>
    <g id="line2d_38"/>
    <g id="text_17">
     <!-- SIR -->
     <g transform="translate(127 132.354688)scale(0.1 -0.1)">
      <defs>
       <path d="M 44.390625 34.1875 
Q 47.5625 33.109375 50.5625 29.59375 
Q 53.5625 26.078125 56.59375 19.921875 
L 66.609375 0 
L 56 0 
L 46.6875 18.703125 
Q 43.0625 26.03125 39.671875 28.421875 
Q 36.28125 30.8125 30.421875 30.8125 
L 19.671875 30.8125 
L 19.671875 0 
L 9.8125 0 
L 9.8125 72.90625 
L 32.078125 72.90625 
Q 44.578125 72.90625 50.734375 67.671875 
Q 56.890625 62.453125 56.890625 51.90625 
Q 56.890625 45.015625 53.6875 40.46875 
Q 50.484375 35.9375 44.390625 34.1875 
z
M 19.671875 64.796875 
L 19.671875 38.921875 
L 32.078125 38.921875 
Q 39.203125 38.921875 42.84375 42.21875 
Q 46.484375 45.515625 46.484375 51.90625 
Q 46.484375 58.296875 42.84375 61.546875 
Q 39.203125 64.796875 32.078125 64.796875 
z
" id="DejaVuSans-82"/>
      </defs>
      <use xlink:href="#DejaVuSans-83"/>
      <use x="63.476562" xlink:href="#DejaVuSans-73"/>
      <use x="92.96875" xlink:href="#DejaVuSans-82"/>
     </g>
    </g>
    <g id="line2d_39">
     <path d="M 99 143.532812 
L 119 143.532812 
" style="fill:none;stroke:#d62728;stroke-linecap:square;stroke-width:1.5;"/>
    </g>
    <g id="line2d_40"/>
    <g id="text_18">
     <!-- eSIR -->
     <g transform="translate(127 147.032812)scale(0.1 -0.1)">
      <use xlink:href="#DejaVuSans-101"/>
      <use x="61.523438" xlink:href="#DejaVuSans-83"/>
      <use x="125" xlink:href="#DejaVuSans-73"/>
      <use x="154.492188" xlink:href="#DejaVuSans-82"/>
     </g>
    </g>
    <g id="line2d_41">
     <path d="M 99 158.210938 
L 119 158.210938 
" style="fill:none;stroke:#9467bd;stroke-linecap:square;stroke-width:1.5;"/>
    </g>
    <g id="line2d_42"/>
    <g id="text_19">
     <!-- SEIR -->
     <g transform="translate(127 161.710938)scale(0.1 -0.1)">
      <defs>
       <path d="M 9.8125 72.90625 
L 55.90625 72.90625 
L 55.90625 64.59375 
L 19.671875 64.59375 
L 19.671875 43.015625 
L 54.390625 43.015625 
L 54.390625 34.71875 
L 19.671875 34.71875 
L 19.671875 8.296875 
L 56.78125 8.296875 
L 56.78125 0 
L 9.8125 0 
z
" id="DejaVuSans-69"/>
      </defs>
      <use xlink:href="#DejaVuSans-83"/>
      <use x="63.476562" xlink:href="#DejaVuSans-69"/>
      <use x="126.660156" xlink:href="#DejaVuSans-73"/>
      <use x="156.152344" xlink:href="#DejaVuSans-82"/>
     </g>
    </g>
    <g id="line2d_43">
     <path d="M 99 172.889063 
L 119 172.889063 
" style="fill:none;stroke:#8c564b;stroke-linecap:square;stroke-width:1.5;"/>
    </g>
    <g id="line2d_44"/>
    <g id="text_20">
     <!-- eSEIR -->
     <g transform="translate(127 176.389063)scale(0.1 -0.1)">
      <use xlink:href="#DejaVuSans-101"/>
      <use x="61.523438" xlink:href="#DejaVuSans-83"/>
      <use x="125" xlink:href="#DejaVuSans-69"/>
      <use x="188.183594" xlink:href="#DejaVuSans-73"/>
      <use x="217.675781" xlink:href="#DejaVuSans-82"/>
     </g>
    </g>
    <g id="line2d_45">
     <path d="M 99 187.567188 
L 119 187.567188 
" style="fill:none;stroke:#e377c2;stroke-linecap:square;stroke-width:1.5;"/>
    </g>
    <g id="line2d_46"/>
    <g id="text_21">
     <!-- SEIUR -->
     <g transform="translate(127 191.067188)scale(0.1 -0.1)">
      <defs>
       <path d="M 8.6875 72.90625 
L 18.609375 72.90625 
L 18.609375 28.609375 
Q 18.609375 16.890625 22.84375 11.734375 
Q 27.09375 6.59375 36.625 6.59375 
Q 46.09375 6.59375 50.34375 11.734375 
Q 54.59375 16.890625 54.59375 28.609375 
L 54.59375 72.90625 
L 64.5 72.90625 
L 64.5 27.390625 
Q 64.5 13.140625 57.4375 5.859375 
Q 50.390625 -1.421875 36.625 -1.421875 
Q 22.796875 -1.421875 15.734375 5.859375 
Q 8.6875 13.140625 8.6875 27.390625 
z
" id="DejaVuSans-85"/>
      </defs>
      <use xlink:href="#DejaVuSans-83"/>
      <use x="63.476562" xlink:href="#DejaVuSans-69"/>
      <use x="126.660156" xlink:href="#DejaVuSans-73"/>
      <use x="156.152344" xlink:href="#DejaVuSans-85"/>
      <use x="229.345703" xlink:href="#DejaVuSans-82"/>
     </g>
    </g>
    <g id="line2d_47">
     <path d="M 99 202.245312 
L 119 202.245312 
" style="fill:none;stroke:#7f7f7f;stroke-linecap:square;stroke-width:1.5;"/>
    </g>
    <g id="line2d_48"/>
    <g id="text_22">
     <!-- eSEIUR -->
     <g transform="translate(127 205.745312)scale(0.1 -0.1)">
      <use xlink:href="#DejaVuSans-101"/>
      <use x="61.523438" xlink:href="#DejaVuSans-83"/>
      <use x="125" xlink:href="#DejaVuSans-69"/>
      <use x="188.183594" xlink:href="#DejaVuSans-73"/>
      <use x="217.675781" xlink:href="#DejaVuSans-85"/>
      <use x="290.869141" xlink:href="#DejaVuSans-82"/>
     </g>
    </g>
    <g id="line2d_49">
     <path d="M 99 216.923437 
L 119 216.923437 
" style="fill:none;stroke:#bcbd22;stroke-linecap:square;stroke-width:1.5;"/>
    </g>
    <g id="line2d_50"/>
    <g id="text_23">
     <!-- eSEIUR$^{range}$ -->
     <g transform="translate(127 220.423437)scale(0.1 -0.1)">
      <defs>
       <path d="M 44.578125 46.390625 
Q 43.21875 47.125 41.453125 47.515625 
Q 39.703125 47.90625 37.703125 47.90625 
Q 30.515625 47.90625 25.140625 42.453125 
Q 19.78125 37.015625 18.015625 27.875 
L 12.5 0 
L 3.515625 0 
L 14.203125 54.6875 
L 23.1875 54.6875 
L 21.484375 46.1875 
Q 25.046875 50.921875 30 53.453125 
Q 34.96875 56 40.578125 56 
Q 42.046875 56 43.453125 55.828125 
Q 44.875 55.671875 46.296875 55.28125 
z
" id="DejaVuSans-Oblique-114"/>
       <path d="M 53.71875 31.203125 
L 47.609375 0 
L 38.625 0 
L 40.28125 8.296875 
Q 36.328125 3.421875 31.265625 1 
Q 26.21875 -1.421875 20.015625 -1.421875 
Q 13.03125 -1.421875 8.5625 2.84375 
Q 4.109375 7.125 4.109375 13.8125 
Q 4.109375 23.390625 11.75 28.953125 
Q 19.390625 34.515625 32.8125 34.515625 
L 45.3125 34.515625 
L 45.796875 36.921875 
Q 45.90625 37.3125 45.953125 37.765625 
Q 46 38.234375 46 39.203125 
Q 46 43.5625 42.453125 45.96875 
Q 38.921875 48.390625 32.515625 48.390625 
Q 28.125 48.390625 23.5 47.265625 
Q 18.890625 46.140625 14.015625 43.890625 
L 15.578125 52.203125 
Q 20.65625 54.109375 25.515625 55.046875 
Q 30.375 56 34.90625 56 
Q 44.578125 56 49.625 51.796875 
Q 54.6875 47.609375 54.6875 39.59375 
Q 54.6875 37.984375 54.4375 35.8125 
Q 54.203125 33.640625 53.71875 31.203125 
z
M 44 27.484375 
L 35.015625 27.484375 
Q 23.96875 27.484375 18.671875 24.53125 
Q 13.375 21.578125 13.375 15.375 
Q 13.375 11.078125 16.078125 8.640625 
Q 18.796875 6.203125 23.578125 6.203125 
Q 30.90625 6.203125 36.375 11.453125 
Q 41.84375 16.703125 43.609375 25.484375 
z
" id="DejaVuSans-Oblique-97"/>
       <path d="M 55.71875 33.015625 
L 49.3125 0 
L 40.28125 0 
L 46.6875 32.671875 
Q 47.125 34.96875 47.359375 36.71875 
Q 47.609375 38.484375 47.609375 39.5 
Q 47.609375 43.609375 45.015625 45.890625 
Q 42.4375 48.1875 37.796875 48.1875 
Q 30.5625 48.1875 25.34375 43.375 
Q 20.125 38.578125 18.5 30.328125 
L 12.5 0 
L 3.515625 0 
L 14.109375 54.6875 
L 23.09375 54.6875 
L 21.296875 46.09375 
Q 25.046875 50.828125 30.3125 53.40625 
Q 35.59375 56 41.40625 56 
Q 48.640625 56 52.609375 52.09375 
Q 56.59375 48.1875 56.59375 41.109375 
Q 56.59375 39.359375 56.375 37.359375 
Q 56.15625 35.359375 55.71875 33.015625 
z
" id="DejaVuSans-Oblique-110"/>
       <path d="M 59.625 54.6875 
L 50.296875 6.78125 
Q 47.609375 -7.125 40.015625 -13.953125 
Q 32.421875 -20.796875 19.578125 -20.796875 
Q 14.84375 -20.796875 10.78125 -20.09375 
Q 6.734375 -19.390625 3.21875 -17.921875 
L 4.890625 -9.1875 
Q 8.203125 -11.328125 11.90625 -12.34375 
Q 15.625 -13.375 19.828125 -13.375 
Q 28.375 -13.375 33.859375 -8.703125 
Q 39.359375 -4.046875 41.109375 4.6875 
L 41.890625 8.796875 
Q 38.140625 4.5 33.15625 2.25 
Q 28.171875 0 22.40625 0 
Q 14.109375 0 9.34375 5.484375 
Q 4.59375 10.984375 4.59375 20.609375 
Q 4.59375 28.171875 7.46875 35.421875 
Q 10.359375 42.671875 15.578125 48.296875 
Q 19.046875 52 23.65625 54 
Q 28.265625 56 33.296875 56 
Q 38.8125 56 42.90625 53.4375 
Q 47.015625 50.875 49.03125 46.1875 
L 50.59375 54.6875 
z
M 46.09375 34.625 
Q 46.09375 41.265625 42.96875 44.875 
Q 39.84375 48.484375 34.078125 48.484375 
Q 30.515625 48.484375 27.296875 47.0625 
Q 24.078125 45.65625 21.78125 43.109375 
Q 18.0625 38.921875 15.984375 33.234375 
Q 13.921875 27.546875 13.921875 21.484375 
Q 13.921875 14.75 17.0625 11.125 
Q 20.21875 7.515625 26.125 7.515625 
Q 34.671875 7.515625 40.375 15.25 
Q 46.09375 23 46.09375 34.625 
z
" id="DejaVuSans-Oblique-103"/>
       <path d="M 48.09375 32.234375 
Q 48.25 33.015625 48.3125 33.84375 
Q 48.390625 34.671875 48.390625 35.5 
Q 48.390625 41.453125 44.890625 44.921875 
Q 41.40625 48.390625 35.40625 48.390625 
Q 28.71875 48.390625 23.578125 44.15625 
Q 18.453125 39.9375 15.828125 32.171875 
z
M 55.90625 25.203125 
L 14.109375 25.203125 
Q 13.8125 23.34375 13.71875 22.265625 
Q 13.625 21.1875 13.625 20.40625 
Q 13.625 13.625 17.796875 9.90625 
Q 21.96875 6.203125 29.59375 6.203125 
Q 35.453125 6.203125 40.671875 7.515625 
Q 45.90625 8.84375 50.390625 11.375 
L 48.6875 2.484375 
Q 43.84375 0.53125 38.6875 -0.4375 
Q 33.546875 -1.421875 28.21875 -1.421875 
Q 16.84375 -1.421875 10.71875 4.015625 
Q 4.59375 9.46875 4.59375 19.484375 
Q 4.59375 28.03125 7.640625 35.375 
Q 10.6875 42.71875 16.609375 48.484375 
Q 20.40625 52.09375 25.65625 54.046875 
Q 30.90625 56 36.8125 56 
Q 46.09375 56 51.578125 50.4375 
Q 57.078125 44.875 57.078125 35.5 
Q 57.078125 33.25 56.78125 30.6875 
Q 56.5 28.125 55.90625 25.203125 
z
" id="DejaVuSans-Oblique-101"/>
      </defs>
      <use transform="translate(0 0.51875)" xlink:href="#DejaVuSans-101"/>
      <use transform="translate(61.523438 0.51875)" xlink:href="#DejaVuSans-83"/>
      <use transform="translate(125 0.51875)" xlink:href="#DejaVuSans-69"/>
      <use transform="translate(188.183594 0.51875)" xlink:href="#DejaVuSans-73"/>
      <use transform="translate(217.675781 0.51875)" xlink:href="#DejaVuSans-85"/>
      <use transform="translate(288.619141 0.51875)" xlink:href="#DejaVuSans-82"/>
      <use transform="translate(359.058594 38.8)scale(0.7)" xlink:href="#DejaVuSans-Oblique-114"/>
      <use transform="translate(387.837891 38.8)scale(0.7)" xlink:href="#DejaVuSans-Oblique-97"/>
      <use transform="translate(430.733398 38.8)scale(0.7)" xlink:href="#DejaVuSans-Oblique-110"/>
      <use transform="translate(475.098633 38.8)scale(0.7)" xlink:href="#DejaVuSans-Oblique-103"/>
      <use transform="translate(519.532227 38.8)scale(0.7)" xlink:href="#DejaVuSans-Oblique-101"/>
     </g>
    </g>
   </g>
  </g>
 </g>
 <defs>
  <clipPath id="p09f9d8ed62">
   <rect height="543.6" width="558" x="90" y="86.4"/>
  </clipPath>
 </defs>
</svg>
