<?xml version="1.0" encoding="utf-8" standalone="no"?>
<!DOCTYPE svg PUBLIC "-//W3C//DTD SVG 1.1//EN"
  "http://www.w3.org/Graphics/SVG/1.1/DTD/svg11.dtd">
<!-- Created with matplotlib (https://matplotlib.org/) -->
<svg height="720pt" version="1.1" viewBox="0 0 720 720" width="720pt" xmlns="http://www.w3.org/2000/svg" xmlns:xlink="http://www.w3.org/1999/xlink">
 <metadata>
  <rdf:RDF xmlns:cc="http://creativecommons.org/ns#" xmlns:dc="http://purl.org/dc/elements/1.1/" xmlns:rdf="http://www.w3.org/1999/02/22-rdf-syntax-ns#">
   <cc:Work>
    <dc:type rdf:resource="http://purl.org/dc/dcmitype/StillImage"/>
    <dc:date>2022-07-13T18:53:52.503607</dc:date>
    <dc:format>image/svg+xml</dc:format>
    <dc:creator>
     <cc:Agent>
      <dc:title>Matplotlib v3.3.2, https://matplotlib.org/</dc:title>
     </cc:Agent>
    </dc:creator>
   </cc:Work>
  </rdf:RDF>
 </metadata>
 <defs>
  <style type="text/css">*{stroke-linecap:butt;stroke-linejoin:round;}</style>
 </defs>
 <g id="figure_1">
  <g id="patch_1">
   <path d="M 0 720 
L 720 720 
L 720 0 
L 0 0 
z
" style="fill:none;"/>
  </g>
  <g id="axes_1">
   <g id="patch_2">
    <path d="M 90 630 
L 648 630 
L 648 86.4 
L 90 86.4 
z
" style="fill:#ffffff;"/>
   </g>
   <g id="matplotlib.axis_1">
    <g id="xtick_1">
     <g id="line2d_1">
      <path clip-path="url(#p4da119bd0c)" d="M 115.363636 630 
L 115.363636 86.4 
" style="fill:none;stroke:#b0b0b0;stroke-linecap:square;stroke-width:0.8;"/>
     </g>
     <g id="line2d_2">
      <defs>
       <path d="M 0 0 
L 0 3.5 
" id="m6ad510506b" style="stroke:#000000;stroke-width:0.8;"/>
      </defs>
      <g>
       <use style="stroke:#000000;stroke-width:0.8;" x="115.363636" xlink:href="#m6ad510506b" y="630"/>
      </g>
     </g>
     <g id="text_1">
      <!-- 0 -->
      <g transform="translate(112.182386 644.598438)scale(0.1 -0.1)">
       <defs>
        <path d="M 31.78125 66.40625 
Q 24.171875 66.40625 20.328125 58.90625 
Q 16.5 51.421875 16.5 36.375 
Q 16.5 21.390625 20.328125 13.890625 
Q 24.171875 6.390625 31.78125 6.390625 
Q 39.453125 6.390625 43.28125 13.890625 
Q 47.125 21.390625 47.125 36.375 
Q 47.125 51.421875 43.28125 58.90625 
Q 39.453125 66.40625 31.78125 66.40625 
z
M 31.78125 74.21875 
Q 44.046875 74.21875 50.515625 64.515625 
Q 56.984375 54.828125 56.984375 36.375 
Q 56.984375 17.96875 50.515625 8.265625 
Q 44.046875 -1.421875 31.78125 -1.421875 
Q 19.53125 -1.421875 13.0625 8.265625 
Q 6.59375 17.96875 6.59375 36.375 
Q 6.59375 54.828125 13.0625 64.515625 
Q 19.53125 74.21875 31.78125 74.21875 
z
" id="DejaVuSans-48"/>
       </defs>
       <use xlink:href="#DejaVuSans-48"/>
      </g>
     </g>
    </g>
    <g id="xtick_2">
     <g id="line2d_3">
      <path clip-path="url(#p4da119bd0c)" d="M 178.772727 630 
L 178.772727 86.4 
" style="fill:none;stroke:#b0b0b0;stroke-linecap:square;stroke-width:0.8;"/>
     </g>
     <g id="line2d_4">
      <g>
       <use style="stroke:#000000;stroke-width:0.8;" x="178.772727" xlink:href="#m6ad510506b" y="630"/>
      </g>
     </g>
     <g id="text_2">
      <!-- 25 -->
      <g transform="translate(172.410227 644.598438)scale(0.1 -0.1)">
       <defs>
        <path d="M 19.1875 8.296875 
L 53.609375 8.296875 
L 53.609375 0 
L 7.328125 0 
L 7.328125 8.296875 
Q 12.9375 14.109375 22.625 23.890625 
Q 32.328125 33.6875 34.8125 36.53125 
Q 39.546875 41.84375 41.421875 45.53125 
Q 43.3125 49.21875 43.3125 52.78125 
Q 43.3125 58.59375 39.234375 62.25 
Q 35.15625 65.921875 28.609375 65.921875 
Q 23.96875 65.921875 18.8125 64.3125 
Q 13.671875 62.703125 7.8125 59.421875 
L 7.8125 69.390625 
Q 13.765625 71.78125 18.9375 73 
Q 24.125 74.21875 28.421875 74.21875 
Q 39.75 74.21875 46.484375 68.546875 
Q 53.21875 62.890625 53.21875 53.421875 
Q 53.21875 48.921875 51.53125 44.890625 
Q 49.859375 40.875 45.40625 35.40625 
Q 44.1875 33.984375 37.640625 27.21875 
Q 31.109375 20.453125 19.1875 8.296875 
z
" id="DejaVuSans-50"/>
        <path d="M 10.796875 72.90625 
L 49.515625 72.90625 
L 49.515625 64.59375 
L 19.828125 64.59375 
L 19.828125 46.734375 
Q 21.96875 47.46875 24.109375 47.828125 
Q 26.265625 48.1875 28.421875 48.1875 
Q 40.625 48.1875 47.75 41.5 
Q 54.890625 34.8125 54.890625 23.390625 
Q 54.890625 11.625 47.5625 5.09375 
Q 40.234375 -1.421875 26.90625 -1.421875 
Q 22.3125 -1.421875 17.546875 -0.640625 
Q 12.796875 0.140625 7.71875 1.703125 
L 7.71875 11.625 
Q 12.109375 9.234375 16.796875 8.0625 
Q 21.484375 6.890625 26.703125 6.890625 
Q 35.15625 6.890625 40.078125 11.328125 
Q 45.015625 15.765625 45.015625 23.390625 
Q 45.015625 31 40.078125 35.4375 
Q 35.15625 39.890625 26.703125 39.890625 
Q 22.75 39.890625 18.8125 39.015625 
Q 14.890625 38.140625 10.796875 36.28125 
z
" id="DejaVuSans-53"/>
       </defs>
       <use xlink:href="#DejaVuSans-50"/>
       <use x="63.623047" xlink:href="#DejaVuSans-53"/>
      </g>
     </g>
    </g>
    <g id="xtick_3">
     <g id="line2d_5">
      <path clip-path="url(#p4da119bd0c)" d="M 242.181818 630 
L 242.181818 86.4 
" style="fill:none;stroke:#b0b0b0;stroke-linecap:square;stroke-width:0.8;"/>
     </g>
     <g id="line2d_6">
      <g>
       <use style="stroke:#000000;stroke-width:0.8;" x="242.181818" xlink:href="#m6ad510506b" y="630"/>
      </g>
     </g>
     <g id="text_3">
      <!-- 50 -->
      <g transform="translate(235.819318 644.598438)scale(0.1 -0.1)">
       <use xlink:href="#DejaVuSans-53"/>
       <use x="63.623047" xlink:href="#DejaVuSans-48"/>
      </g>
     </g>
    </g>
    <g id="xtick_4">
     <g id="line2d_7">
      <path clip-path="url(#p4da119bd0c)" d="M 305.590909 630 
L 305.590909 86.4 
" style="fill:none;stroke:#b0b0b0;stroke-linecap:square;stroke-width:0.8;"/>
     </g>
     <g id="line2d_8">
      <g>
       <use style="stroke:#000000;stroke-width:0.8;" x="305.590909" xlink:href="#m6ad510506b" y="630"/>
      </g>
     </g>
     <g id="text_4">
      <!-- 75 -->
      <g transform="translate(299.228409 644.598438)scale(0.1 -0.1)">
       <defs>
        <path d="M 8.203125 72.90625 
L 55.078125 72.90625 
L 55.078125 68.703125 
L 28.609375 0 
L 18.3125 0 
L 43.21875 64.59375 
L 8.203125 64.59375 
z
" id="DejaVuSans-55"/>
       </defs>
       <use xlink:href="#DejaVuSans-55"/>
       <use x="63.623047" xlink:href="#DejaVuSans-53"/>
      </g>
     </g>
    </g>
    <g id="xtick_5">
     <g id="line2d_9">
      <path clip-path="url(#p4da119bd0c)" d="M 369 630 
L 369 86.4 
" style="fill:none;stroke:#b0b0b0;stroke-linecap:square;stroke-width:0.8;"/>
     </g>
     <g id="line2d_10">
      <g>
       <use style="stroke:#000000;stroke-width:0.8;" x="369" xlink:href="#m6ad510506b" y="630"/>
      </g>
     </g>
     <g id="text_5">
      <!-- 100 -->
      <g transform="translate(359.45625 644.598438)scale(0.1 -0.1)">
       <defs>
        <path d="M 12.40625 8.296875 
L 28.515625 8.296875 
L 28.515625 63.921875 
L 10.984375 60.40625 
L 10.984375 69.390625 
L 28.421875 72.90625 
L 38.28125 72.90625 
L 38.28125 8.296875 
L 54.390625 8.296875 
L 54.390625 0 
L 12.40625 0 
z
" id="DejaVuSans-49"/>
       </defs>
       <use xlink:href="#DejaVuSans-49"/>
       <use x="63.623047" xlink:href="#DejaVuSans-48"/>
       <use x="127.246094" xlink:href="#DejaVuSans-48"/>
      </g>
     </g>
    </g>
    <g id="xtick_6">
     <g id="line2d_11">
      <path clip-path="url(#p4da119bd0c)" d="M 432.409091 630 
L 432.409091 86.4 
" style="fill:none;stroke:#b0b0b0;stroke-linecap:square;stroke-width:0.8;"/>
     </g>
     <g id="line2d_12">
      <g>
       <use style="stroke:#000000;stroke-width:0.8;" x="432.409091" xlink:href="#m6ad510506b" y="630"/>
      </g>
     </g>
     <g id="text_6">
      <!-- 125 -->
      <g transform="translate(422.865341 644.598438)scale(0.1 -0.1)">
       <use xlink:href="#DejaVuSans-49"/>
       <use x="63.623047" xlink:href="#DejaVuSans-50"/>
       <use x="127.246094" xlink:href="#DejaVuSans-53"/>
      </g>
     </g>
    </g>
    <g id="xtick_7">
     <g id="line2d_13">
      <path clip-path="url(#p4da119bd0c)" d="M 495.818182 630 
L 495.818182 86.4 
" style="fill:none;stroke:#b0b0b0;stroke-linecap:square;stroke-width:0.8;"/>
     </g>
     <g id="line2d_14">
      <g>
       <use style="stroke:#000000;stroke-width:0.8;" x="495.818182" xlink:href="#m6ad510506b" y="630"/>
      </g>
     </g>
     <g id="text_7">
      <!-- 150 -->
      <g transform="translate(486.274432 644.598438)scale(0.1 -0.1)">
       <use xlink:href="#DejaVuSans-49"/>
       <use x="63.623047" xlink:href="#DejaVuSans-53"/>
       <use x="127.246094" xlink:href="#DejaVuSans-48"/>
      </g>
     </g>
    </g>
    <g id="xtick_8">
     <g id="line2d_15">
      <path clip-path="url(#p4da119bd0c)" d="M 559.227273 630 
L 559.227273 86.4 
" style="fill:none;stroke:#b0b0b0;stroke-linecap:square;stroke-width:0.8;"/>
     </g>
     <g id="line2d_16">
      <g>
       <use style="stroke:#000000;stroke-width:0.8;" x="559.227273" xlink:href="#m6ad510506b" y="630"/>
      </g>
     </g>
     <g id="text_8">
      <!-- 175 -->
      <g transform="translate(549.683523 644.598438)scale(0.1 -0.1)">
       <use xlink:href="#DejaVuSans-49"/>
       <use x="63.623047" xlink:href="#DejaVuSans-55"/>
       <use x="127.246094" xlink:href="#DejaVuSans-53"/>
      </g>
     </g>
    </g>
    <g id="xtick_9">
     <g id="line2d_17">
      <path clip-path="url(#p4da119bd0c)" d="M 622.636364 630 
L 622.636364 86.4 
" style="fill:none;stroke:#b0b0b0;stroke-linecap:square;stroke-width:0.8;"/>
     </g>
     <g id="line2d_18">
      <g>
       <use style="stroke:#000000;stroke-width:0.8;" x="622.636364" xlink:href="#m6ad510506b" y="630"/>
      </g>
     </g>
     <g id="text_9">
      <!-- 200 -->
      <g transform="translate(613.092614 644.598438)scale(0.1 -0.1)">
       <use xlink:href="#DejaVuSans-50"/>
       <use x="63.623047" xlink:href="#DejaVuSans-48"/>
       <use x="127.246094" xlink:href="#DejaVuSans-48"/>
      </g>
     </g>
    </g>
    <g id="text_10">
     <!-- Days -->
     <g transform="translate(356.521875 658.276562)scale(0.1 -0.1)">
      <defs>
       <path d="M 19.671875 64.796875 
L 19.671875 8.109375 
L 31.59375 8.109375 
Q 46.6875 8.109375 53.6875 14.9375 
Q 60.6875 21.78125 60.6875 36.53125 
Q 60.6875 51.171875 53.6875 57.984375 
Q 46.6875 64.796875 31.59375 64.796875 
z
M 9.8125 72.90625 
L 30.078125 72.90625 
Q 51.265625 72.90625 61.171875 64.09375 
Q 71.09375 55.28125 71.09375 36.53125 
Q 71.09375 17.671875 61.125 8.828125 
Q 51.171875 0 30.078125 0 
L 9.8125 0 
z
" id="DejaVuSans-68"/>
       <path d="M 34.28125 27.484375 
Q 23.390625 27.484375 19.1875 25 
Q 14.984375 22.515625 14.984375 16.5 
Q 14.984375 11.71875 18.140625 8.90625 
Q 21.296875 6.109375 26.703125 6.109375 
Q 34.1875 6.109375 38.703125 11.40625 
Q 43.21875 16.703125 43.21875 25.484375 
L 43.21875 27.484375 
z
M 52.203125 31.203125 
L 52.203125 0 
L 43.21875 0 
L 43.21875 8.296875 
Q 40.140625 3.328125 35.546875 0.953125 
Q 30.953125 -1.421875 24.3125 -1.421875 
Q 15.921875 -1.421875 10.953125 3.296875 
Q 6 8.015625 6 15.921875 
Q 6 25.140625 12.171875 29.828125 
Q 18.359375 34.515625 30.609375 34.515625 
L 43.21875 34.515625 
L 43.21875 35.40625 
Q 43.21875 41.609375 39.140625 45 
Q 35.0625 48.390625 27.6875 48.390625 
Q 23 48.390625 18.546875 47.265625 
Q 14.109375 46.140625 10.015625 43.890625 
L 10.015625 52.203125 
Q 14.9375 54.109375 19.578125 55.046875 
Q 24.21875 56 28.609375 56 
Q 40.484375 56 46.34375 49.84375 
Q 52.203125 43.703125 52.203125 31.203125 
z
" id="DejaVuSans-97"/>
       <path d="M 32.171875 -5.078125 
Q 28.375 -14.84375 24.75 -17.8125 
Q 21.140625 -20.796875 15.09375 -20.796875 
L 7.90625 -20.796875 
L 7.90625 -13.28125 
L 13.1875 -13.28125 
Q 16.890625 -13.28125 18.9375 -11.515625 
Q 21 -9.765625 23.484375 -3.21875 
L 25.09375 0.875 
L 2.984375 54.6875 
L 12.5 54.6875 
L 29.59375 11.921875 
L 46.6875 54.6875 
L 56.203125 54.6875 
z
" id="DejaVuSans-121"/>
       <path d="M 44.28125 53.078125 
L 44.28125 44.578125 
Q 40.484375 46.53125 36.375 47.5 
Q 32.28125 48.484375 27.875 48.484375 
Q 21.1875 48.484375 17.84375 46.4375 
Q 14.5 44.390625 14.5 40.28125 
Q 14.5 37.15625 16.890625 35.375 
Q 19.28125 33.59375 26.515625 31.984375 
L 29.59375 31.296875 
Q 39.15625 29.25 43.1875 25.515625 
Q 47.21875 21.78125 47.21875 15.09375 
Q 47.21875 7.46875 41.1875 3.015625 
Q 35.15625 -1.421875 24.609375 -1.421875 
Q 20.21875 -1.421875 15.453125 -0.5625 
Q 10.6875 0.296875 5.421875 2 
L 5.421875 11.28125 
Q 10.40625 8.6875 15.234375 7.390625 
Q 20.0625 6.109375 24.8125 6.109375 
Q 31.15625 6.109375 34.5625 8.28125 
Q 37.984375 10.453125 37.984375 14.40625 
Q 37.984375 18.0625 35.515625 20.015625 
Q 33.0625 21.96875 24.703125 23.78125 
L 21.578125 24.515625 
Q 13.234375 26.265625 9.515625 29.90625 
Q 5.8125 33.546875 5.8125 39.890625 
Q 5.8125 47.609375 11.28125 51.796875 
Q 16.75 56 26.8125 56 
Q 31.78125 56 36.171875 55.265625 
Q 40.578125 54.546875 44.28125 53.078125 
z
" id="DejaVuSans-115"/>
      </defs>
      <use xlink:href="#DejaVuSans-68"/>
      <use x="77.001953" xlink:href="#DejaVuSans-97"/>
      <use x="138.28125" xlink:href="#DejaVuSans-121"/>
      <use x="197.460938" xlink:href="#DejaVuSans-115"/>
     </g>
    </g>
   </g>
   <g id="matplotlib.axis_2">
    <g id="ytick_1">
     <g id="line2d_19">
      <path clip-path="url(#p4da119bd0c)" d="M 90 605.570679 
L 648 605.570679 
" style="fill:none;stroke:#b0b0b0;stroke-linecap:square;stroke-width:0.8;"/>
     </g>
     <g id="line2d_20">
      <defs>
       <path d="M 0 0 
L -3.5 0 
" id="m8ee1c7028f" style="stroke:#000000;stroke-width:0.8;"/>
      </defs>
      <g>
       <use style="stroke:#000000;stroke-width:0.8;" x="90" xlink:href="#m8ee1c7028f" y="605.570679"/>
      </g>
     </g>
     <g id="text_11">
      <!-- 0 -->
      <g transform="translate(76.6375 609.369898)scale(0.1 -0.1)">
       <use xlink:href="#DejaVuSans-48"/>
      </g>
     </g>
    </g>
    <g id="ytick_2">
     <g id="line2d_21">
      <path clip-path="url(#p4da119bd0c)" d="M 90 497.966842 
L 648 497.966842 
" style="fill:none;stroke:#b0b0b0;stroke-linecap:square;stroke-width:0.8;"/>
     </g>
     <g id="line2d_22">
      <g>
       <use style="stroke:#000000;stroke-width:0.8;" x="90" xlink:href="#m8ee1c7028f" y="497.966842"/>
      </g>
     </g>
     <g id="text_12">
      <!-- 5000 -->
      <g transform="translate(57.55 501.766061)scale(0.1 -0.1)">
       <use xlink:href="#DejaVuSans-53"/>
       <use x="63.623047" xlink:href="#DejaVuSans-48"/>
       <use x="127.246094" xlink:href="#DejaVuSans-48"/>
       <use x="190.869141" xlink:href="#DejaVuSans-48"/>
      </g>
     </g>
    </g>
    <g id="ytick_3">
     <g id="line2d_23">
      <path clip-path="url(#p4da119bd0c)" d="M 90 390.363004 
L 648 390.363004 
" style="fill:none;stroke:#b0b0b0;stroke-linecap:square;stroke-width:0.8;"/>
     </g>
     <g id="line2d_24">
      <g>
       <use style="stroke:#000000;stroke-width:0.8;" x="90" xlink:href="#m8ee1c7028f" y="390.363004"/>
      </g>
     </g>
     <g id="text_13">
      <!-- 10000 -->
      <g transform="translate(51.1875 394.162223)scale(0.1 -0.1)">
       <use xlink:href="#DejaVuSans-49"/>
       <use x="63.623047" xlink:href="#DejaVuSans-48"/>
       <use x="127.246094" xlink:href="#DejaVuSans-48"/>
       <use x="190.869141" xlink:href="#DejaVuSans-48"/>
       <use x="254.492188" xlink:href="#DejaVuSans-48"/>
      </g>
     </g>
    </g>
    <g id="ytick_4">
     <g id="line2d_25">
      <path clip-path="url(#p4da119bd0c)" d="M 90 282.759167 
L 648 282.759167 
" style="fill:none;stroke:#b0b0b0;stroke-linecap:square;stroke-width:0.8;"/>
     </g>
     <g id="line2d_26">
      <g>
       <use style="stroke:#000000;stroke-width:0.8;" x="90" xlink:href="#m8ee1c7028f" y="282.759167"/>
      </g>
     </g>
     <g id="text_14">
      <!-- 15000 -->
      <g transform="translate(51.1875 286.558386)scale(0.1 -0.1)">
       <use xlink:href="#DejaVuSans-49"/>
       <use x="63.623047" xlink:href="#DejaVuSans-53"/>
       <use x="127.246094" xlink:href="#DejaVuSans-48"/>
       <use x="190.869141" xlink:href="#DejaVuSans-48"/>
       <use x="254.492188" xlink:href="#DejaVuSans-48"/>
      </g>
     </g>
    </g>
    <g id="ytick_5">
     <g id="line2d_27">
      <path clip-path="url(#p4da119bd0c)" d="M 90 175.15533 
L 648 175.15533 
" style="fill:none;stroke:#b0b0b0;stroke-linecap:square;stroke-width:0.8;"/>
     </g>
     <g id="line2d_28">
      <g>
       <use style="stroke:#000000;stroke-width:0.8;" x="90" xlink:href="#m8ee1c7028f" y="175.15533"/>
      </g>
     </g>
     <g id="text_15">
      <!-- 20000 -->
      <g transform="translate(51.1875 178.954549)scale(0.1 -0.1)">
       <use xlink:href="#DejaVuSans-50"/>
       <use x="63.623047" xlink:href="#DejaVuSans-48"/>
       <use x="127.246094" xlink:href="#DejaVuSans-48"/>
       <use x="190.869141" xlink:href="#DejaVuSans-48"/>
       <use x="254.492188" xlink:href="#DejaVuSans-48"/>
      </g>
     </g>
    </g>
    <g id="text_16">
     <!-- Cumulative cases -->
     <g transform="translate(45.107812 402.425781)rotate(-90)scale(0.1 -0.1)">
      <defs>
       <path d="M 64.40625 67.28125 
L 64.40625 56.890625 
Q 59.421875 61.53125 53.78125 63.8125 
Q 48.140625 66.109375 41.796875 66.109375 
Q 29.296875 66.109375 22.65625 58.46875 
Q 16.015625 50.828125 16.015625 36.375 
Q 16.015625 21.96875 22.65625 14.328125 
Q 29.296875 6.6875 41.796875 6.6875 
Q 48.140625 6.6875 53.78125 8.984375 
Q 59.421875 11.28125 64.40625 15.921875 
L 64.40625 5.609375 
Q 59.234375 2.09375 53.4375 0.328125 
Q 47.65625 -1.421875 41.21875 -1.421875 
Q 24.65625 -1.421875 15.125 8.703125 
Q 5.609375 18.84375 5.609375 36.375 
Q 5.609375 53.953125 15.125 64.078125 
Q 24.65625 74.21875 41.21875 74.21875 
Q 47.75 74.21875 53.53125 72.484375 
Q 59.328125 70.75 64.40625 67.28125 
z
" id="DejaVuSans-67"/>
       <path d="M 8.5 21.578125 
L 8.5 54.6875 
L 17.484375 54.6875 
L 17.484375 21.921875 
Q 17.484375 14.15625 20.5 10.265625 
Q 23.53125 6.390625 29.59375 6.390625 
Q 36.859375 6.390625 41.078125 11.03125 
Q 45.3125 15.671875 45.3125 23.6875 
L 45.3125 54.6875 
L 54.296875 54.6875 
L 54.296875 0 
L 45.3125 0 
L 45.3125 8.40625 
Q 42.046875 3.421875 37.71875 1 
Q 33.40625 -1.421875 27.6875 -1.421875 
Q 18.265625 -1.421875 13.375 4.4375 
Q 8.5 10.296875 8.5 21.578125 
z
M 31.109375 56 
z
" id="DejaVuSans-117"/>
       <path d="M 52 44.1875 
Q 55.375 50.25 60.0625 53.125 
Q 64.75 56 71.09375 56 
Q 79.640625 56 84.28125 50.015625 
Q 88.921875 44.046875 88.921875 33.015625 
L 88.921875 0 
L 79.890625 0 
L 79.890625 32.71875 
Q 79.890625 40.578125 77.09375 44.375 
Q 74.3125 48.1875 68.609375 48.1875 
Q 61.625 48.1875 57.5625 43.546875 
Q 53.515625 38.921875 53.515625 30.90625 
L 53.515625 0 
L 44.484375 0 
L 44.484375 32.71875 
Q 44.484375 40.625 41.703125 44.40625 
Q 38.921875 48.1875 33.109375 48.1875 
Q 26.21875 48.1875 22.15625 43.53125 
Q 18.109375 38.875 18.109375 30.90625 
L 18.109375 0 
L 9.078125 0 
L 9.078125 54.6875 
L 18.109375 54.6875 
L 18.109375 46.1875 
Q 21.1875 51.21875 25.484375 53.609375 
Q 29.78125 56 35.6875 56 
Q 41.65625 56 45.828125 52.96875 
Q 50 49.953125 52 44.1875 
z
" id="DejaVuSans-109"/>
       <path d="M 9.421875 75.984375 
L 18.40625 75.984375 
L 18.40625 0 
L 9.421875 0 
z
" id="DejaVuSans-108"/>
       <path d="M 18.3125 70.21875 
L 18.3125 54.6875 
L 36.8125 54.6875 
L 36.8125 47.703125 
L 18.3125 47.703125 
L 18.3125 18.015625 
Q 18.3125 11.328125 20.140625 9.421875 
Q 21.96875 7.515625 27.59375 7.515625 
L 36.8125 7.515625 
L 36.8125 0 
L 27.59375 0 
Q 17.1875 0 13.234375 3.875 
Q 9.28125 7.765625 9.28125 18.015625 
L 9.28125 47.703125 
L 2.6875 47.703125 
L 2.6875 54.6875 
L 9.28125 54.6875 
L 9.28125 70.21875 
z
" id="DejaVuSans-116"/>
       <path d="M 9.421875 54.6875 
L 18.40625 54.6875 
L 18.40625 0 
L 9.421875 0 
z
M 9.421875 75.984375 
L 18.40625 75.984375 
L 18.40625 64.59375 
L 9.421875 64.59375 
z
" id="DejaVuSans-105"/>
       <path d="M 2.984375 54.6875 
L 12.5 54.6875 
L 29.59375 8.796875 
L 46.6875 54.6875 
L 56.203125 54.6875 
L 35.6875 0 
L 23.484375 0 
z
" id="DejaVuSans-118"/>
       <path d="M 56.203125 29.59375 
L 56.203125 25.203125 
L 14.890625 25.203125 
Q 15.484375 15.921875 20.484375 11.0625 
Q 25.484375 6.203125 34.421875 6.203125 
Q 39.59375 6.203125 44.453125 7.46875 
Q 49.3125 8.734375 54.109375 11.28125 
L 54.109375 2.78125 
Q 49.265625 0.734375 44.1875 -0.34375 
Q 39.109375 -1.421875 33.890625 -1.421875 
Q 20.796875 -1.421875 13.15625 6.1875 
Q 5.515625 13.8125 5.515625 26.8125 
Q 5.515625 40.234375 12.765625 48.109375 
Q 20.015625 56 32.328125 56 
Q 43.359375 56 49.78125 48.890625 
Q 56.203125 41.796875 56.203125 29.59375 
z
M 47.21875 32.234375 
Q 47.125 39.59375 43.09375 43.984375 
Q 39.0625 48.390625 32.421875 48.390625 
Q 24.90625 48.390625 20.390625 44.140625 
Q 15.875 39.890625 15.1875 32.171875 
z
" id="DejaVuSans-101"/>
       <path id="DejaVuSans-32"/>
       <path d="M 48.78125 52.59375 
L 48.78125 44.1875 
Q 44.96875 46.296875 41.140625 47.34375 
Q 37.3125 48.390625 33.40625 48.390625 
Q 24.65625 48.390625 19.8125 42.84375 
Q 14.984375 37.3125 14.984375 27.296875 
Q 14.984375 17.28125 19.8125 11.734375 
Q 24.65625 6.203125 33.40625 6.203125 
Q 37.3125 6.203125 41.140625 7.25 
Q 44.96875 8.296875 48.78125 10.40625 
L 48.78125 2.09375 
Q 45.015625 0.34375 40.984375 -0.53125 
Q 36.96875 -1.421875 32.421875 -1.421875 
Q 20.0625 -1.421875 12.78125 6.34375 
Q 5.515625 14.109375 5.515625 27.296875 
Q 5.515625 40.671875 12.859375 48.328125 
Q 20.21875 56 33.015625 56 
Q 37.15625 56 41.109375 55.140625 
Q 45.0625 54.296875 48.78125 52.59375 
z
" id="DejaVuSans-99"/>
      </defs>
      <use xlink:href="#DejaVuSans-67"/>
      <use x="69.824219" xlink:href="#DejaVuSans-117"/>
      <use x="133.203125" xlink:href="#DejaVuSans-109"/>
      <use x="230.615234" xlink:href="#DejaVuSans-117"/>
      <use x="293.994141" xlink:href="#DejaVuSans-108"/>
      <use x="321.777344" xlink:href="#DejaVuSans-97"/>
      <use x="383.056641" xlink:href="#DejaVuSans-116"/>
      <use x="422.265625" xlink:href="#DejaVuSans-105"/>
      <use x="450.048828" xlink:href="#DejaVuSans-118"/>
      <use x="509.228516" xlink:href="#DejaVuSans-101"/>
      <use x="570.751953" xlink:href="#DejaVuSans-32"/>
      <use x="602.539062" xlink:href="#DejaVuSans-99"/>
      <use x="657.519531" xlink:href="#DejaVuSans-97"/>
      <use x="718.798828" xlink:href="#DejaVuSans-115"/>
      <use x="770.898438" xlink:href="#DejaVuSans-101"/>
      <use x="832.421875" xlink:href="#DejaVuSans-115"/>
     </g>
    </g>
   </g>
   <g id="line2d_29">
    <path clip-path="url(#p4da119bd0c)" d="M 115.363636 605.290909 
L 138.190909 604.985415 
L 155.945455 604.532105 
L 168.627273 604.007034 
L 178.772727 603.402479 
L 188.918182 602.565926 
L 196.527273 601.734764 
L 204.136364 600.676491 
L 211.745455 599.330801 
L 216.818182 598.237549 
L 221.890909 596.956896 
L 226.963636 595.458283 
L 232.036364 593.706753 
L 237.109091 591.66254 
L 242.181818 589.280705 
L 247.254545 586.510864 
L 252.327273 583.297067 
L 257.4 579.577895 
L 259.936364 577.508202 
L 262.472727 575.286887 
L 265.009091 572.904992 
L 267.545455 570.353376 
L 270.081818 567.622777 
L 272.618182 564.703876 
L 275.154545 561.587383 
L 277.690909 558.264129 
L 280.227273 554.725174 
L 282.763636 550.961927 
L 285.3 546.966279 
L 287.836364 542.730753 
L 290.372727 538.248658 
L 292.909091 533.51426 
L 295.445455 528.522953 
L 297.981818 523.271444 
L 303.054545 511.982267 
L 308.127273 499.653282 
L 313.2 486.322677 
L 318.272727 472.064006 
L 323.345455 456.98787 
L 328.418182 441.240906 
L 336.027273 416.760336 
L 351.245455 367.32963 
L 356.318182 351.506733 
L 361.390909 336.332766 
L 366.463636 321.958889 
L 371.536364 308.500592 
L 376.609091 296.036281 
L 381.681818 284.608641 
L 384.218182 279.287974 
L 386.754545 274.228139 
L 389.290909 269.426218 
L 391.827273 264.877935 
L 394.363636 260.577837 
L 396.9 256.519469 
L 399.436364 252.695547 
L 401.972727 249.098113 
L 404.509091 245.718691 
L 407.045455 242.54842 
L 409.581818 239.578181 
L 412.118182 236.798706 
L 414.654545 234.200676 
L 417.190909 231.774806 
L 419.727273 229.511917 
L 422.263636 227.402998 
L 427.336364 223.612151 
L 432.409091 220.335187 
L 437.481818 217.509991 
L 442.554545 215.079877 
L 447.627273 212.993728 
L 452.7 211.205898 
L 457.772727 209.675958 
L 462.845455 208.368337 
L 467.918182 207.25192 
L 475.527273 205.877534 
L 483.136364 204.796554 
L 490.745455 203.94747 
L 500.890909 203.092802 
L 511.036364 202.475107 
L 523.718182 201.938591 
L 538.936364 201.526466 
L 559.227273 201.214167 
L 589.663636 201.003142 
L 622.636364 200.920587 
L 622.636364 200.920587 
" style="fill:none;stroke:#1f77b4;stroke-linecap:square;stroke-width:1.5;"/>
   </g>
   <g id="line2d_30">
    <path clip-path="url(#p4da119bd0c)" d="M 115.363636 605.290909 
L 125.509091 603.59758 
L 133.118182 602.135678 
L 140.727273 600.48721 
L 148.336364 598.630123 
L 155.945455 596.540241 
L 163.554545 594.191195 
L 171.163636 591.554399 
L 178.772727 588.599074 
L 183.845455 586.435743 
L 188.918182 584.106048 
L 193.990909 581.599426 
L 199.063636 578.905017 
L 204.136364 576.011729 
L 209.209091 572.908309 
L 214.281818 569.583435 
L 219.354545 566.025819 
L 224.427273 562.224331 
L 229.5 558.168139 
L 234.572727 553.846869 
L 239.645455 549.250777 
L 244.718182 544.370946 
L 249.790909 539.199493 
L 254.863636 533.729786 
L 259.936364 527.956678 
L 265.009091 521.876735 
L 270.081818 515.488475 
L 275.154545 508.792591 
L 280.227273 501.79216 
L 285.3 494.492835 
L 290.372727 486.902999 
L 297.981818 474.998913 
L 305.590909 462.517399 
L 313.2 449.523446 
L 320.809091 436.096057 
L 330.954545 417.678426 
L 346.172727 389.455008 
L 361.390909 361.315491 
L 371.536364 343.042647 
L 379.145455 329.76535 
L 386.754545 316.952233 
L 394.363636 304.677252 
L 399.436364 296.822931 
L 404.509091 289.24857 
L 409.581818 281.965244 
L 414.654545 274.981188 
L 419.727273 268.301909 
L 424.8 261.930352 
L 429.872727 255.867086 
L 434.945455 250.110515 
L 440.018182 244.657109 
L 445.090909 239.501634 
L 450.163636 234.637384 
L 455.236364 230.056415 
L 460.309091 225.749758 
L 465.381818 221.707633 
L 470.454545 217.919635 
L 475.527273 214.374912 
L 480.6 211.062323 
L 485.672727 207.970575 
L 490.745455 205.088346 
L 495.818182 202.404391 
L 500.890909 199.907627 
L 505.963636 197.587212 
L 513.572727 194.41426 
L 521.181818 191.580335 
L 528.790909 189.053316 
L 536.4 186.803228 
L 544.009091 184.802304 
L 551.618182 183.024991 
L 559.227273 181.447907 
L 569.372727 179.620083 
L 579.518182 178.065554 
L 589.663636 176.74503 
L 599.809091 175.62442 
L 612.490909 174.460321 
L 622.636364 173.688049 
L 622.636364 173.688049 
" style="fill:none;stroke:#ff7f0e;stroke-linecap:square;stroke-width:1.5;"/>
   </g>
   <g id="line2d_31">
    <path clip-path="url(#p4da119bd0c)" d="M 115.363636 605.290909 
L 128.045455 604.646543 
L 140.727273 603.773899 
L 150.872727 602.859012 
L 161.018182 601.695563 
L 168.627273 600.621122 
L 176.236364 599.337171 
L 183.845455 597.80473 
L 191.454545 595.978373 
L 196.527273 594.571855 
L 201.6 592.993999 
L 206.672727 591.225693 
L 211.745455 589.246156 
L 216.818182 587.032915 
L 221.890909 584.561819 
L 226.963636 581.807105 
L 232.036364 578.741519 
L 237.109091 575.336518 
L 242.181818 571.56256 
L 247.254545 567.389495 
L 252.327273 562.787079 
L 257.4 557.725611 
L 262.472727 552.176707 
L 267.545455 546.11421 
L 272.618182 539.515219 
L 277.690909 532.361221 
L 282.763636 524.639297 
L 287.836364 516.343338 
L 292.909091 507.47522 
L 297.981818 498.04585 
L 303.054545 488.076014 
L 308.127273 477.596925 
L 313.2 466.650405 
L 318.272727 455.288631 
L 325.881818 437.604945 
L 336.027273 413.216547 
L 353.781818 370.156273 
L 361.390909 352.274584 
L 369 335.094095 
L 374.072727 324.128737 
L 379.145455 313.609574 
L 384.218182 303.573241 
L 389.290909 294.046698 
L 394.363636 285.047659 
L 399.436364 276.585284 
L 404.509091 268.66104 
L 409.581818 261.269682 
L 414.654545 254.400277 
L 419.727273 248.03723 
L 424.8 242.161268 
L 429.872727 236.750339 
L 434.945455 231.780441 
L 440.018182 227.226331 
L 445.090909 223.062137 
L 450.163636 219.261874 
L 455.236364 215.799857 
L 460.309091 212.651025 
L 465.381818 209.791197 
L 470.454545 207.197253 
L 475.527273 204.847263 
L 480.6 202.72056 
L 485.672727 200.797787 
L 490.745455 199.060903 
L 495.818182 197.493168 
L 503.427273 195.425206 
L 511.036364 193.656167 
L 518.645455 192.144646 
L 526.254545 190.854469 
L 533.863636 189.754176 
L 544.009091 188.535931 
L 554.154545 187.552704 
L 566.836364 186.586961 
L 579.518182 185.849783 
L 594.736364 185.192269 
L 612.490909 184.652538 
L 622.636364 184.424841 
L 622.636364 184.424841 
" style="fill:none;stroke:#2ca02c;stroke-linecap:square;stroke-width:1.5;"/>
   </g>
   <g id="line2d_32">
    <path clip-path="url(#p4da119bd0c)" d="M 115.363636 605.290909 
L 122.972727 604.614715 
L 130.581818 603.67954 
L 138.190909 602.466339 
L 145.8 600.955099 
L 153.409091 599.124915 
L 158.481818 597.716917 
L 163.554545 596.15095 
L 168.627273 594.420321 
L 173.7 592.518266 
L 178.772727 590.437978 
L 183.845455 588.172649 
L 188.918182 585.715509 
L 193.990909 583.059872 
L 199.063636 580.199193 
L 204.136364 577.12712 
L 209.209091 573.837558 
L 214.281818 570.324736 
L 219.354545 566.583279 
L 224.427273 562.60828 
L 229.5 558.395381 
L 234.572727 553.940851 
L 239.645455 549.241672 
L 244.718182 544.295615 
L 249.790909 539.101329 
L 254.863636 533.658413 
L 259.936364 527.967494 
L 265.009091 522.030297 
L 270.081818 515.849704 
L 277.690909 506.13174 
L 285.3 495.894758 
L 292.909091 485.164385 
L 300.518182 473.972779 
L 308.127273 462.358451 
L 315.736364 450.365902 
L 325.881818 433.874472 
L 336.027273 416.930777 
L 351.245455 390.978745 
L 379.145455 343.238476 
L 389.290909 326.292352 
L 399.436364 309.766954 
L 407.045455 297.712692 
L 414.654545 285.992071 
L 422.263636 274.6369 
L 429.872727 263.673065 
L 437.481818 253.120631 
L 445.090909 242.994077 
L 452.7 233.302624 
L 460.309091 224.050658 
L 467.918182 215.238199 
L 475.527273 206.861404 
L 483.136364 198.913081 
L 490.745455 191.383206 
L 498.354545 184.259411 
L 505.963636 177.527454 
L 513.572727 171.171643 
L 521.181818 165.175232 
L 528.790909 159.520766 
L 536.4 154.190382 
L 544.009091 149.166073 
L 551.618182 144.429909 
L 559.227273 139.964223 
L 566.836364 135.751755 
L 574.445455 131.775776 
L 582.054545 128.020177 
L 589.663636 124.469535 
L 599.809091 120.028888 
L 609.954545 115.893883 
L 620.1 112.034273 
L 622.636364 111.109091 
L 622.636364 111.109091 
" style="fill:none;stroke:#d62728;stroke-linecap:square;stroke-width:1.5;"/>
   </g>
   <g id="line2d_33">
    <path clip-path="url(#p4da119bd0c)" d="M 115.363636 605.290909 
L 128.045455 605.162199 
L 143.263636 604.810566 
L 155.945455 604.342662 
L 168.627273 603.636184 
L 178.772727 602.821214 
L 186.381818 602.00996 
L 193.990909 600.975723 
L 201.6 599.659511 
L 206.672727 598.589906 
L 211.745455 597.337094 
L 216.818182 595.87173 
L 221.890909 594.160526 
L 226.963636 592.166001 
L 232.036364 589.846326 
L 237.109091 587.155317 
L 242.181818 584.042632 
L 247.254545 580.454257 
L 252.327273 576.333344 
L 254.863636 574.054951 
L 257.4 571.621491 
L 259.936364 569.025716 
L 262.472727 566.260529 
L 265.009091 563.319079 
L 267.545455 560.194848 
L 270.081818 556.881753 
L 272.618182 553.374258 
L 275.154545 549.66748 
L 277.690909 545.757309 
L 282.763636 537.314891 
L 287.836364 528.033863 
L 292.909091 517.920352 
L 297.981818 507.002327 
L 303.054545 495.331043 
L 308.127273 482.981023 
L 313.2 470.048413 
L 320.809091 449.811527 
L 330.954545 421.958292 
L 341.1 394.112702 
L 348.709091 373.841959 
L 353.781818 360.818665 
L 358.854545 348.284901 
L 363.927273 336.304223 
L 369 324.923177 
L 374.072727 314.172514 
L 379.145455 304.068859 
L 384.218182 294.616643 
L 389.290909 285.810104 
L 394.363636 277.635244 
L 399.436364 270.071644 
L 404.509091 263.09409 
L 409.581818 256.673989 
L 414.654545 250.780566 
L 419.727273 245.381846 
L 424.8 240.445461 
L 429.872727 235.939265 
L 434.945455 231.831825 
L 440.018182 228.092771 
L 445.090909 224.693053 
L 450.163636 221.60511 
L 455.236364 218.802974 
L 460.309091 216.262316 
L 465.381818 213.960458 
L 470.454545 211.87635 
L 475.527273 209.990523 
L 480.6 208.285026 
L 488.209091 206.029176 
L 495.818182 204.092234 
L 503.427273 202.430449 
L 511.036364 201.005706 
L 518.645455 199.7849 
L 528.790909 198.425401 
L 538.936364 197.320487 
L 549.081818 196.423013 
L 561.763636 195.53477 
L 576.981818 194.733997 
L 594.736364 194.068135 
L 615.027273 193.553618 
L 622.636364 193.409945 
L 622.636364 193.409945 
" style="fill:none;stroke:#9467bd;stroke-linecap:square;stroke-width:1.5;"/>
   </g>
   <g id="line2d_34">
    <path clip-path="url(#p4da119bd0c)" d="M 115.363636 605.290909 
L 122.972727 605.152621 
L 130.581818 604.785675 
L 138.190909 604.216471 
L 145.8 603.440338 
L 153.409091 602.438952 
L 161.018182 601.186939 
L 168.627273 599.654322 
L 176.236364 597.807423 
L 181.309091 596.383393 
L 186.381818 594.791515 
L 191.454545 593.019418 
L 196.527273 591.054168 
L 201.6 588.882312 
L 206.672727 586.489941 
L 211.745455 583.862777 
L 216.818182 580.986273 
L 221.890909 577.845745 
L 226.963636 574.426522 
L 232.036364 570.714129 
L 237.109091 566.6945 
L 242.181818 562.354211 
L 247.254545 557.680748 
L 252.327273 552.662798 
L 257.4 547.290564 
L 262.472727 541.556089 
L 267.545455 535.453601 
L 272.618182 528.979846 
L 277.690909 522.13442 
L 282.763636 514.920075 
L 287.836364 507.342988 
L 292.909091 499.412983 
L 297.981818 491.143688 
L 303.054545 482.552621 
L 310.663636 469.110538 
L 318.272727 455.08145 
L 325.881818 440.570647 
L 336.027273 420.682276 
L 369 355.439413 
L 376.609091 341.033293 
L 384.218182 327.113216 
L 391.827273 313.766862 
L 396.9 305.223244 
L 401.972727 296.982186 
L 407.045455 289.05632 
L 412.118182 281.45486 
L 417.190909 274.183791 
L 422.263636 267.246094 
L 427.336364 260.642005 
L 432.409091 254.369296 
L 437.481818 248.423565 
L 442.554545 242.798526 
L 447.627273 237.486299 
L 452.7 232.47768 
L 457.772727 227.762402 
L 462.845455 223.329373 
L 467.918182 219.166891 
L 472.990909 215.262844 
L 478.063636 211.604877 
L 483.136364 208.180544 
L 488.209091 204.977436 
L 493.281818 201.98329 
L 498.354545 199.186079 
L 503.427273 196.574084 
L 508.5 194.135952 
L 516.109091 190.780932 
L 523.718182 187.757552 
L 531.327273 185.033166 
L 538.936364 182.57758 
L 546.545455 180.363049 
L 554.154545 178.364213 
L 561.763636 176.558006 
L 571.909091 174.413555 
L 582.054545 172.53067 
L 592.2 170.871195 
L 604.881818 169.061258 
L 617.563636 167.494818 
L 622.636364 166.926084 
L 622.636364 166.926084 
" style="fill:none;stroke:#8c564b;stroke-linecap:square;stroke-width:1.5;"/>
   </g>
   <g id="line2d_35">
    <path clip-path="url(#p4da119bd0c)" d="M 115.363636 605.290909 
L 128.045455 605.179372 
L 145.8 604.782927 
L 158.481818 604.305081 
L 168.627273 603.747486 
L 178.772727 602.967498 
L 186.381818 602.185576 
L 193.990909 601.182602 
L 201.6 599.898308 
L 206.672727 598.849353 
L 211.745455 597.615685 
L 216.818182 596.166807 
L 221.890909 594.467962 
L 226.963636 592.479834 
L 232.036364 590.15835 
L 237.109091 587.454635 
L 242.181818 584.315195 
L 247.254545 580.682414 
L 249.790909 578.6621 
L 252.327273 576.495452 
L 254.863636 574.174591 
L 257.4 571.69164 
L 259.936364 569.038804 
L 262.472727 566.208454 
L 265.009091 563.193225 
L 267.545455 559.986118 
L 270.081818 556.58062 
L 272.618182 552.970819 
L 275.154545 549.151535 
L 277.690909 545.11845 
L 280.227273 540.868235 
L 285.3 531.70883 
L 290.372727 521.671215 
L 295.445455 510.776376 
L 300.518182 499.07057 
L 305.590909 486.62595 
L 310.663636 473.539345 
L 315.736364 459.929138 
L 323.345455 438.830726 
L 341.1 388.985958 
L 348.709091 368.482708 
L 353.781818 355.383662 
L 358.854545 342.835694 
L 363.927273 330.898653 
L 369 319.614003 
L 374.072727 309.006495 
L 379.145455 299.086262 
L 384.218182 289.851098 
L 389.290909 281.288742 
L 394.363636 273.379034 
L 399.436364 266.095878 
L 404.509091 259.408947 
L 409.581818 253.28514 
L 414.654545 247.689785 
L 419.727273 242.587603 
L 424.8 237.943474 
L 429.872727 233.723015 
L 434.945455 229.893013 
L 440.018182 226.421724 
L 445.090909 223.279081 
L 450.163636 220.436808 
L 455.236364 217.868482 
L 460.309091 215.549537 
L 465.381818 213.457236 
L 470.454545 211.570618 
L 475.527273 209.870418 
L 480.6 208.338985 
L 488.209091 206.32337 
L 495.818182 204.602939 
L 503.427273 203.135551 
L 511.036364 201.884773 
L 518.645455 200.819198 
L 528.790909 199.640391 
L 538.936364 198.689555 
L 551.618182 197.755854 
L 564.3 197.043048 
L 579.518182 196.406946 
L 597.272727 195.884284 
L 620.1 195.447187 
L 622.636364 195.410528 
L 622.636364 195.410528 
" style="fill:none;stroke:#e377c2;stroke-linecap:square;stroke-width:1.5;"/>
   </g>
   <g id="line2d_36">
    <path clip-path="url(#p4da119bd0c)" d="M 115.363636 605.290909 
L 122.972727 605.192776 
L 130.581818 604.914561 
L 138.190909 604.461985 
L 145.8 603.824601 
L 153.409091 602.981846 
L 161.018182 601.905915 
L 168.627273 600.563022 
L 176.236364 598.913895 
L 181.309091 597.622529 
L 186.381818 596.160806 
L 191.454545 594.513156 
L 196.527273 592.662998 
L 201.6 590.592781 
L 206.672727 588.284059 
L 211.745455 585.717589 
L 216.818182 582.873478 
L 221.890909 579.731368 
L 226.963636 576.270676 
L 232.036364 572.470885 
L 237.109091 568.311895 
L 242.181818 563.774436 
L 247.254545 558.840529 
L 252.327273 553.494012 
L 257.4 547.721097 
L 262.472727 541.510966 
L 267.545455 534.856374 
L 272.618182 527.754239 
L 277.690909 520.206192 
L 282.763636 512.219068 
L 287.836364 503.805278 
L 292.909091 494.983074 
L 297.981818 485.776631 
L 303.054545 476.215975 
L 310.663636 461.290123 
L 318.272727 445.789577 
L 328.418182 424.509351 
L 353.781818 370.850684 
L 361.390909 355.329621 
L 369 340.339361 
L 376.609091 325.994682 
L 381.681818 316.835521 
L 386.754545 308.023912 
L 391.827273 299.575267 
L 396.9 291.500376 
L 401.972727 283.805735 
L 407.045455 276.493924 
L 412.118182 269.56402 
L 417.190909 263.012029 
L 422.263636 256.831313 
L 427.336364 251.013015 
L 432.409091 245.546456 
L 437.481818 240.419505 
L 442.554545 235.618923 
L 447.627273 231.130666 
L 452.7 226.940153 
L 457.772727 223.032504 
L 462.845455 219.392742 
L 467.918182 216.005958 
L 472.990909 212.857456 
L 478.063636 209.932864 
L 483.136364 207.218225 
L 488.209091 204.700069 
L 493.281818 202.365461 
L 498.354545 200.202042 
L 505.963636 197.25232 
L 513.572727 194.624303 
L 521.181818 192.283924 
L 528.790909 190.200131 
L 536.4 188.344754 
L 544.009091 186.692356 
L 554.154545 184.76569 
L 564.3 183.111655 
L 574.445455 181.6891 
L 584.590909 180.462749 
L 597.272727 179.160235 
L 609.954545 178.06828 
L 622.636364 177.146715 
L 622.636364 177.146715 
" style="fill:none;stroke:#7f7f7f;stroke-linecap:square;stroke-width:1.5;"/>
   </g>
   <g id="line2d_37">
    <path clip-path="url(#p4da119bd0c)" d="M 115.363636 605.290909 
L 122.972727 605.148785 
L 130.581818 604.738086 
L 138.190909 604.059774 
L 145.8 603.09706 
L 153.409091 601.823623 
L 158.481818 600.786362 
L 163.554545 599.586271 
L 168.627273 598.212169 
L 173.7 596.652334 
L 178.772727 594.894598 
L 183.845455 592.92643 
L 188.918182 590.735041 
L 193.990909 588.307489 
L 199.063636 585.630812 
L 204.136364 582.692173 
L 209.209091 579.479029 
L 214.281818 575.979317 
L 219.354545 572.181665 
L 224.427273 568.075612 
L 229.5 563.651853 
L 234.572727 558.902485 
L 239.645455 553.821263 
L 244.718182 548.403853 
L 249.790909 542.648074 
L 254.863636 536.554126 
L 259.936364 530.124785 
L 265.009091 523.365567 
L 270.081818 516.284846 
L 275.154545 508.893917 
L 280.227273 501.207003 
L 287.836364 489.159813 
L 295.445455 476.554858 
L 303.054545 463.473542 
L 313.2 445.450106 
L 325.881818 422.320717 
L 351.245455 375.87437 
L 361.390909 357.856659 
L 369 344.734201 
L 376.609091 332.018782 
L 384.218182 319.763036 
L 391.827273 308.008384 
L 399.436364 296.785488 
L 407.045455 286.114994 
L 412.118182 279.31428 
L 417.190909 272.765795 
L 422.263636 266.469511 
L 427.336364 260.424111 
L 432.409091 254.627134 
L 437.481818 249.075119 
L 442.554545 243.763736 
L 447.627273 238.687915 
L 452.7 233.841966 
L 457.772727 229.219686 
L 462.845455 224.814465 
L 467.918182 220.619375 
L 472.990909 216.627251 
L 478.063636 212.830768 
L 483.136364 209.222507 
L 490.745455 204.146713 
L 498.354545 199.452561 
L 505.963636 195.115344 
L 513.572727 191.110979 
L 521.181818 187.416192 
L 528.790909 184.008658 
L 536.4 180.867099 
L 544.009091 177.971344 
L 551.618182 175.302363 
L 559.227273 172.842276 
L 566.836364 170.574345 
L 576.981818 167.822508 
L 587.127273 165.350599 
L 597.272727 163.127829 
L 607.418182 161.126456 
L 617.563636 159.321566 
L 622.636364 158.485734 
L 622.636364 158.485734 
" style="fill:none;stroke:#bcbd22;stroke-linecap:square;stroke-width:1.5;"/>
   </g>
   <g id="line2d_38">
    <path clip-path="url(#p4da119bd0c)" d="M 115.363636 605.290909 
L 120.436364 604.989618 
L 130.581818 603.956622 
L 133.118182 603.956622 
L 135.654545 603.612289 
L 138.190909 603.612289 
L 140.727273 602.579292 
L 143.263636 602.579292 
L 145.8 601.417171 
L 148.336364 600.55634 
L 150.872727 598.985324 
L 153.409091 594.616608 
L 155.945455 593.626653 
L 158.481818 591.58218 
L 161.018182 591.410014 
L 163.554545 591.410014 
L 166.090909 589.860519 
L 168.627273 589.860519 
L 171.163636 587.92365 
L 178.772727 587.92365 
L 181.309091 587.321068 
L 183.845455 587.321068 
L 186.381818 584.135995 
L 188.918182 584.135995 
L 191.454545 583.684059 
L 193.990909 583.684059 
L 196.527273 580.542027 
L 201.6 580.542027 
L 204.136364 576.861975 
L 206.672727 574.795982 
L 209.209091 572.902154 
L 211.745455 570.685515 
L 214.281818 568.877771 
L 216.818182 568.877771 
L 219.354545 566.144633 
L 224.427273 566.144633 
L 226.963636 560.872045 
L 229.5 560.872045 
L 232.036364 560.290984 
L 234.572727 560.290984 
L 237.109091 556.826141 
L 244.718182 556.632454 
L 247.254545 550.06862 
L 249.790909 547.701335 
L 252.327273 547.701335 
L 254.863636 545.31253 
L 259.936364 538.748696 
L 265.009091 538.748696 
L 267.545455 529.623891 
L 270.081818 529.623891 
L 272.618182 525.233654 
L 275.154545 513.289628 
L 277.690909 510.879302 
L 280.227273 510.879302 
L 282.763636 500.334126 
L 285.3 500.334126 
L 287.836364 488.583787 
L 295.445455 488.583787 
L 297.981818 478.512068 
L 300.518182 478.512068 
L 303.054545 467.90233 
L 305.590909 463.856425 
L 308.127273 463.856425 
L 310.663636 459.466189 
L 313.2 446.489166 
L 315.736364 442.034367 
L 318.272727 435.38445 
L 320.809091 432.113293 
L 323.345455 426.69006 
L 325.881818 418.748897 
L 336.027273 418.748897 
L 338.563636 393.289829 
L 346.172727 393.289829 
L 348.709091 376.632755 
L 351.245455 355.714569 
L 353.781818 349.645712 
L 356.318182 346.439118 
L 358.854545 341.510862 
L 361.390909 334.581175 
L 391.827273 334.581175 
L 394.363636 284.566912 
L 401.972727 284.566912 
L 404.509091 279.036074 
L 414.654545 279.036074 
L 417.190909 257.859639 
L 427.336364 257.859639 
L 429.872727 250.004559 
L 434.945455 250.004559 
L 437.481818 246.001696 
L 442.554545 246.001696 
L 445.090909 237.350348 
L 447.627273 235.865415 
L 450.163636 234.229837 
L 462.845455 234.229837 
L 465.381818 224.265721 
L 472.990909 224.265721 
L 475.527273 217.292993 
L 480.6 217.292993 
L 483.136364 213.612941 
L 488.209091 211.568468 
L 490.745455 208.103625 
L 495.818182 208.103625 
L 498.354545 205.671778 
L 500.890909 205.305925 
L 503.427273 204.767906 
L 505.963636 201.79804 
L 516.109091 201.79804 
L 518.645455 197.257158 
L 521.181818 197.257158 
L 523.718182 193.620148 
L 533.863636 193.620148 
L 536.4 187.874103 
L 538.936364 186.776544 
L 541.472727 183.677554 
L 551.618182 183.677554 
L 554.154545 178.426487 
L 556.690909 178.426487 
L 559.227273 174.961643 
L 564.3 174.961643 
L 566.836364 171.561362 
L 569.372727 170.248595 
L 571.909091 169.323202 
L 574.445455 168.634537 
L 576.981818 168.634537 
L 579.518182 167.171125 
L 582.054545 165.879879 
L 584.590909 165.879879 
L 587.127273 162.285911 
L 589.663636 162.285911 
L 592.2 160.306 
L 594.736364 159.832543 
L 597.272727 159.832543 
L 599.809091 159.337566 
L 602.345455 159.337566 
L 604.881818 157.120927 
L 612.490909 157.120927 
L 615.027273 155.270141 
L 622.636364 155.270141 
L 622.636364 155.270141 
" style="fill:none;stroke:#17becf;stroke-dasharray:14.8,6.4;stroke-dashoffset:0;stroke-width:4;"/>
   </g>
   <g id="patch_3">
    <path d="M 90 630 
L 90 86.4 
" style="fill:none;stroke:#000000;stroke-linecap:square;stroke-linejoin:miter;stroke-width:0.8;"/>
   </g>
   <g id="patch_4">
    <path d="M 648 630 
L 648 86.4 
" style="fill:none;stroke:#000000;stroke-linecap:square;stroke-linejoin:miter;stroke-width:0.8;"/>
   </g>
   <g id="patch_5">
    <path d="M 90 630 
L 648 630 
" style="fill:none;stroke:#000000;stroke-linecap:square;stroke-linejoin:miter;stroke-width:0.8;"/>
   </g>
   <g id="patch_6">
    <path d="M 90 86.4 
L 648 86.4 
" style="fill:none;stroke:#000000;stroke-linecap:square;stroke-linejoin:miter;stroke-width:0.8;"/>
   </g>
   <g id="text_17">
    <!-- Cameroon relative err =  -->
    <g transform="translate(294.315938 80.4)scale(0.12 -0.12)">
     <defs>
      <path d="M 41.109375 46.296875 
Q 39.59375 47.171875 37.8125 47.578125 
Q 36.03125 48 33.890625 48 
Q 26.265625 48 22.1875 43.046875 
Q 18.109375 38.09375 18.109375 28.8125 
L 18.109375 0 
L 9.078125 0 
L 9.078125 54.6875 
L 18.109375 54.6875 
L 18.109375 46.1875 
Q 20.953125 51.171875 25.484375 53.578125 
Q 30.03125 56 36.53125 56 
Q 37.453125 56 38.578125 55.875 
Q 39.703125 55.765625 41.0625 55.515625 
z
" id="DejaVuSans-114"/>
      <path d="M 30.609375 48.390625 
Q 23.390625 48.390625 19.1875 42.75 
Q 14.984375 37.109375 14.984375 27.296875 
Q 14.984375 17.484375 19.15625 11.84375 
Q 23.34375 6.203125 30.609375 6.203125 
Q 37.796875 6.203125 41.984375 11.859375 
Q 46.1875 17.53125 46.1875 27.296875 
Q 46.1875 37.015625 41.984375 42.703125 
Q 37.796875 48.390625 30.609375 48.390625 
z
M 30.609375 56 
Q 42.328125 56 49.015625 48.375 
Q 55.71875 40.765625 55.71875 27.296875 
Q 55.71875 13.875 49.015625 6.21875 
Q 42.328125 -1.421875 30.609375 -1.421875 
Q 18.84375 -1.421875 12.171875 6.21875 
Q 5.515625 13.875 5.515625 27.296875 
Q 5.515625 40.765625 12.171875 48.375 
Q 18.84375 56 30.609375 56 
z
" id="DejaVuSans-111"/>
      <path d="M 54.890625 33.015625 
L 54.890625 0 
L 45.90625 0 
L 45.90625 32.71875 
Q 45.90625 40.484375 42.875 44.328125 
Q 39.84375 48.1875 33.796875 48.1875 
Q 26.515625 48.1875 22.3125 43.546875 
Q 18.109375 38.921875 18.109375 30.90625 
L 18.109375 0 
L 9.078125 0 
L 9.078125 54.6875 
L 18.109375 54.6875 
L 18.109375 46.1875 
Q 21.34375 51.125 25.703125 53.5625 
Q 30.078125 56 35.796875 56 
Q 45.21875 56 50.046875 50.171875 
Q 54.890625 44.34375 54.890625 33.015625 
z
" id="DejaVuSans-110"/>
      <path d="M 10.59375 45.40625 
L 73.1875 45.40625 
L 73.1875 37.203125 
L 10.59375 37.203125 
z
M 10.59375 25.484375 
L 73.1875 25.484375 
L 73.1875 17.1875 
L 10.59375 17.1875 
z
" id="DejaVuSans-61"/>
     </defs>
     <use xlink:href="#DejaVuSans-67"/>
     <use x="69.824219" xlink:href="#DejaVuSans-97"/>
     <use x="131.103516" xlink:href="#DejaVuSans-109"/>
     <use x="228.515625" xlink:href="#DejaVuSans-101"/>
     <use x="290.039062" xlink:href="#DejaVuSans-114"/>
     <use x="328.902344" xlink:href="#DejaVuSans-111"/>
     <use x="390.083984" xlink:href="#DejaVuSans-111"/>
     <use x="451.265625" xlink:href="#DejaVuSans-110"/>
     <use x="514.644531" xlink:href="#DejaVuSans-32"/>
     <use x="546.431641" xlink:href="#DejaVuSans-114"/>
     <use x="585.294922" xlink:href="#DejaVuSans-101"/>
     <use x="646.818359" xlink:href="#DejaVuSans-108"/>
     <use x="674.601562" xlink:href="#DejaVuSans-97"/>
     <use x="735.880859" xlink:href="#DejaVuSans-116"/>
     <use x="775.089844" xlink:href="#DejaVuSans-105"/>
     <use x="802.873047" xlink:href="#DejaVuSans-118"/>
     <use x="862.052734" xlink:href="#DejaVuSans-101"/>
     <use x="923.576172" xlink:href="#DejaVuSans-32"/>
     <use x="955.363281" xlink:href="#DejaVuSans-101"/>
     <use x="1016.886719" xlink:href="#DejaVuSans-114"/>
     <use x="1056.25" xlink:href="#DejaVuSans-114"/>
     <use x="1097.363281" xlink:href="#DejaVuSans-32"/>
     <use x="1129.150391" xlink:href="#DejaVuSans-61"/>
     <use x="1212.939453" xlink:href="#DejaVuSans-32"/>
    </g>
   </g>
   <g id="legend_1">
    <g id="patch_7">
     <path d="M 97 226.503125 
L 185.6 226.503125 
Q 187.6 226.503125 187.6 224.503125 
L 187.6 93.4 
Q 187.6 91.4 185.6 91.4 
L 97 91.4 
Q 95 91.4 95 93.4 
L 95 224.503125 
Q 95 226.503125 97 226.503125 
z
" style="fill:#ffffff;opacity:0.8;stroke:#cccccc;stroke-linejoin:miter;"/>
    </g>
    <g id="line2d_39">
     <path d="M 99 99.498438 
L 119 99.498438 
" style="fill:none;stroke:#1f77b4;stroke-linecap:square;stroke-width:1.5;"/>
    </g>
    <g id="line2d_40"/>
    <g id="text_18">
     <!-- SI -->
     <g transform="translate(127 102.998438)scale(0.1 -0.1)">
      <defs>
       <path d="M 53.515625 70.515625 
L 53.515625 60.890625 
Q 47.90625 63.578125 42.921875 64.890625 
Q 37.9375 66.21875 33.296875 66.21875 
Q 25.25 66.21875 20.875 63.09375 
Q 16.5 59.96875 16.5 54.203125 
Q 16.5 49.359375 19.40625 46.890625 
Q 22.3125 44.4375 30.421875 42.921875 
L 36.375 41.703125 
Q 47.40625 39.59375 52.65625 34.296875 
Q 57.90625 29 57.90625 20.125 
Q 57.90625 9.515625 50.796875 4.046875 
Q 43.703125 -1.421875 29.984375 -1.421875 
Q 24.8125 -1.421875 18.96875 -0.25 
Q 13.140625 0.921875 6.890625 3.21875 
L 6.890625 13.375 
Q 12.890625 10.015625 18.65625 8.296875 
Q 24.421875 6.59375 29.984375 6.59375 
Q 38.421875 6.59375 43.015625 9.90625 
Q 47.609375 13.234375 47.609375 19.390625 
Q 47.609375 24.75 44.3125 27.78125 
Q 41.015625 30.8125 33.5 32.328125 
L 27.484375 33.5 
Q 16.453125 35.6875 11.515625 40.375 
Q 6.59375 45.0625 6.59375 53.421875 
Q 6.59375 63.09375 13.40625 68.65625 
Q 20.21875 74.21875 32.171875 74.21875 
Q 37.3125 74.21875 42.625 73.28125 
Q 47.953125 72.359375 53.515625 70.515625 
z
" id="DejaVuSans-83"/>
       <path d="M 9.8125 72.90625 
L 19.671875 72.90625 
L 19.671875 0 
L 9.8125 0 
z
" id="DejaVuSans-73"/>
      </defs>
      <use xlink:href="#DejaVuSans-83"/>
      <use x="63.476562" xlink:href="#DejaVuSans-73"/>
     </g>
    </g>
    <g id="line2d_41">
     <path d="M 99 114.176563 
L 119 114.176563 
" style="fill:none;stroke:#ff7f0e;stroke-linecap:square;stroke-width:1.5;"/>
    </g>
    <g id="line2d_42"/>
    <g id="text_19">
     <!-- BD -->
     <g transform="translate(127 117.676563)scale(0.1 -0.1)">
      <defs>
       <path d="M 19.671875 34.8125 
L 19.671875 8.109375 
L 35.5 8.109375 
Q 43.453125 8.109375 47.28125 11.40625 
Q 51.125 14.703125 51.125 21.484375 
Q 51.125 28.328125 47.28125 31.5625 
Q 43.453125 34.8125 35.5 34.8125 
z
M 19.671875 64.796875 
L 19.671875 42.828125 
L 34.28125 42.828125 
Q 41.5 42.828125 45.03125 45.53125 
Q 48.578125 48.25 48.578125 53.8125 
Q 48.578125 59.328125 45.03125 62.0625 
Q 41.5 64.796875 34.28125 64.796875 
z
M 9.8125 72.90625 
L 35.015625 72.90625 
Q 46.296875 72.90625 52.390625 68.21875 
Q 58.5 63.53125 58.5 54.890625 
Q 58.5 48.1875 55.375 44.234375 
Q 52.25 40.28125 46.1875 39.3125 
Q 53.46875 37.75 57.5 32.78125 
Q 61.53125 27.828125 61.53125 20.40625 
Q 61.53125 10.640625 54.890625 5.3125 
Q 48.25 0 35.984375 0 
L 9.8125 0 
z
" id="DejaVuSans-66"/>
      </defs>
      <use xlink:href="#DejaVuSans-66"/>
      <use x="68.603516" xlink:href="#DejaVuSans-68"/>
     </g>
    </g>
    <g id="line2d_43">
     <path d="M 99 128.854688 
L 119 128.854688 
" style="fill:none;stroke:#2ca02c;stroke-linecap:square;stroke-width:1.5;"/>
    </g>
    <g id="line2d_44"/>
    <g id="text_20">
     <!-- SIR -->
     <g transform="translate(127 132.354688)scale(0.1 -0.1)">
      <defs>
       <path d="M 44.390625 34.1875 
Q 47.5625 33.109375 50.5625 29.59375 
Q 53.5625 26.078125 56.59375 19.921875 
L 66.609375 0 
L 56 0 
L 46.6875 18.703125 
Q 43.0625 26.03125 39.671875 28.421875 
Q 36.28125 30.8125 30.421875 30.8125 
L 19.671875 30.8125 
L 19.671875 0 
L 9.8125 0 
L 9.8125 72.90625 
L 32.078125 72.90625 
Q 44.578125 72.90625 50.734375 67.671875 
Q 56.890625 62.453125 56.890625 51.90625 
Q 56.890625 45.015625 53.6875 40.46875 
Q 50.484375 35.9375 44.390625 34.1875 
z
M 19.671875 64.796875 
L 19.671875 38.921875 
L 32.078125 38.921875 
Q 39.203125 38.921875 42.84375 42.21875 
Q 46.484375 45.515625 46.484375 51.90625 
Q 46.484375 58.296875 42.84375 61.546875 
Q 39.203125 64.796875 32.078125 64.796875 
z
" id="DejaVuSans-82"/>
      </defs>
      <use xlink:href="#DejaVuSans-83"/>
      <use x="63.476562" xlink:href="#DejaVuSans-73"/>
      <use x="92.96875" xlink:href="#DejaVuSans-82"/>
     </g>
    </g>
    <g id="line2d_45">
     <path d="M 99 143.532812 
L 119 143.532812 
" style="fill:none;stroke:#d62728;stroke-linecap:square;stroke-width:1.5;"/>
    </g>
    <g id="line2d_46"/>
    <g id="text_21">
     <!-- eSIR -->
     <g transform="translate(127 147.032812)scale(0.1 -0.1)">
      <use xlink:href="#DejaVuSans-101"/>
      <use x="61.523438" xlink:href="#DejaVuSans-83"/>
      <use x="125" xlink:href="#DejaVuSans-73"/>
      <use x="154.492188" xlink:href="#DejaVuSans-82"/>
     </g>
    </g>
    <g id="line2d_47">
     <path d="M 99 158.210938 
L 119 158.210938 
" style="fill:none;stroke:#9467bd;stroke-linecap:square;stroke-width:1.5;"/>
    </g>
    <g id="line2d_48"/>
    <g id="text_22">
     <!-- SEIR -->
     <g transform="translate(127 161.710938)scale(0.1 -0.1)">
      <defs>
       <path d="M 9.8125 72.90625 
L 55.90625 72.90625 
L 55.90625 64.59375 
L 19.671875 64.59375 
L 19.671875 43.015625 
L 54.390625 43.015625 
L 54.390625 34.71875 
L 19.671875 34.71875 
L 19.671875 8.296875 
L 56.78125 8.296875 
L 56.78125 0 
L 9.8125 0 
z
" id="DejaVuSans-69"/>
      </defs>
      <use xlink:href="#DejaVuSans-83"/>
      <use x="63.476562" xlink:href="#DejaVuSans-69"/>
      <use x="126.660156" xlink:href="#DejaVuSans-73"/>
      <use x="156.152344" xlink:href="#DejaVuSans-82"/>
     </g>
    </g>
    <g id="line2d_49">
     <path d="M 99 172.889063 
L 119 172.889063 
" style="fill:none;stroke:#8c564b;stroke-linecap:square;stroke-width:1.5;"/>
    </g>
    <g id="line2d_50"/>
    <g id="text_23">
     <!-- eSEIR -->
     <g transform="translate(127 176.389063)scale(0.1 -0.1)">
      <use xlink:href="#DejaVuSans-101"/>
      <use x="61.523438" xlink:href="#DejaVuSans-83"/>
      <use x="125" xlink:href="#DejaVuSans-69"/>
      <use x="188.183594" xlink:href="#DejaVuSans-73"/>
      <use x="217.675781" xlink:href="#DejaVuSans-82"/>
     </g>
    </g>
    <g id="line2d_51">
     <path d="M 99 187.567188 
L 119 187.567188 
" style="fill:none;stroke:#e377c2;stroke-linecap:square;stroke-width:1.5;"/>
    </g>
    <g id="line2d_52"/>
    <g id="text_24">
     <!-- SEIUR -->
     <g transform="translate(127 191.067188)scale(0.1 -0.1)">
      <defs>
       <path d="M 8.6875 72.90625 
L 18.609375 72.90625 
L 18.609375 28.609375 
Q 18.609375 16.890625 22.84375 11.734375 
Q 27.09375 6.59375 36.625 6.59375 
Q 46.09375 6.59375 50.34375 11.734375 
Q 54.59375 16.890625 54.59375 28.609375 
L 54.59375 72.90625 
L 64.5 72.90625 
L 64.5 27.390625 
Q 64.5 13.140625 57.4375 5.859375 
Q 50.390625 -1.421875 36.625 -1.421875 
Q 22.796875 -1.421875 15.734375 5.859375 
Q 8.6875 13.140625 8.6875 27.390625 
z
" id="DejaVuSans-85"/>
      </defs>
      <use xlink:href="#DejaVuSans-83"/>
      <use x="63.476562" xlink:href="#DejaVuSans-69"/>
      <use x="126.660156" xlink:href="#DejaVuSans-73"/>
      <use x="156.152344" xlink:href="#DejaVuSans-85"/>
      <use x="229.345703" xlink:href="#DejaVuSans-82"/>
     </g>
    </g>
    <g id="line2d_53">
     <path d="M 99 202.245312 
L 119 202.245312 
" style="fill:none;stroke:#7f7f7f;stroke-linecap:square;stroke-width:1.5;"/>
    </g>
    <g id="line2d_54"/>
    <g id="text_25">
     <!-- eSEIUR -->
     <g transform="translate(127 205.745312)scale(0.1 -0.1)">
      <use xlink:href="#DejaVuSans-101"/>
      <use x="61.523438" xlink:href="#DejaVuSans-83"/>
      <use x="125" xlink:href="#DejaVuSans-69"/>
      <use x="188.183594" xlink:href="#DejaVuSans-73"/>
      <use x="217.675781" xlink:href="#DejaVuSans-85"/>
      <use x="290.869141" xlink:href="#DejaVuSans-82"/>
     </g>
    </g>
    <g id="line2d_55">
     <path d="M 99 216.923437 
L 119 216.923437 
" style="fill:none;stroke:#bcbd22;stroke-linecap:square;stroke-width:1.5;"/>
    </g>
    <g id="line2d_56"/>
    <g id="text_26">
     <!-- eSEIUR$^{range}$ -->
     <g transform="translate(127 220.423437)scale(0.1 -0.1)">
      <defs>
       <path d="M 44.578125 46.390625 
Q 43.21875 47.125 41.453125 47.515625 
Q 39.703125 47.90625 37.703125 47.90625 
Q 30.515625 47.90625 25.140625 42.453125 
Q 19.78125 37.015625 18.015625 27.875 
L 12.5 0 
L 3.515625 0 
L 14.203125 54.6875 
L 23.1875 54.6875 
L 21.484375 46.1875 
Q 25.046875 50.921875 30 53.453125 
Q 34.96875 56 40.578125 56 
Q 42.046875 56 43.453125 55.828125 
Q 44.875 55.671875 46.296875 55.28125 
z
" id="DejaVuSans-Oblique-114"/>
       <path d="M 53.71875 31.203125 
L 47.609375 0 
L 38.625 0 
L 40.28125 8.296875 
Q 36.328125 3.421875 31.265625 1 
Q 26.21875 -1.421875 20.015625 -1.421875 
Q 13.03125 -1.421875 8.5625 2.84375 
Q 4.109375 7.125 4.109375 13.8125 
Q 4.109375 23.390625 11.75 28.953125 
Q 19.390625 34.515625 32.8125 34.515625 
L 45.3125 34.515625 
L 45.796875 36.921875 
Q 45.90625 37.3125 45.953125 37.765625 
Q 46 38.234375 46 39.203125 
Q 46 43.5625 42.453125 45.96875 
Q 38.921875 48.390625 32.515625 48.390625 
Q 28.125 48.390625 23.5 47.265625 
Q 18.890625 46.140625 14.015625 43.890625 
L 15.578125 52.203125 
Q 20.65625 54.109375 25.515625 55.046875 
Q 30.375 56 34.90625 56 
Q 44.578125 56 49.625 51.796875 
Q 54.6875 47.609375 54.6875 39.59375 
Q 54.6875 37.984375 54.4375 35.8125 
Q 54.203125 33.640625 53.71875 31.203125 
z
M 44 27.484375 
L 35.015625 27.484375 
Q 23.96875 27.484375 18.671875 24.53125 
Q 13.375 21.578125 13.375 15.375 
Q 13.375 11.078125 16.078125 8.640625 
Q 18.796875 6.203125 23.578125 6.203125 
Q 30.90625 6.203125 36.375 11.453125 
Q 41.84375 16.703125 43.609375 25.484375 
z
" id="DejaVuSans-Oblique-97"/>
       <path d="M 55.71875 33.015625 
L 49.3125 0 
L 40.28125 0 
L 46.6875 32.671875 
Q 47.125 34.96875 47.359375 36.71875 
Q 47.609375 38.484375 47.609375 39.5 
Q 47.609375 43.609375 45.015625 45.890625 
Q 42.4375 48.1875 37.796875 48.1875 
Q 30.5625 48.1875 25.34375 43.375 
Q 20.125 38.578125 18.5 30.328125 
L 12.5 0 
L 3.515625 0 
L 14.109375 54.6875 
L 23.09375 54.6875 
L 21.296875 46.09375 
Q 25.046875 50.828125 30.3125 53.40625 
Q 35.59375 56 41.40625 56 
Q 48.640625 56 52.609375 52.09375 
Q 56.59375 48.1875 56.59375 41.109375 
Q 56.59375 39.359375 56.375 37.359375 
Q 56.15625 35.359375 55.71875 33.015625 
z
" id="DejaVuSans-Oblique-110"/>
       <path d="M 59.625 54.6875 
L 50.296875 6.78125 
Q 47.609375 -7.125 40.015625 -13.953125 
Q 32.421875 -20.796875 19.578125 -20.796875 
Q 14.84375 -20.796875 10.78125 -20.09375 
Q 6.734375 -19.390625 3.21875 -17.921875 
L 4.890625 -9.1875 
Q 8.203125 -11.328125 11.90625 -12.34375 
Q 15.625 -13.375 19.828125 -13.375 
Q 28.375 -13.375 33.859375 -8.703125 
Q 39.359375 -4.046875 41.109375 4.6875 
L 41.890625 8.796875 
Q 38.140625 4.5 33.15625 2.25 
Q 28.171875 0 22.40625 0 
Q 14.109375 0 9.34375 5.484375 
Q 4.59375 10.984375 4.59375 20.609375 
Q 4.59375 28.171875 7.46875 35.421875 
Q 10.359375 42.671875 15.578125 48.296875 
Q 19.046875 52 23.65625 54 
Q 28.265625 56 33.296875 56 
Q 38.8125 56 42.90625 53.4375 
Q 47.015625 50.875 49.03125 46.1875 
L 50.59375 54.6875 
z
M 46.09375 34.625 
Q 46.09375 41.265625 42.96875 44.875 
Q 39.84375 48.484375 34.078125 48.484375 
Q 30.515625 48.484375 27.296875 47.0625 
Q 24.078125 45.65625 21.78125 43.109375 
Q 18.0625 38.921875 15.984375 33.234375 
Q 13.921875 27.546875 13.921875 21.484375 
Q 13.921875 14.75 17.0625 11.125 
Q 20.21875 7.515625 26.125 7.515625 
Q 34.671875 7.515625 40.375 15.25 
Q 46.09375 23 46.09375 34.625 
z
" id="DejaVuSans-Oblique-103"/>
       <path d="M 48.09375 32.234375 
Q 48.25 33.015625 48.3125 33.84375 
Q 48.390625 34.671875 48.390625 35.5 
Q 48.390625 41.453125 44.890625 44.921875 
Q 41.40625 48.390625 35.40625 48.390625 
Q 28.71875 48.390625 23.578125 44.15625 
Q 18.453125 39.9375 15.828125 32.171875 
z
M 55.90625 25.203125 
L 14.109375 25.203125 
Q 13.8125 23.34375 13.71875 22.265625 
Q 13.625 21.1875 13.625 20.40625 
Q 13.625 13.625 17.796875 9.90625 
Q 21.96875 6.203125 29.59375 6.203125 
Q 35.453125 6.203125 40.671875 7.515625 
Q 45.90625 8.84375 50.390625 11.375 
L 48.6875 2.484375 
Q 43.84375 0.53125 38.6875 -0.4375 
Q 33.546875 -1.421875 28.21875 -1.421875 
Q 16.84375 -1.421875 10.71875 4.015625 
Q 4.59375 9.46875 4.59375 19.484375 
Q 4.59375 28.03125 7.640625 35.375 
Q 10.6875 42.71875 16.609375 48.484375 
Q 20.40625 52.09375 25.65625 54.046875 
Q 30.90625 56 36.8125 56 
Q 46.09375 56 51.578125 50.4375 
Q 57.078125 44.875 57.078125 35.5 
Q 57.078125 33.25 56.78125 30.6875 
Q 56.5 28.125 55.90625 25.203125 
z
" id="DejaVuSans-Oblique-101"/>
      </defs>
      <use transform="translate(0 0.51875)" xlink:href="#DejaVuSans-101"/>
      <use transform="translate(61.523438 0.51875)" xlink:href="#DejaVuSans-83"/>
      <use transform="translate(125 0.51875)" xlink:href="#DejaVuSans-69"/>
      <use transform="translate(188.183594 0.51875)" xlink:href="#DejaVuSans-73"/>
      <use transform="translate(217.675781 0.51875)" xlink:href="#DejaVuSans-85"/>
      <use transform="translate(288.619141 0.51875)" xlink:href="#DejaVuSans-82"/>
      <use transform="translate(359.058594 38.8)scale(0.7)" xlink:href="#DejaVuSans-Oblique-114"/>
      <use transform="translate(387.837891 38.8)scale(0.7)" xlink:href="#DejaVuSans-Oblique-97"/>
      <use transform="translate(430.733398 38.8)scale(0.7)" xlink:href="#DejaVuSans-Oblique-110"/>
      <use transform="translate(475.098633 38.8)scale(0.7)" xlink:href="#DejaVuSans-Oblique-103"/>
      <use transform="translate(519.532227 38.8)scale(0.7)" xlink:href="#DejaVuSans-Oblique-101"/>
     </g>
    </g>
   </g>
  </g>
 </g>
 <defs>
  <clipPath id="p4da119bd0c">
   <rect height="543.6" width="558" x="90" y="86.4"/>
  </clipPath>
 </defs>
</svg>
