<?xml version="1.0" encoding="utf-8" standalone="no"?>
<!DOCTYPE svg PUBLIC "-//W3C//DTD SVG 1.1//EN"
  "http://www.w3.org/Graphics/SVG/1.1/DTD/svg11.dtd">
<!-- Created with matplotlib (https://matplotlib.org/) -->
<svg height="720pt" version="1.1" viewBox="0 0 720 720" width="720pt" xmlns="http://www.w3.org/2000/svg" xmlns:xlink="http://www.w3.org/1999/xlink">
 <metadata>
  <rdf:RDF xmlns:cc="http://creativecommons.org/ns#" xmlns:dc="http://purl.org/dc/elements/1.1/" xmlns:rdf="http://www.w3.org/1999/02/22-rdf-syntax-ns#">
   <cc:Work>
    <dc:type rdf:resource="http://purl.org/dc/dcmitype/StillImage"/>
    <dc:date>2022-07-13T18:53:57.412921</dc:date>
    <dc:format>image/svg+xml</dc:format>
    <dc:creator>
     <cc:Agent>
      <dc:title>Matplotlib v3.3.2, https://matplotlib.org/</dc:title>
     </cc:Agent>
    </dc:creator>
   </cc:Work>
  </rdf:RDF>
 </metadata>
 <defs>
  <style type="text/css">*{stroke-linecap:butt;stroke-linejoin:round;}</style>
 </defs>
 <g id="figure_1">
  <g id="patch_1">
   <path d="M 0 720 
L 720 720 
L 720 0 
L 0 0 
z
" style="fill:none;"/>
  </g>
  <g id="axes_1">
   <g id="patch_2">
    <path d="M 90 630 
L 648 630 
L 648 86.4 
L 90 86.4 
z
" style="fill:#ffffff;"/>
   </g>
   <g id="matplotlib.axis_1">
    <g id="xtick_1">
     <g id="line2d_1">
      <path clip-path="url(#p3629333822)" d="M 115.363636 630 
L 115.363636 86.4 
" style="fill:none;stroke:#b0b0b0;stroke-linecap:square;stroke-width:0.8;"/>
     </g>
     <g id="line2d_2">
      <defs>
       <path d="M 0 0 
L 0 3.5 
" id="m79c18a01ab" style="stroke:#000000;stroke-width:0.8;"/>
      </defs>
      <g>
       <use style="stroke:#000000;stroke-width:0.8;" x="115.363636" xlink:href="#m79c18a01ab" y="630"/>
      </g>
     </g>
     <g id="text_1">
      <!-- 0 -->
      <g transform="translate(112.182386 644.598438)scale(0.1 -0.1)">
       <defs>
        <path d="M 31.78125 66.40625 
Q 24.171875 66.40625 20.328125 58.90625 
Q 16.5 51.421875 16.5 36.375 
Q 16.5 21.390625 20.328125 13.890625 
Q 24.171875 6.390625 31.78125 6.390625 
Q 39.453125 6.390625 43.28125 13.890625 
Q 47.125 21.390625 47.125 36.375 
Q 47.125 51.421875 43.28125 58.90625 
Q 39.453125 66.40625 31.78125 66.40625 
z
M 31.78125 74.21875 
Q 44.046875 74.21875 50.515625 64.515625 
Q 56.984375 54.828125 56.984375 36.375 
Q 56.984375 17.96875 50.515625 8.265625 
Q 44.046875 -1.421875 31.78125 -1.421875 
Q 19.53125 -1.421875 13.0625 8.265625 
Q 6.59375 17.96875 6.59375 36.375 
Q 6.59375 54.828125 13.0625 64.515625 
Q 19.53125 74.21875 31.78125 74.21875 
z
" id="DejaVuSans-48"/>
       </defs>
       <use xlink:href="#DejaVuSans-48"/>
      </g>
     </g>
    </g>
    <g id="xtick_2">
     <g id="line2d_3">
      <path clip-path="url(#p3629333822)" d="M 178.772727 630 
L 178.772727 86.4 
" style="fill:none;stroke:#b0b0b0;stroke-linecap:square;stroke-width:0.8;"/>
     </g>
     <g id="line2d_4">
      <g>
       <use style="stroke:#000000;stroke-width:0.8;" x="178.772727" xlink:href="#m79c18a01ab" y="630"/>
      </g>
     </g>
     <g id="text_2">
      <!-- 25 -->
      <g transform="translate(172.410227 644.598438)scale(0.1 -0.1)">
       <defs>
        <path d="M 19.1875 8.296875 
L 53.609375 8.296875 
L 53.609375 0 
L 7.328125 0 
L 7.328125 8.296875 
Q 12.9375 14.109375 22.625 23.890625 
Q 32.328125 33.6875 34.8125 36.53125 
Q 39.546875 41.84375 41.421875 45.53125 
Q 43.3125 49.21875 43.3125 52.78125 
Q 43.3125 58.59375 39.234375 62.25 
Q 35.15625 65.921875 28.609375 65.921875 
Q 23.96875 65.921875 18.8125 64.3125 
Q 13.671875 62.703125 7.8125 59.421875 
L 7.8125 69.390625 
Q 13.765625 71.78125 18.9375 73 
Q 24.125 74.21875 28.421875 74.21875 
Q 39.75 74.21875 46.484375 68.546875 
Q 53.21875 62.890625 53.21875 53.421875 
Q 53.21875 48.921875 51.53125 44.890625 
Q 49.859375 40.875 45.40625 35.40625 
Q 44.1875 33.984375 37.640625 27.21875 
Q 31.109375 20.453125 19.1875 8.296875 
z
" id="DejaVuSans-50"/>
        <path d="M 10.796875 72.90625 
L 49.515625 72.90625 
L 49.515625 64.59375 
L 19.828125 64.59375 
L 19.828125 46.734375 
Q 21.96875 47.46875 24.109375 47.828125 
Q 26.265625 48.1875 28.421875 48.1875 
Q 40.625 48.1875 47.75 41.5 
Q 54.890625 34.8125 54.890625 23.390625 
Q 54.890625 11.625 47.5625 5.09375 
Q 40.234375 -1.421875 26.90625 -1.421875 
Q 22.3125 -1.421875 17.546875 -0.640625 
Q 12.796875 0.140625 7.71875 1.703125 
L 7.71875 11.625 
Q 12.109375 9.234375 16.796875 8.0625 
Q 21.484375 6.890625 26.703125 6.890625 
Q 35.15625 6.890625 40.078125 11.328125 
Q 45.015625 15.765625 45.015625 23.390625 
Q 45.015625 31 40.078125 35.4375 
Q 35.15625 39.890625 26.703125 39.890625 
Q 22.75 39.890625 18.8125 39.015625 
Q 14.890625 38.140625 10.796875 36.28125 
z
" id="DejaVuSans-53"/>
       </defs>
       <use xlink:href="#DejaVuSans-50"/>
       <use x="63.623047" xlink:href="#DejaVuSans-53"/>
      </g>
     </g>
    </g>
    <g id="xtick_3">
     <g id="line2d_5">
      <path clip-path="url(#p3629333822)" d="M 242.181818 630 
L 242.181818 86.4 
" style="fill:none;stroke:#b0b0b0;stroke-linecap:square;stroke-width:0.8;"/>
     </g>
     <g id="line2d_6">
      <g>
       <use style="stroke:#000000;stroke-width:0.8;" x="242.181818" xlink:href="#m79c18a01ab" y="630"/>
      </g>
     </g>
     <g id="text_3">
      <!-- 50 -->
      <g transform="translate(235.819318 644.598438)scale(0.1 -0.1)">
       <use xlink:href="#DejaVuSans-53"/>
       <use x="63.623047" xlink:href="#DejaVuSans-48"/>
      </g>
     </g>
    </g>
    <g id="xtick_4">
     <g id="line2d_7">
      <path clip-path="url(#p3629333822)" d="M 305.590909 630 
L 305.590909 86.4 
" style="fill:none;stroke:#b0b0b0;stroke-linecap:square;stroke-width:0.8;"/>
     </g>
     <g id="line2d_8">
      <g>
       <use style="stroke:#000000;stroke-width:0.8;" x="305.590909" xlink:href="#m79c18a01ab" y="630"/>
      </g>
     </g>
     <g id="text_4">
      <!-- 75 -->
      <g transform="translate(299.228409 644.598438)scale(0.1 -0.1)">
       <defs>
        <path d="M 8.203125 72.90625 
L 55.078125 72.90625 
L 55.078125 68.703125 
L 28.609375 0 
L 18.3125 0 
L 43.21875 64.59375 
L 8.203125 64.59375 
z
" id="DejaVuSans-55"/>
       </defs>
       <use xlink:href="#DejaVuSans-55"/>
       <use x="63.623047" xlink:href="#DejaVuSans-53"/>
      </g>
     </g>
    </g>
    <g id="xtick_5">
     <g id="line2d_9">
      <path clip-path="url(#p3629333822)" d="M 369 630 
L 369 86.4 
" style="fill:none;stroke:#b0b0b0;stroke-linecap:square;stroke-width:0.8;"/>
     </g>
     <g id="line2d_10">
      <g>
       <use style="stroke:#000000;stroke-width:0.8;" x="369" xlink:href="#m79c18a01ab" y="630"/>
      </g>
     </g>
     <g id="text_5">
      <!-- 100 -->
      <g transform="translate(359.45625 644.598438)scale(0.1 -0.1)">
       <defs>
        <path d="M 12.40625 8.296875 
L 28.515625 8.296875 
L 28.515625 63.921875 
L 10.984375 60.40625 
L 10.984375 69.390625 
L 28.421875 72.90625 
L 38.28125 72.90625 
L 38.28125 8.296875 
L 54.390625 8.296875 
L 54.390625 0 
L 12.40625 0 
z
" id="DejaVuSans-49"/>
       </defs>
       <use xlink:href="#DejaVuSans-49"/>
       <use x="63.623047" xlink:href="#DejaVuSans-48"/>
       <use x="127.246094" xlink:href="#DejaVuSans-48"/>
      </g>
     </g>
    </g>
    <g id="xtick_6">
     <g id="line2d_11">
      <path clip-path="url(#p3629333822)" d="M 432.409091 630 
L 432.409091 86.4 
" style="fill:none;stroke:#b0b0b0;stroke-linecap:square;stroke-width:0.8;"/>
     </g>
     <g id="line2d_12">
      <g>
       <use style="stroke:#000000;stroke-width:0.8;" x="432.409091" xlink:href="#m79c18a01ab" y="630"/>
      </g>
     </g>
     <g id="text_6">
      <!-- 125 -->
      <g transform="translate(422.865341 644.598438)scale(0.1 -0.1)">
       <use xlink:href="#DejaVuSans-49"/>
       <use x="63.623047" xlink:href="#DejaVuSans-50"/>
       <use x="127.246094" xlink:href="#DejaVuSans-53"/>
      </g>
     </g>
    </g>
    <g id="xtick_7">
     <g id="line2d_13">
      <path clip-path="url(#p3629333822)" d="M 495.818182 630 
L 495.818182 86.4 
" style="fill:none;stroke:#b0b0b0;stroke-linecap:square;stroke-width:0.8;"/>
     </g>
     <g id="line2d_14">
      <g>
       <use style="stroke:#000000;stroke-width:0.8;" x="495.818182" xlink:href="#m79c18a01ab" y="630"/>
      </g>
     </g>
     <g id="text_7">
      <!-- 150 -->
      <g transform="translate(486.274432 644.598438)scale(0.1 -0.1)">
       <use xlink:href="#DejaVuSans-49"/>
       <use x="63.623047" xlink:href="#DejaVuSans-53"/>
       <use x="127.246094" xlink:href="#DejaVuSans-48"/>
      </g>
     </g>
    </g>
    <g id="xtick_8">
     <g id="line2d_15">
      <path clip-path="url(#p3629333822)" d="M 559.227273 630 
L 559.227273 86.4 
" style="fill:none;stroke:#b0b0b0;stroke-linecap:square;stroke-width:0.8;"/>
     </g>
     <g id="line2d_16">
      <g>
       <use style="stroke:#000000;stroke-width:0.8;" x="559.227273" xlink:href="#m79c18a01ab" y="630"/>
      </g>
     </g>
     <g id="text_8">
      <!-- 175 -->
      <g transform="translate(549.683523 644.598438)scale(0.1 -0.1)">
       <use xlink:href="#DejaVuSans-49"/>
       <use x="63.623047" xlink:href="#DejaVuSans-55"/>
       <use x="127.246094" xlink:href="#DejaVuSans-53"/>
      </g>
     </g>
    </g>
    <g id="xtick_9">
     <g id="line2d_17">
      <path clip-path="url(#p3629333822)" d="M 622.636364 630 
L 622.636364 86.4 
" style="fill:none;stroke:#b0b0b0;stroke-linecap:square;stroke-width:0.8;"/>
     </g>
     <g id="line2d_18">
      <g>
       <use style="stroke:#000000;stroke-width:0.8;" x="622.636364" xlink:href="#m79c18a01ab" y="630"/>
      </g>
     </g>
     <g id="text_9">
      <!-- 200 -->
      <g transform="translate(613.092614 644.598438)scale(0.1 -0.1)">
       <use xlink:href="#DejaVuSans-50"/>
       <use x="63.623047" xlink:href="#DejaVuSans-48"/>
       <use x="127.246094" xlink:href="#DejaVuSans-48"/>
      </g>
     </g>
    </g>
    <g id="text_10">
     <!-- Days -->
     <g transform="translate(356.521875 658.276562)scale(0.1 -0.1)">
      <defs>
       <path d="M 19.671875 64.796875 
L 19.671875 8.109375 
L 31.59375 8.109375 
Q 46.6875 8.109375 53.6875 14.9375 
Q 60.6875 21.78125 60.6875 36.53125 
Q 60.6875 51.171875 53.6875 57.984375 
Q 46.6875 64.796875 31.59375 64.796875 
z
M 9.8125 72.90625 
L 30.078125 72.90625 
Q 51.265625 72.90625 61.171875 64.09375 
Q 71.09375 55.28125 71.09375 36.53125 
Q 71.09375 17.671875 61.125 8.828125 
Q 51.171875 0 30.078125 0 
L 9.8125 0 
z
" id="DejaVuSans-68"/>
       <path d="M 34.28125 27.484375 
Q 23.390625 27.484375 19.1875 25 
Q 14.984375 22.515625 14.984375 16.5 
Q 14.984375 11.71875 18.140625 8.90625 
Q 21.296875 6.109375 26.703125 6.109375 
Q 34.1875 6.109375 38.703125 11.40625 
Q 43.21875 16.703125 43.21875 25.484375 
L 43.21875 27.484375 
z
M 52.203125 31.203125 
L 52.203125 0 
L 43.21875 0 
L 43.21875 8.296875 
Q 40.140625 3.328125 35.546875 0.953125 
Q 30.953125 -1.421875 24.3125 -1.421875 
Q 15.921875 -1.421875 10.953125 3.296875 
Q 6 8.015625 6 15.921875 
Q 6 25.140625 12.171875 29.828125 
Q 18.359375 34.515625 30.609375 34.515625 
L 43.21875 34.515625 
L 43.21875 35.40625 
Q 43.21875 41.609375 39.140625 45 
Q 35.0625 48.390625 27.6875 48.390625 
Q 23 48.390625 18.546875 47.265625 
Q 14.109375 46.140625 10.015625 43.890625 
L 10.015625 52.203125 
Q 14.9375 54.109375 19.578125 55.046875 
Q 24.21875 56 28.609375 56 
Q 40.484375 56 46.34375 49.84375 
Q 52.203125 43.703125 52.203125 31.203125 
z
" id="DejaVuSans-97"/>
       <path d="M 32.171875 -5.078125 
Q 28.375 -14.84375 24.75 -17.8125 
Q 21.140625 -20.796875 15.09375 -20.796875 
L 7.90625 -20.796875 
L 7.90625 -13.28125 
L 13.1875 -13.28125 
Q 16.890625 -13.28125 18.9375 -11.515625 
Q 21 -9.765625 23.484375 -3.21875 
L 25.09375 0.875 
L 2.984375 54.6875 
L 12.5 54.6875 
L 29.59375 11.921875 
L 46.6875 54.6875 
L 56.203125 54.6875 
z
" id="DejaVuSans-121"/>
       <path d="M 44.28125 53.078125 
L 44.28125 44.578125 
Q 40.484375 46.53125 36.375 47.5 
Q 32.28125 48.484375 27.875 48.484375 
Q 21.1875 48.484375 17.84375 46.4375 
Q 14.5 44.390625 14.5 40.28125 
Q 14.5 37.15625 16.890625 35.375 
Q 19.28125 33.59375 26.515625 31.984375 
L 29.59375 31.296875 
Q 39.15625 29.25 43.1875 25.515625 
Q 47.21875 21.78125 47.21875 15.09375 
Q 47.21875 7.46875 41.1875 3.015625 
Q 35.15625 -1.421875 24.609375 -1.421875 
Q 20.21875 -1.421875 15.453125 -0.5625 
Q 10.6875 0.296875 5.421875 2 
L 5.421875 11.28125 
Q 10.40625 8.6875 15.234375 7.390625 
Q 20.0625 6.109375 24.8125 6.109375 
Q 31.15625 6.109375 34.5625 8.28125 
Q 37.984375 10.453125 37.984375 14.40625 
Q 37.984375 18.0625 35.515625 20.015625 
Q 33.0625 21.96875 24.703125 23.78125 
L 21.578125 24.515625 
Q 13.234375 26.265625 9.515625 29.90625 
Q 5.8125 33.546875 5.8125 39.890625 
Q 5.8125 47.609375 11.28125 51.796875 
Q 16.75 56 26.8125 56 
Q 31.78125 56 36.171875 55.265625 
Q 40.578125 54.546875 44.28125 53.078125 
z
" id="DejaVuSans-115"/>
      </defs>
      <use xlink:href="#DejaVuSans-68"/>
      <use x="77.001953" xlink:href="#DejaVuSans-97"/>
      <use x="138.28125" xlink:href="#DejaVuSans-121"/>
      <use x="197.460938" xlink:href="#DejaVuSans-115"/>
     </g>
    </g>
   </g>
   <g id="matplotlib.axis_2">
    <g id="ytick_1">
     <g id="line2d_19">
      <path clip-path="url(#p3629333822)" d="M 90 605.499081 
L 648 605.499081 
" style="fill:none;stroke:#b0b0b0;stroke-linecap:square;stroke-width:0.8;"/>
     </g>
     <g id="line2d_20">
      <defs>
       <path d="M 0 0 
L -3.5 0 
" id="m1cacbe5db0" style="stroke:#000000;stroke-width:0.8;"/>
      </defs>
      <g>
       <use style="stroke:#000000;stroke-width:0.8;" x="90" xlink:href="#m1cacbe5db0" y="605.499081"/>
      </g>
     </g>
     <g id="text_11">
      <!-- 0 -->
      <g transform="translate(76.6375 609.2983)scale(0.1 -0.1)">
       <use xlink:href="#DejaVuSans-48"/>
      </g>
     </g>
    </g>
    <g id="ytick_2">
     <g id="line2d_21">
      <path clip-path="url(#p3629333822)" d="M 90 525.432818 
L 648 525.432818 
" style="fill:none;stroke:#b0b0b0;stroke-linecap:square;stroke-width:0.8;"/>
     </g>
     <g id="line2d_22">
      <g>
       <use style="stroke:#000000;stroke-width:0.8;" x="90" xlink:href="#m1cacbe5db0" y="525.432818"/>
      </g>
     </g>
     <g id="text_12">
      <!-- 5000 -->
      <g transform="translate(57.55 529.232037)scale(0.1 -0.1)">
       <use xlink:href="#DejaVuSans-53"/>
       <use x="63.623047" xlink:href="#DejaVuSans-48"/>
       <use x="127.246094" xlink:href="#DejaVuSans-48"/>
       <use x="190.869141" xlink:href="#DejaVuSans-48"/>
      </g>
     </g>
    </g>
    <g id="ytick_3">
     <g id="line2d_23">
      <path clip-path="url(#p3629333822)" d="M 90 445.366556 
L 648 445.366556 
" style="fill:none;stroke:#b0b0b0;stroke-linecap:square;stroke-width:0.8;"/>
     </g>
     <g id="line2d_24">
      <g>
       <use style="stroke:#000000;stroke-width:0.8;" x="90" xlink:href="#m1cacbe5db0" y="445.366556"/>
      </g>
     </g>
     <g id="text_13">
      <!-- 10000 -->
      <g transform="translate(51.1875 449.165774)scale(0.1 -0.1)">
       <use xlink:href="#DejaVuSans-49"/>
       <use x="63.623047" xlink:href="#DejaVuSans-48"/>
       <use x="127.246094" xlink:href="#DejaVuSans-48"/>
       <use x="190.869141" xlink:href="#DejaVuSans-48"/>
       <use x="254.492188" xlink:href="#DejaVuSans-48"/>
      </g>
     </g>
    </g>
    <g id="ytick_4">
     <g id="line2d_25">
      <path clip-path="url(#p3629333822)" d="M 90 365.300293 
L 648 365.300293 
" style="fill:none;stroke:#b0b0b0;stroke-linecap:square;stroke-width:0.8;"/>
     </g>
     <g id="line2d_26">
      <g>
       <use style="stroke:#000000;stroke-width:0.8;" x="90" xlink:href="#m1cacbe5db0" y="365.300293"/>
      </g>
     </g>
     <g id="text_14">
      <!-- 15000 -->
      <g transform="translate(51.1875 369.099511)scale(0.1 -0.1)">
       <use xlink:href="#DejaVuSans-49"/>
       <use x="63.623047" xlink:href="#DejaVuSans-53"/>
       <use x="127.246094" xlink:href="#DejaVuSans-48"/>
       <use x="190.869141" xlink:href="#DejaVuSans-48"/>
       <use x="254.492188" xlink:href="#DejaVuSans-48"/>
      </g>
     </g>
    </g>
    <g id="ytick_5">
     <g id="line2d_27">
      <path clip-path="url(#p3629333822)" d="M 90 285.23403 
L 648 285.23403 
" style="fill:none;stroke:#b0b0b0;stroke-linecap:square;stroke-width:0.8;"/>
     </g>
     <g id="line2d_28">
      <g>
       <use style="stroke:#000000;stroke-width:0.8;" x="90" xlink:href="#m1cacbe5db0" y="285.23403"/>
      </g>
     </g>
     <g id="text_15">
      <!-- 20000 -->
      <g transform="translate(51.1875 289.033249)scale(0.1 -0.1)">
       <use xlink:href="#DejaVuSans-50"/>
       <use x="63.623047" xlink:href="#DejaVuSans-48"/>
       <use x="127.246094" xlink:href="#DejaVuSans-48"/>
       <use x="190.869141" xlink:href="#DejaVuSans-48"/>
       <use x="254.492188" xlink:href="#DejaVuSans-48"/>
      </g>
     </g>
    </g>
    <g id="ytick_6">
     <g id="line2d_29">
      <path clip-path="url(#p3629333822)" d="M 90 205.167767 
L 648 205.167767 
" style="fill:none;stroke:#b0b0b0;stroke-linecap:square;stroke-width:0.8;"/>
     </g>
     <g id="line2d_30">
      <g>
       <use style="stroke:#000000;stroke-width:0.8;" x="90" xlink:href="#m1cacbe5db0" y="205.167767"/>
      </g>
     </g>
     <g id="text_16">
      <!-- 25000 -->
      <g transform="translate(51.1875 208.966986)scale(0.1 -0.1)">
       <use xlink:href="#DejaVuSans-50"/>
       <use x="63.623047" xlink:href="#DejaVuSans-53"/>
       <use x="127.246094" xlink:href="#DejaVuSans-48"/>
       <use x="190.869141" xlink:href="#DejaVuSans-48"/>
       <use x="254.492188" xlink:href="#DejaVuSans-48"/>
      </g>
     </g>
    </g>
    <g id="ytick_7">
     <g id="line2d_31">
      <path clip-path="url(#p3629333822)" d="M 90 125.101504 
L 648 125.101504 
" style="fill:none;stroke:#b0b0b0;stroke-linecap:square;stroke-width:0.8;"/>
     </g>
     <g id="line2d_32">
      <g>
       <use style="stroke:#000000;stroke-width:0.8;" x="90" xlink:href="#m1cacbe5db0" y="125.101504"/>
      </g>
     </g>
     <g id="text_17">
      <!-- 30000 -->
      <g transform="translate(51.1875 128.900723)scale(0.1 -0.1)">
       <defs>
        <path d="M 40.578125 39.3125 
Q 47.65625 37.796875 51.625 33 
Q 55.609375 28.21875 55.609375 21.1875 
Q 55.609375 10.40625 48.1875 4.484375 
Q 40.765625 -1.421875 27.09375 -1.421875 
Q 22.515625 -1.421875 17.65625 -0.515625 
Q 12.796875 0.390625 7.625 2.203125 
L 7.625 11.71875 
Q 11.71875 9.328125 16.59375 8.109375 
Q 21.484375 6.890625 26.8125 6.890625 
Q 36.078125 6.890625 40.9375 10.546875 
Q 45.796875 14.203125 45.796875 21.1875 
Q 45.796875 27.640625 41.28125 31.265625 
Q 36.765625 34.90625 28.71875 34.90625 
L 20.21875 34.90625 
L 20.21875 43.015625 
L 29.109375 43.015625 
Q 36.375 43.015625 40.234375 45.921875 
Q 44.09375 48.828125 44.09375 54.296875 
Q 44.09375 59.90625 40.109375 62.90625 
Q 36.140625 65.921875 28.71875 65.921875 
Q 24.65625 65.921875 20.015625 65.03125 
Q 15.375 64.15625 9.8125 62.3125 
L 9.8125 71.09375 
Q 15.4375 72.65625 20.34375 73.4375 
Q 25.25 74.21875 29.59375 74.21875 
Q 40.828125 74.21875 47.359375 69.109375 
Q 53.90625 64.015625 53.90625 55.328125 
Q 53.90625 49.265625 50.4375 45.09375 
Q 46.96875 40.921875 40.578125 39.3125 
z
" id="DejaVuSans-51"/>
       </defs>
       <use xlink:href="#DejaVuSans-51"/>
       <use x="63.623047" xlink:href="#DejaVuSans-48"/>
       <use x="127.246094" xlink:href="#DejaVuSans-48"/>
       <use x="190.869141" xlink:href="#DejaVuSans-48"/>
       <use x="254.492188" xlink:href="#DejaVuSans-48"/>
      </g>
     </g>
    </g>
    <g id="text_18">
     <!-- Cumulative cases -->
     <g transform="translate(45.107812 402.425781)rotate(-90)scale(0.1 -0.1)">
      <defs>
       <path d="M 64.40625 67.28125 
L 64.40625 56.890625 
Q 59.421875 61.53125 53.78125 63.8125 
Q 48.140625 66.109375 41.796875 66.109375 
Q 29.296875 66.109375 22.65625 58.46875 
Q 16.015625 50.828125 16.015625 36.375 
Q 16.015625 21.96875 22.65625 14.328125 
Q 29.296875 6.6875 41.796875 6.6875 
Q 48.140625 6.6875 53.78125 8.984375 
Q 59.421875 11.28125 64.40625 15.921875 
L 64.40625 5.609375 
Q 59.234375 2.09375 53.4375 0.328125 
Q 47.65625 -1.421875 41.21875 -1.421875 
Q 24.65625 -1.421875 15.125 8.703125 
Q 5.609375 18.84375 5.609375 36.375 
Q 5.609375 53.953125 15.125 64.078125 
Q 24.65625 74.21875 41.21875 74.21875 
Q 47.75 74.21875 53.53125 72.484375 
Q 59.328125 70.75 64.40625 67.28125 
z
" id="DejaVuSans-67"/>
       <path d="M 8.5 21.578125 
L 8.5 54.6875 
L 17.484375 54.6875 
L 17.484375 21.921875 
Q 17.484375 14.15625 20.5 10.265625 
Q 23.53125 6.390625 29.59375 6.390625 
Q 36.859375 6.390625 41.078125 11.03125 
Q 45.3125 15.671875 45.3125 23.6875 
L 45.3125 54.6875 
L 54.296875 54.6875 
L 54.296875 0 
L 45.3125 0 
L 45.3125 8.40625 
Q 42.046875 3.421875 37.71875 1 
Q 33.40625 -1.421875 27.6875 -1.421875 
Q 18.265625 -1.421875 13.375 4.4375 
Q 8.5 10.296875 8.5 21.578125 
z
M 31.109375 56 
z
" id="DejaVuSans-117"/>
       <path d="M 52 44.1875 
Q 55.375 50.25 60.0625 53.125 
Q 64.75 56 71.09375 56 
Q 79.640625 56 84.28125 50.015625 
Q 88.921875 44.046875 88.921875 33.015625 
L 88.921875 0 
L 79.890625 0 
L 79.890625 32.71875 
Q 79.890625 40.578125 77.09375 44.375 
Q 74.3125 48.1875 68.609375 48.1875 
Q 61.625 48.1875 57.5625 43.546875 
Q 53.515625 38.921875 53.515625 30.90625 
L 53.515625 0 
L 44.484375 0 
L 44.484375 32.71875 
Q 44.484375 40.625 41.703125 44.40625 
Q 38.921875 48.1875 33.109375 48.1875 
Q 26.21875 48.1875 22.15625 43.53125 
Q 18.109375 38.875 18.109375 30.90625 
L 18.109375 0 
L 9.078125 0 
L 9.078125 54.6875 
L 18.109375 54.6875 
L 18.109375 46.1875 
Q 21.1875 51.21875 25.484375 53.609375 
Q 29.78125 56 35.6875 56 
Q 41.65625 56 45.828125 52.96875 
Q 50 49.953125 52 44.1875 
z
" id="DejaVuSans-109"/>
       <path d="M 9.421875 75.984375 
L 18.40625 75.984375 
L 18.40625 0 
L 9.421875 0 
z
" id="DejaVuSans-108"/>
       <path d="M 18.3125 70.21875 
L 18.3125 54.6875 
L 36.8125 54.6875 
L 36.8125 47.703125 
L 18.3125 47.703125 
L 18.3125 18.015625 
Q 18.3125 11.328125 20.140625 9.421875 
Q 21.96875 7.515625 27.59375 7.515625 
L 36.8125 7.515625 
L 36.8125 0 
L 27.59375 0 
Q 17.1875 0 13.234375 3.875 
Q 9.28125 7.765625 9.28125 18.015625 
L 9.28125 47.703125 
L 2.6875 47.703125 
L 2.6875 54.6875 
L 9.28125 54.6875 
L 9.28125 70.21875 
z
" id="DejaVuSans-116"/>
       <path d="M 9.421875 54.6875 
L 18.40625 54.6875 
L 18.40625 0 
L 9.421875 0 
z
M 9.421875 75.984375 
L 18.40625 75.984375 
L 18.40625 64.59375 
L 9.421875 64.59375 
z
" id="DejaVuSans-105"/>
       <path d="M 2.984375 54.6875 
L 12.5 54.6875 
L 29.59375 8.796875 
L 46.6875 54.6875 
L 56.203125 54.6875 
L 35.6875 0 
L 23.484375 0 
z
" id="DejaVuSans-118"/>
       <path d="M 56.203125 29.59375 
L 56.203125 25.203125 
L 14.890625 25.203125 
Q 15.484375 15.921875 20.484375 11.0625 
Q 25.484375 6.203125 34.421875 6.203125 
Q 39.59375 6.203125 44.453125 7.46875 
Q 49.3125 8.734375 54.109375 11.28125 
L 54.109375 2.78125 
Q 49.265625 0.734375 44.1875 -0.34375 
Q 39.109375 -1.421875 33.890625 -1.421875 
Q 20.796875 -1.421875 13.15625 6.1875 
Q 5.515625 13.8125 5.515625 26.8125 
Q 5.515625 40.234375 12.765625 48.109375 
Q 20.015625 56 32.328125 56 
Q 43.359375 56 49.78125 48.890625 
Q 56.203125 41.796875 56.203125 29.59375 
z
M 47.21875 32.234375 
Q 47.125 39.59375 43.09375 43.984375 
Q 39.0625 48.390625 32.421875 48.390625 
Q 24.90625 48.390625 20.390625 44.140625 
Q 15.875 39.890625 15.1875 32.171875 
z
" id="DejaVuSans-101"/>
       <path id="DejaVuSans-32"/>
       <path d="M 48.78125 52.59375 
L 48.78125 44.1875 
Q 44.96875 46.296875 41.140625 47.34375 
Q 37.3125 48.390625 33.40625 48.390625 
Q 24.65625 48.390625 19.8125 42.84375 
Q 14.984375 37.3125 14.984375 27.296875 
Q 14.984375 17.28125 19.8125 11.734375 
Q 24.65625 6.203125 33.40625 6.203125 
Q 37.3125 6.203125 41.140625 7.25 
Q 44.96875 8.296875 48.78125 10.40625 
L 48.78125 2.09375 
Q 45.015625 0.34375 40.984375 -0.53125 
Q 36.96875 -1.421875 32.421875 -1.421875 
Q 20.0625 -1.421875 12.78125 6.34375 
Q 5.515625 14.109375 5.515625 27.296875 
Q 5.515625 40.671875 12.859375 48.328125 
Q 20.21875 56 33.015625 56 
Q 37.15625 56 41.109375 55.140625 
Q 45.0625 54.296875 48.78125 52.59375 
z
" id="DejaVuSans-99"/>
      </defs>
      <use xlink:href="#DejaVuSans-67"/>
      <use x="69.824219" xlink:href="#DejaVuSans-117"/>
      <use x="133.203125" xlink:href="#DejaVuSans-109"/>
      <use x="230.615234" xlink:href="#DejaVuSans-117"/>
      <use x="293.994141" xlink:href="#DejaVuSans-108"/>
      <use x="321.777344" xlink:href="#DejaVuSans-97"/>
      <use x="383.056641" xlink:href="#DejaVuSans-116"/>
      <use x="422.265625" xlink:href="#DejaVuSans-105"/>
      <use x="450.048828" xlink:href="#DejaVuSans-118"/>
      <use x="509.228516" xlink:href="#DejaVuSans-101"/>
      <use x="570.751953" xlink:href="#DejaVuSans-32"/>
      <use x="602.539062" xlink:href="#DejaVuSans-99"/>
      <use x="657.519531" xlink:href="#DejaVuSans-97"/>
      <use x="718.798828" xlink:href="#DejaVuSans-115"/>
      <use x="770.898438" xlink:href="#DejaVuSans-101"/>
      <use x="832.421875" xlink:href="#DejaVuSans-115"/>
     </g>
    </g>
   </g>
   <g id="line2d_33">
    <path clip-path="url(#p3629333822)" d="M 115.363636 605.290909 
L 148.336364 605.016587 
L 171.163636 604.636002 
L 188.918182 604.142966 
L 204.136364 603.502445 
L 216.818182 602.744311 
L 226.963636 601.936859 
L 237.109091 600.895136 
L 244.718182 599.920811 
L 252.327273 598.743376 
L 259.936364 597.321921 
L 267.545455 595.60796 
L 272.618182 594.274978 
L 277.690909 592.767479 
L 282.763636 591.064075 
L 287.836364 589.14117 
L 292.909091 586.972851 
L 297.981818 584.530808 
L 303.054545 581.784302 
L 308.127273 578.700191 
L 313.2 575.24304 
L 318.272727 571.375332 
L 323.345455 567.057811 
L 328.418182 562.249967 
L 333.490909 556.910719 
L 338.563636 550.99928 
L 343.636364 544.476264 
L 348.709091 537.305004 
L 353.781818 529.453104 
L 358.854545 520.894185 
L 363.927273 511.609779 
L 369 501.591295 
L 374.072727 490.841944 
L 379.145455 479.37849 
L 384.218182 467.232683 
L 389.290909 454.452196 
L 394.363636 441.100911 
L 399.436364 427.25845 
L 407.045455 405.782936 
L 419.727273 369.023047 
L 429.872727 339.832183 
L 437.481818 318.686005 
L 442.554545 305.140059 
L 447.627273 292.136795 
L 452.7 279.746107 
L 457.772727 268.021762 
L 462.845455 257.001412 
L 467.918182 246.707308 
L 472.990909 237.14756 
L 478.063636 228.317789 
L 483.136364 220.203008 
L 488.209091 212.77958 
L 493.281818 206.017157 
L 498.354545 199.880484 
L 503.427273 194.331026 
L 508.5 189.328383 
L 513.572727 184.83147 
L 518.645455 180.799473 
L 523.718182 177.192598 
L 528.790909 173.972627 
L 533.863636 171.103313 
L 538.936364 168.550634 
L 544.009091 166.282941 
L 549.081818 164.271012 
L 554.154545 162.488042 
L 559.227273 160.909576 
L 564.3 159.51341 
L 571.909091 157.717609 
L 579.518182 156.227772 
L 587.127273 154.993344 
L 594.736364 153.971618 
L 604.881818 152.878975 
L 615.027273 152.031882 
L 622.636364 151.524423 
L 622.636364 151.524423 
" style="fill:none;stroke:#1f77b4;stroke-linecap:square;stroke-width:1.5;"/>
   </g>
   <g id="line2d_34">
    <path clip-path="url(#p3629333822)" d="M 115.363636 605.290909 
L 133.118182 604.679924 
L 148.336364 603.970268 
L 163.554545 603.030635 
L 176.236364 602.019795 
L 186.381818 601.024072 
L 196.527273 599.826197 
L 206.672727 598.386484 
L 214.281818 597.120101 
L 221.890909 595.668739 
L 229.5 594.006797 
L 237.109091 592.105586 
L 244.718182 589.933088 
L 252.327273 587.453765 
L 257.4 585.611217 
L 262.472727 583.602414 
L 267.545455 581.414075 
L 272.618182 579.0322 
L 277.690909 576.442087 
L 282.763636 573.628388 
L 287.836364 570.575168 
L 292.909091 567.265998 
L 297.981818 563.684065 
L 303.054545 559.812321 
L 308.127273 555.633658 
L 313.2 551.131117 
L 318.272727 546.288142 
L 323.345455 541.088858 
L 328.418182 535.518401 
L 333.490909 529.563272 
L 338.563636 523.211728 
L 343.636364 516.454199 
L 348.709091 509.283724 
L 353.781818 501.696387 
L 358.854545 493.69175 
L 363.927273 485.27327 
L 369 476.448661 
L 374.072727 467.230207 
L 379.145455 457.634993 
L 384.218182 447.685031 
L 391.827273 432.15523 
L 399.436364 416.000119 
L 407.045455 399.352891 
L 419.727273 370.931676 
L 437.481818 331.033642 
L 445.090909 314.366546 
L 452.7 298.184699 
L 460.309091 282.622271 
L 465.381818 272.647834 
L 470.454545 263.026375 
L 475.527273 253.780263 
L 480.6 244.926931 
L 485.672727 236.479002 
L 490.745455 228.444509 
L 495.818182 220.827201 
L 500.890909 213.626908 
L 505.963636 206.839949 
L 511.036364 200.459566 
L 516.109091 194.476362 
L 521.181818 188.878736 
L 526.254545 183.653302 
L 531.327273 178.785281 
L 536.4 174.25886 
L 541.472727 170.05752 
L 546.545455 166.164324 
L 551.618182 162.562167 
L 556.690909 159.23399 
L 561.763636 156.162959 
L 566.836364 153.332611 
L 571.909091 150.726975 
L 576.981818 148.330656 
L 582.054545 146.128907 
L 587.127273 144.107672 
L 592.2 142.253622 
L 599.809091 139.758671 
L 607.418182 137.572334 
L 615.027273 135.658903 
L 622.636364 133.986196 
L 622.636364 133.986196 
" style="fill:none;stroke:#ff7f0e;stroke-linecap:square;stroke-width:1.5;"/>
   </g>
   <g id="line2d_35">
    <path clip-path="url(#p3629333822)" d="M 115.363636 605.290909 
L 135.654545 604.666852 
L 153.409091 603.879446 
L 168.627273 602.953591 
L 181.309091 601.946529 
L 191.454545 600.945641 
L 201.6 599.732024 
L 211.745455 598.262044 
L 219.354545 596.960478 
L 226.963636 595.460455 
L 234.572727 593.73343 
L 242.181818 591.747314 
L 249.790909 589.466228 
L 254.863636 587.762111 
L 259.936364 585.896431 
L 265.009091 583.855538 
L 270.081818 581.624968 
L 275.154545 579.189469 
L 280.227273 576.533037 
L 285.3 573.638983 
L 290.372727 570.490022 
L 295.445455 567.068386 
L 300.518182 563.355979 
L 305.590909 559.334564 
L 310.663636 554.985984 
L 315.736364 550.292438 
L 320.809091 545.236781 
L 325.881818 539.802883 
L 330.954545 533.976019 
L 336.027273 527.743293 
L 341.1 521.094097 
L 346.172727 514.020577 
L 351.245455 506.518113 
L 356.318182 498.585784 
L 361.390909 490.226796 
L 366.463636 481.448871 
L 371.536364 472.264551 
L 376.609091 462.691412 
L 381.681818 452.75217 
L 389.290909 437.219067 
L 396.9 421.040317 
L 404.509091 404.352337 
L 414.654545 381.577894 
L 437.481818 330.097237 
L 445.090909 313.456685 
L 452.7 297.325889 
L 460.309091 281.827687 
L 465.381818 271.897485 
L 470.454545 262.317348 
L 475.527273 253.106414 
L 480.6 244.279214 
L 485.672727 235.845876 
L 490.745455 227.812399 
L 495.818182 220.180988 
L 500.890909 212.950422 
L 505.963636 206.116447 
L 511.036364 199.672177 
L 516.109091 193.60849 
L 521.181818 187.914408 
L 526.254545 182.577459 
L 531.327273 177.584009 
L 536.4 172.919568 
L 541.472727 168.569058 
L 546.545455 164.517056 
L 551.618182 160.747997 
L 556.690909 157.246356 
L 561.763636 153.996791 
L 566.836364 150.984267 
L 571.909091 148.194155 
L 576.981818 145.612309 
L 582.054545 143.22512 
L 587.127273 141.019565 
L 592.2 138.983226 
L 599.809091 136.220385 
L 607.418182 133.774776 
L 615.027273 131.612439 
L 622.636364 129.702478 
L 622.636364 129.702478 
" style="fill:none;stroke:#2ca02c;stroke-linecap:square;stroke-width:1.5;"/>
   </g>
   <g id="line2d_36">
    <path clip-path="url(#p3629333822)" d="M 115.363636 605.290909 
L 133.118182 604.735392 
L 148.336364 604.017696 
L 161.018182 603.200263 
L 173.7 602.133398 
L 183.845455 601.061878 
L 193.990909 599.758768 
L 204.136364 598.183109 
L 211.745455 596.794239 
L 219.354545 595.202913 
L 226.963636 593.384093 
L 234.572727 591.310187 
L 242.181818 588.950951 
L 249.790909 586.273436 
L 254.863636 584.294112 
L 259.936364 582.146339 
L 265.009091 579.81842 
L 270.081818 577.298211 
L 275.154545 574.573165 
L 280.227273 571.630398 
L 285.3 568.456773 
L 290.372727 565.038998 
L 295.445455 561.363745 
L 300.518182 557.417796 
L 305.590909 553.1882 
L 310.663636 548.66246 
L 315.736364 543.828742 
L 320.809091 538.6761 
L 325.881818 533.194726 
L 330.954545 527.376207 
L 336.027273 521.213802 
L 341.1 514.702715 
L 346.172727 507.840376 
L 351.245455 500.626705 
L 356.318182 493.064359 
L 361.390909 485.158947 
L 366.463636 476.919217 
L 371.536364 468.357175 
L 379.145455 454.94426 
L 386.754545 440.907252 
L 394.363636 426.328112 
L 401.972727 411.303416 
L 412.118182 390.766854 
L 445.090909 323.357599 
L 452.7 308.369338 
L 460.309091 293.819756 
L 467.918182 279.793967 
L 475.527273 266.362254 
L 480.6 257.765568 
L 485.672727 249.470121 
L 490.745455 241.485473 
L 495.818182 233.818387 
L 500.890909 226.473002 
L 505.963636 219.451025 
L 511.036364 212.751941 
L 516.109091 206.373246 
L 521.181818 200.31067 
L 526.254545 194.558409 
L 531.327273 189.109348 
L 536.4 183.95527 
L 541.472727 179.087066 
L 546.545455 174.494912 
L 551.618182 170.168447 
L 556.690909 166.096926 
L 561.763636 162.269354 
L 566.836364 158.674615 
L 571.909091 155.301571 
L 576.981818 152.139158 
L 582.054545 149.17646 
L 587.127273 146.402775 
L 592.2 143.807669 
L 599.809091 140.227785 
L 607.418182 136.994287 
L 615.027273 134.076357 
L 622.636364 131.44517 
L 622.636364 131.44517 
" style="fill:none;stroke:#d62728;stroke-linecap:square;stroke-width:1.5;"/>
   </g>
   <g id="line2d_37">
    <path clip-path="url(#p3629333822)" d="M 115.363636 605.290909 
L 128.045455 605.155144 
L 148.336364 604.722658 
L 166.090909 604.144751 
L 181.309091 603.434519 
L 193.990909 602.632473 
L 204.136364 601.810444 
L 214.281818 600.785776 
L 224.427273 599.509854 
L 232.036364 598.352679 
L 239.645455 596.991144 
L 247.254545 595.390823 
L 254.863636 593.512132 
L 262.472727 591.309803 
L 267.545455 589.636656 
L 272.618182 587.780107 
L 277.690909 585.721985 
L 282.763636 583.442777 
L 287.836364 580.921634 
L 292.909091 578.136418 
L 297.981818 575.063782 
L 303.054545 571.6793 
L 308.127273 567.957655 
L 313.2 563.872889 
L 318.272727 559.398729 
L 323.345455 554.509002 
L 328.418182 549.178122 
L 333.490909 543.381682 
L 338.563636 537.09713 
L 343.636364 530.304527 
L 348.709091 522.987373 
L 353.781818 515.133489 
L 358.854545 506.735907 
L 363.927273 497.793755 
L 369 488.313066 
L 374.072727 478.30749 
L 379.145455 467.798825 
L 384.218182 456.81734 
L 389.290909 445.40183 
L 396.9 427.569881 
L 404.509091 409.05964 
L 414.654545 383.711302 
L 432.409091 339.158079 
L 440.018182 320.625771 
L 447.627273 302.750316 
L 452.7 291.288967 
L 457.772727 280.244732 
L 462.845455 269.65376 
L 467.918182 259.544147 
L 472.990909 249.936132 
L 478.063636 240.842492 
L 483.136364 232.269112 
L 488.209091 224.215672 
L 493.281818 216.676397 
L 498.354545 209.640856 
L 503.427273 203.094745 
L 508.5 197.020654 
L 513.572727 191.398775 
L 518.645455 186.207553 
L 523.718182 181.424267 
L 528.790909 177.025531 
L 533.863636 172.987726 
L 538.936364 169.287355 
L 544.009091 165.901338 
L 549.081818 162.807237 
L 554.154545 159.983436 
L 559.227273 157.409271 
L 564.3 155.065114 
L 569.372727 152.932433 
L 574.445455 150.993817 
L 579.518182 149.232982 
L 587.127273 146.892179 
L 594.736364 144.870835 
L 602.345455 143.127477 
L 609.954545 141.625449 
L 617.563636 140.332512 
L 622.636364 139.572616 
L 622.636364 139.572616 
" style="fill:none;stroke:#9467bd;stroke-linecap:square;stroke-width:1.5;"/>
   </g>
   <g id="line2d_38">
    <path clip-path="url(#p3629333822)" d="M 115.363636 605.290909 
L 128.045455 605.190444 
L 143.263636 604.865035 
L 158.481818 604.319227 
L 171.163636 603.656101 
L 183.845455 602.750902 
L 193.990909 601.809552 
L 204.136364 600.631561 
L 211.745455 599.563889 
L 219.354545 598.312189 
L 226.963636 596.849493 
L 234.572727 595.145358 
L 242.181818 593.165568 
L 249.790909 590.871889 
L 254.863636 589.1476 
L 259.936364 587.251381 
L 265.009091 585.168729 
L 270.081818 582.884301 
L 275.154545 580.381943 
L 280.227273 577.644742 
L 285.3 574.655107 
L 290.372727 571.394873 
L 295.445455 567.845441 
L 300.518182 563.987952 
L 305.590909 559.803509 
L 310.663636 555.273428 
L 315.736364 550.379544 
L 320.809091 545.104561 
L 325.881818 539.43244 
L 330.954545 533.348831 
L 336.027273 526.841538 
L 341.1 519.901002 
L 346.172727 512.520805 
L 351.245455 504.698159 
L 356.318182 496.434378 
L 361.390909 487.7353 
L 366.463636 478.611647 
L 371.536364 469.07929 
L 376.609091 459.159402 
L 381.681818 448.878481 
L 389.290909 432.850864 
L 396.9 416.210706 
L 407.045455 393.330097 
L 440.018182 318.146748 
L 447.627273 301.617666 
L 455.236364 285.703481 
L 460.309091 275.490028 
L 465.381818 265.624457 
L 470.454545 256.127921 
L 475.527273 247.016776 
L 480.6 238.302763 
L 485.672727 229.993278 
L 490.745455 222.091704 
L 495.818182 214.597784 
L 500.890909 207.508029 
L 505.963636 200.81613 
L 511.036364 194.513372 
L 516.109091 188.589038 
L 521.181818 183.030783 
L 526.254545 177.824996 
L 531.327273 172.957113 
L 536.4 168.411913 
L 541.472727 164.173768 
L 546.545455 160.226867 
L 551.618182 156.555402 
L 556.690909 153.14373 
L 561.763636 149.976501 
L 566.836364 147.03876 
L 571.909091 144.316037 
L 576.981818 141.794403 
L 582.054545 139.460516 
L 587.127273 137.301653 
L 594.736364 134.365265 
L 602.345455 131.757552 
L 609.954545 129.443656 
L 617.563636 127.391848 
L 622.636364 126.155268 
L 622.636364 126.155268 
" style="fill:none;stroke:#8c564b;stroke-linecap:square;stroke-width:1.5;"/>
   </g>
   <g id="line2d_39">
    <path clip-path="url(#p3629333822)" d="M 115.363636 605.290909 
L 128.045455 605.146557 
L 148.336364 604.69127 
L 166.090909 604.085362 
L 181.309091 603.342988 
L 193.990909 602.506829 
L 204.136364 601.651684 
L 214.281818 600.58782 
L 224.427273 599.265714 
L 232.036364 598.068736 
L 239.645455 596.662514 
L 247.254545 595.012215 
L 254.863636 593.077876 
L 259.936364 591.608245 
L 265.009091 589.977239 
L 270.081818 588.168611 
L 275.154545 586.164825 
L 280.227273 583.947038 
L 285.3 581.495105 
L 290.372727 578.787612 
L 295.445455 575.801943 
L 300.518182 572.514396 
L 305.590909 568.900345 
L 310.663636 564.934472 
L 315.736364 560.591059 
L 320.809091 555.844358 
L 325.881818 550.669054 
L 330.954545 545.040805 
L 336.027273 538.936869 
L 341.1 532.336821 
L 346.172727 525.22334 
L 351.245455 517.583044 
L 356.318182 509.407364 
L 361.390909 500.693409 
L 366.463636 491.444794 
L 371.536364 481.672364 
L 376.609091 471.394791 
L 381.681818 460.638968 
L 386.754545 449.440168 
L 394.363636 431.908769 
L 401.972727 413.659617 
L 412.118182 388.58148 
L 432.409091 338.016125 
L 440.018182 319.656052 
L 447.627273 301.96445 
L 452.7 290.629878 
L 457.772727 279.714262 
L 462.845455 269.252512 
L 467.918182 259.271581 
L 472.990909 249.790669 
L 478.063636 240.821637 
L 483.136364 232.369579 
L 488.209091 224.433512 
L 493.281818 217.007125 
L 498.354545 210.07957 
L 503.427273 203.636242 
L 508.5 197.659529 
L 513.572727 192.129515 
L 518.645455 187.024617 
L 523.718182 182.322156 
L 528.790909 177.998845 
L 533.863636 174.031211 
L 538.936364 170.395939 
L 544.009091 167.070161 
L 549.081818 164.031671 
L 554.154545 161.259098 
L 559.227273 158.73203 
L 564.3 156.431094 
L 569.372727 154.338013 
L 574.445455 152.435626 
L 579.518182 150.707889 
L 587.127273 148.41137 
L 594.736364 146.428532 
L 602.345455 144.718582 
L 609.954545 143.245487 
L 617.563636 141.977566 
L 622.636364 141.232421 
L 622.636364 141.232421 
" style="fill:none;stroke:#e377c2;stroke-linecap:square;stroke-width:1.5;"/>
   </g>
   <g id="line2d_40">
    <path clip-path="url(#p3629333822)" d="M 115.363636 605.290909 
L 128.045455 605.173891 
L 140.727273 604.853756 
L 153.409091 604.335279 
L 166.090909 603.591921 
L 176.236364 602.805807 
L 186.381818 601.817995 
L 196.527273 600.593306 
L 206.672727 599.090489 
L 214.281818 597.752321 
L 221.890909 596.208078 
L 229.5 594.43247 
L 237.109091 592.397638 
L 244.718182 590.073047 
L 252.327273 587.425436 
L 257.4 585.46325 
L 262.472727 583.330247 
L 267.545455 581.014615 
L 272.618182 578.504081 
L 277.690909 575.785955 
L 282.763636 572.847197 
L 287.836364 569.67449 
L 292.909091 566.25434 
L 297.981818 562.57319 
L 303.054545 558.617553 
L 308.127273 554.374171 
L 313.2 549.830193 
L 318.272727 544.973373 
L 323.345455 539.792291 
L 328.418182 534.27659 
L 333.490909 528.417231 
L 338.563636 522.206759 
L 343.636364 515.639571 
L 348.709091 508.712193 
L 353.781818 501.423539 
L 358.854545 493.775158 
L 363.927273 485.771463 
L 369 477.41991 
L 374.072727 468.731147 
L 379.145455 459.719102 
L 386.754545 445.633479 
L 394.363636 430.931858 
L 401.972727 415.701559 
L 412.118182 394.748304 
L 424.8 367.900632 
L 445.090909 324.76915 
L 455.236364 303.731518 
L 462.845455 288.397392 
L 470.454545 273.547039 
L 478.063636 259.258278 
L 485.672727 245.594114 
L 490.745455 236.855989 
L 495.818182 228.427707 
L 500.890909 220.317097 
L 505.963636 212.529371 
L 511.036364 205.067297 
L 516.109091 197.9314 
L 521.181818 191.12017 
L 526.254545 184.630284 
L 531.327273 178.456821 
L 536.4 172.593482 
L 541.472727 167.032794 
L 546.545455 161.766313 
L 551.618182 156.784805 
L 556.690909 152.078421 
L 561.763636 147.636849 
L 566.836364 143.449461 
L 571.909091 139.505432 
L 576.981818 135.793851 
L 582.054545 132.303822 
L 587.127273 129.024538 
L 592.2 125.945355 
L 597.272727 123.05585 
L 602.345455 120.345862 
L 609.954545 116.596009 
L 617.563636 113.196137 
L 622.636364 111.109091 
L 622.636364 111.109091 
" style="fill:none;stroke:#7f7f7f;stroke-linecap:square;stroke-width:1.5;"/>
   </g>
   <g id="line2d_41">
    <path clip-path="url(#p3629333822)" d="M 115.363636 605.290909 
L 130.581818 605.167424 
L 150.872727 604.763119 
L 168.627273 604.176019 
L 183.845455 603.429334 
L 196.527273 602.572413 
L 206.672727 601.687715 
L 216.818182 600.58153 
L 226.963636 599.203362 
L 234.572727 597.954938 
L 242.181818 596.489157 
L 249.790909 594.771438 
L 257.4 592.762458 
L 262.472727 591.239602 
L 267.545455 589.553169 
L 272.618182 587.687571 
L 277.690909 585.62612 
L 282.763636 583.35103 
L 287.836364 580.843457 
L 292.909091 578.083558 
L 297.981818 575.050595 
L 303.054545 571.723075 
L 308.127273 568.07894 
L 313.2 564.095815 
L 318.272727 559.751308 
L 323.345455 555.023379 
L 328.418182 549.890776 
L 333.490909 544.333531 
L 338.563636 538.333519 
L 343.636364 531.87507 
L 348.709091 524.945615 
L 353.781818 517.536356 
L 358.854545 509.642929 
L 363.927273 501.266034 
L 369 492.411995 
L 374.072727 483.093219 
L 379.145455 473.328522 
L 384.218182 463.143278 
L 389.290909 452.569374 
L 396.9 436.064817 
L 404.509091 418.925336 
L 414.654545 395.391373 
L 440.018182 336.011589 
L 447.627273 318.821781 
L 455.236364 302.211534 
L 462.845455 286.306593 
L 467.918182 276.144479 
L 472.990909 266.36167 
L 478.063636 256.974659 
L 483.136364 247.994837 
L 488.209091 239.428886 
L 493.281818 231.279223 
L 498.354545 223.544485 
L 503.427273 216.220026 
L 508.5 209.298402 
L 513.572727 202.769853 
L 518.645455 196.622736 
L 523.718182 190.843938 
L 528.790909 185.41924 
L 533.863636 180.333641 
L 538.936364 175.571646 
L 544.009091 171.1175 
L 549.081818 166.9554 
L 554.154545 163.069661 
L 559.227273 159.444853 
L 564.3 156.065916 
L 569.372727 152.918239 
L 574.445455 149.987729 
L 579.518182 147.260856 
L 584.590909 144.724683 
L 589.663636 142.366888 
L 597.272727 139.139222 
L 604.881818 136.249829 
L 612.490909 133.664888 
L 620.1 131.353528 
L 622.636364 130.638942 
L 622.636364 130.638942 
" style="fill:none;stroke:#bcbd22;stroke-linecap:square;stroke-width:1.5;"/>
   </g>
   <g id="line2d_42">
    <path clip-path="url(#p3629333822)" d="M 115.363636 605.290909 
L 125.509091 604.986657 
L 128.045455 604.986657 
L 138.190909 604.50626 
L 143.263636 604.250048 
L 150.872727 603.625531 
L 155.945455 603.497425 
L 163.554545 602.952974 
L 166.090909 602.872908 
L 186.381818 601.11145 
L 188.918182 601.11145 
L 206.672727 598.357171 
L 209.209091 597.652588 
L 211.745455 596.611726 
L 214.281818 596.099302 
L 216.818182 595.362692 
L 219.354545 594.369871 
L 224.427273 592.944691 
L 226.963636 591.2633 
L 229.5 590.158385 
L 234.572727 588.893338 
L 237.109091 587.692345 
L 239.645455 586.123046 
L 242.181818 585.242317 
L 247.254545 582.872355 
L 249.790909 581.511229 
L 254.863636 579.237347 
L 257.4 577.876221 
L 262.472727 574.833703 
L 265.009091 573.744802 
L 267.545455 572.80002 
L 270.081818 571.727132 
L 275.154545 569.020892 
L 280.227273 565.193725 
L 292.909091 559.877325 
L 305.590909 553.071692 
L 308.127273 551.48638 
L 310.663636 549.756949 
L 315.736364 545.929782 
L 318.272727 544.232377 
L 320.809091 542.390853 
L 323.345455 540.389196 
L 330.954545 533.839776 
L 333.490909 531.421775 
L 336.027273 528.507363 
L 338.563636 525.865176 
L 343.636364 520.052366 
L 346.172727 517.153967 
L 351.245455 510.476441 
L 353.781818 506.649273 
L 356.318182 502.405761 
L 358.854545 497.633812 
L 363.927273 489.130775 
L 366.463636 485.287594 
L 369 480.964016 
L 371.536364 476.960703 
L 374.072727 472.476992 
L 376.609091 468.32956 
L 379.145455 463.877876 
L 381.681818 459.105926 
L 384.218182 455.118626 
L 386.754545 450.586876 
L 389.290909 445.718847 
L 391.827273 440.51454 
L 394.363636 435.038008 
L 396.9 430.041873 
L 399.436364 426.03856 
L 401.972727 421.218571 
L 404.509091 415.806091 
L 409.581818 404.020337 
L 414.654545 391.289802 
L 427.336364 358.158382 
L 434.945455 339.166665 
L 437.481818 332.473125 
L 445.090909 313.065063 
L 450.163636 299.229613 
L 455.236364 285.586321 
L 460.309091 271.270474 
L 462.845455 264.913212 
L 465.381818 258.908243 
L 467.918182 253.319617 
L 470.454545 248.179363 
L 475.527273 238.603438 
L 480.6 229.796149 
L 485.672727 221.757497 
L 488.209091 217.978369 
L 490.745455 214.455453 
L 493.281818 211.220776 
L 495.818182 208.194272 
L 498.354545 205.391953 
L 500.890909 202.925912 
L 503.427273 200.620003 
L 508.5 196.56865 
L 513.572727 193.494106 
L 523.718182 187.569202 
L 531.327273 182.541041 
L 536.4 179.514536 
L 541.472727 176.77627 
L 554.154545 170.531102 
L 556.690909 169.153962 
L 559.227273 167.600676 
L 561.763636 166.28759 
L 564.3 164.285933 
L 566.836364 160.362686 
L 569.372727 157.864619 
L 571.909091 157.864619 
L 574.445455 153.909345 
L 576.981818 150.482509 
L 579.518182 150.482509 
L 582.054545 147.03966 
L 587.127273 141.419008 
L 592.2 138.312437 
L 594.736364 138.312437 
L 597.272727 135.382012 
L 604.881818 130.962355 
L 612.490909 125.886153 
L 615.027273 125.886153 
L 617.563636 121.962907 
L 620.1 121.962907 
L 622.636364 117.415143 
L 622.636364 117.415143 
" style="fill:none;stroke:#17becf;stroke-dasharray:14.8,6.4;stroke-dashoffset:0;stroke-width:4;"/>
   </g>
   <g id="patch_3">
    <path d="M 90 630 
L 90 86.4 
" style="fill:none;stroke:#000000;stroke-linecap:square;stroke-linejoin:miter;stroke-width:0.8;"/>
   </g>
   <g id="patch_4">
    <path d="M 648 630 
L 648 86.4 
" style="fill:none;stroke:#000000;stroke-linecap:square;stroke-linejoin:miter;stroke-width:0.8;"/>
   </g>
   <g id="patch_5">
    <path d="M 90 630 
L 648 630 
" style="fill:none;stroke:#000000;stroke-linecap:square;stroke-linejoin:miter;stroke-width:0.8;"/>
   </g>
   <g id="patch_6">
    <path d="M 90 86.4 
L 648 86.4 
" style="fill:none;stroke:#000000;stroke-linecap:square;stroke-linejoin:miter;stroke-width:0.8;"/>
   </g>
   <g id="text_19">
    <!-- El Salvador relative err =  -->
    <g transform="translate(291.5025 80.4)scale(0.12 -0.12)">
     <defs>
      <path d="M 9.8125 72.90625 
L 55.90625 72.90625 
L 55.90625 64.59375 
L 19.671875 64.59375 
L 19.671875 43.015625 
L 54.390625 43.015625 
L 54.390625 34.71875 
L 19.671875 34.71875 
L 19.671875 8.296875 
L 56.78125 8.296875 
L 56.78125 0 
L 9.8125 0 
z
" id="DejaVuSans-69"/>
      <path d="M 53.515625 70.515625 
L 53.515625 60.890625 
Q 47.90625 63.578125 42.921875 64.890625 
Q 37.9375 66.21875 33.296875 66.21875 
Q 25.25 66.21875 20.875 63.09375 
Q 16.5 59.96875 16.5 54.203125 
Q 16.5 49.359375 19.40625 46.890625 
Q 22.3125 44.4375 30.421875 42.921875 
L 36.375 41.703125 
Q 47.40625 39.59375 52.65625 34.296875 
Q 57.90625 29 57.90625 20.125 
Q 57.90625 9.515625 50.796875 4.046875 
Q 43.703125 -1.421875 29.984375 -1.421875 
Q 24.8125 -1.421875 18.96875 -0.25 
Q 13.140625 0.921875 6.890625 3.21875 
L 6.890625 13.375 
Q 12.890625 10.015625 18.65625 8.296875 
Q 24.421875 6.59375 29.984375 6.59375 
Q 38.421875 6.59375 43.015625 9.90625 
Q 47.609375 13.234375 47.609375 19.390625 
Q 47.609375 24.75 44.3125 27.78125 
Q 41.015625 30.8125 33.5 32.328125 
L 27.484375 33.5 
Q 16.453125 35.6875 11.515625 40.375 
Q 6.59375 45.0625 6.59375 53.421875 
Q 6.59375 63.09375 13.40625 68.65625 
Q 20.21875 74.21875 32.171875 74.21875 
Q 37.3125 74.21875 42.625 73.28125 
Q 47.953125 72.359375 53.515625 70.515625 
z
" id="DejaVuSans-83"/>
      <path d="M 45.40625 46.390625 
L 45.40625 75.984375 
L 54.390625 75.984375 
L 54.390625 0 
L 45.40625 0 
L 45.40625 8.203125 
Q 42.578125 3.328125 38.25 0.953125 
Q 33.9375 -1.421875 27.875 -1.421875 
Q 17.96875 -1.421875 11.734375 6.484375 
Q 5.515625 14.40625 5.515625 27.296875 
Q 5.515625 40.1875 11.734375 48.09375 
Q 17.96875 56 27.875 56 
Q 33.9375 56 38.25 53.625 
Q 42.578125 51.265625 45.40625 46.390625 
z
M 14.796875 27.296875 
Q 14.796875 17.390625 18.875 11.75 
Q 22.953125 6.109375 30.078125 6.109375 
Q 37.203125 6.109375 41.296875 11.75 
Q 45.40625 17.390625 45.40625 27.296875 
Q 45.40625 37.203125 41.296875 42.84375 
Q 37.203125 48.484375 30.078125 48.484375 
Q 22.953125 48.484375 18.875 42.84375 
Q 14.796875 37.203125 14.796875 27.296875 
z
" id="DejaVuSans-100"/>
      <path d="M 30.609375 48.390625 
Q 23.390625 48.390625 19.1875 42.75 
Q 14.984375 37.109375 14.984375 27.296875 
Q 14.984375 17.484375 19.15625 11.84375 
Q 23.34375 6.203125 30.609375 6.203125 
Q 37.796875 6.203125 41.984375 11.859375 
Q 46.1875 17.53125 46.1875 27.296875 
Q 46.1875 37.015625 41.984375 42.703125 
Q 37.796875 48.390625 30.609375 48.390625 
z
M 30.609375 56 
Q 42.328125 56 49.015625 48.375 
Q 55.71875 40.765625 55.71875 27.296875 
Q 55.71875 13.875 49.015625 6.21875 
Q 42.328125 -1.421875 30.609375 -1.421875 
Q 18.84375 -1.421875 12.171875 6.21875 
Q 5.515625 13.875 5.515625 27.296875 
Q 5.515625 40.765625 12.171875 48.375 
Q 18.84375 56 30.609375 56 
z
" id="DejaVuSans-111"/>
      <path d="M 41.109375 46.296875 
Q 39.59375 47.171875 37.8125 47.578125 
Q 36.03125 48 33.890625 48 
Q 26.265625 48 22.1875 43.046875 
Q 18.109375 38.09375 18.109375 28.8125 
L 18.109375 0 
L 9.078125 0 
L 9.078125 54.6875 
L 18.109375 54.6875 
L 18.109375 46.1875 
Q 20.953125 51.171875 25.484375 53.578125 
Q 30.03125 56 36.53125 56 
Q 37.453125 56 38.578125 55.875 
Q 39.703125 55.765625 41.0625 55.515625 
z
" id="DejaVuSans-114"/>
      <path d="M 10.59375 45.40625 
L 73.1875 45.40625 
L 73.1875 37.203125 
L 10.59375 37.203125 
z
M 10.59375 25.484375 
L 73.1875 25.484375 
L 73.1875 17.1875 
L 10.59375 17.1875 
z
" id="DejaVuSans-61"/>
     </defs>
     <use xlink:href="#DejaVuSans-69"/>
     <use x="63.183594" xlink:href="#DejaVuSans-108"/>
     <use x="90.966797" xlink:href="#DejaVuSans-32"/>
     <use x="122.753906" xlink:href="#DejaVuSans-83"/>
     <use x="186.230469" xlink:href="#DejaVuSans-97"/>
     <use x="247.509766" xlink:href="#DejaVuSans-108"/>
     <use x="275.292969" xlink:href="#DejaVuSans-118"/>
     <use x="334.472656" xlink:href="#DejaVuSans-97"/>
     <use x="395.751953" xlink:href="#DejaVuSans-100"/>
     <use x="459.228516" xlink:href="#DejaVuSans-111"/>
     <use x="520.410156" xlink:href="#DejaVuSans-114"/>
     <use x="561.523438" xlink:href="#DejaVuSans-32"/>
     <use x="593.310547" xlink:href="#DejaVuSans-114"/>
     <use x="632.173828" xlink:href="#DejaVuSans-101"/>
     <use x="693.697266" xlink:href="#DejaVuSans-108"/>
     <use x="721.480469" xlink:href="#DejaVuSans-97"/>
     <use x="782.759766" xlink:href="#DejaVuSans-116"/>
     <use x="821.96875" xlink:href="#DejaVuSans-105"/>
     <use x="849.751953" xlink:href="#DejaVuSans-118"/>
     <use x="908.931641" xlink:href="#DejaVuSans-101"/>
     <use x="970.455078" xlink:href="#DejaVuSans-32"/>
     <use x="1002.242188" xlink:href="#DejaVuSans-101"/>
     <use x="1063.765625" xlink:href="#DejaVuSans-114"/>
     <use x="1103.128906" xlink:href="#DejaVuSans-114"/>
     <use x="1144.242188" xlink:href="#DejaVuSans-32"/>
     <use x="1176.029297" xlink:href="#DejaVuSans-61"/>
     <use x="1259.818359" xlink:href="#DejaVuSans-32"/>
    </g>
   </g>
   <g id="legend_1">
    <g id="patch_7">
     <path d="M 97 226.503125 
L 185.6 226.503125 
Q 187.6 226.503125 187.6 224.503125 
L 187.6 93.4 
Q 187.6 91.4 185.6 91.4 
L 97 91.4 
Q 95 91.4 95 93.4 
L 95 224.503125 
Q 95 226.503125 97 226.503125 
z
" style="fill:#ffffff;opacity:0.8;stroke:#cccccc;stroke-linejoin:miter;"/>
    </g>
    <g id="line2d_43">
     <path d="M 99 99.498438 
L 119 99.498438 
" style="fill:none;stroke:#1f77b4;stroke-linecap:square;stroke-width:1.5;"/>
    </g>
    <g id="line2d_44"/>
    <g id="text_20">
     <!-- SI -->
     <g transform="translate(127 102.998438)scale(0.1 -0.1)">
      <defs>
       <path d="M 9.8125 72.90625 
L 19.671875 72.90625 
L 19.671875 0 
L 9.8125 0 
z
" id="DejaVuSans-73"/>
      </defs>
      <use xlink:href="#DejaVuSans-83"/>
      <use x="63.476562" xlink:href="#DejaVuSans-73"/>
     </g>
    </g>
    <g id="line2d_45">
     <path d="M 99 114.176563 
L 119 114.176563 
" style="fill:none;stroke:#ff7f0e;stroke-linecap:square;stroke-width:1.5;"/>
    </g>
    <g id="line2d_46"/>
    <g id="text_21">
     <!-- BD -->
     <g transform="translate(127 117.676563)scale(0.1 -0.1)">
      <defs>
       <path d="M 19.671875 34.8125 
L 19.671875 8.109375 
L 35.5 8.109375 
Q 43.453125 8.109375 47.28125 11.40625 
Q 51.125 14.703125 51.125 21.484375 
Q 51.125 28.328125 47.28125 31.5625 
Q 43.453125 34.8125 35.5 34.8125 
z
M 19.671875 64.796875 
L 19.671875 42.828125 
L 34.28125 42.828125 
Q 41.5 42.828125 45.03125 45.53125 
Q 48.578125 48.25 48.578125 53.8125 
Q 48.578125 59.328125 45.03125 62.0625 
Q 41.5 64.796875 34.28125 64.796875 
z
M 9.8125 72.90625 
L 35.015625 72.90625 
Q 46.296875 72.90625 52.390625 68.21875 
Q 58.5 63.53125 58.5 54.890625 
Q 58.5 48.1875 55.375 44.234375 
Q 52.25 40.28125 46.1875 39.3125 
Q 53.46875 37.75 57.5 32.78125 
Q 61.53125 27.828125 61.53125 20.40625 
Q 61.53125 10.640625 54.890625 5.3125 
Q 48.25 0 35.984375 0 
L 9.8125 0 
z
" id="DejaVuSans-66"/>
      </defs>
      <use xlink:href="#DejaVuSans-66"/>
      <use x="68.603516" xlink:href="#DejaVuSans-68"/>
     </g>
    </g>
    <g id="line2d_47">
     <path d="M 99 128.854688 
L 119 128.854688 
" style="fill:none;stroke:#2ca02c;stroke-linecap:square;stroke-width:1.5;"/>
    </g>
    <g id="line2d_48"/>
    <g id="text_22">
     <!-- SIR -->
     <g transform="translate(127 132.354688)scale(0.1 -0.1)">
      <defs>
       <path d="M 44.390625 34.1875 
Q 47.5625 33.109375 50.5625 29.59375 
Q 53.5625 26.078125 56.59375 19.921875 
L 66.609375 0 
L 56 0 
L 46.6875 18.703125 
Q 43.0625 26.03125 39.671875 28.421875 
Q 36.28125 30.8125 30.421875 30.8125 
L 19.671875 30.8125 
L 19.671875 0 
L 9.8125 0 
L 9.8125 72.90625 
L 32.078125 72.90625 
Q 44.578125 72.90625 50.734375 67.671875 
Q 56.890625 62.453125 56.890625 51.90625 
Q 56.890625 45.015625 53.6875 40.46875 
Q 50.484375 35.9375 44.390625 34.1875 
z
M 19.671875 64.796875 
L 19.671875 38.921875 
L 32.078125 38.921875 
Q 39.203125 38.921875 42.84375 42.21875 
Q 46.484375 45.515625 46.484375 51.90625 
Q 46.484375 58.296875 42.84375 61.546875 
Q 39.203125 64.796875 32.078125 64.796875 
z
" id="DejaVuSans-82"/>
      </defs>
      <use xlink:href="#DejaVuSans-83"/>
      <use x="63.476562" xlink:href="#DejaVuSans-73"/>
      <use x="92.96875" xlink:href="#DejaVuSans-82"/>
     </g>
    </g>
    <g id="line2d_49">
     <path d="M 99 143.532812 
L 119 143.532812 
" style="fill:none;stroke:#d62728;stroke-linecap:square;stroke-width:1.5;"/>
    </g>
    <g id="line2d_50"/>
    <g id="text_23">
     <!-- eSIR -->
     <g transform="translate(127 147.032812)scale(0.1 -0.1)">
      <use xlink:href="#DejaVuSans-101"/>
      <use x="61.523438" xlink:href="#DejaVuSans-83"/>
      <use x="125" xlink:href="#DejaVuSans-73"/>
      <use x="154.492188" xlink:href="#DejaVuSans-82"/>
     </g>
    </g>
    <g id="line2d_51">
     <path d="M 99 158.210938 
L 119 158.210938 
" style="fill:none;stroke:#9467bd;stroke-linecap:square;stroke-width:1.5;"/>
    </g>
    <g id="line2d_52"/>
    <g id="text_24">
     <!-- SEIR -->
     <g transform="translate(127 161.710938)scale(0.1 -0.1)">
      <use xlink:href="#DejaVuSans-83"/>
      <use x="63.476562" xlink:href="#DejaVuSans-69"/>
      <use x="126.660156" xlink:href="#DejaVuSans-73"/>
      <use x="156.152344" xlink:href="#DejaVuSans-82"/>
     </g>
    </g>
    <g id="line2d_53">
     <path d="M 99 172.889063 
L 119 172.889063 
" style="fill:none;stroke:#8c564b;stroke-linecap:square;stroke-width:1.5;"/>
    </g>
    <g id="line2d_54"/>
    <g id="text_25">
     <!-- eSEIR -->
     <g transform="translate(127 176.389063)scale(0.1 -0.1)">
      <use xlink:href="#DejaVuSans-101"/>
      <use x="61.523438" xlink:href="#DejaVuSans-83"/>
      <use x="125" xlink:href="#DejaVuSans-69"/>
      <use x="188.183594" xlink:href="#DejaVuSans-73"/>
      <use x="217.675781" xlink:href="#DejaVuSans-82"/>
     </g>
    </g>
    <g id="line2d_55">
     <path d="M 99 187.567188 
L 119 187.567188 
" style="fill:none;stroke:#e377c2;stroke-linecap:square;stroke-width:1.5;"/>
    </g>
    <g id="line2d_56"/>
    <g id="text_26">
     <!-- SEIUR -->
     <g transform="translate(127 191.067188)scale(0.1 -0.1)">
      <defs>
       <path d="M 8.6875 72.90625 
L 18.609375 72.90625 
L 18.609375 28.609375 
Q 18.609375 16.890625 22.84375 11.734375 
Q 27.09375 6.59375 36.625 6.59375 
Q 46.09375 6.59375 50.34375 11.734375 
Q 54.59375 16.890625 54.59375 28.609375 
L 54.59375 72.90625 
L 64.5 72.90625 
L 64.5 27.390625 
Q 64.5 13.140625 57.4375 5.859375 
Q 50.390625 -1.421875 36.625 -1.421875 
Q 22.796875 -1.421875 15.734375 5.859375 
Q 8.6875 13.140625 8.6875 27.390625 
z
" id="DejaVuSans-85"/>
      </defs>
      <use xlink:href="#DejaVuSans-83"/>
      <use x="63.476562" xlink:href="#DejaVuSans-69"/>
      <use x="126.660156" xlink:href="#DejaVuSans-73"/>
      <use x="156.152344" xlink:href="#DejaVuSans-85"/>
      <use x="229.345703" xlink:href="#DejaVuSans-82"/>
     </g>
    </g>
    <g id="line2d_57">
     <path d="M 99 202.245312 
L 119 202.245312 
" style="fill:none;stroke:#7f7f7f;stroke-linecap:square;stroke-width:1.5;"/>
    </g>
    <g id="line2d_58"/>
    <g id="text_27">
     <!-- eSEIUR -->
     <g transform="translate(127 205.745312)scale(0.1 -0.1)">
      <use xlink:href="#DejaVuSans-101"/>
      <use x="61.523438" xlink:href="#DejaVuSans-83"/>
      <use x="125" xlink:href="#DejaVuSans-69"/>
      <use x="188.183594" xlink:href="#DejaVuSans-73"/>
      <use x="217.675781" xlink:href="#DejaVuSans-85"/>
      <use x="290.869141" xlink:href="#DejaVuSans-82"/>
     </g>
    </g>
    <g id="line2d_59">
     <path d="M 99 216.923437 
L 119 216.923437 
" style="fill:none;stroke:#bcbd22;stroke-linecap:square;stroke-width:1.5;"/>
    </g>
    <g id="line2d_60"/>
    <g id="text_28">
     <!-- eSEIUR$^{range}$ -->
     <g transform="translate(127 220.423437)scale(0.1 -0.1)">
      <defs>
       <path d="M 44.578125 46.390625 
Q 43.21875 47.125 41.453125 47.515625 
Q 39.703125 47.90625 37.703125 47.90625 
Q 30.515625 47.90625 25.140625 42.453125 
Q 19.78125 37.015625 18.015625 27.875 
L 12.5 0 
L 3.515625 0 
L 14.203125 54.6875 
L 23.1875 54.6875 
L 21.484375 46.1875 
Q 25.046875 50.921875 30 53.453125 
Q 34.96875 56 40.578125 56 
Q 42.046875 56 43.453125 55.828125 
Q 44.875 55.671875 46.296875 55.28125 
z
" id="DejaVuSans-Oblique-114"/>
       <path d="M 53.71875 31.203125 
L 47.609375 0 
L 38.625 0 
L 40.28125 8.296875 
Q 36.328125 3.421875 31.265625 1 
Q 26.21875 -1.421875 20.015625 -1.421875 
Q 13.03125 -1.421875 8.5625 2.84375 
Q 4.109375 7.125 4.109375 13.8125 
Q 4.109375 23.390625 11.75 28.953125 
Q 19.390625 34.515625 32.8125 34.515625 
L 45.3125 34.515625 
L 45.796875 36.921875 
Q 45.90625 37.3125 45.953125 37.765625 
Q 46 38.234375 46 39.203125 
Q 46 43.5625 42.453125 45.96875 
Q 38.921875 48.390625 32.515625 48.390625 
Q 28.125 48.390625 23.5 47.265625 
Q 18.890625 46.140625 14.015625 43.890625 
L 15.578125 52.203125 
Q 20.65625 54.109375 25.515625 55.046875 
Q 30.375 56 34.90625 56 
Q 44.578125 56 49.625 51.796875 
Q 54.6875 47.609375 54.6875 39.59375 
Q 54.6875 37.984375 54.4375 35.8125 
Q 54.203125 33.640625 53.71875 31.203125 
z
M 44 27.484375 
L 35.015625 27.484375 
Q 23.96875 27.484375 18.671875 24.53125 
Q 13.375 21.578125 13.375 15.375 
Q 13.375 11.078125 16.078125 8.640625 
Q 18.796875 6.203125 23.578125 6.203125 
Q 30.90625 6.203125 36.375 11.453125 
Q 41.84375 16.703125 43.609375 25.484375 
z
" id="DejaVuSans-Oblique-97"/>
       <path d="M 55.71875 33.015625 
L 49.3125 0 
L 40.28125 0 
L 46.6875 32.671875 
Q 47.125 34.96875 47.359375 36.71875 
Q 47.609375 38.484375 47.609375 39.5 
Q 47.609375 43.609375 45.015625 45.890625 
Q 42.4375 48.1875 37.796875 48.1875 
Q 30.5625 48.1875 25.34375 43.375 
Q 20.125 38.578125 18.5 30.328125 
L 12.5 0 
L 3.515625 0 
L 14.109375 54.6875 
L 23.09375 54.6875 
L 21.296875 46.09375 
Q 25.046875 50.828125 30.3125 53.40625 
Q 35.59375 56 41.40625 56 
Q 48.640625 56 52.609375 52.09375 
Q 56.59375 48.1875 56.59375 41.109375 
Q 56.59375 39.359375 56.375 37.359375 
Q 56.15625 35.359375 55.71875 33.015625 
z
" id="DejaVuSans-Oblique-110"/>
       <path d="M 59.625 54.6875 
L 50.296875 6.78125 
Q 47.609375 -7.125 40.015625 -13.953125 
Q 32.421875 -20.796875 19.578125 -20.796875 
Q 14.84375 -20.796875 10.78125 -20.09375 
Q 6.734375 -19.390625 3.21875 -17.921875 
L 4.890625 -9.1875 
Q 8.203125 -11.328125 11.90625 -12.34375 
Q 15.625 -13.375 19.828125 -13.375 
Q 28.375 -13.375 33.859375 -8.703125 
Q 39.359375 -4.046875 41.109375 4.6875 
L 41.890625 8.796875 
Q 38.140625 4.5 33.15625 2.25 
Q 28.171875 0 22.40625 0 
Q 14.109375 0 9.34375 5.484375 
Q 4.59375 10.984375 4.59375 20.609375 
Q 4.59375 28.171875 7.46875 35.421875 
Q 10.359375 42.671875 15.578125 48.296875 
Q 19.046875 52 23.65625 54 
Q 28.265625 56 33.296875 56 
Q 38.8125 56 42.90625 53.4375 
Q 47.015625 50.875 49.03125 46.1875 
L 50.59375 54.6875 
z
M 46.09375 34.625 
Q 46.09375 41.265625 42.96875 44.875 
Q 39.84375 48.484375 34.078125 48.484375 
Q 30.515625 48.484375 27.296875 47.0625 
Q 24.078125 45.65625 21.78125 43.109375 
Q 18.0625 38.921875 15.984375 33.234375 
Q 13.921875 27.546875 13.921875 21.484375 
Q 13.921875 14.75 17.0625 11.125 
Q 20.21875 7.515625 26.125 7.515625 
Q 34.671875 7.515625 40.375 15.25 
Q 46.09375 23 46.09375 34.625 
z
" id="DejaVuSans-Oblique-103"/>
       <path d="M 48.09375 32.234375 
Q 48.25 33.015625 48.3125 33.84375 
Q 48.390625 34.671875 48.390625 35.5 
Q 48.390625 41.453125 44.890625 44.921875 
Q 41.40625 48.390625 35.40625 48.390625 
Q 28.71875 48.390625 23.578125 44.15625 
Q 18.453125 39.9375 15.828125 32.171875 
z
M 55.90625 25.203125 
L 14.109375 25.203125 
Q 13.8125 23.34375 13.71875 22.265625 
Q 13.625 21.1875 13.625 20.40625 
Q 13.625 13.625 17.796875 9.90625 
Q 21.96875 6.203125 29.59375 6.203125 
Q 35.453125 6.203125 40.671875 7.515625 
Q 45.90625 8.84375 50.390625 11.375 
L 48.6875 2.484375 
Q 43.84375 0.53125 38.6875 -0.4375 
Q 33.546875 -1.421875 28.21875 -1.421875 
Q 16.84375 -1.421875 10.71875 4.015625 
Q 4.59375 9.46875 4.59375 19.484375 
Q 4.59375 28.03125 7.640625 35.375 
Q 10.6875 42.71875 16.609375 48.484375 
Q 20.40625 52.09375 25.65625 54.046875 
Q 30.90625 56 36.8125 56 
Q 46.09375 56 51.578125 50.4375 
Q 57.078125 44.875 57.078125 35.5 
Q 57.078125 33.25 56.78125 30.6875 
Q 56.5 28.125 55.90625 25.203125 
z
" id="DejaVuSans-Oblique-101"/>
      </defs>
      <use transform="translate(0 0.51875)" xlink:href="#DejaVuSans-101"/>
      <use transform="translate(61.523438 0.51875)" xlink:href="#DejaVuSans-83"/>
      <use transform="translate(125 0.51875)" xlink:href="#DejaVuSans-69"/>
      <use transform="translate(188.183594 0.51875)" xlink:href="#DejaVuSans-73"/>
      <use transform="translate(217.675781 0.51875)" xlink:href="#DejaVuSans-85"/>
      <use transform="translate(288.619141 0.51875)" xlink:href="#DejaVuSans-82"/>
      <use transform="translate(359.058594 38.8)scale(0.7)" xlink:href="#DejaVuSans-Oblique-114"/>
      <use transform="translate(387.837891 38.8)scale(0.7)" xlink:href="#DejaVuSans-Oblique-97"/>
      <use transform="translate(430.733398 38.8)scale(0.7)" xlink:href="#DejaVuSans-Oblique-110"/>
      <use transform="translate(475.098633 38.8)scale(0.7)" xlink:href="#DejaVuSans-Oblique-103"/>
      <use transform="translate(519.532227 38.8)scale(0.7)" xlink:href="#DejaVuSans-Oblique-101"/>
     </g>
    </g>
   </g>
  </g>
 </g>
 <defs>
  <clipPath id="p3629333822">
   <rect height="543.6" width="558" x="90" y="86.4"/>
  </clipPath>
 </defs>
</svg>
