<?xml version="1.0" encoding="utf-8" standalone="no"?>
<!DOCTYPE svg PUBLIC "-//W3C//DTD SVG 1.1//EN"
  "http://www.w3.org/Graphics/SVG/1.1/DTD/svg11.dtd">
<!-- Created with matplotlib (https://matplotlib.org/) -->
<svg height="720pt" version="1.1" viewBox="0 0 720 720" width="720pt" xmlns="http://www.w3.org/2000/svg" xmlns:xlink="http://www.w3.org/1999/xlink">
 <metadata>
  <rdf:RDF xmlns:cc="http://creativecommons.org/ns#" xmlns:dc="http://purl.org/dc/elements/1.1/" xmlns:rdf="http://www.w3.org/1999/02/22-rdf-syntax-ns#">
   <cc:Work>
    <dc:type rdf:resource="http://purl.org/dc/dcmitype/StillImage"/>
    <dc:date>2022-07-13T18:53:50.039671</dc:date>
    <dc:format>image/svg+xml</dc:format>
    <dc:creator>
     <cc:Agent>
      <dc:title>Matplotlib v3.3.2, https://matplotlib.org/</dc:title>
     </cc:Agent>
    </dc:creator>
   </cc:Work>
  </rdf:RDF>
 </metadata>
 <defs>
  <style type="text/css">*{stroke-linecap:butt;stroke-linejoin:round;}</style>
 </defs>
 <g id="figure_1">
  <g id="patch_1">
   <path d="M 0 720 
L 720 720 
L 720 0 
L 0 0 
z
" style="fill:none;"/>
  </g>
  <g id="axes_1">
   <g id="patch_2">
    <path d="M 90 630 
L 648 630 
L 648 86.4 
L 90 86.4 
z
" style="fill:#ffffff;"/>
   </g>
   <g id="matplotlib.axis_1">
    <g id="xtick_1">
     <g id="line2d_1">
      <path clip-path="url(#p64597695c5)" d="M 115.363636 630 
L 115.363636 86.4 
" style="fill:none;stroke:#b0b0b0;stroke-linecap:square;stroke-width:0.8;"/>
     </g>
     <g id="line2d_2">
      <defs>
       <path d="M 0 0 
L 0 3.5 
" id="m9a12115d43" style="stroke:#000000;stroke-width:0.8;"/>
      </defs>
      <g>
       <use style="stroke:#000000;stroke-width:0.8;" x="115.363636" xlink:href="#m9a12115d43" y="630"/>
      </g>
     </g>
     <g id="text_1">
      <!-- 0 -->
      <g transform="translate(112.182386 644.598438)scale(0.1 -0.1)">
       <defs>
        <path d="M 31.78125 66.40625 
Q 24.171875 66.40625 20.328125 58.90625 
Q 16.5 51.421875 16.5 36.375 
Q 16.5 21.390625 20.328125 13.890625 
Q 24.171875 6.390625 31.78125 6.390625 
Q 39.453125 6.390625 43.28125 13.890625 
Q 47.125 21.390625 47.125 36.375 
Q 47.125 51.421875 43.28125 58.90625 
Q 39.453125 66.40625 31.78125 66.40625 
z
M 31.78125 74.21875 
Q 44.046875 74.21875 50.515625 64.515625 
Q 56.984375 54.828125 56.984375 36.375 
Q 56.984375 17.96875 50.515625 8.265625 
Q 44.046875 -1.421875 31.78125 -1.421875 
Q 19.53125 -1.421875 13.0625 8.265625 
Q 6.59375 17.96875 6.59375 36.375 
Q 6.59375 54.828125 13.0625 64.515625 
Q 19.53125 74.21875 31.78125 74.21875 
z
" id="DejaVuSans-48"/>
       </defs>
       <use xlink:href="#DejaVuSans-48"/>
      </g>
     </g>
    </g>
    <g id="xtick_2">
     <g id="line2d_3">
      <path clip-path="url(#p64597695c5)" d="M 181.673797 630 
L 181.673797 86.4 
" style="fill:none;stroke:#b0b0b0;stroke-linecap:square;stroke-width:0.8;"/>
     </g>
     <g id="line2d_4">
      <g>
       <use style="stroke:#000000;stroke-width:0.8;" x="181.673797" xlink:href="#m9a12115d43" y="630"/>
      </g>
     </g>
     <g id="text_2">
      <!-- 20 -->
      <g transform="translate(175.311297 644.598438)scale(0.1 -0.1)">
       <defs>
        <path d="M 19.1875 8.296875 
L 53.609375 8.296875 
L 53.609375 0 
L 7.328125 0 
L 7.328125 8.296875 
Q 12.9375 14.109375 22.625 23.890625 
Q 32.328125 33.6875 34.8125 36.53125 
Q 39.546875 41.84375 41.421875 45.53125 
Q 43.3125 49.21875 43.3125 52.78125 
Q 43.3125 58.59375 39.234375 62.25 
Q 35.15625 65.921875 28.609375 65.921875 
Q 23.96875 65.921875 18.8125 64.3125 
Q 13.671875 62.703125 7.8125 59.421875 
L 7.8125 69.390625 
Q 13.765625 71.78125 18.9375 73 
Q 24.125 74.21875 28.421875 74.21875 
Q 39.75 74.21875 46.484375 68.546875 
Q 53.21875 62.890625 53.21875 53.421875 
Q 53.21875 48.921875 51.53125 44.890625 
Q 49.859375 40.875 45.40625 35.40625 
Q 44.1875 33.984375 37.640625 27.21875 
Q 31.109375 20.453125 19.1875 8.296875 
z
" id="DejaVuSans-50"/>
       </defs>
       <use xlink:href="#DejaVuSans-50"/>
       <use x="63.623047" xlink:href="#DejaVuSans-48"/>
      </g>
     </g>
    </g>
    <g id="xtick_3">
     <g id="line2d_5">
      <path clip-path="url(#p64597695c5)" d="M 247.983957 630 
L 247.983957 86.4 
" style="fill:none;stroke:#b0b0b0;stroke-linecap:square;stroke-width:0.8;"/>
     </g>
     <g id="line2d_6">
      <g>
       <use style="stroke:#000000;stroke-width:0.8;" x="247.983957" xlink:href="#m9a12115d43" y="630"/>
      </g>
     </g>
     <g id="text_3">
      <!-- 40 -->
      <g transform="translate(241.621457 644.598438)scale(0.1 -0.1)">
       <defs>
        <path d="M 37.796875 64.3125 
L 12.890625 25.390625 
L 37.796875 25.390625 
z
M 35.203125 72.90625 
L 47.609375 72.90625 
L 47.609375 25.390625 
L 58.015625 25.390625 
L 58.015625 17.1875 
L 47.609375 17.1875 
L 47.609375 0 
L 37.796875 0 
L 37.796875 17.1875 
L 4.890625 17.1875 
L 4.890625 26.703125 
z
" id="DejaVuSans-52"/>
       </defs>
       <use xlink:href="#DejaVuSans-52"/>
       <use x="63.623047" xlink:href="#DejaVuSans-48"/>
      </g>
     </g>
    </g>
    <g id="xtick_4">
     <g id="line2d_7">
      <path clip-path="url(#p64597695c5)" d="M 314.294118 630 
L 314.294118 86.4 
" style="fill:none;stroke:#b0b0b0;stroke-linecap:square;stroke-width:0.8;"/>
     </g>
     <g id="line2d_8">
      <g>
       <use style="stroke:#000000;stroke-width:0.8;" x="314.294118" xlink:href="#m9a12115d43" y="630"/>
      </g>
     </g>
     <g id="text_4">
      <!-- 60 -->
      <g transform="translate(307.931618 644.598438)scale(0.1 -0.1)">
       <defs>
        <path d="M 33.015625 40.375 
Q 26.375 40.375 22.484375 35.828125 
Q 18.609375 31.296875 18.609375 23.390625 
Q 18.609375 15.53125 22.484375 10.953125 
Q 26.375 6.390625 33.015625 6.390625 
Q 39.65625 6.390625 43.53125 10.953125 
Q 47.40625 15.53125 47.40625 23.390625 
Q 47.40625 31.296875 43.53125 35.828125 
Q 39.65625 40.375 33.015625 40.375 
z
M 52.59375 71.296875 
L 52.59375 62.3125 
Q 48.875 64.0625 45.09375 64.984375 
Q 41.3125 65.921875 37.59375 65.921875 
Q 27.828125 65.921875 22.671875 59.328125 
Q 17.53125 52.734375 16.796875 39.40625 
Q 19.671875 43.65625 24.015625 45.921875 
Q 28.375 48.1875 33.59375 48.1875 
Q 44.578125 48.1875 50.953125 41.515625 
Q 57.328125 34.859375 57.328125 23.390625 
Q 57.328125 12.15625 50.6875 5.359375 
Q 44.046875 -1.421875 33.015625 -1.421875 
Q 20.359375 -1.421875 13.671875 8.265625 
Q 6.984375 17.96875 6.984375 36.375 
Q 6.984375 53.65625 15.1875 63.9375 
Q 23.390625 74.21875 37.203125 74.21875 
Q 40.921875 74.21875 44.703125 73.484375 
Q 48.484375 72.75 52.59375 71.296875 
z
" id="DejaVuSans-54"/>
       </defs>
       <use xlink:href="#DejaVuSans-54"/>
       <use x="63.623047" xlink:href="#DejaVuSans-48"/>
      </g>
     </g>
    </g>
    <g id="xtick_5">
     <g id="line2d_9">
      <path clip-path="url(#p64597695c5)" d="M 380.604278 630 
L 380.604278 86.4 
" style="fill:none;stroke:#b0b0b0;stroke-linecap:square;stroke-width:0.8;"/>
     </g>
     <g id="line2d_10">
      <g>
       <use style="stroke:#000000;stroke-width:0.8;" x="380.604278" xlink:href="#m9a12115d43" y="630"/>
      </g>
     </g>
     <g id="text_5">
      <!-- 80 -->
      <g transform="translate(374.241778 644.598438)scale(0.1 -0.1)">
       <defs>
        <path d="M 31.78125 34.625 
Q 24.75 34.625 20.71875 30.859375 
Q 16.703125 27.09375 16.703125 20.515625 
Q 16.703125 13.921875 20.71875 10.15625 
Q 24.75 6.390625 31.78125 6.390625 
Q 38.8125 6.390625 42.859375 10.171875 
Q 46.921875 13.96875 46.921875 20.515625 
Q 46.921875 27.09375 42.890625 30.859375 
Q 38.875 34.625 31.78125 34.625 
z
M 21.921875 38.8125 
Q 15.578125 40.375 12.03125 44.71875 
Q 8.5 49.078125 8.5 55.328125 
Q 8.5 64.0625 14.71875 69.140625 
Q 20.953125 74.21875 31.78125 74.21875 
Q 42.671875 74.21875 48.875 69.140625 
Q 55.078125 64.0625 55.078125 55.328125 
Q 55.078125 49.078125 51.53125 44.71875 
Q 48 40.375 41.703125 38.8125 
Q 48.828125 37.15625 52.796875 32.3125 
Q 56.78125 27.484375 56.78125 20.515625 
Q 56.78125 9.90625 50.3125 4.234375 
Q 43.84375 -1.421875 31.78125 -1.421875 
Q 19.734375 -1.421875 13.25 4.234375 
Q 6.78125 9.90625 6.78125 20.515625 
Q 6.78125 27.484375 10.78125 32.3125 
Q 14.796875 37.15625 21.921875 38.8125 
z
M 18.3125 54.390625 
Q 18.3125 48.734375 21.84375 45.5625 
Q 25.390625 42.390625 31.78125 42.390625 
Q 38.140625 42.390625 41.71875 45.5625 
Q 45.3125 48.734375 45.3125 54.390625 
Q 45.3125 60.0625 41.71875 63.234375 
Q 38.140625 66.40625 31.78125 66.40625 
Q 25.390625 66.40625 21.84375 63.234375 
Q 18.3125 60.0625 18.3125 54.390625 
z
" id="DejaVuSans-56"/>
       </defs>
       <use xlink:href="#DejaVuSans-56"/>
       <use x="63.623047" xlink:href="#DejaVuSans-48"/>
      </g>
     </g>
    </g>
    <g id="xtick_6">
     <g id="line2d_11">
      <path clip-path="url(#p64597695c5)" d="M 446.914439 630 
L 446.914439 86.4 
" style="fill:none;stroke:#b0b0b0;stroke-linecap:square;stroke-width:0.8;"/>
     </g>
     <g id="line2d_12">
      <g>
       <use style="stroke:#000000;stroke-width:0.8;" x="446.914439" xlink:href="#m9a12115d43" y="630"/>
      </g>
     </g>
     <g id="text_6">
      <!-- 100 -->
      <g transform="translate(437.370689 644.598438)scale(0.1 -0.1)">
       <defs>
        <path d="M 12.40625 8.296875 
L 28.515625 8.296875 
L 28.515625 63.921875 
L 10.984375 60.40625 
L 10.984375 69.390625 
L 28.421875 72.90625 
L 38.28125 72.90625 
L 38.28125 8.296875 
L 54.390625 8.296875 
L 54.390625 0 
L 12.40625 0 
z
" id="DejaVuSans-49"/>
       </defs>
       <use xlink:href="#DejaVuSans-49"/>
       <use x="63.623047" xlink:href="#DejaVuSans-48"/>
       <use x="127.246094" xlink:href="#DejaVuSans-48"/>
      </g>
     </g>
    </g>
    <g id="xtick_7">
     <g id="line2d_13">
      <path clip-path="url(#p64597695c5)" d="M 513.224599 630 
L 513.224599 86.4 
" style="fill:none;stroke:#b0b0b0;stroke-linecap:square;stroke-width:0.8;"/>
     </g>
     <g id="line2d_14">
      <g>
       <use style="stroke:#000000;stroke-width:0.8;" x="513.224599" xlink:href="#m9a12115d43" y="630"/>
      </g>
     </g>
     <g id="text_7">
      <!-- 120 -->
      <g transform="translate(503.680849 644.598438)scale(0.1 -0.1)">
       <use xlink:href="#DejaVuSans-49"/>
       <use x="63.623047" xlink:href="#DejaVuSans-50"/>
       <use x="127.246094" xlink:href="#DejaVuSans-48"/>
      </g>
     </g>
    </g>
    <g id="xtick_8">
     <g id="line2d_15">
      <path clip-path="url(#p64597695c5)" d="M 579.534759 630 
L 579.534759 86.4 
" style="fill:none;stroke:#b0b0b0;stroke-linecap:square;stroke-width:0.8;"/>
     </g>
     <g id="line2d_16">
      <g>
       <use style="stroke:#000000;stroke-width:0.8;" x="579.534759" xlink:href="#m9a12115d43" y="630"/>
      </g>
     </g>
     <g id="text_8">
      <!-- 140 -->
      <g transform="translate(569.991009 644.598438)scale(0.1 -0.1)">
       <use xlink:href="#DejaVuSans-49"/>
       <use x="63.623047" xlink:href="#DejaVuSans-52"/>
       <use x="127.246094" xlink:href="#DejaVuSans-48"/>
      </g>
     </g>
    </g>
    <g id="xtick_9">
     <g id="line2d_17">
      <path clip-path="url(#p64597695c5)" d="M 645.84492 630 
L 645.84492 86.4 
" style="fill:none;stroke:#b0b0b0;stroke-linecap:square;stroke-width:0.8;"/>
     </g>
     <g id="line2d_18">
      <g>
       <use style="stroke:#000000;stroke-width:0.8;" x="645.84492" xlink:href="#m9a12115d43" y="630"/>
      </g>
     </g>
     <g id="text_9">
      <!-- 160 -->
      <g transform="translate(636.30117 644.598438)scale(0.1 -0.1)">
       <use xlink:href="#DejaVuSans-49"/>
       <use x="63.623047" xlink:href="#DejaVuSans-54"/>
       <use x="127.246094" xlink:href="#DejaVuSans-48"/>
      </g>
     </g>
    </g>
    <g id="text_10">
     <!-- Days -->
     <g transform="translate(356.521875 658.276562)scale(0.1 -0.1)">
      <defs>
       <path d="M 19.671875 64.796875 
L 19.671875 8.109375 
L 31.59375 8.109375 
Q 46.6875 8.109375 53.6875 14.9375 
Q 60.6875 21.78125 60.6875 36.53125 
Q 60.6875 51.171875 53.6875 57.984375 
Q 46.6875 64.796875 31.59375 64.796875 
z
M 9.8125 72.90625 
L 30.078125 72.90625 
Q 51.265625 72.90625 61.171875 64.09375 
Q 71.09375 55.28125 71.09375 36.53125 
Q 71.09375 17.671875 61.125 8.828125 
Q 51.171875 0 30.078125 0 
L 9.8125 0 
z
" id="DejaVuSans-68"/>
       <path d="M 34.28125 27.484375 
Q 23.390625 27.484375 19.1875 25 
Q 14.984375 22.515625 14.984375 16.5 
Q 14.984375 11.71875 18.140625 8.90625 
Q 21.296875 6.109375 26.703125 6.109375 
Q 34.1875 6.109375 38.703125 11.40625 
Q 43.21875 16.703125 43.21875 25.484375 
L 43.21875 27.484375 
z
M 52.203125 31.203125 
L 52.203125 0 
L 43.21875 0 
L 43.21875 8.296875 
Q 40.140625 3.328125 35.546875 0.953125 
Q 30.953125 -1.421875 24.3125 -1.421875 
Q 15.921875 -1.421875 10.953125 3.296875 
Q 6 8.015625 6 15.921875 
Q 6 25.140625 12.171875 29.828125 
Q 18.359375 34.515625 30.609375 34.515625 
L 43.21875 34.515625 
L 43.21875 35.40625 
Q 43.21875 41.609375 39.140625 45 
Q 35.0625 48.390625 27.6875 48.390625 
Q 23 48.390625 18.546875 47.265625 
Q 14.109375 46.140625 10.015625 43.890625 
L 10.015625 52.203125 
Q 14.9375 54.109375 19.578125 55.046875 
Q 24.21875 56 28.609375 56 
Q 40.484375 56 46.34375 49.84375 
Q 52.203125 43.703125 52.203125 31.203125 
z
" id="DejaVuSans-97"/>
       <path d="M 32.171875 -5.078125 
Q 28.375 -14.84375 24.75 -17.8125 
Q 21.140625 -20.796875 15.09375 -20.796875 
L 7.90625 -20.796875 
L 7.90625 -13.28125 
L 13.1875 -13.28125 
Q 16.890625 -13.28125 18.9375 -11.515625 
Q 21 -9.765625 23.484375 -3.21875 
L 25.09375 0.875 
L 2.984375 54.6875 
L 12.5 54.6875 
L 29.59375 11.921875 
L 46.6875 54.6875 
L 56.203125 54.6875 
z
" id="DejaVuSans-121"/>
       <path d="M 44.28125 53.078125 
L 44.28125 44.578125 
Q 40.484375 46.53125 36.375 47.5 
Q 32.28125 48.484375 27.875 48.484375 
Q 21.1875 48.484375 17.84375 46.4375 
Q 14.5 44.390625 14.5 40.28125 
Q 14.5 37.15625 16.890625 35.375 
Q 19.28125 33.59375 26.515625 31.984375 
L 29.59375 31.296875 
Q 39.15625 29.25 43.1875 25.515625 
Q 47.21875 21.78125 47.21875 15.09375 
Q 47.21875 7.46875 41.1875 3.015625 
Q 35.15625 -1.421875 24.609375 -1.421875 
Q 20.21875 -1.421875 15.453125 -0.5625 
Q 10.6875 0.296875 5.421875 2 
L 5.421875 11.28125 
Q 10.40625 8.6875 15.234375 7.390625 
Q 20.0625 6.109375 24.8125 6.109375 
Q 31.15625 6.109375 34.5625 8.28125 
Q 37.984375 10.453125 37.984375 14.40625 
Q 37.984375 18.0625 35.515625 20.015625 
Q 33.0625 21.96875 24.703125 23.78125 
L 21.578125 24.515625 
Q 13.234375 26.265625 9.515625 29.90625 
Q 5.8125 33.546875 5.8125 39.890625 
Q 5.8125 47.609375 11.28125 51.796875 
Q 16.75 56 26.8125 56 
Q 31.78125 56 36.171875 55.265625 
Q 40.578125 54.546875 44.28125 53.078125 
z
" id="DejaVuSans-115"/>
      </defs>
      <use xlink:href="#DejaVuSans-68"/>
      <use x="77.001953" xlink:href="#DejaVuSans-97"/>
      <use x="138.28125" xlink:href="#DejaVuSans-121"/>
      <use x="197.460938" xlink:href="#DejaVuSans-115"/>
     </g>
    </g>
   </g>
   <g id="matplotlib.axis_2">
    <g id="ytick_1">
     <g id="line2d_19">
      <path clip-path="url(#p64597695c5)" d="M 90 605.480208 
L 648 605.480208 
" style="fill:none;stroke:#b0b0b0;stroke-linecap:square;stroke-width:0.8;"/>
     </g>
     <g id="line2d_20">
      <defs>
       <path d="M 0 0 
L -3.5 0 
" id="m17d582bab9" style="stroke:#000000;stroke-width:0.8;"/>
      </defs>
      <g>
       <use style="stroke:#000000;stroke-width:0.8;" x="90" xlink:href="#m17d582bab9" y="605.480208"/>
      </g>
     </g>
     <g id="text_11">
      <!-- 0 -->
      <g transform="translate(76.6375 609.279427)scale(0.1 -0.1)">
       <use xlink:href="#DejaVuSans-48"/>
      </g>
     </g>
    </g>
    <g id="ytick_2">
     <g id="line2d_21">
      <path clip-path="url(#p64597695c5)" d="M 90 535.369472 
L 648 535.369472 
" style="fill:none;stroke:#b0b0b0;stroke-linecap:square;stroke-width:0.8;"/>
     </g>
     <g id="line2d_22">
      <g>
       <use style="stroke:#000000;stroke-width:0.8;" x="90" xlink:href="#m17d582bab9" y="535.369472"/>
      </g>
     </g>
     <g id="text_12">
      <!-- 10000 -->
      <g transform="translate(51.1875 539.168691)scale(0.1 -0.1)">
       <use xlink:href="#DejaVuSans-49"/>
       <use x="63.623047" xlink:href="#DejaVuSans-48"/>
       <use x="127.246094" xlink:href="#DejaVuSans-48"/>
       <use x="190.869141" xlink:href="#DejaVuSans-48"/>
       <use x="254.492188" xlink:href="#DejaVuSans-48"/>
      </g>
     </g>
    </g>
    <g id="ytick_3">
     <g id="line2d_23">
      <path clip-path="url(#p64597695c5)" d="M 90 465.258736 
L 648 465.258736 
" style="fill:none;stroke:#b0b0b0;stroke-linecap:square;stroke-width:0.8;"/>
     </g>
     <g id="line2d_24">
      <g>
       <use style="stroke:#000000;stroke-width:0.8;" x="90" xlink:href="#m17d582bab9" y="465.258736"/>
      </g>
     </g>
     <g id="text_13">
      <!-- 20000 -->
      <g transform="translate(51.1875 469.057955)scale(0.1 -0.1)">
       <use xlink:href="#DejaVuSans-50"/>
       <use x="63.623047" xlink:href="#DejaVuSans-48"/>
       <use x="127.246094" xlink:href="#DejaVuSans-48"/>
       <use x="190.869141" xlink:href="#DejaVuSans-48"/>
       <use x="254.492188" xlink:href="#DejaVuSans-48"/>
      </g>
     </g>
    </g>
    <g id="ytick_4">
     <g id="line2d_25">
      <path clip-path="url(#p64597695c5)" d="M 90 395.148 
L 648 395.148 
" style="fill:none;stroke:#b0b0b0;stroke-linecap:square;stroke-width:0.8;"/>
     </g>
     <g id="line2d_26">
      <g>
       <use style="stroke:#000000;stroke-width:0.8;" x="90" xlink:href="#m17d582bab9" y="395.148"/>
      </g>
     </g>
     <g id="text_14">
      <!-- 30000 -->
      <g transform="translate(51.1875 398.947218)scale(0.1 -0.1)">
       <defs>
        <path d="M 40.578125 39.3125 
Q 47.65625 37.796875 51.625 33 
Q 55.609375 28.21875 55.609375 21.1875 
Q 55.609375 10.40625 48.1875 4.484375 
Q 40.765625 -1.421875 27.09375 -1.421875 
Q 22.515625 -1.421875 17.65625 -0.515625 
Q 12.796875 0.390625 7.625 2.203125 
L 7.625 11.71875 
Q 11.71875 9.328125 16.59375 8.109375 
Q 21.484375 6.890625 26.8125 6.890625 
Q 36.078125 6.890625 40.9375 10.546875 
Q 45.796875 14.203125 45.796875 21.1875 
Q 45.796875 27.640625 41.28125 31.265625 
Q 36.765625 34.90625 28.71875 34.90625 
L 20.21875 34.90625 
L 20.21875 43.015625 
L 29.109375 43.015625 
Q 36.375 43.015625 40.234375 45.921875 
Q 44.09375 48.828125 44.09375 54.296875 
Q 44.09375 59.90625 40.109375 62.90625 
Q 36.140625 65.921875 28.71875 65.921875 
Q 24.65625 65.921875 20.015625 65.03125 
Q 15.375 64.15625 9.8125 62.3125 
L 9.8125 71.09375 
Q 15.4375 72.65625 20.34375 73.4375 
Q 25.25 74.21875 29.59375 74.21875 
Q 40.828125 74.21875 47.359375 69.109375 
Q 53.90625 64.015625 53.90625 55.328125 
Q 53.90625 49.265625 50.4375 45.09375 
Q 46.96875 40.921875 40.578125 39.3125 
z
" id="DejaVuSans-51"/>
       </defs>
       <use xlink:href="#DejaVuSans-51"/>
       <use x="63.623047" xlink:href="#DejaVuSans-48"/>
       <use x="127.246094" xlink:href="#DejaVuSans-48"/>
       <use x="190.869141" xlink:href="#DejaVuSans-48"/>
       <use x="254.492188" xlink:href="#DejaVuSans-48"/>
      </g>
     </g>
    </g>
    <g id="ytick_5">
     <g id="line2d_27">
      <path clip-path="url(#p64597695c5)" d="M 90 325.037264 
L 648 325.037264 
" style="fill:none;stroke:#b0b0b0;stroke-linecap:square;stroke-width:0.8;"/>
     </g>
     <g id="line2d_28">
      <g>
       <use style="stroke:#000000;stroke-width:0.8;" x="90" xlink:href="#m17d582bab9" y="325.037264"/>
      </g>
     </g>
     <g id="text_15">
      <!-- 40000 -->
      <g transform="translate(51.1875 328.836482)scale(0.1 -0.1)">
       <use xlink:href="#DejaVuSans-52"/>
       <use x="63.623047" xlink:href="#DejaVuSans-48"/>
       <use x="127.246094" xlink:href="#DejaVuSans-48"/>
       <use x="190.869141" xlink:href="#DejaVuSans-48"/>
       <use x="254.492188" xlink:href="#DejaVuSans-48"/>
      </g>
     </g>
    </g>
    <g id="ytick_6">
     <g id="line2d_29">
      <path clip-path="url(#p64597695c5)" d="M 90 254.926527 
L 648 254.926527 
" style="fill:none;stroke:#b0b0b0;stroke-linecap:square;stroke-width:0.8;"/>
     </g>
     <g id="line2d_30">
      <g>
       <use style="stroke:#000000;stroke-width:0.8;" x="90" xlink:href="#m17d582bab9" y="254.926527"/>
      </g>
     </g>
     <g id="text_16">
      <!-- 50000 -->
      <g transform="translate(51.1875 258.725746)scale(0.1 -0.1)">
       <defs>
        <path d="M 10.796875 72.90625 
L 49.515625 72.90625 
L 49.515625 64.59375 
L 19.828125 64.59375 
L 19.828125 46.734375 
Q 21.96875 47.46875 24.109375 47.828125 
Q 26.265625 48.1875 28.421875 48.1875 
Q 40.625 48.1875 47.75 41.5 
Q 54.890625 34.8125 54.890625 23.390625 
Q 54.890625 11.625 47.5625 5.09375 
Q 40.234375 -1.421875 26.90625 -1.421875 
Q 22.3125 -1.421875 17.546875 -0.640625 
Q 12.796875 0.140625 7.71875 1.703125 
L 7.71875 11.625 
Q 12.109375 9.234375 16.796875 8.0625 
Q 21.484375 6.890625 26.703125 6.890625 
Q 35.15625 6.890625 40.078125 11.328125 
Q 45.015625 15.765625 45.015625 23.390625 
Q 45.015625 31 40.078125 35.4375 
Q 35.15625 39.890625 26.703125 39.890625 
Q 22.75 39.890625 18.8125 39.015625 
Q 14.890625 38.140625 10.796875 36.28125 
z
" id="DejaVuSans-53"/>
       </defs>
       <use xlink:href="#DejaVuSans-53"/>
       <use x="63.623047" xlink:href="#DejaVuSans-48"/>
       <use x="127.246094" xlink:href="#DejaVuSans-48"/>
       <use x="190.869141" xlink:href="#DejaVuSans-48"/>
       <use x="254.492188" xlink:href="#DejaVuSans-48"/>
      </g>
     </g>
    </g>
    <g id="ytick_7">
     <g id="line2d_31">
      <path clip-path="url(#p64597695c5)" d="M 90 184.815791 
L 648 184.815791 
" style="fill:none;stroke:#b0b0b0;stroke-linecap:square;stroke-width:0.8;"/>
     </g>
     <g id="line2d_32">
      <g>
       <use style="stroke:#000000;stroke-width:0.8;" x="90" xlink:href="#m17d582bab9" y="184.815791"/>
      </g>
     </g>
     <g id="text_17">
      <!-- 60000 -->
      <g transform="translate(51.1875 188.61501)scale(0.1 -0.1)">
       <use xlink:href="#DejaVuSans-54"/>
       <use x="63.623047" xlink:href="#DejaVuSans-48"/>
       <use x="127.246094" xlink:href="#DejaVuSans-48"/>
       <use x="190.869141" xlink:href="#DejaVuSans-48"/>
       <use x="254.492188" xlink:href="#DejaVuSans-48"/>
      </g>
     </g>
    </g>
    <g id="ytick_8">
     <g id="line2d_33">
      <path clip-path="url(#p64597695c5)" d="M 90 114.705055 
L 648 114.705055 
" style="fill:none;stroke:#b0b0b0;stroke-linecap:square;stroke-width:0.8;"/>
     </g>
     <g id="line2d_34">
      <g>
       <use style="stroke:#000000;stroke-width:0.8;" x="90" xlink:href="#m17d582bab9" y="114.705055"/>
      </g>
     </g>
     <g id="text_18">
      <!-- 70000 -->
      <g transform="translate(51.1875 118.504274)scale(0.1 -0.1)">
       <defs>
        <path d="M 8.203125 72.90625 
L 55.078125 72.90625 
L 55.078125 68.703125 
L 28.609375 0 
L 18.3125 0 
L 43.21875 64.59375 
L 8.203125 64.59375 
z
" id="DejaVuSans-55"/>
       </defs>
       <use xlink:href="#DejaVuSans-55"/>
       <use x="63.623047" xlink:href="#DejaVuSans-48"/>
       <use x="127.246094" xlink:href="#DejaVuSans-48"/>
       <use x="190.869141" xlink:href="#DejaVuSans-48"/>
       <use x="254.492188" xlink:href="#DejaVuSans-48"/>
      </g>
     </g>
    </g>
    <g id="text_19">
     <!-- Cumulative cases -->
     <g transform="translate(45.107812 402.425781)rotate(-90)scale(0.1 -0.1)">
      <defs>
       <path d="M 64.40625 67.28125 
L 64.40625 56.890625 
Q 59.421875 61.53125 53.78125 63.8125 
Q 48.140625 66.109375 41.796875 66.109375 
Q 29.296875 66.109375 22.65625 58.46875 
Q 16.015625 50.828125 16.015625 36.375 
Q 16.015625 21.96875 22.65625 14.328125 
Q 29.296875 6.6875 41.796875 6.6875 
Q 48.140625 6.6875 53.78125 8.984375 
Q 59.421875 11.28125 64.40625 15.921875 
L 64.40625 5.609375 
Q 59.234375 2.09375 53.4375 0.328125 
Q 47.65625 -1.421875 41.21875 -1.421875 
Q 24.65625 -1.421875 15.125 8.703125 
Q 5.609375 18.84375 5.609375 36.375 
Q 5.609375 53.953125 15.125 64.078125 
Q 24.65625 74.21875 41.21875 74.21875 
Q 47.75 74.21875 53.53125 72.484375 
Q 59.328125 70.75 64.40625 67.28125 
z
" id="DejaVuSans-67"/>
       <path d="M 8.5 21.578125 
L 8.5 54.6875 
L 17.484375 54.6875 
L 17.484375 21.921875 
Q 17.484375 14.15625 20.5 10.265625 
Q 23.53125 6.390625 29.59375 6.390625 
Q 36.859375 6.390625 41.078125 11.03125 
Q 45.3125 15.671875 45.3125 23.6875 
L 45.3125 54.6875 
L 54.296875 54.6875 
L 54.296875 0 
L 45.3125 0 
L 45.3125 8.40625 
Q 42.046875 3.421875 37.71875 1 
Q 33.40625 -1.421875 27.6875 -1.421875 
Q 18.265625 -1.421875 13.375 4.4375 
Q 8.5 10.296875 8.5 21.578125 
z
M 31.109375 56 
z
" id="DejaVuSans-117"/>
       <path d="M 52 44.1875 
Q 55.375 50.25 60.0625 53.125 
Q 64.75 56 71.09375 56 
Q 79.640625 56 84.28125 50.015625 
Q 88.921875 44.046875 88.921875 33.015625 
L 88.921875 0 
L 79.890625 0 
L 79.890625 32.71875 
Q 79.890625 40.578125 77.09375 44.375 
Q 74.3125 48.1875 68.609375 48.1875 
Q 61.625 48.1875 57.5625 43.546875 
Q 53.515625 38.921875 53.515625 30.90625 
L 53.515625 0 
L 44.484375 0 
L 44.484375 32.71875 
Q 44.484375 40.625 41.703125 44.40625 
Q 38.921875 48.1875 33.109375 48.1875 
Q 26.21875 48.1875 22.15625 43.53125 
Q 18.109375 38.875 18.109375 30.90625 
L 18.109375 0 
L 9.078125 0 
L 9.078125 54.6875 
L 18.109375 54.6875 
L 18.109375 46.1875 
Q 21.1875 51.21875 25.484375 53.609375 
Q 29.78125 56 35.6875 56 
Q 41.65625 56 45.828125 52.96875 
Q 50 49.953125 52 44.1875 
z
" id="DejaVuSans-109"/>
       <path d="M 9.421875 75.984375 
L 18.40625 75.984375 
L 18.40625 0 
L 9.421875 0 
z
" id="DejaVuSans-108"/>
       <path d="M 18.3125 70.21875 
L 18.3125 54.6875 
L 36.8125 54.6875 
L 36.8125 47.703125 
L 18.3125 47.703125 
L 18.3125 18.015625 
Q 18.3125 11.328125 20.140625 9.421875 
Q 21.96875 7.515625 27.59375 7.515625 
L 36.8125 7.515625 
L 36.8125 0 
L 27.59375 0 
Q 17.1875 0 13.234375 3.875 
Q 9.28125 7.765625 9.28125 18.015625 
L 9.28125 47.703125 
L 2.6875 47.703125 
L 2.6875 54.6875 
L 9.28125 54.6875 
L 9.28125 70.21875 
z
" id="DejaVuSans-116"/>
       <path d="M 9.421875 54.6875 
L 18.40625 54.6875 
L 18.40625 0 
L 9.421875 0 
z
M 9.421875 75.984375 
L 18.40625 75.984375 
L 18.40625 64.59375 
L 9.421875 64.59375 
z
" id="DejaVuSans-105"/>
       <path d="M 2.984375 54.6875 
L 12.5 54.6875 
L 29.59375 8.796875 
L 46.6875 54.6875 
L 56.203125 54.6875 
L 35.6875 0 
L 23.484375 0 
z
" id="DejaVuSans-118"/>
       <path d="M 56.203125 29.59375 
L 56.203125 25.203125 
L 14.890625 25.203125 
Q 15.484375 15.921875 20.484375 11.0625 
Q 25.484375 6.203125 34.421875 6.203125 
Q 39.59375 6.203125 44.453125 7.46875 
Q 49.3125 8.734375 54.109375 11.28125 
L 54.109375 2.78125 
Q 49.265625 0.734375 44.1875 -0.34375 
Q 39.109375 -1.421875 33.890625 -1.421875 
Q 20.796875 -1.421875 13.15625 6.1875 
Q 5.515625 13.8125 5.515625 26.8125 
Q 5.515625 40.234375 12.765625 48.109375 
Q 20.015625 56 32.328125 56 
Q 43.359375 56 49.78125 48.890625 
Q 56.203125 41.796875 56.203125 29.59375 
z
M 47.21875 32.234375 
Q 47.125 39.59375 43.09375 43.984375 
Q 39.0625 48.390625 32.421875 48.390625 
Q 24.90625 48.390625 20.390625 44.140625 
Q 15.875 39.890625 15.1875 32.171875 
z
" id="DejaVuSans-101"/>
       <path id="DejaVuSans-32"/>
       <path d="M 48.78125 52.59375 
L 48.78125 44.1875 
Q 44.96875 46.296875 41.140625 47.34375 
Q 37.3125 48.390625 33.40625 48.390625 
Q 24.65625 48.390625 19.8125 42.84375 
Q 14.984375 37.3125 14.984375 27.296875 
Q 14.984375 17.28125 19.8125 11.734375 
Q 24.65625 6.203125 33.40625 6.203125 
Q 37.3125 6.203125 41.140625 7.25 
Q 44.96875 8.296875 48.78125 10.40625 
L 48.78125 2.09375 
Q 45.015625 0.34375 40.984375 -0.53125 
Q 36.96875 -1.421875 32.421875 -1.421875 
Q 20.0625 -1.421875 12.78125 6.34375 
Q 5.515625 14.109375 5.515625 27.296875 
Q 5.515625 40.671875 12.859375 48.328125 
Q 20.21875 56 33.015625 56 
Q 37.15625 56 41.109375 55.140625 
Q 45.0625 54.296875 48.78125 52.59375 
z
" id="DejaVuSans-99"/>
      </defs>
      <use xlink:href="#DejaVuSans-67"/>
      <use x="69.824219" xlink:href="#DejaVuSans-117"/>
      <use x="133.203125" xlink:href="#DejaVuSans-109"/>
      <use x="230.615234" xlink:href="#DejaVuSans-117"/>
      <use x="293.994141" xlink:href="#DejaVuSans-108"/>
      <use x="321.777344" xlink:href="#DejaVuSans-97"/>
      <use x="383.056641" xlink:href="#DejaVuSans-116"/>
      <use x="422.265625" xlink:href="#DejaVuSans-105"/>
      <use x="450.048828" xlink:href="#DejaVuSans-118"/>
      <use x="509.228516" xlink:href="#DejaVuSans-101"/>
      <use x="570.751953" xlink:href="#DejaVuSans-32"/>
      <use x="602.539062" xlink:href="#DejaVuSans-99"/>
      <use x="657.519531" xlink:href="#DejaVuSans-97"/>
      <use x="718.798828" xlink:href="#DejaVuSans-115"/>
      <use x="770.898438" xlink:href="#DejaVuSans-101"/>
      <use x="832.421875" xlink:href="#DejaVuSans-115"/>
     </g>
    </g>
   </g>
   <g id="line2d_35">
    <path clip-path="url(#p64597695c5)" d="M 115.363636 605.290909 
L 141.887701 605.018543 
L 158.465241 604.674544 
L 171.727273 604.222868 
L 181.673797 603.725195 
L 191.620321 603.031557 
L 201.566845 602.065759 
L 208.197861 601.220345 
L 214.828877 600.167975 
L 221.459893 598.859296 
L 228.090909 597.233902 
L 234.721925 595.218262 
L 238.037433 594.036976 
L 241.352941 592.723457 
L 244.668449 591.263806 
L 247.983957 589.642884 
L 251.299465 587.84425 
L 254.614973 585.850114 
L 257.930481 583.641306 
L 261.245989 581.197267 
L 264.561497 578.496062 
L 267.877005 575.514437 
L 271.192513 572.227908 
L 274.508021 568.61091 
L 277.823529 564.637002 
L 281.139037 560.279146 
L 284.454545 555.51006 
L 287.770053 550.302668 
L 291.085561 544.630638 
L 294.40107 538.469019 
L 297.716578 531.794972 
L 301.032086 524.588599 
L 304.347594 516.833833 
L 307.663102 508.519397 
L 310.97861 499.639767 
L 314.294118 490.196128 
L 317.609626 480.197254 
L 320.925134 469.66026 
L 324.240642 458.611174 
L 327.55615 447.085256 
L 334.187166 422.789945 
L 340.818182 397.233392 
L 360.71123 318.983404 
L 367.342246 294.453423 
L 370.657754 282.784716 
L 373.973262 271.579676 
L 377.28877 260.87652 
L 380.604278 250.704191 
L 383.919786 241.082589 
L 387.235294 232.023067 
L 390.550802 223.529132 
L 393.86631 215.597297 
L 397.181818 208.218006 
L 400.497326 201.376613 
L 403.812834 195.054338 
L 407.128342 189.229184 
L 410.44385 183.876789 
L 413.759358 178.971185 
L 417.074866 174.48547 
L 420.390374 170.392375 
L 423.705882 166.664742 
L 427.02139 163.275906 
L 430.336898 160.199997 
L 433.652406 157.41217 
L 436.967914 154.888766 
L 440.283422 152.607424 
L 443.59893 150.547143 
L 446.914439 148.688312 
L 450.229947 147.012704 
L 453.545455 145.503454 
L 456.860963 144.145013 
L 460.176471 142.923097 
L 466.807487 140.837618 
L 473.438503 139.155441 
L 480.069519 137.800739 
L 486.700535 136.711165 
L 493.331551 135.835736 
L 499.962567 135.13295 
L 509.909091 134.330615 
L 519.855615 133.754723 
L 533.117647 133.231891 
L 549.695187 132.833594 
L 572.903743 132.544023 
L 606.058824 132.379308 
L 622.636364 132.344951 
L 622.636364 132.344951 
" style="fill:none;stroke:#1f77b4;stroke-linecap:square;stroke-width:1.5;"/>
   </g>
   <g id="line2d_36">
    <path clip-path="url(#p64597695c5)" d="M 115.363636 605.290909 
L 125.31016 603.432917 
L 135.256684 601.264579 
L 141.887701 599.622988 
L 148.518717 597.806263 
L 155.149733 595.79727 
L 161.780749 593.577558 
L 168.411765 591.127336 
L 175.042781 588.425481 
L 181.673797 585.449568 
L 188.304813 582.17594 
L 194.935829 578.579818 
L 201.566845 574.635462 
L 208.197861 570.316391 
L 214.828877 565.595675 
L 221.459893 560.446297 
L 228.090909 554.841601 
L 234.721925 548.755826 
L 241.352941 542.164731 
L 247.983957 535.046301 
L 254.614973 527.381539 
L 261.245989 519.155319 
L 267.877005 510.357276 
L 274.508021 500.982725 
L 281.139037 491.033535 
L 287.770053 480.518953 
L 294.40107 469.456293 
L 301.032086 457.871468 
L 307.663102 445.799281 
L 314.294118 433.283457 
L 320.925134 420.376364 
L 330.871658 400.416195 
L 344.13369 373.052901 
L 367.342246 324.861025 
L 377.28877 304.782246 
L 383.919786 291.771884 
L 390.550802 279.135937 
L 397.181818 266.929196 
L 403.812834 255.197956 
L 410.44385 243.979638 
L 417.074866 233.302732 
L 423.705882 223.18702 
L 430.336898 213.644042 
L 436.967914 204.677742 
L 443.59893 196.28526 
L 450.229947 188.4578 
L 456.860963 181.18153 
L 463.491979 174.438496 
L 470.122995 168.207479 
L 476.754011 162.464812 
L 483.385027 157.18511 
L 490.016043 152.341918 
L 496.647059 147.908275 
L 503.278075 143.857185 
L 509.909091 140.162002 
L 516.540107 136.796745 
L 523.171123 133.736333 
L 529.802139 130.956769 
L 536.433155 128.435258 
L 543.064171 126.150293 
L 549.695187 124.081692 
L 556.326203 122.210613 
L 562.957219 120.51954 
L 569.588235 118.992254 
L 579.534759 116.976011 
L 589.481283 115.249352 
L 599.427807 113.772317 
L 609.374332 112.510008 
L 619.320856 111.43208 
L 622.636364 111.109091 
L 622.636364 111.109091 
" style="fill:none;stroke:#ff7f0e;stroke-linecap:square;stroke-width:1.5;"/>
   </g>
   <g id="line2d_37">
    <path clip-path="url(#p64597695c5)" d="M 115.363636 605.290909 
L 131.941176 604.776998 
L 145.203209 604.154678 
L 155.149733 603.510965 
L 165.096257 602.662028 
L 175.042781 601.543755 
L 181.673797 600.608461 
L 188.304813 599.48664 
L 194.935829 598.142471 
L 201.566845 596.533859 
L 208.197861 594.611604 
L 214.828877 592.318571 
L 221.459893 589.588946 
L 224.775401 588.037321 
L 228.090909 586.347649 
L 231.406417 584.509052 
L 234.721925 582.510062 
L 238.037433 580.338646 
L 241.352941 577.982233 
L 244.668449 575.427771 
L 247.983957 572.661786 
L 251.299465 569.670474 
L 254.614973 566.439803 
L 257.930481 562.955648 
L 261.245989 559.203948 
L 264.561497 555.170888 
L 267.877005 550.843111 
L 271.192513 546.207958 
L 274.508021 541.253729 
L 277.823529 535.969974 
L 281.139037 530.347798 
L 284.454545 524.380179 
L 287.770053 518.062297 
L 291.085561 511.39185 
L 294.40107 504.369367 
L 297.716578 496.998484 
L 301.032086 489.286189 
L 304.347594 481.243005 
L 310.97861 464.224412 
L 317.609626 446.100309 
L 324.240642 427.08405 
L 334.187166 397.46592 
L 350.764706 347.690298 
L 357.395722 328.503249 
L 364.026738 310.115947 
L 370.657754 292.725151 
L 373.973262 284.45069 
L 377.28877 276.475452 
L 380.604278 268.80939 
L 383.919786 261.459438 
L 387.235294 254.429713 
L 390.550802 247.721736 
L 393.86631 241.334681 
L 397.181818 235.265634 
L 400.497326 229.509848 
L 403.812834 224.061006 
L 407.128342 218.911461 
L 410.44385 214.052477 
L 413.759358 209.474439 
L 417.074866 205.167059 
L 420.390374 201.119555 
L 423.705882 197.320813 
L 427.02139 193.759525 
L 430.336898 190.424318 
L 433.652406 187.303857 
L 436.967914 184.386936 
L 440.283422 181.662551 
L 443.59893 179.11996 
L 446.914439 176.748736 
L 450.229947 174.538799 
L 453.545455 172.480451 
L 456.860963 170.564389 
L 463.491979 167.123974 
L 470.122995 164.151447 
L 476.754011 161.587344 
L 483.385027 159.378624 
L 490.016043 157.478296 
L 496.647059 155.844969 
L 503.278075 154.442352 
L 509.909091 153.238755 
L 516.540107 152.206598 
L 526.486631 150.92834 
L 536.433155 149.915059 
L 546.379679 149.112472 
L 559.641711 148.296378 
L 572.903743 147.69931 
L 589.481283 147.173385 
L 609.374332 146.762236 
L 622.636364 146.578081 
L 622.636364 146.578081 
" style="fill:none;stroke:#2ca02c;stroke-linecap:square;stroke-width:1.5;"/>
   </g>
   <g id="line2d_38">
    <path clip-path="url(#p64597695c5)" d="M 115.363636 605.290909 
L 125.31016 604.598129 
L 131.941176 603.952948 
L 138.572193 603.141065 
L 145.203209 602.143293 
L 151.834225 600.938542 
L 158.465241 599.503714 
L 165.096257 597.813638 
L 171.727273 595.841026 
L 178.358289 593.55648 
L 184.989305 590.928558 
L 191.620321 587.923922 
L 198.251337 584.507568 
L 204.882353 580.643178 
L 211.513369 576.293607 
L 218.144385 571.421513 
L 221.459893 568.77799 
L 224.775401 565.990157 
L 228.090909 563.053675 
L 231.406417 559.964372 
L 234.721925 556.718287 
L 238.037433 553.311707 
L 241.352941 549.741213 
L 244.668449 546.003726 
L 247.983957 542.096553 
L 254.614973 533.764603 
L 261.245989 524.733374 
L 267.877005 515.000097 
L 274.508021 504.572588 
L 281.139037 493.470401 
L 287.770053 481.725627 
L 294.40107 469.38325 
L 301.032086 456.500973 
L 307.663102 443.148462 
L 317.609626 422.416051 
L 330.871658 393.942682 
L 350.764706 351.051421 
L 360.71123 330.219421 
L 367.342246 316.750345 
L 373.973262 303.696417 
L 380.604278 291.113976 
L 387.235294 279.048101 
L 393.86631 267.532754 
L 400.497326 256.591301 
L 407.128342 246.237318 
L 413.759358 236.475602 
L 420.390374 227.303289 
L 427.02139 218.71102 
L 433.652406 210.684094 
L 440.283422 203.20356 
L 446.914439 196.247222 
L 453.545455 189.790537 
L 460.176471 183.807404 
L 466.807487 178.270826 
L 473.438503 173.153476 
L 480.069519 168.428143 
L 486.700535 164.068101 
L 493.331551 160.047385 
L 499.962567 156.341 
L 506.593583 152.925074 
L 513.224599 149.776951 
L 519.855615 146.875259 
L 526.486631 144.199926 
L 533.117647 141.732188 
L 539.748663 139.454564 
L 546.379679 137.350823 
L 556.326203 134.488685 
L 566.272727 131.938304 
L 576.219251 129.659104 
L 586.165775 127.615388 
L 596.112299 125.775866 
L 609.374332 123.594042 
L 622.636364 121.671689 
L 622.636364 121.671689 
" style="fill:none;stroke:#d62728;stroke-linecap:square;stroke-width:1.5;"/>
   </g>
   <g id="line2d_39">
    <path clip-path="url(#p64597695c5)" d="M 115.363636 605.290909 
L 131.941176 605.160574 
L 148.518717 604.842282 
L 161.780749 604.401573 
L 171.727273 603.899337 
L 181.673797 603.179095 
L 188.304813 602.53344 
L 194.935829 601.714216 
L 201.566845 600.676167 
L 208.197861 599.363085 
L 214.828877 597.705672 
L 218.144385 596.72205 
L 221.459893 595.619286 
L 224.775401 594.384045 
L 228.090909 593.001788 
L 231.406417 591.45673 
L 234.721925 589.731824 
L 238.037433 587.808776 
L 241.352941 585.668086 
L 244.668449 583.289134 
L 247.983957 580.650318 
L 251.299465 577.729251 
L 254.614973 574.503025 
L 257.930481 570.948549 
L 261.245989 567.042967 
L 264.561497 562.764165 
L 267.877005 558.091343 
L 271.192513 553.005674 
L 274.508021 547.491001 
L 277.823529 541.534581 
L 281.139037 535.127819 
L 284.454545 528.266971 
L 287.770053 520.953767 
L 291.085561 513.19591 
L 294.40107 505.007408 
L 297.716578 496.408706 
L 301.032086 487.426591 
L 307.663102 468.448698 
L 314.294118 448.396314 
L 324.240642 417.143059 
L 337.502674 375.364099 
L 344.13369 355.225469 
L 350.764706 335.95326 
L 357.395722 317.736144 
L 364.026738 300.697172 
L 367.342246 292.642028 
L 370.657754 284.902225 
L 373.973262 277.478799 
L 377.28877 270.370553 
L 380.604278 263.574377 
L 383.919786 257.085542 
L 387.235294 250.897977 
L 390.550802 245.004518 
L 393.86631 239.397125 
L 397.181818 234.067083 
L 400.497326 229.005167 
L 403.812834 224.201801 
L 407.128342 219.647176 
L 410.44385 215.331367 
L 413.759358 211.24442 
L 417.074866 207.376433 
L 420.390374 203.71762 
L 423.705882 200.258358 
L 427.02139 196.989236 
L 430.336898 193.901085 
L 433.652406 190.985003 
L 436.967914 188.232374 
L 440.283422 185.634885 
L 443.59893 183.184532 
L 450.229947 178.694795 
L 456.860963 174.705446 
L 463.491979 171.163761 
L 470.122995 168.021833 
L 476.754011 165.236324 
L 483.385027 162.76817 
L 490.016043 160.582267 
L 496.647059 158.647146 
L 503.278075 156.93466 
L 509.909091 155.419675 
L 516.540107 154.079784 
L 526.486631 152.355222 
L 536.433155 150.921995 
L 546.379679 149.731341 
L 556.326203 148.742513 
L 569.588235 147.680096 
L 582.850267 146.851322 
L 599.427807 146.067014 
L 619.320856 145.397441 
L 622.636364 145.308205 
L 622.636364 145.308205 
" style="fill:none;stroke:#9467bd;stroke-linecap:square;stroke-width:1.5;"/>
   </g>
   <g id="line2d_40">
    <path clip-path="url(#p64597695c5)" d="M 115.363636 605.290909 
L 121.994652 605.198913 
L 128.625668 604.932279 
L 135.256684 604.491373 
L 141.887701 603.865161 
L 148.518717 603.035926 
L 155.149733 601.981465 
L 161.780749 600.676109 
L 168.411765 599.09118 
L 175.042781 597.195237 
L 181.673797 594.954233 
L 188.304813 592.331717 
L 194.935829 589.289108 
L 201.566845 585.786092 
L 204.882353 583.848993 
L 208.197861 581.781181 
L 211.513369 579.577406 
L 214.828877 577.232451 
L 218.144385 574.74116 
L 221.459893 572.098484 
L 224.775401 569.299512 
L 228.090909 566.339523 
L 231.406417 563.21403 
L 234.721925 559.918829 
L 238.037433 556.450054 
L 241.352941 552.804227 
L 244.668449 548.978315 
L 247.983957 544.969786 
L 251.299465 540.776661 
L 254.614973 536.397572 
L 261.245989 527.079371 
L 267.877005 517.018272 
L 274.508021 506.22998 
L 281.139037 494.743727 
L 287.770053 482.602661 
L 294.40107 469.86363 
L 301.032086 456.596314 
L 307.663102 442.881708 
L 317.609626 421.670409 
L 330.871658 392.713505 
L 347.449198 356.561876 
L 357.395722 335.456109 
L 364.026738 321.797541 
L 370.657754 308.545684 
L 377.28877 295.754637 
L 383.919786 283.467701 
L 390.550802 271.71769 
L 397.181818 260.527547 
L 403.812834 249.911166 
L 410.44385 239.874354 
L 417.074866 230.415859 
L 423.705882 221.52842 
L 430.336898 213.19978 
L 436.967914 205.413653 
L 443.59893 198.1506 
L 450.229947 191.388824 
L 456.860963 185.104864 
L 463.491979 179.274192 
L 470.122995 173.871723 
L 476.754011 168.872239 
L 483.385027 164.25073 
L 490.016043 159.982668 
L 496.647059 156.044227 
L 503.278075 152.412437 
L 509.909091 149.065308 
L 516.540107 145.981906 
L 523.171123 143.1424 
L 529.802139 140.528092 
L 536.433155 138.121412 
L 543.064171 135.905912 
L 549.695187 133.866237 
L 559.641711 131.105399 
L 569.588235 128.664229 
L 579.534759 126.503508 
L 589.481283 124.588421 
L 599.427807 122.88817 
L 609.374332 121.375588 
L 622.636364 119.60985 
L 622.636364 119.60985 
" style="fill:none;stroke:#8c564b;stroke-linecap:square;stroke-width:1.5;"/>
   </g>
   <g id="line2d_41">
    <path clip-path="url(#p64597695c5)" d="M 115.363636 605.290909 
L 135.256684 605.149905 
L 151.834225 604.849642 
L 165.096257 604.424743 
L 175.042781 603.931581 
L 184.989305 603.213046 
L 191.620321 602.560634 
L 198.251337 601.724283 
L 204.882353 600.653798 
L 211.513369 599.286337 
L 218.144385 597.543896 
L 221.459893 596.502893 
L 224.775401 595.330709 
L 228.090909 594.012202 
L 231.406417 592.53086 
L 234.721925 590.868771 
L 238.037433 589.006628 
L 241.352941 586.923775 
L 244.668449 584.598298 
L 247.983957 582.00718 
L 251.299465 579.126515 
L 254.614973 575.931814 
L 257.930481 572.398391 
L 261.245989 568.501843 
L 264.561497 564.218626 
L 267.877005 559.526717 
L 271.192513 554.406357 
L 274.508021 548.84084 
L 277.823529 542.817339 
L 281.139037 536.327706 
L 284.454545 529.369218 
L 287.770053 521.94521 
L 291.085561 514.065545 
L 294.40107 505.746882 
L 297.716578 497.012699 
L 301.032086 487.893058 
L 307.663102 468.647329 
L 314.294118 448.357168 
L 324.240642 416.842595 
L 334.187166 385.253058 
L 340.818182 364.757804 
L 347.449198 345.051445 
L 354.080214 326.344678 
L 360.71123 308.780449 
L 364.026738 300.454782 
L 367.342246 292.441727 
L 370.657754 284.743984 
L 373.973262 277.361833 
L 377.28877 270.293464 
L 380.604278 263.53528 
L 383.919786 257.082189 
L 387.235294 250.927855 
L 390.550802 245.064938 
L 393.86631 239.485297 
L 397.181818 234.180178 
L 400.497326 229.140371 
L 403.812834 224.356352 
L 407.128342 219.818399 
L 410.44385 215.516696 
L 413.759358 211.441419 
L 417.074866 207.582805 
L 420.390374 203.931217 
L 423.705882 200.477184 
L 427.02139 197.211449 
L 430.336898 194.124993 
L 433.652406 191.209064 
L 436.967914 188.455191 
L 440.283422 185.855197 
L 443.59893 183.401212 
L 450.229947 178.901314 
L 456.860963 174.898688 
L 463.491979 171.341396 
L 470.122995 168.182204 
L 476.754011 165.378339 
L 483.385027 162.891205 
L 490.016043 160.68608 
L 496.647059 158.731802 
L 503.278075 157.000465 
L 509.909091 155.467124 
L 516.540107 154.109514 
L 526.486631 152.359779 
L 536.433155 150.903247 
L 546.379679 149.691253 
L 556.326203 148.683059 
L 569.588235 147.597797 
L 582.850267 146.749366 
L 599.427807 145.944522 
L 619.320856 145.255401 
L 622.636364 145.163377 
L 622.636364 145.163377 
" style="fill:none;stroke:#e377c2;stroke-linecap:square;stroke-width:1.5;"/>
   </g>
   <g id="line2d_42">
    <path clip-path="url(#p64597695c5)" d="M 115.363636 605.290909 
L 121.994652 605.205749 
L 128.625668 604.957353 
L 135.256684 604.542896 
L 141.887701 603.948865 
L 148.518717 603.15569 
L 155.149733 602.13966 
L 161.780749 600.873696 
L 168.411765 599.327627 
L 175.042781 597.468302 
L 181.673797 595.259671 
L 188.304813 592.662914 
L 194.935829 589.636689 
L 201.566845 586.137508 
L 204.882353 584.19652 
L 208.197861 582.120313 
L 211.513369 579.903135 
L 214.828877 577.53925 
L 218.144385 575.02297 
L 221.459893 572.3487 
L 224.775401 569.510982 
L 228.090909 566.504549 
L 231.406417 563.324374 
L 234.721925 559.965728 
L 238.037433 556.424245 
L 241.352941 552.695978 
L 244.668449 548.777465 
L 247.983957 544.6658 
L 251.299465 540.358688 
L 254.614973 535.854517 
L 257.930481 531.152419 
L 264.561497 521.155019 
L 271.192513 510.376466 
L 277.823529 498.841743 
L 284.454545 486.591659 
L 291.085561 473.682996 
L 297.716578 460.187871 
L 304.347594 446.192301 
L 314.294118 424.476888 
L 327.55615 394.74879 
L 344.13369 357.614922 
L 354.080214 335.986089 
L 360.71123 322.029421 
L 367.342246 308.52994 
L 373.973262 295.548039 
L 380.604278 283.131208 
L 387.235294 271.3144 
L 393.86631 260.120785 
L 400.497326 249.562791 
L 407.128342 239.643323 
L 413.759358 230.357069 
L 420.390374 221.691837 
L 427.02139 213.629836 
L 433.652406 206.148881 
L 440.283422 199.223495 
L 446.914439 192.825873 
L 453.545455 186.926731 
L 460.176471 181.496011 
L 466.807487 176.503476 
L 473.438503 171.919188 
L 480.069519 167.713883 
L 486.700535 163.85926 
L 493.331551 160.328196 
L 499.962567 157.094892 
L 506.593583 154.13497 
L 513.224599 151.425524 
L 519.855615 148.945134 
L 526.486631 146.673862 
L 533.117647 144.593212 
L 539.748663 142.686086 
L 549.695187 140.116633 
L 559.641711 137.854554 
L 569.588235 135.857841 
L 579.534759 134.089806 
L 589.481283 132.518531 
L 602.743316 130.682264 
L 616.005348 129.091506 
L 622.636364 128.373614 
L 622.636364 128.373614 
" style="fill:none;stroke:#7f7f7f;stroke-linecap:square;stroke-width:1.5;"/>
   </g>
   <g id="line2d_43">
    <path clip-path="url(#p64597695c5)" d="M 115.363636 605.290909 
L 125.31016 605.173662 
L 135.256684 604.81398 
L 145.203209 604.173422 
L 151.834225 603.55884 
L 158.465241 602.765269 
L 165.096257 601.762607 
L 171.727273 600.515852 
L 178.358289 598.984843 
L 184.989305 597.124046 
L 191.620321 594.882474 
L 198.251337 592.203814 
L 201.566845 590.681627 
L 204.882353 589.026888 
L 208.197861 587.231337 
L 211.513369 585.286548 
L 214.828877 583.183993 
L 218.144385 580.915108 
L 221.459893 578.471375 
L 224.775401 575.844414 
L 228.090909 573.026083 
L 231.406417 570.008593 
L 234.721925 566.784624 
L 238.037433 563.347458 
L 241.352941 559.691108 
L 244.668449 555.810451 
L 247.983957 551.701367 
L 251.299465 547.360865 
L 254.614973 542.787203 
L 257.930481 537.979997 
L 261.245989 532.940312 
L 264.561497 527.670735 
L 267.877005 522.17542 
L 274.508021 510.53213 
L 281.139037 498.075094 
L 287.770053 484.892347 
L 294.40107 471.091858 
L 301.032086 456.796647 
L 310.97861 434.71665 
L 337.502674 375.215165 
L 347.449198 353.754189 
L 354.080214 339.936723 
L 360.71123 326.578231 
L 367.342246 313.720591 
L 373.973262 301.393289 
L 380.604278 289.614981 
L 387.235294 278.395095 
L 393.86631 267.73537 
L 400.497326 257.631271 
L 407.128342 248.073263 
L 413.759358 239.047921 
L 420.390374 230.538877 
L 427.02139 222.527616 
L 433.652406 214.994143 
L 440.283422 207.917522 
L 446.914439 201.276317 
L 453.545455 195.048938 
L 460.176471 189.21392 
L 466.807487 183.750137 
L 473.438503 178.636962 
L 480.069519 173.854392 
L 486.700535 169.38313 
L 493.331551 165.20465 
L 499.962567 161.301231 
L 506.593583 157.655979 
L 513.224599 154.252832 
L 519.855615 151.076557 
L 526.486631 148.112735 
L 533.117647 145.347745 
L 539.748663 142.76874 
L 546.379679 140.363615 
L 556.326203 137.057236 
L 566.272727 134.081059 
L 576.219251 131.402745 
L 586.165775 128.992939 
L 596.112299 126.825043 
L 606.058824 124.87498 
L 616.005348 123.120984 
L 622.636364 122.05079 
L 622.636364 122.05079 
" style="fill:none;stroke:#bcbd22;stroke-linecap:square;stroke-width:1.5;"/>
   </g>
   <g id="line2d_44">
    <path clip-path="url(#p64597695c5)" d="M 115.363636 605.290909 
L 125.31016 605.227809 
L 135.256684 604.996444 
L 145.203209 604.912311 
L 165.096257 604.821167 
L 168.411765 604.414525 
L 175.042781 604.337403 
L 178.358289 603.348842 
L 181.673797 603.019321 
L 184.989305 602.395336 
L 191.620321 600.572457 
L 194.935829 599.443674 
L 198.251337 598.006404 
L 201.566845 595.061753 
L 204.882353 591.591271 
L 208.197861 589.873558 
L 218.144385 582.476876 
L 221.459893 579.342926 
L 224.775401 576.005655 
L 228.090909 571.974287 
L 234.721925 564.766904 
L 241.352941 558.34476 
L 244.668449 554.432581 
L 251.299465 543.972059 
L 254.614973 538.244012 
L 257.930481 532.123345 
L 261.245989 526.332198 
L 264.561497 519.889021 
L 267.877005 513.067247 
L 271.192513 507.135879 
L 281.139037 488.360223 
L 284.454545 482.863542 
L 287.770053 476.827007 
L 294.40107 464.080875 
L 307.663102 437.873482 
L 317.609626 417.779745 
L 330.871658 391.137666 
L 357.395722 338.645757 
L 373.973262 307.116959 
L 383.919786 289.168611 
L 390.550802 276.88521 
L 397.181818 264.531698 
L 403.812834 253.068593 
L 407.128342 247.452723 
L 410.44385 242.194418 
L 417.074866 232.203638 
L 423.705882 222.114703 
L 430.336898 212.635731 
L 433.652406 208.25381 
L 436.967914 203.514325 
L 440.283422 199.286647 
L 443.59893 195.297346 
L 446.914439 191.66561 
L 453.545455 185.2014 
L 456.860963 182.137561 
L 460.176471 179.816896 
L 466.807487 174.474458 
L 476.754011 167.820949 
L 480.069519 165.899915 
L 483.385027 163.803604 
L 493.331551 158.145667 
L 496.647059 156.750464 
L 499.962567 155.201016 
L 506.593583 152.536808 
L 513.224599 150.237176 
L 516.540107 148.961161 
L 519.855615 147.874444 
L 533.117647 143.07887 
L 536.433155 142.083298 
L 539.748663 141.255991 
L 543.064171 140.309496 
L 549.695187 137.925731 
L 556.326203 135.724254 
L 562.957219 133.978496 
L 566.272727 133.172223 
L 576.219251 130.073328 
L 579.534759 129.1058 
L 582.850267 128.25746 
L 592.796791 126.091039 
L 599.427807 124.422403 
L 606.058824 122.76779 
L 609.374332 122.087716 
L 612.68984 121.681073 
L 622.636364 119.556718 
L 622.636364 119.556718 
" style="fill:none;stroke:#17becf;stroke-dasharray:14.8,6.4;stroke-dashoffset:0;stroke-width:4;"/>
   </g>
   <g id="patch_3">
    <path d="M 90 630 
L 90 86.4 
" style="fill:none;stroke:#000000;stroke-linecap:square;stroke-linejoin:miter;stroke-width:0.8;"/>
   </g>
   <g id="patch_4">
    <path d="M 648 630 
L 648 86.4 
" style="fill:none;stroke:#000000;stroke-linecap:square;stroke-linejoin:miter;stroke-width:0.8;"/>
   </g>
   <g id="patch_5">
    <path d="M 90 630 
L 648 630 
" style="fill:none;stroke:#000000;stroke-linecap:square;stroke-linejoin:miter;stroke-width:0.8;"/>
   </g>
   <g id="patch_6">
    <path d="M 90 86.4 
L 648 86.4 
" style="fill:none;stroke:#000000;stroke-linecap:square;stroke-linejoin:miter;stroke-width:0.8;"/>
   </g>
   <g id="text_20">
    <!-- Belarus relative err =  -->
    <g transform="translate(302.648438 80.4)scale(0.12 -0.12)">
     <defs>
      <path d="M 19.671875 34.8125 
L 19.671875 8.109375 
L 35.5 8.109375 
Q 43.453125 8.109375 47.28125 11.40625 
Q 51.125 14.703125 51.125 21.484375 
Q 51.125 28.328125 47.28125 31.5625 
Q 43.453125 34.8125 35.5 34.8125 
z
M 19.671875 64.796875 
L 19.671875 42.828125 
L 34.28125 42.828125 
Q 41.5 42.828125 45.03125 45.53125 
Q 48.578125 48.25 48.578125 53.8125 
Q 48.578125 59.328125 45.03125 62.0625 
Q 41.5 64.796875 34.28125 64.796875 
z
M 9.8125 72.90625 
L 35.015625 72.90625 
Q 46.296875 72.90625 52.390625 68.21875 
Q 58.5 63.53125 58.5 54.890625 
Q 58.5 48.1875 55.375 44.234375 
Q 52.25 40.28125 46.1875 39.3125 
Q 53.46875 37.75 57.5 32.78125 
Q 61.53125 27.828125 61.53125 20.40625 
Q 61.53125 10.640625 54.890625 5.3125 
Q 48.25 0 35.984375 0 
L 9.8125 0 
z
" id="DejaVuSans-66"/>
      <path d="M 41.109375 46.296875 
Q 39.59375 47.171875 37.8125 47.578125 
Q 36.03125 48 33.890625 48 
Q 26.265625 48 22.1875 43.046875 
Q 18.109375 38.09375 18.109375 28.8125 
L 18.109375 0 
L 9.078125 0 
L 9.078125 54.6875 
L 18.109375 54.6875 
L 18.109375 46.1875 
Q 20.953125 51.171875 25.484375 53.578125 
Q 30.03125 56 36.53125 56 
Q 37.453125 56 38.578125 55.875 
Q 39.703125 55.765625 41.0625 55.515625 
z
" id="DejaVuSans-114"/>
      <path d="M 10.59375 45.40625 
L 73.1875 45.40625 
L 73.1875 37.203125 
L 10.59375 37.203125 
z
M 10.59375 25.484375 
L 73.1875 25.484375 
L 73.1875 17.1875 
L 10.59375 17.1875 
z
" id="DejaVuSans-61"/>
     </defs>
     <use xlink:href="#DejaVuSans-66"/>
     <use x="68.603516" xlink:href="#DejaVuSans-101"/>
     <use x="130.126953" xlink:href="#DejaVuSans-108"/>
     <use x="157.910156" xlink:href="#DejaVuSans-97"/>
     <use x="219.189453" xlink:href="#DejaVuSans-114"/>
     <use x="260.302734" xlink:href="#DejaVuSans-117"/>
     <use x="323.681641" xlink:href="#DejaVuSans-115"/>
     <use x="375.78125" xlink:href="#DejaVuSans-32"/>
     <use x="407.568359" xlink:href="#DejaVuSans-114"/>
     <use x="446.431641" xlink:href="#DejaVuSans-101"/>
     <use x="507.955078" xlink:href="#DejaVuSans-108"/>
     <use x="535.738281" xlink:href="#DejaVuSans-97"/>
     <use x="597.017578" xlink:href="#DejaVuSans-116"/>
     <use x="636.226562" xlink:href="#DejaVuSans-105"/>
     <use x="664.009766" xlink:href="#DejaVuSans-118"/>
     <use x="723.189453" xlink:href="#DejaVuSans-101"/>
     <use x="784.712891" xlink:href="#DejaVuSans-32"/>
     <use x="816.5" xlink:href="#DejaVuSans-101"/>
     <use x="878.023438" xlink:href="#DejaVuSans-114"/>
     <use x="917.386719" xlink:href="#DejaVuSans-114"/>
     <use x="958.5" xlink:href="#DejaVuSans-32"/>
     <use x="990.287109" xlink:href="#DejaVuSans-61"/>
     <use x="1074.076172" xlink:href="#DejaVuSans-32"/>
    </g>
   </g>
   <g id="legend_1">
    <g id="patch_7">
     <path d="M 97 226.503125 
L 185.6 226.503125 
Q 187.6 226.503125 187.6 224.503125 
L 187.6 93.4 
Q 187.6 91.4 185.6 91.4 
L 97 91.4 
Q 95 91.4 95 93.4 
L 95 224.503125 
Q 95 226.503125 97 226.503125 
z
" style="fill:#ffffff;opacity:0.8;stroke:#cccccc;stroke-linejoin:miter;"/>
    </g>
    <g id="line2d_45">
     <path d="M 99 99.498438 
L 119 99.498438 
" style="fill:none;stroke:#1f77b4;stroke-linecap:square;stroke-width:1.5;"/>
    </g>
    <g id="line2d_46"/>
    <g id="text_21">
     <!-- SI -->
     <g transform="translate(127 102.998438)scale(0.1 -0.1)">
      <defs>
       <path d="M 53.515625 70.515625 
L 53.515625 60.890625 
Q 47.90625 63.578125 42.921875 64.890625 
Q 37.9375 66.21875 33.296875 66.21875 
Q 25.25 66.21875 20.875 63.09375 
Q 16.5 59.96875 16.5 54.203125 
Q 16.5 49.359375 19.40625 46.890625 
Q 22.3125 44.4375 30.421875 42.921875 
L 36.375 41.703125 
Q 47.40625 39.59375 52.65625 34.296875 
Q 57.90625 29 57.90625 20.125 
Q 57.90625 9.515625 50.796875 4.046875 
Q 43.703125 -1.421875 29.984375 -1.421875 
Q 24.8125 -1.421875 18.96875 -0.25 
Q 13.140625 0.921875 6.890625 3.21875 
L 6.890625 13.375 
Q 12.890625 10.015625 18.65625 8.296875 
Q 24.421875 6.59375 29.984375 6.59375 
Q 38.421875 6.59375 43.015625 9.90625 
Q 47.609375 13.234375 47.609375 19.390625 
Q 47.609375 24.75 44.3125 27.78125 
Q 41.015625 30.8125 33.5 32.328125 
L 27.484375 33.5 
Q 16.453125 35.6875 11.515625 40.375 
Q 6.59375 45.0625 6.59375 53.421875 
Q 6.59375 63.09375 13.40625 68.65625 
Q 20.21875 74.21875 32.171875 74.21875 
Q 37.3125 74.21875 42.625 73.28125 
Q 47.953125 72.359375 53.515625 70.515625 
z
" id="DejaVuSans-83"/>
       <path d="M 9.8125 72.90625 
L 19.671875 72.90625 
L 19.671875 0 
L 9.8125 0 
z
" id="DejaVuSans-73"/>
      </defs>
      <use xlink:href="#DejaVuSans-83"/>
      <use x="63.476562" xlink:href="#DejaVuSans-73"/>
     </g>
    </g>
    <g id="line2d_47">
     <path d="M 99 114.176563 
L 119 114.176563 
" style="fill:none;stroke:#ff7f0e;stroke-linecap:square;stroke-width:1.5;"/>
    </g>
    <g id="line2d_48"/>
    <g id="text_22">
     <!-- BD -->
     <g transform="translate(127 117.676563)scale(0.1 -0.1)">
      <use xlink:href="#DejaVuSans-66"/>
      <use x="68.603516" xlink:href="#DejaVuSans-68"/>
     </g>
    </g>
    <g id="line2d_49">
     <path d="M 99 128.854688 
L 119 128.854688 
" style="fill:none;stroke:#2ca02c;stroke-linecap:square;stroke-width:1.5;"/>
    </g>
    <g id="line2d_50"/>
    <g id="text_23">
     <!-- SIR -->
     <g transform="translate(127 132.354688)scale(0.1 -0.1)">
      <defs>
       <path d="M 44.390625 34.1875 
Q 47.5625 33.109375 50.5625 29.59375 
Q 53.5625 26.078125 56.59375 19.921875 
L 66.609375 0 
L 56 0 
L 46.6875 18.703125 
Q 43.0625 26.03125 39.671875 28.421875 
Q 36.28125 30.8125 30.421875 30.8125 
L 19.671875 30.8125 
L 19.671875 0 
L 9.8125 0 
L 9.8125 72.90625 
L 32.078125 72.90625 
Q 44.578125 72.90625 50.734375 67.671875 
Q 56.890625 62.453125 56.890625 51.90625 
Q 56.890625 45.015625 53.6875 40.46875 
Q 50.484375 35.9375 44.390625 34.1875 
z
M 19.671875 64.796875 
L 19.671875 38.921875 
L 32.078125 38.921875 
Q 39.203125 38.921875 42.84375 42.21875 
Q 46.484375 45.515625 46.484375 51.90625 
Q 46.484375 58.296875 42.84375 61.546875 
Q 39.203125 64.796875 32.078125 64.796875 
z
" id="DejaVuSans-82"/>
      </defs>
      <use xlink:href="#DejaVuSans-83"/>
      <use x="63.476562" xlink:href="#DejaVuSans-73"/>
      <use x="92.96875" xlink:href="#DejaVuSans-82"/>
     </g>
    </g>
    <g id="line2d_51">
     <path d="M 99 143.532812 
L 119 143.532812 
" style="fill:none;stroke:#d62728;stroke-linecap:square;stroke-width:1.5;"/>
    </g>
    <g id="line2d_52"/>
    <g id="text_24">
     <!-- eSIR -->
     <g transform="translate(127 147.032812)scale(0.1 -0.1)">
      <use xlink:href="#DejaVuSans-101"/>
      <use x="61.523438" xlink:href="#DejaVuSans-83"/>
      <use x="125" xlink:href="#DejaVuSans-73"/>
      <use x="154.492188" xlink:href="#DejaVuSans-82"/>
     </g>
    </g>
    <g id="line2d_53">
     <path d="M 99 158.210938 
L 119 158.210938 
" style="fill:none;stroke:#9467bd;stroke-linecap:square;stroke-width:1.5;"/>
    </g>
    <g id="line2d_54"/>
    <g id="text_25">
     <!-- SEIR -->
     <g transform="translate(127 161.710938)scale(0.1 -0.1)">
      <defs>
       <path d="M 9.8125 72.90625 
L 55.90625 72.90625 
L 55.90625 64.59375 
L 19.671875 64.59375 
L 19.671875 43.015625 
L 54.390625 43.015625 
L 54.390625 34.71875 
L 19.671875 34.71875 
L 19.671875 8.296875 
L 56.78125 8.296875 
L 56.78125 0 
L 9.8125 0 
z
" id="DejaVuSans-69"/>
      </defs>
      <use xlink:href="#DejaVuSans-83"/>
      <use x="63.476562" xlink:href="#DejaVuSans-69"/>
      <use x="126.660156" xlink:href="#DejaVuSans-73"/>
      <use x="156.152344" xlink:href="#DejaVuSans-82"/>
     </g>
    </g>
    <g id="line2d_55">
     <path d="M 99 172.889063 
L 119 172.889063 
" style="fill:none;stroke:#8c564b;stroke-linecap:square;stroke-width:1.5;"/>
    </g>
    <g id="line2d_56"/>
    <g id="text_26">
     <!-- eSEIR -->
     <g transform="translate(127 176.389063)scale(0.1 -0.1)">
      <use xlink:href="#DejaVuSans-101"/>
      <use x="61.523438" xlink:href="#DejaVuSans-83"/>
      <use x="125" xlink:href="#DejaVuSans-69"/>
      <use x="188.183594" xlink:href="#DejaVuSans-73"/>
      <use x="217.675781" xlink:href="#DejaVuSans-82"/>
     </g>
    </g>
    <g id="line2d_57">
     <path d="M 99 187.567188 
L 119 187.567188 
" style="fill:none;stroke:#e377c2;stroke-linecap:square;stroke-width:1.5;"/>
    </g>
    <g id="line2d_58"/>
    <g id="text_27">
     <!-- SEIUR -->
     <g transform="translate(127 191.067188)scale(0.1 -0.1)">
      <defs>
       <path d="M 8.6875 72.90625 
L 18.609375 72.90625 
L 18.609375 28.609375 
Q 18.609375 16.890625 22.84375 11.734375 
Q 27.09375 6.59375 36.625 6.59375 
Q 46.09375 6.59375 50.34375 11.734375 
Q 54.59375 16.890625 54.59375 28.609375 
L 54.59375 72.90625 
L 64.5 72.90625 
L 64.5 27.390625 
Q 64.5 13.140625 57.4375 5.859375 
Q 50.390625 -1.421875 36.625 -1.421875 
Q 22.796875 -1.421875 15.734375 5.859375 
Q 8.6875 13.140625 8.6875 27.390625 
z
" id="DejaVuSans-85"/>
      </defs>
      <use xlink:href="#DejaVuSans-83"/>
      <use x="63.476562" xlink:href="#DejaVuSans-69"/>
      <use x="126.660156" xlink:href="#DejaVuSans-73"/>
      <use x="156.152344" xlink:href="#DejaVuSans-85"/>
      <use x="229.345703" xlink:href="#DejaVuSans-82"/>
     </g>
    </g>
    <g id="line2d_59">
     <path d="M 99 202.245312 
L 119 202.245312 
" style="fill:none;stroke:#7f7f7f;stroke-linecap:square;stroke-width:1.5;"/>
    </g>
    <g id="line2d_60"/>
    <g id="text_28">
     <!-- eSEIUR -->
     <g transform="translate(127 205.745312)scale(0.1 -0.1)">
      <use xlink:href="#DejaVuSans-101"/>
      <use x="61.523438" xlink:href="#DejaVuSans-83"/>
      <use x="125" xlink:href="#DejaVuSans-69"/>
      <use x="188.183594" xlink:href="#DejaVuSans-73"/>
      <use x="217.675781" xlink:href="#DejaVuSans-85"/>
      <use x="290.869141" xlink:href="#DejaVuSans-82"/>
     </g>
    </g>
    <g id="line2d_61">
     <path d="M 99 216.923437 
L 119 216.923437 
" style="fill:none;stroke:#bcbd22;stroke-linecap:square;stroke-width:1.5;"/>
    </g>
    <g id="line2d_62"/>
    <g id="text_29">
     <!-- eSEIUR$^{range}$ -->
     <g transform="translate(127 220.423437)scale(0.1 -0.1)">
      <defs>
       <path d="M 44.578125 46.390625 
Q 43.21875 47.125 41.453125 47.515625 
Q 39.703125 47.90625 37.703125 47.90625 
Q 30.515625 47.90625 25.140625 42.453125 
Q 19.78125 37.015625 18.015625 27.875 
L 12.5 0 
L 3.515625 0 
L 14.203125 54.6875 
L 23.1875 54.6875 
L 21.484375 46.1875 
Q 25.046875 50.921875 30 53.453125 
Q 34.96875 56 40.578125 56 
Q 42.046875 56 43.453125 55.828125 
Q 44.875 55.671875 46.296875 55.28125 
z
" id="DejaVuSans-Oblique-114"/>
       <path d="M 53.71875 31.203125 
L 47.609375 0 
L 38.625 0 
L 40.28125 8.296875 
Q 36.328125 3.421875 31.265625 1 
Q 26.21875 -1.421875 20.015625 -1.421875 
Q 13.03125 -1.421875 8.5625 2.84375 
Q 4.109375 7.125 4.109375 13.8125 
Q 4.109375 23.390625 11.75 28.953125 
Q 19.390625 34.515625 32.8125 34.515625 
L 45.3125 34.515625 
L 45.796875 36.921875 
Q 45.90625 37.3125 45.953125 37.765625 
Q 46 38.234375 46 39.203125 
Q 46 43.5625 42.453125 45.96875 
Q 38.921875 48.390625 32.515625 48.390625 
Q 28.125 48.390625 23.5 47.265625 
Q 18.890625 46.140625 14.015625 43.890625 
L 15.578125 52.203125 
Q 20.65625 54.109375 25.515625 55.046875 
Q 30.375 56 34.90625 56 
Q 44.578125 56 49.625 51.796875 
Q 54.6875 47.609375 54.6875 39.59375 
Q 54.6875 37.984375 54.4375 35.8125 
Q 54.203125 33.640625 53.71875 31.203125 
z
M 44 27.484375 
L 35.015625 27.484375 
Q 23.96875 27.484375 18.671875 24.53125 
Q 13.375 21.578125 13.375 15.375 
Q 13.375 11.078125 16.078125 8.640625 
Q 18.796875 6.203125 23.578125 6.203125 
Q 30.90625 6.203125 36.375 11.453125 
Q 41.84375 16.703125 43.609375 25.484375 
z
" id="DejaVuSans-Oblique-97"/>
       <path d="M 55.71875 33.015625 
L 49.3125 0 
L 40.28125 0 
L 46.6875 32.671875 
Q 47.125 34.96875 47.359375 36.71875 
Q 47.609375 38.484375 47.609375 39.5 
Q 47.609375 43.609375 45.015625 45.890625 
Q 42.4375 48.1875 37.796875 48.1875 
Q 30.5625 48.1875 25.34375 43.375 
Q 20.125 38.578125 18.5 30.328125 
L 12.5 0 
L 3.515625 0 
L 14.109375 54.6875 
L 23.09375 54.6875 
L 21.296875 46.09375 
Q 25.046875 50.828125 30.3125 53.40625 
Q 35.59375 56 41.40625 56 
Q 48.640625 56 52.609375 52.09375 
Q 56.59375 48.1875 56.59375 41.109375 
Q 56.59375 39.359375 56.375 37.359375 
Q 56.15625 35.359375 55.71875 33.015625 
z
" id="DejaVuSans-Oblique-110"/>
       <path d="M 59.625 54.6875 
L 50.296875 6.78125 
Q 47.609375 -7.125 40.015625 -13.953125 
Q 32.421875 -20.796875 19.578125 -20.796875 
Q 14.84375 -20.796875 10.78125 -20.09375 
Q 6.734375 -19.390625 3.21875 -17.921875 
L 4.890625 -9.1875 
Q 8.203125 -11.328125 11.90625 -12.34375 
Q 15.625 -13.375 19.828125 -13.375 
Q 28.375 -13.375 33.859375 -8.703125 
Q 39.359375 -4.046875 41.109375 4.6875 
L 41.890625 8.796875 
Q 38.140625 4.5 33.15625 2.25 
Q 28.171875 0 22.40625 0 
Q 14.109375 0 9.34375 5.484375 
Q 4.59375 10.984375 4.59375 20.609375 
Q 4.59375 28.171875 7.46875 35.421875 
Q 10.359375 42.671875 15.578125 48.296875 
Q 19.046875 52 23.65625 54 
Q 28.265625 56 33.296875 56 
Q 38.8125 56 42.90625 53.4375 
Q 47.015625 50.875 49.03125 46.1875 
L 50.59375 54.6875 
z
M 46.09375 34.625 
Q 46.09375 41.265625 42.96875 44.875 
Q 39.84375 48.484375 34.078125 48.484375 
Q 30.515625 48.484375 27.296875 47.0625 
Q 24.078125 45.65625 21.78125 43.109375 
Q 18.0625 38.921875 15.984375 33.234375 
Q 13.921875 27.546875 13.921875 21.484375 
Q 13.921875 14.75 17.0625 11.125 
Q 20.21875 7.515625 26.125 7.515625 
Q 34.671875 7.515625 40.375 15.25 
Q 46.09375 23 46.09375 34.625 
z
" id="DejaVuSans-Oblique-103"/>
       <path d="M 48.09375 32.234375 
Q 48.25 33.015625 48.3125 33.84375 
Q 48.390625 34.671875 48.390625 35.5 
Q 48.390625 41.453125 44.890625 44.921875 
Q 41.40625 48.390625 35.40625 48.390625 
Q 28.71875 48.390625 23.578125 44.15625 
Q 18.453125 39.9375 15.828125 32.171875 
z
M 55.90625 25.203125 
L 14.109375 25.203125 
Q 13.8125 23.34375 13.71875 22.265625 
Q 13.625 21.1875 13.625 20.40625 
Q 13.625 13.625 17.796875 9.90625 
Q 21.96875 6.203125 29.59375 6.203125 
Q 35.453125 6.203125 40.671875 7.515625 
Q 45.90625 8.84375 50.390625 11.375 
L 48.6875 2.484375 
Q 43.84375 0.53125 38.6875 -0.4375 
Q 33.546875 -1.421875 28.21875 -1.421875 
Q 16.84375 -1.421875 10.71875 4.015625 
Q 4.59375 9.46875 4.59375 19.484375 
Q 4.59375 28.03125 7.640625 35.375 
Q 10.6875 42.71875 16.609375 48.484375 
Q 20.40625 52.09375 25.65625 54.046875 
Q 30.90625 56 36.8125 56 
Q 46.09375 56 51.578125 50.4375 
Q 57.078125 44.875 57.078125 35.5 
Q 57.078125 33.25 56.78125 30.6875 
Q 56.5 28.125 55.90625 25.203125 
z
" id="DejaVuSans-Oblique-101"/>
      </defs>
      <use transform="translate(0 0.51875)" xlink:href="#DejaVuSans-101"/>
      <use transform="translate(61.523438 0.51875)" xlink:href="#DejaVuSans-83"/>
      <use transform="translate(125 0.51875)" xlink:href="#DejaVuSans-69"/>
      <use transform="translate(188.183594 0.51875)" xlink:href="#DejaVuSans-73"/>
      <use transform="translate(217.675781 0.51875)" xlink:href="#DejaVuSans-85"/>
      <use transform="translate(288.619141 0.51875)" xlink:href="#DejaVuSans-82"/>
      <use transform="translate(359.058594 38.8)scale(0.7)" xlink:href="#DejaVuSans-Oblique-114"/>
      <use transform="translate(387.837891 38.8)scale(0.7)" xlink:href="#DejaVuSans-Oblique-97"/>
      <use transform="translate(430.733398 38.8)scale(0.7)" xlink:href="#DejaVuSans-Oblique-110"/>
      <use transform="translate(475.098633 38.8)scale(0.7)" xlink:href="#DejaVuSans-Oblique-103"/>
      <use transform="translate(519.532227 38.8)scale(0.7)" xlink:href="#DejaVuSans-Oblique-101"/>
     </g>
    </g>
   </g>
  </g>
 </g>
 <defs>
  <clipPath id="p64597695c5">
   <rect height="543.6" width="558" x="90" y="86.4"/>
  </clipPath>
 </defs>
</svg>
