<?xml version="1.0" encoding="utf-8" standalone="no"?>
<!DOCTYPE svg PUBLIC "-//W3C//DTD SVG 1.1//EN"
  "http://www.w3.org/Graphics/SVG/1.1/DTD/svg11.dtd">
<!-- Created with matplotlib (https://matplotlib.org/) -->
<svg height="720pt" version="1.1" viewBox="0 0 720 720" width="720pt" xmlns="http://www.w3.org/2000/svg" xmlns:xlink="http://www.w3.org/1999/xlink">
 <metadata>
  <rdf:RDF xmlns:cc="http://creativecommons.org/ns#" xmlns:dc="http://purl.org/dc/elements/1.1/" xmlns:rdf="http://www.w3.org/1999/02/22-rdf-syntax-ns#">
   <cc:Work>
    <dc:type rdf:resource="http://purl.org/dc/dcmitype/StillImage"/>
    <dc:date>2022-07-13T18:54:17.047849</dc:date>
    <dc:format>image/svg+xml</dc:format>
    <dc:creator>
     <cc:Agent>
      <dc:title>Matplotlib v3.3.2, https://matplotlib.org/</dc:title>
     </cc:Agent>
    </dc:creator>
   </cc:Work>
  </rdf:RDF>
 </metadata>
 <defs>
  <style type="text/css">*{stroke-linecap:butt;stroke-linejoin:round;}</style>
 </defs>
 <g id="figure_1">
  <g id="patch_1">
   <path d="M 0 720 
L 720 720 
L 720 0 
L 0 0 
z
" style="fill:none;"/>
  </g>
  <g id="axes_1">
   <g id="patch_2">
    <path d="M 90 630 
L 648 630 
L 648 86.4 
L 90 86.4 
z
" style="fill:#ffffff;"/>
   </g>
   <g id="matplotlib.axis_1">
    <g id="xtick_1">
     <g id="line2d_1">
      <path clip-path="url(#pb4d4897971)" d="M 115.363636 630 
L 115.363636 86.4 
" style="fill:none;stroke:#b0b0b0;stroke-linecap:square;stroke-width:0.8;"/>
     </g>
     <g id="line2d_2">
      <defs>
       <path d="M 0 0 
L 0 3.5 
" id="mccddabaa08" style="stroke:#000000;stroke-width:0.8;"/>
      </defs>
      <g>
       <use style="stroke:#000000;stroke-width:0.8;" x="115.363636" xlink:href="#mccddabaa08" y="630"/>
      </g>
     </g>
     <g id="text_1">
      <!-- 0 -->
      <g transform="translate(112.182386 644.598438)scale(0.1 -0.1)">
       <defs>
        <path d="M 31.78125 66.40625 
Q 24.171875 66.40625 20.328125 58.90625 
Q 16.5 51.421875 16.5 36.375 
Q 16.5 21.390625 20.328125 13.890625 
Q 24.171875 6.390625 31.78125 6.390625 
Q 39.453125 6.390625 43.28125 13.890625 
Q 47.125 21.390625 47.125 36.375 
Q 47.125 51.421875 43.28125 58.90625 
Q 39.453125 66.40625 31.78125 66.40625 
z
M 31.78125 74.21875 
Q 44.046875 74.21875 50.515625 64.515625 
Q 56.984375 54.828125 56.984375 36.375 
Q 56.984375 17.96875 50.515625 8.265625 
Q 44.046875 -1.421875 31.78125 -1.421875 
Q 19.53125 -1.421875 13.0625 8.265625 
Q 6.59375 17.96875 6.59375 36.375 
Q 6.59375 54.828125 13.0625 64.515625 
Q 19.53125 74.21875 31.78125 74.21875 
z
" id="DejaVuSans-48"/>
       </defs>
       <use xlink:href="#DejaVuSans-48"/>
      </g>
     </g>
    </g>
    <g id="xtick_2">
     <g id="line2d_3">
      <path clip-path="url(#pb4d4897971)" d="M 184.380334 630 
L 184.380334 86.4 
" style="fill:none;stroke:#b0b0b0;stroke-linecap:square;stroke-width:0.8;"/>
     </g>
     <g id="line2d_4">
      <g>
       <use style="stroke:#000000;stroke-width:0.8;" x="184.380334" xlink:href="#mccddabaa08" y="630"/>
      </g>
     </g>
     <g id="text_2">
      <!-- 20 -->
      <g transform="translate(178.017834 644.598438)scale(0.1 -0.1)">
       <defs>
        <path d="M 19.1875 8.296875 
L 53.609375 8.296875 
L 53.609375 0 
L 7.328125 0 
L 7.328125 8.296875 
Q 12.9375 14.109375 22.625 23.890625 
Q 32.328125 33.6875 34.8125 36.53125 
Q 39.546875 41.84375 41.421875 45.53125 
Q 43.3125 49.21875 43.3125 52.78125 
Q 43.3125 58.59375 39.234375 62.25 
Q 35.15625 65.921875 28.609375 65.921875 
Q 23.96875 65.921875 18.8125 64.3125 
Q 13.671875 62.703125 7.8125 59.421875 
L 7.8125 69.390625 
Q 13.765625 71.78125 18.9375 73 
Q 24.125 74.21875 28.421875 74.21875 
Q 39.75 74.21875 46.484375 68.546875 
Q 53.21875 62.890625 53.21875 53.421875 
Q 53.21875 48.921875 51.53125 44.890625 
Q 49.859375 40.875 45.40625 35.40625 
Q 44.1875 33.984375 37.640625 27.21875 
Q 31.109375 20.453125 19.1875 8.296875 
z
" id="DejaVuSans-50"/>
       </defs>
       <use xlink:href="#DejaVuSans-50"/>
       <use x="63.623047" xlink:href="#DejaVuSans-48"/>
      </g>
     </g>
    </g>
    <g id="xtick_3">
     <g id="line2d_5">
      <path clip-path="url(#pb4d4897971)" d="M 253.397032 630 
L 253.397032 86.4 
" style="fill:none;stroke:#b0b0b0;stroke-linecap:square;stroke-width:0.8;"/>
     </g>
     <g id="line2d_6">
      <g>
       <use style="stroke:#000000;stroke-width:0.8;" x="253.397032" xlink:href="#mccddabaa08" y="630"/>
      </g>
     </g>
     <g id="text_3">
      <!-- 40 -->
      <g transform="translate(247.034532 644.598438)scale(0.1 -0.1)">
       <defs>
        <path d="M 37.796875 64.3125 
L 12.890625 25.390625 
L 37.796875 25.390625 
z
M 35.203125 72.90625 
L 47.609375 72.90625 
L 47.609375 25.390625 
L 58.015625 25.390625 
L 58.015625 17.1875 
L 47.609375 17.1875 
L 47.609375 0 
L 37.796875 0 
L 37.796875 17.1875 
L 4.890625 17.1875 
L 4.890625 26.703125 
z
" id="DejaVuSans-52"/>
       </defs>
       <use xlink:href="#DejaVuSans-52"/>
       <use x="63.623047" xlink:href="#DejaVuSans-48"/>
      </g>
     </g>
    </g>
    <g id="xtick_4">
     <g id="line2d_7">
      <path clip-path="url(#pb4d4897971)" d="M 322.413729 630 
L 322.413729 86.4 
" style="fill:none;stroke:#b0b0b0;stroke-linecap:square;stroke-width:0.8;"/>
     </g>
     <g id="line2d_8">
      <g>
       <use style="stroke:#000000;stroke-width:0.8;" x="322.413729" xlink:href="#mccddabaa08" y="630"/>
      </g>
     </g>
     <g id="text_4">
      <!-- 60 -->
      <g transform="translate(316.051229 644.598438)scale(0.1 -0.1)">
       <defs>
        <path d="M 33.015625 40.375 
Q 26.375 40.375 22.484375 35.828125 
Q 18.609375 31.296875 18.609375 23.390625 
Q 18.609375 15.53125 22.484375 10.953125 
Q 26.375 6.390625 33.015625 6.390625 
Q 39.65625 6.390625 43.53125 10.953125 
Q 47.40625 15.53125 47.40625 23.390625 
Q 47.40625 31.296875 43.53125 35.828125 
Q 39.65625 40.375 33.015625 40.375 
z
M 52.59375 71.296875 
L 52.59375 62.3125 
Q 48.875 64.0625 45.09375 64.984375 
Q 41.3125 65.921875 37.59375 65.921875 
Q 27.828125 65.921875 22.671875 59.328125 
Q 17.53125 52.734375 16.796875 39.40625 
Q 19.671875 43.65625 24.015625 45.921875 
Q 28.375 48.1875 33.59375 48.1875 
Q 44.578125 48.1875 50.953125 41.515625 
Q 57.328125 34.859375 57.328125 23.390625 
Q 57.328125 12.15625 50.6875 5.359375 
Q 44.046875 -1.421875 33.015625 -1.421875 
Q 20.359375 -1.421875 13.671875 8.265625 
Q 6.984375 17.96875 6.984375 36.375 
Q 6.984375 53.65625 15.1875 63.9375 
Q 23.390625 74.21875 37.203125 74.21875 
Q 40.921875 74.21875 44.703125 73.484375 
Q 48.484375 72.75 52.59375 71.296875 
z
" id="DejaVuSans-54"/>
       </defs>
       <use xlink:href="#DejaVuSans-54"/>
       <use x="63.623047" xlink:href="#DejaVuSans-48"/>
      </g>
     </g>
    </g>
    <g id="xtick_5">
     <g id="line2d_9">
      <path clip-path="url(#pb4d4897971)" d="M 391.430427 630 
L 391.430427 86.4 
" style="fill:none;stroke:#b0b0b0;stroke-linecap:square;stroke-width:0.8;"/>
     </g>
     <g id="line2d_10">
      <g>
       <use style="stroke:#000000;stroke-width:0.8;" x="391.430427" xlink:href="#mccddabaa08" y="630"/>
      </g>
     </g>
     <g id="text_5">
      <!-- 80 -->
      <g transform="translate(385.067927 644.598438)scale(0.1 -0.1)">
       <defs>
        <path d="M 31.78125 34.625 
Q 24.75 34.625 20.71875 30.859375 
Q 16.703125 27.09375 16.703125 20.515625 
Q 16.703125 13.921875 20.71875 10.15625 
Q 24.75 6.390625 31.78125 6.390625 
Q 38.8125 6.390625 42.859375 10.171875 
Q 46.921875 13.96875 46.921875 20.515625 
Q 46.921875 27.09375 42.890625 30.859375 
Q 38.875 34.625 31.78125 34.625 
z
M 21.921875 38.8125 
Q 15.578125 40.375 12.03125 44.71875 
Q 8.5 49.078125 8.5 55.328125 
Q 8.5 64.0625 14.71875 69.140625 
Q 20.953125 74.21875 31.78125 74.21875 
Q 42.671875 74.21875 48.875 69.140625 
Q 55.078125 64.0625 55.078125 55.328125 
Q 55.078125 49.078125 51.53125 44.71875 
Q 48 40.375 41.703125 38.8125 
Q 48.828125 37.15625 52.796875 32.3125 
Q 56.78125 27.484375 56.78125 20.515625 
Q 56.78125 9.90625 50.3125 4.234375 
Q 43.84375 -1.421875 31.78125 -1.421875 
Q 19.734375 -1.421875 13.25 4.234375 
Q 6.78125 9.90625 6.78125 20.515625 
Q 6.78125 27.484375 10.78125 32.3125 
Q 14.796875 37.15625 21.921875 38.8125 
z
M 18.3125 54.390625 
Q 18.3125 48.734375 21.84375 45.5625 
Q 25.390625 42.390625 31.78125 42.390625 
Q 38.140625 42.390625 41.71875 45.5625 
Q 45.3125 48.734375 45.3125 54.390625 
Q 45.3125 60.0625 41.71875 63.234375 
Q 38.140625 66.40625 31.78125 66.40625 
Q 25.390625 66.40625 21.84375 63.234375 
Q 18.3125 60.0625 18.3125 54.390625 
z
" id="DejaVuSans-56"/>
       </defs>
       <use xlink:href="#DejaVuSans-56"/>
       <use x="63.623047" xlink:href="#DejaVuSans-48"/>
      </g>
     </g>
    </g>
    <g id="xtick_6">
     <g id="line2d_11">
      <path clip-path="url(#pb4d4897971)" d="M 460.447124 630 
L 460.447124 86.4 
" style="fill:none;stroke:#b0b0b0;stroke-linecap:square;stroke-width:0.8;"/>
     </g>
     <g id="line2d_12">
      <g>
       <use style="stroke:#000000;stroke-width:0.8;" x="460.447124" xlink:href="#mccddabaa08" y="630"/>
      </g>
     </g>
     <g id="text_6">
      <!-- 100 -->
      <g transform="translate(450.903374 644.598438)scale(0.1 -0.1)">
       <defs>
        <path d="M 12.40625 8.296875 
L 28.515625 8.296875 
L 28.515625 63.921875 
L 10.984375 60.40625 
L 10.984375 69.390625 
L 28.421875 72.90625 
L 38.28125 72.90625 
L 38.28125 8.296875 
L 54.390625 8.296875 
L 54.390625 0 
L 12.40625 0 
z
" id="DejaVuSans-49"/>
       </defs>
       <use xlink:href="#DejaVuSans-49"/>
       <use x="63.623047" xlink:href="#DejaVuSans-48"/>
       <use x="127.246094" xlink:href="#DejaVuSans-48"/>
      </g>
     </g>
    </g>
    <g id="xtick_7">
     <g id="line2d_13">
      <path clip-path="url(#pb4d4897971)" d="M 529.463822 630 
L 529.463822 86.4 
" style="fill:none;stroke:#b0b0b0;stroke-linecap:square;stroke-width:0.8;"/>
     </g>
     <g id="line2d_14">
      <g>
       <use style="stroke:#000000;stroke-width:0.8;" x="529.463822" xlink:href="#mccddabaa08" y="630"/>
      </g>
     </g>
     <g id="text_7">
      <!-- 120 -->
      <g transform="translate(519.920072 644.598438)scale(0.1 -0.1)">
       <use xlink:href="#DejaVuSans-49"/>
       <use x="63.623047" xlink:href="#DejaVuSans-50"/>
       <use x="127.246094" xlink:href="#DejaVuSans-48"/>
      </g>
     </g>
    </g>
    <g id="xtick_8">
     <g id="line2d_15">
      <path clip-path="url(#pb4d4897971)" d="M 598.480519 630 
L 598.480519 86.4 
" style="fill:none;stroke:#b0b0b0;stroke-linecap:square;stroke-width:0.8;"/>
     </g>
     <g id="line2d_16">
      <g>
       <use style="stroke:#000000;stroke-width:0.8;" x="598.480519" xlink:href="#mccddabaa08" y="630"/>
      </g>
     </g>
     <g id="text_8">
      <!-- 140 -->
      <g transform="translate(588.936769 644.598438)scale(0.1 -0.1)">
       <use xlink:href="#DejaVuSans-49"/>
       <use x="63.623047" xlink:href="#DejaVuSans-52"/>
       <use x="127.246094" xlink:href="#DejaVuSans-48"/>
      </g>
     </g>
    </g>
    <g id="text_9">
     <!-- Days -->
     <g transform="translate(356.521875 658.276562)scale(0.1 -0.1)">
      <defs>
       <path d="M 19.671875 64.796875 
L 19.671875 8.109375 
L 31.59375 8.109375 
Q 46.6875 8.109375 53.6875 14.9375 
Q 60.6875 21.78125 60.6875 36.53125 
Q 60.6875 51.171875 53.6875 57.984375 
Q 46.6875 64.796875 31.59375 64.796875 
z
M 9.8125 72.90625 
L 30.078125 72.90625 
Q 51.265625 72.90625 61.171875 64.09375 
Q 71.09375 55.28125 71.09375 36.53125 
Q 71.09375 17.671875 61.125 8.828125 
Q 51.171875 0 30.078125 0 
L 9.8125 0 
z
" id="DejaVuSans-68"/>
       <path d="M 34.28125 27.484375 
Q 23.390625 27.484375 19.1875 25 
Q 14.984375 22.515625 14.984375 16.5 
Q 14.984375 11.71875 18.140625 8.90625 
Q 21.296875 6.109375 26.703125 6.109375 
Q 34.1875 6.109375 38.703125 11.40625 
Q 43.21875 16.703125 43.21875 25.484375 
L 43.21875 27.484375 
z
M 52.203125 31.203125 
L 52.203125 0 
L 43.21875 0 
L 43.21875 8.296875 
Q 40.140625 3.328125 35.546875 0.953125 
Q 30.953125 -1.421875 24.3125 -1.421875 
Q 15.921875 -1.421875 10.953125 3.296875 
Q 6 8.015625 6 15.921875 
Q 6 25.140625 12.171875 29.828125 
Q 18.359375 34.515625 30.609375 34.515625 
L 43.21875 34.515625 
L 43.21875 35.40625 
Q 43.21875 41.609375 39.140625 45 
Q 35.0625 48.390625 27.6875 48.390625 
Q 23 48.390625 18.546875 47.265625 
Q 14.109375 46.140625 10.015625 43.890625 
L 10.015625 52.203125 
Q 14.9375 54.109375 19.578125 55.046875 
Q 24.21875 56 28.609375 56 
Q 40.484375 56 46.34375 49.84375 
Q 52.203125 43.703125 52.203125 31.203125 
z
" id="DejaVuSans-97"/>
       <path d="M 32.171875 -5.078125 
Q 28.375 -14.84375 24.75 -17.8125 
Q 21.140625 -20.796875 15.09375 -20.796875 
L 7.90625 -20.796875 
L 7.90625 -13.28125 
L 13.1875 -13.28125 
Q 16.890625 -13.28125 18.9375 -11.515625 
Q 21 -9.765625 23.484375 -3.21875 
L 25.09375 0.875 
L 2.984375 54.6875 
L 12.5 54.6875 
L 29.59375 11.921875 
L 46.6875 54.6875 
L 56.203125 54.6875 
z
" id="DejaVuSans-121"/>
       <path d="M 44.28125 53.078125 
L 44.28125 44.578125 
Q 40.484375 46.53125 36.375 47.5 
Q 32.28125 48.484375 27.875 48.484375 
Q 21.1875 48.484375 17.84375 46.4375 
Q 14.5 44.390625 14.5 40.28125 
Q 14.5 37.15625 16.890625 35.375 
Q 19.28125 33.59375 26.515625 31.984375 
L 29.59375 31.296875 
Q 39.15625 29.25 43.1875 25.515625 
Q 47.21875 21.78125 47.21875 15.09375 
Q 47.21875 7.46875 41.1875 3.015625 
Q 35.15625 -1.421875 24.609375 -1.421875 
Q 20.21875 -1.421875 15.453125 -0.5625 
Q 10.6875 0.296875 5.421875 2 
L 5.421875 11.28125 
Q 10.40625 8.6875 15.234375 7.390625 
Q 20.0625 6.109375 24.8125 6.109375 
Q 31.15625 6.109375 34.5625 8.28125 
Q 37.984375 10.453125 37.984375 14.40625 
Q 37.984375 18.0625 35.515625 20.015625 
Q 33.0625 21.96875 24.703125 23.78125 
L 21.578125 24.515625 
Q 13.234375 26.265625 9.515625 29.90625 
Q 5.8125 33.546875 5.8125 39.890625 
Q 5.8125 47.609375 11.28125 51.796875 
Q 16.75 56 26.8125 56 
Q 31.78125 56 36.171875 55.265625 
Q 40.578125 54.546875 44.28125 53.078125 
z
" id="DejaVuSans-115"/>
      </defs>
      <use xlink:href="#DejaVuSans-68"/>
      <use x="77.001953" xlink:href="#DejaVuSans-97"/>
      <use x="138.28125" xlink:href="#DejaVuSans-121"/>
      <use x="197.460938" xlink:href="#DejaVuSans-115"/>
     </g>
    </g>
   </g>
   <g id="matplotlib.axis_2">
    <g id="ytick_1">
     <g id="line2d_17">
      <path clip-path="url(#pb4d4897971)" d="M 90 605.305994 
L 648 605.305994 
" style="fill:none;stroke:#b0b0b0;stroke-linecap:square;stroke-width:0.8;"/>
     </g>
     <g id="line2d_18">
      <defs>
       <path d="M 0 0 
L -3.5 0 
" id="mfad3264259" style="stroke:#000000;stroke-width:0.8;"/>
      </defs>
      <g>
       <use style="stroke:#000000;stroke-width:0.8;" x="90" xlink:href="#mfad3264259" y="605.305994"/>
      </g>
     </g>
     <g id="text_10">
      <!-- 0 -->
      <g transform="translate(76.6375 609.105212)scale(0.1 -0.1)">
       <use xlink:href="#DejaVuSans-48"/>
      </g>
     </g>
    </g>
    <g id="ytick_2">
     <g id="line2d_19">
      <path clip-path="url(#pb4d4897971)" d="M 90 521.503467 
L 648 521.503467 
" style="fill:none;stroke:#b0b0b0;stroke-linecap:square;stroke-width:0.8;"/>
     </g>
     <g id="line2d_20">
      <g>
       <use style="stroke:#000000;stroke-width:0.8;" x="90" xlink:href="#mfad3264259" y="521.503467"/>
      </g>
     </g>
     <g id="text_11">
      <!-- 50000 -->
      <g transform="translate(51.1875 525.302686)scale(0.1 -0.1)">
       <defs>
        <path d="M 10.796875 72.90625 
L 49.515625 72.90625 
L 49.515625 64.59375 
L 19.828125 64.59375 
L 19.828125 46.734375 
Q 21.96875 47.46875 24.109375 47.828125 
Q 26.265625 48.1875 28.421875 48.1875 
Q 40.625 48.1875 47.75 41.5 
Q 54.890625 34.8125 54.890625 23.390625 
Q 54.890625 11.625 47.5625 5.09375 
Q 40.234375 -1.421875 26.90625 -1.421875 
Q 22.3125 -1.421875 17.546875 -0.640625 
Q 12.796875 0.140625 7.71875 1.703125 
L 7.71875 11.625 
Q 12.109375 9.234375 16.796875 8.0625 
Q 21.484375 6.890625 26.703125 6.890625 
Q 35.15625 6.890625 40.078125 11.328125 
Q 45.015625 15.765625 45.015625 23.390625 
Q 45.015625 31 40.078125 35.4375 
Q 35.15625 39.890625 26.703125 39.890625 
Q 22.75 39.890625 18.8125 39.015625 
Q 14.890625 38.140625 10.796875 36.28125 
z
" id="DejaVuSans-53"/>
       </defs>
       <use xlink:href="#DejaVuSans-53"/>
       <use x="63.623047" xlink:href="#DejaVuSans-48"/>
       <use x="127.246094" xlink:href="#DejaVuSans-48"/>
       <use x="190.869141" xlink:href="#DejaVuSans-48"/>
       <use x="254.492188" xlink:href="#DejaVuSans-48"/>
      </g>
     </g>
    </g>
    <g id="ytick_3">
     <g id="line2d_21">
      <path clip-path="url(#pb4d4897971)" d="M 90 437.700941 
L 648 437.700941 
" style="fill:none;stroke:#b0b0b0;stroke-linecap:square;stroke-width:0.8;"/>
     </g>
     <g id="line2d_22">
      <g>
       <use style="stroke:#000000;stroke-width:0.8;" x="90" xlink:href="#mfad3264259" y="437.700941"/>
      </g>
     </g>
     <g id="text_12">
      <!-- 100000 -->
      <g transform="translate(44.825 441.50016)scale(0.1 -0.1)">
       <use xlink:href="#DejaVuSans-49"/>
       <use x="63.623047" xlink:href="#DejaVuSans-48"/>
       <use x="127.246094" xlink:href="#DejaVuSans-48"/>
       <use x="190.869141" xlink:href="#DejaVuSans-48"/>
       <use x="254.492188" xlink:href="#DejaVuSans-48"/>
       <use x="318.115234" xlink:href="#DejaVuSans-48"/>
      </g>
     </g>
    </g>
    <g id="ytick_4">
     <g id="line2d_23">
      <path clip-path="url(#pb4d4897971)" d="M 90 353.898414 
L 648 353.898414 
" style="fill:none;stroke:#b0b0b0;stroke-linecap:square;stroke-width:0.8;"/>
     </g>
     <g id="line2d_24">
      <g>
       <use style="stroke:#000000;stroke-width:0.8;" x="90" xlink:href="#mfad3264259" y="353.898414"/>
      </g>
     </g>
     <g id="text_13">
      <!-- 150000 -->
      <g transform="translate(44.825 357.697633)scale(0.1 -0.1)">
       <use xlink:href="#DejaVuSans-49"/>
       <use x="63.623047" xlink:href="#DejaVuSans-53"/>
       <use x="127.246094" xlink:href="#DejaVuSans-48"/>
       <use x="190.869141" xlink:href="#DejaVuSans-48"/>
       <use x="254.492188" xlink:href="#DejaVuSans-48"/>
       <use x="318.115234" xlink:href="#DejaVuSans-48"/>
      </g>
     </g>
    </g>
    <g id="ytick_5">
     <g id="line2d_25">
      <path clip-path="url(#pb4d4897971)" d="M 90 270.095888 
L 648 270.095888 
" style="fill:none;stroke:#b0b0b0;stroke-linecap:square;stroke-width:0.8;"/>
     </g>
     <g id="line2d_26">
      <g>
       <use style="stroke:#000000;stroke-width:0.8;" x="90" xlink:href="#mfad3264259" y="270.095888"/>
      </g>
     </g>
     <g id="text_14">
      <!-- 200000 -->
      <g transform="translate(44.825 273.895107)scale(0.1 -0.1)">
       <use xlink:href="#DejaVuSans-50"/>
       <use x="63.623047" xlink:href="#DejaVuSans-48"/>
       <use x="127.246094" xlink:href="#DejaVuSans-48"/>
       <use x="190.869141" xlink:href="#DejaVuSans-48"/>
       <use x="254.492188" xlink:href="#DejaVuSans-48"/>
       <use x="318.115234" xlink:href="#DejaVuSans-48"/>
      </g>
     </g>
    </g>
    <g id="ytick_6">
     <g id="line2d_27">
      <path clip-path="url(#pb4d4897971)" d="M 90 186.293362 
L 648 186.293362 
" style="fill:none;stroke:#b0b0b0;stroke-linecap:square;stroke-width:0.8;"/>
     </g>
     <g id="line2d_28">
      <g>
       <use style="stroke:#000000;stroke-width:0.8;" x="90" xlink:href="#mfad3264259" y="186.293362"/>
      </g>
     </g>
     <g id="text_15">
      <!-- 250000 -->
      <g transform="translate(44.825 190.09258)scale(0.1 -0.1)">
       <use xlink:href="#DejaVuSans-50"/>
       <use x="63.623047" xlink:href="#DejaVuSans-53"/>
       <use x="127.246094" xlink:href="#DejaVuSans-48"/>
       <use x="190.869141" xlink:href="#DejaVuSans-48"/>
       <use x="254.492188" xlink:href="#DejaVuSans-48"/>
       <use x="318.115234" xlink:href="#DejaVuSans-48"/>
      </g>
     </g>
    </g>
    <g id="ytick_7">
     <g id="line2d_29">
      <path clip-path="url(#pb4d4897971)" d="M 90 102.490835 
L 648 102.490835 
" style="fill:none;stroke:#b0b0b0;stroke-linecap:square;stroke-width:0.8;"/>
     </g>
     <g id="line2d_30">
      <g>
       <use style="stroke:#000000;stroke-width:0.8;" x="90" xlink:href="#mfad3264259" y="102.490835"/>
      </g>
     </g>
     <g id="text_16">
      <!-- 300000 -->
      <g transform="translate(44.825 106.290054)scale(0.1 -0.1)">
       <defs>
        <path d="M 40.578125 39.3125 
Q 47.65625 37.796875 51.625 33 
Q 55.609375 28.21875 55.609375 21.1875 
Q 55.609375 10.40625 48.1875 4.484375 
Q 40.765625 -1.421875 27.09375 -1.421875 
Q 22.515625 -1.421875 17.65625 -0.515625 
Q 12.796875 0.390625 7.625 2.203125 
L 7.625 11.71875 
Q 11.71875 9.328125 16.59375 8.109375 
Q 21.484375 6.890625 26.8125 6.890625 
Q 36.078125 6.890625 40.9375 10.546875 
Q 45.796875 14.203125 45.796875 21.1875 
Q 45.796875 27.640625 41.28125 31.265625 
Q 36.765625 34.90625 28.71875 34.90625 
L 20.21875 34.90625 
L 20.21875 43.015625 
L 29.109375 43.015625 
Q 36.375 43.015625 40.234375 45.921875 
Q 44.09375 48.828125 44.09375 54.296875 
Q 44.09375 59.90625 40.109375 62.90625 
Q 36.140625 65.921875 28.71875 65.921875 
Q 24.65625 65.921875 20.015625 65.03125 
Q 15.375 64.15625 9.8125 62.3125 
L 9.8125 71.09375 
Q 15.4375 72.65625 20.34375 73.4375 
Q 25.25 74.21875 29.59375 74.21875 
Q 40.828125 74.21875 47.359375 69.109375 
Q 53.90625 64.015625 53.90625 55.328125 
Q 53.90625 49.265625 50.4375 45.09375 
Q 46.96875 40.921875 40.578125 39.3125 
z
" id="DejaVuSans-51"/>
       </defs>
       <use xlink:href="#DejaVuSans-51"/>
       <use x="63.623047" xlink:href="#DejaVuSans-48"/>
       <use x="127.246094" xlink:href="#DejaVuSans-48"/>
       <use x="190.869141" xlink:href="#DejaVuSans-48"/>
       <use x="254.492188" xlink:href="#DejaVuSans-48"/>
       <use x="318.115234" xlink:href="#DejaVuSans-48"/>
      </g>
     </g>
    </g>
    <g id="text_17">
     <!-- Cumulative cases -->
     <g transform="translate(38.745312 402.425781)rotate(-90)scale(0.1 -0.1)">
      <defs>
       <path d="M 64.40625 67.28125 
L 64.40625 56.890625 
Q 59.421875 61.53125 53.78125 63.8125 
Q 48.140625 66.109375 41.796875 66.109375 
Q 29.296875 66.109375 22.65625 58.46875 
Q 16.015625 50.828125 16.015625 36.375 
Q 16.015625 21.96875 22.65625 14.328125 
Q 29.296875 6.6875 41.796875 6.6875 
Q 48.140625 6.6875 53.78125 8.984375 
Q 59.421875 11.28125 64.40625 15.921875 
L 64.40625 5.609375 
Q 59.234375 2.09375 53.4375 0.328125 
Q 47.65625 -1.421875 41.21875 -1.421875 
Q 24.65625 -1.421875 15.125 8.703125 
Q 5.609375 18.84375 5.609375 36.375 
Q 5.609375 53.953125 15.125 64.078125 
Q 24.65625 74.21875 41.21875 74.21875 
Q 47.75 74.21875 53.53125 72.484375 
Q 59.328125 70.75 64.40625 67.28125 
z
" id="DejaVuSans-67"/>
       <path d="M 8.5 21.578125 
L 8.5 54.6875 
L 17.484375 54.6875 
L 17.484375 21.921875 
Q 17.484375 14.15625 20.5 10.265625 
Q 23.53125 6.390625 29.59375 6.390625 
Q 36.859375 6.390625 41.078125 11.03125 
Q 45.3125 15.671875 45.3125 23.6875 
L 45.3125 54.6875 
L 54.296875 54.6875 
L 54.296875 0 
L 45.3125 0 
L 45.3125 8.40625 
Q 42.046875 3.421875 37.71875 1 
Q 33.40625 -1.421875 27.6875 -1.421875 
Q 18.265625 -1.421875 13.375 4.4375 
Q 8.5 10.296875 8.5 21.578125 
z
M 31.109375 56 
z
" id="DejaVuSans-117"/>
       <path d="M 52 44.1875 
Q 55.375 50.25 60.0625 53.125 
Q 64.75 56 71.09375 56 
Q 79.640625 56 84.28125 50.015625 
Q 88.921875 44.046875 88.921875 33.015625 
L 88.921875 0 
L 79.890625 0 
L 79.890625 32.71875 
Q 79.890625 40.578125 77.09375 44.375 
Q 74.3125 48.1875 68.609375 48.1875 
Q 61.625 48.1875 57.5625 43.546875 
Q 53.515625 38.921875 53.515625 30.90625 
L 53.515625 0 
L 44.484375 0 
L 44.484375 32.71875 
Q 44.484375 40.625 41.703125 44.40625 
Q 38.921875 48.1875 33.109375 48.1875 
Q 26.21875 48.1875 22.15625 43.53125 
Q 18.109375 38.875 18.109375 30.90625 
L 18.109375 0 
L 9.078125 0 
L 9.078125 54.6875 
L 18.109375 54.6875 
L 18.109375 46.1875 
Q 21.1875 51.21875 25.484375 53.609375 
Q 29.78125 56 35.6875 56 
Q 41.65625 56 45.828125 52.96875 
Q 50 49.953125 52 44.1875 
z
" id="DejaVuSans-109"/>
       <path d="M 9.421875 75.984375 
L 18.40625 75.984375 
L 18.40625 0 
L 9.421875 0 
z
" id="DejaVuSans-108"/>
       <path d="M 18.3125 70.21875 
L 18.3125 54.6875 
L 36.8125 54.6875 
L 36.8125 47.703125 
L 18.3125 47.703125 
L 18.3125 18.015625 
Q 18.3125 11.328125 20.140625 9.421875 
Q 21.96875 7.515625 27.59375 7.515625 
L 36.8125 7.515625 
L 36.8125 0 
L 27.59375 0 
Q 17.1875 0 13.234375 3.875 
Q 9.28125 7.765625 9.28125 18.015625 
L 9.28125 47.703125 
L 2.6875 47.703125 
L 2.6875 54.6875 
L 9.28125 54.6875 
L 9.28125 70.21875 
z
" id="DejaVuSans-116"/>
       <path d="M 9.421875 54.6875 
L 18.40625 54.6875 
L 18.40625 0 
L 9.421875 0 
z
M 9.421875 75.984375 
L 18.40625 75.984375 
L 18.40625 64.59375 
L 9.421875 64.59375 
z
" id="DejaVuSans-105"/>
       <path d="M 2.984375 54.6875 
L 12.5 54.6875 
L 29.59375 8.796875 
L 46.6875 54.6875 
L 56.203125 54.6875 
L 35.6875 0 
L 23.484375 0 
z
" id="DejaVuSans-118"/>
       <path d="M 56.203125 29.59375 
L 56.203125 25.203125 
L 14.890625 25.203125 
Q 15.484375 15.921875 20.484375 11.0625 
Q 25.484375 6.203125 34.421875 6.203125 
Q 39.59375 6.203125 44.453125 7.46875 
Q 49.3125 8.734375 54.109375 11.28125 
L 54.109375 2.78125 
Q 49.265625 0.734375 44.1875 -0.34375 
Q 39.109375 -1.421875 33.890625 -1.421875 
Q 20.796875 -1.421875 13.15625 6.1875 
Q 5.515625 13.8125 5.515625 26.8125 
Q 5.515625 40.234375 12.765625 48.109375 
Q 20.015625 56 32.328125 56 
Q 43.359375 56 49.78125 48.890625 
Q 56.203125 41.796875 56.203125 29.59375 
z
M 47.21875 32.234375 
Q 47.125 39.59375 43.09375 43.984375 
Q 39.0625 48.390625 32.421875 48.390625 
Q 24.90625 48.390625 20.390625 44.140625 
Q 15.875 39.890625 15.1875 32.171875 
z
" id="DejaVuSans-101"/>
       <path id="DejaVuSans-32"/>
       <path d="M 48.78125 52.59375 
L 48.78125 44.1875 
Q 44.96875 46.296875 41.140625 47.34375 
Q 37.3125 48.390625 33.40625 48.390625 
Q 24.65625 48.390625 19.8125 42.84375 
Q 14.984375 37.3125 14.984375 27.296875 
Q 14.984375 17.28125 19.8125 11.734375 
Q 24.65625 6.203125 33.40625 6.203125 
Q 37.3125 6.203125 41.140625 7.25 
Q 44.96875 8.296875 48.78125 10.40625 
L 48.78125 2.09375 
Q 45.015625 0.34375 40.984375 -0.53125 
Q 36.96875 -1.421875 32.421875 -1.421875 
Q 20.0625 -1.421875 12.78125 6.34375 
Q 5.515625 14.109375 5.515625 27.296875 
Q 5.515625 40.671875 12.859375 48.328125 
Q 20.21875 56 33.015625 56 
Q 37.15625 56 41.109375 55.140625 
Q 45.0625 54.296875 48.78125 52.59375 
z
" id="DejaVuSans-99"/>
      </defs>
      <use xlink:href="#DejaVuSans-67"/>
      <use x="69.824219" xlink:href="#DejaVuSans-117"/>
      <use x="133.203125" xlink:href="#DejaVuSans-109"/>
      <use x="230.615234" xlink:href="#DejaVuSans-117"/>
      <use x="293.994141" xlink:href="#DejaVuSans-108"/>
      <use x="321.777344" xlink:href="#DejaVuSans-97"/>
      <use x="383.056641" xlink:href="#DejaVuSans-116"/>
      <use x="422.265625" xlink:href="#DejaVuSans-105"/>
      <use x="450.048828" xlink:href="#DejaVuSans-118"/>
      <use x="509.228516" xlink:href="#DejaVuSans-101"/>
      <use x="570.751953" xlink:href="#DejaVuSans-32"/>
      <use x="602.539062" xlink:href="#DejaVuSans-99"/>
      <use x="657.519531" xlink:href="#DejaVuSans-97"/>
      <use x="718.798828" xlink:href="#DejaVuSans-115"/>
      <use x="770.898438" xlink:href="#DejaVuSans-101"/>
      <use x="832.421875" xlink:href="#DejaVuSans-115"/>
     </g>
    </g>
   </g>
   <g id="line2d_31">
    <path clip-path="url(#pb4d4897971)" d="M 115.363636 605.290909 
L 177.478664 605.144945 
L 201.634508 604.901669 
L 218.888683 604.525987 
L 232.692022 603.987211 
L 243.044527 603.351579 
L 249.946197 602.766405 
L 256.847866 602.007245 
L 263.749536 601.023206 
L 270.651206 599.749083 
L 277.552876 598.101713 
L 281.003711 597.106119 
L 284.454545 595.975685 
L 287.90538 594.692954 
L 291.356215 593.238445 
L 294.80705 591.590486 
L 298.257885 589.725058 
L 301.70872 587.615651 
L 305.159555 585.233147 
L 308.61039 582.545748 
L 312.061224 579.518958 
L 315.512059 576.115642 
L 318.962894 572.296185 
L 322.413729 568.018785 
L 325.864564 563.239897 
L 329.315399 557.914872 
L 332.766234 551.998808 
L 336.217069 545.447646 
L 339.667904 538.219529 
L 343.118738 530.276417 
L 346.569573 521.585953 
L 350.020408 512.123531 
L 353.471243 501.874484 
L 356.922078 490.836304 
L 360.372913 479.020723 
L 363.823748 466.455517 
L 367.274583 453.185804 
L 370.725417 439.274693 
L 377.627087 409.868521 
L 384.528757 379.070346 
L 394.881262 332.492169 
L 401.782931 302.708639 
L 405.233766 288.545543 
L 408.684601 274.99119 
L 412.135436 262.116414 
L 415.586271 249.97404 
L 419.037106 238.599176 
L 422.487941 228.010259 
L 425.938776 218.210662 
L 429.38961 209.19068 
L 432.840445 200.929708 
L 436.29128 193.398461 
L 439.742115 186.5611 
L 443.19295 180.377197 
L 446.643785 174.80346 
L 450.09462 169.795198 
L 453.545455 165.307536 
L 456.996289 161.296363 
L 460.447124 157.719064 
L 463.897959 154.535038 
L 467.348794 151.706058 
L 470.799629 149.19648 
L 474.250464 146.973342 
L 477.701299 145.006383 
L 481.152134 143.267981 
L 484.602968 141.733063 
L 488.053803 140.378965 
L 491.504638 139.185284 
L 494.955473 138.133715 
L 501.857143 136.39316 
L 508.758813 135.046483 
L 515.660482 134.006122 
L 522.562152 133.203339 
L 529.463822 132.584437 
L 539.816327 131.912069 
L 550.168831 131.457904 
L 563.972171 131.073216 
L 584.67718 130.76959 
L 615.734694 130.594136 
L 622.636364 130.576229 
L 622.636364 130.576229 
" style="fill:none;stroke:#1f77b4;stroke-linecap:square;stroke-width:1.5;"/>
   </g>
   <g id="line2d_32">
    <path clip-path="url(#pb4d4897971)" d="M 115.363636 605.290909 
L 129.166976 604.347855 
L 142.970315 603.145113 
L 153.32282 602.031342 
L 163.675325 600.696941 
L 174.027829 599.099777 
L 184.380334 597.190361 
L 191.282004 595.715757 
L 198.183673 594.057462 
L 205.085343 592.194111 
L 211.987013 590.102259 
L 218.888683 587.756292 
L 225.790353 585.128367 
L 232.692022 582.188383 
L 239.593692 578.904023 
L 246.495362 575.24085 
L 253.397032 571.162501 
L 260.298701 566.630987 
L 267.200371 561.607122 
L 274.102041 556.051106 
L 277.552876 553.061115 
L 281.003711 549.923271 
L 284.454545 546.63279 
L 287.90538 543.185024 
L 291.356215 539.575502 
L 294.80705 535.79997 
L 298.257885 531.854442 
L 301.70872 527.73524 
L 305.159555 523.439054 
L 308.61039 518.962985 
L 315.512059 509.46202 
L 322.413729 499.219549 
L 329.315399 488.232904 
L 336.217069 476.511193 
L 343.118738 464.076735 
L 350.020408 450.966167 
L 356.922078 437.231061 
L 363.823748 422.937975 
L 370.725417 408.167802 
L 381.077922 385.326405 
L 398.332096 346.340425 
L 412.135436 315.383383 
L 419.037106 300.299932 
L 425.938776 285.619793 
L 432.840445 271.434339 
L 439.742115 257.821628 
L 446.643785 244.84519 
L 453.545455 232.553533 
L 460.447124 220.980302 
L 467.348794 210.145025 
L 474.250464 200.054281 
L 481.152134 190.703202 
L 488.053803 182.077137 
L 491.504638 178.029164 
L 494.955473 174.153406 
L 498.406308 170.446054 
L 501.857143 166.903007 
L 508.758813 160.292236 
L 515.660482 154.284149 
L 522.562152 148.839847 
L 529.463822 143.919568 
L 536.365492 139.48358 
L 543.267161 135.4929 
L 550.168831 131.90984 
L 557.070501 128.698409 
L 563.972171 125.82459 
L 570.87384 123.256511 
L 577.77551 120.964532 
L 584.67718 118.921267 
L 591.57885 117.10155 
L 598.480519 115.482369 
L 605.382189 114.042768 
L 615.734694 112.178987 
L 622.636364 111.109091 
L 622.636364 111.109091 
" style="fill:none;stroke:#ff7f0e;stroke-linecap:square;stroke-width:1.5;"/>
   </g>
   <g id="line2d_33">
    <path clip-path="url(#pb4d4897971)" d="M 115.363636 605.290909 
L 156.773655 605.107722 
L 180.929499 604.792487 
L 198.183673 604.33772 
L 211.987013 603.718857 
L 222.339518 603.01813 
L 229.241187 602.391802 
L 236.142857 601.598736 
L 243.044527 600.595536 
L 249.946197 599.328113 
L 256.847866 597.729399 
L 263.749536 595.716806 
L 267.200371 594.524586 
L 270.651206 593.189515 
L 274.102041 591.695708 
L 277.552876 590.025828 
L 281.003711 588.161035 
L 284.454545 586.080964 
L 287.90538 583.76372 
L 291.356215 581.185919 
L 294.80705 578.32278 
L 298.257885 575.148268 
L 301.70872 571.635316 
L 305.159555 567.756128 
L 308.61039 563.482576 
L 312.061224 558.786702 
L 315.512059 553.641335 
L 318.962894 548.020819 
L 322.413729 541.901851 
L 325.864564 535.264416 
L 329.315399 528.092801 
L 332.766234 520.376639 
L 336.217069 512.111961 
L 339.667904 503.302174 
L 343.118738 493.958915 
L 346.569573 484.102712 
L 350.020408 473.763373 
L 353.471243 462.980055 
L 360.372913 440.282634 
L 367.274583 416.489463 
L 384.528757 356.027569 
L 391.430427 332.973979 
L 394.881262 321.937519 
L 398.332096 311.289686 
L 401.782931 301.06653 
L 405.233766 291.295878 
L 408.684601 281.997628 
L 412.135436 273.184256 
L 415.586271 264.861476 
L 419.037106 257.028998 
L 422.487941 249.681337 
L 425.938776 242.808631 
L 429.38961 236.397434 
L 432.840445 230.431467 
L 436.29128 224.8923 
L 439.742115 219.759964 
L 443.19295 215.013486 
L 446.643785 210.63134 
L 450.09462 206.591839 
L 453.545455 202.873441 
L 456.996289 199.455005 
L 460.447124 196.315988 
L 463.897959 193.436591 
L 467.348794 190.797869 
L 470.799629 188.381804 
L 474.250464 186.171349 
L 477.701299 184.150448 
L 481.152134 182.304041 
L 484.602968 180.61805 
L 488.053803 179.079357 
L 491.504638 177.675769 
L 498.406308 175.229536 
L 505.307978 173.198803 
L 512.209647 171.515095 
L 519.111317 170.120541 
L 526.012987 168.966455 
L 532.914657 168.012033 
L 543.267161 166.881772 
L 553.619666 166.033311 
L 563.972171 165.396875 
L 577.77551 164.788935 
L 595.029685 164.294368 
L 615.734694 163.943556 
L 622.636364 163.865025 
L 622.636364 163.865025 
" style="fill:none;stroke:#2ca02c;stroke-linecap:square;stroke-width:1.5;"/>
   </g>
   <g id="line2d_34">
    <path clip-path="url(#pb4d4897971)" d="M 115.363636 605.290909 
L 136.068646 605.069965 
L 153.32282 604.688956 
L 167.12616 604.182908 
L 177.478664 603.635991 
L 187.831169 602.896174 
L 198.183673 601.904589 
L 205.085343 601.066974 
L 211.987013 600.056525 
L 218.888683 598.840753 
L 225.790353 597.38159 
L 232.692022 595.634663 
L 239.593692 593.548565 
L 246.495362 591.064196 
L 249.946197 589.651951 
L 253.397032 588.114231 
L 256.847866 586.441287 
L 260.298701 584.622846 
L 263.749536 582.648119 
L 267.200371 580.505834 
L 270.651206 578.184265 
L 274.102041 575.671296 
L 277.552876 572.95448 
L 281.003711 570.021133 
L 284.454545 566.858433 
L 287.90538 563.453557 
L 291.356215 559.793823 
L 294.80705 555.866869 
L 298.257885 551.660848 
L 301.70872 547.164647 
L 305.159555 542.368128 
L 308.61039 537.262386 
L 312.061224 531.840022 
L 315.512059 526.095419 
L 318.962894 520.025029 
L 322.413729 513.627638 
L 325.864564 506.904628 
L 329.315399 499.860201 
L 332.766234 492.501568 
L 336.217069 484.83909 
L 343.118738 468.660184 
L 350.020408 451.470544 
L 356.922078 433.464984 
L 367.274583 405.446701 
L 384.528757 358.270602 
L 391.430427 339.991516 
L 398.332096 322.386644 
L 405.233766 305.627411 
L 412.135436 289.84094 
L 415.586271 282.340178 
L 419.037106 275.11064 
L 422.487941 268.156531 
L 425.938776 261.479907 
L 429.38961 255.080875 
L 432.840445 248.957812 
L 436.29128 243.107577 
L 439.742115 237.525722 
L 443.19295 232.206689 
L 446.643785 227.144004 
L 450.09462 222.330446 
L 453.545455 217.758211 
L 456.996289 213.419056 
L 460.447124 209.304422 
L 463.897959 205.405551 
L 467.348794 201.713584 
L 470.799629 198.21964 
L 474.250464 194.914891 
L 477.701299 191.790621 
L 481.152134 188.838271 
L 484.602968 186.049481 
L 488.053803 183.416123 
L 491.504638 180.930318 
L 498.406308 176.371228 
L 505.307978 172.314797 
L 512.209647 168.708291 
L 519.111317 165.503646 
L 526.012987 162.657317 
L 532.914657 160.130039 
L 539.816327 157.886535 
L 546.717996 155.895212 
L 553.619666 154.127837 
L 560.521336 152.559225 
L 567.423006 151.166949 
L 577.77551 149.366133 
L 588.128015 147.859472 
L 598.480519 146.598252 
L 608.833024 145.541757 
L 622.636364 144.393623 
L 622.636364 144.393623 
" style="fill:none;stroke:#d62728;stroke-linecap:square;stroke-width:1.5;"/>
   </g>
   <g id="line2d_35">
    <path clip-path="url(#pb4d4897971)" d="M 115.363636 605.290909 
L 170.576994 605.190312 
L 194.732839 604.973818 
L 211.987013 604.59781 
L 222.339518 604.190572 
L 232.692022 603.550255 
L 239.593692 602.931813 
L 246.495362 602.098206 
L 253.397032 600.976946 
L 260.298701 599.473031 
L 263.749536 598.540391 
L 267.200371 597.463459 
L 270.651206 596.221557 
L 274.102041 594.791586 
L 277.552876 593.147923 
L 281.003711 591.262376 
L 284.454545 589.104225 
L 287.90538 586.640372 
L 291.356215 583.835634 
L 294.80705 580.653217 
L 298.257885 577.05538 
L 301.70872 573.004345 
L 305.159555 568.463423 
L 308.61039 563.398383 
L 312.061224 557.779005 
L 315.512059 551.580758 
L 318.962894 544.786518 
L 322.413729 537.38818 
L 325.864564 529.38804 
L 329.315399 520.799791 
L 332.766234 511.649009 
L 336.217069 501.973037 
L 339.667904 491.82024 
L 346.569573 470.324118 
L 353.471243 447.705228 
L 370.725417 390.091592 
L 377.627087 367.971248 
L 384.528757 346.946687 
L 387.979592 336.919855 
L 391.430427 327.243597 
L 394.881262 317.931094 
L 398.332096 308.990659 
L 401.782931 300.426375 
L 405.233766 292.238701 
L 408.684601 284.425045 
L 412.135436 276.980288 
L 415.586271 269.897252 
L 419.037106 263.167119 
L 422.487941 256.779788 
L 425.938776 250.724197 
L 429.38961 244.988584 
L 432.840445 239.560717 
L 436.29128 234.428083 
L 439.742115 229.57805 
L 443.19295 224.997989 
L 446.643785 220.675388 
L 450.09462 216.597931 
L 453.545455 212.753568 
L 456.996289 209.130565 
L 460.447124 205.717546 
L 463.897959 202.503519 
L 467.348794 199.477898 
L 470.799629 196.630515 
L 474.250464 193.951627 
L 477.701299 191.431917 
L 481.152134 189.062491 
L 484.602968 186.834876 
L 491.504638 182.773222 
L 498.406308 179.187184 
L 505.307978 176.023014 
L 512.209647 173.232551 
L 519.111317 170.77277 
L 526.012987 168.605328 
L 532.914657 166.696121 
L 539.816327 165.014872 
L 546.717996 163.534734 
L 553.619666 162.231937 
L 563.972171 160.564924 
L 574.324675 159.189222 
L 584.67718 158.054259 
L 595.029685 157.11813 
L 608.833024 156.120196 
L 622.636364 155.348684 
L 622.636364 155.348684 
" style="fill:none;stroke:#9467bd;stroke-linecap:square;stroke-width:1.5;"/>
   </g>
   <g id="line2d_36">
    <path clip-path="url(#pb4d4897971)" d="M 115.363636 605.290909 
L 136.068646 605.177164 
L 153.32282 604.866669 
L 167.12616 604.40253 
L 177.478664 603.873036 
L 187.831169 603.132223 
L 198.183673 602.112968 
L 205.085343 601.236686 
L 211.987013 600.166598 
L 218.888683 598.865206 
L 225.790353 597.288559 
L 232.692022 595.385508 
L 239.593692 593.097026 
L 243.044527 591.787519 
L 246.495362 590.355706 
L 249.946197 588.791817 
L 253.397032 587.085555 
L 256.847866 585.22612 
L 260.298701 583.202244 
L 263.749536 581.002234 
L 267.200371 578.614038 
L 270.651206 576.02533 
L 274.102041 573.223606 
L 277.552876 570.196308 
L 281.003711 566.930966 
L 284.454545 563.415364 
L 287.90538 559.637728 
L 291.356215 555.586933 
L 294.80705 551.252728 
L 298.257885 546.625983 
L 301.70872 541.698933 
L 305.159555 536.465441 
L 308.61039 530.921247 
L 312.061224 525.064213 
L 315.512059 518.894548 
L 318.962894 512.414993 
L 322.413729 505.630985 
L 325.864564 498.550757 
L 329.315399 491.185392 
L 336.217069 475.657705 
L 343.118738 459.191579 
L 350.020408 441.968923 
L 360.372913 415.183203 
L 381.077922 361.022554 
L 387.979592 343.585575 
L 394.881262 326.755361 
L 401.782931 310.664509 
L 408.684601 295.412428 
L 415.586271 281.06687 
L 422.487941 267.666953 
L 425.938776 261.326959 
L 429.38961 255.227077 
L 432.840445 249.365945 
L 436.29128 243.741189 
L 439.742115 238.349551 
L 443.19295 233.187009 
L 446.643785 228.248888 
L 450.09462 223.529966 
L 453.545455 219.024571 
L 456.996289 214.726669 
L 460.447124 210.629946 
L 463.897959 206.727874 
L 467.348794 203.013784 
L 470.799629 199.480916 
L 474.250464 196.122472 
L 477.701299 192.931659 
L 481.152134 189.901726 
L 484.602968 187.025998 
L 491.504638 181.710993 
L 498.406308 176.935677 
L 505.307978 172.651618 
L 512.209647 168.813262 
L 519.111317 165.378138 
L 526.012987 162.306918 
L 532.914657 159.563408 
L 539.816327 157.114459 
L 546.717996 154.929841 
L 553.619666 152.982087 
L 560.521336 151.246317 
L 567.423006 149.700054 
L 574.324675 148.32304 
L 584.67718 146.535513 
L 595.029685 145.034403 
L 605.382189 143.774055 
L 615.734694 142.715854 
L 622.636364 142.106377 
L 622.636364 142.106377 
" style="fill:none;stroke:#8c564b;stroke-linecap:square;stroke-width:1.5;"/>
   </g>
   <g id="line2d_37">
    <path clip-path="url(#pb4d4897971)" d="M 115.363636 605.290909 
L 170.576994 605.182102 
L 194.732839 604.952387 
L 211.987013 604.558364 
L 222.339518 604.135152 
L 232.692022 603.474068 
L 239.593692 602.838948 
L 246.495362 601.986558 
L 253.397032 600.844932 
L 260.298701 599.320136 
L 263.749536 598.377399 
L 267.200371 597.291007 
L 270.651206 596.04067 
L 274.102041 594.603757 
L 277.552876 592.955192 
L 281.003711 591.067409 
L 284.454545 588.910388 
L 287.90538 586.451788 
L 291.356215 583.657221 
L 294.80705 580.490686 
L 298.257885 576.915196 
L 301.70872 572.89362 
L 305.159555 568.389754 
L 308.61039 563.369608 
L 312.061224 557.802893 
L 315.512059 551.664641 
L 318.962894 544.936878 
L 322.413729 537.610236 
L 325.864564 529.685361 
L 329.315399 521.173988 
L 332.766234 512.099542 
L 336.217069 502.497166 
L 339.667904 492.413141 
L 343.118738 481.903686 
L 350.020408 459.872329 
L 360.372913 425.393863 
L 370.725417 390.939119 
L 377.627087 368.807411 
L 384.528757 347.768148 
L 387.979592 337.735489 
L 391.430427 328.055532 
L 394.881262 318.742054 
L 398.332096 309.803789 
L 401.782931 301.245078 
L 405.233766 293.066506 
L 408.684601 285.265489 
L 412.135436 277.836826 
L 415.586271 270.773182 
L 419.037106 264.065531 
L 422.487941 257.703528 
L 425.938776 251.675838 
L 429.38961 245.970416 
L 432.840445 240.574745 
L 436.29128 235.476026 
L 439.742115 230.661349 
L 443.19295 226.117824 
L 446.643785 221.832686 
L 450.09462 217.793388 
L 453.545455 213.987663 
L 456.996289 210.403581 
L 460.447124 207.029585 
L 463.897959 203.854523 
L 467.348794 200.867664 
L 470.799629 198.058711 
L 474.250464 195.417807 
L 477.701299 192.935539 
L 481.152134 190.602926 
L 484.602968 188.411422 
L 491.504638 184.419651 
L 498.406308 180.900082 
L 505.307978 177.798732 
L 512.209647 175.067313 
L 519.111317 172.662763 
L 526.012987 170.54677 
L 532.914657 168.685316 
L 539.816327 167.048242 
L 546.717996 165.608855 
L 553.619666 164.34355 
L 563.972171 162.727066 
L 574.324675 161.395601 
L 584.67718 160.29921 
L 595.029685 159.396599 
L 608.833024 158.436475 
L 622.636364 157.696042 
L 622.636364 157.696042 
" style="fill:none;stroke:#e377c2;stroke-linecap:square;stroke-width:1.5;"/>
   </g>
   <g id="line2d_38">
    <path clip-path="url(#pb4d4897971)" d="M 115.363636 605.290909 
L 129.166976 605.199396 
L 142.970315 604.923044 
L 156.773655 604.424813 
L 167.12616 603.863141 
L 177.478664 603.093435 
L 187.831169 602.060358 
L 194.732839 601.191514 
L 201.634508 600.150094 
L 208.536178 598.907433 
L 215.437848 597.430609 
L 222.339518 595.682023 
L 229.241187 593.619013 
L 236.142857 591.19354 
L 243.044527 588.352009 
L 246.495362 586.756952 
L 249.946197 585.035284 
L 253.397032 583.178794 
L 256.847866 581.178986 
L 260.298701 579.027104 
L 263.749536 576.714177 
L 267.200371 574.231066 
L 270.651206 571.568524 
L 274.102041 568.717269 
L 277.552876 565.668065 
L 281.003711 562.411815 
L 284.454545 558.939665 
L 287.90538 555.243127 
L 291.356215 551.314202 
L 294.80705 547.145518 
L 298.257885 542.730482 
L 301.70872 538.063425 
L 305.159555 533.139763 
L 308.61039 527.95615 
L 312.061224 522.510635 
L 315.512059 516.802802 
L 318.962894 510.833906 
L 322.413729 504.606985 
L 325.864564 498.12696 
L 332.766234 484.43704 
L 339.667904 469.842862 
L 346.569573 454.454118 
L 353.471243 438.40862 
L 363.823748 413.465318 
L 387.979592 354.343956 
L 394.881262 338.006039 
L 401.782931 322.190444 
L 408.684601 307.01189 
L 415.586271 292.559854 
L 422.487941 278.898898 
L 429.38961 266.070253 
L 436.29128 254.094285 
L 443.19295 242.973454 
L 446.643785 237.730362 
L 450.09462 232.695457 
L 453.545455 227.8654 
L 456.996289 223.236301 
L 460.447124 218.803804 
L 463.897959 214.563162 
L 467.348794 210.509306 
L 470.799629 206.636915 
L 474.250464 202.940469 
L 477.701299 199.414305 
L 481.152134 196.052663 
L 484.602968 192.849732 
L 491.504638 186.896707 
L 498.406308 181.508965 
L 505.307978 176.641325 
L 512.209647 172.250301 
L 519.111317 168.294531 
L 526.012987 164.73505 
L 532.914657 161.535439 
L 539.816327 158.661883 
L 546.717996 156.08316 
L 553.619666 153.770578 
L 560.521336 151.697873 
L 567.423006 149.84109 
L 574.324675 148.178441 
L 581.226345 146.69016 
L 591.57885 144.746015 
L 601.931354 143.101097 
L 612.283859 141.709834 
L 622.636364 140.533343 
L 622.636364 140.533343 
" style="fill:none;stroke:#7f7f7f;stroke-linecap:square;stroke-width:1.5;"/>
   </g>
   <g id="line2d_39">
    <path clip-path="url(#pb4d4897971)" d="M 115.363636 605.290909 
L 136.068646 605.164584 
L 153.32282 604.811221 
L 167.12616 604.283808 
L 177.478664 603.685641 
L 187.831169 602.854255 
L 194.732839 602.136287 
L 201.634508 601.257972 
L 208.536178 600.18915 
L 215.437848 598.894588 
L 222.339518 597.333387 
L 229.241187 595.458438 
L 236.142857 593.215977 
L 243.044527 590.545338 
L 246.495362 589.028609 
L 249.946197 587.379001 
L 253.397032 585.587081 
L 256.847866 583.643082 
L 260.298701 581.536949 
L 263.749536 579.258404 
L 267.200371 576.79702 
L 270.651206 574.142317 
L 274.102041 571.283864 
L 277.552876 568.211402 
L 281.003711 564.914982 
L 284.454545 561.385119 
L 287.90538 557.612948 
L 291.356215 553.590404 
L 294.80705 549.310398 
L 298.257885 544.767002 
L 301.70872 539.955627 
L 305.159555 534.873197 
L 308.61039 529.51831 
L 312.061224 523.891375 
L 315.512059 517.994733 
L 318.962894 511.832738 
L 322.413729 505.41181 
L 329.315399 491.829181 
L 336.217069 477.338899 
L 343.118738 462.06251 
L 350.020408 446.145734 
L 360.372913 421.428533 
L 387.979592 354.601726 
L 394.881262 338.509854 
L 401.782931 322.90402 
L 408.684601 307.86844 
L 415.586271 293.467073 
L 422.487941 279.745178 
L 429.38961 266.731363 
L 436.29128 254.439861 
L 443.19295 242.872846 
L 450.09462 232.022653 
L 456.996289 221.873807 
L 463.897959 212.404835 
L 470.799629 203.589821 
L 477.701299 195.399729 
L 484.602968 187.803495 
L 491.504638 180.768922 
L 498.406308 174.263393 
L 505.307978 168.254429 
L 512.209647 162.710121 
L 519.111317 157.599459 
L 526.012987 152.892559 
L 532.914657 148.560832 
L 539.816327 144.577093 
L 546.717996 140.915614 
L 553.619666 137.552153 
L 560.521336 134.463953 
L 567.423006 131.629714 
L 574.324675 129.029554 
L 581.226345 126.644961 
L 588.128015 124.458729 
L 595.029685 122.454901 
L 601.931354 120.618696 
L 612.283859 118.149065 
L 622.636364 115.984269 
L 622.636364 115.984269 
" style="fill:none;stroke:#bcbd22;stroke-linecap:square;stroke-width:1.5;"/>
   </g>
   <g id="line2d_40">
    <path clip-path="url(#pb4d4897971)" d="M 115.363636 605.290909 
L 198.183673 605.203754 
L 211.987013 604.893685 
L 225.790353 604.496461 
L 229.241187 604.250082 
L 232.692022 603.815985 
L 236.142857 603.125452 
L 243.044527 601.501359 
L 246.495362 600.891276 
L 249.946197 600.148786 
L 253.397032 599.118015 
L 256.847866 597.827456 
L 263.749536 594.354679 
L 270.651206 590.209806 
L 274.102041 587.883448 
L 281.003711 579.954053 
L 284.454545 575.400224 
L 287.90538 570.159214 
L 291.356215 564.713726 
L 298.257885 555.101576 
L 301.70872 547.849305 
L 305.159555 540.250092 
L 315.512059 515.303756 
L 318.962894 508.477202 
L 322.413729 502.359618 
L 332.766234 475.601471 
L 336.217069 467.378767 
L 339.667904 460.059455 
L 346.569573 448.072341 
L 353.471243 433.737081 
L 356.922078 425.189224 
L 360.372913 416.234086 
L 363.823748 407.870594 
L 367.274583 399.932818 
L 370.725417 393.463263 
L 377.627087 377.30446 
L 381.077922 368.077802 
L 384.528757 359.415973 
L 387.979592 351.067565 
L 391.430427 344.758911 
L 394.881262 338.937987 
L 401.782931 323.131155 
L 405.233766 313.99668 
L 408.684601 305.676765 
L 412.135436 297.749046 
L 415.586271 292.335402 
L 419.037106 287.3458 
L 422.487941 281.675721 
L 425.938776 275.492771 
L 432.840445 262.743054 
L 436.29128 257.627748 
L 439.742115 254.02424 
L 443.19295 250.13245 
L 446.643785 244.117105 
L 453.545455 232.895947 
L 460.447124 224.282723 
L 463.897959 220.809946 
L 467.348794 217.749478 
L 470.799629 213.430296 
L 474.250464 208.304933 
L 477.701299 203.759484 
L 481.152134 199.478851 
L 484.602968 196.058032 
L 488.053803 193.530548 
L 491.504638 191.259499 
L 498.406308 185.775462 
L 505.307978 179.833863 
L 508.758813 177.306379 
L 515.660482 173.657617 
L 526.012987 166.512613 
L 529.463822 164.437663 
L 532.914657 162.577247 
L 536.365492 161.246463 
L 539.816327 160.043058 
L 546.717996 156.266916 
L 550.168831 154.279121 
L 560.521336 149.336448 
L 563.972171 147.983875 
L 581.226345 139.407524 
L 588.128015 137.245419 
L 595.029685 134.272105 
L 598.480519 132.969814 
L 605.382189 130.730611 
L 608.833024 129.667995 
L 612.283859 128.985842 
L 615.734694 127.946691 
L 619.185529 127.269566 
L 622.636364 127.163975 
L 622.636364 127.163975 
" style="fill:none;stroke:#17becf;stroke-dasharray:14.8,6.4;stroke-dashoffset:0;stroke-width:4;"/>
   </g>
   <g id="patch_3">
    <path d="M 90 630 
L 90 86.4 
" style="fill:none;stroke:#000000;stroke-linecap:square;stroke-linejoin:miter;stroke-width:0.8;"/>
   </g>
   <g id="patch_4">
    <path d="M 648 630 
L 648 86.4 
" style="fill:none;stroke:#000000;stroke-linecap:square;stroke-linejoin:miter;stroke-width:0.8;"/>
   </g>
   <g id="patch_5">
    <path d="M 90 630 
L 648 630 
" style="fill:none;stroke:#000000;stroke-linecap:square;stroke-linejoin:miter;stroke-width:0.8;"/>
   </g>
   <g id="patch_6">
    <path d="M 90 86.4 
L 648 86.4 
" style="fill:none;stroke:#000000;stroke-linecap:square;stroke-linejoin:miter;stroke-width:0.8;"/>
   </g>
   <g id="text_18">
    <!-- United Kingdom relative err =  -->
    <g transform="translate(277.036875 80.4)scale(0.12 -0.12)">
     <defs>
      <path d="M 8.6875 72.90625 
L 18.609375 72.90625 
L 18.609375 28.609375 
Q 18.609375 16.890625 22.84375 11.734375 
Q 27.09375 6.59375 36.625 6.59375 
Q 46.09375 6.59375 50.34375 11.734375 
Q 54.59375 16.890625 54.59375 28.609375 
L 54.59375 72.90625 
L 64.5 72.90625 
L 64.5 27.390625 
Q 64.5 13.140625 57.4375 5.859375 
Q 50.390625 -1.421875 36.625 -1.421875 
Q 22.796875 -1.421875 15.734375 5.859375 
Q 8.6875 13.140625 8.6875 27.390625 
z
" id="DejaVuSans-85"/>
      <path d="M 54.890625 33.015625 
L 54.890625 0 
L 45.90625 0 
L 45.90625 32.71875 
Q 45.90625 40.484375 42.875 44.328125 
Q 39.84375 48.1875 33.796875 48.1875 
Q 26.515625 48.1875 22.3125 43.546875 
Q 18.109375 38.921875 18.109375 30.90625 
L 18.109375 0 
L 9.078125 0 
L 9.078125 54.6875 
L 18.109375 54.6875 
L 18.109375 46.1875 
Q 21.34375 51.125 25.703125 53.5625 
Q 30.078125 56 35.796875 56 
Q 45.21875 56 50.046875 50.171875 
Q 54.890625 44.34375 54.890625 33.015625 
z
" id="DejaVuSans-110"/>
      <path d="M 45.40625 46.390625 
L 45.40625 75.984375 
L 54.390625 75.984375 
L 54.390625 0 
L 45.40625 0 
L 45.40625 8.203125 
Q 42.578125 3.328125 38.25 0.953125 
Q 33.9375 -1.421875 27.875 -1.421875 
Q 17.96875 -1.421875 11.734375 6.484375 
Q 5.515625 14.40625 5.515625 27.296875 
Q 5.515625 40.1875 11.734375 48.09375 
Q 17.96875 56 27.875 56 
Q 33.9375 56 38.25 53.625 
Q 42.578125 51.265625 45.40625 46.390625 
z
M 14.796875 27.296875 
Q 14.796875 17.390625 18.875 11.75 
Q 22.953125 6.109375 30.078125 6.109375 
Q 37.203125 6.109375 41.296875 11.75 
Q 45.40625 17.390625 45.40625 27.296875 
Q 45.40625 37.203125 41.296875 42.84375 
Q 37.203125 48.484375 30.078125 48.484375 
Q 22.953125 48.484375 18.875 42.84375 
Q 14.796875 37.203125 14.796875 27.296875 
z
" id="DejaVuSans-100"/>
      <path d="M 9.8125 72.90625 
L 19.671875 72.90625 
L 19.671875 42.09375 
L 52.390625 72.90625 
L 65.09375 72.90625 
L 28.90625 38.921875 
L 67.671875 0 
L 54.6875 0 
L 19.671875 35.109375 
L 19.671875 0 
L 9.8125 0 
z
" id="DejaVuSans-75"/>
      <path d="M 45.40625 27.984375 
Q 45.40625 37.75 41.375 43.109375 
Q 37.359375 48.484375 30.078125 48.484375 
Q 22.859375 48.484375 18.828125 43.109375 
Q 14.796875 37.75 14.796875 27.984375 
Q 14.796875 18.265625 18.828125 12.890625 
Q 22.859375 7.515625 30.078125 7.515625 
Q 37.359375 7.515625 41.375 12.890625 
Q 45.40625 18.265625 45.40625 27.984375 
z
M 54.390625 6.78125 
Q 54.390625 -7.171875 48.1875 -13.984375 
Q 42 -20.796875 29.203125 -20.796875 
Q 24.46875 -20.796875 20.265625 -20.09375 
Q 16.0625 -19.390625 12.109375 -17.921875 
L 12.109375 -9.1875 
Q 16.0625 -11.328125 19.921875 -12.34375 
Q 23.78125 -13.375 27.78125 -13.375 
Q 36.625 -13.375 41.015625 -8.765625 
Q 45.40625 -4.15625 45.40625 5.171875 
L 45.40625 9.625 
Q 42.625 4.78125 38.28125 2.390625 
Q 33.9375 0 27.875 0 
Q 17.828125 0 11.671875 7.65625 
Q 5.515625 15.328125 5.515625 27.984375 
Q 5.515625 40.671875 11.671875 48.328125 
Q 17.828125 56 27.875 56 
Q 33.9375 56 38.28125 53.609375 
Q 42.625 51.21875 45.40625 46.390625 
L 45.40625 54.6875 
L 54.390625 54.6875 
z
" id="DejaVuSans-103"/>
      <path d="M 30.609375 48.390625 
Q 23.390625 48.390625 19.1875 42.75 
Q 14.984375 37.109375 14.984375 27.296875 
Q 14.984375 17.484375 19.15625 11.84375 
Q 23.34375 6.203125 30.609375 6.203125 
Q 37.796875 6.203125 41.984375 11.859375 
Q 46.1875 17.53125 46.1875 27.296875 
Q 46.1875 37.015625 41.984375 42.703125 
Q 37.796875 48.390625 30.609375 48.390625 
z
M 30.609375 56 
Q 42.328125 56 49.015625 48.375 
Q 55.71875 40.765625 55.71875 27.296875 
Q 55.71875 13.875 49.015625 6.21875 
Q 42.328125 -1.421875 30.609375 -1.421875 
Q 18.84375 -1.421875 12.171875 6.21875 
Q 5.515625 13.875 5.515625 27.296875 
Q 5.515625 40.765625 12.171875 48.375 
Q 18.84375 56 30.609375 56 
z
" id="DejaVuSans-111"/>
      <path d="M 41.109375 46.296875 
Q 39.59375 47.171875 37.8125 47.578125 
Q 36.03125 48 33.890625 48 
Q 26.265625 48 22.1875 43.046875 
Q 18.109375 38.09375 18.109375 28.8125 
L 18.109375 0 
L 9.078125 0 
L 9.078125 54.6875 
L 18.109375 54.6875 
L 18.109375 46.1875 
Q 20.953125 51.171875 25.484375 53.578125 
Q 30.03125 56 36.53125 56 
Q 37.453125 56 38.578125 55.875 
Q 39.703125 55.765625 41.0625 55.515625 
z
" id="DejaVuSans-114"/>
      <path d="M 10.59375 45.40625 
L 73.1875 45.40625 
L 73.1875 37.203125 
L 10.59375 37.203125 
z
M 10.59375 25.484375 
L 73.1875 25.484375 
L 73.1875 17.1875 
L 10.59375 17.1875 
z
" id="DejaVuSans-61"/>
     </defs>
     <use xlink:href="#DejaVuSans-85"/>
     <use x="73.193359" xlink:href="#DejaVuSans-110"/>
     <use x="136.572266" xlink:href="#DejaVuSans-105"/>
     <use x="164.355469" xlink:href="#DejaVuSans-116"/>
     <use x="203.564453" xlink:href="#DejaVuSans-101"/>
     <use x="265.087891" xlink:href="#DejaVuSans-100"/>
     <use x="328.564453" xlink:href="#DejaVuSans-32"/>
     <use x="360.351562" xlink:href="#DejaVuSans-75"/>
     <use x="425.927734" xlink:href="#DejaVuSans-105"/>
     <use x="453.710938" xlink:href="#DejaVuSans-110"/>
     <use x="517.089844" xlink:href="#DejaVuSans-103"/>
     <use x="580.566406" xlink:href="#DejaVuSans-100"/>
     <use x="644.042969" xlink:href="#DejaVuSans-111"/>
     <use x="705.224609" xlink:href="#DejaVuSans-109"/>
     <use x="802.636719" xlink:href="#DejaVuSans-32"/>
     <use x="834.423828" xlink:href="#DejaVuSans-114"/>
     <use x="873.287109" xlink:href="#DejaVuSans-101"/>
     <use x="934.810547" xlink:href="#DejaVuSans-108"/>
     <use x="962.59375" xlink:href="#DejaVuSans-97"/>
     <use x="1023.873047" xlink:href="#DejaVuSans-116"/>
     <use x="1063.082031" xlink:href="#DejaVuSans-105"/>
     <use x="1090.865234" xlink:href="#DejaVuSans-118"/>
     <use x="1150.044922" xlink:href="#DejaVuSans-101"/>
     <use x="1211.568359" xlink:href="#DejaVuSans-32"/>
     <use x="1243.355469" xlink:href="#DejaVuSans-101"/>
     <use x="1304.878906" xlink:href="#DejaVuSans-114"/>
     <use x="1344.242188" xlink:href="#DejaVuSans-114"/>
     <use x="1385.355469" xlink:href="#DejaVuSans-32"/>
     <use x="1417.142578" xlink:href="#DejaVuSans-61"/>
     <use x="1500.931641" xlink:href="#DejaVuSans-32"/>
    </g>
   </g>
   <g id="legend_1">
    <g id="patch_7">
     <path d="M 97 226.503125 
L 185.6 226.503125 
Q 187.6 226.503125 187.6 224.503125 
L 187.6 93.4 
Q 187.6 91.4 185.6 91.4 
L 97 91.4 
Q 95 91.4 95 93.4 
L 95 224.503125 
Q 95 226.503125 97 226.503125 
z
" style="fill:#ffffff;opacity:0.8;stroke:#cccccc;stroke-linejoin:miter;"/>
    </g>
    <g id="line2d_41">
     <path d="M 99 99.498438 
L 119 99.498438 
" style="fill:none;stroke:#1f77b4;stroke-linecap:square;stroke-width:1.5;"/>
    </g>
    <g id="line2d_42"/>
    <g id="text_19">
     <!-- SI -->
     <g transform="translate(127 102.998438)scale(0.1 -0.1)">
      <defs>
       <path d="M 53.515625 70.515625 
L 53.515625 60.890625 
Q 47.90625 63.578125 42.921875 64.890625 
Q 37.9375 66.21875 33.296875 66.21875 
Q 25.25 66.21875 20.875 63.09375 
Q 16.5 59.96875 16.5 54.203125 
Q 16.5 49.359375 19.40625 46.890625 
Q 22.3125 44.4375 30.421875 42.921875 
L 36.375 41.703125 
Q 47.40625 39.59375 52.65625 34.296875 
Q 57.90625 29 57.90625 20.125 
Q 57.90625 9.515625 50.796875 4.046875 
Q 43.703125 -1.421875 29.984375 -1.421875 
Q 24.8125 -1.421875 18.96875 -0.25 
Q 13.140625 0.921875 6.890625 3.21875 
L 6.890625 13.375 
Q 12.890625 10.015625 18.65625 8.296875 
Q 24.421875 6.59375 29.984375 6.59375 
Q 38.421875 6.59375 43.015625 9.90625 
Q 47.609375 13.234375 47.609375 19.390625 
Q 47.609375 24.75 44.3125 27.78125 
Q 41.015625 30.8125 33.5 32.328125 
L 27.484375 33.5 
Q 16.453125 35.6875 11.515625 40.375 
Q 6.59375 45.0625 6.59375 53.421875 
Q 6.59375 63.09375 13.40625 68.65625 
Q 20.21875 74.21875 32.171875 74.21875 
Q 37.3125 74.21875 42.625 73.28125 
Q 47.953125 72.359375 53.515625 70.515625 
z
" id="DejaVuSans-83"/>
       <path d="M 9.8125 72.90625 
L 19.671875 72.90625 
L 19.671875 0 
L 9.8125 0 
z
" id="DejaVuSans-73"/>
      </defs>
      <use xlink:href="#DejaVuSans-83"/>
      <use x="63.476562" xlink:href="#DejaVuSans-73"/>
     </g>
    </g>
    <g id="line2d_43">
     <path d="M 99 114.176563 
L 119 114.176563 
" style="fill:none;stroke:#ff7f0e;stroke-linecap:square;stroke-width:1.5;"/>
    </g>
    <g id="line2d_44"/>
    <g id="text_20">
     <!-- BD -->
     <g transform="translate(127 117.676563)scale(0.1 -0.1)">
      <defs>
       <path d="M 19.671875 34.8125 
L 19.671875 8.109375 
L 35.5 8.109375 
Q 43.453125 8.109375 47.28125 11.40625 
Q 51.125 14.703125 51.125 21.484375 
Q 51.125 28.328125 47.28125 31.5625 
Q 43.453125 34.8125 35.5 34.8125 
z
M 19.671875 64.796875 
L 19.671875 42.828125 
L 34.28125 42.828125 
Q 41.5 42.828125 45.03125 45.53125 
Q 48.578125 48.25 48.578125 53.8125 
Q 48.578125 59.328125 45.03125 62.0625 
Q 41.5 64.796875 34.28125 64.796875 
z
M 9.8125 72.90625 
L 35.015625 72.90625 
Q 46.296875 72.90625 52.390625 68.21875 
Q 58.5 63.53125 58.5 54.890625 
Q 58.5 48.1875 55.375 44.234375 
Q 52.25 40.28125 46.1875 39.3125 
Q 53.46875 37.75 57.5 32.78125 
Q 61.53125 27.828125 61.53125 20.40625 
Q 61.53125 10.640625 54.890625 5.3125 
Q 48.25 0 35.984375 0 
L 9.8125 0 
z
" id="DejaVuSans-66"/>
      </defs>
      <use xlink:href="#DejaVuSans-66"/>
      <use x="68.603516" xlink:href="#DejaVuSans-68"/>
     </g>
    </g>
    <g id="line2d_45">
     <path d="M 99 128.854688 
L 119 128.854688 
" style="fill:none;stroke:#2ca02c;stroke-linecap:square;stroke-width:1.5;"/>
    </g>
    <g id="line2d_46"/>
    <g id="text_21">
     <!-- SIR -->
     <g transform="translate(127 132.354688)scale(0.1 -0.1)">
      <defs>
       <path d="M 44.390625 34.1875 
Q 47.5625 33.109375 50.5625 29.59375 
Q 53.5625 26.078125 56.59375 19.921875 
L 66.609375 0 
L 56 0 
L 46.6875 18.703125 
Q 43.0625 26.03125 39.671875 28.421875 
Q 36.28125 30.8125 30.421875 30.8125 
L 19.671875 30.8125 
L 19.671875 0 
L 9.8125 0 
L 9.8125 72.90625 
L 32.078125 72.90625 
Q 44.578125 72.90625 50.734375 67.671875 
Q 56.890625 62.453125 56.890625 51.90625 
Q 56.890625 45.015625 53.6875 40.46875 
Q 50.484375 35.9375 44.390625 34.1875 
z
M 19.671875 64.796875 
L 19.671875 38.921875 
L 32.078125 38.921875 
Q 39.203125 38.921875 42.84375 42.21875 
Q 46.484375 45.515625 46.484375 51.90625 
Q 46.484375 58.296875 42.84375 61.546875 
Q 39.203125 64.796875 32.078125 64.796875 
z
" id="DejaVuSans-82"/>
      </defs>
      <use xlink:href="#DejaVuSans-83"/>
      <use x="63.476562" xlink:href="#DejaVuSans-73"/>
      <use x="92.96875" xlink:href="#DejaVuSans-82"/>
     </g>
    </g>
    <g id="line2d_47">
     <path d="M 99 143.532812 
L 119 143.532812 
" style="fill:none;stroke:#d62728;stroke-linecap:square;stroke-width:1.5;"/>
    </g>
    <g id="line2d_48"/>
    <g id="text_22">
     <!-- eSIR -->
     <g transform="translate(127 147.032812)scale(0.1 -0.1)">
      <use xlink:href="#DejaVuSans-101"/>
      <use x="61.523438" xlink:href="#DejaVuSans-83"/>
      <use x="125" xlink:href="#DejaVuSans-73"/>
      <use x="154.492188" xlink:href="#DejaVuSans-82"/>
     </g>
    </g>
    <g id="line2d_49">
     <path d="M 99 158.210938 
L 119 158.210938 
" style="fill:none;stroke:#9467bd;stroke-linecap:square;stroke-width:1.5;"/>
    </g>
    <g id="line2d_50"/>
    <g id="text_23">
     <!-- SEIR -->
     <g transform="translate(127 161.710938)scale(0.1 -0.1)">
      <defs>
       <path d="M 9.8125 72.90625 
L 55.90625 72.90625 
L 55.90625 64.59375 
L 19.671875 64.59375 
L 19.671875 43.015625 
L 54.390625 43.015625 
L 54.390625 34.71875 
L 19.671875 34.71875 
L 19.671875 8.296875 
L 56.78125 8.296875 
L 56.78125 0 
L 9.8125 0 
z
" id="DejaVuSans-69"/>
      </defs>
      <use xlink:href="#DejaVuSans-83"/>
      <use x="63.476562" xlink:href="#DejaVuSans-69"/>
      <use x="126.660156" xlink:href="#DejaVuSans-73"/>
      <use x="156.152344" xlink:href="#DejaVuSans-82"/>
     </g>
    </g>
    <g id="line2d_51">
     <path d="M 99 172.889063 
L 119 172.889063 
" style="fill:none;stroke:#8c564b;stroke-linecap:square;stroke-width:1.5;"/>
    </g>
    <g id="line2d_52"/>
    <g id="text_24">
     <!-- eSEIR -->
     <g transform="translate(127 176.389063)scale(0.1 -0.1)">
      <use xlink:href="#DejaVuSans-101"/>
      <use x="61.523438" xlink:href="#DejaVuSans-83"/>
      <use x="125" xlink:href="#DejaVuSans-69"/>
      <use x="188.183594" xlink:href="#DejaVuSans-73"/>
      <use x="217.675781" xlink:href="#DejaVuSans-82"/>
     </g>
    </g>
    <g id="line2d_53">
     <path d="M 99 187.567188 
L 119 187.567188 
" style="fill:none;stroke:#e377c2;stroke-linecap:square;stroke-width:1.5;"/>
    </g>
    <g id="line2d_54"/>
    <g id="text_25">
     <!-- SEIUR -->
     <g transform="translate(127 191.067188)scale(0.1 -0.1)">
      <use xlink:href="#DejaVuSans-83"/>
      <use x="63.476562" xlink:href="#DejaVuSans-69"/>
      <use x="126.660156" xlink:href="#DejaVuSans-73"/>
      <use x="156.152344" xlink:href="#DejaVuSans-85"/>
      <use x="229.345703" xlink:href="#DejaVuSans-82"/>
     </g>
    </g>
    <g id="line2d_55">
     <path d="M 99 202.245312 
L 119 202.245312 
" style="fill:none;stroke:#7f7f7f;stroke-linecap:square;stroke-width:1.5;"/>
    </g>
    <g id="line2d_56"/>
    <g id="text_26">
     <!-- eSEIUR -->
     <g transform="translate(127 205.745312)scale(0.1 -0.1)">
      <use xlink:href="#DejaVuSans-101"/>
      <use x="61.523438" xlink:href="#DejaVuSans-83"/>
      <use x="125" xlink:href="#DejaVuSans-69"/>
      <use x="188.183594" xlink:href="#DejaVuSans-73"/>
      <use x="217.675781" xlink:href="#DejaVuSans-85"/>
      <use x="290.869141" xlink:href="#DejaVuSans-82"/>
     </g>
    </g>
    <g id="line2d_57">
     <path d="M 99 216.923437 
L 119 216.923437 
" style="fill:none;stroke:#bcbd22;stroke-linecap:square;stroke-width:1.5;"/>
    </g>
    <g id="line2d_58"/>
    <g id="text_27">
     <!-- eSEIUR$^{range}$ -->
     <g transform="translate(127 220.423437)scale(0.1 -0.1)">
      <defs>
       <path d="M 44.578125 46.390625 
Q 43.21875 47.125 41.453125 47.515625 
Q 39.703125 47.90625 37.703125 47.90625 
Q 30.515625 47.90625 25.140625 42.453125 
Q 19.78125 37.015625 18.015625 27.875 
L 12.5 0 
L 3.515625 0 
L 14.203125 54.6875 
L 23.1875 54.6875 
L 21.484375 46.1875 
Q 25.046875 50.921875 30 53.453125 
Q 34.96875 56 40.578125 56 
Q 42.046875 56 43.453125 55.828125 
Q 44.875 55.671875 46.296875 55.28125 
z
" id="DejaVuSans-Oblique-114"/>
       <path d="M 53.71875 31.203125 
L 47.609375 0 
L 38.625 0 
L 40.28125 8.296875 
Q 36.328125 3.421875 31.265625 1 
Q 26.21875 -1.421875 20.015625 -1.421875 
Q 13.03125 -1.421875 8.5625 2.84375 
Q 4.109375 7.125 4.109375 13.8125 
Q 4.109375 23.390625 11.75 28.953125 
Q 19.390625 34.515625 32.8125 34.515625 
L 45.3125 34.515625 
L 45.796875 36.921875 
Q 45.90625 37.3125 45.953125 37.765625 
Q 46 38.234375 46 39.203125 
Q 46 43.5625 42.453125 45.96875 
Q 38.921875 48.390625 32.515625 48.390625 
Q 28.125 48.390625 23.5 47.265625 
Q 18.890625 46.140625 14.015625 43.890625 
L 15.578125 52.203125 
Q 20.65625 54.109375 25.515625 55.046875 
Q 30.375 56 34.90625 56 
Q 44.578125 56 49.625 51.796875 
Q 54.6875 47.609375 54.6875 39.59375 
Q 54.6875 37.984375 54.4375 35.8125 
Q 54.203125 33.640625 53.71875 31.203125 
z
M 44 27.484375 
L 35.015625 27.484375 
Q 23.96875 27.484375 18.671875 24.53125 
Q 13.375 21.578125 13.375 15.375 
Q 13.375 11.078125 16.078125 8.640625 
Q 18.796875 6.203125 23.578125 6.203125 
Q 30.90625 6.203125 36.375 11.453125 
Q 41.84375 16.703125 43.609375 25.484375 
z
" id="DejaVuSans-Oblique-97"/>
       <path d="M 55.71875 33.015625 
L 49.3125 0 
L 40.28125 0 
L 46.6875 32.671875 
Q 47.125 34.96875 47.359375 36.71875 
Q 47.609375 38.484375 47.609375 39.5 
Q 47.609375 43.609375 45.015625 45.890625 
Q 42.4375 48.1875 37.796875 48.1875 
Q 30.5625 48.1875 25.34375 43.375 
Q 20.125 38.578125 18.5 30.328125 
L 12.5 0 
L 3.515625 0 
L 14.109375 54.6875 
L 23.09375 54.6875 
L 21.296875 46.09375 
Q 25.046875 50.828125 30.3125 53.40625 
Q 35.59375 56 41.40625 56 
Q 48.640625 56 52.609375 52.09375 
Q 56.59375 48.1875 56.59375 41.109375 
Q 56.59375 39.359375 56.375 37.359375 
Q 56.15625 35.359375 55.71875 33.015625 
z
" id="DejaVuSans-Oblique-110"/>
       <path d="M 59.625 54.6875 
L 50.296875 6.78125 
Q 47.609375 -7.125 40.015625 -13.953125 
Q 32.421875 -20.796875 19.578125 -20.796875 
Q 14.84375 -20.796875 10.78125 -20.09375 
Q 6.734375 -19.390625 3.21875 -17.921875 
L 4.890625 -9.1875 
Q 8.203125 -11.328125 11.90625 -12.34375 
Q 15.625 -13.375 19.828125 -13.375 
Q 28.375 -13.375 33.859375 -8.703125 
Q 39.359375 -4.046875 41.109375 4.6875 
L 41.890625 8.796875 
Q 38.140625 4.5 33.15625 2.25 
Q 28.171875 0 22.40625 0 
Q 14.109375 0 9.34375 5.484375 
Q 4.59375 10.984375 4.59375 20.609375 
Q 4.59375 28.171875 7.46875 35.421875 
Q 10.359375 42.671875 15.578125 48.296875 
Q 19.046875 52 23.65625 54 
Q 28.265625 56 33.296875 56 
Q 38.8125 56 42.90625 53.4375 
Q 47.015625 50.875 49.03125 46.1875 
L 50.59375 54.6875 
z
M 46.09375 34.625 
Q 46.09375 41.265625 42.96875 44.875 
Q 39.84375 48.484375 34.078125 48.484375 
Q 30.515625 48.484375 27.296875 47.0625 
Q 24.078125 45.65625 21.78125 43.109375 
Q 18.0625 38.921875 15.984375 33.234375 
Q 13.921875 27.546875 13.921875 21.484375 
Q 13.921875 14.75 17.0625 11.125 
Q 20.21875 7.515625 26.125 7.515625 
Q 34.671875 7.515625 40.375 15.25 
Q 46.09375 23 46.09375 34.625 
z
" id="DejaVuSans-Oblique-103"/>
       <path d="M 48.09375 32.234375 
Q 48.25 33.015625 48.3125 33.84375 
Q 48.390625 34.671875 48.390625 35.5 
Q 48.390625 41.453125 44.890625 44.921875 
Q 41.40625 48.390625 35.40625 48.390625 
Q 28.71875 48.390625 23.578125 44.15625 
Q 18.453125 39.9375 15.828125 32.171875 
z
M 55.90625 25.203125 
L 14.109375 25.203125 
Q 13.8125 23.34375 13.71875 22.265625 
Q 13.625 21.1875 13.625 20.40625 
Q 13.625 13.625 17.796875 9.90625 
Q 21.96875 6.203125 29.59375 6.203125 
Q 35.453125 6.203125 40.671875 7.515625 
Q 45.90625 8.84375 50.390625 11.375 
L 48.6875 2.484375 
Q 43.84375 0.53125 38.6875 -0.4375 
Q 33.546875 -1.421875 28.21875 -1.421875 
Q 16.84375 -1.421875 10.71875 4.015625 
Q 4.59375 9.46875 4.59375 19.484375 
Q 4.59375 28.03125 7.640625 35.375 
Q 10.6875 42.71875 16.609375 48.484375 
Q 20.40625 52.09375 25.65625 54.046875 
Q 30.90625 56 36.8125 56 
Q 46.09375 56 51.578125 50.4375 
Q 57.078125 44.875 57.078125 35.5 
Q 57.078125 33.25 56.78125 30.6875 
Q 56.5 28.125 55.90625 25.203125 
z
" id="DejaVuSans-Oblique-101"/>
      </defs>
      <use transform="translate(0 0.51875)" xlink:href="#DejaVuSans-101"/>
      <use transform="translate(61.523438 0.51875)" xlink:href="#DejaVuSans-83"/>
      <use transform="translate(125 0.51875)" xlink:href="#DejaVuSans-69"/>
      <use transform="translate(188.183594 0.51875)" xlink:href="#DejaVuSans-73"/>
      <use transform="translate(217.675781 0.51875)" xlink:href="#DejaVuSans-85"/>
      <use transform="translate(288.619141 0.51875)" xlink:href="#DejaVuSans-82"/>
      <use transform="translate(359.058594 38.8)scale(0.7)" xlink:href="#DejaVuSans-Oblique-114"/>
      <use transform="translate(387.837891 38.8)scale(0.7)" xlink:href="#DejaVuSans-Oblique-97"/>
      <use transform="translate(430.733398 38.8)scale(0.7)" xlink:href="#DejaVuSans-Oblique-110"/>
      <use transform="translate(475.098633 38.8)scale(0.7)" xlink:href="#DejaVuSans-Oblique-103"/>
      <use transform="translate(519.532227 38.8)scale(0.7)" xlink:href="#DejaVuSans-Oblique-101"/>
     </g>
    </g>
   </g>
  </g>
 </g>
 <defs>
  <clipPath id="pb4d4897971">
   <rect height="543.6" width="558" x="90" y="86.4"/>
  </clipPath>
 </defs>
</svg>
