<?xml version="1.0" encoding="utf-8" standalone="no"?>
<!DOCTYPE svg PUBLIC "-//W3C//DTD SVG 1.1//EN"
  "http://www.w3.org/Graphics/SVG/1.1/DTD/svg11.dtd">
<!-- Created with matplotlib (https://matplotlib.org/) -->
<svg height="720pt" version="1.1" viewBox="0 0 720 720" width="720pt" xmlns="http://www.w3.org/2000/svg" xmlns:xlink="http://www.w3.org/1999/xlink">
 <metadata>
  <rdf:RDF xmlns:cc="http://creativecommons.org/ns#" xmlns:dc="http://purl.org/dc/elements/1.1/" xmlns:rdf="http://www.w3.org/1999/02/22-rdf-syntax-ns#">
   <cc:Work>
    <dc:type rdf:resource="http://purl.org/dc/dcmitype/StillImage"/>
    <dc:date>2022-07-13T18:54:10.989090</dc:date>
    <dc:format>image/svg+xml</dc:format>
    <dc:creator>
     <cc:Agent>
      <dc:title>Matplotlib v3.3.2, https://matplotlib.org/</dc:title>
     </cc:Agent>
    </dc:creator>
   </cc:Work>
  </rdf:RDF>
 </metadata>
 <defs>
  <style type="text/css">*{stroke-linecap:butt;stroke-linejoin:round;}</style>
 </defs>
 <g id="figure_1">
  <g id="patch_1">
   <path d="M 0 720 
L 720 720 
L 720 0 
L 0 0 
z
" style="fill:none;"/>
  </g>
  <g id="axes_1">
   <g id="patch_2">
    <path d="M 90 630 
L 648 630 
L 648 86.4 
L 90 86.4 
z
" style="fill:#ffffff;"/>
   </g>
   <g id="matplotlib.axis_1">
    <g id="xtick_1">
     <g id="line2d_1">
      <path clip-path="url(#p456d9d5054)" d="M 115.363636 630 
L 115.363636 86.4 
" style="fill:none;stroke:#b0b0b0;stroke-linecap:square;stroke-width:0.8;"/>
     </g>
     <g id="line2d_2">
      <defs>
       <path d="M 0 0 
L 0 3.5 
" id="m755984c439" style="stroke:#000000;stroke-width:0.8;"/>
      </defs>
      <g>
       <use style="stroke:#000000;stroke-width:0.8;" x="115.363636" xlink:href="#m755984c439" y="630"/>
      </g>
     </g>
     <g id="text_1">
      <!-- 0 -->
      <g transform="translate(112.182386 644.598438)scale(0.1 -0.1)">
       <defs>
        <path d="M 31.78125 66.40625 
Q 24.171875 66.40625 20.328125 58.90625 
Q 16.5 51.421875 16.5 36.375 
Q 16.5 21.390625 20.328125 13.890625 
Q 24.171875 6.390625 31.78125 6.390625 
Q 39.453125 6.390625 43.28125 13.890625 
Q 47.125 21.390625 47.125 36.375 
Q 47.125 51.421875 43.28125 58.90625 
Q 39.453125 66.40625 31.78125 66.40625 
z
M 31.78125 74.21875 
Q 44.046875 74.21875 50.515625 64.515625 
Q 56.984375 54.828125 56.984375 36.375 
Q 56.984375 17.96875 50.515625 8.265625 
Q 44.046875 -1.421875 31.78125 -1.421875 
Q 19.53125 -1.421875 13.0625 8.265625 
Q 6.59375 17.96875 6.59375 36.375 
Q 6.59375 54.828125 13.0625 64.515625 
Q 19.53125 74.21875 31.78125 74.21875 
z
" id="DejaVuSans-48"/>
       </defs>
       <use xlink:href="#DejaVuSans-48"/>
      </g>
     </g>
    </g>
    <g id="xtick_2">
     <g id="line2d_3">
      <path clip-path="url(#p456d9d5054)" d="M 177.989899 630 
L 177.989899 86.4 
" style="fill:none;stroke:#b0b0b0;stroke-linecap:square;stroke-width:0.8;"/>
     </g>
     <g id="line2d_4">
      <g>
       <use style="stroke:#000000;stroke-width:0.8;" x="177.989899" xlink:href="#m755984c439" y="630"/>
      </g>
     </g>
     <g id="text_2">
      <!-- 10 -->
      <g transform="translate(171.627399 644.598438)scale(0.1 -0.1)">
       <defs>
        <path d="M 12.40625 8.296875 
L 28.515625 8.296875 
L 28.515625 63.921875 
L 10.984375 60.40625 
L 10.984375 69.390625 
L 28.421875 72.90625 
L 38.28125 72.90625 
L 38.28125 8.296875 
L 54.390625 8.296875 
L 54.390625 0 
L 12.40625 0 
z
" id="DejaVuSans-49"/>
       </defs>
       <use xlink:href="#DejaVuSans-49"/>
       <use x="63.623047" xlink:href="#DejaVuSans-48"/>
      </g>
     </g>
    </g>
    <g id="xtick_3">
     <g id="line2d_5">
      <path clip-path="url(#p456d9d5054)" d="M 240.616162 630 
L 240.616162 86.4 
" style="fill:none;stroke:#b0b0b0;stroke-linecap:square;stroke-width:0.8;"/>
     </g>
     <g id="line2d_6">
      <g>
       <use style="stroke:#000000;stroke-width:0.8;" x="240.616162" xlink:href="#m755984c439" y="630"/>
      </g>
     </g>
     <g id="text_3">
      <!-- 20 -->
      <g transform="translate(234.253662 644.598438)scale(0.1 -0.1)">
       <defs>
        <path d="M 19.1875 8.296875 
L 53.609375 8.296875 
L 53.609375 0 
L 7.328125 0 
L 7.328125 8.296875 
Q 12.9375 14.109375 22.625 23.890625 
Q 32.328125 33.6875 34.8125 36.53125 
Q 39.546875 41.84375 41.421875 45.53125 
Q 43.3125 49.21875 43.3125 52.78125 
Q 43.3125 58.59375 39.234375 62.25 
Q 35.15625 65.921875 28.609375 65.921875 
Q 23.96875 65.921875 18.8125 64.3125 
Q 13.671875 62.703125 7.8125 59.421875 
L 7.8125 69.390625 
Q 13.765625 71.78125 18.9375 73 
Q 24.125 74.21875 28.421875 74.21875 
Q 39.75 74.21875 46.484375 68.546875 
Q 53.21875 62.890625 53.21875 53.421875 
Q 53.21875 48.921875 51.53125 44.890625 
Q 49.859375 40.875 45.40625 35.40625 
Q 44.1875 33.984375 37.640625 27.21875 
Q 31.109375 20.453125 19.1875 8.296875 
z
" id="DejaVuSans-50"/>
       </defs>
       <use xlink:href="#DejaVuSans-50"/>
       <use x="63.623047" xlink:href="#DejaVuSans-48"/>
      </g>
     </g>
    </g>
    <g id="xtick_4">
     <g id="line2d_7">
      <path clip-path="url(#p456d9d5054)" d="M 303.242424 630 
L 303.242424 86.4 
" style="fill:none;stroke:#b0b0b0;stroke-linecap:square;stroke-width:0.8;"/>
     </g>
     <g id="line2d_8">
      <g>
       <use style="stroke:#000000;stroke-width:0.8;" x="303.242424" xlink:href="#m755984c439" y="630"/>
      </g>
     </g>
     <g id="text_4">
      <!-- 30 -->
      <g transform="translate(296.879924 644.598438)scale(0.1 -0.1)">
       <defs>
        <path d="M 40.578125 39.3125 
Q 47.65625 37.796875 51.625 33 
Q 55.609375 28.21875 55.609375 21.1875 
Q 55.609375 10.40625 48.1875 4.484375 
Q 40.765625 -1.421875 27.09375 -1.421875 
Q 22.515625 -1.421875 17.65625 -0.515625 
Q 12.796875 0.390625 7.625 2.203125 
L 7.625 11.71875 
Q 11.71875 9.328125 16.59375 8.109375 
Q 21.484375 6.890625 26.8125 6.890625 
Q 36.078125 6.890625 40.9375 10.546875 
Q 45.796875 14.203125 45.796875 21.1875 
Q 45.796875 27.640625 41.28125 31.265625 
Q 36.765625 34.90625 28.71875 34.90625 
L 20.21875 34.90625 
L 20.21875 43.015625 
L 29.109375 43.015625 
Q 36.375 43.015625 40.234375 45.921875 
Q 44.09375 48.828125 44.09375 54.296875 
Q 44.09375 59.90625 40.109375 62.90625 
Q 36.140625 65.921875 28.71875 65.921875 
Q 24.65625 65.921875 20.015625 65.03125 
Q 15.375 64.15625 9.8125 62.3125 
L 9.8125 71.09375 
Q 15.4375 72.65625 20.34375 73.4375 
Q 25.25 74.21875 29.59375 74.21875 
Q 40.828125 74.21875 47.359375 69.109375 
Q 53.90625 64.015625 53.90625 55.328125 
Q 53.90625 49.265625 50.4375 45.09375 
Q 46.96875 40.921875 40.578125 39.3125 
z
" id="DejaVuSans-51"/>
       </defs>
       <use xlink:href="#DejaVuSans-51"/>
       <use x="63.623047" xlink:href="#DejaVuSans-48"/>
      </g>
     </g>
    </g>
    <g id="xtick_5">
     <g id="line2d_9">
      <path clip-path="url(#p456d9d5054)" d="M 365.868687 630 
L 365.868687 86.4 
" style="fill:none;stroke:#b0b0b0;stroke-linecap:square;stroke-width:0.8;"/>
     </g>
     <g id="line2d_10">
      <g>
       <use style="stroke:#000000;stroke-width:0.8;" x="365.868687" xlink:href="#m755984c439" y="630"/>
      </g>
     </g>
     <g id="text_5">
      <!-- 40 -->
      <g transform="translate(359.506187 644.598438)scale(0.1 -0.1)">
       <defs>
        <path d="M 37.796875 64.3125 
L 12.890625 25.390625 
L 37.796875 25.390625 
z
M 35.203125 72.90625 
L 47.609375 72.90625 
L 47.609375 25.390625 
L 58.015625 25.390625 
L 58.015625 17.1875 
L 47.609375 17.1875 
L 47.609375 0 
L 37.796875 0 
L 37.796875 17.1875 
L 4.890625 17.1875 
L 4.890625 26.703125 
z
" id="DejaVuSans-52"/>
       </defs>
       <use xlink:href="#DejaVuSans-52"/>
       <use x="63.623047" xlink:href="#DejaVuSans-48"/>
      </g>
     </g>
    </g>
    <g id="xtick_6">
     <g id="line2d_11">
      <path clip-path="url(#p456d9d5054)" d="M 428.494949 630 
L 428.494949 86.4 
" style="fill:none;stroke:#b0b0b0;stroke-linecap:square;stroke-width:0.8;"/>
     </g>
     <g id="line2d_12">
      <g>
       <use style="stroke:#000000;stroke-width:0.8;" x="428.494949" xlink:href="#m755984c439" y="630"/>
      </g>
     </g>
     <g id="text_6">
      <!-- 50 -->
      <g transform="translate(422.132449 644.598438)scale(0.1 -0.1)">
       <defs>
        <path d="M 10.796875 72.90625 
L 49.515625 72.90625 
L 49.515625 64.59375 
L 19.828125 64.59375 
L 19.828125 46.734375 
Q 21.96875 47.46875 24.109375 47.828125 
Q 26.265625 48.1875 28.421875 48.1875 
Q 40.625 48.1875 47.75 41.5 
Q 54.890625 34.8125 54.890625 23.390625 
Q 54.890625 11.625 47.5625 5.09375 
Q 40.234375 -1.421875 26.90625 -1.421875 
Q 22.3125 -1.421875 17.546875 -0.640625 
Q 12.796875 0.140625 7.71875 1.703125 
L 7.71875 11.625 
Q 12.109375 9.234375 16.796875 8.0625 
Q 21.484375 6.890625 26.703125 6.890625 
Q 35.15625 6.890625 40.078125 11.328125 
Q 45.015625 15.765625 45.015625 23.390625 
Q 45.015625 31 40.078125 35.4375 
Q 35.15625 39.890625 26.703125 39.890625 
Q 22.75 39.890625 18.8125 39.015625 
Q 14.890625 38.140625 10.796875 36.28125 
z
" id="DejaVuSans-53"/>
       </defs>
       <use xlink:href="#DejaVuSans-53"/>
       <use x="63.623047" xlink:href="#DejaVuSans-48"/>
      </g>
     </g>
    </g>
    <g id="xtick_7">
     <g id="line2d_13">
      <path clip-path="url(#p456d9d5054)" d="M 491.121212 630 
L 491.121212 86.4 
" style="fill:none;stroke:#b0b0b0;stroke-linecap:square;stroke-width:0.8;"/>
     </g>
     <g id="line2d_14">
      <g>
       <use style="stroke:#000000;stroke-width:0.8;" x="491.121212" xlink:href="#m755984c439" y="630"/>
      </g>
     </g>
     <g id="text_7">
      <!-- 60 -->
      <g transform="translate(484.758712 644.598438)scale(0.1 -0.1)">
       <defs>
        <path d="M 33.015625 40.375 
Q 26.375 40.375 22.484375 35.828125 
Q 18.609375 31.296875 18.609375 23.390625 
Q 18.609375 15.53125 22.484375 10.953125 
Q 26.375 6.390625 33.015625 6.390625 
Q 39.65625 6.390625 43.53125 10.953125 
Q 47.40625 15.53125 47.40625 23.390625 
Q 47.40625 31.296875 43.53125 35.828125 
Q 39.65625 40.375 33.015625 40.375 
z
M 52.59375 71.296875 
L 52.59375 62.3125 
Q 48.875 64.0625 45.09375 64.984375 
Q 41.3125 65.921875 37.59375 65.921875 
Q 27.828125 65.921875 22.671875 59.328125 
Q 17.53125 52.734375 16.796875 39.40625 
Q 19.671875 43.65625 24.015625 45.921875 
Q 28.375 48.1875 33.59375 48.1875 
Q 44.578125 48.1875 50.953125 41.515625 
Q 57.328125 34.859375 57.328125 23.390625 
Q 57.328125 12.15625 50.6875 5.359375 
Q 44.046875 -1.421875 33.015625 -1.421875 
Q 20.359375 -1.421875 13.671875 8.265625 
Q 6.984375 17.96875 6.984375 36.375 
Q 6.984375 53.65625 15.1875 63.9375 
Q 23.390625 74.21875 37.203125 74.21875 
Q 40.921875 74.21875 44.703125 73.484375 
Q 48.484375 72.75 52.59375 71.296875 
z
" id="DejaVuSans-54"/>
       </defs>
       <use xlink:href="#DejaVuSans-54"/>
       <use x="63.623047" xlink:href="#DejaVuSans-48"/>
      </g>
     </g>
    </g>
    <g id="xtick_8">
     <g id="line2d_15">
      <path clip-path="url(#p456d9d5054)" d="M 553.747475 630 
L 553.747475 86.4 
" style="fill:none;stroke:#b0b0b0;stroke-linecap:square;stroke-width:0.8;"/>
     </g>
     <g id="line2d_16">
      <g>
       <use style="stroke:#000000;stroke-width:0.8;" x="553.747475" xlink:href="#m755984c439" y="630"/>
      </g>
     </g>
     <g id="text_8">
      <!-- 70 -->
      <g transform="translate(547.384975 644.598438)scale(0.1 -0.1)">
       <defs>
        <path d="M 8.203125 72.90625 
L 55.078125 72.90625 
L 55.078125 68.703125 
L 28.609375 0 
L 18.3125 0 
L 43.21875 64.59375 
L 8.203125 64.59375 
z
" id="DejaVuSans-55"/>
       </defs>
       <use xlink:href="#DejaVuSans-55"/>
       <use x="63.623047" xlink:href="#DejaVuSans-48"/>
      </g>
     </g>
    </g>
    <g id="xtick_9">
     <g id="line2d_17">
      <path clip-path="url(#p456d9d5054)" d="M 616.373737 630 
L 616.373737 86.4 
" style="fill:none;stroke:#b0b0b0;stroke-linecap:square;stroke-width:0.8;"/>
     </g>
     <g id="line2d_18">
      <g>
       <use style="stroke:#000000;stroke-width:0.8;" x="616.373737" xlink:href="#m755984c439" y="630"/>
      </g>
     </g>
     <g id="text_9">
      <!-- 80 -->
      <g transform="translate(610.011237 644.598438)scale(0.1 -0.1)">
       <defs>
        <path d="M 31.78125 34.625 
Q 24.75 34.625 20.71875 30.859375 
Q 16.703125 27.09375 16.703125 20.515625 
Q 16.703125 13.921875 20.71875 10.15625 
Q 24.75 6.390625 31.78125 6.390625 
Q 38.8125 6.390625 42.859375 10.171875 
Q 46.921875 13.96875 46.921875 20.515625 
Q 46.921875 27.09375 42.890625 30.859375 
Q 38.875 34.625 31.78125 34.625 
z
M 21.921875 38.8125 
Q 15.578125 40.375 12.03125 44.71875 
Q 8.5 49.078125 8.5 55.328125 
Q 8.5 64.0625 14.71875 69.140625 
Q 20.953125 74.21875 31.78125 74.21875 
Q 42.671875 74.21875 48.875 69.140625 
Q 55.078125 64.0625 55.078125 55.328125 
Q 55.078125 49.078125 51.53125 44.71875 
Q 48 40.375 41.703125 38.8125 
Q 48.828125 37.15625 52.796875 32.3125 
Q 56.78125 27.484375 56.78125 20.515625 
Q 56.78125 9.90625 50.3125 4.234375 
Q 43.84375 -1.421875 31.78125 -1.421875 
Q 19.734375 -1.421875 13.25 4.234375 
Q 6.78125 9.90625 6.78125 20.515625 
Q 6.78125 27.484375 10.78125 32.3125 
Q 14.796875 37.15625 21.921875 38.8125 
z
M 18.3125 54.390625 
Q 18.3125 48.734375 21.84375 45.5625 
Q 25.390625 42.390625 31.78125 42.390625 
Q 38.140625 42.390625 41.71875 45.5625 
Q 45.3125 48.734375 45.3125 54.390625 
Q 45.3125 60.0625 41.71875 63.234375 
Q 38.140625 66.40625 31.78125 66.40625 
Q 25.390625 66.40625 21.84375 63.234375 
Q 18.3125 60.0625 18.3125 54.390625 
z
" id="DejaVuSans-56"/>
       </defs>
       <use xlink:href="#DejaVuSans-56"/>
       <use x="63.623047" xlink:href="#DejaVuSans-48"/>
      </g>
     </g>
    </g>
    <g id="text_10">
     <!-- Days -->
     <g transform="translate(356.521875 658.276562)scale(0.1 -0.1)">
      <defs>
       <path d="M 19.671875 64.796875 
L 19.671875 8.109375 
L 31.59375 8.109375 
Q 46.6875 8.109375 53.6875 14.9375 
Q 60.6875 21.78125 60.6875 36.53125 
Q 60.6875 51.171875 53.6875 57.984375 
Q 46.6875 64.796875 31.59375 64.796875 
z
M 9.8125 72.90625 
L 30.078125 72.90625 
Q 51.265625 72.90625 61.171875 64.09375 
Q 71.09375 55.28125 71.09375 36.53125 
Q 71.09375 17.671875 61.125 8.828125 
Q 51.171875 0 30.078125 0 
L 9.8125 0 
z
" id="DejaVuSans-68"/>
       <path d="M 34.28125 27.484375 
Q 23.390625 27.484375 19.1875 25 
Q 14.984375 22.515625 14.984375 16.5 
Q 14.984375 11.71875 18.140625 8.90625 
Q 21.296875 6.109375 26.703125 6.109375 
Q 34.1875 6.109375 38.703125 11.40625 
Q 43.21875 16.703125 43.21875 25.484375 
L 43.21875 27.484375 
z
M 52.203125 31.203125 
L 52.203125 0 
L 43.21875 0 
L 43.21875 8.296875 
Q 40.140625 3.328125 35.546875 0.953125 
Q 30.953125 -1.421875 24.3125 -1.421875 
Q 15.921875 -1.421875 10.953125 3.296875 
Q 6 8.015625 6 15.921875 
Q 6 25.140625 12.171875 29.828125 
Q 18.359375 34.515625 30.609375 34.515625 
L 43.21875 34.515625 
L 43.21875 35.40625 
Q 43.21875 41.609375 39.140625 45 
Q 35.0625 48.390625 27.6875 48.390625 
Q 23 48.390625 18.546875 47.265625 
Q 14.109375 46.140625 10.015625 43.890625 
L 10.015625 52.203125 
Q 14.9375 54.109375 19.578125 55.046875 
Q 24.21875 56 28.609375 56 
Q 40.484375 56 46.34375 49.84375 
Q 52.203125 43.703125 52.203125 31.203125 
z
" id="DejaVuSans-97"/>
       <path d="M 32.171875 -5.078125 
Q 28.375 -14.84375 24.75 -17.8125 
Q 21.140625 -20.796875 15.09375 -20.796875 
L 7.90625 -20.796875 
L 7.90625 -13.28125 
L 13.1875 -13.28125 
Q 16.890625 -13.28125 18.9375 -11.515625 
Q 21 -9.765625 23.484375 -3.21875 
L 25.09375 0.875 
L 2.984375 54.6875 
L 12.5 54.6875 
L 29.59375 11.921875 
L 46.6875 54.6875 
L 56.203125 54.6875 
z
" id="DejaVuSans-121"/>
       <path d="M 44.28125 53.078125 
L 44.28125 44.578125 
Q 40.484375 46.53125 36.375 47.5 
Q 32.28125 48.484375 27.875 48.484375 
Q 21.1875 48.484375 17.84375 46.4375 
Q 14.5 44.390625 14.5 40.28125 
Q 14.5 37.15625 16.890625 35.375 
Q 19.28125 33.59375 26.515625 31.984375 
L 29.59375 31.296875 
Q 39.15625 29.25 43.1875 25.515625 
Q 47.21875 21.78125 47.21875 15.09375 
Q 47.21875 7.46875 41.1875 3.015625 
Q 35.15625 -1.421875 24.609375 -1.421875 
Q 20.21875 -1.421875 15.453125 -0.5625 
Q 10.6875 0.296875 5.421875 2 
L 5.421875 11.28125 
Q 10.40625 8.6875 15.234375 7.390625 
Q 20.0625 6.109375 24.8125 6.109375 
Q 31.15625 6.109375 34.5625 8.28125 
Q 37.984375 10.453125 37.984375 14.40625 
Q 37.984375 18.0625 35.515625 20.015625 
Q 33.0625 21.96875 24.703125 23.78125 
L 21.578125 24.515625 
Q 13.234375 26.265625 9.515625 29.90625 
Q 5.8125 33.546875 5.8125 39.890625 
Q 5.8125 47.609375 11.28125 51.796875 
Q 16.75 56 26.8125 56 
Q 31.78125 56 36.171875 55.265625 
Q 40.578125 54.546875 44.28125 53.078125 
z
" id="DejaVuSans-115"/>
      </defs>
      <use xlink:href="#DejaVuSans-68"/>
      <use x="77.001953" xlink:href="#DejaVuSans-97"/>
      <use x="138.28125" xlink:href="#DejaVuSans-121"/>
      <use x="197.460938" xlink:href="#DejaVuSans-115"/>
     </g>
    </g>
   </g>
   <g id="matplotlib.axis_2">
    <g id="ytick_1">
     <g id="line2d_19">
      <path clip-path="url(#p456d9d5054)" d="M 90 606.785851 
L 648 606.785851 
" style="fill:none;stroke:#b0b0b0;stroke-linecap:square;stroke-width:0.8;"/>
     </g>
     <g id="line2d_20">
      <defs>
       <path d="M 0 0 
L -3.5 0 
" id="m9c649f0da8" style="stroke:#000000;stroke-width:0.8;"/>
      </defs>
      <g>
       <use style="stroke:#000000;stroke-width:0.8;" x="90" xlink:href="#m9c649f0da8" y="606.785851"/>
      </g>
     </g>
     <g id="text_11">
      <!-- 0 -->
      <g transform="translate(76.6375 610.58507)scale(0.1 -0.1)">
       <use xlink:href="#DejaVuSans-48"/>
      </g>
     </g>
    </g>
    <g id="ytick_2">
     <g id="line2d_21">
      <path clip-path="url(#p456d9d5054)" d="M 90 521.360578 
L 648 521.360578 
" style="fill:none;stroke:#b0b0b0;stroke-linecap:square;stroke-width:0.8;"/>
     </g>
     <g id="line2d_22">
      <g>
       <use style="stroke:#000000;stroke-width:0.8;" x="90" xlink:href="#m9c649f0da8" y="521.360578"/>
      </g>
     </g>
     <g id="text_12">
      <!-- 2000 -->
      <g transform="translate(57.55 525.159797)scale(0.1 -0.1)">
       <use xlink:href="#DejaVuSans-50"/>
       <use x="63.623047" xlink:href="#DejaVuSans-48"/>
       <use x="127.246094" xlink:href="#DejaVuSans-48"/>
       <use x="190.869141" xlink:href="#DejaVuSans-48"/>
      </g>
     </g>
    </g>
    <g id="ytick_3">
     <g id="line2d_23">
      <path clip-path="url(#p456d9d5054)" d="M 90 435.935305 
L 648 435.935305 
" style="fill:none;stroke:#b0b0b0;stroke-linecap:square;stroke-width:0.8;"/>
     </g>
     <g id="line2d_24">
      <g>
       <use style="stroke:#000000;stroke-width:0.8;" x="90" xlink:href="#m9c649f0da8" y="435.935305"/>
      </g>
     </g>
     <g id="text_13">
      <!-- 4000 -->
      <g transform="translate(57.55 439.734523)scale(0.1 -0.1)">
       <use xlink:href="#DejaVuSans-52"/>
       <use x="63.623047" xlink:href="#DejaVuSans-48"/>
       <use x="127.246094" xlink:href="#DejaVuSans-48"/>
       <use x="190.869141" xlink:href="#DejaVuSans-48"/>
      </g>
     </g>
    </g>
    <g id="ytick_4">
     <g id="line2d_25">
      <path clip-path="url(#p456d9d5054)" d="M 90 350.510031 
L 648 350.510031 
" style="fill:none;stroke:#b0b0b0;stroke-linecap:square;stroke-width:0.8;"/>
     </g>
     <g id="line2d_26">
      <g>
       <use style="stroke:#000000;stroke-width:0.8;" x="90" xlink:href="#m9c649f0da8" y="350.510031"/>
      </g>
     </g>
     <g id="text_14">
      <!-- 6000 -->
      <g transform="translate(57.55 354.30925)scale(0.1 -0.1)">
       <use xlink:href="#DejaVuSans-54"/>
       <use x="63.623047" xlink:href="#DejaVuSans-48"/>
       <use x="127.246094" xlink:href="#DejaVuSans-48"/>
       <use x="190.869141" xlink:href="#DejaVuSans-48"/>
      </g>
     </g>
    </g>
    <g id="ytick_5">
     <g id="line2d_27">
      <path clip-path="url(#p456d9d5054)" d="M 90 265.084758 
L 648 265.084758 
" style="fill:none;stroke:#b0b0b0;stroke-linecap:square;stroke-width:0.8;"/>
     </g>
     <g id="line2d_28">
      <g>
       <use style="stroke:#000000;stroke-width:0.8;" x="90" xlink:href="#m9c649f0da8" y="265.084758"/>
      </g>
     </g>
     <g id="text_15">
      <!-- 8000 -->
      <g transform="translate(57.55 268.883977)scale(0.1 -0.1)">
       <use xlink:href="#DejaVuSans-56"/>
       <use x="63.623047" xlink:href="#DejaVuSans-48"/>
       <use x="127.246094" xlink:href="#DejaVuSans-48"/>
       <use x="190.869141" xlink:href="#DejaVuSans-48"/>
      </g>
     </g>
    </g>
    <g id="ytick_6">
     <g id="line2d_29">
      <path clip-path="url(#p456d9d5054)" d="M 90 179.659484 
L 648 179.659484 
" style="fill:none;stroke:#b0b0b0;stroke-linecap:square;stroke-width:0.8;"/>
     </g>
     <g id="line2d_30">
      <g>
       <use style="stroke:#000000;stroke-width:0.8;" x="90" xlink:href="#m9c649f0da8" y="179.659484"/>
      </g>
     </g>
     <g id="text_16">
      <!-- 10000 -->
      <g transform="translate(51.1875 183.458703)scale(0.1 -0.1)">
       <use xlink:href="#DejaVuSans-49"/>
       <use x="63.623047" xlink:href="#DejaVuSans-48"/>
       <use x="127.246094" xlink:href="#DejaVuSans-48"/>
       <use x="190.869141" xlink:href="#DejaVuSans-48"/>
       <use x="254.492188" xlink:href="#DejaVuSans-48"/>
      </g>
     </g>
    </g>
    <g id="ytick_7">
     <g id="line2d_31">
      <path clip-path="url(#p456d9d5054)" d="M 90 94.234211 
L 648 94.234211 
" style="fill:none;stroke:#b0b0b0;stroke-linecap:square;stroke-width:0.8;"/>
     </g>
     <g id="line2d_32">
      <g>
       <use style="stroke:#000000;stroke-width:0.8;" x="90" xlink:href="#m9c649f0da8" y="94.234211"/>
      </g>
     </g>
     <g id="text_17">
      <!-- 12000 -->
      <g transform="translate(51.1875 98.03343)scale(0.1 -0.1)">
       <use xlink:href="#DejaVuSans-49"/>
       <use x="63.623047" xlink:href="#DejaVuSans-50"/>
       <use x="127.246094" xlink:href="#DejaVuSans-48"/>
       <use x="190.869141" xlink:href="#DejaVuSans-48"/>
       <use x="254.492188" xlink:href="#DejaVuSans-48"/>
      </g>
     </g>
    </g>
    <g id="text_18">
     <!-- Cumulative cases -->
     <g transform="translate(45.107812 402.425781)rotate(-90)scale(0.1 -0.1)">
      <defs>
       <path d="M 64.40625 67.28125 
L 64.40625 56.890625 
Q 59.421875 61.53125 53.78125 63.8125 
Q 48.140625 66.109375 41.796875 66.109375 
Q 29.296875 66.109375 22.65625 58.46875 
Q 16.015625 50.828125 16.015625 36.375 
Q 16.015625 21.96875 22.65625 14.328125 
Q 29.296875 6.6875 41.796875 6.6875 
Q 48.140625 6.6875 53.78125 8.984375 
Q 59.421875 11.28125 64.40625 15.921875 
L 64.40625 5.609375 
Q 59.234375 2.09375 53.4375 0.328125 
Q 47.65625 -1.421875 41.21875 -1.421875 
Q 24.65625 -1.421875 15.125 8.703125 
Q 5.609375 18.84375 5.609375 36.375 
Q 5.609375 53.953125 15.125 64.078125 
Q 24.65625 74.21875 41.21875 74.21875 
Q 47.75 74.21875 53.53125 72.484375 
Q 59.328125 70.75 64.40625 67.28125 
z
" id="DejaVuSans-67"/>
       <path d="M 8.5 21.578125 
L 8.5 54.6875 
L 17.484375 54.6875 
L 17.484375 21.921875 
Q 17.484375 14.15625 20.5 10.265625 
Q 23.53125 6.390625 29.59375 6.390625 
Q 36.859375 6.390625 41.078125 11.03125 
Q 45.3125 15.671875 45.3125 23.6875 
L 45.3125 54.6875 
L 54.296875 54.6875 
L 54.296875 0 
L 45.3125 0 
L 45.3125 8.40625 
Q 42.046875 3.421875 37.71875 1 
Q 33.40625 -1.421875 27.6875 -1.421875 
Q 18.265625 -1.421875 13.375 4.4375 
Q 8.5 10.296875 8.5 21.578125 
z
M 31.109375 56 
z
" id="DejaVuSans-117"/>
       <path d="M 52 44.1875 
Q 55.375 50.25 60.0625 53.125 
Q 64.75 56 71.09375 56 
Q 79.640625 56 84.28125 50.015625 
Q 88.921875 44.046875 88.921875 33.015625 
L 88.921875 0 
L 79.890625 0 
L 79.890625 32.71875 
Q 79.890625 40.578125 77.09375 44.375 
Q 74.3125 48.1875 68.609375 48.1875 
Q 61.625 48.1875 57.5625 43.546875 
Q 53.515625 38.921875 53.515625 30.90625 
L 53.515625 0 
L 44.484375 0 
L 44.484375 32.71875 
Q 44.484375 40.625 41.703125 44.40625 
Q 38.921875 48.1875 33.109375 48.1875 
Q 26.21875 48.1875 22.15625 43.53125 
Q 18.109375 38.875 18.109375 30.90625 
L 18.109375 0 
L 9.078125 0 
L 9.078125 54.6875 
L 18.109375 54.6875 
L 18.109375 46.1875 
Q 21.1875 51.21875 25.484375 53.609375 
Q 29.78125 56 35.6875 56 
Q 41.65625 56 45.828125 52.96875 
Q 50 49.953125 52 44.1875 
z
" id="DejaVuSans-109"/>
       <path d="M 9.421875 75.984375 
L 18.40625 75.984375 
L 18.40625 0 
L 9.421875 0 
z
" id="DejaVuSans-108"/>
       <path d="M 18.3125 70.21875 
L 18.3125 54.6875 
L 36.8125 54.6875 
L 36.8125 47.703125 
L 18.3125 47.703125 
L 18.3125 18.015625 
Q 18.3125 11.328125 20.140625 9.421875 
Q 21.96875 7.515625 27.59375 7.515625 
L 36.8125 7.515625 
L 36.8125 0 
L 27.59375 0 
Q 17.1875 0 13.234375 3.875 
Q 9.28125 7.765625 9.28125 18.015625 
L 9.28125 47.703125 
L 2.6875 47.703125 
L 2.6875 54.6875 
L 9.28125 54.6875 
L 9.28125 70.21875 
z
" id="DejaVuSans-116"/>
       <path d="M 9.421875 54.6875 
L 18.40625 54.6875 
L 18.40625 0 
L 9.421875 0 
z
M 9.421875 75.984375 
L 18.40625 75.984375 
L 18.40625 64.59375 
L 9.421875 64.59375 
z
" id="DejaVuSans-105"/>
       <path d="M 2.984375 54.6875 
L 12.5 54.6875 
L 29.59375 8.796875 
L 46.6875 54.6875 
L 56.203125 54.6875 
L 35.6875 0 
L 23.484375 0 
z
" id="DejaVuSans-118"/>
       <path d="M 56.203125 29.59375 
L 56.203125 25.203125 
L 14.890625 25.203125 
Q 15.484375 15.921875 20.484375 11.0625 
Q 25.484375 6.203125 34.421875 6.203125 
Q 39.59375 6.203125 44.453125 7.46875 
Q 49.3125 8.734375 54.109375 11.28125 
L 54.109375 2.78125 
Q 49.265625 0.734375 44.1875 -0.34375 
Q 39.109375 -1.421875 33.890625 -1.421875 
Q 20.796875 -1.421875 13.15625 6.1875 
Q 5.515625 13.8125 5.515625 26.8125 
Q 5.515625 40.234375 12.765625 48.109375 
Q 20.015625 56 32.328125 56 
Q 43.359375 56 49.78125 48.890625 
Q 56.203125 41.796875 56.203125 29.59375 
z
M 47.21875 32.234375 
Q 47.125 39.59375 43.09375 43.984375 
Q 39.0625 48.390625 32.421875 48.390625 
Q 24.90625 48.390625 20.390625 44.140625 
Q 15.875 39.890625 15.1875 32.171875 
z
" id="DejaVuSans-101"/>
       <path id="DejaVuSans-32"/>
       <path d="M 48.78125 52.59375 
L 48.78125 44.1875 
Q 44.96875 46.296875 41.140625 47.34375 
Q 37.3125 48.390625 33.40625 48.390625 
Q 24.65625 48.390625 19.8125 42.84375 
Q 14.984375 37.3125 14.984375 27.296875 
Q 14.984375 17.28125 19.8125 11.734375 
Q 24.65625 6.203125 33.40625 6.203125 
Q 37.3125 6.203125 41.140625 7.25 
Q 44.96875 8.296875 48.78125 10.40625 
L 48.78125 2.09375 
Q 45.015625 0.34375 40.984375 -0.53125 
Q 36.96875 -1.421875 32.421875 -1.421875 
Q 20.0625 -1.421875 12.78125 6.34375 
Q 5.515625 14.109375 5.515625 27.296875 
Q 5.515625 40.671875 12.859375 48.328125 
Q 20.21875 56 33.015625 56 
Q 37.15625 56 41.109375 55.140625 
Q 45.0625 54.296875 48.78125 52.59375 
z
" id="DejaVuSans-99"/>
      </defs>
      <use xlink:href="#DejaVuSans-67"/>
      <use x="69.824219" xlink:href="#DejaVuSans-117"/>
      <use x="133.203125" xlink:href="#DejaVuSans-109"/>
      <use x="230.615234" xlink:href="#DejaVuSans-117"/>
      <use x="293.994141" xlink:href="#DejaVuSans-108"/>
      <use x="321.777344" xlink:href="#DejaVuSans-97"/>
      <use x="383.056641" xlink:href="#DejaVuSans-116"/>
      <use x="422.265625" xlink:href="#DejaVuSans-105"/>
      <use x="450.048828" xlink:href="#DejaVuSans-118"/>
      <use x="509.228516" xlink:href="#DejaVuSans-101"/>
      <use x="570.751953" xlink:href="#DejaVuSans-32"/>
      <use x="602.539062" xlink:href="#DejaVuSans-99"/>
      <use x="657.519531" xlink:href="#DejaVuSans-97"/>
      <use x="718.798828" xlink:href="#DejaVuSans-115"/>
      <use x="770.898438" xlink:href="#DejaVuSans-101"/>
      <use x="832.421875" xlink:href="#DejaVuSans-115"/>
     </g>
    </g>
   </g>
   <g id="line2d_33">
    <path clip-path="url(#p456d9d5054)" d="M 115.363636 605.290909 
L 121.626263 605.035619 
L 127.888889 604.73692 
L 134.151515 604.387498 
L 140.414141 603.978835 
L 146.676768 603.501015 
L 152.939394 602.942511 
L 159.20202 602.289939 
L 165.464646 601.527783 
L 171.727273 600.638088 
L 177.989899 599.60012 
L 184.252525 598.389996 
L 190.515152 596.980286 
L 196.777778 595.339597 
L 203.040404 593.432146 
L 209.30303 591.217343 
L 215.565657 588.649411 
L 221.828283 585.677077 
L 228.090909 582.243381 
L 234.353535 578.285664 
L 240.616162 573.735823 
L 246.878788 568.520901 
L 253.141414 562.564149 
L 259.40404 555.786644 
L 265.666667 548.109584 
L 271.929293 539.457344 
L 278.191919 529.761331 
L 284.454545 518.96461 
L 290.717172 507.027157 
L 296.979798 493.931459 
L 303.242424 479.688048 
L 309.505051 464.340384 
L 315.767677 447.968434 
L 322.030303 430.690237 
L 328.292929 412.660902 
L 334.555556 394.068656 
L 340.818182 375.127973 
L 347.080808 356.07018 
L 353.343434 337.132375 
L 359.606061 318.545745 
L 365.868687 300.524496 
L 372.131313 283.256487 
L 378.393939 266.896391 
L 384.656566 251.561787 
L 390.919192 237.332178 
L 397.181818 224.2506 
L 403.444444 212.327212 
L 409.707071 201.544192 
L 415.969697 191.861277 
L 422.232323 183.221357 
L 428.494949 175.55573 
L 434.757576 168.788709 
L 441.020202 162.841475 
L 447.282828 157.635118 
L 453.545455 153.092926 
L 459.808081 149.141998 
L 466.070707 145.714293 
L 472.333333 142.747221 
L 478.59596 140.183892 
L 484.858586 137.9731 
L 491.121212 136.069136 
L 497.383838 134.431469 
L 503.646465 133.024373 
L 509.909091 131.816505 
L 516.171717 130.780482 
L 522.434343 129.892461 
L 528.69697 129.131744 
L 534.959596 128.480408 
L 541.222222 127.922964 
L 547.484848 127.446053 
L 553.747475 127.038169 
L 560.010101 126.689414 
L 566.272727 126.391286 
L 572.535354 126.136485 
L 578.79798 125.918751 
L 585.060606 125.732718 
L 591.323232 125.573791 
L 597.585859 125.438033 
L 603.848485 125.322079 
L 610.111111 125.223046 
L 616.373737 125.138471 
L 622.636364 125.066246 
" style="fill:none;stroke:#1f77b4;stroke-linecap:square;stroke-width:1.5;"/>
   </g>
   <g id="line2d_34">
    <path clip-path="url(#p456d9d5054)" d="M 115.363636 605.290909 
L 121.626263 603.952843 
L 127.888889 602.483472 
L 134.151515 600.870831 
L 140.414141 599.102053 
L 146.676768 597.163348 
L 152.939394 595.039985 
L 159.20202 592.716285 
L 165.464646 590.175632 
L 171.727273 587.4005 
L 177.989899 584.372499 
L 184.252525 581.072457 
L 190.515152 577.480521 
L 196.777778 573.5763 
L 203.040404 569.339049 
L 209.30303 564.747889 
L 215.565657 559.782086 
L 221.828283 554.421371 
L 228.090909 548.646322 
L 234.353535 542.438791 
L 240.616162 535.782384 
L 246.878788 528.662984 
L 253.141414 521.069313 
L 259.40404 512.993513 
L 265.666667 504.431738 
L 271.929293 495.384724 
L 278.191919 485.858329 
L 284.454545 475.864005 
L 290.717172 465.419173 
L 296.979798 454.547479 
L 303.242424 443.278895 
L 309.505051 431.649657 
L 315.767677 419.702 
L 322.030303 407.483712 
L 328.292929 395.047474 
L 334.555556 382.450041 
L 340.818182 369.751241 
L 347.080808 357.012872 
L 353.343434 344.297506 
L 359.606061 331.667262 
L 365.868687 319.182605 
L 372.131313 306.901205 
L 378.393939 294.876914 
L 384.656566 283.158886 
L 390.919192 271.790883 
L 397.181818 260.810764 
L 403.444444 250.250175 
L 409.707071 240.134439 
L 415.969697 230.482606 
L 422.232323 221.307679 
L 428.494949 212.616958 
L 434.757576 204.412487 
L 441.020202 196.691579 
L 447.282828 189.447383 
L 453.545455 182.66947 
L 459.808081 176.344422 
L 466.070707 170.456395 
L 472.333333 164.987658 
L 478.59596 159.919081 
L 484.858586 155.230582 
L 491.121212 150.901517 
L 497.383838 146.911016 
L 503.646465 143.238275 
L 509.909091 139.86279 
L 516.171717 136.764548 
L 522.434343 133.924187 
L 528.69697 131.3231 
L 534.959596 128.943526 
L 541.222222 126.768606 
L 547.484848 124.782408 
L 553.747475 122.969952 
L 560.010101 121.317198 
L 566.272727 119.811038 
L 572.535354 118.43927 
L 578.79798 117.190565 
L 585.060606 116.054431 
L 591.323232 115.021176 
L 597.585859 114.081858 
L 603.848485 113.228248 
L 610.111111 112.452782 
L 616.373737 111.748517 
L 622.636364 111.109091 
" style="fill:none;stroke:#ff7f0e;stroke-linecap:square;stroke-width:1.5;"/>
   </g>
   <g id="line2d_35">
    <path clip-path="url(#p456d9d5054)" d="M 115.363636 605.290909 
L 121.626263 604.592293 
L 127.888889 603.798187 
L 134.151515 602.895992 
L 140.414141 601.87158 
L 146.676768 600.709146 
L 152.939394 599.391061 
L 159.20202 597.897726 
L 165.464646 596.207428 
L 171.727273 594.296225 
L 177.989899 592.137839 
L 184.252525 589.703601 
L 190.515152 586.96244 
L 196.777778 583.880945 
L 203.040404 580.423519 
L 209.30303 576.552645 
L 215.565657 572.229293 
L 221.828283 567.413486 
L 228.090909 562.065062 
L 234.353535 556.144631 
L 240.616162 549.614755 
L 246.878788 542.441329 
L 253.141414 534.595167 
L 259.40404 526.053721 
L 265.666667 516.802885 
L 271.929293 506.838785 
L 278.191919 496.169423 
L 284.454545 484.81606 
L 290.717172 472.814163 
L 296.979798 460.213817 
L 303.242424 447.079455 
L 309.505051 433.488877 
L 315.767677 419.531529 
L 322.030303 405.306121 
L 328.292929 390.917713 
L 334.555556 376.474449 
L 340.818182 362.084166 
L 347.080808 347.85111 
L 353.343434 333.872966 
L 359.606061 320.23837 
L 365.868687 307.025029 
L 372.131313 294.298488 
L 378.393939 282.11155 
L 384.656566 270.504276 
L 390.919192 259.504486 
L 397.181818 249.128651 
L 403.444444 239.383049 
L 409.707071 230.265078 
L 415.969697 221.764644 
L 422.232323 213.865532 
L 428.494949 206.546698 
L 434.757576 199.783468 
L 441.020202 193.548591 
L 447.282828 187.813154 
L 453.545455 182.547357 
L 459.808081 177.721146 
L 466.070707 173.304724 
L 472.333333 169.268951 
L 478.59596 165.585648 
L 484.858586 162.227811 
L 491.121212 159.169769 
L 497.383838 156.38727 
L 503.646465 153.85754 
L 509.909091 151.559285 
L 516.171717 149.472685 
L 522.434343 147.579356 
L 528.69697 145.862295 
L 534.959596 144.305825 
L 541.222222 142.895523 
L 547.484848 141.618146 
L 553.747475 140.461561 
L 560.010101 139.414666 
L 566.272727 138.467318 
L 572.535354 137.610265 
L 578.79798 136.835073 
L 585.060606 136.134063 
L 591.323232 135.500252 
L 597.585859 134.92729 
L 603.848485 134.409411 
L 610.111111 133.941381 
L 616.373737 133.518453 
L 622.636364 133.136321 
" style="fill:none;stroke:#2ca02c;stroke-linecap:square;stroke-width:1.5;"/>
   </g>
   <g id="line2d_36">
    <path clip-path="url(#p456d9d5054)" d="M 115.363636 605.290909 
L 121.626263 604.612843 
L 127.888889 603.817901 
L 134.151515 602.892417 
L 140.414141 601.821306 
L 146.676768 600.58796 
L 152.939394 599.174157 
L 159.20202 597.559983 
L 165.464646 595.72377 
L 171.727273 593.642056 
L 177.989899 591.289593 
L 184.252525 588.639384 
L 190.515152 585.662793 
L 196.777778 582.329719 
L 203.040404 578.608862 
L 209.30303 574.468085 
L 215.565657 569.874897 
L 221.828283 564.797063 
L 228.090909 559.203351 
L 234.353535 553.064413 
L 240.616162 546.353804 
L 246.878788 539.049113 
L 253.141414 531.133175 
L 259.40404 522.595329 
L 265.666667 513.432647 
L 271.929293 503.651076 
L 278.191919 493.266394 
L 284.454545 482.304908 
L 290.717172 470.803801 
L 296.979798 458.811057 
L 303.242424 446.384925 
L 309.505051 433.592904 
L 315.767677 420.510267 
L 322.030303 407.218198 
L 328.292929 393.801627 
L 334.555556 380.346898 
L 340.818182 366.939404 
L 347.080808 353.661333 
L 353.343434 340.589649 
L 359.606061 327.79441 
L 365.868687 315.337485 
L 372.131313 303.271713 
L 378.393939 291.640479 
L 384.656566 280.477697 
L 390.919192 269.80812 
L 397.181818 259.647929 
L 403.444444 250.005512 
L 409.707071 240.882374 
L 415.969697 232.274099 
L 422.232323 224.171328 
L 428.494949 216.560701 
L 434.757576 209.425723 
L 441.020202 202.747565 
L 447.282828 196.505753 
L 453.545455 190.678768 
L 459.808081 185.244546 
L 466.070707 180.180894 
L 472.333333 175.465816 
L 478.59596 171.077771 
L 484.858586 166.995872 
L 491.121212 163.200024 
L 497.383838 159.671024 
L 503.646465 156.390622 
L 509.909091 153.341554 
L 516.171717 150.507552 
L 522.434343 147.873336 
L 528.69697 145.424594 
L 534.959596 143.14795 
L 541.222222 141.030926 
L 547.484848 139.061902 
L 553.747475 137.230071 
L 560.010101 135.525391 
L 566.272727 133.938539 
L 572.535354 132.460869 
L 578.79798 131.084363 
L 585.060606 129.801591 
L 591.323232 128.605671 
L 597.585859 127.490229 
L 603.848485 126.449359 
L 610.111111 125.477598 
L 616.373737 124.569885 
L 622.636364 123.721534 
" style="fill:none;stroke:#d62728;stroke-linecap:square;stroke-width:1.5;"/>
   </g>
   <g id="line2d_37">
    <path clip-path="url(#p456d9d5054)" d="M 115.363636 605.290909 
L 121.626263 605.204054 
L 127.888889 604.975549 
L 134.151515 604.632206 
L 140.414141 604.181879 
L 146.676768 603.6206 
L 152.939394 602.936312 
L 159.20202 602.110714 
L 165.464646 601.120041 
L 171.727273 599.935249 
L 177.989899 598.521865 
L 184.252525 596.839704 
L 190.515152 594.842539 
L 196.777778 592.477876 
L 203.040404 589.686917 
L 209.30303 586.404867 
L 215.565657 582.561706 
L 221.828283 578.083593 
L 228.090909 572.895045 
L 234.353535 566.921983 
L 240.616162 560.095688 
L 246.878788 552.357556 
L 253.141414 543.664374 
L 259.40404 533.993662 
L 265.666667 523.348439 
L 271.929293 511.76068 
L 278.191919 499.292785 
L 284.454545 486.03657 
L 290.717172 472.10967 
L 296.979798 457.649667 
L 303.242424 442.806629 
L 309.505051 427.735033 
L 315.767677 412.586028 
L 322.030303 397.500869 
L 328.292929 382.606024 
L 334.555556 368.010141 
L 340.818182 353.802741 
L 347.080808 340.054366 
L 353.343434 326.817758 
L 359.606061 314.129702 
L 365.868687 302.0132 
L 372.131313 290.479713 
L 378.393939 279.531299 
L 384.656566 269.16257 
L 390.919192 259.362379 
L 397.181818 250.115269 
L 403.444444 241.402658 
L 409.707071 233.203813 
L 415.969697 225.496624 
L 422.232323 218.25821 
L 428.494949 211.465399 
L 434.757576 205.095088 
L 441.020202 199.124514 
L 447.282828 193.531461 
L 453.545455 188.2944 
L 459.808081 183.392594 
L 466.070707 178.806159 
L 472.333333 174.516107 
L 478.59596 170.50436 
L 484.858586 166.753756 
L 491.121212 163.248037 
L 497.383838 159.971833 
L 503.646465 156.910633 
L 509.909091 154.05076 
L 516.171717 151.379335 
L 522.434343 148.884246 
L 528.69697 146.55411 
L 534.959596 144.37824 
L 541.222222 142.346606 
L 547.484848 140.449803 
L 553.747475 138.679014 
L 560.010101 137.02598 
L 566.272727 135.482966 
L 572.535354 134.042731 
L 578.79798 132.698499 
L 585.060606 131.44393 
L 591.323232 130.273095 
L 597.585859 129.180447 
L 603.848485 128.160804 
L 610.111111 127.209319 
L 616.373737 126.321464 
L 622.636364 125.493008 
" style="fill:none;stroke:#9467bd;stroke-linecap:square;stroke-width:1.5;"/>
   </g>
   <g id="line2d_38">
    <path clip-path="url(#p456d9d5054)" d="M 115.363636 605.290909 
L 121.626263 605.20035 
L 127.888889 604.939685 
L 134.151515 604.516872 
L 140.414141 603.930716 
L 146.676768 603.172869 
L 152.939394 602.229127 
L 159.20202 601.080255 
L 165.464646 599.702497 
L 171.727273 598.067907 
L 177.989899 596.144572 
L 184.252525 593.89682 
L 190.515152 591.28547 
L 196.777778 588.268187 
L 203.040404 584.800001 
L 209.30303 580.834041 
L 215.565657 576.322538 
L 221.828283 571.218125 
L 228.090909 565.475457 
L 234.353535 559.053133 
L 240.616162 551.915886 
L 246.878788 544.036923 
L 253.141414 535.400304 
L 259.40404 526.003153 
L 265.666667 515.857495 
L 271.929293 504.991504 
L 278.191919 493.449963 
L 284.454545 481.293801 
L 290.717172 468.59866 
L 296.979798 455.452564 
L 303.242424 441.95284 
L 309.505051 428.202558 
L 315.767677 414.306783 
L 322.030303 400.368948 
L 328.292929 386.487603 
L 334.555556 372.753759 
L 340.818182 359.248918 
L 347.080808 346.043823 
L 353.343434 333.197891 
L 359.606061 320.759223 
L 365.868687 308.765076 
L 372.131313 297.242671 
L 378.393939 286.210205 
L 384.656566 275.677973 
L 390.919192 265.649513 
L 397.181818 256.122716 
L 403.444444 247.090859 
L 409.707071 238.543537 
L 415.969697 230.467485 
L 422.232323 222.847289 
L 428.494949 215.665988 
L 434.757576 208.905577 
L 441.020202 202.547417 
L 447.282828 196.57258 
L 453.545455 190.96211 
L 459.808081 185.697236 
L 466.070707 180.759542 
L 472.333333 176.131084 
L 478.59596 171.794489 
L 484.858586 167.733015 
L 491.121212 163.930596 
L 497.383838 160.371873 
L 503.646465 157.042201 
L 509.909091 153.927654 
L 516.171717 151.01502 
L 522.434343 148.291784 
L 528.69697 145.746115 
L 534.959596 143.366842 
L 541.222222 141.143433 
L 547.484848 139.065964 
L 553.747475 137.1251 
L 560.010101 135.312062 
L 566.272727 133.618602 
L 572.535354 132.036977 
L 578.79798 130.559922 
L 585.060606 129.180622 
L 591.323232 127.89269 
L 597.585859 126.690144 
L 603.848485 125.567377 
L 610.111111 124.519142 
L 616.373737 123.540529 
L 622.636364 122.62694 
" style="fill:none;stroke:#8c564b;stroke-linecap:square;stroke-width:1.5;"/>
   </g>
   <g id="line2d_39">
    <path clip-path="url(#p456d9d5054)" d="M 115.363636 605.290909 
L 121.626263 605.205986 
L 127.888889 604.981316 
L 134.151515 604.64219 
L 140.414141 604.195945 
L 146.676768 603.6385 
L 152.939394 602.957826 
L 159.20202 602.135668 
L 165.464646 601.148277 
L 171.727273 599.966577 
L 177.989899 598.556008 
L 184.252525 596.876232 
L 190.515152 594.8808 
L 196.777778 592.51692 
L 203.040404 589.725413 
L 209.30303 586.441013 
L 215.565657 582.593144 
L 221.828283 578.107328 
L 228.090909 572.90739 
L 234.353535 566.91854 
L 240.616162 560.071393 
L 246.878788 552.306802 
L 253.141414 543.581232 
L 259.40404 533.872211 
L 265.666667 523.183196 
L 271.929293 511.547097 
L 278.191919 499.027769 
L 284.454545 485.718958 
L 290.717172 471.740591 
L 296.979798 457.232726 
L 303.242424 442.347893 
L 309.505051 427.242802 
L 315.767677 412.070441 
L 322.030303 396.973389 
L 328.292929 382.078875 
L 334.555556 367.495754 
L 340.818182 353.313272 
L 347.080808 339.601295 
L 353.343434 326.411598 
L 359.606061 313.779812 
L 365.868687 301.727683 
L 372.131313 290.26539 
L 378.393939 279.393744 
L 384.656566 269.10617 
L 390.919192 259.390436 
L 397.181818 250.2301 
L 403.444444 241.605712 
L 409.707071 233.495776 
L 415.969697 225.877527 
L 422.232323 218.727527 
L 428.494949 212.022134 
L 434.757576 205.737855 
L 441.020202 199.85161 
L 447.282828 194.340925 
L 453.545455 189.184072 
L 459.808081 184.360155 
L 466.070707 179.849176 
L 472.333333 175.632067 
L 478.59596 171.690698 
L 484.858586 168.00788 
L 491.121212 164.567351 
L 497.383838 161.35375 
L 503.646465 158.352593 
L 509.909091 155.550241 
L 516.171717 152.933863 
L 522.434343 150.491401 
L 528.69697 148.211534 
L 534.959596 146.083641 
L 541.222222 144.097761 
L 547.484848 142.244562 
L 553.747475 140.5153 
L 560.010101 138.90179 
L 566.272727 137.396374 
L 572.535354 135.991885 
L 578.79798 134.681621 
L 585.060606 133.459314 
L 591.323232 132.319108 
L 597.585859 131.255527 
L 603.848485 130.263457 
L 610.111111 129.338119 
L 616.373737 128.47505 
L 622.636364 127.67008 
" style="fill:none;stroke:#e377c2;stroke-linecap:square;stroke-width:1.5;"/>
   </g>
   <g id="line2d_40">
    <path clip-path="url(#p456d9d5054)" d="M 115.363636 605.290909 
L 121.626263 605.196655 
L 127.888889 604.924615 
L 134.151515 604.481835 
L 140.414141 603.865946 
L 146.676768 603.067478 
L 152.939394 602.071338 
L 159.20202 600.85776 
L 165.464646 599.4029 
L 171.727273 597.67923 
L 177.989899 595.655829 
L 184.252525 593.298642 
L 190.515152 590.570774 
L 196.777778 587.432866 
L 203.040404 583.843614 
L 209.30303 579.76045 
L 215.565657 575.140438 
L 221.828283 569.941393 
L 228.090909 564.123239 
L 234.353535 557.649586 
L 240.616162 550.489494 
L 246.878788 542.619351 
L 253.141414 534.02476 
L 259.40404 524.702326 
L 265.666667 514.661177 
L 271.929293 503.924083 
L 278.191919 492.528028 
L 284.454545 480.524129 
L 290.717172 467.976852 
L 296.979798 454.962523 
L 303.242424 441.567224 
L 309.505051 427.8842 
L 315.767677 414.010955 
L 322.030303 400.046252 
L 328.292929 386.087211 
L 334.555556 372.226676 
L 340.818182 358.550998 
L 347.080808 345.138304 
L 353.343434 332.057297 
L 359.606061 319.36656 
L 365.868687 307.114341 
L 372.131313 295.33872 
L 378.393939 284.0681 
L 384.656566 273.321922 
L 390.919192 263.111541 
L 397.181818 253.441178 
L 403.444444 244.308899 
L 409.707071 235.707585 
L 415.969697 227.625846 
L 422.232323 220.048869 
L 428.494949 212.959179 
L 434.757576 206.337322 
L 441.020202 200.162445 
L 447.282828 194.412808 
L 453.545455 189.066199 
L 459.808081 184.100287 
L 466.070707 179.492909 
L 472.333333 175.222294 
L 478.59596 171.267241 
L 484.858586 167.607259 
L 491.121212 164.222656 
L 497.383838 161.094618 
L 503.646465 158.205244 
L 509.909091 155.537577 
L 516.171717 153.075602 
L 522.434343 150.804246 
L 528.69697 148.70936 
L 534.959596 146.777689 
L 541.222222 144.99685 
L 547.484848 143.35529 
L 553.747475 141.842252 
L 560.010101 140.447732 
L 566.272727 139.162444 
L 572.535354 137.977775 
L 578.79798 136.885746 
L 585.060606 135.878973 
L 591.323232 134.950631 
L 597.585859 134.094411 
L 603.848485 133.304492 
L 610.111111 132.575503 
L 616.373737 131.902493 
L 622.636364 131.280898 
" style="fill:none;stroke:#7f7f7f;stroke-linecap:square;stroke-width:1.5;"/>
   </g>
   <g id="line2d_41">
    <path clip-path="url(#p456d9d5054)" d="M 115.363636 605.290909 
L 121.626263 605.246442 
L 127.888889 605.109727 
L 134.151515 604.873331 
L 140.414141 604.526423 
L 146.676768 604.054568 
L 152.939394 603.439426 
L 159.20202 602.658401 
L 165.464646 601.684237 
L 171.727273 600.484584 
L 177.989899 599.021598 
L 184.252525 597.251594 
L 190.515152 595.124852 
L 196.777778 592.585652 
L 203.040404 589.572653 
L 209.30303 586.01974 
L 215.565657 581.857483 
L 221.828283 577.015286 
L 228.090909 571.42433 
L 234.353535 565.021249 
L 240.616162 557.75242 
L 246.878788 549.578558 
L 253.141414 540.479192 
L 259.40404 530.456463 
L 265.666667 519.537694 
L 271.929293 507.776253 
L 278.191919 495.250437 
L 284.454545 482.060407 
L 290.717172 468.323474 
L 296.979798 454.168296 
L 303.242424 439.72866 
L 309.505051 425.137493 
L 315.767677 410.521664 
L 322.030303 395.997896 
L 328.292929 381.669943 
L 334.555556 367.626995 
L 340.818182 353.943146 
L 347.080808 340.677714 
L 353.343434 327.876174 
L 359.606061 315.571465 
L 365.868687 303.785512 
L 372.131313 292.530798 
L 378.393939 281.811895 
L 384.656566 271.626892 
L 390.919192 261.968672 
L 397.181818 252.826044 
L 403.444444 244.184698 
L 409.707071 236.028027 
L 415.969697 228.337796 
L 422.232323 221.094702 
L 428.494949 214.278819 
L 434.757576 207.869958 
L 441.020202 201.847949 
L 447.282828 196.192863 
L 453.545455 190.885175 
L 459.808081 185.905895 
L 466.070707 181.236657 
L 472.333333 176.859782 
L 478.59596 172.75832 
L 484.858586 168.916074 
L 491.121212 165.317609 
L 497.383838 161.948254 
L 503.646465 158.794088 
L 509.909091 155.841928 
L 516.171717 153.079311 
L 522.434343 150.494465 
L 528.69697 148.076287 
L 534.959596 145.814315 
L 541.222222 143.698699 
L 547.484848 141.720173 
L 553.747475 139.870027 
L 560.010101 138.140077 
L 566.272727 136.522637 
L 572.535354 135.010497 
L 578.79798 133.59689 
L 585.060606 132.275471 
L 591.323232 131.040292 
L 597.585859 129.885779 
L 603.848485 128.80671 
L 610.111111 127.798193 
L 616.373737 126.855648 
L 622.636364 125.974785 
" style="fill:none;stroke:#bcbd22;stroke-linecap:square;stroke-width:1.5;"/>
   </g>
   <g id="line2d_42">
    <path clip-path="url(#p456d9d5054)" d="M 115.363636 605.290909 
L 121.626263 604.82107 
L 127.888889 604.735645 
L 134.151515 604.436656 
L 140.414141 604.00953 
L 146.676768 603.240703 
L 152.939394 602.38645 
L 159.20202 601.019645 
L 165.464646 599.481991 
L 171.727273 597.303646 
L 177.989899 596.150405 
L 184.252525 593.843922 
L 190.515152 590.384199 
L 196.777778 590.384199 
L 203.040404 587.266176 
L 209.30303 578.638224 
L 215.565657 575.135788 
L 221.828283 573.256432 
L 228.090909 568.344478 
L 234.353535 561.510456 
L 240.616162 556.769354 
L 246.878788 543.742 
L 253.141414 537.420529 
L 259.40404 525.290141 
L 265.666667 512.818051 
L 271.929293 502.268029 
L 278.191919 492.913962 
L 284.454545 484.328722 
L 290.717172 474.163114 
L 296.979798 462.417139 
L 303.242424 451.73898 
L 309.505051 433.628822 
L 315.767677 416.073929 
L 322.030303 398.647173 
L 328.292929 379.640049 
L 334.555556 363.750949 
L 340.818182 350.766307 
L 347.080808 336.927413 
L 353.343434 323.60107 
L 359.606061 312.495785 
L 365.868687 301.646775 
L 372.131313 296.008707 
L 378.393939 287.167191 
L 384.656566 274.524251 
L 390.919192 263.290827 
L 397.181818 253.338783 
L 403.444444 243.856577 
L 409.707071 234.160809 
L 415.969697 221.987707 
L 422.232323 221.987707 
L 428.494949 206.910147 
L 434.757576 202.553458 
L 441.020202 198.581183 
L 447.282828 193.455666 
L 453.545455 188.586426 
L 459.808081 186.151805 
L 466.070707 182.094105 
L 472.333333 178.29268 
L 478.59596 178.29268 
L 484.858586 172.14206 
L 491.121212 169.280314 
L 497.383838 167.059257 
L 503.646465 163.684958 
L 509.909091 160.95135 
L 516.171717 158.474017 
L 522.434343 153.604776 
L 528.69697 149.803351 
L 534.959596 148.351122 
L 541.222222 144.079858 
L 547.484848 140.406571 
L 553.747475 135.921745 
L 560.010101 133.017285 
L 566.272727 130.155539 
L 572.535354 128.703309 
L 578.79798 127.251079 
L 585.060606 125.200873 
L 591.323232 124.133057 
L 597.585859 121.826574 
L 603.848485 120.673333 
L 610.111111 119.349241 
L 616.373737 118.580414 
L 622.636364 117.555311 
" style="fill:none;stroke:#17becf;stroke-dasharray:14.8,6.4;stroke-dashoffset:0;stroke-width:4;"/>
   </g>
   <g id="patch_3">
    <path d="M 90 630 
L 90 86.4 
" style="fill:none;stroke:#000000;stroke-linecap:square;stroke-linejoin:miter;stroke-width:0.8;"/>
   </g>
   <g id="patch_4">
    <path d="M 648 630 
L 648 86.4 
" style="fill:none;stroke:#000000;stroke-linecap:square;stroke-linejoin:miter;stroke-width:0.8;"/>
   </g>
   <g id="patch_5">
    <path d="M 90 630 
L 648 630 
" style="fill:none;stroke:#000000;stroke-linecap:square;stroke-linejoin:miter;stroke-width:0.8;"/>
   </g>
   <g id="patch_6">
    <path d="M 90 86.4 
L 648 86.4 
" style="fill:none;stroke:#000000;stroke-linecap:square;stroke-linejoin:miter;stroke-width:0.8;"/>
   </g>
   <g id="text_19">
    <!-- Serbia relative err =  -->
    <g transform="translate(306.075 80.4)scale(0.12 -0.12)">
     <defs>
      <path d="M 53.515625 70.515625 
L 53.515625 60.890625 
Q 47.90625 63.578125 42.921875 64.890625 
Q 37.9375 66.21875 33.296875 66.21875 
Q 25.25 66.21875 20.875 63.09375 
Q 16.5 59.96875 16.5 54.203125 
Q 16.5 49.359375 19.40625 46.890625 
Q 22.3125 44.4375 30.421875 42.921875 
L 36.375 41.703125 
Q 47.40625 39.59375 52.65625 34.296875 
Q 57.90625 29 57.90625 20.125 
Q 57.90625 9.515625 50.796875 4.046875 
Q 43.703125 -1.421875 29.984375 -1.421875 
Q 24.8125 -1.421875 18.96875 -0.25 
Q 13.140625 0.921875 6.890625 3.21875 
L 6.890625 13.375 
Q 12.890625 10.015625 18.65625 8.296875 
Q 24.421875 6.59375 29.984375 6.59375 
Q 38.421875 6.59375 43.015625 9.90625 
Q 47.609375 13.234375 47.609375 19.390625 
Q 47.609375 24.75 44.3125 27.78125 
Q 41.015625 30.8125 33.5 32.328125 
L 27.484375 33.5 
Q 16.453125 35.6875 11.515625 40.375 
Q 6.59375 45.0625 6.59375 53.421875 
Q 6.59375 63.09375 13.40625 68.65625 
Q 20.21875 74.21875 32.171875 74.21875 
Q 37.3125 74.21875 42.625 73.28125 
Q 47.953125 72.359375 53.515625 70.515625 
z
" id="DejaVuSans-83"/>
      <path d="M 41.109375 46.296875 
Q 39.59375 47.171875 37.8125 47.578125 
Q 36.03125 48 33.890625 48 
Q 26.265625 48 22.1875 43.046875 
Q 18.109375 38.09375 18.109375 28.8125 
L 18.109375 0 
L 9.078125 0 
L 9.078125 54.6875 
L 18.109375 54.6875 
L 18.109375 46.1875 
Q 20.953125 51.171875 25.484375 53.578125 
Q 30.03125 56 36.53125 56 
Q 37.453125 56 38.578125 55.875 
Q 39.703125 55.765625 41.0625 55.515625 
z
" id="DejaVuSans-114"/>
      <path d="M 48.6875 27.296875 
Q 48.6875 37.203125 44.609375 42.84375 
Q 40.53125 48.484375 33.40625 48.484375 
Q 26.265625 48.484375 22.1875 42.84375 
Q 18.109375 37.203125 18.109375 27.296875 
Q 18.109375 17.390625 22.1875 11.75 
Q 26.265625 6.109375 33.40625 6.109375 
Q 40.53125 6.109375 44.609375 11.75 
Q 48.6875 17.390625 48.6875 27.296875 
z
M 18.109375 46.390625 
Q 20.953125 51.265625 25.265625 53.625 
Q 29.59375 56 35.59375 56 
Q 45.5625 56 51.78125 48.09375 
Q 58.015625 40.1875 58.015625 27.296875 
Q 58.015625 14.40625 51.78125 6.484375 
Q 45.5625 -1.421875 35.59375 -1.421875 
Q 29.59375 -1.421875 25.265625 0.953125 
Q 20.953125 3.328125 18.109375 8.203125 
L 18.109375 0 
L 9.078125 0 
L 9.078125 75.984375 
L 18.109375 75.984375 
z
" id="DejaVuSans-98"/>
      <path d="M 10.59375 45.40625 
L 73.1875 45.40625 
L 73.1875 37.203125 
L 10.59375 37.203125 
z
M 10.59375 25.484375 
L 73.1875 25.484375 
L 73.1875 17.1875 
L 10.59375 17.1875 
z
" id="DejaVuSans-61"/>
     </defs>
     <use xlink:href="#DejaVuSans-83"/>
     <use x="63.476562" xlink:href="#DejaVuSans-101"/>
     <use x="125" xlink:href="#DejaVuSans-114"/>
     <use x="166.113281" xlink:href="#DejaVuSans-98"/>
     <use x="229.589844" xlink:href="#DejaVuSans-105"/>
     <use x="257.373047" xlink:href="#DejaVuSans-97"/>
     <use x="318.652344" xlink:href="#DejaVuSans-32"/>
     <use x="350.439453" xlink:href="#DejaVuSans-114"/>
     <use x="389.302734" xlink:href="#DejaVuSans-101"/>
     <use x="450.826172" xlink:href="#DejaVuSans-108"/>
     <use x="478.609375" xlink:href="#DejaVuSans-97"/>
     <use x="539.888672" xlink:href="#DejaVuSans-116"/>
     <use x="579.097656" xlink:href="#DejaVuSans-105"/>
     <use x="606.880859" xlink:href="#DejaVuSans-118"/>
     <use x="666.060547" xlink:href="#DejaVuSans-101"/>
     <use x="727.583984" xlink:href="#DejaVuSans-32"/>
     <use x="759.371094" xlink:href="#DejaVuSans-101"/>
     <use x="820.894531" xlink:href="#DejaVuSans-114"/>
     <use x="860.257812" xlink:href="#DejaVuSans-114"/>
     <use x="901.371094" xlink:href="#DejaVuSans-32"/>
     <use x="933.158203" xlink:href="#DejaVuSans-61"/>
     <use x="1016.947266" xlink:href="#DejaVuSans-32"/>
    </g>
   </g>
   <g id="legend_1">
    <g id="patch_7">
     <path d="M 97 226.503125 
L 185.6 226.503125 
Q 187.6 226.503125 187.6 224.503125 
L 187.6 93.4 
Q 187.6 91.4 185.6 91.4 
L 97 91.4 
Q 95 91.4 95 93.4 
L 95 224.503125 
Q 95 226.503125 97 226.503125 
z
" style="fill:#ffffff;opacity:0.8;stroke:#cccccc;stroke-linejoin:miter;"/>
    </g>
    <g id="line2d_43">
     <path d="M 99 99.498438 
L 119 99.498438 
" style="fill:none;stroke:#1f77b4;stroke-linecap:square;stroke-width:1.5;"/>
    </g>
    <g id="line2d_44"/>
    <g id="text_20">
     <!-- SI -->
     <g transform="translate(127 102.998438)scale(0.1 -0.1)">
      <defs>
       <path d="M 9.8125 72.90625 
L 19.671875 72.90625 
L 19.671875 0 
L 9.8125 0 
z
" id="DejaVuSans-73"/>
      </defs>
      <use xlink:href="#DejaVuSans-83"/>
      <use x="63.476562" xlink:href="#DejaVuSans-73"/>
     </g>
    </g>
    <g id="line2d_45">
     <path d="M 99 114.176563 
L 119 114.176563 
" style="fill:none;stroke:#ff7f0e;stroke-linecap:square;stroke-width:1.5;"/>
    </g>
    <g id="line2d_46"/>
    <g id="text_21">
     <!-- BD -->
     <g transform="translate(127 117.676563)scale(0.1 -0.1)">
      <defs>
       <path d="M 19.671875 34.8125 
L 19.671875 8.109375 
L 35.5 8.109375 
Q 43.453125 8.109375 47.28125 11.40625 
Q 51.125 14.703125 51.125 21.484375 
Q 51.125 28.328125 47.28125 31.5625 
Q 43.453125 34.8125 35.5 34.8125 
z
M 19.671875 64.796875 
L 19.671875 42.828125 
L 34.28125 42.828125 
Q 41.5 42.828125 45.03125 45.53125 
Q 48.578125 48.25 48.578125 53.8125 
Q 48.578125 59.328125 45.03125 62.0625 
Q 41.5 64.796875 34.28125 64.796875 
z
M 9.8125 72.90625 
L 35.015625 72.90625 
Q 46.296875 72.90625 52.390625 68.21875 
Q 58.5 63.53125 58.5 54.890625 
Q 58.5 48.1875 55.375 44.234375 
Q 52.25 40.28125 46.1875 39.3125 
Q 53.46875 37.75 57.5 32.78125 
Q 61.53125 27.828125 61.53125 20.40625 
Q 61.53125 10.640625 54.890625 5.3125 
Q 48.25 0 35.984375 0 
L 9.8125 0 
z
" id="DejaVuSans-66"/>
      </defs>
      <use xlink:href="#DejaVuSans-66"/>
      <use x="68.603516" xlink:href="#DejaVuSans-68"/>
     </g>
    </g>
    <g id="line2d_47">
     <path d="M 99 128.854688 
L 119 128.854688 
" style="fill:none;stroke:#2ca02c;stroke-linecap:square;stroke-width:1.5;"/>
    </g>
    <g id="line2d_48"/>
    <g id="text_22">
     <!-- SIR -->
     <g transform="translate(127 132.354688)scale(0.1 -0.1)">
      <defs>
       <path d="M 44.390625 34.1875 
Q 47.5625 33.109375 50.5625 29.59375 
Q 53.5625 26.078125 56.59375 19.921875 
L 66.609375 0 
L 56 0 
L 46.6875 18.703125 
Q 43.0625 26.03125 39.671875 28.421875 
Q 36.28125 30.8125 30.421875 30.8125 
L 19.671875 30.8125 
L 19.671875 0 
L 9.8125 0 
L 9.8125 72.90625 
L 32.078125 72.90625 
Q 44.578125 72.90625 50.734375 67.671875 
Q 56.890625 62.453125 56.890625 51.90625 
Q 56.890625 45.015625 53.6875 40.46875 
Q 50.484375 35.9375 44.390625 34.1875 
z
M 19.671875 64.796875 
L 19.671875 38.921875 
L 32.078125 38.921875 
Q 39.203125 38.921875 42.84375 42.21875 
Q 46.484375 45.515625 46.484375 51.90625 
Q 46.484375 58.296875 42.84375 61.546875 
Q 39.203125 64.796875 32.078125 64.796875 
z
" id="DejaVuSans-82"/>
      </defs>
      <use xlink:href="#DejaVuSans-83"/>
      <use x="63.476562" xlink:href="#DejaVuSans-73"/>
      <use x="92.96875" xlink:href="#DejaVuSans-82"/>
     </g>
    </g>
    <g id="line2d_49">
     <path d="M 99 143.532812 
L 119 143.532812 
" style="fill:none;stroke:#d62728;stroke-linecap:square;stroke-width:1.5;"/>
    </g>
    <g id="line2d_50"/>
    <g id="text_23">
     <!-- eSIR -->
     <g transform="translate(127 147.032812)scale(0.1 -0.1)">
      <use xlink:href="#DejaVuSans-101"/>
      <use x="61.523438" xlink:href="#DejaVuSans-83"/>
      <use x="125" xlink:href="#DejaVuSans-73"/>
      <use x="154.492188" xlink:href="#DejaVuSans-82"/>
     </g>
    </g>
    <g id="line2d_51">
     <path d="M 99 158.210938 
L 119 158.210938 
" style="fill:none;stroke:#9467bd;stroke-linecap:square;stroke-width:1.5;"/>
    </g>
    <g id="line2d_52"/>
    <g id="text_24">
     <!-- SEIR -->
     <g transform="translate(127 161.710938)scale(0.1 -0.1)">
      <defs>
       <path d="M 9.8125 72.90625 
L 55.90625 72.90625 
L 55.90625 64.59375 
L 19.671875 64.59375 
L 19.671875 43.015625 
L 54.390625 43.015625 
L 54.390625 34.71875 
L 19.671875 34.71875 
L 19.671875 8.296875 
L 56.78125 8.296875 
L 56.78125 0 
L 9.8125 0 
z
" id="DejaVuSans-69"/>
      </defs>
      <use xlink:href="#DejaVuSans-83"/>
      <use x="63.476562" xlink:href="#DejaVuSans-69"/>
      <use x="126.660156" xlink:href="#DejaVuSans-73"/>
      <use x="156.152344" xlink:href="#DejaVuSans-82"/>
     </g>
    </g>
    <g id="line2d_53">
     <path d="M 99 172.889063 
L 119 172.889063 
" style="fill:none;stroke:#8c564b;stroke-linecap:square;stroke-width:1.5;"/>
    </g>
    <g id="line2d_54"/>
    <g id="text_25">
     <!-- eSEIR -->
     <g transform="translate(127 176.389063)scale(0.1 -0.1)">
      <use xlink:href="#DejaVuSans-101"/>
      <use x="61.523438" xlink:href="#DejaVuSans-83"/>
      <use x="125" xlink:href="#DejaVuSans-69"/>
      <use x="188.183594" xlink:href="#DejaVuSans-73"/>
      <use x="217.675781" xlink:href="#DejaVuSans-82"/>
     </g>
    </g>
    <g id="line2d_55">
     <path d="M 99 187.567188 
L 119 187.567188 
" style="fill:none;stroke:#e377c2;stroke-linecap:square;stroke-width:1.5;"/>
    </g>
    <g id="line2d_56"/>
    <g id="text_26">
     <!-- SEIUR -->
     <g transform="translate(127 191.067188)scale(0.1 -0.1)">
      <defs>
       <path d="M 8.6875 72.90625 
L 18.609375 72.90625 
L 18.609375 28.609375 
Q 18.609375 16.890625 22.84375 11.734375 
Q 27.09375 6.59375 36.625 6.59375 
Q 46.09375 6.59375 50.34375 11.734375 
Q 54.59375 16.890625 54.59375 28.609375 
L 54.59375 72.90625 
L 64.5 72.90625 
L 64.5 27.390625 
Q 64.5 13.140625 57.4375 5.859375 
Q 50.390625 -1.421875 36.625 -1.421875 
Q 22.796875 -1.421875 15.734375 5.859375 
Q 8.6875 13.140625 8.6875 27.390625 
z
" id="DejaVuSans-85"/>
      </defs>
      <use xlink:href="#DejaVuSans-83"/>
      <use x="63.476562" xlink:href="#DejaVuSans-69"/>
      <use x="126.660156" xlink:href="#DejaVuSans-73"/>
      <use x="156.152344" xlink:href="#DejaVuSans-85"/>
      <use x="229.345703" xlink:href="#DejaVuSans-82"/>
     </g>
    </g>
    <g id="line2d_57">
     <path d="M 99 202.245312 
L 119 202.245312 
" style="fill:none;stroke:#7f7f7f;stroke-linecap:square;stroke-width:1.5;"/>
    </g>
    <g id="line2d_58"/>
    <g id="text_27">
     <!-- eSEIUR -->
     <g transform="translate(127 205.745312)scale(0.1 -0.1)">
      <use xlink:href="#DejaVuSans-101"/>
      <use x="61.523438" xlink:href="#DejaVuSans-83"/>
      <use x="125" xlink:href="#DejaVuSans-69"/>
      <use x="188.183594" xlink:href="#DejaVuSans-73"/>
      <use x="217.675781" xlink:href="#DejaVuSans-85"/>
      <use x="290.869141" xlink:href="#DejaVuSans-82"/>
     </g>
    </g>
    <g id="line2d_59">
     <path d="M 99 216.923437 
L 119 216.923437 
" style="fill:none;stroke:#bcbd22;stroke-linecap:square;stroke-width:1.5;"/>
    </g>
    <g id="line2d_60"/>
    <g id="text_28">
     <!-- eSEIUR$^{range}$ -->
     <g transform="translate(127 220.423437)scale(0.1 -0.1)">
      <defs>
       <path d="M 44.578125 46.390625 
Q 43.21875 47.125 41.453125 47.515625 
Q 39.703125 47.90625 37.703125 47.90625 
Q 30.515625 47.90625 25.140625 42.453125 
Q 19.78125 37.015625 18.015625 27.875 
L 12.5 0 
L 3.515625 0 
L 14.203125 54.6875 
L 23.1875 54.6875 
L 21.484375 46.1875 
Q 25.046875 50.921875 30 53.453125 
Q 34.96875 56 40.578125 56 
Q 42.046875 56 43.453125 55.828125 
Q 44.875 55.671875 46.296875 55.28125 
z
" id="DejaVuSans-Oblique-114"/>
       <path d="M 53.71875 31.203125 
L 47.609375 0 
L 38.625 0 
L 40.28125 8.296875 
Q 36.328125 3.421875 31.265625 1 
Q 26.21875 -1.421875 20.015625 -1.421875 
Q 13.03125 -1.421875 8.5625 2.84375 
Q 4.109375 7.125 4.109375 13.8125 
Q 4.109375 23.390625 11.75 28.953125 
Q 19.390625 34.515625 32.8125 34.515625 
L 45.3125 34.515625 
L 45.796875 36.921875 
Q 45.90625 37.3125 45.953125 37.765625 
Q 46 38.234375 46 39.203125 
Q 46 43.5625 42.453125 45.96875 
Q 38.921875 48.390625 32.515625 48.390625 
Q 28.125 48.390625 23.5 47.265625 
Q 18.890625 46.140625 14.015625 43.890625 
L 15.578125 52.203125 
Q 20.65625 54.109375 25.515625 55.046875 
Q 30.375 56 34.90625 56 
Q 44.578125 56 49.625 51.796875 
Q 54.6875 47.609375 54.6875 39.59375 
Q 54.6875 37.984375 54.4375 35.8125 
Q 54.203125 33.640625 53.71875 31.203125 
z
M 44 27.484375 
L 35.015625 27.484375 
Q 23.96875 27.484375 18.671875 24.53125 
Q 13.375 21.578125 13.375 15.375 
Q 13.375 11.078125 16.078125 8.640625 
Q 18.796875 6.203125 23.578125 6.203125 
Q 30.90625 6.203125 36.375 11.453125 
Q 41.84375 16.703125 43.609375 25.484375 
z
" id="DejaVuSans-Oblique-97"/>
       <path d="M 55.71875 33.015625 
L 49.3125 0 
L 40.28125 0 
L 46.6875 32.671875 
Q 47.125 34.96875 47.359375 36.71875 
Q 47.609375 38.484375 47.609375 39.5 
Q 47.609375 43.609375 45.015625 45.890625 
Q 42.4375 48.1875 37.796875 48.1875 
Q 30.5625 48.1875 25.34375 43.375 
Q 20.125 38.578125 18.5 30.328125 
L 12.5 0 
L 3.515625 0 
L 14.109375 54.6875 
L 23.09375 54.6875 
L 21.296875 46.09375 
Q 25.046875 50.828125 30.3125 53.40625 
Q 35.59375 56 41.40625 56 
Q 48.640625 56 52.609375 52.09375 
Q 56.59375 48.1875 56.59375 41.109375 
Q 56.59375 39.359375 56.375 37.359375 
Q 56.15625 35.359375 55.71875 33.015625 
z
" id="DejaVuSans-Oblique-110"/>
       <path d="M 59.625 54.6875 
L 50.296875 6.78125 
Q 47.609375 -7.125 40.015625 -13.953125 
Q 32.421875 -20.796875 19.578125 -20.796875 
Q 14.84375 -20.796875 10.78125 -20.09375 
Q 6.734375 -19.390625 3.21875 -17.921875 
L 4.890625 -9.1875 
Q 8.203125 -11.328125 11.90625 -12.34375 
Q 15.625 -13.375 19.828125 -13.375 
Q 28.375 -13.375 33.859375 -8.703125 
Q 39.359375 -4.046875 41.109375 4.6875 
L 41.890625 8.796875 
Q 38.140625 4.5 33.15625 2.25 
Q 28.171875 0 22.40625 0 
Q 14.109375 0 9.34375 5.484375 
Q 4.59375 10.984375 4.59375 20.609375 
Q 4.59375 28.171875 7.46875 35.421875 
Q 10.359375 42.671875 15.578125 48.296875 
Q 19.046875 52 23.65625 54 
Q 28.265625 56 33.296875 56 
Q 38.8125 56 42.90625 53.4375 
Q 47.015625 50.875 49.03125 46.1875 
L 50.59375 54.6875 
z
M 46.09375 34.625 
Q 46.09375 41.265625 42.96875 44.875 
Q 39.84375 48.484375 34.078125 48.484375 
Q 30.515625 48.484375 27.296875 47.0625 
Q 24.078125 45.65625 21.78125 43.109375 
Q 18.0625 38.921875 15.984375 33.234375 
Q 13.921875 27.546875 13.921875 21.484375 
Q 13.921875 14.75 17.0625 11.125 
Q 20.21875 7.515625 26.125 7.515625 
Q 34.671875 7.515625 40.375 15.25 
Q 46.09375 23 46.09375 34.625 
z
" id="DejaVuSans-Oblique-103"/>
       <path d="M 48.09375 32.234375 
Q 48.25 33.015625 48.3125 33.84375 
Q 48.390625 34.671875 48.390625 35.5 
Q 48.390625 41.453125 44.890625 44.921875 
Q 41.40625 48.390625 35.40625 48.390625 
Q 28.71875 48.390625 23.578125 44.15625 
Q 18.453125 39.9375 15.828125 32.171875 
z
M 55.90625 25.203125 
L 14.109375 25.203125 
Q 13.8125 23.34375 13.71875 22.265625 
Q 13.625 21.1875 13.625 20.40625 
Q 13.625 13.625 17.796875 9.90625 
Q 21.96875 6.203125 29.59375 6.203125 
Q 35.453125 6.203125 40.671875 7.515625 
Q 45.90625 8.84375 50.390625 11.375 
L 48.6875 2.484375 
Q 43.84375 0.53125 38.6875 -0.4375 
Q 33.546875 -1.421875 28.21875 -1.421875 
Q 16.84375 -1.421875 10.71875 4.015625 
Q 4.59375 9.46875 4.59375 19.484375 
Q 4.59375 28.03125 7.640625 35.375 
Q 10.6875 42.71875 16.609375 48.484375 
Q 20.40625 52.09375 25.65625 54.046875 
Q 30.90625 56 36.8125 56 
Q 46.09375 56 51.578125 50.4375 
Q 57.078125 44.875 57.078125 35.5 
Q 57.078125 33.25 56.78125 30.6875 
Q 56.5 28.125 55.90625 25.203125 
z
" id="DejaVuSans-Oblique-101"/>
      </defs>
      <use transform="translate(0 0.51875)" xlink:href="#DejaVuSans-101"/>
      <use transform="translate(61.523438 0.51875)" xlink:href="#DejaVuSans-83"/>
      <use transform="translate(125 0.51875)" xlink:href="#DejaVuSans-69"/>
      <use transform="translate(188.183594 0.51875)" xlink:href="#DejaVuSans-73"/>
      <use transform="translate(217.675781 0.51875)" xlink:href="#DejaVuSans-85"/>
      <use transform="translate(288.619141 0.51875)" xlink:href="#DejaVuSans-82"/>
      <use transform="translate(359.058594 38.8)scale(0.7)" xlink:href="#DejaVuSans-Oblique-114"/>
      <use transform="translate(387.837891 38.8)scale(0.7)" xlink:href="#DejaVuSans-Oblique-97"/>
      <use transform="translate(430.733398 38.8)scale(0.7)" xlink:href="#DejaVuSans-Oblique-110"/>
      <use transform="translate(475.098633 38.8)scale(0.7)" xlink:href="#DejaVuSans-Oblique-103"/>
      <use transform="translate(519.532227 38.8)scale(0.7)" xlink:href="#DejaVuSans-Oblique-101"/>
     </g>
    </g>
   </g>
  </g>
 </g>
 <defs>
  <clipPath id="p456d9d5054">
   <rect height="543.6" width="558" x="90" y="86.4"/>
  </clipPath>
 </defs>
</svg>
