<?xml version="1.0" encoding="utf-8" standalone="no"?>
<!DOCTYPE svg PUBLIC "-//W3C//DTD SVG 1.1//EN"
  "http://www.w3.org/Graphics/SVG/1.1/DTD/svg11.dtd">
<!-- Created with matplotlib (https://matplotlib.org/) -->
<svg height="720pt" version="1.1" viewBox="0 0 720 720" width="720pt" xmlns="http://www.w3.org/2000/svg" xmlns:xlink="http://www.w3.org/1999/xlink">
 <metadata>
  <rdf:RDF xmlns:cc="http://creativecommons.org/ns#" xmlns:dc="http://purl.org/dc/elements/1.1/" xmlns:rdf="http://www.w3.org/1999/02/22-rdf-syntax-ns#">
   <cc:Work>
    <dc:type rdf:resource="http://purl.org/dc/dcmitype/StillImage"/>
    <dc:date>2022-07-13T18:54:00.846640</dc:date>
    <dc:format>image/svg+xml</dc:format>
    <dc:creator>
     <cc:Agent>
      <dc:title>Matplotlib v3.3.2, https://matplotlib.org/</dc:title>
     </cc:Agent>
    </dc:creator>
   </cc:Work>
  </rdf:RDF>
 </metadata>
 <defs>
  <style type="text/css">*{stroke-linecap:butt;stroke-linejoin:round;}</style>
 </defs>
 <g id="figure_1">
  <g id="patch_1">
   <path d="M 0 720 
L 720 720 
L 720 0 
L 0 0 
z
" style="fill:none;"/>
  </g>
  <g id="axes_1">
   <g id="patch_2">
    <path d="M 90 630 
L 648 630 
L 648 86.4 
L 90 86.4 
z
" style="fill:#ffffff;"/>
   </g>
   <g id="matplotlib.axis_1">
    <g id="xtick_1">
     <g id="line2d_1">
      <path clip-path="url(#pf670d910fb)" d="M 115.363636 630 
L 115.363636 86.4 
" style="fill:none;stroke:#b0b0b0;stroke-linecap:square;stroke-width:0.8;"/>
     </g>
     <g id="line2d_2">
      <defs>
       <path d="M 0 0 
L 0 3.5 
" id="m2c6f2da148" style="stroke:#000000;stroke-width:0.8;"/>
      </defs>
      <g>
       <use style="stroke:#000000;stroke-width:0.8;" x="115.363636" xlink:href="#m2c6f2da148" y="630"/>
      </g>
     </g>
     <g id="text_1">
      <!-- 0 -->
      <g transform="translate(112.182386 644.598438)scale(0.1 -0.1)">
       <defs>
        <path d="M 31.78125 66.40625 
Q 24.171875 66.40625 20.328125 58.90625 
Q 16.5 51.421875 16.5 36.375 
Q 16.5 21.390625 20.328125 13.890625 
Q 24.171875 6.390625 31.78125 6.390625 
Q 39.453125 6.390625 43.28125 13.890625 
Q 47.125 21.390625 47.125 36.375 
Q 47.125 51.421875 43.28125 58.90625 
Q 39.453125 66.40625 31.78125 66.40625 
z
M 31.78125 74.21875 
Q 44.046875 74.21875 50.515625 64.515625 
Q 56.984375 54.828125 56.984375 36.375 
Q 56.984375 17.96875 50.515625 8.265625 
Q 44.046875 -1.421875 31.78125 -1.421875 
Q 19.53125 -1.421875 13.0625 8.265625 
Q 6.59375 17.96875 6.59375 36.375 
Q 6.59375 54.828125 13.0625 64.515625 
Q 19.53125 74.21875 31.78125 74.21875 
z
" id="DejaVuSans-48"/>
       </defs>
       <use xlink:href="#DejaVuSans-48"/>
      </g>
     </g>
    </g>
    <g id="xtick_2">
     <g id="line2d_3">
      <path clip-path="url(#pf670d910fb)" d="M 216.818182 630 
L 216.818182 86.4 
" style="fill:none;stroke:#b0b0b0;stroke-linecap:square;stroke-width:0.8;"/>
     </g>
     <g id="line2d_4">
      <g>
       <use style="stroke:#000000;stroke-width:0.8;" x="216.818182" xlink:href="#m2c6f2da148" y="630"/>
      </g>
     </g>
     <g id="text_2">
      <!-- 20 -->
      <g transform="translate(210.455682 644.598438)scale(0.1 -0.1)">
       <defs>
        <path d="M 19.1875 8.296875 
L 53.609375 8.296875 
L 53.609375 0 
L 7.328125 0 
L 7.328125 8.296875 
Q 12.9375 14.109375 22.625 23.890625 
Q 32.328125 33.6875 34.8125 36.53125 
Q 39.546875 41.84375 41.421875 45.53125 
Q 43.3125 49.21875 43.3125 52.78125 
Q 43.3125 58.59375 39.234375 62.25 
Q 35.15625 65.921875 28.609375 65.921875 
Q 23.96875 65.921875 18.8125 64.3125 
Q 13.671875 62.703125 7.8125 59.421875 
L 7.8125 69.390625 
Q 13.765625 71.78125 18.9375 73 
Q 24.125 74.21875 28.421875 74.21875 
Q 39.75 74.21875 46.484375 68.546875 
Q 53.21875 62.890625 53.21875 53.421875 
Q 53.21875 48.921875 51.53125 44.890625 
Q 49.859375 40.875 45.40625 35.40625 
Q 44.1875 33.984375 37.640625 27.21875 
Q 31.109375 20.453125 19.1875 8.296875 
z
" id="DejaVuSans-50"/>
       </defs>
       <use xlink:href="#DejaVuSans-50"/>
       <use x="63.623047" xlink:href="#DejaVuSans-48"/>
      </g>
     </g>
    </g>
    <g id="xtick_3">
     <g id="line2d_5">
      <path clip-path="url(#pf670d910fb)" d="M 318.272727 630 
L 318.272727 86.4 
" style="fill:none;stroke:#b0b0b0;stroke-linecap:square;stroke-width:0.8;"/>
     </g>
     <g id="line2d_6">
      <g>
       <use style="stroke:#000000;stroke-width:0.8;" x="318.272727" xlink:href="#m2c6f2da148" y="630"/>
      </g>
     </g>
     <g id="text_3">
      <!-- 40 -->
      <g transform="translate(311.910227 644.598438)scale(0.1 -0.1)">
       <defs>
        <path d="M 37.796875 64.3125 
L 12.890625 25.390625 
L 37.796875 25.390625 
z
M 35.203125 72.90625 
L 47.609375 72.90625 
L 47.609375 25.390625 
L 58.015625 25.390625 
L 58.015625 17.1875 
L 47.609375 17.1875 
L 47.609375 0 
L 37.796875 0 
L 37.796875 17.1875 
L 4.890625 17.1875 
L 4.890625 26.703125 
z
" id="DejaVuSans-52"/>
       </defs>
       <use xlink:href="#DejaVuSans-52"/>
       <use x="63.623047" xlink:href="#DejaVuSans-48"/>
      </g>
     </g>
    </g>
    <g id="xtick_4">
     <g id="line2d_7">
      <path clip-path="url(#pf670d910fb)" d="M 419.727273 630 
L 419.727273 86.4 
" style="fill:none;stroke:#b0b0b0;stroke-linecap:square;stroke-width:0.8;"/>
     </g>
     <g id="line2d_8">
      <g>
       <use style="stroke:#000000;stroke-width:0.8;" x="419.727273" xlink:href="#m2c6f2da148" y="630"/>
      </g>
     </g>
     <g id="text_4">
      <!-- 60 -->
      <g transform="translate(413.364773 644.598438)scale(0.1 -0.1)">
       <defs>
        <path d="M 33.015625 40.375 
Q 26.375 40.375 22.484375 35.828125 
Q 18.609375 31.296875 18.609375 23.390625 
Q 18.609375 15.53125 22.484375 10.953125 
Q 26.375 6.390625 33.015625 6.390625 
Q 39.65625 6.390625 43.53125 10.953125 
Q 47.40625 15.53125 47.40625 23.390625 
Q 47.40625 31.296875 43.53125 35.828125 
Q 39.65625 40.375 33.015625 40.375 
z
M 52.59375 71.296875 
L 52.59375 62.3125 
Q 48.875 64.0625 45.09375 64.984375 
Q 41.3125 65.921875 37.59375 65.921875 
Q 27.828125 65.921875 22.671875 59.328125 
Q 17.53125 52.734375 16.796875 39.40625 
Q 19.671875 43.65625 24.015625 45.921875 
Q 28.375 48.1875 33.59375 48.1875 
Q 44.578125 48.1875 50.953125 41.515625 
Q 57.328125 34.859375 57.328125 23.390625 
Q 57.328125 12.15625 50.6875 5.359375 
Q 44.046875 -1.421875 33.015625 -1.421875 
Q 20.359375 -1.421875 13.671875 8.265625 
Q 6.984375 17.96875 6.984375 36.375 
Q 6.984375 53.65625 15.1875 63.9375 
Q 23.390625 74.21875 37.203125 74.21875 
Q 40.921875 74.21875 44.703125 73.484375 
Q 48.484375 72.75 52.59375 71.296875 
z
" id="DejaVuSans-54"/>
       </defs>
       <use xlink:href="#DejaVuSans-54"/>
       <use x="63.623047" xlink:href="#DejaVuSans-48"/>
      </g>
     </g>
    </g>
    <g id="xtick_5">
     <g id="line2d_9">
      <path clip-path="url(#pf670d910fb)" d="M 521.181818 630 
L 521.181818 86.4 
" style="fill:none;stroke:#b0b0b0;stroke-linecap:square;stroke-width:0.8;"/>
     </g>
     <g id="line2d_10">
      <g>
       <use style="stroke:#000000;stroke-width:0.8;" x="521.181818" xlink:href="#m2c6f2da148" y="630"/>
      </g>
     </g>
     <g id="text_5">
      <!-- 80 -->
      <g transform="translate(514.819318 644.598438)scale(0.1 -0.1)">
       <defs>
        <path d="M 31.78125 34.625 
Q 24.75 34.625 20.71875 30.859375 
Q 16.703125 27.09375 16.703125 20.515625 
Q 16.703125 13.921875 20.71875 10.15625 
Q 24.75 6.390625 31.78125 6.390625 
Q 38.8125 6.390625 42.859375 10.171875 
Q 46.921875 13.96875 46.921875 20.515625 
Q 46.921875 27.09375 42.890625 30.859375 
Q 38.875 34.625 31.78125 34.625 
z
M 21.921875 38.8125 
Q 15.578125 40.375 12.03125 44.71875 
Q 8.5 49.078125 8.5 55.328125 
Q 8.5 64.0625 14.71875 69.140625 
Q 20.953125 74.21875 31.78125 74.21875 
Q 42.671875 74.21875 48.875 69.140625 
Q 55.078125 64.0625 55.078125 55.328125 
Q 55.078125 49.078125 51.53125 44.71875 
Q 48 40.375 41.703125 38.8125 
Q 48.828125 37.15625 52.796875 32.3125 
Q 56.78125 27.484375 56.78125 20.515625 
Q 56.78125 9.90625 50.3125 4.234375 
Q 43.84375 -1.421875 31.78125 -1.421875 
Q 19.734375 -1.421875 13.25 4.234375 
Q 6.78125 9.90625 6.78125 20.515625 
Q 6.78125 27.484375 10.78125 32.3125 
Q 14.796875 37.15625 21.921875 38.8125 
z
M 18.3125 54.390625 
Q 18.3125 48.734375 21.84375 45.5625 
Q 25.390625 42.390625 31.78125 42.390625 
Q 38.140625 42.390625 41.71875 45.5625 
Q 45.3125 48.734375 45.3125 54.390625 
Q 45.3125 60.0625 41.71875 63.234375 
Q 38.140625 66.40625 31.78125 66.40625 
Q 25.390625 66.40625 21.84375 63.234375 
Q 18.3125 60.0625 18.3125 54.390625 
z
" id="DejaVuSans-56"/>
       </defs>
       <use xlink:href="#DejaVuSans-56"/>
       <use x="63.623047" xlink:href="#DejaVuSans-48"/>
      </g>
     </g>
    </g>
    <g id="xtick_6">
     <g id="line2d_11">
      <path clip-path="url(#pf670d910fb)" d="M 622.636364 630 
L 622.636364 86.4 
" style="fill:none;stroke:#b0b0b0;stroke-linecap:square;stroke-width:0.8;"/>
     </g>
     <g id="line2d_12">
      <g>
       <use style="stroke:#000000;stroke-width:0.8;" x="622.636364" xlink:href="#m2c6f2da148" y="630"/>
      </g>
     </g>
     <g id="text_6">
      <!-- 100 -->
      <g transform="translate(613.092614 644.598438)scale(0.1 -0.1)">
       <defs>
        <path d="M 12.40625 8.296875 
L 28.515625 8.296875 
L 28.515625 63.921875 
L 10.984375 60.40625 
L 10.984375 69.390625 
L 28.421875 72.90625 
L 38.28125 72.90625 
L 38.28125 8.296875 
L 54.390625 8.296875 
L 54.390625 0 
L 12.40625 0 
z
" id="DejaVuSans-49"/>
       </defs>
       <use xlink:href="#DejaVuSans-49"/>
       <use x="63.623047" xlink:href="#DejaVuSans-48"/>
       <use x="127.246094" xlink:href="#DejaVuSans-48"/>
      </g>
     </g>
    </g>
    <g id="text_7">
     <!-- Days -->
     <g transform="translate(356.521875 658.276562)scale(0.1 -0.1)">
      <defs>
       <path d="M 19.671875 64.796875 
L 19.671875 8.109375 
L 31.59375 8.109375 
Q 46.6875 8.109375 53.6875 14.9375 
Q 60.6875 21.78125 60.6875 36.53125 
Q 60.6875 51.171875 53.6875 57.984375 
Q 46.6875 64.796875 31.59375 64.796875 
z
M 9.8125 72.90625 
L 30.078125 72.90625 
Q 51.265625 72.90625 61.171875 64.09375 
Q 71.09375 55.28125 71.09375 36.53125 
Q 71.09375 17.671875 61.125 8.828125 
Q 51.171875 0 30.078125 0 
L 9.8125 0 
z
" id="DejaVuSans-68"/>
       <path d="M 34.28125 27.484375 
Q 23.390625 27.484375 19.1875 25 
Q 14.984375 22.515625 14.984375 16.5 
Q 14.984375 11.71875 18.140625 8.90625 
Q 21.296875 6.109375 26.703125 6.109375 
Q 34.1875 6.109375 38.703125 11.40625 
Q 43.21875 16.703125 43.21875 25.484375 
L 43.21875 27.484375 
z
M 52.203125 31.203125 
L 52.203125 0 
L 43.21875 0 
L 43.21875 8.296875 
Q 40.140625 3.328125 35.546875 0.953125 
Q 30.953125 -1.421875 24.3125 -1.421875 
Q 15.921875 -1.421875 10.953125 3.296875 
Q 6 8.015625 6 15.921875 
Q 6 25.140625 12.171875 29.828125 
Q 18.359375 34.515625 30.609375 34.515625 
L 43.21875 34.515625 
L 43.21875 35.40625 
Q 43.21875 41.609375 39.140625 45 
Q 35.0625 48.390625 27.6875 48.390625 
Q 23 48.390625 18.546875 47.265625 
Q 14.109375 46.140625 10.015625 43.890625 
L 10.015625 52.203125 
Q 14.9375 54.109375 19.578125 55.046875 
Q 24.21875 56 28.609375 56 
Q 40.484375 56 46.34375 49.84375 
Q 52.203125 43.703125 52.203125 31.203125 
z
" id="DejaVuSans-97"/>
       <path d="M 32.171875 -5.078125 
Q 28.375 -14.84375 24.75 -17.8125 
Q 21.140625 -20.796875 15.09375 -20.796875 
L 7.90625 -20.796875 
L 7.90625 -13.28125 
L 13.1875 -13.28125 
Q 16.890625 -13.28125 18.9375 -11.515625 
Q 21 -9.765625 23.484375 -3.21875 
L 25.09375 0.875 
L 2.984375 54.6875 
L 12.5 54.6875 
L 29.59375 11.921875 
L 46.6875 54.6875 
L 56.203125 54.6875 
z
" id="DejaVuSans-121"/>
       <path d="M 44.28125 53.078125 
L 44.28125 44.578125 
Q 40.484375 46.53125 36.375 47.5 
Q 32.28125 48.484375 27.875 48.484375 
Q 21.1875 48.484375 17.84375 46.4375 
Q 14.5 44.390625 14.5 40.28125 
Q 14.5 37.15625 16.890625 35.375 
Q 19.28125 33.59375 26.515625 31.984375 
L 29.59375 31.296875 
Q 39.15625 29.25 43.1875 25.515625 
Q 47.21875 21.78125 47.21875 15.09375 
Q 47.21875 7.46875 41.1875 3.015625 
Q 35.15625 -1.421875 24.609375 -1.421875 
Q 20.21875 -1.421875 15.453125 -0.5625 
Q 10.6875 0.296875 5.421875 2 
L 5.421875 11.28125 
Q 10.40625 8.6875 15.234375 7.390625 
Q 20.0625 6.109375 24.8125 6.109375 
Q 31.15625 6.109375 34.5625 8.28125 
Q 37.984375 10.453125 37.984375 14.40625 
Q 37.984375 18.0625 35.515625 20.015625 
Q 33.0625 21.96875 24.703125 23.78125 
L 21.578125 24.515625 
Q 13.234375 26.265625 9.515625 29.90625 
Q 5.8125 33.546875 5.8125 39.890625 
Q 5.8125 47.609375 11.28125 51.796875 
Q 16.75 56 26.8125 56 
Q 31.78125 56 36.171875 55.265625 
Q 40.578125 54.546875 44.28125 53.078125 
z
" id="DejaVuSans-115"/>
      </defs>
      <use xlink:href="#DejaVuSans-68"/>
      <use x="77.001953" xlink:href="#DejaVuSans-97"/>
      <use x="138.28125" xlink:href="#DejaVuSans-121"/>
      <use x="197.460938" xlink:href="#DejaVuSans-115"/>
     </g>
    </g>
   </g>
   <g id="matplotlib.axis_2">
    <g id="ytick_1">
     <g id="line2d_13">
      <path clip-path="url(#pf670d910fb)" d="M 90 606.358584 
L 648 606.358584 
" style="fill:none;stroke:#b0b0b0;stroke-linecap:square;stroke-width:0.8;"/>
     </g>
     <g id="line2d_14">
      <defs>
       <path d="M 0 0 
L -3.5 0 
" id="m56fa7ea164" style="stroke:#000000;stroke-width:0.8;"/>
      </defs>
      <g>
       <use style="stroke:#000000;stroke-width:0.8;" x="90" xlink:href="#m56fa7ea164" y="606.358584"/>
      </g>
     </g>
     <g id="text_8">
      <!-- 0 -->
      <g transform="translate(76.6375 610.157803)scale(0.1 -0.1)">
       <use xlink:href="#DejaVuSans-48"/>
      </g>
     </g>
    </g>
    <g id="ytick_2">
     <g id="line2d_15">
      <path clip-path="url(#pf670d910fb)" d="M 90 487.728035 
L 648 487.728035 
" style="fill:none;stroke:#b0b0b0;stroke-linecap:square;stroke-width:0.8;"/>
     </g>
     <g id="line2d_16">
      <g>
       <use style="stroke:#000000;stroke-width:0.8;" x="90" xlink:href="#m56fa7ea164" y="487.728035"/>
      </g>
     </g>
     <g id="text_9">
      <!-- 1000 -->
      <g transform="translate(57.55 491.527253)scale(0.1 -0.1)">
       <use xlink:href="#DejaVuSans-49"/>
       <use x="63.623047" xlink:href="#DejaVuSans-48"/>
       <use x="127.246094" xlink:href="#DejaVuSans-48"/>
       <use x="190.869141" xlink:href="#DejaVuSans-48"/>
      </g>
     </g>
    </g>
    <g id="ytick_3">
     <g id="line2d_17">
      <path clip-path="url(#pf670d910fb)" d="M 90 369.097485 
L 648 369.097485 
" style="fill:none;stroke:#b0b0b0;stroke-linecap:square;stroke-width:0.8;"/>
     </g>
     <g id="line2d_18">
      <g>
       <use style="stroke:#000000;stroke-width:0.8;" x="90" xlink:href="#m56fa7ea164" y="369.097485"/>
      </g>
     </g>
     <g id="text_10">
      <!-- 2000 -->
      <g transform="translate(57.55 372.896704)scale(0.1 -0.1)">
       <use xlink:href="#DejaVuSans-50"/>
       <use x="63.623047" xlink:href="#DejaVuSans-48"/>
       <use x="127.246094" xlink:href="#DejaVuSans-48"/>
       <use x="190.869141" xlink:href="#DejaVuSans-48"/>
      </g>
     </g>
    </g>
    <g id="ytick_4">
     <g id="line2d_19">
      <path clip-path="url(#pf670d910fb)" d="M 90 250.466936 
L 648 250.466936 
" style="fill:none;stroke:#b0b0b0;stroke-linecap:square;stroke-width:0.8;"/>
     </g>
     <g id="line2d_20">
      <g>
       <use style="stroke:#000000;stroke-width:0.8;" x="90" xlink:href="#m56fa7ea164" y="250.466936"/>
      </g>
     </g>
     <g id="text_11">
      <!-- 3000 -->
      <g transform="translate(57.55 254.266155)scale(0.1 -0.1)">
       <defs>
        <path d="M 40.578125 39.3125 
Q 47.65625 37.796875 51.625 33 
Q 55.609375 28.21875 55.609375 21.1875 
Q 55.609375 10.40625 48.1875 4.484375 
Q 40.765625 -1.421875 27.09375 -1.421875 
Q 22.515625 -1.421875 17.65625 -0.515625 
Q 12.796875 0.390625 7.625 2.203125 
L 7.625 11.71875 
Q 11.71875 9.328125 16.59375 8.109375 
Q 21.484375 6.890625 26.8125 6.890625 
Q 36.078125 6.890625 40.9375 10.546875 
Q 45.796875 14.203125 45.796875 21.1875 
Q 45.796875 27.640625 41.28125 31.265625 
Q 36.765625 34.90625 28.71875 34.90625 
L 20.21875 34.90625 
L 20.21875 43.015625 
L 29.109375 43.015625 
Q 36.375 43.015625 40.234375 45.921875 
Q 44.09375 48.828125 44.09375 54.296875 
Q 44.09375 59.90625 40.109375 62.90625 
Q 36.140625 65.921875 28.71875 65.921875 
Q 24.65625 65.921875 20.015625 65.03125 
Q 15.375 64.15625 9.8125 62.3125 
L 9.8125 71.09375 
Q 15.4375 72.65625 20.34375 73.4375 
Q 25.25 74.21875 29.59375 74.21875 
Q 40.828125 74.21875 47.359375 69.109375 
Q 53.90625 64.015625 53.90625 55.328125 
Q 53.90625 49.265625 50.4375 45.09375 
Q 46.96875 40.921875 40.578125 39.3125 
z
" id="DejaVuSans-51"/>
       </defs>
       <use xlink:href="#DejaVuSans-51"/>
       <use x="63.623047" xlink:href="#DejaVuSans-48"/>
       <use x="127.246094" xlink:href="#DejaVuSans-48"/>
       <use x="190.869141" xlink:href="#DejaVuSans-48"/>
      </g>
     </g>
    </g>
    <g id="ytick_5">
     <g id="line2d_21">
      <path clip-path="url(#pf670d910fb)" d="M 90 131.836387 
L 648 131.836387 
" style="fill:none;stroke:#b0b0b0;stroke-linecap:square;stroke-width:0.8;"/>
     </g>
     <g id="line2d_22">
      <g>
       <use style="stroke:#000000;stroke-width:0.8;" x="90" xlink:href="#m56fa7ea164" y="131.836387"/>
      </g>
     </g>
     <g id="text_12">
      <!-- 4000 -->
      <g transform="translate(57.55 135.635606)scale(0.1 -0.1)">
       <use xlink:href="#DejaVuSans-52"/>
       <use x="63.623047" xlink:href="#DejaVuSans-48"/>
       <use x="127.246094" xlink:href="#DejaVuSans-48"/>
       <use x="190.869141" xlink:href="#DejaVuSans-48"/>
      </g>
     </g>
    </g>
    <g id="text_13">
     <!-- Cumulative cases -->
     <g transform="translate(51.470312 402.425781)rotate(-90)scale(0.1 -0.1)">
      <defs>
       <path d="M 64.40625 67.28125 
L 64.40625 56.890625 
Q 59.421875 61.53125 53.78125 63.8125 
Q 48.140625 66.109375 41.796875 66.109375 
Q 29.296875 66.109375 22.65625 58.46875 
Q 16.015625 50.828125 16.015625 36.375 
Q 16.015625 21.96875 22.65625 14.328125 
Q 29.296875 6.6875 41.796875 6.6875 
Q 48.140625 6.6875 53.78125 8.984375 
Q 59.421875 11.28125 64.40625 15.921875 
L 64.40625 5.609375 
Q 59.234375 2.09375 53.4375 0.328125 
Q 47.65625 -1.421875 41.21875 -1.421875 
Q 24.65625 -1.421875 15.125 8.703125 
Q 5.609375 18.84375 5.609375 36.375 
Q 5.609375 53.953125 15.125 64.078125 
Q 24.65625 74.21875 41.21875 74.21875 
Q 47.75 74.21875 53.53125 72.484375 
Q 59.328125 70.75 64.40625 67.28125 
z
" id="DejaVuSans-67"/>
       <path d="M 8.5 21.578125 
L 8.5 54.6875 
L 17.484375 54.6875 
L 17.484375 21.921875 
Q 17.484375 14.15625 20.5 10.265625 
Q 23.53125 6.390625 29.59375 6.390625 
Q 36.859375 6.390625 41.078125 11.03125 
Q 45.3125 15.671875 45.3125 23.6875 
L 45.3125 54.6875 
L 54.296875 54.6875 
L 54.296875 0 
L 45.3125 0 
L 45.3125 8.40625 
Q 42.046875 3.421875 37.71875 1 
Q 33.40625 -1.421875 27.6875 -1.421875 
Q 18.265625 -1.421875 13.375 4.4375 
Q 8.5 10.296875 8.5 21.578125 
z
M 31.109375 56 
z
" id="DejaVuSans-117"/>
       <path d="M 52 44.1875 
Q 55.375 50.25 60.0625 53.125 
Q 64.75 56 71.09375 56 
Q 79.640625 56 84.28125 50.015625 
Q 88.921875 44.046875 88.921875 33.015625 
L 88.921875 0 
L 79.890625 0 
L 79.890625 32.71875 
Q 79.890625 40.578125 77.09375 44.375 
Q 74.3125 48.1875 68.609375 48.1875 
Q 61.625 48.1875 57.5625 43.546875 
Q 53.515625 38.921875 53.515625 30.90625 
L 53.515625 0 
L 44.484375 0 
L 44.484375 32.71875 
Q 44.484375 40.625 41.703125 44.40625 
Q 38.921875 48.1875 33.109375 48.1875 
Q 26.21875 48.1875 22.15625 43.53125 
Q 18.109375 38.875 18.109375 30.90625 
L 18.109375 0 
L 9.078125 0 
L 9.078125 54.6875 
L 18.109375 54.6875 
L 18.109375 46.1875 
Q 21.1875 51.21875 25.484375 53.609375 
Q 29.78125 56 35.6875 56 
Q 41.65625 56 45.828125 52.96875 
Q 50 49.953125 52 44.1875 
z
" id="DejaVuSans-109"/>
       <path d="M 9.421875 75.984375 
L 18.40625 75.984375 
L 18.40625 0 
L 9.421875 0 
z
" id="DejaVuSans-108"/>
       <path d="M 18.3125 70.21875 
L 18.3125 54.6875 
L 36.8125 54.6875 
L 36.8125 47.703125 
L 18.3125 47.703125 
L 18.3125 18.015625 
Q 18.3125 11.328125 20.140625 9.421875 
Q 21.96875 7.515625 27.59375 7.515625 
L 36.8125 7.515625 
L 36.8125 0 
L 27.59375 0 
Q 17.1875 0 13.234375 3.875 
Q 9.28125 7.765625 9.28125 18.015625 
L 9.28125 47.703125 
L 2.6875 47.703125 
L 2.6875 54.6875 
L 9.28125 54.6875 
L 9.28125 70.21875 
z
" id="DejaVuSans-116"/>
       <path d="M 9.421875 54.6875 
L 18.40625 54.6875 
L 18.40625 0 
L 9.421875 0 
z
M 9.421875 75.984375 
L 18.40625 75.984375 
L 18.40625 64.59375 
L 9.421875 64.59375 
z
" id="DejaVuSans-105"/>
       <path d="M 2.984375 54.6875 
L 12.5 54.6875 
L 29.59375 8.796875 
L 46.6875 54.6875 
L 56.203125 54.6875 
L 35.6875 0 
L 23.484375 0 
z
" id="DejaVuSans-118"/>
       <path d="M 56.203125 29.59375 
L 56.203125 25.203125 
L 14.890625 25.203125 
Q 15.484375 15.921875 20.484375 11.0625 
Q 25.484375 6.203125 34.421875 6.203125 
Q 39.59375 6.203125 44.453125 7.46875 
Q 49.3125 8.734375 54.109375 11.28125 
L 54.109375 2.78125 
Q 49.265625 0.734375 44.1875 -0.34375 
Q 39.109375 -1.421875 33.890625 -1.421875 
Q 20.796875 -1.421875 13.15625 6.1875 
Q 5.515625 13.8125 5.515625 26.8125 
Q 5.515625 40.234375 12.765625 48.109375 
Q 20.015625 56 32.328125 56 
Q 43.359375 56 49.78125 48.890625 
Q 56.203125 41.796875 56.203125 29.59375 
z
M 47.21875 32.234375 
Q 47.125 39.59375 43.09375 43.984375 
Q 39.0625 48.390625 32.421875 48.390625 
Q 24.90625 48.390625 20.390625 44.140625 
Q 15.875 39.890625 15.1875 32.171875 
z
" id="DejaVuSans-101"/>
       <path id="DejaVuSans-32"/>
       <path d="M 48.78125 52.59375 
L 48.78125 44.1875 
Q 44.96875 46.296875 41.140625 47.34375 
Q 37.3125 48.390625 33.40625 48.390625 
Q 24.65625 48.390625 19.8125 42.84375 
Q 14.984375 37.3125 14.984375 27.296875 
Q 14.984375 17.28125 19.8125 11.734375 
Q 24.65625 6.203125 33.40625 6.203125 
Q 37.3125 6.203125 41.140625 7.25 
Q 44.96875 8.296875 48.78125 10.40625 
L 48.78125 2.09375 
Q 45.015625 0.34375 40.984375 -0.53125 
Q 36.96875 -1.421875 32.421875 -1.421875 
Q 20.0625 -1.421875 12.78125 6.34375 
Q 5.515625 14.109375 5.515625 27.296875 
Q 5.515625 40.671875 12.859375 48.328125 
Q 20.21875 56 33.015625 56 
Q 37.15625 56 41.109375 55.140625 
Q 45.0625 54.296875 48.78125 52.59375 
z
" id="DejaVuSans-99"/>
      </defs>
      <use xlink:href="#DejaVuSans-67"/>
      <use x="69.824219" xlink:href="#DejaVuSans-117"/>
      <use x="133.203125" xlink:href="#DejaVuSans-109"/>
      <use x="230.615234" xlink:href="#DejaVuSans-117"/>
      <use x="293.994141" xlink:href="#DejaVuSans-108"/>
      <use x="321.777344" xlink:href="#DejaVuSans-97"/>
      <use x="383.056641" xlink:href="#DejaVuSans-116"/>
      <use x="422.265625" xlink:href="#DejaVuSans-105"/>
      <use x="450.048828" xlink:href="#DejaVuSans-118"/>
      <use x="509.228516" xlink:href="#DejaVuSans-101"/>
      <use x="570.751953" xlink:href="#DejaVuSans-32"/>
      <use x="602.539062" xlink:href="#DejaVuSans-99"/>
      <use x="657.519531" xlink:href="#DejaVuSans-97"/>
      <use x="718.798828" xlink:href="#DejaVuSans-115"/>
      <use x="770.898438" xlink:href="#DejaVuSans-101"/>
      <use x="832.421875" xlink:href="#DejaVuSans-115"/>
     </g>
    </g>
   </g>
   <g id="line2d_23">
    <path clip-path="url(#pf670d910fb)" d="M 115.363636 605.290909 
L 120.436364 605.128368 
L 125.509091 604.941154 
L 130.581818 604.725547 
L 135.654545 604.477273 
L 140.727273 604.191423 
L 145.8 603.862367 
L 150.872727 603.483648 
L 155.945455 603.047869 
L 161.018182 602.546561 
L 166.090909 601.970041 
L 171.163636 601.307254 
L 176.236364 600.545588 
L 181.309091 599.670687 
L 186.381818 598.666237 
L 191.454545 597.513742 
L 196.527273 596.192283 
L 201.6 594.678274 
L 206.672727 592.945214 
L 211.745455 590.963442 
L 216.818182 588.699925 
L 221.890909 586.118068 
L 226.963636 583.177598 
L 232.036364 579.834527 
L 237.109091 576.041244 
L 242.181818 571.746768 
L 247.254545 566.897216 
L 252.327273 561.436529 
L 257.4 555.307518 
L 262.472727 548.453272 
L 267.545455 540.818973 
L 272.618182 532.354127 
L 277.690909 523.015204 
L 282.763636 512.768633 
L 287.836364 501.594025 
L 292.909091 489.487466 
L 297.981818 476.464625 
L 303.054545 462.563391 
L 308.127273 447.84571 
L 313.2 432.398303 
L 318.272727 416.332004 
L 323.345455 399.779549 
L 328.418182 382.89181 
L 333.490909 365.832652 
L 338.563636 348.772728 
L 343.636364 331.882722 
L 348.709091 315.326586 
L 353.781818 299.255335 
L 358.854545 283.801885 
L 363.927273 269.077276 
L 369 255.16845 
L 374.072727 242.137574 
L 379.145455 230.022743 
L 384.218182 218.839814 
L 389.290909 208.585035 
L 394.363636 199.238149 
L 399.436364 190.765688 
L 404.509091 183.124197 
L 409.581818 176.263233 
L 414.654545 170.128003 
L 419.727273 164.66161 
L 424.8 159.806858 
L 429.872727 155.507674 
L 434.945455 151.710152 
L 440.018182 148.363281 
L 445.090909 145.419421 
L 450.163636 142.834549 
L 455.236364 140.56836 
L 460.309091 138.584227 
L 465.381818 136.849085 
L 470.454545 135.333244 
L 475.527273 134.010176 
L 480.6 132.856271 
L 485.672727 131.850586 
L 490.745455 130.974605 
L 495.818182 130.211995 
L 500.890909 129.548384 
L 505.963636 128.971146 
L 511.036364 128.469212 
L 516.109091 128.032887 
L 521.181818 127.653694 
L 526.254545 127.324225 
L 531.327273 127.038016 
L 536.4 126.789429 
L 541.472727 126.573551 
L 546.545455 126.386101 
L 551.618182 126.223355 
L 556.690909 126.082069 
L 561.763636 125.959425 
L 566.836364 125.85297 
L 571.909091 125.760574 
L 576.981818 125.680384 
L 582.054545 125.610791 
L 587.127273 125.550397 
L 592.2 125.497988 
L 597.272727 125.452509 
L 602.345455 125.413046 
L 607.418182 125.378803 
L 612.490909 125.349091 
L 617.563636 125.32331 
L 622.636364 125.300941 
" style="fill:none;stroke:#1f77b4;stroke-linecap:square;stroke-width:1.5;"/>
   </g>
   <g id="line2d_24">
    <path clip-path="url(#pf670d910fb)" d="M 115.363636 605.290909 
L 120.436364 603.405566 
L 125.509091 601.403513 
L 130.581818 599.278606 
L 135.654545 597.024525 
L 140.727273 594.63479 
L 145.8 592.102777 
L 150.872727 589.421741 
L 155.945455 586.584848 
L 161.018182 583.585203 
L 166.090909 580.415888 
L 171.163636 577.070005 
L 176.236364 573.540722 
L 181.309091 569.821328 
L 186.381818 565.905287 
L 191.454545 561.786309 
L 196.527273 557.458412 
L 201.6 552.916005 
L 206.672727 548.153959 
L 211.745455 543.167698 
L 216.818182 537.953281 
L 221.890909 532.507495 
L 226.963636 526.827946 
L 232.036364 520.913148 
L 237.109091 514.762615 
L 242.181818 508.376948 
L 247.254545 501.757914 
L 252.327273 494.908522 
L 257.4 487.833089 
L 262.472727 480.537291 
L 267.545455 473.028209 
L 272.618182 465.314347 
L 277.690909 457.405647 
L 282.763636 449.313475 
L 287.836364 441.050591 
L 292.909091 432.631098 
L 297.981818 424.070372 
L 303.054545 415.384965 
L 308.127273 406.592497 
L 313.2 397.711519 
L 318.272727 388.761369 
L 323.345455 379.762007 
L 328.418182 370.733839 
L 333.490909 361.697534 
L 338.563636 352.673837 
L 343.636364 343.683376 
L 348.709091 334.746476 
L 353.781818 325.882978 
L 358.854545 317.112063 
L 363.927273 308.452093 
L 369 299.920469 
L 374.072727 291.533497 
L 379.145455 283.306287 
L 384.218182 275.252656 
L 389.290909 267.385068 
L 394.363636 259.714584 
L 399.436364 252.250835 
L 404.509091 245.002018 
L 409.581818 237.974908 
L 414.654545 231.174883 
L 419.727273 224.605974 
L 424.8 218.270915 
L 429.872727 212.171217 
L 434.945455 206.307237 
L 440.018182 200.678267 
L 445.090909 195.282618 
L 450.163636 190.117711 
L 455.236364 185.180167 
L 460.309091 180.465904 
L 465.381818 175.970216 
L 470.454545 171.687869 
L 475.527273 167.613181 
L 480.6 163.740097 
L 485.672727 160.062267 
L 490.745455 156.573116 
L 495.818182 153.265898 
L 500.890909 150.133765 
L 505.963636 147.169809 
L 511.036364 144.367115 
L 516.109091 141.718798 
L 521.181818 139.218039 
L 526.254545 136.85812 
L 531.327273 134.632444 
L 536.4 132.534564 
L 541.472727 130.558198 
L 546.545455 128.697242 
L 551.618182 126.945786 
L 556.690909 125.298123 
L 561.763636 123.748751 
L 566.836364 122.292381 
L 571.909091 120.923936 
L 576.981818 119.638558 
L 582.054545 118.431598 
L 587.127273 117.29862 
L 592.2 116.235396 
L 597.272727 115.237901 
L 602.345455 114.302309 
L 607.418182 113.424988 
L 612.490909 112.602492 
L 617.563636 111.831557 
L 622.636364 111.109091 
" style="fill:none;stroke:#ff7f0e;stroke-linecap:square;stroke-width:1.5;"/>
   </g>
   <g id="line2d_25">
    <path clip-path="url(#pf670d910fb)" d="M 115.363636 605.290909 
L 120.436364 604.782 
L 125.509091 604.210762 
L 130.581818 603.569773 
L 135.654545 602.850784 
L 140.727273 602.044639 
L 145.8 601.141195 
L 150.872727 600.12924 
L 155.945455 598.996405 
L 161.018182 597.72908 
L 166.090909 596.312338 
L 171.163636 594.72986 
L 176.236364 592.96387 
L 181.309091 590.995093 
L 186.381818 588.802731 
L 191.454545 586.364469 
L 196.527273 583.656521 
L 201.6 580.653721 
L 206.672727 577.329682 
L 211.745455 573.657015 
L 216.818182 569.607634 
L 221.890909 565.153158 
L 226.963636 560.26541 
L 232.036364 554.917025 
L 237.109091 549.082171 
L 242.181818 542.737377 
L 247.254545 535.862449 
L 252.327273 528.441463 
L 257.4 520.463799 
L 262.472727 511.925163 
L 267.545455 502.828558 
L 272.618182 493.185133 
L 277.690909 483.014846 
L 282.763636 472.346868 
L 287.836364 461.219689 
L 292.909091 449.680857 
L 297.981818 437.78635 
L 303.054545 425.599566 
L 308.127273 413.189973 
L 313.2 400.631479 
L 318.272727 388.00059 
L 323.345455 375.374478 
L 328.418182 362.829046 
L 333.490909 350.437102 
L 338.563636 338.266732 
L 343.636364 326.37995 
L 348.709091 314.831652 
L 353.781818 303.668923 
L 358.854545 292.930668 
L 363.927273 282.647557 
L 369 272.842241 
L 374.072727 263.529786 
L 379.145455 254.718277 
L 384.218182 246.409532 
L 389.290909 238.599888 
L 394.363636 231.281002 
L 399.436364 224.440646 
L 404.509091 218.063465 
L 409.581818 212.131679 
L 414.654545 206.625713 
L 419.727273 201.524757 
L 424.8 196.807255 
L 429.872727 192.451308 
L 434.945455 188.435025 
L 440.018182 184.736791 
L 445.090909 181.335495 
L 450.163636 178.210698 
L 455.236364 175.342759 
L 460.309091 172.712926 
L 465.381818 170.303397 
L 470.454545 168.097349 
L 475.527273 166.078956 
L 480.6 164.23338 
L 485.672727 162.546759 
L 490.745455 161.006176 
L 495.818182 159.599628 
L 500.890909 158.315985 
L 505.963636 157.144947 
L 511.036364 156.077 
L 516.109091 155.10337 
L 521.181818 154.215978 
L 526.254545 153.40739 
L 531.327273 152.670779 
L 536.4 151.999879 
L 541.472727 151.388946 
L 546.545455 150.832715 
L 551.618182 150.326368 
L 556.690909 149.865498 
L 561.763636 149.446075 
L 566.836364 149.064416 
L 571.909091 148.717158 
L 576.981818 148.401231 
L 582.054545 148.113835 
L 587.127273 147.852412 
L 592.2 147.614634 
L 597.272727 147.398376 
L 602.345455 147.201703 
L 607.418182 147.02285 
L 612.490909 146.860211 
L 617.563636 146.712322 
L 622.636364 146.577853 
" style="fill:none;stroke:#2ca02c;stroke-linecap:square;stroke-width:1.5;"/>
   </g>
   <g id="line2d_26">
    <path clip-path="url(#pf670d910fb)" d="M 115.363636 605.290909 
L 120.436364 603.965119 
L 125.509091 602.444646 
L 130.581818 600.720142 
L 135.654545 598.782174 
L 140.727273 596.62129 
L 145.8 594.228091 
L 150.872727 591.593316 
L 155.945455 588.707934 
L 161.018182 585.563246 
L 166.090909 582.151002 
L 171.163636 578.463519 
L 176.236364 574.493814 
L 181.309091 570.235738 
L 186.381818 565.684116 
L 191.454545 560.834897 
L 196.527273 555.685287 
L 201.6 550.233899 
L 206.672727 544.48088 
L 211.745455 538.428035 
L 216.818182 532.078934 
L 221.890909 525.439004 
L 226.963636 518.515591 
L 232.036364 511.318006 
L 237.109091 503.857534 
L 242.181818 496.147409 
L 247.254545 488.202769 
L 252.327273 480.040559 
L 257.4 471.67941 
L 262.472727 463.139486 
L 267.545455 454.442294 
L 272.618182 445.61047 
L 277.690909 436.667548 
L 282.763636 427.637701 
L 287.836364 418.545484 
L 292.909091 409.41556 
L 297.981818 400.272438 
L 303.054545 391.140214 
L 308.127273 382.042324 
L 313.2 373.001322 
L 318.272727 364.038681 
L 323.345455 355.174609 
L 328.418182 346.427916 
L 333.490909 337.815888 
L 338.563636 329.354211 
L 343.636364 321.056911 
L 348.709091 312.936335 
L 353.781818 305.003146 
L 358.854545 297.266355 
L 363.927273 289.73336 
L 369 282.41002 
L 374.072727 275.300724 
L 379.145455 268.408489 
L 384.218182 261.735054 
L 389.290909 255.280987 
L 394.363636 249.045788 
L 399.436364 243.028003 
L 404.509091 237.225324 
L 409.581818 231.634694 
L 414.654545 226.25241 
L 419.727273 221.074212 
L 424.8 216.095375 
L 429.872727 211.31079 
L 434.945455 206.715036 
L 440.018182 202.302455 
L 445.090909 198.067209 
L 450.163636 194.003339 
L 455.236364 190.10481 
L 460.309091 186.36556 
L 465.381818 182.779534 
L 470.454545 179.340718 
L 475.527273 176.043168 
L 480.6 172.881033 
L 485.672727 169.848575 
L 490.745455 166.940186 
L 495.818182 164.150399 
L 500.890909 161.473903 
L 505.963636 158.905546 
L 511.036364 156.440344 
L 516.109091 154.073484 
L 521.181818 151.800325 
L 526.254545 149.616404 
L 531.327273 147.517427 
L 536.4 145.499276 
L 541.472727 143.558002 
L 546.545455 141.689825 
L 551.618182 139.891128 
L 556.690909 138.158456 
L 561.763636 136.488506 
L 566.836364 134.878132 
L 571.909091 133.32433 
L 576.981818 131.824242 
L 582.054545 130.375142 
L 587.127273 128.974439 
L 592.2 127.619669 
L 597.272727 126.308488 
L 602.345455 125.038669 
L 607.418182 123.808098 
L 612.490909 122.614766 
L 617.563636 121.456768 
L 622.636364 120.332295 
" style="fill:none;stroke:#d62728;stroke-linecap:square;stroke-width:1.5;"/>
   </g>
   <g id="line2d_27">
    <path clip-path="url(#pf670d910fb)" d="M 115.363636 605.290909 
L 120.436364 605.234506 
L 125.509091 605.086823 
L 130.581818 604.866704 
L 135.654545 604.581027 
L 140.727273 604.22929 
L 145.8 603.806096 
L 150.872727 603.302429 
L 155.945455 602.706257 
L 161.018182 602.002729 
L 166.090909 601.174148 
L 171.163636 600.1998 
L 176.236364 599.055713 
L 181.309091 597.714382 
L 186.381818 596.144493 
L 191.454545 594.310693 
L 196.527273 592.173439 
L 201.6 589.688994 
L 206.672727 586.809607 
L 211.745455 583.483975 
L 216.818182 579.658041 
L 221.890909 575.276215 
L 226.963636 570.283071 
L 232.036364 564.625551 
L 237.109091 558.255655 
L 242.181818 551.133519 
L 247.254545 543.230717 
L 252.327273 534.533503 
L 257.4 525.045671 
L 262.472727 514.790643 
L 267.545455 503.812451 
L 272.618182 492.175343 
L 277.690909 479.961941 
L 282.763636 467.27003 
L 287.836364 454.208302 
L 292.909091 440.891479 
L 297.981818 427.435323 
L 303.054545 413.952024 
L 308.127273 400.546319 
L 313.2 387.312588 
L 318.272727 374.332986 
L 323.345455 361.676558 
L 328.418182 349.399188 
L 333.490909 337.544187 
L 338.563636 326.143319 
L 343.636364 315.218084 
L 348.709091 304.781113 
L 353.781818 294.837561 
L 358.854545 285.386428 
L 363.927273 276.421753 
L 369 267.93368 
L 374.072727 259.909366 
L 379.145455 252.333754 
L 384.218182 245.190218 
L 389.290909 238.461084 
L 394.363636 232.128061 
L 399.436364 226.172577 
L 404.509091 220.576051 
L 409.581818 215.320099 
L 414.654545 210.386696 
L 419.727273 205.758293 
L 424.8 201.417904 
L 429.872727 197.349171 
L 434.945455 193.536399 
L 440.018182 189.964582 
L 445.090909 186.619415 
L 450.163636 183.487291 
L 455.236364 180.555296 
L 460.309091 177.811196 
L 465.381818 175.243418 
L 470.454545 172.841029 
L 475.527273 170.593714 
L 480.6 168.491748 
L 485.672727 166.525977 
L 490.745455 164.687782 
L 495.818182 162.969063 
L 500.890909 161.362206 
L 505.963636 159.860062 
L 511.036364 158.455917 
L 516.109091 157.143475 
L 521.181818 155.916828 
L 526.254545 154.770439 
L 531.327273 153.699118 
L 536.4 152.698001 
L 541.472727 151.762533 
L 546.545455 150.888449 
L 551.618182 150.071753 
L 556.690909 149.308708 
L 561.763636 148.595813 
L 566.836364 147.929795 
L 571.909091 147.30759 
L 576.981818 146.726332 
L 582.054545 146.18334 
L 587.127273 145.676107 
L 592.2 145.20229 
L 597.272727 144.759695 
L 602.345455 144.346274 
L 607.418182 143.96011 
L 612.490909 143.599412 
L 617.563636 143.262506 
L 622.636364 142.947828 
" style="fill:none;stroke:#9467bd;stroke-linecap:square;stroke-width:1.5;"/>
   </g>
   <g id="line2d_28">
    <path clip-path="url(#pf670d910fb)" d="M 115.363636 605.290909 
L 120.436364 605.165923 
L 125.509091 604.802106 
L 130.581818 604.209278 
L 135.654545 603.390267 
L 140.727273 602.342948 
L 145.8 601.061681 
L 150.872727 599.538341 
L 155.945455 597.763066 
L 161.018182 595.724822 
L 166.090909 593.411842 
L 171.163636 590.811991 
L 176.236364 587.913079 
L 181.309091 584.703147 
L 186.381818 581.170744 
L 191.454545 577.305185 
L 196.527273 573.096823 
L 201.6 568.537305 
L 206.672727 563.619838 
L 211.745455 558.339436 
L 216.818182 552.693169 
L 221.890909 546.680383 
L 226.963636 540.3029 
L 232.036364 533.565188 
L 237.109091 526.474484 
L 242.181818 519.040878 
L 247.254545 511.277339 
L 252.327273 503.199684 
L 257.4 494.82649 
L 262.472727 486.178948 
L 267.545455 477.280649 
L 272.618182 468.157332 
L 277.690909 458.836571 
L 282.763636 449.347434 
L 287.836364 439.720107 
L 292.909091 429.985501 
L 297.981818 420.17486 
L 303.054545 410.319367 
L 308.127273 400.449765 
L 313.2 390.596008 
L 318.272727 380.786944 
L 323.345455 371.050032 
L 328.418182 361.411104 
L 333.490909 351.894176 
L 338.563636 342.521302 
L 343.636364 333.312468 
L 348.709091 324.285536 
L 353.781818 315.456225 
L 358.854545 306.838124 
L 363.927273 298.442735 
L 369 290.27955 
L 374.072727 282.356138 
L 379.145455 274.678255 
L 384.218182 267.249966 
L 389.290909 260.07377 
L 394.363636 253.150736 
L 399.436364 246.480634 
L 404.509091 240.062073 
L 409.581818 233.892628 
L 414.654545 227.968967 
L 419.727273 222.286968 
L 424.8 216.841838 
L 429.872727 211.62821 
L 434.945455 206.640248 
L 440.018182 201.87173 
L 445.090909 197.316133 
L 450.163636 192.966706 
L 455.236364 188.816535 
L 460.309091 184.858601 
L 465.381818 181.085833 
L 470.454545 177.491156 
L 475.527273 174.067524 
L 480.6 170.807961 
L 485.672727 167.705585 
L 490.745455 164.753639 
L 495.818182 161.945504 
L 500.890909 159.27472 
L 505.963636 156.735001 
L 511.036364 154.320243 
L 516.109091 152.024535 
L 521.181818 149.842159 
L 526.254545 147.767603 
L 531.327273 145.795555 
L 536.4 143.920908 
L 541.472727 142.138758 
L 546.545455 140.444402 
L 551.618182 138.833336 
L 556.690909 137.301254 
L 561.763636 135.844038 
L 566.836364 134.457759 
L 571.909091 133.138668 
L 576.981818 131.883194 
L 582.054545 130.687937 
L 587.127273 129.549661 
L 592.2 128.465291 
L 597.272727 127.431905 
L 602.345455 126.446726 
L 607.418182 125.507123 
L 612.490909 124.610597 
L 617.563636 123.754781 
L 622.636364 122.937431 
" style="fill:none;stroke:#8c564b;stroke-linecap:square;stroke-width:1.5;"/>
   </g>
   <g id="line2d_29">
    <path clip-path="url(#pf670d910fb)" d="M 115.363636 605.290909 
L 120.436364 605.239692 
L 125.509091 605.104122 
L 130.581818 604.900051 
L 135.654545 604.633037 
L 140.727273 604.302051 
L 145.8 603.901518 
L 150.872727 603.422375 
L 155.945455 602.852551 
L 161.018182 602.177113 
L 166.090909 601.378187 
L 171.163636 600.434764 
L 176.236364 599.322422 
L 181.309091 598.013025 
L 186.381818 596.474412 
L 191.454545 594.670144 
L 196.527273 592.559329 
L 201.6 590.096604 
L 206.672727 587.232327 
L 211.745455 583.913067 
L 216.818182 580.082479 
L 221.890909 575.682632 
L 226.963636 570.655865 
L 232.036364 564.947197 
L 237.109091 558.507249 
L 242.181818 551.295577 
L 247.254545 543.284182 
L 252.327273 534.460917 
L 257.4 524.832382 
L 262.472727 514.425917 
L 267.545455 503.29033 
L 272.618182 491.495128 
L 277.690909 479.128208 
L 282.763636 466.292193 
L 287.836364 453.099769 
L 292.909091 439.668538 
L 297.981818 426.115922 
L 303.054545 412.55458 
L 308.127273 399.08869 
L 313.2 385.811282 
L 318.272727 372.802627 
L 323.345455 360.129605 
L 328.418182 347.845858 
L 333.490909 335.992541 
L 338.563636 324.599447 
L 343.636364 313.686357 
L 348.709091 303.264449 
L 353.781818 293.337693 
L 358.854545 283.904148 
L 363.927273 274.957134 
L 369 266.486256 
L 374.072727 258.478291 
L 379.145455 250.917924 
L 384.218182 243.788366 
L 389.290909 237.071859 
L 394.363636 230.750083 
L 399.436364 224.804481 
L 404.509091 219.216515 
L 409.581818 213.967866 
L 414.654545 209.040585 
L 419.727273 204.417208 
L 424.8 200.080839 
L 429.872727 196.015208 
L 434.945455 192.204708 
L 440.018182 188.634419 
L 445.090909 185.290113 
L 450.163636 182.15826 
L 455.236364 179.226017 
L 460.309091 176.481215 
L 465.381818 173.912339 
L 470.454545 171.508511 
L 475.527273 169.259467 
L 480.6 167.155526 
L 485.672727 165.187573 
L 490.745455 163.347029 
L 495.818182 161.625824 
L 500.890909 160.016374 
L 505.963636 158.511554 
L 511.036364 157.104676 
L 516.109091 155.789461 
L 521.181818 154.560022 
L 526.254545 153.410835 
L 531.327273 152.336725 
L 536.4 151.332839 
L 541.472727 150.394633 
L 546.545455 149.517848 
L 551.618182 148.698499 
L 556.690909 147.932852 
L 561.763636 147.217413 
L 566.836364 146.548912 
L 571.909091 145.924289 
L 576.981818 145.34068 
L 582.054545 144.795406 
L 587.127273 144.285963 
L 592.2 143.810005 
L 597.272727 143.365343 
L 602.345455 142.949926 
L 607.418182 142.561837 
L 612.490909 142.199286 
L 617.563636 141.860596 
L 622.636364 141.544203 
" style="fill:none;stroke:#e377c2;stroke-linecap:square;stroke-width:1.5;"/>
   </g>
   <g id="line2d_30">
    <path clip-path="url(#pf670d910fb)" d="M 115.363636 605.290909 
L 120.436364 605.176109 
L 125.509091 604.837319 
L 130.581818 604.278788 
L 135.654545 603.500237 
L 140.727273 602.497897 
L 145.8 601.265304 
L 150.872727 599.793925 
L 155.945455 598.073659 
L 161.018182 596.093247 
L 166.090909 593.840638 
L 171.163636 591.303301 
L 176.236364 588.468527 
L 181.309091 585.323718 
L 186.381818 581.856669 
L 191.454545 578.055853 
L 196.527273 573.910713 
L 201.6 569.411946 
L 206.672727 564.551798 
L 211.745455 559.324347 
L 216.818182 553.725772 
L 221.890909 547.754613 
L 226.963636 541.411994 
L 232.036364 534.701815 
L 237.109091 527.630897 
L 242.181818 520.209082 
L 247.254545 512.449262 
L 252.327273 504.367355 
L 257.4 495.982206 
L 262.472727 487.315432 
L 267.545455 478.391192 
L 272.618182 469.235908 
L 277.690909 459.877925 
L 282.763636 450.347143 
L 287.836364 440.67461 
L 292.909091 430.892103 
L 297.981818 421.031702 
L 303.054545 411.125377 
L 308.127273 401.204591 
L 313.2 391.29993 
L 318.272727 381.440782 
L 323.345455 371.655045 
L 328.418182 361.968891 
L 333.490909 352.406578 
L 338.563636 342.99031 
L 343.636364 333.740143 
L 348.709091 324.673937 
L 353.781818 315.80735 
L 358.854545 307.153862 
L 363.927273 298.724831 
L 369 290.52958 
L 374.072727 282.575496 
L 379.145455 274.868148 
L 384.218182 267.411414 
L 389.290909 260.207617 
L 394.363636 253.257664 
L 399.436364 246.561181 
L 404.509091 240.116652 
L 409.581818 233.921549 
L 414.654545 227.972459 
L 419.727273 222.265203 
L 424.8 216.794949 
L 429.872727 211.556315 
L 434.945455 206.543463 
L 440.018182 201.750193 
L 445.090909 197.170012 
L 450.163636 192.796214 
L 455.236364 188.621942 
L 460.309091 184.640241 
L 465.381818 180.844111 
L 470.454545 177.226552 
L 475.527273 173.780598 
L 480.6 170.499352 
L 485.672727 167.376015 
L 490.745455 164.403907 
L 495.818182 161.576488 
L 500.890909 158.887374 
L 505.963636 156.33035 
L 511.036364 153.899379 
L 516.109091 151.58861 
L 521.181818 149.392387 
L 526.254545 147.305247 
L 531.327273 145.321925 
L 536.4 143.437356 
L 541.472727 141.646672 
L 546.545455 139.945198 
L 551.618182 138.328458 
L 556.690909 136.792161 
L 561.763636 135.332206 
L 566.836364 133.944672 
L 571.909091 132.625816 
L 576.981818 131.372066 
L 582.054545 130.180018 
L 587.127273 129.046429 
L 592.2 127.968211 
L 597.272727 126.942427 
L 602.345455 125.966284 
L 607.418182 125.037127 
L 612.490909 124.152436 
L 617.563636 123.309817 
L 622.636364 122.506999 
" style="fill:none;stroke:#7f7f7f;stroke-linecap:square;stroke-width:1.5;"/>
   </g>
   <g id="line2d_31">
    <path clip-path="url(#pf670d910fb)" d="M 115.363636 605.290909 
L 120.436364 605.222141 
L 125.509091 605.014214 
L 130.581818 604.661531 
L 135.654545 604.154836 
L 140.727273 603.481751 
L 145.8 602.627176 
L 150.872727 601.573584 
L 155.945455 600.301283 
L 161.018182 598.788663 
L 166.090909 597.012463 
L 171.163636 594.948085 
L 176.236364 592.569968 
L 181.309091 589.852054 
L 186.381818 586.76834 
L 191.454545 583.293523 
L 196.527273 579.403748 
L 201.6 575.077414 
L 206.672727 570.296043 
L 211.745455 565.045143 
L 216.818182 559.315047 
L 221.890909 553.101646 
L 226.963636 546.406986 
L 232.036364 539.239651 
L 237.109091 531.61492 
L 242.181818 523.554651 
L 247.254545 515.086899 
L 252.327273 506.245282 
L 257.4 497.068135 
L 262.472727 487.59751 
L 267.545455 477.878068 
L 272.618182 467.955957 
L 277.690909 457.877717 
L 282.763636 447.689268 
L 287.836364 437.435036 
L 292.909091 427.157219 
L 297.981818 416.895229 
L 303.054545 406.685282 
L 308.127273 396.560153 
L 313.2 386.549058 
L 318.272727 376.677649 
L 323.345455 366.968101 
L 328.418182 357.439269 
L 333.490909 348.10689 
L 338.563636 338.983822 
L 343.636364 330.080291 
L 348.709091 321.404157 
L 353.781818 312.96116 
L 358.854545 304.755172 
L 363.927273 296.788426 
L 369 289.06173 
L 374.072727 281.574665 
L 379.145455 274.325763 
L 384.218182 267.312669 
L 389.290909 260.53228 
L 394.363636 253.980875 
L 399.436364 247.654225 
L 404.509091 241.547693 
L 409.581818 235.656312 
L 414.654545 229.974869 
L 419.727273 224.497958 
L 424.8 219.220043 
L 429.872727 214.1355 
L 434.945455 209.238662 
L 440.018182 204.523846 
L 445.090909 199.985387 
L 450.163636 195.617663 
L 455.236364 191.41511 
L 460.309091 187.372243 
L 465.381818 183.48367 
L 470.454545 179.744099 
L 475.527273 176.148351 
L 480.6 172.691366 
L 485.672727 169.368206 
L 490.745455 166.174065 
L 495.818182 163.104262 
L 500.890909 160.154253 
L 505.963636 157.319625 
L 511.036364 154.5961 
L 516.109091 151.979529 
L 521.181818 149.465899 
L 526.254545 147.051325 
L 531.327273 144.732051 
L 536.4 142.504446 
L 541.472727 140.365004 
L 546.545455 138.310339 
L 551.618182 136.337185 
L 556.690909 134.442389 
L 561.763636 132.622913 
L 566.836364 130.875827 
L 571.909091 129.198308 
L 576.981818 127.587636 
L 582.054545 126.041191 
L 587.127273 124.55645 
L 592.2 123.130986 
L 597.272727 121.762461 
L 602.345455 120.448626 
L 607.418182 119.187318 
L 612.490909 117.976453 
L 617.563636 116.814031 
L 622.636364 115.698125 
" style="fill:none;stroke:#bcbd22;stroke-linecap:square;stroke-width:1.5;"/>
   </g>
   <g id="line2d_32">
    <path clip-path="url(#pf670d910fb)" d="M 115.363636 605.290909 
L 120.436364 604.816387 
L 125.509091 604.816387 
L 130.581818 604.104604 
L 135.654545 602.799668 
L 140.727273 602.562406 
L 145.8 601.731993 
L 150.872727 600.427057 
L 155.945455 599.478012 
L 161.018182 597.698554 
L 166.090909 596.274987 
L 171.163636 594.139637 
L 176.236364 590.817982 
L 181.309091 586.547282 
L 186.381818 584.174671 
L 191.454545 579.54808 
L 196.527273 575.396011 
L 201.6 570.769419 
L 206.672727 565.668306 
L 211.745455 557.95732 
L 216.818182 553.330728 
L 221.890909 547.992354 
L 226.963636 544.077546 
L 232.036364 536.959713 
L 237.109091 532.451752 
L 242.181818 525.927072 
L 247.254545 519.402391 
L 252.327273 518.097455 
L 257.4 509.437425 
L 262.472727 500.184242 
L 267.545455 490.100646 
L 272.618182 465.18823 
L 277.690909 450.952564 
L 282.763636 439.08951 
L 287.836364 433.395243 
L 292.909091 426.989193 
L 297.981818 419.040947 
L 303.054545 410.380917 
L 308.127273 397.212926 
L 313.2 388.790157 
L 318.272727 379.062452 
L 323.345455 370.995574 
L 328.418182 357.471692 
L 333.490909 349.167553 
L 338.563636 335.406409 
L 343.636364 316.544152 
L 348.709091 316.544152 
L 353.781818 309.782211 
L 358.854545 299.935875 
L 363.927273 292.106259 
L 369 282.853076 
L 374.072727 277.15881 
L 379.145455 266.719321 
L 384.218182 257.347508 
L 389.290909 250.704197 
L 394.363636 246.314867 
L 399.436364 242.75595 
L 404.509091 237.298945 
L 409.581818 232.672354 
L 414.654545 229.350698 
L 419.727273 225.198629 
L 424.8 219.267102 
L 429.872727 216.77586 
L 434.945455 213.335574 
L 440.018182 210.013919 
L 445.090909 205.387327 
L 450.163636 200.997997 
L 455.236364 194.354686 
L 460.309091 190.083986 
L 465.381818 186.999592 
L 470.454545 184.508351 
L 475.527273 179.525868 
L 480.6 174.424754 
L 485.672727 170.035424 
L 490.745455 165.883354 
L 495.818182 162.561699 
L 500.890909 160.782241 
L 505.963636 159.002783 
L 511.036364 156.39291 
L 516.109091 153.664408 
L 521.181818 150.698644 
L 526.254545 147.61425 
L 531.327273 146.546575 
L 536.4 144.648486 
L 541.472727 141.2082 
L 546.545455 140.021895 
L 551.618182 137.293392 
L 556.690909 135.395303 
L 561.763636 133.022692 
L 566.836364 130.887342 
L 571.909091 130.175559 
L 576.981818 129.819667 
L 582.054545 128.633362 
L 587.127273 127.209795 
L 592.2 125.548968 
L 597.272727 124.244032 
L 602.345455 123.650879 
L 607.418182 122.820465 
L 612.490909 122.701834 
L 617.563636 122.583204 
L 622.636364 122.464573 
" style="fill:none;stroke:#17becf;stroke-dasharray:14.8,6.4;stroke-dashoffset:0;stroke-width:4;"/>
   </g>
   <g id="patch_3">
    <path d="M 90 630 
L 90 86.4 
" style="fill:none;stroke:#000000;stroke-linecap:square;stroke-linejoin:miter;stroke-width:0.8;"/>
   </g>
   <g id="patch_4">
    <path d="M 648 630 
L 648 86.4 
" style="fill:none;stroke:#000000;stroke-linecap:square;stroke-linejoin:miter;stroke-width:0.8;"/>
   </g>
   <g id="patch_5">
    <path d="M 90 630 
L 648 630 
" style="fill:none;stroke:#000000;stroke-linecap:square;stroke-linejoin:miter;stroke-width:0.8;"/>
   </g>
   <g id="patch_6">
    <path d="M 90 86.4 
L 648 86.4 
" style="fill:none;stroke:#000000;stroke-linecap:square;stroke-linejoin:miter;stroke-width:0.8;"/>
   </g>
   <g id="text_14">
    <!-- Hungary relative err =  -->
    <g transform="translate(299.574375 80.4)scale(0.12 -0.12)">
     <defs>
      <path d="M 9.8125 72.90625 
L 19.671875 72.90625 
L 19.671875 43.015625 
L 55.515625 43.015625 
L 55.515625 72.90625 
L 65.375 72.90625 
L 65.375 0 
L 55.515625 0 
L 55.515625 34.71875 
L 19.671875 34.71875 
L 19.671875 0 
L 9.8125 0 
z
" id="DejaVuSans-72"/>
      <path d="M 54.890625 33.015625 
L 54.890625 0 
L 45.90625 0 
L 45.90625 32.71875 
Q 45.90625 40.484375 42.875 44.328125 
Q 39.84375 48.1875 33.796875 48.1875 
Q 26.515625 48.1875 22.3125 43.546875 
Q 18.109375 38.921875 18.109375 30.90625 
L 18.109375 0 
L 9.078125 0 
L 9.078125 54.6875 
L 18.109375 54.6875 
L 18.109375 46.1875 
Q 21.34375 51.125 25.703125 53.5625 
Q 30.078125 56 35.796875 56 
Q 45.21875 56 50.046875 50.171875 
Q 54.890625 44.34375 54.890625 33.015625 
z
" id="DejaVuSans-110"/>
      <path d="M 45.40625 27.984375 
Q 45.40625 37.75 41.375 43.109375 
Q 37.359375 48.484375 30.078125 48.484375 
Q 22.859375 48.484375 18.828125 43.109375 
Q 14.796875 37.75 14.796875 27.984375 
Q 14.796875 18.265625 18.828125 12.890625 
Q 22.859375 7.515625 30.078125 7.515625 
Q 37.359375 7.515625 41.375 12.890625 
Q 45.40625 18.265625 45.40625 27.984375 
z
M 54.390625 6.78125 
Q 54.390625 -7.171875 48.1875 -13.984375 
Q 42 -20.796875 29.203125 -20.796875 
Q 24.46875 -20.796875 20.265625 -20.09375 
Q 16.0625 -19.390625 12.109375 -17.921875 
L 12.109375 -9.1875 
Q 16.0625 -11.328125 19.921875 -12.34375 
Q 23.78125 -13.375 27.78125 -13.375 
Q 36.625 -13.375 41.015625 -8.765625 
Q 45.40625 -4.15625 45.40625 5.171875 
L 45.40625 9.625 
Q 42.625 4.78125 38.28125 2.390625 
Q 33.9375 0 27.875 0 
Q 17.828125 0 11.671875 7.65625 
Q 5.515625 15.328125 5.515625 27.984375 
Q 5.515625 40.671875 11.671875 48.328125 
Q 17.828125 56 27.875 56 
Q 33.9375 56 38.28125 53.609375 
Q 42.625 51.21875 45.40625 46.390625 
L 45.40625 54.6875 
L 54.390625 54.6875 
z
" id="DejaVuSans-103"/>
      <path d="M 41.109375 46.296875 
Q 39.59375 47.171875 37.8125 47.578125 
Q 36.03125 48 33.890625 48 
Q 26.265625 48 22.1875 43.046875 
Q 18.109375 38.09375 18.109375 28.8125 
L 18.109375 0 
L 9.078125 0 
L 9.078125 54.6875 
L 18.109375 54.6875 
L 18.109375 46.1875 
Q 20.953125 51.171875 25.484375 53.578125 
Q 30.03125 56 36.53125 56 
Q 37.453125 56 38.578125 55.875 
Q 39.703125 55.765625 41.0625 55.515625 
z
" id="DejaVuSans-114"/>
      <path d="M 10.59375 45.40625 
L 73.1875 45.40625 
L 73.1875 37.203125 
L 10.59375 37.203125 
z
M 10.59375 25.484375 
L 73.1875 25.484375 
L 73.1875 17.1875 
L 10.59375 17.1875 
z
" id="DejaVuSans-61"/>
     </defs>
     <use xlink:href="#DejaVuSans-72"/>
     <use x="75.195312" xlink:href="#DejaVuSans-117"/>
     <use x="138.574219" xlink:href="#DejaVuSans-110"/>
     <use x="201.953125" xlink:href="#DejaVuSans-103"/>
     <use x="265.429688" xlink:href="#DejaVuSans-97"/>
     <use x="326.708984" xlink:href="#DejaVuSans-114"/>
     <use x="367.822266" xlink:href="#DejaVuSans-121"/>
     <use x="427.001953" xlink:href="#DejaVuSans-32"/>
     <use x="458.789062" xlink:href="#DejaVuSans-114"/>
     <use x="497.652344" xlink:href="#DejaVuSans-101"/>
     <use x="559.175781" xlink:href="#DejaVuSans-108"/>
     <use x="586.958984" xlink:href="#DejaVuSans-97"/>
     <use x="648.238281" xlink:href="#DejaVuSans-116"/>
     <use x="687.447266" xlink:href="#DejaVuSans-105"/>
     <use x="715.230469" xlink:href="#DejaVuSans-118"/>
     <use x="774.410156" xlink:href="#DejaVuSans-101"/>
     <use x="835.933594" xlink:href="#DejaVuSans-32"/>
     <use x="867.720703" xlink:href="#DejaVuSans-101"/>
     <use x="929.244141" xlink:href="#DejaVuSans-114"/>
     <use x="968.607422" xlink:href="#DejaVuSans-114"/>
     <use x="1009.720703" xlink:href="#DejaVuSans-32"/>
     <use x="1041.507812" xlink:href="#DejaVuSans-61"/>
     <use x="1125.296875" xlink:href="#DejaVuSans-32"/>
    </g>
   </g>
   <g id="legend_1">
    <g id="patch_7">
     <path d="M 97 226.503125 
L 185.6 226.503125 
Q 187.6 226.503125 187.6 224.503125 
L 187.6 93.4 
Q 187.6 91.4 185.6 91.4 
L 97 91.4 
Q 95 91.4 95 93.4 
L 95 224.503125 
Q 95 226.503125 97 226.503125 
z
" style="fill:#ffffff;opacity:0.8;stroke:#cccccc;stroke-linejoin:miter;"/>
    </g>
    <g id="line2d_33">
     <path d="M 99 99.498438 
L 119 99.498438 
" style="fill:none;stroke:#1f77b4;stroke-linecap:square;stroke-width:1.5;"/>
    </g>
    <g id="line2d_34"/>
    <g id="text_15">
     <!-- SI -->
     <g transform="translate(127 102.998438)scale(0.1 -0.1)">
      <defs>
       <path d="M 53.515625 70.515625 
L 53.515625 60.890625 
Q 47.90625 63.578125 42.921875 64.890625 
Q 37.9375 66.21875 33.296875 66.21875 
Q 25.25 66.21875 20.875 63.09375 
Q 16.5 59.96875 16.5 54.203125 
Q 16.5 49.359375 19.40625 46.890625 
Q 22.3125 44.4375 30.421875 42.921875 
L 36.375 41.703125 
Q 47.40625 39.59375 52.65625 34.296875 
Q 57.90625 29 57.90625 20.125 
Q 57.90625 9.515625 50.796875 4.046875 
Q 43.703125 -1.421875 29.984375 -1.421875 
Q 24.8125 -1.421875 18.96875 -0.25 
Q 13.140625 0.921875 6.890625 3.21875 
L 6.890625 13.375 
Q 12.890625 10.015625 18.65625 8.296875 
Q 24.421875 6.59375 29.984375 6.59375 
Q 38.421875 6.59375 43.015625 9.90625 
Q 47.609375 13.234375 47.609375 19.390625 
Q 47.609375 24.75 44.3125 27.78125 
Q 41.015625 30.8125 33.5 32.328125 
L 27.484375 33.5 
Q 16.453125 35.6875 11.515625 40.375 
Q 6.59375 45.0625 6.59375 53.421875 
Q 6.59375 63.09375 13.40625 68.65625 
Q 20.21875 74.21875 32.171875 74.21875 
Q 37.3125 74.21875 42.625 73.28125 
Q 47.953125 72.359375 53.515625 70.515625 
z
" id="DejaVuSans-83"/>
       <path d="M 9.8125 72.90625 
L 19.671875 72.90625 
L 19.671875 0 
L 9.8125 0 
z
" id="DejaVuSans-73"/>
      </defs>
      <use xlink:href="#DejaVuSans-83"/>
      <use x="63.476562" xlink:href="#DejaVuSans-73"/>
     </g>
    </g>
    <g id="line2d_35">
     <path d="M 99 114.176563 
L 119 114.176563 
" style="fill:none;stroke:#ff7f0e;stroke-linecap:square;stroke-width:1.5;"/>
    </g>
    <g id="line2d_36"/>
    <g id="text_16">
     <!-- BD -->
     <g transform="translate(127 117.676563)scale(0.1 -0.1)">
      <defs>
       <path d="M 19.671875 34.8125 
L 19.671875 8.109375 
L 35.5 8.109375 
Q 43.453125 8.109375 47.28125 11.40625 
Q 51.125 14.703125 51.125 21.484375 
Q 51.125 28.328125 47.28125 31.5625 
Q 43.453125 34.8125 35.5 34.8125 
z
M 19.671875 64.796875 
L 19.671875 42.828125 
L 34.28125 42.828125 
Q 41.5 42.828125 45.03125 45.53125 
Q 48.578125 48.25 48.578125 53.8125 
Q 48.578125 59.328125 45.03125 62.0625 
Q 41.5 64.796875 34.28125 64.796875 
z
M 9.8125 72.90625 
L 35.015625 72.90625 
Q 46.296875 72.90625 52.390625 68.21875 
Q 58.5 63.53125 58.5 54.890625 
Q 58.5 48.1875 55.375 44.234375 
Q 52.25 40.28125 46.1875 39.3125 
Q 53.46875 37.75 57.5 32.78125 
Q 61.53125 27.828125 61.53125 20.40625 
Q 61.53125 10.640625 54.890625 5.3125 
Q 48.25 0 35.984375 0 
L 9.8125 0 
z
" id="DejaVuSans-66"/>
      </defs>
      <use xlink:href="#DejaVuSans-66"/>
      <use x="68.603516" xlink:href="#DejaVuSans-68"/>
     </g>
    </g>
    <g id="line2d_37">
     <path d="M 99 128.854688 
L 119 128.854688 
" style="fill:none;stroke:#2ca02c;stroke-linecap:square;stroke-width:1.5;"/>
    </g>
    <g id="line2d_38"/>
    <g id="text_17">
     <!-- SIR -->
     <g transform="translate(127 132.354688)scale(0.1 -0.1)">
      <defs>
       <path d="M 44.390625 34.1875 
Q 47.5625 33.109375 50.5625 29.59375 
Q 53.5625 26.078125 56.59375 19.921875 
L 66.609375 0 
L 56 0 
L 46.6875 18.703125 
Q 43.0625 26.03125 39.671875 28.421875 
Q 36.28125 30.8125 30.421875 30.8125 
L 19.671875 30.8125 
L 19.671875 0 
L 9.8125 0 
L 9.8125 72.90625 
L 32.078125 72.90625 
Q 44.578125 72.90625 50.734375 67.671875 
Q 56.890625 62.453125 56.890625 51.90625 
Q 56.890625 45.015625 53.6875 40.46875 
Q 50.484375 35.9375 44.390625 34.1875 
z
M 19.671875 64.796875 
L 19.671875 38.921875 
L 32.078125 38.921875 
Q 39.203125 38.921875 42.84375 42.21875 
Q 46.484375 45.515625 46.484375 51.90625 
Q 46.484375 58.296875 42.84375 61.546875 
Q 39.203125 64.796875 32.078125 64.796875 
z
" id="DejaVuSans-82"/>
      </defs>
      <use xlink:href="#DejaVuSans-83"/>
      <use x="63.476562" xlink:href="#DejaVuSans-73"/>
      <use x="92.96875" xlink:href="#DejaVuSans-82"/>
     </g>
    </g>
    <g id="line2d_39">
     <path d="M 99 143.532812 
L 119 143.532812 
" style="fill:none;stroke:#d62728;stroke-linecap:square;stroke-width:1.5;"/>
    </g>
    <g id="line2d_40"/>
    <g id="text_18">
     <!-- eSIR -->
     <g transform="translate(127 147.032812)scale(0.1 -0.1)">
      <use xlink:href="#DejaVuSans-101"/>
      <use x="61.523438" xlink:href="#DejaVuSans-83"/>
      <use x="125" xlink:href="#DejaVuSans-73"/>
      <use x="154.492188" xlink:href="#DejaVuSans-82"/>
     </g>
    </g>
    <g id="line2d_41">
     <path d="M 99 158.210938 
L 119 158.210938 
" style="fill:none;stroke:#9467bd;stroke-linecap:square;stroke-width:1.5;"/>
    </g>
    <g id="line2d_42"/>
    <g id="text_19">
     <!-- SEIR -->
     <g transform="translate(127 161.710938)scale(0.1 -0.1)">
      <defs>
       <path d="M 9.8125 72.90625 
L 55.90625 72.90625 
L 55.90625 64.59375 
L 19.671875 64.59375 
L 19.671875 43.015625 
L 54.390625 43.015625 
L 54.390625 34.71875 
L 19.671875 34.71875 
L 19.671875 8.296875 
L 56.78125 8.296875 
L 56.78125 0 
L 9.8125 0 
z
" id="DejaVuSans-69"/>
      </defs>
      <use xlink:href="#DejaVuSans-83"/>
      <use x="63.476562" xlink:href="#DejaVuSans-69"/>
      <use x="126.660156" xlink:href="#DejaVuSans-73"/>
      <use x="156.152344" xlink:href="#DejaVuSans-82"/>
     </g>
    </g>
    <g id="line2d_43">
     <path d="M 99 172.889063 
L 119 172.889063 
" style="fill:none;stroke:#8c564b;stroke-linecap:square;stroke-width:1.5;"/>
    </g>
    <g id="line2d_44"/>
    <g id="text_20">
     <!-- eSEIR -->
     <g transform="translate(127 176.389063)scale(0.1 -0.1)">
      <use xlink:href="#DejaVuSans-101"/>
      <use x="61.523438" xlink:href="#DejaVuSans-83"/>
      <use x="125" xlink:href="#DejaVuSans-69"/>
      <use x="188.183594" xlink:href="#DejaVuSans-73"/>
      <use x="217.675781" xlink:href="#DejaVuSans-82"/>
     </g>
    </g>
    <g id="line2d_45">
     <path d="M 99 187.567188 
L 119 187.567188 
" style="fill:none;stroke:#e377c2;stroke-linecap:square;stroke-width:1.5;"/>
    </g>
    <g id="line2d_46"/>
    <g id="text_21">
     <!-- SEIUR -->
     <g transform="translate(127 191.067188)scale(0.1 -0.1)">
      <defs>
       <path d="M 8.6875 72.90625 
L 18.609375 72.90625 
L 18.609375 28.609375 
Q 18.609375 16.890625 22.84375 11.734375 
Q 27.09375 6.59375 36.625 6.59375 
Q 46.09375 6.59375 50.34375 11.734375 
Q 54.59375 16.890625 54.59375 28.609375 
L 54.59375 72.90625 
L 64.5 72.90625 
L 64.5 27.390625 
Q 64.5 13.140625 57.4375 5.859375 
Q 50.390625 -1.421875 36.625 -1.421875 
Q 22.796875 -1.421875 15.734375 5.859375 
Q 8.6875 13.140625 8.6875 27.390625 
z
" id="DejaVuSans-85"/>
      </defs>
      <use xlink:href="#DejaVuSans-83"/>
      <use x="63.476562" xlink:href="#DejaVuSans-69"/>
      <use x="126.660156" xlink:href="#DejaVuSans-73"/>
      <use x="156.152344" xlink:href="#DejaVuSans-85"/>
      <use x="229.345703" xlink:href="#DejaVuSans-82"/>
     </g>
    </g>
    <g id="line2d_47">
     <path d="M 99 202.245312 
L 119 202.245312 
" style="fill:none;stroke:#7f7f7f;stroke-linecap:square;stroke-width:1.5;"/>
    </g>
    <g id="line2d_48"/>
    <g id="text_22">
     <!-- eSEIUR -->
     <g transform="translate(127 205.745312)scale(0.1 -0.1)">
      <use xlink:href="#DejaVuSans-101"/>
      <use x="61.523438" xlink:href="#DejaVuSans-83"/>
      <use x="125" xlink:href="#DejaVuSans-69"/>
      <use x="188.183594" xlink:href="#DejaVuSans-73"/>
      <use x="217.675781" xlink:href="#DejaVuSans-85"/>
      <use x="290.869141" xlink:href="#DejaVuSans-82"/>
     </g>
    </g>
    <g id="line2d_49">
     <path d="M 99 216.923437 
L 119 216.923437 
" style="fill:none;stroke:#bcbd22;stroke-linecap:square;stroke-width:1.5;"/>
    </g>
    <g id="line2d_50"/>
    <g id="text_23">
     <!-- eSEIUR$^{range}$ -->
     <g transform="translate(127 220.423437)scale(0.1 -0.1)">
      <defs>
       <path d="M 44.578125 46.390625 
Q 43.21875 47.125 41.453125 47.515625 
Q 39.703125 47.90625 37.703125 47.90625 
Q 30.515625 47.90625 25.140625 42.453125 
Q 19.78125 37.015625 18.015625 27.875 
L 12.5 0 
L 3.515625 0 
L 14.203125 54.6875 
L 23.1875 54.6875 
L 21.484375 46.1875 
Q 25.046875 50.921875 30 53.453125 
Q 34.96875 56 40.578125 56 
Q 42.046875 56 43.453125 55.828125 
Q 44.875 55.671875 46.296875 55.28125 
z
" id="DejaVuSans-Oblique-114"/>
       <path d="M 53.71875 31.203125 
L 47.609375 0 
L 38.625 0 
L 40.28125 8.296875 
Q 36.328125 3.421875 31.265625 1 
Q 26.21875 -1.421875 20.015625 -1.421875 
Q 13.03125 -1.421875 8.5625 2.84375 
Q 4.109375 7.125 4.109375 13.8125 
Q 4.109375 23.390625 11.75 28.953125 
Q 19.390625 34.515625 32.8125 34.515625 
L 45.3125 34.515625 
L 45.796875 36.921875 
Q 45.90625 37.3125 45.953125 37.765625 
Q 46 38.234375 46 39.203125 
Q 46 43.5625 42.453125 45.96875 
Q 38.921875 48.390625 32.515625 48.390625 
Q 28.125 48.390625 23.5 47.265625 
Q 18.890625 46.140625 14.015625 43.890625 
L 15.578125 52.203125 
Q 20.65625 54.109375 25.515625 55.046875 
Q 30.375 56 34.90625 56 
Q 44.578125 56 49.625 51.796875 
Q 54.6875 47.609375 54.6875 39.59375 
Q 54.6875 37.984375 54.4375 35.8125 
Q 54.203125 33.640625 53.71875 31.203125 
z
M 44 27.484375 
L 35.015625 27.484375 
Q 23.96875 27.484375 18.671875 24.53125 
Q 13.375 21.578125 13.375 15.375 
Q 13.375 11.078125 16.078125 8.640625 
Q 18.796875 6.203125 23.578125 6.203125 
Q 30.90625 6.203125 36.375 11.453125 
Q 41.84375 16.703125 43.609375 25.484375 
z
" id="DejaVuSans-Oblique-97"/>
       <path d="M 55.71875 33.015625 
L 49.3125 0 
L 40.28125 0 
L 46.6875 32.671875 
Q 47.125 34.96875 47.359375 36.71875 
Q 47.609375 38.484375 47.609375 39.5 
Q 47.609375 43.609375 45.015625 45.890625 
Q 42.4375 48.1875 37.796875 48.1875 
Q 30.5625 48.1875 25.34375 43.375 
Q 20.125 38.578125 18.5 30.328125 
L 12.5 0 
L 3.515625 0 
L 14.109375 54.6875 
L 23.09375 54.6875 
L 21.296875 46.09375 
Q 25.046875 50.828125 30.3125 53.40625 
Q 35.59375 56 41.40625 56 
Q 48.640625 56 52.609375 52.09375 
Q 56.59375 48.1875 56.59375 41.109375 
Q 56.59375 39.359375 56.375 37.359375 
Q 56.15625 35.359375 55.71875 33.015625 
z
" id="DejaVuSans-Oblique-110"/>
       <path d="M 59.625 54.6875 
L 50.296875 6.78125 
Q 47.609375 -7.125 40.015625 -13.953125 
Q 32.421875 -20.796875 19.578125 -20.796875 
Q 14.84375 -20.796875 10.78125 -20.09375 
Q 6.734375 -19.390625 3.21875 -17.921875 
L 4.890625 -9.1875 
Q 8.203125 -11.328125 11.90625 -12.34375 
Q 15.625 -13.375 19.828125 -13.375 
Q 28.375 -13.375 33.859375 -8.703125 
Q 39.359375 -4.046875 41.109375 4.6875 
L 41.890625 8.796875 
Q 38.140625 4.5 33.15625 2.25 
Q 28.171875 0 22.40625 0 
Q 14.109375 0 9.34375 5.484375 
Q 4.59375 10.984375 4.59375 20.609375 
Q 4.59375 28.171875 7.46875 35.421875 
Q 10.359375 42.671875 15.578125 48.296875 
Q 19.046875 52 23.65625 54 
Q 28.265625 56 33.296875 56 
Q 38.8125 56 42.90625 53.4375 
Q 47.015625 50.875 49.03125 46.1875 
L 50.59375 54.6875 
z
M 46.09375 34.625 
Q 46.09375 41.265625 42.96875 44.875 
Q 39.84375 48.484375 34.078125 48.484375 
Q 30.515625 48.484375 27.296875 47.0625 
Q 24.078125 45.65625 21.78125 43.109375 
Q 18.0625 38.921875 15.984375 33.234375 
Q 13.921875 27.546875 13.921875 21.484375 
Q 13.921875 14.75 17.0625 11.125 
Q 20.21875 7.515625 26.125 7.515625 
Q 34.671875 7.515625 40.375 15.25 
Q 46.09375 23 46.09375 34.625 
z
" id="DejaVuSans-Oblique-103"/>
       <path d="M 48.09375 32.234375 
Q 48.25 33.015625 48.3125 33.84375 
Q 48.390625 34.671875 48.390625 35.5 
Q 48.390625 41.453125 44.890625 44.921875 
Q 41.40625 48.390625 35.40625 48.390625 
Q 28.71875 48.390625 23.578125 44.15625 
Q 18.453125 39.9375 15.828125 32.171875 
z
M 55.90625 25.203125 
L 14.109375 25.203125 
Q 13.8125 23.34375 13.71875 22.265625 
Q 13.625 21.1875 13.625 20.40625 
Q 13.625 13.625 17.796875 9.90625 
Q 21.96875 6.203125 29.59375 6.203125 
Q 35.453125 6.203125 40.671875 7.515625 
Q 45.90625 8.84375 50.390625 11.375 
L 48.6875 2.484375 
Q 43.84375 0.53125 38.6875 -0.4375 
Q 33.546875 -1.421875 28.21875 -1.421875 
Q 16.84375 -1.421875 10.71875 4.015625 
Q 4.59375 9.46875 4.59375 19.484375 
Q 4.59375 28.03125 7.640625 35.375 
Q 10.6875 42.71875 16.609375 48.484375 
Q 20.40625 52.09375 25.65625 54.046875 
Q 30.90625 56 36.8125 56 
Q 46.09375 56 51.578125 50.4375 
Q 57.078125 44.875 57.078125 35.5 
Q 57.078125 33.25 56.78125 30.6875 
Q 56.5 28.125 55.90625 25.203125 
z
" id="DejaVuSans-Oblique-101"/>
      </defs>
      <use transform="translate(0 0.51875)" xlink:href="#DejaVuSans-101"/>
      <use transform="translate(61.523438 0.51875)" xlink:href="#DejaVuSans-83"/>
      <use transform="translate(125 0.51875)" xlink:href="#DejaVuSans-69"/>
      <use transform="translate(188.183594 0.51875)" xlink:href="#DejaVuSans-73"/>
      <use transform="translate(217.675781 0.51875)" xlink:href="#DejaVuSans-85"/>
      <use transform="translate(288.619141 0.51875)" xlink:href="#DejaVuSans-82"/>
      <use transform="translate(359.058594 38.8)scale(0.7)" xlink:href="#DejaVuSans-Oblique-114"/>
      <use transform="translate(387.837891 38.8)scale(0.7)" xlink:href="#DejaVuSans-Oblique-97"/>
      <use transform="translate(430.733398 38.8)scale(0.7)" xlink:href="#DejaVuSans-Oblique-110"/>
      <use transform="translate(475.098633 38.8)scale(0.7)" xlink:href="#DejaVuSans-Oblique-103"/>
      <use transform="translate(519.532227 38.8)scale(0.7)" xlink:href="#DejaVuSans-Oblique-101"/>
     </g>
    </g>
   </g>
  </g>
 </g>
 <defs>
  <clipPath id="pf670d910fb">
   <rect height="543.6" width="558" x="90" y="86.4"/>
  </clipPath>
 </defs>
</svg>
