<?xml version="1.0" encoding="utf-8" standalone="no"?>
<!DOCTYPE svg PUBLIC "-//W3C//DTD SVG 1.1//EN"
  "http://www.w3.org/Graphics/SVG/1.1/DTD/svg11.dtd">
<!-- Created with matplotlib (https://matplotlib.org/) -->
<svg height="720pt" version="1.1" viewBox="0 0 720 720" width="720pt" xmlns="http://www.w3.org/2000/svg" xmlns:xlink="http://www.w3.org/1999/xlink">
 <metadata>
  <rdf:RDF xmlns:cc="http://creativecommons.org/ns#" xmlns:dc="http://purl.org/dc/elements/1.1/" xmlns:rdf="http://www.w3.org/1999/02/22-rdf-syntax-ns#">
   <cc:Work>
    <dc:type rdf:resource="http://purl.org/dc/dcmitype/StillImage"/>
    <dc:date>2022-07-13T18:54:11.991070</dc:date>
    <dc:format>image/svg+xml</dc:format>
    <dc:creator>
     <cc:Agent>
      <dc:title>Matplotlib v3.3.2, https://matplotlib.org/</dc:title>
     </cc:Agent>
    </dc:creator>
   </cc:Work>
  </rdf:RDF>
 </metadata>
 <defs>
  <style type="text/css">*{stroke-linecap:butt;stroke-linejoin:round;}</style>
 </defs>
 <g id="figure_1">
  <g id="patch_1">
   <path d="M 0 720 
L 720 720 
L 720 0 
L 0 0 
z
" style="fill:none;"/>
  </g>
  <g id="axes_1">
   <g id="patch_2">
    <path d="M 90 630 
L 648 630 
L 648 86.4 
L 90 86.4 
z
" style="fill:#ffffff;"/>
   </g>
   <g id="matplotlib.axis_1">
    <g id="xtick_1">
     <g id="line2d_1">
      <path clip-path="url(#pc660c88c07)" d="M 115.363636 630 
L 115.363636 86.4 
" style="fill:none;stroke:#b0b0b0;stroke-linecap:square;stroke-width:0.8;"/>
     </g>
     <g id="line2d_2">
      <defs>
       <path d="M 0 0 
L 0 3.5 
" id="mc918766698" style="stroke:#000000;stroke-width:0.8;"/>
      </defs>
      <g>
       <use style="stroke:#000000;stroke-width:0.8;" x="115.363636" xlink:href="#mc918766698" y="630"/>
      </g>
     </g>
     <g id="text_1">
      <!-- 0 -->
      <g transform="translate(112.182386 644.598438)scale(0.1 -0.1)">
       <defs>
        <path d="M 31.78125 66.40625 
Q 24.171875 66.40625 20.328125 58.90625 
Q 16.5 51.421875 16.5 36.375 
Q 16.5 21.390625 20.328125 13.890625 
Q 24.171875 6.390625 31.78125 6.390625 
Q 39.453125 6.390625 43.28125 13.890625 
Q 47.125 21.390625 47.125 36.375 
Q 47.125 51.421875 43.28125 58.90625 
Q 39.453125 66.40625 31.78125 66.40625 
z
M 31.78125 74.21875 
Q 44.046875 74.21875 50.515625 64.515625 
Q 56.984375 54.828125 56.984375 36.375 
Q 56.984375 17.96875 50.515625 8.265625 
Q 44.046875 -1.421875 31.78125 -1.421875 
Q 19.53125 -1.421875 13.0625 8.265625 
Q 6.59375 17.96875 6.59375 36.375 
Q 6.59375 54.828125 13.0625 64.515625 
Q 19.53125 74.21875 31.78125 74.21875 
z
" id="DejaVuSans-48"/>
       </defs>
       <use xlink:href="#DejaVuSans-48"/>
      </g>
     </g>
    </g>
    <g id="xtick_2">
     <g id="line2d_3">
      <path clip-path="url(#pc660c88c07)" d="M 179.575374 630 
L 179.575374 86.4 
" style="fill:none;stroke:#b0b0b0;stroke-linecap:square;stroke-width:0.8;"/>
     </g>
     <g id="line2d_4">
      <g>
       <use style="stroke:#000000;stroke-width:0.8;" x="179.575374" xlink:href="#mc918766698" y="630"/>
      </g>
     </g>
     <g id="text_2">
      <!-- 10 -->
      <g transform="translate(173.212874 644.598438)scale(0.1 -0.1)">
       <defs>
        <path d="M 12.40625 8.296875 
L 28.515625 8.296875 
L 28.515625 63.921875 
L 10.984375 60.40625 
L 10.984375 69.390625 
L 28.421875 72.90625 
L 38.28125 72.90625 
L 38.28125 8.296875 
L 54.390625 8.296875 
L 54.390625 0 
L 12.40625 0 
z
" id="DejaVuSans-49"/>
       </defs>
       <use xlink:href="#DejaVuSans-49"/>
       <use x="63.623047" xlink:href="#DejaVuSans-48"/>
      </g>
     </g>
    </g>
    <g id="xtick_3">
     <g id="line2d_5">
      <path clip-path="url(#pc660c88c07)" d="M 243.787112 630 
L 243.787112 86.4 
" style="fill:none;stroke:#b0b0b0;stroke-linecap:square;stroke-width:0.8;"/>
     </g>
     <g id="line2d_6">
      <g>
       <use style="stroke:#000000;stroke-width:0.8;" x="243.787112" xlink:href="#mc918766698" y="630"/>
      </g>
     </g>
     <g id="text_3">
      <!-- 20 -->
      <g transform="translate(237.424612 644.598438)scale(0.1 -0.1)">
       <defs>
        <path d="M 19.1875 8.296875 
L 53.609375 8.296875 
L 53.609375 0 
L 7.328125 0 
L 7.328125 8.296875 
Q 12.9375 14.109375 22.625 23.890625 
Q 32.328125 33.6875 34.8125 36.53125 
Q 39.546875 41.84375 41.421875 45.53125 
Q 43.3125 49.21875 43.3125 52.78125 
Q 43.3125 58.59375 39.234375 62.25 
Q 35.15625 65.921875 28.609375 65.921875 
Q 23.96875 65.921875 18.8125 64.3125 
Q 13.671875 62.703125 7.8125 59.421875 
L 7.8125 69.390625 
Q 13.765625 71.78125 18.9375 73 
Q 24.125 74.21875 28.421875 74.21875 
Q 39.75 74.21875 46.484375 68.546875 
Q 53.21875 62.890625 53.21875 53.421875 
Q 53.21875 48.921875 51.53125 44.890625 
Q 49.859375 40.875 45.40625 35.40625 
Q 44.1875 33.984375 37.640625 27.21875 
Q 31.109375 20.453125 19.1875 8.296875 
z
" id="DejaVuSans-50"/>
       </defs>
       <use xlink:href="#DejaVuSans-50"/>
       <use x="63.623047" xlink:href="#DejaVuSans-48"/>
      </g>
     </g>
    </g>
    <g id="xtick_4">
     <g id="line2d_7">
      <path clip-path="url(#pc660c88c07)" d="M 307.998849 630 
L 307.998849 86.4 
" style="fill:none;stroke:#b0b0b0;stroke-linecap:square;stroke-width:0.8;"/>
     </g>
     <g id="line2d_8">
      <g>
       <use style="stroke:#000000;stroke-width:0.8;" x="307.998849" xlink:href="#mc918766698" y="630"/>
      </g>
     </g>
     <g id="text_4">
      <!-- 30 -->
      <g transform="translate(301.636349 644.598438)scale(0.1 -0.1)">
       <defs>
        <path d="M 40.578125 39.3125 
Q 47.65625 37.796875 51.625 33 
Q 55.609375 28.21875 55.609375 21.1875 
Q 55.609375 10.40625 48.1875 4.484375 
Q 40.765625 -1.421875 27.09375 -1.421875 
Q 22.515625 -1.421875 17.65625 -0.515625 
Q 12.796875 0.390625 7.625 2.203125 
L 7.625 11.71875 
Q 11.71875 9.328125 16.59375 8.109375 
Q 21.484375 6.890625 26.8125 6.890625 
Q 36.078125 6.890625 40.9375 10.546875 
Q 45.796875 14.203125 45.796875 21.1875 
Q 45.796875 27.640625 41.28125 31.265625 
Q 36.765625 34.90625 28.71875 34.90625 
L 20.21875 34.90625 
L 20.21875 43.015625 
L 29.109375 43.015625 
Q 36.375 43.015625 40.234375 45.921875 
Q 44.09375 48.828125 44.09375 54.296875 
Q 44.09375 59.90625 40.109375 62.90625 
Q 36.140625 65.921875 28.71875 65.921875 
Q 24.65625 65.921875 20.015625 65.03125 
Q 15.375 64.15625 9.8125 62.3125 
L 9.8125 71.09375 
Q 15.4375 72.65625 20.34375 73.4375 
Q 25.25 74.21875 29.59375 74.21875 
Q 40.828125 74.21875 47.359375 69.109375 
Q 53.90625 64.015625 53.90625 55.328125 
Q 53.90625 49.265625 50.4375 45.09375 
Q 46.96875 40.921875 40.578125 39.3125 
z
" id="DejaVuSans-51"/>
       </defs>
       <use xlink:href="#DejaVuSans-51"/>
       <use x="63.623047" xlink:href="#DejaVuSans-48"/>
      </g>
     </g>
    </g>
    <g id="xtick_5">
     <g id="line2d_9">
      <path clip-path="url(#pc660c88c07)" d="M 372.210587 630 
L 372.210587 86.4 
" style="fill:none;stroke:#b0b0b0;stroke-linecap:square;stroke-width:0.8;"/>
     </g>
     <g id="line2d_10">
      <g>
       <use style="stroke:#000000;stroke-width:0.8;" x="372.210587" xlink:href="#mc918766698" y="630"/>
      </g>
     </g>
     <g id="text_5">
      <!-- 40 -->
      <g transform="translate(365.848087 644.598438)scale(0.1 -0.1)">
       <defs>
        <path d="M 37.796875 64.3125 
L 12.890625 25.390625 
L 37.796875 25.390625 
z
M 35.203125 72.90625 
L 47.609375 72.90625 
L 47.609375 25.390625 
L 58.015625 25.390625 
L 58.015625 17.1875 
L 47.609375 17.1875 
L 47.609375 0 
L 37.796875 0 
L 37.796875 17.1875 
L 4.890625 17.1875 
L 4.890625 26.703125 
z
" id="DejaVuSans-52"/>
       </defs>
       <use xlink:href="#DejaVuSans-52"/>
       <use x="63.623047" xlink:href="#DejaVuSans-48"/>
      </g>
     </g>
    </g>
    <g id="xtick_6">
     <g id="line2d_11">
      <path clip-path="url(#pc660c88c07)" d="M 436.422325 630 
L 436.422325 86.4 
" style="fill:none;stroke:#b0b0b0;stroke-linecap:square;stroke-width:0.8;"/>
     </g>
     <g id="line2d_12">
      <g>
       <use style="stroke:#000000;stroke-width:0.8;" x="436.422325" xlink:href="#mc918766698" y="630"/>
      </g>
     </g>
     <g id="text_6">
      <!-- 50 -->
      <g transform="translate(430.059825 644.598438)scale(0.1 -0.1)">
       <defs>
        <path d="M 10.796875 72.90625 
L 49.515625 72.90625 
L 49.515625 64.59375 
L 19.828125 64.59375 
L 19.828125 46.734375 
Q 21.96875 47.46875 24.109375 47.828125 
Q 26.265625 48.1875 28.421875 48.1875 
Q 40.625 48.1875 47.75 41.5 
Q 54.890625 34.8125 54.890625 23.390625 
Q 54.890625 11.625 47.5625 5.09375 
Q 40.234375 -1.421875 26.90625 -1.421875 
Q 22.3125 -1.421875 17.546875 -0.640625 
Q 12.796875 0.140625 7.71875 1.703125 
L 7.71875 11.625 
Q 12.109375 9.234375 16.796875 8.0625 
Q 21.484375 6.890625 26.703125 6.890625 
Q 35.15625 6.890625 40.078125 11.328125 
Q 45.015625 15.765625 45.015625 23.390625 
Q 45.015625 31 40.078125 35.4375 
Q 35.15625 39.890625 26.703125 39.890625 
Q 22.75 39.890625 18.8125 39.015625 
Q 14.890625 38.140625 10.796875 36.28125 
z
" id="DejaVuSans-53"/>
       </defs>
       <use xlink:href="#DejaVuSans-53"/>
       <use x="63.623047" xlink:href="#DejaVuSans-48"/>
      </g>
     </g>
    </g>
    <g id="xtick_7">
     <g id="line2d_13">
      <path clip-path="url(#pc660c88c07)" d="M 500.634062 630 
L 500.634062 86.4 
" style="fill:none;stroke:#b0b0b0;stroke-linecap:square;stroke-width:0.8;"/>
     </g>
     <g id="line2d_14">
      <g>
       <use style="stroke:#000000;stroke-width:0.8;" x="500.634062" xlink:href="#mc918766698" y="630"/>
      </g>
     </g>
     <g id="text_7">
      <!-- 60 -->
      <g transform="translate(494.271562 644.598438)scale(0.1 -0.1)">
       <defs>
        <path d="M 33.015625 40.375 
Q 26.375 40.375 22.484375 35.828125 
Q 18.609375 31.296875 18.609375 23.390625 
Q 18.609375 15.53125 22.484375 10.953125 
Q 26.375 6.390625 33.015625 6.390625 
Q 39.65625 6.390625 43.53125 10.953125 
Q 47.40625 15.53125 47.40625 23.390625 
Q 47.40625 31.296875 43.53125 35.828125 
Q 39.65625 40.375 33.015625 40.375 
z
M 52.59375 71.296875 
L 52.59375 62.3125 
Q 48.875 64.0625 45.09375 64.984375 
Q 41.3125 65.921875 37.59375 65.921875 
Q 27.828125 65.921875 22.671875 59.328125 
Q 17.53125 52.734375 16.796875 39.40625 
Q 19.671875 43.65625 24.015625 45.921875 
Q 28.375 48.1875 33.59375 48.1875 
Q 44.578125 48.1875 50.953125 41.515625 
Q 57.328125 34.859375 57.328125 23.390625 
Q 57.328125 12.15625 50.6875 5.359375 
Q 44.046875 -1.421875 33.015625 -1.421875 
Q 20.359375 -1.421875 13.671875 8.265625 
Q 6.984375 17.96875 6.984375 36.375 
Q 6.984375 53.65625 15.1875 63.9375 
Q 23.390625 74.21875 37.203125 74.21875 
Q 40.921875 74.21875 44.703125 73.484375 
Q 48.484375 72.75 52.59375 71.296875 
z
" id="DejaVuSans-54"/>
       </defs>
       <use xlink:href="#DejaVuSans-54"/>
       <use x="63.623047" xlink:href="#DejaVuSans-48"/>
      </g>
     </g>
    </g>
    <g id="xtick_8">
     <g id="line2d_15">
      <path clip-path="url(#pc660c88c07)" d="M 564.8458 630 
L 564.8458 86.4 
" style="fill:none;stroke:#b0b0b0;stroke-linecap:square;stroke-width:0.8;"/>
     </g>
     <g id="line2d_16">
      <g>
       <use style="stroke:#000000;stroke-width:0.8;" x="564.8458" xlink:href="#mc918766698" y="630"/>
      </g>
     </g>
     <g id="text_8">
      <!-- 70 -->
      <g transform="translate(558.4833 644.598438)scale(0.1 -0.1)">
       <defs>
        <path d="M 8.203125 72.90625 
L 55.078125 72.90625 
L 55.078125 68.703125 
L 28.609375 0 
L 18.3125 0 
L 43.21875 64.59375 
L 8.203125 64.59375 
z
" id="DejaVuSans-55"/>
       </defs>
       <use xlink:href="#DejaVuSans-55"/>
       <use x="63.623047" xlink:href="#DejaVuSans-48"/>
      </g>
     </g>
    </g>
    <g id="xtick_9">
     <g id="line2d_17">
      <path clip-path="url(#pc660c88c07)" d="M 629.057537 630 
L 629.057537 86.4 
" style="fill:none;stroke:#b0b0b0;stroke-linecap:square;stroke-width:0.8;"/>
     </g>
     <g id="line2d_18">
      <g>
       <use style="stroke:#000000;stroke-width:0.8;" x="629.057537" xlink:href="#mc918766698" y="630"/>
      </g>
     </g>
     <g id="text_9">
      <!-- 80 -->
      <g transform="translate(622.695037 644.598438)scale(0.1 -0.1)">
       <defs>
        <path d="M 31.78125 34.625 
Q 24.75 34.625 20.71875 30.859375 
Q 16.703125 27.09375 16.703125 20.515625 
Q 16.703125 13.921875 20.71875 10.15625 
Q 24.75 6.390625 31.78125 6.390625 
Q 38.8125 6.390625 42.859375 10.171875 
Q 46.921875 13.96875 46.921875 20.515625 
Q 46.921875 27.09375 42.890625 30.859375 
Q 38.875 34.625 31.78125 34.625 
z
M 21.921875 38.8125 
Q 15.578125 40.375 12.03125 44.71875 
Q 8.5 49.078125 8.5 55.328125 
Q 8.5 64.0625 14.71875 69.140625 
Q 20.953125 74.21875 31.78125 74.21875 
Q 42.671875 74.21875 48.875 69.140625 
Q 55.078125 64.0625 55.078125 55.328125 
Q 55.078125 49.078125 51.53125 44.71875 
Q 48 40.375 41.703125 38.8125 
Q 48.828125 37.15625 52.796875 32.3125 
Q 56.78125 27.484375 56.78125 20.515625 
Q 56.78125 9.90625 50.3125 4.234375 
Q 43.84375 -1.421875 31.78125 -1.421875 
Q 19.734375 -1.421875 13.25 4.234375 
Q 6.78125 9.90625 6.78125 20.515625 
Q 6.78125 27.484375 10.78125 32.3125 
Q 14.796875 37.15625 21.921875 38.8125 
z
M 18.3125 54.390625 
Q 18.3125 48.734375 21.84375 45.5625 
Q 25.390625 42.390625 31.78125 42.390625 
Q 38.140625 42.390625 41.71875 45.5625 
Q 45.3125 48.734375 45.3125 54.390625 
Q 45.3125 60.0625 41.71875 63.234375 
Q 38.140625 66.40625 31.78125 66.40625 
Q 25.390625 66.40625 21.84375 63.234375 
Q 18.3125 60.0625 18.3125 54.390625 
z
" id="DejaVuSans-56"/>
       </defs>
       <use xlink:href="#DejaVuSans-56"/>
       <use x="63.623047" xlink:href="#DejaVuSans-48"/>
      </g>
     </g>
    </g>
    <g id="text_10">
     <!-- Days -->
     <g transform="translate(356.521875 658.276562)scale(0.1 -0.1)">
      <defs>
       <path d="M 19.671875 64.796875 
L 19.671875 8.109375 
L 31.59375 8.109375 
Q 46.6875 8.109375 53.6875 14.9375 
Q 60.6875 21.78125 60.6875 36.53125 
Q 60.6875 51.171875 53.6875 57.984375 
Q 46.6875 64.796875 31.59375 64.796875 
z
M 9.8125 72.90625 
L 30.078125 72.90625 
Q 51.265625 72.90625 61.171875 64.09375 
Q 71.09375 55.28125 71.09375 36.53125 
Q 71.09375 17.671875 61.125 8.828125 
Q 51.171875 0 30.078125 0 
L 9.8125 0 
z
" id="DejaVuSans-68"/>
       <path d="M 34.28125 27.484375 
Q 23.390625 27.484375 19.1875 25 
Q 14.984375 22.515625 14.984375 16.5 
Q 14.984375 11.71875 18.140625 8.90625 
Q 21.296875 6.109375 26.703125 6.109375 
Q 34.1875 6.109375 38.703125 11.40625 
Q 43.21875 16.703125 43.21875 25.484375 
L 43.21875 27.484375 
z
M 52.203125 31.203125 
L 52.203125 0 
L 43.21875 0 
L 43.21875 8.296875 
Q 40.140625 3.328125 35.546875 0.953125 
Q 30.953125 -1.421875 24.3125 -1.421875 
Q 15.921875 -1.421875 10.953125 3.296875 
Q 6 8.015625 6 15.921875 
Q 6 25.140625 12.171875 29.828125 
Q 18.359375 34.515625 30.609375 34.515625 
L 43.21875 34.515625 
L 43.21875 35.40625 
Q 43.21875 41.609375 39.140625 45 
Q 35.0625 48.390625 27.6875 48.390625 
Q 23 48.390625 18.546875 47.265625 
Q 14.109375 46.140625 10.015625 43.890625 
L 10.015625 52.203125 
Q 14.9375 54.109375 19.578125 55.046875 
Q 24.21875 56 28.609375 56 
Q 40.484375 56 46.34375 49.84375 
Q 52.203125 43.703125 52.203125 31.203125 
z
" id="DejaVuSans-97"/>
       <path d="M 32.171875 -5.078125 
Q 28.375 -14.84375 24.75 -17.8125 
Q 21.140625 -20.796875 15.09375 -20.796875 
L 7.90625 -20.796875 
L 7.90625 -13.28125 
L 13.1875 -13.28125 
Q 16.890625 -13.28125 18.9375 -11.515625 
Q 21 -9.765625 23.484375 -3.21875 
L 25.09375 0.875 
L 2.984375 54.6875 
L 12.5 54.6875 
L 29.59375 11.921875 
L 46.6875 54.6875 
L 56.203125 54.6875 
z
" id="DejaVuSans-121"/>
       <path d="M 44.28125 53.078125 
L 44.28125 44.578125 
Q 40.484375 46.53125 36.375 47.5 
Q 32.28125 48.484375 27.875 48.484375 
Q 21.1875 48.484375 17.84375 46.4375 
Q 14.5 44.390625 14.5 40.28125 
Q 14.5 37.15625 16.890625 35.375 
Q 19.28125 33.59375 26.515625 31.984375 
L 29.59375 31.296875 
Q 39.15625 29.25 43.1875 25.515625 
Q 47.21875 21.78125 47.21875 15.09375 
Q 47.21875 7.46875 41.1875 3.015625 
Q 35.15625 -1.421875 24.609375 -1.421875 
Q 20.21875 -1.421875 15.453125 -0.5625 
Q 10.6875 0.296875 5.421875 2 
L 5.421875 11.28125 
Q 10.40625 8.6875 15.234375 7.390625 
Q 20.0625 6.109375 24.8125 6.109375 
Q 31.15625 6.109375 34.5625 8.28125 
Q 37.984375 10.453125 37.984375 14.40625 
Q 37.984375 18.0625 35.515625 20.015625 
Q 33.0625 21.96875 24.703125 23.78125 
L 21.578125 24.515625 
Q 13.234375 26.265625 9.515625 29.90625 
Q 5.8125 33.546875 5.8125 39.890625 
Q 5.8125 47.609375 11.28125 51.796875 
Q 16.75 56 26.8125 56 
Q 31.78125 56 36.171875 55.265625 
Q 40.578125 54.546875 44.28125 53.078125 
z
" id="DejaVuSans-115"/>
      </defs>
      <use xlink:href="#DejaVuSans-68"/>
      <use x="77.001953" xlink:href="#DejaVuSans-97"/>
      <use x="138.28125" xlink:href="#DejaVuSans-121"/>
      <use x="197.460938" xlink:href="#DejaVuSans-115"/>
     </g>
    </g>
   </g>
   <g id="matplotlib.axis_2">
    <g id="ytick_1">
     <g id="line2d_19">
      <path clip-path="url(#pc660c88c07)" d="M 90 610.443278 
L 648 610.443278 
" style="fill:none;stroke:#b0b0b0;stroke-linecap:square;stroke-width:0.8;"/>
     </g>
     <g id="line2d_20">
      <defs>
       <path d="M 0 0 
L -3.5 0 
" id="m606245df7e" style="stroke:#000000;stroke-width:0.8;"/>
      </defs>
      <g>
       <use style="stroke:#000000;stroke-width:0.8;" x="90" xlink:href="#m606245df7e" y="610.443278"/>
      </g>
     </g>
     <g id="text_11">
      <!-- 0 -->
      <g transform="translate(76.6375 614.242497)scale(0.1 -0.1)">
       <use xlink:href="#DejaVuSans-48"/>
      </g>
     </g>
    </g>
    <g id="ytick_2">
     <g id="line2d_21">
      <path clip-path="url(#pc660c88c07)" d="M 90 546.038662 
L 648 546.038662 
" style="fill:none;stroke:#b0b0b0;stroke-linecap:square;stroke-width:0.8;"/>
     </g>
     <g id="line2d_22">
      <g>
       <use style="stroke:#000000;stroke-width:0.8;" x="90" xlink:href="#m606245df7e" y="546.038662"/>
      </g>
     </g>
     <g id="text_12">
      <!-- 200 -->
      <g transform="translate(63.9125 549.83788)scale(0.1 -0.1)">
       <use xlink:href="#DejaVuSans-50"/>
       <use x="63.623047" xlink:href="#DejaVuSans-48"/>
       <use x="127.246094" xlink:href="#DejaVuSans-48"/>
      </g>
     </g>
    </g>
    <g id="ytick_3">
     <g id="line2d_23">
      <path clip-path="url(#pc660c88c07)" d="M 90 481.634045 
L 648 481.634045 
" style="fill:none;stroke:#b0b0b0;stroke-linecap:square;stroke-width:0.8;"/>
     </g>
     <g id="line2d_24">
      <g>
       <use style="stroke:#000000;stroke-width:0.8;" x="90" xlink:href="#m606245df7e" y="481.634045"/>
      </g>
     </g>
     <g id="text_13">
      <!-- 400 -->
      <g transform="translate(63.9125 485.433264)scale(0.1 -0.1)">
       <use xlink:href="#DejaVuSans-52"/>
       <use x="63.623047" xlink:href="#DejaVuSans-48"/>
       <use x="127.246094" xlink:href="#DejaVuSans-48"/>
      </g>
     </g>
    </g>
    <g id="ytick_4">
     <g id="line2d_25">
      <path clip-path="url(#pc660c88c07)" d="M 90 417.229428 
L 648 417.229428 
" style="fill:none;stroke:#b0b0b0;stroke-linecap:square;stroke-width:0.8;"/>
     </g>
     <g id="line2d_26">
      <g>
       <use style="stroke:#000000;stroke-width:0.8;" x="90" xlink:href="#m606245df7e" y="417.229428"/>
      </g>
     </g>
     <g id="text_14">
      <!-- 600 -->
      <g transform="translate(63.9125 421.028647)scale(0.1 -0.1)">
       <use xlink:href="#DejaVuSans-54"/>
       <use x="63.623047" xlink:href="#DejaVuSans-48"/>
       <use x="127.246094" xlink:href="#DejaVuSans-48"/>
      </g>
     </g>
    </g>
    <g id="ytick_5">
     <g id="line2d_27">
      <path clip-path="url(#pc660c88c07)" d="M 90 352.824812 
L 648 352.824812 
" style="fill:none;stroke:#b0b0b0;stroke-linecap:square;stroke-width:0.8;"/>
     </g>
     <g id="line2d_28">
      <g>
       <use style="stroke:#000000;stroke-width:0.8;" x="90" xlink:href="#m606245df7e" y="352.824812"/>
      </g>
     </g>
     <g id="text_15">
      <!-- 800 -->
      <g transform="translate(63.9125 356.62403)scale(0.1 -0.1)">
       <use xlink:href="#DejaVuSans-56"/>
       <use x="63.623047" xlink:href="#DejaVuSans-48"/>
       <use x="127.246094" xlink:href="#DejaVuSans-48"/>
      </g>
     </g>
    </g>
    <g id="ytick_6">
     <g id="line2d_29">
      <path clip-path="url(#pc660c88c07)" d="M 90 288.420195 
L 648 288.420195 
" style="fill:none;stroke:#b0b0b0;stroke-linecap:square;stroke-width:0.8;"/>
     </g>
     <g id="line2d_30">
      <g>
       <use style="stroke:#000000;stroke-width:0.8;" x="90" xlink:href="#m606245df7e" y="288.420195"/>
      </g>
     </g>
     <g id="text_16">
      <!-- 1000 -->
      <g transform="translate(57.55 292.219414)scale(0.1 -0.1)">
       <use xlink:href="#DejaVuSans-49"/>
       <use x="63.623047" xlink:href="#DejaVuSans-48"/>
       <use x="127.246094" xlink:href="#DejaVuSans-48"/>
       <use x="190.869141" xlink:href="#DejaVuSans-48"/>
      </g>
     </g>
    </g>
    <g id="ytick_7">
     <g id="line2d_31">
      <path clip-path="url(#pc660c88c07)" d="M 90 224.015578 
L 648 224.015578 
" style="fill:none;stroke:#b0b0b0;stroke-linecap:square;stroke-width:0.8;"/>
     </g>
     <g id="line2d_32">
      <g>
       <use style="stroke:#000000;stroke-width:0.8;" x="90" xlink:href="#m606245df7e" y="224.015578"/>
      </g>
     </g>
     <g id="text_17">
      <!-- 1200 -->
      <g transform="translate(57.55 227.814797)scale(0.1 -0.1)">
       <use xlink:href="#DejaVuSans-49"/>
       <use x="63.623047" xlink:href="#DejaVuSans-50"/>
       <use x="127.246094" xlink:href="#DejaVuSans-48"/>
       <use x="190.869141" xlink:href="#DejaVuSans-48"/>
      </g>
     </g>
    </g>
    <g id="ytick_8">
     <g id="line2d_33">
      <path clip-path="url(#pc660c88c07)" d="M 90 159.610961 
L 648 159.610961 
" style="fill:none;stroke:#b0b0b0;stroke-linecap:square;stroke-width:0.8;"/>
     </g>
     <g id="line2d_34">
      <g>
       <use style="stroke:#000000;stroke-width:0.8;" x="90" xlink:href="#m606245df7e" y="159.610961"/>
      </g>
     </g>
     <g id="text_18">
      <!-- 1400 -->
      <g transform="translate(57.55 163.41018)scale(0.1 -0.1)">
       <use xlink:href="#DejaVuSans-49"/>
       <use x="63.623047" xlink:href="#DejaVuSans-52"/>
       <use x="127.246094" xlink:href="#DejaVuSans-48"/>
       <use x="190.869141" xlink:href="#DejaVuSans-48"/>
      </g>
     </g>
    </g>
    <g id="ytick_9">
     <g id="line2d_35">
      <path clip-path="url(#pc660c88c07)" d="M 90 95.206345 
L 648 95.206345 
" style="fill:none;stroke:#b0b0b0;stroke-linecap:square;stroke-width:0.8;"/>
     </g>
     <g id="line2d_36">
      <g>
       <use style="stroke:#000000;stroke-width:0.8;" x="90" xlink:href="#m606245df7e" y="95.206345"/>
      </g>
     </g>
     <g id="text_19">
      <!-- 1600 -->
      <g transform="translate(57.55 99.005563)scale(0.1 -0.1)">
       <use xlink:href="#DejaVuSans-49"/>
       <use x="63.623047" xlink:href="#DejaVuSans-54"/>
       <use x="127.246094" xlink:href="#DejaVuSans-48"/>
       <use x="190.869141" xlink:href="#DejaVuSans-48"/>
      </g>
     </g>
    </g>
    <g id="text_20">
     <!-- Cumulative cases -->
     <g transform="translate(51.470312 402.425781)rotate(-90)scale(0.1 -0.1)">
      <defs>
       <path d="M 64.40625 67.28125 
L 64.40625 56.890625 
Q 59.421875 61.53125 53.78125 63.8125 
Q 48.140625 66.109375 41.796875 66.109375 
Q 29.296875 66.109375 22.65625 58.46875 
Q 16.015625 50.828125 16.015625 36.375 
Q 16.015625 21.96875 22.65625 14.328125 
Q 29.296875 6.6875 41.796875 6.6875 
Q 48.140625 6.6875 53.78125 8.984375 
Q 59.421875 11.28125 64.40625 15.921875 
L 64.40625 5.609375 
Q 59.234375 2.09375 53.4375 0.328125 
Q 47.65625 -1.421875 41.21875 -1.421875 
Q 24.65625 -1.421875 15.125 8.703125 
Q 5.609375 18.84375 5.609375 36.375 
Q 5.609375 53.953125 15.125 64.078125 
Q 24.65625 74.21875 41.21875 74.21875 
Q 47.75 74.21875 53.53125 72.484375 
Q 59.328125 70.75 64.40625 67.28125 
z
" id="DejaVuSans-67"/>
       <path d="M 8.5 21.578125 
L 8.5 54.6875 
L 17.484375 54.6875 
L 17.484375 21.921875 
Q 17.484375 14.15625 20.5 10.265625 
Q 23.53125 6.390625 29.59375 6.390625 
Q 36.859375 6.390625 41.078125 11.03125 
Q 45.3125 15.671875 45.3125 23.6875 
L 45.3125 54.6875 
L 54.296875 54.6875 
L 54.296875 0 
L 45.3125 0 
L 45.3125 8.40625 
Q 42.046875 3.421875 37.71875 1 
Q 33.40625 -1.421875 27.6875 -1.421875 
Q 18.265625 -1.421875 13.375 4.4375 
Q 8.5 10.296875 8.5 21.578125 
z
M 31.109375 56 
z
" id="DejaVuSans-117"/>
       <path d="M 52 44.1875 
Q 55.375 50.25 60.0625 53.125 
Q 64.75 56 71.09375 56 
Q 79.640625 56 84.28125 50.015625 
Q 88.921875 44.046875 88.921875 33.015625 
L 88.921875 0 
L 79.890625 0 
L 79.890625 32.71875 
Q 79.890625 40.578125 77.09375 44.375 
Q 74.3125 48.1875 68.609375 48.1875 
Q 61.625 48.1875 57.5625 43.546875 
Q 53.515625 38.921875 53.515625 30.90625 
L 53.515625 0 
L 44.484375 0 
L 44.484375 32.71875 
Q 44.484375 40.625 41.703125 44.40625 
Q 38.921875 48.1875 33.109375 48.1875 
Q 26.21875 48.1875 22.15625 43.53125 
Q 18.109375 38.875 18.109375 30.90625 
L 18.109375 0 
L 9.078125 0 
L 9.078125 54.6875 
L 18.109375 54.6875 
L 18.109375 46.1875 
Q 21.1875 51.21875 25.484375 53.609375 
Q 29.78125 56 35.6875 56 
Q 41.65625 56 45.828125 52.96875 
Q 50 49.953125 52 44.1875 
z
" id="DejaVuSans-109"/>
       <path d="M 9.421875 75.984375 
L 18.40625 75.984375 
L 18.40625 0 
L 9.421875 0 
z
" id="DejaVuSans-108"/>
       <path d="M 18.3125 70.21875 
L 18.3125 54.6875 
L 36.8125 54.6875 
L 36.8125 47.703125 
L 18.3125 47.703125 
L 18.3125 18.015625 
Q 18.3125 11.328125 20.140625 9.421875 
Q 21.96875 7.515625 27.59375 7.515625 
L 36.8125 7.515625 
L 36.8125 0 
L 27.59375 0 
Q 17.1875 0 13.234375 3.875 
Q 9.28125 7.765625 9.28125 18.015625 
L 9.28125 47.703125 
L 2.6875 47.703125 
L 2.6875 54.6875 
L 9.28125 54.6875 
L 9.28125 70.21875 
z
" id="DejaVuSans-116"/>
       <path d="M 9.421875 54.6875 
L 18.40625 54.6875 
L 18.40625 0 
L 9.421875 0 
z
M 9.421875 75.984375 
L 18.40625 75.984375 
L 18.40625 64.59375 
L 9.421875 64.59375 
z
" id="DejaVuSans-105"/>
       <path d="M 2.984375 54.6875 
L 12.5 54.6875 
L 29.59375 8.796875 
L 46.6875 54.6875 
L 56.203125 54.6875 
L 35.6875 0 
L 23.484375 0 
z
" id="DejaVuSans-118"/>
       <path d="M 56.203125 29.59375 
L 56.203125 25.203125 
L 14.890625 25.203125 
Q 15.484375 15.921875 20.484375 11.0625 
Q 25.484375 6.203125 34.421875 6.203125 
Q 39.59375 6.203125 44.453125 7.46875 
Q 49.3125 8.734375 54.109375 11.28125 
L 54.109375 2.78125 
Q 49.265625 0.734375 44.1875 -0.34375 
Q 39.109375 -1.421875 33.890625 -1.421875 
Q 20.796875 -1.421875 13.15625 6.1875 
Q 5.515625 13.8125 5.515625 26.8125 
Q 5.515625 40.234375 12.765625 48.109375 
Q 20.015625 56 32.328125 56 
Q 43.359375 56 49.78125 48.890625 
Q 56.203125 41.796875 56.203125 29.59375 
z
M 47.21875 32.234375 
Q 47.125 39.59375 43.09375 43.984375 
Q 39.0625 48.390625 32.421875 48.390625 
Q 24.90625 48.390625 20.390625 44.140625 
Q 15.875 39.890625 15.1875 32.171875 
z
" id="DejaVuSans-101"/>
       <path id="DejaVuSans-32"/>
       <path d="M 48.78125 52.59375 
L 48.78125 44.1875 
Q 44.96875 46.296875 41.140625 47.34375 
Q 37.3125 48.390625 33.40625 48.390625 
Q 24.65625 48.390625 19.8125 42.84375 
Q 14.984375 37.3125 14.984375 27.296875 
Q 14.984375 17.28125 19.8125 11.734375 
Q 24.65625 6.203125 33.40625 6.203125 
Q 37.3125 6.203125 41.140625 7.25 
Q 44.96875 8.296875 48.78125 10.40625 
L 48.78125 2.09375 
Q 45.015625 0.34375 40.984375 -0.53125 
Q 36.96875 -1.421875 32.421875 -1.421875 
Q 20.0625 -1.421875 12.78125 6.34375 
Q 5.515625 14.109375 5.515625 27.296875 
Q 5.515625 40.671875 12.859375 48.328125 
Q 20.21875 56 33.015625 56 
Q 37.15625 56 41.109375 55.140625 
Q 45.0625 54.296875 48.78125 52.59375 
z
" id="DejaVuSans-99"/>
      </defs>
      <use xlink:href="#DejaVuSans-67"/>
      <use x="69.824219" xlink:href="#DejaVuSans-117"/>
      <use x="133.203125" xlink:href="#DejaVuSans-109"/>
      <use x="230.615234" xlink:href="#DejaVuSans-117"/>
      <use x="293.994141" xlink:href="#DejaVuSans-108"/>
      <use x="321.777344" xlink:href="#DejaVuSans-97"/>
      <use x="383.056641" xlink:href="#DejaVuSans-116"/>
      <use x="422.265625" xlink:href="#DejaVuSans-105"/>
      <use x="450.048828" xlink:href="#DejaVuSans-118"/>
      <use x="509.228516" xlink:href="#DejaVuSans-101"/>
      <use x="570.751953" xlink:href="#DejaVuSans-32"/>
      <use x="602.539062" xlink:href="#DejaVuSans-99"/>
      <use x="657.519531" xlink:href="#DejaVuSans-97"/>
      <use x="718.798828" xlink:href="#DejaVuSans-115"/>
      <use x="770.898438" xlink:href="#DejaVuSans-101"/>
      <use x="832.421875" xlink:href="#DejaVuSans-115"/>
     </g>
    </g>
   </g>
   <g id="line2d_37">
    <path clip-path="url(#pc660c88c07)" d="M 115.363636 605.290909 
L 121.78481 604.449549 
L 128.205984 603.472825 
L 134.627158 602.33967 
L 141.048331 601.025989 
L 147.469505 599.504308 
L 153.890679 597.743416 
L 160.311853 595.708014 
L 166.733026 593.358386 
L 173.1542 590.650113 
L 179.575374 587.533882 
L 185.996548 583.955414 
L 192.417722 579.85558 
L 198.838895 575.170775 
L 205.260069 569.83362 
L 211.681243 563.774077 
L 218.102417 556.921083 
L 224.52359 549.204759 
L 230.944764 540.559254 
L 237.365938 530.926251 
L 243.787112 520.259056 
L 250.208285 508.527141 
L 256.629459 495.720876 
L 263.050633 481.856094 
L 269.471807 466.977991 
L 275.89298 451.163858 
L 282.314154 434.524073 
L 288.735328 417.200951 
L 295.156502 399.365176 
L 301.577675 381.209873 
L 307.998849 362.942652 
L 314.420023 344.776286 
L 320.841197 326.918893 
L 327.262371 309.564565 
L 333.683544 292.885325 
L 340.104718 277.025077 
L 346.525892 262.095917 
L 352.947066 248.176854 
L 359.368239 235.314705 
L 365.789413 223.526746 
L 372.210587 212.804569 
L 378.631761 203.118617 
L 385.052934 194.422927 
L 391.474108 186.65968 
L 397.895282 179.763329 
L 404.316456 173.664127 
L 410.737629 168.291013 
L 417.158803 163.573852 
L 423.579977 159.445094 
L 430.001151 155.840914 
L 436.422325 152.701941 
L 442.843498 149.973636 
L 449.264672 147.606428 
L 455.685846 145.555647 
L 462.10702 143.781336 
L 468.528193 142.247974 
L 474.949367 140.924147 
L 481.370541 139.782193 
L 487.791715 138.797849 
L 494.212888 137.949899 
L 500.634062 137.219843 
L 507.055236 136.591583 
L 513.47641 136.051145 
L 519.897583 135.586413 
L 526.318757 135.186902 
L 532.739931 134.843547 
L 539.161105 134.548519 
L 545.582278 134.295066 
L 552.003452 134.077363 
L 558.424626 133.890394 
L 564.8458 133.72984 
L 571.266974 133.591982 
L 577.688147 133.473624 
L 584.109321 133.372014 
L 590.530495 133.284789 
L 596.951669 133.209916 
L 603.372842 133.145649 
L 609.794016 133.090488 
L 616.21519 133.043144 
L 622.636364 133.002511 
" style="fill:none;stroke:#1f77b4;stroke-linecap:square;stroke-width:1.5;"/>
   </g>
   <g id="line2d_38">
    <path clip-path="url(#pc660c88c07)" d="M 115.363636 605.290909 
L 121.78481 603.168745 
L 128.205984 600.814226 
L 134.627158 598.204686 
L 141.048331 595.315901 
L 147.469505 592.122151 
L 153.890679 588.596322 
L 160.311853 584.710064 
L 166.733026 580.434028 
L 173.1542 575.738178 
L 179.575374 570.592197 
L 185.996548 564.965995 
L 192.417722 558.830329 
L 198.838895 552.157533 
L 205.260069 544.922363 
L 211.681243 537.102939 
L 218.102417 528.681784 
L 224.52359 519.646911 
L 230.944764 509.992935 
L 237.365938 499.722156 
L 243.787112 488.845554 
L 250.208285 477.383626 
L 256.629459 465.366998 
L 263.050633 452.836742 
L 269.471807 439.844333 
L 275.89298 426.451213 
L 282.314154 412.727927 
L 288.735328 398.752841 
L 295.156502 384.61048 
L 301.577675 370.389558 
L 307.998849 356.180779 
L 314.420023 342.074538 
L 320.841197 328.158638 
L 327.262371 314.516142 
L 333.683544 301.223475 
L 340.104718 288.348859 
L 346.525892 275.951141 
L 352.947066 264.079046 
L 359.368239 252.770844 
L 365.789413 242.054412 
L 372.210587 231.947635 
L 378.631761 222.459085 
L 385.052934 213.588909 
L 391.474108 205.32985 
L 397.895282 197.668348 
L 404.316456 190.585643 
L 410.737629 184.05886 
L 417.158803 178.06202 
L 423.579977 172.566957 
L 430.001151 167.544136 
L 436.422325 162.96335 
L 442.843498 158.794311 
L 449.264672 155.007132 
L 455.685846 151.572703 
L 462.10702 148.462984 
L 468.528193 145.651221 
L 474.949367 143.112084 
L 481.370541 140.821763 
L 487.791715 138.758008 
L 494.212888 136.900137 
L 500.634062 135.229009 
L 507.055236 133.726987 
L 513.47641 132.377872 
L 519.897583 131.166836 
L 526.318757 130.08034 
L 532.739931 129.106053 
L 539.161105 128.232771 
L 545.582278 127.450332 
L 552.003452 126.749532 
L 558.424626 126.122051 
L 564.8458 125.560379 
L 571.266974 125.057739 
L 577.688147 124.608031 
L 584.109321 124.205761 
L 590.530495 123.84599 
L 596.951669 123.524282 
L 603.372842 123.23665 
L 609.794016 122.979518 
L 616.21519 122.74968 
L 622.636364 122.544259 
" style="fill:none;stroke:#ff7f0e;stroke-linecap:square;stroke-width:1.5;"/>
   </g>
   <g id="line2d_39">
    <path clip-path="url(#pc660c88c07)" d="M 115.363636 605.290909 
L 121.78481 603.2314 
L 128.205984 600.931367 
L 134.627158 598.365933 
L 141.048331 595.508459 
L 147.469505 592.330629 
L 153.890679 588.802603 
L 160.311853 584.893245 
L 166.733026 580.570454 
L 173.1542 575.801599 
L 179.575374 570.554076 
L 185.996548 564.795996 
L 192.417722 558.497006 
L 198.838895 551.629248 
L 205.260069 544.168433 
L 211.681243 536.095004 
L 218.102417 527.395372 
L 224.52359 518.06314 
L 230.944764 508.100282 
L 237.365938 497.518173 
L 243.787112 486.338415 
L 250.208285 474.593349 
L 256.629459 462.3262 
L 263.050633 449.590796 
L 269.471807 436.450815 
L 275.89298 422.978592 
L 282.314154 409.253498 
L 288.735328 395.359979 
L 295.156502 381.385365 
L 301.577675 367.417558 
L 307.998849 353.542745 
L 314.420023 339.843261 
L 320.841197 326.395707 
L 327.262371 313.269408 
L 333.683544 300.525273 
L 340.104718 288.215059 
L 346.525892 276.381035 
L 352.947066 265.056015 
L 359.368239 254.263695 
L 365.789413 244.019239 
L 372.210587 234.330038 
L 378.631761 225.19659 
L 385.052934 216.613428 
L 391.474108 208.570067 
L 397.895282 201.051912 
L 404.316456 194.041114 
L 410.737629 187.517354 
L 417.158803 181.458533 
L 423.579977 175.84138 
L 430.001151 170.641968 
L 436.422325 165.836145 
L 442.843498 161.39989 
L 449.264672 157.309593 
L 455.685846 153.542275 
L 462.10702 150.075759 
L 468.528193 146.88879 
L 474.949367 143.961116 
L 481.370541 141.27354 
L 487.791715 138.807948 
L 494.212888 136.547309 
L 500.634062 134.475668 
L 507.055236 132.57812 
L 513.47641 130.840776 
L 519.897583 129.250725 
L 526.318757 127.795989 
L 532.739931 126.465474 
L 539.161105 125.248922 
L 545.582278 124.13686 
L 552.003452 123.120554 
L 558.424626 122.191958 
L 564.8458 121.343667 
L 571.266974 120.568872 
L 577.688147 119.861319 
L 584.109321 119.215267 
L 590.530495 118.625447 
L 596.951669 118.087029 
L 603.372842 117.595588 
L 609.794016 117.14707 
L 616.21519 116.737762 
L 622.636364 116.364267 
" style="fill:none;stroke:#2ca02c;stroke-linecap:square;stroke-width:1.5;"/>
   </g>
   <g id="line2d_40">
    <path clip-path="url(#pc660c88c07)" d="M 115.363636 605.290909 
L 121.78481 603.479366 
L 128.205984 601.439993 
L 134.627158 599.147268 
L 141.048331 596.573545 
L 147.469505 593.689075 
L 153.890679 590.4621 
L 160.311853 586.85902 
L 166.733026 582.844669 
L 173.1542 578.382711 
L 179.575374 573.43617 
L 185.996548 567.968124 
L 192.417722 561.942565 
L 198.838895 555.325431 
L 205.260069 548.085816 
L 211.681243 540.197317 
L 218.102417 531.639503 
L 224.52359 522.399441 
L 230.944764 512.473201 
L 237.365938 501.867247 
L 243.787112 490.599618 
L 250.208285 478.700764 
L 256.629459 466.213959 
L 263.050633 453.195169 
L 269.471807 439.712354 
L 275.89298 425.844162 
L 282.314154 411.678072 
L 288.735328 397.308059 
L 295.156502 382.831932 
L 301.577675 368.348491 
L 307.998849 353.954705 
L 314.420023 339.743058 
L 320.841197 325.799243 
L 327.262371 312.200295 
L 333.683544 299.013239 
L 340.104718 286.294275 
L 346.525892 274.088468 
L 352.947066 262.4299 
L 359.368239 251.342191 
L 365.789413 240.839313 
L 372.210587 230.926596 
L 378.631761 221.601845 
L 385.052934 212.856499 
L 391.474108 204.676767 
L 397.895282 197.044705 
L 404.316456 189.939202 
L 410.737629 183.336852 
L 417.158803 177.212716 
L 423.579977 171.540969 
L 430.001151 166.295433 
L 436.422325 161.450009 
L 442.843498 156.979025 
L 449.264672 152.857493 
L 455.685846 149.061315 
L 462.10702 145.567415 
L 468.528193 142.353837 
L 474.949367 139.399798 
L 481.370541 136.685716 
L 487.791715 134.193207 
L 494.212888 131.90507 
L 500.634062 129.805258 
L 507.055236 127.878834 
L 513.47641 126.111926 
L 519.897583 124.491674 
L 526.318757 123.006173 
L 532.739931 121.644421 
L 539.161105 120.396262 
L 545.582278 119.252328 
L 552.003452 118.20399 
L 558.424626 117.243303 
L 564.8458 116.362961 
L 571.266974 115.556246 
L 577.688147 114.816986 
L 584.109321 114.139512 
L 590.530495 113.518624 
L 596.951669 112.949548 
L 603.372842 112.427905 
L 609.794016 111.949683 
L 616.21519 111.511202 
L 622.636364 111.109091 
" style="fill:none;stroke:#d62728;stroke-linecap:square;stroke-width:1.5;"/>
   </g>
   <g id="line2d_41">
    <path clip-path="url(#pc660c88c07)" d="M 115.363636 605.290909 
L 121.78481 604.865678 
L 128.205984 603.83246 
L 134.627158 602.392708 
L 141.048331 600.624662 
L 147.469505 598.546982 
L 153.890679 596.148479 
L 160.311853 593.40203 
L 166.733026 590.271147 
L 173.1542 586.713155 
L 179.575374 582.680905 
L 185.996548 578.123902 
L 192.417722 572.989324 
L 198.838895 567.223171 
L 205.260069 560.771663 
L 211.681243 553.582969 
L 218.102417 545.609298 
L 224.52359 536.809332 
L 230.944764 527.15095 
L 237.365938 516.614128 
L 243.787112 505.193839 
L 250.208285 492.902756 
L 256.629459 479.773477 
L 263.050633 465.859998 
L 269.471807 451.238201 
L 275.89298 436.005127 
L 282.314154 420.276958 
L 288.735328 404.18573 
L 295.156502 387.874949 
L 301.577675 371.494409 
L 307.998849 355.194617 
L 314.420023 339.121264 
L 320.841197 323.410155 
L 327.262371 308.182981 
L 333.683544 293.544153 
L 340.104718 279.578821 
L 346.525892 266.352076 
L 352.947066 253.909216 
L 359.368239 242.276876 
L 365.789413 231.464829 
L 372.210587 221.468185 
L 378.631761 212.269816 
L 385.052934 203.8428 
L 391.474108 196.152759 
L 397.895282 189.159992 
L 404.316456 182.821354 
L 410.737629 177.091843 
L 417.158803 171.925904 
L 423.579977 167.278463 
L 430.001151 163.105711 
L 436.422325 159.365683 
L 442.843498 156.018649 
L 449.264672 153.027366 
L 455.685846 150.357202 
L 462.10702 147.976179 
L 468.528193 145.854939 
L 474.949367 143.966663 
L 481.370541 142.286958 
L 487.791715 140.793715 
L 494.212888 139.466961 
L 500.634062 138.288696 
L 507.055236 137.242744 
L 513.47641 136.314588 
L 519.897583 135.49123 
L 526.318757 134.761046 
L 532.739931 134.113653 
L 539.161105 133.539792 
L 545.582278 133.031209 
L 552.003452 132.580554 
L 558.424626 132.181291 
L 564.8458 131.827606 
L 571.266974 131.514331 
L 577.688147 131.236878 
L 584.109321 130.991174 
L 590.530495 130.773603 
L 596.951669 130.580957 
L 603.372842 130.410391 
L 609.794016 130.259384 
L 616.21519 130.125698 
L 622.636364 130.007352 
" style="fill:none;stroke:#9467bd;stroke-linecap:square;stroke-width:1.5;"/>
   </g>
   <g id="line2d_42">
    <path clip-path="url(#pc660c88c07)" d="M 115.363636 605.290909 
L 121.78481 604.9497 
L 128.205984 603.980644 
L 134.627158 602.442744 
L 141.048331 600.370803 
L 147.469505 597.781572 
L 153.890679 594.678397 
L 160.311853 591.054782 
L 166.733026 586.897198 
L 173.1542 582.187384 
L 179.575374 576.904288 
L 185.996548 571.0258 
L 192.417722 564.530332 
L 198.838895 557.398333 
L 205.260069 549.613728 
L 211.681243 541.165319 
L 218.102417 532.048111 
L 224.52359 522.264531 
L 230.944764 511.825502 
L 237.365938 500.751308 
L 243.787112 489.07219 
L 250.208285 476.828615 
L 256.629459 464.071184 
L 263.050633 450.860129 
L 269.471807 437.264415 
L 275.89298 423.360453 
L 282.314154 409.230482 
L 288.735328 394.96068 
L 295.156502 380.639122 
L 301.577675 366.353663 
L 307.998849 352.189876 
L 314.420023 338.229133 
L 320.841197 324.546922 
L 327.262371 311.211474 
L 333.683544 298.282719 
L 340.104718 285.811616 
L 346.525892 273.839821 
L 352.947066 262.39969 
L 359.368239 251.514559 
L 365.789413 241.199255 
L 372.210587 231.460787 
L 378.631761 222.299156 
L 385.052934 213.708235 
L 391.474108 205.67668 
L 397.895282 198.188825 
L 404.316456 191.225541 
L 410.737629 184.765037 
L 417.158803 178.783583 
L 423.579977 173.25615 
L 430.001151 168.156974 
L 436.422325 163.460026 
L 442.843498 159.139408 
L 449.264672 155.169672 
L 455.685846 151.52608 
L 462.10702 148.18479 
L 468.528193 145.123004 
L 474.949367 142.319066 
L 481.370541 139.752523 
L 487.791715 137.404156 
L 494.212888 135.255983 
L 500.634062 133.29125 
L 507.055236 131.494397 
L 513.47641 129.85102 
L 519.897583 128.34782 
L 526.318757 126.972549 
L 532.739931 125.713948 
L 539.161105 124.561691 
L 545.582278 123.506321 
L 552.003452 122.539191 
L 558.424626 121.652402 
L 564.8458 120.83875 
L 571.266974 120.091669 
L 577.688147 119.405182 
L 584.109321 118.773848 
L 590.530495 118.192721 
L 596.951669 117.657306 
L 603.372842 117.163518 
L 609.794016 116.707648 
L 616.21519 116.286326 
L 622.636364 115.896496 
" style="fill:none;stroke:#8c564b;stroke-linecap:square;stroke-width:1.5;"/>
   </g>
   <g id="line2d_43">
    <path clip-path="url(#pc660c88c07)" d="M 115.363636 605.290909 
L 121.78481 604.902171 
L 128.205984 603.945794 
L 134.627158 602.600876 
L 141.048331 600.940286 
L 147.469505 598.983274 
L 153.890679 596.721096 
L 160.311853 594.129508 
L 166.733026 591.174896 
L 173.1542 587.81734 
L 179.575374 584.012274 
L 185.996548 579.711558 
L 192.417722 574.864395 
L 198.838895 569.418326 
L 205.260069 563.320434 
L 211.681243 556.518846 
L 218.102417 548.964571 
L 224.52359 540.613665 
L 230.944764 531.429716 
L 237.365938 521.386544 
L 243.787112 510.470999 
L 250.208285 498.685668 
L 256.629459 486.051276 
L 263.050633 472.608515 
L 269.471807 458.419051 
L 275.89298 443.565501 
L 282.314154 428.150218 
L 288.735328 412.292854 
L 295.156502 396.126775 
L 301.577675 379.794552 
L 307.998849 363.442845 
L 314.420023 347.217074 
L 320.841197 331.256286 
L 327.262371 315.688596 
L 333.683544 300.627499 
L 340.104718 286.169231 
L 346.525892 272.391248 
L 352.947066 259.351787 
L 359.368239 247.090359 
L 365.789413 235.629011 
L 372.210587 224.974128 
L 378.631761 215.11858 
L 385.052934 206.044006 
L 391.474108 197.723108 
L 397.895282 190.121818 
L 404.316456 183.20126 
L 410.737629 176.919474 
L 417.158803 171.232872 
L 423.579977 166.097432 
L 430.001151 161.469641 
L 436.422325 157.307224 
L 442.843498 153.569665 
L 449.264672 150.218581 
L 455.685846 147.217945 
L 462.10702 144.534214 
L 468.528193 142.13636 
L 474.949367 139.995852 
L 481.370541 138.086577 
L 487.791715 136.384736 
L 494.212888 134.868717 
L 500.634062 133.518954 
L 507.055236 132.317781 
L 513.47641 131.249282 
L 519.897583 130.299149 
L 526.318757 129.45454 
L 532.739931 128.703947 
L 539.161105 128.03707 
L 545.582278 127.444701 
L 552.003452 126.918616 
L 558.424626 126.451478 
L 564.8458 126.036744 
L 571.266974 125.668583 
L 577.688147 125.341804 
L 584.109321 125.051783 
L 590.530495 124.794411 
L 596.951669 124.56603 
L 603.372842 124.363388 
L 609.794016 124.183596 
L 616.21519 124.024085 
L 622.636364 123.882576 
" style="fill:none;stroke:#e377c2;stroke-linecap:square;stroke-width:1.5;"/>
   </g>
   <g id="line2d_44">
    <path clip-path="url(#pc660c88c07)" d="M 115.363636 605.290909 
L 121.78481 604.961343 
L 128.205984 604.066542 
L 134.627158 602.696731 
L 141.048331 600.894605 
L 147.469505 598.672321 
L 153.890679 596.02212 
L 160.311853 592.92306 
L 166.733026 589.345397 
L 173.1542 585.25356 
L 179.575374 580.608359 
L 185.996548 575.368781 
L 192.417722 569.49364 
L 198.838895 562.943214 
L 205.260069 555.680973 
L 211.681243 547.675413 
L 218.102417 538.901985 
L 224.52359 529.345088 
L 230.944764 519.000014 
L 237.365938 507.874752 
L 243.787112 495.991497 
L 250.208285 483.387725 
L 256.629459 470.116688 
L 263.050633 456.247225 
L 269.471807 441.862797 
L 275.89298 427.05976 
L 282.314154 411.944912 
L 288.735328 396.632448 
L 295.156502 381.24051 
L 301.577675 365.887552 
L 307.998849 350.688757 
L 314.420023 335.752735 
L 320.841197 321.178697 
L 327.262371 307.05423 
L 333.683544 293.453766 
L 340.104718 280.437737 
L 346.525892 268.052402 
L 352.947066 256.330231 
L 359.368239 245.290766 
L 365.789413 234.941822 
L 372.210587 225.280907 
L 378.631761 216.296761 
L 385.052934 207.970919 
L 391.474108 200.279209 
L 397.895282 193.193164 
L 404.316456 186.681274 
L 410.737629 180.710095 
L 417.158803 175.245183 
L 423.579977 170.251873 
L 430.001151 165.695896 
L 436.422325 161.543873 
L 442.843498 157.763673 
L 449.264672 154.324678 
L 455.685846 151.197953 
L 462.10702 148.356348 
L 468.528193 145.774546 
L 474.949367 143.429056 
L 481.370541 141.298183 
L 487.791715 139.361965 
L 494.212888 137.602095 
L 500.634062 136.001833 
L 507.055236 134.54591 
L 513.47641 133.220423 
L 519.897583 132.012742 
L 526.318757 130.911406 
L 532.739931 129.906031 
L 539.161105 128.987218 
L 545.582278 128.14647 
L 552.003452 127.376107 
L 558.424626 126.669197 
L 564.8458 126.019484 
L 571.266974 125.421324 
L 577.688147 124.86963 
L 584.109321 124.359816 
L 590.530495 123.88775 
L 596.951669 123.449707 
L 603.372842 123.042336 
L 609.794016 122.662615 
L 616.21519 122.307826 
L 622.636364 121.975517 
" style="fill:none;stroke:#7f7f7f;stroke-linecap:square;stroke-width:1.5;"/>
   </g>
   <g id="line2d_45">
    <path clip-path="url(#pc660c88c07)" d="M 115.363636 605.290909 
L 121.78481 604.979824 
L 128.205984 604.092747 
L 134.627158 602.678123 
L 141.048331 600.762385 
L 147.469505 598.355556 
L 153.890679 595.455468 
L 160.311853 592.050987 
L 166.733026 588.124582 
L 173.1542 583.654434 
L 179.575374 578.616264 
L 185.996548 572.984988 
L 192.417722 566.736271 
L 198.838895 559.848038 
L 205.260069 552.301954 
L 211.681243 544.08487 
L 218.102417 535.190213 
L 224.52359 525.61927 
L 230.944764 515.382318 
L 237.365938 504.49952 
L 243.787112 493.001526 
L 250.208285 480.929715 
L 256.629459 468.336021 
L 263.050633 455.282326 
L 269.471807 441.839413 
L 275.89298 428.085506 
L 282.314154 414.104485 
L 288.735328 399.983829 
L 295.156502 385.81244 
L 301.577675 371.678424 
L 307.998849 357.666991 
L 314.420023 343.858544 
L 320.841197 330.327057 
L 327.262371 317.138805 
L 333.683544 304.351463 
L 340.104718 292.013579 
L 346.525892 280.164407 
L 352.947066 268.834049 
L 359.368239 258.04386 
L 365.789413 247.807053 
L 372.210587 238.129456 
L 378.631761 229.010352 
L 385.052934 220.443366 
L 391.474108 212.417349 
L 397.895282 204.91724 
L 404.316456 197.924867 
L 410.737629 191.419683 
L 417.158803 185.379425 
L 423.579977 179.780691 
L 430.001151 174.599437 
L 436.422325 169.811394 
L 442.843498 165.392414 
L 449.264672 161.318752 
L 455.685846 157.567283 
L 462.10702 154.115674 
L 468.528193 150.942509 
L 474.949367 148.027376 
L 481.370541 145.350923 
L 487.791715 142.894884 
L 494.212888 140.642093 
L 500.634062 138.576472 
L 507.055236 136.68301 
L 513.47641 134.947733 
L 519.897583 133.35766 
L 526.318757 131.900765 
L 532.739931 130.565925 
L 539.161105 129.34287 
L 545.582278 128.222136 
L 552.003452 127.195011 
L 558.424626 126.253484 
L 564.8458 125.390201 
L 571.266974 124.598416 
L 577.688147 123.871945 
L 584.109321 123.205126 
L 590.530495 122.592776 
L 596.951669 122.030155 
L 603.372842 121.512933 
L 609.794016 121.03715 
L 616.21519 120.599193 
L 622.636364 120.195762 
" style="fill:none;stroke:#bcbd22;stroke-linecap:square;stroke-width:1.5;"/>
   </g>
   <g id="line2d_46">
    <path clip-path="url(#pc660c88c07)" d="M 115.363636 605.290909 
L 121.78481 600.13854 
L 128.205984 596.274263 
L 134.627158 593.054032 
L 141.048331 590.155824 
L 147.469505 587.257616 
L 153.890679 576.630855 
L 160.311853 570.834439 
L 166.733026 566.326116 
L 173.1542 553.12317 
L 179.575374 550.869008 
L 185.996548 550.546985 
L 192.417722 544.750569 
L 198.838895 540.886292 
L 205.260069 537.666062 
L 211.681243 523.819069 
L 218.102417 516.412538 
L 224.52359 509.32803 
L 230.944764 502.243522 
L 237.365938 493.548899 
L 243.787112 481.634045 
L 250.208285 473.261445 
L 256.629459 465.532891 
L 263.050633 458.770406 
L 269.471807 454.262083 
L 275.89298 438.482952 
L 282.314154 423.347867 
L 288.735328 390.823535 
L 295.156502 384.705097 
L 301.577675 380.196774 
L 307.998849 376.010474 
L 314.420023 371.50215 
L 320.841197 362.807527 
L 327.262371 341.554004 
L 333.683544 332.537357 
L 340.104718 295.826726 
L 346.525892 272.641064 
L 352.947066 259.76014 
L 359.368239 236.574478 
L 365.789413 232.710201 
L 372.210587 224.337601 
L 378.631761 209.846562 
L 385.052934 183.762693 
L 391.474108 172.491885 
L 397.895282 168.305585 
L 404.316456 166.373446 
L 410.737629 165.7294 
L 417.158803 164.763331 
L 423.579977 162.509169 
L 430.001151 160.899054 
L 436.422325 158.644892 
L 442.843498 157.3568 
L 449.264672 157.034777 
L 455.685846 155.424661 
L 462.10702 152.848477 
L 468.528193 150.272292 
L 474.949367 145.119923 
L 481.370541 141.899692 
L 487.791715 141.899692 
L 494.212888 141.255646 
L 500.634062 141.255646 
L 507.055236 138.679461 
L 513.47641 137.391369 
L 519.897583 134.815184 
L 526.318757 133.849115 
L 532.739931 129.662815 
L 539.161105 129.340792 
L 545.582278 129.018768 
L 552.003452 129.018768 
L 558.424626 128.696745 
L 564.8458 126.764607 
L 571.266974 126.442584 
L 577.688147 126.120561 
L 584.109321 124.510445 
L 590.530495 123.866399 
L 596.951669 123.222353 
L 603.372842 122.578307 
L 609.794016 120.968191 
L 616.21519 120.968191 
L 622.636364 120.646168 
" style="fill:none;stroke:#17becf;stroke-dasharray:14.8,6.4;stroke-dashoffset:0;stroke-width:4;"/>
   </g>
   <g id="patch_3">
    <path d="M 90 630 
L 90 86.4 
" style="fill:none;stroke:#000000;stroke-linecap:square;stroke-linejoin:miter;stroke-width:0.8;"/>
   </g>
   <g id="patch_4">
    <path d="M 648 630 
L 648 86.4 
" style="fill:none;stroke:#000000;stroke-linecap:square;stroke-linejoin:miter;stroke-width:0.8;"/>
   </g>
   <g id="patch_5">
    <path d="M 90 630 
L 648 630 
" style="fill:none;stroke:#000000;stroke-linecap:square;stroke-linejoin:miter;stroke-width:0.8;"/>
   </g>
   <g id="patch_6">
    <path d="M 90 86.4 
L 648 86.4 
" style="fill:none;stroke:#000000;stroke-linecap:square;stroke-linejoin:miter;stroke-width:0.8;"/>
   </g>
   <g id="text_21">
    <!-- Slovakia relative err =  -->
    <g transform="translate(300.001875 80.4)scale(0.12 -0.12)">
     <defs>
      <path d="M 53.515625 70.515625 
L 53.515625 60.890625 
Q 47.90625 63.578125 42.921875 64.890625 
Q 37.9375 66.21875 33.296875 66.21875 
Q 25.25 66.21875 20.875 63.09375 
Q 16.5 59.96875 16.5 54.203125 
Q 16.5 49.359375 19.40625 46.890625 
Q 22.3125 44.4375 30.421875 42.921875 
L 36.375 41.703125 
Q 47.40625 39.59375 52.65625 34.296875 
Q 57.90625 29 57.90625 20.125 
Q 57.90625 9.515625 50.796875 4.046875 
Q 43.703125 -1.421875 29.984375 -1.421875 
Q 24.8125 -1.421875 18.96875 -0.25 
Q 13.140625 0.921875 6.890625 3.21875 
L 6.890625 13.375 
Q 12.890625 10.015625 18.65625 8.296875 
Q 24.421875 6.59375 29.984375 6.59375 
Q 38.421875 6.59375 43.015625 9.90625 
Q 47.609375 13.234375 47.609375 19.390625 
Q 47.609375 24.75 44.3125 27.78125 
Q 41.015625 30.8125 33.5 32.328125 
L 27.484375 33.5 
Q 16.453125 35.6875 11.515625 40.375 
Q 6.59375 45.0625 6.59375 53.421875 
Q 6.59375 63.09375 13.40625 68.65625 
Q 20.21875 74.21875 32.171875 74.21875 
Q 37.3125 74.21875 42.625 73.28125 
Q 47.953125 72.359375 53.515625 70.515625 
z
" id="DejaVuSans-83"/>
      <path d="M 30.609375 48.390625 
Q 23.390625 48.390625 19.1875 42.75 
Q 14.984375 37.109375 14.984375 27.296875 
Q 14.984375 17.484375 19.15625 11.84375 
Q 23.34375 6.203125 30.609375 6.203125 
Q 37.796875 6.203125 41.984375 11.859375 
Q 46.1875 17.53125 46.1875 27.296875 
Q 46.1875 37.015625 41.984375 42.703125 
Q 37.796875 48.390625 30.609375 48.390625 
z
M 30.609375 56 
Q 42.328125 56 49.015625 48.375 
Q 55.71875 40.765625 55.71875 27.296875 
Q 55.71875 13.875 49.015625 6.21875 
Q 42.328125 -1.421875 30.609375 -1.421875 
Q 18.84375 -1.421875 12.171875 6.21875 
Q 5.515625 13.875 5.515625 27.296875 
Q 5.515625 40.765625 12.171875 48.375 
Q 18.84375 56 30.609375 56 
z
" id="DejaVuSans-111"/>
      <path d="M 9.078125 75.984375 
L 18.109375 75.984375 
L 18.109375 31.109375 
L 44.921875 54.6875 
L 56.390625 54.6875 
L 27.390625 29.109375 
L 57.625 0 
L 45.90625 0 
L 18.109375 26.703125 
L 18.109375 0 
L 9.078125 0 
z
" id="DejaVuSans-107"/>
      <path d="M 41.109375 46.296875 
Q 39.59375 47.171875 37.8125 47.578125 
Q 36.03125 48 33.890625 48 
Q 26.265625 48 22.1875 43.046875 
Q 18.109375 38.09375 18.109375 28.8125 
L 18.109375 0 
L 9.078125 0 
L 9.078125 54.6875 
L 18.109375 54.6875 
L 18.109375 46.1875 
Q 20.953125 51.171875 25.484375 53.578125 
Q 30.03125 56 36.53125 56 
Q 37.453125 56 38.578125 55.875 
Q 39.703125 55.765625 41.0625 55.515625 
z
" id="DejaVuSans-114"/>
      <path d="M 10.59375 45.40625 
L 73.1875 45.40625 
L 73.1875 37.203125 
L 10.59375 37.203125 
z
M 10.59375 25.484375 
L 73.1875 25.484375 
L 73.1875 17.1875 
L 10.59375 17.1875 
z
" id="DejaVuSans-61"/>
     </defs>
     <use xlink:href="#DejaVuSans-83"/>
     <use x="63.476562" xlink:href="#DejaVuSans-108"/>
     <use x="91.259766" xlink:href="#DejaVuSans-111"/>
     <use x="152.441406" xlink:href="#DejaVuSans-118"/>
     <use x="211.621094" xlink:href="#DejaVuSans-97"/>
     <use x="272.900391" xlink:href="#DejaVuSans-107"/>
     <use x="330.810547" xlink:href="#DejaVuSans-105"/>
     <use x="358.59375" xlink:href="#DejaVuSans-97"/>
     <use x="419.873047" xlink:href="#DejaVuSans-32"/>
     <use x="451.660156" xlink:href="#DejaVuSans-114"/>
     <use x="490.523438" xlink:href="#DejaVuSans-101"/>
     <use x="552.046875" xlink:href="#DejaVuSans-108"/>
     <use x="579.830078" xlink:href="#DejaVuSans-97"/>
     <use x="641.109375" xlink:href="#DejaVuSans-116"/>
     <use x="680.318359" xlink:href="#DejaVuSans-105"/>
     <use x="708.101562" xlink:href="#DejaVuSans-118"/>
     <use x="767.28125" xlink:href="#DejaVuSans-101"/>
     <use x="828.804688" xlink:href="#DejaVuSans-32"/>
     <use x="860.591797" xlink:href="#DejaVuSans-101"/>
     <use x="922.115234" xlink:href="#DejaVuSans-114"/>
     <use x="961.478516" xlink:href="#DejaVuSans-114"/>
     <use x="1002.591797" xlink:href="#DejaVuSans-32"/>
     <use x="1034.378906" xlink:href="#DejaVuSans-61"/>
     <use x="1118.167969" xlink:href="#DejaVuSans-32"/>
    </g>
   </g>
   <g id="legend_1">
    <g id="patch_7">
     <path d="M 97 226.503125 
L 185.6 226.503125 
Q 187.6 226.503125 187.6 224.503125 
L 187.6 93.4 
Q 187.6 91.4 185.6 91.4 
L 97 91.4 
Q 95 91.4 95 93.4 
L 95 224.503125 
Q 95 226.503125 97 226.503125 
z
" style="fill:#ffffff;opacity:0.8;stroke:#cccccc;stroke-linejoin:miter;"/>
    </g>
    <g id="line2d_47">
     <path d="M 99 99.498438 
L 119 99.498438 
" style="fill:none;stroke:#1f77b4;stroke-linecap:square;stroke-width:1.5;"/>
    </g>
    <g id="line2d_48"/>
    <g id="text_22">
     <!-- SI -->
     <g transform="translate(127 102.998438)scale(0.1 -0.1)">
      <defs>
       <path d="M 9.8125 72.90625 
L 19.671875 72.90625 
L 19.671875 0 
L 9.8125 0 
z
" id="DejaVuSans-73"/>
      </defs>
      <use xlink:href="#DejaVuSans-83"/>
      <use x="63.476562" xlink:href="#DejaVuSans-73"/>
     </g>
    </g>
    <g id="line2d_49">
     <path d="M 99 114.176563 
L 119 114.176563 
" style="fill:none;stroke:#ff7f0e;stroke-linecap:square;stroke-width:1.5;"/>
    </g>
    <g id="line2d_50"/>
    <g id="text_23">
     <!-- BD -->
     <g transform="translate(127 117.676563)scale(0.1 -0.1)">
      <defs>
       <path d="M 19.671875 34.8125 
L 19.671875 8.109375 
L 35.5 8.109375 
Q 43.453125 8.109375 47.28125 11.40625 
Q 51.125 14.703125 51.125 21.484375 
Q 51.125 28.328125 47.28125 31.5625 
Q 43.453125 34.8125 35.5 34.8125 
z
M 19.671875 64.796875 
L 19.671875 42.828125 
L 34.28125 42.828125 
Q 41.5 42.828125 45.03125 45.53125 
Q 48.578125 48.25 48.578125 53.8125 
Q 48.578125 59.328125 45.03125 62.0625 
Q 41.5 64.796875 34.28125 64.796875 
z
M 9.8125 72.90625 
L 35.015625 72.90625 
Q 46.296875 72.90625 52.390625 68.21875 
Q 58.5 63.53125 58.5 54.890625 
Q 58.5 48.1875 55.375 44.234375 
Q 52.25 40.28125 46.1875 39.3125 
Q 53.46875 37.75 57.5 32.78125 
Q 61.53125 27.828125 61.53125 20.40625 
Q 61.53125 10.640625 54.890625 5.3125 
Q 48.25 0 35.984375 0 
L 9.8125 0 
z
" id="DejaVuSans-66"/>
      </defs>
      <use xlink:href="#DejaVuSans-66"/>
      <use x="68.603516" xlink:href="#DejaVuSans-68"/>
     </g>
    </g>
    <g id="line2d_51">
     <path d="M 99 128.854688 
L 119 128.854688 
" style="fill:none;stroke:#2ca02c;stroke-linecap:square;stroke-width:1.5;"/>
    </g>
    <g id="line2d_52"/>
    <g id="text_24">
     <!-- SIR -->
     <g transform="translate(127 132.354688)scale(0.1 -0.1)">
      <defs>
       <path d="M 44.390625 34.1875 
Q 47.5625 33.109375 50.5625 29.59375 
Q 53.5625 26.078125 56.59375 19.921875 
L 66.609375 0 
L 56 0 
L 46.6875 18.703125 
Q 43.0625 26.03125 39.671875 28.421875 
Q 36.28125 30.8125 30.421875 30.8125 
L 19.671875 30.8125 
L 19.671875 0 
L 9.8125 0 
L 9.8125 72.90625 
L 32.078125 72.90625 
Q 44.578125 72.90625 50.734375 67.671875 
Q 56.890625 62.453125 56.890625 51.90625 
Q 56.890625 45.015625 53.6875 40.46875 
Q 50.484375 35.9375 44.390625 34.1875 
z
M 19.671875 64.796875 
L 19.671875 38.921875 
L 32.078125 38.921875 
Q 39.203125 38.921875 42.84375 42.21875 
Q 46.484375 45.515625 46.484375 51.90625 
Q 46.484375 58.296875 42.84375 61.546875 
Q 39.203125 64.796875 32.078125 64.796875 
z
" id="DejaVuSans-82"/>
      </defs>
      <use xlink:href="#DejaVuSans-83"/>
      <use x="63.476562" xlink:href="#DejaVuSans-73"/>
      <use x="92.96875" xlink:href="#DejaVuSans-82"/>
     </g>
    </g>
    <g id="line2d_53">
     <path d="M 99 143.532812 
L 119 143.532812 
" style="fill:none;stroke:#d62728;stroke-linecap:square;stroke-width:1.5;"/>
    </g>
    <g id="line2d_54"/>
    <g id="text_25">
     <!-- eSIR -->
     <g transform="translate(127 147.032812)scale(0.1 -0.1)">
      <use xlink:href="#DejaVuSans-101"/>
      <use x="61.523438" xlink:href="#DejaVuSans-83"/>
      <use x="125" xlink:href="#DejaVuSans-73"/>
      <use x="154.492188" xlink:href="#DejaVuSans-82"/>
     </g>
    </g>
    <g id="line2d_55">
     <path d="M 99 158.210938 
L 119 158.210938 
" style="fill:none;stroke:#9467bd;stroke-linecap:square;stroke-width:1.5;"/>
    </g>
    <g id="line2d_56"/>
    <g id="text_26">
     <!-- SEIR -->
     <g transform="translate(127 161.710938)scale(0.1 -0.1)">
      <defs>
       <path d="M 9.8125 72.90625 
L 55.90625 72.90625 
L 55.90625 64.59375 
L 19.671875 64.59375 
L 19.671875 43.015625 
L 54.390625 43.015625 
L 54.390625 34.71875 
L 19.671875 34.71875 
L 19.671875 8.296875 
L 56.78125 8.296875 
L 56.78125 0 
L 9.8125 0 
z
" id="DejaVuSans-69"/>
      </defs>
      <use xlink:href="#DejaVuSans-83"/>
      <use x="63.476562" xlink:href="#DejaVuSans-69"/>
      <use x="126.660156" xlink:href="#DejaVuSans-73"/>
      <use x="156.152344" xlink:href="#DejaVuSans-82"/>
     </g>
    </g>
    <g id="line2d_57">
     <path d="M 99 172.889063 
L 119 172.889063 
" style="fill:none;stroke:#8c564b;stroke-linecap:square;stroke-width:1.5;"/>
    </g>
    <g id="line2d_58"/>
    <g id="text_27">
     <!-- eSEIR -->
     <g transform="translate(127 176.389063)scale(0.1 -0.1)">
      <use xlink:href="#DejaVuSans-101"/>
      <use x="61.523438" xlink:href="#DejaVuSans-83"/>
      <use x="125" xlink:href="#DejaVuSans-69"/>
      <use x="188.183594" xlink:href="#DejaVuSans-73"/>
      <use x="217.675781" xlink:href="#DejaVuSans-82"/>
     </g>
    </g>
    <g id="line2d_59">
     <path d="M 99 187.567188 
L 119 187.567188 
" style="fill:none;stroke:#e377c2;stroke-linecap:square;stroke-width:1.5;"/>
    </g>
    <g id="line2d_60"/>
    <g id="text_28">
     <!-- SEIUR -->
     <g transform="translate(127 191.067188)scale(0.1 -0.1)">
      <defs>
       <path d="M 8.6875 72.90625 
L 18.609375 72.90625 
L 18.609375 28.609375 
Q 18.609375 16.890625 22.84375 11.734375 
Q 27.09375 6.59375 36.625 6.59375 
Q 46.09375 6.59375 50.34375 11.734375 
Q 54.59375 16.890625 54.59375 28.609375 
L 54.59375 72.90625 
L 64.5 72.90625 
L 64.5 27.390625 
Q 64.5 13.140625 57.4375 5.859375 
Q 50.390625 -1.421875 36.625 -1.421875 
Q 22.796875 -1.421875 15.734375 5.859375 
Q 8.6875 13.140625 8.6875 27.390625 
z
" id="DejaVuSans-85"/>
      </defs>
      <use xlink:href="#DejaVuSans-83"/>
      <use x="63.476562" xlink:href="#DejaVuSans-69"/>
      <use x="126.660156" xlink:href="#DejaVuSans-73"/>
      <use x="156.152344" xlink:href="#DejaVuSans-85"/>
      <use x="229.345703" xlink:href="#DejaVuSans-82"/>
     </g>
    </g>
    <g id="line2d_61">
     <path d="M 99 202.245312 
L 119 202.245312 
" style="fill:none;stroke:#7f7f7f;stroke-linecap:square;stroke-width:1.5;"/>
    </g>
    <g id="line2d_62"/>
    <g id="text_29">
     <!-- eSEIUR -->
     <g transform="translate(127 205.745312)scale(0.1 -0.1)">
      <use xlink:href="#DejaVuSans-101"/>
      <use x="61.523438" xlink:href="#DejaVuSans-83"/>
      <use x="125" xlink:href="#DejaVuSans-69"/>
      <use x="188.183594" xlink:href="#DejaVuSans-73"/>
      <use x="217.675781" xlink:href="#DejaVuSans-85"/>
      <use x="290.869141" xlink:href="#DejaVuSans-82"/>
     </g>
    </g>
    <g id="line2d_63">
     <path d="M 99 216.923437 
L 119 216.923437 
" style="fill:none;stroke:#bcbd22;stroke-linecap:square;stroke-width:1.5;"/>
    </g>
    <g id="line2d_64"/>
    <g id="text_30">
     <!-- eSEIUR$^{range}$ -->
     <g transform="translate(127 220.423437)scale(0.1 -0.1)">
      <defs>
       <path d="M 44.578125 46.390625 
Q 43.21875 47.125 41.453125 47.515625 
Q 39.703125 47.90625 37.703125 47.90625 
Q 30.515625 47.90625 25.140625 42.453125 
Q 19.78125 37.015625 18.015625 27.875 
L 12.5 0 
L 3.515625 0 
L 14.203125 54.6875 
L 23.1875 54.6875 
L 21.484375 46.1875 
Q 25.046875 50.921875 30 53.453125 
Q 34.96875 56 40.578125 56 
Q 42.046875 56 43.453125 55.828125 
Q 44.875 55.671875 46.296875 55.28125 
z
" id="DejaVuSans-Oblique-114"/>
       <path d="M 53.71875 31.203125 
L 47.609375 0 
L 38.625 0 
L 40.28125 8.296875 
Q 36.328125 3.421875 31.265625 1 
Q 26.21875 -1.421875 20.015625 -1.421875 
Q 13.03125 -1.421875 8.5625 2.84375 
Q 4.109375 7.125 4.109375 13.8125 
Q 4.109375 23.390625 11.75 28.953125 
Q 19.390625 34.515625 32.8125 34.515625 
L 45.3125 34.515625 
L 45.796875 36.921875 
Q 45.90625 37.3125 45.953125 37.765625 
Q 46 38.234375 46 39.203125 
Q 46 43.5625 42.453125 45.96875 
Q 38.921875 48.390625 32.515625 48.390625 
Q 28.125 48.390625 23.5 47.265625 
Q 18.890625 46.140625 14.015625 43.890625 
L 15.578125 52.203125 
Q 20.65625 54.109375 25.515625 55.046875 
Q 30.375 56 34.90625 56 
Q 44.578125 56 49.625 51.796875 
Q 54.6875 47.609375 54.6875 39.59375 
Q 54.6875 37.984375 54.4375 35.8125 
Q 54.203125 33.640625 53.71875 31.203125 
z
M 44 27.484375 
L 35.015625 27.484375 
Q 23.96875 27.484375 18.671875 24.53125 
Q 13.375 21.578125 13.375 15.375 
Q 13.375 11.078125 16.078125 8.640625 
Q 18.796875 6.203125 23.578125 6.203125 
Q 30.90625 6.203125 36.375 11.453125 
Q 41.84375 16.703125 43.609375 25.484375 
z
" id="DejaVuSans-Oblique-97"/>
       <path d="M 55.71875 33.015625 
L 49.3125 0 
L 40.28125 0 
L 46.6875 32.671875 
Q 47.125 34.96875 47.359375 36.71875 
Q 47.609375 38.484375 47.609375 39.5 
Q 47.609375 43.609375 45.015625 45.890625 
Q 42.4375 48.1875 37.796875 48.1875 
Q 30.5625 48.1875 25.34375 43.375 
Q 20.125 38.578125 18.5 30.328125 
L 12.5 0 
L 3.515625 0 
L 14.109375 54.6875 
L 23.09375 54.6875 
L 21.296875 46.09375 
Q 25.046875 50.828125 30.3125 53.40625 
Q 35.59375 56 41.40625 56 
Q 48.640625 56 52.609375 52.09375 
Q 56.59375 48.1875 56.59375 41.109375 
Q 56.59375 39.359375 56.375 37.359375 
Q 56.15625 35.359375 55.71875 33.015625 
z
" id="DejaVuSans-Oblique-110"/>
       <path d="M 59.625 54.6875 
L 50.296875 6.78125 
Q 47.609375 -7.125 40.015625 -13.953125 
Q 32.421875 -20.796875 19.578125 -20.796875 
Q 14.84375 -20.796875 10.78125 -20.09375 
Q 6.734375 -19.390625 3.21875 -17.921875 
L 4.890625 -9.1875 
Q 8.203125 -11.328125 11.90625 -12.34375 
Q 15.625 -13.375 19.828125 -13.375 
Q 28.375 -13.375 33.859375 -8.703125 
Q 39.359375 -4.046875 41.109375 4.6875 
L 41.890625 8.796875 
Q 38.140625 4.5 33.15625 2.25 
Q 28.171875 0 22.40625 0 
Q 14.109375 0 9.34375 5.484375 
Q 4.59375 10.984375 4.59375 20.609375 
Q 4.59375 28.171875 7.46875 35.421875 
Q 10.359375 42.671875 15.578125 48.296875 
Q 19.046875 52 23.65625 54 
Q 28.265625 56 33.296875 56 
Q 38.8125 56 42.90625 53.4375 
Q 47.015625 50.875 49.03125 46.1875 
L 50.59375 54.6875 
z
M 46.09375 34.625 
Q 46.09375 41.265625 42.96875 44.875 
Q 39.84375 48.484375 34.078125 48.484375 
Q 30.515625 48.484375 27.296875 47.0625 
Q 24.078125 45.65625 21.78125 43.109375 
Q 18.0625 38.921875 15.984375 33.234375 
Q 13.921875 27.546875 13.921875 21.484375 
Q 13.921875 14.75 17.0625 11.125 
Q 20.21875 7.515625 26.125 7.515625 
Q 34.671875 7.515625 40.375 15.25 
Q 46.09375 23 46.09375 34.625 
z
" id="DejaVuSans-Oblique-103"/>
       <path d="M 48.09375 32.234375 
Q 48.25 33.015625 48.3125 33.84375 
Q 48.390625 34.671875 48.390625 35.5 
Q 48.390625 41.453125 44.890625 44.921875 
Q 41.40625 48.390625 35.40625 48.390625 
Q 28.71875 48.390625 23.578125 44.15625 
Q 18.453125 39.9375 15.828125 32.171875 
z
M 55.90625 25.203125 
L 14.109375 25.203125 
Q 13.8125 23.34375 13.71875 22.265625 
Q 13.625 21.1875 13.625 20.40625 
Q 13.625 13.625 17.796875 9.90625 
Q 21.96875 6.203125 29.59375 6.203125 
Q 35.453125 6.203125 40.671875 7.515625 
Q 45.90625 8.84375 50.390625 11.375 
L 48.6875 2.484375 
Q 43.84375 0.53125 38.6875 -0.4375 
Q 33.546875 -1.421875 28.21875 -1.421875 
Q 16.84375 -1.421875 10.71875 4.015625 
Q 4.59375 9.46875 4.59375 19.484375 
Q 4.59375 28.03125 7.640625 35.375 
Q 10.6875 42.71875 16.609375 48.484375 
Q 20.40625 52.09375 25.65625 54.046875 
Q 30.90625 56 36.8125 56 
Q 46.09375 56 51.578125 50.4375 
Q 57.078125 44.875 57.078125 35.5 
Q 57.078125 33.25 56.78125 30.6875 
Q 56.5 28.125 55.90625 25.203125 
z
" id="DejaVuSans-Oblique-101"/>
      </defs>
      <use transform="translate(0 0.51875)" xlink:href="#DejaVuSans-101"/>
      <use transform="translate(61.523438 0.51875)" xlink:href="#DejaVuSans-83"/>
      <use transform="translate(125 0.51875)" xlink:href="#DejaVuSans-69"/>
      <use transform="translate(188.183594 0.51875)" xlink:href="#DejaVuSans-73"/>
      <use transform="translate(217.675781 0.51875)" xlink:href="#DejaVuSans-85"/>
      <use transform="translate(288.619141 0.51875)" xlink:href="#DejaVuSans-82"/>
      <use transform="translate(359.058594 38.8)scale(0.7)" xlink:href="#DejaVuSans-Oblique-114"/>
      <use transform="translate(387.837891 38.8)scale(0.7)" xlink:href="#DejaVuSans-Oblique-97"/>
      <use transform="translate(430.733398 38.8)scale(0.7)" xlink:href="#DejaVuSans-Oblique-110"/>
      <use transform="translate(475.098633 38.8)scale(0.7)" xlink:href="#DejaVuSans-Oblique-103"/>
      <use transform="translate(519.532227 38.8)scale(0.7)" xlink:href="#DejaVuSans-Oblique-101"/>
     </g>
    </g>
   </g>
  </g>
 </g>
 <defs>
  <clipPath id="pc660c88c07">
   <rect height="543.6" width="558" x="90" y="86.4"/>
  </clipPath>
 </defs>
</svg>
