<?xml version="1.0" encoding="utf-8" standalone="no"?>
<!DOCTYPE svg PUBLIC "-//W3C//DTD SVG 1.1//EN"
  "http://www.w3.org/Graphics/SVG/1.1/DTD/svg11.dtd">
<!-- Created with matplotlib (https://matplotlib.org/) -->
<svg height="720pt" version="1.1" viewBox="0 0 720 720" width="720pt" xmlns="http://www.w3.org/2000/svg" xmlns:xlink="http://www.w3.org/1999/xlink">
 <metadata>
  <rdf:RDF xmlns:cc="http://creativecommons.org/ns#" xmlns:dc="http://purl.org/dc/elements/1.1/" xmlns:rdf="http://www.w3.org/1999/02/22-rdf-syntax-ns#">
   <cc:Work>
    <dc:type rdf:resource="http://purl.org/dc/dcmitype/StillImage"/>
    <dc:date>2022-07-13T18:54:12.495966</dc:date>
    <dc:format>image/svg+xml</dc:format>
    <dc:creator>
     <cc:Agent>
      <dc:title>Matplotlib v3.3.2, https://matplotlib.org/</dc:title>
     </cc:Agent>
    </dc:creator>
   </cc:Work>
  </rdf:RDF>
 </metadata>
 <defs>
  <style type="text/css">*{stroke-linecap:butt;stroke-linejoin:round;}</style>
 </defs>
 <g id="figure_1">
  <g id="patch_1">
   <path d="M 0 720 
L 720 720 
L 720 0 
L 0 0 
z
" style="fill:none;"/>
  </g>
  <g id="axes_1">
   <g id="patch_2">
    <path d="M 90 630 
L 648 630 
L 648 86.4 
L 90 86.4 
z
" style="fill:#ffffff;"/>
   </g>
   <g id="matplotlib.axis_1">
    <g id="xtick_1">
     <g id="line2d_1">
      <path clip-path="url(#pcddd51e90e)" d="M 115.363636 630 
L 115.363636 86.4 
" style="fill:none;stroke:#b0b0b0;stroke-linecap:square;stroke-width:0.8;"/>
     </g>
     <g id="line2d_2">
      <defs>
       <path d="M 0 0 
L 0 3.5 
" id="m1e7926f8ad" style="stroke:#000000;stroke-width:0.8;"/>
      </defs>
      <g>
       <use style="stroke:#000000;stroke-width:0.8;" x="115.363636" xlink:href="#m1e7926f8ad" y="630"/>
      </g>
     </g>
     <g id="text_1">
      <!-- 0 -->
      <g transform="translate(112.182386 644.598438)scale(0.1 -0.1)">
       <defs>
        <path d="M 31.78125 66.40625 
Q 24.171875 66.40625 20.328125 58.90625 
Q 16.5 51.421875 16.5 36.375 
Q 16.5 21.390625 20.328125 13.890625 
Q 24.171875 6.390625 31.78125 6.390625 
Q 39.453125 6.390625 43.28125 13.890625 
Q 47.125 21.390625 47.125 36.375 
Q 47.125 51.421875 43.28125 58.90625 
Q 39.453125 66.40625 31.78125 66.40625 
z
M 31.78125 74.21875 
Q 44.046875 74.21875 50.515625 64.515625 
Q 56.984375 54.828125 56.984375 36.375 
Q 56.984375 17.96875 50.515625 8.265625 
Q 44.046875 -1.421875 31.78125 -1.421875 
Q 19.53125 -1.421875 13.0625 8.265625 
Q 6.59375 17.96875 6.59375 36.375 
Q 6.59375 54.828125 13.0625 64.515625 
Q 19.53125 74.21875 31.78125 74.21875 
z
" id="DejaVuSans-48"/>
       </defs>
       <use xlink:href="#DejaVuSans-48"/>
      </g>
     </g>
    </g>
    <g id="xtick_2">
     <g id="line2d_3">
      <path clip-path="url(#pcddd51e90e)" d="M 183 630 
L 183 86.4 
" style="fill:none;stroke:#b0b0b0;stroke-linecap:square;stroke-width:0.8;"/>
     </g>
     <g id="line2d_4">
      <g>
       <use style="stroke:#000000;stroke-width:0.8;" x="183" xlink:href="#m1e7926f8ad" y="630"/>
      </g>
     </g>
     <g id="text_2">
      <!-- 10 -->
      <g transform="translate(176.6375 644.598438)scale(0.1 -0.1)">
       <defs>
        <path d="M 12.40625 8.296875 
L 28.515625 8.296875 
L 28.515625 63.921875 
L 10.984375 60.40625 
L 10.984375 69.390625 
L 28.421875 72.90625 
L 38.28125 72.90625 
L 38.28125 8.296875 
L 54.390625 8.296875 
L 54.390625 0 
L 12.40625 0 
z
" id="DejaVuSans-49"/>
       </defs>
       <use xlink:href="#DejaVuSans-49"/>
       <use x="63.623047" xlink:href="#DejaVuSans-48"/>
      </g>
     </g>
    </g>
    <g id="xtick_3">
     <g id="line2d_5">
      <path clip-path="url(#pcddd51e90e)" d="M 250.636364 630 
L 250.636364 86.4 
" style="fill:none;stroke:#b0b0b0;stroke-linecap:square;stroke-width:0.8;"/>
     </g>
     <g id="line2d_6">
      <g>
       <use style="stroke:#000000;stroke-width:0.8;" x="250.636364" xlink:href="#m1e7926f8ad" y="630"/>
      </g>
     </g>
     <g id="text_3">
      <!-- 20 -->
      <g transform="translate(244.273864 644.598438)scale(0.1 -0.1)">
       <defs>
        <path d="M 19.1875 8.296875 
L 53.609375 8.296875 
L 53.609375 0 
L 7.328125 0 
L 7.328125 8.296875 
Q 12.9375 14.109375 22.625 23.890625 
Q 32.328125 33.6875 34.8125 36.53125 
Q 39.546875 41.84375 41.421875 45.53125 
Q 43.3125 49.21875 43.3125 52.78125 
Q 43.3125 58.59375 39.234375 62.25 
Q 35.15625 65.921875 28.609375 65.921875 
Q 23.96875 65.921875 18.8125 64.3125 
Q 13.671875 62.703125 7.8125 59.421875 
L 7.8125 69.390625 
Q 13.765625 71.78125 18.9375 73 
Q 24.125 74.21875 28.421875 74.21875 
Q 39.75 74.21875 46.484375 68.546875 
Q 53.21875 62.890625 53.21875 53.421875 
Q 53.21875 48.921875 51.53125 44.890625 
Q 49.859375 40.875 45.40625 35.40625 
Q 44.1875 33.984375 37.640625 27.21875 
Q 31.109375 20.453125 19.1875 8.296875 
z
" id="DejaVuSans-50"/>
       </defs>
       <use xlink:href="#DejaVuSans-50"/>
       <use x="63.623047" xlink:href="#DejaVuSans-48"/>
      </g>
     </g>
    </g>
    <g id="xtick_4">
     <g id="line2d_7">
      <path clip-path="url(#pcddd51e90e)" d="M 318.272727 630 
L 318.272727 86.4 
" style="fill:none;stroke:#b0b0b0;stroke-linecap:square;stroke-width:0.8;"/>
     </g>
     <g id="line2d_8">
      <g>
       <use style="stroke:#000000;stroke-width:0.8;" x="318.272727" xlink:href="#m1e7926f8ad" y="630"/>
      </g>
     </g>
     <g id="text_4">
      <!-- 30 -->
      <g transform="translate(311.910227 644.598438)scale(0.1 -0.1)">
       <defs>
        <path d="M 40.578125 39.3125 
Q 47.65625 37.796875 51.625 33 
Q 55.609375 28.21875 55.609375 21.1875 
Q 55.609375 10.40625 48.1875 4.484375 
Q 40.765625 -1.421875 27.09375 -1.421875 
Q 22.515625 -1.421875 17.65625 -0.515625 
Q 12.796875 0.390625 7.625 2.203125 
L 7.625 11.71875 
Q 11.71875 9.328125 16.59375 8.109375 
Q 21.484375 6.890625 26.8125 6.890625 
Q 36.078125 6.890625 40.9375 10.546875 
Q 45.796875 14.203125 45.796875 21.1875 
Q 45.796875 27.640625 41.28125 31.265625 
Q 36.765625 34.90625 28.71875 34.90625 
L 20.21875 34.90625 
L 20.21875 43.015625 
L 29.109375 43.015625 
Q 36.375 43.015625 40.234375 45.921875 
Q 44.09375 48.828125 44.09375 54.296875 
Q 44.09375 59.90625 40.109375 62.90625 
Q 36.140625 65.921875 28.71875 65.921875 
Q 24.65625 65.921875 20.015625 65.03125 
Q 15.375 64.15625 9.8125 62.3125 
L 9.8125 71.09375 
Q 15.4375 72.65625 20.34375 73.4375 
Q 25.25 74.21875 29.59375 74.21875 
Q 40.828125 74.21875 47.359375 69.109375 
Q 53.90625 64.015625 53.90625 55.328125 
Q 53.90625 49.265625 50.4375 45.09375 
Q 46.96875 40.921875 40.578125 39.3125 
z
" id="DejaVuSans-51"/>
       </defs>
       <use xlink:href="#DejaVuSans-51"/>
       <use x="63.623047" xlink:href="#DejaVuSans-48"/>
      </g>
     </g>
    </g>
    <g id="xtick_5">
     <g id="line2d_9">
      <path clip-path="url(#pcddd51e90e)" d="M 385.909091 630 
L 385.909091 86.4 
" style="fill:none;stroke:#b0b0b0;stroke-linecap:square;stroke-width:0.8;"/>
     </g>
     <g id="line2d_10">
      <g>
       <use style="stroke:#000000;stroke-width:0.8;" x="385.909091" xlink:href="#m1e7926f8ad" y="630"/>
      </g>
     </g>
     <g id="text_5">
      <!-- 40 -->
      <g transform="translate(379.546591 644.598438)scale(0.1 -0.1)">
       <defs>
        <path d="M 37.796875 64.3125 
L 12.890625 25.390625 
L 37.796875 25.390625 
z
M 35.203125 72.90625 
L 47.609375 72.90625 
L 47.609375 25.390625 
L 58.015625 25.390625 
L 58.015625 17.1875 
L 47.609375 17.1875 
L 47.609375 0 
L 37.796875 0 
L 37.796875 17.1875 
L 4.890625 17.1875 
L 4.890625 26.703125 
z
" id="DejaVuSans-52"/>
       </defs>
       <use xlink:href="#DejaVuSans-52"/>
       <use x="63.623047" xlink:href="#DejaVuSans-48"/>
      </g>
     </g>
    </g>
    <g id="xtick_6">
     <g id="line2d_11">
      <path clip-path="url(#pcddd51e90e)" d="M 453.545455 630 
L 453.545455 86.4 
" style="fill:none;stroke:#b0b0b0;stroke-linecap:square;stroke-width:0.8;"/>
     </g>
     <g id="line2d_12">
      <g>
       <use style="stroke:#000000;stroke-width:0.8;" x="453.545455" xlink:href="#m1e7926f8ad" y="630"/>
      </g>
     </g>
     <g id="text_6">
      <!-- 50 -->
      <g transform="translate(447.182955 644.598438)scale(0.1 -0.1)">
       <defs>
        <path d="M 10.796875 72.90625 
L 49.515625 72.90625 
L 49.515625 64.59375 
L 19.828125 64.59375 
L 19.828125 46.734375 
Q 21.96875 47.46875 24.109375 47.828125 
Q 26.265625 48.1875 28.421875 48.1875 
Q 40.625 48.1875 47.75 41.5 
Q 54.890625 34.8125 54.890625 23.390625 
Q 54.890625 11.625 47.5625 5.09375 
Q 40.234375 -1.421875 26.90625 -1.421875 
Q 22.3125 -1.421875 17.546875 -0.640625 
Q 12.796875 0.140625 7.71875 1.703125 
L 7.71875 11.625 
Q 12.109375 9.234375 16.796875 8.0625 
Q 21.484375 6.890625 26.703125 6.890625 
Q 35.15625 6.890625 40.078125 11.328125 
Q 45.015625 15.765625 45.015625 23.390625 
Q 45.015625 31 40.078125 35.4375 
Q 35.15625 39.890625 26.703125 39.890625 
Q 22.75 39.890625 18.8125 39.015625 
Q 14.890625 38.140625 10.796875 36.28125 
z
" id="DejaVuSans-53"/>
       </defs>
       <use xlink:href="#DejaVuSans-53"/>
       <use x="63.623047" xlink:href="#DejaVuSans-48"/>
      </g>
     </g>
    </g>
    <g id="xtick_7">
     <g id="line2d_13">
      <path clip-path="url(#pcddd51e90e)" d="M 521.181818 630 
L 521.181818 86.4 
" style="fill:none;stroke:#b0b0b0;stroke-linecap:square;stroke-width:0.8;"/>
     </g>
     <g id="line2d_14">
      <g>
       <use style="stroke:#000000;stroke-width:0.8;" x="521.181818" xlink:href="#m1e7926f8ad" y="630"/>
      </g>
     </g>
     <g id="text_7">
      <!-- 60 -->
      <g transform="translate(514.819318 644.598438)scale(0.1 -0.1)">
       <defs>
        <path d="M 33.015625 40.375 
Q 26.375 40.375 22.484375 35.828125 
Q 18.609375 31.296875 18.609375 23.390625 
Q 18.609375 15.53125 22.484375 10.953125 
Q 26.375 6.390625 33.015625 6.390625 
Q 39.65625 6.390625 43.53125 10.953125 
Q 47.40625 15.53125 47.40625 23.390625 
Q 47.40625 31.296875 43.53125 35.828125 
Q 39.65625 40.375 33.015625 40.375 
z
M 52.59375 71.296875 
L 52.59375 62.3125 
Q 48.875 64.0625 45.09375 64.984375 
Q 41.3125 65.921875 37.59375 65.921875 
Q 27.828125 65.921875 22.671875 59.328125 
Q 17.53125 52.734375 16.796875 39.40625 
Q 19.671875 43.65625 24.015625 45.921875 
Q 28.375 48.1875 33.59375 48.1875 
Q 44.578125 48.1875 50.953125 41.515625 
Q 57.328125 34.859375 57.328125 23.390625 
Q 57.328125 12.15625 50.6875 5.359375 
Q 44.046875 -1.421875 33.015625 -1.421875 
Q 20.359375 -1.421875 13.671875 8.265625 
Q 6.984375 17.96875 6.984375 36.375 
Q 6.984375 53.65625 15.1875 63.9375 
Q 23.390625 74.21875 37.203125 74.21875 
Q 40.921875 74.21875 44.703125 73.484375 
Q 48.484375 72.75 52.59375 71.296875 
z
" id="DejaVuSans-54"/>
       </defs>
       <use xlink:href="#DejaVuSans-54"/>
       <use x="63.623047" xlink:href="#DejaVuSans-48"/>
      </g>
     </g>
    </g>
    <g id="xtick_8">
     <g id="line2d_15">
      <path clip-path="url(#pcddd51e90e)" d="M 588.818182 630 
L 588.818182 86.4 
" style="fill:none;stroke:#b0b0b0;stroke-linecap:square;stroke-width:0.8;"/>
     </g>
     <g id="line2d_16">
      <g>
       <use style="stroke:#000000;stroke-width:0.8;" x="588.818182" xlink:href="#m1e7926f8ad" y="630"/>
      </g>
     </g>
     <g id="text_8">
      <!-- 70 -->
      <g transform="translate(582.455682 644.598438)scale(0.1 -0.1)">
       <defs>
        <path d="M 8.203125 72.90625 
L 55.078125 72.90625 
L 55.078125 68.703125 
L 28.609375 0 
L 18.3125 0 
L 43.21875 64.59375 
L 8.203125 64.59375 
z
" id="DejaVuSans-55"/>
       </defs>
       <use xlink:href="#DejaVuSans-55"/>
       <use x="63.623047" xlink:href="#DejaVuSans-48"/>
      </g>
     </g>
    </g>
    <g id="text_9">
     <!-- Days -->
     <g transform="translate(356.521875 658.276562)scale(0.1 -0.1)">
      <defs>
       <path d="M 19.671875 64.796875 
L 19.671875 8.109375 
L 31.59375 8.109375 
Q 46.6875 8.109375 53.6875 14.9375 
Q 60.6875 21.78125 60.6875 36.53125 
Q 60.6875 51.171875 53.6875 57.984375 
Q 46.6875 64.796875 31.59375 64.796875 
z
M 9.8125 72.90625 
L 30.078125 72.90625 
Q 51.265625 72.90625 61.171875 64.09375 
Q 71.09375 55.28125 71.09375 36.53125 
Q 71.09375 17.671875 61.125 8.828125 
Q 51.171875 0 30.078125 0 
L 9.8125 0 
z
" id="DejaVuSans-68"/>
       <path d="M 34.28125 27.484375 
Q 23.390625 27.484375 19.1875 25 
Q 14.984375 22.515625 14.984375 16.5 
Q 14.984375 11.71875 18.140625 8.90625 
Q 21.296875 6.109375 26.703125 6.109375 
Q 34.1875 6.109375 38.703125 11.40625 
Q 43.21875 16.703125 43.21875 25.484375 
L 43.21875 27.484375 
z
M 52.203125 31.203125 
L 52.203125 0 
L 43.21875 0 
L 43.21875 8.296875 
Q 40.140625 3.328125 35.546875 0.953125 
Q 30.953125 -1.421875 24.3125 -1.421875 
Q 15.921875 -1.421875 10.953125 3.296875 
Q 6 8.015625 6 15.921875 
Q 6 25.140625 12.171875 29.828125 
Q 18.359375 34.515625 30.609375 34.515625 
L 43.21875 34.515625 
L 43.21875 35.40625 
Q 43.21875 41.609375 39.140625 45 
Q 35.0625 48.390625 27.6875 48.390625 
Q 23 48.390625 18.546875 47.265625 
Q 14.109375 46.140625 10.015625 43.890625 
L 10.015625 52.203125 
Q 14.9375 54.109375 19.578125 55.046875 
Q 24.21875 56 28.609375 56 
Q 40.484375 56 46.34375 49.84375 
Q 52.203125 43.703125 52.203125 31.203125 
z
" id="DejaVuSans-97"/>
       <path d="M 32.171875 -5.078125 
Q 28.375 -14.84375 24.75 -17.8125 
Q 21.140625 -20.796875 15.09375 -20.796875 
L 7.90625 -20.796875 
L 7.90625 -13.28125 
L 13.1875 -13.28125 
Q 16.890625 -13.28125 18.9375 -11.515625 
Q 21 -9.765625 23.484375 -3.21875 
L 25.09375 0.875 
L 2.984375 54.6875 
L 12.5 54.6875 
L 29.59375 11.921875 
L 46.6875 54.6875 
L 56.203125 54.6875 
z
" id="DejaVuSans-121"/>
       <path d="M 44.28125 53.078125 
L 44.28125 44.578125 
Q 40.484375 46.53125 36.375 47.5 
Q 32.28125 48.484375 27.875 48.484375 
Q 21.1875 48.484375 17.84375 46.4375 
Q 14.5 44.390625 14.5 40.28125 
Q 14.5 37.15625 16.890625 35.375 
Q 19.28125 33.59375 26.515625 31.984375 
L 29.59375 31.296875 
Q 39.15625 29.25 43.1875 25.515625 
Q 47.21875 21.78125 47.21875 15.09375 
Q 47.21875 7.46875 41.1875 3.015625 
Q 35.15625 -1.421875 24.609375 -1.421875 
Q 20.21875 -1.421875 15.453125 -0.5625 
Q 10.6875 0.296875 5.421875 2 
L 5.421875 11.28125 
Q 10.40625 8.6875 15.234375 7.390625 
Q 20.0625 6.109375 24.8125 6.109375 
Q 31.15625 6.109375 34.5625 8.28125 
Q 37.984375 10.453125 37.984375 14.40625 
Q 37.984375 18.0625 35.515625 20.015625 
Q 33.0625 21.96875 24.703125 23.78125 
L 21.578125 24.515625 
Q 13.234375 26.265625 9.515625 29.90625 
Q 5.8125 33.546875 5.8125 39.890625 
Q 5.8125 47.609375 11.28125 51.796875 
Q 16.75 56 26.8125 56 
Q 31.78125 56 36.171875 55.265625 
Q 40.578125 54.546875 44.28125 53.078125 
z
" id="DejaVuSans-115"/>
      </defs>
      <use xlink:href="#DejaVuSans-68"/>
      <use x="77.001953" xlink:href="#DejaVuSans-97"/>
      <use x="138.28125" xlink:href="#DejaVuSans-121"/>
      <use x="197.460938" xlink:href="#DejaVuSans-115"/>
     </g>
    </g>
   </g>
   <g id="matplotlib.axis_2">
    <g id="ytick_1">
     <g id="line2d_17">
      <path clip-path="url(#pcddd51e90e)" d="M 90 610.635025 
L 648 610.635025 
" style="fill:none;stroke:#b0b0b0;stroke-linecap:square;stroke-width:0.8;"/>
     </g>
     <g id="line2d_18">
      <defs>
       <path d="M 0 0 
L -3.5 0 
" id="mdd7d3eef31" style="stroke:#000000;stroke-width:0.8;"/>
      </defs>
      <g>
       <use style="stroke:#000000;stroke-width:0.8;" x="90" xlink:href="#mdd7d3eef31" y="610.635025"/>
      </g>
     </g>
     <g id="text_10">
      <!-- 0 -->
      <g transform="translate(76.6375 614.434244)scale(0.1 -0.1)">
       <use xlink:href="#DejaVuSans-48"/>
      </g>
     </g>
    </g>
    <g id="ytick_2">
     <g id="line2d_19">
      <path clip-path="url(#pcddd51e90e)" d="M 90 543.833573 
L 648 543.833573 
" style="fill:none;stroke:#b0b0b0;stroke-linecap:square;stroke-width:0.8;"/>
     </g>
     <g id="line2d_20">
      <g>
       <use style="stroke:#000000;stroke-width:0.8;" x="90" xlink:href="#mdd7d3eef31" y="543.833573"/>
      </g>
     </g>
     <g id="text_11">
      <!-- 200 -->
      <g transform="translate(63.9125 547.632792)scale(0.1 -0.1)">
       <use xlink:href="#DejaVuSans-50"/>
       <use x="63.623047" xlink:href="#DejaVuSans-48"/>
       <use x="127.246094" xlink:href="#DejaVuSans-48"/>
      </g>
     </g>
    </g>
    <g id="ytick_3">
     <g id="line2d_21">
      <path clip-path="url(#pcddd51e90e)" d="M 90 477.03212 
L 648 477.03212 
" style="fill:none;stroke:#b0b0b0;stroke-linecap:square;stroke-width:0.8;"/>
     </g>
     <g id="line2d_22">
      <g>
       <use style="stroke:#000000;stroke-width:0.8;" x="90" xlink:href="#mdd7d3eef31" y="477.03212"/>
      </g>
     </g>
     <g id="text_12">
      <!-- 400 -->
      <g transform="translate(63.9125 480.831339)scale(0.1 -0.1)">
       <use xlink:href="#DejaVuSans-52"/>
       <use x="63.623047" xlink:href="#DejaVuSans-48"/>
       <use x="127.246094" xlink:href="#DejaVuSans-48"/>
      </g>
     </g>
    </g>
    <g id="ytick_4">
     <g id="line2d_23">
      <path clip-path="url(#pcddd51e90e)" d="M 90 410.230668 
L 648 410.230668 
" style="fill:none;stroke:#b0b0b0;stroke-linecap:square;stroke-width:0.8;"/>
     </g>
     <g id="line2d_24">
      <g>
       <use style="stroke:#000000;stroke-width:0.8;" x="90" xlink:href="#mdd7d3eef31" y="410.230668"/>
      </g>
     </g>
     <g id="text_13">
      <!-- 600 -->
      <g transform="translate(63.9125 414.029887)scale(0.1 -0.1)">
       <use xlink:href="#DejaVuSans-54"/>
       <use x="63.623047" xlink:href="#DejaVuSans-48"/>
       <use x="127.246094" xlink:href="#DejaVuSans-48"/>
      </g>
     </g>
    </g>
    <g id="ytick_5">
     <g id="line2d_25">
      <path clip-path="url(#pcddd51e90e)" d="M 90 343.429216 
L 648 343.429216 
" style="fill:none;stroke:#b0b0b0;stroke-linecap:square;stroke-width:0.8;"/>
     </g>
     <g id="line2d_26">
      <g>
       <use style="stroke:#000000;stroke-width:0.8;" x="90" xlink:href="#mdd7d3eef31" y="343.429216"/>
      </g>
     </g>
     <g id="text_14">
      <!-- 800 -->
      <g transform="translate(63.9125 347.228434)scale(0.1 -0.1)">
       <defs>
        <path d="M 31.78125 34.625 
Q 24.75 34.625 20.71875 30.859375 
Q 16.703125 27.09375 16.703125 20.515625 
Q 16.703125 13.921875 20.71875 10.15625 
Q 24.75 6.390625 31.78125 6.390625 
Q 38.8125 6.390625 42.859375 10.171875 
Q 46.921875 13.96875 46.921875 20.515625 
Q 46.921875 27.09375 42.890625 30.859375 
Q 38.875 34.625 31.78125 34.625 
z
M 21.921875 38.8125 
Q 15.578125 40.375 12.03125 44.71875 
Q 8.5 49.078125 8.5 55.328125 
Q 8.5 64.0625 14.71875 69.140625 
Q 20.953125 74.21875 31.78125 74.21875 
Q 42.671875 74.21875 48.875 69.140625 
Q 55.078125 64.0625 55.078125 55.328125 
Q 55.078125 49.078125 51.53125 44.71875 
Q 48 40.375 41.703125 38.8125 
Q 48.828125 37.15625 52.796875 32.3125 
Q 56.78125 27.484375 56.78125 20.515625 
Q 56.78125 9.90625 50.3125 4.234375 
Q 43.84375 -1.421875 31.78125 -1.421875 
Q 19.734375 -1.421875 13.25 4.234375 
Q 6.78125 9.90625 6.78125 20.515625 
Q 6.78125 27.484375 10.78125 32.3125 
Q 14.796875 37.15625 21.921875 38.8125 
z
M 18.3125 54.390625 
Q 18.3125 48.734375 21.84375 45.5625 
Q 25.390625 42.390625 31.78125 42.390625 
Q 38.140625 42.390625 41.71875 45.5625 
Q 45.3125 48.734375 45.3125 54.390625 
Q 45.3125 60.0625 41.71875 63.234375 
Q 38.140625 66.40625 31.78125 66.40625 
Q 25.390625 66.40625 21.84375 63.234375 
Q 18.3125 60.0625 18.3125 54.390625 
z
" id="DejaVuSans-56"/>
       </defs>
       <use xlink:href="#DejaVuSans-56"/>
       <use x="63.623047" xlink:href="#DejaVuSans-48"/>
       <use x="127.246094" xlink:href="#DejaVuSans-48"/>
      </g>
     </g>
    </g>
    <g id="ytick_6">
     <g id="line2d_27">
      <path clip-path="url(#pcddd51e90e)" d="M 90 276.627763 
L 648 276.627763 
" style="fill:none;stroke:#b0b0b0;stroke-linecap:square;stroke-width:0.8;"/>
     </g>
     <g id="line2d_28">
      <g>
       <use style="stroke:#000000;stroke-width:0.8;" x="90" xlink:href="#mdd7d3eef31" y="276.627763"/>
      </g>
     </g>
     <g id="text_15">
      <!-- 1000 -->
      <g transform="translate(57.55 280.426982)scale(0.1 -0.1)">
       <use xlink:href="#DejaVuSans-49"/>
       <use x="63.623047" xlink:href="#DejaVuSans-48"/>
       <use x="127.246094" xlink:href="#DejaVuSans-48"/>
       <use x="190.869141" xlink:href="#DejaVuSans-48"/>
      </g>
     </g>
    </g>
    <g id="ytick_7">
     <g id="line2d_29">
      <path clip-path="url(#pcddd51e90e)" d="M 90 209.826311 
L 648 209.826311 
" style="fill:none;stroke:#b0b0b0;stroke-linecap:square;stroke-width:0.8;"/>
     </g>
     <g id="line2d_30">
      <g>
       <use style="stroke:#000000;stroke-width:0.8;" x="90" xlink:href="#mdd7d3eef31" y="209.826311"/>
      </g>
     </g>
     <g id="text_16">
      <!-- 1200 -->
      <g transform="translate(57.55 213.62553)scale(0.1 -0.1)">
       <use xlink:href="#DejaVuSans-49"/>
       <use x="63.623047" xlink:href="#DejaVuSans-50"/>
       <use x="127.246094" xlink:href="#DejaVuSans-48"/>
       <use x="190.869141" xlink:href="#DejaVuSans-48"/>
      </g>
     </g>
    </g>
    <g id="ytick_8">
     <g id="line2d_31">
      <path clip-path="url(#pcddd51e90e)" d="M 90 143.024858 
L 648 143.024858 
" style="fill:none;stroke:#b0b0b0;stroke-linecap:square;stroke-width:0.8;"/>
     </g>
     <g id="line2d_32">
      <g>
       <use style="stroke:#000000;stroke-width:0.8;" x="90" xlink:href="#mdd7d3eef31" y="143.024858"/>
      </g>
     </g>
     <g id="text_17">
      <!-- 1400 -->
      <g transform="translate(57.55 146.824077)scale(0.1 -0.1)">
       <use xlink:href="#DejaVuSans-49"/>
       <use x="63.623047" xlink:href="#DejaVuSans-52"/>
       <use x="127.246094" xlink:href="#DejaVuSans-48"/>
       <use x="190.869141" xlink:href="#DejaVuSans-48"/>
      </g>
     </g>
    </g>
    <g id="text_18">
     <!-- Cumulative cases -->
     <g transform="translate(51.470312 402.425781)rotate(-90)scale(0.1 -0.1)">
      <defs>
       <path d="M 64.40625 67.28125 
L 64.40625 56.890625 
Q 59.421875 61.53125 53.78125 63.8125 
Q 48.140625 66.109375 41.796875 66.109375 
Q 29.296875 66.109375 22.65625 58.46875 
Q 16.015625 50.828125 16.015625 36.375 
Q 16.015625 21.96875 22.65625 14.328125 
Q 29.296875 6.6875 41.796875 6.6875 
Q 48.140625 6.6875 53.78125 8.984375 
Q 59.421875 11.28125 64.40625 15.921875 
L 64.40625 5.609375 
Q 59.234375 2.09375 53.4375 0.328125 
Q 47.65625 -1.421875 41.21875 -1.421875 
Q 24.65625 -1.421875 15.125 8.703125 
Q 5.609375 18.84375 5.609375 36.375 
Q 5.609375 53.953125 15.125 64.078125 
Q 24.65625 74.21875 41.21875 74.21875 
Q 47.75 74.21875 53.53125 72.484375 
Q 59.328125 70.75 64.40625 67.28125 
z
" id="DejaVuSans-67"/>
       <path d="M 8.5 21.578125 
L 8.5 54.6875 
L 17.484375 54.6875 
L 17.484375 21.921875 
Q 17.484375 14.15625 20.5 10.265625 
Q 23.53125 6.390625 29.59375 6.390625 
Q 36.859375 6.390625 41.078125 11.03125 
Q 45.3125 15.671875 45.3125 23.6875 
L 45.3125 54.6875 
L 54.296875 54.6875 
L 54.296875 0 
L 45.3125 0 
L 45.3125 8.40625 
Q 42.046875 3.421875 37.71875 1 
Q 33.40625 -1.421875 27.6875 -1.421875 
Q 18.265625 -1.421875 13.375 4.4375 
Q 8.5 10.296875 8.5 21.578125 
z
M 31.109375 56 
z
" id="DejaVuSans-117"/>
       <path d="M 52 44.1875 
Q 55.375 50.25 60.0625 53.125 
Q 64.75 56 71.09375 56 
Q 79.640625 56 84.28125 50.015625 
Q 88.921875 44.046875 88.921875 33.015625 
L 88.921875 0 
L 79.890625 0 
L 79.890625 32.71875 
Q 79.890625 40.578125 77.09375 44.375 
Q 74.3125 48.1875 68.609375 48.1875 
Q 61.625 48.1875 57.5625 43.546875 
Q 53.515625 38.921875 53.515625 30.90625 
L 53.515625 0 
L 44.484375 0 
L 44.484375 32.71875 
Q 44.484375 40.625 41.703125 44.40625 
Q 38.921875 48.1875 33.109375 48.1875 
Q 26.21875 48.1875 22.15625 43.53125 
Q 18.109375 38.875 18.109375 30.90625 
L 18.109375 0 
L 9.078125 0 
L 9.078125 54.6875 
L 18.109375 54.6875 
L 18.109375 46.1875 
Q 21.1875 51.21875 25.484375 53.609375 
Q 29.78125 56 35.6875 56 
Q 41.65625 56 45.828125 52.96875 
Q 50 49.953125 52 44.1875 
z
" id="DejaVuSans-109"/>
       <path d="M 9.421875 75.984375 
L 18.40625 75.984375 
L 18.40625 0 
L 9.421875 0 
z
" id="DejaVuSans-108"/>
       <path d="M 18.3125 70.21875 
L 18.3125 54.6875 
L 36.8125 54.6875 
L 36.8125 47.703125 
L 18.3125 47.703125 
L 18.3125 18.015625 
Q 18.3125 11.328125 20.140625 9.421875 
Q 21.96875 7.515625 27.59375 7.515625 
L 36.8125 7.515625 
L 36.8125 0 
L 27.59375 0 
Q 17.1875 0 13.234375 3.875 
Q 9.28125 7.765625 9.28125 18.015625 
L 9.28125 47.703125 
L 2.6875 47.703125 
L 2.6875 54.6875 
L 9.28125 54.6875 
L 9.28125 70.21875 
z
" id="DejaVuSans-116"/>
       <path d="M 9.421875 54.6875 
L 18.40625 54.6875 
L 18.40625 0 
L 9.421875 0 
z
M 9.421875 75.984375 
L 18.40625 75.984375 
L 18.40625 64.59375 
L 9.421875 64.59375 
z
" id="DejaVuSans-105"/>
       <path d="M 2.984375 54.6875 
L 12.5 54.6875 
L 29.59375 8.796875 
L 46.6875 54.6875 
L 56.203125 54.6875 
L 35.6875 0 
L 23.484375 0 
z
" id="DejaVuSans-118"/>
       <path d="M 56.203125 29.59375 
L 56.203125 25.203125 
L 14.890625 25.203125 
Q 15.484375 15.921875 20.484375 11.0625 
Q 25.484375 6.203125 34.421875 6.203125 
Q 39.59375 6.203125 44.453125 7.46875 
Q 49.3125 8.734375 54.109375 11.28125 
L 54.109375 2.78125 
Q 49.265625 0.734375 44.1875 -0.34375 
Q 39.109375 -1.421875 33.890625 -1.421875 
Q 20.796875 -1.421875 13.15625 6.1875 
Q 5.515625 13.8125 5.515625 26.8125 
Q 5.515625 40.234375 12.765625 48.109375 
Q 20.015625 56 32.328125 56 
Q 43.359375 56 49.78125 48.890625 
Q 56.203125 41.796875 56.203125 29.59375 
z
M 47.21875 32.234375 
Q 47.125 39.59375 43.09375 43.984375 
Q 39.0625 48.390625 32.421875 48.390625 
Q 24.90625 48.390625 20.390625 44.140625 
Q 15.875 39.890625 15.1875 32.171875 
z
" id="DejaVuSans-101"/>
       <path id="DejaVuSans-32"/>
       <path d="M 48.78125 52.59375 
L 48.78125 44.1875 
Q 44.96875 46.296875 41.140625 47.34375 
Q 37.3125 48.390625 33.40625 48.390625 
Q 24.65625 48.390625 19.8125 42.84375 
Q 14.984375 37.3125 14.984375 27.296875 
Q 14.984375 17.28125 19.8125 11.734375 
Q 24.65625 6.203125 33.40625 6.203125 
Q 37.3125 6.203125 41.140625 7.25 
Q 44.96875 8.296875 48.78125 10.40625 
L 48.78125 2.09375 
Q 45.015625 0.34375 40.984375 -0.53125 
Q 36.96875 -1.421875 32.421875 -1.421875 
Q 20.0625 -1.421875 12.78125 6.34375 
Q 5.515625 14.109375 5.515625 27.296875 
Q 5.515625 40.671875 12.859375 48.328125 
Q 20.21875 56 33.015625 56 
Q 37.15625 56 41.109375 55.140625 
Q 45.0625 54.296875 48.78125 52.59375 
z
" id="DejaVuSans-99"/>
      </defs>
      <use xlink:href="#DejaVuSans-67"/>
      <use x="69.824219" xlink:href="#DejaVuSans-117"/>
      <use x="133.203125" xlink:href="#DejaVuSans-109"/>
      <use x="230.615234" xlink:href="#DejaVuSans-117"/>
      <use x="293.994141" xlink:href="#DejaVuSans-108"/>
      <use x="321.777344" xlink:href="#DejaVuSans-97"/>
      <use x="383.056641" xlink:href="#DejaVuSans-116"/>
      <use x="422.265625" xlink:href="#DejaVuSans-105"/>
      <use x="450.048828" xlink:href="#DejaVuSans-118"/>
      <use x="509.228516" xlink:href="#DejaVuSans-101"/>
      <use x="570.751953" xlink:href="#DejaVuSans-32"/>
      <use x="602.539062" xlink:href="#DejaVuSans-99"/>
      <use x="657.519531" xlink:href="#DejaVuSans-97"/>
      <use x="718.798828" xlink:href="#DejaVuSans-115"/>
      <use x="770.898438" xlink:href="#DejaVuSans-101"/>
      <use x="832.421875" xlink:href="#DejaVuSans-115"/>
     </g>
    </g>
   </g>
   <g id="line2d_33">
    <path clip-path="url(#pcddd51e90e)" d="M 115.363636 605.290909 
L 122.127273 604.07984 
L 128.890909 602.599133 
L 135.654545 600.791163 
L 142.418182 598.58718 
L 149.181818 595.905754 
L 155.945455 592.651303 
L 162.709091 588.712891 
L 169.472727 583.963592 
L 176.236364 578.260794 
L 183 571.447993 
L 189.763636 563.358673 
L 196.527273 553.822993 
L 203.290909 542.677876 
L 210.054545 529.780888 
L 216.818182 515.027692 
L 223.581818 498.372015 
L 230.345455 479.845895 
L 237.109091 459.576823 
L 243.872727 437.797637 
L 250.636364 414.845175 
L 257.4 391.145211 
L 264.163636 367.183871 
L 270.927273 343.469062 
L 277.690909 320.488141 
L 284.454545 298.669123 
L 291.218182 278.351753 
L 297.981818 259.772009 
L 304.745455 243.06039 
L 311.509091 228.251522 
L 318.272727 215.301156 
L 325.036364 204.106368 
L 331.8 194.525582 
L 338.563636 186.396113 
L 345.327273 179.548153 
L 352.090909 173.81498 
L 358.854545 169.039727 
L 365.618182 165.07934 
L 372.381818 161.80642 
L 379.145455 159.109566 
L 385.909091 156.892759 
L 392.672727 155.074173 
L 399.436364 153.584708 
L 406.2 152.366432 
L 412.963636 151.371059 
L 419.727273 150.558533 
L 426.490909 149.895748 
L 433.254545 149.355432 
L 440.018182 148.915168 
L 446.781818 148.556571 
L 453.545455 148.264587 
L 460.309091 148.026903 
L 467.072727 147.833464 
L 473.836364 147.676059 
L 480.6 147.547996 
L 487.363636 147.443815 
L 494.127273 147.359072 
L 500.890909 147.290145 
L 507.654545 147.234086 
L 514.418182 147.188494 
L 521.181818 147.151417 
L 527.945455 147.121265 
L 534.709091 147.096746 
L 541.472727 147.076808 
L 548.236364 147.060595 
L 555 147.047411 
L 561.763636 147.036691 
L 568.527273 147.027975 
L 575.290909 147.020887 
L 582.054545 147.015124 
L 588.818182 147.010437 
L 595.581818 147.006627 
L 602.345455 147.003529 
L 609.109091 147.00101 
L 615.872727 146.998961 
L 622.636364 146.997296 
" style="fill:none;stroke:#1f77b4;stroke-linecap:square;stroke-width:1.5;"/>
   </g>
   <g id="line2d_34">
    <path clip-path="url(#pcddd51e90e)" d="M 115.363636 605.290909 
L 122.127273 599.058641 
L 128.890909 592.338003 
L 135.654545 585.108694 
L 142.418182 577.352951 
L 149.181818 569.056236 
L 155.945455 560.207965 
L 162.709091 550.802251 
L 169.472727 540.838634 
L 176.236364 530.32277 
L 183 519.267049 
L 189.763636 507.691086 
L 196.527273 495.622071 
L 203.290909 483.094917 
L 210.054545 470.152197 
L 216.818182 456.843827 
L 223.581818 443.2265 
L 230.345455 429.362863 
L 237.109091 415.320459 
L 243.872727 401.170468 
L 250.636364 386.986293 
L 257.4 372.84205 
L 264.163636 358.811022 
L 270.927273 344.964156 
L 277.690909 331.368658 
L 284.454545 318.086747 
L 291.218182 305.174615 
L 297.981818 292.681625 
L 304.745455 280.649763 
L 311.509091 269.113341 
L 318.272727 258.098954 
L 325.036364 247.62564 
L 331.8 237.705245 
L 338.563636 228.342929 
L 345.327273 219.537783 
L 352.090909 211.28353 
L 358.854545 203.569251 
L 365.618182 196.380134 
L 372.381818 189.698192 
L 379.145455 183.502956 
L 385.909091 177.772104 
L 392.672727 172.48204 
L 399.436364 167.608395 
L 406.2 163.126469 
L 412.963636 159.011597 
L 419.727273 155.239459 
L 426.490909 151.786327 
L 433.254545 148.629253 
L 440.018182 145.746222 
L 446.781818 143.116249 
L 453.545455 140.719454 
L 460.309091 138.537097 
L 467.072727 136.551596 
L 473.836364 134.746518 
L 480.6 133.106564 
L 487.363636 131.617531 
L 494.127273 130.266274 
L 500.890909 129.040659 
L 507.654545 127.929506 
L 514.418182 126.922539 
L 521.181818 126.01033 
L 527.945455 125.184239 
L 534.709091 124.436366 
L 541.472727 123.759491 
L 548.236364 123.147028 
L 555 122.592973 
L 561.763636 122.091858 
L 568.527273 121.63871 
L 575.290909 121.229004 
L 582.054545 120.858633 
L 588.818182 120.523866 
L 595.581818 120.221317 
L 602.345455 119.947918 
L 609.109091 119.700883 
L 615.872727 119.477692 
L 622.636364 119.27606 
" style="fill:none;stroke:#ff7f0e;stroke-linecap:square;stroke-width:1.5;"/>
   </g>
   <g id="line2d_35">
    <path clip-path="url(#pcddd51e90e)" d="M 115.363636 605.290909 
L 122.127273 602.479536 
L 128.890909 599.216972 
L 135.654545 595.440293 
L 142.418182 591.081134 
L 149.181818 586.066405 
L 155.945455 580.31953 
L 162.709091 573.762298 
L 169.472727 566.317442 
L 176.236364 557.912011 
L 183 548.481522 
L 189.763636 537.974805 
L 196.527273 526.359311 
L 203.290909 513.626488 
L 210.054545 499.796732 
L 216.818182 484.923246 
L 223.581818 469.094185 
L 230.345455 452.43248 
L 237.109091 435.093017 
L 243.872727 417.257115 
L 250.636364 399.124683 
L 257.4 380.904762 
L 264.163636 362.805428 
L 270.927273 345.024111 
L 277.690909 327.739268 
L 284.454545 311.104112 
L 291.218182 295.24272 
L 297.981818 280.248528 
L 304.745455 266.184934 
L 311.509091 253.087531 
L 318.272727 240.967458 
L 325.036364 229.815346 
L 331.8 219.605431 
L 338.563636 210.29951 
L 345.327273 201.850534 
L 352.090909 194.205697 
L 358.854545 187.309014 
L 365.618182 181.103369 
L 372.381818 175.532092 
L 379.145455 170.54012 
L 385.909091 166.074821 
L 392.672727 162.086526 
L 399.436364 158.528852 
L 406.2 155.358844 
L 412.963636 152.537 
L 419.727273 150.027204 
L 426.490909 147.796591 
L 433.254545 145.815379 
L 440.018182 144.056668 
L 446.781818 142.496236 
L 453.545455 141.11232 
L 460.309091 139.885414 
L 467.072727 138.798062 
L 473.836364 137.834667 
L 480.6 136.981315 
L 487.363636 136.225603 
L 494.127273 135.556491 
L 500.890909 134.964156 
L 507.654545 134.439867 
L 514.418182 133.975869 
L 521.181818 133.565277 
L 527.945455 133.201982 
L 534.709091 132.880564 
L 541.472727 132.596219 
L 548.236364 132.344688 
L 555 132.122199 
L 561.763636 131.92541 
L 568.527273 131.751359 
L 575.290909 131.597427 
L 582.054545 131.461293 
L 588.818182 131.340903 
L 595.581818 131.234439 
L 602.345455 131.140294 
L 609.109091 131.057043 
L 615.872727 130.983427 
L 622.636364 130.918333 
" style="fill:none;stroke:#2ca02c;stroke-linecap:square;stroke-width:1.5;"/>
   </g>
   <g id="line2d_36">
    <path clip-path="url(#pcddd51e90e)" d="M 115.363636 605.290909 
L 122.127273 600.421661 
L 128.890909 594.862146 
L 135.654545 588.575832 
L 142.418182 581.530789 
L 149.181818 573.701308 
L 155.945455 565.069613 
L 162.709091 555.627586 
L 169.472727 545.378415 
L 176.236364 534.33803 
L 183 522.536218 
L 189.763636 510.017281 
L 196.527273 496.84012 
L 203.290909 483.077671 
L 210.054545 468.81565 
L 216.818182 454.150619 
L 223.581818 439.187472 
L 230.345455 424.036449 
L 237.109091 408.809881 
L 243.872727 393.618869 
L 250.636364 378.570101 
L 257.4 363.763015 
L 264.163636 349.287447 
L 270.927273 335.221881 
L 277.690909 321.632333 
L 284.454545 308.571864 
L 291.218182 296.080671 
L 297.981818 284.186651 
L 304.745455 272.90635 
L 311.509091 262.246161 
L 318.272727 252.203687 
L 325.036364 242.769148 
L 331.8 233.926775 
L 338.563636 225.656127 
L 345.327273 217.933287 
L 352.090909 210.731922 
L 358.854545 204.024187 
L 365.618182 197.781484 
L 372.381818 191.975081 
L 379.145455 186.5766 
L 385.909091 181.558388 
L 392.672727 176.893796 
L 399.436364 172.557373 
L 406.2 168.524991 
L 412.963636 164.773914 
L 419.727273 161.282833 
L 426.490909 158.031855 
L 433.254545 155.002476 
L 440.018182 152.177538 
L 446.781818 149.541163 
L 453.545455 147.078689 
L 460.309091 144.776601 
L 467.072727 142.62245 
L 473.836364 140.604788 
L 480.6 138.71309 
L 487.363636 136.937683 
L 494.127273 135.269687 
L 500.890909 133.700945 
L 507.654545 132.223968 
L 514.418182 130.831878 
L 521.181818 129.518357 
L 527.945455 128.277604 
L 534.709091 127.104286 
L 541.472727 125.9935 
L 548.236364 124.940737 
L 555 123.94185 
L 561.763636 122.99302 
L 568.527273 122.09073 
L 575.290909 121.231739 
L 582.054545 120.413058 
L 588.818182 119.631932 
L 595.581818 118.885815 
L 602.345455 118.172357 
L 609.109091 117.489386 
L 615.872727 116.834894 
L 622.636364 116.207024 
" style="fill:none;stroke:#d62728;stroke-linecap:square;stroke-width:1.5;"/>
   </g>
   <g id="line2d_37">
    <path clip-path="url(#pcddd51e90e)" d="M 115.363636 605.290909 
L 122.127273 604.771089 
L 128.890909 603.38292 
L 135.654545 601.219678 
L 142.418182 598.23573 
L 149.181818 594.302018 
L 155.945455 589.236363 
L 162.709091 582.826169 
L 169.472727 574.852907 
L 176.236364 565.122906 
L 183 553.504218 
L 189.763636 539.964064 
L 196.527273 524.596695 
L 203.290909 507.630504 
L 210.054545 489.408105 
L 216.818182 470.342862 
L 223.581818 450.864608 
L 230.345455 431.370349 
L 237.109091 412.191229 
L 243.872727 393.578858 
L 250.636364 375.70733 
L 257.4 358.684476 
L 264.163636 342.566443 
L 270.927273 327.371766 
L 277.690909 313.09312 
L 284.454545 299.706303 
L 291.218182 287.176725 
L 297.981818 275.463904 
L 304.745455 264.524492 
L 311.509091 254.314263 
L 318.272727 244.789384 
L 325.036364 235.907215 
L 331.8 227.62678 
L 338.563636 219.909034 
L 345.327273 212.716987 
L 352.090909 206.015747 
L 358.854545 199.7725 
L 365.618182 193.956451 
L 372.381818 188.538751 
L 379.145455 183.49241 
L 385.909091 178.792196 
L 392.672727 174.414542 
L 399.436364 170.337447 
L 406.2 166.54038 
L 412.963636 163.004193 
L 419.727273 159.711028 
L 426.490909 156.644237 
L 433.254545 153.788302 
L 440.018182 151.12876 
L 446.781818 148.652133 
L 453.545455 146.345865 
L 460.309091 144.198256 
L 467.072727 142.198407 
L 473.836364 140.336163 
L 480.6 138.602067 
L 487.363636 136.98731 
L 494.127273 135.483686 
L 500.890909 134.083553 
L 507.654545 132.779792 
L 514.418182 131.565775 
L 521.181818 130.435327 
L 527.945455 129.3827 
L 534.709091 128.402538 
L 541.472727 127.489855 
L 548.236364 126.640008 
L 555 125.848671 
L 561.763636 125.111817 
L 568.527273 124.425698 
L 575.290909 123.78682 
L 582.054545 123.191931 
L 588.818182 122.638004 
L 595.581818 122.122219 
L 602.345455 121.641949 
L 609.109091 121.19475 
L 615.872727 120.778345 
L 622.636364 120.390614 
" style="fill:none;stroke:#9467bd;stroke-linecap:square;stroke-width:1.5;"/>
   </g>
   <g id="line2d_38">
    <path clip-path="url(#pcddd51e90e)" d="M 115.363636 605.290909 
L 122.127273 604.10181 
L 128.890909 600.791111 
L 135.654545 595.675401 
L 142.418182 589.001294 
L 149.181818 580.965971 
L 155.945455 571.732271 
L 162.709091 561.439703 
L 169.472727 550.21238 
L 176.236364 538.164607 
L 183 525.404652 
L 189.763636 512.037146 
L 196.527273 498.164417 
L 203.290909 483.887017 
L 210.054545 469.303671 
L 216.818182 454.510809 
L 223.581818 439.601828 
L 230.345455 424.666226 
L 237.109091 409.788683 
L 243.872727 395.04819 
L 250.636364 380.517286 
L 257.4 366.26143 
L 264.163636 352.33856 
L 270.927273 338.798826 
L 277.690909 325.684517 
L 284.454545 313.030157 
L 291.218182 300.862752 
L 297.981818 289.202175 
L 304.745455 278.061656 
L 311.509091 267.448339 
L 318.272727 257.363902 
L 325.036364 247.805196 
L 331.8 238.764895 
L 338.563636 230.23213 
L 345.327273 222.193099 
L 352.090909 214.631635 
L 358.854545 207.529737 
L 365.618182 200.868042 
L 372.381818 194.626251 
L 379.145455 188.783501 
L 385.909091 183.318684 
L 392.672727 178.210722 
L 399.436364 173.438786 
L 406.2 168.982489 
L 412.963636 164.822025 
L 419.727273 160.938289 
L 426.490909 157.312955 
L 433.254545 153.928542 
L 440.018182 150.768445 
L 446.781818 147.816959 
L 453.545455 145.059281 
L 460.309091 142.481504 
L 467.072727 140.070602 
L 473.836364 137.8144 
L 480.6 135.701548 
L 487.363636 133.721484 
L 494.127273 131.8644 
L 500.890909 130.121198 
L 507.654545 128.483452 
L 514.418182 126.943371 
L 521.181818 125.493754 
L 527.945455 124.127954 
L 534.709091 122.839838 
L 541.472727 121.623756 
L 548.236364 120.474498 
L 555 119.38727 
L 561.763636 118.357655 
L 568.527273 117.381591 
L 575.290909 116.455337 
L 582.054545 115.575452 
L 588.818182 114.738769 
L 595.581818 113.942372 
L 602.345455 113.183581 
L 609.109091 112.459923 
L 615.872727 111.769125 
L 622.636364 111.109091 
" style="fill:none;stroke:#8c564b;stroke-linecap:square;stroke-width:1.5;"/>
   </g>
   <g id="line2d_39">
    <path clip-path="url(#pcddd51e90e)" d="M 115.363636 605.290909 
L 122.127273 604.772756 
L 128.890909 603.388881 
L 135.654545 601.232445 
L 142.418182 598.258399 
L 149.181818 594.338604 
L 155.945455 589.291938 
L 162.709091 582.906784 
L 169.472727 574.965246 
L 176.236364 565.273582 
L 183 553.698725 
L 189.763636 540.205522 
L 196.527273 524.884722 
L 203.290909 507.960614 
L 210.054545 489.77193 
L 216.818182 470.729203 
L 223.581818 451.260982 
L 230.345455 431.764552 
L 237.109091 412.572526 
L 243.872727 393.938629 
L 250.636364 376.039225 
L 257.4 358.984234 
L 264.163636 342.831545 
L 270.927273 327.601049 
L 277.690909 313.28642 
L 284.454545 299.864161 
L 291.218182 287.300156 
L 297.981818 275.554229 
L 304.745455 264.583213 
L 311.509091 254.342978 
L 318.272727 244.789726 
L 325.036364 235.880811 
L 331.8 227.575221 
L 338.563636 219.83386 
L 345.327273 212.619677 
L 352.090909 205.897711 
L 358.854545 199.635073 
L 365.618182 193.800897 
L 372.381818 188.366263 
L 379.145455 183.304107 
L 385.909091 178.589131 
L 392.672727 174.197702 
L 399.436364 170.107756 
L 406.2 166.298705 
L 412.963636 162.751342 
L 419.727273 159.447759 
L 426.490909 156.371256 
L 433.254545 153.506268 
L 440.018182 150.83829 
L 446.781818 148.353803 
L 453.545455 146.04021 
L 460.309091 143.885777 
L 467.072727 141.879569 
L 473.836364 140.011402 
L 480.6 138.271789 
L 487.363636 136.651893 
L 494.127273 135.143482 
L 500.890909 133.73889 
L 507.654545 132.430976 
L 514.418182 131.213091 
L 521.181818 130.079042 
L 527.945455 129.02306 
L 534.709091 128.039774 
L 541.472727 127.124182 
L 548.236364 126.271625 
L 555 125.477765 
L 561.763636 124.738562 
L 568.527273 124.050254 
L 575.290909 123.409339 
L 582.054545 122.812554 
L 588.818182 122.25686 
L 595.581818 121.73943 
L 602.345455 121.257628 
L 609.109091 120.809003 
L 615.872727 120.39127 
L 622.636364 120.002303 
" style="fill:none;stroke:#e377c2;stroke-linecap:square;stroke-width:1.5;"/>
   </g>
   <g id="line2d_40">
    <path clip-path="url(#pcddd51e90e)" d="M 115.363636 605.290909 
L 122.127273 604.021586 
L 128.890909 600.527574 
L 135.654545 595.182583 
L 142.418182 588.264195 
L 149.181818 579.98509 
L 155.945455 570.514845 
L 162.709091 559.995102 
L 169.472727 548.549999 
L 176.236364 536.293204 
L 183 523.332471 
L 189.763636 509.772398 
L 196.527273 495.715872 
L 203.290909 481.264555 
L 210.054545 466.518721 
L 216.818182 451.576626 
L 223.581818 436.533616 
L 230.345455 421.481099 
L 237.109091 406.505502 
L 243.872727 391.687287 
L 250.636364 377.100108 
L 257.4 362.81013 
L 264.163636 348.875565 
L 270.927273 335.346405 
L 277.690909 322.264362 
L 284.454545 309.663002 
L 291.218182 297.568045 
L 297.981818 285.997802 
L 304.745455 274.963722 
L 311.509091 264.471016 
L 318.272727 254.519335 
L 325.036364 245.103464 
L 331.8 236.214021 
L 338.563636 227.838134 
L 345.327273 219.960087 
L 352.090909 212.561917 
L 358.854545 205.623962 
L 365.618182 199.125354 
L 372.381818 193.044448 
L 379.145455 187.359198 
L 385.909091 182.047477 
L 392.672727 177.087344 
L 399.436364 172.457261 
L 406.2 168.136272 
L 412.963636 164.104132 
L 419.727273 160.341418 
L 426.490909 156.829594 
L 433.254545 153.551061 
L 440.018182 150.489183 
L 446.781818 147.628297 
L 453.545455 144.953703 
L 460.309091 142.451651 
L 467.072727 140.109312 
L 473.836364 137.914746 
L 480.6 135.856866 
L 487.363636 133.925394 
L 494.127273 132.11082 
L 500.890909 130.404357 
L 507.654545 128.797896 
L 514.418182 127.283963 
L 521.181818 125.855676 
L 527.945455 124.506702 
L 534.709091 123.231219 
L 541.472727 122.023877 
L 548.236364 120.87976 
L 555 119.794355 
L 561.763636 118.763521 
L 568.527273 117.783452 
L 575.290909 116.850659 
L 582.054545 115.961936 
L 588.818182 115.11434 
L 595.581818 114.305169 
L 602.345455 113.531939 
L 609.109091 112.792368 
L 615.872727 112.084356 
L 622.636364 111.405973 
" style="fill:none;stroke:#7f7f7f;stroke-linecap:square;stroke-width:1.5;"/>
   </g>
   <g id="line2d_41">
    <path clip-path="url(#pcddd51e90e)" d="M 115.363636 605.290909 
L 122.127273 604.192026 
L 128.890909 601.065241 
L 135.654545 596.135172 
L 142.418182 589.594444 
L 149.181818 581.612138 
L 155.945455 572.340356 
L 162.709091 561.919241 
L 169.472727 550.480708 
L 176.236364 538.151093 
L 183 525.052886 
L 189.763636 511.305704 
L 196.527273 497.026639 
L 203.290909 482.330126 
L 210.054545 467.32744 
L 216.818182 452.125953 
L 223.581818 436.828255 
L 230.345455 421.531239 
L 237.109091 406.325221 
L 243.872727 391.293171 
L 250.636364 376.510095 
L 257.4 362.0426 
L 264.163636 347.948652 
L 270.927273 334.277529 
L 277.690909 321.069956 
L 284.454545 308.358403 
L 291.218182 296.167516 
L 297.981818 284.514656 
L 304.745455 273.410514 
L 311.509091 262.859779 
L 318.272727 252.861826 
L 325.036364 243.411406 
L 331.8 234.499326 
L 338.563636 226.113087 
L 345.327273 218.237495 
L 352.090909 210.855209 
L 358.854545 203.947251 
L 365.618182 197.493448 
L 372.381818 191.472831 
L 379.145455 185.863974 
L 385.909091 180.645287 
L 392.672727 175.795264 
L 399.436364 171.29268 
L 406.2 167.116764 
L 412.963636 163.247326 
L 419.727273 159.66486 
L 426.490909 156.350619 
L 433.254545 153.286672 
L 440.018182 150.455934 
L 446.781818 147.84219 
L 453.545455 145.430096 
L 460.309091 143.205179 
L 467.072727 141.153819 
L 473.836364 139.263232 
L 480.6 137.521443 
L 487.363636 135.917258 
L 494.127273 134.440228 
L 500.890909 133.080617 
L 507.654545 131.829369 
L 514.418182 130.678067 
L 521.181818 129.618899 
L 527.945455 128.644625 
L 534.709091 127.748539 
L 541.472727 126.924435 
L 548.236364 126.166578 
L 555 125.469669 
L 561.763636 124.828817 
L 568.527273 124.239509 
L 575.290909 123.697587 
L 582.054545 123.199216 
L 588.818182 122.740868 
L 595.581818 122.319292 
L 602.345455 121.931499 
L 609.109091 121.574739 
L 615.872727 121.246483 
L 622.636364 120.944406 
" style="fill:none;stroke:#bcbd22;stroke-linecap:square;stroke-width:1.5;"/>
   </g>
   <g id="line2d_42">
    <path clip-path="url(#pcddd51e90e)" d="M 115.363636 605.290909 
L 122.127273 605.290909 
L 128.890909 600.2808 
L 135.654545 591.596611 
L 142.418182 580.908379 
L 149.181818 563.540001 
L 155.945455 550.179711 
L 162.709091 537.487435 
L 169.472727 526.131188 
L 176.236364 518.783028 
L 183 518.783028 
L 189.763636 515.108948 
L 196.527273 496.738549 
L 203.290909 482.710244 
L 210.054545 472.356019 
L 216.818182 463.003815 
L 223.581818 450.311539 
L 230.345455 434.279191 
L 237.109091 422.922944 
L 243.872727 399.542436 
L 250.636364 382.174058 
L 257.4 366.809724 
L 264.163636 358.125535 
L 270.927273 342.761201 
L 277.690909 329.734918 
L 284.454545 311.030511 
L 291.218182 298.672242 
L 297.981818 284.30993 
L 304.745455 277.629785 
L 311.509091 269.613611 
L 318.272727 256.921335 
L 325.036364 246.233102 
L 331.8 235.210863 
L 338.563636 223.186601 
L 345.327273 213.834398 
L 352.090909 208.156274 
L 358.854545 205.818224 
L 365.618182 203.146166 
L 372.381818 193.793962 
L 379.145455 187.113817 
L 385.909091 175.089556 
L 392.672727 170.747461 
L 399.436364 166.405367 
L 406.2 164.73533 
L 412.963636 161.729265 
L 419.727273 158.7232 
L 426.490909 154.381105 
L 433.254545 152.043054 
L 440.018182 147.032946 
L 446.781818 144.360887 
L 453.545455 142.356844 
L 460.309091 140.3528 
L 467.072727 137.012728 
L 473.836364 133.338648 
L 480.6 131.668611 
L 487.363636 129.998575 
L 494.127273 129.998575 
L 500.890909 129.998575 
L 507.654545 127.994532 
L 514.418182 126.99251 
L 521.181818 126.658503 
L 527.945455 126.324495 
L 534.709091 124.988466 
L 541.472727 123.986444 
L 548.236364 122.984423 
L 555 122.650415 
L 561.763636 121.982401 
L 568.527273 121.648394 
L 575.290909 121.314386 
L 582.054545 121.314386 
L 588.818182 120.980379 
L 595.581818 120.980379 
L 602.345455 120.646372 
L 609.109091 120.312365 
L 615.872727 120.312365 
L 622.636364 120.312365 
" style="fill:none;stroke:#17becf;stroke-dasharray:14.8,6.4;stroke-dashoffset:0;stroke-width:4;"/>
   </g>
   <g id="patch_3">
    <path d="M 90 630 
L 90 86.4 
" style="fill:none;stroke:#000000;stroke-linecap:square;stroke-linejoin:miter;stroke-width:0.8;"/>
   </g>
   <g id="patch_4">
    <path d="M 648 630 
L 648 86.4 
" style="fill:none;stroke:#000000;stroke-linecap:square;stroke-linejoin:miter;stroke-width:0.8;"/>
   </g>
   <g id="patch_5">
    <path d="M 90 630 
L 648 630 
" style="fill:none;stroke:#000000;stroke-linecap:square;stroke-linejoin:miter;stroke-width:0.8;"/>
   </g>
   <g id="patch_6">
    <path d="M 90 86.4 
L 648 86.4 
" style="fill:none;stroke:#000000;stroke-linecap:square;stroke-linejoin:miter;stroke-width:0.8;"/>
   </g>
   <g id="text_19">
    <!-- Slovenia relative err =  -->
    <g transform="translate(299.65875 80.4)scale(0.12 -0.12)">
     <defs>
      <path d="M 53.515625 70.515625 
L 53.515625 60.890625 
Q 47.90625 63.578125 42.921875 64.890625 
Q 37.9375 66.21875 33.296875 66.21875 
Q 25.25 66.21875 20.875 63.09375 
Q 16.5 59.96875 16.5 54.203125 
Q 16.5 49.359375 19.40625 46.890625 
Q 22.3125 44.4375 30.421875 42.921875 
L 36.375 41.703125 
Q 47.40625 39.59375 52.65625 34.296875 
Q 57.90625 29 57.90625 20.125 
Q 57.90625 9.515625 50.796875 4.046875 
Q 43.703125 -1.421875 29.984375 -1.421875 
Q 24.8125 -1.421875 18.96875 -0.25 
Q 13.140625 0.921875 6.890625 3.21875 
L 6.890625 13.375 
Q 12.890625 10.015625 18.65625 8.296875 
Q 24.421875 6.59375 29.984375 6.59375 
Q 38.421875 6.59375 43.015625 9.90625 
Q 47.609375 13.234375 47.609375 19.390625 
Q 47.609375 24.75 44.3125 27.78125 
Q 41.015625 30.8125 33.5 32.328125 
L 27.484375 33.5 
Q 16.453125 35.6875 11.515625 40.375 
Q 6.59375 45.0625 6.59375 53.421875 
Q 6.59375 63.09375 13.40625 68.65625 
Q 20.21875 74.21875 32.171875 74.21875 
Q 37.3125 74.21875 42.625 73.28125 
Q 47.953125 72.359375 53.515625 70.515625 
z
" id="DejaVuSans-83"/>
      <path d="M 30.609375 48.390625 
Q 23.390625 48.390625 19.1875 42.75 
Q 14.984375 37.109375 14.984375 27.296875 
Q 14.984375 17.484375 19.15625 11.84375 
Q 23.34375 6.203125 30.609375 6.203125 
Q 37.796875 6.203125 41.984375 11.859375 
Q 46.1875 17.53125 46.1875 27.296875 
Q 46.1875 37.015625 41.984375 42.703125 
Q 37.796875 48.390625 30.609375 48.390625 
z
M 30.609375 56 
Q 42.328125 56 49.015625 48.375 
Q 55.71875 40.765625 55.71875 27.296875 
Q 55.71875 13.875 49.015625 6.21875 
Q 42.328125 -1.421875 30.609375 -1.421875 
Q 18.84375 -1.421875 12.171875 6.21875 
Q 5.515625 13.875 5.515625 27.296875 
Q 5.515625 40.765625 12.171875 48.375 
Q 18.84375 56 30.609375 56 
z
" id="DejaVuSans-111"/>
      <path d="M 54.890625 33.015625 
L 54.890625 0 
L 45.90625 0 
L 45.90625 32.71875 
Q 45.90625 40.484375 42.875 44.328125 
Q 39.84375 48.1875 33.796875 48.1875 
Q 26.515625 48.1875 22.3125 43.546875 
Q 18.109375 38.921875 18.109375 30.90625 
L 18.109375 0 
L 9.078125 0 
L 9.078125 54.6875 
L 18.109375 54.6875 
L 18.109375 46.1875 
Q 21.34375 51.125 25.703125 53.5625 
Q 30.078125 56 35.796875 56 
Q 45.21875 56 50.046875 50.171875 
Q 54.890625 44.34375 54.890625 33.015625 
z
" id="DejaVuSans-110"/>
      <path d="M 41.109375 46.296875 
Q 39.59375 47.171875 37.8125 47.578125 
Q 36.03125 48 33.890625 48 
Q 26.265625 48 22.1875 43.046875 
Q 18.109375 38.09375 18.109375 28.8125 
L 18.109375 0 
L 9.078125 0 
L 9.078125 54.6875 
L 18.109375 54.6875 
L 18.109375 46.1875 
Q 20.953125 51.171875 25.484375 53.578125 
Q 30.03125 56 36.53125 56 
Q 37.453125 56 38.578125 55.875 
Q 39.703125 55.765625 41.0625 55.515625 
z
" id="DejaVuSans-114"/>
      <path d="M 10.59375 45.40625 
L 73.1875 45.40625 
L 73.1875 37.203125 
L 10.59375 37.203125 
z
M 10.59375 25.484375 
L 73.1875 25.484375 
L 73.1875 17.1875 
L 10.59375 17.1875 
z
" id="DejaVuSans-61"/>
     </defs>
     <use xlink:href="#DejaVuSans-83"/>
     <use x="63.476562" xlink:href="#DejaVuSans-108"/>
     <use x="91.259766" xlink:href="#DejaVuSans-111"/>
     <use x="152.441406" xlink:href="#DejaVuSans-118"/>
     <use x="211.621094" xlink:href="#DejaVuSans-101"/>
     <use x="273.144531" xlink:href="#DejaVuSans-110"/>
     <use x="336.523438" xlink:href="#DejaVuSans-105"/>
     <use x="364.306641" xlink:href="#DejaVuSans-97"/>
     <use x="425.585938" xlink:href="#DejaVuSans-32"/>
     <use x="457.373047" xlink:href="#DejaVuSans-114"/>
     <use x="496.236328" xlink:href="#DejaVuSans-101"/>
     <use x="557.759766" xlink:href="#DejaVuSans-108"/>
     <use x="585.542969" xlink:href="#DejaVuSans-97"/>
     <use x="646.822266" xlink:href="#DejaVuSans-116"/>
     <use x="686.03125" xlink:href="#DejaVuSans-105"/>
     <use x="713.814453" xlink:href="#DejaVuSans-118"/>
     <use x="772.994141" xlink:href="#DejaVuSans-101"/>
     <use x="834.517578" xlink:href="#DejaVuSans-32"/>
     <use x="866.304688" xlink:href="#DejaVuSans-101"/>
     <use x="927.828125" xlink:href="#DejaVuSans-114"/>
     <use x="967.191406" xlink:href="#DejaVuSans-114"/>
     <use x="1008.304688" xlink:href="#DejaVuSans-32"/>
     <use x="1040.091797" xlink:href="#DejaVuSans-61"/>
     <use x="1123.880859" xlink:href="#DejaVuSans-32"/>
    </g>
   </g>
   <g id="legend_1">
    <g id="patch_7">
     <path d="M 97 226.503125 
L 185.6 226.503125 
Q 187.6 226.503125 187.6 224.503125 
L 187.6 93.4 
Q 187.6 91.4 185.6 91.4 
L 97 91.4 
Q 95 91.4 95 93.4 
L 95 224.503125 
Q 95 226.503125 97 226.503125 
z
" style="fill:#ffffff;opacity:0.8;stroke:#cccccc;stroke-linejoin:miter;"/>
    </g>
    <g id="line2d_43">
     <path d="M 99 99.498438 
L 119 99.498438 
" style="fill:none;stroke:#1f77b4;stroke-linecap:square;stroke-width:1.5;"/>
    </g>
    <g id="line2d_44"/>
    <g id="text_20">
     <!-- SI -->
     <g transform="translate(127 102.998438)scale(0.1 -0.1)">
      <defs>
       <path d="M 9.8125 72.90625 
L 19.671875 72.90625 
L 19.671875 0 
L 9.8125 0 
z
" id="DejaVuSans-73"/>
      </defs>
      <use xlink:href="#DejaVuSans-83"/>
      <use x="63.476562" xlink:href="#DejaVuSans-73"/>
     </g>
    </g>
    <g id="line2d_45">
     <path d="M 99 114.176563 
L 119 114.176563 
" style="fill:none;stroke:#ff7f0e;stroke-linecap:square;stroke-width:1.5;"/>
    </g>
    <g id="line2d_46"/>
    <g id="text_21">
     <!-- BD -->
     <g transform="translate(127 117.676563)scale(0.1 -0.1)">
      <defs>
       <path d="M 19.671875 34.8125 
L 19.671875 8.109375 
L 35.5 8.109375 
Q 43.453125 8.109375 47.28125 11.40625 
Q 51.125 14.703125 51.125 21.484375 
Q 51.125 28.328125 47.28125 31.5625 
Q 43.453125 34.8125 35.5 34.8125 
z
M 19.671875 64.796875 
L 19.671875 42.828125 
L 34.28125 42.828125 
Q 41.5 42.828125 45.03125 45.53125 
Q 48.578125 48.25 48.578125 53.8125 
Q 48.578125 59.328125 45.03125 62.0625 
Q 41.5 64.796875 34.28125 64.796875 
z
M 9.8125 72.90625 
L 35.015625 72.90625 
Q 46.296875 72.90625 52.390625 68.21875 
Q 58.5 63.53125 58.5 54.890625 
Q 58.5 48.1875 55.375 44.234375 
Q 52.25 40.28125 46.1875 39.3125 
Q 53.46875 37.75 57.5 32.78125 
Q 61.53125 27.828125 61.53125 20.40625 
Q 61.53125 10.640625 54.890625 5.3125 
Q 48.25 0 35.984375 0 
L 9.8125 0 
z
" id="DejaVuSans-66"/>
      </defs>
      <use xlink:href="#DejaVuSans-66"/>
      <use x="68.603516" xlink:href="#DejaVuSans-68"/>
     </g>
    </g>
    <g id="line2d_47">
     <path d="M 99 128.854688 
L 119 128.854688 
" style="fill:none;stroke:#2ca02c;stroke-linecap:square;stroke-width:1.5;"/>
    </g>
    <g id="line2d_48"/>
    <g id="text_22">
     <!-- SIR -->
     <g transform="translate(127 132.354688)scale(0.1 -0.1)">
      <defs>
       <path d="M 44.390625 34.1875 
Q 47.5625 33.109375 50.5625 29.59375 
Q 53.5625 26.078125 56.59375 19.921875 
L 66.609375 0 
L 56 0 
L 46.6875 18.703125 
Q 43.0625 26.03125 39.671875 28.421875 
Q 36.28125 30.8125 30.421875 30.8125 
L 19.671875 30.8125 
L 19.671875 0 
L 9.8125 0 
L 9.8125 72.90625 
L 32.078125 72.90625 
Q 44.578125 72.90625 50.734375 67.671875 
Q 56.890625 62.453125 56.890625 51.90625 
Q 56.890625 45.015625 53.6875 40.46875 
Q 50.484375 35.9375 44.390625 34.1875 
z
M 19.671875 64.796875 
L 19.671875 38.921875 
L 32.078125 38.921875 
Q 39.203125 38.921875 42.84375 42.21875 
Q 46.484375 45.515625 46.484375 51.90625 
Q 46.484375 58.296875 42.84375 61.546875 
Q 39.203125 64.796875 32.078125 64.796875 
z
" id="DejaVuSans-82"/>
      </defs>
      <use xlink:href="#DejaVuSans-83"/>
      <use x="63.476562" xlink:href="#DejaVuSans-73"/>
      <use x="92.96875" xlink:href="#DejaVuSans-82"/>
     </g>
    </g>
    <g id="line2d_49">
     <path d="M 99 143.532812 
L 119 143.532812 
" style="fill:none;stroke:#d62728;stroke-linecap:square;stroke-width:1.5;"/>
    </g>
    <g id="line2d_50"/>
    <g id="text_23">
     <!-- eSIR -->
     <g transform="translate(127 147.032812)scale(0.1 -0.1)">
      <use xlink:href="#DejaVuSans-101"/>
      <use x="61.523438" xlink:href="#DejaVuSans-83"/>
      <use x="125" xlink:href="#DejaVuSans-73"/>
      <use x="154.492188" xlink:href="#DejaVuSans-82"/>
     </g>
    </g>
    <g id="line2d_51">
     <path d="M 99 158.210938 
L 119 158.210938 
" style="fill:none;stroke:#9467bd;stroke-linecap:square;stroke-width:1.5;"/>
    </g>
    <g id="line2d_52"/>
    <g id="text_24">
     <!-- SEIR -->
     <g transform="translate(127 161.710938)scale(0.1 -0.1)">
      <defs>
       <path d="M 9.8125 72.90625 
L 55.90625 72.90625 
L 55.90625 64.59375 
L 19.671875 64.59375 
L 19.671875 43.015625 
L 54.390625 43.015625 
L 54.390625 34.71875 
L 19.671875 34.71875 
L 19.671875 8.296875 
L 56.78125 8.296875 
L 56.78125 0 
L 9.8125 0 
z
" id="DejaVuSans-69"/>
      </defs>
      <use xlink:href="#DejaVuSans-83"/>
      <use x="63.476562" xlink:href="#DejaVuSans-69"/>
      <use x="126.660156" xlink:href="#DejaVuSans-73"/>
      <use x="156.152344" xlink:href="#DejaVuSans-82"/>
     </g>
    </g>
    <g id="line2d_53">
     <path d="M 99 172.889063 
L 119 172.889063 
" style="fill:none;stroke:#8c564b;stroke-linecap:square;stroke-width:1.5;"/>
    </g>
    <g id="line2d_54"/>
    <g id="text_25">
     <!-- eSEIR -->
     <g transform="translate(127 176.389063)scale(0.1 -0.1)">
      <use xlink:href="#DejaVuSans-101"/>
      <use x="61.523438" xlink:href="#DejaVuSans-83"/>
      <use x="125" xlink:href="#DejaVuSans-69"/>
      <use x="188.183594" xlink:href="#DejaVuSans-73"/>
      <use x="217.675781" xlink:href="#DejaVuSans-82"/>
     </g>
    </g>
    <g id="line2d_55">
     <path d="M 99 187.567188 
L 119 187.567188 
" style="fill:none;stroke:#e377c2;stroke-linecap:square;stroke-width:1.5;"/>
    </g>
    <g id="line2d_56"/>
    <g id="text_26">
     <!-- SEIUR -->
     <g transform="translate(127 191.067188)scale(0.1 -0.1)">
      <defs>
       <path d="M 8.6875 72.90625 
L 18.609375 72.90625 
L 18.609375 28.609375 
Q 18.609375 16.890625 22.84375 11.734375 
Q 27.09375 6.59375 36.625 6.59375 
Q 46.09375 6.59375 50.34375 11.734375 
Q 54.59375 16.890625 54.59375 28.609375 
L 54.59375 72.90625 
L 64.5 72.90625 
L 64.5 27.390625 
Q 64.5 13.140625 57.4375 5.859375 
Q 50.390625 -1.421875 36.625 -1.421875 
Q 22.796875 -1.421875 15.734375 5.859375 
Q 8.6875 13.140625 8.6875 27.390625 
z
" id="DejaVuSans-85"/>
      </defs>
      <use xlink:href="#DejaVuSans-83"/>
      <use x="63.476562" xlink:href="#DejaVuSans-69"/>
      <use x="126.660156" xlink:href="#DejaVuSans-73"/>
      <use x="156.152344" xlink:href="#DejaVuSans-85"/>
      <use x="229.345703" xlink:href="#DejaVuSans-82"/>
     </g>
    </g>
    <g id="line2d_57">
     <path d="M 99 202.245312 
L 119 202.245312 
" style="fill:none;stroke:#7f7f7f;stroke-linecap:square;stroke-width:1.5;"/>
    </g>
    <g id="line2d_58"/>
    <g id="text_27">
     <!-- eSEIUR -->
     <g transform="translate(127 205.745312)scale(0.1 -0.1)">
      <use xlink:href="#DejaVuSans-101"/>
      <use x="61.523438" xlink:href="#DejaVuSans-83"/>
      <use x="125" xlink:href="#DejaVuSans-69"/>
      <use x="188.183594" xlink:href="#DejaVuSans-73"/>
      <use x="217.675781" xlink:href="#DejaVuSans-85"/>
      <use x="290.869141" xlink:href="#DejaVuSans-82"/>
     </g>
    </g>
    <g id="line2d_59">
     <path d="M 99 216.923437 
L 119 216.923437 
" style="fill:none;stroke:#bcbd22;stroke-linecap:square;stroke-width:1.5;"/>
    </g>
    <g id="line2d_60"/>
    <g id="text_28">
     <!-- eSEIUR$^{range}$ -->
     <g transform="translate(127 220.423437)scale(0.1 -0.1)">
      <defs>
       <path d="M 44.578125 46.390625 
Q 43.21875 47.125 41.453125 47.515625 
Q 39.703125 47.90625 37.703125 47.90625 
Q 30.515625 47.90625 25.140625 42.453125 
Q 19.78125 37.015625 18.015625 27.875 
L 12.5 0 
L 3.515625 0 
L 14.203125 54.6875 
L 23.1875 54.6875 
L 21.484375 46.1875 
Q 25.046875 50.921875 30 53.453125 
Q 34.96875 56 40.578125 56 
Q 42.046875 56 43.453125 55.828125 
Q 44.875 55.671875 46.296875 55.28125 
z
" id="DejaVuSans-Oblique-114"/>
       <path d="M 53.71875 31.203125 
L 47.609375 0 
L 38.625 0 
L 40.28125 8.296875 
Q 36.328125 3.421875 31.265625 1 
Q 26.21875 -1.421875 20.015625 -1.421875 
Q 13.03125 -1.421875 8.5625 2.84375 
Q 4.109375 7.125 4.109375 13.8125 
Q 4.109375 23.390625 11.75 28.953125 
Q 19.390625 34.515625 32.8125 34.515625 
L 45.3125 34.515625 
L 45.796875 36.921875 
Q 45.90625 37.3125 45.953125 37.765625 
Q 46 38.234375 46 39.203125 
Q 46 43.5625 42.453125 45.96875 
Q 38.921875 48.390625 32.515625 48.390625 
Q 28.125 48.390625 23.5 47.265625 
Q 18.890625 46.140625 14.015625 43.890625 
L 15.578125 52.203125 
Q 20.65625 54.109375 25.515625 55.046875 
Q 30.375 56 34.90625 56 
Q 44.578125 56 49.625 51.796875 
Q 54.6875 47.609375 54.6875 39.59375 
Q 54.6875 37.984375 54.4375 35.8125 
Q 54.203125 33.640625 53.71875 31.203125 
z
M 44 27.484375 
L 35.015625 27.484375 
Q 23.96875 27.484375 18.671875 24.53125 
Q 13.375 21.578125 13.375 15.375 
Q 13.375 11.078125 16.078125 8.640625 
Q 18.796875 6.203125 23.578125 6.203125 
Q 30.90625 6.203125 36.375 11.453125 
Q 41.84375 16.703125 43.609375 25.484375 
z
" id="DejaVuSans-Oblique-97"/>
       <path d="M 55.71875 33.015625 
L 49.3125 0 
L 40.28125 0 
L 46.6875 32.671875 
Q 47.125 34.96875 47.359375 36.71875 
Q 47.609375 38.484375 47.609375 39.5 
Q 47.609375 43.609375 45.015625 45.890625 
Q 42.4375 48.1875 37.796875 48.1875 
Q 30.5625 48.1875 25.34375 43.375 
Q 20.125 38.578125 18.5 30.328125 
L 12.5 0 
L 3.515625 0 
L 14.109375 54.6875 
L 23.09375 54.6875 
L 21.296875 46.09375 
Q 25.046875 50.828125 30.3125 53.40625 
Q 35.59375 56 41.40625 56 
Q 48.640625 56 52.609375 52.09375 
Q 56.59375 48.1875 56.59375 41.109375 
Q 56.59375 39.359375 56.375 37.359375 
Q 56.15625 35.359375 55.71875 33.015625 
z
" id="DejaVuSans-Oblique-110"/>
       <path d="M 59.625 54.6875 
L 50.296875 6.78125 
Q 47.609375 -7.125 40.015625 -13.953125 
Q 32.421875 -20.796875 19.578125 -20.796875 
Q 14.84375 -20.796875 10.78125 -20.09375 
Q 6.734375 -19.390625 3.21875 -17.921875 
L 4.890625 -9.1875 
Q 8.203125 -11.328125 11.90625 -12.34375 
Q 15.625 -13.375 19.828125 -13.375 
Q 28.375 -13.375 33.859375 -8.703125 
Q 39.359375 -4.046875 41.109375 4.6875 
L 41.890625 8.796875 
Q 38.140625 4.5 33.15625 2.25 
Q 28.171875 0 22.40625 0 
Q 14.109375 0 9.34375 5.484375 
Q 4.59375 10.984375 4.59375 20.609375 
Q 4.59375 28.171875 7.46875 35.421875 
Q 10.359375 42.671875 15.578125 48.296875 
Q 19.046875 52 23.65625 54 
Q 28.265625 56 33.296875 56 
Q 38.8125 56 42.90625 53.4375 
Q 47.015625 50.875 49.03125 46.1875 
L 50.59375 54.6875 
z
M 46.09375 34.625 
Q 46.09375 41.265625 42.96875 44.875 
Q 39.84375 48.484375 34.078125 48.484375 
Q 30.515625 48.484375 27.296875 47.0625 
Q 24.078125 45.65625 21.78125 43.109375 
Q 18.0625 38.921875 15.984375 33.234375 
Q 13.921875 27.546875 13.921875 21.484375 
Q 13.921875 14.75 17.0625 11.125 
Q 20.21875 7.515625 26.125 7.515625 
Q 34.671875 7.515625 40.375 15.25 
Q 46.09375 23 46.09375 34.625 
z
" id="DejaVuSans-Oblique-103"/>
       <path d="M 48.09375 32.234375 
Q 48.25 33.015625 48.3125 33.84375 
Q 48.390625 34.671875 48.390625 35.5 
Q 48.390625 41.453125 44.890625 44.921875 
Q 41.40625 48.390625 35.40625 48.390625 
Q 28.71875 48.390625 23.578125 44.15625 
Q 18.453125 39.9375 15.828125 32.171875 
z
M 55.90625 25.203125 
L 14.109375 25.203125 
Q 13.8125 23.34375 13.71875 22.265625 
Q 13.625 21.1875 13.625 20.40625 
Q 13.625 13.625 17.796875 9.90625 
Q 21.96875 6.203125 29.59375 6.203125 
Q 35.453125 6.203125 40.671875 7.515625 
Q 45.90625 8.84375 50.390625 11.375 
L 48.6875 2.484375 
Q 43.84375 0.53125 38.6875 -0.4375 
Q 33.546875 -1.421875 28.21875 -1.421875 
Q 16.84375 -1.421875 10.71875 4.015625 
Q 4.59375 9.46875 4.59375 19.484375 
Q 4.59375 28.03125 7.640625 35.375 
Q 10.6875 42.71875 16.609375 48.484375 
Q 20.40625 52.09375 25.65625 54.046875 
Q 30.90625 56 36.8125 56 
Q 46.09375 56 51.578125 50.4375 
Q 57.078125 44.875 57.078125 35.5 
Q 57.078125 33.25 56.78125 30.6875 
Q 56.5 28.125 55.90625 25.203125 
z
" id="DejaVuSans-Oblique-101"/>
      </defs>
      <use transform="translate(0 0.51875)" xlink:href="#DejaVuSans-101"/>
      <use transform="translate(61.523438 0.51875)" xlink:href="#DejaVuSans-83"/>
      <use transform="translate(125 0.51875)" xlink:href="#DejaVuSans-69"/>
      <use transform="translate(188.183594 0.51875)" xlink:href="#DejaVuSans-73"/>
      <use transform="translate(217.675781 0.51875)" xlink:href="#DejaVuSans-85"/>
      <use transform="translate(288.619141 0.51875)" xlink:href="#DejaVuSans-82"/>
      <use transform="translate(359.058594 38.8)scale(0.7)" xlink:href="#DejaVuSans-Oblique-114"/>
      <use transform="translate(387.837891 38.8)scale(0.7)" xlink:href="#DejaVuSans-Oblique-97"/>
      <use transform="translate(430.733398 38.8)scale(0.7)" xlink:href="#DejaVuSans-Oblique-110"/>
      <use transform="translate(475.098633 38.8)scale(0.7)" xlink:href="#DejaVuSans-Oblique-103"/>
      <use transform="translate(519.532227 38.8)scale(0.7)" xlink:href="#DejaVuSans-Oblique-101"/>
     </g>
    </g>
   </g>
  </g>
 </g>
 <defs>
  <clipPath id="pcddd51e90e">
   <rect height="543.6" width="558" x="90" y="86.4"/>
  </clipPath>
 </defs>
</svg>
