<?xml version="1.0" encoding="utf-8" standalone="no"?>
<!DOCTYPE svg PUBLIC "-//W3C//DTD SVG 1.1//EN"
  "http://www.w3.org/Graphics/SVG/1.1/DTD/svg11.dtd">
<!-- Created with matplotlib (https://matplotlib.org/) -->
<svg height="720pt" version="1.1" viewBox="0 0 720 720" width="720pt" xmlns="http://www.w3.org/2000/svg" xmlns:xlink="http://www.w3.org/1999/xlink">
 <metadata>
  <rdf:RDF xmlns:cc="http://creativecommons.org/ns#" xmlns:dc="http://purl.org/dc/elements/1.1/" xmlns:rdf="http://www.w3.org/1999/02/22-rdf-syntax-ns#">
   <cc:Work>
    <dc:type rdf:resource="http://purl.org/dc/dcmitype/StillImage"/>
    <dc:date>2022-07-13T18:53:53.544651</dc:date>
    <dc:format>image/svg+xml</dc:format>
    <dc:creator>
     <cc:Agent>
      <dc:title>Matplotlib v3.3.2, https://matplotlib.org/</dc:title>
     </cc:Agent>
    </dc:creator>
   </cc:Work>
  </rdf:RDF>
 </metadata>
 <defs>
  <style type="text/css">*{stroke-linecap:butt;stroke-linejoin:round;}</style>
 </defs>
 <g id="figure_1">
  <g id="patch_1">
   <path d="M 0 720 
L 720 720 
L 720 0 
L 0 0 
z
" style="fill:none;"/>
  </g>
  <g id="axes_1">
   <g id="patch_2">
    <path d="M 90 630 
L 648 630 
L 648 86.4 
L 90 86.4 
z
" style="fill:#ffffff;"/>
   </g>
   <g id="matplotlib.axis_1">
    <g id="xtick_1">
     <g id="line2d_1">
      <path clip-path="url(#p66bf727f97)" d="M 115.363636 630 
L 115.363636 86.4 
" style="fill:none;stroke:#b0b0b0;stroke-linecap:square;stroke-width:0.8;"/>
     </g>
     <g id="line2d_2">
      <defs>
       <path d="M 0 0 
L 0 3.5 
" id="mb0eaaba1bc" style="stroke:#000000;stroke-width:0.8;"/>
      </defs>
      <g>
       <use style="stroke:#000000;stroke-width:0.8;" x="115.363636" xlink:href="#mb0eaaba1bc" y="630"/>
      </g>
     </g>
     <g id="text_1">
      <!-- 0 -->
      <g transform="translate(112.182386 644.598438)scale(0.1 -0.1)">
       <defs>
        <path d="M 31.78125 66.40625 
Q 24.171875 66.40625 20.328125 58.90625 
Q 16.5 51.421875 16.5 36.375 
Q 16.5 21.390625 20.328125 13.890625 
Q 24.171875 6.390625 31.78125 6.390625 
Q 39.453125 6.390625 43.28125 13.890625 
Q 47.125 21.390625 47.125 36.375 
Q 47.125 51.421875 43.28125 58.90625 
Q 39.453125 66.40625 31.78125 66.40625 
z
M 31.78125 74.21875 
Q 44.046875 74.21875 50.515625 64.515625 
Q 56.984375 54.828125 56.984375 36.375 
Q 56.984375 17.96875 50.515625 8.265625 
Q 44.046875 -1.421875 31.78125 -1.421875 
Q 19.53125 -1.421875 13.0625 8.265625 
Q 6.59375 17.96875 6.59375 36.375 
Q 6.59375 54.828125 13.0625 64.515625 
Q 19.53125 74.21875 31.78125 74.21875 
z
" id="DejaVuSans-48"/>
       </defs>
       <use xlink:href="#DejaVuSans-48"/>
      </g>
     </g>
    </g>
    <g id="xtick_2">
     <g id="line2d_3">
      <path clip-path="url(#p66bf727f97)" d="M 204.987793 630 
L 204.987793 86.4 
" style="fill:none;stroke:#b0b0b0;stroke-linecap:square;stroke-width:0.8;"/>
     </g>
     <g id="line2d_4">
      <g>
       <use style="stroke:#000000;stroke-width:0.8;" x="204.987793" xlink:href="#mb0eaaba1bc" y="630"/>
      </g>
     </g>
     <g id="text_2">
      <!-- 50 -->
      <g transform="translate(198.625293 644.598438)scale(0.1 -0.1)">
       <defs>
        <path d="M 10.796875 72.90625 
L 49.515625 72.90625 
L 49.515625 64.59375 
L 19.828125 64.59375 
L 19.828125 46.734375 
Q 21.96875 47.46875 24.109375 47.828125 
Q 26.265625 48.1875 28.421875 48.1875 
Q 40.625 48.1875 47.75 41.5 
Q 54.890625 34.8125 54.890625 23.390625 
Q 54.890625 11.625 47.5625 5.09375 
Q 40.234375 -1.421875 26.90625 -1.421875 
Q 22.3125 -1.421875 17.546875 -0.640625 
Q 12.796875 0.140625 7.71875 1.703125 
L 7.71875 11.625 
Q 12.109375 9.234375 16.796875 8.0625 
Q 21.484375 6.890625 26.703125 6.890625 
Q 35.15625 6.890625 40.078125 11.328125 
Q 45.015625 15.765625 45.015625 23.390625 
Q 45.015625 31 40.078125 35.4375 
Q 35.15625 39.890625 26.703125 39.890625 
Q 22.75 39.890625 18.8125 39.015625 
Q 14.890625 38.140625 10.796875 36.28125 
z
" id="DejaVuSans-53"/>
       </defs>
       <use xlink:href="#DejaVuSans-53"/>
       <use x="63.623047" xlink:href="#DejaVuSans-48"/>
      </g>
     </g>
    </g>
    <g id="xtick_3">
     <g id="line2d_5">
      <path clip-path="url(#p66bf727f97)" d="M 294.61195 630 
L 294.61195 86.4 
" style="fill:none;stroke:#b0b0b0;stroke-linecap:square;stroke-width:0.8;"/>
     </g>
     <g id="line2d_6">
      <g>
       <use style="stroke:#000000;stroke-width:0.8;" x="294.61195" xlink:href="#mb0eaaba1bc" y="630"/>
      </g>
     </g>
     <g id="text_3">
      <!-- 100 -->
      <g transform="translate(285.0682 644.598438)scale(0.1 -0.1)">
       <defs>
        <path d="M 12.40625 8.296875 
L 28.515625 8.296875 
L 28.515625 63.921875 
L 10.984375 60.40625 
L 10.984375 69.390625 
L 28.421875 72.90625 
L 38.28125 72.90625 
L 38.28125 8.296875 
L 54.390625 8.296875 
L 54.390625 0 
L 12.40625 0 
z
" id="DejaVuSans-49"/>
       </defs>
       <use xlink:href="#DejaVuSans-49"/>
       <use x="63.623047" xlink:href="#DejaVuSans-48"/>
       <use x="127.246094" xlink:href="#DejaVuSans-48"/>
      </g>
     </g>
    </g>
    <g id="xtick_4">
     <g id="line2d_7">
      <path clip-path="url(#p66bf727f97)" d="M 384.236107 630 
L 384.236107 86.4 
" style="fill:none;stroke:#b0b0b0;stroke-linecap:square;stroke-width:0.8;"/>
     </g>
     <g id="line2d_8">
      <g>
       <use style="stroke:#000000;stroke-width:0.8;" x="384.236107" xlink:href="#mb0eaaba1bc" y="630"/>
      </g>
     </g>
     <g id="text_4">
      <!-- 150 -->
      <g transform="translate(374.692357 644.598438)scale(0.1 -0.1)">
       <use xlink:href="#DejaVuSans-49"/>
       <use x="63.623047" xlink:href="#DejaVuSans-53"/>
       <use x="127.246094" xlink:href="#DejaVuSans-48"/>
      </g>
     </g>
    </g>
    <g id="xtick_5">
     <g id="line2d_9">
      <path clip-path="url(#p66bf727f97)" d="M 473.860263 630 
L 473.860263 86.4 
" style="fill:none;stroke:#b0b0b0;stroke-linecap:square;stroke-width:0.8;"/>
     </g>
     <g id="line2d_10">
      <g>
       <use style="stroke:#000000;stroke-width:0.8;" x="473.860263" xlink:href="#mb0eaaba1bc" y="630"/>
      </g>
     </g>
     <g id="text_5">
      <!-- 200 -->
      <g transform="translate(464.316513 644.598438)scale(0.1 -0.1)">
       <defs>
        <path d="M 19.1875 8.296875 
L 53.609375 8.296875 
L 53.609375 0 
L 7.328125 0 
L 7.328125 8.296875 
Q 12.9375 14.109375 22.625 23.890625 
Q 32.328125 33.6875 34.8125 36.53125 
Q 39.546875 41.84375 41.421875 45.53125 
Q 43.3125 49.21875 43.3125 52.78125 
Q 43.3125 58.59375 39.234375 62.25 
Q 35.15625 65.921875 28.609375 65.921875 
Q 23.96875 65.921875 18.8125 64.3125 
Q 13.671875 62.703125 7.8125 59.421875 
L 7.8125 69.390625 
Q 13.765625 71.78125 18.9375 73 
Q 24.125 74.21875 28.421875 74.21875 
Q 39.75 74.21875 46.484375 68.546875 
Q 53.21875 62.890625 53.21875 53.421875 
Q 53.21875 48.921875 51.53125 44.890625 
Q 49.859375 40.875 45.40625 35.40625 
Q 44.1875 33.984375 37.640625 27.21875 
Q 31.109375 20.453125 19.1875 8.296875 
z
" id="DejaVuSans-50"/>
       </defs>
       <use xlink:href="#DejaVuSans-50"/>
       <use x="63.623047" xlink:href="#DejaVuSans-48"/>
       <use x="127.246094" xlink:href="#DejaVuSans-48"/>
      </g>
     </g>
    </g>
    <g id="xtick_6">
     <g id="line2d_11">
      <path clip-path="url(#p66bf727f97)" d="M 563.48442 630 
L 563.48442 86.4 
" style="fill:none;stroke:#b0b0b0;stroke-linecap:square;stroke-width:0.8;"/>
     </g>
     <g id="line2d_12">
      <g>
       <use style="stroke:#000000;stroke-width:0.8;" x="563.48442" xlink:href="#mb0eaaba1bc" y="630"/>
      </g>
     </g>
     <g id="text_6">
      <!-- 250 -->
      <g transform="translate(553.94067 644.598438)scale(0.1 -0.1)">
       <use xlink:href="#DejaVuSans-50"/>
       <use x="63.623047" xlink:href="#DejaVuSans-53"/>
       <use x="127.246094" xlink:href="#DejaVuSans-48"/>
      </g>
     </g>
    </g>
    <g id="text_7">
     <!-- Days -->
     <g transform="translate(356.521875 658.276562)scale(0.1 -0.1)">
      <defs>
       <path d="M 19.671875 64.796875 
L 19.671875 8.109375 
L 31.59375 8.109375 
Q 46.6875 8.109375 53.6875 14.9375 
Q 60.6875 21.78125 60.6875 36.53125 
Q 60.6875 51.171875 53.6875 57.984375 
Q 46.6875 64.796875 31.59375 64.796875 
z
M 9.8125 72.90625 
L 30.078125 72.90625 
Q 51.265625 72.90625 61.171875 64.09375 
Q 71.09375 55.28125 71.09375 36.53125 
Q 71.09375 17.671875 61.125 8.828125 
Q 51.171875 0 30.078125 0 
L 9.8125 0 
z
" id="DejaVuSans-68"/>
       <path d="M 34.28125 27.484375 
Q 23.390625 27.484375 19.1875 25 
Q 14.984375 22.515625 14.984375 16.5 
Q 14.984375 11.71875 18.140625 8.90625 
Q 21.296875 6.109375 26.703125 6.109375 
Q 34.1875 6.109375 38.703125 11.40625 
Q 43.21875 16.703125 43.21875 25.484375 
L 43.21875 27.484375 
z
M 52.203125 31.203125 
L 52.203125 0 
L 43.21875 0 
L 43.21875 8.296875 
Q 40.140625 3.328125 35.546875 0.953125 
Q 30.953125 -1.421875 24.3125 -1.421875 
Q 15.921875 -1.421875 10.953125 3.296875 
Q 6 8.015625 6 15.921875 
Q 6 25.140625 12.171875 29.828125 
Q 18.359375 34.515625 30.609375 34.515625 
L 43.21875 34.515625 
L 43.21875 35.40625 
Q 43.21875 41.609375 39.140625 45 
Q 35.0625 48.390625 27.6875 48.390625 
Q 23 48.390625 18.546875 47.265625 
Q 14.109375 46.140625 10.015625 43.890625 
L 10.015625 52.203125 
Q 14.9375 54.109375 19.578125 55.046875 
Q 24.21875 56 28.609375 56 
Q 40.484375 56 46.34375 49.84375 
Q 52.203125 43.703125 52.203125 31.203125 
z
" id="DejaVuSans-97"/>
       <path d="M 32.171875 -5.078125 
Q 28.375 -14.84375 24.75 -17.8125 
Q 21.140625 -20.796875 15.09375 -20.796875 
L 7.90625 -20.796875 
L 7.90625 -13.28125 
L 13.1875 -13.28125 
Q 16.890625 -13.28125 18.9375 -11.515625 
Q 21 -9.765625 23.484375 -3.21875 
L 25.09375 0.875 
L 2.984375 54.6875 
L 12.5 54.6875 
L 29.59375 11.921875 
L 46.6875 54.6875 
L 56.203125 54.6875 
z
" id="DejaVuSans-121"/>
       <path d="M 44.28125 53.078125 
L 44.28125 44.578125 
Q 40.484375 46.53125 36.375 47.5 
Q 32.28125 48.484375 27.875 48.484375 
Q 21.1875 48.484375 17.84375 46.4375 
Q 14.5 44.390625 14.5 40.28125 
Q 14.5 37.15625 16.890625 35.375 
Q 19.28125 33.59375 26.515625 31.984375 
L 29.59375 31.296875 
Q 39.15625 29.25 43.1875 25.515625 
Q 47.21875 21.78125 47.21875 15.09375 
Q 47.21875 7.46875 41.1875 3.015625 
Q 35.15625 -1.421875 24.609375 -1.421875 
Q 20.21875 -1.421875 15.453125 -0.5625 
Q 10.6875 0.296875 5.421875 2 
L 5.421875 11.28125 
Q 10.40625 8.6875 15.234375 7.390625 
Q 20.0625 6.109375 24.8125 6.109375 
Q 31.15625 6.109375 34.5625 8.28125 
Q 37.984375 10.453125 37.984375 14.40625 
Q 37.984375 18.0625 35.515625 20.015625 
Q 33.0625 21.96875 24.703125 23.78125 
L 21.578125 24.515625 
Q 13.234375 26.265625 9.515625 29.90625 
Q 5.8125 33.546875 5.8125 39.890625 
Q 5.8125 47.609375 11.28125 51.796875 
Q 16.75 56 26.8125 56 
Q 31.78125 56 36.171875 55.265625 
Q 40.578125 54.546875 44.28125 53.078125 
z
" id="DejaVuSans-115"/>
      </defs>
      <use xlink:href="#DejaVuSans-68"/>
      <use x="77.001953" xlink:href="#DejaVuSans-97"/>
      <use x="138.28125" xlink:href="#DejaVuSans-121"/>
      <use x="197.460938" xlink:href="#DejaVuSans-115"/>
     </g>
    </g>
   </g>
   <g id="matplotlib.axis_2">
    <g id="ytick_1">
     <g id="line2d_13">
      <path clip-path="url(#p66bf727f97)" d="M 90 605.29961 
L 648 605.29961 
" style="fill:none;stroke:#b0b0b0;stroke-linecap:square;stroke-width:0.8;"/>
     </g>
     <g id="line2d_14">
      <defs>
       <path d="M 0 0 
L -3.5 0 
" id="mecb7b3058c" style="stroke:#000000;stroke-width:0.8;"/>
      </defs>
      <g>
       <use style="stroke:#000000;stroke-width:0.8;" x="90" xlink:href="#mecb7b3058c" y="605.29961"/>
      </g>
     </g>
     <g id="text_8">
      <!-- 0 -->
      <g transform="translate(76.6375 609.098829)scale(0.1 -0.1)">
       <use xlink:href="#DejaVuSans-48"/>
      </g>
     </g>
    </g>
    <g id="ytick_2">
     <g id="line2d_15">
      <path clip-path="url(#p66bf727f97)" d="M 90 518.290254 
L 648 518.290254 
" style="fill:none;stroke:#b0b0b0;stroke-linecap:square;stroke-width:0.8;"/>
     </g>
     <g id="line2d_16">
      <g>
       <use style="stroke:#000000;stroke-width:0.8;" x="90" xlink:href="#mecb7b3058c" y="518.290254"/>
      </g>
     </g>
     <g id="text_9">
      <!-- 100000 -->
      <g transform="translate(44.825 522.089473)scale(0.1 -0.1)">
       <use xlink:href="#DejaVuSans-49"/>
       <use x="63.623047" xlink:href="#DejaVuSans-48"/>
       <use x="127.246094" xlink:href="#DejaVuSans-48"/>
       <use x="190.869141" xlink:href="#DejaVuSans-48"/>
       <use x="254.492188" xlink:href="#DejaVuSans-48"/>
       <use x="318.115234" xlink:href="#DejaVuSans-48"/>
      </g>
     </g>
    </g>
    <g id="ytick_3">
     <g id="line2d_17">
      <path clip-path="url(#p66bf727f97)" d="M 90 431.280898 
L 648 431.280898 
" style="fill:none;stroke:#b0b0b0;stroke-linecap:square;stroke-width:0.8;"/>
     </g>
     <g id="line2d_18">
      <g>
       <use style="stroke:#000000;stroke-width:0.8;" x="90" xlink:href="#mecb7b3058c" y="431.280898"/>
      </g>
     </g>
     <g id="text_10">
      <!-- 200000 -->
      <g transform="translate(44.825 435.080117)scale(0.1 -0.1)">
       <use xlink:href="#DejaVuSans-50"/>
       <use x="63.623047" xlink:href="#DejaVuSans-48"/>
       <use x="127.246094" xlink:href="#DejaVuSans-48"/>
       <use x="190.869141" xlink:href="#DejaVuSans-48"/>
       <use x="254.492188" xlink:href="#DejaVuSans-48"/>
       <use x="318.115234" xlink:href="#DejaVuSans-48"/>
      </g>
     </g>
    </g>
    <g id="ytick_4">
     <g id="line2d_19">
      <path clip-path="url(#p66bf727f97)" d="M 90 344.271542 
L 648 344.271542 
" style="fill:none;stroke:#b0b0b0;stroke-linecap:square;stroke-width:0.8;"/>
     </g>
     <g id="line2d_20">
      <g>
       <use style="stroke:#000000;stroke-width:0.8;" x="90" xlink:href="#mecb7b3058c" y="344.271542"/>
      </g>
     </g>
     <g id="text_11">
      <!-- 300000 -->
      <g transform="translate(44.825 348.070761)scale(0.1 -0.1)">
       <defs>
        <path d="M 40.578125 39.3125 
Q 47.65625 37.796875 51.625 33 
Q 55.609375 28.21875 55.609375 21.1875 
Q 55.609375 10.40625 48.1875 4.484375 
Q 40.765625 -1.421875 27.09375 -1.421875 
Q 22.515625 -1.421875 17.65625 -0.515625 
Q 12.796875 0.390625 7.625 2.203125 
L 7.625 11.71875 
Q 11.71875 9.328125 16.59375 8.109375 
Q 21.484375 6.890625 26.8125 6.890625 
Q 36.078125 6.890625 40.9375 10.546875 
Q 45.796875 14.203125 45.796875 21.1875 
Q 45.796875 27.640625 41.28125 31.265625 
Q 36.765625 34.90625 28.71875 34.90625 
L 20.21875 34.90625 
L 20.21875 43.015625 
L 29.109375 43.015625 
Q 36.375 43.015625 40.234375 45.921875 
Q 44.09375 48.828125 44.09375 54.296875 
Q 44.09375 59.90625 40.109375 62.90625 
Q 36.140625 65.921875 28.71875 65.921875 
Q 24.65625 65.921875 20.015625 65.03125 
Q 15.375 64.15625 9.8125 62.3125 
L 9.8125 71.09375 
Q 15.4375 72.65625 20.34375 73.4375 
Q 25.25 74.21875 29.59375 74.21875 
Q 40.828125 74.21875 47.359375 69.109375 
Q 53.90625 64.015625 53.90625 55.328125 
Q 53.90625 49.265625 50.4375 45.09375 
Q 46.96875 40.921875 40.578125 39.3125 
z
" id="DejaVuSans-51"/>
       </defs>
       <use xlink:href="#DejaVuSans-51"/>
       <use x="63.623047" xlink:href="#DejaVuSans-48"/>
       <use x="127.246094" xlink:href="#DejaVuSans-48"/>
       <use x="190.869141" xlink:href="#DejaVuSans-48"/>
       <use x="254.492188" xlink:href="#DejaVuSans-48"/>
       <use x="318.115234" xlink:href="#DejaVuSans-48"/>
      </g>
     </g>
    </g>
    <g id="ytick_5">
     <g id="line2d_21">
      <path clip-path="url(#p66bf727f97)" d="M 90 257.262186 
L 648 257.262186 
" style="fill:none;stroke:#b0b0b0;stroke-linecap:square;stroke-width:0.8;"/>
     </g>
     <g id="line2d_22">
      <g>
       <use style="stroke:#000000;stroke-width:0.8;" x="90" xlink:href="#mecb7b3058c" y="257.262186"/>
      </g>
     </g>
     <g id="text_12">
      <!-- 400000 -->
      <g transform="translate(44.825 261.061405)scale(0.1 -0.1)">
       <defs>
        <path d="M 37.796875 64.3125 
L 12.890625 25.390625 
L 37.796875 25.390625 
z
M 35.203125 72.90625 
L 47.609375 72.90625 
L 47.609375 25.390625 
L 58.015625 25.390625 
L 58.015625 17.1875 
L 47.609375 17.1875 
L 47.609375 0 
L 37.796875 0 
L 37.796875 17.1875 
L 4.890625 17.1875 
L 4.890625 26.703125 
z
" id="DejaVuSans-52"/>
       </defs>
       <use xlink:href="#DejaVuSans-52"/>
       <use x="63.623047" xlink:href="#DejaVuSans-48"/>
       <use x="127.246094" xlink:href="#DejaVuSans-48"/>
       <use x="190.869141" xlink:href="#DejaVuSans-48"/>
       <use x="254.492188" xlink:href="#DejaVuSans-48"/>
       <use x="318.115234" xlink:href="#DejaVuSans-48"/>
      </g>
     </g>
    </g>
    <g id="ytick_6">
     <g id="line2d_23">
      <path clip-path="url(#p66bf727f97)" d="M 90 170.25283 
L 648 170.25283 
" style="fill:none;stroke:#b0b0b0;stroke-linecap:square;stroke-width:0.8;"/>
     </g>
     <g id="line2d_24">
      <g>
       <use style="stroke:#000000;stroke-width:0.8;" x="90" xlink:href="#mecb7b3058c" y="170.25283"/>
      </g>
     </g>
     <g id="text_13">
      <!-- 500000 -->
      <g transform="translate(44.825 174.052049)scale(0.1 -0.1)">
       <use xlink:href="#DejaVuSans-53"/>
       <use x="63.623047" xlink:href="#DejaVuSans-48"/>
       <use x="127.246094" xlink:href="#DejaVuSans-48"/>
       <use x="190.869141" xlink:href="#DejaVuSans-48"/>
       <use x="254.492188" xlink:href="#DejaVuSans-48"/>
       <use x="318.115234" xlink:href="#DejaVuSans-48"/>
      </g>
     </g>
    </g>
    <g id="text_14">
     <!-- Cumulative cases -->
     <g transform="translate(38.745312 402.425781)rotate(-90)scale(0.1 -0.1)">
      <defs>
       <path d="M 64.40625 67.28125 
L 64.40625 56.890625 
Q 59.421875 61.53125 53.78125 63.8125 
Q 48.140625 66.109375 41.796875 66.109375 
Q 29.296875 66.109375 22.65625 58.46875 
Q 16.015625 50.828125 16.015625 36.375 
Q 16.015625 21.96875 22.65625 14.328125 
Q 29.296875 6.6875 41.796875 6.6875 
Q 48.140625 6.6875 53.78125 8.984375 
Q 59.421875 11.28125 64.40625 15.921875 
L 64.40625 5.609375 
Q 59.234375 2.09375 53.4375 0.328125 
Q 47.65625 -1.421875 41.21875 -1.421875 
Q 24.65625 -1.421875 15.125 8.703125 
Q 5.609375 18.84375 5.609375 36.375 
Q 5.609375 53.953125 15.125 64.078125 
Q 24.65625 74.21875 41.21875 74.21875 
Q 47.75 74.21875 53.53125 72.484375 
Q 59.328125 70.75 64.40625 67.28125 
z
" id="DejaVuSans-67"/>
       <path d="M 8.5 21.578125 
L 8.5 54.6875 
L 17.484375 54.6875 
L 17.484375 21.921875 
Q 17.484375 14.15625 20.5 10.265625 
Q 23.53125 6.390625 29.59375 6.390625 
Q 36.859375 6.390625 41.078125 11.03125 
Q 45.3125 15.671875 45.3125 23.6875 
L 45.3125 54.6875 
L 54.296875 54.6875 
L 54.296875 0 
L 45.3125 0 
L 45.3125 8.40625 
Q 42.046875 3.421875 37.71875 1 
Q 33.40625 -1.421875 27.6875 -1.421875 
Q 18.265625 -1.421875 13.375 4.4375 
Q 8.5 10.296875 8.5 21.578125 
z
M 31.109375 56 
z
" id="DejaVuSans-117"/>
       <path d="M 52 44.1875 
Q 55.375 50.25 60.0625 53.125 
Q 64.75 56 71.09375 56 
Q 79.640625 56 84.28125 50.015625 
Q 88.921875 44.046875 88.921875 33.015625 
L 88.921875 0 
L 79.890625 0 
L 79.890625 32.71875 
Q 79.890625 40.578125 77.09375 44.375 
Q 74.3125 48.1875 68.609375 48.1875 
Q 61.625 48.1875 57.5625 43.546875 
Q 53.515625 38.921875 53.515625 30.90625 
L 53.515625 0 
L 44.484375 0 
L 44.484375 32.71875 
Q 44.484375 40.625 41.703125 44.40625 
Q 38.921875 48.1875 33.109375 48.1875 
Q 26.21875 48.1875 22.15625 43.53125 
Q 18.109375 38.875 18.109375 30.90625 
L 18.109375 0 
L 9.078125 0 
L 9.078125 54.6875 
L 18.109375 54.6875 
L 18.109375 46.1875 
Q 21.1875 51.21875 25.484375 53.609375 
Q 29.78125 56 35.6875 56 
Q 41.65625 56 45.828125 52.96875 
Q 50 49.953125 52 44.1875 
z
" id="DejaVuSans-109"/>
       <path d="M 9.421875 75.984375 
L 18.40625 75.984375 
L 18.40625 0 
L 9.421875 0 
z
" id="DejaVuSans-108"/>
       <path d="M 18.3125 70.21875 
L 18.3125 54.6875 
L 36.8125 54.6875 
L 36.8125 47.703125 
L 18.3125 47.703125 
L 18.3125 18.015625 
Q 18.3125 11.328125 20.140625 9.421875 
Q 21.96875 7.515625 27.59375 7.515625 
L 36.8125 7.515625 
L 36.8125 0 
L 27.59375 0 
Q 17.1875 0 13.234375 3.875 
Q 9.28125 7.765625 9.28125 18.015625 
L 9.28125 47.703125 
L 2.6875 47.703125 
L 2.6875 54.6875 
L 9.28125 54.6875 
L 9.28125 70.21875 
z
" id="DejaVuSans-116"/>
       <path d="M 9.421875 54.6875 
L 18.40625 54.6875 
L 18.40625 0 
L 9.421875 0 
z
M 9.421875 75.984375 
L 18.40625 75.984375 
L 18.40625 64.59375 
L 9.421875 64.59375 
z
" id="DejaVuSans-105"/>
       <path d="M 2.984375 54.6875 
L 12.5 54.6875 
L 29.59375 8.796875 
L 46.6875 54.6875 
L 56.203125 54.6875 
L 35.6875 0 
L 23.484375 0 
z
" id="DejaVuSans-118"/>
       <path d="M 56.203125 29.59375 
L 56.203125 25.203125 
L 14.890625 25.203125 
Q 15.484375 15.921875 20.484375 11.0625 
Q 25.484375 6.203125 34.421875 6.203125 
Q 39.59375 6.203125 44.453125 7.46875 
Q 49.3125 8.734375 54.109375 11.28125 
L 54.109375 2.78125 
Q 49.265625 0.734375 44.1875 -0.34375 
Q 39.109375 -1.421875 33.890625 -1.421875 
Q 20.796875 -1.421875 13.15625 6.1875 
Q 5.515625 13.8125 5.515625 26.8125 
Q 5.515625 40.234375 12.765625 48.109375 
Q 20.015625 56 32.328125 56 
Q 43.359375 56 49.78125 48.890625 
Q 56.203125 41.796875 56.203125 29.59375 
z
M 47.21875 32.234375 
Q 47.125 39.59375 43.09375 43.984375 
Q 39.0625 48.390625 32.421875 48.390625 
Q 24.90625 48.390625 20.390625 44.140625 
Q 15.875 39.890625 15.1875 32.171875 
z
" id="DejaVuSans-101"/>
       <path id="DejaVuSans-32"/>
       <path d="M 48.78125 52.59375 
L 48.78125 44.1875 
Q 44.96875 46.296875 41.140625 47.34375 
Q 37.3125 48.390625 33.40625 48.390625 
Q 24.65625 48.390625 19.8125 42.84375 
Q 14.984375 37.3125 14.984375 27.296875 
Q 14.984375 17.28125 19.8125 11.734375 
Q 24.65625 6.203125 33.40625 6.203125 
Q 37.3125 6.203125 41.140625 7.25 
Q 44.96875 8.296875 48.78125 10.40625 
L 48.78125 2.09375 
Q 45.015625 0.34375 40.984375 -0.53125 
Q 36.96875 -1.421875 32.421875 -1.421875 
Q 20.0625 -1.421875 12.78125 6.34375 
Q 5.515625 14.109375 5.515625 27.296875 
Q 5.515625 40.671875 12.859375 48.328125 
Q 20.21875 56 33.015625 56 
Q 37.15625 56 41.109375 55.140625 
Q 45.0625 54.296875 48.78125 52.59375 
z
" id="DejaVuSans-99"/>
      </defs>
      <use xlink:href="#DejaVuSans-67"/>
      <use x="69.824219" xlink:href="#DejaVuSans-117"/>
      <use x="133.203125" xlink:href="#DejaVuSans-109"/>
      <use x="230.615234" xlink:href="#DejaVuSans-117"/>
      <use x="293.994141" xlink:href="#DejaVuSans-108"/>
      <use x="321.777344" xlink:href="#DejaVuSans-97"/>
      <use x="383.056641" xlink:href="#DejaVuSans-116"/>
      <use x="422.265625" xlink:href="#DejaVuSans-105"/>
      <use x="450.048828" xlink:href="#DejaVuSans-118"/>
      <use x="509.228516" xlink:href="#DejaVuSans-101"/>
      <use x="570.751953" xlink:href="#DejaVuSans-32"/>
      <use x="602.539062" xlink:href="#DejaVuSans-99"/>
      <use x="657.519531" xlink:href="#DejaVuSans-97"/>
      <use x="718.798828" xlink:href="#DejaVuSans-115"/>
      <use x="770.898438" xlink:href="#DejaVuSans-101"/>
      <use x="832.421875" xlink:href="#DejaVuSans-115"/>
     </g>
    </g>
   </g>
   <g id="line2d_25">
    <path clip-path="url(#p66bf727f97)" d="M 115.363636 605.290909 
L 167.345647 605.159301 
L 187.062962 604.897008 
L 199.610344 604.51264 
L 208.572759 604.030072 
L 215.742692 603.439368 
L 221.120141 602.82321 
L 226.497591 602.004671 
L 231.87504 600.918588 
L 235.460006 600.004827 
L 239.044973 598.903593 
L 242.629939 597.577845 
L 246.214905 595.983869 
L 249.799872 594.07037 
L 253.384838 591.77757 
L 256.969804 589.036407 
L 260.55477 585.767934 
L 262.347253 583.908513 
L 264.139737 581.883084 
L 265.93222 579.67899 
L 267.724703 577.283032 
L 269.517186 574.681531 
L 271.309669 571.860414 
L 273.102152 568.80532 
L 274.894635 565.501739 
L 276.687119 561.935173 
L 278.479602 558.091335 
L 280.272085 553.956379 
L 282.064568 549.517157 
L 283.857051 544.761518 
L 285.649534 539.678632 
L 289.2345 528.496515 
L 292.819467 515.924301 
L 296.404433 501.96024 
L 299.989399 486.658439 
L 303.574366 470.137073 
L 307.159332 452.581547 
L 312.536781 424.868642 
L 323.29168 368.458089 
L 326.876646 350.589418 
L 330.461613 333.672535 
L 334.046579 317.916452 
L 337.631545 303.463405 
L 341.216511 290.389742 
L 344.801478 278.712566 
L 348.386444 268.400044 
L 350.178927 263.735122 
L 351.97141 259.383297 
L 353.763893 255.332104 
L 355.556376 251.56817 
L 357.34886 248.077498 
L 359.141343 244.84572 
L 360.933826 241.858316 
L 362.726309 239.100803 
L 364.518792 236.558889 
L 366.311275 234.218602 
L 368.103758 232.066392 
L 371.688725 228.274553 
L 375.273691 225.085878 
L 378.858657 222.412727 
L 382.443624 220.177576 
L 386.02859 218.312718 
L 389.613556 216.759631 
L 393.198522 215.468146 
L 396.783489 214.395548 
L 400.368455 213.50567 
L 405.745904 212.448117 
L 411.123354 211.651183 
L 416.500803 211.051347 
L 423.670736 210.476336 
L 432.633151 210.006623 
L 443.38805 209.671905 
L 459.520398 209.422729 
L 486.407645 209.283902 
L 554.522004 209.241813 
L 622.636364 209.240712 
L 622.636364 209.240712 
" style="fill:none;stroke:#1f77b4;stroke-linecap:square;stroke-width:1.5;"/>
   </g>
   <g id="line2d_26">
    <path clip-path="url(#p66bf727f97)" d="M 115.363636 605.290909 
L 124.326052 603.330447 
L 131.495985 601.5608 
L 138.665917 599.592009 
L 145.83585 597.403771 
L 153.005782 594.974227 
L 160.175715 592.27997 
L 167.345647 589.29609 
L 172.723097 586.852333 
L 178.100546 584.219312 
L 183.477996 581.385103 
L 188.855445 578.3375 
L 194.232894 575.064093 
L 199.610344 571.552366 
L 204.987793 567.78981 
L 210.365243 563.764062 
L 215.742692 559.463058 
L 221.120141 554.875211 
L 226.497591 549.989607 
L 231.87504 544.796222 
L 237.25249 539.286154 
L 242.629939 533.451878 
L 248.007388 527.287499 
L 253.384838 520.789025 
L 258.762287 513.954627 
L 264.139737 506.784902 
L 269.517186 499.283113 
L 274.894635 491.455405 
L 280.272085 483.310986 
L 287.442017 471.981018 
L 294.61195 460.14894 
L 301.781882 447.863612 
L 308.951815 435.183877 
L 317.914231 418.883966 
L 330.461613 395.496391 
L 355.556376 348.447807 
L 364.518792 332.116339 
L 373.481208 316.283926 
L 380.65114 304.066829 
L 387.821073 292.311416 
L 394.991005 281.064914 
L 400.368455 272.986565 
L 405.745904 265.227137 
L 411.123354 257.795179 
L 416.500803 250.696209 
L 421.878252 243.932906 
L 427.255702 237.505333 
L 432.633151 231.411184 
L 438.010601 225.646039 
L 443.38805 220.203639 
L 448.7655 215.076143 
L 454.142949 210.254394 
L 459.520398 205.728161 
L 464.897848 201.486368 
L 470.275297 197.517313 
L 475.652747 193.808854 
L 481.030196 190.348585 
L 486.407645 187.123985 
L 491.785095 184.122552 
L 497.162544 181.331911 
L 502.539994 178.739909 
L 509.709926 175.572463 
L 516.879859 172.71004 
L 524.049791 170.126884 
L 531.219724 167.798691 
L 538.389656 165.702683 
L 545.559589 163.817637 
L 554.522004 161.728173 
L 563.48442 159.902617 
L 572.446836 158.309417 
L 581.409252 156.920354 
L 592.16415 155.487763 
L 602.919049 154.275022 
L 615.466431 153.094497 
L 622.636364 152.516952 
L 622.636364 152.516952 
" style="fill:none;stroke:#ff7f0e;stroke-linecap:square;stroke-width:1.5;"/>
   </g>
   <g id="line2d_27">
    <path clip-path="url(#p66bf727f97)" d="M 115.363636 605.290909 
L 160.175715 605.152383 
L 179.893029 604.883259 
L 192.440411 604.501864 
L 201.402827 604.03399 
L 208.572759 603.471339 
L 215.742692 602.661831 
L 221.120141 601.830306 
L 226.497591 600.740871 
L 230.082557 599.833889 
L 233.667523 598.750256 
L 237.25249 597.45709 
L 240.837456 595.916044 
L 244.422422 594.082674 
L 248.007388 591.905862 
L 251.592355 589.327356 
L 255.177321 586.281536 
L 258.762287 582.695511 
L 262.347253 578.489735 
L 264.139737 576.128065 
L 265.93222 573.57931 
L 267.724703 570.832385 
L 269.517186 567.876204 
L 271.309669 564.699818 
L 273.102152 561.292561 
L 276.687119 553.745267 
L 280.272085 545.161794 
L 283.857051 535.487161 
L 287.442017 524.69161 
L 291.026984 512.778237 
L 294.61195 499.789603 
L 298.196916 485.812092 
L 301.781882 470.976884 
L 307.159332 447.503263 
L 323.29168 375.292504 
L 326.876646 360.287057 
L 330.461613 346.033211 
L 334.046579 332.634243 
L 337.631545 320.154805 
L 341.216511 308.624706 
L 344.801478 298.044374 
L 348.386444 288.391023 
L 351.97141 279.624762 
L 355.556376 271.69412 
L 359.141343 264.54072 
L 362.726309 258.102991 
L 366.311275 252.318978 
L 369.896242 247.128342 
L 373.481208 242.473685 
L 377.066174 238.301369 
L 380.65114 234.561924 
L 384.236107 231.210185 
L 387.821073 228.205231 
L 391.406039 225.510203 
L 394.991005 223.092037 
L 398.575972 220.921172 
L 402.160938 218.971234 
L 405.745904 217.218728 
L 409.330871 215.642742 
L 414.70832 213.569606 
L 420.085769 211.797887 
L 425.463219 210.281929 
L 430.840668 208.98335 
L 438.010601 207.534934 
L 445.180533 206.353054 
L 452.350466 205.387282 
L 461.312881 204.423067 
L 470.275297 203.671612 
L 481.030196 202.984338 
L 493.577578 202.401775 
L 509.709926 201.894572 
L 529.427241 201.513087 
L 556.314488 201.23441 
L 597.5416 201.059917 
L 622.636364 201.0181 
L 622.636364 201.0181 
" style="fill:none;stroke:#2ca02c;stroke-linecap:square;stroke-width:1.5;"/>
   </g>
   <g id="line2d_28">
    <path clip-path="url(#p66bf727f97)" d="M 115.363636 605.290909 
L 122.533569 604.810231 
L 129.703501 604.106918 
L 136.873434 603.157635 
L 144.043367 601.937035 
L 149.420816 600.827139 
L 154.798265 599.536974 
L 160.175715 598.05363 
L 165.553164 596.363615 
L 170.930614 594.452897 
L 176.308063 592.306978 
L 181.685512 589.910973 
L 187.062962 587.249726 
L 192.440411 584.307936 
L 197.817861 581.070326 
L 203.19531 577.521829 
L 208.572759 573.647808 
L 213.950209 569.434304 
L 219.327658 564.868316 
L 224.705108 559.938102 
L 230.082557 554.633506 
L 235.460006 548.946297 
L 240.837456 542.870519 
L 246.214905 536.40284 
L 251.592355 529.542886 
L 256.969804 522.293553 
L 262.347253 514.661274 
L 267.724703 506.656236 
L 273.102152 498.292533 
L 278.479602 489.588229 
L 285.649534 477.491266 
L 292.819467 464.891022 
L 299.989399 451.861193 
L 308.951815 435.097228 
L 321.499197 411.060316 
L 343.008995 369.692744 
L 351.97141 352.892549 
L 360.933826 336.585889 
L 368.103758 323.98528 
L 375.273691 311.840754 
L 382.443624 300.196622 
L 389.613556 289.086183 
L 394.991005 281.117667 
L 400.368455 273.468331 
L 405.745904 266.14128 
L 411.123354 259.137017 
L 416.500803 252.453706 
L 421.878252 246.08746 
L 427.255702 240.032604 
L 432.633151 234.281956 
L 438.010601 228.82707 
L 443.38805 223.658484 
L 448.7655 218.765939 
L 454.142949 214.138577 
L 459.520398 209.76512 
L 464.897848 205.634036 
L 470.275297 201.733668 
L 475.652747 198.052361 
L 481.030196 194.578561 
L 488.200128 190.250004 
L 495.370061 186.243951 
L 502.539994 182.535217 
L 509.709926 179.099811 
L 516.879859 175.915039 
L 524.049791 172.959572 
L 531.219724 170.213472 
L 540.182139 167.047136 
L 549.144555 164.145795 
L 558.106971 161.479388 
L 567.069386 159.020873 
L 577.824285 156.31115 
L 588.579184 153.829093 
L 601.126566 151.17854 
L 613.673948 148.750786 
L 622.636364 147.132548 
L 622.636364 147.132548 
" style="fill:none;stroke:#d62728;stroke-linecap:square;stroke-width:1.5;"/>
   </g>
   <g id="line2d_29">
    <path clip-path="url(#p66bf727f97)" d="M 115.363636 605.290909 
L 163.760681 605.185101 
L 183.477996 604.949051 
L 196.025377 604.586404 
L 204.987793 604.116322 
L 212.157726 603.52708 
L 217.535175 602.901379 
L 222.912624 602.057692 
L 228.290074 600.922393 
L 231.87504 599.956924 
L 235.460006 598.784036 
L 239.044973 597.361808 
L 242.629939 595.641093 
L 246.214905 593.564846 
L 249.799872 591.067679 
L 253.384838 588.075795 
L 255.177321 586.369085 
L 256.969804 584.507506 
L 258.762287 582.479837 
L 260.55477 580.274587 
L 262.347253 577.880103 
L 264.139737 575.284702 
L 265.93222 572.476815 
L 267.724703 569.445164 
L 269.517186 566.17896 
L 271.309669 562.668117 
L 273.102152 558.903487 
L 276.687119 550.582444 
L 280.272085 541.170855 
L 283.857051 530.654445 
L 287.442017 519.056104 
L 291.026984 506.439843 
L 294.61195 492.911232 
L 298.196916 478.613816 
L 303.574366 456.11287 
L 319.706714 387.203418 
L 325.084163 365.740671 
L 328.669129 352.222061 
L 332.254096 339.420042 
L 335.839062 327.378856 
L 339.424028 316.121035 
L 343.008995 305.650972 
L 346.593961 295.958469 
L 350.178927 287.022046 
L 353.763893 278.811881 
L 357.34886 271.292316 
L 360.933826 264.423942 
L 364.518792 258.165276 
L 368.103758 252.474082 
L 371.688725 247.308375 
L 375.273691 242.627175 
L 378.858657 238.391039 
L 382.443624 234.562431 
L 386.02859 231.105948 
L 389.613556 227.988448 
L 393.198522 225.1791 
L 396.783489 222.649364 
L 400.368455 220.372943 
L 403.953421 218.32569 
L 407.538387 216.48551 
L 411.123354 214.832234 
L 416.500803 212.663055 
L 421.878252 210.818449 
L 427.255702 209.25092 
L 432.633151 207.919615 
L 438.010601 206.78948 
L 445.180533 205.54434 
L 452.350466 204.544651 
L 461.312881 203.56798 
L 470.275297 202.82658 
L 481.030196 202.168989 
L 493.577578 201.632518 
L 509.709926 201.187734 
L 531.219724 200.853594 
L 561.691937 200.637792 
L 613.673948 200.527674 
L 622.636364 200.521 
L 622.636364 200.521 
" style="fill:none;stroke:#9467bd;stroke-linecap:square;stroke-width:1.5;"/>
   </g>
   <g id="line2d_30">
    <path clip-path="url(#p66bf727f97)" d="M 115.363636 605.290909 
L 120.741086 605.200351 
L 126.118535 604.93005 
L 131.495985 604.476518 
L 136.873434 603.831872 
L 142.250883 602.985915 
L 147.628333 601.927139 
L 153.005782 600.643226 
L 158.383232 599.12132 
L 163.760681 597.348214 
L 169.13813 595.310488 
L 174.51558 592.994648 
L 179.893029 590.387275 
L 185.270479 587.475185 
L 190.647928 584.245613 
L 196.025377 580.686408 
L 201.402827 576.786254 
L 206.780276 572.534907 
L 212.157726 567.923441 
L 217.535175 562.944509 
L 222.912624 557.592605 
L 228.290074 551.86432 
L 233.667523 545.758597 
L 239.044973 539.276958 
L 244.422422 532.423708 
L 249.799872 525.206101 
L 255.177321 517.634462 
L 260.55477 509.722252 
L 265.93222 501.48608 
L 273.102152 490.035045 
L 280.272085 478.098219 
L 287.442017 465.738857 
L 296.404433 449.803446 
L 307.159332 430.167017 
L 344.801478 360.849746 
L 353.763893 345.033899 
L 360.933826 332.751931 
L 368.103758 320.851728 
L 375.273691 309.372606 
L 382.443624 298.34552 
L 389.613556 287.793338 
L 396.783489 277.731312 
L 402.160938 270.511662 
L 407.538387 263.573618 
L 412.915837 256.916497 
L 418.293286 250.537996 
L 423.670736 244.434383 
L 429.048185 238.600679 
L 434.425634 233.03084 
L 439.803084 227.717924 
L 445.180533 222.654256 
L 450.557983 217.831573 
L 455.935432 213.24116 
L 461.312881 208.873977 
L 468.482814 203.382291 
L 475.652747 198.248753 
L 482.822679 193.451106 
L 489.992612 188.967361 
L 497.162544 184.776029 
L 504.332477 180.85631 
L 511.502409 177.188225 
L 518.672342 173.752719 
L 525.842274 170.531729 
L 534.80469 166.781301 
L 543.767106 163.308539 
L 552.729521 160.085012 
L 561.691937 157.084762 
L 572.446836 153.746151 
L 583.201735 150.658733 
L 593.956633 147.790328 
L 606.504015 144.683182 
L 619.051397 141.797044 
L 622.636364 141.008276 
L 622.636364 141.008276 
" style="fill:none;stroke:#8c564b;stroke-linecap:square;stroke-width:1.5;"/>
   </g>
   <g id="line2d_31">
    <path clip-path="url(#p66bf727f97)" d="M 115.363636 605.290909 
L 161.968198 605.184238 
L 181.685512 604.948793 
L 194.232894 604.591245 
L 203.19531 604.13142 
L 210.365243 603.558439 
L 215.742692 602.952738 
L 221.120141 602.139119 
L 226.497591 601.04827 
L 230.082557 600.123233 
L 233.667523 599.0019 
L 237.25249 597.64493 
L 240.837456 596.006174 
L 244.422422 594.031991 
L 248.007388 591.66074 
L 251.592355 588.82257 
L 255.177321 585.439708 
L 256.969804 583.51777 
L 258.762287 581.427439 
L 260.55477 579.15736 
L 262.347253 576.696048 
L 264.139737 574.032018 
L 265.93222 571.153938 
L 267.724703 568.050797 
L 269.517186 564.712106 
L 271.309669 561.128107 
L 274.894635 553.190211 
L 278.479602 544.182679 
L 282.064568 534.078139 
L 285.649534 522.883317 
L 289.2345 510.644197 
L 292.819467 497.44818 
L 296.404433 483.422452 
L 301.781882 461.188362 
L 310.744298 422.560175 
L 317.914231 392.010827 
L 323.29168 370.186637 
L 326.876646 356.386855 
L 330.461613 343.285489 
L 334.046579 330.937124 
L 337.631545 319.372855 
L 341.216511 308.603813 
L 344.801478 298.624832 
L 348.386444 289.417947 
L 351.97141 280.955576 
L 355.556376 273.203267 
L 359.141343 266.122007 
L 362.726309 259.670101 
L 366.311275 253.804662 
L 369.896242 248.482752 
L 373.481208 243.662244 
L 377.066174 239.302445 
L 380.65114 235.364522 
L 384.236107 231.81178 
L 387.821073 228.609822 
L 391.406039 225.72662 
L 394.991005 223.132511 
L 398.575972 220.800155 
L 402.160938 218.704449 
L 405.745904 216.822424 
L 409.330871 215.133122 
L 412.915837 213.617467 
L 418.293286 211.632123 
L 423.670736 209.947116 
L 429.048185 208.517913 
L 434.425634 207.306324 
L 441.595567 205.973605 
L 448.7655 204.905653 
L 455.935432 204.05031 
L 464.897848 203.216866 
L 475.652747 202.479614 
L 488.200128 201.880097 
L 502.539994 201.428563 
L 522.257308 201.060853 
L 549.144555 200.815313 
L 592.16415 200.677396 
L 622.636364 200.647517 
L 622.636364 200.647517 
" style="fill:none;stroke:#e377c2;stroke-linecap:square;stroke-width:1.5;"/>
   </g>
   <g id="line2d_32">
    <path clip-path="url(#p66bf727f97)" d="M 115.363636 605.290909 
L 120.741086 605.185172 
L 126.118535 604.875637 
L 131.495985 604.364294 
L 136.873434 603.646363 
L 142.250883 602.714066 
L 147.628333 601.55825 
L 153.005782 600.169111 
L 158.383232 598.536536 
L 163.760681 596.650299 
L 169.13813 594.500196 
L 174.51558 592.076167 
L 179.893029 589.368416 
L 185.270479 586.367533 
L 190.647928 583.064637 
L 196.025377 579.451518 
L 201.402827 575.520793 
L 206.780276 571.266067 
L 212.157726 566.682104 
L 217.535175 561.764993 
L 222.912624 556.512323 
L 228.290074 550.923339 
L 233.667523 544.999105 
L 239.044973 538.742639 
L 244.422422 532.159037 
L 249.799872 525.25557 
L 255.177321 518.041754 
L 260.55477 510.529386 
L 267.724703 500.073136 
L 274.894635 489.150942 
L 282.064568 477.809021 
L 289.2345 466.099684 
L 298.196916 451.034451 
L 308.951815 432.488999 
L 326.876646 401.025284 
L 343.008995 372.849531 
L 353.763893 354.500212 
L 362.726309 339.627689 
L 371.688725 325.228631 
L 378.858657 314.098518 
L 386.02859 303.346216 
L 393.198522 292.994358 
L 400.368455 283.059397 
L 407.538387 273.551964 
L 414.70832 264.477334 
L 421.878252 255.835958 
L 429.048185 247.624028 
L 436.218118 239.834074 
L 443.38805 232.45554 
L 450.557983 225.475352 
L 457.727915 218.878445 
L 464.897848 212.648248 
L 472.06778 206.767125 
L 479.237713 201.216761 
L 486.407645 195.978501 
L 493.577578 191.03363 
L 500.74751 186.363618 
L 507.917443 181.950313 
L 515.087376 177.776093 
L 522.257308 173.823993 
L 531.219724 169.171578 
L 540.182139 164.811011 
L 549.144555 160.714444 
L 558.106971 156.856138 
L 567.069386 153.212451 
L 577.824285 149.093063 
L 588.579184 145.218139 
L 599.334083 141.557895 
L 611.881465 137.524082 
L 622.636364 134.243136 
L 622.636364 134.243136 
" style="fill:none;stroke:#7f7f7f;stroke-linecap:square;stroke-width:1.5;"/>
   </g>
   <g id="line2d_33">
    <path clip-path="url(#p66bf727f97)" d="M 115.363636 605.290909 
L 120.741086 605.175426 
L 126.118535 604.837935 
L 131.495985 604.283984 
L 136.873434 603.512135 
L 142.250883 602.516819 
L 147.628333 601.290009 
L 153.005782 599.822225 
L 158.383232 598.103156 
L 163.760681 596.122055 
L 169.13813 593.868028 
L 174.51558 591.330252 
L 179.893029 588.498168 
L 185.270479 585.361656 
L 190.647928 581.911213 
L 196.025377 578.138131 
L 201.402827 574.034679 
L 206.780276 569.594294 
L 212.157726 564.811764 
L 217.535175 559.68342 
L 222.912624 554.207313 
L 228.290074 548.383396 
L 233.667523 542.21367 
L 239.044973 535.70233 
L 244.422422 528.855869 
L 249.799872 521.683165 
L 255.177321 514.195519 
L 260.55477 506.406663 
L 267.724703 495.581175 
L 274.894635 484.293677 
L 282.064568 472.59542 
L 291.026984 457.482516 
L 299.989399 441.93946 
L 312.536781 419.705226 
L 341.216511 368.636883 
L 351.97141 350.036103 
L 360.933826 334.978685 
L 369.896242 320.416221 
L 377.066174 309.170179 
L 384.236107 298.314595 
L 391.406039 287.871766 
L 398.575972 277.857966 
L 405.745904 268.283841 
L 412.915837 259.154874 
L 420.085769 250.471906 
L 427.255702 242.231691 
L 434.425634 234.427447 
L 441.595567 227.049408 
L 448.7655 220.085347 
L 455.935432 213.521066 
L 463.105365 207.340849 
L 470.275297 201.527864 
L 477.44523 196.06453 
L 484.615162 190.932825 
L 491.785095 186.114559 
L 498.955027 181.591602 
L 506.12496 177.346072 
L 513.294892 173.360489 
L 520.464825 169.617896 
L 527.634757 166.101952 
L 534.80469 162.797005 
L 543.767106 158.939879 
L 552.729521 155.361725 
L 561.691937 152.036996 
L 570.654353 148.942047 
L 579.616768 146.055103 
L 590.371667 142.837338 
L 601.126566 139.859181 
L 611.881465 137.09272 
L 622.636364 134.513134 
L 622.636364 134.513134 
" style="fill:none;stroke:#bcbd22;stroke-linecap:square;stroke-width:1.5;"/>
   </g>
   <g id="line2d_34">
    <path clip-path="url(#p66bf727f97)" d="M 115.363636 605.290909 
L 136.873434 605.211731 
L 142.250883 605.069035 
L 144.043367 605.069035 
L 147.628333 604.784515 
L 153.005782 604.449529 
L 158.383232 603.850904 
L 161.968198 603.34625 
L 170.930614 601.95584 
L 172.723097 601.510353 
L 178.100546 600.679413 
L 183.477996 599.474334 
L 185.270479 598.890501 
L 188.855445 598.370185 
L 194.232894 597.254725 
L 196.025377 596.867533 
L 197.817861 596.078358 
L 203.19531 595.119515 
L 208.572759 593.836997 
L 210.365243 592.65106 
L 215.742692 591.339829 
L 217.535175 590.88738 
L 219.327658 589.897214 
L 221.120141 589.040172 
L 222.912624 586.842315 
L 224.705108 585.77384 
L 226.497591 584.921149 
L 228.290074 583.72651 
L 230.082557 582.828574 
L 233.667523 580.28442 
L 235.460006 577.275637 
L 237.25249 575.842593 
L 239.044973 574.801091 
L 240.837456 573.358475 
L 246.214905 566.553474 
L 248.007388 561.781011 
L 251.592355 557.751607 
L 253.384838 554.688878 
L 258.762287 544.005869 
L 260.55477 535.442408 
L 262.347253 532.215231 
L 264.139737 527.956123 
L 265.93222 524.507073 
L 267.724703 520.741308 
L 269.517186 516.691892 
L 271.309669 513.476897 
L 273.102152 502.002103 
L 274.894635 497.799551 
L 276.687119 493.040139 
L 278.479602 489.970449 
L 282.064568 481.61233 
L 283.857051 477.951847 
L 285.649534 465.779238 
L 287.442017 460.206288 
L 289.2345 456.120329 
L 291.026984 452.715653 
L 294.61195 442.854883 
L 296.404433 436.978271 
L 298.196916 429.859165 
L 299.989399 423.822456 
L 303.574366 414.985786 
L 305.366849 413.332608 
L 307.159332 409.43894 
L 308.951815 403.966051 
L 312.536781 394.428086 
L 314.329264 390.418694 
L 317.914231 383.933887 
L 319.706714 379.889692 
L 326.876646 365.154658 
L 328.669129 362.20156 
L 332.254096 357.722319 
L 335.839062 351.365415 
L 337.631545 348.15912 
L 339.424028 345.527087 
L 341.216511 343.384917 
L 343.008995 341.589044 
L 346.593961 336.202295 
L 348.386444 333.805187 
L 350.178927 331.184465 
L 351.97141 328.9083 
L 355.556376 325.821208 
L 357.34886 323.652065 
L 359.141343 321.267139 
L 360.933826 319.172824 
L 364.518792 315.533222 
L 368.103758 312.598397 
L 375.273691 304.429958 
L 377.066174 302.574049 
L 382.443624 297.690214 
L 386.02859 294.103688 
L 387.821073 292.299984 
L 389.613556 290.766879 
L 391.406039 289.488712 
L 393.198522 287.956477 
L 394.991005 286.261535 
L 400.368455 280.705987 
L 402.160938 278.976241 
L 405.745904 276.258069 
L 407.538387 274.634474 
L 409.330871 272.82729 
L 411.123354 271.268953 
L 412.915837 269.490481 
L 414.70832 268.136616 
L 416.500803 266.959379 
L 418.293286 265.930929 
L 421.878252 262.683739 
L 427.255702 257.638067 
L 430.840668 255.204415 
L 434.425634 252.065988 
L 438.010601 248.583873 
L 439.803084 247.059469 
L 441.595567 245.824807 
L 443.38805 244.437877 
L 445.180533 242.904773 
L 452.350466 236.141535 
L 454.142949 235.039127 
L 457.727915 232.317474 
L 459.520398 230.69388 
L 463.105365 227.028175 
L 466.690331 224.213423 
L 468.482814 223.078821 
L 470.275297 221.457836 
L 472.06778 219.99869 
L 473.860263 218.391627 
L 475.652747 216.999477 
L 481.030196 213.841908 
L 482.822679 212.335776 
L 486.407645 208.555219 
L 489.992612 205.342834 
L 493.577578 202.454123 
L 497.162544 199.322656 
L 498.955027 197.68601 
L 502.539994 194.836454 
L 504.332477 193.479108 
L 506.12496 192.492422 
L 507.917443 191.121154 
L 513.294892 186.461803 
L 516.879859 183.930701 
L 520.464825 182.002574 
L 524.049791 178.951156 
L 525.842274 177.422401 
L 527.634757 176.078107 
L 531.219724 174.049049 
L 533.012207 172.749129 
L 536.597173 169.78124 
L 540.182139 167.122234 
L 543.767106 165.441213 
L 547.352072 162.795259 
L 550.937038 159.930041 
L 552.729521 158.819801 
L 554.522004 157.895762 
L 556.314488 157.164883 
L 558.106971 155.824939 
L 559.899454 154.25181 
L 563.48442 151.495354 
L 565.276903 150.34596 
L 568.86187 148.67103 
L 576.031802 143.042395 
L 577.824285 141.8843 
L 581.409252 140.184137 
L 584.994218 137.550364 
L 588.579184 134.892228 
L 590.371667 133.639294 
L 593.956633 131.888665 
L 601.126566 126.374012 
L 602.919049 125.231579 
L 606.504015 123.356528 
L 608.296499 122.044427 
L 610.088982 120.540035 
L 611.881465 119.206182 
L 615.466431 116.183477 
L 620.843881 112.443814 
L 622.636364 111.109091 
L 622.636364 111.109091 
" style="fill:none;stroke:#17becf;stroke-dasharray:14.8,6.4;stroke-dashoffset:0;stroke-width:4;"/>
   </g>
   <g id="patch_3">
    <path d="M 90 630 
L 90 86.4 
" style="fill:none;stroke:#000000;stroke-linecap:square;stroke-linejoin:miter;stroke-width:0.8;"/>
   </g>
   <g id="patch_4">
    <path d="M 648 630 
L 648 86.4 
" style="fill:none;stroke:#000000;stroke-linecap:square;stroke-linejoin:miter;stroke-width:0.8;"/>
   </g>
   <g id="patch_5">
    <path d="M 90 630 
L 648 630 
" style="fill:none;stroke:#000000;stroke-linecap:square;stroke-linejoin:miter;stroke-width:0.8;"/>
   </g>
   <g id="patch_6">
    <path d="M 90 86.4 
L 648 86.4 
" style="fill:none;stroke:#000000;stroke-linecap:square;stroke-linejoin:miter;stroke-width:0.8;"/>
   </g>
   <g id="text_15">
    <!-- Chile relative err =  -->
    <g transform="translate(310.1775 80.4)scale(0.12 -0.12)">
     <defs>
      <path d="M 54.890625 33.015625 
L 54.890625 0 
L 45.90625 0 
L 45.90625 32.71875 
Q 45.90625 40.484375 42.875 44.328125 
Q 39.84375 48.1875 33.796875 48.1875 
Q 26.515625 48.1875 22.3125 43.546875 
Q 18.109375 38.921875 18.109375 30.90625 
L 18.109375 0 
L 9.078125 0 
L 9.078125 75.984375 
L 18.109375 75.984375 
L 18.109375 46.1875 
Q 21.34375 51.125 25.703125 53.5625 
Q 30.078125 56 35.796875 56 
Q 45.21875 56 50.046875 50.171875 
Q 54.890625 44.34375 54.890625 33.015625 
z
" id="DejaVuSans-104"/>
      <path d="M 41.109375 46.296875 
Q 39.59375 47.171875 37.8125 47.578125 
Q 36.03125 48 33.890625 48 
Q 26.265625 48 22.1875 43.046875 
Q 18.109375 38.09375 18.109375 28.8125 
L 18.109375 0 
L 9.078125 0 
L 9.078125 54.6875 
L 18.109375 54.6875 
L 18.109375 46.1875 
Q 20.953125 51.171875 25.484375 53.578125 
Q 30.03125 56 36.53125 56 
Q 37.453125 56 38.578125 55.875 
Q 39.703125 55.765625 41.0625 55.515625 
z
" id="DejaVuSans-114"/>
      <path d="M 10.59375 45.40625 
L 73.1875 45.40625 
L 73.1875 37.203125 
L 10.59375 37.203125 
z
M 10.59375 25.484375 
L 73.1875 25.484375 
L 73.1875 17.1875 
L 10.59375 17.1875 
z
" id="DejaVuSans-61"/>
     </defs>
     <use xlink:href="#DejaVuSans-67"/>
     <use x="69.824219" xlink:href="#DejaVuSans-104"/>
     <use x="133.203125" xlink:href="#DejaVuSans-105"/>
     <use x="160.986328" xlink:href="#DejaVuSans-108"/>
     <use x="188.769531" xlink:href="#DejaVuSans-101"/>
     <use x="250.292969" xlink:href="#DejaVuSans-32"/>
     <use x="282.080078" xlink:href="#DejaVuSans-114"/>
     <use x="320.943359" xlink:href="#DejaVuSans-101"/>
     <use x="382.466797" xlink:href="#DejaVuSans-108"/>
     <use x="410.25" xlink:href="#DejaVuSans-97"/>
     <use x="471.529297" xlink:href="#DejaVuSans-116"/>
     <use x="510.738281" xlink:href="#DejaVuSans-105"/>
     <use x="538.521484" xlink:href="#DejaVuSans-118"/>
     <use x="597.701172" xlink:href="#DejaVuSans-101"/>
     <use x="659.224609" xlink:href="#DejaVuSans-32"/>
     <use x="691.011719" xlink:href="#DejaVuSans-101"/>
     <use x="752.535156" xlink:href="#DejaVuSans-114"/>
     <use x="791.898438" xlink:href="#DejaVuSans-114"/>
     <use x="833.011719" xlink:href="#DejaVuSans-32"/>
     <use x="864.798828" xlink:href="#DejaVuSans-61"/>
     <use x="948.587891" xlink:href="#DejaVuSans-32"/>
    </g>
   </g>
   <g id="legend_1">
    <g id="patch_7">
     <path d="M 97 226.503125 
L 185.6 226.503125 
Q 187.6 226.503125 187.6 224.503125 
L 187.6 93.4 
Q 187.6 91.4 185.6 91.4 
L 97 91.4 
Q 95 91.4 95 93.4 
L 95 224.503125 
Q 95 226.503125 97 226.503125 
z
" style="fill:#ffffff;opacity:0.8;stroke:#cccccc;stroke-linejoin:miter;"/>
    </g>
    <g id="line2d_35">
     <path d="M 99 99.498438 
L 119 99.498438 
" style="fill:none;stroke:#1f77b4;stroke-linecap:square;stroke-width:1.5;"/>
    </g>
    <g id="line2d_36"/>
    <g id="text_16">
     <!-- SI -->
     <g transform="translate(127 102.998438)scale(0.1 -0.1)">
      <defs>
       <path d="M 53.515625 70.515625 
L 53.515625 60.890625 
Q 47.90625 63.578125 42.921875 64.890625 
Q 37.9375 66.21875 33.296875 66.21875 
Q 25.25 66.21875 20.875 63.09375 
Q 16.5 59.96875 16.5 54.203125 
Q 16.5 49.359375 19.40625 46.890625 
Q 22.3125 44.4375 30.421875 42.921875 
L 36.375 41.703125 
Q 47.40625 39.59375 52.65625 34.296875 
Q 57.90625 29 57.90625 20.125 
Q 57.90625 9.515625 50.796875 4.046875 
Q 43.703125 -1.421875 29.984375 -1.421875 
Q 24.8125 -1.421875 18.96875 -0.25 
Q 13.140625 0.921875 6.890625 3.21875 
L 6.890625 13.375 
Q 12.890625 10.015625 18.65625 8.296875 
Q 24.421875 6.59375 29.984375 6.59375 
Q 38.421875 6.59375 43.015625 9.90625 
Q 47.609375 13.234375 47.609375 19.390625 
Q 47.609375 24.75 44.3125 27.78125 
Q 41.015625 30.8125 33.5 32.328125 
L 27.484375 33.5 
Q 16.453125 35.6875 11.515625 40.375 
Q 6.59375 45.0625 6.59375 53.421875 
Q 6.59375 63.09375 13.40625 68.65625 
Q 20.21875 74.21875 32.171875 74.21875 
Q 37.3125 74.21875 42.625 73.28125 
Q 47.953125 72.359375 53.515625 70.515625 
z
" id="DejaVuSans-83"/>
       <path d="M 9.8125 72.90625 
L 19.671875 72.90625 
L 19.671875 0 
L 9.8125 0 
z
" id="DejaVuSans-73"/>
      </defs>
      <use xlink:href="#DejaVuSans-83"/>
      <use x="63.476562" xlink:href="#DejaVuSans-73"/>
     </g>
    </g>
    <g id="line2d_37">
     <path d="M 99 114.176563 
L 119 114.176563 
" style="fill:none;stroke:#ff7f0e;stroke-linecap:square;stroke-width:1.5;"/>
    </g>
    <g id="line2d_38"/>
    <g id="text_17">
     <!-- BD -->
     <g transform="translate(127 117.676563)scale(0.1 -0.1)">
      <defs>
       <path d="M 19.671875 34.8125 
L 19.671875 8.109375 
L 35.5 8.109375 
Q 43.453125 8.109375 47.28125 11.40625 
Q 51.125 14.703125 51.125 21.484375 
Q 51.125 28.328125 47.28125 31.5625 
Q 43.453125 34.8125 35.5 34.8125 
z
M 19.671875 64.796875 
L 19.671875 42.828125 
L 34.28125 42.828125 
Q 41.5 42.828125 45.03125 45.53125 
Q 48.578125 48.25 48.578125 53.8125 
Q 48.578125 59.328125 45.03125 62.0625 
Q 41.5 64.796875 34.28125 64.796875 
z
M 9.8125 72.90625 
L 35.015625 72.90625 
Q 46.296875 72.90625 52.390625 68.21875 
Q 58.5 63.53125 58.5 54.890625 
Q 58.5 48.1875 55.375 44.234375 
Q 52.25 40.28125 46.1875 39.3125 
Q 53.46875 37.75 57.5 32.78125 
Q 61.53125 27.828125 61.53125 20.40625 
Q 61.53125 10.640625 54.890625 5.3125 
Q 48.25 0 35.984375 0 
L 9.8125 0 
z
" id="DejaVuSans-66"/>
      </defs>
      <use xlink:href="#DejaVuSans-66"/>
      <use x="68.603516" xlink:href="#DejaVuSans-68"/>
     </g>
    </g>
    <g id="line2d_39">
     <path d="M 99 128.854688 
L 119 128.854688 
" style="fill:none;stroke:#2ca02c;stroke-linecap:square;stroke-width:1.5;"/>
    </g>
    <g id="line2d_40"/>
    <g id="text_18">
     <!-- SIR -->
     <g transform="translate(127 132.354688)scale(0.1 -0.1)">
      <defs>
       <path d="M 44.390625 34.1875 
Q 47.5625 33.109375 50.5625 29.59375 
Q 53.5625 26.078125 56.59375 19.921875 
L 66.609375 0 
L 56 0 
L 46.6875 18.703125 
Q 43.0625 26.03125 39.671875 28.421875 
Q 36.28125 30.8125 30.421875 30.8125 
L 19.671875 30.8125 
L 19.671875 0 
L 9.8125 0 
L 9.8125 72.90625 
L 32.078125 72.90625 
Q 44.578125 72.90625 50.734375 67.671875 
Q 56.890625 62.453125 56.890625 51.90625 
Q 56.890625 45.015625 53.6875 40.46875 
Q 50.484375 35.9375 44.390625 34.1875 
z
M 19.671875 64.796875 
L 19.671875 38.921875 
L 32.078125 38.921875 
Q 39.203125 38.921875 42.84375 42.21875 
Q 46.484375 45.515625 46.484375 51.90625 
Q 46.484375 58.296875 42.84375 61.546875 
Q 39.203125 64.796875 32.078125 64.796875 
z
" id="DejaVuSans-82"/>
      </defs>
      <use xlink:href="#DejaVuSans-83"/>
      <use x="63.476562" xlink:href="#DejaVuSans-73"/>
      <use x="92.96875" xlink:href="#DejaVuSans-82"/>
     </g>
    </g>
    <g id="line2d_41">
     <path d="M 99 143.532812 
L 119 143.532812 
" style="fill:none;stroke:#d62728;stroke-linecap:square;stroke-width:1.5;"/>
    </g>
    <g id="line2d_42"/>
    <g id="text_19">
     <!-- eSIR -->
     <g transform="translate(127 147.032812)scale(0.1 -0.1)">
      <use xlink:href="#DejaVuSans-101"/>
      <use x="61.523438" xlink:href="#DejaVuSans-83"/>
      <use x="125" xlink:href="#DejaVuSans-73"/>
      <use x="154.492188" xlink:href="#DejaVuSans-82"/>
     </g>
    </g>
    <g id="line2d_43">
     <path d="M 99 158.210938 
L 119 158.210938 
" style="fill:none;stroke:#9467bd;stroke-linecap:square;stroke-width:1.5;"/>
    </g>
    <g id="line2d_44"/>
    <g id="text_20">
     <!-- SEIR -->
     <g transform="translate(127 161.710938)scale(0.1 -0.1)">
      <defs>
       <path d="M 9.8125 72.90625 
L 55.90625 72.90625 
L 55.90625 64.59375 
L 19.671875 64.59375 
L 19.671875 43.015625 
L 54.390625 43.015625 
L 54.390625 34.71875 
L 19.671875 34.71875 
L 19.671875 8.296875 
L 56.78125 8.296875 
L 56.78125 0 
L 9.8125 0 
z
" id="DejaVuSans-69"/>
      </defs>
      <use xlink:href="#DejaVuSans-83"/>
      <use x="63.476562" xlink:href="#DejaVuSans-69"/>
      <use x="126.660156" xlink:href="#DejaVuSans-73"/>
      <use x="156.152344" xlink:href="#DejaVuSans-82"/>
     </g>
    </g>
    <g id="line2d_45">
     <path d="M 99 172.889063 
L 119 172.889063 
" style="fill:none;stroke:#8c564b;stroke-linecap:square;stroke-width:1.5;"/>
    </g>
    <g id="line2d_46"/>
    <g id="text_21">
     <!-- eSEIR -->
     <g transform="translate(127 176.389063)scale(0.1 -0.1)">
      <use xlink:href="#DejaVuSans-101"/>
      <use x="61.523438" xlink:href="#DejaVuSans-83"/>
      <use x="125" xlink:href="#DejaVuSans-69"/>
      <use x="188.183594" xlink:href="#DejaVuSans-73"/>
      <use x="217.675781" xlink:href="#DejaVuSans-82"/>
     </g>
    </g>
    <g id="line2d_47">
     <path d="M 99 187.567188 
L 119 187.567188 
" style="fill:none;stroke:#e377c2;stroke-linecap:square;stroke-width:1.5;"/>
    </g>
    <g id="line2d_48"/>
    <g id="text_22">
     <!-- SEIUR -->
     <g transform="translate(127 191.067188)scale(0.1 -0.1)">
      <defs>
       <path d="M 8.6875 72.90625 
L 18.609375 72.90625 
L 18.609375 28.609375 
Q 18.609375 16.890625 22.84375 11.734375 
Q 27.09375 6.59375 36.625 6.59375 
Q 46.09375 6.59375 50.34375 11.734375 
Q 54.59375 16.890625 54.59375 28.609375 
L 54.59375 72.90625 
L 64.5 72.90625 
L 64.5 27.390625 
Q 64.5 13.140625 57.4375 5.859375 
Q 50.390625 -1.421875 36.625 -1.421875 
Q 22.796875 -1.421875 15.734375 5.859375 
Q 8.6875 13.140625 8.6875 27.390625 
z
" id="DejaVuSans-85"/>
      </defs>
      <use xlink:href="#DejaVuSans-83"/>
      <use x="63.476562" xlink:href="#DejaVuSans-69"/>
      <use x="126.660156" xlink:href="#DejaVuSans-73"/>
      <use x="156.152344" xlink:href="#DejaVuSans-85"/>
      <use x="229.345703" xlink:href="#DejaVuSans-82"/>
     </g>
    </g>
    <g id="line2d_49">
     <path d="M 99 202.245312 
L 119 202.245312 
" style="fill:none;stroke:#7f7f7f;stroke-linecap:square;stroke-width:1.5;"/>
    </g>
    <g id="line2d_50"/>
    <g id="text_23">
     <!-- eSEIUR -->
     <g transform="translate(127 205.745312)scale(0.1 -0.1)">
      <use xlink:href="#DejaVuSans-101"/>
      <use x="61.523438" xlink:href="#DejaVuSans-83"/>
      <use x="125" xlink:href="#DejaVuSans-69"/>
      <use x="188.183594" xlink:href="#DejaVuSans-73"/>
      <use x="217.675781" xlink:href="#DejaVuSans-85"/>
      <use x="290.869141" xlink:href="#DejaVuSans-82"/>
     </g>
    </g>
    <g id="line2d_51">
     <path d="M 99 216.923437 
L 119 216.923437 
" style="fill:none;stroke:#bcbd22;stroke-linecap:square;stroke-width:1.5;"/>
    </g>
    <g id="line2d_52"/>
    <g id="text_24">
     <!-- eSEIUR$^{range}$ -->
     <g transform="translate(127 220.423437)scale(0.1 -0.1)">
      <defs>
       <path d="M 44.578125 46.390625 
Q 43.21875 47.125 41.453125 47.515625 
Q 39.703125 47.90625 37.703125 47.90625 
Q 30.515625 47.90625 25.140625 42.453125 
Q 19.78125 37.015625 18.015625 27.875 
L 12.5 0 
L 3.515625 0 
L 14.203125 54.6875 
L 23.1875 54.6875 
L 21.484375 46.1875 
Q 25.046875 50.921875 30 53.453125 
Q 34.96875 56 40.578125 56 
Q 42.046875 56 43.453125 55.828125 
Q 44.875 55.671875 46.296875 55.28125 
z
" id="DejaVuSans-Oblique-114"/>
       <path d="M 53.71875 31.203125 
L 47.609375 0 
L 38.625 0 
L 40.28125 8.296875 
Q 36.328125 3.421875 31.265625 1 
Q 26.21875 -1.421875 20.015625 -1.421875 
Q 13.03125 -1.421875 8.5625 2.84375 
Q 4.109375 7.125 4.109375 13.8125 
Q 4.109375 23.390625 11.75 28.953125 
Q 19.390625 34.515625 32.8125 34.515625 
L 45.3125 34.515625 
L 45.796875 36.921875 
Q 45.90625 37.3125 45.953125 37.765625 
Q 46 38.234375 46 39.203125 
Q 46 43.5625 42.453125 45.96875 
Q 38.921875 48.390625 32.515625 48.390625 
Q 28.125 48.390625 23.5 47.265625 
Q 18.890625 46.140625 14.015625 43.890625 
L 15.578125 52.203125 
Q 20.65625 54.109375 25.515625 55.046875 
Q 30.375 56 34.90625 56 
Q 44.578125 56 49.625 51.796875 
Q 54.6875 47.609375 54.6875 39.59375 
Q 54.6875 37.984375 54.4375 35.8125 
Q 54.203125 33.640625 53.71875 31.203125 
z
M 44 27.484375 
L 35.015625 27.484375 
Q 23.96875 27.484375 18.671875 24.53125 
Q 13.375 21.578125 13.375 15.375 
Q 13.375 11.078125 16.078125 8.640625 
Q 18.796875 6.203125 23.578125 6.203125 
Q 30.90625 6.203125 36.375 11.453125 
Q 41.84375 16.703125 43.609375 25.484375 
z
" id="DejaVuSans-Oblique-97"/>
       <path d="M 55.71875 33.015625 
L 49.3125 0 
L 40.28125 0 
L 46.6875 32.671875 
Q 47.125 34.96875 47.359375 36.71875 
Q 47.609375 38.484375 47.609375 39.5 
Q 47.609375 43.609375 45.015625 45.890625 
Q 42.4375 48.1875 37.796875 48.1875 
Q 30.5625 48.1875 25.34375 43.375 
Q 20.125 38.578125 18.5 30.328125 
L 12.5 0 
L 3.515625 0 
L 14.109375 54.6875 
L 23.09375 54.6875 
L 21.296875 46.09375 
Q 25.046875 50.828125 30.3125 53.40625 
Q 35.59375 56 41.40625 56 
Q 48.640625 56 52.609375 52.09375 
Q 56.59375 48.1875 56.59375 41.109375 
Q 56.59375 39.359375 56.375 37.359375 
Q 56.15625 35.359375 55.71875 33.015625 
z
" id="DejaVuSans-Oblique-110"/>
       <path d="M 59.625 54.6875 
L 50.296875 6.78125 
Q 47.609375 -7.125 40.015625 -13.953125 
Q 32.421875 -20.796875 19.578125 -20.796875 
Q 14.84375 -20.796875 10.78125 -20.09375 
Q 6.734375 -19.390625 3.21875 -17.921875 
L 4.890625 -9.1875 
Q 8.203125 -11.328125 11.90625 -12.34375 
Q 15.625 -13.375 19.828125 -13.375 
Q 28.375 -13.375 33.859375 -8.703125 
Q 39.359375 -4.046875 41.109375 4.6875 
L 41.890625 8.796875 
Q 38.140625 4.5 33.15625 2.25 
Q 28.171875 0 22.40625 0 
Q 14.109375 0 9.34375 5.484375 
Q 4.59375 10.984375 4.59375 20.609375 
Q 4.59375 28.171875 7.46875 35.421875 
Q 10.359375 42.671875 15.578125 48.296875 
Q 19.046875 52 23.65625 54 
Q 28.265625 56 33.296875 56 
Q 38.8125 56 42.90625 53.4375 
Q 47.015625 50.875 49.03125 46.1875 
L 50.59375 54.6875 
z
M 46.09375 34.625 
Q 46.09375 41.265625 42.96875 44.875 
Q 39.84375 48.484375 34.078125 48.484375 
Q 30.515625 48.484375 27.296875 47.0625 
Q 24.078125 45.65625 21.78125 43.109375 
Q 18.0625 38.921875 15.984375 33.234375 
Q 13.921875 27.546875 13.921875 21.484375 
Q 13.921875 14.75 17.0625 11.125 
Q 20.21875 7.515625 26.125 7.515625 
Q 34.671875 7.515625 40.375 15.25 
Q 46.09375 23 46.09375 34.625 
z
" id="DejaVuSans-Oblique-103"/>
       <path d="M 48.09375 32.234375 
Q 48.25 33.015625 48.3125 33.84375 
Q 48.390625 34.671875 48.390625 35.5 
Q 48.390625 41.453125 44.890625 44.921875 
Q 41.40625 48.390625 35.40625 48.390625 
Q 28.71875 48.390625 23.578125 44.15625 
Q 18.453125 39.9375 15.828125 32.171875 
z
M 55.90625 25.203125 
L 14.109375 25.203125 
Q 13.8125 23.34375 13.71875 22.265625 
Q 13.625 21.1875 13.625 20.40625 
Q 13.625 13.625 17.796875 9.90625 
Q 21.96875 6.203125 29.59375 6.203125 
Q 35.453125 6.203125 40.671875 7.515625 
Q 45.90625 8.84375 50.390625 11.375 
L 48.6875 2.484375 
Q 43.84375 0.53125 38.6875 -0.4375 
Q 33.546875 -1.421875 28.21875 -1.421875 
Q 16.84375 -1.421875 10.71875 4.015625 
Q 4.59375 9.46875 4.59375 19.484375 
Q 4.59375 28.03125 7.640625 35.375 
Q 10.6875 42.71875 16.609375 48.484375 
Q 20.40625 52.09375 25.65625 54.046875 
Q 30.90625 56 36.8125 56 
Q 46.09375 56 51.578125 50.4375 
Q 57.078125 44.875 57.078125 35.5 
Q 57.078125 33.25 56.78125 30.6875 
Q 56.5 28.125 55.90625 25.203125 
z
" id="DejaVuSans-Oblique-101"/>
      </defs>
      <use transform="translate(0 0.51875)" xlink:href="#DejaVuSans-101"/>
      <use transform="translate(61.523438 0.51875)" xlink:href="#DejaVuSans-83"/>
      <use transform="translate(125 0.51875)" xlink:href="#DejaVuSans-69"/>
      <use transform="translate(188.183594 0.51875)" xlink:href="#DejaVuSans-73"/>
      <use transform="translate(217.675781 0.51875)" xlink:href="#DejaVuSans-85"/>
      <use transform="translate(288.619141 0.51875)" xlink:href="#DejaVuSans-82"/>
      <use transform="translate(359.058594 38.8)scale(0.7)" xlink:href="#DejaVuSans-Oblique-114"/>
      <use transform="translate(387.837891 38.8)scale(0.7)" xlink:href="#DejaVuSans-Oblique-97"/>
      <use transform="translate(430.733398 38.8)scale(0.7)" xlink:href="#DejaVuSans-Oblique-110"/>
      <use transform="translate(475.098633 38.8)scale(0.7)" xlink:href="#DejaVuSans-Oblique-103"/>
      <use transform="translate(519.532227 38.8)scale(0.7)" xlink:href="#DejaVuSans-Oblique-101"/>
     </g>
    </g>
   </g>
  </g>
 </g>
 <defs>
  <clipPath id="p66bf727f97">
   <rect height="543.6" width="558" x="90" y="86.4"/>
  </clipPath>
 </defs>
</svg>
