<?xml version="1.0" encoding="utf-8" standalone="no"?>
<!DOCTYPE svg PUBLIC "-//W3C//DTD SVG 1.1//EN"
  "http://www.w3.org/Graphics/SVG/1.1/DTD/svg11.dtd">
<!-- Created with matplotlib (https://matplotlib.org/) -->
<svg height="720pt" version="1.1" viewBox="0 0 720 720" width="720pt" xmlns="http://www.w3.org/2000/svg" xmlns:xlink="http://www.w3.org/1999/xlink">
 <metadata>
  <rdf:RDF xmlns:cc="http://creativecommons.org/ns#" xmlns:dc="http://purl.org/dc/elements/1.1/" xmlns:rdf="http://www.w3.org/1999/02/22-rdf-syntax-ns#">
   <cc:Work>
    <dc:type rdf:resource="http://purl.org/dc/dcmitype/StillImage"/>
    <dc:date>2022-07-13T18:54:02.440434</dc:date>
    <dc:format>image/svg+xml</dc:format>
    <dc:creator>
     <cc:Agent>
      <dc:title>Matplotlib v3.3.2, https://matplotlib.org/</dc:title>
     </cc:Agent>
    </dc:creator>
   </cc:Work>
  </rdf:RDF>
 </metadata>
 <defs>
  <style type="text/css">*{stroke-linecap:butt;stroke-linejoin:round;}</style>
 </defs>
 <g id="figure_1">
  <g id="patch_1">
   <path d="M 0 720 
L 720 720 
L 720 0 
L 0 0 
z
" style="fill:none;"/>
  </g>
  <g id="axes_1">
   <g id="patch_2">
    <path d="M 90 630 
L 648 630 
L 648 86.4 
L 90 86.4 
z
" style="fill:#ffffff;"/>
   </g>
   <g id="matplotlib.axis_1">
    <g id="xtick_1">
     <g id="line2d_1">
      <path clip-path="url(#pcfc5218701)" d="M 115.363636 630 
L 115.363636 86.4 
" style="fill:none;stroke:#b0b0b0;stroke-linecap:square;stroke-width:0.8;"/>
     </g>
     <g id="line2d_2">
      <defs>
       <path d="M 0 0 
L 0 3.5 
" id="m682b19e914" style="stroke:#000000;stroke-width:0.8;"/>
      </defs>
      <g>
       <use style="stroke:#000000;stroke-width:0.8;" x="115.363636" xlink:href="#m682b19e914" y="630"/>
      </g>
     </g>
     <g id="text_1">
      <!-- 0 -->
      <g transform="translate(112.182386 644.598438)scale(0.1 -0.1)">
       <defs>
        <path d="M 31.78125 66.40625 
Q 24.171875 66.40625 20.328125 58.90625 
Q 16.5 51.421875 16.5 36.375 
Q 16.5 21.390625 20.328125 13.890625 
Q 24.171875 6.390625 31.78125 6.390625 
Q 39.453125 6.390625 43.28125 13.890625 
Q 47.125 21.390625 47.125 36.375 
Q 47.125 51.421875 43.28125 58.90625 
Q 39.453125 66.40625 31.78125 66.40625 
z
M 31.78125 74.21875 
Q 44.046875 74.21875 50.515625 64.515625 
Q 56.984375 54.828125 56.984375 36.375 
Q 56.984375 17.96875 50.515625 8.265625 
Q 44.046875 -1.421875 31.78125 -1.421875 
Q 19.53125 -1.421875 13.0625 8.265625 
Q 6.59375 17.96875 6.59375 36.375 
Q 6.59375 54.828125 13.0625 64.515625 
Q 19.53125 74.21875 31.78125 74.21875 
z
" id="DejaVuSans-48"/>
       </defs>
       <use xlink:href="#DejaVuSans-48"/>
      </g>
     </g>
    </g>
    <g id="xtick_2">
     <g id="line2d_3">
      <path clip-path="url(#pcfc5218701)" d="M 210.180969 630 
L 210.180969 86.4 
" style="fill:none;stroke:#b0b0b0;stroke-linecap:square;stroke-width:0.8;"/>
     </g>
     <g id="line2d_4">
      <g>
       <use style="stroke:#000000;stroke-width:0.8;" x="210.180969" xlink:href="#m682b19e914" y="630"/>
      </g>
     </g>
     <g id="text_2">
      <!-- 20 -->
      <g transform="translate(203.818469 644.598438)scale(0.1 -0.1)">
       <defs>
        <path d="M 19.1875 8.296875 
L 53.609375 8.296875 
L 53.609375 0 
L 7.328125 0 
L 7.328125 8.296875 
Q 12.9375 14.109375 22.625 23.890625 
Q 32.328125 33.6875 34.8125 36.53125 
Q 39.546875 41.84375 41.421875 45.53125 
Q 43.3125 49.21875 43.3125 52.78125 
Q 43.3125 58.59375 39.234375 62.25 
Q 35.15625 65.921875 28.609375 65.921875 
Q 23.96875 65.921875 18.8125 64.3125 
Q 13.671875 62.703125 7.8125 59.421875 
L 7.8125 69.390625 
Q 13.765625 71.78125 18.9375 73 
Q 24.125 74.21875 28.421875 74.21875 
Q 39.75 74.21875 46.484375 68.546875 
Q 53.21875 62.890625 53.21875 53.421875 
Q 53.21875 48.921875 51.53125 44.890625 
Q 49.859375 40.875 45.40625 35.40625 
Q 44.1875 33.984375 37.640625 27.21875 
Q 31.109375 20.453125 19.1875 8.296875 
z
" id="DejaVuSans-50"/>
       </defs>
       <use xlink:href="#DejaVuSans-50"/>
       <use x="63.623047" xlink:href="#DejaVuSans-48"/>
      </g>
     </g>
    </g>
    <g id="xtick_3">
     <g id="line2d_5">
      <path clip-path="url(#pcfc5218701)" d="M 304.998301 630 
L 304.998301 86.4 
" style="fill:none;stroke:#b0b0b0;stroke-linecap:square;stroke-width:0.8;"/>
     </g>
     <g id="line2d_6">
      <g>
       <use style="stroke:#000000;stroke-width:0.8;" x="304.998301" xlink:href="#m682b19e914" y="630"/>
      </g>
     </g>
     <g id="text_3">
      <!-- 40 -->
      <g transform="translate(298.635801 644.598438)scale(0.1 -0.1)">
       <defs>
        <path d="M 37.796875 64.3125 
L 12.890625 25.390625 
L 37.796875 25.390625 
z
M 35.203125 72.90625 
L 47.609375 72.90625 
L 47.609375 25.390625 
L 58.015625 25.390625 
L 58.015625 17.1875 
L 47.609375 17.1875 
L 47.609375 0 
L 37.796875 0 
L 37.796875 17.1875 
L 4.890625 17.1875 
L 4.890625 26.703125 
z
" id="DejaVuSans-52"/>
       </defs>
       <use xlink:href="#DejaVuSans-52"/>
       <use x="63.623047" xlink:href="#DejaVuSans-48"/>
      </g>
     </g>
    </g>
    <g id="xtick_4">
     <g id="line2d_7">
      <path clip-path="url(#pcfc5218701)" d="M 399.815633 630 
L 399.815633 86.4 
" style="fill:none;stroke:#b0b0b0;stroke-linecap:square;stroke-width:0.8;"/>
     </g>
     <g id="line2d_8">
      <g>
       <use style="stroke:#000000;stroke-width:0.8;" x="399.815633" xlink:href="#m682b19e914" y="630"/>
      </g>
     </g>
     <g id="text_4">
      <!-- 60 -->
      <g transform="translate(393.453133 644.598438)scale(0.1 -0.1)">
       <defs>
        <path d="M 33.015625 40.375 
Q 26.375 40.375 22.484375 35.828125 
Q 18.609375 31.296875 18.609375 23.390625 
Q 18.609375 15.53125 22.484375 10.953125 
Q 26.375 6.390625 33.015625 6.390625 
Q 39.65625 6.390625 43.53125 10.953125 
Q 47.40625 15.53125 47.40625 23.390625 
Q 47.40625 31.296875 43.53125 35.828125 
Q 39.65625 40.375 33.015625 40.375 
z
M 52.59375 71.296875 
L 52.59375 62.3125 
Q 48.875 64.0625 45.09375 64.984375 
Q 41.3125 65.921875 37.59375 65.921875 
Q 27.828125 65.921875 22.671875 59.328125 
Q 17.53125 52.734375 16.796875 39.40625 
Q 19.671875 43.65625 24.015625 45.921875 
Q 28.375 48.1875 33.59375 48.1875 
Q 44.578125 48.1875 50.953125 41.515625 
Q 57.328125 34.859375 57.328125 23.390625 
Q 57.328125 12.15625 50.6875 5.359375 
Q 44.046875 -1.421875 33.015625 -1.421875 
Q 20.359375 -1.421875 13.671875 8.265625 
Q 6.984375 17.96875 6.984375 36.375 
Q 6.984375 53.65625 15.1875 63.9375 
Q 23.390625 74.21875 37.203125 74.21875 
Q 40.921875 74.21875 44.703125 73.484375 
Q 48.484375 72.75 52.59375 71.296875 
z
" id="DejaVuSans-54"/>
       </defs>
       <use xlink:href="#DejaVuSans-54"/>
       <use x="63.623047" xlink:href="#DejaVuSans-48"/>
      </g>
     </g>
    </g>
    <g id="xtick_5">
     <g id="line2d_9">
      <path clip-path="url(#pcfc5218701)" d="M 494.632965 630 
L 494.632965 86.4 
" style="fill:none;stroke:#b0b0b0;stroke-linecap:square;stroke-width:0.8;"/>
     </g>
     <g id="line2d_10">
      <g>
       <use style="stroke:#000000;stroke-width:0.8;" x="494.632965" xlink:href="#m682b19e914" y="630"/>
      </g>
     </g>
     <g id="text_5">
      <!-- 80 -->
      <g transform="translate(488.270465 644.598438)scale(0.1 -0.1)">
       <defs>
        <path d="M 31.78125 34.625 
Q 24.75 34.625 20.71875 30.859375 
Q 16.703125 27.09375 16.703125 20.515625 
Q 16.703125 13.921875 20.71875 10.15625 
Q 24.75 6.390625 31.78125 6.390625 
Q 38.8125 6.390625 42.859375 10.171875 
Q 46.921875 13.96875 46.921875 20.515625 
Q 46.921875 27.09375 42.890625 30.859375 
Q 38.875 34.625 31.78125 34.625 
z
M 21.921875 38.8125 
Q 15.578125 40.375 12.03125 44.71875 
Q 8.5 49.078125 8.5 55.328125 
Q 8.5 64.0625 14.71875 69.140625 
Q 20.953125 74.21875 31.78125 74.21875 
Q 42.671875 74.21875 48.875 69.140625 
Q 55.078125 64.0625 55.078125 55.328125 
Q 55.078125 49.078125 51.53125 44.71875 
Q 48 40.375 41.703125 38.8125 
Q 48.828125 37.15625 52.796875 32.3125 
Q 56.78125 27.484375 56.78125 20.515625 
Q 56.78125 9.90625 50.3125 4.234375 
Q 43.84375 -1.421875 31.78125 -1.421875 
Q 19.734375 -1.421875 13.25 4.234375 
Q 6.78125 9.90625 6.78125 20.515625 
Q 6.78125 27.484375 10.78125 32.3125 
Q 14.796875 37.15625 21.921875 38.8125 
z
M 18.3125 54.390625 
Q 18.3125 48.734375 21.84375 45.5625 
Q 25.390625 42.390625 31.78125 42.390625 
Q 38.140625 42.390625 41.71875 45.5625 
Q 45.3125 48.734375 45.3125 54.390625 
Q 45.3125 60.0625 41.71875 63.234375 
Q 38.140625 66.40625 31.78125 66.40625 
Q 25.390625 66.40625 21.84375 63.234375 
Q 18.3125 60.0625 18.3125 54.390625 
z
" id="DejaVuSans-56"/>
       </defs>
       <use xlink:href="#DejaVuSans-56"/>
       <use x="63.623047" xlink:href="#DejaVuSans-48"/>
      </g>
     </g>
    </g>
    <g id="xtick_6">
     <g id="line2d_11">
      <path clip-path="url(#pcfc5218701)" d="M 589.450297 630 
L 589.450297 86.4 
" style="fill:none;stroke:#b0b0b0;stroke-linecap:square;stroke-width:0.8;"/>
     </g>
     <g id="line2d_12">
      <g>
       <use style="stroke:#000000;stroke-width:0.8;" x="589.450297" xlink:href="#m682b19e914" y="630"/>
      </g>
     </g>
     <g id="text_6">
      <!-- 100 -->
      <g transform="translate(579.906547 644.598438)scale(0.1 -0.1)">
       <defs>
        <path d="M 12.40625 8.296875 
L 28.515625 8.296875 
L 28.515625 63.921875 
L 10.984375 60.40625 
L 10.984375 69.390625 
L 28.421875 72.90625 
L 38.28125 72.90625 
L 38.28125 8.296875 
L 54.390625 8.296875 
L 54.390625 0 
L 12.40625 0 
z
" id="DejaVuSans-49"/>
       </defs>
       <use xlink:href="#DejaVuSans-49"/>
       <use x="63.623047" xlink:href="#DejaVuSans-48"/>
       <use x="127.246094" xlink:href="#DejaVuSans-48"/>
      </g>
     </g>
    </g>
    <g id="text_7">
     <!-- Days -->
     <g transform="translate(356.521875 658.276562)scale(0.1 -0.1)">
      <defs>
       <path d="M 19.671875 64.796875 
L 19.671875 8.109375 
L 31.59375 8.109375 
Q 46.6875 8.109375 53.6875 14.9375 
Q 60.6875 21.78125 60.6875 36.53125 
Q 60.6875 51.171875 53.6875 57.984375 
Q 46.6875 64.796875 31.59375 64.796875 
z
M 9.8125 72.90625 
L 30.078125 72.90625 
Q 51.265625 72.90625 61.171875 64.09375 
Q 71.09375 55.28125 71.09375 36.53125 
Q 71.09375 17.671875 61.125 8.828125 
Q 51.171875 0 30.078125 0 
L 9.8125 0 
z
" id="DejaVuSans-68"/>
       <path d="M 34.28125 27.484375 
Q 23.390625 27.484375 19.1875 25 
Q 14.984375 22.515625 14.984375 16.5 
Q 14.984375 11.71875 18.140625 8.90625 
Q 21.296875 6.109375 26.703125 6.109375 
Q 34.1875 6.109375 38.703125 11.40625 
Q 43.21875 16.703125 43.21875 25.484375 
L 43.21875 27.484375 
z
M 52.203125 31.203125 
L 52.203125 0 
L 43.21875 0 
L 43.21875 8.296875 
Q 40.140625 3.328125 35.546875 0.953125 
Q 30.953125 -1.421875 24.3125 -1.421875 
Q 15.921875 -1.421875 10.953125 3.296875 
Q 6 8.015625 6 15.921875 
Q 6 25.140625 12.171875 29.828125 
Q 18.359375 34.515625 30.609375 34.515625 
L 43.21875 34.515625 
L 43.21875 35.40625 
Q 43.21875 41.609375 39.140625 45 
Q 35.0625 48.390625 27.6875 48.390625 
Q 23 48.390625 18.546875 47.265625 
Q 14.109375 46.140625 10.015625 43.890625 
L 10.015625 52.203125 
Q 14.9375 54.109375 19.578125 55.046875 
Q 24.21875 56 28.609375 56 
Q 40.484375 56 46.34375 49.84375 
Q 52.203125 43.703125 52.203125 31.203125 
z
" id="DejaVuSans-97"/>
       <path d="M 32.171875 -5.078125 
Q 28.375 -14.84375 24.75 -17.8125 
Q 21.140625 -20.796875 15.09375 -20.796875 
L 7.90625 -20.796875 
L 7.90625 -13.28125 
L 13.1875 -13.28125 
Q 16.890625 -13.28125 18.9375 -11.515625 
Q 21 -9.765625 23.484375 -3.21875 
L 25.09375 0.875 
L 2.984375 54.6875 
L 12.5 54.6875 
L 29.59375 11.921875 
L 46.6875 54.6875 
L 56.203125 54.6875 
z
" id="DejaVuSans-121"/>
       <path d="M 44.28125 53.078125 
L 44.28125 44.578125 
Q 40.484375 46.53125 36.375 47.5 
Q 32.28125 48.484375 27.875 48.484375 
Q 21.1875 48.484375 17.84375 46.4375 
Q 14.5 44.390625 14.5 40.28125 
Q 14.5 37.15625 16.890625 35.375 
Q 19.28125 33.59375 26.515625 31.984375 
L 29.59375 31.296875 
Q 39.15625 29.25 43.1875 25.515625 
Q 47.21875 21.78125 47.21875 15.09375 
Q 47.21875 7.46875 41.1875 3.015625 
Q 35.15625 -1.421875 24.609375 -1.421875 
Q 20.21875 -1.421875 15.453125 -0.5625 
Q 10.6875 0.296875 5.421875 2 
L 5.421875 11.28125 
Q 10.40625 8.6875 15.234375 7.390625 
Q 20.0625 6.109375 24.8125 6.109375 
Q 31.15625 6.109375 34.5625 8.28125 
Q 37.984375 10.453125 37.984375 14.40625 
Q 37.984375 18.0625 35.515625 20.015625 
Q 33.0625 21.96875 24.703125 23.78125 
L 21.578125 24.515625 
Q 13.234375 26.265625 9.515625 29.90625 
Q 5.8125 33.546875 5.8125 39.890625 
Q 5.8125 47.609375 11.28125 51.796875 
Q 16.75 56 26.8125 56 
Q 31.78125 56 36.171875 55.265625 
Q 40.578125 54.546875 44.28125 53.078125 
z
" id="DejaVuSans-115"/>
      </defs>
      <use xlink:href="#DejaVuSans-68"/>
      <use x="77.001953" xlink:href="#DejaVuSans-97"/>
      <use x="138.28125" xlink:href="#DejaVuSans-121"/>
      <use x="197.460938" xlink:href="#DejaVuSans-115"/>
     </g>
    </g>
   </g>
   <g id="matplotlib.axis_2">
    <g id="ytick_1">
     <g id="line2d_13">
      <path clip-path="url(#pcfc5218701)" d="M 90 605.659157 
L 648 605.659157 
" style="fill:none;stroke:#b0b0b0;stroke-linecap:square;stroke-width:0.8;"/>
     </g>
     <g id="line2d_14">
      <defs>
       <path d="M 0 0 
L -3.5 0 
" id="mc09a7571a3" style="stroke:#000000;stroke-width:0.8;"/>
      </defs>
      <g>
       <use style="stroke:#000000;stroke-width:0.8;" x="90" xlink:href="#mc09a7571a3" y="605.659157"/>
      </g>
     </g>
     <g id="text_8">
      <!-- 0 -->
      <g transform="translate(76.6375 609.458375)scale(0.1 -0.1)">
       <use xlink:href="#DejaVuSans-48"/>
      </g>
     </g>
    </g>
    <g id="ytick_2">
     <g id="line2d_15">
      <path clip-path="url(#pcfc5218701)" d="M 90 508.75194 
L 648 508.75194 
" style="fill:none;stroke:#b0b0b0;stroke-linecap:square;stroke-width:0.8;"/>
     </g>
     <g id="line2d_16">
      <g>
       <use style="stroke:#000000;stroke-width:0.8;" x="90" xlink:href="#mc09a7571a3" y="508.75194"/>
      </g>
     </g>
     <g id="text_9">
      <!-- 5000 -->
      <g transform="translate(57.55 512.551159)scale(0.1 -0.1)">
       <defs>
        <path d="M 10.796875 72.90625 
L 49.515625 72.90625 
L 49.515625 64.59375 
L 19.828125 64.59375 
L 19.828125 46.734375 
Q 21.96875 47.46875 24.109375 47.828125 
Q 26.265625 48.1875 28.421875 48.1875 
Q 40.625 48.1875 47.75 41.5 
Q 54.890625 34.8125 54.890625 23.390625 
Q 54.890625 11.625 47.5625 5.09375 
Q 40.234375 -1.421875 26.90625 -1.421875 
Q 22.3125 -1.421875 17.546875 -0.640625 
Q 12.796875 0.140625 7.71875 1.703125 
L 7.71875 11.625 
Q 12.109375 9.234375 16.796875 8.0625 
Q 21.484375 6.890625 26.703125 6.890625 
Q 35.15625 6.890625 40.078125 11.328125 
Q 45.015625 15.765625 45.015625 23.390625 
Q 45.015625 31 40.078125 35.4375 
Q 35.15625 39.890625 26.703125 39.890625 
Q 22.75 39.890625 18.8125 39.015625 
Q 14.890625 38.140625 10.796875 36.28125 
z
" id="DejaVuSans-53"/>
       </defs>
       <use xlink:href="#DejaVuSans-53"/>
       <use x="63.623047" xlink:href="#DejaVuSans-48"/>
       <use x="127.246094" xlink:href="#DejaVuSans-48"/>
       <use x="190.869141" xlink:href="#DejaVuSans-48"/>
      </g>
     </g>
    </g>
    <g id="ytick_3">
     <g id="line2d_17">
      <path clip-path="url(#pcfc5218701)" d="M 90 411.844723 
L 648 411.844723 
" style="fill:none;stroke:#b0b0b0;stroke-linecap:square;stroke-width:0.8;"/>
     </g>
     <g id="line2d_18">
      <g>
       <use style="stroke:#000000;stroke-width:0.8;" x="90" xlink:href="#mc09a7571a3" y="411.844723"/>
      </g>
     </g>
     <g id="text_10">
      <!-- 10000 -->
      <g transform="translate(51.1875 415.643942)scale(0.1 -0.1)">
       <use xlink:href="#DejaVuSans-49"/>
       <use x="63.623047" xlink:href="#DejaVuSans-48"/>
       <use x="127.246094" xlink:href="#DejaVuSans-48"/>
       <use x="190.869141" xlink:href="#DejaVuSans-48"/>
       <use x="254.492188" xlink:href="#DejaVuSans-48"/>
      </g>
     </g>
    </g>
    <g id="ytick_4">
     <g id="line2d_19">
      <path clip-path="url(#pcfc5218701)" d="M 90 314.937506 
L 648 314.937506 
" style="fill:none;stroke:#b0b0b0;stroke-linecap:square;stroke-width:0.8;"/>
     </g>
     <g id="line2d_20">
      <g>
       <use style="stroke:#000000;stroke-width:0.8;" x="90" xlink:href="#mc09a7571a3" y="314.937506"/>
      </g>
     </g>
     <g id="text_11">
      <!-- 15000 -->
      <g transform="translate(51.1875 318.736725)scale(0.1 -0.1)">
       <use xlink:href="#DejaVuSans-49"/>
       <use x="63.623047" xlink:href="#DejaVuSans-53"/>
       <use x="127.246094" xlink:href="#DejaVuSans-48"/>
       <use x="190.869141" xlink:href="#DejaVuSans-48"/>
       <use x="254.492188" xlink:href="#DejaVuSans-48"/>
      </g>
     </g>
    </g>
    <g id="ytick_5">
     <g id="line2d_21">
      <path clip-path="url(#pcfc5218701)" d="M 90 218.03029 
L 648 218.03029 
" style="fill:none;stroke:#b0b0b0;stroke-linecap:square;stroke-width:0.8;"/>
     </g>
     <g id="line2d_22">
      <g>
       <use style="stroke:#000000;stroke-width:0.8;" x="90" xlink:href="#mc09a7571a3" y="218.03029"/>
      </g>
     </g>
     <g id="text_12">
      <!-- 20000 -->
      <g transform="translate(51.1875 221.829508)scale(0.1 -0.1)">
       <use xlink:href="#DejaVuSans-50"/>
       <use x="63.623047" xlink:href="#DejaVuSans-48"/>
       <use x="127.246094" xlink:href="#DejaVuSans-48"/>
       <use x="190.869141" xlink:href="#DejaVuSans-48"/>
       <use x="254.492188" xlink:href="#DejaVuSans-48"/>
      </g>
     </g>
    </g>
    <g id="ytick_6">
     <g id="line2d_23">
      <path clip-path="url(#pcfc5218701)" d="M 90 121.123073 
L 648 121.123073 
" style="fill:none;stroke:#b0b0b0;stroke-linecap:square;stroke-width:0.8;"/>
     </g>
     <g id="line2d_24">
      <g>
       <use style="stroke:#000000;stroke-width:0.8;" x="90" xlink:href="#mc09a7571a3" y="121.123073"/>
      </g>
     </g>
     <g id="text_13">
      <!-- 25000 -->
      <g transform="translate(51.1875 124.922292)scale(0.1 -0.1)">
       <use xlink:href="#DejaVuSans-50"/>
       <use x="63.623047" xlink:href="#DejaVuSans-53"/>
       <use x="127.246094" xlink:href="#DejaVuSans-48"/>
       <use x="190.869141" xlink:href="#DejaVuSans-48"/>
       <use x="254.492188" xlink:href="#DejaVuSans-48"/>
      </g>
     </g>
    </g>
    <g id="text_14">
     <!-- Cumulative cases -->
     <g transform="translate(45.107812 402.425781)rotate(-90)scale(0.1 -0.1)">
      <defs>
       <path d="M 64.40625 67.28125 
L 64.40625 56.890625 
Q 59.421875 61.53125 53.78125 63.8125 
Q 48.140625 66.109375 41.796875 66.109375 
Q 29.296875 66.109375 22.65625 58.46875 
Q 16.015625 50.828125 16.015625 36.375 
Q 16.015625 21.96875 22.65625 14.328125 
Q 29.296875 6.6875 41.796875 6.6875 
Q 48.140625 6.6875 53.78125 8.984375 
Q 59.421875 11.28125 64.40625 15.921875 
L 64.40625 5.609375 
Q 59.234375 2.09375 53.4375 0.328125 
Q 47.65625 -1.421875 41.21875 -1.421875 
Q 24.65625 -1.421875 15.125 8.703125 
Q 5.609375 18.84375 5.609375 36.375 
Q 5.609375 53.953125 15.125 64.078125 
Q 24.65625 74.21875 41.21875 74.21875 
Q 47.75 74.21875 53.53125 72.484375 
Q 59.328125 70.75 64.40625 67.28125 
z
" id="DejaVuSans-67"/>
       <path d="M 8.5 21.578125 
L 8.5 54.6875 
L 17.484375 54.6875 
L 17.484375 21.921875 
Q 17.484375 14.15625 20.5 10.265625 
Q 23.53125 6.390625 29.59375 6.390625 
Q 36.859375 6.390625 41.078125 11.03125 
Q 45.3125 15.671875 45.3125 23.6875 
L 45.3125 54.6875 
L 54.296875 54.6875 
L 54.296875 0 
L 45.3125 0 
L 45.3125 8.40625 
Q 42.046875 3.421875 37.71875 1 
Q 33.40625 -1.421875 27.6875 -1.421875 
Q 18.265625 -1.421875 13.375 4.4375 
Q 8.5 10.296875 8.5 21.578125 
z
M 31.109375 56 
z
" id="DejaVuSans-117"/>
       <path d="M 52 44.1875 
Q 55.375 50.25 60.0625 53.125 
Q 64.75 56 71.09375 56 
Q 79.640625 56 84.28125 50.015625 
Q 88.921875 44.046875 88.921875 33.015625 
L 88.921875 0 
L 79.890625 0 
L 79.890625 32.71875 
Q 79.890625 40.578125 77.09375 44.375 
Q 74.3125 48.1875 68.609375 48.1875 
Q 61.625 48.1875 57.5625 43.546875 
Q 53.515625 38.921875 53.515625 30.90625 
L 53.515625 0 
L 44.484375 0 
L 44.484375 32.71875 
Q 44.484375 40.625 41.703125 44.40625 
Q 38.921875 48.1875 33.109375 48.1875 
Q 26.21875 48.1875 22.15625 43.53125 
Q 18.109375 38.875 18.109375 30.90625 
L 18.109375 0 
L 9.078125 0 
L 9.078125 54.6875 
L 18.109375 54.6875 
L 18.109375 46.1875 
Q 21.1875 51.21875 25.484375 53.609375 
Q 29.78125 56 35.6875 56 
Q 41.65625 56 45.828125 52.96875 
Q 50 49.953125 52 44.1875 
z
" id="DejaVuSans-109"/>
       <path d="M 9.421875 75.984375 
L 18.40625 75.984375 
L 18.40625 0 
L 9.421875 0 
z
" id="DejaVuSans-108"/>
       <path d="M 18.3125 70.21875 
L 18.3125 54.6875 
L 36.8125 54.6875 
L 36.8125 47.703125 
L 18.3125 47.703125 
L 18.3125 18.015625 
Q 18.3125 11.328125 20.140625 9.421875 
Q 21.96875 7.515625 27.59375 7.515625 
L 36.8125 7.515625 
L 36.8125 0 
L 27.59375 0 
Q 17.1875 0 13.234375 3.875 
Q 9.28125 7.765625 9.28125 18.015625 
L 9.28125 47.703125 
L 2.6875 47.703125 
L 2.6875 54.6875 
L 9.28125 54.6875 
L 9.28125 70.21875 
z
" id="DejaVuSans-116"/>
       <path d="M 9.421875 54.6875 
L 18.40625 54.6875 
L 18.40625 0 
L 9.421875 0 
z
M 9.421875 75.984375 
L 18.40625 75.984375 
L 18.40625 64.59375 
L 9.421875 64.59375 
z
" id="DejaVuSans-105"/>
       <path d="M 2.984375 54.6875 
L 12.5 54.6875 
L 29.59375 8.796875 
L 46.6875 54.6875 
L 56.203125 54.6875 
L 35.6875 0 
L 23.484375 0 
z
" id="DejaVuSans-118"/>
       <path d="M 56.203125 29.59375 
L 56.203125 25.203125 
L 14.890625 25.203125 
Q 15.484375 15.921875 20.484375 11.0625 
Q 25.484375 6.203125 34.421875 6.203125 
Q 39.59375 6.203125 44.453125 7.46875 
Q 49.3125 8.734375 54.109375 11.28125 
L 54.109375 2.78125 
Q 49.265625 0.734375 44.1875 -0.34375 
Q 39.109375 -1.421875 33.890625 -1.421875 
Q 20.796875 -1.421875 13.15625 6.1875 
Q 5.515625 13.8125 5.515625 26.8125 
Q 5.515625 40.234375 12.765625 48.109375 
Q 20.015625 56 32.328125 56 
Q 43.359375 56 49.78125 48.890625 
Q 56.203125 41.796875 56.203125 29.59375 
z
M 47.21875 32.234375 
Q 47.125 39.59375 43.09375 43.984375 
Q 39.0625 48.390625 32.421875 48.390625 
Q 24.90625 48.390625 20.390625 44.140625 
Q 15.875 39.890625 15.1875 32.171875 
z
" id="DejaVuSans-101"/>
       <path id="DejaVuSans-32"/>
       <path d="M 48.78125 52.59375 
L 48.78125 44.1875 
Q 44.96875 46.296875 41.140625 47.34375 
Q 37.3125 48.390625 33.40625 48.390625 
Q 24.65625 48.390625 19.8125 42.84375 
Q 14.984375 37.3125 14.984375 27.296875 
Q 14.984375 17.28125 19.8125 11.734375 
Q 24.65625 6.203125 33.40625 6.203125 
Q 37.3125 6.203125 41.140625 7.25 
Q 44.96875 8.296875 48.78125 10.40625 
L 48.78125 2.09375 
Q 45.015625 0.34375 40.984375 -0.53125 
Q 36.96875 -1.421875 32.421875 -1.421875 
Q 20.0625 -1.421875 12.78125 6.34375 
Q 5.515625 14.109375 5.515625 27.296875 
Q 5.515625 40.671875 12.859375 48.328125 
Q 20.21875 56 33.015625 56 
Q 37.15625 56 41.109375 55.140625 
Q 45.0625 54.296875 48.78125 52.59375 
z
" id="DejaVuSans-99"/>
      </defs>
      <use xlink:href="#DejaVuSans-67"/>
      <use x="69.824219" xlink:href="#DejaVuSans-117"/>
      <use x="133.203125" xlink:href="#DejaVuSans-109"/>
      <use x="230.615234" xlink:href="#DejaVuSans-117"/>
      <use x="293.994141" xlink:href="#DejaVuSans-108"/>
      <use x="321.777344" xlink:href="#DejaVuSans-97"/>
      <use x="383.056641" xlink:href="#DejaVuSans-116"/>
      <use x="422.265625" xlink:href="#DejaVuSans-105"/>
      <use x="450.048828" xlink:href="#DejaVuSans-118"/>
      <use x="509.228516" xlink:href="#DejaVuSans-101"/>
      <use x="570.751953" xlink:href="#DejaVuSans-32"/>
      <use x="602.539062" xlink:href="#DejaVuSans-99"/>
      <use x="657.519531" xlink:href="#DejaVuSans-97"/>
      <use x="718.798828" xlink:href="#DejaVuSans-115"/>
      <use x="770.898438" xlink:href="#DejaVuSans-101"/>
      <use x="832.421875" xlink:href="#DejaVuSans-115"/>
     </g>
    </g>
   </g>
   <g id="line2d_25">
    <path clip-path="url(#pcfc5218701)" d="M 115.363636 605.290909 
L 120.104503 605.215597 
L 124.84537 605.124901 
L 129.586236 605.015685 
L 134.327103 604.884181 
L 139.067969 604.725856 
L 143.808836 604.535265 
L 148.549703 604.305868 
L 153.290569 604.029815 
L 158.031436 603.697693 
L 162.772302 603.298219 
L 167.513169 602.817894 
L 172.254036 602.240579 
L 176.994902 601.547015 
L 181.735769 600.714266 
L 186.476636 599.715076 
L 191.217502 598.517157 
L 195.958369 597.082383 
L 200.699235 595.36593 
L 205.440102 593.315367 
L 210.180969 590.869746 
L 214.921835 587.958758 
L 219.662702 584.502051 
L 224.403568 580.408853 
L 229.144435 575.578081 
L 233.885302 569.899186 
L 238.626168 563.254024 
L 243.367035 555.520071 
L 248.107901 546.575315 
L 252.848768 536.305068 
L 257.589635 524.610799 
L 262.330501 511.420778 
L 267.071368 496.701922 
L 271.812234 480.471731 
L 276.553101 462.808669 
L 281.293968 443.859034 
L 286.034834 423.838326 
L 290.775701 403.025617 
L 295.516568 381.750467 
L 300.257434 360.373281 
L 304.998301 339.261405 
L 309.739167 318.764237 
L 314.480034 299.190871 
L 319.220901 280.793168 
L 323.961767 263.755981 
L 328.702634 248.19478 
L 333.4435 234.159701 
L 338.184367 221.644239 
L 342.925234 210.596553 
L 347.6661 200.931533 
L 352.406967 192.542217 
L 357.147833 185.309676 
L 361.8887 179.110946 
L 366.629567 173.824961 
L 371.370433 169.336658 
L 376.1113 165.539554 
L 380.852167 162.337115 
L 385.593033 159.643241 
L 390.3339 157.382135 
L 395.074766 155.487762 
L 399.815633 153.90309 
L 404.5565 152.579196 
L 409.297366 151.474358 
L 414.038233 150.55316 
L 418.779099 149.785655 
L 423.519966 149.1466 
L 428.260833 148.614775 
L 433.001699 148.172379 
L 437.742566 147.804506 
L 442.483432 147.498695 
L 447.224299 147.244539 
L 451.965166 147.033356 
L 456.706032 146.857911 
L 461.446899 146.712177 
L 466.187766 146.591136 
L 470.928632 146.490615 
L 475.669499 146.407142 
L 480.410365 146.33783 
L 485.151232 146.28028 
L 489.892099 146.232498 
L 494.632965 146.192828 
L 499.373832 146.159894 
L 504.114698 146.132553 
L 508.855565 146.109855 
L 513.596432 146.091012 
L 518.337298 146.07537 
L 523.078165 146.062385 
L 527.819031 146.051607 
L 532.559898 146.042659 
L 537.300765 146.035232 
L 542.041631 146.029066 
L 546.782498 146.023948 
L 551.523364 146.0197 
L 556.264231 146.016173 
L 561.005098 146.013246 
L 565.745964 146.010816 
L 570.486831 146.008799 
L 575.227698 146.007125 
L 579.968564 146.005735 
L 584.709431 146.004581 
L 589.450297 146.003624 
L 594.191164 146.002829 
L 598.932031 146.002169 
L 603.672897 146.001621 
L 608.413764 146.001167 
L 613.15463 146.000789 
L 617.895497 146.000476 
L 622.636364 146.000216 
" style="fill:none;stroke:#1f77b4;stroke-linecap:square;stroke-width:1.5;"/>
   </g>
   <g id="line2d_26">
    <path clip-path="url(#pcfc5218701)" d="M 115.363636 605.290909 
L 120.104503 604.690515 
L 124.84537 604.015846 
L 129.586236 603.257966 
L 134.327103 602.40693 
L 139.067969 601.45169 
L 143.808836 600.379993 
L 148.549703 599.178277 
L 153.290569 597.831569 
L 158.031436 596.323377 
L 162.772302 594.635598 
L 167.513169 592.74842 
L 172.254036 590.640253 
L 176.994902 588.287669 
L 181.735769 585.665381 
L 186.476636 582.746251 
L 191.217502 579.50136 
L 195.958369 575.90013 
L 200.699235 571.910528 
L 205.440102 567.49937 
L 210.180969 562.632723 
L 214.921835 557.276434 
L 219.662702 551.396807 
L 224.403568 544.961408 
L 229.144435 537.940035 
L 233.885302 530.305822 
L 238.626168 522.036481 
L 243.367035 513.115631 
L 248.107901 503.534186 
L 252.848768 493.291729 
L 257.589635 482.397804 
L 262.330501 470.873025 
L 267.071368 458.74991 
L 271.812234 446.073347 
L 276.553101 432.900599 
L 281.293968 419.300781 
L 286.034834 405.353791 
L 290.775701 391.14868 
L 295.516568 376.781536 
L 300.257434 362.352963 
L 304.998301 347.965294 
L 309.739167 333.71971 
L 314.480034 319.713419 
L 319.220901 306.037073 
L 323.961767 292.772556 
L 328.702634 279.991256 
L 333.4435 267.752877 
L 338.184367 256.104811 
L 342.925234 245.08204 
L 347.6661 234.707513 
L 352.406967 224.992917 
L 357.147833 215.939741 
L 361.8887 207.54053 
L 366.629567 199.78026 
L 371.370433 192.637718 
L 376.1113 186.086858 
L 380.852167 180.098054 
L 385.593033 174.639239 
L 390.3339 169.676899 
L 395.074766 165.176916 
L 399.815633 161.105266 
L 404.5565 157.428577 
L 409.297366 154.114558 
L 414.038233 151.13232 
L 418.779099 148.452597 
L 423.519966 146.047886 
L 428.260833 143.892525 
L 433.001699 141.962715 
L 437.742566 140.236498 
L 442.483432 138.693713 
L 447.224299 137.315917 
L 451.965166 136.086303 
L 456.706032 134.989602 
L 461.446899 134.011975 
L 466.187766 133.140916 
L 470.928632 132.365142 
L 475.669499 131.674494 
L 480.410365 131.059841 
L 485.151232 130.512988 
L 489.892099 130.026586 
L 494.632965 129.594058 
L 499.373832 129.209519 
L 504.114698 128.867708 
L 508.855565 128.563931 
L 513.596432 128.293994 
L 518.337298 128.054161 
L 523.078165 127.8411 
L 527.819031 127.651841 
L 532.559898 127.483742 
L 537.300765 127.33445 
L 542.041631 127.201869 
L 546.782498 127.084137 
L 551.523364 126.979597 
L 556.264231 126.886776 
L 561.005098 126.804364 
L 565.745964 126.731196 
L 570.486831 126.666238 
L 575.227698 126.60857 
L 579.968564 126.557376 
L 584.709431 126.511931 
L 589.450297 126.471589 
L 594.191164 126.435778 
L 598.932031 126.40399 
L 603.672897 126.375774 
L 608.413764 126.350728 
L 613.15463 126.328496 
L 617.895497 126.308763 
L 622.636364 126.291248 
" style="fill:none;stroke:#ff7f0e;stroke-linecap:square;stroke-width:1.5;"/>
   </g>
   <g id="line2d_27">
    <path clip-path="url(#pcfc5218701)" d="M 115.363636 605.290909 
L 120.104503 605.094668 
L 124.84537 604.864802 
L 129.586236 604.5956 
L 134.327103 604.280394 
L 139.067969 603.911413 
L 143.808836 603.479607 
L 148.549703 602.974448 
L 153.290569 602.383704 
L 158.031436 601.693191 
L 162.772302 600.886491 
L 167.513169 599.944639 
L 172.254036 598.845793 
L 176.994902 597.564869 
L 181.735769 596.073169 
L 186.476636 594.338004 
L 191.217502 592.322327 
L 195.958369 589.984413 
L 200.699235 587.277602 
L 205.440102 584.150172 
L 210.180969 580.545383 
L 214.921835 576.401771 
L 219.662702 571.653767 
L 224.403568 566.232746 
L 229.144435 560.068578 
L 233.885302 553.091781 
L 238.626168 545.236312 
L 243.367035 536.443021 
L 248.107901 526.66368 
L 252.848768 515.86543 
L 257.589635 504.03537 
L 262.330501 491.184867 
L 267.071368 477.353129 
L 271.812234 462.609486 
L 276.553101 447.0539 
L 281.293968 430.815357 
L 286.034834 414.048008 
L 290.775701 396.92525 
L 295.516568 379.632188 
L 300.257434 362.357214 
L 304.998301 345.283512 
L 309.739167 328.581326 
L 314.480034 312.401641 
L 319.220901 296.871717 
L 323.961767 282.092625 
L 328.702634 268.13868 
L 333.4435 255.058476 
L 338.184367 242.877135 
L 342.925234 231.59934 
L 347.6661 221.212749 
L 352.406967 211.691477 
L 357.147833 202.999403 
L 361.8887 195.093151 
L 366.629567 187.92465 
L 371.370433 181.443269 
L 376.1113 175.597521 
L 380.852167 170.336375 
L 385.593033 165.610242 
L 390.3339 161.371662 
L 395.074766 157.575771 
L 399.815633 154.180576 
L 404.5565 151.14709 
L 409.297366 148.439362 
L 414.038233 146.024425 
L 418.779099 143.87219 
L 423.519966 141.955307 
L 428.260833 140.248995 
L 433.001699 138.730872 
L 437.742566 137.380764 
L 442.483432 136.180534 
L 447.224299 135.113898 
L 451.965166 134.166265 
L 456.706032 133.324576 
L 461.446899 132.577157 
L 466.187766 131.913583 
L 470.928632 131.324553 
L 475.669499 130.801775 
L 480.410365 130.33786 
L 485.151232 129.926232 
L 489.892099 129.561037 
L 494.632965 129.237067 
L 499.373832 128.949694 
L 504.114698 128.694801 
L 508.855565 128.468734 
L 513.596432 128.268243 
L 518.337298 128.090445 
L 523.078165 127.932778 
L 527.819031 127.792968 
L 532.559898 127.668998 
L 537.300765 127.559076 
L 542.041631 127.461613 
L 546.782498 127.375199 
L 551.523364 127.298584 
L 556.264231 127.230657 
L 561.005098 127.170434 
L 565.745964 127.117043 
L 570.486831 127.069708 
L 575.227698 127.027744 
L 579.968564 126.990541 
L 584.709431 126.95756 
L 589.450297 126.928322 
L 594.191164 126.902402 
L 598.932031 126.879423 
L 603.672897 126.859053 
L 608.413764 126.840995 
L 613.15463 126.824986 
L 617.895497 126.810795 
L 622.636364 126.798214 
" style="fill:none;stroke:#2ca02c;stroke-linecap:square;stroke-width:1.5;"/>
   </g>
   <g id="line2d_28">
    <path clip-path="url(#pcfc5218701)" d="M 115.363636 605.290909 
L 120.104503 604.927894 
L 124.84537 604.489723 
L 129.586236 603.966636 
L 134.327103 603.347676 
L 139.067969 602.620566 
L 143.808836 601.771579 
L 148.549703 600.7854 
L 153.290569 599.64499 
L 158.031436 598.331454 
L 162.772302 596.823908 
L 167.513169 595.099369 
L 172.254036 593.132663 
L 176.994902 590.896369 
L 181.735769 588.360804 
L 186.476636 585.494081 
L 191.217502 582.26224 
L 195.958369 578.629485 
L 200.699235 574.55854 
L 205.440102 570.011158 
L 210.180969 564.948792 
L 214.921835 559.333453 
L 219.662702 553.128764 
L 224.403568 546.301209 
L 229.144435 538.82156 
L 233.885302 530.666454 
L 238.626168 521.820058 
L 243.367035 512.275746 
L 248.107901 502.037681 
L 252.848768 491.122185 
L 257.589635 479.558765 
L 262.330501 467.390657 
L 267.071368 454.674794 
L 271.812234 441.481109 
L 276.553101 427.891153 
L 281.293968 413.996061 
L 286.034834 399.89397 
L 290.775701 385.687039 
L 295.516568 371.478265 
L 300.257434 357.368315 
L 304.998301 343.452583 
L 309.739167 329.818654 
L 314.480034 316.544292 
L 319.220901 303.696057 
L 323.961767 291.328534 
L 328.702634 279.484163 
L 333.4435 268.193578 
L 338.184367 257.476359 
L 342.925234 247.342086 
L 347.6661 237.791577 
L 352.406967 228.818217 
L 357.147833 220.409293 
L 361.8887 212.547268 
L 366.629567 205.210958 
L 371.370433 198.37657 
L 376.1113 192.018609 
L 380.852167 186.110636 
L 385.593033 180.625885 
L 390.3339 175.537757 
L 395.074766 170.820206 
L 399.815633 166.448019 
L 404.5565 162.397022 
L 409.297366 158.644214 
L 414.038233 155.167852 
L 418.779099 151.947486 
L 423.519966 148.963968 
L 428.260833 146.199432 
L 433.001699 143.637254 
L 437.742566 141.262008 
L 442.483432 139.059404 
L 447.224299 137.016224 
L 451.965166 135.12026 
L 456.706032 133.360242 
L 461.446899 131.725781 
L 466.187766 130.207297 
L 470.928632 128.795964 
L 475.669499 127.483651 
L 480.410365 126.262868 
L 485.151232 125.126715 
L 489.892099 124.068835 
L 494.632965 123.08337 
L 499.373832 122.16492 
L 504.114698 121.308509 
L 508.855565 120.509546 
L 513.596432 119.763797 
L 518.337298 119.067353 
L 523.078165 118.416607 
L 527.819031 117.808226 
L 532.559898 117.239134 
L 537.300765 116.706483 
L 542.041631 116.207645 
L 546.782498 115.740187 
L 551.523364 115.301856 
L 556.264231 114.890569 
L 561.005098 114.504397 
L 565.745964 114.141553 
L 570.486831 113.800381 
L 575.227698 113.479347 
L 579.968564 113.177028 
L 584.709431 112.892104 
L 589.450297 112.623353 
L 594.191164 112.369638 
L 598.932031 112.129906 
L 603.672897 111.903178 
L 608.413764 111.688547 
L 613.15463 111.485168 
L 617.895497 111.292259 
L 622.636364 111.109091 
" style="fill:none;stroke:#d62728;stroke-linecap:square;stroke-width:1.5;"/>
   </g>
   <g id="line2d_29">
    <path clip-path="url(#pcfc5218701)" d="M 115.363636 605.290909 
L 120.104503 605.265576 
L 124.84537 605.198449 
L 129.586236 605.096152 
L 134.327103 604.959282 
L 139.067969 604.784506 
L 143.808836 604.565527 
L 148.549703 604.293425 
L 153.290569 603.956611 
L 158.031436 603.540544 
L 162.772302 603.027263 
L 167.513169 602.394774 
L 172.254036 601.616307 
L 176.994902 600.659459 
L 181.735769 599.485246 
L 186.476636 598.047097 
L 191.217502 596.289851 
L 195.958369 594.148871 
L 200.699235 591.549418 
L 205.440102 588.406503 
L 210.180969 584.625512 
L 214.921835 580.103926 
L 219.662702 574.734517 
L 224.403568 568.410331 
L 229.144435 561.031593 
L 233.885302 552.51439 
L 238.626168 542.800494 
L 243.367035 531.867167 
L 248.107901 519.735341 
L 252.848768 506.474379 
L 257.589635 492.201976 
L 262.330501 477.078544 
L 267.071368 461.296645 
L 271.812234 445.067107 
L 276.553101 428.604168 
L 281.293968 412.111957 
L 286.034834 395.774026 
L 290.775701 379.746738 
L 295.516568 364.15643 
L 300.257434 349.099654 
L 304.998301 334.645563 
L 309.739167 320.839488 
L 314.480034 307.706975 
L 319.220901 295.257748 
L 323.961767 283.48929 
L 328.702634 272.389926 
L 333.4435 261.941351 
L 338.184367 252.120655 
L 342.925234 242.901904 
L 347.6661 234.257352 
L 352.406967 226.158351 
L 357.147833 218.576031 
L 361.8887 211.481785 
L 366.629567 204.847626 
L 371.370433 198.646429 
L 376.1113 192.852091 
L 380.852167 187.439639 
L 385.593033 182.385281 
L 390.3339 177.666435 
L 395.074766 173.261727 
L 399.815633 169.150973 
L 404.5565 165.315148 
L 409.297366 161.736351 
L 414.038233 158.397757 
L 418.779099 155.283574 
L 423.519966 152.378988 
L 428.260833 149.670118 
L 433.001699 147.143963 
L 437.742566 144.788355 
L 442.483432 142.591911 
L 447.224299 140.543986 
L 451.965166 138.634629 
L 456.706032 136.854541 
L 461.446899 135.195036 
L 466.187766 133.648 
L 470.928632 132.205859 
L 475.669499 130.861539 
L 480.410365 129.608439 
L 485.151232 128.440398 
L 489.892099 127.351665 
L 494.632965 126.336878 
L 499.373832 125.391032 
L 504.114698 124.509458 
L 508.855565 123.687801 
L 513.596432 122.922001 
L 518.337298 122.20827 
L 523.078165 121.543075 
L 527.819031 120.923124 
L 532.559898 120.345345 
L 537.300765 119.806874 
L 542.041631 119.305041 
L 546.782498 118.837358 
L 551.523364 118.401504 
L 556.264231 117.995316 
L 561.005098 117.616777 
L 565.745964 117.264006 
L 570.486831 116.935252 
L 575.227698 116.628882 
L 579.968564 116.343372 
L 584.709431 116.077303 
L 589.450297 115.829353 
L 594.191164 115.598289 
L 598.932031 115.382961 
L 603.672897 115.182299 
L 608.413764 114.995303 
L 613.15463 114.821045 
L 617.895497 114.658656 
L 622.636364 114.507329 
" style="fill:none;stroke:#9467bd;stroke-linecap:square;stroke-width:1.5;"/>
   </g>
   <g id="line2d_30">
    <path clip-path="url(#pcfc5218701)" d="M 115.363636 605.290909 
L 120.104503 605.230324 
L 124.84537 605.053793 
L 129.586236 604.76358 
L 134.327103 604.356207 
L 139.067969 603.823883 
L 143.808836 603.155388 
L 148.549703 602.336587 
L 153.290569 601.350725 
L 158.031436 600.17857 
L 162.772302 598.798477 
L 167.513169 597.186405 
L 172.254036 595.31593 
L 176.994902 593.158272 
L 181.735769 590.682372 
L 186.476636 587.855028 
L 191.217502 584.641127 
L 195.958369 581.003997 
L 200.699235 576.905882 
L 205.440102 572.308592 
L 210.180969 567.174316 
L 214.921835 561.466617 
L 219.662702 555.151615 
L 224.403568 548.199318 
L 229.144435 540.585091 
L 233.885302 532.291189 
L 238.626168 523.308282 
L 243.367035 513.63689 
L 248.107901 503.288598 
L 252.848768 492.286963 
L 257.589635 480.667995 
L 262.330501 468.480131 
L 267.071368 455.783657 
L 271.812234 442.649568 
L 276.553101 429.157898 
L 281.293968 415.395623 
L 286.034834 401.454246 
L 290.775701 387.427219 
L 295.516568 373.407371 
L 300.257434 359.484472 
L 304.998301 345.743083 
L 309.739167 332.260772 
L 314.480034 319.106764 
L 319.220901 306.341029 
L 323.961767 294.013818 
L 328.702634 282.165572 
L 333.4435 270.827186 
L 338.184367 260.020517 
L 342.925234 249.759108 
L 347.6661 240.049025 
L 352.406967 230.889778 
L 357.147833 222.275251 
L 361.8887 214.194626 
L 366.629567 206.633254 
L 371.370433 199.573462 
L 376.1113 192.995279 
L 380.852167 186.877084 
L 385.593033 181.196166 
L 390.3339 175.929196 
L 395.074766 171.052632 
L 399.815633 166.543045 
L 404.5565 162.377386 
L 409.297366 158.533193 
L 414.038233 154.988749 
L 418.779099 151.723203 
L 423.519966 148.716651 
L 428.260833 145.950191 
L 433.001699 143.405946 
L 437.742566 141.06708 
L 442.483432 138.917787 
L 447.224299 136.943275 
L 451.965166 135.129736 
L 456.706032 133.46431 
L 461.446899 131.935048 
L 466.187766 130.530866 
L 470.928632 129.241499 
L 475.669499 128.057458 
L 480.410365 126.969981 
L 485.151232 125.970985 
L 489.892099 125.053027 
L 494.632965 124.209256 
L 499.373832 123.433371 
L 504.114698 122.719586 
L 508.855565 122.062588 
L 513.596432 121.457501 
L 518.337298 120.899857 
L 523.078165 120.385559 
L 527.819031 119.910858 
L 532.559898 119.472318 
L 537.300765 119.066798 
L 542.041631 118.691422 
L 546.782498 118.343563 
L 551.523364 118.020817 
L 556.264231 117.720989 
L 561.005098 117.442073 
L 565.745964 117.182236 
L 570.486831 116.939806 
L 575.227698 116.713256 
L 579.968564 116.50119 
L 584.709431 116.302338 
L 589.450297 116.115538 
L 594.191164 115.939732 
L 598.932031 115.773953 
L 603.672897 115.617321 
L 608.413764 115.469033 
L 613.15463 115.328356 
L 617.895497 115.194623 
L 622.636364 115.067225 
" style="fill:none;stroke:#8c564b;stroke-linecap:square;stroke-width:1.5;"/>
   </g>
   <g id="line2d_31">
    <path clip-path="url(#pcfc5218701)" d="M 115.363636 605.290909 
L 120.104503 605.265983 
L 124.84537 605.199716 
L 129.586236 605.098423 
L 134.327103 604.962556 
L 139.067969 604.788689 
L 143.808836 604.570437 
L 148.549703 604.298764 
L 153.290569 603.961926 
L 158.031436 603.545167 
L 162.772302 603.030231 
L 167.513169 602.394734 
L 172.254036 601.611396 
L 176.994902 600.647158 
L 181.735769 599.462204 
L 186.476636 598.008928 
L 191.217502 596.230912 
L 195.958369 594.062028 
L 200.699235 591.425822 
L 205.440102 588.235421 
L 210.180969 584.39425 
L 214.921835 579.797931 
L 219.662702 574.33772 
L 224.403568 567.905815 
L 229.144435 560.402637 
L 233.885302 551.745878 
L 238.626168 541.880584 
L 243.367035 530.789024 
L 248.107901 518.498622 
L 252.848768 505.08615 
L 257.589635 490.676784 
L 262.330501 475.437562 
L 267.071368 459.565992 
L 271.812234 443.27567 
L 276.553101 426.781312 
L 281.293968 410.285515 
L 286.034834 393.968805 
L 290.775701 377.983643 
L 295.516568 362.452142 
L 300.257434 347.466753 
L 304.998301 333.092925 
L 309.739167 319.372829 
L 314.480034 306.329433 
L 319.220901 293.970429 
L 323.961767 282.291756 
L 328.702634 271.2806 
L 333.4435 260.917843 
L 338.184367 251.180021 
L 342.925234 242.040842 
L 347.6661 233.47235 
L 352.406967 225.445799 
L 357.147833 217.932297 
L 361.8887 210.903279 
L 366.629567 204.330836 
L 371.370433 198.187949 
L 376.1113 192.448642 
L 380.852167 187.088077 
L 385.593033 182.082605 
L 390.3339 177.409789 
L 395.074766 173.048398 
L 399.815633 168.97839 
L 404.5565 165.18088 
L 409.297366 161.6381 
L 414.038233 158.333353 
L 418.779099 155.250971 
L 423.519966 152.376257 
L 428.260833 149.695442 
L 433.001699 147.195633 
L 437.742566 144.864761 
L 442.483432 142.691538 
L 447.224299 140.66541 
L 451.965166 138.776511 
L 456.706032 137.015623 
L 461.446899 135.374136 
L 466.187766 133.844007 
L 470.928632 132.417728 
L 475.669499 131.08829 
L 480.410365 129.849151 
L 485.151232 128.694206 
L 489.892099 127.617759 
L 494.632965 126.614494 
L 499.373832 125.679454 
L 504.114698 124.808015 
L 508.855565 123.995863 
L 513.596432 123.238976 
L 518.337298 122.533603 
L 523.078165 121.876245 
L 527.819031 121.263642 
L 532.559898 120.692752 
L 537.300765 120.160739 
L 542.041631 119.664962 
L 546.782498 119.202956 
L 551.523364 118.772423 
L 556.264231 118.371223 
L 561.005098 117.997359 
L 565.745964 117.648971 
L 570.486831 117.324324 
L 575.227698 117.021804 
L 579.968564 116.739902 
L 584.709431 116.477214 
L 589.450297 116.232433 
L 594.191164 116.004338 
L 598.932031 115.791793 
L 603.672897 115.593738 
L 608.413764 115.409186 
L 613.15463 115.237216 
L 617.895497 115.076972 
L 622.636364 114.927655 
" style="fill:none;stroke:#e377c2;stroke-linecap:square;stroke-width:1.5;"/>
   </g>
   <g id="line2d_32">
    <path clip-path="url(#pcfc5218701)" d="M 115.363636 605.290909 
L 120.104503 605.238872 
L 124.84537 605.083694 
L 129.586236 604.824253 
L 134.327103 604.456325 
L 139.067969 603.972829 
L 143.808836 603.363958 
L 148.549703 602.617246 
L 153.290569 601.717571 
L 158.031436 600.647111 
L 162.772302 599.385279 
L 167.513169 597.908639 
L 172.254036 596.190833 
L 176.994902 594.202518 
L 181.735769 591.911364 
L 186.476636 589.282112 
L 191.217502 586.276729 
L 195.958369 582.854695 
L 200.699235 578.973455 
L 205.440102 574.589061 
L 210.180969 569.657039 
L 214.921835 564.133505 
L 219.662702 557.976538 
L 224.403568 551.147792 
L 229.144435 543.61433 
L 233.885302 535.350597 
L 238.626168 526.340451 
L 243.367035 516.579107 
L 248.107901 506.07486 
L 252.848768 494.85041 
L 257.589635 482.943632 
L 262.330501 470.407675 
L 267.071368 457.310291 
L 271.812234 443.732389 
L 276.553101 429.765876 
L 281.293968 415.510905 
L 286.034834 401.072721 
L 290.775701 386.558337 
L 295.516568 372.073249 
L 300.257434 357.71842 
L 304.998301 343.587692 
L 309.739167 329.76574 
L 314.480034 316.326623 
L 319.220901 303.332943 
L 323.961767 290.835543 
L 328.702634 278.873702 
L 333.4435 267.475692 
L 338.184367 256.659637 
L 342.925234 246.434551 
L 347.6661 236.801479 
L 352.406967 227.754671 
L 357.147833 219.282737 
L 361.8887 211.369731 
L 366.629567 203.996153 
L 371.370433 197.139842 
L 376.1113 190.776759 
L 380.852167 184.881657 
L 385.593033 179.428647 
L 390.3339 174.391665 
L 395.074766 169.74485 
L 399.815633 165.46284 
L 404.5565 161.521004 
L 409.297366 157.895618 
L 414.038233 154.563981 
L 418.779099 151.504504 
L 423.519966 148.696754 
L 428.260833 146.121481 
L 433.001699 143.760612 
L 437.742566 141.597242 
L 442.483432 139.615598 
L 447.224299 137.801005 
L 451.965166 136.139842 
L 456.706032 134.619485 
L 461.446899 133.228262 
L 466.187766 131.955395 
L 470.928632 130.790947 
L 475.669499 129.725765 
L 480.410365 128.751431 
L 485.151232 127.860212 
L 489.892099 127.045004 
L 494.632965 126.299295 
L 499.373832 125.617112 
L 504.114698 124.992986 
L 508.855565 124.421909 
L 513.596432 123.899298 
L 518.337298 123.420962 
L 523.078165 122.983068 
L 527.819031 122.582114 
L 532.559898 122.214901 
L 537.300765 121.878505 
L 542.041631 121.570256 
L 546.782498 121.287719 
L 551.523364 121.028667 
L 556.264231 120.79107 
L 561.005098 120.573075 
L 565.745964 120.37299 
L 570.486831 120.189272 
L 575.227698 120.020512 
L 579.968564 119.865424 
L 584.709431 119.722836 
L 589.450297 119.591678 
L 594.191164 119.470972 
L 598.932031 119.359828 
L 603.672897 119.25743 
L 608.413764 119.163037 
L 613.15463 119.07597 
L 617.895497 118.995611 
L 622.636364 118.921392 
" style="fill:none;stroke:#7f7f7f;stroke-linecap:square;stroke-width:1.5;"/>
   </g>
   <g id="line2d_33">
    <path clip-path="url(#pcfc5218701)" d="M 115.363636 605.290909 
L 120.104503 605.209745 
L 124.84537 604.972678 
L 129.586236 604.585192 
L 134.327103 604.047985 
L 139.067969 603.357693 
L 143.808836 602.507438 
L 148.549703 601.487221 
L 153.290569 600.284204 
L 158.031436 598.882927 
L 162.772302 597.265456 
L 167.513169 595.411517 
L 172.254036 593.298604 
L 176.994902 590.90211 
L 181.735769 588.195472 
L 186.476636 585.150373 
L 191.217502 581.736995 
L 195.958369 577.924363 
L 200.699235 573.680769 
L 205.440102 568.974323 
L 210.180969 563.77361 
L 214.921835 558.048474 
L 219.662702 551.770931 
L 224.403568 544.916184 
L 229.144435 537.463733 
L 233.885302 529.398538 
L 238.626168 520.712182 
L 243.367035 511.403995 
L 248.107901 501.482039 
L 252.848768 490.963914 
L 257.589635 479.877282 
L 262.330501 468.260068 
L 267.071368 456.160269 
L 271.812234 443.635361 
L 276.553101 430.751291 
L 281.293968 417.581101 
L 286.034834 404.20322 
L 290.775701 390.699545 
L 295.516568 377.153377 
L 300.257434 363.647352 
L 304.998301 350.261454 
L 309.739167 337.071219 
L 314.480034 324.146209 
L 319.220901 311.548795 
L 323.961767 299.333292 
L 328.702634 287.545436 
L 333.4435 276.222202 
L 338.184367 265.391907 
L 342.925234 255.074565 
L 347.6661 245.282445 
L 352.406967 236.020762 
L 357.147833 227.288473 
L 361.8887 219.079112 
L 366.629567 211.381637 
L 371.370433 204.181258 
L 376.1113 197.460213 
L 380.852167 191.198484 
L 385.593033 185.374445 
L 390.3339 179.965423 
L 395.074766 174.948189 
L 399.815633 170.299367 
L 404.5565 165.995772 
L 409.297366 162.014687 
L 414.038233 158.334069 
L 418.779099 154.932716 
L 423.519966 151.790382 
L 428.260833 148.887851 
L 433.001699 146.20699 
L 437.742566 143.73076 
L 442.483432 141.443224 
L 447.224299 139.329521 
L 451.965166 137.375845 
L 456.706032 135.569394 
L 461.446899 133.898335 
L 466.187766 132.351746 
L 470.928632 130.919566 
L 475.669499 129.59254 
L 480.410365 128.362164 
L 485.151232 127.220635 
L 489.892099 126.160797 
L 494.632965 125.17609 
L 499.373832 124.260509 
L 504.114698 123.408551 
L 508.855565 122.615182 
L 513.596432 121.875794 
L 518.337298 121.186167 
L 523.078165 120.542439 
L 527.819031 119.941075 
L 532.559898 119.378836 
L 537.300765 118.852755 
L 542.041631 118.360114 
L 546.782498 117.898419 
L 551.523364 117.465382 
L 556.264231 117.058904 
L 561.005098 116.677057 
L 565.745964 116.318067 
L 570.486831 115.980305 
L 575.227698 115.66227 
L 579.968564 115.362581 
L 584.709431 115.079963 
L 589.450297 114.813243 
L 594.191164 114.561336 
L 598.932031 114.323241 
L 603.672897 114.098031 
L 608.413764 113.884851 
L 613.15463 113.682908 
L 617.895497 113.491465 
L 622.636364 113.309844 
" style="fill:none;stroke:#bcbd22;stroke-linecap:square;stroke-width:1.5;"/>
   </g>
   <g id="line2d_34">
    <path clip-path="url(#pcfc5218701)" d="M 115.363636 605.290909 
L 120.104503 605.252146 
L 124.84537 605.000187 
L 129.586236 604.825754 
L 134.327103 604.825754 
L 139.067969 603.914827 
L 143.808836 603.15895 
L 148.549703 603.15895 
L 153.290569 602.383693 
L 158.031436 601.337095 
L 162.772302 599.999775 
L 167.513169 594.863693 
L 172.254036 592.421631 
L 176.994902 590.444723 
L 181.735769 588.099569 
L 186.476636 583.855033 
L 191.217502 579.901218 
L 195.958369 575.346579 
L 200.699235 570.404311 
L 205.440102 564.551115 
L 210.180969 558.852971 
L 214.921835 554.976682 
L 219.662702 549.259156 
L 224.403568 542.960187 
L 229.144435 538.851321 
L 233.885302 531.059981 
L 238.626168 522.842249 
L 243.367035 516.426991 
L 248.107901 508.868228 
L 252.848768 501.697094 
L 257.589635 495.010496 
L 262.330501 487.93627 
L 267.071368 478.245548 
L 271.812234 448.882661 
L 276.553101 432.62163 
L 281.293968 418.531321 
L 286.034834 399.304929 
L 290.775701 383.179568 
L 295.516568 362.480187 
L 300.257434 348.448022 
L 304.998301 334.706579 
L 309.739167 319.627816 
L 314.480034 310.072764 
L 319.220901 302.300805 
L 323.961767 294.780805 
L 328.702634 282.551115 
L 333.4435 264.410084 
L 338.184367 253.226991 
L 342.925234 245.920187 
L 347.6661 232.333795 
L 352.406967 224.852558 
L 357.147833 220.414207 
L 361.8887 213.126785 
L 366.629567 206.168846 
L 371.370433 201.885547 
L 376.1113 195.237712 
L 380.852167 188.841836 
L 385.593033 183.686372 
L 390.3339 179.596888 
L 395.074766 174.460805 
L 399.815633 171.805547 
L 404.5565 168.782042 
L 409.297366 164.537506 
L 414.038233 159.963485 
L 418.779099 157.269465 
L 423.519966 155.19565 
L 428.260833 152.114001 
L 433.001699 143.857506 
L 437.742566 141.3573 
L 442.483432 139.574207 
L 447.224299 138.333795 
L 451.965166 136.628228 
L 456.706032 135.639774 
L 461.446899 134.399362 
L 466.187766 132.926372 
L 470.928632 130.697506 
L 475.669499 129.224516 
L 480.410365 128.119774 
L 485.151232 126.976269 
L 489.892099 126.259155 
L 494.632965 124.941217 
L 499.373832 124.204722 
L 504.114698 123.526372 
L 508.855565 122.499155 
L 513.596432 121.316887 
L 518.337298 119.921423 
L 523.078165 119.843898 
L 527.819031 118.971733 
L 532.559898 118.370908 
L 537.300765 117.963898 
L 542.041631 117.576269 
L 546.782498 117.227403 
L 551.523364 117.111114 
L 556.264231 116.956063 
L 561.005098 116.64596 
L 565.745964 116.510289 
L 570.486831 116.277712 
L 575.227698 115.405547 
L 579.968564 115.250496 
L 584.709431 114.90163 
L 589.450297 114.649671 
L 594.191164 114.514001 
L 598.932031 114.242661 
L 603.672897 113.990702 
L 608.413764 113.874413 
L 613.15463 113.777506 
L 617.895497 113.69998 
L 622.636364 113.544929 
" style="fill:none;stroke:#17becf;stroke-dasharray:14.8,6.4;stroke-dashoffset:0;stroke-width:4;"/>
   </g>
   <g id="patch_3">
    <path d="M 90 630 
L 90 86.4 
" style="fill:none;stroke:#000000;stroke-linecap:square;stroke-linejoin:miter;stroke-width:0.8;"/>
   </g>
   <g id="patch_4">
    <path d="M 648 630 
L 648 86.4 
" style="fill:none;stroke:#000000;stroke-linecap:square;stroke-linejoin:miter;stroke-width:0.8;"/>
   </g>
   <g id="patch_5">
    <path d="M 90 630 
L 648 630 
" style="fill:none;stroke:#000000;stroke-linecap:square;stroke-linejoin:miter;stroke-width:0.8;"/>
   </g>
   <g id="patch_6">
    <path d="M 90 86.4 
L 648 86.4 
" style="fill:none;stroke:#000000;stroke-linecap:square;stroke-linejoin:miter;stroke-width:0.8;"/>
   </g>
   <g id="text_15">
    <!-- Ireland relative err =  -->
    <g transform="translate(304.446563 80.4)scale(0.12 -0.12)">
     <defs>
      <path d="M 9.8125 72.90625 
L 19.671875 72.90625 
L 19.671875 0 
L 9.8125 0 
z
" id="DejaVuSans-73"/>
      <path d="M 41.109375 46.296875 
Q 39.59375 47.171875 37.8125 47.578125 
Q 36.03125 48 33.890625 48 
Q 26.265625 48 22.1875 43.046875 
Q 18.109375 38.09375 18.109375 28.8125 
L 18.109375 0 
L 9.078125 0 
L 9.078125 54.6875 
L 18.109375 54.6875 
L 18.109375 46.1875 
Q 20.953125 51.171875 25.484375 53.578125 
Q 30.03125 56 36.53125 56 
Q 37.453125 56 38.578125 55.875 
Q 39.703125 55.765625 41.0625 55.515625 
z
" id="DejaVuSans-114"/>
      <path d="M 54.890625 33.015625 
L 54.890625 0 
L 45.90625 0 
L 45.90625 32.71875 
Q 45.90625 40.484375 42.875 44.328125 
Q 39.84375 48.1875 33.796875 48.1875 
Q 26.515625 48.1875 22.3125 43.546875 
Q 18.109375 38.921875 18.109375 30.90625 
L 18.109375 0 
L 9.078125 0 
L 9.078125 54.6875 
L 18.109375 54.6875 
L 18.109375 46.1875 
Q 21.34375 51.125 25.703125 53.5625 
Q 30.078125 56 35.796875 56 
Q 45.21875 56 50.046875 50.171875 
Q 54.890625 44.34375 54.890625 33.015625 
z
" id="DejaVuSans-110"/>
      <path d="M 45.40625 46.390625 
L 45.40625 75.984375 
L 54.390625 75.984375 
L 54.390625 0 
L 45.40625 0 
L 45.40625 8.203125 
Q 42.578125 3.328125 38.25 0.953125 
Q 33.9375 -1.421875 27.875 -1.421875 
Q 17.96875 -1.421875 11.734375 6.484375 
Q 5.515625 14.40625 5.515625 27.296875 
Q 5.515625 40.1875 11.734375 48.09375 
Q 17.96875 56 27.875 56 
Q 33.9375 56 38.25 53.625 
Q 42.578125 51.265625 45.40625 46.390625 
z
M 14.796875 27.296875 
Q 14.796875 17.390625 18.875 11.75 
Q 22.953125 6.109375 30.078125 6.109375 
Q 37.203125 6.109375 41.296875 11.75 
Q 45.40625 17.390625 45.40625 27.296875 
Q 45.40625 37.203125 41.296875 42.84375 
Q 37.203125 48.484375 30.078125 48.484375 
Q 22.953125 48.484375 18.875 42.84375 
Q 14.796875 37.203125 14.796875 27.296875 
z
" id="DejaVuSans-100"/>
      <path d="M 10.59375 45.40625 
L 73.1875 45.40625 
L 73.1875 37.203125 
L 10.59375 37.203125 
z
M 10.59375 25.484375 
L 73.1875 25.484375 
L 73.1875 17.1875 
L 10.59375 17.1875 
z
" id="DejaVuSans-61"/>
     </defs>
     <use xlink:href="#DejaVuSans-73"/>
     <use x="29.492188" xlink:href="#DejaVuSans-114"/>
     <use x="68.355469" xlink:href="#DejaVuSans-101"/>
     <use x="129.878906" xlink:href="#DejaVuSans-108"/>
     <use x="157.662109" xlink:href="#DejaVuSans-97"/>
     <use x="218.941406" xlink:href="#DejaVuSans-110"/>
     <use x="282.320312" xlink:href="#DejaVuSans-100"/>
     <use x="345.796875" xlink:href="#DejaVuSans-32"/>
     <use x="377.583984" xlink:href="#DejaVuSans-114"/>
     <use x="416.447266" xlink:href="#DejaVuSans-101"/>
     <use x="477.970703" xlink:href="#DejaVuSans-108"/>
     <use x="505.753906" xlink:href="#DejaVuSans-97"/>
     <use x="567.033203" xlink:href="#DejaVuSans-116"/>
     <use x="606.242188" xlink:href="#DejaVuSans-105"/>
     <use x="634.025391" xlink:href="#DejaVuSans-118"/>
     <use x="693.205078" xlink:href="#DejaVuSans-101"/>
     <use x="754.728516" xlink:href="#DejaVuSans-32"/>
     <use x="786.515625" xlink:href="#DejaVuSans-101"/>
     <use x="848.039062" xlink:href="#DejaVuSans-114"/>
     <use x="887.402344" xlink:href="#DejaVuSans-114"/>
     <use x="928.515625" xlink:href="#DejaVuSans-32"/>
     <use x="960.302734" xlink:href="#DejaVuSans-61"/>
     <use x="1044.091797" xlink:href="#DejaVuSans-32"/>
    </g>
   </g>
   <g id="legend_1">
    <g id="patch_7">
     <path d="M 97 226.503125 
L 185.6 226.503125 
Q 187.6 226.503125 187.6 224.503125 
L 187.6 93.4 
Q 187.6 91.4 185.6 91.4 
L 97 91.4 
Q 95 91.4 95 93.4 
L 95 224.503125 
Q 95 226.503125 97 226.503125 
z
" style="fill:#ffffff;opacity:0.8;stroke:#cccccc;stroke-linejoin:miter;"/>
    </g>
    <g id="line2d_35">
     <path d="M 99 99.498438 
L 119 99.498438 
" style="fill:none;stroke:#1f77b4;stroke-linecap:square;stroke-width:1.5;"/>
    </g>
    <g id="line2d_36"/>
    <g id="text_16">
     <!-- SI -->
     <g transform="translate(127 102.998438)scale(0.1 -0.1)">
      <defs>
       <path d="M 53.515625 70.515625 
L 53.515625 60.890625 
Q 47.90625 63.578125 42.921875 64.890625 
Q 37.9375 66.21875 33.296875 66.21875 
Q 25.25 66.21875 20.875 63.09375 
Q 16.5 59.96875 16.5 54.203125 
Q 16.5 49.359375 19.40625 46.890625 
Q 22.3125 44.4375 30.421875 42.921875 
L 36.375 41.703125 
Q 47.40625 39.59375 52.65625 34.296875 
Q 57.90625 29 57.90625 20.125 
Q 57.90625 9.515625 50.796875 4.046875 
Q 43.703125 -1.421875 29.984375 -1.421875 
Q 24.8125 -1.421875 18.96875 -0.25 
Q 13.140625 0.921875 6.890625 3.21875 
L 6.890625 13.375 
Q 12.890625 10.015625 18.65625 8.296875 
Q 24.421875 6.59375 29.984375 6.59375 
Q 38.421875 6.59375 43.015625 9.90625 
Q 47.609375 13.234375 47.609375 19.390625 
Q 47.609375 24.75 44.3125 27.78125 
Q 41.015625 30.8125 33.5 32.328125 
L 27.484375 33.5 
Q 16.453125 35.6875 11.515625 40.375 
Q 6.59375 45.0625 6.59375 53.421875 
Q 6.59375 63.09375 13.40625 68.65625 
Q 20.21875 74.21875 32.171875 74.21875 
Q 37.3125 74.21875 42.625 73.28125 
Q 47.953125 72.359375 53.515625 70.515625 
z
" id="DejaVuSans-83"/>
      </defs>
      <use xlink:href="#DejaVuSans-83"/>
      <use x="63.476562" xlink:href="#DejaVuSans-73"/>
     </g>
    </g>
    <g id="line2d_37">
     <path d="M 99 114.176563 
L 119 114.176563 
" style="fill:none;stroke:#ff7f0e;stroke-linecap:square;stroke-width:1.5;"/>
    </g>
    <g id="line2d_38"/>
    <g id="text_17">
     <!-- BD -->
     <g transform="translate(127 117.676563)scale(0.1 -0.1)">
      <defs>
       <path d="M 19.671875 34.8125 
L 19.671875 8.109375 
L 35.5 8.109375 
Q 43.453125 8.109375 47.28125 11.40625 
Q 51.125 14.703125 51.125 21.484375 
Q 51.125 28.328125 47.28125 31.5625 
Q 43.453125 34.8125 35.5 34.8125 
z
M 19.671875 64.796875 
L 19.671875 42.828125 
L 34.28125 42.828125 
Q 41.5 42.828125 45.03125 45.53125 
Q 48.578125 48.25 48.578125 53.8125 
Q 48.578125 59.328125 45.03125 62.0625 
Q 41.5 64.796875 34.28125 64.796875 
z
M 9.8125 72.90625 
L 35.015625 72.90625 
Q 46.296875 72.90625 52.390625 68.21875 
Q 58.5 63.53125 58.5 54.890625 
Q 58.5 48.1875 55.375 44.234375 
Q 52.25 40.28125 46.1875 39.3125 
Q 53.46875 37.75 57.5 32.78125 
Q 61.53125 27.828125 61.53125 20.40625 
Q 61.53125 10.640625 54.890625 5.3125 
Q 48.25 0 35.984375 0 
L 9.8125 0 
z
" id="DejaVuSans-66"/>
      </defs>
      <use xlink:href="#DejaVuSans-66"/>
      <use x="68.603516" xlink:href="#DejaVuSans-68"/>
     </g>
    </g>
    <g id="line2d_39">
     <path d="M 99 128.854688 
L 119 128.854688 
" style="fill:none;stroke:#2ca02c;stroke-linecap:square;stroke-width:1.5;"/>
    </g>
    <g id="line2d_40"/>
    <g id="text_18">
     <!-- SIR -->
     <g transform="translate(127 132.354688)scale(0.1 -0.1)">
      <defs>
       <path d="M 44.390625 34.1875 
Q 47.5625 33.109375 50.5625 29.59375 
Q 53.5625 26.078125 56.59375 19.921875 
L 66.609375 0 
L 56 0 
L 46.6875 18.703125 
Q 43.0625 26.03125 39.671875 28.421875 
Q 36.28125 30.8125 30.421875 30.8125 
L 19.671875 30.8125 
L 19.671875 0 
L 9.8125 0 
L 9.8125 72.90625 
L 32.078125 72.90625 
Q 44.578125 72.90625 50.734375 67.671875 
Q 56.890625 62.453125 56.890625 51.90625 
Q 56.890625 45.015625 53.6875 40.46875 
Q 50.484375 35.9375 44.390625 34.1875 
z
M 19.671875 64.796875 
L 19.671875 38.921875 
L 32.078125 38.921875 
Q 39.203125 38.921875 42.84375 42.21875 
Q 46.484375 45.515625 46.484375 51.90625 
Q 46.484375 58.296875 42.84375 61.546875 
Q 39.203125 64.796875 32.078125 64.796875 
z
" id="DejaVuSans-82"/>
      </defs>
      <use xlink:href="#DejaVuSans-83"/>
      <use x="63.476562" xlink:href="#DejaVuSans-73"/>
      <use x="92.96875" xlink:href="#DejaVuSans-82"/>
     </g>
    </g>
    <g id="line2d_41">
     <path d="M 99 143.532812 
L 119 143.532812 
" style="fill:none;stroke:#d62728;stroke-linecap:square;stroke-width:1.5;"/>
    </g>
    <g id="line2d_42"/>
    <g id="text_19">
     <!-- eSIR -->
     <g transform="translate(127 147.032812)scale(0.1 -0.1)">
      <use xlink:href="#DejaVuSans-101"/>
      <use x="61.523438" xlink:href="#DejaVuSans-83"/>
      <use x="125" xlink:href="#DejaVuSans-73"/>
      <use x="154.492188" xlink:href="#DejaVuSans-82"/>
     </g>
    </g>
    <g id="line2d_43">
     <path d="M 99 158.210938 
L 119 158.210938 
" style="fill:none;stroke:#9467bd;stroke-linecap:square;stroke-width:1.5;"/>
    </g>
    <g id="line2d_44"/>
    <g id="text_20">
     <!-- SEIR -->
     <g transform="translate(127 161.710938)scale(0.1 -0.1)">
      <defs>
       <path d="M 9.8125 72.90625 
L 55.90625 72.90625 
L 55.90625 64.59375 
L 19.671875 64.59375 
L 19.671875 43.015625 
L 54.390625 43.015625 
L 54.390625 34.71875 
L 19.671875 34.71875 
L 19.671875 8.296875 
L 56.78125 8.296875 
L 56.78125 0 
L 9.8125 0 
z
" id="DejaVuSans-69"/>
      </defs>
      <use xlink:href="#DejaVuSans-83"/>
      <use x="63.476562" xlink:href="#DejaVuSans-69"/>
      <use x="126.660156" xlink:href="#DejaVuSans-73"/>
      <use x="156.152344" xlink:href="#DejaVuSans-82"/>
     </g>
    </g>
    <g id="line2d_45">
     <path d="M 99 172.889063 
L 119 172.889063 
" style="fill:none;stroke:#8c564b;stroke-linecap:square;stroke-width:1.5;"/>
    </g>
    <g id="line2d_46"/>
    <g id="text_21">
     <!-- eSEIR -->
     <g transform="translate(127 176.389063)scale(0.1 -0.1)">
      <use xlink:href="#DejaVuSans-101"/>
      <use x="61.523438" xlink:href="#DejaVuSans-83"/>
      <use x="125" xlink:href="#DejaVuSans-69"/>
      <use x="188.183594" xlink:href="#DejaVuSans-73"/>
      <use x="217.675781" xlink:href="#DejaVuSans-82"/>
     </g>
    </g>
    <g id="line2d_47">
     <path d="M 99 187.567188 
L 119 187.567188 
" style="fill:none;stroke:#e377c2;stroke-linecap:square;stroke-width:1.5;"/>
    </g>
    <g id="line2d_48"/>
    <g id="text_22">
     <!-- SEIUR -->
     <g transform="translate(127 191.067188)scale(0.1 -0.1)">
      <defs>
       <path d="M 8.6875 72.90625 
L 18.609375 72.90625 
L 18.609375 28.609375 
Q 18.609375 16.890625 22.84375 11.734375 
Q 27.09375 6.59375 36.625 6.59375 
Q 46.09375 6.59375 50.34375 11.734375 
Q 54.59375 16.890625 54.59375 28.609375 
L 54.59375 72.90625 
L 64.5 72.90625 
L 64.5 27.390625 
Q 64.5 13.140625 57.4375 5.859375 
Q 50.390625 -1.421875 36.625 -1.421875 
Q 22.796875 -1.421875 15.734375 5.859375 
Q 8.6875 13.140625 8.6875 27.390625 
z
" id="DejaVuSans-85"/>
      </defs>
      <use xlink:href="#DejaVuSans-83"/>
      <use x="63.476562" xlink:href="#DejaVuSans-69"/>
      <use x="126.660156" xlink:href="#DejaVuSans-73"/>
      <use x="156.152344" xlink:href="#DejaVuSans-85"/>
      <use x="229.345703" xlink:href="#DejaVuSans-82"/>
     </g>
    </g>
    <g id="line2d_49">
     <path d="M 99 202.245312 
L 119 202.245312 
" style="fill:none;stroke:#7f7f7f;stroke-linecap:square;stroke-width:1.5;"/>
    </g>
    <g id="line2d_50"/>
    <g id="text_23">
     <!-- eSEIUR -->
     <g transform="translate(127 205.745312)scale(0.1 -0.1)">
      <use xlink:href="#DejaVuSans-101"/>
      <use x="61.523438" xlink:href="#DejaVuSans-83"/>
      <use x="125" xlink:href="#DejaVuSans-69"/>
      <use x="188.183594" xlink:href="#DejaVuSans-73"/>
      <use x="217.675781" xlink:href="#DejaVuSans-85"/>
      <use x="290.869141" xlink:href="#DejaVuSans-82"/>
     </g>
    </g>
    <g id="line2d_51">
     <path d="M 99 216.923437 
L 119 216.923437 
" style="fill:none;stroke:#bcbd22;stroke-linecap:square;stroke-width:1.5;"/>
    </g>
    <g id="line2d_52"/>
    <g id="text_24">
     <!-- eSEIUR$^{range}$ -->
     <g transform="translate(127 220.423437)scale(0.1 -0.1)">
      <defs>
       <path d="M 44.578125 46.390625 
Q 43.21875 47.125 41.453125 47.515625 
Q 39.703125 47.90625 37.703125 47.90625 
Q 30.515625 47.90625 25.140625 42.453125 
Q 19.78125 37.015625 18.015625 27.875 
L 12.5 0 
L 3.515625 0 
L 14.203125 54.6875 
L 23.1875 54.6875 
L 21.484375 46.1875 
Q 25.046875 50.921875 30 53.453125 
Q 34.96875 56 40.578125 56 
Q 42.046875 56 43.453125 55.828125 
Q 44.875 55.671875 46.296875 55.28125 
z
" id="DejaVuSans-Oblique-114"/>
       <path d="M 53.71875 31.203125 
L 47.609375 0 
L 38.625 0 
L 40.28125 8.296875 
Q 36.328125 3.421875 31.265625 1 
Q 26.21875 -1.421875 20.015625 -1.421875 
Q 13.03125 -1.421875 8.5625 2.84375 
Q 4.109375 7.125 4.109375 13.8125 
Q 4.109375 23.390625 11.75 28.953125 
Q 19.390625 34.515625 32.8125 34.515625 
L 45.3125 34.515625 
L 45.796875 36.921875 
Q 45.90625 37.3125 45.953125 37.765625 
Q 46 38.234375 46 39.203125 
Q 46 43.5625 42.453125 45.96875 
Q 38.921875 48.390625 32.515625 48.390625 
Q 28.125 48.390625 23.5 47.265625 
Q 18.890625 46.140625 14.015625 43.890625 
L 15.578125 52.203125 
Q 20.65625 54.109375 25.515625 55.046875 
Q 30.375 56 34.90625 56 
Q 44.578125 56 49.625 51.796875 
Q 54.6875 47.609375 54.6875 39.59375 
Q 54.6875 37.984375 54.4375 35.8125 
Q 54.203125 33.640625 53.71875 31.203125 
z
M 44 27.484375 
L 35.015625 27.484375 
Q 23.96875 27.484375 18.671875 24.53125 
Q 13.375 21.578125 13.375 15.375 
Q 13.375 11.078125 16.078125 8.640625 
Q 18.796875 6.203125 23.578125 6.203125 
Q 30.90625 6.203125 36.375 11.453125 
Q 41.84375 16.703125 43.609375 25.484375 
z
" id="DejaVuSans-Oblique-97"/>
       <path d="M 55.71875 33.015625 
L 49.3125 0 
L 40.28125 0 
L 46.6875 32.671875 
Q 47.125 34.96875 47.359375 36.71875 
Q 47.609375 38.484375 47.609375 39.5 
Q 47.609375 43.609375 45.015625 45.890625 
Q 42.4375 48.1875 37.796875 48.1875 
Q 30.5625 48.1875 25.34375 43.375 
Q 20.125 38.578125 18.5 30.328125 
L 12.5 0 
L 3.515625 0 
L 14.109375 54.6875 
L 23.09375 54.6875 
L 21.296875 46.09375 
Q 25.046875 50.828125 30.3125 53.40625 
Q 35.59375 56 41.40625 56 
Q 48.640625 56 52.609375 52.09375 
Q 56.59375 48.1875 56.59375 41.109375 
Q 56.59375 39.359375 56.375 37.359375 
Q 56.15625 35.359375 55.71875 33.015625 
z
" id="DejaVuSans-Oblique-110"/>
       <path d="M 59.625 54.6875 
L 50.296875 6.78125 
Q 47.609375 -7.125 40.015625 -13.953125 
Q 32.421875 -20.796875 19.578125 -20.796875 
Q 14.84375 -20.796875 10.78125 -20.09375 
Q 6.734375 -19.390625 3.21875 -17.921875 
L 4.890625 -9.1875 
Q 8.203125 -11.328125 11.90625 -12.34375 
Q 15.625 -13.375 19.828125 -13.375 
Q 28.375 -13.375 33.859375 -8.703125 
Q 39.359375 -4.046875 41.109375 4.6875 
L 41.890625 8.796875 
Q 38.140625 4.5 33.15625 2.25 
Q 28.171875 0 22.40625 0 
Q 14.109375 0 9.34375 5.484375 
Q 4.59375 10.984375 4.59375 20.609375 
Q 4.59375 28.171875 7.46875 35.421875 
Q 10.359375 42.671875 15.578125 48.296875 
Q 19.046875 52 23.65625 54 
Q 28.265625 56 33.296875 56 
Q 38.8125 56 42.90625 53.4375 
Q 47.015625 50.875 49.03125 46.1875 
L 50.59375 54.6875 
z
M 46.09375 34.625 
Q 46.09375 41.265625 42.96875 44.875 
Q 39.84375 48.484375 34.078125 48.484375 
Q 30.515625 48.484375 27.296875 47.0625 
Q 24.078125 45.65625 21.78125 43.109375 
Q 18.0625 38.921875 15.984375 33.234375 
Q 13.921875 27.546875 13.921875 21.484375 
Q 13.921875 14.75 17.0625 11.125 
Q 20.21875 7.515625 26.125 7.515625 
Q 34.671875 7.515625 40.375 15.25 
Q 46.09375 23 46.09375 34.625 
z
" id="DejaVuSans-Oblique-103"/>
       <path d="M 48.09375 32.234375 
Q 48.25 33.015625 48.3125 33.84375 
Q 48.390625 34.671875 48.390625 35.5 
Q 48.390625 41.453125 44.890625 44.921875 
Q 41.40625 48.390625 35.40625 48.390625 
Q 28.71875 48.390625 23.578125 44.15625 
Q 18.453125 39.9375 15.828125 32.171875 
z
M 55.90625 25.203125 
L 14.109375 25.203125 
Q 13.8125 23.34375 13.71875 22.265625 
Q 13.625 21.1875 13.625 20.40625 
Q 13.625 13.625 17.796875 9.90625 
Q 21.96875 6.203125 29.59375 6.203125 
Q 35.453125 6.203125 40.671875 7.515625 
Q 45.90625 8.84375 50.390625 11.375 
L 48.6875 2.484375 
Q 43.84375 0.53125 38.6875 -0.4375 
Q 33.546875 -1.421875 28.21875 -1.421875 
Q 16.84375 -1.421875 10.71875 4.015625 
Q 4.59375 9.46875 4.59375 19.484375 
Q 4.59375 28.03125 7.640625 35.375 
Q 10.6875 42.71875 16.609375 48.484375 
Q 20.40625 52.09375 25.65625 54.046875 
Q 30.90625 56 36.8125 56 
Q 46.09375 56 51.578125 50.4375 
Q 57.078125 44.875 57.078125 35.5 
Q 57.078125 33.25 56.78125 30.6875 
Q 56.5 28.125 55.90625 25.203125 
z
" id="DejaVuSans-Oblique-101"/>
      </defs>
      <use transform="translate(0 0.51875)" xlink:href="#DejaVuSans-101"/>
      <use transform="translate(61.523438 0.51875)" xlink:href="#DejaVuSans-83"/>
      <use transform="translate(125 0.51875)" xlink:href="#DejaVuSans-69"/>
      <use transform="translate(188.183594 0.51875)" xlink:href="#DejaVuSans-73"/>
      <use transform="translate(217.675781 0.51875)" xlink:href="#DejaVuSans-85"/>
      <use transform="translate(288.619141 0.51875)" xlink:href="#DejaVuSans-82"/>
      <use transform="translate(359.058594 38.8)scale(0.7)" xlink:href="#DejaVuSans-Oblique-114"/>
      <use transform="translate(387.837891 38.8)scale(0.7)" xlink:href="#DejaVuSans-Oblique-97"/>
      <use transform="translate(430.733398 38.8)scale(0.7)" xlink:href="#DejaVuSans-Oblique-110"/>
      <use transform="translate(475.098633 38.8)scale(0.7)" xlink:href="#DejaVuSans-Oblique-103"/>
      <use transform="translate(519.532227 38.8)scale(0.7)" xlink:href="#DejaVuSans-Oblique-101"/>
     </g>
    </g>
   </g>
  </g>
 </g>
 <defs>
  <clipPath id="pcfc5218701">
   <rect height="543.6" width="558" x="90" y="86.4"/>
  </clipPath>
 </defs>
</svg>
