<?xml version="1.0" encoding="utf-8" standalone="no"?>
<!DOCTYPE svg PUBLIC "-//W3C//DTD SVG 1.1//EN"
  "http://www.w3.org/Graphics/SVG/1.1/DTD/svg11.dtd">
<!-- Created with matplotlib (https://matplotlib.org/) -->
<svg height="720pt" version="1.1" viewBox="0 0 720 720" width="720pt" xmlns="http://www.w3.org/2000/svg" xmlns:xlink="http://www.w3.org/1999/xlink">
 <metadata>
  <rdf:RDF xmlns:cc="http://creativecommons.org/ns#" xmlns:dc="http://purl.org/dc/elements/1.1/" xmlns:rdf="http://www.w3.org/1999/02/22-rdf-syntax-ns#">
   <cc:Work>
    <dc:type rdf:resource="http://purl.org/dc/dcmitype/StillImage"/>
    <dc:date>2022-07-13T18:54:01.371068</dc:date>
    <dc:format>image/svg+xml</dc:format>
    <dc:creator>
     <cc:Agent>
      <dc:title>Matplotlib v3.3.2, https://matplotlib.org/</dc:title>
     </cc:Agent>
    </dc:creator>
   </cc:Work>
  </rdf:RDF>
 </metadata>
 <defs>
  <style type="text/css">*{stroke-linecap:butt;stroke-linejoin:round;}</style>
 </defs>
 <g id="figure_1">
  <g id="patch_1">
   <path d="M 0 720 
L 720 720 
L 720 0 
L 0 0 
z
" style="fill:none;"/>
  </g>
  <g id="axes_1">
   <g id="patch_2">
    <path d="M 90 630 
L 648 630 
L 648 86.4 
L 90 86.4 
z
" style="fill:#ffffff;"/>
   </g>
   <g id="matplotlib.axis_1">
    <g id="xtick_1">
     <g id="line2d_1">
      <path clip-path="url(#pb2b178e9aa)" d="M 115.363636 630 
L 115.363636 86.4 
" style="fill:none;stroke:#b0b0b0;stroke-linecap:square;stroke-width:0.8;"/>
     </g>
     <g id="line2d_2">
      <defs>
       <path d="M 0 0 
L 0 3.5 
" id="macd28e9939" style="stroke:#000000;stroke-width:0.8;"/>
      </defs>
      <g>
       <use style="stroke:#000000;stroke-width:0.8;" x="115.363636" xlink:href="#macd28e9939" y="630"/>
      </g>
     </g>
     <g id="text_1">
      <!-- 0 -->
      <g transform="translate(112.182386 644.598438)scale(0.1 -0.1)">
       <defs>
        <path d="M 31.78125 66.40625 
Q 24.171875 66.40625 20.328125 58.90625 
Q 16.5 51.421875 16.5 36.375 
Q 16.5 21.390625 20.328125 13.890625 
Q 24.171875 6.390625 31.78125 6.390625 
Q 39.453125 6.390625 43.28125 13.890625 
Q 47.125 21.390625 47.125 36.375 
Q 47.125 51.421875 43.28125 58.90625 
Q 39.453125 66.40625 31.78125 66.40625 
z
M 31.78125 74.21875 
Q 44.046875 74.21875 50.515625 64.515625 
Q 56.984375 54.828125 56.984375 36.375 
Q 56.984375 17.96875 50.515625 8.265625 
Q 44.046875 -1.421875 31.78125 -1.421875 
Q 19.53125 -1.421875 13.0625 8.265625 
Q 6.59375 17.96875 6.59375 36.375 
Q 6.59375 54.828125 13.0625 64.515625 
Q 19.53125 74.21875 31.78125 74.21875 
z
" id="DejaVuSans-48"/>
       </defs>
       <use xlink:href="#DejaVuSans-48"/>
      </g>
     </g>
    </g>
    <g id="xtick_2">
     <g id="line2d_3">
      <path clip-path="url(#pb2b178e9aa)" d="M 188.881423 630 
L 188.881423 86.4 
" style="fill:none;stroke:#b0b0b0;stroke-linecap:square;stroke-width:0.8;"/>
     </g>
     <g id="line2d_4">
      <g>
       <use style="stroke:#000000;stroke-width:0.8;" x="188.881423" xlink:href="#macd28e9939" y="630"/>
      </g>
     </g>
     <g id="text_2">
      <!-- 50 -->
      <g transform="translate(182.518923 644.598438)scale(0.1 -0.1)">
       <defs>
        <path d="M 10.796875 72.90625 
L 49.515625 72.90625 
L 49.515625 64.59375 
L 19.828125 64.59375 
L 19.828125 46.734375 
Q 21.96875 47.46875 24.109375 47.828125 
Q 26.265625 48.1875 28.421875 48.1875 
Q 40.625 48.1875 47.75 41.5 
Q 54.890625 34.8125 54.890625 23.390625 
Q 54.890625 11.625 47.5625 5.09375 
Q 40.234375 -1.421875 26.90625 -1.421875 
Q 22.3125 -1.421875 17.546875 -0.640625 
Q 12.796875 0.140625 7.71875 1.703125 
L 7.71875 11.625 
Q 12.109375 9.234375 16.796875 8.0625 
Q 21.484375 6.890625 26.703125 6.890625 
Q 35.15625 6.890625 40.078125 11.328125 
Q 45.015625 15.765625 45.015625 23.390625 
Q 45.015625 31 40.078125 35.4375 
Q 35.15625 39.890625 26.703125 39.890625 
Q 22.75 39.890625 18.8125 39.015625 
Q 14.890625 38.140625 10.796875 36.28125 
z
" id="DejaVuSans-53"/>
       </defs>
       <use xlink:href="#DejaVuSans-53"/>
       <use x="63.623047" xlink:href="#DejaVuSans-48"/>
      </g>
     </g>
    </g>
    <g id="xtick_3">
     <g id="line2d_5">
      <path clip-path="url(#pb2b178e9aa)" d="M 262.399209 630 
L 262.399209 86.4 
" style="fill:none;stroke:#b0b0b0;stroke-linecap:square;stroke-width:0.8;"/>
     </g>
     <g id="line2d_6">
      <g>
       <use style="stroke:#000000;stroke-width:0.8;" x="262.399209" xlink:href="#macd28e9939" y="630"/>
      </g>
     </g>
     <g id="text_3">
      <!-- 100 -->
      <g transform="translate(252.855459 644.598438)scale(0.1 -0.1)">
       <defs>
        <path d="M 12.40625 8.296875 
L 28.515625 8.296875 
L 28.515625 63.921875 
L 10.984375 60.40625 
L 10.984375 69.390625 
L 28.421875 72.90625 
L 38.28125 72.90625 
L 38.28125 8.296875 
L 54.390625 8.296875 
L 54.390625 0 
L 12.40625 0 
z
" id="DejaVuSans-49"/>
       </defs>
       <use xlink:href="#DejaVuSans-49"/>
       <use x="63.623047" xlink:href="#DejaVuSans-48"/>
       <use x="127.246094" xlink:href="#DejaVuSans-48"/>
      </g>
     </g>
    </g>
    <g id="xtick_4">
     <g id="line2d_7">
      <path clip-path="url(#pb2b178e9aa)" d="M 335.916996 630 
L 335.916996 86.4 
" style="fill:none;stroke:#b0b0b0;stroke-linecap:square;stroke-width:0.8;"/>
     </g>
     <g id="line2d_8">
      <g>
       <use style="stroke:#000000;stroke-width:0.8;" x="335.916996" xlink:href="#macd28e9939" y="630"/>
      </g>
     </g>
     <g id="text_4">
      <!-- 150 -->
      <g transform="translate(326.373246 644.598438)scale(0.1 -0.1)">
       <use xlink:href="#DejaVuSans-49"/>
       <use x="63.623047" xlink:href="#DejaVuSans-53"/>
       <use x="127.246094" xlink:href="#DejaVuSans-48"/>
      </g>
     </g>
    </g>
    <g id="xtick_5">
     <g id="line2d_9">
      <path clip-path="url(#pb2b178e9aa)" d="M 409.434783 630 
L 409.434783 86.4 
" style="fill:none;stroke:#b0b0b0;stroke-linecap:square;stroke-width:0.8;"/>
     </g>
     <g id="line2d_10">
      <g>
       <use style="stroke:#000000;stroke-width:0.8;" x="409.434783" xlink:href="#macd28e9939" y="630"/>
      </g>
     </g>
     <g id="text_5">
      <!-- 200 -->
      <g transform="translate(399.891033 644.598438)scale(0.1 -0.1)">
       <defs>
        <path d="M 19.1875 8.296875 
L 53.609375 8.296875 
L 53.609375 0 
L 7.328125 0 
L 7.328125 8.296875 
Q 12.9375 14.109375 22.625 23.890625 
Q 32.328125 33.6875 34.8125 36.53125 
Q 39.546875 41.84375 41.421875 45.53125 
Q 43.3125 49.21875 43.3125 52.78125 
Q 43.3125 58.59375 39.234375 62.25 
Q 35.15625 65.921875 28.609375 65.921875 
Q 23.96875 65.921875 18.8125 64.3125 
Q 13.671875 62.703125 7.8125 59.421875 
L 7.8125 69.390625 
Q 13.765625 71.78125 18.9375 73 
Q 24.125 74.21875 28.421875 74.21875 
Q 39.75 74.21875 46.484375 68.546875 
Q 53.21875 62.890625 53.21875 53.421875 
Q 53.21875 48.921875 51.53125 44.890625 
Q 49.859375 40.875 45.40625 35.40625 
Q 44.1875 33.984375 37.640625 27.21875 
Q 31.109375 20.453125 19.1875 8.296875 
z
" id="DejaVuSans-50"/>
       </defs>
       <use xlink:href="#DejaVuSans-50"/>
       <use x="63.623047" xlink:href="#DejaVuSans-48"/>
       <use x="127.246094" xlink:href="#DejaVuSans-48"/>
      </g>
     </g>
    </g>
    <g id="xtick_6">
     <g id="line2d_11">
      <path clip-path="url(#pb2b178e9aa)" d="M 482.952569 630 
L 482.952569 86.4 
" style="fill:none;stroke:#b0b0b0;stroke-linecap:square;stroke-width:0.8;"/>
     </g>
     <g id="line2d_12">
      <g>
       <use style="stroke:#000000;stroke-width:0.8;" x="482.952569" xlink:href="#macd28e9939" y="630"/>
      </g>
     </g>
     <g id="text_6">
      <!-- 250 -->
      <g transform="translate(473.408819 644.598438)scale(0.1 -0.1)">
       <use xlink:href="#DejaVuSans-50"/>
       <use x="63.623047" xlink:href="#DejaVuSans-53"/>
       <use x="127.246094" xlink:href="#DejaVuSans-48"/>
      </g>
     </g>
    </g>
    <g id="xtick_7">
     <g id="line2d_13">
      <path clip-path="url(#pb2b178e9aa)" d="M 556.470356 630 
L 556.470356 86.4 
" style="fill:none;stroke:#b0b0b0;stroke-linecap:square;stroke-width:0.8;"/>
     </g>
     <g id="line2d_14">
      <g>
       <use style="stroke:#000000;stroke-width:0.8;" x="556.470356" xlink:href="#macd28e9939" y="630"/>
      </g>
     </g>
     <g id="text_7">
      <!-- 300 -->
      <g transform="translate(546.926606 644.598438)scale(0.1 -0.1)">
       <defs>
        <path d="M 40.578125 39.3125 
Q 47.65625 37.796875 51.625 33 
Q 55.609375 28.21875 55.609375 21.1875 
Q 55.609375 10.40625 48.1875 4.484375 
Q 40.765625 -1.421875 27.09375 -1.421875 
Q 22.515625 -1.421875 17.65625 -0.515625 
Q 12.796875 0.390625 7.625 2.203125 
L 7.625 11.71875 
Q 11.71875 9.328125 16.59375 8.109375 
Q 21.484375 6.890625 26.8125 6.890625 
Q 36.078125 6.890625 40.9375 10.546875 
Q 45.796875 14.203125 45.796875 21.1875 
Q 45.796875 27.640625 41.28125 31.265625 
Q 36.765625 34.90625 28.71875 34.90625 
L 20.21875 34.90625 
L 20.21875 43.015625 
L 29.109375 43.015625 
Q 36.375 43.015625 40.234375 45.921875 
Q 44.09375 48.828125 44.09375 54.296875 
Q 44.09375 59.90625 40.109375 62.90625 
Q 36.140625 65.921875 28.71875 65.921875 
Q 24.65625 65.921875 20.015625 65.03125 
Q 15.375 64.15625 9.8125 62.3125 
L 9.8125 71.09375 
Q 15.4375 72.65625 20.34375 73.4375 
Q 25.25 74.21875 29.59375 74.21875 
Q 40.828125 74.21875 47.359375 69.109375 
Q 53.90625 64.015625 53.90625 55.328125 
Q 53.90625 49.265625 50.4375 45.09375 
Q 46.96875 40.921875 40.578125 39.3125 
z
" id="DejaVuSans-51"/>
       </defs>
       <use xlink:href="#DejaVuSans-51"/>
       <use x="63.623047" xlink:href="#DejaVuSans-48"/>
       <use x="127.246094" xlink:href="#DejaVuSans-48"/>
      </g>
     </g>
    </g>
    <g id="xtick_8">
     <g id="line2d_15">
      <path clip-path="url(#pb2b178e9aa)" d="M 629.988142 630 
L 629.988142 86.4 
" style="fill:none;stroke:#b0b0b0;stroke-linecap:square;stroke-width:0.8;"/>
     </g>
     <g id="line2d_16">
      <g>
       <use style="stroke:#000000;stroke-width:0.8;" x="629.988142" xlink:href="#macd28e9939" y="630"/>
      </g>
     </g>
     <g id="text_8">
      <!-- 350 -->
      <g transform="translate(620.444392 644.598438)scale(0.1 -0.1)">
       <use xlink:href="#DejaVuSans-51"/>
       <use x="63.623047" xlink:href="#DejaVuSans-53"/>
       <use x="127.246094" xlink:href="#DejaVuSans-48"/>
      </g>
     </g>
    </g>
    <g id="text_9">
     <!-- Days -->
     <g transform="translate(356.521875 658.276562)scale(0.1 -0.1)">
      <defs>
       <path d="M 19.671875 64.796875 
L 19.671875 8.109375 
L 31.59375 8.109375 
Q 46.6875 8.109375 53.6875 14.9375 
Q 60.6875 21.78125 60.6875 36.53125 
Q 60.6875 51.171875 53.6875 57.984375 
Q 46.6875 64.796875 31.59375 64.796875 
z
M 9.8125 72.90625 
L 30.078125 72.90625 
Q 51.265625 72.90625 61.171875 64.09375 
Q 71.09375 55.28125 71.09375 36.53125 
Q 71.09375 17.671875 61.125 8.828125 
Q 51.171875 0 30.078125 0 
L 9.8125 0 
z
" id="DejaVuSans-68"/>
       <path d="M 34.28125 27.484375 
Q 23.390625 27.484375 19.1875 25 
Q 14.984375 22.515625 14.984375 16.5 
Q 14.984375 11.71875 18.140625 8.90625 
Q 21.296875 6.109375 26.703125 6.109375 
Q 34.1875 6.109375 38.703125 11.40625 
Q 43.21875 16.703125 43.21875 25.484375 
L 43.21875 27.484375 
z
M 52.203125 31.203125 
L 52.203125 0 
L 43.21875 0 
L 43.21875 8.296875 
Q 40.140625 3.328125 35.546875 0.953125 
Q 30.953125 -1.421875 24.3125 -1.421875 
Q 15.921875 -1.421875 10.953125 3.296875 
Q 6 8.015625 6 15.921875 
Q 6 25.140625 12.171875 29.828125 
Q 18.359375 34.515625 30.609375 34.515625 
L 43.21875 34.515625 
L 43.21875 35.40625 
Q 43.21875 41.609375 39.140625 45 
Q 35.0625 48.390625 27.6875 48.390625 
Q 23 48.390625 18.546875 47.265625 
Q 14.109375 46.140625 10.015625 43.890625 
L 10.015625 52.203125 
Q 14.9375 54.109375 19.578125 55.046875 
Q 24.21875 56 28.609375 56 
Q 40.484375 56 46.34375 49.84375 
Q 52.203125 43.703125 52.203125 31.203125 
z
" id="DejaVuSans-97"/>
       <path d="M 32.171875 -5.078125 
Q 28.375 -14.84375 24.75 -17.8125 
Q 21.140625 -20.796875 15.09375 -20.796875 
L 7.90625 -20.796875 
L 7.90625 -13.28125 
L 13.1875 -13.28125 
Q 16.890625 -13.28125 18.9375 -11.515625 
Q 21 -9.765625 23.484375 -3.21875 
L 25.09375 0.875 
L 2.984375 54.6875 
L 12.5 54.6875 
L 29.59375 11.921875 
L 46.6875 54.6875 
L 56.203125 54.6875 
z
" id="DejaVuSans-121"/>
       <path d="M 44.28125 53.078125 
L 44.28125 44.578125 
Q 40.484375 46.53125 36.375 47.5 
Q 32.28125 48.484375 27.875 48.484375 
Q 21.1875 48.484375 17.84375 46.4375 
Q 14.5 44.390625 14.5 40.28125 
Q 14.5 37.15625 16.890625 35.375 
Q 19.28125 33.59375 26.515625 31.984375 
L 29.59375 31.296875 
Q 39.15625 29.25 43.1875 25.515625 
Q 47.21875 21.78125 47.21875 15.09375 
Q 47.21875 7.46875 41.1875 3.015625 
Q 35.15625 -1.421875 24.609375 -1.421875 
Q 20.21875 -1.421875 15.453125 -0.5625 
Q 10.6875 0.296875 5.421875 2 
L 5.421875 11.28125 
Q 10.40625 8.6875 15.234375 7.390625 
Q 20.0625 6.109375 24.8125 6.109375 
Q 31.15625 6.109375 34.5625 8.28125 
Q 37.984375 10.453125 37.984375 14.40625 
Q 37.984375 18.0625 35.515625 20.015625 
Q 33.0625 21.96875 24.703125 23.78125 
L 21.578125 24.515625 
Q 13.234375 26.265625 9.515625 29.90625 
Q 5.8125 33.546875 5.8125 39.890625 
Q 5.8125 47.609375 11.28125 51.796875 
Q 16.75 56 26.8125 56 
Q 31.78125 56 36.171875 55.265625 
Q 40.578125 54.546875 44.28125 53.078125 
z
" id="DejaVuSans-115"/>
      </defs>
      <use xlink:href="#DejaVuSans-68"/>
      <use x="77.001953" xlink:href="#DejaVuSans-97"/>
      <use x="138.28125" xlink:href="#DejaVuSans-121"/>
      <use x="197.460938" xlink:href="#DejaVuSans-115"/>
     </g>
    </g>
   </g>
   <g id="matplotlib.axis_2">
    <g id="ytick_1">
     <g id="line2d_17">
      <path clip-path="url(#pb2b178e9aa)" d="M 90 605.292312 
L 648 605.292312 
" style="fill:none;stroke:#b0b0b0;stroke-linecap:square;stroke-width:0.8;"/>
     </g>
     <g id="line2d_18">
      <defs>
       <path d="M 0 0 
L -3.5 0 
" id="m9edf233ca7" style="stroke:#000000;stroke-width:0.8;"/>
      </defs>
      <g>
       <use style="stroke:#000000;stroke-width:0.8;" x="90" xlink:href="#m9edf233ca7" y="605.292312"/>
      </g>
     </g>
     <g id="text_10">
      <!-- 0.0 -->
      <g transform="translate(67.096875 609.091531)scale(0.1 -0.1)">
       <defs>
        <path d="M 10.6875 12.40625 
L 21 12.40625 
L 21 0 
L 10.6875 0 
z
" id="DejaVuSans-46"/>
       </defs>
       <use xlink:href="#DejaVuSans-48"/>
       <use x="63.623047" xlink:href="#DejaVuSans-46"/>
       <use x="95.410156" xlink:href="#DejaVuSans-48"/>
      </g>
     </g>
    </g>
    <g id="ytick_2">
     <g id="line2d_19">
      <path clip-path="url(#pb2b178e9aa)" d="M 90 514.754284 
L 648 514.754284 
" style="fill:none;stroke:#b0b0b0;stroke-linecap:square;stroke-width:0.8;"/>
     </g>
     <g id="line2d_20">
      <g>
       <use style="stroke:#000000;stroke-width:0.8;" x="90" xlink:href="#m9edf233ca7" y="514.754284"/>
      </g>
     </g>
     <g id="text_11">
      <!-- 0.2 -->
      <g transform="translate(67.096875 518.553503)scale(0.1 -0.1)">
       <use xlink:href="#DejaVuSans-48"/>
       <use x="63.623047" xlink:href="#DejaVuSans-46"/>
       <use x="95.410156" xlink:href="#DejaVuSans-50"/>
      </g>
     </g>
    </g>
    <g id="ytick_3">
     <g id="line2d_21">
      <path clip-path="url(#pb2b178e9aa)" d="M 90 424.216256 
L 648 424.216256 
" style="fill:none;stroke:#b0b0b0;stroke-linecap:square;stroke-width:0.8;"/>
     </g>
     <g id="line2d_22">
      <g>
       <use style="stroke:#000000;stroke-width:0.8;" x="90" xlink:href="#m9edf233ca7" y="424.216256"/>
      </g>
     </g>
     <g id="text_12">
      <!-- 0.4 -->
      <g transform="translate(67.096875 428.015475)scale(0.1 -0.1)">
       <defs>
        <path d="M 37.796875 64.3125 
L 12.890625 25.390625 
L 37.796875 25.390625 
z
M 35.203125 72.90625 
L 47.609375 72.90625 
L 47.609375 25.390625 
L 58.015625 25.390625 
L 58.015625 17.1875 
L 47.609375 17.1875 
L 47.609375 0 
L 37.796875 0 
L 37.796875 17.1875 
L 4.890625 17.1875 
L 4.890625 26.703125 
z
" id="DejaVuSans-52"/>
       </defs>
       <use xlink:href="#DejaVuSans-48"/>
       <use x="63.623047" xlink:href="#DejaVuSans-46"/>
       <use x="95.410156" xlink:href="#DejaVuSans-52"/>
      </g>
     </g>
    </g>
    <g id="ytick_4">
     <g id="line2d_23">
      <path clip-path="url(#pb2b178e9aa)" d="M 90 333.678228 
L 648 333.678228 
" style="fill:none;stroke:#b0b0b0;stroke-linecap:square;stroke-width:0.8;"/>
     </g>
     <g id="line2d_24">
      <g>
       <use style="stroke:#000000;stroke-width:0.8;" x="90" xlink:href="#m9edf233ca7" y="333.678228"/>
      </g>
     </g>
     <g id="text_13">
      <!-- 0.6 -->
      <g transform="translate(67.096875 337.477446)scale(0.1 -0.1)">
       <defs>
        <path d="M 33.015625 40.375 
Q 26.375 40.375 22.484375 35.828125 
Q 18.609375 31.296875 18.609375 23.390625 
Q 18.609375 15.53125 22.484375 10.953125 
Q 26.375 6.390625 33.015625 6.390625 
Q 39.65625 6.390625 43.53125 10.953125 
Q 47.40625 15.53125 47.40625 23.390625 
Q 47.40625 31.296875 43.53125 35.828125 
Q 39.65625 40.375 33.015625 40.375 
z
M 52.59375 71.296875 
L 52.59375 62.3125 
Q 48.875 64.0625 45.09375 64.984375 
Q 41.3125 65.921875 37.59375 65.921875 
Q 27.828125 65.921875 22.671875 59.328125 
Q 17.53125 52.734375 16.796875 39.40625 
Q 19.671875 43.65625 24.015625 45.921875 
Q 28.375 48.1875 33.59375 48.1875 
Q 44.578125 48.1875 50.953125 41.515625 
Q 57.328125 34.859375 57.328125 23.390625 
Q 57.328125 12.15625 50.6875 5.359375 
Q 44.046875 -1.421875 33.015625 -1.421875 
Q 20.359375 -1.421875 13.671875 8.265625 
Q 6.984375 17.96875 6.984375 36.375 
Q 6.984375 53.65625 15.1875 63.9375 
Q 23.390625 74.21875 37.203125 74.21875 
Q 40.921875 74.21875 44.703125 73.484375 
Q 48.484375 72.75 52.59375 71.296875 
z
" id="DejaVuSans-54"/>
       </defs>
       <use xlink:href="#DejaVuSans-48"/>
       <use x="63.623047" xlink:href="#DejaVuSans-46"/>
       <use x="95.410156" xlink:href="#DejaVuSans-54"/>
      </g>
     </g>
    </g>
    <g id="ytick_5">
     <g id="line2d_25">
      <path clip-path="url(#pb2b178e9aa)" d="M 90 243.1402 
L 648 243.1402 
" style="fill:none;stroke:#b0b0b0;stroke-linecap:square;stroke-width:0.8;"/>
     </g>
     <g id="line2d_26">
      <g>
       <use style="stroke:#000000;stroke-width:0.8;" x="90" xlink:href="#m9edf233ca7" y="243.1402"/>
      </g>
     </g>
     <g id="text_14">
      <!-- 0.8 -->
      <g transform="translate(67.096875 246.939418)scale(0.1 -0.1)">
       <defs>
        <path d="M 31.78125 34.625 
Q 24.75 34.625 20.71875 30.859375 
Q 16.703125 27.09375 16.703125 20.515625 
Q 16.703125 13.921875 20.71875 10.15625 
Q 24.75 6.390625 31.78125 6.390625 
Q 38.8125 6.390625 42.859375 10.171875 
Q 46.921875 13.96875 46.921875 20.515625 
Q 46.921875 27.09375 42.890625 30.859375 
Q 38.875 34.625 31.78125 34.625 
z
M 21.921875 38.8125 
Q 15.578125 40.375 12.03125 44.71875 
Q 8.5 49.078125 8.5 55.328125 
Q 8.5 64.0625 14.71875 69.140625 
Q 20.953125 74.21875 31.78125 74.21875 
Q 42.671875 74.21875 48.875 69.140625 
Q 55.078125 64.0625 55.078125 55.328125 
Q 55.078125 49.078125 51.53125 44.71875 
Q 48 40.375 41.703125 38.8125 
Q 48.828125 37.15625 52.796875 32.3125 
Q 56.78125 27.484375 56.78125 20.515625 
Q 56.78125 9.90625 50.3125 4.234375 
Q 43.84375 -1.421875 31.78125 -1.421875 
Q 19.734375 -1.421875 13.25 4.234375 
Q 6.78125 9.90625 6.78125 20.515625 
Q 6.78125 27.484375 10.78125 32.3125 
Q 14.796875 37.15625 21.921875 38.8125 
z
M 18.3125 54.390625 
Q 18.3125 48.734375 21.84375 45.5625 
Q 25.390625 42.390625 31.78125 42.390625 
Q 38.140625 42.390625 41.71875 45.5625 
Q 45.3125 48.734375 45.3125 54.390625 
Q 45.3125 60.0625 41.71875 63.234375 
Q 38.140625 66.40625 31.78125 66.40625 
Q 25.390625 66.40625 21.84375 63.234375 
Q 18.3125 60.0625 18.3125 54.390625 
z
" id="DejaVuSans-56"/>
       </defs>
       <use xlink:href="#DejaVuSans-48"/>
       <use x="63.623047" xlink:href="#DejaVuSans-46"/>
       <use x="95.410156" xlink:href="#DejaVuSans-56"/>
      </g>
     </g>
    </g>
    <g id="ytick_6">
     <g id="line2d_27">
      <path clip-path="url(#pb2b178e9aa)" d="M 90 152.602171 
L 648 152.602171 
" style="fill:none;stroke:#b0b0b0;stroke-linecap:square;stroke-width:0.8;"/>
     </g>
     <g id="line2d_28">
      <g>
       <use style="stroke:#000000;stroke-width:0.8;" x="90" xlink:href="#m9edf233ca7" y="152.602171"/>
      </g>
     </g>
     <g id="text_15">
      <!-- 1.0 -->
      <g transform="translate(67.096875 156.40139)scale(0.1 -0.1)">
       <use xlink:href="#DejaVuSans-49"/>
       <use x="63.623047" xlink:href="#DejaVuSans-46"/>
       <use x="95.410156" xlink:href="#DejaVuSans-48"/>
      </g>
     </g>
    </g>
    <g id="text_16">
     <!-- Cumulative cases -->
     <g transform="translate(61.017187 402.425781)rotate(-90)scale(0.1 -0.1)">
      <defs>
       <path d="M 64.40625 67.28125 
L 64.40625 56.890625 
Q 59.421875 61.53125 53.78125 63.8125 
Q 48.140625 66.109375 41.796875 66.109375 
Q 29.296875 66.109375 22.65625 58.46875 
Q 16.015625 50.828125 16.015625 36.375 
Q 16.015625 21.96875 22.65625 14.328125 
Q 29.296875 6.6875 41.796875 6.6875 
Q 48.140625 6.6875 53.78125 8.984375 
Q 59.421875 11.28125 64.40625 15.921875 
L 64.40625 5.609375 
Q 59.234375 2.09375 53.4375 0.328125 
Q 47.65625 -1.421875 41.21875 -1.421875 
Q 24.65625 -1.421875 15.125 8.703125 
Q 5.609375 18.84375 5.609375 36.375 
Q 5.609375 53.953125 15.125 64.078125 
Q 24.65625 74.21875 41.21875 74.21875 
Q 47.75 74.21875 53.53125 72.484375 
Q 59.328125 70.75 64.40625 67.28125 
z
" id="DejaVuSans-67"/>
       <path d="M 8.5 21.578125 
L 8.5 54.6875 
L 17.484375 54.6875 
L 17.484375 21.921875 
Q 17.484375 14.15625 20.5 10.265625 
Q 23.53125 6.390625 29.59375 6.390625 
Q 36.859375 6.390625 41.078125 11.03125 
Q 45.3125 15.671875 45.3125 23.6875 
L 45.3125 54.6875 
L 54.296875 54.6875 
L 54.296875 0 
L 45.3125 0 
L 45.3125 8.40625 
Q 42.046875 3.421875 37.71875 1 
Q 33.40625 -1.421875 27.6875 -1.421875 
Q 18.265625 -1.421875 13.375 4.4375 
Q 8.5 10.296875 8.5 21.578125 
z
M 31.109375 56 
z
" id="DejaVuSans-117"/>
       <path d="M 52 44.1875 
Q 55.375 50.25 60.0625 53.125 
Q 64.75 56 71.09375 56 
Q 79.640625 56 84.28125 50.015625 
Q 88.921875 44.046875 88.921875 33.015625 
L 88.921875 0 
L 79.890625 0 
L 79.890625 32.71875 
Q 79.890625 40.578125 77.09375 44.375 
Q 74.3125 48.1875 68.609375 48.1875 
Q 61.625 48.1875 57.5625 43.546875 
Q 53.515625 38.921875 53.515625 30.90625 
L 53.515625 0 
L 44.484375 0 
L 44.484375 32.71875 
Q 44.484375 40.625 41.703125 44.40625 
Q 38.921875 48.1875 33.109375 48.1875 
Q 26.21875 48.1875 22.15625 43.53125 
Q 18.109375 38.875 18.109375 30.90625 
L 18.109375 0 
L 9.078125 0 
L 9.078125 54.6875 
L 18.109375 54.6875 
L 18.109375 46.1875 
Q 21.1875 51.21875 25.484375 53.609375 
Q 29.78125 56 35.6875 56 
Q 41.65625 56 45.828125 52.96875 
Q 50 49.953125 52 44.1875 
z
" id="DejaVuSans-109"/>
       <path d="M 9.421875 75.984375 
L 18.40625 75.984375 
L 18.40625 0 
L 9.421875 0 
z
" id="DejaVuSans-108"/>
       <path d="M 18.3125 70.21875 
L 18.3125 54.6875 
L 36.8125 54.6875 
L 36.8125 47.703125 
L 18.3125 47.703125 
L 18.3125 18.015625 
Q 18.3125 11.328125 20.140625 9.421875 
Q 21.96875 7.515625 27.59375 7.515625 
L 36.8125 7.515625 
L 36.8125 0 
L 27.59375 0 
Q 17.1875 0 13.234375 3.875 
Q 9.28125 7.765625 9.28125 18.015625 
L 9.28125 47.703125 
L 2.6875 47.703125 
L 2.6875 54.6875 
L 9.28125 54.6875 
L 9.28125 70.21875 
z
" id="DejaVuSans-116"/>
       <path d="M 9.421875 54.6875 
L 18.40625 54.6875 
L 18.40625 0 
L 9.421875 0 
z
M 9.421875 75.984375 
L 18.40625 75.984375 
L 18.40625 64.59375 
L 9.421875 64.59375 
z
" id="DejaVuSans-105"/>
       <path d="M 2.984375 54.6875 
L 12.5 54.6875 
L 29.59375 8.796875 
L 46.6875 54.6875 
L 56.203125 54.6875 
L 35.6875 0 
L 23.484375 0 
z
" id="DejaVuSans-118"/>
       <path d="M 56.203125 29.59375 
L 56.203125 25.203125 
L 14.890625 25.203125 
Q 15.484375 15.921875 20.484375 11.0625 
Q 25.484375 6.203125 34.421875 6.203125 
Q 39.59375 6.203125 44.453125 7.46875 
Q 49.3125 8.734375 54.109375 11.28125 
L 54.109375 2.78125 
Q 49.265625 0.734375 44.1875 -0.34375 
Q 39.109375 -1.421875 33.890625 -1.421875 
Q 20.796875 -1.421875 13.15625 6.1875 
Q 5.515625 13.8125 5.515625 26.8125 
Q 5.515625 40.234375 12.765625 48.109375 
Q 20.015625 56 32.328125 56 
Q 43.359375 56 49.78125 48.890625 
Q 56.203125 41.796875 56.203125 29.59375 
z
M 47.21875 32.234375 
Q 47.125 39.59375 43.09375 43.984375 
Q 39.0625 48.390625 32.421875 48.390625 
Q 24.90625 48.390625 20.390625 44.140625 
Q 15.875 39.890625 15.1875 32.171875 
z
" id="DejaVuSans-101"/>
       <path id="DejaVuSans-32"/>
       <path d="M 48.78125 52.59375 
L 48.78125 44.1875 
Q 44.96875 46.296875 41.140625 47.34375 
Q 37.3125 48.390625 33.40625 48.390625 
Q 24.65625 48.390625 19.8125 42.84375 
Q 14.984375 37.3125 14.984375 27.296875 
Q 14.984375 17.28125 19.8125 11.734375 
Q 24.65625 6.203125 33.40625 6.203125 
Q 37.3125 6.203125 41.140625 7.25 
Q 44.96875 8.296875 48.78125 10.40625 
L 48.78125 2.09375 
Q 45.015625 0.34375 40.984375 -0.53125 
Q 36.96875 -1.421875 32.421875 -1.421875 
Q 20.0625 -1.421875 12.78125 6.34375 
Q 5.515625 14.109375 5.515625 27.296875 
Q 5.515625 40.671875 12.859375 48.328125 
Q 20.21875 56 33.015625 56 
Q 37.15625 56 41.109375 55.140625 
Q 45.0625 54.296875 48.78125 52.59375 
z
" id="DejaVuSans-99"/>
      </defs>
      <use xlink:href="#DejaVuSans-67"/>
      <use x="69.824219" xlink:href="#DejaVuSans-117"/>
      <use x="133.203125" xlink:href="#DejaVuSans-109"/>
      <use x="230.615234" xlink:href="#DejaVuSans-117"/>
      <use x="293.994141" xlink:href="#DejaVuSans-108"/>
      <use x="321.777344" xlink:href="#DejaVuSans-97"/>
      <use x="383.056641" xlink:href="#DejaVuSans-116"/>
      <use x="422.265625" xlink:href="#DejaVuSans-105"/>
      <use x="450.048828" xlink:href="#DejaVuSans-118"/>
      <use x="509.228516" xlink:href="#DejaVuSans-101"/>
      <use x="570.751953" xlink:href="#DejaVuSans-32"/>
      <use x="602.539062" xlink:href="#DejaVuSans-99"/>
      <use x="657.519531" xlink:href="#DejaVuSans-97"/>
      <use x="718.798828" xlink:href="#DejaVuSans-115"/>
      <use x="770.898438" xlink:href="#DejaVuSans-101"/>
      <use x="832.421875" xlink:href="#DejaVuSans-115"/>
     </g>
    </g>
    <g id="text_17">
     <!-- 1e7 -->
     <g transform="translate(90 83.4)scale(0.1 -0.1)">
      <defs>
       <path d="M 8.203125 72.90625 
L 55.078125 72.90625 
L 55.078125 68.703125 
L 28.609375 0 
L 18.3125 0 
L 43.21875 64.59375 
L 8.203125 64.59375 
z
" id="DejaVuSans-55"/>
      </defs>
      <use xlink:href="#DejaVuSans-49"/>
      <use x="63.623047" xlink:href="#DejaVuSans-101"/>
      <use x="125.146484" xlink:href="#DejaVuSans-55"/>
     </g>
    </g>
   </g>
   <g id="line2d_29">
    <path clip-path="url(#pb2b178e9aa)" d="M 115.363636 605.290909 
L 215.347826 605.174199 
L 240.343874 604.934727 
L 256.517787 604.560402 
L 268.280632 604.060691 
L 277.102767 603.473505 
L 284.454545 602.776506 
L 290.335968 602.03238 
L 296.217391 601.07022 
L 300.628458 600.168524 
L 305.039526 599.076926 
L 309.450593 597.756684 
L 313.86166 596.161737 
L 318.272727 594.237595 
L 321.213439 592.740737 
L 324.15415 591.047736 
L 327.094862 589.134758 
L 330.035573 586.975609 
L 332.976285 584.541644 
L 335.916996 581.801738 
L 338.857708 578.722309 
L 341.798419 575.267428 
L 344.73913 571.399041 
L 347.679842 567.077311 
L 350.620553 562.261134 
L 353.561265 556.908831 
L 356.501976 550.979053 
L 359.442688 544.43192 
L 362.383399 537.230394 
L 365.324111 529.341882 
L 368.264822 520.740044 
L 371.205534 511.406751 
L 374.146245 501.334107 
L 377.086957 490.526424 
L 380.027668 479.00201 
L 382.968379 466.794594 
L 387.379447 447.316891 
L 391.790514 426.657161 
L 397.671937 397.825726 
L 410.905138 332.146663 
L 415.316206 311.440919 
L 419.727273 291.904678 
L 422.667984 279.653065 
L 425.608696 268.081615 
L 428.549407 257.225131 
L 431.490119 247.102913 
L 434.43083 237.72016 
L 437.371542 229.069735 
L 440.312253 221.13413 
L 443.252964 213.887494 
L 446.193676 207.297596 
L 449.134387 201.327642 
L 452.075099 195.937896 
L 455.01581 191.087072 
L 457.956522 186.733481 
L 460.897233 182.835955 
L 463.837945 179.354557 
L 466.778656 176.251099 
L 469.719368 173.489502 
L 472.660079 171.036022 
L 475.600791 168.859367 
L 478.541502 166.930727 
L 481.482213 165.223745 
L 484.422925 163.714433 
L 488.833992 161.774153 
L 493.245059 160.165719 
L 497.656126 158.834238 
L 502.067194 157.733296 
L 506.478261 156.823847 
L 512.359684 155.853378 
L 518.241107 155.102801 
L 525.592885 154.39974 
L 534.41502 153.807432 
L 544.70751 153.353002 
L 557.940711 153.003593 
L 577.055336 152.75305 
L 607.932806 152.612865 
L 622.636364 152.589953 
L 622.636364 152.589953 
" style="fill:none;stroke:#1f77b4;stroke-linecap:square;stroke-width:1.5;"/>
   </g>
   <g id="line2d_30">
    <path clip-path="url(#pb2b178e9aa)" d="M 115.363636 605.290909 
L 134.478261 604.686171 
L 150.652174 603.957217 
L 163.885375 603.156919 
L 175.648221 602.243737 
L 185.940711 601.248529 
L 196.233202 600.027443 
L 205.055336 598.763586 
L 213.87747 597.260213 
L 221.229249 595.793292 
L 228.581028 594.101117 
L 235.932806 592.151075 
L 241.814229 590.380876 
L 247.695652 588.401484 
L 253.577075 586.190272 
L 259.458498 583.722701 
L 265.339921 580.972295 
L 271.221344 577.910664 
L 275.632411 575.392079 
L 280.043478 572.668067 
L 284.454545 569.724747 
L 288.865613 566.547813 
L 293.27668 563.122624 
L 297.687747 559.434308 
L 302.098814 555.467895 
L 306.509881 551.208471 
L 310.920949 546.641363 
L 315.332016 541.752348 
L 319.743083 536.527892 
L 324.15415 530.955413 
L 328.565217 525.023576 
L 332.976285 518.722602 
L 337.387352 512.044602 
L 341.798419 504.983915 
L 346.209486 497.537454 
L 350.620553 489.705047 
L 355.031621 481.489751 
L 359.442688 472.898146 
L 365.324111 460.875754 
L 371.205534 448.238727 
L 377.086957 435.035461 
L 382.968379 421.327166 
L 390.320158 403.594503 
L 399.142292 381.662947 
L 430.019763 304.06069 
L 437.371542 286.497822 
L 443.252964 272.955604 
L 449.134387 259.940895 
L 455.01581 247.510538 
L 460.897233 235.708474 
L 465.3083 227.288451 
L 469.719368 219.248209 
L 474.130435 211.59268 
L 478.541502 204.3234 
L 482.952569 197.438819 
L 487.363636 190.934627 
L 491.774704 184.804098 
L 496.185771 179.038434 
L 500.596838 173.627102 
L 505.007905 168.558157 
L 509.418972 163.818546 
L 513.83004 159.394388 
L 518.241107 155.271225 
L 522.652174 151.43425 
L 527.063241 147.8685 
L 531.474308 144.559035 
L 535.885375 141.491073 
L 540.296443 138.650113 
L 544.70751 136.022037 
L 549.118577 133.59318 
L 555 130.641952 
L 560.881423 127.991967 
L 566.762846 125.61549 
L 572.644269 123.486712 
L 578.525692 121.581754 
L 584.407115 119.878636 
L 591.758893 118.003053 
L 599.110672 116.375969 
L 606.462451 114.965832 
L 615.284585 113.521 
L 622.636364 112.494611 
L 622.636364 112.494611 
" style="fill:none;stroke:#ff7f0e;stroke-linecap:square;stroke-width:1.5;"/>
   </g>
   <g id="line2d_31">
    <path clip-path="url(#pb2b178e9aa)" d="M 115.363636 605.290909 
L 185.940711 605.158266 
L 212.407115 604.912105 
L 230.051383 604.542345 
L 243.284585 604.049208 
L 253.577075 603.453922 
L 262.399209 602.724209 
L 269.750988 601.901997 
L 275.632411 601.060894 
L 281.513834 600.01431 
L 287.395257 598.71352 
L 291.806324 597.535787 
L 296.217391 596.152196 
L 300.628458 594.52858 
L 305.039526 592.625794 
L 309.450593 590.399255 
L 312.391304 588.710385 
L 315.332016 586.838902 
L 318.272727 584.767135 
L 321.213439 582.476186 
L 324.15415 579.945965 
L 327.094862 577.155247 
L 330.035573 574.081782 
L 332.976285 570.70245 
L 335.916996 566.993469 
L 338.857708 562.930674 
L 341.798419 558.489863 
L 344.73913 553.647222 
L 347.679842 548.379834 
L 350.620553 542.666267 
L 353.561265 536.487234 
L 356.501976 529.826326 
L 359.442688 522.670793 
L 362.383399 515.012354 
L 365.324111 506.847991 
L 368.264822 498.180722 
L 371.205534 489.020264 
L 375.616601 474.394034 
L 380.027668 458.78759 
L 384.438735 442.329245 
L 390.320158 419.348723 
L 399.142292 383.641312 
L 407.964427 348.052244 
L 413.84585 325.255217 
L 418.256917 308.959828 
L 422.667984 293.513591 
L 427.079051 279.023107 
L 431.490119 265.559102 
L 434.43083 257.172954 
L 437.371542 249.263562 
L 440.312253 241.829106 
L 443.252964 234.863177 
L 446.193676 228.35547 
L 449.134387 222.292466 
L 452.075099 216.658081 
L 455.01581 211.434266 
L 457.956522 206.601555 
L 460.897233 202.139549 
L 463.837945 198.027333 
L 466.778656 194.243836 
L 469.719368 190.768125 
L 472.660079 187.579648 
L 475.600791 184.658424 
L 478.541502 181.985193 
L 481.482213 179.541519 
L 484.422925 177.309869 
L 487.363636 175.273659 
L 491.774704 172.551907 
L 496.185771 170.186413 
L 500.596838 168.133432 
L 505.007905 166.353844 
L 509.418972 164.812863 
L 513.83004 163.479711 
L 519.711462 161.979065 
L 525.592885 160.744742 
L 531.474308 159.730461 
L 538.826087 158.713931 
L 546.177866 157.920201 
L 555 157.194493 
L 565.29249 156.581074 
L 577.055336 156.098142 
L 591.758893 155.711774 
L 612.343874 155.412199 
L 622.636364 155.325046 
L 622.636364 155.325046 
" style="fill:none;stroke:#2ca02c;stroke-linecap:square;stroke-width:1.5;"/>
   </g>
   <g id="line2d_32">
    <path clip-path="url(#pb2b178e9aa)" d="M 115.363636 605.290909 
L 146.241107 605.121807 
L 168.296443 604.779862 
L 184.470356 604.317124 
L 197.703557 603.73022 
L 209.466403 602.983439 
L 219.758893 602.094122 
L 228.581028 601.103427 
L 235.932806 600.076123 
L 243.284585 598.825161 
L 249.166008 597.633205 
L 255.047431 596.242351 
L 260.928854 594.621906 
L 266.810277 592.737071 
L 271.221344 591.126518 
L 275.632411 589.327008 
L 280.043478 587.318738 
L 284.454545 585.080359 
L 288.865613 582.588981 
L 293.27668 579.820234 
L 297.687747 576.748365 
L 302.098814 573.346409 
L 306.509881 569.586429 
L 310.920949 565.439839 
L 315.332016 560.87783 
L 319.743083 555.871894 
L 324.15415 550.394466 
L 328.565217 544.419674 
L 332.976285 537.924196 
L 337.387352 530.888211 
L 341.798419 523.296414 
L 346.209486 515.139072 
L 350.620553 506.413055 
L 355.031621 497.122806 
L 359.442688 487.281169 
L 363.853755 476.910018 
L 368.264822 466.040615 
L 374.146245 450.844654 
L 380.027668 434.957523 
L 387.379447 414.35183 
L 397.671937 384.706839 
L 410.905138 346.659148 
L 418.256917 326.222317 
L 424.13834 310.487583 
L 430.019763 295.429008 
L 434.43083 284.635358 
L 438.841897 274.303849 
L 443.252964 264.455786 
L 447.664032 255.104959 
L 452.075099 246.258277 
L 456.486166 237.916518 
L 460.897233 230.075117 
L 465.3083 222.724984 
L 469.719368 215.853296 
L 474.130435 209.444239 
L 478.541502 203.479706 
L 482.952569 197.939909 
L 487.363636 192.803925 
L 491.774704 188.050165 
L 496.185771 183.656766 
L 500.596838 179.601921 
L 505.007905 175.864143 
L 509.418972 172.422469 
L 513.83004 169.256628 
L 518.241107 166.347156 
L 522.652174 163.675477 
L 527.063241 161.223961 
L 531.474308 158.975951 
L 537.355731 156.268221 
L 543.237154 153.86007 
L 549.118577 151.720043 
L 555 149.819558 
L 560.881423 148.132746 
L 568.233202 146.289383 
L 575.58498 144.703119 
L 582.936759 143.338634 
L 591.758893 141.95103 
L 600.581028 140.793306 
L 610.873518 139.682546 
L 622.636364 138.668923 
L 622.636364 138.668923 
" style="fill:none;stroke:#d62728;stroke-linecap:square;stroke-width:1.5;"/>
   </g>
   <g id="line2d_33">
    <path clip-path="url(#pb2b178e9aa)" d="M 115.363636 605.290909 
L 206.525692 605.182069 
L 231.521739 604.95434 
L 247.695652 604.596321 
L 259.458498 604.116606 
L 268.280632 603.551539 
L 275.632411 602.879707 
L 281.513834 602.161705 
L 287.395257 601.232744 
L 293.27668 600.032636 
L 297.687747 598.909493 
L 302.098814 597.552256 
L 306.509881 595.914783 
L 310.920949 593.943049 
L 313.86166 592.412273 
L 316.802372 590.684406 
L 319.743083 588.736703 
L 322.683794 586.544519 
L 325.624506 584.081353 
L 328.565217 581.318962 
L 331.505929 578.227551 
L 334.44664 574.776078 
L 337.387352 570.932664 
L 340.328063 566.665144 
L 343.268775 561.941764 
L 346.209486 556.732026 
L 349.150198 551.007677 
L 352.090909 544.743828 
L 355.031621 537.92017 
L 357.972332 530.522244 
L 360.913043 522.542683 
L 363.853755 513.98238 
L 366.794466 504.851459 
L 369.735178 495.169987 
L 374.146245 479.68474 
L 378.557312 463.176683 
L 382.968379 445.837719 
L 388.849802 421.826231 
L 403.55336 361.088032 
L 409.434783 338.002711 
L 413.84585 321.565921 
L 418.256917 306.024886 
L 422.667984 291.466612 
L 427.079051 277.942034 
L 430.019763 269.510677 
L 432.960474 261.547036 
L 435.901186 254.045786 
L 438.841897 246.997895 
L 441.782609 240.391297 
L 444.72332 234.211519 
L 447.664032 228.44224 
L 450.604743 223.065795 
L 453.545455 218.063615 
L 456.486166 213.416592 
L 459.426877 209.105404 
L 462.367589 205.110771 
L 465.3083 201.413669 
L 468.249012 197.995503 
L 471.189723 194.838236 
L 474.130435 191.924489 
L 477.071146 189.237616 
L 480.011858 186.761748 
L 484.422925 183.410863 
L 488.833992 180.453694 
L 493.245059 177.847017 
L 497.656126 175.551626 
L 502.067194 173.532141 
L 506.478261 171.756776 
L 510.889328 170.197076 
L 515.300395 168.827653 
L 521.181818 167.259063 
L 527.063241 165.942216 
L 532.944664 164.837435 
L 540.296443 163.703927 
L 547.648221 162.795057 
L 556.470356 161.939447 
L 566.762846 161.190652 
L 578.525692 160.576897 
L 593.229249 160.061643 
L 610.873518 159.681792 
L 622.636364 159.520848 
L 622.636364 159.520848 
" style="fill:none;stroke:#9467bd;stroke-linecap:square;stroke-width:1.5;"/>
   </g>
   <g id="line2d_34">
    <path clip-path="url(#pb2b178e9aa)" d="M 115.363636 605.290909 
L 133.007905 605.184536 
L 149.181818 604.880697 
L 162.41502 604.435849 
L 174.177866 603.844076 
L 184.470356 603.133363 
L 194.762846 602.198328 
L 203.58498 601.179231 
L 212.407115 599.918148 
L 219.758893 598.649359 
L 227.110672 597.149834 
L 234.462451 595.384597 
L 240.343874 593.754717 
L 246.225296 591.907174 
L 252.106719 589.817489 
L 257.988142 587.45909 
L 263.869565 584.803314 
L 268.280632 582.597933 
L 272.6917 580.194388 
L 277.102767 577.578463 
L 281.513834 574.735458 
L 285.924901 571.650278 
L 290.335968 568.307546 
L 294.747036 564.691744 
L 299.158103 560.78738 
L 303.56917 556.579184 
L 307.980237 552.05234 
L 312.391304 547.192739 
L 316.802372 541.987269 
L 321.213439 536.424127 
L 325.624506 530.493153 
L 330.035573 524.186181 
L 334.44664 517.497396 
L 338.857708 510.423687 
L 343.268775 502.96499 
L 347.679842 495.124597 
L 352.090909 486.90943 
L 357.972332 475.392071 
L 363.853755 463.264621 
L 369.735178 450.576417 
L 375.616601 437.389222 
L 382.968379 420.316127 
L 391.790514 399.184501 
L 407.964427 359.643532 
L 419.727273 331.217033 
L 427.079051 313.972399 
L 434.43083 297.319062 
L 440.312253 284.510681 
L 446.193676 272.219031 
L 452.075099 260.486944 
L 457.956522 249.345944 
L 462.367589 241.390962 
L 466.778656 233.785375 
L 471.189723 226.531301 
L 475.600791 219.6282 
L 480.011858 213.073164 
L 484.422925 206.861191 
L 488.833992 200.985477 
L 493.245059 195.437688 
L 497.656126 190.208224 
L 502.067194 185.286467 
L 506.478261 180.661008 
L 510.889328 176.319852 
L 515.300395 172.25061 
L 519.711462 168.440657 
L 524.12253 164.877281 
L 528.533597 161.547803 
L 532.944664 158.439684 
L 537.355731 155.540612 
L 543.237154 151.97965 
L 549.118577 148.741535 
L 555 145.800092 
L 560.881423 143.130566 
L 566.762846 140.70969 
L 572.644269 138.515716 
L 578.525692 136.528413 
L 585.87747 134.306499 
L 593.229249 132.344877 
L 600.581028 130.613427 
L 607.932806 129.085152 
L 616.754941 127.485646 
L 622.636364 126.544308 
L 622.636364 126.544308 
" style="fill:none;stroke:#8c564b;stroke-linecap:square;stroke-width:1.5;"/>
   </g>
   <g id="line2d_35">
    <path clip-path="url(#pb2b178e9aa)" d="M 115.363636 605.290909 
L 209.466403 605.183484 
L 234.462451 604.940722 
L 249.166008 604.592156 
L 259.458498 604.1591 
L 268.280632 603.581309 
L 275.632411 602.882111 
L 281.513834 602.124131 
L 287.395257 601.131013 
L 291.806324 600.190076 
L 296.217391 599.040719 
L 300.628458 597.638926 
L 305.039526 595.932427 
L 307.980237 594.595496 
L 310.920949 593.075266 
L 313.86166 591.348896 
L 316.802372 589.391366 
L 319.743083 587.175475 
L 322.683794 584.67189 
L 325.624506 581.849297 
L 328.565217 578.674651 
L 331.505929 575.113559 
L 334.44664 571.130816 
L 337.387352 566.691113 
L 340.328063 561.759917 
L 343.268775 556.304541 
L 346.209486 550.295384 
L 349.150198 543.707296 
L 352.090909 536.521043 
L 355.031621 528.724773 
L 357.972332 520.315407 
L 360.913043 511.299839 
L 363.853755 501.695848 
L 366.794466 491.532599 
L 371.205534 475.330909 
L 375.616601 458.14672 
L 381.498024 434.10517 
L 402.083004 348.504245 
L 406.494071 331.488811 
L 410.905138 315.347068 
L 415.316206 300.18304 
L 419.727273 286.06141 
L 422.667984 277.24219 
L 425.608696 268.901702 
L 428.549407 261.036494 
L 431.490119 253.638941 
L 434.43083 246.697976 
L 437.371542 240.199773 
L 440.312253 234.128359 
L 443.252964 228.466173 
L 446.193676 223.194539 
L 449.134387 218.294086 
L 452.075099 213.745094 
L 455.01581 209.527788 
L 457.956522 205.622574 
L 460.897233 202.010236 
L 463.837945 198.67208 
L 466.778656 195.590053 
L 469.719368 192.746824 
L 472.660079 190.125845 
L 475.600791 187.711387 
L 480.011858 184.444582 
L 484.422925 181.562431 
L 488.833992 179.022414 
L 493.245059 176.786049 
L 497.656126 174.818671 
L 502.067194 173.089182 
L 506.478261 171.56978 
L 512.359684 169.828284 
L 518.241107 168.365273 
L 524.12253 167.137082 
L 530.003953 166.106625 
L 537.355731 165.049242 
L 544.70751 164.201234 
L 553.529644 163.402684 
L 563.822134 162.703535 
L 575.58498 162.130159 
L 590.288538 161.648455 
L 609.403162 161.271089 
L 622.636364 161.112243 
L 622.636364 161.112243 
" style="fill:none;stroke:#e377c2;stroke-linecap:square;stroke-width:1.5;"/>
   </g>
   <g id="line2d_36">
    <path clip-path="url(#pb2b178e9aa)" d="M 115.363636 605.290909 
L 137.418972 605.176665 
L 156.533597 604.880197 
L 172.70751 604.420693 
L 185.940711 603.839167 
L 197.703557 603.109685 
L 207.996047 602.256826 
L 216.818182 601.324659 
L 225.640316 600.163624 
L 232.992095 598.985701 
L 240.343874 597.580561 
L 247.695652 595.908871 
L 253.577075 594.349345 
L 259.458498 592.564093 
L 265.339921 590.523986 
L 271.221344 588.196866 
L 275.632411 586.242067 
L 280.043478 584.089992 
L 284.454545 581.72361 
L 288.865613 579.124946 
L 293.27668 576.275142 
L 297.687747 573.154555 
L 302.098814 569.742886 
L 306.509881 566.019357 
L 310.920949 561.962929 
L 315.332016 557.552576 
L 319.743083 552.767611 
L 324.15415 547.588068 
L 328.565217 541.995146 
L 332.976285 535.971698 
L 337.387352 529.502772 
L 341.798419 522.576193 
L 346.209486 515.183156 
L 350.620553 507.318838 
L 355.031621 498.982975 
L 359.442688 490.180405 
L 363.853755 480.92153 
L 368.264822 471.222673 
L 374.146245 457.646164 
L 380.027668 443.39846 
L 385.909091 428.56877 
L 393.26087 409.376634 
L 403.55336 381.718785 
L 421.197628 334.097102 
L 428.549407 314.887466 
L 434.43083 300.022093 
L 440.312253 285.708534 
L 446.193676 272.025833 
L 452.075099 259.035132 
L 456.486166 249.772992 
L 460.897233 240.936921 
L 465.3083 232.533984 
L 469.719368 224.566687 
L 474.130435 217.033447 
L 478.541502 209.929093 
L 482.952569 203.245372 
L 487.363636 196.971457 
L 491.774704 191.094418 
L 496.185771 185.599673 
L 500.596838 180.471398 
L 505.007905 175.692891 
L 509.418972 171.2469 
L 513.83004 167.115896 
L 518.241107 163.282319 
L 522.652174 159.72877 
L 527.063241 156.438178 
L 531.474308 153.393923 
L 535.885375 150.579943 
L 540.296443 147.980803 
L 544.70751 145.581753 
L 550.588933 142.670122 
L 556.470356 140.058114 
L 562.351779 137.716844 
L 568.233202 135.619733 
L 574.114625 133.742432 
L 579.996047 132.062725 
L 587.347826 130.21036 
L 594.699605 128.599944 
L 602.051383 127.200298 
L 610.873518 125.760606 
L 619.695652 124.544165 
L 622.636364 124.182108 
L 622.636364 124.182108 
" style="fill:none;stroke:#7f7f7f;stroke-linecap:square;stroke-width:1.5;"/>
   </g>
   <g id="line2d_37">
    <path clip-path="url(#pb2b178e9aa)" d="M 115.363636 605.290909 
L 135.948617 605.177289 
L 153.592885 604.863546 
L 168.296443 604.380709 
L 180.059289 603.794087 
L 190.351779 603.089562 
L 200.644269 602.158965 
L 209.466403 601.138688 
L 216.818182 600.098798 
L 224.16996 598.855243 
L 231.521739 597.374001 
L 237.403162 595.991813 
L 243.284585 594.410104 
L 249.166008 592.603951 
L 255.047431 590.545903 
L 260.928854 588.205895 
L 265.339921 586.246276 
L 269.750988 584.094946 
L 274.162055 581.736346 
L 278.573123 579.154172 
L 282.98419 576.331448 
L 287.395257 573.250629 
L 291.806324 569.893735 
L 296.217391 566.242519 
L 300.628458 562.278679 
L 305.039526 557.984103 
L 309.450593 553.341164 
L 313.86166 548.333054 
L 318.272727 542.944162 
L 322.683794 537.160486 
L 327.094862 530.970076 
L 331.505929 524.363503 
L 335.916996 517.334327 
L 340.328063 509.879567 
L 344.73913 502.000142 
L 349.150198 493.701264 
L 353.561265 484.992768 
L 357.972332 475.889353 
L 363.853755 463.171911 
L 369.735178 449.84845 
L 375.616601 435.994554 
L 382.968379 418.068378 
L 391.790514 395.92949 
L 416.786561 332.716302 
L 424.13834 314.875347 
L 430.019763 301.083423 
L 435.901186 287.80019 
L 441.782609 275.086212 
L 447.664032 262.988193 
L 452.075099 254.339352 
L 456.486166 246.065175 
L 460.897233 238.171162 
L 465.3083 230.659356 
L 469.719368 223.528693 
L 474.130435 216.775351 
L 478.541502 210.393111 
L 482.952569 204.373712 
L 487.363636 198.707193 
L 491.774704 193.382207 
L 496.185771 188.386326 
L 500.596838 183.706306 
L 505.007905 179.328335 
L 509.418972 175.238241 
L 513.83004 171.421684 
L 518.241107 167.864318 
L 522.652174 164.551921 
L 527.063241 161.470513 
L 531.474308 158.606446 
L 535.885375 155.946479 
L 541.766798 152.695327 
L 547.648221 149.755473 
L 553.529644 147.09974 
L 559.411067 144.702717 
L 565.29249 142.540777 
L 571.173913 140.59205 
L 578.525692 138.425423 
L 585.87747 136.524794 
L 593.229249 134.858156 
L 600.581028 133.396988 
L 609.403162 131.879368 
L 618.225296 130.583045 
L 622.636364 130.007386 
L 622.636364 130.007386 
" style="fill:none;stroke:#bcbd22;stroke-linecap:square;stroke-width:1.5;"/>
   </g>
   <g id="line2d_38">
    <path clip-path="url(#pb2b178e9aa)" d="M 115.363636 605.290909 
L 156.533597 605.176107 
L 169.766798 604.875611 
L 193.29249 603.874306 
L 199.173913 603.495178 
L 205.055336 602.893643 
L 216.818182 601.580389 
L 221.229249 600.960158 
L 225.640316 600.220915 
L 234.462451 598.466062 
L 240.343874 597.061183 
L 249.166008 594.600496 
L 263.869565 589.760921 
L 266.810277 588.681029 
L 269.750988 587.408879 
L 277.102767 583.875316 
L 280.043478 582.252512 
L 284.454545 579.632024 
L 288.865613 576.974552 
L 291.806324 574.818797 
L 294.747036 572.713833 
L 297.687747 570.557579 
L 302.098814 566.835289 
L 306.509881 562.912322 
L 309.450593 559.849827 
L 312.391304 556.502229 
L 315.332016 552.9913 
L 316.802372 551.282848 
L 319.743083 546.980933 
L 330.035573 531.288973 
L 331.505929 528.516608 
L 335.916996 521.284566 
L 338.857708 516.359705 
L 344.73913 505.018096 
L 346.209486 502.591632 
L 347.679842 499.831897 
L 352.090909 490.946314 
L 353.561265 488.047739 
L 357.972332 480.021497 
L 363.853755 467.450881 
L 368.264822 459.320249 
L 369.735178 455.441283 
L 380.027668 430.852422 
L 382.968379 423.166965 
L 385.909091 414.953627 
L 387.379447 411.521828 
L 390.320158 403.127097 
L 396.201581 385.89934 
L 399.142292 378.02561 
L 403.55336 365.003752 
L 406.494071 356.874976 
L 407.964427 353.476043 
L 412.375494 341.891385 
L 416.786561 330.296542 
L 418.256917 327.101047 
L 421.197628 319.527858 
L 424.13834 312.241358 
L 427.079051 305.438738 
L 428.549407 302.665241 
L 430.019763 299.403654 
L 431.490119 295.84895 
L 434.43083 289.340714 
L 435.901186 285.973469 
L 437.371542 282.952577 
L 438.841897 280.447299 
L 446.193676 266.021377 
L 447.664032 263.498897 
L 449.134387 261.38076 
L 456.486166 249.260072 
L 457.956522 247.216267 
L 459.426877 245.565306 
L 460.897233 243.578313 
L 465.3083 236.932958 
L 468.249012 232.759426 
L 469.719368 231.02517 
L 472.660079 226.658385 
L 478.541502 218.076693 
L 480.011858 216.353166 
L 482.952569 212.179996 
L 487.363636 206.265011 
L 490.304348 203.561953 
L 491.774704 201.8138 
L 499.126482 191.539635 
L 500.596838 189.820544 
L 505.007905 183.847433 
L 509.418972 178.328959 
L 510.889328 176.920278 
L 518.241107 168.707891 
L 519.711462 167.214873 
L 521.181818 166.012211 
L 525.592885 161.80337 
L 530.003953 157.84885 
L 531.474308 156.849989 
L 534.41502 154.568793 
L 537.355731 152.393979 
L 540.296443 150.087025 
L 541.766798 149.201744 
L 547.648221 144.946366 
L 553.529644 141.517963 
L 555 140.530102 
L 556.470356 140.530102 
L 557.940711 139.623138 
L 559.411067 137.936595 
L 563.822134 135.629369 
L 566.762846 133.887191 
L 568.233202 133.887191 
L 569.703557 132.218259 
L 571.173913 131.479876 
L 572.644269 130.91021 
L 579.996047 127.34274 
L 581.466403 126.718571 
L 582.936759 126.263618 
L 588.818182 123.644307 
L 591.758893 122.374421 
L 593.229249 121.962382 
L 596.16996 120.859855 
L 597.640316 120.006308 
L 602.051383 118.305914 
L 604.992095 117.415291 
L 610.873518 115.193533 
L 612.343874 114.657955 
L 615.284585 113.744562 
L 616.754941 113.159551 
L 618.225296 112.738142 
L 622.636364 111.109091 
L 622.636364 111.109091 
" style="fill:none;stroke:#17becf;stroke-dasharray:14.8,6.4;stroke-dashoffset:0;stroke-width:4;"/>
   </g>
   <g id="patch_3">
    <path d="M 90 630 
L 90 86.4 
" style="fill:none;stroke:#000000;stroke-linecap:square;stroke-linejoin:miter;stroke-width:0.8;"/>
   </g>
   <g id="patch_4">
    <path d="M 648 630 
L 648 86.4 
" style="fill:none;stroke:#000000;stroke-linecap:square;stroke-linejoin:miter;stroke-width:0.8;"/>
   </g>
   <g id="patch_5">
    <path d="M 90 630 
L 648 630 
" style="fill:none;stroke:#000000;stroke-linecap:square;stroke-linejoin:miter;stroke-width:0.8;"/>
   </g>
   <g id="patch_6">
    <path d="M 90 86.4 
L 648 86.4 
" style="fill:none;stroke:#000000;stroke-linecap:square;stroke-linejoin:miter;stroke-width:0.8;"/>
   </g>
   <g id="text_18">
    <!-- India relative err =  -->
    <g transform="translate(310.47 80.4)scale(0.12 -0.12)">
     <defs>
      <path d="M 9.8125 72.90625 
L 19.671875 72.90625 
L 19.671875 0 
L 9.8125 0 
z
" id="DejaVuSans-73"/>
      <path d="M 54.890625 33.015625 
L 54.890625 0 
L 45.90625 0 
L 45.90625 32.71875 
Q 45.90625 40.484375 42.875 44.328125 
Q 39.84375 48.1875 33.796875 48.1875 
Q 26.515625 48.1875 22.3125 43.546875 
Q 18.109375 38.921875 18.109375 30.90625 
L 18.109375 0 
L 9.078125 0 
L 9.078125 54.6875 
L 18.109375 54.6875 
L 18.109375 46.1875 
Q 21.34375 51.125 25.703125 53.5625 
Q 30.078125 56 35.796875 56 
Q 45.21875 56 50.046875 50.171875 
Q 54.890625 44.34375 54.890625 33.015625 
z
" id="DejaVuSans-110"/>
      <path d="M 45.40625 46.390625 
L 45.40625 75.984375 
L 54.390625 75.984375 
L 54.390625 0 
L 45.40625 0 
L 45.40625 8.203125 
Q 42.578125 3.328125 38.25 0.953125 
Q 33.9375 -1.421875 27.875 -1.421875 
Q 17.96875 -1.421875 11.734375 6.484375 
Q 5.515625 14.40625 5.515625 27.296875 
Q 5.515625 40.1875 11.734375 48.09375 
Q 17.96875 56 27.875 56 
Q 33.9375 56 38.25 53.625 
Q 42.578125 51.265625 45.40625 46.390625 
z
M 14.796875 27.296875 
Q 14.796875 17.390625 18.875 11.75 
Q 22.953125 6.109375 30.078125 6.109375 
Q 37.203125 6.109375 41.296875 11.75 
Q 45.40625 17.390625 45.40625 27.296875 
Q 45.40625 37.203125 41.296875 42.84375 
Q 37.203125 48.484375 30.078125 48.484375 
Q 22.953125 48.484375 18.875 42.84375 
Q 14.796875 37.203125 14.796875 27.296875 
z
" id="DejaVuSans-100"/>
      <path d="M 41.109375 46.296875 
Q 39.59375 47.171875 37.8125 47.578125 
Q 36.03125 48 33.890625 48 
Q 26.265625 48 22.1875 43.046875 
Q 18.109375 38.09375 18.109375 28.8125 
L 18.109375 0 
L 9.078125 0 
L 9.078125 54.6875 
L 18.109375 54.6875 
L 18.109375 46.1875 
Q 20.953125 51.171875 25.484375 53.578125 
Q 30.03125 56 36.53125 56 
Q 37.453125 56 38.578125 55.875 
Q 39.703125 55.765625 41.0625 55.515625 
z
" id="DejaVuSans-114"/>
      <path d="M 10.59375 45.40625 
L 73.1875 45.40625 
L 73.1875 37.203125 
L 10.59375 37.203125 
z
M 10.59375 25.484375 
L 73.1875 25.484375 
L 73.1875 17.1875 
L 10.59375 17.1875 
z
" id="DejaVuSans-61"/>
     </defs>
     <use xlink:href="#DejaVuSans-73"/>
     <use x="29.492188" xlink:href="#DejaVuSans-110"/>
     <use x="92.871094" xlink:href="#DejaVuSans-100"/>
     <use x="156.347656" xlink:href="#DejaVuSans-105"/>
     <use x="184.130859" xlink:href="#DejaVuSans-97"/>
     <use x="245.410156" xlink:href="#DejaVuSans-32"/>
     <use x="277.197266" xlink:href="#DejaVuSans-114"/>
     <use x="316.060547" xlink:href="#DejaVuSans-101"/>
     <use x="377.583984" xlink:href="#DejaVuSans-108"/>
     <use x="405.367188" xlink:href="#DejaVuSans-97"/>
     <use x="466.646484" xlink:href="#DejaVuSans-116"/>
     <use x="505.855469" xlink:href="#DejaVuSans-105"/>
     <use x="533.638672" xlink:href="#DejaVuSans-118"/>
     <use x="592.818359" xlink:href="#DejaVuSans-101"/>
     <use x="654.341797" xlink:href="#DejaVuSans-32"/>
     <use x="686.128906" xlink:href="#DejaVuSans-101"/>
     <use x="747.652344" xlink:href="#DejaVuSans-114"/>
     <use x="787.015625" xlink:href="#DejaVuSans-114"/>
     <use x="828.128906" xlink:href="#DejaVuSans-32"/>
     <use x="859.916016" xlink:href="#DejaVuSans-61"/>
     <use x="943.705078" xlink:href="#DejaVuSans-32"/>
    </g>
   </g>
   <g id="legend_1">
    <g id="patch_7">
     <path d="M 97 226.503125 
L 185.6 226.503125 
Q 187.6 226.503125 187.6 224.503125 
L 187.6 93.4 
Q 187.6 91.4 185.6 91.4 
L 97 91.4 
Q 95 91.4 95 93.4 
L 95 224.503125 
Q 95 226.503125 97 226.503125 
z
" style="fill:#ffffff;opacity:0.8;stroke:#cccccc;stroke-linejoin:miter;"/>
    </g>
    <g id="line2d_39">
     <path d="M 99 99.498438 
L 119 99.498438 
" style="fill:none;stroke:#1f77b4;stroke-linecap:square;stroke-width:1.5;"/>
    </g>
    <g id="line2d_40"/>
    <g id="text_19">
     <!-- SI -->
     <g transform="translate(127 102.998438)scale(0.1 -0.1)">
      <defs>
       <path d="M 53.515625 70.515625 
L 53.515625 60.890625 
Q 47.90625 63.578125 42.921875 64.890625 
Q 37.9375 66.21875 33.296875 66.21875 
Q 25.25 66.21875 20.875 63.09375 
Q 16.5 59.96875 16.5 54.203125 
Q 16.5 49.359375 19.40625 46.890625 
Q 22.3125 44.4375 30.421875 42.921875 
L 36.375 41.703125 
Q 47.40625 39.59375 52.65625 34.296875 
Q 57.90625 29 57.90625 20.125 
Q 57.90625 9.515625 50.796875 4.046875 
Q 43.703125 -1.421875 29.984375 -1.421875 
Q 24.8125 -1.421875 18.96875 -0.25 
Q 13.140625 0.921875 6.890625 3.21875 
L 6.890625 13.375 
Q 12.890625 10.015625 18.65625 8.296875 
Q 24.421875 6.59375 29.984375 6.59375 
Q 38.421875 6.59375 43.015625 9.90625 
Q 47.609375 13.234375 47.609375 19.390625 
Q 47.609375 24.75 44.3125 27.78125 
Q 41.015625 30.8125 33.5 32.328125 
L 27.484375 33.5 
Q 16.453125 35.6875 11.515625 40.375 
Q 6.59375 45.0625 6.59375 53.421875 
Q 6.59375 63.09375 13.40625 68.65625 
Q 20.21875 74.21875 32.171875 74.21875 
Q 37.3125 74.21875 42.625 73.28125 
Q 47.953125 72.359375 53.515625 70.515625 
z
" id="DejaVuSans-83"/>
      </defs>
      <use xlink:href="#DejaVuSans-83"/>
      <use x="63.476562" xlink:href="#DejaVuSans-73"/>
     </g>
    </g>
    <g id="line2d_41">
     <path d="M 99 114.176563 
L 119 114.176563 
" style="fill:none;stroke:#ff7f0e;stroke-linecap:square;stroke-width:1.5;"/>
    </g>
    <g id="line2d_42"/>
    <g id="text_20">
     <!-- BD -->
     <g transform="translate(127 117.676563)scale(0.1 -0.1)">
      <defs>
       <path d="M 19.671875 34.8125 
L 19.671875 8.109375 
L 35.5 8.109375 
Q 43.453125 8.109375 47.28125 11.40625 
Q 51.125 14.703125 51.125 21.484375 
Q 51.125 28.328125 47.28125 31.5625 
Q 43.453125 34.8125 35.5 34.8125 
z
M 19.671875 64.796875 
L 19.671875 42.828125 
L 34.28125 42.828125 
Q 41.5 42.828125 45.03125 45.53125 
Q 48.578125 48.25 48.578125 53.8125 
Q 48.578125 59.328125 45.03125 62.0625 
Q 41.5 64.796875 34.28125 64.796875 
z
M 9.8125 72.90625 
L 35.015625 72.90625 
Q 46.296875 72.90625 52.390625 68.21875 
Q 58.5 63.53125 58.5 54.890625 
Q 58.5 48.1875 55.375 44.234375 
Q 52.25 40.28125 46.1875 39.3125 
Q 53.46875 37.75 57.5 32.78125 
Q 61.53125 27.828125 61.53125 20.40625 
Q 61.53125 10.640625 54.890625 5.3125 
Q 48.25 0 35.984375 0 
L 9.8125 0 
z
" id="DejaVuSans-66"/>
      </defs>
      <use xlink:href="#DejaVuSans-66"/>
      <use x="68.603516" xlink:href="#DejaVuSans-68"/>
     </g>
    </g>
    <g id="line2d_43">
     <path d="M 99 128.854688 
L 119 128.854688 
" style="fill:none;stroke:#2ca02c;stroke-linecap:square;stroke-width:1.5;"/>
    </g>
    <g id="line2d_44"/>
    <g id="text_21">
     <!-- SIR -->
     <g transform="translate(127 132.354688)scale(0.1 -0.1)">
      <defs>
       <path d="M 44.390625 34.1875 
Q 47.5625 33.109375 50.5625 29.59375 
Q 53.5625 26.078125 56.59375 19.921875 
L 66.609375 0 
L 56 0 
L 46.6875 18.703125 
Q 43.0625 26.03125 39.671875 28.421875 
Q 36.28125 30.8125 30.421875 30.8125 
L 19.671875 30.8125 
L 19.671875 0 
L 9.8125 0 
L 9.8125 72.90625 
L 32.078125 72.90625 
Q 44.578125 72.90625 50.734375 67.671875 
Q 56.890625 62.453125 56.890625 51.90625 
Q 56.890625 45.015625 53.6875 40.46875 
Q 50.484375 35.9375 44.390625 34.1875 
z
M 19.671875 64.796875 
L 19.671875 38.921875 
L 32.078125 38.921875 
Q 39.203125 38.921875 42.84375 42.21875 
Q 46.484375 45.515625 46.484375 51.90625 
Q 46.484375 58.296875 42.84375 61.546875 
Q 39.203125 64.796875 32.078125 64.796875 
z
" id="DejaVuSans-82"/>
      </defs>
      <use xlink:href="#DejaVuSans-83"/>
      <use x="63.476562" xlink:href="#DejaVuSans-73"/>
      <use x="92.96875" xlink:href="#DejaVuSans-82"/>
     </g>
    </g>
    <g id="line2d_45">
     <path d="M 99 143.532812 
L 119 143.532812 
" style="fill:none;stroke:#d62728;stroke-linecap:square;stroke-width:1.5;"/>
    </g>
    <g id="line2d_46"/>
    <g id="text_22">
     <!-- eSIR -->
     <g transform="translate(127 147.032812)scale(0.1 -0.1)">
      <use xlink:href="#DejaVuSans-101"/>
      <use x="61.523438" xlink:href="#DejaVuSans-83"/>
      <use x="125" xlink:href="#DejaVuSans-73"/>
      <use x="154.492188" xlink:href="#DejaVuSans-82"/>
     </g>
    </g>
    <g id="line2d_47">
     <path d="M 99 158.210938 
L 119 158.210938 
" style="fill:none;stroke:#9467bd;stroke-linecap:square;stroke-width:1.5;"/>
    </g>
    <g id="line2d_48"/>
    <g id="text_23">
     <!-- SEIR -->
     <g transform="translate(127 161.710938)scale(0.1 -0.1)">
      <defs>
       <path d="M 9.8125 72.90625 
L 55.90625 72.90625 
L 55.90625 64.59375 
L 19.671875 64.59375 
L 19.671875 43.015625 
L 54.390625 43.015625 
L 54.390625 34.71875 
L 19.671875 34.71875 
L 19.671875 8.296875 
L 56.78125 8.296875 
L 56.78125 0 
L 9.8125 0 
z
" id="DejaVuSans-69"/>
      </defs>
      <use xlink:href="#DejaVuSans-83"/>
      <use x="63.476562" xlink:href="#DejaVuSans-69"/>
      <use x="126.660156" xlink:href="#DejaVuSans-73"/>
      <use x="156.152344" xlink:href="#DejaVuSans-82"/>
     </g>
    </g>
    <g id="line2d_49">
     <path d="M 99 172.889063 
L 119 172.889063 
" style="fill:none;stroke:#8c564b;stroke-linecap:square;stroke-width:1.5;"/>
    </g>
    <g id="line2d_50"/>
    <g id="text_24">
     <!-- eSEIR -->
     <g transform="translate(127 176.389063)scale(0.1 -0.1)">
      <use xlink:href="#DejaVuSans-101"/>
      <use x="61.523438" xlink:href="#DejaVuSans-83"/>
      <use x="125" xlink:href="#DejaVuSans-69"/>
      <use x="188.183594" xlink:href="#DejaVuSans-73"/>
      <use x="217.675781" xlink:href="#DejaVuSans-82"/>
     </g>
    </g>
    <g id="line2d_51">
     <path d="M 99 187.567188 
L 119 187.567188 
" style="fill:none;stroke:#e377c2;stroke-linecap:square;stroke-width:1.5;"/>
    </g>
    <g id="line2d_52"/>
    <g id="text_25">
     <!-- SEIUR -->
     <g transform="translate(127 191.067188)scale(0.1 -0.1)">
      <defs>
       <path d="M 8.6875 72.90625 
L 18.609375 72.90625 
L 18.609375 28.609375 
Q 18.609375 16.890625 22.84375 11.734375 
Q 27.09375 6.59375 36.625 6.59375 
Q 46.09375 6.59375 50.34375 11.734375 
Q 54.59375 16.890625 54.59375 28.609375 
L 54.59375 72.90625 
L 64.5 72.90625 
L 64.5 27.390625 
Q 64.5 13.140625 57.4375 5.859375 
Q 50.390625 -1.421875 36.625 -1.421875 
Q 22.796875 -1.421875 15.734375 5.859375 
Q 8.6875 13.140625 8.6875 27.390625 
z
" id="DejaVuSans-85"/>
      </defs>
      <use xlink:href="#DejaVuSans-83"/>
      <use x="63.476562" xlink:href="#DejaVuSans-69"/>
      <use x="126.660156" xlink:href="#DejaVuSans-73"/>
      <use x="156.152344" xlink:href="#DejaVuSans-85"/>
      <use x="229.345703" xlink:href="#DejaVuSans-82"/>
     </g>
    </g>
    <g id="line2d_53">
     <path d="M 99 202.245312 
L 119 202.245312 
" style="fill:none;stroke:#7f7f7f;stroke-linecap:square;stroke-width:1.5;"/>
    </g>
    <g id="line2d_54"/>
    <g id="text_26">
     <!-- eSEIUR -->
     <g transform="translate(127 205.745312)scale(0.1 -0.1)">
      <use xlink:href="#DejaVuSans-101"/>
      <use x="61.523438" xlink:href="#DejaVuSans-83"/>
      <use x="125" xlink:href="#DejaVuSans-69"/>
      <use x="188.183594" xlink:href="#DejaVuSans-73"/>
      <use x="217.675781" xlink:href="#DejaVuSans-85"/>
      <use x="290.869141" xlink:href="#DejaVuSans-82"/>
     </g>
    </g>
    <g id="line2d_55">
     <path d="M 99 216.923437 
L 119 216.923437 
" style="fill:none;stroke:#bcbd22;stroke-linecap:square;stroke-width:1.5;"/>
    </g>
    <g id="line2d_56"/>
    <g id="text_27">
     <!-- eSEIUR$^{range}$ -->
     <g transform="translate(127 220.423437)scale(0.1 -0.1)">
      <defs>
       <path d="M 44.578125 46.390625 
Q 43.21875 47.125 41.453125 47.515625 
Q 39.703125 47.90625 37.703125 47.90625 
Q 30.515625 47.90625 25.140625 42.453125 
Q 19.78125 37.015625 18.015625 27.875 
L 12.5 0 
L 3.515625 0 
L 14.203125 54.6875 
L 23.1875 54.6875 
L 21.484375 46.1875 
Q 25.046875 50.921875 30 53.453125 
Q 34.96875 56 40.578125 56 
Q 42.046875 56 43.453125 55.828125 
Q 44.875 55.671875 46.296875 55.28125 
z
" id="DejaVuSans-Oblique-114"/>
       <path d="M 53.71875 31.203125 
L 47.609375 0 
L 38.625 0 
L 40.28125 8.296875 
Q 36.328125 3.421875 31.265625 1 
Q 26.21875 -1.421875 20.015625 -1.421875 
Q 13.03125 -1.421875 8.5625 2.84375 
Q 4.109375 7.125 4.109375 13.8125 
Q 4.109375 23.390625 11.75 28.953125 
Q 19.390625 34.515625 32.8125 34.515625 
L 45.3125 34.515625 
L 45.796875 36.921875 
Q 45.90625 37.3125 45.953125 37.765625 
Q 46 38.234375 46 39.203125 
Q 46 43.5625 42.453125 45.96875 
Q 38.921875 48.390625 32.515625 48.390625 
Q 28.125 48.390625 23.5 47.265625 
Q 18.890625 46.140625 14.015625 43.890625 
L 15.578125 52.203125 
Q 20.65625 54.109375 25.515625 55.046875 
Q 30.375 56 34.90625 56 
Q 44.578125 56 49.625 51.796875 
Q 54.6875 47.609375 54.6875 39.59375 
Q 54.6875 37.984375 54.4375 35.8125 
Q 54.203125 33.640625 53.71875 31.203125 
z
M 44 27.484375 
L 35.015625 27.484375 
Q 23.96875 27.484375 18.671875 24.53125 
Q 13.375 21.578125 13.375 15.375 
Q 13.375 11.078125 16.078125 8.640625 
Q 18.796875 6.203125 23.578125 6.203125 
Q 30.90625 6.203125 36.375 11.453125 
Q 41.84375 16.703125 43.609375 25.484375 
z
" id="DejaVuSans-Oblique-97"/>
       <path d="M 55.71875 33.015625 
L 49.3125 0 
L 40.28125 0 
L 46.6875 32.671875 
Q 47.125 34.96875 47.359375 36.71875 
Q 47.609375 38.484375 47.609375 39.5 
Q 47.609375 43.609375 45.015625 45.890625 
Q 42.4375 48.1875 37.796875 48.1875 
Q 30.5625 48.1875 25.34375 43.375 
Q 20.125 38.578125 18.5 30.328125 
L 12.5 0 
L 3.515625 0 
L 14.109375 54.6875 
L 23.09375 54.6875 
L 21.296875 46.09375 
Q 25.046875 50.828125 30.3125 53.40625 
Q 35.59375 56 41.40625 56 
Q 48.640625 56 52.609375 52.09375 
Q 56.59375 48.1875 56.59375 41.109375 
Q 56.59375 39.359375 56.375 37.359375 
Q 56.15625 35.359375 55.71875 33.015625 
z
" id="DejaVuSans-Oblique-110"/>
       <path d="M 59.625 54.6875 
L 50.296875 6.78125 
Q 47.609375 -7.125 40.015625 -13.953125 
Q 32.421875 -20.796875 19.578125 -20.796875 
Q 14.84375 -20.796875 10.78125 -20.09375 
Q 6.734375 -19.390625 3.21875 -17.921875 
L 4.890625 -9.1875 
Q 8.203125 -11.328125 11.90625 -12.34375 
Q 15.625 -13.375 19.828125 -13.375 
Q 28.375 -13.375 33.859375 -8.703125 
Q 39.359375 -4.046875 41.109375 4.6875 
L 41.890625 8.796875 
Q 38.140625 4.5 33.15625 2.25 
Q 28.171875 0 22.40625 0 
Q 14.109375 0 9.34375 5.484375 
Q 4.59375 10.984375 4.59375 20.609375 
Q 4.59375 28.171875 7.46875 35.421875 
Q 10.359375 42.671875 15.578125 48.296875 
Q 19.046875 52 23.65625 54 
Q 28.265625 56 33.296875 56 
Q 38.8125 56 42.90625 53.4375 
Q 47.015625 50.875 49.03125 46.1875 
L 50.59375 54.6875 
z
M 46.09375 34.625 
Q 46.09375 41.265625 42.96875 44.875 
Q 39.84375 48.484375 34.078125 48.484375 
Q 30.515625 48.484375 27.296875 47.0625 
Q 24.078125 45.65625 21.78125 43.109375 
Q 18.0625 38.921875 15.984375 33.234375 
Q 13.921875 27.546875 13.921875 21.484375 
Q 13.921875 14.75 17.0625 11.125 
Q 20.21875 7.515625 26.125 7.515625 
Q 34.671875 7.515625 40.375 15.25 
Q 46.09375 23 46.09375 34.625 
z
" id="DejaVuSans-Oblique-103"/>
       <path d="M 48.09375 32.234375 
Q 48.25 33.015625 48.3125 33.84375 
Q 48.390625 34.671875 48.390625 35.5 
Q 48.390625 41.453125 44.890625 44.921875 
Q 41.40625 48.390625 35.40625 48.390625 
Q 28.71875 48.390625 23.578125 44.15625 
Q 18.453125 39.9375 15.828125 32.171875 
z
M 55.90625 25.203125 
L 14.109375 25.203125 
Q 13.8125 23.34375 13.71875 22.265625 
Q 13.625 21.1875 13.625 20.40625 
Q 13.625 13.625 17.796875 9.90625 
Q 21.96875 6.203125 29.59375 6.203125 
Q 35.453125 6.203125 40.671875 7.515625 
Q 45.90625 8.84375 50.390625 11.375 
L 48.6875 2.484375 
Q 43.84375 0.53125 38.6875 -0.4375 
Q 33.546875 -1.421875 28.21875 -1.421875 
Q 16.84375 -1.421875 10.71875 4.015625 
Q 4.59375 9.46875 4.59375 19.484375 
Q 4.59375 28.03125 7.640625 35.375 
Q 10.6875 42.71875 16.609375 48.484375 
Q 20.40625 52.09375 25.65625 54.046875 
Q 30.90625 56 36.8125 56 
Q 46.09375 56 51.578125 50.4375 
Q 57.078125 44.875 57.078125 35.5 
Q 57.078125 33.25 56.78125 30.6875 
Q 56.5 28.125 55.90625 25.203125 
z
" id="DejaVuSans-Oblique-101"/>
      </defs>
      <use transform="translate(0 0.51875)" xlink:href="#DejaVuSans-101"/>
      <use transform="translate(61.523438 0.51875)" xlink:href="#DejaVuSans-83"/>
      <use transform="translate(125 0.51875)" xlink:href="#DejaVuSans-69"/>
      <use transform="translate(188.183594 0.51875)" xlink:href="#DejaVuSans-73"/>
      <use transform="translate(217.675781 0.51875)" xlink:href="#DejaVuSans-85"/>
      <use transform="translate(288.619141 0.51875)" xlink:href="#DejaVuSans-82"/>
      <use transform="translate(359.058594 38.8)scale(0.7)" xlink:href="#DejaVuSans-Oblique-114"/>
      <use transform="translate(387.837891 38.8)scale(0.7)" xlink:href="#DejaVuSans-Oblique-97"/>
      <use transform="translate(430.733398 38.8)scale(0.7)" xlink:href="#DejaVuSans-Oblique-110"/>
      <use transform="translate(475.098633 38.8)scale(0.7)" xlink:href="#DejaVuSans-Oblique-103"/>
      <use transform="translate(519.532227 38.8)scale(0.7)" xlink:href="#DejaVuSans-Oblique-101"/>
     </g>
    </g>
   </g>
  </g>
 </g>
 <defs>
  <clipPath id="pb2b178e9aa">
   <rect height="543.6" width="558" x="90" y="86.4"/>
  </clipPath>
 </defs>
</svg>
