<?xml version="1.0" encoding="utf-8" standalone="no"?>
<!DOCTYPE svg PUBLIC "-//W3C//DTD SVG 1.1//EN"
  "http://www.w3.org/Graphics/SVG/1.1/DTD/svg11.dtd">
<!-- Created with matplotlib (https://matplotlib.org/) -->
<svg height="720pt" version="1.1" viewBox="0 0 720 720" width="720pt" xmlns="http://www.w3.org/2000/svg" xmlns:xlink="http://www.w3.org/1999/xlink">
 <metadata>
  <rdf:RDF xmlns:cc="http://creativecommons.org/ns#" xmlns:dc="http://purl.org/dc/elements/1.1/" xmlns:rdf="http://www.w3.org/1999/02/22-rdf-syntax-ns#">
   <cc:Work>
    <dc:type rdf:resource="http://purl.org/dc/dcmitype/StillImage"/>
    <dc:date>2022-07-13T18:53:58.896391</dc:date>
    <dc:format>image/svg+xml</dc:format>
    <dc:creator>
     <cc:Agent>
      <dc:title>Matplotlib v3.3.2, https://matplotlib.org/</dc:title>
     </cc:Agent>
    </dc:creator>
   </cc:Work>
  </rdf:RDF>
 </metadata>
 <defs>
  <style type="text/css">*{stroke-linecap:butt;stroke-linejoin:round;}</style>
 </defs>
 <g id="figure_1">
  <g id="patch_1">
   <path d="M 0 720 
L 720 720 
L 720 0 
L 0 0 
z
" style="fill:none;"/>
  </g>
  <g id="axes_1">
   <g id="patch_2">
    <path d="M 90 630 
L 648 630 
L 648 86.4 
L 90 86.4 
z
" style="fill:#ffffff;"/>
   </g>
   <g id="matplotlib.axis_1">
    <g id="xtick_1">
     <g id="line2d_1">
      <path clip-path="url(#p74ea7c2a59)" d="M 115.363636 630 
L 115.363636 86.4 
" style="fill:none;stroke:#b0b0b0;stroke-linecap:square;stroke-width:0.8;"/>
     </g>
     <g id="line2d_2">
      <defs>
       <path d="M 0 0 
L 0 3.5 
" id="m4f0620bc99" style="stroke:#000000;stroke-width:0.8;"/>
      </defs>
      <g>
       <use style="stroke:#000000;stroke-width:0.8;" x="115.363636" xlink:href="#m4f0620bc99" y="630"/>
      </g>
     </g>
     <g id="text_1">
      <!-- 0 -->
      <g transform="translate(112.182386 644.598438)scale(0.1 -0.1)">
       <defs>
        <path d="M 31.78125 66.40625 
Q 24.171875 66.40625 20.328125 58.90625 
Q 16.5 51.421875 16.5 36.375 
Q 16.5 21.390625 20.328125 13.890625 
Q 24.171875 6.390625 31.78125 6.390625 
Q 39.453125 6.390625 43.28125 13.890625 
Q 47.125 21.390625 47.125 36.375 
Q 47.125 51.421875 43.28125 58.90625 
Q 39.453125 66.40625 31.78125 66.40625 
z
M 31.78125 74.21875 
Q 44.046875 74.21875 50.515625 64.515625 
Q 56.984375 54.828125 56.984375 36.375 
Q 56.984375 17.96875 50.515625 8.265625 
Q 44.046875 -1.421875 31.78125 -1.421875 
Q 19.53125 -1.421875 13.0625 8.265625 
Q 6.59375 17.96875 6.59375 36.375 
Q 6.59375 54.828125 13.0625 64.515625 
Q 19.53125 74.21875 31.78125 74.21875 
z
" id="DejaVuSans-48"/>
       </defs>
       <use xlink:href="#DejaVuSans-48"/>
      </g>
     </g>
    </g>
    <g id="xtick_2">
     <g id="line2d_3">
      <path clip-path="url(#p74ea7c2a59)" d="M 239.088692 630 
L 239.088692 86.4 
" style="fill:none;stroke:#b0b0b0;stroke-linecap:square;stroke-width:0.8;"/>
     </g>
     <g id="line2d_4">
      <g>
       <use style="stroke:#000000;stroke-width:0.8;" x="239.088692" xlink:href="#m4f0620bc99" y="630"/>
      </g>
     </g>
     <g id="text_2">
      <!-- 20 -->
      <g transform="translate(232.726192 644.598438)scale(0.1 -0.1)">
       <defs>
        <path d="M 19.1875 8.296875 
L 53.609375 8.296875 
L 53.609375 0 
L 7.328125 0 
L 7.328125 8.296875 
Q 12.9375 14.109375 22.625 23.890625 
Q 32.328125 33.6875 34.8125 36.53125 
Q 39.546875 41.84375 41.421875 45.53125 
Q 43.3125 49.21875 43.3125 52.78125 
Q 43.3125 58.59375 39.234375 62.25 
Q 35.15625 65.921875 28.609375 65.921875 
Q 23.96875 65.921875 18.8125 64.3125 
Q 13.671875 62.703125 7.8125 59.421875 
L 7.8125 69.390625 
Q 13.765625 71.78125 18.9375 73 
Q 24.125 74.21875 28.421875 74.21875 
Q 39.75 74.21875 46.484375 68.546875 
Q 53.21875 62.890625 53.21875 53.421875 
Q 53.21875 48.921875 51.53125 44.890625 
Q 49.859375 40.875 45.40625 35.40625 
Q 44.1875 33.984375 37.640625 27.21875 
Q 31.109375 20.453125 19.1875 8.296875 
z
" id="DejaVuSans-50"/>
       </defs>
       <use xlink:href="#DejaVuSans-50"/>
       <use x="63.623047" xlink:href="#DejaVuSans-48"/>
      </g>
     </g>
    </g>
    <g id="xtick_3">
     <g id="line2d_5">
      <path clip-path="url(#p74ea7c2a59)" d="M 362.813747 630 
L 362.813747 86.4 
" style="fill:none;stroke:#b0b0b0;stroke-linecap:square;stroke-width:0.8;"/>
     </g>
     <g id="line2d_6">
      <g>
       <use style="stroke:#000000;stroke-width:0.8;" x="362.813747" xlink:href="#m4f0620bc99" y="630"/>
      </g>
     </g>
     <g id="text_3">
      <!-- 40 -->
      <g transform="translate(356.451247 644.598438)scale(0.1 -0.1)">
       <defs>
        <path d="M 37.796875 64.3125 
L 12.890625 25.390625 
L 37.796875 25.390625 
z
M 35.203125 72.90625 
L 47.609375 72.90625 
L 47.609375 25.390625 
L 58.015625 25.390625 
L 58.015625 17.1875 
L 47.609375 17.1875 
L 47.609375 0 
L 37.796875 0 
L 37.796875 17.1875 
L 4.890625 17.1875 
L 4.890625 26.703125 
z
" id="DejaVuSans-52"/>
       </defs>
       <use xlink:href="#DejaVuSans-52"/>
       <use x="63.623047" xlink:href="#DejaVuSans-48"/>
      </g>
     </g>
    </g>
    <g id="xtick_4">
     <g id="line2d_7">
      <path clip-path="url(#p74ea7c2a59)" d="M 486.538803 630 
L 486.538803 86.4 
" style="fill:none;stroke:#b0b0b0;stroke-linecap:square;stroke-width:0.8;"/>
     </g>
     <g id="line2d_8">
      <g>
       <use style="stroke:#000000;stroke-width:0.8;" x="486.538803" xlink:href="#m4f0620bc99" y="630"/>
      </g>
     </g>
     <g id="text_4">
      <!-- 60 -->
      <g transform="translate(480.176303 644.598438)scale(0.1 -0.1)">
       <defs>
        <path d="M 33.015625 40.375 
Q 26.375 40.375 22.484375 35.828125 
Q 18.609375 31.296875 18.609375 23.390625 
Q 18.609375 15.53125 22.484375 10.953125 
Q 26.375 6.390625 33.015625 6.390625 
Q 39.65625 6.390625 43.53125 10.953125 
Q 47.40625 15.53125 47.40625 23.390625 
Q 47.40625 31.296875 43.53125 35.828125 
Q 39.65625 40.375 33.015625 40.375 
z
M 52.59375 71.296875 
L 52.59375 62.3125 
Q 48.875 64.0625 45.09375 64.984375 
Q 41.3125 65.921875 37.59375 65.921875 
Q 27.828125 65.921875 22.671875 59.328125 
Q 17.53125 52.734375 16.796875 39.40625 
Q 19.671875 43.65625 24.015625 45.921875 
Q 28.375 48.1875 33.59375 48.1875 
Q 44.578125 48.1875 50.953125 41.515625 
Q 57.328125 34.859375 57.328125 23.390625 
Q 57.328125 12.15625 50.6875 5.359375 
Q 44.046875 -1.421875 33.015625 -1.421875 
Q 20.359375 -1.421875 13.671875 8.265625 
Q 6.984375 17.96875 6.984375 36.375 
Q 6.984375 53.65625 15.1875 63.9375 
Q 23.390625 74.21875 37.203125 74.21875 
Q 40.921875 74.21875 44.703125 73.484375 
Q 48.484375 72.75 52.59375 71.296875 
z
" id="DejaVuSans-54"/>
       </defs>
       <use xlink:href="#DejaVuSans-54"/>
       <use x="63.623047" xlink:href="#DejaVuSans-48"/>
      </g>
     </g>
    </g>
    <g id="xtick_5">
     <g id="line2d_9">
      <path clip-path="url(#p74ea7c2a59)" d="M 610.263858 630 
L 610.263858 86.4 
" style="fill:none;stroke:#b0b0b0;stroke-linecap:square;stroke-width:0.8;"/>
     </g>
     <g id="line2d_10">
      <g>
       <use style="stroke:#000000;stroke-width:0.8;" x="610.263858" xlink:href="#m4f0620bc99" y="630"/>
      </g>
     </g>
     <g id="text_5">
      <!-- 80 -->
      <g transform="translate(603.901358 644.598438)scale(0.1 -0.1)">
       <defs>
        <path d="M 31.78125 34.625 
Q 24.75 34.625 20.71875 30.859375 
Q 16.703125 27.09375 16.703125 20.515625 
Q 16.703125 13.921875 20.71875 10.15625 
Q 24.75 6.390625 31.78125 6.390625 
Q 38.8125 6.390625 42.859375 10.171875 
Q 46.921875 13.96875 46.921875 20.515625 
Q 46.921875 27.09375 42.890625 30.859375 
Q 38.875 34.625 31.78125 34.625 
z
M 21.921875 38.8125 
Q 15.578125 40.375 12.03125 44.71875 
Q 8.5 49.078125 8.5 55.328125 
Q 8.5 64.0625 14.71875 69.140625 
Q 20.953125 74.21875 31.78125 74.21875 
Q 42.671875 74.21875 48.875 69.140625 
Q 55.078125 64.0625 55.078125 55.328125 
Q 55.078125 49.078125 51.53125 44.71875 
Q 48 40.375 41.703125 38.8125 
Q 48.828125 37.15625 52.796875 32.3125 
Q 56.78125 27.484375 56.78125 20.515625 
Q 56.78125 9.90625 50.3125 4.234375 
Q 43.84375 -1.421875 31.78125 -1.421875 
Q 19.734375 -1.421875 13.25 4.234375 
Q 6.78125 9.90625 6.78125 20.515625 
Q 6.78125 27.484375 10.78125 32.3125 
Q 14.796875 37.15625 21.921875 38.8125 
z
M 18.3125 54.390625 
Q 18.3125 48.734375 21.84375 45.5625 
Q 25.390625 42.390625 31.78125 42.390625 
Q 38.140625 42.390625 41.71875 45.5625 
Q 45.3125 48.734375 45.3125 54.390625 
Q 45.3125 60.0625 41.71875 63.234375 
Q 38.140625 66.40625 31.78125 66.40625 
Q 25.390625 66.40625 21.84375 63.234375 
Q 18.3125 60.0625 18.3125 54.390625 
z
" id="DejaVuSans-56"/>
       </defs>
       <use xlink:href="#DejaVuSans-56"/>
       <use x="63.623047" xlink:href="#DejaVuSans-48"/>
      </g>
     </g>
    </g>
    <g id="text_6">
     <!-- Days -->
     <g transform="translate(356.521875 658.276562)scale(0.1 -0.1)">
      <defs>
       <path d="M 19.671875 64.796875 
L 19.671875 8.109375 
L 31.59375 8.109375 
Q 46.6875 8.109375 53.6875 14.9375 
Q 60.6875 21.78125 60.6875 36.53125 
Q 60.6875 51.171875 53.6875 57.984375 
Q 46.6875 64.796875 31.59375 64.796875 
z
M 9.8125 72.90625 
L 30.078125 72.90625 
Q 51.265625 72.90625 61.171875 64.09375 
Q 71.09375 55.28125 71.09375 36.53125 
Q 71.09375 17.671875 61.125 8.828125 
Q 51.171875 0 30.078125 0 
L 9.8125 0 
z
" id="DejaVuSans-68"/>
       <path d="M 34.28125 27.484375 
Q 23.390625 27.484375 19.1875 25 
Q 14.984375 22.515625 14.984375 16.5 
Q 14.984375 11.71875 18.140625 8.90625 
Q 21.296875 6.109375 26.703125 6.109375 
Q 34.1875 6.109375 38.703125 11.40625 
Q 43.21875 16.703125 43.21875 25.484375 
L 43.21875 27.484375 
z
M 52.203125 31.203125 
L 52.203125 0 
L 43.21875 0 
L 43.21875 8.296875 
Q 40.140625 3.328125 35.546875 0.953125 
Q 30.953125 -1.421875 24.3125 -1.421875 
Q 15.921875 -1.421875 10.953125 3.296875 
Q 6 8.015625 6 15.921875 
Q 6 25.140625 12.171875 29.828125 
Q 18.359375 34.515625 30.609375 34.515625 
L 43.21875 34.515625 
L 43.21875 35.40625 
Q 43.21875 41.609375 39.140625 45 
Q 35.0625 48.390625 27.6875 48.390625 
Q 23 48.390625 18.546875 47.265625 
Q 14.109375 46.140625 10.015625 43.890625 
L 10.015625 52.203125 
Q 14.9375 54.109375 19.578125 55.046875 
Q 24.21875 56 28.609375 56 
Q 40.484375 56 46.34375 49.84375 
Q 52.203125 43.703125 52.203125 31.203125 
z
" id="DejaVuSans-97"/>
       <path d="M 32.171875 -5.078125 
Q 28.375 -14.84375 24.75 -17.8125 
Q 21.140625 -20.796875 15.09375 -20.796875 
L 7.90625 -20.796875 
L 7.90625 -13.28125 
L 13.1875 -13.28125 
Q 16.890625 -13.28125 18.9375 -11.515625 
Q 21 -9.765625 23.484375 -3.21875 
L 25.09375 0.875 
L 2.984375 54.6875 
L 12.5 54.6875 
L 29.59375 11.921875 
L 46.6875 54.6875 
L 56.203125 54.6875 
z
" id="DejaVuSans-121"/>
       <path d="M 44.28125 53.078125 
L 44.28125 44.578125 
Q 40.484375 46.53125 36.375 47.5 
Q 32.28125 48.484375 27.875 48.484375 
Q 21.1875 48.484375 17.84375 46.4375 
Q 14.5 44.390625 14.5 40.28125 
Q 14.5 37.15625 16.890625 35.375 
Q 19.28125 33.59375 26.515625 31.984375 
L 29.59375 31.296875 
Q 39.15625 29.25 43.1875 25.515625 
Q 47.21875 21.78125 47.21875 15.09375 
Q 47.21875 7.46875 41.1875 3.015625 
Q 35.15625 -1.421875 24.609375 -1.421875 
Q 20.21875 -1.421875 15.453125 -0.5625 
Q 10.6875 0.296875 5.421875 2 
L 5.421875 11.28125 
Q 10.40625 8.6875 15.234375 7.390625 
Q 20.0625 6.109375 24.8125 6.109375 
Q 31.15625 6.109375 34.5625 8.28125 
Q 37.984375 10.453125 37.984375 14.40625 
Q 37.984375 18.0625 35.515625 20.015625 
Q 33.0625 21.96875 24.703125 23.78125 
L 21.578125 24.515625 
Q 13.234375 26.265625 9.515625 29.90625 
Q 5.8125 33.546875 5.8125 39.890625 
Q 5.8125 47.609375 11.28125 51.796875 
Q 16.75 56 26.8125 56 
Q 31.78125 56 36.171875 55.265625 
Q 40.578125 54.546875 44.28125 53.078125 
z
" id="DejaVuSans-115"/>
      </defs>
      <use xlink:href="#DejaVuSans-68"/>
      <use x="77.001953" xlink:href="#DejaVuSans-97"/>
      <use x="138.28125" xlink:href="#DejaVuSans-121"/>
      <use x="197.460938" xlink:href="#DejaVuSans-115"/>
     </g>
    </g>
   </g>
   <g id="matplotlib.axis_2">
    <g id="ytick_1">
     <g id="line2d_11">
      <path clip-path="url(#p74ea7c2a59)" d="M 90 605.440955 
L 648 605.440955 
" style="fill:none;stroke:#b0b0b0;stroke-linecap:square;stroke-width:0.8;"/>
     </g>
     <g id="line2d_12">
      <defs>
       <path d="M 0 0 
L -3.5 0 
" id="m4721a16e01" style="stroke:#000000;stroke-width:0.8;"/>
      </defs>
      <g>
       <use style="stroke:#000000;stroke-width:0.8;" x="90" xlink:href="#m4721a16e01" y="605.440955"/>
      </g>
     </g>
     <g id="text_7">
      <!-- 0 -->
      <g transform="translate(76.6375 609.240174)scale(0.1 -0.1)">
       <use xlink:href="#DejaVuSans-48"/>
      </g>
     </g>
    </g>
    <g id="ytick_2">
     <g id="line2d_13">
      <path clip-path="url(#p74ea7c2a59)" d="M 90 539.63143 
L 648 539.63143 
" style="fill:none;stroke:#b0b0b0;stroke-linecap:square;stroke-width:0.8;"/>
     </g>
     <g id="line2d_14">
      <g>
       <use style="stroke:#000000;stroke-width:0.8;" x="90" xlink:href="#m4721a16e01" y="539.63143"/>
      </g>
     </g>
     <g id="text_8">
      <!-- 25000 -->
      <g transform="translate(51.1875 543.430649)scale(0.1 -0.1)">
       <defs>
        <path d="M 10.796875 72.90625 
L 49.515625 72.90625 
L 49.515625 64.59375 
L 19.828125 64.59375 
L 19.828125 46.734375 
Q 21.96875 47.46875 24.109375 47.828125 
Q 26.265625 48.1875 28.421875 48.1875 
Q 40.625 48.1875 47.75 41.5 
Q 54.890625 34.8125 54.890625 23.390625 
Q 54.890625 11.625 47.5625 5.09375 
Q 40.234375 -1.421875 26.90625 -1.421875 
Q 22.3125 -1.421875 17.546875 -0.640625 
Q 12.796875 0.140625 7.71875 1.703125 
L 7.71875 11.625 
Q 12.109375 9.234375 16.796875 8.0625 
Q 21.484375 6.890625 26.703125 6.890625 
Q 35.15625 6.890625 40.078125 11.328125 
Q 45.015625 15.765625 45.015625 23.390625 
Q 45.015625 31 40.078125 35.4375 
Q 35.15625 39.890625 26.703125 39.890625 
Q 22.75 39.890625 18.8125 39.015625 
Q 14.890625 38.140625 10.796875 36.28125 
z
" id="DejaVuSans-53"/>
       </defs>
       <use xlink:href="#DejaVuSans-50"/>
       <use x="63.623047" xlink:href="#DejaVuSans-53"/>
       <use x="127.246094" xlink:href="#DejaVuSans-48"/>
       <use x="190.869141" xlink:href="#DejaVuSans-48"/>
       <use x="254.492188" xlink:href="#DejaVuSans-48"/>
      </g>
     </g>
    </g>
    <g id="ytick_3">
     <g id="line2d_15">
      <path clip-path="url(#p74ea7c2a59)" d="M 90 473.821905 
L 648 473.821905 
" style="fill:none;stroke:#b0b0b0;stroke-linecap:square;stroke-width:0.8;"/>
     </g>
     <g id="line2d_16">
      <g>
       <use style="stroke:#000000;stroke-width:0.8;" x="90" xlink:href="#m4721a16e01" y="473.821905"/>
      </g>
     </g>
     <g id="text_9">
      <!-- 50000 -->
      <g transform="translate(51.1875 477.621124)scale(0.1 -0.1)">
       <use xlink:href="#DejaVuSans-53"/>
       <use x="63.623047" xlink:href="#DejaVuSans-48"/>
       <use x="127.246094" xlink:href="#DejaVuSans-48"/>
       <use x="190.869141" xlink:href="#DejaVuSans-48"/>
       <use x="254.492188" xlink:href="#DejaVuSans-48"/>
      </g>
     </g>
    </g>
    <g id="ytick_4">
     <g id="line2d_17">
      <path clip-path="url(#p74ea7c2a59)" d="M 90 408.012381 
L 648 408.012381 
" style="fill:none;stroke:#b0b0b0;stroke-linecap:square;stroke-width:0.8;"/>
     </g>
     <g id="line2d_18">
      <g>
       <use style="stroke:#000000;stroke-width:0.8;" x="90" xlink:href="#m4721a16e01" y="408.012381"/>
      </g>
     </g>
     <g id="text_10">
      <!-- 75000 -->
      <g transform="translate(51.1875 411.8116)scale(0.1 -0.1)">
       <defs>
        <path d="M 8.203125 72.90625 
L 55.078125 72.90625 
L 55.078125 68.703125 
L 28.609375 0 
L 18.3125 0 
L 43.21875 64.59375 
L 8.203125 64.59375 
z
" id="DejaVuSans-55"/>
       </defs>
       <use xlink:href="#DejaVuSans-55"/>
       <use x="63.623047" xlink:href="#DejaVuSans-53"/>
       <use x="127.246094" xlink:href="#DejaVuSans-48"/>
       <use x="190.869141" xlink:href="#DejaVuSans-48"/>
       <use x="254.492188" xlink:href="#DejaVuSans-48"/>
      </g>
     </g>
    </g>
    <g id="ytick_5">
     <g id="line2d_19">
      <path clip-path="url(#p74ea7c2a59)" d="M 90 342.202856 
L 648 342.202856 
" style="fill:none;stroke:#b0b0b0;stroke-linecap:square;stroke-width:0.8;"/>
     </g>
     <g id="line2d_20">
      <g>
       <use style="stroke:#000000;stroke-width:0.8;" x="90" xlink:href="#m4721a16e01" y="342.202856"/>
      </g>
     </g>
     <g id="text_11">
      <!-- 100000 -->
      <g transform="translate(44.825 346.002075)scale(0.1 -0.1)">
       <defs>
        <path d="M 12.40625 8.296875 
L 28.515625 8.296875 
L 28.515625 63.921875 
L 10.984375 60.40625 
L 10.984375 69.390625 
L 28.421875 72.90625 
L 38.28125 72.90625 
L 38.28125 8.296875 
L 54.390625 8.296875 
L 54.390625 0 
L 12.40625 0 
z
" id="DejaVuSans-49"/>
       </defs>
       <use xlink:href="#DejaVuSans-49"/>
       <use x="63.623047" xlink:href="#DejaVuSans-48"/>
       <use x="127.246094" xlink:href="#DejaVuSans-48"/>
       <use x="190.869141" xlink:href="#DejaVuSans-48"/>
       <use x="254.492188" xlink:href="#DejaVuSans-48"/>
       <use x="318.115234" xlink:href="#DejaVuSans-48"/>
      </g>
     </g>
    </g>
    <g id="ytick_6">
     <g id="line2d_21">
      <path clip-path="url(#p74ea7c2a59)" d="M 90 276.393332 
L 648 276.393332 
" style="fill:none;stroke:#b0b0b0;stroke-linecap:square;stroke-width:0.8;"/>
     </g>
     <g id="line2d_22">
      <g>
       <use style="stroke:#000000;stroke-width:0.8;" x="90" xlink:href="#m4721a16e01" y="276.393332"/>
      </g>
     </g>
     <g id="text_12">
      <!-- 125000 -->
      <g transform="translate(44.825 280.19255)scale(0.1 -0.1)">
       <use xlink:href="#DejaVuSans-49"/>
       <use x="63.623047" xlink:href="#DejaVuSans-50"/>
       <use x="127.246094" xlink:href="#DejaVuSans-53"/>
       <use x="190.869141" xlink:href="#DejaVuSans-48"/>
       <use x="254.492188" xlink:href="#DejaVuSans-48"/>
       <use x="318.115234" xlink:href="#DejaVuSans-48"/>
      </g>
     </g>
    </g>
    <g id="ytick_7">
     <g id="line2d_23">
      <path clip-path="url(#p74ea7c2a59)" d="M 90 210.583807 
L 648 210.583807 
" style="fill:none;stroke:#b0b0b0;stroke-linecap:square;stroke-width:0.8;"/>
     </g>
     <g id="line2d_24">
      <g>
       <use style="stroke:#000000;stroke-width:0.8;" x="90" xlink:href="#m4721a16e01" y="210.583807"/>
      </g>
     </g>
     <g id="text_13">
      <!-- 150000 -->
      <g transform="translate(44.825 214.383026)scale(0.1 -0.1)">
       <use xlink:href="#DejaVuSans-49"/>
       <use x="63.623047" xlink:href="#DejaVuSans-53"/>
       <use x="127.246094" xlink:href="#DejaVuSans-48"/>
       <use x="190.869141" xlink:href="#DejaVuSans-48"/>
       <use x="254.492188" xlink:href="#DejaVuSans-48"/>
       <use x="318.115234" xlink:href="#DejaVuSans-48"/>
      </g>
     </g>
    </g>
    <g id="ytick_8">
     <g id="line2d_25">
      <path clip-path="url(#p74ea7c2a59)" d="M 90 144.774282 
L 648 144.774282 
" style="fill:none;stroke:#b0b0b0;stroke-linecap:square;stroke-width:0.8;"/>
     </g>
     <g id="line2d_26">
      <g>
       <use style="stroke:#000000;stroke-width:0.8;" x="90" xlink:href="#m4721a16e01" y="144.774282"/>
      </g>
     </g>
     <g id="text_14">
      <!-- 175000 -->
      <g transform="translate(44.825 148.573501)scale(0.1 -0.1)">
       <use xlink:href="#DejaVuSans-49"/>
       <use x="63.623047" xlink:href="#DejaVuSans-55"/>
       <use x="127.246094" xlink:href="#DejaVuSans-53"/>
       <use x="190.869141" xlink:href="#DejaVuSans-48"/>
       <use x="254.492188" xlink:href="#DejaVuSans-48"/>
       <use x="318.115234" xlink:href="#DejaVuSans-48"/>
      </g>
     </g>
    </g>
    <g id="text_15">
     <!-- Cumulative cases -->
     <g transform="translate(38.745312 402.425781)rotate(-90)scale(0.1 -0.1)">
      <defs>
       <path d="M 64.40625 67.28125 
L 64.40625 56.890625 
Q 59.421875 61.53125 53.78125 63.8125 
Q 48.140625 66.109375 41.796875 66.109375 
Q 29.296875 66.109375 22.65625 58.46875 
Q 16.015625 50.828125 16.015625 36.375 
Q 16.015625 21.96875 22.65625 14.328125 
Q 29.296875 6.6875 41.796875 6.6875 
Q 48.140625 6.6875 53.78125 8.984375 
Q 59.421875 11.28125 64.40625 15.921875 
L 64.40625 5.609375 
Q 59.234375 2.09375 53.4375 0.328125 
Q 47.65625 -1.421875 41.21875 -1.421875 
Q 24.65625 -1.421875 15.125 8.703125 
Q 5.609375 18.84375 5.609375 36.375 
Q 5.609375 53.953125 15.125 64.078125 
Q 24.65625 74.21875 41.21875 74.21875 
Q 47.75 74.21875 53.53125 72.484375 
Q 59.328125 70.75 64.40625 67.28125 
z
" id="DejaVuSans-67"/>
       <path d="M 8.5 21.578125 
L 8.5 54.6875 
L 17.484375 54.6875 
L 17.484375 21.921875 
Q 17.484375 14.15625 20.5 10.265625 
Q 23.53125 6.390625 29.59375 6.390625 
Q 36.859375 6.390625 41.078125 11.03125 
Q 45.3125 15.671875 45.3125 23.6875 
L 45.3125 54.6875 
L 54.296875 54.6875 
L 54.296875 0 
L 45.3125 0 
L 45.3125 8.40625 
Q 42.046875 3.421875 37.71875 1 
Q 33.40625 -1.421875 27.6875 -1.421875 
Q 18.265625 -1.421875 13.375 4.4375 
Q 8.5 10.296875 8.5 21.578125 
z
M 31.109375 56 
z
" id="DejaVuSans-117"/>
       <path d="M 52 44.1875 
Q 55.375 50.25 60.0625 53.125 
Q 64.75 56 71.09375 56 
Q 79.640625 56 84.28125 50.015625 
Q 88.921875 44.046875 88.921875 33.015625 
L 88.921875 0 
L 79.890625 0 
L 79.890625 32.71875 
Q 79.890625 40.578125 77.09375 44.375 
Q 74.3125 48.1875 68.609375 48.1875 
Q 61.625 48.1875 57.5625 43.546875 
Q 53.515625 38.921875 53.515625 30.90625 
L 53.515625 0 
L 44.484375 0 
L 44.484375 32.71875 
Q 44.484375 40.625 41.703125 44.40625 
Q 38.921875 48.1875 33.109375 48.1875 
Q 26.21875 48.1875 22.15625 43.53125 
Q 18.109375 38.875 18.109375 30.90625 
L 18.109375 0 
L 9.078125 0 
L 9.078125 54.6875 
L 18.109375 54.6875 
L 18.109375 46.1875 
Q 21.1875 51.21875 25.484375 53.609375 
Q 29.78125 56 35.6875 56 
Q 41.65625 56 45.828125 52.96875 
Q 50 49.953125 52 44.1875 
z
" id="DejaVuSans-109"/>
       <path d="M 9.421875 75.984375 
L 18.40625 75.984375 
L 18.40625 0 
L 9.421875 0 
z
" id="DejaVuSans-108"/>
       <path d="M 18.3125 70.21875 
L 18.3125 54.6875 
L 36.8125 54.6875 
L 36.8125 47.703125 
L 18.3125 47.703125 
L 18.3125 18.015625 
Q 18.3125 11.328125 20.140625 9.421875 
Q 21.96875 7.515625 27.59375 7.515625 
L 36.8125 7.515625 
L 36.8125 0 
L 27.59375 0 
Q 17.1875 0 13.234375 3.875 
Q 9.28125 7.765625 9.28125 18.015625 
L 9.28125 47.703125 
L 2.6875 47.703125 
L 2.6875 54.6875 
L 9.28125 54.6875 
L 9.28125 70.21875 
z
" id="DejaVuSans-116"/>
       <path d="M 9.421875 54.6875 
L 18.40625 54.6875 
L 18.40625 0 
L 9.421875 0 
z
M 9.421875 75.984375 
L 18.40625 75.984375 
L 18.40625 64.59375 
L 9.421875 64.59375 
z
" id="DejaVuSans-105"/>
       <path d="M 2.984375 54.6875 
L 12.5 54.6875 
L 29.59375 8.796875 
L 46.6875 54.6875 
L 56.203125 54.6875 
L 35.6875 0 
L 23.484375 0 
z
" id="DejaVuSans-118"/>
       <path d="M 56.203125 29.59375 
L 56.203125 25.203125 
L 14.890625 25.203125 
Q 15.484375 15.921875 20.484375 11.0625 
Q 25.484375 6.203125 34.421875 6.203125 
Q 39.59375 6.203125 44.453125 7.46875 
Q 49.3125 8.734375 54.109375 11.28125 
L 54.109375 2.78125 
Q 49.265625 0.734375 44.1875 -0.34375 
Q 39.109375 -1.421875 33.890625 -1.421875 
Q 20.796875 -1.421875 13.15625 6.1875 
Q 5.515625 13.8125 5.515625 26.8125 
Q 5.515625 40.234375 12.765625 48.109375 
Q 20.015625 56 32.328125 56 
Q 43.359375 56 49.78125 48.890625 
Q 56.203125 41.796875 56.203125 29.59375 
z
M 47.21875 32.234375 
Q 47.125 39.59375 43.09375 43.984375 
Q 39.0625 48.390625 32.421875 48.390625 
Q 24.90625 48.390625 20.390625 44.140625 
Q 15.875 39.890625 15.1875 32.171875 
z
" id="DejaVuSans-101"/>
       <path id="DejaVuSans-32"/>
       <path d="M 48.78125 52.59375 
L 48.78125 44.1875 
Q 44.96875 46.296875 41.140625 47.34375 
Q 37.3125 48.390625 33.40625 48.390625 
Q 24.65625 48.390625 19.8125 42.84375 
Q 14.984375 37.3125 14.984375 27.296875 
Q 14.984375 17.28125 19.8125 11.734375 
Q 24.65625 6.203125 33.40625 6.203125 
Q 37.3125 6.203125 41.140625 7.25 
Q 44.96875 8.296875 48.78125 10.40625 
L 48.78125 2.09375 
Q 45.015625 0.34375 40.984375 -0.53125 
Q 36.96875 -1.421875 32.421875 -1.421875 
Q 20.0625 -1.421875 12.78125 6.34375 
Q 5.515625 14.109375 5.515625 27.296875 
Q 5.515625 40.671875 12.859375 48.328125 
Q 20.21875 56 33.015625 56 
Q 37.15625 56 41.109375 55.140625 
Q 45.0625 54.296875 48.78125 52.59375 
z
" id="DejaVuSans-99"/>
      </defs>
      <use xlink:href="#DejaVuSans-67"/>
      <use x="69.824219" xlink:href="#DejaVuSans-117"/>
      <use x="133.203125" xlink:href="#DejaVuSans-109"/>
      <use x="230.615234" xlink:href="#DejaVuSans-117"/>
      <use x="293.994141" xlink:href="#DejaVuSans-108"/>
      <use x="321.777344" xlink:href="#DejaVuSans-97"/>
      <use x="383.056641" xlink:href="#DejaVuSans-116"/>
      <use x="422.265625" xlink:href="#DejaVuSans-105"/>
      <use x="450.048828" xlink:href="#DejaVuSans-118"/>
      <use x="509.228516" xlink:href="#DejaVuSans-101"/>
      <use x="570.751953" xlink:href="#DejaVuSans-32"/>
      <use x="602.539062" xlink:href="#DejaVuSans-99"/>
      <use x="657.519531" xlink:href="#DejaVuSans-97"/>
      <use x="718.798828" xlink:href="#DejaVuSans-115"/>
      <use x="770.898438" xlink:href="#DejaVuSans-101"/>
      <use x="832.421875" xlink:href="#DejaVuSans-115"/>
     </g>
    </g>
   </g>
   <g id="line2d_27">
    <path clip-path="url(#p74ea7c2a59)" d="M 115.363636 605.290909 
L 121.549889 605.259459 
L 127.736142 605.221421 
L 133.922395 605.175414 
L 140.108647 605.119773 
L 146.2949 605.052482 
L 152.481153 604.971108 
L 158.667406 604.872709 
L 164.853659 604.753733 
L 171.039911 604.609892 
L 177.226164 604.436007 
L 183.412417 604.225836 
L 189.59867 603.971849 
L 195.784922 603.664976 
L 201.971175 603.294299 
L 208.157428 602.846687 
L 214.343681 602.306373 
L 220.529933 601.654445 
L 226.716186 600.868271 
L 232.902439 599.920817 
L 239.088692 598.779888 
L 245.274945 597.407261 
L 251.461197 595.757748 
L 257.64745 593.778177 
L 263.833703 591.40637 
L 270.019956 588.570138 
L 276.206208 585.186433 
L 282.392461 581.160781 
L 288.578714 576.387193 
L 294.764967 570.748843 
L 300.95122 564.119809 
L 307.137472 556.36828 
L 313.323725 547.361591 
L 319.509978 536.973443 
L 325.696231 525.093427 
L 331.882483 511.638734 
L 338.068736 496.567392 
L 344.254989 479.891821 
L 350.441242 461.690844 
L 356.627494 442.117874 
L 362.813747 421.4029 
L 369 399.84649 
L 375.186253 377.805172 
L 381.372506 355.669252 
L 387.558758 333.835753 
L 393.745011 312.680369 
L 399.931264 292.532539 
L 406.117517 273.657005 
L 412.303769 256.243707 
L 418.490022 240.406153 
L 424.676275 226.186934 
L 430.862528 213.568232 
L 437.04878 202.484899 
L 443.235033 192.838042 
L 449.421286 184.507567 
L 455.607539 177.36279 
L 461.793792 171.270738 
L 467.980044 166.102193 
L 474.166297 161.735718 
L 480.35255 158.060043 
L 486.538803 154.975204 
L 492.725055 152.392779 
L 498.911308 150.235524 
L 505.097561 148.436629 
L 511.283814 146.938781 
L 517.470067 145.693133 
L 523.656319 144.65828 
L 529.842572 143.799283 
L 536.028825 143.08676 
L 542.215078 142.496081 
L 548.40133 142.006649 
L 554.587583 141.601271 
L 560.773836 141.265625 
L 566.960089 140.987792 
L 573.146341 140.757867 
L 579.332594 140.567624 
L 585.518847 140.41024 
L 591.7051 140.280056 
L 597.891353 140.172383 
L 604.077605 140.083335 
L 610.263858 140.009698 
L 616.450111 139.948807 
L 622.636364 139.898458 
" style="fill:none;stroke:#1f77b4;stroke-linecap:square;stroke-width:1.5;"/>
   </g>
   <g id="line2d_28">
    <path clip-path="url(#p74ea7c2a59)" d="M 115.363636 605.290909 
L 121.549889 605.081505 
L 127.736142 604.841213 
L 133.922395 604.565518 
L 140.108647 604.249255 
L 146.2949 603.886519 
L 152.481153 603.470572 
L 158.667406 602.993722 
L 164.853659 602.447206 
L 171.039911 601.821044 
L 177.226164 601.103893 
L 183.412417 600.282876 
L 189.59867 599.343398 
L 195.784922 598.26896 
L 201.971175 597.040944 
L 208.157428 595.638405 
L 214.343681 594.037852 
L 220.529933 592.213037 
L 226.716186 590.134755 
L 232.902439 587.77067 
L 239.088692 585.085192 
L 245.274945 582.039408 
L 251.461197 578.591118 
L 257.64745 574.694982 
L 263.833703 570.302841 
L 270.019956 565.36423 
L 276.206208 559.827143 
L 282.392461 553.639085 
L 288.578714 546.748452 
L 294.764967 539.106258 
L 300.95122 530.668229 
L 307.137472 521.397219 
L 313.323725 511.265909 
L 319.509978 500.259652 
L 325.696231 488.379327 
L 331.882483 475.643968 
L 338.068736 462.092923 
L 344.254989 447.787276 
L 350.441242 432.810257 
L 356.627494 417.266449 
L 362.813747 401.279671 
L 369 384.98954 
L 375.186253 368.546884 
L 381.372506 352.108286 
L 387.558758 335.830173 
L 393.745011 319.862923 
L 399.931264 304.345443 
L 406.117517 289.400633 
L 412.303769 275.132017 
L 418.490022 261.621694 
L 424.676275 248.929605 
L 430.862528 237.094012 
L 437.04878 226.132955 
L 443.235033 216.046444 
L 449.421286 206.819112 
L 455.607539 198.423063 
L 461.793792 190.82072 
L 467.980044 183.967511 
L 474.166297 177.814265 
L 480.35255 172.309295 
L 486.538803 167.400099 
L 492.725055 163.034728 
L 498.911308 159.162818 
L 505.097561 155.736346 
L 511.283814 152.710129 
L 517.470067 150.042131 
L 523.656319 147.693612 
L 529.842572 145.62915 
L 536.028825 143.816577 
L 542.215078 142.226842 
L 548.40133 140.833846 
L 554.587583 139.614233 
L 560.773836 138.547183 
L 566.960089 137.614195 
L 573.146341 136.798869 
L 579.332594 136.086707 
L 585.518847 135.464914 
L 591.7051 134.922219 
L 597.891353 134.448712 
L 604.077605 134.035685 
L 610.263858 133.6755 
L 616.450111 133.361464 
L 622.636364 133.087714 
" style="fill:none;stroke:#ff7f0e;stroke-linecap:square;stroke-width:1.5;"/>
   </g>
   <g id="line2d_29">
    <path clip-path="url(#p74ea7c2a59)" d="M 115.363636 605.290909 
L 121.549889 605.208957 
L 127.736142 605.112008 
L 133.922395 604.997325 
L 140.108647 604.861678 
L 146.2949 604.701252 
L 152.481153 604.511545 
L 158.667406 604.28725 
L 164.853659 604.022107 
L 171.039911 603.708746 
L 177.226164 603.338494 
L 183.412417 602.901154 
L 189.59867 602.384758 
L 195.784922 601.77527 
L 201.971175 601.05627 
L 208.157428 600.20858 
L 214.343681 599.20986 
L 220.529933 598.034162 
L 226.716186 596.651456 
L 232.902439 595.02713 
L 239.088692 593.12149 
L 245.274945 590.889288 
L 251.461197 588.279307 
L 257.64745 585.234079 
L 263.833703 581.689788 
L 270.019956 577.576457 
L 276.206208 572.818547 
L 282.392461 567.336073 
L 288.578714 561.046385 
L 294.764967 553.866755 
L 300.95122 545.717839 
L 307.137472 536.528064 
L 313.323725 526.238861 
L 319.509978 514.810512 
L 325.696231 502.22821 
L 331.882483 488.50776 
L 338.068736 473.700176 
L 344.254989 457.894413 
L 350.441242 441.217508 
L 356.627494 423.83169 
L 362.813747 405.928376 
L 369 387.719458 
L 375.186253 369.426704 
L 381.372506 351.270442 
L 387.558758 333.45876 
L 393.745011 316.178333 
L 399.931264 299.587668 
L 406.117517 283.81311 
L 412.303769 268.947582 
L 418.490022 255.051644 
L 424.676275 242.156337 
L 430.862528 230.267151 
L 437.04878 219.368539 
L 443.235033 209.428511 
L 449.421286 200.402946 
L 455.607539 192.239415 
L 461.793792 184.880429 
L 467.980044 178.266057 
L 474.166297 172.335981 
L 480.35255 167.031026 
L 486.538803 162.294259 
L 492.725055 158.07173 
L 498.911308 154.31292 
L 505.097561 150.970984 
L 511.283814 148.002825 
L 517.470067 145.369047 
L 523.656319 143.03383 
L 529.842572 140.964753 
L 536.028825 139.132579 
L 542.215078 137.511025 
L 548.40133 136.076529 
L 554.587583 134.808011 
L 560.773836 133.686652 
L 566.960089 132.695679 
L 573.146341 131.82016 
L 579.332594 131.046822 
L 585.518847 130.363876 
L 591.7051 129.760864 
L 597.891353 129.228511 
L 604.077605 128.758601 
L 610.263858 128.34386 
L 616.450111 127.977849 
L 622.636364 127.654872 
" style="fill:none;stroke:#2ca02c;stroke-linecap:square;stroke-width:1.5;"/>
   </g>
   <g id="line2d_30">
    <path clip-path="url(#p74ea7c2a59)" d="M 115.363636 605.290909 
L 121.549889 605.032983 
L 127.736142 604.72206 
L 133.922395 604.351401 
L 140.108647 603.913446 
L 146.2949 603.399721 
L 152.481153 602.80074 
L 158.667406 602.105905 
L 164.853659 601.303392 
L 171.039911 600.380038 
L 177.226164 599.321221 
L 183.412417 598.110745 
L 189.59867 596.730721 
L 195.784922 595.16146 
L 201.971175 593.381374 
L 208.157428 591.366906 
L 214.343681 589.09248 
L 220.529933 586.530496 
L 226.716186 583.651377 
L 232.902439 580.423688 
L 239.088692 576.814332 
L 245.274945 572.788858 
L 251.461197 568.311881 
L 257.64745 563.347648 
L 263.833703 557.860752 
L 270.019956 551.817012 
L 276.206208 545.184514 
L 282.392461 537.934812 
L 288.578714 530.044261 
L 294.764967 521.49544 
L 300.95122 512.278617 
L 307.137472 502.39317 
L 313.323725 491.848867 
L 319.509978 480.666922 
L 325.696231 468.880689 
L 331.882483 456.535925 
L 338.068736 443.690517 
L 344.254989 430.413647 
L 350.441242 416.784383 
L 356.627494 402.889743 
L 362.813747 388.822329 
L 369 374.677666 
L 375.186253 360.55142 
L 381.372506 346.536654 
L 387.558758 332.721311 
L 393.745011 319.186049 
L 399.931264 306.00254 
L 406.117517 293.232286 
L 412.303769 280.925971 
L 418.490022 269.123303 
L 424.676275 257.8533 
L 430.862528 247.134932 
L 437.04878 236.978016 
L 443.235033 227.384287 
L 449.421286 218.348562 
L 455.607539 209.859907 
L 461.793792 201.902773 
L 467.980044 194.458057 
L 474.166297 187.504045 
L 480.35255 181.017247 
L 486.538803 174.973108 
L 492.725055 169.346591 
L 498.911308 164.112659 
L 505.097561 159.24665 
L 511.283814 154.72456 
L 517.470067 150.523259 
L 523.656319 146.620639 
L 529.842572 142.995704 
L 536.028825 139.62863 
L 542.215078 136.500782 
L 548.40133 133.594711 
L 554.587583 130.894127 
L 560.773836 128.383866 
L 566.960089 126.049836 
L 573.146341 123.878971 
L 579.332594 121.859167 
L 585.518847 119.979226 
L 591.7051 118.228796 
L 597.891353 116.598313 
L 604.077605 115.078946 
L 610.263858 113.662541 
L 616.450111 112.341571 
L 622.636364 111.109091 
" style="fill:none;stroke:#d62728;stroke-linecap:square;stroke-width:1.5;"/>
   </g>
   <g id="line2d_31">
    <path clip-path="url(#p74ea7c2a59)" d="M 115.363636 605.290909 
L 121.549889 605.276359 
L 127.736142 605.240116 
L 133.922395 605.187769 
L 140.108647 605.120627 
L 146.2949 605.037771 
L 152.481153 604.936941 
L 158.667406 604.814883 
L 164.853659 604.667437 
L 171.039911 604.489477 
L 177.226164 604.274787 
L 183.412417 604.015863 
L 189.59867 603.703681 
L 195.784922 603.327398 
L 201.971175 602.874014 
L 208.157428 602.327958 
L 214.343681 601.670619 
L 220.529933 600.879796 
L 226.716186 599.929073 
L 232.902439 598.787117 
L 239.088692 597.416897 
L 245.274945 595.774847 
L 251.461197 593.809992 
L 257.64745 591.463091 
L 263.833703 588.665847 
L 270.019956 585.340318 
L 276.206208 581.398648 
L 282.392461 576.743308 
L 288.578714 571.26811 
L 294.764967 564.860241 
L 300.95122 557.403626 
L 307.137472 548.783893 
L 313.323725 538.895079 
L 319.509978 527.648086 
L 325.696231 514.980516 
L 331.882483 500.867182 
L 338.068736 485.330117 
L 344.254989 468.446574 
L 350.441242 450.353357 
L 356.627494 431.246049 
L 362.813747 411.372325 
L 369 391.019511 
L 375.186253 370.497636 
L 381.372506 350.1201 
L 387.558758 330.184544 
L 393.745011 310.956342 
L 399.931264 292.656493 
L 406.117517 275.454747 
L 412.303769 259.467873 
L 418.490022 244.762232 
L 424.676275 231.359473 
L 430.862528 219.244014 
L 437.04878 208.371204 
L 443.235033 198.675244 
L 449.421286 190.076324 
L 455.607539 182.486646 
L 461.793792 175.815251 
L 467.980044 169.971681 
L 474.166297 164.86861 
L 480.35255 160.423613 
L 486.538803 156.56024 
L 492.725055 153.208559 
L 498.911308 150.305307 
L 505.097561 147.793772 
L 511.283814 145.623485 
L 517.470067 143.749803 
L 523.656319 142.133436 
L 529.842572 140.739942 
L 536.028825 139.539237 
L 542.215078 138.50511 
L 548.40133 137.614786 
L 554.587583 136.848504 
L 560.773836 136.189156 
L 566.960089 135.621939 
L 573.146341 135.13407 
L 579.332594 134.714511 
L 585.518847 134.353742 
L 591.7051 134.043558 
L 597.891353 133.77689 
L 604.077605 133.547649 
L 610.263858 133.350595 
L 616.450111 133.181218 
L 622.636364 133.035635 
" style="fill:none;stroke:#9467bd;stroke-linecap:square;stroke-width:1.5;"/>
   </g>
   <g id="line2d_32">
    <path clip-path="url(#p74ea7c2a59)" d="M 115.363636 605.290909 
L 121.549889 605.254368 
L 127.736142 605.149299 
L 133.922395 604.979495 
L 140.108647 604.745417 
L 146.2949 604.444838 
L 152.481153 604.073271 
L 158.667406 603.624223 
L 164.853659 603.089337 
L 171.039911 602.458441 
L 177.226164 601.719524 
L 183.412417 600.85867 
L 189.59867 599.859949 
L 195.784922 598.705279 
L 201.971175 597.37427 
L 208.157428 595.844064 
L 214.343681 594.089173 
L 220.529933 592.081326 
L 226.716186 589.789354 
L 232.902439 587.179115 
L 239.088692 584.213488 
L 245.274945 580.852459 
L 251.461197 577.053326 
L 257.64745 572.771067 
L 263.833703 567.958888 
L 270.019956 562.568995 
L 276.206208 556.553626 
L 282.392461 549.866353 
L 288.578714 542.463682 
L 294.764967 534.306919 
L 300.95122 525.364281 
L 307.137472 515.613181 
L 313.323725 505.04256 
L 319.509978 493.655145 
L 325.696231 481.469434 
L 331.882483 468.521218 
L 338.068736 454.864447 
L 344.254989 440.571264 
L 350.441242 425.731081 
L 356.627494 410.448677 
L 362.813747 394.841349 
L 369 379.035285 
L 375.186253 363.161389 
L 381.372506 347.350856 
L 387.558758 331.730823 
L 393.745011 316.420391 
L 399.931264 301.527283 
L 406.117517 287.14529 
L 412.303769 273.352619 
L 418.490022 260.211112 
L 424.676275 247.766276 
L 430.862528 236.048 
L 437.04878 225.071787 
L 443.235033 214.840354 
L 449.421286 205.345436 
L 455.607539 196.569661 
L 461.793792 188.488392 
L 467.980044 181.071457 
L 474.166297 174.284708 
L 480.35255 168.091398 
L 486.538803 162.453338 
L 492.725055 157.33187 
L 498.911308 152.688631 
L 505.097561 148.486164 
L 511.283814 144.688371 
L 517.470067 141.260832 
L 523.656319 138.171031 
L 529.842572 135.388477 
L 536.028825 132.884773 
L 542.215078 130.633615 
L 548.40133 128.610759 
L 554.587583 126.793951 
L 560.773836 125.162844 
L 566.960089 123.698891 
L 573.146341 122.385231 
L 579.332594 121.20658 
L 585.518847 120.149109 
L 591.7051 119.20033 
L 597.891353 118.348988 
L 604.077605 117.58495 
L 610.263858 116.899107 
L 616.450111 116.283282 
L 622.636364 115.730137 
" style="fill:none;stroke:#8c564b;stroke-linecap:square;stroke-width:1.5;"/>
   </g>
   <g id="line2d_33">
    <path clip-path="url(#p74ea7c2a59)" d="M 115.363636 605.290909 
L 121.549889 605.277757 
L 127.736142 605.244429 
L 133.922395 605.195649 
L 140.108647 605.132528 
L 146.2949 605.054172 
L 152.481153 604.958419 
L 158.667406 604.84213 
L 164.853659 604.701259 
L 171.039911 604.530799 
L 177.226164 604.324649 
L 183.412417 604.075428 
L 189.59867 603.774226 
L 195.784922 603.410319 
L 201.971175 602.970812 
L 208.157428 602.440231 
L 214.343681 601.800034 
L 220.529933 601.028056 
L 226.716186 600.097871 
L 232.902439 598.978067 
L 239.088692 597.631457 
L 245.274945 596.014213 
L 251.461197 594.074984 
L 257.64745 591.754014 
L 263.833703 588.982364 
L 270.019956 585.681327 
L 276.206208 581.762204 
L 282.392461 577.126635 
L 288.578714 571.667737 
L 294.764967 565.272348 
L 300.95122 557.824652 
L 307.137472 549.211464 
L 313.323725 539.329287 
L 319.509978 528.093062 
L 325.696231 515.446165 
L 331.882483 501.370814 
L 338.068736 485.897597 
L 344.254989 469.112551 
L 350.441242 451.160171 
L 356.627494 432.24109 
L 362.813747 412.603921 
L 369 392.531794 
L 375.186253 372.325132 
L 381.372506 352.282964 
L 387.558758 332.685267 
L 393.745011 313.778464 
L 399.931264 295.765458 
L 406.117517 278.800619 
L 412.303769 262.989358 
L 418.490022 248.391331 
L 424.676275 235.026107 
L 430.862528 222.880137 
L 437.04878 211.91407 
L 443.235033 202.069719 
L 449.421286 193.276243 
L 455.607539 185.455354 
L 461.793792 178.525469 
L 467.980044 172.4049 
L 474.166297 167.014178 
L 480.35255 162.277648 
L 486.538803 158.124494 
L 492.725055 154.489304 
L 498.911308 151.31231 
L 505.097561 148.539368 
L 511.283814 146.121786 
L 517.470067 144.016034 
L 523.656319 142.183387 
L 529.842572 140.589535 
L 536.028825 139.204191 
L 542.215078 138.00069 
L 548.40133 136.955619 
L 554.587583 136.048458 
L 560.773836 135.261259 
L 566.960089 134.578343 
L 573.146341 133.986033 
L 579.332594 133.47241 
L 585.518847 133.027095 
L 591.7051 132.641059 
L 597.891353 132.306453 
L 604.077605 132.016456 
L 610.263858 131.765144 
L 616.450111 131.547372 
L 622.636364 131.358677 
" style="fill:none;stroke:#e377c2;stroke-linecap:square;stroke-width:1.5;"/>
   </g>
   <g id="line2d_34">
    <path clip-path="url(#p74ea7c2a59)" d="M 115.363636 605.290909 
L 121.549889 605.235336 
L 127.736142 605.080847 
L 133.922395 604.838909 
L 140.108647 604.514133 
L 146.2949 604.106292 
L 152.481153 603.611609 
L 158.667406 603.023552 
L 164.853659 602.333314 
L 171.039911 601.530083 
L 177.226164 600.601168 
L 183.412417 599.532037 
L 189.59867 598.306294 
L 195.784922 596.905621 
L 201.971175 595.309694 
L 208.157428 593.496105 
L 214.343681 591.440279 
L 220.529933 589.115421 
L 226.716186 586.492488 
L 232.902439 583.540214 
L 239.088692 580.225197 
L 245.274945 576.512074 
L 251.461197 572.36379 
L 257.64745 567.742 
L 263.833703 562.607614 
L 270.019956 556.921506 
L 276.206208 550.645404 
L 282.392461 543.742978 
L 288.578714 536.181109 
L 294.764967 527.931339 
L 300.95122 518.971468 
L 307.137472 509.287241 
L 313.323725 498.874057 
L 319.509978 487.738591 
L 325.696231 475.900236 
L 331.882483 463.392212 
L 338.068736 450.26223 
L 344.254989 436.572593 
L 350.441242 422.399631 
L 356.627494 407.832447 
L 362.813747 392.970957 
L 369 377.923319 
L 375.186253 362.80286 
L 381.372506 347.724689 
L 387.558758 332.802214 
L 393.745011 318.143772 
L 399.931264 303.84959 
L 406.117517 290.009248 
L 412.303769 276.699762 
L 418.490022 263.984349 
L 424.676275 251.911883 
L 430.862528 240.516988 
L 437.04878 229.820677 
L 443.235033 219.831428 
L 449.421286 210.546571 
L 455.607539 201.953862 
L 461.793792 194.033138 
L 467.980044 186.757959 
L 474.166297 180.097156 
L 480.35255 174.016258 
L 486.538803 168.478736 
L 492.725055 163.44708 
L 498.911308 158.883681 
L 505.097561 154.751544 
L 511.283814 151.014837 
L 517.470067 147.639296 
L 523.656319 144.59251 
L 529.842572 141.844096 
L 536.028825 139.365797 
L 542.215078 137.131507 
L 548.40133 135.117243 
L 554.587583 133.301085 
L 560.773836 131.663083 
L 566.960089 130.185143 
L 573.146341 128.85091 
L 579.332594 127.645636 
L 585.518847 126.556057 
L 591.7051 125.570262 
L 597.891353 124.677573 
L 604.077605 123.868428 
L 610.263858 123.134276 
L 616.450111 122.467472 
L 622.636364 121.861186 
" style="fill:none;stroke:#7f7f7f;stroke-linecap:square;stroke-width:1.5;"/>
   </g>
   <g id="line2d_35">
    <path clip-path="url(#p74ea7c2a59)" d="M 115.363636 605.290909 
L 121.549889 605.261347 
L 127.736142 605.173043 
L 133.922395 605.025008 
L 140.108647 604.81433 
L 146.2949 604.53632 
L 152.481153 604.184584 
L 158.667406 603.751029 
L 164.853659 603.225834 
L 171.039911 602.59737 
L 177.226164 601.85209 
L 183.412417 600.9744 
L 189.59867 599.9465 
L 195.784922 598.748221 
L 201.971175 597.356854 
L 208.157428 595.746988 
L 214.343681 593.890372 
L 220.529933 591.75581 
L 226.716186 589.30912 
L 232.902439 586.513167 
L 239.088692 583.328023 
L 245.274945 579.711253 
L 251.461197 575.618389 
L 257.64745 571.003618 
L 263.833703 565.820705 
L 270.019956 560.024184 
L 276.206208 553.570824 
L 282.392461 546.421351 
L 288.578714 538.542398 
L 294.764967 529.908592 
L 300.95122 520.504695 
L 307.137472 510.327637 
L 313.323725 499.388288 
L 319.509978 487.712797 
L 325.696231 475.343319 
L 331.882483 462.33801 
L 338.068736 448.770206 
L 344.254989 434.726779 
L 350.441242 420.305751 
L 356.627494 405.613296 
L 362.813747 390.760358 
L 369 375.859111 
L 375.186253 361.019512 
L 381.372506 346.34615 
L 387.558758 331.935595 
L 393.745011 317.874317 
L 399.931264 304.23727 
L 406.117517 291.087091 
L 412.303769 278.473897 
L 418.490022 266.435563 
L 424.676275 254.998404 
L 430.862528 244.178138 
L 437.04878 233.981036 
L 443.235033 224.405168 
L 449.421286 215.441674 
L 455.607539 207.075995 
L 461.793792 199.289035 
L 467.980044 192.058221 
L 474.166297 185.358444 
L 480.35255 179.162877 
L 486.538803 173.443676 
L 492.725055 168.172563 
L 498.911308 163.321303 
L 505.097561 158.862085 
L 511.283814 154.767823 
L 517.470067 151.012379 
L 523.656319 147.570724 
L 529.842572 144.419058 
L 536.028825 141.534868 
L 542.215078 138.896975 
L 548.40133 136.485529 
L 554.587583 134.282006 
L 560.773836 132.269166 
L 566.960089 130.431019 
L 573.146341 128.752765 
L 579.332594 127.220742 
L 585.518847 125.822358 
L 591.7051 124.546034 
L 597.891353 123.381132 
L 604.077605 122.317897 
L 610.263858 121.347392 
L 616.450111 120.461441 
L 622.636364 119.652566 
" style="fill:none;stroke:#bcbd22;stroke-linecap:square;stroke-width:1.5;"/>
   </g>
   <g id="line2d_36">
    <path clip-path="url(#p74ea7c2a59)" d="M 115.363636 605.290909 
L 121.549889 605.177717 
L 127.736142 605.098745 
L 133.922395 604.93817 
L 140.108647 604.88289 
L 146.2949 604.682829 
L 152.481153 604.319561 
L 158.667406 603.819408 
L 164.853659 602.945458 
L 171.039911 602.479526 
L 177.226164 601.726665 
L 183.412417 600.74742 
L 189.59867 599.404905 
L 195.784922 599.404905 
L 201.971175 595.75116 
L 208.157428 593.60577 
L 214.343681 593.511004 
L 220.529933 587.848753 
L 226.716186 585.132135 
L 232.902439 581.423111 
L 239.088692 576.563735 
L 245.274945 571.857038 
L 251.461197 567.368829 
L 257.64745 561.327514 
L 263.833703 552.469552 
L 270.019956 546.549327 
L 276.206208 538.752215 
L 282.392461 528.438546 
L 288.578714 518.44866 
L 294.764967 506.221251 
L 300.95122 499.369163 
L 307.137472 487.907776 
L 313.323725 467.825342 
L 319.509978 455.074088 
L 325.696231 449.530294 
L 331.882483 435.778735 
L 338.068736 480.724008 
L 344.254989 478.473323 
L 350.441242 471.486984 
L 356.627494 480.676626 
L 362.813747 470.528797 
L 369 460.567867 
L 375.186253 456.448191 
L 381.372506 452.6444 
L 387.558758 319.061595 
L 393.745011 310.793286 
L 399.931264 264.863503 
L 406.117517 256.418825 
L 412.303769 223.308737 
L 418.490022 218.330904 
L 424.676275 208.312062 
L 430.862528 205.437502 
L 437.04878 198.996066 
L 443.235033 191.978138 
L 449.421286 187.239852 
L 455.607539 191.741224 
L 461.793792 184.341601 
L 467.980044 179.924466 
L 474.166297 178.258168 
L 480.35255 168.555212 
L 486.538803 160.310595 
L 492.725055 164.140709 
L 498.911308 160.934469 
L 505.097561 159.549837 
L 511.283814 157.464991 
L 517.470067 156.514701 
L 523.656319 155.035303 
L 529.842572 152.094934 
L 536.028825 141.207406 
L 542.215078 139.256812 
L 548.40133 137.859017 
L 554.587583 136.466488 
L 560.773836 135.811025 
L 566.960089 134.984457 
L 573.146341 133.002274 
L 579.332594 131.630804 
L 585.518847 129.940815 
L 591.7051 128.590404 
L 597.891353 127.497966 
L 604.077605 127.129432 
L 610.263858 125.960655 
L 616.450111 124.641832 
L 622.636364 123.373025 
" style="fill:none;stroke:#17becf;stroke-dasharray:14.8,6.4;stroke-dashoffset:0;stroke-width:4;"/>
   </g>
   <g id="patch_3">
    <path d="M 90 630 
L 90 86.4 
" style="fill:none;stroke:#000000;stroke-linecap:square;stroke-linejoin:miter;stroke-width:0.8;"/>
   </g>
   <g id="patch_4">
    <path d="M 648 630 
L 648 86.4 
" style="fill:none;stroke:#000000;stroke-linecap:square;stroke-linejoin:miter;stroke-width:0.8;"/>
   </g>
   <g id="patch_5">
    <path d="M 90 630 
L 648 630 
" style="fill:none;stroke:#000000;stroke-linecap:square;stroke-linejoin:miter;stroke-width:0.8;"/>
   </g>
   <g id="patch_6">
    <path d="M 90 86.4 
L 648 86.4 
" style="fill:none;stroke:#000000;stroke-linecap:square;stroke-linejoin:miter;stroke-width:0.8;"/>
   </g>
   <g id="text_16">
    <!-- France relative err =  -->
    <g transform="translate(305.2425 80.4)scale(0.12 -0.12)">
     <defs>
      <path d="M 9.8125 72.90625 
L 51.703125 72.90625 
L 51.703125 64.59375 
L 19.671875 64.59375 
L 19.671875 43.109375 
L 48.578125 43.109375 
L 48.578125 34.8125 
L 19.671875 34.8125 
L 19.671875 0 
L 9.8125 0 
z
" id="DejaVuSans-70"/>
      <path d="M 41.109375 46.296875 
Q 39.59375 47.171875 37.8125 47.578125 
Q 36.03125 48 33.890625 48 
Q 26.265625 48 22.1875 43.046875 
Q 18.109375 38.09375 18.109375 28.8125 
L 18.109375 0 
L 9.078125 0 
L 9.078125 54.6875 
L 18.109375 54.6875 
L 18.109375 46.1875 
Q 20.953125 51.171875 25.484375 53.578125 
Q 30.03125 56 36.53125 56 
Q 37.453125 56 38.578125 55.875 
Q 39.703125 55.765625 41.0625 55.515625 
z
" id="DejaVuSans-114"/>
      <path d="M 54.890625 33.015625 
L 54.890625 0 
L 45.90625 0 
L 45.90625 32.71875 
Q 45.90625 40.484375 42.875 44.328125 
Q 39.84375 48.1875 33.796875 48.1875 
Q 26.515625 48.1875 22.3125 43.546875 
Q 18.109375 38.921875 18.109375 30.90625 
L 18.109375 0 
L 9.078125 0 
L 9.078125 54.6875 
L 18.109375 54.6875 
L 18.109375 46.1875 
Q 21.34375 51.125 25.703125 53.5625 
Q 30.078125 56 35.796875 56 
Q 45.21875 56 50.046875 50.171875 
Q 54.890625 44.34375 54.890625 33.015625 
z
" id="DejaVuSans-110"/>
      <path d="M 10.59375 45.40625 
L 73.1875 45.40625 
L 73.1875 37.203125 
L 10.59375 37.203125 
z
M 10.59375 25.484375 
L 73.1875 25.484375 
L 73.1875 17.1875 
L 10.59375 17.1875 
z
" id="DejaVuSans-61"/>
     </defs>
     <use xlink:href="#DejaVuSans-70"/>
     <use x="50.269531" xlink:href="#DejaVuSans-114"/>
     <use x="91.382812" xlink:href="#DejaVuSans-97"/>
     <use x="152.662109" xlink:href="#DejaVuSans-110"/>
     <use x="216.041016" xlink:href="#DejaVuSans-99"/>
     <use x="271.021484" xlink:href="#DejaVuSans-101"/>
     <use x="332.544922" xlink:href="#DejaVuSans-32"/>
     <use x="364.332031" xlink:href="#DejaVuSans-114"/>
     <use x="403.195312" xlink:href="#DejaVuSans-101"/>
     <use x="464.71875" xlink:href="#DejaVuSans-108"/>
     <use x="492.501953" xlink:href="#DejaVuSans-97"/>
     <use x="553.78125" xlink:href="#DejaVuSans-116"/>
     <use x="592.990234" xlink:href="#DejaVuSans-105"/>
     <use x="620.773438" xlink:href="#DejaVuSans-118"/>
     <use x="679.953125" xlink:href="#DejaVuSans-101"/>
     <use x="741.476562" xlink:href="#DejaVuSans-32"/>
     <use x="773.263672" xlink:href="#DejaVuSans-101"/>
     <use x="834.787109" xlink:href="#DejaVuSans-114"/>
     <use x="874.150391" xlink:href="#DejaVuSans-114"/>
     <use x="915.263672" xlink:href="#DejaVuSans-32"/>
     <use x="947.050781" xlink:href="#DejaVuSans-61"/>
     <use x="1030.839844" xlink:href="#DejaVuSans-32"/>
    </g>
   </g>
   <g id="legend_1">
    <g id="patch_7">
     <path d="M 97 226.503125 
L 185.6 226.503125 
Q 187.6 226.503125 187.6 224.503125 
L 187.6 93.4 
Q 187.6 91.4 185.6 91.4 
L 97 91.4 
Q 95 91.4 95 93.4 
L 95 224.503125 
Q 95 226.503125 97 226.503125 
z
" style="fill:#ffffff;opacity:0.8;stroke:#cccccc;stroke-linejoin:miter;"/>
    </g>
    <g id="line2d_37">
     <path d="M 99 99.498438 
L 119 99.498438 
" style="fill:none;stroke:#1f77b4;stroke-linecap:square;stroke-width:1.5;"/>
    </g>
    <g id="line2d_38"/>
    <g id="text_17">
     <!-- SI -->
     <g transform="translate(127 102.998438)scale(0.1 -0.1)">
      <defs>
       <path d="M 53.515625 70.515625 
L 53.515625 60.890625 
Q 47.90625 63.578125 42.921875 64.890625 
Q 37.9375 66.21875 33.296875 66.21875 
Q 25.25 66.21875 20.875 63.09375 
Q 16.5 59.96875 16.5 54.203125 
Q 16.5 49.359375 19.40625 46.890625 
Q 22.3125 44.4375 30.421875 42.921875 
L 36.375 41.703125 
Q 47.40625 39.59375 52.65625 34.296875 
Q 57.90625 29 57.90625 20.125 
Q 57.90625 9.515625 50.796875 4.046875 
Q 43.703125 -1.421875 29.984375 -1.421875 
Q 24.8125 -1.421875 18.96875 -0.25 
Q 13.140625 0.921875 6.890625 3.21875 
L 6.890625 13.375 
Q 12.890625 10.015625 18.65625 8.296875 
Q 24.421875 6.59375 29.984375 6.59375 
Q 38.421875 6.59375 43.015625 9.90625 
Q 47.609375 13.234375 47.609375 19.390625 
Q 47.609375 24.75 44.3125 27.78125 
Q 41.015625 30.8125 33.5 32.328125 
L 27.484375 33.5 
Q 16.453125 35.6875 11.515625 40.375 
Q 6.59375 45.0625 6.59375 53.421875 
Q 6.59375 63.09375 13.40625 68.65625 
Q 20.21875 74.21875 32.171875 74.21875 
Q 37.3125 74.21875 42.625 73.28125 
Q 47.953125 72.359375 53.515625 70.515625 
z
" id="DejaVuSans-83"/>
       <path d="M 9.8125 72.90625 
L 19.671875 72.90625 
L 19.671875 0 
L 9.8125 0 
z
" id="DejaVuSans-73"/>
      </defs>
      <use xlink:href="#DejaVuSans-83"/>
      <use x="63.476562" xlink:href="#DejaVuSans-73"/>
     </g>
    </g>
    <g id="line2d_39">
     <path d="M 99 114.176563 
L 119 114.176563 
" style="fill:none;stroke:#ff7f0e;stroke-linecap:square;stroke-width:1.5;"/>
    </g>
    <g id="line2d_40"/>
    <g id="text_18">
     <!-- BD -->
     <g transform="translate(127 117.676563)scale(0.1 -0.1)">
      <defs>
       <path d="M 19.671875 34.8125 
L 19.671875 8.109375 
L 35.5 8.109375 
Q 43.453125 8.109375 47.28125 11.40625 
Q 51.125 14.703125 51.125 21.484375 
Q 51.125 28.328125 47.28125 31.5625 
Q 43.453125 34.8125 35.5 34.8125 
z
M 19.671875 64.796875 
L 19.671875 42.828125 
L 34.28125 42.828125 
Q 41.5 42.828125 45.03125 45.53125 
Q 48.578125 48.25 48.578125 53.8125 
Q 48.578125 59.328125 45.03125 62.0625 
Q 41.5 64.796875 34.28125 64.796875 
z
M 9.8125 72.90625 
L 35.015625 72.90625 
Q 46.296875 72.90625 52.390625 68.21875 
Q 58.5 63.53125 58.5 54.890625 
Q 58.5 48.1875 55.375 44.234375 
Q 52.25 40.28125 46.1875 39.3125 
Q 53.46875 37.75 57.5 32.78125 
Q 61.53125 27.828125 61.53125 20.40625 
Q 61.53125 10.640625 54.890625 5.3125 
Q 48.25 0 35.984375 0 
L 9.8125 0 
z
" id="DejaVuSans-66"/>
      </defs>
      <use xlink:href="#DejaVuSans-66"/>
      <use x="68.603516" xlink:href="#DejaVuSans-68"/>
     </g>
    </g>
    <g id="line2d_41">
     <path d="M 99 128.854688 
L 119 128.854688 
" style="fill:none;stroke:#2ca02c;stroke-linecap:square;stroke-width:1.5;"/>
    </g>
    <g id="line2d_42"/>
    <g id="text_19">
     <!-- SIR -->
     <g transform="translate(127 132.354688)scale(0.1 -0.1)">
      <defs>
       <path d="M 44.390625 34.1875 
Q 47.5625 33.109375 50.5625 29.59375 
Q 53.5625 26.078125 56.59375 19.921875 
L 66.609375 0 
L 56 0 
L 46.6875 18.703125 
Q 43.0625 26.03125 39.671875 28.421875 
Q 36.28125 30.8125 30.421875 30.8125 
L 19.671875 30.8125 
L 19.671875 0 
L 9.8125 0 
L 9.8125 72.90625 
L 32.078125 72.90625 
Q 44.578125 72.90625 50.734375 67.671875 
Q 56.890625 62.453125 56.890625 51.90625 
Q 56.890625 45.015625 53.6875 40.46875 
Q 50.484375 35.9375 44.390625 34.1875 
z
M 19.671875 64.796875 
L 19.671875 38.921875 
L 32.078125 38.921875 
Q 39.203125 38.921875 42.84375 42.21875 
Q 46.484375 45.515625 46.484375 51.90625 
Q 46.484375 58.296875 42.84375 61.546875 
Q 39.203125 64.796875 32.078125 64.796875 
z
" id="DejaVuSans-82"/>
      </defs>
      <use xlink:href="#DejaVuSans-83"/>
      <use x="63.476562" xlink:href="#DejaVuSans-73"/>
      <use x="92.96875" xlink:href="#DejaVuSans-82"/>
     </g>
    </g>
    <g id="line2d_43">
     <path d="M 99 143.532812 
L 119 143.532812 
" style="fill:none;stroke:#d62728;stroke-linecap:square;stroke-width:1.5;"/>
    </g>
    <g id="line2d_44"/>
    <g id="text_20">
     <!-- eSIR -->
     <g transform="translate(127 147.032812)scale(0.1 -0.1)">
      <use xlink:href="#DejaVuSans-101"/>
      <use x="61.523438" xlink:href="#DejaVuSans-83"/>
      <use x="125" xlink:href="#DejaVuSans-73"/>
      <use x="154.492188" xlink:href="#DejaVuSans-82"/>
     </g>
    </g>
    <g id="line2d_45">
     <path d="M 99 158.210938 
L 119 158.210938 
" style="fill:none;stroke:#9467bd;stroke-linecap:square;stroke-width:1.5;"/>
    </g>
    <g id="line2d_46"/>
    <g id="text_21">
     <!-- SEIR -->
     <g transform="translate(127 161.710938)scale(0.1 -0.1)">
      <defs>
       <path d="M 9.8125 72.90625 
L 55.90625 72.90625 
L 55.90625 64.59375 
L 19.671875 64.59375 
L 19.671875 43.015625 
L 54.390625 43.015625 
L 54.390625 34.71875 
L 19.671875 34.71875 
L 19.671875 8.296875 
L 56.78125 8.296875 
L 56.78125 0 
L 9.8125 0 
z
" id="DejaVuSans-69"/>
      </defs>
      <use xlink:href="#DejaVuSans-83"/>
      <use x="63.476562" xlink:href="#DejaVuSans-69"/>
      <use x="126.660156" xlink:href="#DejaVuSans-73"/>
      <use x="156.152344" xlink:href="#DejaVuSans-82"/>
     </g>
    </g>
    <g id="line2d_47">
     <path d="M 99 172.889063 
L 119 172.889063 
" style="fill:none;stroke:#8c564b;stroke-linecap:square;stroke-width:1.5;"/>
    </g>
    <g id="line2d_48"/>
    <g id="text_22">
     <!-- eSEIR -->
     <g transform="translate(127 176.389063)scale(0.1 -0.1)">
      <use xlink:href="#DejaVuSans-101"/>
      <use x="61.523438" xlink:href="#DejaVuSans-83"/>
      <use x="125" xlink:href="#DejaVuSans-69"/>
      <use x="188.183594" xlink:href="#DejaVuSans-73"/>
      <use x="217.675781" xlink:href="#DejaVuSans-82"/>
     </g>
    </g>
    <g id="line2d_49">
     <path d="M 99 187.567188 
L 119 187.567188 
" style="fill:none;stroke:#e377c2;stroke-linecap:square;stroke-width:1.5;"/>
    </g>
    <g id="line2d_50"/>
    <g id="text_23">
     <!-- SEIUR -->
     <g transform="translate(127 191.067188)scale(0.1 -0.1)">
      <defs>
       <path d="M 8.6875 72.90625 
L 18.609375 72.90625 
L 18.609375 28.609375 
Q 18.609375 16.890625 22.84375 11.734375 
Q 27.09375 6.59375 36.625 6.59375 
Q 46.09375 6.59375 50.34375 11.734375 
Q 54.59375 16.890625 54.59375 28.609375 
L 54.59375 72.90625 
L 64.5 72.90625 
L 64.5 27.390625 
Q 64.5 13.140625 57.4375 5.859375 
Q 50.390625 -1.421875 36.625 -1.421875 
Q 22.796875 -1.421875 15.734375 5.859375 
Q 8.6875 13.140625 8.6875 27.390625 
z
" id="DejaVuSans-85"/>
      </defs>
      <use xlink:href="#DejaVuSans-83"/>
      <use x="63.476562" xlink:href="#DejaVuSans-69"/>
      <use x="126.660156" xlink:href="#DejaVuSans-73"/>
      <use x="156.152344" xlink:href="#DejaVuSans-85"/>
      <use x="229.345703" xlink:href="#DejaVuSans-82"/>
     </g>
    </g>
    <g id="line2d_51">
     <path d="M 99 202.245312 
L 119 202.245312 
" style="fill:none;stroke:#7f7f7f;stroke-linecap:square;stroke-width:1.5;"/>
    </g>
    <g id="line2d_52"/>
    <g id="text_24">
     <!-- eSEIUR -->
     <g transform="translate(127 205.745312)scale(0.1 -0.1)">
      <use xlink:href="#DejaVuSans-101"/>
      <use x="61.523438" xlink:href="#DejaVuSans-83"/>
      <use x="125" xlink:href="#DejaVuSans-69"/>
      <use x="188.183594" xlink:href="#DejaVuSans-73"/>
      <use x="217.675781" xlink:href="#DejaVuSans-85"/>
      <use x="290.869141" xlink:href="#DejaVuSans-82"/>
     </g>
    </g>
    <g id="line2d_53">
     <path d="M 99 216.923437 
L 119 216.923437 
" style="fill:none;stroke:#bcbd22;stroke-linecap:square;stroke-width:1.5;"/>
    </g>
    <g id="line2d_54"/>
    <g id="text_25">
     <!-- eSEIUR$^{range}$ -->
     <g transform="translate(127 220.423437)scale(0.1 -0.1)">
      <defs>
       <path d="M 44.578125 46.390625 
Q 43.21875 47.125 41.453125 47.515625 
Q 39.703125 47.90625 37.703125 47.90625 
Q 30.515625 47.90625 25.140625 42.453125 
Q 19.78125 37.015625 18.015625 27.875 
L 12.5 0 
L 3.515625 0 
L 14.203125 54.6875 
L 23.1875 54.6875 
L 21.484375 46.1875 
Q 25.046875 50.921875 30 53.453125 
Q 34.96875 56 40.578125 56 
Q 42.046875 56 43.453125 55.828125 
Q 44.875 55.671875 46.296875 55.28125 
z
" id="DejaVuSans-Oblique-114"/>
       <path d="M 53.71875 31.203125 
L 47.609375 0 
L 38.625 0 
L 40.28125 8.296875 
Q 36.328125 3.421875 31.265625 1 
Q 26.21875 -1.421875 20.015625 -1.421875 
Q 13.03125 -1.421875 8.5625 2.84375 
Q 4.109375 7.125 4.109375 13.8125 
Q 4.109375 23.390625 11.75 28.953125 
Q 19.390625 34.515625 32.8125 34.515625 
L 45.3125 34.515625 
L 45.796875 36.921875 
Q 45.90625 37.3125 45.953125 37.765625 
Q 46 38.234375 46 39.203125 
Q 46 43.5625 42.453125 45.96875 
Q 38.921875 48.390625 32.515625 48.390625 
Q 28.125 48.390625 23.5 47.265625 
Q 18.890625 46.140625 14.015625 43.890625 
L 15.578125 52.203125 
Q 20.65625 54.109375 25.515625 55.046875 
Q 30.375 56 34.90625 56 
Q 44.578125 56 49.625 51.796875 
Q 54.6875 47.609375 54.6875 39.59375 
Q 54.6875 37.984375 54.4375 35.8125 
Q 54.203125 33.640625 53.71875 31.203125 
z
M 44 27.484375 
L 35.015625 27.484375 
Q 23.96875 27.484375 18.671875 24.53125 
Q 13.375 21.578125 13.375 15.375 
Q 13.375 11.078125 16.078125 8.640625 
Q 18.796875 6.203125 23.578125 6.203125 
Q 30.90625 6.203125 36.375 11.453125 
Q 41.84375 16.703125 43.609375 25.484375 
z
" id="DejaVuSans-Oblique-97"/>
       <path d="M 55.71875 33.015625 
L 49.3125 0 
L 40.28125 0 
L 46.6875 32.671875 
Q 47.125 34.96875 47.359375 36.71875 
Q 47.609375 38.484375 47.609375 39.5 
Q 47.609375 43.609375 45.015625 45.890625 
Q 42.4375 48.1875 37.796875 48.1875 
Q 30.5625 48.1875 25.34375 43.375 
Q 20.125 38.578125 18.5 30.328125 
L 12.5 0 
L 3.515625 0 
L 14.109375 54.6875 
L 23.09375 54.6875 
L 21.296875 46.09375 
Q 25.046875 50.828125 30.3125 53.40625 
Q 35.59375 56 41.40625 56 
Q 48.640625 56 52.609375 52.09375 
Q 56.59375 48.1875 56.59375 41.109375 
Q 56.59375 39.359375 56.375 37.359375 
Q 56.15625 35.359375 55.71875 33.015625 
z
" id="DejaVuSans-Oblique-110"/>
       <path d="M 59.625 54.6875 
L 50.296875 6.78125 
Q 47.609375 -7.125 40.015625 -13.953125 
Q 32.421875 -20.796875 19.578125 -20.796875 
Q 14.84375 -20.796875 10.78125 -20.09375 
Q 6.734375 -19.390625 3.21875 -17.921875 
L 4.890625 -9.1875 
Q 8.203125 -11.328125 11.90625 -12.34375 
Q 15.625 -13.375 19.828125 -13.375 
Q 28.375 -13.375 33.859375 -8.703125 
Q 39.359375 -4.046875 41.109375 4.6875 
L 41.890625 8.796875 
Q 38.140625 4.5 33.15625 2.25 
Q 28.171875 0 22.40625 0 
Q 14.109375 0 9.34375 5.484375 
Q 4.59375 10.984375 4.59375 20.609375 
Q 4.59375 28.171875 7.46875 35.421875 
Q 10.359375 42.671875 15.578125 48.296875 
Q 19.046875 52 23.65625 54 
Q 28.265625 56 33.296875 56 
Q 38.8125 56 42.90625 53.4375 
Q 47.015625 50.875 49.03125 46.1875 
L 50.59375 54.6875 
z
M 46.09375 34.625 
Q 46.09375 41.265625 42.96875 44.875 
Q 39.84375 48.484375 34.078125 48.484375 
Q 30.515625 48.484375 27.296875 47.0625 
Q 24.078125 45.65625 21.78125 43.109375 
Q 18.0625 38.921875 15.984375 33.234375 
Q 13.921875 27.546875 13.921875 21.484375 
Q 13.921875 14.75 17.0625 11.125 
Q 20.21875 7.515625 26.125 7.515625 
Q 34.671875 7.515625 40.375 15.25 
Q 46.09375 23 46.09375 34.625 
z
" id="DejaVuSans-Oblique-103"/>
       <path d="M 48.09375 32.234375 
Q 48.25 33.015625 48.3125 33.84375 
Q 48.390625 34.671875 48.390625 35.5 
Q 48.390625 41.453125 44.890625 44.921875 
Q 41.40625 48.390625 35.40625 48.390625 
Q 28.71875 48.390625 23.578125 44.15625 
Q 18.453125 39.9375 15.828125 32.171875 
z
M 55.90625 25.203125 
L 14.109375 25.203125 
Q 13.8125 23.34375 13.71875 22.265625 
Q 13.625 21.1875 13.625 20.40625 
Q 13.625 13.625 17.796875 9.90625 
Q 21.96875 6.203125 29.59375 6.203125 
Q 35.453125 6.203125 40.671875 7.515625 
Q 45.90625 8.84375 50.390625 11.375 
L 48.6875 2.484375 
Q 43.84375 0.53125 38.6875 -0.4375 
Q 33.546875 -1.421875 28.21875 -1.421875 
Q 16.84375 -1.421875 10.71875 4.015625 
Q 4.59375 9.46875 4.59375 19.484375 
Q 4.59375 28.03125 7.640625 35.375 
Q 10.6875 42.71875 16.609375 48.484375 
Q 20.40625 52.09375 25.65625 54.046875 
Q 30.90625 56 36.8125 56 
Q 46.09375 56 51.578125 50.4375 
Q 57.078125 44.875 57.078125 35.5 
Q 57.078125 33.25 56.78125 30.6875 
Q 56.5 28.125 55.90625 25.203125 
z
" id="DejaVuSans-Oblique-101"/>
      </defs>
      <use transform="translate(0 0.51875)" xlink:href="#DejaVuSans-101"/>
      <use transform="translate(61.523438 0.51875)" xlink:href="#DejaVuSans-83"/>
      <use transform="translate(125 0.51875)" xlink:href="#DejaVuSans-69"/>
      <use transform="translate(188.183594 0.51875)" xlink:href="#DejaVuSans-73"/>
      <use transform="translate(217.675781 0.51875)" xlink:href="#DejaVuSans-85"/>
      <use transform="translate(288.619141 0.51875)" xlink:href="#DejaVuSans-82"/>
      <use transform="translate(359.058594 38.8)scale(0.7)" xlink:href="#DejaVuSans-Oblique-114"/>
      <use transform="translate(387.837891 38.8)scale(0.7)" xlink:href="#DejaVuSans-Oblique-97"/>
      <use transform="translate(430.733398 38.8)scale(0.7)" xlink:href="#DejaVuSans-Oblique-110"/>
      <use transform="translate(475.098633 38.8)scale(0.7)" xlink:href="#DejaVuSans-Oblique-103"/>
      <use transform="translate(519.532227 38.8)scale(0.7)" xlink:href="#DejaVuSans-Oblique-101"/>
     </g>
    </g>
   </g>
  </g>
 </g>
 <defs>
  <clipPath id="p74ea7c2a59">
   <rect height="543.6" width="558" x="90" y="86.4"/>
  </clipPath>
 </defs>
</svg>
