<?xml version="1.0" encoding="utf-8" standalone="no"?>
<!DOCTYPE svg PUBLIC "-//W3C//DTD SVG 1.1//EN"
  "http://www.w3.org/Graphics/SVG/1.1/DTD/svg11.dtd">
<!-- Created with matplotlib (https://matplotlib.org/) -->
<svg height="720pt" version="1.1" viewBox="0 0 720 720" width="720pt" xmlns="http://www.w3.org/2000/svg" xmlns:xlink="http://www.w3.org/1999/xlink">
 <metadata>
  <rdf:RDF xmlns:cc="http://creativecommons.org/ns#" xmlns:dc="http://purl.org/dc/elements/1.1/" xmlns:rdf="http://www.w3.org/1999/02/22-rdf-syntax-ns#">
   <cc:Work>
    <dc:type rdf:resource="http://purl.org/dc/dcmitype/StillImage"/>
    <dc:date>2022-07-13T18:53:54.521239</dc:date>
    <dc:format>image/svg+xml</dc:format>
    <dc:creator>
     <cc:Agent>
      <dc:title>Matplotlib v3.3.2, https://matplotlib.org/</dc:title>
     </cc:Agent>
    </dc:creator>
   </cc:Work>
  </rdf:RDF>
 </metadata>
 <defs>
  <style type="text/css">*{stroke-linecap:butt;stroke-linejoin:round;}</style>
 </defs>
 <g id="figure_1">
  <g id="patch_1">
   <path d="M 0 720 
L 720 720 
L 720 0 
L 0 0 
z
" style="fill:none;"/>
  </g>
  <g id="axes_1">
   <g id="patch_2">
    <path d="M 90 630 
L 648 630 
L 648 86.4 
L 90 86.4 
z
" style="fill:#ffffff;"/>
   </g>
   <g id="matplotlib.axis_1">
    <g id="xtick_1">
     <g id="line2d_1">
      <path clip-path="url(#pde0aeddbf7)" d="M 115.363636 630 
L 115.363636 86.4 
" style="fill:none;stroke:#b0b0b0;stroke-linecap:square;stroke-width:0.8;"/>
     </g>
     <g id="line2d_2">
      <defs>
       <path d="M 0 0 
L 0 3.5 
" id="md70a592f09" style="stroke:#000000;stroke-width:0.8;"/>
      </defs>
      <g>
       <use style="stroke:#000000;stroke-width:0.8;" x="115.363636" xlink:href="#md70a592f09" y="630"/>
      </g>
     </g>
     <g id="text_1">
      <!-- 0 -->
      <g transform="translate(112.182386 644.598438)scale(0.1 -0.1)">
       <defs>
        <path d="M 31.78125 66.40625 
Q 24.171875 66.40625 20.328125 58.90625 
Q 16.5 51.421875 16.5 36.375 
Q 16.5 21.390625 20.328125 13.890625 
Q 24.171875 6.390625 31.78125 6.390625 
Q 39.453125 6.390625 43.28125 13.890625 
Q 47.125 21.390625 47.125 36.375 
Q 47.125 51.421875 43.28125 58.90625 
Q 39.453125 66.40625 31.78125 66.40625 
z
M 31.78125 74.21875 
Q 44.046875 74.21875 50.515625 64.515625 
Q 56.984375 54.828125 56.984375 36.375 
Q 56.984375 17.96875 50.515625 8.265625 
Q 44.046875 -1.421875 31.78125 -1.421875 
Q 19.53125 -1.421875 13.0625 8.265625 
Q 6.59375 17.96875 6.59375 36.375 
Q 6.59375 54.828125 13.0625 64.515625 
Q 19.53125 74.21875 31.78125 74.21875 
z
" id="DejaVuSans-48"/>
       </defs>
       <use xlink:href="#DejaVuSans-48"/>
      </g>
     </g>
    </g>
    <g id="xtick_2">
     <g id="line2d_3">
      <path clip-path="url(#pde0aeddbf7)" d="M 224.689655 630 
L 224.689655 86.4 
" style="fill:none;stroke:#b0b0b0;stroke-linecap:square;stroke-width:0.8;"/>
     </g>
     <g id="line2d_4">
      <g>
       <use style="stroke:#000000;stroke-width:0.8;" x="224.689655" xlink:href="#md70a592f09" y="630"/>
      </g>
     </g>
     <g id="text_2">
      <!-- 50 -->
      <g transform="translate(218.327155 644.598438)scale(0.1 -0.1)">
       <defs>
        <path d="M 10.796875 72.90625 
L 49.515625 72.90625 
L 49.515625 64.59375 
L 19.828125 64.59375 
L 19.828125 46.734375 
Q 21.96875 47.46875 24.109375 47.828125 
Q 26.265625 48.1875 28.421875 48.1875 
Q 40.625 48.1875 47.75 41.5 
Q 54.890625 34.8125 54.890625 23.390625 
Q 54.890625 11.625 47.5625 5.09375 
Q 40.234375 -1.421875 26.90625 -1.421875 
Q 22.3125 -1.421875 17.546875 -0.640625 
Q 12.796875 0.140625 7.71875 1.703125 
L 7.71875 11.625 
Q 12.109375 9.234375 16.796875 8.0625 
Q 21.484375 6.890625 26.703125 6.890625 
Q 35.15625 6.890625 40.078125 11.328125 
Q 45.015625 15.765625 45.015625 23.390625 
Q 45.015625 31 40.078125 35.4375 
Q 35.15625 39.890625 26.703125 39.890625 
Q 22.75 39.890625 18.8125 39.015625 
Q 14.890625 38.140625 10.796875 36.28125 
z
" id="DejaVuSans-53"/>
       </defs>
       <use xlink:href="#DejaVuSans-53"/>
       <use x="63.623047" xlink:href="#DejaVuSans-48"/>
      </g>
     </g>
    </g>
    <g id="xtick_3">
     <g id="line2d_5">
      <path clip-path="url(#pde0aeddbf7)" d="M 334.015674 630 
L 334.015674 86.4 
" style="fill:none;stroke:#b0b0b0;stroke-linecap:square;stroke-width:0.8;"/>
     </g>
     <g id="line2d_6">
      <g>
       <use style="stroke:#000000;stroke-width:0.8;" x="334.015674" xlink:href="#md70a592f09" y="630"/>
      </g>
     </g>
     <g id="text_3">
      <!-- 100 -->
      <g transform="translate(324.471924 644.598438)scale(0.1 -0.1)">
       <defs>
        <path d="M 12.40625 8.296875 
L 28.515625 8.296875 
L 28.515625 63.921875 
L 10.984375 60.40625 
L 10.984375 69.390625 
L 28.421875 72.90625 
L 38.28125 72.90625 
L 38.28125 8.296875 
L 54.390625 8.296875 
L 54.390625 0 
L 12.40625 0 
z
" id="DejaVuSans-49"/>
       </defs>
       <use xlink:href="#DejaVuSans-49"/>
       <use x="63.623047" xlink:href="#DejaVuSans-48"/>
       <use x="127.246094" xlink:href="#DejaVuSans-48"/>
      </g>
     </g>
    </g>
    <g id="xtick_4">
     <g id="line2d_7">
      <path clip-path="url(#pde0aeddbf7)" d="M 443.341693 630 
L 443.341693 86.4 
" style="fill:none;stroke:#b0b0b0;stroke-linecap:square;stroke-width:0.8;"/>
     </g>
     <g id="line2d_8">
      <g>
       <use style="stroke:#000000;stroke-width:0.8;" x="443.341693" xlink:href="#md70a592f09" y="630"/>
      </g>
     </g>
     <g id="text_4">
      <!-- 150 -->
      <g transform="translate(433.797943 644.598438)scale(0.1 -0.1)">
       <use xlink:href="#DejaVuSans-49"/>
       <use x="63.623047" xlink:href="#DejaVuSans-53"/>
       <use x="127.246094" xlink:href="#DejaVuSans-48"/>
      </g>
     </g>
    </g>
    <g id="xtick_5">
     <g id="line2d_9">
      <path clip-path="url(#pde0aeddbf7)" d="M 552.667712 630 
L 552.667712 86.4 
" style="fill:none;stroke:#b0b0b0;stroke-linecap:square;stroke-width:0.8;"/>
     </g>
     <g id="line2d_10">
      <g>
       <use style="stroke:#000000;stroke-width:0.8;" x="552.667712" xlink:href="#md70a592f09" y="630"/>
      </g>
     </g>
     <g id="text_5">
      <!-- 200 -->
      <g transform="translate(543.123962 644.598438)scale(0.1 -0.1)">
       <defs>
        <path d="M 19.1875 8.296875 
L 53.609375 8.296875 
L 53.609375 0 
L 7.328125 0 
L 7.328125 8.296875 
Q 12.9375 14.109375 22.625 23.890625 
Q 32.328125 33.6875 34.8125 36.53125 
Q 39.546875 41.84375 41.421875 45.53125 
Q 43.3125 49.21875 43.3125 52.78125 
Q 43.3125 58.59375 39.234375 62.25 
Q 35.15625 65.921875 28.609375 65.921875 
Q 23.96875 65.921875 18.8125 64.3125 
Q 13.671875 62.703125 7.8125 59.421875 
L 7.8125 69.390625 
Q 13.765625 71.78125 18.9375 73 
Q 24.125 74.21875 28.421875 74.21875 
Q 39.75 74.21875 46.484375 68.546875 
Q 53.21875 62.890625 53.21875 53.421875 
Q 53.21875 48.921875 51.53125 44.890625 
Q 49.859375 40.875 45.40625 35.40625 
Q 44.1875 33.984375 37.640625 27.21875 
Q 31.109375 20.453125 19.1875 8.296875 
z
" id="DejaVuSans-50"/>
       </defs>
       <use xlink:href="#DejaVuSans-50"/>
       <use x="63.623047" xlink:href="#DejaVuSans-48"/>
       <use x="127.246094" xlink:href="#DejaVuSans-48"/>
      </g>
     </g>
    </g>
    <g id="text_6">
     <!-- Days -->
     <g transform="translate(356.521875 658.276562)scale(0.1 -0.1)">
      <defs>
       <path d="M 19.671875 64.796875 
L 19.671875 8.109375 
L 31.59375 8.109375 
Q 46.6875 8.109375 53.6875 14.9375 
Q 60.6875 21.78125 60.6875 36.53125 
Q 60.6875 51.171875 53.6875 57.984375 
Q 46.6875 64.796875 31.59375 64.796875 
z
M 9.8125 72.90625 
L 30.078125 72.90625 
Q 51.265625 72.90625 61.171875 64.09375 
Q 71.09375 55.28125 71.09375 36.53125 
Q 71.09375 17.671875 61.125 8.828125 
Q 51.171875 0 30.078125 0 
L 9.8125 0 
z
" id="DejaVuSans-68"/>
       <path d="M 34.28125 27.484375 
Q 23.390625 27.484375 19.1875 25 
Q 14.984375 22.515625 14.984375 16.5 
Q 14.984375 11.71875 18.140625 8.90625 
Q 21.296875 6.109375 26.703125 6.109375 
Q 34.1875 6.109375 38.703125 11.40625 
Q 43.21875 16.703125 43.21875 25.484375 
L 43.21875 27.484375 
z
M 52.203125 31.203125 
L 52.203125 0 
L 43.21875 0 
L 43.21875 8.296875 
Q 40.140625 3.328125 35.546875 0.953125 
Q 30.953125 -1.421875 24.3125 -1.421875 
Q 15.921875 -1.421875 10.953125 3.296875 
Q 6 8.015625 6 15.921875 
Q 6 25.140625 12.171875 29.828125 
Q 18.359375 34.515625 30.609375 34.515625 
L 43.21875 34.515625 
L 43.21875 35.40625 
Q 43.21875 41.609375 39.140625 45 
Q 35.0625 48.390625 27.6875 48.390625 
Q 23 48.390625 18.546875 47.265625 
Q 14.109375 46.140625 10.015625 43.890625 
L 10.015625 52.203125 
Q 14.9375 54.109375 19.578125 55.046875 
Q 24.21875 56 28.609375 56 
Q 40.484375 56 46.34375 49.84375 
Q 52.203125 43.703125 52.203125 31.203125 
z
" id="DejaVuSans-97"/>
       <path d="M 32.171875 -5.078125 
Q 28.375 -14.84375 24.75 -17.8125 
Q 21.140625 -20.796875 15.09375 -20.796875 
L 7.90625 -20.796875 
L 7.90625 -13.28125 
L 13.1875 -13.28125 
Q 16.890625 -13.28125 18.9375 -11.515625 
Q 21 -9.765625 23.484375 -3.21875 
L 25.09375 0.875 
L 2.984375 54.6875 
L 12.5 54.6875 
L 29.59375 11.921875 
L 46.6875 54.6875 
L 56.203125 54.6875 
z
" id="DejaVuSans-121"/>
       <path d="M 44.28125 53.078125 
L 44.28125 44.578125 
Q 40.484375 46.53125 36.375 47.5 
Q 32.28125 48.484375 27.875 48.484375 
Q 21.1875 48.484375 17.84375 46.4375 
Q 14.5 44.390625 14.5 40.28125 
Q 14.5 37.15625 16.890625 35.375 
Q 19.28125 33.59375 26.515625 31.984375 
L 29.59375 31.296875 
Q 39.15625 29.25 43.1875 25.515625 
Q 47.21875 21.78125 47.21875 15.09375 
Q 47.21875 7.46875 41.1875 3.015625 
Q 35.15625 -1.421875 24.609375 -1.421875 
Q 20.21875 -1.421875 15.453125 -0.5625 
Q 10.6875 0.296875 5.421875 2 
L 5.421875 11.28125 
Q 10.40625 8.6875 15.234375 7.390625 
Q 20.0625 6.109375 24.8125 6.109375 
Q 31.15625 6.109375 34.5625 8.28125 
Q 37.984375 10.453125 37.984375 14.40625 
Q 37.984375 18.0625 35.515625 20.015625 
Q 33.0625 21.96875 24.703125 23.78125 
L 21.578125 24.515625 
Q 13.234375 26.265625 9.515625 29.90625 
Q 5.8125 33.546875 5.8125 39.890625 
Q 5.8125 47.609375 11.28125 51.796875 
Q 16.75 56 26.8125 56 
Q 31.78125 56 36.171875 55.265625 
Q 40.578125 54.546875 44.28125 53.078125 
z
" id="DejaVuSans-115"/>
      </defs>
      <use xlink:href="#DejaVuSans-68"/>
      <use x="77.001953" xlink:href="#DejaVuSans-97"/>
      <use x="138.28125" xlink:href="#DejaVuSans-121"/>
      <use x="197.460938" xlink:href="#DejaVuSans-115"/>
     </g>
    </g>
   </g>
   <g id="matplotlib.axis_2">
    <g id="ytick_1">
     <g id="line2d_11">
      <path clip-path="url(#pde0aeddbf7)" d="M 90 605.596611 
L 648 605.596611 
" style="fill:none;stroke:#b0b0b0;stroke-linecap:square;stroke-width:0.8;"/>
     </g>
     <g id="line2d_12">
      <defs>
       <path d="M 0 0 
L -3.5 0 
" id="mab9de9e563" style="stroke:#000000;stroke-width:0.8;"/>
      </defs>
      <g>
       <use style="stroke:#000000;stroke-width:0.8;" x="90" xlink:href="#mab9de9e563" y="605.596611"/>
      </g>
     </g>
     <g id="text_7">
      <!-- 0 -->
      <g transform="translate(76.6375 609.39583)scale(0.1 -0.1)">
       <use xlink:href="#DejaVuSans-48"/>
      </g>
     </g>
    </g>
    <g id="ytick_2">
     <g id="line2d_13">
      <path clip-path="url(#pde0aeddbf7)" d="M 90 496.417356 
L 648 496.417356 
" style="fill:none;stroke:#b0b0b0;stroke-linecap:square;stroke-width:0.8;"/>
     </g>
     <g id="line2d_14">
      <g>
       <use style="stroke:#000000;stroke-width:0.8;" x="90" xlink:href="#mab9de9e563" y="496.417356"/>
      </g>
     </g>
     <g id="text_8">
      <!-- 5000 -->
      <g transform="translate(57.55 500.216574)scale(0.1 -0.1)">
       <use xlink:href="#DejaVuSans-53"/>
       <use x="63.623047" xlink:href="#DejaVuSans-48"/>
       <use x="127.246094" xlink:href="#DejaVuSans-48"/>
       <use x="190.869141" xlink:href="#DejaVuSans-48"/>
      </g>
     </g>
    </g>
    <g id="ytick_3">
     <g id="line2d_15">
      <path clip-path="url(#pde0aeddbf7)" d="M 90 387.2381 
L 648 387.2381 
" style="fill:none;stroke:#b0b0b0;stroke-linecap:square;stroke-width:0.8;"/>
     </g>
     <g id="line2d_16">
      <g>
       <use style="stroke:#000000;stroke-width:0.8;" x="90" xlink:href="#mab9de9e563" y="387.2381"/>
      </g>
     </g>
     <g id="text_9">
      <!-- 10000 -->
      <g transform="translate(51.1875 391.037319)scale(0.1 -0.1)">
       <use xlink:href="#DejaVuSans-49"/>
       <use x="63.623047" xlink:href="#DejaVuSans-48"/>
       <use x="127.246094" xlink:href="#DejaVuSans-48"/>
       <use x="190.869141" xlink:href="#DejaVuSans-48"/>
       <use x="254.492188" xlink:href="#DejaVuSans-48"/>
      </g>
     </g>
    </g>
    <g id="ytick_4">
     <g id="line2d_17">
      <path clip-path="url(#pde0aeddbf7)" d="M 90 278.058845 
L 648 278.058845 
" style="fill:none;stroke:#b0b0b0;stroke-linecap:square;stroke-width:0.8;"/>
     </g>
     <g id="line2d_18">
      <g>
       <use style="stroke:#000000;stroke-width:0.8;" x="90" xlink:href="#mab9de9e563" y="278.058845"/>
      </g>
     </g>
     <g id="text_10">
      <!-- 15000 -->
      <g transform="translate(51.1875 281.858063)scale(0.1 -0.1)">
       <use xlink:href="#DejaVuSans-49"/>
       <use x="63.623047" xlink:href="#DejaVuSans-53"/>
       <use x="127.246094" xlink:href="#DejaVuSans-48"/>
       <use x="190.869141" xlink:href="#DejaVuSans-48"/>
       <use x="254.492188" xlink:href="#DejaVuSans-48"/>
      </g>
     </g>
    </g>
    <g id="ytick_5">
     <g id="line2d_19">
      <path clip-path="url(#pde0aeddbf7)" d="M 90 168.879589 
L 648 168.879589 
" style="fill:none;stroke:#b0b0b0;stroke-linecap:square;stroke-width:0.8;"/>
     </g>
     <g id="line2d_20">
      <g>
       <use style="stroke:#000000;stroke-width:0.8;" x="90" xlink:href="#mab9de9e563" y="168.879589"/>
      </g>
     </g>
     <g id="text_11">
      <!-- 20000 -->
      <g transform="translate(51.1875 172.678808)scale(0.1 -0.1)">
       <use xlink:href="#DejaVuSans-50"/>
       <use x="63.623047" xlink:href="#DejaVuSans-48"/>
       <use x="127.246094" xlink:href="#DejaVuSans-48"/>
       <use x="190.869141" xlink:href="#DejaVuSans-48"/>
       <use x="254.492188" xlink:href="#DejaVuSans-48"/>
      </g>
     </g>
    </g>
    <g id="text_12">
     <!-- Cumulative cases -->
     <g transform="translate(45.107812 402.425781)rotate(-90)scale(0.1 -0.1)">
      <defs>
       <path d="M 64.40625 67.28125 
L 64.40625 56.890625 
Q 59.421875 61.53125 53.78125 63.8125 
Q 48.140625 66.109375 41.796875 66.109375 
Q 29.296875 66.109375 22.65625 58.46875 
Q 16.015625 50.828125 16.015625 36.375 
Q 16.015625 21.96875 22.65625 14.328125 
Q 29.296875 6.6875 41.796875 6.6875 
Q 48.140625 6.6875 53.78125 8.984375 
Q 59.421875 11.28125 64.40625 15.921875 
L 64.40625 5.609375 
Q 59.234375 2.09375 53.4375 0.328125 
Q 47.65625 -1.421875 41.21875 -1.421875 
Q 24.65625 -1.421875 15.125 8.703125 
Q 5.609375 18.84375 5.609375 36.375 
Q 5.609375 53.953125 15.125 64.078125 
Q 24.65625 74.21875 41.21875 74.21875 
Q 47.75 74.21875 53.53125 72.484375 
Q 59.328125 70.75 64.40625 67.28125 
z
" id="DejaVuSans-67"/>
       <path d="M 8.5 21.578125 
L 8.5 54.6875 
L 17.484375 54.6875 
L 17.484375 21.921875 
Q 17.484375 14.15625 20.5 10.265625 
Q 23.53125 6.390625 29.59375 6.390625 
Q 36.859375 6.390625 41.078125 11.03125 
Q 45.3125 15.671875 45.3125 23.6875 
L 45.3125 54.6875 
L 54.296875 54.6875 
L 54.296875 0 
L 45.3125 0 
L 45.3125 8.40625 
Q 42.046875 3.421875 37.71875 1 
Q 33.40625 -1.421875 27.6875 -1.421875 
Q 18.265625 -1.421875 13.375 4.4375 
Q 8.5 10.296875 8.5 21.578125 
z
M 31.109375 56 
z
" id="DejaVuSans-117"/>
       <path d="M 52 44.1875 
Q 55.375 50.25 60.0625 53.125 
Q 64.75 56 71.09375 56 
Q 79.640625 56 84.28125 50.015625 
Q 88.921875 44.046875 88.921875 33.015625 
L 88.921875 0 
L 79.890625 0 
L 79.890625 32.71875 
Q 79.890625 40.578125 77.09375 44.375 
Q 74.3125 48.1875 68.609375 48.1875 
Q 61.625 48.1875 57.5625 43.546875 
Q 53.515625 38.921875 53.515625 30.90625 
L 53.515625 0 
L 44.484375 0 
L 44.484375 32.71875 
Q 44.484375 40.625 41.703125 44.40625 
Q 38.921875 48.1875 33.109375 48.1875 
Q 26.21875 48.1875 22.15625 43.53125 
Q 18.109375 38.875 18.109375 30.90625 
L 18.109375 0 
L 9.078125 0 
L 9.078125 54.6875 
L 18.109375 54.6875 
L 18.109375 46.1875 
Q 21.1875 51.21875 25.484375 53.609375 
Q 29.78125 56 35.6875 56 
Q 41.65625 56 45.828125 52.96875 
Q 50 49.953125 52 44.1875 
z
" id="DejaVuSans-109"/>
       <path d="M 9.421875 75.984375 
L 18.40625 75.984375 
L 18.40625 0 
L 9.421875 0 
z
" id="DejaVuSans-108"/>
       <path d="M 18.3125 70.21875 
L 18.3125 54.6875 
L 36.8125 54.6875 
L 36.8125 47.703125 
L 18.3125 47.703125 
L 18.3125 18.015625 
Q 18.3125 11.328125 20.140625 9.421875 
Q 21.96875 7.515625 27.59375 7.515625 
L 36.8125 7.515625 
L 36.8125 0 
L 27.59375 0 
Q 17.1875 0 13.234375 3.875 
Q 9.28125 7.765625 9.28125 18.015625 
L 9.28125 47.703125 
L 2.6875 47.703125 
L 2.6875 54.6875 
L 9.28125 54.6875 
L 9.28125 70.21875 
z
" id="DejaVuSans-116"/>
       <path d="M 9.421875 54.6875 
L 18.40625 54.6875 
L 18.40625 0 
L 9.421875 0 
z
M 9.421875 75.984375 
L 18.40625 75.984375 
L 18.40625 64.59375 
L 9.421875 64.59375 
z
" id="DejaVuSans-105"/>
       <path d="M 2.984375 54.6875 
L 12.5 54.6875 
L 29.59375 8.796875 
L 46.6875 54.6875 
L 56.203125 54.6875 
L 35.6875 0 
L 23.484375 0 
z
" id="DejaVuSans-118"/>
       <path d="M 56.203125 29.59375 
L 56.203125 25.203125 
L 14.890625 25.203125 
Q 15.484375 15.921875 20.484375 11.0625 
Q 25.484375 6.203125 34.421875 6.203125 
Q 39.59375 6.203125 44.453125 7.46875 
Q 49.3125 8.734375 54.109375 11.28125 
L 54.109375 2.78125 
Q 49.265625 0.734375 44.1875 -0.34375 
Q 39.109375 -1.421875 33.890625 -1.421875 
Q 20.796875 -1.421875 13.15625 6.1875 
Q 5.515625 13.8125 5.515625 26.8125 
Q 5.515625 40.234375 12.765625 48.109375 
Q 20.015625 56 32.328125 56 
Q 43.359375 56 49.78125 48.890625 
Q 56.203125 41.796875 56.203125 29.59375 
z
M 47.21875 32.234375 
Q 47.125 39.59375 43.09375 43.984375 
Q 39.0625 48.390625 32.421875 48.390625 
Q 24.90625 48.390625 20.390625 44.140625 
Q 15.875 39.890625 15.1875 32.171875 
z
" id="DejaVuSans-101"/>
       <path id="DejaVuSans-32"/>
       <path d="M 48.78125 52.59375 
L 48.78125 44.1875 
Q 44.96875 46.296875 41.140625 47.34375 
Q 37.3125 48.390625 33.40625 48.390625 
Q 24.65625 48.390625 19.8125 42.84375 
Q 14.984375 37.3125 14.984375 27.296875 
Q 14.984375 17.28125 19.8125 11.734375 
Q 24.65625 6.203125 33.40625 6.203125 
Q 37.3125 6.203125 41.140625 7.25 
Q 44.96875 8.296875 48.78125 10.40625 
L 48.78125 2.09375 
Q 45.015625 0.34375 40.984375 -0.53125 
Q 36.96875 -1.421875 32.421875 -1.421875 
Q 20.0625 -1.421875 12.78125 6.34375 
Q 5.515625 14.109375 5.515625 27.296875 
Q 5.515625 40.671875 12.859375 48.328125 
Q 20.21875 56 33.015625 56 
Q 37.15625 56 41.109375 55.140625 
Q 45.0625 54.296875 48.78125 52.59375 
z
" id="DejaVuSans-99"/>
      </defs>
      <use xlink:href="#DejaVuSans-67"/>
      <use x="69.824219" xlink:href="#DejaVuSans-117"/>
      <use x="133.203125" xlink:href="#DejaVuSans-109"/>
      <use x="230.615234" xlink:href="#DejaVuSans-117"/>
      <use x="293.994141" xlink:href="#DejaVuSans-108"/>
      <use x="321.777344" xlink:href="#DejaVuSans-97"/>
      <use x="383.056641" xlink:href="#DejaVuSans-116"/>
      <use x="422.265625" xlink:href="#DejaVuSans-105"/>
      <use x="450.048828" xlink:href="#DejaVuSans-118"/>
      <use x="509.228516" xlink:href="#DejaVuSans-101"/>
      <use x="570.751953" xlink:href="#DejaVuSans-32"/>
      <use x="602.539062" xlink:href="#DejaVuSans-99"/>
      <use x="657.519531" xlink:href="#DejaVuSans-97"/>
      <use x="718.798828" xlink:href="#DejaVuSans-115"/>
      <use x="770.898438" xlink:href="#DejaVuSans-101"/>
      <use x="832.421875" xlink:href="#DejaVuSans-115"/>
     </g>
    </g>
   </g>
   <g id="line2d_21">
    <path clip-path="url(#pde0aeddbf7)" d="M 115.363636 605.290909 
L 139.415361 604.941477 
L 156.907524 604.456755 
L 170.026646 603.870708 
L 180.959248 603.159189 
L 189.705329 602.385496 
L 198.451411 601.368614 
L 205.010972 600.402199 
L 211.570533 599.218154 
L 218.130094 597.769124 
L 222.503135 596.628259 
L 226.876176 595.325107 
L 231.249216 593.837824 
L 235.622257 592.142005 
L 239.995298 590.210506 
L 244.368339 588.013286 
L 248.741379 585.517298 
L 253.11442 582.686435 
L 257.487461 579.48157 
L 261.860502 575.860715 
L 266.233542 571.779325 
L 270.606583 567.190802 
L 274.979624 562.047227 
L 279.352665 556.300364 
L 283.725705 549.902964 
L 288.098746 542.810409 
L 292.471787 534.982668 
L 296.844828 526.38657 
L 301.217868 516.998308 
L 305.590909 506.806079 
L 309.96395 495.812694 
L 314.336991 484.037967 
L 318.710031 471.520628 
L 323.083072 458.319523 
L 327.456113 444.513862 
L 334.015674 422.89251 
L 342.761755 393.005128 
L 353.694357 355.511768 
L 360.253918 333.788306 
L 364.626959 319.891352 
L 369 306.583881 
L 373.373041 293.94843 
L 377.746082 282.047235 
L 382.119122 270.922306 
L 386.492163 260.596479 
L 390.865204 251.075232 
L 395.238245 242.349011 
L 399.611285 234.395817 
L 403.984326 227.183854 
L 408.357367 220.674066 
L 412.730408 214.82245 
L 417.103448 209.582073 
L 421.476489 204.904764 
L 425.84953 200.742472 
L 430.222571 197.048325 
L 434.595611 193.777396 
L 438.968652 190.887245 
L 443.341693 188.338256 
L 447.714734 186.093817 
L 452.087774 184.120374 
L 456.460815 182.387392 
L 460.833856 180.867258 
L 465.206897 179.535123 
L 471.766458 177.841395 
L 478.326019 176.455934 
L 484.88558 175.324144 
L 491.445141 174.400585 
L 500.191223 173.428999 
L 508.937304 172.689907 
L 519.869906 172.010313 
L 532.989028 171.450637 
L 548.294671 171.032639 
L 567.973354 170.7216 
L 596.398119 170.508175 
L 622.636364 170.42575 
L 622.636364 170.42575 
" style="fill:none;stroke:#1f77b4;stroke-linecap:square;stroke-width:1.5;"/>
   </g>
   <g id="line2d_22">
    <path clip-path="url(#pde0aeddbf7)" d="M 115.363636 605.290909 
L 126.296238 603.861695 
L 135.04232 602.499762 
L 143.788401 600.909545 
L 152.534483 599.054862 
L 159.094044 597.465737 
L 165.653605 595.685481 
L 172.213166 593.692982 
L 178.772727 591.465283 
L 185.332288 588.977549 
L 191.89185 586.203075 
L 198.451411 583.113343 
L 205.010972 579.678139 
L 209.384013 577.180472 
L 213.757053 574.505489 
L 218.130094 571.643299 
L 222.503135 568.583881 
L 226.876176 565.31716 
L 231.249216 561.833096 
L 235.622257 558.12178 
L 239.995298 554.173543 
L 244.368339 549.979091 
L 248.741379 545.529636 
L 253.11442 540.817054 
L 257.487461 535.834049 
L 261.860502 530.574326 
L 266.233542 525.032776 
L 270.606583 519.205661 
L 274.979624 513.090805 
L 279.352665 506.687777 
L 283.725705 499.998071 
L 288.098746 493.025267 
L 294.658307 482.0486 
L 301.217868 470.478186 
L 307.777429 458.356046 
L 314.336991 445.73673 
L 320.896552 432.686893 
L 329.642633 414.753225 
L 340.575235 391.777431 
L 360.253918 350.2401 
L 369 332.280497 
L 375.559561 319.204684 
L 382.119122 306.554553 
L 388.678683 294.397535 
L 395.238245 282.789004 
L 401.797806 271.771815 
L 408.357367 261.376383 
L 412.730408 254.801123 
L 417.103448 248.51338 
L 421.476489 242.513857 
L 425.84953 236.801404 
L 430.222571 231.373197 
L 434.595611 226.224925 
L 438.968652 221.350984 
L 443.341693 216.744656 
L 447.714734 212.398292 
L 452.087774 208.303484 
L 456.460815 204.451224 
L 460.833856 200.832051 
L 465.206897 197.436187 
L 469.579937 194.253657 
L 473.952978 191.274395 
L 478.326019 188.488339 
L 482.69906 185.885513 
L 489.258621 182.303391 
L 495.818182 179.07925 
L 502.377743 176.182254 
L 508.937304 173.583187 
L 515.496865 171.25461 
L 522.056426 169.170936 
L 528.615987 167.30846 
L 535.175549 165.645336 
L 543.92163 163.703569 
L 552.667712 162.038067 
L 561.413793 160.611202 
L 570.159875 159.390012 
L 581.092476 158.109327 
L 592.025078 157.057391 
L 605.144201 156.041107 
L 618.263323 155.240309 
L 622.636364 155.013172 
L 622.636364 155.013172 
" style="fill:none;stroke:#ff7f0e;stroke-linecap:square;stroke-width:1.5;"/>
   </g>
   <g id="line2d_23">
    <path clip-path="url(#pde0aeddbf7)" d="M 115.363636 605.290909 
L 128.482759 604.469626 
L 139.415361 603.568372 
L 148.161442 602.666157 
L 156.907524 601.565116 
L 165.653605 600.222928 
L 172.213166 599.02794 
L 178.772727 597.644231 
L 185.332288 596.043667 
L 191.89185 594.194494 
L 198.451411 592.06107 
L 205.010972 589.603647 
L 209.384013 587.763821 
L 213.757053 585.746452 
L 218.130094 583.536631 
L 222.503135 581.118667 
L 226.876176 578.476137 
L 231.249216 575.591979 
L 235.622257 572.448606 
L 239.995298 569.028059 
L 244.368339 565.312196 
L 248.741379 561.28293 
L 253.11442 556.922505 
L 257.487461 552.213824 
L 261.860502 547.140822 
L 266.233542 541.688881 
L 270.606583 535.845286 
L 274.979624 529.599716 
L 279.352665 522.944741 
L 283.725705 515.876339 
L 288.098746 508.394386 
L 292.471787 500.503113 
L 296.844828 492.211506 
L 301.217868 483.533611 
L 305.590909 474.488741 
L 312.15047 460.288705 
L 318.710031 445.424715 
L 325.269592 430.026069 
L 334.015674 408.92353 
L 355.880878 355.783037 
L 362.440439 340.418424 
L 369 325.58484 
L 375.559561 311.400284 
L 379.932602 302.351857 
L 384.305643 293.655721 
L 388.678683 285.328563 
L 393.051724 277.382323 
L 397.424765 269.824458 
L 401.797806 262.658279 
L 406.170846 255.883351 
L 410.543887 249.495911 
L 414.916928 243.489312 
L 419.289969 237.854457 
L 423.663009 232.58023 
L 428.03605 227.653895 
L 432.409091 223.06147 
L 436.782132 218.788064 
L 441.155172 214.81818 
L 445.528213 211.135982 
L 449.901254 207.725518 
L 454.274295 204.570916 
L 458.647335 201.656541 
L 463.020376 198.967126 
L 467.393417 196.487875 
L 471.766458 194.204538 
L 476.139498 192.103473 
L 482.69906 189.265384 
L 489.258621 186.767281 
L 495.818182 184.571572 
L 502.377743 182.644066 
L 508.937304 180.953855 
L 515.496865 179.473147 
L 522.056426 178.177063 
L 530.802508 176.698152 
L 539.548589 175.462421 
L 548.294671 174.430843 
L 559.227273 173.378601 
L 570.159875 172.540607 
L 583.278997 171.757758 
L 598.584639 171.079012 
L 616.076803 170.528783 
L 622.636364 170.36939 
L 622.636364 170.36939 
" style="fill:none;stroke:#2ca02c;stroke-linecap:square;stroke-width:1.5;"/>
   </g>
   <g id="line2d_24">
    <path clip-path="url(#pde0aeddbf7)" d="M 115.363636 605.290909 
L 124.109718 604.676156 
L 132.855799 603.811301 
L 139.415361 602.976413 
L 145.974922 601.962696 
L 152.534483 600.751139 
L 159.094044 599.32105 
L 165.653605 597.650002 
L 172.213166 595.713806 
L 178.772727 593.486522 
L 185.332288 590.940511 
L 191.89185 588.046553 
L 196.26489 585.908871 
L 200.637931 583.593589 
L 205.010972 581.091159 
L 209.384013 578.391905 
L 213.757053 575.486087 
L 218.130094 572.363981 
L 222.503135 569.015962 
L 226.876176 565.432601 
L 231.249216 561.604777 
L 235.622257 557.523795 
L 239.995298 553.181518 
L 244.368339 548.570508 
L 248.741379 543.684175 
L 253.11442 538.516933 
L 257.487461 533.064356 
L 261.860502 527.323341 
L 266.233542 521.292262 
L 270.606583 514.971126 
L 274.979624 508.361704 
L 279.352665 501.467663 
L 285.912226 490.605889 
L 292.471787 479.144855 
L 299.031348 467.12325 
L 305.590909 454.590453 
L 312.15047 441.606015 
L 320.896552 423.710875 
L 331.829154 400.667731 
L 364.626959 330.873237 
L 373.373041 313.033842 
L 379.932602 300.073054 
L 386.492163 287.532674 
L 393.051724 275.457835 
L 399.611285 263.884164 
L 406.170846 252.838014 
L 412.730408 242.33697 
L 419.289969 232.390545 
L 425.84953 223.001016 
L 432.409091 214.164336 
L 438.968652 205.87107 
L 445.528213 198.107322 
L 449.901254 193.217161 
L 456.460815 186.295719 
L 463.020376 179.851421 
L 469.579937 173.861012 
L 476.139498 168.300239 
L 482.69906 163.144349 
L 489.258621 158.368511 
L 495.818182 153.948157 
L 502.377743 149.859252 
L 508.937304 146.078505 
L 515.496865 142.583531 
L 522.056426 139.352958 
L 528.615987 136.366505 
L 535.175549 133.605023 
L 541.73511 131.050518 
L 548.294671 128.686141 
L 557.040752 125.802386 
L 565.786834 123.194589 
L 574.532915 120.831816 
L 583.278997 118.686234 
L 594.211599 116.27191 
L 605.144201 114.115148 
L 616.076803 112.178728 
L 622.636364 111.109091 
L 622.636364 111.109091 
" style="fill:none;stroke:#d62728;stroke-linecap:square;stroke-width:1.5;"/>
   </g>
   <g id="line2d_25">
    <path clip-path="url(#pde0aeddbf7)" d="M 115.363636 605.290909 
L 126.296238 605.170969 
L 141.601881 604.793832 
L 154.721003 604.278651 
L 165.653605 603.65144 
L 174.399687 602.968296 
L 183.145768 602.069317 
L 189.705329 601.21423 
L 196.26489 600.166042 
L 202.824451 598.882922 
L 209.384013 597.314862 
L 213.757053 596.082303 
L 218.130094 594.67683 
L 222.503135 593.076134 
L 226.876176 591.255619 
L 231.249216 589.18834 
L 235.622257 586.845004 
L 239.995298 584.194058 
L 244.368339 581.201863 
L 248.741379 577.833013 
L 253.11442 574.050795 
L 257.487461 569.817836 
L 261.860502 565.096943 
L 266.233542 559.852157 
L 270.606583 554.050011 
L 274.979624 547.660984 
L 279.352665 540.66109 
L 283.725705 533.033556 
L 288.098746 524.770474 
L 292.471787 515.87432 
L 296.844828 506.359209 
L 301.217868 496.251745 
L 305.590909 485.591356 
L 309.96395 474.430019 
L 316.523511 456.890701 
L 323.083072 438.624824 
L 334.015674 407.359611 
L 344.948276 376.269276 
L 351.507837 358.229195 
L 358.067398 340.926228 
L 362.440439 329.887022 
L 366.81348 319.291045 
L 371.18652 309.167304 
L 375.559561 299.535899 
L 379.932602 290.4088 
L 384.305643 281.790743 
L 388.678683 273.680194 
L 393.051724 266.070305 
L 397.424765 258.949851 
L 401.797806 252.304098 
L 406.170846 246.115598 
L 410.543887 240.364895 
L 414.916928 235.03114 
L 419.289969 230.09262 
L 423.663009 225.527198 
L 428.03605 221.312683 
L 432.409091 217.427122 
L 436.782132 213.849034 
L 441.155172 210.55759 
L 445.528213 207.532751 
L 449.901254 204.755356 
L 454.274295 202.207193 
L 458.647335 199.871031 
L 463.020376 197.730637 
L 467.393417 195.770774 
L 473.952978 193.138554 
L 480.512539 190.83656 
L 487.0721 188.825252 
L 493.631661 187.069349 
L 500.191223 185.537497 
L 506.750784 184.201921 
L 515.496865 182.684495 
L 524.242947 181.422486 
L 532.989028 180.373596 
L 543.92163 179.308639 
L 554.854232 178.464674 
L 567.973354 177.680242 
L 583.278997 177.003999 
L 600.77116 176.45924 
L 622.636364 176.011232 
L 622.636364 176.011232 
" style="fill:none;stroke:#9467bd;stroke-linecap:square;stroke-width:1.5;"/>
   </g>
   <g id="line2d_26">
    <path clip-path="url(#pde0aeddbf7)" d="M 115.363636 605.290909 
L 121.923197 605.172716 
L 132.855799 604.696968 
L 143.788401 603.956165 
L 152.534483 603.138665 
L 161.280564 602.076274 
L 167.840125 601.08851 
L 174.399687 599.909594 
L 180.959248 598.51119 
L 187.518809 596.861298 
L 194.07837 594.923965 
L 200.637931 592.659051 
L 205.010972 590.945331 
L 209.384013 589.052071 
L 213.757053 586.964149 
L 218.130094 584.665617 
L 222.503135 582.139755 
L 226.876176 579.369152 
L 231.249216 576.335813 
L 235.622257 573.021309 
L 239.995298 569.406959 
L 244.368339 565.47406 
L 248.741379 561.204166 
L 253.11442 556.579407 
L 257.487461 551.582867 
L 261.860502 546.199005 
L 266.233542 540.414122 
L 270.606583 534.216861 
L 274.979624 527.598736 
L 279.352665 520.554669 
L 283.725705 513.083517 
L 288.098746 505.188576 
L 292.471787 496.878019 
L 296.844828 488.16526 
L 301.217868 479.069206 
L 307.777429 464.761607 
L 314.336991 449.754099 
L 320.896552 434.178807 
L 329.642633 412.797677 
L 351.507837 358.855112 
L 358.067398 343.256197 
L 364.626959 328.206045 
L 371.18652 313.829114 
L 375.559561 304.668252 
L 379.932602 295.87343 
L 384.305643 287.461837 
L 388.678683 279.445543 
L 393.051724 271.831792 
L 397.424765 264.623386 
L 401.797806 257.819125 
L 406.170846 251.414277 
L 410.543887 245.401074 
L 414.916928 239.769197 
L 419.289969 234.506242 
L 423.663009 229.598169 
L 428.03605 225.029702 
L 432.409091 220.7847 
L 436.782132 216.846479 
L 441.155172 213.198091 
L 445.528213 209.822565 
L 449.901254 206.703107 
L 454.274295 203.82326 
L 458.647335 201.167033 
L 463.020376 198.719006 
L 467.393417 196.464397 
L 471.766458 194.389118 
L 478.326019 191.583421 
L 484.88558 189.109376 
L 491.445141 186.928791 
L 498.004702 185.007147 
L 504.564263 183.31343 
L 511.123824 181.819912 
L 519.869906 180.097733 
L 528.615987 178.637029 
L 537.362069 177.394681 
L 548.294671 176.093962 
L 559.227273 175.019496 
L 572.346395 173.963487 
L 587.652038 172.974971 
L 605.144201 172.076718 
L 622.636364 171.350451 
L 622.636364 171.350451 
" style="fill:none;stroke:#8c564b;stroke-linecap:square;stroke-width:1.5;"/>
   </g>
   <g id="line2d_27">
    <path clip-path="url(#pde0aeddbf7)" d="M 115.363636 605.290909 
L 128.482759 605.150172 
L 143.788401 604.77126 
L 156.907524 604.250481 
L 167.840125 603.614518 
L 176.586207 602.920402 
L 185.332288 602.005319 
L 191.89185 601.133543 
L 198.451411 600.063439 
L 205.010972 598.751699 
L 211.570533 597.146478 
L 215.943574 595.883297 
L 220.316614 594.441609 
L 224.689655 592.798201 
L 229.062696 590.927457 
L 233.435737 588.801291 
L 237.808777 586.389147 
L 242.181818 583.658087 
L 246.554859 580.572985 
L 250.9279 577.096855 
L 255.30094 573.191351 
L 259.673981 568.817455 
L 264.047022 563.936385 
L 268.420063 558.510725 
L 272.793103 552.505786 
L 277.166144 545.891175 
L 281.539185 538.642514 
L 285.912226 530.743251 
L 290.285266 522.186446 
L 294.658307 512.976403 
L 299.031348 503.130006 
L 303.404389 492.6776 
L 307.777429 481.663302 
L 312.15047 470.144624 
L 318.710031 452.076584 
L 325.269592 433.310916 
L 349.321317 363.621821 
L 355.880878 345.683921 
L 360.253918 334.216099 
L 364.626959 323.19736 
L 369 312.664033 
L 373.373041 302.642216 
L 377.746082 293.148542 
L 382.119122 284.191133 
L 386.492163 275.770663 
L 390.865204 267.881459 
L 395.238245 260.512584 
L 399.611285 253.648872 
L 403.984326 247.271864 
L 408.357367 241.360661 
L 412.730408 235.892661 
L 417.103448 230.844193 
L 421.476489 226.19105 
L 425.84953 221.908929 
L 430.222571 217.973778 
L 434.595611 214.36208 
L 438.968652 211.051062 
L 443.341693 208.018852 
L 447.714734 205.244588 
L 452.087774 202.708492 
L 456.460815 200.391904 
L 460.833856 198.277304 
L 465.206897 196.348299 
L 469.579937 194.589606 
L 476.139498 192.240109 
L 482.69906 190.198461 
L 489.258621 188.425901 
L 495.818182 186.888141 
L 502.377743 185.554959 
L 511.123824 184.05019 
L 519.869906 182.808223 
L 528.615987 181.783879 
L 539.548589 180.75275 
L 550.481191 179.943446 
L 563.600313 179.199134 
L 578.905956 178.565445 
L 596.398119 178.062278 
L 618.263323 177.655521 
L 622.636364 177.595418 
L 622.636364 177.595418 
" style="fill:none;stroke:#e377c2;stroke-linecap:square;stroke-width:1.5;"/>
   </g>
   <g id="line2d_28">
    <path clip-path="url(#pde0aeddbf7)" d="M 115.363636 605.290909 
L 124.109718 605.142788 
L 130.669279 604.838546 
L 137.22884 604.361841 
L 143.788401 603.699772 
L 150.347962 602.835374 
L 156.907524 601.748621 
L 163.467085 600.416974 
L 170.026646 598.815685 
L 176.586207 596.918013 
L 183.145768 594.695425 
L 187.518809 593.01838 
L 191.89185 591.174327 
L 196.26489 589.153813 
L 200.637931 586.947237 
L 205.010972 584.544923 
L 209.384013 581.937192 
L 213.757053 579.114458 
L 218.130094 576.067332 
L 222.503135 572.786731 
L 226.876176 569.26401 
L 231.249216 565.491097 
L 235.622257 561.46064 
L 239.995298 557.166157 
L 244.368339 552.602201 
L 248.741379 547.764516 
L 253.11442 542.650195 
L 257.487461 537.257839 
L 261.860502 531.587695 
L 266.233542 525.641786 
L 270.606583 519.424022 
L 277.166144 509.601068 
L 283.725705 499.208585 
L 290.285266 488.285365 
L 296.844828 476.880268 
L 303.404389 465.051509 
L 312.15047 448.736634 
L 323.083072 427.719462 
L 355.880878 364.072885 
L 364.626959 347.807437 
L 371.18652 335.987896 
L 377.746082 324.548231 
L 384.305643 313.5284 
L 390.865204 302.959929 
L 397.424765 292.866188 
L 403.984326 283.262875 
L 410.543887 274.15864 
L 417.103448 265.555816 
L 423.663009 257.451204 
L 430.222571 249.836876 
L 436.782132 242.700958 
L 443.341693 236.028384 
L 449.901254 229.801591 
L 456.460815 224.001148 
L 463.020376 218.606319 
L 469.579937 213.595547 
L 476.139498 208.946877 
L 482.69906 204.638298 
L 489.258621 200.648034 
L 495.818182 196.954776 
L 502.377743 193.537859 
L 508.937304 190.377401 
L 515.496865 187.454402 
L 522.056426 184.750806 
L 528.615987 182.24955 
L 535.175549 179.934574 
L 543.92163 177.111838 
L 552.667712 174.560683 
L 561.413793 172.251194 
L 570.159875 170.156338 
L 581.092476 167.802768 
L 592.025078 165.70466 
L 602.95768 163.825477 
L 616.076803 161.815242 
L 622.636364 160.896532 
L 622.636364 160.896532 
" style="fill:none;stroke:#7f7f7f;stroke-linecap:square;stroke-width:1.5;"/>
   </g>
   <g id="line2d_29">
    <path clip-path="url(#pde0aeddbf7)" d="M 115.363636 605.290909 
L 126.296238 605.192768 
L 137.22884 604.89877 
L 148.161442 604.378919 
L 156.907524 603.761527 
L 165.653605 602.920497 
L 172.213166 602.111874 
L 178.772727 601.121745 
L 185.332288 599.919425 
L 191.89185 598.469581 
L 198.451411 596.731797 
L 202.824451 595.390885 
L 207.197492 593.886723 
L 211.570533 592.203144 
L 215.943574 590.322825 
L 220.316614 588.227308 
L 224.689655 585.897054 
L 229.062696 583.311538 
L 233.435737 580.44939 
L 237.808777 577.288584 
L 242.181818 573.806686 
L 246.554859 569.981176 
L 250.9279 565.789828 
L 255.30094 561.211166 
L 259.673981 556.224993 
L 264.047022 550.812979 
L 268.420063 544.959303 
L 272.793103 538.651336 
L 277.166144 531.880333 
L 281.539185 524.64211 
L 285.912226 516.93768 
L 290.285266 508.773793 
L 294.658307 500.163369 
L 299.031348 491.125759 
L 303.404389 481.686828 
L 309.96395 466.848157 
L 316.523511 451.31416 
L 323.083072 435.244128 
L 334.015674 407.758361 
L 349.321317 369.271183 
L 355.880878 353.272819 
L 362.440439 337.796122 
L 369 322.965007 
L 375.559561 308.876944 
L 379.932602 299.933756 
L 384.305643 291.367463 
L 388.678683 283.187982 
L 393.051724 275.400872 
L 397.424765 268.007747 
L 401.797806 261.006728 
L 406.170846 254.392889 
L 410.543887 248.158706 
L 414.916928 242.294493 
L 419.289969 236.788802 
L 423.663009 231.628803 
L 428.03605 226.800619 
L 432.409091 222.289633 
L 436.782132 218.080753 
L 441.155172 214.158644 
L 445.528213 210.507922 
L 449.901254 207.11332 
L 454.274295 203.959823 
L 458.647335 201.032781 
L 463.020376 198.317989 
L 467.393417 195.801756 
L 471.766458 193.470953 
L 478.326019 190.295183 
L 484.88558 187.468876 
L 491.445141 184.955493 
L 498.004702 182.72162 
L 504.564263 180.736867 
L 511.123824 178.973725 
L 517.683386 177.407395 
L 526.429467 175.586936 
L 535.175549 174.03054 
L 543.92163 172.69825 
L 554.854232 171.296387 
L 565.786834 170.135551 
L 578.905956 168.996823 
L 592.025078 168.076337 
L 607.330721 167.213059 
L 622.636364 166.520303 
L 622.636364 166.520303 
" style="fill:none;stroke:#bcbd22;stroke-linecap:square;stroke-width:1.5;"/>
   </g>
   <g id="line2d_30">
    <path clip-path="url(#pde0aeddbf7)" d="M 115.363636 605.290909 
L 117.550157 605.290909 
L 119.736677 605.050715 
L 121.923197 604.002594 
L 124.109718 603.849743 
L 126.296238 603.500369 
L 130.669279 603.39119 
L 132.855799 601.993696 
L 135.04232 601.928188 
L 139.415361 601.447799 
L 141.601881 601.360456 
L 148.161442 599.897454 
L 150.347962 598.543631 
L 152.534483 597.975899 
L 154.721003 597.211644 
L 156.907524 595.901493 
L 159.094044 595.901493 
L 161.280564 593.958102 
L 163.467085 593.062832 
L 165.653605 591.927368 
L 167.840125 591.665338 
L 170.026646 591.665338 
L 172.213166 591.315964 
L 174.399687 590.573545 
L 176.586207 588.106094 
L 178.772727 587.101645 
L 180.959248 587.101645 
L 183.145768 585.594971 
L 185.332288 584.808881 
L 187.518809 583.673417 
L 189.705329 582.079399 
L 191.89185 582.079399 
L 194.07837 580.485382 
L 198.451411 579.764799 
L 200.637931 578.563827 
L 202.824451 577.755901 
L 205.010972 576.489421 
L 207.197492 575.856182 
L 211.570533 574.327672 
L 213.757053 573.628925 
L 218.130094 571.292489 
L 220.316614 570.615578 
L 222.503135 569.196247 
L 226.876176 567.820589 
L 229.062696 565.047436 
L 235.622257 561.553699 
L 239.995298 559.544801 
L 242.181818 559.326443 
L 244.368339 558.584024 
L 246.554859 556.880827 
L 248.741379 555.352318 
L 250.9279 554.478884 
L 253.11442 553.932987 
L 255.30094 553.714629 
L 257.487461 552.688344 
L 259.673981 551.509208 
L 264.047022 547.928128 
L 266.233542 545.54802 
L 268.420063 544.478064 
L 270.606583 543.735645 
L 272.793103 541.159014 
L 274.979624 539.564997 
L 277.166144 537.687114 
L 279.352665 534.368065 
L 281.539185 530.677806 
L 283.725705 527.926489 
L 285.912226 523.952364 
L 288.098746 520.851673 
L 290.285266 518.362386 
L 292.471787 514.300918 
L 294.658307 509.431523 
L 296.844828 503.317484 
L 299.031348 499.736405 
L 301.217868 494.583144 
L 303.404389 486.831417 
L 305.590909 481.590813 
L 309.96395 464.886387 
L 312.15047 455.496971 
L 314.336991 446.718958 
L 316.523511 442.002415 
L 318.710031 437.962782 
L 320.896552 433.006044 
L 323.083072 427.328723 
L 325.269592 423.616628 
L 327.456113 414.773108 
L 329.642633 410.296759 
L 331.829154 406.86853 
L 334.015674 404.401079 
L 336.202194 398.177861 
L 338.388715 393.745184 
L 340.575235 387.412787 
L 342.761755 381.910152 
L 344.948276 377.149937 
L 347.134796 370.380823 
L 349.321317 366.144668 
L 351.507837 361.166094 
L 353.694357 354.39698 
L 355.880878 349.025361 
L 358.067398 342.430934 
L 360.253918 333.893116 
L 362.440439 326.840136 
L 364.626959 324.525536 
L 366.81348 320.92262 
L 369 312.930699 
L 373.373041 306.532794 
L 377.746082 297.296229 
L 379.932602 293.08191 
L 382.119122 288.299859 
L 384.305643 283.889017 
L 386.492163 278.037009 
L 390.865204 267.271934 
L 393.051724 265.044677 
L 397.424765 262.489883 
L 399.611285 260.306298 
L 401.797806 256.703382 
L 403.984326 255.196708 
L 406.170846 253.842886 
L 408.357367 252.248869 
L 410.543887 251.419106 
L 412.730408 249.825089 
L 414.916928 248.602281 
L 417.103448 246.462368 
L 419.289969 244.781007 
L 423.663009 240.61036 
L 425.84953 238.797984 
L 428.03605 237.728028 
L 430.222571 237.728028 
L 434.595611 235.806473 
L 436.782132 234.539993 
L 438.968652 233.81941 
L 441.155172 232.050706 
L 443.341693 231.111765 
L 445.528213 229.321225 
L 447.714734 228.950015 
L 452.087774 226.220534 
L 454.274295 224.102457 
L 456.460815 223.338202 
L 458.647335 222.115394 
L 460.833856 221.220124 
L 467.393417 214.887727 
L 469.579937 213.686756 
L 471.766458 211.088289 
L 473.952978 210.302199 
L 476.139498 209.035719 
L 478.326019 208.009434 
L 480.512539 206.677447 
L 482.69906 202.24477 
L 487.0721 197.24436 
L 489.258621 195.562999 
L 491.445141 194.755073 
L 493.631661 193.575937 
L 495.818182 192.549652 
L 498.004702 192.549652 
L 500.191223 190.431574 
L 502.377743 189.274274 
L 506.750784 187.833108 
L 508.937304 187.265376 
L 511.123824 186.34827 
L 513.310345 184.841596 
L 515.496865 183.727968 
L 517.683386 183.575117 
L 519.869906 183.225743 
L 522.056426 181.326024 
L 524.242947 179.775679 
L 526.429467 178.574707 
L 528.615987 177.61393 
L 530.802508 176.98069 
L 532.989028 176.71866 
L 535.175549 176.107256 
L 537.362069 174.906284 
L 539.548589 174.229373 
L 541.73511 173.39961 
L 543.92163 172.176803 
L 546.10815 171.45622 
L 548.294671 171.390712 
L 550.481191 170.997667 
L 552.667712 170.298919 
L 554.854232 169.272634 
L 557.040752 168.093498 
L 559.227273 166.0846 
L 561.413793 165.516868 
L 563.600313 165.495032 
L 565.786834 164.883628 
L 567.973354 164.141209 
L 570.159875 163.267775 
L 572.346395 162.87473 
L 576.719436 161.826609 
L 578.905956 161.804773 
L 583.278997 160.953175 
L 585.465517 160.363607 
L 587.652038 160.036069 
L 589.838558 159.512009 
L 592.025078 158.616739 
L 594.211599 158.267365 
L 596.398119 158.223694 
L 602.95768 153.76918 
L 605.144201 153.24512 
L 607.330721 153.24512 
L 609.517241 152.437193 
L 620.449843 151.127042 
L 622.636364 150.712161 
L 622.636364 150.712161 
" style="fill:none;stroke:#17becf;stroke-dasharray:14.8,6.4;stroke-dashoffset:0;stroke-width:4;"/>
   </g>
   <g id="patch_3">
    <path d="M 90 630 
L 90 86.4 
" style="fill:none;stroke:#000000;stroke-linecap:square;stroke-linejoin:miter;stroke-width:0.8;"/>
   </g>
   <g id="patch_4">
    <path d="M 648 630 
L 648 86.4 
" style="fill:none;stroke:#000000;stroke-linecap:square;stroke-linejoin:miter;stroke-width:0.8;"/>
   </g>
   <g id="patch_5">
    <path d="M 90 630 
L 648 630 
" style="fill:none;stroke:#000000;stroke-linecap:square;stroke-linejoin:miter;stroke-width:0.8;"/>
   </g>
   <g id="patch_6">
    <path d="M 90 86.4 
L 648 86.4 
" style="fill:none;stroke:#000000;stroke-linecap:square;stroke-linejoin:miter;stroke-width:0.8;"/>
   </g>
   <g id="text_13">
    <!-- Cote d'Ivoire relative err =  -->
    <g transform="translate(287.2425 80.4)scale(0.12 -0.12)">
     <defs>
      <path d="M 30.609375 48.390625 
Q 23.390625 48.390625 19.1875 42.75 
Q 14.984375 37.109375 14.984375 27.296875 
Q 14.984375 17.484375 19.15625 11.84375 
Q 23.34375 6.203125 30.609375 6.203125 
Q 37.796875 6.203125 41.984375 11.859375 
Q 46.1875 17.53125 46.1875 27.296875 
Q 46.1875 37.015625 41.984375 42.703125 
Q 37.796875 48.390625 30.609375 48.390625 
z
M 30.609375 56 
Q 42.328125 56 49.015625 48.375 
Q 55.71875 40.765625 55.71875 27.296875 
Q 55.71875 13.875 49.015625 6.21875 
Q 42.328125 -1.421875 30.609375 -1.421875 
Q 18.84375 -1.421875 12.171875 6.21875 
Q 5.515625 13.875 5.515625 27.296875 
Q 5.515625 40.765625 12.171875 48.375 
Q 18.84375 56 30.609375 56 
z
" id="DejaVuSans-111"/>
      <path d="M 45.40625 46.390625 
L 45.40625 75.984375 
L 54.390625 75.984375 
L 54.390625 0 
L 45.40625 0 
L 45.40625 8.203125 
Q 42.578125 3.328125 38.25 0.953125 
Q 33.9375 -1.421875 27.875 -1.421875 
Q 17.96875 -1.421875 11.734375 6.484375 
Q 5.515625 14.40625 5.515625 27.296875 
Q 5.515625 40.1875 11.734375 48.09375 
Q 17.96875 56 27.875 56 
Q 33.9375 56 38.25 53.625 
Q 42.578125 51.265625 45.40625 46.390625 
z
M 14.796875 27.296875 
Q 14.796875 17.390625 18.875 11.75 
Q 22.953125 6.109375 30.078125 6.109375 
Q 37.203125 6.109375 41.296875 11.75 
Q 45.40625 17.390625 45.40625 27.296875 
Q 45.40625 37.203125 41.296875 42.84375 
Q 37.203125 48.484375 30.078125 48.484375 
Q 22.953125 48.484375 18.875 42.84375 
Q 14.796875 37.203125 14.796875 27.296875 
z
" id="DejaVuSans-100"/>
      <path d="M 17.921875 72.90625 
L 17.921875 45.796875 
L 9.625 45.796875 
L 9.625 72.90625 
z
" id="DejaVuSans-39"/>
      <path d="M 9.8125 72.90625 
L 19.671875 72.90625 
L 19.671875 0 
L 9.8125 0 
z
" id="DejaVuSans-73"/>
      <path d="M 41.109375 46.296875 
Q 39.59375 47.171875 37.8125 47.578125 
Q 36.03125 48 33.890625 48 
Q 26.265625 48 22.1875 43.046875 
Q 18.109375 38.09375 18.109375 28.8125 
L 18.109375 0 
L 9.078125 0 
L 9.078125 54.6875 
L 18.109375 54.6875 
L 18.109375 46.1875 
Q 20.953125 51.171875 25.484375 53.578125 
Q 30.03125 56 36.53125 56 
Q 37.453125 56 38.578125 55.875 
Q 39.703125 55.765625 41.0625 55.515625 
z
" id="DejaVuSans-114"/>
      <path d="M 10.59375 45.40625 
L 73.1875 45.40625 
L 73.1875 37.203125 
L 10.59375 37.203125 
z
M 10.59375 25.484375 
L 73.1875 25.484375 
L 73.1875 17.1875 
L 10.59375 17.1875 
z
" id="DejaVuSans-61"/>
     </defs>
     <use xlink:href="#DejaVuSans-67"/>
     <use x="69.824219" xlink:href="#DejaVuSans-111"/>
     <use x="131.005859" xlink:href="#DejaVuSans-116"/>
     <use x="170.214844" xlink:href="#DejaVuSans-101"/>
     <use x="231.738281" xlink:href="#DejaVuSans-32"/>
     <use x="263.525391" xlink:href="#DejaVuSans-100"/>
     <use x="327.001953" xlink:href="#DejaVuSans-39"/>
     <use x="354.492188" xlink:href="#DejaVuSans-73"/>
     <use x="383.984375" xlink:href="#DejaVuSans-118"/>
     <use x="443.164062" xlink:href="#DejaVuSans-111"/>
     <use x="504.345703" xlink:href="#DejaVuSans-105"/>
     <use x="532.128906" xlink:href="#DejaVuSans-114"/>
     <use x="570.992188" xlink:href="#DejaVuSans-101"/>
     <use x="632.515625" xlink:href="#DejaVuSans-32"/>
     <use x="664.302734" xlink:href="#DejaVuSans-114"/>
     <use x="703.166016" xlink:href="#DejaVuSans-101"/>
     <use x="764.689453" xlink:href="#DejaVuSans-108"/>
     <use x="792.472656" xlink:href="#DejaVuSans-97"/>
     <use x="853.751953" xlink:href="#DejaVuSans-116"/>
     <use x="892.960938" xlink:href="#DejaVuSans-105"/>
     <use x="920.744141" xlink:href="#DejaVuSans-118"/>
     <use x="979.923828" xlink:href="#DejaVuSans-101"/>
     <use x="1041.447266" xlink:href="#DejaVuSans-32"/>
     <use x="1073.234375" xlink:href="#DejaVuSans-101"/>
     <use x="1134.757812" xlink:href="#DejaVuSans-114"/>
     <use x="1174.121094" xlink:href="#DejaVuSans-114"/>
     <use x="1215.234375" xlink:href="#DejaVuSans-32"/>
     <use x="1247.021484" xlink:href="#DejaVuSans-61"/>
     <use x="1330.810547" xlink:href="#DejaVuSans-32"/>
    </g>
   </g>
   <g id="legend_1">
    <g id="patch_7">
     <path d="M 97 226.503125 
L 185.6 226.503125 
Q 187.6 226.503125 187.6 224.503125 
L 187.6 93.4 
Q 187.6 91.4 185.6 91.4 
L 97 91.4 
Q 95 91.4 95 93.4 
L 95 224.503125 
Q 95 226.503125 97 226.503125 
z
" style="fill:#ffffff;opacity:0.8;stroke:#cccccc;stroke-linejoin:miter;"/>
    </g>
    <g id="line2d_31">
     <path d="M 99 99.498438 
L 119 99.498438 
" style="fill:none;stroke:#1f77b4;stroke-linecap:square;stroke-width:1.5;"/>
    </g>
    <g id="line2d_32"/>
    <g id="text_14">
     <!-- SI -->
     <g transform="translate(127 102.998438)scale(0.1 -0.1)">
      <defs>
       <path d="M 53.515625 70.515625 
L 53.515625 60.890625 
Q 47.90625 63.578125 42.921875 64.890625 
Q 37.9375 66.21875 33.296875 66.21875 
Q 25.25 66.21875 20.875 63.09375 
Q 16.5 59.96875 16.5 54.203125 
Q 16.5 49.359375 19.40625 46.890625 
Q 22.3125 44.4375 30.421875 42.921875 
L 36.375 41.703125 
Q 47.40625 39.59375 52.65625 34.296875 
Q 57.90625 29 57.90625 20.125 
Q 57.90625 9.515625 50.796875 4.046875 
Q 43.703125 -1.421875 29.984375 -1.421875 
Q 24.8125 -1.421875 18.96875 -0.25 
Q 13.140625 0.921875 6.890625 3.21875 
L 6.890625 13.375 
Q 12.890625 10.015625 18.65625 8.296875 
Q 24.421875 6.59375 29.984375 6.59375 
Q 38.421875 6.59375 43.015625 9.90625 
Q 47.609375 13.234375 47.609375 19.390625 
Q 47.609375 24.75 44.3125 27.78125 
Q 41.015625 30.8125 33.5 32.328125 
L 27.484375 33.5 
Q 16.453125 35.6875 11.515625 40.375 
Q 6.59375 45.0625 6.59375 53.421875 
Q 6.59375 63.09375 13.40625 68.65625 
Q 20.21875 74.21875 32.171875 74.21875 
Q 37.3125 74.21875 42.625 73.28125 
Q 47.953125 72.359375 53.515625 70.515625 
z
" id="DejaVuSans-83"/>
      </defs>
      <use xlink:href="#DejaVuSans-83"/>
      <use x="63.476562" xlink:href="#DejaVuSans-73"/>
     </g>
    </g>
    <g id="line2d_33">
     <path d="M 99 114.176563 
L 119 114.176563 
" style="fill:none;stroke:#ff7f0e;stroke-linecap:square;stroke-width:1.5;"/>
    </g>
    <g id="line2d_34"/>
    <g id="text_15">
     <!-- BD -->
     <g transform="translate(127 117.676563)scale(0.1 -0.1)">
      <defs>
       <path d="M 19.671875 34.8125 
L 19.671875 8.109375 
L 35.5 8.109375 
Q 43.453125 8.109375 47.28125 11.40625 
Q 51.125 14.703125 51.125 21.484375 
Q 51.125 28.328125 47.28125 31.5625 
Q 43.453125 34.8125 35.5 34.8125 
z
M 19.671875 64.796875 
L 19.671875 42.828125 
L 34.28125 42.828125 
Q 41.5 42.828125 45.03125 45.53125 
Q 48.578125 48.25 48.578125 53.8125 
Q 48.578125 59.328125 45.03125 62.0625 
Q 41.5 64.796875 34.28125 64.796875 
z
M 9.8125 72.90625 
L 35.015625 72.90625 
Q 46.296875 72.90625 52.390625 68.21875 
Q 58.5 63.53125 58.5 54.890625 
Q 58.5 48.1875 55.375 44.234375 
Q 52.25 40.28125 46.1875 39.3125 
Q 53.46875 37.75 57.5 32.78125 
Q 61.53125 27.828125 61.53125 20.40625 
Q 61.53125 10.640625 54.890625 5.3125 
Q 48.25 0 35.984375 0 
L 9.8125 0 
z
" id="DejaVuSans-66"/>
      </defs>
      <use xlink:href="#DejaVuSans-66"/>
      <use x="68.603516" xlink:href="#DejaVuSans-68"/>
     </g>
    </g>
    <g id="line2d_35">
     <path d="M 99 128.854688 
L 119 128.854688 
" style="fill:none;stroke:#2ca02c;stroke-linecap:square;stroke-width:1.5;"/>
    </g>
    <g id="line2d_36"/>
    <g id="text_16">
     <!-- SIR -->
     <g transform="translate(127 132.354688)scale(0.1 -0.1)">
      <defs>
       <path d="M 44.390625 34.1875 
Q 47.5625 33.109375 50.5625 29.59375 
Q 53.5625 26.078125 56.59375 19.921875 
L 66.609375 0 
L 56 0 
L 46.6875 18.703125 
Q 43.0625 26.03125 39.671875 28.421875 
Q 36.28125 30.8125 30.421875 30.8125 
L 19.671875 30.8125 
L 19.671875 0 
L 9.8125 0 
L 9.8125 72.90625 
L 32.078125 72.90625 
Q 44.578125 72.90625 50.734375 67.671875 
Q 56.890625 62.453125 56.890625 51.90625 
Q 56.890625 45.015625 53.6875 40.46875 
Q 50.484375 35.9375 44.390625 34.1875 
z
M 19.671875 64.796875 
L 19.671875 38.921875 
L 32.078125 38.921875 
Q 39.203125 38.921875 42.84375 42.21875 
Q 46.484375 45.515625 46.484375 51.90625 
Q 46.484375 58.296875 42.84375 61.546875 
Q 39.203125 64.796875 32.078125 64.796875 
z
" id="DejaVuSans-82"/>
      </defs>
      <use xlink:href="#DejaVuSans-83"/>
      <use x="63.476562" xlink:href="#DejaVuSans-73"/>
      <use x="92.96875" xlink:href="#DejaVuSans-82"/>
     </g>
    </g>
    <g id="line2d_37">
     <path d="M 99 143.532812 
L 119 143.532812 
" style="fill:none;stroke:#d62728;stroke-linecap:square;stroke-width:1.5;"/>
    </g>
    <g id="line2d_38"/>
    <g id="text_17">
     <!-- eSIR -->
     <g transform="translate(127 147.032812)scale(0.1 -0.1)">
      <use xlink:href="#DejaVuSans-101"/>
      <use x="61.523438" xlink:href="#DejaVuSans-83"/>
      <use x="125" xlink:href="#DejaVuSans-73"/>
      <use x="154.492188" xlink:href="#DejaVuSans-82"/>
     </g>
    </g>
    <g id="line2d_39">
     <path d="M 99 158.210938 
L 119 158.210938 
" style="fill:none;stroke:#9467bd;stroke-linecap:square;stroke-width:1.5;"/>
    </g>
    <g id="line2d_40"/>
    <g id="text_18">
     <!-- SEIR -->
     <g transform="translate(127 161.710938)scale(0.1 -0.1)">
      <defs>
       <path d="M 9.8125 72.90625 
L 55.90625 72.90625 
L 55.90625 64.59375 
L 19.671875 64.59375 
L 19.671875 43.015625 
L 54.390625 43.015625 
L 54.390625 34.71875 
L 19.671875 34.71875 
L 19.671875 8.296875 
L 56.78125 8.296875 
L 56.78125 0 
L 9.8125 0 
z
" id="DejaVuSans-69"/>
      </defs>
      <use xlink:href="#DejaVuSans-83"/>
      <use x="63.476562" xlink:href="#DejaVuSans-69"/>
      <use x="126.660156" xlink:href="#DejaVuSans-73"/>
      <use x="156.152344" xlink:href="#DejaVuSans-82"/>
     </g>
    </g>
    <g id="line2d_41">
     <path d="M 99 172.889063 
L 119 172.889063 
" style="fill:none;stroke:#8c564b;stroke-linecap:square;stroke-width:1.5;"/>
    </g>
    <g id="line2d_42"/>
    <g id="text_19">
     <!-- eSEIR -->
     <g transform="translate(127 176.389063)scale(0.1 -0.1)">
      <use xlink:href="#DejaVuSans-101"/>
      <use x="61.523438" xlink:href="#DejaVuSans-83"/>
      <use x="125" xlink:href="#DejaVuSans-69"/>
      <use x="188.183594" xlink:href="#DejaVuSans-73"/>
      <use x="217.675781" xlink:href="#DejaVuSans-82"/>
     </g>
    </g>
    <g id="line2d_43">
     <path d="M 99 187.567188 
L 119 187.567188 
" style="fill:none;stroke:#e377c2;stroke-linecap:square;stroke-width:1.5;"/>
    </g>
    <g id="line2d_44"/>
    <g id="text_20">
     <!-- SEIUR -->
     <g transform="translate(127 191.067188)scale(0.1 -0.1)">
      <defs>
       <path d="M 8.6875 72.90625 
L 18.609375 72.90625 
L 18.609375 28.609375 
Q 18.609375 16.890625 22.84375 11.734375 
Q 27.09375 6.59375 36.625 6.59375 
Q 46.09375 6.59375 50.34375 11.734375 
Q 54.59375 16.890625 54.59375 28.609375 
L 54.59375 72.90625 
L 64.5 72.90625 
L 64.5 27.390625 
Q 64.5 13.140625 57.4375 5.859375 
Q 50.390625 -1.421875 36.625 -1.421875 
Q 22.796875 -1.421875 15.734375 5.859375 
Q 8.6875 13.140625 8.6875 27.390625 
z
" id="DejaVuSans-85"/>
      </defs>
      <use xlink:href="#DejaVuSans-83"/>
      <use x="63.476562" xlink:href="#DejaVuSans-69"/>
      <use x="126.660156" xlink:href="#DejaVuSans-73"/>
      <use x="156.152344" xlink:href="#DejaVuSans-85"/>
      <use x="229.345703" xlink:href="#DejaVuSans-82"/>
     </g>
    </g>
    <g id="line2d_45">
     <path d="M 99 202.245312 
L 119 202.245312 
" style="fill:none;stroke:#7f7f7f;stroke-linecap:square;stroke-width:1.5;"/>
    </g>
    <g id="line2d_46"/>
    <g id="text_21">
     <!-- eSEIUR -->
     <g transform="translate(127 205.745312)scale(0.1 -0.1)">
      <use xlink:href="#DejaVuSans-101"/>
      <use x="61.523438" xlink:href="#DejaVuSans-83"/>
      <use x="125" xlink:href="#DejaVuSans-69"/>
      <use x="188.183594" xlink:href="#DejaVuSans-73"/>
      <use x="217.675781" xlink:href="#DejaVuSans-85"/>
      <use x="290.869141" xlink:href="#DejaVuSans-82"/>
     </g>
    </g>
    <g id="line2d_47">
     <path d="M 99 216.923437 
L 119 216.923437 
" style="fill:none;stroke:#bcbd22;stroke-linecap:square;stroke-width:1.5;"/>
    </g>
    <g id="line2d_48"/>
    <g id="text_22">
     <!-- eSEIUR$^{range}$ -->
     <g transform="translate(127 220.423437)scale(0.1 -0.1)">
      <defs>
       <path d="M 44.578125 46.390625 
Q 43.21875 47.125 41.453125 47.515625 
Q 39.703125 47.90625 37.703125 47.90625 
Q 30.515625 47.90625 25.140625 42.453125 
Q 19.78125 37.015625 18.015625 27.875 
L 12.5 0 
L 3.515625 0 
L 14.203125 54.6875 
L 23.1875 54.6875 
L 21.484375 46.1875 
Q 25.046875 50.921875 30 53.453125 
Q 34.96875 56 40.578125 56 
Q 42.046875 56 43.453125 55.828125 
Q 44.875 55.671875 46.296875 55.28125 
z
" id="DejaVuSans-Oblique-114"/>
       <path d="M 53.71875 31.203125 
L 47.609375 0 
L 38.625 0 
L 40.28125 8.296875 
Q 36.328125 3.421875 31.265625 1 
Q 26.21875 -1.421875 20.015625 -1.421875 
Q 13.03125 -1.421875 8.5625 2.84375 
Q 4.109375 7.125 4.109375 13.8125 
Q 4.109375 23.390625 11.75 28.953125 
Q 19.390625 34.515625 32.8125 34.515625 
L 45.3125 34.515625 
L 45.796875 36.921875 
Q 45.90625 37.3125 45.953125 37.765625 
Q 46 38.234375 46 39.203125 
Q 46 43.5625 42.453125 45.96875 
Q 38.921875 48.390625 32.515625 48.390625 
Q 28.125 48.390625 23.5 47.265625 
Q 18.890625 46.140625 14.015625 43.890625 
L 15.578125 52.203125 
Q 20.65625 54.109375 25.515625 55.046875 
Q 30.375 56 34.90625 56 
Q 44.578125 56 49.625 51.796875 
Q 54.6875 47.609375 54.6875 39.59375 
Q 54.6875 37.984375 54.4375 35.8125 
Q 54.203125 33.640625 53.71875 31.203125 
z
M 44 27.484375 
L 35.015625 27.484375 
Q 23.96875 27.484375 18.671875 24.53125 
Q 13.375 21.578125 13.375 15.375 
Q 13.375 11.078125 16.078125 8.640625 
Q 18.796875 6.203125 23.578125 6.203125 
Q 30.90625 6.203125 36.375 11.453125 
Q 41.84375 16.703125 43.609375 25.484375 
z
" id="DejaVuSans-Oblique-97"/>
       <path d="M 55.71875 33.015625 
L 49.3125 0 
L 40.28125 0 
L 46.6875 32.671875 
Q 47.125 34.96875 47.359375 36.71875 
Q 47.609375 38.484375 47.609375 39.5 
Q 47.609375 43.609375 45.015625 45.890625 
Q 42.4375 48.1875 37.796875 48.1875 
Q 30.5625 48.1875 25.34375 43.375 
Q 20.125 38.578125 18.5 30.328125 
L 12.5 0 
L 3.515625 0 
L 14.109375 54.6875 
L 23.09375 54.6875 
L 21.296875 46.09375 
Q 25.046875 50.828125 30.3125 53.40625 
Q 35.59375 56 41.40625 56 
Q 48.640625 56 52.609375 52.09375 
Q 56.59375 48.1875 56.59375 41.109375 
Q 56.59375 39.359375 56.375 37.359375 
Q 56.15625 35.359375 55.71875 33.015625 
z
" id="DejaVuSans-Oblique-110"/>
       <path d="M 59.625 54.6875 
L 50.296875 6.78125 
Q 47.609375 -7.125 40.015625 -13.953125 
Q 32.421875 -20.796875 19.578125 -20.796875 
Q 14.84375 -20.796875 10.78125 -20.09375 
Q 6.734375 -19.390625 3.21875 -17.921875 
L 4.890625 -9.1875 
Q 8.203125 -11.328125 11.90625 -12.34375 
Q 15.625 -13.375 19.828125 -13.375 
Q 28.375 -13.375 33.859375 -8.703125 
Q 39.359375 -4.046875 41.109375 4.6875 
L 41.890625 8.796875 
Q 38.140625 4.5 33.15625 2.25 
Q 28.171875 0 22.40625 0 
Q 14.109375 0 9.34375 5.484375 
Q 4.59375 10.984375 4.59375 20.609375 
Q 4.59375 28.171875 7.46875 35.421875 
Q 10.359375 42.671875 15.578125 48.296875 
Q 19.046875 52 23.65625 54 
Q 28.265625 56 33.296875 56 
Q 38.8125 56 42.90625 53.4375 
Q 47.015625 50.875 49.03125 46.1875 
L 50.59375 54.6875 
z
M 46.09375 34.625 
Q 46.09375 41.265625 42.96875 44.875 
Q 39.84375 48.484375 34.078125 48.484375 
Q 30.515625 48.484375 27.296875 47.0625 
Q 24.078125 45.65625 21.78125 43.109375 
Q 18.0625 38.921875 15.984375 33.234375 
Q 13.921875 27.546875 13.921875 21.484375 
Q 13.921875 14.75 17.0625 11.125 
Q 20.21875 7.515625 26.125 7.515625 
Q 34.671875 7.515625 40.375 15.25 
Q 46.09375 23 46.09375 34.625 
z
" id="DejaVuSans-Oblique-103"/>
       <path d="M 48.09375 32.234375 
Q 48.25 33.015625 48.3125 33.84375 
Q 48.390625 34.671875 48.390625 35.5 
Q 48.390625 41.453125 44.890625 44.921875 
Q 41.40625 48.390625 35.40625 48.390625 
Q 28.71875 48.390625 23.578125 44.15625 
Q 18.453125 39.9375 15.828125 32.171875 
z
M 55.90625 25.203125 
L 14.109375 25.203125 
Q 13.8125 23.34375 13.71875 22.265625 
Q 13.625 21.1875 13.625 20.40625 
Q 13.625 13.625 17.796875 9.90625 
Q 21.96875 6.203125 29.59375 6.203125 
Q 35.453125 6.203125 40.671875 7.515625 
Q 45.90625 8.84375 50.390625 11.375 
L 48.6875 2.484375 
Q 43.84375 0.53125 38.6875 -0.4375 
Q 33.546875 -1.421875 28.21875 -1.421875 
Q 16.84375 -1.421875 10.71875 4.015625 
Q 4.59375 9.46875 4.59375 19.484375 
Q 4.59375 28.03125 7.640625 35.375 
Q 10.6875 42.71875 16.609375 48.484375 
Q 20.40625 52.09375 25.65625 54.046875 
Q 30.90625 56 36.8125 56 
Q 46.09375 56 51.578125 50.4375 
Q 57.078125 44.875 57.078125 35.5 
Q 57.078125 33.25 56.78125 30.6875 
Q 56.5 28.125 55.90625 25.203125 
z
" id="DejaVuSans-Oblique-101"/>
      </defs>
      <use transform="translate(0 0.51875)" xlink:href="#DejaVuSans-101"/>
      <use transform="translate(61.523438 0.51875)" xlink:href="#DejaVuSans-83"/>
      <use transform="translate(125 0.51875)" xlink:href="#DejaVuSans-69"/>
      <use transform="translate(188.183594 0.51875)" xlink:href="#DejaVuSans-73"/>
      <use transform="translate(217.675781 0.51875)" xlink:href="#DejaVuSans-85"/>
      <use transform="translate(288.619141 0.51875)" xlink:href="#DejaVuSans-82"/>
      <use transform="translate(359.058594 38.8)scale(0.7)" xlink:href="#DejaVuSans-Oblique-114"/>
      <use transform="translate(387.837891 38.8)scale(0.7)" xlink:href="#DejaVuSans-Oblique-97"/>
      <use transform="translate(430.733398 38.8)scale(0.7)" xlink:href="#DejaVuSans-Oblique-110"/>
      <use transform="translate(475.098633 38.8)scale(0.7)" xlink:href="#DejaVuSans-Oblique-103"/>
      <use transform="translate(519.532227 38.8)scale(0.7)" xlink:href="#DejaVuSans-Oblique-101"/>
     </g>
    </g>
   </g>
  </g>
 </g>
 <defs>
  <clipPath id="pde0aeddbf7">
   <rect height="543.6" width="558" x="90" y="86.4"/>
  </clipPath>
 </defs>
</svg>
