<?xml version="1.0" encoding="utf-8" standalone="no"?>
<!DOCTYPE svg PUBLIC "-//W3C//DTD SVG 1.1//EN"
  "http://www.w3.org/Graphics/SVG/1.1/DTD/svg11.dtd">
<!-- Created with matplotlib (https://matplotlib.org/) -->
<svg height="720pt" version="1.1" viewBox="0 0 720 720" width="720pt" xmlns="http://www.w3.org/2000/svg" xmlns:xlink="http://www.w3.org/1999/xlink">
 <metadata>
  <rdf:RDF xmlns:cc="http://creativecommons.org/ns#" xmlns:dc="http://purl.org/dc/elements/1.1/" xmlns:rdf="http://www.w3.org/1999/02/22-rdf-syntax-ns#">
   <cc:Work>
    <dc:type rdf:resource="http://purl.org/dc/dcmitype/StillImage"/>
    <dc:date>2022-07-13T18:54:03.945423</dc:date>
    <dc:format>image/svg+xml</dc:format>
    <dc:creator>
     <cc:Agent>
      <dc:title>Matplotlib v3.3.2, https://matplotlib.org/</dc:title>
     </cc:Agent>
    </dc:creator>
   </cc:Work>
  </rdf:RDF>
 </metadata>
 <defs>
  <style type="text/css">*{stroke-linecap:butt;stroke-linejoin:round;}</style>
 </defs>
 <g id="figure_1">
  <g id="patch_1">
   <path d="M 0 720 
L 720 720 
L 720 0 
L 0 0 
z
" style="fill:none;"/>
  </g>
  <g id="axes_1">
   <g id="patch_2">
    <path d="M 90 630 
L 648 630 
L 648 86.4 
L 90 86.4 
z
" style="fill:#ffffff;"/>
   </g>
   <g id="matplotlib.axis_1">
    <g id="xtick_1">
     <g id="line2d_1">
      <path clip-path="url(#p62d92bae2d)" d="M 115.363636 630 
L 115.363636 86.4 
" style="fill:none;stroke:#b0b0b0;stroke-linecap:square;stroke-width:0.8;"/>
     </g>
     <g id="line2d_2">
      <defs>
       <path d="M 0 0 
L 0 3.5 
" id="md506da51f3" style="stroke:#000000;stroke-width:0.8;"/>
      </defs>
      <g>
       <use style="stroke:#000000;stroke-width:0.8;" x="115.363636" xlink:href="#md506da51f3" y="630"/>
      </g>
     </g>
     <g id="text_1">
      <!-- 0 -->
      <g transform="translate(112.182386 644.598438)scale(0.1 -0.1)">
       <defs>
        <path d="M 31.78125 66.40625 
Q 24.171875 66.40625 20.328125 58.90625 
Q 16.5 51.421875 16.5 36.375 
Q 16.5 21.390625 20.328125 13.890625 
Q 24.171875 6.390625 31.78125 6.390625 
Q 39.453125 6.390625 43.28125 13.890625 
Q 47.125 21.390625 47.125 36.375 
Q 47.125 51.421875 43.28125 58.90625 
Q 39.453125 66.40625 31.78125 66.40625 
z
M 31.78125 74.21875 
Q 44.046875 74.21875 50.515625 64.515625 
Q 56.984375 54.828125 56.984375 36.375 
Q 56.984375 17.96875 50.515625 8.265625 
Q 44.046875 -1.421875 31.78125 -1.421875 
Q 19.53125 -1.421875 13.0625 8.265625 
Q 6.59375 17.96875 6.59375 36.375 
Q 6.59375 54.828125 13.0625 64.515625 
Q 19.53125 74.21875 31.78125 74.21875 
z
" id="DejaVuSans-48"/>
       </defs>
       <use xlink:href="#DejaVuSans-48"/>
      </g>
     </g>
    </g>
    <g id="xtick_2">
     <g id="line2d_3">
      <path clip-path="url(#p62d92bae2d)" d="M 189.962567 630 
L 189.962567 86.4 
" style="fill:none;stroke:#b0b0b0;stroke-linecap:square;stroke-width:0.8;"/>
     </g>
     <g id="line2d_4">
      <g>
       <use style="stroke:#000000;stroke-width:0.8;" x="189.962567" xlink:href="#md506da51f3" y="630"/>
      </g>
     </g>
     <g id="text_2">
      <!-- 20 -->
      <g transform="translate(183.600067 644.598438)scale(0.1 -0.1)">
       <defs>
        <path d="M 19.1875 8.296875 
L 53.609375 8.296875 
L 53.609375 0 
L 7.328125 0 
L 7.328125 8.296875 
Q 12.9375 14.109375 22.625 23.890625 
Q 32.328125 33.6875 34.8125 36.53125 
Q 39.546875 41.84375 41.421875 45.53125 
Q 43.3125 49.21875 43.3125 52.78125 
Q 43.3125 58.59375 39.234375 62.25 
Q 35.15625 65.921875 28.609375 65.921875 
Q 23.96875 65.921875 18.8125 64.3125 
Q 13.671875 62.703125 7.8125 59.421875 
L 7.8125 69.390625 
Q 13.765625 71.78125 18.9375 73 
Q 24.125 74.21875 28.421875 74.21875 
Q 39.75 74.21875 46.484375 68.546875 
Q 53.21875 62.890625 53.21875 53.421875 
Q 53.21875 48.921875 51.53125 44.890625 
Q 49.859375 40.875 45.40625 35.40625 
Q 44.1875 33.984375 37.640625 27.21875 
Q 31.109375 20.453125 19.1875 8.296875 
z
" id="DejaVuSans-50"/>
       </defs>
       <use xlink:href="#DejaVuSans-50"/>
       <use x="63.623047" xlink:href="#DejaVuSans-48"/>
      </g>
     </g>
    </g>
    <g id="xtick_3">
     <g id="line2d_5">
      <path clip-path="url(#p62d92bae2d)" d="M 264.561497 630 
L 264.561497 86.4 
" style="fill:none;stroke:#b0b0b0;stroke-linecap:square;stroke-width:0.8;"/>
     </g>
     <g id="line2d_6">
      <g>
       <use style="stroke:#000000;stroke-width:0.8;" x="264.561497" xlink:href="#md506da51f3" y="630"/>
      </g>
     </g>
     <g id="text_3">
      <!-- 40 -->
      <g transform="translate(258.198997 644.598438)scale(0.1 -0.1)">
       <defs>
        <path d="M 37.796875 64.3125 
L 12.890625 25.390625 
L 37.796875 25.390625 
z
M 35.203125 72.90625 
L 47.609375 72.90625 
L 47.609375 25.390625 
L 58.015625 25.390625 
L 58.015625 17.1875 
L 47.609375 17.1875 
L 47.609375 0 
L 37.796875 0 
L 37.796875 17.1875 
L 4.890625 17.1875 
L 4.890625 26.703125 
z
" id="DejaVuSans-52"/>
       </defs>
       <use xlink:href="#DejaVuSans-52"/>
       <use x="63.623047" xlink:href="#DejaVuSans-48"/>
      </g>
     </g>
    </g>
    <g id="xtick_4">
     <g id="line2d_7">
      <path clip-path="url(#p62d92bae2d)" d="M 339.160428 630 
L 339.160428 86.4 
" style="fill:none;stroke:#b0b0b0;stroke-linecap:square;stroke-width:0.8;"/>
     </g>
     <g id="line2d_8">
      <g>
       <use style="stroke:#000000;stroke-width:0.8;" x="339.160428" xlink:href="#md506da51f3" y="630"/>
      </g>
     </g>
     <g id="text_4">
      <!-- 60 -->
      <g transform="translate(332.797928 644.598438)scale(0.1 -0.1)">
       <defs>
        <path d="M 33.015625 40.375 
Q 26.375 40.375 22.484375 35.828125 
Q 18.609375 31.296875 18.609375 23.390625 
Q 18.609375 15.53125 22.484375 10.953125 
Q 26.375 6.390625 33.015625 6.390625 
Q 39.65625 6.390625 43.53125 10.953125 
Q 47.40625 15.53125 47.40625 23.390625 
Q 47.40625 31.296875 43.53125 35.828125 
Q 39.65625 40.375 33.015625 40.375 
z
M 52.59375 71.296875 
L 52.59375 62.3125 
Q 48.875 64.0625 45.09375 64.984375 
Q 41.3125 65.921875 37.59375 65.921875 
Q 27.828125 65.921875 22.671875 59.328125 
Q 17.53125 52.734375 16.796875 39.40625 
Q 19.671875 43.65625 24.015625 45.921875 
Q 28.375 48.1875 33.59375 48.1875 
Q 44.578125 48.1875 50.953125 41.515625 
Q 57.328125 34.859375 57.328125 23.390625 
Q 57.328125 12.15625 50.6875 5.359375 
Q 44.046875 -1.421875 33.015625 -1.421875 
Q 20.359375 -1.421875 13.671875 8.265625 
Q 6.984375 17.96875 6.984375 36.375 
Q 6.984375 53.65625 15.1875 63.9375 
Q 23.390625 74.21875 37.203125 74.21875 
Q 40.921875 74.21875 44.703125 73.484375 
Q 48.484375 72.75 52.59375 71.296875 
z
" id="DejaVuSans-54"/>
       </defs>
       <use xlink:href="#DejaVuSans-54"/>
       <use x="63.623047" xlink:href="#DejaVuSans-48"/>
      </g>
     </g>
    </g>
    <g id="xtick_5">
     <g id="line2d_9">
      <path clip-path="url(#p62d92bae2d)" d="M 413.759358 630 
L 413.759358 86.4 
" style="fill:none;stroke:#b0b0b0;stroke-linecap:square;stroke-width:0.8;"/>
     </g>
     <g id="line2d_10">
      <g>
       <use style="stroke:#000000;stroke-width:0.8;" x="413.759358" xlink:href="#md506da51f3" y="630"/>
      </g>
     </g>
     <g id="text_5">
      <!-- 80 -->
      <g transform="translate(407.396858 644.598438)scale(0.1 -0.1)">
       <defs>
        <path d="M 31.78125 34.625 
Q 24.75 34.625 20.71875 30.859375 
Q 16.703125 27.09375 16.703125 20.515625 
Q 16.703125 13.921875 20.71875 10.15625 
Q 24.75 6.390625 31.78125 6.390625 
Q 38.8125 6.390625 42.859375 10.171875 
Q 46.921875 13.96875 46.921875 20.515625 
Q 46.921875 27.09375 42.890625 30.859375 
Q 38.875 34.625 31.78125 34.625 
z
M 21.921875 38.8125 
Q 15.578125 40.375 12.03125 44.71875 
Q 8.5 49.078125 8.5 55.328125 
Q 8.5 64.0625 14.71875 69.140625 
Q 20.953125 74.21875 31.78125 74.21875 
Q 42.671875 74.21875 48.875 69.140625 
Q 55.078125 64.0625 55.078125 55.328125 
Q 55.078125 49.078125 51.53125 44.71875 
Q 48 40.375 41.703125 38.8125 
Q 48.828125 37.15625 52.796875 32.3125 
Q 56.78125 27.484375 56.78125 20.515625 
Q 56.78125 9.90625 50.3125 4.234375 
Q 43.84375 -1.421875 31.78125 -1.421875 
Q 19.734375 -1.421875 13.25 4.234375 
Q 6.78125 9.90625 6.78125 20.515625 
Q 6.78125 27.484375 10.78125 32.3125 
Q 14.796875 37.15625 21.921875 38.8125 
z
M 18.3125 54.390625 
Q 18.3125 48.734375 21.84375 45.5625 
Q 25.390625 42.390625 31.78125 42.390625 
Q 38.140625 42.390625 41.71875 45.5625 
Q 45.3125 48.734375 45.3125 54.390625 
Q 45.3125 60.0625 41.71875 63.234375 
Q 38.140625 66.40625 31.78125 66.40625 
Q 25.390625 66.40625 21.84375 63.234375 
Q 18.3125 60.0625 18.3125 54.390625 
z
" id="DejaVuSans-56"/>
       </defs>
       <use xlink:href="#DejaVuSans-56"/>
       <use x="63.623047" xlink:href="#DejaVuSans-48"/>
      </g>
     </g>
    </g>
    <g id="xtick_6">
     <g id="line2d_11">
      <path clip-path="url(#p62d92bae2d)" d="M 488.358289 630 
L 488.358289 86.4 
" style="fill:none;stroke:#b0b0b0;stroke-linecap:square;stroke-width:0.8;"/>
     </g>
     <g id="line2d_12">
      <g>
       <use style="stroke:#000000;stroke-width:0.8;" x="488.358289" xlink:href="#md506da51f3" y="630"/>
      </g>
     </g>
     <g id="text_6">
      <!-- 100 -->
      <g transform="translate(478.814539 644.598438)scale(0.1 -0.1)">
       <defs>
        <path d="M 12.40625 8.296875 
L 28.515625 8.296875 
L 28.515625 63.921875 
L 10.984375 60.40625 
L 10.984375 69.390625 
L 28.421875 72.90625 
L 38.28125 72.90625 
L 38.28125 8.296875 
L 54.390625 8.296875 
L 54.390625 0 
L 12.40625 0 
z
" id="DejaVuSans-49"/>
       </defs>
       <use xlink:href="#DejaVuSans-49"/>
       <use x="63.623047" xlink:href="#DejaVuSans-48"/>
       <use x="127.246094" xlink:href="#DejaVuSans-48"/>
      </g>
     </g>
    </g>
    <g id="xtick_7">
     <g id="line2d_13">
      <path clip-path="url(#p62d92bae2d)" d="M 562.957219 630 
L 562.957219 86.4 
" style="fill:none;stroke:#b0b0b0;stroke-linecap:square;stroke-width:0.8;"/>
     </g>
     <g id="line2d_14">
      <g>
       <use style="stroke:#000000;stroke-width:0.8;" x="562.957219" xlink:href="#md506da51f3" y="630"/>
      </g>
     </g>
     <g id="text_7">
      <!-- 120 -->
      <g transform="translate(553.413469 644.598438)scale(0.1 -0.1)">
       <use xlink:href="#DejaVuSans-49"/>
       <use x="63.623047" xlink:href="#DejaVuSans-50"/>
       <use x="127.246094" xlink:href="#DejaVuSans-48"/>
      </g>
     </g>
    </g>
    <g id="xtick_8">
     <g id="line2d_15">
      <path clip-path="url(#p62d92bae2d)" d="M 637.55615 630 
L 637.55615 86.4 
" style="fill:none;stroke:#b0b0b0;stroke-linecap:square;stroke-width:0.8;"/>
     </g>
     <g id="line2d_16">
      <g>
       <use style="stroke:#000000;stroke-width:0.8;" x="637.55615" xlink:href="#md506da51f3" y="630"/>
      </g>
     </g>
     <g id="text_8">
      <!-- 140 -->
      <g transform="translate(628.0124 644.598438)scale(0.1 -0.1)">
       <use xlink:href="#DejaVuSans-49"/>
       <use x="63.623047" xlink:href="#DejaVuSans-52"/>
       <use x="127.246094" xlink:href="#DejaVuSans-48"/>
      </g>
     </g>
    </g>
    <g id="text_9">
     <!-- Days -->
     <g transform="translate(356.521875 658.276562)scale(0.1 -0.1)">
      <defs>
       <path d="M 19.671875 64.796875 
L 19.671875 8.109375 
L 31.59375 8.109375 
Q 46.6875 8.109375 53.6875 14.9375 
Q 60.6875 21.78125 60.6875 36.53125 
Q 60.6875 51.171875 53.6875 57.984375 
Q 46.6875 64.796875 31.59375 64.796875 
z
M 9.8125 72.90625 
L 30.078125 72.90625 
Q 51.265625 72.90625 61.171875 64.09375 
Q 71.09375 55.28125 71.09375 36.53125 
Q 71.09375 17.671875 61.125 8.828125 
Q 51.171875 0 30.078125 0 
L 9.8125 0 
z
" id="DejaVuSans-68"/>
       <path d="M 34.28125 27.484375 
Q 23.390625 27.484375 19.1875 25 
Q 14.984375 22.515625 14.984375 16.5 
Q 14.984375 11.71875 18.140625 8.90625 
Q 21.296875 6.109375 26.703125 6.109375 
Q 34.1875 6.109375 38.703125 11.40625 
Q 43.21875 16.703125 43.21875 25.484375 
L 43.21875 27.484375 
z
M 52.203125 31.203125 
L 52.203125 0 
L 43.21875 0 
L 43.21875 8.296875 
Q 40.140625 3.328125 35.546875 0.953125 
Q 30.953125 -1.421875 24.3125 -1.421875 
Q 15.921875 -1.421875 10.953125 3.296875 
Q 6 8.015625 6 15.921875 
Q 6 25.140625 12.171875 29.828125 
Q 18.359375 34.515625 30.609375 34.515625 
L 43.21875 34.515625 
L 43.21875 35.40625 
Q 43.21875 41.609375 39.140625 45 
Q 35.0625 48.390625 27.6875 48.390625 
Q 23 48.390625 18.546875 47.265625 
Q 14.109375 46.140625 10.015625 43.890625 
L 10.015625 52.203125 
Q 14.9375 54.109375 19.578125 55.046875 
Q 24.21875 56 28.609375 56 
Q 40.484375 56 46.34375 49.84375 
Q 52.203125 43.703125 52.203125 31.203125 
z
" id="DejaVuSans-97"/>
       <path d="M 32.171875 -5.078125 
Q 28.375 -14.84375 24.75 -17.8125 
Q 21.140625 -20.796875 15.09375 -20.796875 
L 7.90625 -20.796875 
L 7.90625 -13.28125 
L 13.1875 -13.28125 
Q 16.890625 -13.28125 18.9375 -11.515625 
Q 21 -9.765625 23.484375 -3.21875 
L 25.09375 0.875 
L 2.984375 54.6875 
L 12.5 54.6875 
L 29.59375 11.921875 
L 46.6875 54.6875 
L 56.203125 54.6875 
z
" id="DejaVuSans-121"/>
       <path d="M 44.28125 53.078125 
L 44.28125 44.578125 
Q 40.484375 46.53125 36.375 47.5 
Q 32.28125 48.484375 27.875 48.484375 
Q 21.1875 48.484375 17.84375 46.4375 
Q 14.5 44.390625 14.5 40.28125 
Q 14.5 37.15625 16.890625 35.375 
Q 19.28125 33.59375 26.515625 31.984375 
L 29.59375 31.296875 
Q 39.15625 29.25 43.1875 25.515625 
Q 47.21875 21.78125 47.21875 15.09375 
Q 47.21875 7.46875 41.1875 3.015625 
Q 35.15625 -1.421875 24.609375 -1.421875 
Q 20.21875 -1.421875 15.453125 -0.5625 
Q 10.6875 0.296875 5.421875 2 
L 5.421875 11.28125 
Q 10.40625 8.6875 15.234375 7.390625 
Q 20.0625 6.109375 24.8125 6.109375 
Q 31.15625 6.109375 34.5625 8.28125 
Q 37.984375 10.453125 37.984375 14.40625 
Q 37.984375 18.0625 35.515625 20.015625 
Q 33.0625 21.96875 24.703125 23.78125 
L 21.578125 24.515625 
Q 13.234375 26.265625 9.515625 29.90625 
Q 5.8125 33.546875 5.8125 39.890625 
Q 5.8125 47.609375 11.28125 51.796875 
Q 16.75 56 26.8125 56 
Q 31.78125 56 36.171875 55.265625 
Q 40.578125 54.546875 44.28125 53.078125 
z
" id="DejaVuSans-115"/>
      </defs>
      <use xlink:href="#DejaVuSans-68"/>
      <use x="77.001953" xlink:href="#DejaVuSans-97"/>
      <use x="138.28125" xlink:href="#DejaVuSans-121"/>
      <use x="197.460938" xlink:href="#DejaVuSans-115"/>
     </g>
    </g>
   </g>
   <g id="matplotlib.axis_2">
    <g id="ytick_1">
     <g id="line2d_17">
      <path clip-path="url(#p62d92bae2d)" d="M 90 605.827955 
L 648 605.827955 
" style="fill:none;stroke:#b0b0b0;stroke-linecap:square;stroke-width:0.8;"/>
     </g>
     <g id="line2d_18">
      <defs>
       <path d="M 0 0 
L -3.5 0 
" id="m9e2be44f06" style="stroke:#000000;stroke-width:0.8;"/>
      </defs>
      <g>
       <use style="stroke:#000000;stroke-width:0.8;" x="90" xlink:href="#m9e2be44f06" y="605.827955"/>
      </g>
     </g>
     <g id="text_10">
      <!-- 0 -->
      <g transform="translate(76.6375 609.627174)scale(0.1 -0.1)">
       <use xlink:href="#DejaVuSans-48"/>
      </g>
     </g>
    </g>
    <g id="ytick_2">
     <g id="line2d_19">
      <path clip-path="url(#p62d92bae2d)" d="M 90 538.697228 
L 648 538.697228 
" style="fill:none;stroke:#b0b0b0;stroke-linecap:square;stroke-width:0.8;"/>
     </g>
     <g id="line2d_20">
      <g>
       <use style="stroke:#000000;stroke-width:0.8;" x="90" xlink:href="#m9e2be44f06" y="538.697228"/>
      </g>
     </g>
     <g id="text_11">
      <!-- 2500 -->
      <g transform="translate(57.55 542.496447)scale(0.1 -0.1)">
       <defs>
        <path d="M 10.796875 72.90625 
L 49.515625 72.90625 
L 49.515625 64.59375 
L 19.828125 64.59375 
L 19.828125 46.734375 
Q 21.96875 47.46875 24.109375 47.828125 
Q 26.265625 48.1875 28.421875 48.1875 
Q 40.625 48.1875 47.75 41.5 
Q 54.890625 34.8125 54.890625 23.390625 
Q 54.890625 11.625 47.5625 5.09375 
Q 40.234375 -1.421875 26.90625 -1.421875 
Q 22.3125 -1.421875 17.546875 -0.640625 
Q 12.796875 0.140625 7.71875 1.703125 
L 7.71875 11.625 
Q 12.109375 9.234375 16.796875 8.0625 
Q 21.484375 6.890625 26.703125 6.890625 
Q 35.15625 6.890625 40.078125 11.328125 
Q 45.015625 15.765625 45.015625 23.390625 
Q 45.015625 31 40.078125 35.4375 
Q 35.15625 39.890625 26.703125 39.890625 
Q 22.75 39.890625 18.8125 39.015625 
Q 14.890625 38.140625 10.796875 36.28125 
z
" id="DejaVuSans-53"/>
       </defs>
       <use xlink:href="#DejaVuSans-50"/>
       <use x="63.623047" xlink:href="#DejaVuSans-53"/>
       <use x="127.246094" xlink:href="#DejaVuSans-48"/>
       <use x="190.869141" xlink:href="#DejaVuSans-48"/>
      </g>
     </g>
    </g>
    <g id="ytick_3">
     <g id="line2d_21">
      <path clip-path="url(#p62d92bae2d)" d="M 90 471.566502 
L 648 471.566502 
" style="fill:none;stroke:#b0b0b0;stroke-linecap:square;stroke-width:0.8;"/>
     </g>
     <g id="line2d_22">
      <g>
       <use style="stroke:#000000;stroke-width:0.8;" x="90" xlink:href="#m9e2be44f06" y="471.566502"/>
      </g>
     </g>
     <g id="text_12">
      <!-- 5000 -->
      <g transform="translate(57.55 475.365721)scale(0.1 -0.1)">
       <use xlink:href="#DejaVuSans-53"/>
       <use x="63.623047" xlink:href="#DejaVuSans-48"/>
       <use x="127.246094" xlink:href="#DejaVuSans-48"/>
       <use x="190.869141" xlink:href="#DejaVuSans-48"/>
      </g>
     </g>
    </g>
    <g id="ytick_4">
     <g id="line2d_23">
      <path clip-path="url(#p62d92bae2d)" d="M 90 404.435775 
L 648 404.435775 
" style="fill:none;stroke:#b0b0b0;stroke-linecap:square;stroke-width:0.8;"/>
     </g>
     <g id="line2d_24">
      <g>
       <use style="stroke:#000000;stroke-width:0.8;" x="90" xlink:href="#m9e2be44f06" y="404.435775"/>
      </g>
     </g>
     <g id="text_13">
      <!-- 7500 -->
      <g transform="translate(57.55 408.234994)scale(0.1 -0.1)">
       <defs>
        <path d="M 8.203125 72.90625 
L 55.078125 72.90625 
L 55.078125 68.703125 
L 28.609375 0 
L 18.3125 0 
L 43.21875 64.59375 
L 8.203125 64.59375 
z
" id="DejaVuSans-55"/>
       </defs>
       <use xlink:href="#DejaVuSans-55"/>
       <use x="63.623047" xlink:href="#DejaVuSans-53"/>
       <use x="127.246094" xlink:href="#DejaVuSans-48"/>
       <use x="190.869141" xlink:href="#DejaVuSans-48"/>
      </g>
     </g>
    </g>
    <g id="ytick_5">
     <g id="line2d_25">
      <path clip-path="url(#p62d92bae2d)" d="M 90 337.305049 
L 648 337.305049 
" style="fill:none;stroke:#b0b0b0;stroke-linecap:square;stroke-width:0.8;"/>
     </g>
     <g id="line2d_26">
      <g>
       <use style="stroke:#000000;stroke-width:0.8;" x="90" xlink:href="#m9e2be44f06" y="337.305049"/>
      </g>
     </g>
     <g id="text_14">
      <!-- 10000 -->
      <g transform="translate(51.1875 341.104267)scale(0.1 -0.1)">
       <use xlink:href="#DejaVuSans-49"/>
       <use x="63.623047" xlink:href="#DejaVuSans-48"/>
       <use x="127.246094" xlink:href="#DejaVuSans-48"/>
       <use x="190.869141" xlink:href="#DejaVuSans-48"/>
       <use x="254.492188" xlink:href="#DejaVuSans-48"/>
      </g>
     </g>
    </g>
    <g id="ytick_6">
     <g id="line2d_27">
      <path clip-path="url(#p62d92bae2d)" d="M 90 270.174322 
L 648 270.174322 
" style="fill:none;stroke:#b0b0b0;stroke-linecap:square;stroke-width:0.8;"/>
     </g>
     <g id="line2d_28">
      <g>
       <use style="stroke:#000000;stroke-width:0.8;" x="90" xlink:href="#m9e2be44f06" y="270.174322"/>
      </g>
     </g>
     <g id="text_15">
      <!-- 12500 -->
      <g transform="translate(51.1875 273.973541)scale(0.1 -0.1)">
       <use xlink:href="#DejaVuSans-49"/>
       <use x="63.623047" xlink:href="#DejaVuSans-50"/>
       <use x="127.246094" xlink:href="#DejaVuSans-53"/>
       <use x="190.869141" xlink:href="#DejaVuSans-48"/>
       <use x="254.492188" xlink:href="#DejaVuSans-48"/>
      </g>
     </g>
    </g>
    <g id="ytick_7">
     <g id="line2d_29">
      <path clip-path="url(#p62d92bae2d)" d="M 90 203.043596 
L 648 203.043596 
" style="fill:none;stroke:#b0b0b0;stroke-linecap:square;stroke-width:0.8;"/>
     </g>
     <g id="line2d_30">
      <g>
       <use style="stroke:#000000;stroke-width:0.8;" x="90" xlink:href="#m9e2be44f06" y="203.043596"/>
      </g>
     </g>
     <g id="text_16">
      <!-- 15000 -->
      <g transform="translate(51.1875 206.842814)scale(0.1 -0.1)">
       <use xlink:href="#DejaVuSans-49"/>
       <use x="63.623047" xlink:href="#DejaVuSans-53"/>
       <use x="127.246094" xlink:href="#DejaVuSans-48"/>
       <use x="190.869141" xlink:href="#DejaVuSans-48"/>
       <use x="254.492188" xlink:href="#DejaVuSans-48"/>
      </g>
     </g>
    </g>
    <g id="ytick_8">
     <g id="line2d_31">
      <path clip-path="url(#p62d92bae2d)" d="M 90 135.912869 
L 648 135.912869 
" style="fill:none;stroke:#b0b0b0;stroke-linecap:square;stroke-width:0.8;"/>
     </g>
     <g id="line2d_32">
      <g>
       <use style="stroke:#000000;stroke-width:0.8;" x="90" xlink:href="#m9e2be44f06" y="135.912869"/>
      </g>
     </g>
     <g id="text_17">
      <!-- 17500 -->
      <g transform="translate(51.1875 139.712088)scale(0.1 -0.1)">
       <use xlink:href="#DejaVuSans-49"/>
       <use x="63.623047" xlink:href="#DejaVuSans-55"/>
       <use x="127.246094" xlink:href="#DejaVuSans-53"/>
       <use x="190.869141" xlink:href="#DejaVuSans-48"/>
       <use x="254.492188" xlink:href="#DejaVuSans-48"/>
      </g>
     </g>
    </g>
    <g id="text_18">
     <!-- Cumulative cases -->
     <g transform="translate(45.107812 402.425781)rotate(-90)scale(0.1 -0.1)">
      <defs>
       <path d="M 64.40625 67.28125 
L 64.40625 56.890625 
Q 59.421875 61.53125 53.78125 63.8125 
Q 48.140625 66.109375 41.796875 66.109375 
Q 29.296875 66.109375 22.65625 58.46875 
Q 16.015625 50.828125 16.015625 36.375 
Q 16.015625 21.96875 22.65625 14.328125 
Q 29.296875 6.6875 41.796875 6.6875 
Q 48.140625 6.6875 53.78125 8.984375 
Q 59.421875 11.28125 64.40625 15.921875 
L 64.40625 5.609375 
Q 59.234375 2.09375 53.4375 0.328125 
Q 47.65625 -1.421875 41.21875 -1.421875 
Q 24.65625 -1.421875 15.125 8.703125 
Q 5.609375 18.84375 5.609375 36.375 
Q 5.609375 53.953125 15.125 64.078125 
Q 24.65625 74.21875 41.21875 74.21875 
Q 47.75 74.21875 53.53125 72.484375 
Q 59.328125 70.75 64.40625 67.28125 
z
" id="DejaVuSans-67"/>
       <path d="M 8.5 21.578125 
L 8.5 54.6875 
L 17.484375 54.6875 
L 17.484375 21.921875 
Q 17.484375 14.15625 20.5 10.265625 
Q 23.53125 6.390625 29.59375 6.390625 
Q 36.859375 6.390625 41.078125 11.03125 
Q 45.3125 15.671875 45.3125 23.6875 
L 45.3125 54.6875 
L 54.296875 54.6875 
L 54.296875 0 
L 45.3125 0 
L 45.3125 8.40625 
Q 42.046875 3.421875 37.71875 1 
Q 33.40625 -1.421875 27.6875 -1.421875 
Q 18.265625 -1.421875 13.375 4.4375 
Q 8.5 10.296875 8.5 21.578125 
z
M 31.109375 56 
z
" id="DejaVuSans-117"/>
       <path d="M 52 44.1875 
Q 55.375 50.25 60.0625 53.125 
Q 64.75 56 71.09375 56 
Q 79.640625 56 84.28125 50.015625 
Q 88.921875 44.046875 88.921875 33.015625 
L 88.921875 0 
L 79.890625 0 
L 79.890625 32.71875 
Q 79.890625 40.578125 77.09375 44.375 
Q 74.3125 48.1875 68.609375 48.1875 
Q 61.625 48.1875 57.5625 43.546875 
Q 53.515625 38.921875 53.515625 30.90625 
L 53.515625 0 
L 44.484375 0 
L 44.484375 32.71875 
Q 44.484375 40.625 41.703125 44.40625 
Q 38.921875 48.1875 33.109375 48.1875 
Q 26.21875 48.1875 22.15625 43.53125 
Q 18.109375 38.875 18.109375 30.90625 
L 18.109375 0 
L 9.078125 0 
L 9.078125 54.6875 
L 18.109375 54.6875 
L 18.109375 46.1875 
Q 21.1875 51.21875 25.484375 53.609375 
Q 29.78125 56 35.6875 56 
Q 41.65625 56 45.828125 52.96875 
Q 50 49.953125 52 44.1875 
z
" id="DejaVuSans-109"/>
       <path d="M 9.421875 75.984375 
L 18.40625 75.984375 
L 18.40625 0 
L 9.421875 0 
z
" id="DejaVuSans-108"/>
       <path d="M 18.3125 70.21875 
L 18.3125 54.6875 
L 36.8125 54.6875 
L 36.8125 47.703125 
L 18.3125 47.703125 
L 18.3125 18.015625 
Q 18.3125 11.328125 20.140625 9.421875 
Q 21.96875 7.515625 27.59375 7.515625 
L 36.8125 7.515625 
L 36.8125 0 
L 27.59375 0 
Q 17.1875 0 13.234375 3.875 
Q 9.28125 7.765625 9.28125 18.015625 
L 9.28125 47.703125 
L 2.6875 47.703125 
L 2.6875 54.6875 
L 9.28125 54.6875 
L 9.28125 70.21875 
z
" id="DejaVuSans-116"/>
       <path d="M 9.421875 54.6875 
L 18.40625 54.6875 
L 18.40625 0 
L 9.421875 0 
z
M 9.421875 75.984375 
L 18.40625 75.984375 
L 18.40625 64.59375 
L 9.421875 64.59375 
z
" id="DejaVuSans-105"/>
       <path d="M 2.984375 54.6875 
L 12.5 54.6875 
L 29.59375 8.796875 
L 46.6875 54.6875 
L 56.203125 54.6875 
L 35.6875 0 
L 23.484375 0 
z
" id="DejaVuSans-118"/>
       <path d="M 56.203125 29.59375 
L 56.203125 25.203125 
L 14.890625 25.203125 
Q 15.484375 15.921875 20.484375 11.0625 
Q 25.484375 6.203125 34.421875 6.203125 
Q 39.59375 6.203125 44.453125 7.46875 
Q 49.3125 8.734375 54.109375 11.28125 
L 54.109375 2.78125 
Q 49.265625 0.734375 44.1875 -0.34375 
Q 39.109375 -1.421875 33.890625 -1.421875 
Q 20.796875 -1.421875 13.15625 6.1875 
Q 5.515625 13.8125 5.515625 26.8125 
Q 5.515625 40.234375 12.765625 48.109375 
Q 20.015625 56 32.328125 56 
Q 43.359375 56 49.78125 48.890625 
Q 56.203125 41.796875 56.203125 29.59375 
z
M 47.21875 32.234375 
Q 47.125 39.59375 43.09375 43.984375 
Q 39.0625 48.390625 32.421875 48.390625 
Q 24.90625 48.390625 20.390625 44.140625 
Q 15.875 39.890625 15.1875 32.171875 
z
" id="DejaVuSans-101"/>
       <path id="DejaVuSans-32"/>
       <path d="M 48.78125 52.59375 
L 48.78125 44.1875 
Q 44.96875 46.296875 41.140625 47.34375 
Q 37.3125 48.390625 33.40625 48.390625 
Q 24.65625 48.390625 19.8125 42.84375 
Q 14.984375 37.3125 14.984375 27.296875 
Q 14.984375 17.28125 19.8125 11.734375 
Q 24.65625 6.203125 33.40625 6.203125 
Q 37.3125 6.203125 41.140625 7.25 
Q 44.96875 8.296875 48.78125 10.40625 
L 48.78125 2.09375 
Q 45.015625 0.34375 40.984375 -0.53125 
Q 36.96875 -1.421875 32.421875 -1.421875 
Q 20.0625 -1.421875 12.78125 6.34375 
Q 5.515625 14.109375 5.515625 27.296875 
Q 5.515625 40.671875 12.859375 48.328125 
Q 20.21875 56 33.015625 56 
Q 37.15625 56 41.109375 55.140625 
Q 45.0625 54.296875 48.78125 52.59375 
z
" id="DejaVuSans-99"/>
      </defs>
      <use xlink:href="#DejaVuSans-67"/>
      <use x="69.824219" xlink:href="#DejaVuSans-117"/>
      <use x="133.203125" xlink:href="#DejaVuSans-109"/>
      <use x="230.615234" xlink:href="#DejaVuSans-117"/>
      <use x="293.994141" xlink:href="#DejaVuSans-108"/>
      <use x="321.777344" xlink:href="#DejaVuSans-97"/>
      <use x="383.056641" xlink:href="#DejaVuSans-116"/>
      <use x="422.265625" xlink:href="#DejaVuSans-105"/>
      <use x="450.048828" xlink:href="#DejaVuSans-118"/>
      <use x="509.228516" xlink:href="#DejaVuSans-101"/>
      <use x="570.751953" xlink:href="#DejaVuSans-32"/>
      <use x="602.539062" xlink:href="#DejaVuSans-99"/>
      <use x="657.519531" xlink:href="#DejaVuSans-97"/>
      <use x="718.798828" xlink:href="#DejaVuSans-115"/>
      <use x="770.898438" xlink:href="#DejaVuSans-101"/>
      <use x="832.421875" xlink:href="#DejaVuSans-115"/>
     </g>
    </g>
   </g>
   <g id="line2d_33">
    <path clip-path="url(#p62d92bae2d)" d="M 115.363636 605.290909 
L 137.743316 604.901537 
L 156.393048 604.36933 
L 171.312834 603.731644 
L 182.502674 603.077367 
L 193.692513 602.22046 
L 204.882353 601.099301 
L 212.342246 600.16664 
L 219.802139 599.052707 
L 227.262032 597.723422 
L 234.721925 596.138796 
L 242.181818 594.252111 
L 249.641711 592.009089 
L 257.101604 589.347084 
L 260.831551 587.836919 
L 264.561497 586.194374 
L 268.291444 584.40898 
L 272.02139 582.46966 
L 275.751337 580.364727 
L 279.481283 578.081904 
L 283.21123 575.608349 
L 286.941176 572.930698 
L 290.671123 570.03512 
L 294.40107 566.907395 
L 298.131016 563.533007 
L 301.860963 559.897268 
L 305.590909 555.985455 
L 309.320856 551.782988 
L 313.050802 547.275623 
L 316.780749 542.449685 
L 320.510695 537.29232 
L 324.240642 531.791777 
L 327.970588 525.937724 
L 331.700535 519.721566 
L 335.430481 513.136796 
L 339.160428 506.17934 
L 342.890374 498.847906 
L 346.620321 491.144318 
L 350.350267 483.07382 
L 354.080214 474.645343 
L 357.81016 465.871715 
L 361.540107 456.769803 
L 369 437.669042 
L 376.459893 417.558554 
L 383.919786 396.711812 
L 410.029412 322.731946 
L 417.489305 302.70133 
L 424.949198 283.70219 
L 428.679144 274.657518 
L 432.409091 265.944444 
L 436.139037 257.579105 
L 439.868984 249.573623 
L 443.59893 241.936251 
L 447.328877 234.671602 
L 451.058824 227.780919 
L 454.78877 221.262388 
L 458.518717 215.111475 
L 462.248663 209.321274 
L 465.97861 203.882856 
L 469.708556 198.785609 
L 473.438503 194.017566 
L 477.168449 189.565705 
L 480.898396 185.416232 
L 484.628342 181.554826 
L 488.358289 177.966867 
L 492.088235 174.637629 
L 495.818182 171.552443 
L 499.548128 168.696839 
L 503.278075 166.056659 
L 507.008021 163.618151 
L 510.737968 161.368041 
L 514.467914 159.293585 
L 518.197861 157.382609 
L 521.927807 155.623536 
L 525.657754 154.005395 
L 529.387701 152.51783 
L 536.847594 149.896037 
L 544.307487 147.687271 
L 551.76738 145.829663 
L 559.227273 144.269645 
L 566.687166 142.961135 
L 574.147059 141.864701 
L 581.606952 140.946757 
L 592.796791 139.843368 
L 603.986631 139.0001 
L 615.176471 138.35627 
L 622.636364 138.014265 
L 622.636364 138.014265 
" style="fill:none;stroke:#1f77b4;stroke-linecap:square;stroke-width:1.5;"/>
   </g>
   <g id="line2d_34">
    <path clip-path="url(#p62d92bae2d)" d="M 115.363636 605.290909 
L 137.743316 604.902259 
L 156.393048 604.371827 
L 171.312834 603.737038 
L 182.502674 603.086349 
L 193.692513 602.234839 
L 204.882353 601.12165 
L 212.342246 600.196236 
L 219.802139 599.091552 
L 227.262032 597.774008 
L 234.721925 596.204207 
L 242.181818 594.336145 
L 249.641711 592.116396 
L 257.101604 589.483324 
L 260.831551 587.99011 
L 264.561497 586.366385 
L 268.291444 584.601858 
L 272.02139 582.685636 
L 275.751337 580.60623 
L 279.481283 578.35157 
L 283.21123 575.90903 
L 286.941176 573.26547 
L 290.671123 570.407288 
L 294.40107 567.320497 
L 298.131016 563.990814 
L 301.860963 560.40378 
L 305.590909 556.544895 
L 309.320856 552.399788 
L 313.050802 547.954404 
L 316.780749 543.195233 
L 320.510695 538.109554 
L 324.240642 532.685708 
L 327.970588 526.913406 
L 331.700535 520.784042 
L 335.430481 514.291029 
L 339.160428 507.430146 
L 342.890374 500.199872 
L 346.620321 492.601718 
L 350.350267 484.640525 
L 354.080214 476.324737 
L 357.81016 467.666603 
L 361.540107 458.682328 
L 369 439.820252 
L 376.459893 419.947403 
L 383.919786 399.330112 
L 410.029412 325.995498 
L 417.489305 306.086139 
L 424.949198 287.177593 
L 428.679144 278.167134 
L 432.409091 269.481293 
L 436.139037 261.136605 
L 439.868984 253.145646 
L 443.59893 245.517164 
L 447.328877 238.256292 
L 451.058824 231.364806 
L 454.78877 224.841423 
L 458.518717 218.682133 
L 462.248663 212.880533 
L 465.97861 207.428172 
L 469.708556 202.314885 
L 473.438503 197.529118 
L 477.168449 193.058227 
L 480.898396 188.888755 
L 484.628342 185.006686 
L 488.358289 181.397667 
L 492.088235 178.047201 
L 495.818182 174.940821 
L 499.548128 172.064224 
L 503.278075 169.403395 
L 507.008021 166.944697 
L 510.737968 164.67495 
L 514.467914 162.581482 
L 518.197861 160.652178 
L 521.927807 158.875498 
L 525.657754 157.2405 
L 529.387701 155.736843 
L 536.847594 153.08518 
L 544.307487 150.849583 
L 551.76738 148.968059 
L 559.227273 147.386858 
L 566.687166 146.059684 
L 574.147059 144.946882 
L 581.606952 144.014636 
L 592.796791 142.893193 
L 603.986631 142.035341 
L 615.176471 141.37979 
L 622.636364 141.0313 
L 622.636364 141.0313 
" style="fill:none;stroke:#ff7f0e;stroke-linecap:square;stroke-width:1.5;"/>
   </g>
   <g id="line2d_35">
    <path clip-path="url(#p62d92bae2d)" d="M 115.363636 605.290909 
L 134.013369 604.755208 
L 148.933155 604.134518 
L 163.852941 603.270743 
L 175.042781 602.408309 
L 186.23262 601.305522 
L 193.692513 600.405274 
L 201.152406 599.346351 
L 208.612299 598.101818 
L 216.072193 596.640568 
L 223.532086 594.926823 
L 230.991979 592.919645 
L 238.451872 590.572475 
L 245.911765 587.832742 
L 249.641711 586.297526 
L 253.371658 584.641608 
L 257.101604 582.856645 
L 260.831551 580.933909 
L 264.561497 578.864307 
L 268.291444 576.6384 
L 272.02139 574.24644 
L 275.751337 571.678406 
L 279.481283 568.924063 
L 283.21123 565.973016 
L 286.941176 562.814796 
L 290.671123 559.438941 
L 294.40107 555.835106 
L 298.131016 551.993177 
L 301.860963 547.903403 
L 305.590909 543.556546 
L 309.320856 538.944037 
L 313.050802 534.058149 
L 316.780749 528.892179 
L 320.510695 523.440632 
L 324.240642 517.699418 
L 327.970588 511.666039 
L 331.700535 505.339769 
L 335.430481 498.721837 
L 339.160428 491.81557 
L 342.890374 484.626531 
L 346.620321 477.162621 
L 354.080214 461.453795 
L 361.540107 444.800358 
L 369 427.350423 
L 376.459893 409.284264 
L 387.649733 381.481882 
L 402.569519 344.257686 
L 410.029412 326.062019 
L 417.489305 308.397571 
L 424.949198 291.420083 
L 432.409091 275.252641 
L 439.868984 259.98468 
L 443.59893 252.707047 
L 447.328877 245.673343 
L 451.058824 238.886175 
L 454.78877 232.34659 
L 458.518717 226.054215 
L 462.248663 220.007409 
L 465.97861 214.203414 
L 469.708556 208.638501 
L 473.438503 203.308109 
L 477.168449 198.206979 
L 480.898396 193.329275 
L 484.628342 188.668702 
L 488.358289 184.21861 
L 492.088235 179.972082 
L 495.818182 175.922023 
L 499.548128 172.06123 
L 503.278075 168.382457 
L 507.008021 164.878469 
L 510.737968 161.54209 
L 514.467914 158.366243 
L 518.197861 155.343977 
L 525.657754 149.733205 
L 533.117647 144.657665 
L 540.57754 140.06852 
L 548.037433 135.920434 
L 555.497326 132.171641 
L 562.957219 128.783887 
L 570.417112 125.722297 
L 577.877005 122.955186 
L 585.336898 120.453849 
L 592.796791 118.192332 
L 600.256684 116.147205 
L 607.716578 114.297336 
L 615.176471 112.623682 
L 622.636364 111.109091 
L 622.636364 111.109091 
" style="fill:none;stroke:#2ca02c;stroke-linecap:square;stroke-width:1.5;"/>
   </g>
   <g id="line2d_36">
    <path clip-path="url(#p62d92bae2d)" d="M 115.363636 605.290909 
L 126.553476 604.618408 
L 137.743316 603.725946 
L 148.933155 602.578881 
L 160.122995 601.137686 
L 167.582888 599.991562 
L 175.042781 598.680197 
L 182.502674 597.187717 
L 189.962567 595.497035 
L 197.42246 593.589836 
L 204.882353 591.446582 
L 212.342246 589.046535 
L 219.802139 586.367824 
L 227.262032 583.387541 
L 234.721925 580.081884 
L 242.181818 576.426352 
L 249.641711 572.396001 
L 257.101604 567.965768 
L 264.561497 563.110858 
L 272.02139 557.807211 
L 279.481283 552.032046 
L 286.941176 545.76447 
L 294.40107 538.986156 
L 301.860963 531.682065 
L 309.320856 523.841209 
L 316.780749 515.457407 
L 324.240642 506.530019 
L 331.700535 497.06462 
L 339.160428 487.073559 
L 346.620321 476.576381 
L 354.080214 465.600058 
L 361.540107 454.178998 
L 369 442.354816 
L 376.459893 430.175841 
L 387.649733 411.362337 
L 398.839572 392.077057 
L 436.139037 327.219906 
L 447.328877 308.416355 
L 454.78877 296.222782 
L 462.248663 284.35503 
L 469.708556 272.850688 
L 477.168449 261.74087 
L 484.628342 251.050269 
L 492.088235 240.797378 
L 499.548128 230.994842 
L 507.008021 221.649919 
L 514.467914 212.765002 
L 521.927807 204.338181 
L 529.387701 196.363827 
L 536.847594 188.833156 
L 544.307487 181.734779 
L 551.76738 175.055214 
L 559.227273 168.779349 
L 566.687166 162.89087 
L 574.147059 157.372626 
L 581.606952 152.20695 
L 589.066845 147.375936 
L 596.526738 142.861669 
L 603.986631 138.646414 
L 611.446524 134.712767 
L 618.906417 131.043781 
L 622.636364 129.303389 
L 622.636364 129.303389 
" style="fill:none;stroke:#d62728;stroke-linecap:square;stroke-width:1.5;"/>
   </g>
   <g id="line2d_37">
    <path clip-path="url(#p62d92bae2d)" d="M 115.363636 605.290909 
L 130.283422 605.151786 
L 148.933155 604.700882 
L 163.852941 604.12535 
L 178.772727 603.293468 
L 189.962567 602.440312 
L 201.152406 601.324822 
L 208.612299 600.397593 
L 216.072193 599.290919 
L 223.532086 597.97128 
L 230.991979 596.399386 
L 238.451872 594.52941 
L 245.911765 592.308201 
L 253.371658 589.674535 
L 257.101604 588.181531 
L 260.831551 586.558481 
L 264.561497 584.795211 
L 268.291444 582.880969 
L 272.02139 580.804433 
L 275.751337 578.553727 
L 279.481283 576.116451 
L 283.21123 573.47973 
L 286.941176 570.630264 
L 290.671123 567.554416 
L 294.40107 564.238299 
L 298.131016 560.667901 
L 301.860963 556.829226 
L 305.590909 552.70846 
L 309.320856 548.292167 
L 313.050802 543.567505 
L 316.780749 538.522477 
L 320.510695 533.146197 
L 324.240642 527.42918 
L 327.970588 521.363652 
L 331.700535 514.943867 
L 335.430481 508.166428 
L 339.160428 501.030601 
L 342.890374 493.538618 
L 346.620321 485.695941 
L 350.350267 477.511494 
L 354.080214 468.997837 
L 357.81016 460.171274 
L 365.270053 441.663464 
L 372.729947 422.192313 
L 380.18984 402.01449 
L 406.299465 330.269847 
L 413.759358 310.742804 
L 421.219251 292.147615 
L 424.949198 283.263238 
L 428.679144 274.681206 
L 432.409091 266.417093 
L 436.139037 258.482863 
L 439.868984 250.887001 
L 443.59893 243.634702 
L 447.328877 236.7281 
L 451.058824 230.166536 
L 454.78877 223.946851 
L 458.518717 218.063686 
L 462.248663 212.509784 
L 465.97861 207.276293 
L 469.708556 202.353052 
L 473.438503 197.72886 
L 477.168449 193.391729 
L 480.898396 189.329109 
L 484.628342 185.528093 
L 488.358289 181.975594 
L 492.088235 178.658503 
L 495.818182 175.563817 
L 499.548128 172.678754 
L 503.278075 169.99084 
L 507.008021 167.48798 
L 510.737968 165.158517 
L 514.467914 162.99127 
L 518.197861 160.975565 
L 521.927807 159.101251 
L 525.657754 157.358711 
L 533.117647 154.23314 
L 540.57754 151.532452 
L 548.037433 149.198281 
L 555.497326 147.17972 
L 562.957219 145.432635 
L 570.417112 143.918943 
L 577.877005 142.6059 
L 585.336898 141.465423 
L 596.526738 140.02664 
L 607.716578 138.855855 
L 618.906417 137.900104 
L 622.636364 137.621792 
L 622.636364 137.621792 
" style="fill:none;stroke:#9467bd;stroke-linecap:square;stroke-width:1.5;"/>
   </g>
   <g id="line2d_38">
    <path clip-path="url(#p62d92bae2d)" d="M 115.363636 605.290909 
L 130.283422 605.16015 
L 145.203209 604.829444 
L 160.122995 604.305964 
L 175.042781 603.534221 
L 186.23262 602.734629 
L 197.42246 601.682051 
L 204.882353 600.8029 
L 212.342246 599.749928 
L 219.802139 598.490286 
L 227.262032 596.985445 
L 234.721925 595.19045 
L 242.181818 593.053186 
L 249.641711 590.513697 
L 253.371658 589.0721 
L 257.101604 587.503645 
L 260.831551 585.798432 
L 264.561497 583.946022 
L 268.291444 581.93545 
L 272.02139 579.755254 
L 275.751337 577.39351 
L 279.481283 574.837888 
L 283.21123 572.075716 
L 286.941176 569.09407 
L 290.671123 565.879875 
L 294.40107 562.420038 
L 298.131016 558.70159 
L 301.860963 554.711862 
L 305.590909 550.438676 
L 309.320856 545.870559 
L 313.050802 540.996984 
L 316.780749 535.808616 
L 320.510695 530.297578 
L 324.240642 524.457727 
L 327.970588 518.284922 
L 331.700535 511.77729 
L 335.430481 504.935478 
L 339.160428 497.762871 
L 342.890374 490.265781 
L 346.620321 482.453587 
L 350.350267 474.338821 
L 357.81016 457.267524 
L 365.270053 439.214282 
L 372.729947 420.385985 
L 383.919786 391.226229 
L 398.839572 352.03794 
L 406.299465 332.903342 
L 413.759358 314.387349 
L 421.219251 296.681165 
L 428.679144 279.934729 
L 432.409091 271.956575 
L 436.139037 264.255309 
L 439.868984 256.837957 
L 443.59893 249.709224 
L 447.328877 242.871663 
L 451.058824 236.325853 
L 454.78877 230.070589 
L 458.518717 224.103074 
L 462.248663 218.419118 
L 465.97861 213.013319 
L 469.708556 207.879253 
L 473.438503 203.009638 
L 477.168449 198.396496 
L 480.898396 194.031306 
L 484.628342 189.90513 
L 488.358289 186.00874 
L 492.088235 182.332722 
L 495.818182 178.867575 
L 499.548128 175.603787 
L 503.278075 172.531911 
L 507.008021 169.642626 
L 510.737968 166.926781 
L 514.467914 164.375443 
L 518.197861 161.979927 
L 521.927807 159.731821 
L 525.657754 157.62301 
L 533.117647 153.792353 
L 540.57754 150.429335 
L 548.037433 147.480506 
L 555.497326 144.89752 
L 562.957219 142.63693 
L 570.417112 140.659903 
L 577.877005 138.931885 
L 585.336898 137.422238 
L 592.796791 136.103885 
L 600.256684 134.952949 
L 611.446524 133.495212 
L 622.636364 132.307087 
L 622.636364 132.307087 
" style="fill:none;stroke:#8c564b;stroke-linecap:square;stroke-width:1.5;"/>
   </g>
   <g id="line2d_39">
    <path clip-path="url(#p62d92bae2d)" d="M 115.363636 605.290909 
L 134.013369 605.184816 
L 152.663102 604.871622 
L 167.582888 604.43813 
L 182.502674 603.774535 
L 193.692513 603.065445 
L 204.882353 602.107739 
L 212.342246 601.291184 
L 219.802139 600.296887 
L 227.262032 599.087833 
L 234.721925 597.61993 
L 242.181818 595.841003 
L 249.641711 593.689809 
L 253.371658 592.45277 
L 257.101604 591.095145 
L 260.831551 589.606372 
L 264.561497 587.97521 
L 268.291444 586.189743 
L 272.02139 584.237404 
L 275.751337 582.10501 
L 279.481283 579.778814 
L 283.21123 577.24458 
L 286.941176 574.487685 
L 290.671123 571.493237 
L 294.40107 568.246231 
L 298.131016 564.73173 
L 301.860963 560.935075 
L 305.590909 556.842133 
L 309.320856 552.439561 
L 313.050802 547.715107 
L 316.780749 542.657925 
L 320.510695 537.258906 
L 324.240642 531.511017 
L 327.970588 525.409623 
L 331.700535 518.952809 
L 335.430481 512.141654 
L 339.160428 504.980477 
L 342.890374 497.477007 
L 346.620321 489.642506 
L 350.350267 481.491791 
L 354.080214 473.043191 
L 361.540107 455.342228 
L 369 436.748804 
L 376.459893 417.510559 
L 406.299465 339.545371 
L 413.759358 321.065093 
L 421.219251 303.391116 
L 428.679144 286.655161 
L 432.409091 278.668896 
L 436.139037 270.948251 
L 439.868984 263.498803 
L 443.59893 256.324096 
L 447.328877 249.425817 
L 451.058824 242.803967 
L 454.78877 236.457052 
L 458.518717 230.382248 
L 462.248663 224.575578 
L 465.97861 219.032074 
L 469.708556 213.745927 
L 473.438503 208.710631 
L 477.168449 203.919112 
L 480.898396 199.363851 
L 484.628342 195.036986 
L 488.358289 190.930412 
L 492.088235 187.035865 
L 495.818182 183.344999 
L 499.548128 179.849447 
L 503.278075 176.540881 
L 507.008021 173.411058 
L 510.737968 170.451864 
L 514.467914 167.655343 
L 518.197861 165.013729 
L 521.927807 162.519465 
L 525.657754 160.165224 
L 533.117647 155.848712 
L 540.57754 152.010547 
L 548.037433 148.601235 
L 555.497326 145.575452 
L 562.957219 142.891939 
L 570.417112 140.513334 
L 577.877005 138.405944 
L 585.336898 136.539497 
L 592.796791 134.886877 
L 600.256684 133.423856 
L 607.716578 132.128833 
L 618.906417 130.459842 
L 622.636364 129.96804 
L 622.636364 129.96804 
" style="fill:none;stroke:#e377c2;stroke-linecap:square;stroke-width:1.5;"/>
   </g>
   <g id="line2d_40">
    <path clip-path="url(#p62d92bae2d)" d="M 115.363636 605.290909 
L 126.553476 605.178714 
L 141.473262 604.802455 
L 156.393048 604.216645 
L 171.312834 603.372431 
L 182.502674 602.512074 
L 193.692513 601.394329 
L 201.152406 600.470468 
L 208.612299 599.37315 
L 216.072193 598.071257 
L 223.532086 596.528592 
L 230.991979 594.703267 
L 238.451872 592.547095 
L 245.911765 590.005043 
L 249.641711 588.570134 
L 253.371658 587.014807 
L 257.101604 585.330102 
L 260.831551 583.506594 
L 264.561497 581.534407 
L 268.291444 579.403235 
L 272.02139 577.102373 
L 275.751337 574.62076 
L 279.481283 571.947035 
L 283.21123 569.069607 
L 286.941176 565.976737 
L 290.671123 562.656647 
L 294.40107 559.097629 
L 298.131016 555.288196 
L 301.860963 551.217227 
L 305.590909 546.874149 
L 309.320856 542.249129 
L 313.050802 537.33328 
L 316.780749 532.118885 
L 320.510695 526.599623 
L 324.240642 520.770809 
L 327.970588 514.629625 
L 331.700535 508.175348 
L 335.430481 501.409561 
L 339.160428 494.336339 
L 342.890374 486.962411 
L 346.620321 479.297273 
L 350.350267 471.353261 
L 357.81016 454.692203 
L 365.270053 437.133881 
L 372.729947 418.873158 
L 383.919786 390.667493 
L 398.839572 352.856146 
L 406.299465 334.4207 
L 413.759358 316.594858 
L 421.219251 299.561241 
L 428.679144 283.463861 
L 432.409091 275.800188 
L 436.139037 268.406279 
L 439.868984 261.288956 
L 443.59893 254.452793 
L 447.328877 247.90027 
L 451.058824 241.631936 
L 454.78877 235.646595 
L 458.518717 229.941486 
L 462.248663 224.51247 
L 465.97861 219.354218 
L 469.708556 214.460382 
L 473.438503 209.823768 
L 477.168449 205.436492 
L 480.898396 201.290131 
L 484.628342 197.375847 
L 488.358289 193.68452 
L 492.088235 190.206844 
L 495.818182 186.933429 
L 499.548128 183.854881 
L 503.278075 180.961873 
L 507.008021 178.245206 
L 510.737968 175.695857 
L 514.467914 173.305021 
L 518.197861 171.064148 
L 521.927807 168.96496 
L 525.657754 166.99948 
L 533.117647 163.43929 
L 540.57754 160.326092 
L 548.037433 157.607584 
L 555.497326 155.236567 
L 562.957219 153.170728 
L 570.417112 151.372342 
L 577.877005 149.807932 
L 585.336898 148.4479 
L 592.796791 147.266165 
L 603.986631 145.778502 
L 615.176471 144.575294 
L 622.636364 143.904181 
L 622.636364 143.904181 
" style="fill:none;stroke:#7f7f7f;stroke-linecap:square;stroke-width:1.5;"/>
   </g>
   <g id="line2d_41">
    <path clip-path="url(#p62d92bae2d)" d="M 115.363636 605.290909 
L 130.283422 605.149341 
L 148.933155 604.705768 
L 163.852941 604.143826 
L 178.772727 603.329132 
L 189.962567 602.489841 
L 201.152406 601.387859 
L 208.612299 600.468742 
L 216.072193 599.36884 
L 223.532086 598.053962 
L 230.991979 596.484039 
L 238.451872 594.612366 
L 245.911765 592.384855 
L 253.371658 589.739373 
L 257.101604 588.238145 
L 260.831551 586.605232 
L 264.561497 584.830425 
L 268.291444 582.902976 
L 272.02139 580.811617 
L 275.751337 578.544595 
L 279.481283 576.089712 
L 283.21123 573.434392 
L 286.941176 570.565755 
L 290.671123 567.470715 
L 294.40107 564.136097 
L 298.131016 560.548784 
L 301.860963 556.695872 
L 305.590909 552.564862 
L 309.320856 548.143875 
L 313.050802 543.421875 
L 316.780749 538.38893 
L 320.510695 533.036481 
L 324.240642 527.357613 
L 327.970588 521.347348 
L 331.700535 515.002925 
L 335.430481 508.324062 
L 339.160428 501.313211 
L 342.890374 493.975765 
L 346.620321 486.32023 
L 350.350267 478.358341 
L 354.080214 470.105106 
L 361.540107 452.800829 
L 369 434.590277 
L 376.459893 415.699302 
L 391.379679 376.921935 
L 402.569519 348.042713 
L 410.029412 329.366907 
L 417.489305 311.403473 
L 424.949198 294.320817 
L 432.409091 278.242175 
L 436.139037 270.605665 
L 439.868984 263.246474 
L 443.59893 256.168185 
L 447.328877 249.372216 
L 451.058824 242.858027 
L 454.78877 236.623344 
L 458.518717 230.664375 
L 462.248663 224.976028 
L 465.97861 219.552117 
L 469.708556 214.385553 
L 473.438503 209.468529 
L 477.168449 204.792682 
L 480.898396 200.349242 
L 484.628342 196.129166 
L 488.358289 192.123249 
L 492.088235 188.32223 
L 495.818182 184.716874 
L 499.548128 181.298044 
L 503.278075 178.056763 
L 507.008021 174.98426 
L 510.737968 172.072008 
L 514.467914 169.311756 
L 518.197861 166.695548 
L 525.657754 161.865011 
L 533.117647 157.52312 
L 540.57754 153.617802 
L 548.037433 150.10207 
L 555.497326 146.933776 
L 562.957219 144.075284 
L 570.417112 141.493093 
L 577.877005 139.157456 
L 585.336898 137.042001 
L 592.796791 135.123368 
L 600.256684 133.380879 
L 611.446524 131.057948 
L 622.636364 129.037425 
L 622.636364 129.037425 
" style="fill:none;stroke:#bcbd22;stroke-linecap:square;stroke-width:1.5;"/>
   </g>
   <g id="line2d_42">
    <path clip-path="url(#p62d92bae2d)" d="M 115.363636 605.290909 
L 145.203209 605.1835 
L 160.122995 604.941829 
L 171.312834 604.216817 
L 175.042781 604.028851 
L 178.772727 603.706624 
L 186.23262 603.276987 
L 189.962567 602.820498 
L 193.692513 602.149191 
L 204.882353 601.182509 
L 208.612299 600.672315 
L 212.342246 599.974156 
L 216.072193 599.490814 
L 219.802139 599.249144 
L 223.532086 598.873212 
L 230.991979 597.825972 
L 238.451872 596.026869 
L 242.181818 594.549993 
L 245.911765 593.314787 
L 249.641711 592.428662 
L 253.371658 591.676798 
L 260.831551 588.642489 
L 264.561497 587.138761 
L 268.291444 586.145226 
L 272.02139 584.480384 
L 275.751337 583.647963 
L 279.481283 583.191474 
L 283.21123 581.848859 
L 286.941176 580.909029 
L 290.671123 579.834938 
L 294.40107 578.384914 
L 298.131016 577.391379 
L 301.860963 576.183026 
L 305.590909 575.108934 
L 309.320856 573.148717 
L 316.780749 567.805111 
L 320.510695 564.74395 
L 324.240642 559.427197 
L 327.970588 554.620637 
L 331.700535 552.096521 
L 335.430481 545.27604 
L 342.890374 530.1582 
L 346.620321 521.13583 
L 350.350267 511.17363 
L 354.080214 501.748476 
L 357.81016 495.46504 
L 361.540107 485.395431 
L 365.270053 471.029456 
L 369 455.079195 
L 372.729947 438.001139 
L 376.459893 419.177683 
L 380.18984 405.160787 
L 383.919786 397.1051 
L 387.649733 383.571545 
L 398.839572 338.432845 
L 402.569519 322.589993 
L 406.299465 312.762055 
L 410.029412 303.524867 
L 413.759358 293.24044 
L 417.489305 282.606933 
L 421.219251 271.006743 
L 424.949198 260.668611 
L 428.679144 251.753651 
L 432.409091 245.872999 
L 436.139037 241.281257 
L 439.868984 233.655207 
L 443.59893 227.855112 
L 447.328877 222.269836 
L 451.058824 214.912308 
L 454.78877 206.776064 
L 458.518717 201.405606 
L 462.248663 196.894421 
L 465.97861 193.537885 
L 473.438503 188.194279 
L 477.168449 185.85813 
L 480.898396 182.770116 
L 484.628342 180.917308 
L 488.358289 179.923773 
L 492.088235 177.587624 
L 495.818182 176.24501 
L 499.548128 173.613485 
L 507.008021 170.767142 
L 510.737968 170.122687 
L 514.467914 169.236562 
L 518.197861 168.484698 
L 521.927807 167.57172 
L 525.657754 166.470776 
L 533.117647 165.181866 
L 536.847594 164.080922 
L 540.57754 163.517024 
L 548.037433 162.013295 
L 551.76738 160.133635 
L 555.497326 158.119713 
L 559.227273 156.965065 
L 566.687166 155.058552 
L 570.417112 153.715938 
L 574.147059 152.910369 
L 589.066845 148.291775 
L 592.796791 147.727877 
L 596.526738 146.35841 
L 600.256684 145.41858 
L 603.986631 144.317636 
L 607.716578 142.625942 
L 611.446524 141.471293 
L 615.176471 139.430519 
L 618.906417 137.550859 
L 622.636364 136.342506 
L 622.636364 136.342506 
" style="fill:none;stroke:#17becf;stroke-dasharray:14.8,6.4;stroke-dashoffset:0;stroke-width:4;"/>
   </g>
   <g id="patch_3">
    <path d="M 90 630 
L 90 86.4 
" style="fill:none;stroke:#000000;stroke-linecap:square;stroke-linejoin:miter;stroke-width:0.8;"/>
   </g>
   <g id="patch_4">
    <path d="M 648 630 
L 648 86.4 
" style="fill:none;stroke:#000000;stroke-linecap:square;stroke-linejoin:miter;stroke-width:0.8;"/>
   </g>
   <g id="patch_5">
    <path d="M 90 630 
L 648 630 
" style="fill:none;stroke:#000000;stroke-linecap:square;stroke-linejoin:miter;stroke-width:0.8;"/>
   </g>
   <g id="patch_6">
    <path d="M 90 86.4 
L 648 86.4 
" style="fill:none;stroke:#000000;stroke-linecap:square;stroke-linejoin:miter;stroke-width:0.8;"/>
   </g>
   <g id="text_19">
    <!-- Japan relative err =  -->
    <g transform="translate(308.46 80.4)scale(0.12 -0.12)">
     <defs>
      <path d="M 9.8125 72.90625 
L 19.671875 72.90625 
L 19.671875 5.078125 
Q 19.671875 -8.109375 14.671875 -14.0625 
Q 9.671875 -20.015625 -1.421875 -20.015625 
L -5.171875 -20.015625 
L -5.171875 -11.71875 
L -2.09375 -11.71875 
Q 4.4375 -11.71875 7.125 -8.046875 
Q 9.8125 -4.390625 9.8125 5.078125 
z
" id="DejaVuSans-74"/>
      <path d="M 18.109375 8.203125 
L 18.109375 -20.796875 
L 9.078125 -20.796875 
L 9.078125 54.6875 
L 18.109375 54.6875 
L 18.109375 46.390625 
Q 20.953125 51.265625 25.265625 53.625 
Q 29.59375 56 35.59375 56 
Q 45.5625 56 51.78125 48.09375 
Q 58.015625 40.1875 58.015625 27.296875 
Q 58.015625 14.40625 51.78125 6.484375 
Q 45.5625 -1.421875 35.59375 -1.421875 
Q 29.59375 -1.421875 25.265625 0.953125 
Q 20.953125 3.328125 18.109375 8.203125 
z
M 48.6875 27.296875 
Q 48.6875 37.203125 44.609375 42.84375 
Q 40.53125 48.484375 33.40625 48.484375 
Q 26.265625 48.484375 22.1875 42.84375 
Q 18.109375 37.203125 18.109375 27.296875 
Q 18.109375 17.390625 22.1875 11.75 
Q 26.265625 6.109375 33.40625 6.109375 
Q 40.53125 6.109375 44.609375 11.75 
Q 48.6875 17.390625 48.6875 27.296875 
z
" id="DejaVuSans-112"/>
      <path d="M 54.890625 33.015625 
L 54.890625 0 
L 45.90625 0 
L 45.90625 32.71875 
Q 45.90625 40.484375 42.875 44.328125 
Q 39.84375 48.1875 33.796875 48.1875 
Q 26.515625 48.1875 22.3125 43.546875 
Q 18.109375 38.921875 18.109375 30.90625 
L 18.109375 0 
L 9.078125 0 
L 9.078125 54.6875 
L 18.109375 54.6875 
L 18.109375 46.1875 
Q 21.34375 51.125 25.703125 53.5625 
Q 30.078125 56 35.796875 56 
Q 45.21875 56 50.046875 50.171875 
Q 54.890625 44.34375 54.890625 33.015625 
z
" id="DejaVuSans-110"/>
      <path d="M 41.109375 46.296875 
Q 39.59375 47.171875 37.8125 47.578125 
Q 36.03125 48 33.890625 48 
Q 26.265625 48 22.1875 43.046875 
Q 18.109375 38.09375 18.109375 28.8125 
L 18.109375 0 
L 9.078125 0 
L 9.078125 54.6875 
L 18.109375 54.6875 
L 18.109375 46.1875 
Q 20.953125 51.171875 25.484375 53.578125 
Q 30.03125 56 36.53125 56 
Q 37.453125 56 38.578125 55.875 
Q 39.703125 55.765625 41.0625 55.515625 
z
" id="DejaVuSans-114"/>
      <path d="M 10.59375 45.40625 
L 73.1875 45.40625 
L 73.1875 37.203125 
L 10.59375 37.203125 
z
M 10.59375 25.484375 
L 73.1875 25.484375 
L 73.1875 17.1875 
L 10.59375 17.1875 
z
" id="DejaVuSans-61"/>
     </defs>
     <use xlink:href="#DejaVuSans-74"/>
     <use x="29.492188" xlink:href="#DejaVuSans-97"/>
     <use x="90.771484" xlink:href="#DejaVuSans-112"/>
     <use x="154.248047" xlink:href="#DejaVuSans-97"/>
     <use x="215.527344" xlink:href="#DejaVuSans-110"/>
     <use x="278.90625" xlink:href="#DejaVuSans-32"/>
     <use x="310.693359" xlink:href="#DejaVuSans-114"/>
     <use x="349.556641" xlink:href="#DejaVuSans-101"/>
     <use x="411.080078" xlink:href="#DejaVuSans-108"/>
     <use x="438.863281" xlink:href="#DejaVuSans-97"/>
     <use x="500.142578" xlink:href="#DejaVuSans-116"/>
     <use x="539.351562" xlink:href="#DejaVuSans-105"/>
     <use x="567.134766" xlink:href="#DejaVuSans-118"/>
     <use x="626.314453" xlink:href="#DejaVuSans-101"/>
     <use x="687.837891" xlink:href="#DejaVuSans-32"/>
     <use x="719.625" xlink:href="#DejaVuSans-101"/>
     <use x="781.148438" xlink:href="#DejaVuSans-114"/>
     <use x="820.511719" xlink:href="#DejaVuSans-114"/>
     <use x="861.625" xlink:href="#DejaVuSans-32"/>
     <use x="893.412109" xlink:href="#DejaVuSans-61"/>
     <use x="977.201172" xlink:href="#DejaVuSans-32"/>
    </g>
   </g>
   <g id="legend_1">
    <g id="patch_7">
     <path d="M 97 226.503125 
L 185.6 226.503125 
Q 187.6 226.503125 187.6 224.503125 
L 187.6 93.4 
Q 187.6 91.4 185.6 91.4 
L 97 91.4 
Q 95 91.4 95 93.4 
L 95 224.503125 
Q 95 226.503125 97 226.503125 
z
" style="fill:#ffffff;opacity:0.8;stroke:#cccccc;stroke-linejoin:miter;"/>
    </g>
    <g id="line2d_43">
     <path d="M 99 99.498438 
L 119 99.498438 
" style="fill:none;stroke:#1f77b4;stroke-linecap:square;stroke-width:1.5;"/>
    </g>
    <g id="line2d_44"/>
    <g id="text_20">
     <!-- SI -->
     <g transform="translate(127 102.998438)scale(0.1 -0.1)">
      <defs>
       <path d="M 53.515625 70.515625 
L 53.515625 60.890625 
Q 47.90625 63.578125 42.921875 64.890625 
Q 37.9375 66.21875 33.296875 66.21875 
Q 25.25 66.21875 20.875 63.09375 
Q 16.5 59.96875 16.5 54.203125 
Q 16.5 49.359375 19.40625 46.890625 
Q 22.3125 44.4375 30.421875 42.921875 
L 36.375 41.703125 
Q 47.40625 39.59375 52.65625 34.296875 
Q 57.90625 29 57.90625 20.125 
Q 57.90625 9.515625 50.796875 4.046875 
Q 43.703125 -1.421875 29.984375 -1.421875 
Q 24.8125 -1.421875 18.96875 -0.25 
Q 13.140625 0.921875 6.890625 3.21875 
L 6.890625 13.375 
Q 12.890625 10.015625 18.65625 8.296875 
Q 24.421875 6.59375 29.984375 6.59375 
Q 38.421875 6.59375 43.015625 9.90625 
Q 47.609375 13.234375 47.609375 19.390625 
Q 47.609375 24.75 44.3125 27.78125 
Q 41.015625 30.8125 33.5 32.328125 
L 27.484375 33.5 
Q 16.453125 35.6875 11.515625 40.375 
Q 6.59375 45.0625 6.59375 53.421875 
Q 6.59375 63.09375 13.40625 68.65625 
Q 20.21875 74.21875 32.171875 74.21875 
Q 37.3125 74.21875 42.625 73.28125 
Q 47.953125 72.359375 53.515625 70.515625 
z
" id="DejaVuSans-83"/>
       <path d="M 9.8125 72.90625 
L 19.671875 72.90625 
L 19.671875 0 
L 9.8125 0 
z
" id="DejaVuSans-73"/>
      </defs>
      <use xlink:href="#DejaVuSans-83"/>
      <use x="63.476562" xlink:href="#DejaVuSans-73"/>
     </g>
    </g>
    <g id="line2d_45">
     <path d="M 99 114.176563 
L 119 114.176563 
" style="fill:none;stroke:#ff7f0e;stroke-linecap:square;stroke-width:1.5;"/>
    </g>
    <g id="line2d_46"/>
    <g id="text_21">
     <!-- BD -->
     <g transform="translate(127 117.676563)scale(0.1 -0.1)">
      <defs>
       <path d="M 19.671875 34.8125 
L 19.671875 8.109375 
L 35.5 8.109375 
Q 43.453125 8.109375 47.28125 11.40625 
Q 51.125 14.703125 51.125 21.484375 
Q 51.125 28.328125 47.28125 31.5625 
Q 43.453125 34.8125 35.5 34.8125 
z
M 19.671875 64.796875 
L 19.671875 42.828125 
L 34.28125 42.828125 
Q 41.5 42.828125 45.03125 45.53125 
Q 48.578125 48.25 48.578125 53.8125 
Q 48.578125 59.328125 45.03125 62.0625 
Q 41.5 64.796875 34.28125 64.796875 
z
M 9.8125 72.90625 
L 35.015625 72.90625 
Q 46.296875 72.90625 52.390625 68.21875 
Q 58.5 63.53125 58.5 54.890625 
Q 58.5 48.1875 55.375 44.234375 
Q 52.25 40.28125 46.1875 39.3125 
Q 53.46875 37.75 57.5 32.78125 
Q 61.53125 27.828125 61.53125 20.40625 
Q 61.53125 10.640625 54.890625 5.3125 
Q 48.25 0 35.984375 0 
L 9.8125 0 
z
" id="DejaVuSans-66"/>
      </defs>
      <use xlink:href="#DejaVuSans-66"/>
      <use x="68.603516" xlink:href="#DejaVuSans-68"/>
     </g>
    </g>
    <g id="line2d_47">
     <path d="M 99 128.854688 
L 119 128.854688 
" style="fill:none;stroke:#2ca02c;stroke-linecap:square;stroke-width:1.5;"/>
    </g>
    <g id="line2d_48"/>
    <g id="text_22">
     <!-- SIR -->
     <g transform="translate(127 132.354688)scale(0.1 -0.1)">
      <defs>
       <path d="M 44.390625 34.1875 
Q 47.5625 33.109375 50.5625 29.59375 
Q 53.5625 26.078125 56.59375 19.921875 
L 66.609375 0 
L 56 0 
L 46.6875 18.703125 
Q 43.0625 26.03125 39.671875 28.421875 
Q 36.28125 30.8125 30.421875 30.8125 
L 19.671875 30.8125 
L 19.671875 0 
L 9.8125 0 
L 9.8125 72.90625 
L 32.078125 72.90625 
Q 44.578125 72.90625 50.734375 67.671875 
Q 56.890625 62.453125 56.890625 51.90625 
Q 56.890625 45.015625 53.6875 40.46875 
Q 50.484375 35.9375 44.390625 34.1875 
z
M 19.671875 64.796875 
L 19.671875 38.921875 
L 32.078125 38.921875 
Q 39.203125 38.921875 42.84375 42.21875 
Q 46.484375 45.515625 46.484375 51.90625 
Q 46.484375 58.296875 42.84375 61.546875 
Q 39.203125 64.796875 32.078125 64.796875 
z
" id="DejaVuSans-82"/>
      </defs>
      <use xlink:href="#DejaVuSans-83"/>
      <use x="63.476562" xlink:href="#DejaVuSans-73"/>
      <use x="92.96875" xlink:href="#DejaVuSans-82"/>
     </g>
    </g>
    <g id="line2d_49">
     <path d="M 99 143.532812 
L 119 143.532812 
" style="fill:none;stroke:#d62728;stroke-linecap:square;stroke-width:1.5;"/>
    </g>
    <g id="line2d_50"/>
    <g id="text_23">
     <!-- eSIR -->
     <g transform="translate(127 147.032812)scale(0.1 -0.1)">
      <use xlink:href="#DejaVuSans-101"/>
      <use x="61.523438" xlink:href="#DejaVuSans-83"/>
      <use x="125" xlink:href="#DejaVuSans-73"/>
      <use x="154.492188" xlink:href="#DejaVuSans-82"/>
     </g>
    </g>
    <g id="line2d_51">
     <path d="M 99 158.210938 
L 119 158.210938 
" style="fill:none;stroke:#9467bd;stroke-linecap:square;stroke-width:1.5;"/>
    </g>
    <g id="line2d_52"/>
    <g id="text_24">
     <!-- SEIR -->
     <g transform="translate(127 161.710938)scale(0.1 -0.1)">
      <defs>
       <path d="M 9.8125 72.90625 
L 55.90625 72.90625 
L 55.90625 64.59375 
L 19.671875 64.59375 
L 19.671875 43.015625 
L 54.390625 43.015625 
L 54.390625 34.71875 
L 19.671875 34.71875 
L 19.671875 8.296875 
L 56.78125 8.296875 
L 56.78125 0 
L 9.8125 0 
z
" id="DejaVuSans-69"/>
      </defs>
      <use xlink:href="#DejaVuSans-83"/>
      <use x="63.476562" xlink:href="#DejaVuSans-69"/>
      <use x="126.660156" xlink:href="#DejaVuSans-73"/>
      <use x="156.152344" xlink:href="#DejaVuSans-82"/>
     </g>
    </g>
    <g id="line2d_53">
     <path d="M 99 172.889063 
L 119 172.889063 
" style="fill:none;stroke:#8c564b;stroke-linecap:square;stroke-width:1.5;"/>
    </g>
    <g id="line2d_54"/>
    <g id="text_25">
     <!-- eSEIR -->
     <g transform="translate(127 176.389063)scale(0.1 -0.1)">
      <use xlink:href="#DejaVuSans-101"/>
      <use x="61.523438" xlink:href="#DejaVuSans-83"/>
      <use x="125" xlink:href="#DejaVuSans-69"/>
      <use x="188.183594" xlink:href="#DejaVuSans-73"/>
      <use x="217.675781" xlink:href="#DejaVuSans-82"/>
     </g>
    </g>
    <g id="line2d_55">
     <path d="M 99 187.567188 
L 119 187.567188 
" style="fill:none;stroke:#e377c2;stroke-linecap:square;stroke-width:1.5;"/>
    </g>
    <g id="line2d_56"/>
    <g id="text_26">
     <!-- SEIUR -->
     <g transform="translate(127 191.067188)scale(0.1 -0.1)">
      <defs>
       <path d="M 8.6875 72.90625 
L 18.609375 72.90625 
L 18.609375 28.609375 
Q 18.609375 16.890625 22.84375 11.734375 
Q 27.09375 6.59375 36.625 6.59375 
Q 46.09375 6.59375 50.34375 11.734375 
Q 54.59375 16.890625 54.59375 28.609375 
L 54.59375 72.90625 
L 64.5 72.90625 
L 64.5 27.390625 
Q 64.5 13.140625 57.4375 5.859375 
Q 50.390625 -1.421875 36.625 -1.421875 
Q 22.796875 -1.421875 15.734375 5.859375 
Q 8.6875 13.140625 8.6875 27.390625 
z
" id="DejaVuSans-85"/>
      </defs>
      <use xlink:href="#DejaVuSans-83"/>
      <use x="63.476562" xlink:href="#DejaVuSans-69"/>
      <use x="126.660156" xlink:href="#DejaVuSans-73"/>
      <use x="156.152344" xlink:href="#DejaVuSans-85"/>
      <use x="229.345703" xlink:href="#DejaVuSans-82"/>
     </g>
    </g>
    <g id="line2d_57">
     <path d="M 99 202.245312 
L 119 202.245312 
" style="fill:none;stroke:#7f7f7f;stroke-linecap:square;stroke-width:1.5;"/>
    </g>
    <g id="line2d_58"/>
    <g id="text_27">
     <!-- eSEIUR -->
     <g transform="translate(127 205.745312)scale(0.1 -0.1)">
      <use xlink:href="#DejaVuSans-101"/>
      <use x="61.523438" xlink:href="#DejaVuSans-83"/>
      <use x="125" xlink:href="#DejaVuSans-69"/>
      <use x="188.183594" xlink:href="#DejaVuSans-73"/>
      <use x="217.675781" xlink:href="#DejaVuSans-85"/>
      <use x="290.869141" xlink:href="#DejaVuSans-82"/>
     </g>
    </g>
    <g id="line2d_59">
     <path d="M 99 216.923437 
L 119 216.923437 
" style="fill:none;stroke:#bcbd22;stroke-linecap:square;stroke-width:1.5;"/>
    </g>
    <g id="line2d_60"/>
    <g id="text_28">
     <!-- eSEIUR$^{range}$ -->
     <g transform="translate(127 220.423437)scale(0.1 -0.1)">
      <defs>
       <path d="M 44.578125 46.390625 
Q 43.21875 47.125 41.453125 47.515625 
Q 39.703125 47.90625 37.703125 47.90625 
Q 30.515625 47.90625 25.140625 42.453125 
Q 19.78125 37.015625 18.015625 27.875 
L 12.5 0 
L 3.515625 0 
L 14.203125 54.6875 
L 23.1875 54.6875 
L 21.484375 46.1875 
Q 25.046875 50.921875 30 53.453125 
Q 34.96875 56 40.578125 56 
Q 42.046875 56 43.453125 55.828125 
Q 44.875 55.671875 46.296875 55.28125 
z
" id="DejaVuSans-Oblique-114"/>
       <path d="M 53.71875 31.203125 
L 47.609375 0 
L 38.625 0 
L 40.28125 8.296875 
Q 36.328125 3.421875 31.265625 1 
Q 26.21875 -1.421875 20.015625 -1.421875 
Q 13.03125 -1.421875 8.5625 2.84375 
Q 4.109375 7.125 4.109375 13.8125 
Q 4.109375 23.390625 11.75 28.953125 
Q 19.390625 34.515625 32.8125 34.515625 
L 45.3125 34.515625 
L 45.796875 36.921875 
Q 45.90625 37.3125 45.953125 37.765625 
Q 46 38.234375 46 39.203125 
Q 46 43.5625 42.453125 45.96875 
Q 38.921875 48.390625 32.515625 48.390625 
Q 28.125 48.390625 23.5 47.265625 
Q 18.890625 46.140625 14.015625 43.890625 
L 15.578125 52.203125 
Q 20.65625 54.109375 25.515625 55.046875 
Q 30.375 56 34.90625 56 
Q 44.578125 56 49.625 51.796875 
Q 54.6875 47.609375 54.6875 39.59375 
Q 54.6875 37.984375 54.4375 35.8125 
Q 54.203125 33.640625 53.71875 31.203125 
z
M 44 27.484375 
L 35.015625 27.484375 
Q 23.96875 27.484375 18.671875 24.53125 
Q 13.375 21.578125 13.375 15.375 
Q 13.375 11.078125 16.078125 8.640625 
Q 18.796875 6.203125 23.578125 6.203125 
Q 30.90625 6.203125 36.375 11.453125 
Q 41.84375 16.703125 43.609375 25.484375 
z
" id="DejaVuSans-Oblique-97"/>
       <path d="M 55.71875 33.015625 
L 49.3125 0 
L 40.28125 0 
L 46.6875 32.671875 
Q 47.125 34.96875 47.359375 36.71875 
Q 47.609375 38.484375 47.609375 39.5 
Q 47.609375 43.609375 45.015625 45.890625 
Q 42.4375 48.1875 37.796875 48.1875 
Q 30.5625 48.1875 25.34375 43.375 
Q 20.125 38.578125 18.5 30.328125 
L 12.5 0 
L 3.515625 0 
L 14.109375 54.6875 
L 23.09375 54.6875 
L 21.296875 46.09375 
Q 25.046875 50.828125 30.3125 53.40625 
Q 35.59375 56 41.40625 56 
Q 48.640625 56 52.609375 52.09375 
Q 56.59375 48.1875 56.59375 41.109375 
Q 56.59375 39.359375 56.375 37.359375 
Q 56.15625 35.359375 55.71875 33.015625 
z
" id="DejaVuSans-Oblique-110"/>
       <path d="M 59.625 54.6875 
L 50.296875 6.78125 
Q 47.609375 -7.125 40.015625 -13.953125 
Q 32.421875 -20.796875 19.578125 -20.796875 
Q 14.84375 -20.796875 10.78125 -20.09375 
Q 6.734375 -19.390625 3.21875 -17.921875 
L 4.890625 -9.1875 
Q 8.203125 -11.328125 11.90625 -12.34375 
Q 15.625 -13.375 19.828125 -13.375 
Q 28.375 -13.375 33.859375 -8.703125 
Q 39.359375 -4.046875 41.109375 4.6875 
L 41.890625 8.796875 
Q 38.140625 4.5 33.15625 2.25 
Q 28.171875 0 22.40625 0 
Q 14.109375 0 9.34375 5.484375 
Q 4.59375 10.984375 4.59375 20.609375 
Q 4.59375 28.171875 7.46875 35.421875 
Q 10.359375 42.671875 15.578125 48.296875 
Q 19.046875 52 23.65625 54 
Q 28.265625 56 33.296875 56 
Q 38.8125 56 42.90625 53.4375 
Q 47.015625 50.875 49.03125 46.1875 
L 50.59375 54.6875 
z
M 46.09375 34.625 
Q 46.09375 41.265625 42.96875 44.875 
Q 39.84375 48.484375 34.078125 48.484375 
Q 30.515625 48.484375 27.296875 47.0625 
Q 24.078125 45.65625 21.78125 43.109375 
Q 18.0625 38.921875 15.984375 33.234375 
Q 13.921875 27.546875 13.921875 21.484375 
Q 13.921875 14.75 17.0625 11.125 
Q 20.21875 7.515625 26.125 7.515625 
Q 34.671875 7.515625 40.375 15.25 
Q 46.09375 23 46.09375 34.625 
z
" id="DejaVuSans-Oblique-103"/>
       <path d="M 48.09375 32.234375 
Q 48.25 33.015625 48.3125 33.84375 
Q 48.390625 34.671875 48.390625 35.5 
Q 48.390625 41.453125 44.890625 44.921875 
Q 41.40625 48.390625 35.40625 48.390625 
Q 28.71875 48.390625 23.578125 44.15625 
Q 18.453125 39.9375 15.828125 32.171875 
z
M 55.90625 25.203125 
L 14.109375 25.203125 
Q 13.8125 23.34375 13.71875 22.265625 
Q 13.625 21.1875 13.625 20.40625 
Q 13.625 13.625 17.796875 9.90625 
Q 21.96875 6.203125 29.59375 6.203125 
Q 35.453125 6.203125 40.671875 7.515625 
Q 45.90625 8.84375 50.390625 11.375 
L 48.6875 2.484375 
Q 43.84375 0.53125 38.6875 -0.4375 
Q 33.546875 -1.421875 28.21875 -1.421875 
Q 16.84375 -1.421875 10.71875 4.015625 
Q 4.59375 9.46875 4.59375 19.484375 
Q 4.59375 28.03125 7.640625 35.375 
Q 10.6875 42.71875 16.609375 48.484375 
Q 20.40625 52.09375 25.65625 54.046875 
Q 30.90625 56 36.8125 56 
Q 46.09375 56 51.578125 50.4375 
Q 57.078125 44.875 57.078125 35.5 
Q 57.078125 33.25 56.78125 30.6875 
Q 56.5 28.125 55.90625 25.203125 
z
" id="DejaVuSans-Oblique-101"/>
      </defs>
      <use transform="translate(0 0.51875)" xlink:href="#DejaVuSans-101"/>
      <use transform="translate(61.523438 0.51875)" xlink:href="#DejaVuSans-83"/>
      <use transform="translate(125 0.51875)" xlink:href="#DejaVuSans-69"/>
      <use transform="translate(188.183594 0.51875)" xlink:href="#DejaVuSans-73"/>
      <use transform="translate(217.675781 0.51875)" xlink:href="#DejaVuSans-85"/>
      <use transform="translate(288.619141 0.51875)" xlink:href="#DejaVuSans-82"/>
      <use transform="translate(359.058594 38.8)scale(0.7)" xlink:href="#DejaVuSans-Oblique-114"/>
      <use transform="translate(387.837891 38.8)scale(0.7)" xlink:href="#DejaVuSans-Oblique-97"/>
      <use transform="translate(430.733398 38.8)scale(0.7)" xlink:href="#DejaVuSans-Oblique-110"/>
      <use transform="translate(475.098633 38.8)scale(0.7)" xlink:href="#DejaVuSans-Oblique-103"/>
      <use transform="translate(519.532227 38.8)scale(0.7)" xlink:href="#DejaVuSans-Oblique-101"/>
     </g>
    </g>
   </g>
  </g>
 </g>
 <defs>
  <clipPath id="p62d92bae2d">
   <rect height="543.6" width="558" x="90" y="86.4"/>
  </clipPath>
 </defs>
</svg>
