<?xml version="1.0" encoding="utf-8" standalone="no"?>
<!DOCTYPE svg PUBLIC "-//W3C//DTD SVG 1.1//EN"
  "http://www.w3.org/Graphics/SVG/1.1/DTD/svg11.dtd">
<!-- Created with matplotlib (https://matplotlib.org/) -->
<svg height="720pt" version="1.1" viewBox="0 0 720 720" width="720pt" xmlns="http://www.w3.org/2000/svg" xmlns:xlink="http://www.w3.org/1999/xlink">
 <metadata>
  <rdf:RDF xmlns:cc="http://creativecommons.org/ns#" xmlns:dc="http://purl.org/dc/elements/1.1/" xmlns:rdf="http://www.w3.org/1999/02/22-rdf-syntax-ns#">
   <cc:Work>
    <dc:type rdf:resource="http://purl.org/dc/dcmitype/StillImage"/>
    <dc:date>2022-07-13T18:54:04.968889</dc:date>
    <dc:format>image/svg+xml</dc:format>
    <dc:creator>
     <cc:Agent>
      <dc:title>Matplotlib v3.3.2, https://matplotlib.org/</dc:title>
     </cc:Agent>
    </dc:creator>
   </cc:Work>
  </rdf:RDF>
 </metadata>
 <defs>
  <style type="text/css">*{stroke-linecap:butt;stroke-linejoin:round;}</style>
 </defs>
 <g id="figure_1">
  <g id="patch_1">
   <path d="M 0 720 
L 720 720 
L 720 0 
L 0 0 
z
" style="fill:none;"/>
  </g>
  <g id="axes_1">
   <g id="patch_2">
    <path d="M 90 630 
L 648 630 
L 648 86.4 
L 90 86.4 
z
" style="fill:#ffffff;"/>
   </g>
   <g id="matplotlib.axis_1">
    <g id="xtick_1">
     <g id="line2d_1">
      <path clip-path="url(#pf4d6d3d7d2)" d="M 115.363636 630 
L 115.363636 86.4 
" style="fill:none;stroke:#b0b0b0;stroke-linecap:square;stroke-width:0.8;"/>
     </g>
     <g id="line2d_2">
      <defs>
       <path d="M 0 0 
L 0 3.5 
" id="m9042eea965" style="stroke:#000000;stroke-width:0.8;"/>
      </defs>
      <g>
       <use style="stroke:#000000;stroke-width:0.8;" x="115.363636" xlink:href="#m9042eea965" y="630"/>
      </g>
     </g>
     <g id="text_1">
      <!-- 0 -->
      <g transform="translate(112.182386 644.598438)scale(0.1 -0.1)">
       <defs>
        <path d="M 31.78125 66.40625 
Q 24.171875 66.40625 20.328125 58.90625 
Q 16.5 51.421875 16.5 36.375 
Q 16.5 21.390625 20.328125 13.890625 
Q 24.171875 6.390625 31.78125 6.390625 
Q 39.453125 6.390625 43.28125 13.890625 
Q 47.125 21.390625 47.125 36.375 
Q 47.125 51.421875 43.28125 58.90625 
Q 39.453125 66.40625 31.78125 66.40625 
z
M 31.78125 74.21875 
Q 44.046875 74.21875 50.515625 64.515625 
Q 56.984375 54.828125 56.984375 36.375 
Q 56.984375 17.96875 50.515625 8.265625 
Q 44.046875 -1.421875 31.78125 -1.421875 
Q 19.53125 -1.421875 13.0625 8.265625 
Q 6.59375 17.96875 6.59375 36.375 
Q 6.59375 54.828125 13.0625 64.515625 
Q 19.53125 74.21875 31.78125 74.21875 
z
" id="DejaVuSans-48"/>
       </defs>
       <use xlink:href="#DejaVuSans-48"/>
      </g>
     </g>
    </g>
    <g id="xtick_2">
     <g id="line2d_3">
      <path clip-path="url(#pf4d6d3d7d2)" d="M 181.072539 630 
L 181.072539 86.4 
" style="fill:none;stroke:#b0b0b0;stroke-linecap:square;stroke-width:0.8;"/>
     </g>
     <g id="line2d_4">
      <g>
       <use style="stroke:#000000;stroke-width:0.8;" x="181.072539" xlink:href="#m9042eea965" y="630"/>
      </g>
     </g>
     <g id="text_2">
      <!-- 50 -->
      <g transform="translate(174.710039 644.598438)scale(0.1 -0.1)">
       <defs>
        <path d="M 10.796875 72.90625 
L 49.515625 72.90625 
L 49.515625 64.59375 
L 19.828125 64.59375 
L 19.828125 46.734375 
Q 21.96875 47.46875 24.109375 47.828125 
Q 26.265625 48.1875 28.421875 48.1875 
Q 40.625 48.1875 47.75 41.5 
Q 54.890625 34.8125 54.890625 23.390625 
Q 54.890625 11.625 47.5625 5.09375 
Q 40.234375 -1.421875 26.90625 -1.421875 
Q 22.3125 -1.421875 17.546875 -0.640625 
Q 12.796875 0.140625 7.71875 1.703125 
L 7.71875 11.625 
Q 12.109375 9.234375 16.796875 8.0625 
Q 21.484375 6.890625 26.703125 6.890625 
Q 35.15625 6.890625 40.078125 11.328125 
Q 45.015625 15.765625 45.015625 23.390625 
Q 45.015625 31 40.078125 35.4375 
Q 35.15625 39.890625 26.703125 39.890625 
Q 22.75 39.890625 18.8125 39.015625 
Q 14.890625 38.140625 10.796875 36.28125 
z
" id="DejaVuSans-53"/>
       </defs>
       <use xlink:href="#DejaVuSans-53"/>
       <use x="63.623047" xlink:href="#DejaVuSans-48"/>
      </g>
     </g>
    </g>
    <g id="xtick_3">
     <g id="line2d_5">
      <path clip-path="url(#pf4d6d3d7d2)" d="M 246.781441 630 
L 246.781441 86.4 
" style="fill:none;stroke:#b0b0b0;stroke-linecap:square;stroke-width:0.8;"/>
     </g>
     <g id="line2d_6">
      <g>
       <use style="stroke:#000000;stroke-width:0.8;" x="246.781441" xlink:href="#m9042eea965" y="630"/>
      </g>
     </g>
     <g id="text_3">
      <!-- 100 -->
      <g transform="translate(237.237691 644.598438)scale(0.1 -0.1)">
       <defs>
        <path d="M 12.40625 8.296875 
L 28.515625 8.296875 
L 28.515625 63.921875 
L 10.984375 60.40625 
L 10.984375 69.390625 
L 28.421875 72.90625 
L 38.28125 72.90625 
L 38.28125 8.296875 
L 54.390625 8.296875 
L 54.390625 0 
L 12.40625 0 
z
" id="DejaVuSans-49"/>
       </defs>
       <use xlink:href="#DejaVuSans-49"/>
       <use x="63.623047" xlink:href="#DejaVuSans-48"/>
       <use x="127.246094" xlink:href="#DejaVuSans-48"/>
      </g>
     </g>
    </g>
    <g id="xtick_4">
     <g id="line2d_7">
      <path clip-path="url(#pf4d6d3d7d2)" d="M 312.490344 630 
L 312.490344 86.4 
" style="fill:none;stroke:#b0b0b0;stroke-linecap:square;stroke-width:0.8;"/>
     </g>
     <g id="line2d_8">
      <g>
       <use style="stroke:#000000;stroke-width:0.8;" x="312.490344" xlink:href="#m9042eea965" y="630"/>
      </g>
     </g>
     <g id="text_4">
      <!-- 150 -->
      <g transform="translate(302.946594 644.598438)scale(0.1 -0.1)">
       <use xlink:href="#DejaVuSans-49"/>
       <use x="63.623047" xlink:href="#DejaVuSans-53"/>
       <use x="127.246094" xlink:href="#DejaVuSans-48"/>
      </g>
     </g>
    </g>
    <g id="xtick_5">
     <g id="line2d_9">
      <path clip-path="url(#pf4d6d3d7d2)" d="M 378.199246 630 
L 378.199246 86.4 
" style="fill:none;stroke:#b0b0b0;stroke-linecap:square;stroke-width:0.8;"/>
     </g>
     <g id="line2d_10">
      <g>
       <use style="stroke:#000000;stroke-width:0.8;" x="378.199246" xlink:href="#m9042eea965" y="630"/>
      </g>
     </g>
     <g id="text_5">
      <!-- 200 -->
      <g transform="translate(368.655496 644.598438)scale(0.1 -0.1)">
       <defs>
        <path d="M 19.1875 8.296875 
L 53.609375 8.296875 
L 53.609375 0 
L 7.328125 0 
L 7.328125 8.296875 
Q 12.9375 14.109375 22.625 23.890625 
Q 32.328125 33.6875 34.8125 36.53125 
Q 39.546875 41.84375 41.421875 45.53125 
Q 43.3125 49.21875 43.3125 52.78125 
Q 43.3125 58.59375 39.234375 62.25 
Q 35.15625 65.921875 28.609375 65.921875 
Q 23.96875 65.921875 18.8125 64.3125 
Q 13.671875 62.703125 7.8125 59.421875 
L 7.8125 69.390625 
Q 13.765625 71.78125 18.9375 73 
Q 24.125 74.21875 28.421875 74.21875 
Q 39.75 74.21875 46.484375 68.546875 
Q 53.21875 62.890625 53.21875 53.421875 
Q 53.21875 48.921875 51.53125 44.890625 
Q 49.859375 40.875 45.40625 35.40625 
Q 44.1875 33.984375 37.640625 27.21875 
Q 31.109375 20.453125 19.1875 8.296875 
z
" id="DejaVuSans-50"/>
       </defs>
       <use xlink:href="#DejaVuSans-50"/>
       <use x="63.623047" xlink:href="#DejaVuSans-48"/>
       <use x="127.246094" xlink:href="#DejaVuSans-48"/>
      </g>
     </g>
    </g>
    <g id="xtick_6">
     <g id="line2d_11">
      <path clip-path="url(#pf4d6d3d7d2)" d="M 443.908149 630 
L 443.908149 86.4 
" style="fill:none;stroke:#b0b0b0;stroke-linecap:square;stroke-width:0.8;"/>
     </g>
     <g id="line2d_12">
      <g>
       <use style="stroke:#000000;stroke-width:0.8;" x="443.908149" xlink:href="#m9042eea965" y="630"/>
      </g>
     </g>
     <g id="text_6">
      <!-- 250 -->
      <g transform="translate(434.364399 644.598438)scale(0.1 -0.1)">
       <use xlink:href="#DejaVuSans-50"/>
       <use x="63.623047" xlink:href="#DejaVuSans-53"/>
       <use x="127.246094" xlink:href="#DejaVuSans-48"/>
      </g>
     </g>
    </g>
    <g id="xtick_7">
     <g id="line2d_13">
      <path clip-path="url(#pf4d6d3d7d2)" d="M 509.617051 630 
L 509.617051 86.4 
" style="fill:none;stroke:#b0b0b0;stroke-linecap:square;stroke-width:0.8;"/>
     </g>
     <g id="line2d_14">
      <g>
       <use style="stroke:#000000;stroke-width:0.8;" x="509.617051" xlink:href="#m9042eea965" y="630"/>
      </g>
     </g>
     <g id="text_7">
      <!-- 300 -->
      <g transform="translate(500.073301 644.598438)scale(0.1 -0.1)">
       <defs>
        <path d="M 40.578125 39.3125 
Q 47.65625 37.796875 51.625 33 
Q 55.609375 28.21875 55.609375 21.1875 
Q 55.609375 10.40625 48.1875 4.484375 
Q 40.765625 -1.421875 27.09375 -1.421875 
Q 22.515625 -1.421875 17.65625 -0.515625 
Q 12.796875 0.390625 7.625 2.203125 
L 7.625 11.71875 
Q 11.71875 9.328125 16.59375 8.109375 
Q 21.484375 6.890625 26.8125 6.890625 
Q 36.078125 6.890625 40.9375 10.546875 
Q 45.796875 14.203125 45.796875 21.1875 
Q 45.796875 27.640625 41.28125 31.265625 
Q 36.765625 34.90625 28.71875 34.90625 
L 20.21875 34.90625 
L 20.21875 43.015625 
L 29.109375 43.015625 
Q 36.375 43.015625 40.234375 45.921875 
Q 44.09375 48.828125 44.09375 54.296875 
Q 44.09375 59.90625 40.109375 62.90625 
Q 36.140625 65.921875 28.71875 65.921875 
Q 24.65625 65.921875 20.015625 65.03125 
Q 15.375 64.15625 9.8125 62.3125 
L 9.8125 71.09375 
Q 15.4375 72.65625 20.34375 73.4375 
Q 25.25 74.21875 29.59375 74.21875 
Q 40.828125 74.21875 47.359375 69.109375 
Q 53.90625 64.015625 53.90625 55.328125 
Q 53.90625 49.265625 50.4375 45.09375 
Q 46.96875 40.921875 40.578125 39.3125 
z
" id="DejaVuSans-51"/>
       </defs>
       <use xlink:href="#DejaVuSans-51"/>
       <use x="63.623047" xlink:href="#DejaVuSans-48"/>
       <use x="127.246094" xlink:href="#DejaVuSans-48"/>
      </g>
     </g>
    </g>
    <g id="xtick_8">
     <g id="line2d_15">
      <path clip-path="url(#pf4d6d3d7d2)" d="M 575.325954 630 
L 575.325954 86.4 
" style="fill:none;stroke:#b0b0b0;stroke-linecap:square;stroke-width:0.8;"/>
     </g>
     <g id="line2d_16">
      <g>
       <use style="stroke:#000000;stroke-width:0.8;" x="575.325954" xlink:href="#m9042eea965" y="630"/>
      </g>
     </g>
     <g id="text_8">
      <!-- 350 -->
      <g transform="translate(565.782204 644.598438)scale(0.1 -0.1)">
       <use xlink:href="#DejaVuSans-51"/>
       <use x="63.623047" xlink:href="#DejaVuSans-53"/>
       <use x="127.246094" xlink:href="#DejaVuSans-48"/>
      </g>
     </g>
    </g>
    <g id="xtick_9">
     <g id="line2d_17">
      <path clip-path="url(#pf4d6d3d7d2)" d="M 641.034856 630 
L 641.034856 86.4 
" style="fill:none;stroke:#b0b0b0;stroke-linecap:square;stroke-width:0.8;"/>
     </g>
     <g id="line2d_18">
      <g>
       <use style="stroke:#000000;stroke-width:0.8;" x="641.034856" xlink:href="#m9042eea965" y="630"/>
      </g>
     </g>
     <g id="text_9">
      <!-- 400 -->
      <g transform="translate(631.491106 644.598438)scale(0.1 -0.1)">
       <defs>
        <path d="M 37.796875 64.3125 
L 12.890625 25.390625 
L 37.796875 25.390625 
z
M 35.203125 72.90625 
L 47.609375 72.90625 
L 47.609375 25.390625 
L 58.015625 25.390625 
L 58.015625 17.1875 
L 47.609375 17.1875 
L 47.609375 0 
L 37.796875 0 
L 37.796875 17.1875 
L 4.890625 17.1875 
L 4.890625 26.703125 
z
" id="DejaVuSans-52"/>
       </defs>
       <use xlink:href="#DejaVuSans-52"/>
       <use x="63.623047" xlink:href="#DejaVuSans-48"/>
       <use x="127.246094" xlink:href="#DejaVuSans-48"/>
      </g>
     </g>
    </g>
    <g id="text_10">
     <!-- Days -->
     <g transform="translate(356.521875 658.276562)scale(0.1 -0.1)">
      <defs>
       <path d="M 19.671875 64.796875 
L 19.671875 8.109375 
L 31.59375 8.109375 
Q 46.6875 8.109375 53.6875 14.9375 
Q 60.6875 21.78125 60.6875 36.53125 
Q 60.6875 51.171875 53.6875 57.984375 
Q 46.6875 64.796875 31.59375 64.796875 
z
M 9.8125 72.90625 
L 30.078125 72.90625 
Q 51.265625 72.90625 61.171875 64.09375 
Q 71.09375 55.28125 71.09375 36.53125 
Q 71.09375 17.671875 61.125 8.828125 
Q 51.171875 0 30.078125 0 
L 9.8125 0 
z
" id="DejaVuSans-68"/>
       <path d="M 34.28125 27.484375 
Q 23.390625 27.484375 19.1875 25 
Q 14.984375 22.515625 14.984375 16.5 
Q 14.984375 11.71875 18.140625 8.90625 
Q 21.296875 6.109375 26.703125 6.109375 
Q 34.1875 6.109375 38.703125 11.40625 
Q 43.21875 16.703125 43.21875 25.484375 
L 43.21875 27.484375 
z
M 52.203125 31.203125 
L 52.203125 0 
L 43.21875 0 
L 43.21875 8.296875 
Q 40.140625 3.328125 35.546875 0.953125 
Q 30.953125 -1.421875 24.3125 -1.421875 
Q 15.921875 -1.421875 10.953125 3.296875 
Q 6 8.015625 6 15.921875 
Q 6 25.140625 12.171875 29.828125 
Q 18.359375 34.515625 30.609375 34.515625 
L 43.21875 34.515625 
L 43.21875 35.40625 
Q 43.21875 41.609375 39.140625 45 
Q 35.0625 48.390625 27.6875 48.390625 
Q 23 48.390625 18.546875 47.265625 
Q 14.109375 46.140625 10.015625 43.890625 
L 10.015625 52.203125 
Q 14.9375 54.109375 19.578125 55.046875 
Q 24.21875 56 28.609375 56 
Q 40.484375 56 46.34375 49.84375 
Q 52.203125 43.703125 52.203125 31.203125 
z
" id="DejaVuSans-97"/>
       <path d="M 32.171875 -5.078125 
Q 28.375 -14.84375 24.75 -17.8125 
Q 21.140625 -20.796875 15.09375 -20.796875 
L 7.90625 -20.796875 
L 7.90625 -13.28125 
L 13.1875 -13.28125 
Q 16.890625 -13.28125 18.9375 -11.515625 
Q 21 -9.765625 23.484375 -3.21875 
L 25.09375 0.875 
L 2.984375 54.6875 
L 12.5 54.6875 
L 29.59375 11.921875 
L 46.6875 54.6875 
L 56.203125 54.6875 
z
" id="DejaVuSans-121"/>
       <path d="M 44.28125 53.078125 
L 44.28125 44.578125 
Q 40.484375 46.53125 36.375 47.5 
Q 32.28125 48.484375 27.875 48.484375 
Q 21.1875 48.484375 17.84375 46.4375 
Q 14.5 44.390625 14.5 40.28125 
Q 14.5 37.15625 16.890625 35.375 
Q 19.28125 33.59375 26.515625 31.984375 
L 29.59375 31.296875 
Q 39.15625 29.25 43.1875 25.515625 
Q 47.21875 21.78125 47.21875 15.09375 
Q 47.21875 7.46875 41.1875 3.015625 
Q 35.15625 -1.421875 24.609375 -1.421875 
Q 20.21875 -1.421875 15.453125 -0.5625 
Q 10.6875 0.296875 5.421875 2 
L 5.421875 11.28125 
Q 10.40625 8.6875 15.234375 7.390625 
Q 20.0625 6.109375 24.8125 6.109375 
Q 31.15625 6.109375 34.5625 8.28125 
Q 37.984375 10.453125 37.984375 14.40625 
Q 37.984375 18.0625 35.515625 20.015625 
Q 33.0625 21.96875 24.703125 23.78125 
L 21.578125 24.515625 
Q 13.234375 26.265625 9.515625 29.90625 
Q 5.8125 33.546875 5.8125 39.890625 
Q 5.8125 47.609375 11.28125 51.796875 
Q 16.75 56 26.8125 56 
Q 31.78125 56 36.171875 55.265625 
Q 40.578125 54.546875 44.28125 53.078125 
z
" id="DejaVuSans-115"/>
      </defs>
      <use xlink:href="#DejaVuSans-68"/>
      <use x="77.001953" xlink:href="#DejaVuSans-97"/>
      <use x="138.28125" xlink:href="#DejaVuSans-121"/>
      <use x="197.460938" xlink:href="#DejaVuSans-115"/>
     </g>
    </g>
   </g>
   <g id="matplotlib.axis_2">
    <g id="ytick_1">
     <g id="line2d_19">
      <path clip-path="url(#pf4d6d3d7d2)" d="M 90 605.30513 
L 648 605.30513 
" style="fill:none;stroke:#b0b0b0;stroke-linecap:square;stroke-width:0.8;"/>
     </g>
     <g id="line2d_20">
      <defs>
       <path d="M 0 0 
L -3.5 0 
" id="mfe69ddb767" style="stroke:#000000;stroke-width:0.8;"/>
      </defs>
      <g>
       <use style="stroke:#000000;stroke-width:0.8;" x="90" xlink:href="#mfe69ddb767" y="605.30513"/>
      </g>
     </g>
     <g id="text_11">
      <!-- 0 -->
      <g transform="translate(76.6375 609.104348)scale(0.1 -0.1)">
       <use xlink:href="#DejaVuSans-48"/>
      </g>
     </g>
    </g>
    <g id="ytick_2">
     <g id="line2d_21">
      <path clip-path="url(#pf4d6d3d7d2)" d="M 90 495.916892 
L 648 495.916892 
" style="fill:none;stroke:#b0b0b0;stroke-linecap:square;stroke-width:0.8;"/>
     </g>
     <g id="line2d_22">
      <g>
       <use style="stroke:#000000;stroke-width:0.8;" x="90" xlink:href="#mfe69ddb767" y="495.916892"/>
      </g>
     </g>
     <g id="text_12">
      <!-- 100000 -->
      <g transform="translate(44.825 499.71611)scale(0.1 -0.1)">
       <use xlink:href="#DejaVuSans-49"/>
       <use x="63.623047" xlink:href="#DejaVuSans-48"/>
       <use x="127.246094" xlink:href="#DejaVuSans-48"/>
       <use x="190.869141" xlink:href="#DejaVuSans-48"/>
       <use x="254.492188" xlink:href="#DejaVuSans-48"/>
       <use x="318.115234" xlink:href="#DejaVuSans-48"/>
      </g>
     </g>
    </g>
    <g id="ytick_3">
     <g id="line2d_23">
      <path clip-path="url(#pf4d6d3d7d2)" d="M 90 386.528654 
L 648 386.528654 
" style="fill:none;stroke:#b0b0b0;stroke-linecap:square;stroke-width:0.8;"/>
     </g>
     <g id="line2d_24">
      <g>
       <use style="stroke:#000000;stroke-width:0.8;" x="90" xlink:href="#mfe69ddb767" y="386.528654"/>
      </g>
     </g>
     <g id="text_13">
      <!-- 200000 -->
      <g transform="translate(44.825 390.327873)scale(0.1 -0.1)">
       <use xlink:href="#DejaVuSans-50"/>
       <use x="63.623047" xlink:href="#DejaVuSans-48"/>
       <use x="127.246094" xlink:href="#DejaVuSans-48"/>
       <use x="190.869141" xlink:href="#DejaVuSans-48"/>
       <use x="254.492188" xlink:href="#DejaVuSans-48"/>
       <use x="318.115234" xlink:href="#DejaVuSans-48"/>
      </g>
     </g>
    </g>
    <g id="ytick_4">
     <g id="line2d_25">
      <path clip-path="url(#pf4d6d3d7d2)" d="M 90 277.140416 
L 648 277.140416 
" style="fill:none;stroke:#b0b0b0;stroke-linecap:square;stroke-width:0.8;"/>
     </g>
     <g id="line2d_26">
      <g>
       <use style="stroke:#000000;stroke-width:0.8;" x="90" xlink:href="#mfe69ddb767" y="277.140416"/>
      </g>
     </g>
     <g id="text_14">
      <!-- 300000 -->
      <g transform="translate(44.825 280.939635)scale(0.1 -0.1)">
       <use xlink:href="#DejaVuSans-51"/>
       <use x="63.623047" xlink:href="#DejaVuSans-48"/>
       <use x="127.246094" xlink:href="#DejaVuSans-48"/>
       <use x="190.869141" xlink:href="#DejaVuSans-48"/>
       <use x="254.492188" xlink:href="#DejaVuSans-48"/>
       <use x="318.115234" xlink:href="#DejaVuSans-48"/>
      </g>
     </g>
    </g>
    <g id="ytick_5">
     <g id="line2d_27">
      <path clip-path="url(#pf4d6d3d7d2)" d="M 90 167.752178 
L 648 167.752178 
" style="fill:none;stroke:#b0b0b0;stroke-linecap:square;stroke-width:0.8;"/>
     </g>
     <g id="line2d_28">
      <g>
       <use style="stroke:#000000;stroke-width:0.8;" x="90" xlink:href="#mfe69ddb767" y="167.752178"/>
      </g>
     </g>
     <g id="text_15">
      <!-- 400000 -->
      <g transform="translate(44.825 171.551397)scale(0.1 -0.1)">
       <use xlink:href="#DejaVuSans-52"/>
       <use x="63.623047" xlink:href="#DejaVuSans-48"/>
       <use x="127.246094" xlink:href="#DejaVuSans-48"/>
       <use x="190.869141" xlink:href="#DejaVuSans-48"/>
       <use x="254.492188" xlink:href="#DejaVuSans-48"/>
       <use x="318.115234" xlink:href="#DejaVuSans-48"/>
      </g>
     </g>
    </g>
    <g id="text_16">
     <!-- Cumulative cases -->
     <g transform="translate(38.745312 402.425781)rotate(-90)scale(0.1 -0.1)">
      <defs>
       <path d="M 64.40625 67.28125 
L 64.40625 56.890625 
Q 59.421875 61.53125 53.78125 63.8125 
Q 48.140625 66.109375 41.796875 66.109375 
Q 29.296875 66.109375 22.65625 58.46875 
Q 16.015625 50.828125 16.015625 36.375 
Q 16.015625 21.96875 22.65625 14.328125 
Q 29.296875 6.6875 41.796875 6.6875 
Q 48.140625 6.6875 53.78125 8.984375 
Q 59.421875 11.28125 64.40625 15.921875 
L 64.40625 5.609375 
Q 59.234375 2.09375 53.4375 0.328125 
Q 47.65625 -1.421875 41.21875 -1.421875 
Q 24.65625 -1.421875 15.125 8.703125 
Q 5.609375 18.84375 5.609375 36.375 
Q 5.609375 53.953125 15.125 64.078125 
Q 24.65625 74.21875 41.21875 74.21875 
Q 47.75 74.21875 53.53125 72.484375 
Q 59.328125 70.75 64.40625 67.28125 
z
" id="DejaVuSans-67"/>
       <path d="M 8.5 21.578125 
L 8.5 54.6875 
L 17.484375 54.6875 
L 17.484375 21.921875 
Q 17.484375 14.15625 20.5 10.265625 
Q 23.53125 6.390625 29.59375 6.390625 
Q 36.859375 6.390625 41.078125 11.03125 
Q 45.3125 15.671875 45.3125 23.6875 
L 45.3125 54.6875 
L 54.296875 54.6875 
L 54.296875 0 
L 45.3125 0 
L 45.3125 8.40625 
Q 42.046875 3.421875 37.71875 1 
Q 33.40625 -1.421875 27.6875 -1.421875 
Q 18.265625 -1.421875 13.375 4.4375 
Q 8.5 10.296875 8.5 21.578125 
z
M 31.109375 56 
z
" id="DejaVuSans-117"/>
       <path d="M 52 44.1875 
Q 55.375 50.25 60.0625 53.125 
Q 64.75 56 71.09375 56 
Q 79.640625 56 84.28125 50.015625 
Q 88.921875 44.046875 88.921875 33.015625 
L 88.921875 0 
L 79.890625 0 
L 79.890625 32.71875 
Q 79.890625 40.578125 77.09375 44.375 
Q 74.3125 48.1875 68.609375 48.1875 
Q 61.625 48.1875 57.5625 43.546875 
Q 53.515625 38.921875 53.515625 30.90625 
L 53.515625 0 
L 44.484375 0 
L 44.484375 32.71875 
Q 44.484375 40.625 41.703125 44.40625 
Q 38.921875 48.1875 33.109375 48.1875 
Q 26.21875 48.1875 22.15625 43.53125 
Q 18.109375 38.875 18.109375 30.90625 
L 18.109375 0 
L 9.078125 0 
L 9.078125 54.6875 
L 18.109375 54.6875 
L 18.109375 46.1875 
Q 21.1875 51.21875 25.484375 53.609375 
Q 29.78125 56 35.6875 56 
Q 41.65625 56 45.828125 52.96875 
Q 50 49.953125 52 44.1875 
z
" id="DejaVuSans-109"/>
       <path d="M 9.421875 75.984375 
L 18.40625 75.984375 
L 18.40625 0 
L 9.421875 0 
z
" id="DejaVuSans-108"/>
       <path d="M 18.3125 70.21875 
L 18.3125 54.6875 
L 36.8125 54.6875 
L 36.8125 47.703125 
L 18.3125 47.703125 
L 18.3125 18.015625 
Q 18.3125 11.328125 20.140625 9.421875 
Q 21.96875 7.515625 27.59375 7.515625 
L 36.8125 7.515625 
L 36.8125 0 
L 27.59375 0 
Q 17.1875 0 13.234375 3.875 
Q 9.28125 7.765625 9.28125 18.015625 
L 9.28125 47.703125 
L 2.6875 47.703125 
L 2.6875 54.6875 
L 9.28125 54.6875 
L 9.28125 70.21875 
z
" id="DejaVuSans-116"/>
       <path d="M 9.421875 54.6875 
L 18.40625 54.6875 
L 18.40625 0 
L 9.421875 0 
z
M 9.421875 75.984375 
L 18.40625 75.984375 
L 18.40625 64.59375 
L 9.421875 64.59375 
z
" id="DejaVuSans-105"/>
       <path d="M 2.984375 54.6875 
L 12.5 54.6875 
L 29.59375 8.796875 
L 46.6875 54.6875 
L 56.203125 54.6875 
L 35.6875 0 
L 23.484375 0 
z
" id="DejaVuSans-118"/>
       <path d="M 56.203125 29.59375 
L 56.203125 25.203125 
L 14.890625 25.203125 
Q 15.484375 15.921875 20.484375 11.0625 
Q 25.484375 6.203125 34.421875 6.203125 
Q 39.59375 6.203125 44.453125 7.46875 
Q 49.3125 8.734375 54.109375 11.28125 
L 54.109375 2.78125 
Q 49.265625 0.734375 44.1875 -0.34375 
Q 39.109375 -1.421875 33.890625 -1.421875 
Q 20.796875 -1.421875 13.15625 6.1875 
Q 5.515625 13.8125 5.515625 26.8125 
Q 5.515625 40.234375 12.765625 48.109375 
Q 20.015625 56 32.328125 56 
Q 43.359375 56 49.78125 48.890625 
Q 56.203125 41.796875 56.203125 29.59375 
z
M 47.21875 32.234375 
Q 47.125 39.59375 43.09375 43.984375 
Q 39.0625 48.390625 32.421875 48.390625 
Q 24.90625 48.390625 20.390625 44.140625 
Q 15.875 39.890625 15.1875 32.171875 
z
" id="DejaVuSans-101"/>
       <path id="DejaVuSans-32"/>
       <path d="M 48.78125 52.59375 
L 48.78125 44.1875 
Q 44.96875 46.296875 41.140625 47.34375 
Q 37.3125 48.390625 33.40625 48.390625 
Q 24.65625 48.390625 19.8125 42.84375 
Q 14.984375 37.3125 14.984375 27.296875 
Q 14.984375 17.28125 19.8125 11.734375 
Q 24.65625 6.203125 33.40625 6.203125 
Q 37.3125 6.203125 41.140625 7.25 
Q 44.96875 8.296875 48.78125 10.40625 
L 48.78125 2.09375 
Q 45.015625 0.34375 40.984375 -0.53125 
Q 36.96875 -1.421875 32.421875 -1.421875 
Q 20.0625 -1.421875 12.78125 6.34375 
Q 5.515625 14.109375 5.515625 27.296875 
Q 5.515625 40.671875 12.859375 48.328125 
Q 20.21875 56 33.015625 56 
Q 37.15625 56 41.109375 55.140625 
Q 45.0625 54.296875 48.78125 52.59375 
z
" id="DejaVuSans-99"/>
      </defs>
      <use xlink:href="#DejaVuSans-67"/>
      <use x="69.824219" xlink:href="#DejaVuSans-117"/>
      <use x="133.203125" xlink:href="#DejaVuSans-109"/>
      <use x="230.615234" xlink:href="#DejaVuSans-117"/>
      <use x="293.994141" xlink:href="#DejaVuSans-108"/>
      <use x="321.777344" xlink:href="#DejaVuSans-97"/>
      <use x="383.056641" xlink:href="#DejaVuSans-116"/>
      <use x="422.265625" xlink:href="#DejaVuSans-105"/>
      <use x="450.048828" xlink:href="#DejaVuSans-118"/>
      <use x="509.228516" xlink:href="#DejaVuSans-101"/>
      <use x="570.751953" xlink:href="#DejaVuSans-32"/>
      <use x="602.539062" xlink:href="#DejaVuSans-99"/>
      <use x="657.519531" xlink:href="#DejaVuSans-97"/>
      <use x="718.798828" xlink:href="#DejaVuSans-115"/>
      <use x="770.898438" xlink:href="#DejaVuSans-101"/>
      <use x="832.421875" xlink:href="#DejaVuSans-115"/>
     </g>
    </g>
   </g>
   <g id="line2d_29">
    <path clip-path="url(#pf4d6d3d7d2)" d="M 115.363636 605.290909 
L 208.670278 605.145613 
L 246.781441 604.877129 
L 271.750824 604.488397 
L 290.149317 603.990906 
L 304.605276 603.39615 
L 316.432878 602.715279 
L 326.946302 601.910102 
L 336.145549 601.004537 
L 345.344795 599.860229 
L 353.229863 598.64332 
L 359.800754 597.427359 
L 366.371644 595.993886 
L 372.942534 594.305743 
L 378.199246 592.743299 
L 383.455959 590.965803 
L 388.712671 588.945734 
L 393.969383 586.652663 
L 399.226095 584.053142 
L 403.168629 581.880532 
L 407.111163 579.498508 
L 411.053698 576.889577 
L 414.996232 574.035346 
L 418.938766 570.916606 
L 422.8813 567.513439 
L 426.823834 563.805368 
L 430.766368 559.771551 
L 434.708902 555.391022 
L 438.651437 550.642984 
L 442.593971 545.507162 
L 446.536505 539.964209 
L 450.479039 533.996171 
L 454.421573 527.587009 
L 458.364107 520.723161 
L 462.306642 513.394149 
L 466.249176 505.593199 
L 470.19171 497.317871 
L 474.134244 488.570652 
L 478.076778 479.359517 
L 482.019312 469.698385 
L 487.276024 456.152768 
L 492.532737 441.909792 
L 497.789449 427.055841 
L 504.360339 407.79184 
L 513.559585 379.965734 
L 530.6439 328.064153 
L 537.21479 308.869394 
L 542.471503 294.087158 
L 547.728215 279.927906 
L 552.984927 266.47548 
L 556.927461 256.888884 
L 560.869995 247.755062 
L 564.812529 239.086905 
L 568.755064 230.891426 
L 572.697598 223.170245 
L 576.640132 215.920147 
L 580.582666 209.13369 
L 584.5252 202.799835 
L 588.467734 196.904561 
L 592.410268 191.431468 
L 596.352803 186.362332 
L 600.295337 181.677619 
L 604.237871 177.356939 
L 608.180405 173.379444 
L 612.122939 169.724169 
L 616.065473 166.370318 
L 620.008008 163.297497 
L 622.636364 161.395266 
L 622.636364 161.395266 
" style="fill:none;stroke:#1f77b4;stroke-linecap:square;stroke-width:1.5;"/>
   </g>
   <g id="line2d_30">
    <path clip-path="url(#pf4d6d3d7d2)" d="M 115.363636 605.290909 
L 150.846444 604.873374 
L 178.444183 604.338281 
L 200.78521 603.694585 
L 220.49788 602.901351 
L 237.582195 601.981131 
L 252.038154 600.982083 
L 265.179934 599.852871 
L 277.007537 598.616082 
L 287.520961 597.306438 
L 298.034385 595.762922 
L 307.233632 594.188958 
L 316.432878 592.374184 
L 324.317946 590.60049 
L 332.203015 588.599372 
L 340.088083 586.343416 
L 346.658973 584.247063 
L 353.229863 581.933728 
L 359.800754 579.382855 
L 366.371644 576.572363 
L 372.942534 573.478633 
L 378.199246 570.782867 
L 383.455959 567.876192 
L 388.712671 564.744454 
L 393.969383 561.372947 
L 399.226095 557.746467 
L 404.482807 553.849371 
L 409.73952 549.66567 
L 414.996232 545.179121 
L 420.252944 540.373359 
L 425.509656 535.232042 
L 430.766368 529.739017 
L 436.023081 523.878521 
L 441.279793 517.6354 
L 446.536505 510.995359 
L 451.793217 503.945225 
L 457.049929 496.473248 
L 462.306642 488.569408 
L 467.563354 480.22574 
L 472.820066 471.436667 
L 478.076778 462.199338 
L 483.33349 452.513948 
L 488.590203 442.384049 
L 493.846915 431.816828 
L 499.103627 420.823346 
L 505.674517 406.505491 
L 512.245407 391.584252 
L 518.816298 376.108641 
L 526.701366 356.889999 
L 534.586434 337.078599 
L 545.099859 309.980474 
L 563.498351 261.714797 
L 576.640132 227.550885 
L 585.839378 204.244485 
L 593.724447 184.865953 
L 600.295337 169.235366 
L 606.866227 154.142494 
L 613.437117 139.639403 
L 620.008008 125.7679 
L 622.636364 120.403551 
L 622.636364 120.403551 
" style="fill:none;stroke:#ff7f0e;stroke-linecap:square;stroke-width:1.5;"/>
   </g>
   <g id="line2d_31">
    <path clip-path="url(#pf4d6d3d7d2)" d="M 115.363636 605.290909 
L 181.072539 605.10952 
L 215.241168 604.815196 
L 238.896373 604.410345 
L 257.294866 603.889361 
L 273.065002 603.216448 
L 286.206783 602.424136 
L 296.720207 601.584155 
L 305.919454 600.655305 
L 315.1187 599.50039 
L 323.003768 598.290721 
L 330.888837 596.836461 
L 337.459727 595.404277 
L 344.030617 593.738884 
L 350.601507 591.805219 
L 355.85822 590.038864 
L 361.114932 588.0536 
L 366.371644 585.825475 
L 371.628356 583.328772 
L 376.885068 580.53611 
L 382.14178 577.418629 
L 386.084315 574.849306 
L 390.026849 572.067376 
L 393.969383 569.059698 
L 397.911917 565.813135 
L 401.854451 562.314724 
L 405.796985 558.551879 
L 409.73952 554.512612 
L 413.682054 550.185784 
L 417.624588 545.561385 
L 421.567122 540.630822 
L 425.509656 535.387231 
L 429.45219 529.825794 
L 433.394724 523.944046 
L 437.337259 517.742178 
L 442.593971 508.980889 
L 447.850683 499.672602 
L 453.107395 489.844182 
L 458.364107 479.533478 
L 463.62082 468.789165 
L 470.19171 454.839535 
L 478.076778 437.518118 
L 491.218559 407.929656 
L 503.046161 381.452964 
L 510.931229 364.342119 
L 517.50212 350.606209 
L 524.07301 337.458778 
L 529.329722 327.420183 
L 534.586434 317.84195 
L 539.843146 308.745935 
L 545.099859 300.14545 
L 550.356571 292.046101 
L 555.613283 284.44674 
L 560.869995 277.340466 
L 566.126707 270.715633 
L 571.38342 264.556798 
L 576.640132 258.845612 
L 581.896844 253.561605 
L 587.153556 248.68288 
L 592.410268 244.186704 
L 597.666981 240.049997 
L 602.923693 236.249734 
L 608.180405 232.763267 
L 613.437117 229.568565 
L 618.693829 226.644403 
L 622.636364 224.61658 
L 622.636364 224.61658 
" style="fill:none;stroke:#2ca02c;stroke-linecap:square;stroke-width:1.5;"/>
   </g>
   <g id="line2d_32">
    <path clip-path="url(#pf4d6d3d7d2)" d="M 115.363636 605.290909 
L 139.018841 591.644693 
L 162.674046 578.247897 
L 186.329251 565.095962 
L 211.298634 551.474065 
L 236.268017 538.11484 
L 261.2374 525.013224 
L 286.206783 512.164249 
L 311.176166 499.563042 
L 336.145549 487.204827 
L 361.114932 475.084917 
L 387.398493 462.579516 
L 413.682054 450.327821 
L 439.965615 438.324685 
L 466.249176 426.565065 
L 492.532737 415.044021 
L 518.816298 403.756712 
L 546.414037 392.151409 
L 574.011776 380.793196 
L 601.609515 369.676814 
L 622.636364 361.366321 
L 622.636364 361.366321 
" style="fill:none;stroke:#d62728;stroke-linecap:square;stroke-width:1.5;"/>
   </g>
   <g id="line2d_33">
    <path clip-path="url(#pf4d6d3d7d2)" d="M 115.363636 605.290909 
L 183.700895 605.178121 
L 225.754593 604.92165 
L 253.352332 604.538279 
L 273.065002 604.056145 
L 288.835139 603.465158 
L 301.976919 602.767916 
L 313.804522 601.920817 
L 324.317946 600.937002 
L 333.517193 599.848272 
L 341.402261 598.705596 
L 349.287329 597.328854 
L 355.85822 595.969889 
L 362.42911 594.385843 
L 369 592.541613 
L 374.256712 590.852323 
L 379.513424 588.948461 
L 384.770137 586.805191 
L 390.026849 584.395465 
L 395.283561 581.690005 
L 399.226095 579.447989 
L 403.168629 577.00793 
L 407.111163 574.35518 
L 411.053698 571.474555 
L 414.996232 568.350421 
L 418.938766 564.966813 
L 422.8813 561.307576 
L 426.823834 557.356542 
L 430.766368 553.097733 
L 434.708902 548.515601 
L 438.651437 543.595302 
L 442.593971 538.323002 
L 446.536505 532.686205 
L 450.479039 526.674116 
L 454.421573 520.278016 
L 458.364107 513.491647 
L 462.306642 506.311593 
L 466.249176 498.737648 
L 470.19171 490.773156 
L 475.448422 479.559318 
L 480.705134 467.69278 
L 485.961846 455.215326 
L 491.218559 442.182207 
L 497.789449 425.214394 
L 505.674517 404.073498 
L 516.187942 375.08872 
L 531.958078 331.571749 
L 539.843146 310.525626 
L 546.414037 293.63875 
L 551.670749 280.655714 
L 556.927461 268.202717 
L 562.184173 256.324239 
L 567.440886 245.052865 
L 572.697598 234.409871 
L 577.95431 224.406105 
L 581.896844 217.324007 
L 585.839378 210.600092 
L 589.781912 204.22969 
L 593.724447 198.206173 
L 597.666981 192.521251 
L 601.609515 187.16525 
L 605.552049 182.127384 
L 609.494583 177.395995 
L 613.437117 172.958778 
L 617.379651 168.802981 
L 621.322186 164.915584 
L 622.636364 163.67716 
L 622.636364 163.67716 
" style="fill:none;stroke:#9467bd;stroke-linecap:square;stroke-width:1.5;"/>
   </g>
   <g id="line2d_34">
    <path clip-path="url(#pf4d6d3d7d2)" d="M 115.363636 605.290909 
L 182.386717 605.175634 
L 223.126236 604.909961 
L 249.409797 604.529944 
L 269.122468 604.036269 
L 284.892605 603.433013 
L 298.034385 602.723511 
L 309.861988 601.86407 
L 320.375412 600.868685 
L 329.574659 599.769885 
L 337.459727 598.619123 
L 345.344795 597.235366 
L 351.915685 595.871873 
L 358.486576 594.285014 
L 365.057466 592.440252 
L 370.314178 590.752605 
L 375.57089 588.852609 
L 380.827602 586.715796 
L 386.084315 584.315485 
L 391.341027 581.622747 
L 396.597739 578.606427 
L 400.540273 576.111881 
L 404.482807 573.401845 
L 408.425341 570.460971 
L 412.367876 567.273429 
L 416.31041 563.82302 
L 420.252944 560.09331 
L 424.195478 556.067795 
L 428.138012 551.730096 
L 432.080546 547.064194 
L 436.023081 542.054688 
L 439.965615 536.687097 
L 443.908149 530.948185 
L 447.850683 524.826316 
L 451.793217 518.311834 
L 455.735751 511.397448 
L 459.678285 504.07863 
L 463.62082 496.353998 
L 467.563354 488.225678 
L 471.505888 479.699631 
L 476.7626 467.730892 
L 482.019312 455.109275 
L 487.276024 441.884546 
L 492.532737 428.120255 
L 499.103627 410.273824 
L 506.988695 388.151009 
L 521.444654 346.689351 
L 531.958078 316.865348 
L 538.528968 298.781979 
L 545.099859 281.334378 
L 550.356571 267.930624 
L 555.613283 255.084221 
L 560.869995 242.841171 
L 566.126707 231.234814 
L 571.38342 220.286455 
L 575.325954 212.513538 
L 579.268488 205.117322 
L 583.211022 198.095617 
L 587.153556 191.443755 
L 591.09609 185.154923 
L 595.038625 179.220487 
L 598.981159 173.630306 
L 602.923693 168.373023 
L 606.866227 163.436338 
L 610.808761 158.807251 
L 614.751295 154.472288 
L 618.693829 150.417692 
L 622.636364 146.629589 
L 622.636364 146.629589 
" style="fill:none;stroke:#8c564b;stroke-linecap:square;stroke-width:1.5;"/>
   </g>
   <g id="line2d_35">
    <path clip-path="url(#pf4d6d3d7d2)" d="M 115.363636 605.290909 
L 158.731512 605.161172 
L 199.471032 604.861299 
L 227.068771 604.45601 
L 249.409797 603.909163 
L 266.494112 603.283746 
L 280.950071 602.553008 
L 294.091851 601.672122 
L 305.919454 600.649609 
L 316.432878 599.509345 
L 325.632124 598.291655 
L 333.517193 597.052212 
L 341.402261 595.600356 
L 349.287329 593.901224 
L 355.85822 592.267687 
L 362.42911 590.408593 
L 369 588.294833 
L 374.256712 586.398899 
L 379.513424 584.301364 
L 384.770137 581.982806 
L 390.026849 579.422387 
L 395.283561 576.597868 
L 400.540273 573.485638 
L 405.796985 570.060793 
L 411.053698 566.297248 
L 414.996232 563.236056 
L 418.938766 559.9574 
L 422.8813 556.449383 
L 426.823834 552.700015 
L 430.766368 548.697318 
L 434.708902 544.429436 
L 438.651437 539.88477 
L 442.593971 535.052122 
L 446.536505 529.920863 
L 450.479039 524.481109 
L 454.421573 518.723916 
L 458.364107 512.641484 
L 462.306642 506.227377 
L 466.249176 499.476739 
L 470.19171 492.386522 
L 475.448422 482.403213 
L 480.705134 471.818489 
L 485.961846 460.64405 
L 491.218559 448.900109 
L 496.475271 436.615845 
L 501.731983 423.829621 
L 508.302873 407.214101 
L 514.873764 390.000682 
L 522.758832 368.740098 
L 535.900612 332.509282 
L 549.042393 296.389947 
L 556.927461 275.294897 
L 563.498351 258.265291 
L 570.069242 241.865106 
L 575.325954 229.266713 
L 580.582666 217.178087 
L 585.839378 205.632195 
L 591.09609 194.653211 
L 596.352803 184.25689 
L 601.609515 174.451143 
L 606.866227 165.236755 
L 610.808761 158.710936 
L 614.751295 152.510384 
L 618.693829 146.629212 
L 622.636364 141.060226 
L 622.636364 141.060226 
" style="fill:none;stroke:#e377c2;stroke-linecap:square;stroke-width:1.5;"/>
   </g>
   <g id="line2d_36">
    <path clip-path="url(#pf4d6d3d7d2)" d="M 115.363636 605.290909 
L 144.275553 605.173893 
L 171.873293 604.864255 
L 194.214319 604.41019 
L 213.92699 603.794654 
L 231.011305 603.041497 
L 245.467263 602.198021 
L 258.609044 601.226046 
L 270.436646 600.147864 
L 282.264249 598.838353 
L 292.777673 597.444529 
L 301.976919 596.017986 
L 311.176166 594.369271 
L 319.061234 592.755512 
L 326.946302 590.933328 
L 334.831371 588.878239 
L 342.716439 586.563264 
L 349.287329 584.414296 
L 355.85822 582.045693 
L 362.42911 579.43744 
L 369 576.568101 
L 375.57089 573.414807 
L 380.827602 570.671448 
L 386.084315 567.71776 
L 391.341027 564.540123 
L 396.597739 561.124398 
L 401.854451 557.455983 
L 407.111163 553.519862 
L 412.367876 549.300682 
L 417.624588 544.782838 
L 422.8813 539.950584 
L 428.138012 534.788155 
L 433.394724 529.279914 
L 438.651437 523.410519 
L 443.908149 517.16511 
L 449.164861 510.529518 
L 454.421573 503.490496 
L 459.678285 496.035965 
L 464.934998 488.155279 
L 470.19171 479.839502 
L 475.448422 471.081694 
L 480.705134 461.877199 
L 485.961846 452.223932 
L 491.218559 442.122651 
L 496.475271 431.577212 
L 501.731983 420.594796 
L 508.302873 406.268917 
L 514.873764 391.30619 
L 521.444654 375.744717 
L 528.015544 359.631751 
L 535.900612 339.647833 
L 543.785681 319.063623 
L 552.984927 294.460918 
L 566.126707 258.64374 
L 587.153556 201.291205 
L 597.666981 173.34316 
L 605.552049 152.965647 
L 613.437117 133.218524 
L 620.008008 117.316637 
L 622.636364 111.109091 
L 622.636364 111.109091 
" style="fill:none;stroke:#7f7f7f;stroke-linecap:square;stroke-width:1.5;"/>
   </g>
   <g id="line2d_37">
    <path clip-path="url(#pf4d6d3d7d2)" d="M 115.363636 605.290909 
L 146.90391 605.180182 
L 173.187471 604.889038 
L 195.528497 604.427802 
L 213.92699 603.839669 
L 231.011305 603.066741 
L 245.467263 602.192406 
L 258.609044 601.177558 
L 270.436646 600.045515 
L 280.950071 598.831453 
L 291.463495 597.387072 
L 300.662741 595.903982 
L 309.861988 594.185329 
L 317.747056 592.499468 
L 325.632124 590.592569 
L 333.517193 588.438788 
L 340.088083 586.435001 
L 346.658973 584.222332 
L 353.229863 581.781699 
L 359.800754 579.092717 
L 366.371644 576.133706 
L 372.942534 572.881722 
L 378.199246 570.05301 
L 383.455959 567.008492 
L 388.712671 563.734889 
L 393.969383 560.218574 
L 399.226095 556.445641 
L 404.482807 552.401995 
L 409.73952 548.07345 
L 414.996232 543.445851 
L 420.252944 538.505211 
L 425.509656 533.23786 
L 430.766368 527.630622 
L 436.023081 521.670999 
L 441.279793 515.347375 
L 446.536505 508.649232 
L 451.793217 501.567374 
L 457.049929 494.094159 
L 462.306642 486.223735 
L 467.563354 477.952266 
L 472.820066 469.278156 
L 478.076778 460.202253 
L 483.33349 450.728031 
L 488.590203 440.861741 
L 495.161093 427.991753 
L 501.731983 414.548078 
L 508.302873 400.562429 
L 514.873764 386.073697 
L 522.758832 368.087984 
L 530.6439 349.534859 
L 539.843146 327.308977 
L 551.670749 298.088132 
L 587.153556 209.891706 
L 596.352803 187.792665 
L 604.237871 169.341494 
L 612.122939 151.427743 
L 620.008008 134.118772 
L 622.636364 128.493382 
L 622.636364 128.493382 
" style="fill:none;stroke:#bcbd22;stroke-linecap:square;stroke-width:1.5;"/>
   </g>
   <g id="line2d_38">
    <path clip-path="url(#pf4d6d3d7d2)" d="M 115.363636 605.290909 
L 132.447951 605.184803 
L 141.647197 605.013063 
L 146.90391 604.877422 
L 167.930758 604.615984 
L 199.471032 604.484718 
L 207.3561 604.353452 
L 219.183702 604.184994 
L 223.126236 604.086545 
L 236.268017 603.931213 
L 240.210551 603.861205 
L 258.609044 603.624926 
L 263.865756 603.506787 
L 283.578427 603.105332 
L 286.206783 602.933593 
L 288.835139 602.659028 
L 292.777673 602.462129 
L 298.034385 602.127401 
L 300.662741 601.909719 
L 317.747056 599.767897 
L 320.375412 599.100629 
L 329.574659 596.870203 
L 332.203015 596.070575 
L 336.145549 594.631025 
L 342.716439 591.415011 
L 345.344795 590.333161 
L 346.658973 589.719493 
L 350.601507 587.502194 
L 351.915685 586.851334 
L 354.544041 585.859183 
L 358.486576 583.985362 
L 361.114932 582.961488 
L 363.743288 581.979182 
L 367.685822 580.164431 
L 370.314178 578.712849 
L 371.628356 577.519423 
L 372.942534 577.466917 
L 375.57089 576.024086 
L 378.199246 574.35154 
L 379.513424 573.251094 
L 380.827602 572.502879 
L 383.455959 570.528421 
L 386.084315 568.154696 
L 387.398493 566.754527 
L 391.341027 563.325206 
L 396.597739 557.727809 
L 397.911917 556.647054 
L 400.540273 553.982356 
L 404.482807 549.331168 
L 405.796985 547.81286 
L 408.425341 545.552899 
L 411.053698 542.684739 
L 413.682054 539.548578 
L 414.996232 538.267642 
L 416.31041 537.171572 
L 417.624588 536.451797 
L 425.509656 527.212867 
L 426.823834 526.342136 
L 433.394724 516.451252 
L 434.708902 514.931849 
L 436.023081 513.750456 
L 437.337259 512.096506 
L 438.651437 510.031256 
L 441.279793 505.40304 
L 442.593971 503.467962 
L 445.222327 500.997975 
L 446.536505 499.30027 
L 450.479039 493.06514 
L 451.793217 491.249296 
L 453.107395 489.97711 
L 454.421573 488.865726 
L 455.735751 487.217245 
L 458.364107 482.849373 
L 460.992463 479.199087 
L 462.306642 477.894086 
L 463.62082 476.755354 
L 464.934998 475.455822 
L 466.249176 473.66623 
L 468.877532 469.683405 
L 470.19171 467.82818 
L 471.505888 466.443325 
L 472.820066 465.349443 
L 474.134244 463.696586 
L 475.448422 461.681655 
L 478.076778 458.402196 
L 479.390956 458.402196 
L 480.705134 455.320729 
L 483.33349 453.107805 
L 484.647668 451.714199 
L 485.961846 449.769276 
L 488.590203 446.424184 
L 489.904381 445.029483 
L 491.218559 443.83387 
L 492.532737 442.451203 
L 496.475271 435.814618 
L 499.103627 432.35795 
L 500.417805 431.064981 
L 501.731983 429.213038 
L 503.046161 426.756178 
L 504.360339 423.793945 
L 505.674517 421.457412 
L 506.988695 419.922695 
L 509.617051 416.260377 
L 510.931229 413.746635 
L 512.245407 410.598442 
L 513.559585 406.762196 
L 516.187942 401.396703 
L 518.816298 395.127663 
L 520.130476 391.167809 
L 521.444654 386.610695 
L 522.758832 381.388501 
L 525.387188 369.515501 
L 526.701366 365.4211 
L 528.015544 362.035534 
L 529.329722 357.050712 
L 531.958078 345.910613 
L 534.586434 332.755584 
L 535.900612 328.758538 
L 537.21479 325.319372 
L 541.157325 310.787144 
L 542.471503 307.264843 
L 543.785681 302.751484 
L 545.099859 299.458898 
L 546.414037 296.557922 
L 547.728215 292.723864 
L 549.042393 288.45116 
L 550.356571 284.625853 
L 551.670749 281.207471 
L 552.984927 278.329466 
L 555.613283 273.780009 
L 556.927461 270.749955 
L 559.555817 263.719573 
L 560.869995 260.36026 
L 562.184173 257.62993 
L 564.812529 253.096881 
L 566.126707 249.939937 
L 570.069242 239.846684 
L 571.38342 236.667862 
L 572.697598 234.337892 
L 574.011776 232.435631 
L 575.325954 229.44605 
L 576.640132 226.734316 
L 577.95431 223.748017 
L 580.582666 218.75882 
L 583.211022 215.211359 
L 584.5252 212.232717 
L 588.467734 200.905565 
L 589.781912 197.51453 
L 591.09609 195.044544 
L 592.410268 192.979294 
L 593.724447 189.590446 
L 596.352803 182.117042 
L 598.981159 175.15995 
L 601.609515 170.063552 
L 602.923693 165.754749 
L 605.552049 158.00678 
L 606.866227 154.801705 
L 608.180405 150.947957 
L 609.494583 147.572236 
L 610.808761 145.925943 
L 613.437117 138.242513 
L 616.065473 130.207947 
L 617.379651 127.74343 
L 618.693829 124.46944 
L 620.008008 122.887686 
L 622.636364 114.457135 
L 622.636364 114.457135 
" style="fill:none;stroke:#17becf;stroke-dasharray:14.8,6.4;stroke-dashoffset:0;stroke-width:4;"/>
   </g>
   <g id="patch_3">
    <path d="M 90 630 
L 90 86.4 
" style="fill:none;stroke:#000000;stroke-linecap:square;stroke-linejoin:miter;stroke-width:0.8;"/>
   </g>
   <g id="patch_4">
    <path d="M 648 630 
L 648 86.4 
" style="fill:none;stroke:#000000;stroke-linecap:square;stroke-linejoin:miter;stroke-width:0.8;"/>
   </g>
   <g id="patch_5">
    <path d="M 90 630 
L 648 630 
" style="fill:none;stroke:#000000;stroke-linecap:square;stroke-linejoin:miter;stroke-width:0.8;"/>
   </g>
   <g id="patch_6">
    <path d="M 90 86.4 
L 648 86.4 
" style="fill:none;stroke:#000000;stroke-linecap:square;stroke-linejoin:miter;stroke-width:0.8;"/>
   </g>
   <g id="text_17">
    <!-- Lebanon relative err =  -->
    <g transform="translate(299.503125 80.4)scale(0.12 -0.12)">
     <defs>
      <path d="M 9.8125 72.90625 
L 19.671875 72.90625 
L 19.671875 8.296875 
L 55.171875 8.296875 
L 55.171875 0 
L 9.8125 0 
z
" id="DejaVuSans-76"/>
      <path d="M 48.6875 27.296875 
Q 48.6875 37.203125 44.609375 42.84375 
Q 40.53125 48.484375 33.40625 48.484375 
Q 26.265625 48.484375 22.1875 42.84375 
Q 18.109375 37.203125 18.109375 27.296875 
Q 18.109375 17.390625 22.1875 11.75 
Q 26.265625 6.109375 33.40625 6.109375 
Q 40.53125 6.109375 44.609375 11.75 
Q 48.6875 17.390625 48.6875 27.296875 
z
M 18.109375 46.390625 
Q 20.953125 51.265625 25.265625 53.625 
Q 29.59375 56 35.59375 56 
Q 45.5625 56 51.78125 48.09375 
Q 58.015625 40.1875 58.015625 27.296875 
Q 58.015625 14.40625 51.78125 6.484375 
Q 45.5625 -1.421875 35.59375 -1.421875 
Q 29.59375 -1.421875 25.265625 0.953125 
Q 20.953125 3.328125 18.109375 8.203125 
L 18.109375 0 
L 9.078125 0 
L 9.078125 75.984375 
L 18.109375 75.984375 
z
" id="DejaVuSans-98"/>
      <path d="M 54.890625 33.015625 
L 54.890625 0 
L 45.90625 0 
L 45.90625 32.71875 
Q 45.90625 40.484375 42.875 44.328125 
Q 39.84375 48.1875 33.796875 48.1875 
Q 26.515625 48.1875 22.3125 43.546875 
Q 18.109375 38.921875 18.109375 30.90625 
L 18.109375 0 
L 9.078125 0 
L 9.078125 54.6875 
L 18.109375 54.6875 
L 18.109375 46.1875 
Q 21.34375 51.125 25.703125 53.5625 
Q 30.078125 56 35.796875 56 
Q 45.21875 56 50.046875 50.171875 
Q 54.890625 44.34375 54.890625 33.015625 
z
" id="DejaVuSans-110"/>
      <path d="M 30.609375 48.390625 
Q 23.390625 48.390625 19.1875 42.75 
Q 14.984375 37.109375 14.984375 27.296875 
Q 14.984375 17.484375 19.15625 11.84375 
Q 23.34375 6.203125 30.609375 6.203125 
Q 37.796875 6.203125 41.984375 11.859375 
Q 46.1875 17.53125 46.1875 27.296875 
Q 46.1875 37.015625 41.984375 42.703125 
Q 37.796875 48.390625 30.609375 48.390625 
z
M 30.609375 56 
Q 42.328125 56 49.015625 48.375 
Q 55.71875 40.765625 55.71875 27.296875 
Q 55.71875 13.875 49.015625 6.21875 
Q 42.328125 -1.421875 30.609375 -1.421875 
Q 18.84375 -1.421875 12.171875 6.21875 
Q 5.515625 13.875 5.515625 27.296875 
Q 5.515625 40.765625 12.171875 48.375 
Q 18.84375 56 30.609375 56 
z
" id="DejaVuSans-111"/>
      <path d="M 41.109375 46.296875 
Q 39.59375 47.171875 37.8125 47.578125 
Q 36.03125 48 33.890625 48 
Q 26.265625 48 22.1875 43.046875 
Q 18.109375 38.09375 18.109375 28.8125 
L 18.109375 0 
L 9.078125 0 
L 9.078125 54.6875 
L 18.109375 54.6875 
L 18.109375 46.1875 
Q 20.953125 51.171875 25.484375 53.578125 
Q 30.03125 56 36.53125 56 
Q 37.453125 56 38.578125 55.875 
Q 39.703125 55.765625 41.0625 55.515625 
z
" id="DejaVuSans-114"/>
      <path d="M 10.59375 45.40625 
L 73.1875 45.40625 
L 73.1875 37.203125 
L 10.59375 37.203125 
z
M 10.59375 25.484375 
L 73.1875 25.484375 
L 73.1875 17.1875 
L 10.59375 17.1875 
z
" id="DejaVuSans-61"/>
     </defs>
     <use xlink:href="#DejaVuSans-76"/>
     <use x="53.962891" xlink:href="#DejaVuSans-101"/>
     <use x="115.486328" xlink:href="#DejaVuSans-98"/>
     <use x="178.962891" xlink:href="#DejaVuSans-97"/>
     <use x="240.242188" xlink:href="#DejaVuSans-110"/>
     <use x="303.621094" xlink:href="#DejaVuSans-111"/>
     <use x="364.802734" xlink:href="#DejaVuSans-110"/>
     <use x="428.181641" xlink:href="#DejaVuSans-32"/>
     <use x="459.96875" xlink:href="#DejaVuSans-114"/>
     <use x="498.832031" xlink:href="#DejaVuSans-101"/>
     <use x="560.355469" xlink:href="#DejaVuSans-108"/>
     <use x="588.138672" xlink:href="#DejaVuSans-97"/>
     <use x="649.417969" xlink:href="#DejaVuSans-116"/>
     <use x="688.626953" xlink:href="#DejaVuSans-105"/>
     <use x="716.410156" xlink:href="#DejaVuSans-118"/>
     <use x="775.589844" xlink:href="#DejaVuSans-101"/>
     <use x="837.113281" xlink:href="#DejaVuSans-32"/>
     <use x="868.900391" xlink:href="#DejaVuSans-101"/>
     <use x="930.423828" xlink:href="#DejaVuSans-114"/>
     <use x="969.787109" xlink:href="#DejaVuSans-114"/>
     <use x="1010.900391" xlink:href="#DejaVuSans-32"/>
     <use x="1042.6875" xlink:href="#DejaVuSans-61"/>
     <use x="1126.476562" xlink:href="#DejaVuSans-32"/>
    </g>
   </g>
   <g id="legend_1">
    <g id="patch_7">
     <path d="M 97 226.503125 
L 185.6 226.503125 
Q 187.6 226.503125 187.6 224.503125 
L 187.6 93.4 
Q 187.6 91.4 185.6 91.4 
L 97 91.4 
Q 95 91.4 95 93.4 
L 95 224.503125 
Q 95 226.503125 97 226.503125 
z
" style="fill:#ffffff;opacity:0.8;stroke:#cccccc;stroke-linejoin:miter;"/>
    </g>
    <g id="line2d_39">
     <path d="M 99 99.498438 
L 119 99.498438 
" style="fill:none;stroke:#1f77b4;stroke-linecap:square;stroke-width:1.5;"/>
    </g>
    <g id="line2d_40"/>
    <g id="text_18">
     <!-- SI -->
     <g transform="translate(127 102.998438)scale(0.1 -0.1)">
      <defs>
       <path d="M 53.515625 70.515625 
L 53.515625 60.890625 
Q 47.90625 63.578125 42.921875 64.890625 
Q 37.9375 66.21875 33.296875 66.21875 
Q 25.25 66.21875 20.875 63.09375 
Q 16.5 59.96875 16.5 54.203125 
Q 16.5 49.359375 19.40625 46.890625 
Q 22.3125 44.4375 30.421875 42.921875 
L 36.375 41.703125 
Q 47.40625 39.59375 52.65625 34.296875 
Q 57.90625 29 57.90625 20.125 
Q 57.90625 9.515625 50.796875 4.046875 
Q 43.703125 -1.421875 29.984375 -1.421875 
Q 24.8125 -1.421875 18.96875 -0.25 
Q 13.140625 0.921875 6.890625 3.21875 
L 6.890625 13.375 
Q 12.890625 10.015625 18.65625 8.296875 
Q 24.421875 6.59375 29.984375 6.59375 
Q 38.421875 6.59375 43.015625 9.90625 
Q 47.609375 13.234375 47.609375 19.390625 
Q 47.609375 24.75 44.3125 27.78125 
Q 41.015625 30.8125 33.5 32.328125 
L 27.484375 33.5 
Q 16.453125 35.6875 11.515625 40.375 
Q 6.59375 45.0625 6.59375 53.421875 
Q 6.59375 63.09375 13.40625 68.65625 
Q 20.21875 74.21875 32.171875 74.21875 
Q 37.3125 74.21875 42.625 73.28125 
Q 47.953125 72.359375 53.515625 70.515625 
z
" id="DejaVuSans-83"/>
       <path d="M 9.8125 72.90625 
L 19.671875 72.90625 
L 19.671875 0 
L 9.8125 0 
z
" id="DejaVuSans-73"/>
      </defs>
      <use xlink:href="#DejaVuSans-83"/>
      <use x="63.476562" xlink:href="#DejaVuSans-73"/>
     </g>
    </g>
    <g id="line2d_41">
     <path d="M 99 114.176563 
L 119 114.176563 
" style="fill:none;stroke:#ff7f0e;stroke-linecap:square;stroke-width:1.5;"/>
    </g>
    <g id="line2d_42"/>
    <g id="text_19">
     <!-- BD -->
     <g transform="translate(127 117.676563)scale(0.1 -0.1)">
      <defs>
       <path d="M 19.671875 34.8125 
L 19.671875 8.109375 
L 35.5 8.109375 
Q 43.453125 8.109375 47.28125 11.40625 
Q 51.125 14.703125 51.125 21.484375 
Q 51.125 28.328125 47.28125 31.5625 
Q 43.453125 34.8125 35.5 34.8125 
z
M 19.671875 64.796875 
L 19.671875 42.828125 
L 34.28125 42.828125 
Q 41.5 42.828125 45.03125 45.53125 
Q 48.578125 48.25 48.578125 53.8125 
Q 48.578125 59.328125 45.03125 62.0625 
Q 41.5 64.796875 34.28125 64.796875 
z
M 9.8125 72.90625 
L 35.015625 72.90625 
Q 46.296875 72.90625 52.390625 68.21875 
Q 58.5 63.53125 58.5 54.890625 
Q 58.5 48.1875 55.375 44.234375 
Q 52.25 40.28125 46.1875 39.3125 
Q 53.46875 37.75 57.5 32.78125 
Q 61.53125 27.828125 61.53125 20.40625 
Q 61.53125 10.640625 54.890625 5.3125 
Q 48.25 0 35.984375 0 
L 9.8125 0 
z
" id="DejaVuSans-66"/>
      </defs>
      <use xlink:href="#DejaVuSans-66"/>
      <use x="68.603516" xlink:href="#DejaVuSans-68"/>
     </g>
    </g>
    <g id="line2d_43">
     <path d="M 99 128.854688 
L 119 128.854688 
" style="fill:none;stroke:#2ca02c;stroke-linecap:square;stroke-width:1.5;"/>
    </g>
    <g id="line2d_44"/>
    <g id="text_20">
     <!-- SIR -->
     <g transform="translate(127 132.354688)scale(0.1 -0.1)">
      <defs>
       <path d="M 44.390625 34.1875 
Q 47.5625 33.109375 50.5625 29.59375 
Q 53.5625 26.078125 56.59375 19.921875 
L 66.609375 0 
L 56 0 
L 46.6875 18.703125 
Q 43.0625 26.03125 39.671875 28.421875 
Q 36.28125 30.8125 30.421875 30.8125 
L 19.671875 30.8125 
L 19.671875 0 
L 9.8125 0 
L 9.8125 72.90625 
L 32.078125 72.90625 
Q 44.578125 72.90625 50.734375 67.671875 
Q 56.890625 62.453125 56.890625 51.90625 
Q 56.890625 45.015625 53.6875 40.46875 
Q 50.484375 35.9375 44.390625 34.1875 
z
M 19.671875 64.796875 
L 19.671875 38.921875 
L 32.078125 38.921875 
Q 39.203125 38.921875 42.84375 42.21875 
Q 46.484375 45.515625 46.484375 51.90625 
Q 46.484375 58.296875 42.84375 61.546875 
Q 39.203125 64.796875 32.078125 64.796875 
z
" id="DejaVuSans-82"/>
      </defs>
      <use xlink:href="#DejaVuSans-83"/>
      <use x="63.476562" xlink:href="#DejaVuSans-73"/>
      <use x="92.96875" xlink:href="#DejaVuSans-82"/>
     </g>
    </g>
    <g id="line2d_45">
     <path d="M 99 143.532812 
L 119 143.532812 
" style="fill:none;stroke:#d62728;stroke-linecap:square;stroke-width:1.5;"/>
    </g>
    <g id="line2d_46"/>
    <g id="text_21">
     <!-- eSIR -->
     <g transform="translate(127 147.032812)scale(0.1 -0.1)">
      <use xlink:href="#DejaVuSans-101"/>
      <use x="61.523438" xlink:href="#DejaVuSans-83"/>
      <use x="125" xlink:href="#DejaVuSans-73"/>
      <use x="154.492188" xlink:href="#DejaVuSans-82"/>
     </g>
    </g>
    <g id="line2d_47">
     <path d="M 99 158.210938 
L 119 158.210938 
" style="fill:none;stroke:#9467bd;stroke-linecap:square;stroke-width:1.5;"/>
    </g>
    <g id="line2d_48"/>
    <g id="text_22">
     <!-- SEIR -->
     <g transform="translate(127 161.710938)scale(0.1 -0.1)">
      <defs>
       <path d="M 9.8125 72.90625 
L 55.90625 72.90625 
L 55.90625 64.59375 
L 19.671875 64.59375 
L 19.671875 43.015625 
L 54.390625 43.015625 
L 54.390625 34.71875 
L 19.671875 34.71875 
L 19.671875 8.296875 
L 56.78125 8.296875 
L 56.78125 0 
L 9.8125 0 
z
" id="DejaVuSans-69"/>
      </defs>
      <use xlink:href="#DejaVuSans-83"/>
      <use x="63.476562" xlink:href="#DejaVuSans-69"/>
      <use x="126.660156" xlink:href="#DejaVuSans-73"/>
      <use x="156.152344" xlink:href="#DejaVuSans-82"/>
     </g>
    </g>
    <g id="line2d_49">
     <path d="M 99 172.889063 
L 119 172.889063 
" style="fill:none;stroke:#8c564b;stroke-linecap:square;stroke-width:1.5;"/>
    </g>
    <g id="line2d_50"/>
    <g id="text_23">
     <!-- eSEIR -->
     <g transform="translate(127 176.389063)scale(0.1 -0.1)">
      <use xlink:href="#DejaVuSans-101"/>
      <use x="61.523438" xlink:href="#DejaVuSans-83"/>
      <use x="125" xlink:href="#DejaVuSans-69"/>
      <use x="188.183594" xlink:href="#DejaVuSans-73"/>
      <use x="217.675781" xlink:href="#DejaVuSans-82"/>
     </g>
    </g>
    <g id="line2d_51">
     <path d="M 99 187.567188 
L 119 187.567188 
" style="fill:none;stroke:#e377c2;stroke-linecap:square;stroke-width:1.5;"/>
    </g>
    <g id="line2d_52"/>
    <g id="text_24">
     <!-- SEIUR -->
     <g transform="translate(127 191.067188)scale(0.1 -0.1)">
      <defs>
       <path d="M 8.6875 72.90625 
L 18.609375 72.90625 
L 18.609375 28.609375 
Q 18.609375 16.890625 22.84375 11.734375 
Q 27.09375 6.59375 36.625 6.59375 
Q 46.09375 6.59375 50.34375 11.734375 
Q 54.59375 16.890625 54.59375 28.609375 
L 54.59375 72.90625 
L 64.5 72.90625 
L 64.5 27.390625 
Q 64.5 13.140625 57.4375 5.859375 
Q 50.390625 -1.421875 36.625 -1.421875 
Q 22.796875 -1.421875 15.734375 5.859375 
Q 8.6875 13.140625 8.6875 27.390625 
z
" id="DejaVuSans-85"/>
      </defs>
      <use xlink:href="#DejaVuSans-83"/>
      <use x="63.476562" xlink:href="#DejaVuSans-69"/>
      <use x="126.660156" xlink:href="#DejaVuSans-73"/>
      <use x="156.152344" xlink:href="#DejaVuSans-85"/>
      <use x="229.345703" xlink:href="#DejaVuSans-82"/>
     </g>
    </g>
    <g id="line2d_53">
     <path d="M 99 202.245312 
L 119 202.245312 
" style="fill:none;stroke:#7f7f7f;stroke-linecap:square;stroke-width:1.5;"/>
    </g>
    <g id="line2d_54"/>
    <g id="text_25">
     <!-- eSEIUR -->
     <g transform="translate(127 205.745312)scale(0.1 -0.1)">
      <use xlink:href="#DejaVuSans-101"/>
      <use x="61.523438" xlink:href="#DejaVuSans-83"/>
      <use x="125" xlink:href="#DejaVuSans-69"/>
      <use x="188.183594" xlink:href="#DejaVuSans-73"/>
      <use x="217.675781" xlink:href="#DejaVuSans-85"/>
      <use x="290.869141" xlink:href="#DejaVuSans-82"/>
     </g>
    </g>
    <g id="line2d_55">
     <path d="M 99 216.923437 
L 119 216.923437 
" style="fill:none;stroke:#bcbd22;stroke-linecap:square;stroke-width:1.5;"/>
    </g>
    <g id="line2d_56"/>
    <g id="text_26">
     <!-- eSEIUR$^{range}$ -->
     <g transform="translate(127 220.423437)scale(0.1 -0.1)">
      <defs>
       <path d="M 44.578125 46.390625 
Q 43.21875 47.125 41.453125 47.515625 
Q 39.703125 47.90625 37.703125 47.90625 
Q 30.515625 47.90625 25.140625 42.453125 
Q 19.78125 37.015625 18.015625 27.875 
L 12.5 0 
L 3.515625 0 
L 14.203125 54.6875 
L 23.1875 54.6875 
L 21.484375 46.1875 
Q 25.046875 50.921875 30 53.453125 
Q 34.96875 56 40.578125 56 
Q 42.046875 56 43.453125 55.828125 
Q 44.875 55.671875 46.296875 55.28125 
z
" id="DejaVuSans-Oblique-114"/>
       <path d="M 53.71875 31.203125 
L 47.609375 0 
L 38.625 0 
L 40.28125 8.296875 
Q 36.328125 3.421875 31.265625 1 
Q 26.21875 -1.421875 20.015625 -1.421875 
Q 13.03125 -1.421875 8.5625 2.84375 
Q 4.109375 7.125 4.109375 13.8125 
Q 4.109375 23.390625 11.75 28.953125 
Q 19.390625 34.515625 32.8125 34.515625 
L 45.3125 34.515625 
L 45.796875 36.921875 
Q 45.90625 37.3125 45.953125 37.765625 
Q 46 38.234375 46 39.203125 
Q 46 43.5625 42.453125 45.96875 
Q 38.921875 48.390625 32.515625 48.390625 
Q 28.125 48.390625 23.5 47.265625 
Q 18.890625 46.140625 14.015625 43.890625 
L 15.578125 52.203125 
Q 20.65625 54.109375 25.515625 55.046875 
Q 30.375 56 34.90625 56 
Q 44.578125 56 49.625 51.796875 
Q 54.6875 47.609375 54.6875 39.59375 
Q 54.6875 37.984375 54.4375 35.8125 
Q 54.203125 33.640625 53.71875 31.203125 
z
M 44 27.484375 
L 35.015625 27.484375 
Q 23.96875 27.484375 18.671875 24.53125 
Q 13.375 21.578125 13.375 15.375 
Q 13.375 11.078125 16.078125 8.640625 
Q 18.796875 6.203125 23.578125 6.203125 
Q 30.90625 6.203125 36.375 11.453125 
Q 41.84375 16.703125 43.609375 25.484375 
z
" id="DejaVuSans-Oblique-97"/>
       <path d="M 55.71875 33.015625 
L 49.3125 0 
L 40.28125 0 
L 46.6875 32.671875 
Q 47.125 34.96875 47.359375 36.71875 
Q 47.609375 38.484375 47.609375 39.5 
Q 47.609375 43.609375 45.015625 45.890625 
Q 42.4375 48.1875 37.796875 48.1875 
Q 30.5625 48.1875 25.34375 43.375 
Q 20.125 38.578125 18.5 30.328125 
L 12.5 0 
L 3.515625 0 
L 14.109375 54.6875 
L 23.09375 54.6875 
L 21.296875 46.09375 
Q 25.046875 50.828125 30.3125 53.40625 
Q 35.59375 56 41.40625 56 
Q 48.640625 56 52.609375 52.09375 
Q 56.59375 48.1875 56.59375 41.109375 
Q 56.59375 39.359375 56.375 37.359375 
Q 56.15625 35.359375 55.71875 33.015625 
z
" id="DejaVuSans-Oblique-110"/>
       <path d="M 59.625 54.6875 
L 50.296875 6.78125 
Q 47.609375 -7.125 40.015625 -13.953125 
Q 32.421875 -20.796875 19.578125 -20.796875 
Q 14.84375 -20.796875 10.78125 -20.09375 
Q 6.734375 -19.390625 3.21875 -17.921875 
L 4.890625 -9.1875 
Q 8.203125 -11.328125 11.90625 -12.34375 
Q 15.625 -13.375 19.828125 -13.375 
Q 28.375 -13.375 33.859375 -8.703125 
Q 39.359375 -4.046875 41.109375 4.6875 
L 41.890625 8.796875 
Q 38.140625 4.5 33.15625 2.25 
Q 28.171875 0 22.40625 0 
Q 14.109375 0 9.34375 5.484375 
Q 4.59375 10.984375 4.59375 20.609375 
Q 4.59375 28.171875 7.46875 35.421875 
Q 10.359375 42.671875 15.578125 48.296875 
Q 19.046875 52 23.65625 54 
Q 28.265625 56 33.296875 56 
Q 38.8125 56 42.90625 53.4375 
Q 47.015625 50.875 49.03125 46.1875 
L 50.59375 54.6875 
z
M 46.09375 34.625 
Q 46.09375 41.265625 42.96875 44.875 
Q 39.84375 48.484375 34.078125 48.484375 
Q 30.515625 48.484375 27.296875 47.0625 
Q 24.078125 45.65625 21.78125 43.109375 
Q 18.0625 38.921875 15.984375 33.234375 
Q 13.921875 27.546875 13.921875 21.484375 
Q 13.921875 14.75 17.0625 11.125 
Q 20.21875 7.515625 26.125 7.515625 
Q 34.671875 7.515625 40.375 15.25 
Q 46.09375 23 46.09375 34.625 
z
" id="DejaVuSans-Oblique-103"/>
       <path d="M 48.09375 32.234375 
Q 48.25 33.015625 48.3125 33.84375 
Q 48.390625 34.671875 48.390625 35.5 
Q 48.390625 41.453125 44.890625 44.921875 
Q 41.40625 48.390625 35.40625 48.390625 
Q 28.71875 48.390625 23.578125 44.15625 
Q 18.453125 39.9375 15.828125 32.171875 
z
M 55.90625 25.203125 
L 14.109375 25.203125 
Q 13.8125 23.34375 13.71875 22.265625 
Q 13.625 21.1875 13.625 20.40625 
Q 13.625 13.625 17.796875 9.90625 
Q 21.96875 6.203125 29.59375 6.203125 
Q 35.453125 6.203125 40.671875 7.515625 
Q 45.90625 8.84375 50.390625 11.375 
L 48.6875 2.484375 
Q 43.84375 0.53125 38.6875 -0.4375 
Q 33.546875 -1.421875 28.21875 -1.421875 
Q 16.84375 -1.421875 10.71875 4.015625 
Q 4.59375 9.46875 4.59375 19.484375 
Q 4.59375 28.03125 7.640625 35.375 
Q 10.6875 42.71875 16.609375 48.484375 
Q 20.40625 52.09375 25.65625 54.046875 
Q 30.90625 56 36.8125 56 
Q 46.09375 56 51.578125 50.4375 
Q 57.078125 44.875 57.078125 35.5 
Q 57.078125 33.25 56.78125 30.6875 
Q 56.5 28.125 55.90625 25.203125 
z
" id="DejaVuSans-Oblique-101"/>
      </defs>
      <use transform="translate(0 0.51875)" xlink:href="#DejaVuSans-101"/>
      <use transform="translate(61.523438 0.51875)" xlink:href="#DejaVuSans-83"/>
      <use transform="translate(125 0.51875)" xlink:href="#DejaVuSans-69"/>
      <use transform="translate(188.183594 0.51875)" xlink:href="#DejaVuSans-73"/>
      <use transform="translate(217.675781 0.51875)" xlink:href="#DejaVuSans-85"/>
      <use transform="translate(288.619141 0.51875)" xlink:href="#DejaVuSans-82"/>
      <use transform="translate(359.058594 38.8)scale(0.7)" xlink:href="#DejaVuSans-Oblique-114"/>
      <use transform="translate(387.837891 38.8)scale(0.7)" xlink:href="#DejaVuSans-Oblique-97"/>
      <use transform="translate(430.733398 38.8)scale(0.7)" xlink:href="#DejaVuSans-Oblique-110"/>
      <use transform="translate(475.098633 38.8)scale(0.7)" xlink:href="#DejaVuSans-Oblique-103"/>
      <use transform="translate(519.532227 38.8)scale(0.7)" xlink:href="#DejaVuSans-Oblique-101"/>
     </g>
    </g>
   </g>
  </g>
 </g>
 <defs>
  <clipPath id="pf4d6d3d7d2">
   <rect height="543.6" width="558" x="90" y="86.4"/>
  </clipPath>
 </defs>
</svg>
