<?xml version="1.0" encoding="utf-8" standalone="no"?>
<!DOCTYPE svg PUBLIC "-//W3C//DTD SVG 1.1//EN"
  "http://www.w3.org/Graphics/SVG/1.1/DTD/svg11.dtd">
<!-- Created with matplotlib (https://matplotlib.org/) -->
<svg height="720pt" version="1.1" viewBox="0 0 720 720" width="720pt" xmlns="http://www.w3.org/2000/svg" xmlns:xlink="http://www.w3.org/1999/xlink">
 <metadata>
  <rdf:RDF xmlns:cc="http://creativecommons.org/ns#" xmlns:dc="http://purl.org/dc/elements/1.1/" xmlns:rdf="http://www.w3.org/1999/02/22-rdf-syntax-ns#">
   <cc:Work>
    <dc:type rdf:resource="http://purl.org/dc/dcmitype/StillImage"/>
    <dc:date>2022-07-13T18:54:13.541894</dc:date>
    <dc:format>image/svg+xml</dc:format>
    <dc:creator>
     <cc:Agent>
      <dc:title>Matplotlib v3.3.2, https://matplotlib.org/</dc:title>
     </cc:Agent>
    </dc:creator>
   </cc:Work>
  </rdf:RDF>
 </metadata>
 <defs>
  <style type="text/css">*{stroke-linecap:butt;stroke-linejoin:round;}</style>
 </defs>
 <g id="figure_1">
  <g id="patch_1">
   <path d="M 0 720 
L 720 720 
L 720 0 
L 0 0 
z
" style="fill:none;"/>
  </g>
  <g id="axes_1">
   <g id="patch_2">
    <path d="M 90 630 
L 648 630 
L 648 86.4 
L 90 86.4 
z
" style="fill:#ffffff;"/>
   </g>
   <g id="matplotlib.axis_1">
    <g id="xtick_1">
     <g id="line2d_1">
      <path clip-path="url(#p8fb9ffc65d)" d="M 115.363636 630 
L 115.363636 86.4 
" style="fill:none;stroke:#b0b0b0;stroke-linecap:square;stroke-width:0.8;"/>
     </g>
     <g id="line2d_2">
      <defs>
       <path d="M 0 0 
L 0 3.5 
" id="m3175f8cff6" style="stroke:#000000;stroke-width:0.8;"/>
      </defs>
      <g>
       <use style="stroke:#000000;stroke-width:0.8;" x="115.363636" xlink:href="#m3175f8cff6" y="630"/>
      </g>
     </g>
     <g id="text_1">
      <!-- 0 -->
      <g transform="translate(112.182386 644.598438)scale(0.1 -0.1)">
       <defs>
        <path d="M 31.78125 66.40625 
Q 24.171875 66.40625 20.328125 58.90625 
Q 16.5 51.421875 16.5 36.375 
Q 16.5 21.390625 20.328125 13.890625 
Q 24.171875 6.390625 31.78125 6.390625 
Q 39.453125 6.390625 43.28125 13.890625 
Q 47.125 21.390625 47.125 36.375 
Q 47.125 51.421875 43.28125 58.90625 
Q 39.453125 66.40625 31.78125 66.40625 
z
M 31.78125 74.21875 
Q 44.046875 74.21875 50.515625 64.515625 
Q 56.984375 54.828125 56.984375 36.375 
Q 56.984375 17.96875 50.515625 8.265625 
Q 44.046875 -1.421875 31.78125 -1.421875 
Q 19.53125 -1.421875 13.0625 8.265625 
Q 6.59375 17.96875 6.59375 36.375 
Q 6.59375 54.828125 13.0625 64.515625 
Q 19.53125 74.21875 31.78125 74.21875 
z
" id="DejaVuSans-48"/>
       </defs>
       <use xlink:href="#DejaVuSans-48"/>
      </g>
     </g>
    </g>
    <g id="xtick_2">
     <g id="line2d_3">
      <path clip-path="url(#p8fb9ffc65d)" d="M 178.772727 630 
L 178.772727 86.4 
" style="fill:none;stroke:#b0b0b0;stroke-linecap:square;stroke-width:0.8;"/>
     </g>
     <g id="line2d_4">
      <g>
       <use style="stroke:#000000;stroke-width:0.8;" x="178.772727" xlink:href="#m3175f8cff6" y="630"/>
      </g>
     </g>
     <g id="text_2">
      <!-- 25 -->
      <g transform="translate(172.410227 644.598438)scale(0.1 -0.1)">
       <defs>
        <path d="M 19.1875 8.296875 
L 53.609375 8.296875 
L 53.609375 0 
L 7.328125 0 
L 7.328125 8.296875 
Q 12.9375 14.109375 22.625 23.890625 
Q 32.328125 33.6875 34.8125 36.53125 
Q 39.546875 41.84375 41.421875 45.53125 
Q 43.3125 49.21875 43.3125 52.78125 
Q 43.3125 58.59375 39.234375 62.25 
Q 35.15625 65.921875 28.609375 65.921875 
Q 23.96875 65.921875 18.8125 64.3125 
Q 13.671875 62.703125 7.8125 59.421875 
L 7.8125 69.390625 
Q 13.765625 71.78125 18.9375 73 
Q 24.125 74.21875 28.421875 74.21875 
Q 39.75 74.21875 46.484375 68.546875 
Q 53.21875 62.890625 53.21875 53.421875 
Q 53.21875 48.921875 51.53125 44.890625 
Q 49.859375 40.875 45.40625 35.40625 
Q 44.1875 33.984375 37.640625 27.21875 
Q 31.109375 20.453125 19.1875 8.296875 
z
" id="DejaVuSans-50"/>
        <path d="M 10.796875 72.90625 
L 49.515625 72.90625 
L 49.515625 64.59375 
L 19.828125 64.59375 
L 19.828125 46.734375 
Q 21.96875 47.46875 24.109375 47.828125 
Q 26.265625 48.1875 28.421875 48.1875 
Q 40.625 48.1875 47.75 41.5 
Q 54.890625 34.8125 54.890625 23.390625 
Q 54.890625 11.625 47.5625 5.09375 
Q 40.234375 -1.421875 26.90625 -1.421875 
Q 22.3125 -1.421875 17.546875 -0.640625 
Q 12.796875 0.140625 7.71875 1.703125 
L 7.71875 11.625 
Q 12.109375 9.234375 16.796875 8.0625 
Q 21.484375 6.890625 26.703125 6.890625 
Q 35.15625 6.890625 40.078125 11.328125 
Q 45.015625 15.765625 45.015625 23.390625 
Q 45.015625 31 40.078125 35.4375 
Q 35.15625 39.890625 26.703125 39.890625 
Q 22.75 39.890625 18.8125 39.015625 
Q 14.890625 38.140625 10.796875 36.28125 
z
" id="DejaVuSans-53"/>
       </defs>
       <use xlink:href="#DejaVuSans-50"/>
       <use x="63.623047" xlink:href="#DejaVuSans-53"/>
      </g>
     </g>
    </g>
    <g id="xtick_3">
     <g id="line2d_5">
      <path clip-path="url(#p8fb9ffc65d)" d="M 242.181818 630 
L 242.181818 86.4 
" style="fill:none;stroke:#b0b0b0;stroke-linecap:square;stroke-width:0.8;"/>
     </g>
     <g id="line2d_6">
      <g>
       <use style="stroke:#000000;stroke-width:0.8;" x="242.181818" xlink:href="#m3175f8cff6" y="630"/>
      </g>
     </g>
     <g id="text_3">
      <!-- 50 -->
      <g transform="translate(235.819318 644.598438)scale(0.1 -0.1)">
       <use xlink:href="#DejaVuSans-53"/>
       <use x="63.623047" xlink:href="#DejaVuSans-48"/>
      </g>
     </g>
    </g>
    <g id="xtick_4">
     <g id="line2d_7">
      <path clip-path="url(#p8fb9ffc65d)" d="M 305.590909 630 
L 305.590909 86.4 
" style="fill:none;stroke:#b0b0b0;stroke-linecap:square;stroke-width:0.8;"/>
     </g>
     <g id="line2d_8">
      <g>
       <use style="stroke:#000000;stroke-width:0.8;" x="305.590909" xlink:href="#m3175f8cff6" y="630"/>
      </g>
     </g>
     <g id="text_4">
      <!-- 75 -->
      <g transform="translate(299.228409 644.598438)scale(0.1 -0.1)">
       <defs>
        <path d="M 8.203125 72.90625 
L 55.078125 72.90625 
L 55.078125 68.703125 
L 28.609375 0 
L 18.3125 0 
L 43.21875 64.59375 
L 8.203125 64.59375 
z
" id="DejaVuSans-55"/>
       </defs>
       <use xlink:href="#DejaVuSans-55"/>
       <use x="63.623047" xlink:href="#DejaVuSans-53"/>
      </g>
     </g>
    </g>
    <g id="xtick_5">
     <g id="line2d_9">
      <path clip-path="url(#p8fb9ffc65d)" d="M 369 630 
L 369 86.4 
" style="fill:none;stroke:#b0b0b0;stroke-linecap:square;stroke-width:0.8;"/>
     </g>
     <g id="line2d_10">
      <g>
       <use style="stroke:#000000;stroke-width:0.8;" x="369" xlink:href="#m3175f8cff6" y="630"/>
      </g>
     </g>
     <g id="text_5">
      <!-- 100 -->
      <g transform="translate(359.45625 644.598438)scale(0.1 -0.1)">
       <defs>
        <path d="M 12.40625 8.296875 
L 28.515625 8.296875 
L 28.515625 63.921875 
L 10.984375 60.40625 
L 10.984375 69.390625 
L 28.421875 72.90625 
L 38.28125 72.90625 
L 38.28125 8.296875 
L 54.390625 8.296875 
L 54.390625 0 
L 12.40625 0 
z
" id="DejaVuSans-49"/>
       </defs>
       <use xlink:href="#DejaVuSans-49"/>
       <use x="63.623047" xlink:href="#DejaVuSans-48"/>
       <use x="127.246094" xlink:href="#DejaVuSans-48"/>
      </g>
     </g>
    </g>
    <g id="xtick_6">
     <g id="line2d_11">
      <path clip-path="url(#p8fb9ffc65d)" d="M 432.409091 630 
L 432.409091 86.4 
" style="fill:none;stroke:#b0b0b0;stroke-linecap:square;stroke-width:0.8;"/>
     </g>
     <g id="line2d_12">
      <g>
       <use style="stroke:#000000;stroke-width:0.8;" x="432.409091" xlink:href="#m3175f8cff6" y="630"/>
      </g>
     </g>
     <g id="text_6">
      <!-- 125 -->
      <g transform="translate(422.865341 644.598438)scale(0.1 -0.1)">
       <use xlink:href="#DejaVuSans-49"/>
       <use x="63.623047" xlink:href="#DejaVuSans-50"/>
       <use x="127.246094" xlink:href="#DejaVuSans-53"/>
      </g>
     </g>
    </g>
    <g id="xtick_7">
     <g id="line2d_13">
      <path clip-path="url(#p8fb9ffc65d)" d="M 495.818182 630 
L 495.818182 86.4 
" style="fill:none;stroke:#b0b0b0;stroke-linecap:square;stroke-width:0.8;"/>
     </g>
     <g id="line2d_14">
      <g>
       <use style="stroke:#000000;stroke-width:0.8;" x="495.818182" xlink:href="#m3175f8cff6" y="630"/>
      </g>
     </g>
     <g id="text_7">
      <!-- 150 -->
      <g transform="translate(486.274432 644.598438)scale(0.1 -0.1)">
       <use xlink:href="#DejaVuSans-49"/>
       <use x="63.623047" xlink:href="#DejaVuSans-53"/>
       <use x="127.246094" xlink:href="#DejaVuSans-48"/>
      </g>
     </g>
    </g>
    <g id="xtick_8">
     <g id="line2d_15">
      <path clip-path="url(#p8fb9ffc65d)" d="M 559.227273 630 
L 559.227273 86.4 
" style="fill:none;stroke:#b0b0b0;stroke-linecap:square;stroke-width:0.8;"/>
     </g>
     <g id="line2d_16">
      <g>
       <use style="stroke:#000000;stroke-width:0.8;" x="559.227273" xlink:href="#m3175f8cff6" y="630"/>
      </g>
     </g>
     <g id="text_8">
      <!-- 175 -->
      <g transform="translate(549.683523 644.598438)scale(0.1 -0.1)">
       <use xlink:href="#DejaVuSans-49"/>
       <use x="63.623047" xlink:href="#DejaVuSans-55"/>
       <use x="127.246094" xlink:href="#DejaVuSans-53"/>
      </g>
     </g>
    </g>
    <g id="xtick_9">
     <g id="line2d_17">
      <path clip-path="url(#p8fb9ffc65d)" d="M 622.636364 630 
L 622.636364 86.4 
" style="fill:none;stroke:#b0b0b0;stroke-linecap:square;stroke-width:0.8;"/>
     </g>
     <g id="line2d_18">
      <g>
       <use style="stroke:#000000;stroke-width:0.8;" x="622.636364" xlink:href="#m3175f8cff6" y="630"/>
      </g>
     </g>
     <g id="text_9">
      <!-- 200 -->
      <g transform="translate(613.092614 644.598438)scale(0.1 -0.1)">
       <use xlink:href="#DejaVuSans-50"/>
       <use x="63.623047" xlink:href="#DejaVuSans-48"/>
       <use x="127.246094" xlink:href="#DejaVuSans-48"/>
      </g>
     </g>
    </g>
    <g id="text_10">
     <!-- Days -->
     <g transform="translate(356.521875 658.276562)scale(0.1 -0.1)">
      <defs>
       <path d="M 19.671875 64.796875 
L 19.671875 8.109375 
L 31.59375 8.109375 
Q 46.6875 8.109375 53.6875 14.9375 
Q 60.6875 21.78125 60.6875 36.53125 
Q 60.6875 51.171875 53.6875 57.984375 
Q 46.6875 64.796875 31.59375 64.796875 
z
M 9.8125 72.90625 
L 30.078125 72.90625 
Q 51.265625 72.90625 61.171875 64.09375 
Q 71.09375 55.28125 71.09375 36.53125 
Q 71.09375 17.671875 61.125 8.828125 
Q 51.171875 0 30.078125 0 
L 9.8125 0 
z
" id="DejaVuSans-68"/>
       <path d="M 34.28125 27.484375 
Q 23.390625 27.484375 19.1875 25 
Q 14.984375 22.515625 14.984375 16.5 
Q 14.984375 11.71875 18.140625 8.90625 
Q 21.296875 6.109375 26.703125 6.109375 
Q 34.1875 6.109375 38.703125 11.40625 
Q 43.21875 16.703125 43.21875 25.484375 
L 43.21875 27.484375 
z
M 52.203125 31.203125 
L 52.203125 0 
L 43.21875 0 
L 43.21875 8.296875 
Q 40.140625 3.328125 35.546875 0.953125 
Q 30.953125 -1.421875 24.3125 -1.421875 
Q 15.921875 -1.421875 10.953125 3.296875 
Q 6 8.015625 6 15.921875 
Q 6 25.140625 12.171875 29.828125 
Q 18.359375 34.515625 30.609375 34.515625 
L 43.21875 34.515625 
L 43.21875 35.40625 
Q 43.21875 41.609375 39.140625 45 
Q 35.0625 48.390625 27.6875 48.390625 
Q 23 48.390625 18.546875 47.265625 
Q 14.109375 46.140625 10.015625 43.890625 
L 10.015625 52.203125 
Q 14.9375 54.109375 19.578125 55.046875 
Q 24.21875 56 28.609375 56 
Q 40.484375 56 46.34375 49.84375 
Q 52.203125 43.703125 52.203125 31.203125 
z
" id="DejaVuSans-97"/>
       <path d="M 32.171875 -5.078125 
Q 28.375 -14.84375 24.75 -17.8125 
Q 21.140625 -20.796875 15.09375 -20.796875 
L 7.90625 -20.796875 
L 7.90625 -13.28125 
L 13.1875 -13.28125 
Q 16.890625 -13.28125 18.9375 -11.515625 
Q 21 -9.765625 23.484375 -3.21875 
L 25.09375 0.875 
L 2.984375 54.6875 
L 12.5 54.6875 
L 29.59375 11.921875 
L 46.6875 54.6875 
L 56.203125 54.6875 
z
" id="DejaVuSans-121"/>
       <path d="M 44.28125 53.078125 
L 44.28125 44.578125 
Q 40.484375 46.53125 36.375 47.5 
Q 32.28125 48.484375 27.875 48.484375 
Q 21.1875 48.484375 17.84375 46.4375 
Q 14.5 44.390625 14.5 40.28125 
Q 14.5 37.15625 16.890625 35.375 
Q 19.28125 33.59375 26.515625 31.984375 
L 29.59375 31.296875 
Q 39.15625 29.25 43.1875 25.515625 
Q 47.21875 21.78125 47.21875 15.09375 
Q 47.21875 7.46875 41.1875 3.015625 
Q 35.15625 -1.421875 24.609375 -1.421875 
Q 20.21875 -1.421875 15.453125 -0.5625 
Q 10.6875 0.296875 5.421875 2 
L 5.421875 11.28125 
Q 10.40625 8.6875 15.234375 7.390625 
Q 20.0625 6.109375 24.8125 6.109375 
Q 31.15625 6.109375 34.5625 8.28125 
Q 37.984375 10.453125 37.984375 14.40625 
Q 37.984375 18.0625 35.515625 20.015625 
Q 33.0625 21.96875 24.703125 23.78125 
L 21.578125 24.515625 
Q 13.234375 26.265625 9.515625 29.90625 
Q 5.8125 33.546875 5.8125 39.890625 
Q 5.8125 47.609375 11.28125 51.796875 
Q 16.75 56 26.8125 56 
Q 31.78125 56 36.171875 55.265625 
Q 40.578125 54.546875 44.28125 53.078125 
z
" id="DejaVuSans-115"/>
      </defs>
      <use xlink:href="#DejaVuSans-68"/>
      <use x="77.001953" xlink:href="#DejaVuSans-97"/>
      <use x="138.28125" xlink:href="#DejaVuSans-121"/>
      <use x="197.460938" xlink:href="#DejaVuSans-115"/>
     </g>
    </g>
   </g>
   <g id="matplotlib.axis_2">
    <g id="ytick_1">
     <g id="line2d_19">
      <path clip-path="url(#p8fb9ffc65d)" d="M 90 605.30261 
L 648 605.30261 
" style="fill:none;stroke:#b0b0b0;stroke-linecap:square;stroke-width:0.8;"/>
     </g>
     <g id="line2d_20">
      <defs>
       <path d="M 0 0 
L -3.5 0 
" id="mf680ec56bd" style="stroke:#000000;stroke-width:0.8;"/>
      </defs>
      <g>
       <use style="stroke:#000000;stroke-width:0.8;" x="90" xlink:href="#mf680ec56bd" y="605.30261"/>
      </g>
     </g>
     <g id="text_11">
      <!-- 0 -->
      <g transform="translate(76.6375 609.101829)scale(0.1 -0.1)">
       <use xlink:href="#DejaVuSans-48"/>
      </g>
     </g>
    </g>
    <g id="ytick_2">
     <g id="line2d_21">
      <path clip-path="url(#p8fb9ffc65d)" d="M 90 536.472335 
L 648 536.472335 
" style="fill:none;stroke:#b0b0b0;stroke-linecap:square;stroke-width:0.8;"/>
     </g>
     <g id="line2d_22">
      <g>
       <use style="stroke:#000000;stroke-width:0.8;" x="90" xlink:href="#mf680ec56bd" y="536.472335"/>
      </g>
     </g>
     <g id="text_12">
      <!-- 100000 -->
      <g transform="translate(44.825 540.271554)scale(0.1 -0.1)">
       <use xlink:href="#DejaVuSans-49"/>
       <use x="63.623047" xlink:href="#DejaVuSans-48"/>
       <use x="127.246094" xlink:href="#DejaVuSans-48"/>
       <use x="190.869141" xlink:href="#DejaVuSans-48"/>
       <use x="254.492188" xlink:href="#DejaVuSans-48"/>
       <use x="318.115234" xlink:href="#DejaVuSans-48"/>
      </g>
     </g>
    </g>
    <g id="ytick_3">
     <g id="line2d_23">
      <path clip-path="url(#p8fb9ffc65d)" d="M 90 467.64206 
L 648 467.64206 
" style="fill:none;stroke:#b0b0b0;stroke-linecap:square;stroke-width:0.8;"/>
     </g>
     <g id="line2d_24">
      <g>
       <use style="stroke:#000000;stroke-width:0.8;" x="90" xlink:href="#mf680ec56bd" y="467.64206"/>
      </g>
     </g>
     <g id="text_13">
      <!-- 200000 -->
      <g transform="translate(44.825 471.441279)scale(0.1 -0.1)">
       <use xlink:href="#DejaVuSans-50"/>
       <use x="63.623047" xlink:href="#DejaVuSans-48"/>
       <use x="127.246094" xlink:href="#DejaVuSans-48"/>
       <use x="190.869141" xlink:href="#DejaVuSans-48"/>
       <use x="254.492188" xlink:href="#DejaVuSans-48"/>
       <use x="318.115234" xlink:href="#DejaVuSans-48"/>
      </g>
     </g>
    </g>
    <g id="ytick_4">
     <g id="line2d_25">
      <path clip-path="url(#p8fb9ffc65d)" d="M 90 398.811785 
L 648 398.811785 
" style="fill:none;stroke:#b0b0b0;stroke-linecap:square;stroke-width:0.8;"/>
     </g>
     <g id="line2d_26">
      <g>
       <use style="stroke:#000000;stroke-width:0.8;" x="90" xlink:href="#mf680ec56bd" y="398.811785"/>
      </g>
     </g>
     <g id="text_14">
      <!-- 300000 -->
      <g transform="translate(44.825 402.611004)scale(0.1 -0.1)">
       <defs>
        <path d="M 40.578125 39.3125 
Q 47.65625 37.796875 51.625 33 
Q 55.609375 28.21875 55.609375 21.1875 
Q 55.609375 10.40625 48.1875 4.484375 
Q 40.765625 -1.421875 27.09375 -1.421875 
Q 22.515625 -1.421875 17.65625 -0.515625 
Q 12.796875 0.390625 7.625 2.203125 
L 7.625 11.71875 
Q 11.71875 9.328125 16.59375 8.109375 
Q 21.484375 6.890625 26.8125 6.890625 
Q 36.078125 6.890625 40.9375 10.546875 
Q 45.796875 14.203125 45.796875 21.1875 
Q 45.796875 27.640625 41.28125 31.265625 
Q 36.765625 34.90625 28.71875 34.90625 
L 20.21875 34.90625 
L 20.21875 43.015625 
L 29.109375 43.015625 
Q 36.375 43.015625 40.234375 45.921875 
Q 44.09375 48.828125 44.09375 54.296875 
Q 44.09375 59.90625 40.109375 62.90625 
Q 36.140625 65.921875 28.71875 65.921875 
Q 24.65625 65.921875 20.015625 65.03125 
Q 15.375 64.15625 9.8125 62.3125 
L 9.8125 71.09375 
Q 15.4375 72.65625 20.34375 73.4375 
Q 25.25 74.21875 29.59375 74.21875 
Q 40.828125 74.21875 47.359375 69.109375 
Q 53.90625 64.015625 53.90625 55.328125 
Q 53.90625 49.265625 50.4375 45.09375 
Q 46.96875 40.921875 40.578125 39.3125 
z
" id="DejaVuSans-51"/>
       </defs>
       <use xlink:href="#DejaVuSans-51"/>
       <use x="63.623047" xlink:href="#DejaVuSans-48"/>
       <use x="127.246094" xlink:href="#DejaVuSans-48"/>
       <use x="190.869141" xlink:href="#DejaVuSans-48"/>
       <use x="254.492188" xlink:href="#DejaVuSans-48"/>
       <use x="318.115234" xlink:href="#DejaVuSans-48"/>
      </g>
     </g>
    </g>
    <g id="ytick_5">
     <g id="line2d_27">
      <path clip-path="url(#p8fb9ffc65d)" d="M 90 329.98151 
L 648 329.98151 
" style="fill:none;stroke:#b0b0b0;stroke-linecap:square;stroke-width:0.8;"/>
     </g>
     <g id="line2d_28">
      <g>
       <use style="stroke:#000000;stroke-width:0.8;" x="90" xlink:href="#mf680ec56bd" y="329.98151"/>
      </g>
     </g>
     <g id="text_15">
      <!-- 400000 -->
      <g transform="translate(44.825 333.780729)scale(0.1 -0.1)">
       <defs>
        <path d="M 37.796875 64.3125 
L 12.890625 25.390625 
L 37.796875 25.390625 
z
M 35.203125 72.90625 
L 47.609375 72.90625 
L 47.609375 25.390625 
L 58.015625 25.390625 
L 58.015625 17.1875 
L 47.609375 17.1875 
L 47.609375 0 
L 37.796875 0 
L 37.796875 17.1875 
L 4.890625 17.1875 
L 4.890625 26.703125 
z
" id="DejaVuSans-52"/>
       </defs>
       <use xlink:href="#DejaVuSans-52"/>
       <use x="63.623047" xlink:href="#DejaVuSans-48"/>
       <use x="127.246094" xlink:href="#DejaVuSans-48"/>
       <use x="190.869141" xlink:href="#DejaVuSans-48"/>
       <use x="254.492188" xlink:href="#DejaVuSans-48"/>
       <use x="318.115234" xlink:href="#DejaVuSans-48"/>
      </g>
     </g>
    </g>
    <g id="ytick_6">
     <g id="line2d_29">
      <path clip-path="url(#p8fb9ffc65d)" d="M 90 261.151235 
L 648 261.151235 
" style="fill:none;stroke:#b0b0b0;stroke-linecap:square;stroke-width:0.8;"/>
     </g>
     <g id="line2d_30">
      <g>
       <use style="stroke:#000000;stroke-width:0.8;" x="90" xlink:href="#mf680ec56bd" y="261.151235"/>
      </g>
     </g>
     <g id="text_16">
      <!-- 500000 -->
      <g transform="translate(44.825 264.950454)scale(0.1 -0.1)">
       <use xlink:href="#DejaVuSans-53"/>
       <use x="63.623047" xlink:href="#DejaVuSans-48"/>
       <use x="127.246094" xlink:href="#DejaVuSans-48"/>
       <use x="190.869141" xlink:href="#DejaVuSans-48"/>
       <use x="254.492188" xlink:href="#DejaVuSans-48"/>
       <use x="318.115234" xlink:href="#DejaVuSans-48"/>
      </g>
     </g>
    </g>
    <g id="ytick_7">
     <g id="line2d_31">
      <path clip-path="url(#p8fb9ffc65d)" d="M 90 192.32096 
L 648 192.32096 
" style="fill:none;stroke:#b0b0b0;stroke-linecap:square;stroke-width:0.8;"/>
     </g>
     <g id="line2d_32">
      <g>
       <use style="stroke:#000000;stroke-width:0.8;" x="90" xlink:href="#mf680ec56bd" y="192.32096"/>
      </g>
     </g>
     <g id="text_17">
      <!-- 600000 -->
      <g transform="translate(44.825 196.120179)scale(0.1 -0.1)">
       <defs>
        <path d="M 33.015625 40.375 
Q 26.375 40.375 22.484375 35.828125 
Q 18.609375 31.296875 18.609375 23.390625 
Q 18.609375 15.53125 22.484375 10.953125 
Q 26.375 6.390625 33.015625 6.390625 
Q 39.65625 6.390625 43.53125 10.953125 
Q 47.40625 15.53125 47.40625 23.390625 
Q 47.40625 31.296875 43.53125 35.828125 
Q 39.65625 40.375 33.015625 40.375 
z
M 52.59375 71.296875 
L 52.59375 62.3125 
Q 48.875 64.0625 45.09375 64.984375 
Q 41.3125 65.921875 37.59375 65.921875 
Q 27.828125 65.921875 22.671875 59.328125 
Q 17.53125 52.734375 16.796875 39.40625 
Q 19.671875 43.65625 24.015625 45.921875 
Q 28.375 48.1875 33.59375 48.1875 
Q 44.578125 48.1875 50.953125 41.515625 
Q 57.328125 34.859375 57.328125 23.390625 
Q 57.328125 12.15625 50.6875 5.359375 
Q 44.046875 -1.421875 33.015625 -1.421875 
Q 20.359375 -1.421875 13.671875 8.265625 
Q 6.984375 17.96875 6.984375 36.375 
Q 6.984375 53.65625 15.1875 63.9375 
Q 23.390625 74.21875 37.203125 74.21875 
Q 40.921875 74.21875 44.703125 73.484375 
Q 48.484375 72.75 52.59375 71.296875 
z
" id="DejaVuSans-54"/>
       </defs>
       <use xlink:href="#DejaVuSans-54"/>
       <use x="63.623047" xlink:href="#DejaVuSans-48"/>
       <use x="127.246094" xlink:href="#DejaVuSans-48"/>
       <use x="190.869141" xlink:href="#DejaVuSans-48"/>
       <use x="254.492188" xlink:href="#DejaVuSans-48"/>
       <use x="318.115234" xlink:href="#DejaVuSans-48"/>
      </g>
     </g>
    </g>
    <g id="ytick_8">
     <g id="line2d_33">
      <path clip-path="url(#p8fb9ffc65d)" d="M 90 123.490685 
L 648 123.490685 
" style="fill:none;stroke:#b0b0b0;stroke-linecap:square;stroke-width:0.8;"/>
     </g>
     <g id="line2d_34">
      <g>
       <use style="stroke:#000000;stroke-width:0.8;" x="90" xlink:href="#mf680ec56bd" y="123.490685"/>
      </g>
     </g>
     <g id="text_18">
      <!-- 700000 -->
      <g transform="translate(44.825 127.289903)scale(0.1 -0.1)">
       <use xlink:href="#DejaVuSans-55"/>
       <use x="63.623047" xlink:href="#DejaVuSans-48"/>
       <use x="127.246094" xlink:href="#DejaVuSans-48"/>
       <use x="190.869141" xlink:href="#DejaVuSans-48"/>
       <use x="254.492188" xlink:href="#DejaVuSans-48"/>
       <use x="318.115234" xlink:href="#DejaVuSans-48"/>
      </g>
     </g>
    </g>
    <g id="text_19">
     <!-- Cumulative cases -->
     <g transform="translate(38.745312 402.425781)rotate(-90)scale(0.1 -0.1)">
      <defs>
       <path d="M 64.40625 67.28125 
L 64.40625 56.890625 
Q 59.421875 61.53125 53.78125 63.8125 
Q 48.140625 66.109375 41.796875 66.109375 
Q 29.296875 66.109375 22.65625 58.46875 
Q 16.015625 50.828125 16.015625 36.375 
Q 16.015625 21.96875 22.65625 14.328125 
Q 29.296875 6.6875 41.796875 6.6875 
Q 48.140625 6.6875 53.78125 8.984375 
Q 59.421875 11.28125 64.40625 15.921875 
L 64.40625 5.609375 
Q 59.234375 2.09375 53.4375 0.328125 
Q 47.65625 -1.421875 41.21875 -1.421875 
Q 24.65625 -1.421875 15.125 8.703125 
Q 5.609375 18.84375 5.609375 36.375 
Q 5.609375 53.953125 15.125 64.078125 
Q 24.65625 74.21875 41.21875 74.21875 
Q 47.75 74.21875 53.53125 72.484375 
Q 59.328125 70.75 64.40625 67.28125 
z
" id="DejaVuSans-67"/>
       <path d="M 8.5 21.578125 
L 8.5 54.6875 
L 17.484375 54.6875 
L 17.484375 21.921875 
Q 17.484375 14.15625 20.5 10.265625 
Q 23.53125 6.390625 29.59375 6.390625 
Q 36.859375 6.390625 41.078125 11.03125 
Q 45.3125 15.671875 45.3125 23.6875 
L 45.3125 54.6875 
L 54.296875 54.6875 
L 54.296875 0 
L 45.3125 0 
L 45.3125 8.40625 
Q 42.046875 3.421875 37.71875 1 
Q 33.40625 -1.421875 27.6875 -1.421875 
Q 18.265625 -1.421875 13.375 4.4375 
Q 8.5 10.296875 8.5 21.578125 
z
M 31.109375 56 
z
" id="DejaVuSans-117"/>
       <path d="M 52 44.1875 
Q 55.375 50.25 60.0625 53.125 
Q 64.75 56 71.09375 56 
Q 79.640625 56 84.28125 50.015625 
Q 88.921875 44.046875 88.921875 33.015625 
L 88.921875 0 
L 79.890625 0 
L 79.890625 32.71875 
Q 79.890625 40.578125 77.09375 44.375 
Q 74.3125 48.1875 68.609375 48.1875 
Q 61.625 48.1875 57.5625 43.546875 
Q 53.515625 38.921875 53.515625 30.90625 
L 53.515625 0 
L 44.484375 0 
L 44.484375 32.71875 
Q 44.484375 40.625 41.703125 44.40625 
Q 38.921875 48.1875 33.109375 48.1875 
Q 26.21875 48.1875 22.15625 43.53125 
Q 18.109375 38.875 18.109375 30.90625 
L 18.109375 0 
L 9.078125 0 
L 9.078125 54.6875 
L 18.109375 54.6875 
L 18.109375 46.1875 
Q 21.1875 51.21875 25.484375 53.609375 
Q 29.78125 56 35.6875 56 
Q 41.65625 56 45.828125 52.96875 
Q 50 49.953125 52 44.1875 
z
" id="DejaVuSans-109"/>
       <path d="M 9.421875 75.984375 
L 18.40625 75.984375 
L 18.40625 0 
L 9.421875 0 
z
" id="DejaVuSans-108"/>
       <path d="M 18.3125 70.21875 
L 18.3125 54.6875 
L 36.8125 54.6875 
L 36.8125 47.703125 
L 18.3125 47.703125 
L 18.3125 18.015625 
Q 18.3125 11.328125 20.140625 9.421875 
Q 21.96875 7.515625 27.59375 7.515625 
L 36.8125 7.515625 
L 36.8125 0 
L 27.59375 0 
Q 17.1875 0 13.234375 3.875 
Q 9.28125 7.765625 9.28125 18.015625 
L 9.28125 47.703125 
L 2.6875 47.703125 
L 2.6875 54.6875 
L 9.28125 54.6875 
L 9.28125 70.21875 
z
" id="DejaVuSans-116"/>
       <path d="M 9.421875 54.6875 
L 18.40625 54.6875 
L 18.40625 0 
L 9.421875 0 
z
M 9.421875 75.984375 
L 18.40625 75.984375 
L 18.40625 64.59375 
L 9.421875 64.59375 
z
" id="DejaVuSans-105"/>
       <path d="M 2.984375 54.6875 
L 12.5 54.6875 
L 29.59375 8.796875 
L 46.6875 54.6875 
L 56.203125 54.6875 
L 35.6875 0 
L 23.484375 0 
z
" id="DejaVuSans-118"/>
       <path d="M 56.203125 29.59375 
L 56.203125 25.203125 
L 14.890625 25.203125 
Q 15.484375 15.921875 20.484375 11.0625 
Q 25.484375 6.203125 34.421875 6.203125 
Q 39.59375 6.203125 44.453125 7.46875 
Q 49.3125 8.734375 54.109375 11.28125 
L 54.109375 2.78125 
Q 49.265625 0.734375 44.1875 -0.34375 
Q 39.109375 -1.421875 33.890625 -1.421875 
Q 20.796875 -1.421875 13.15625 6.1875 
Q 5.515625 13.8125 5.515625 26.8125 
Q 5.515625 40.234375 12.765625 48.109375 
Q 20.015625 56 32.328125 56 
Q 43.359375 56 49.78125 48.890625 
Q 56.203125 41.796875 56.203125 29.59375 
z
M 47.21875 32.234375 
Q 47.125 39.59375 43.09375 43.984375 
Q 39.0625 48.390625 32.421875 48.390625 
Q 24.90625 48.390625 20.390625 44.140625 
Q 15.875 39.890625 15.1875 32.171875 
z
" id="DejaVuSans-101"/>
       <path id="DejaVuSans-32"/>
       <path d="M 48.78125 52.59375 
L 48.78125 44.1875 
Q 44.96875 46.296875 41.140625 47.34375 
Q 37.3125 48.390625 33.40625 48.390625 
Q 24.65625 48.390625 19.8125 42.84375 
Q 14.984375 37.3125 14.984375 27.296875 
Q 14.984375 17.28125 19.8125 11.734375 
Q 24.65625 6.203125 33.40625 6.203125 
Q 37.3125 6.203125 41.140625 7.25 
Q 44.96875 8.296875 48.78125 10.40625 
L 48.78125 2.09375 
Q 45.015625 0.34375 40.984375 -0.53125 
Q 36.96875 -1.421875 32.421875 -1.421875 
Q 20.0625 -1.421875 12.78125 6.34375 
Q 5.515625 14.109375 5.515625 27.296875 
Q 5.515625 40.671875 12.859375 48.328125 
Q 20.21875 56 33.015625 56 
Q 37.15625 56 41.109375 55.140625 
Q 45.0625 54.296875 48.78125 52.59375 
z
" id="DejaVuSans-99"/>
      </defs>
      <use xlink:href="#DejaVuSans-67"/>
      <use x="69.824219" xlink:href="#DejaVuSans-117"/>
      <use x="133.203125" xlink:href="#DejaVuSans-109"/>
      <use x="230.615234" xlink:href="#DejaVuSans-117"/>
      <use x="293.994141" xlink:href="#DejaVuSans-108"/>
      <use x="321.777344" xlink:href="#DejaVuSans-97"/>
      <use x="383.056641" xlink:href="#DejaVuSans-116"/>
      <use x="422.265625" xlink:href="#DejaVuSans-105"/>
      <use x="450.048828" xlink:href="#DejaVuSans-118"/>
      <use x="509.228516" xlink:href="#DejaVuSans-101"/>
      <use x="570.751953" xlink:href="#DejaVuSans-32"/>
      <use x="602.539062" xlink:href="#DejaVuSans-99"/>
      <use x="657.519531" xlink:href="#DejaVuSans-97"/>
      <use x="718.798828" xlink:href="#DejaVuSans-115"/>
      <use x="770.898438" xlink:href="#DejaVuSans-101"/>
      <use x="832.421875" xlink:href="#DejaVuSans-115"/>
     </g>
    </g>
   </g>
   <g id="line2d_35">
    <path clip-path="url(#p8fb9ffc65d)" d="M 115.363636 605.290909 
L 193.990909 605.151044 
L 224.427273 604.894281 
L 244.718182 604.512377 
L 259.936364 604.006591 
L 272.618182 603.346304 
L 282.763636 602.584418 
L 290.372727 601.825344 
L 297.981818 600.856305 
L 305.590909 599.620493 
L 310.663636 598.613859 
L 315.736364 597.431904 
L 320.809091 596.045248 
L 325.881818 594.420025 
L 330.954545 592.517369 
L 336.027273 590.292901 
L 341.1 587.696258 
L 346.172727 584.670702 
L 351.245455 581.152882 
L 353.781818 579.187755 
L 356.318182 577.07281 
L 358.854545 574.798313 
L 361.390909 572.354179 
L 363.927273 569.730005 
L 366.463636 566.915121 
L 369 563.898648 
L 371.536364 560.669566 
L 374.072727 557.2168 
L 376.609091 553.529325 
L 379.145455 549.596274 
L 381.681818 545.407073 
L 384.218182 540.951589 
L 386.754545 536.220292 
L 389.290909 531.204435 
L 391.827273 525.896246 
L 394.363636 520.28913 
L 396.9 514.377884 
L 399.436364 508.158909 
L 401.972727 501.630433 
L 407.045455 487.648246 
L 412.118182 472.46125 
L 417.190909 456.140164 
L 422.263636 438.799586 
L 427.336364 420.598079 
L 434.945455 392.126279 
L 452.7 324.563483 
L 457.772727 306.12189 
L 462.845455 288.480332 
L 467.918182 271.811173 
L 472.990909 256.243538 
L 478.063636 241.862283 
L 483.136364 228.710183 
L 485.672727 222.598027 
L 488.209091 216.79255 
L 490.745455 211.289573 
L 493.281818 206.083386 
L 495.818182 201.166964 
L 498.354545 196.532174 
L 500.890909 192.169978 
L 503.427273 188.070616 
L 505.963636 184.223786 
L 508.5 180.618798 
L 511.036364 177.244714 
L 513.572727 174.090479 
L 516.109091 171.145028 
L 518.645455 168.397382 
L 521.181818 165.836724 
L 523.718182 163.452473 
L 526.254545 161.23433 
L 528.790909 159.172327 
L 533.863636 155.478712 
L 538.936364 152.299518 
L 544.009091 149.569215 
L 549.081818 147.228919 
L 554.154545 145.22622 
L 559.227273 143.514832 
L 564.3 142.054142 
L 569.372727 140.808706 
L 574.445455 139.747733 
L 582.054545 138.444869 
L 589.663636 137.422986 
L 597.272727 136.622356 
L 607.418182 135.818615 
L 617.563636 135.239391 
L 622.636364 135.01375 
L 622.636364 135.01375 
" style="fill:none;stroke:#1f77b4;stroke-linecap:square;stroke-width:1.5;"/>
   </g>
   <g id="line2d_36">
    <path clip-path="url(#p8fb9ffc65d)" d="M 115.363636 605.290909 
L 150.872727 605.005657 
L 176.236364 604.596264 
L 196.527273 604.041145 
L 211.745455 603.414117 
L 224.427273 602.692744 
L 237.109091 601.725132 
L 247.254545 600.719145 
L 257.4 599.4492 
L 265.009091 598.283636 
L 272.618182 596.897979 
L 280.227273 595.252351 
L 287.836364 593.300351 
L 292.909091 591.802611 
L 297.981818 590.12713 
L 303.054545 588.254354 
L 308.127273 586.162972 
L 313.2 583.829863 
L 318.272727 581.230062 
L 323.345455 578.336777 
L 328.418182 575.121443 
L 333.490909 571.553842 
L 338.563636 567.602298 
L 343.636364 563.233963 
L 348.709091 558.415207 
L 353.781818 553.112127 
L 358.854545 547.291194 
L 363.927273 540.920038 
L 369 533.968386 
L 374.072727 526.409135 
L 379.145455 518.219561 
L 384.218182 509.382621 
L 389.290909 499.888315 
L 394.363636 489.735053 
L 399.436364 478.930934 
L 404.509091 467.49487 
L 409.581818 455.457457 
L 414.654545 442.861483 
L 419.727273 429.762005 
L 427.336364 409.31805 
L 434.945455 388.164235 
L 462.845455 309.757485 
L 470.454545 289.588108 
L 475.527273 276.713012 
L 480.6 264.368297 
L 485.672727 252.603388 
L 490.745455 241.455418 
L 495.818182 230.949512 
L 500.890909 221.099477 
L 505.963636 211.908794 
L 511.036364 203.371831 
L 516.109091 195.475174 
L 521.181818 188.198995 
L 526.254545 181.518395 
L 531.327273 175.404669 
L 536.4 169.82645 
L 541.472727 164.75073 
L 546.545455 160.143717 
L 551.618182 155.971562 
L 556.690909 152.20094 
L 561.763636 148.7995 
L 566.836364 145.736209 
L 571.909091 142.981592 
L 576.981818 140.507889 
L 582.054545 138.289147 
L 587.127273 136.301251 
L 592.2 134.521919 
L 597.272727 132.930659 
L 602.345455 131.508702 
L 609.954545 129.656171 
L 617.563636 128.095018 
L 622.636364 127.193975 
L 622.636364 127.193975 
" style="fill:none;stroke:#ff7f0e;stroke-linecap:square;stroke-width:1.5;"/>
   </g>
   <g id="line2d_37">
    <path clip-path="url(#p8fb9ffc65d)" d="M 115.363636 605.290909 
L 168.627273 605.095216 
L 196.527273 604.79244 
L 216.818182 604.362172 
L 232.036364 603.832497 
L 244.718182 603.180129 
L 254.863636 602.462385 
L 265.009091 601.509051 
L 272.618182 600.594765 
L 280.227273 599.465776 
L 287.836364 598.073321 
L 292.909091 596.97 
L 297.981818 595.703287 
L 303.054545 594.25027 
L 308.127273 592.585239 
L 313.2 590.679473 
L 318.272727 588.501059 
L 323.345455 586.014761 
L 328.418182 583.181964 
L 333.490909 579.960713 
L 338.563636 576.305901 
L 343.636364 572.169626 
L 348.709091 567.501789 
L 353.781818 562.250945 
L 358.854545 556.365483 
L 363.927273 549.795145 
L 369 542.492917 
L 374.072727 534.417264 
L 379.145455 525.534678 
L 384.218182 515.822427 
L 389.290909 505.271362 
L 394.363636 493.888585 
L 399.436364 481.699721 
L 404.509091 468.75054 
L 409.581818 455.107659 
L 414.654545 440.858127 
L 422.263636 418.582293 
L 432.409091 387.867468 
L 445.090909 349.414889 
L 452.7 327.128807 
L 457.772727 312.84636 
L 462.845455 299.135383 
L 467.918182 286.070925 
L 472.990909 273.709252 
L 478.063636 262.088391 
L 483.136364 251.229427 
L 488.209091 241.138317 
L 493.281818 231.808024 
L 498.354545 223.220767 
L 503.427273 215.350262 
L 508.5 208.16381 
L 513.572727 201.624191 
L 518.645455 195.691305 
L 523.718182 190.323555 
L 528.790909 185.478974 
L 533.863636 181.116116 
L 538.936364 177.194732 
L 544.009091 173.676265 
L 549.081818 170.524193 
L 554.154545 167.704242 
L 559.227273 165.184498 
L 564.3 162.935444 
L 569.372727 160.929935 
L 574.445455 159.143125 
L 579.518182 157.552372 
L 584.590909 156.137116 
L 592.2 154.303076 
L 599.809091 152.767133 
L 607.418182 151.482077 
L 615.027273 150.407793 
L 622.636364 149.510313 
L 622.636364 149.510313 
" style="fill:none;stroke:#2ca02c;stroke-linecap:square;stroke-width:1.5;"/>
   </g>
   <g id="line2d_38">
    <path clip-path="url(#p8fb9ffc65d)" d="M 115.363636 605.290909 
L 145.8 605.092014 
L 168.627273 604.736783 
L 186.381818 604.256047 
L 201.6 603.630086 
L 214.281818 602.898091 
L 224.427273 602.131134 
L 234.572727 601.159638 
L 244.718182 599.933581 
L 252.327273 598.810476 
L 259.936364 597.478973 
L 267.545455 595.903281 
L 275.154545 594.04213 
L 280.227273 592.619668 
L 285.3 591.033806 
L 290.372727 589.26755 
L 295.445455 587.302494 
L 300.518182 585.118794 
L 305.590909 582.695161 
L 310.663636 580.008885 
L 315.736364 577.0359 
L 320.809091 573.750901 
L 325.881818 570.127507 
L 330.954545 566.138502 
L 336.027273 561.756147 
L 341.1 556.952581 
L 346.172727 551.700311 
L 351.245455 545.972801 
L 356.318182 539.745159 
L 361.390909 532.994913 
L 366.463636 525.702867 
L 371.536364 517.854017 
L 376.609091 509.438489 
L 381.681818 500.452473 
L 386.754545 490.899099 
L 391.827273 480.789198 
L 396.9 470.141898 
L 401.972727 458.984996 
L 407.045455 447.355058 
L 412.118182 435.297203 
L 419.727273 416.526291 
L 427.336364 397.121992 
L 440.018182 364.018149 
L 452.7 330.961145 
L 460.309091 311.611518 
L 467.918182 292.883186 
L 475.527273 274.949373 
L 480.6 263.503539 
L 485.672727 252.502674 
L 490.745455 241.970039 
L 495.818182 231.921824 
L 500.890909 222.367677 
L 505.963636 213.311334 
L 511.036364 204.751311 
L 516.109091 196.681615 
L 521.181818 189.092461 
L 526.254545 181.970949 
L 531.327273 175.301703 
L 536.4 169.06745 
L 541.472727 163.24954 
L 546.545455 157.828394 
L 551.618182 152.7839 
L 556.690909 148.095738 
L 561.763636 143.74365 
L 566.836364 139.707665 
L 571.909091 135.968273 
L 576.981818 132.506558 
L 582.054545 129.304304 
L 587.127273 126.344063 
L 592.2 123.609208 
L 597.272727 121.083957 
L 602.345455 118.753386 
L 607.418182 116.603426 
L 615.027273 113.688437 
L 622.636364 111.109091 
L 622.636364 111.109091 
" style="fill:none;stroke:#d62728;stroke-linecap:square;stroke-width:1.5;"/>
   </g>
   <g id="line2d_39">
    <path clip-path="url(#p8fb9ffc65d)" d="M 115.363636 605.290909 
L 171.163636 605.16537 
L 204.136364 604.894602 
L 224.427273 604.531063 
L 239.645455 604.06816 
L 252.327273 603.482451 
L 262.472727 602.82363 
L 272.618182 601.930921 
L 280.227273 601.059858 
L 287.836364 599.967987 
L 295.445455 598.600977 
L 300.518182 597.504393 
L 305.590909 596.232833 
L 310.663636 594.759745 
L 315.736364 593.055017 
L 320.809091 591.08467 
L 325.881818 588.810579 
L 330.954545 586.190252 
L 336.027273 583.176711 
L 341.1 579.718511 
L 346.172727 575.759964 
L 348.709091 573.574611 
L 351.245455 571.241624 
L 353.781818 568.753121 
L 356.318182 566.101111 
L 358.854545 563.277541 
L 361.390909 560.274357 
L 363.927273 557.083571 
L 366.463636 553.697333 
L 369 550.108021 
L 371.536364 546.308327 
L 374.072727 542.291366 
L 376.609091 538.050782 
L 379.145455 533.580867 
L 381.681818 528.876682 
L 386.754545 518.750377 
L 391.827273 507.652661 
L 396.9 495.584833 
L 401.972727 482.572342 
L 407.045455 468.667604 
L 412.118182 453.951519 
L 417.190909 438.533304 
L 424.8 414.391871 
L 437.481818 372.841196 
L 445.090909 348.115697 
L 452.7 324.261258 
L 457.772727 309.090474 
L 462.845455 294.645354 
L 467.918182 281.016071 
L 472.990909 268.265754 
L 478.063636 256.431658 
L 483.136364 245.52755 
L 488.209091 235.546886 
L 493.281818 226.466391 
L 498.354545 218.24972 
L 503.427273 210.85094 
L 508.5 204.217675 
L 513.572727 198.293798 
L 518.645455 193.021663 
L 523.718182 188.343859 
L 528.790909 184.204543 
L 533.863636 180.550394 
L 538.936364 177.331253 
L 544.009091 174.500504 
L 549.081818 172.015265 
L 554.154545 169.836412 
L 559.227273 167.928506 
L 564.3 166.259635 
L 569.372727 164.801208 
L 574.445455 163.527722 
L 582.054545 161.915389 
L 589.663636 160.602928 
L 597.272727 159.535731 
L 604.881818 158.668734 
L 615.027273 157.76111 
L 622.636364 157.228543 
L 622.636364 157.228543 
" style="fill:none;stroke:#9467bd;stroke-linecap:square;stroke-width:1.5;"/>
   </g>
   <g id="line2d_40">
    <path clip-path="url(#p8fb9ffc65d)" d="M 115.363636 605.290909 
L 166.090909 605.18345 
L 196.527273 604.931486 
L 216.818182 604.570883 
L 232.036364 604.113324 
L 244.718182 603.538768 
L 254.863636 602.897807 
L 265.009091 602.036687 
L 272.618182 601.203131 
L 280.227273 600.165867 
L 287.836364 598.876983 
L 295.445455 597.278144 
L 300.518182 596.005762 
L 305.590909 594.540226 
L 310.663636 592.854181 
L 315.736364 590.917019 
L 320.809091 588.694691 
L 325.881818 586.149581 
L 330.954545 583.240479 
L 336.027273 579.922675 
L 341.1 576.148219 
L 346.172727 571.86641 
L 351.245455 567.024543 
L 356.318182 561.568976 
L 358.854545 558.594379 
L 361.390909 555.446557 
L 363.927273 552.119241 
L 366.463636 548.606437 
L 371.536364 541.002256 
L 376.609091 532.594687 
L 381.681818 523.354226 
L 386.754545 513.264094 
L 391.827273 502.323056 
L 396.9 490.547893 
L 401.972727 477.975271 
L 407.045455 464.662716 
L 412.118182 450.688496 
L 417.190909 436.150252 
L 424.8 413.539289 
L 440.018182 367.066496 
L 447.627273 344.12808 
L 455.236364 321.954482 
L 460.309091 307.77022 
L 465.381818 294.16182 
L 470.454545 281.193064 
L 475.527273 268.910457 
L 480.6 257.344193 
L 485.672727 246.509647 
L 490.745455 236.409199 
L 495.818182 227.034213 
L 500.890909 218.367043 
L 505.963636 210.382951 
L 511.036364 203.051873 
L 516.109091 196.339989 
L 521.181818 190.211071 
L 526.254545 184.627618 
L 531.327273 179.551783 
L 536.4 174.946104 
L 541.472727 170.77407 
L 546.545455 167.000538 
L 551.618182 163.592033 
L 556.690909 160.516938 
L 561.763636 157.745611 
L 566.836364 155.250429 
L 571.909091 153.005788 
L 576.981818 150.988062 
L 582.054545 149.175539 
L 587.127273 147.548328 
L 592.2 146.088266 
L 599.809091 144.175798 
L 607.418182 142.552946 
L 615.027273 141.176922 
L 622.636364 140.010939 
L 622.636364 140.010939 
" style="fill:none;stroke:#8c564b;stroke-linecap:square;stroke-width:1.5;"/>
   </g>
   <g id="line2d_41">
    <path clip-path="url(#p8fb9ffc65d)" d="M 115.363636 605.290909 
L 178.772727 605.172479 
L 211.745455 604.907659 
L 232.036364 604.533848 
L 247.254545 604.041162 
L 259.936364 603.400605 
L 270.081818 602.664146 
L 277.690909 601.932625 
L 285.3 601.001414 
L 292.909091 599.817512 
L 297.981818 598.855821 
L 303.054545 597.729371 
L 308.127273 596.411279 
L 313.2 594.870776 
L 318.272727 593.072826 
L 323.345455 590.977795 
L 328.418182 588.541172 
L 333.490909 585.713416 
L 338.563636 582.439984 
L 343.636364 578.661595 
L 346.172727 576.563362 
L 348.709091 574.314837 
L 351.245455 571.907615 
L 353.781818 569.333189 
L 356.318182 566.583013 
L 358.854545 563.648567 
L 361.390909 560.521449 
L 363.927273 557.193455 
L 366.463636 553.656691 
L 369 549.903676 
L 371.536364 545.927469 
L 374.072727 541.721793 
L 376.609091 537.281167 
L 379.145455 532.601047 
L 381.681818 527.677959 
L 386.754545 517.09516 
L 391.827273 505.531435 
L 396.9 493.010391 
L 401.972727 479.583095 
L 407.045455 465.329034 
L 412.118182 450.355186 
L 417.190909 434.79308 
L 424.8 410.681607 
L 442.554545 353.766352 
L 450.163636 330.395452 
L 455.236364 315.49037 
L 460.309091 301.240133 
L 465.381818 287.717195 
L 470.454545 274.971934 
L 475.527273 263.034357 
L 480.6 251.916426 
L 485.672727 241.614726 
L 490.745455 232.113226 
L 495.818182 223.385957 
L 500.890909 215.399486 
L 505.963636 208.115102 
L 511.036364 201.490698 
L 516.109091 195.48233 
L 521.181818 190.045481 
L 526.254545 185.136044 
L 531.327273 180.711076 
L 536.4 176.729341 
L 541.472727 173.151688 
L 546.545455 169.941289 
L 551.618182 167.063772 
L 556.690909 164.487266 
L 561.763636 162.182382 
L 566.836364 160.122152 
L 571.909091 158.28193 
L 576.981818 156.639266 
L 582.054545 155.173783 
L 589.663636 153.267892 
L 597.272727 151.664637 
L 604.881818 150.317065 
L 612.490909 149.185174 
L 622.636364 147.953528 
L 622.636364 147.953528 
" style="fill:none;stroke:#e377c2;stroke-linecap:square;stroke-width:1.5;"/>
   </g>
   <g id="line2d_42">
    <path clip-path="url(#p8fb9ffc65d)" d="M 115.363636 605.290909 
L 161.018182 605.181901 
L 191.454545 604.910766 
L 211.745455 604.523388 
L 226.963636 604.032908 
L 239.645455 603.418226 
L 249.790909 602.733684 
L 259.936364 601.815501 
L 267.545455 600.927981 
L 275.154545 599.824964 
L 282.763636 598.45613 
L 287.836364 597.36619 
L 292.909091 596.109992 
L 297.981818 594.66358 
L 303.054545 592.999978 
L 308.127273 591.088953 
L 313.2 588.896804 
L 318.272727 586.386212 
L 323.345455 583.516167 
L 328.418182 580.24201 
L 333.490909 576.515632 
L 338.563636 572.285888 
L 343.636364 567.499258 
L 346.172727 564.879972 
L 348.709091 562.100833 
L 351.245455 559.154981 
L 353.781818 556.035663 
L 356.318182 552.736289 
L 358.854545 549.250513 
L 361.390909 545.572307 
L 363.927273 541.696045 
L 369 533.329399 
L 374.072727 524.117133 
L 379.145455 514.038376 
L 384.218182 503.088018 
L 389.290909 491.279681 
L 394.363636 478.648174 
L 399.436364 465.251102 
L 404.509091 451.169321 
L 409.581818 436.506026 
L 417.190909 413.694602 
L 440.018182 344.031583 
L 445.090909 329.258014 
L 450.163636 315.023898 
L 455.236364 301.426901 
L 460.309091 288.543234 
L 465.381818 276.427393 
L 470.454545 265.113047 
L 475.527273 254.614801 
L 480.6 244.930583 
L 485.672727 236.044341 
L 490.745455 227.92885 
L 495.818182 220.548421 
L 500.890909 213.861395 
L 505.963636 207.822322 
L 511.036364 202.383813 
L 516.109091 197.498036 
L 521.181818 193.117892 
L 526.254545 189.197884 
L 531.327273 185.694746 
L 536.4 182.567842 
L 541.472727 179.779408 
L 546.545455 177.294642 
L 551.618182 175.08171 
L 556.690909 173.111663 
L 561.763636 171.358305 
L 566.836364 169.798036 
L 571.909091 168.409663 
L 579.518182 166.608461 
L 587.127273 165.096115 
L 594.736364 163.825785 
L 602.345455 162.758189 
L 612.490909 161.594051 
L 622.636364 160.66904 
L 622.636364 160.66904 
" style="fill:none;stroke:#7f7f7f;stroke-linecap:square;stroke-width:1.5;"/>
   </g>
   <g id="line2d_43">
    <path clip-path="url(#p8fb9ffc65d)" d="M 115.363636 605.290909 
L 171.163636 605.176878 
L 201.6 604.913655 
L 221.890909 604.531672 
L 237.109091 604.039995 
L 249.790909 603.414633 
L 259.936364 602.709293 
L 270.081818 601.752135 
L 277.690909 600.817595 
L 285.3 599.646101 
L 292.909091 598.18004 
L 297.981818 597.004859 
L 303.054545 595.643369 
L 308.127273 594.067929 
L 313.2 592.247431 
L 318.272727 590.147074 
L 323.345455 587.728204 
L 328.418182 584.948262 
L 333.490909 581.76086 
L 338.563636 578.116048 
L 343.636364 573.960827 
L 348.709091 569.239965 
L 351.245455 566.649826 
L 353.781818 563.89716 
L 356.318182 560.975019 
L 358.854545 557.87661 
L 361.390909 554.595364 
L 363.927273 551.125017 
L 366.463636 547.459691 
L 369 543.593991 
L 374.072727 535.242833 
L 379.145455 526.041555 
L 384.218182 515.973979 
L 389.290909 505.040664 
L 394.363636 493.261387 
L 399.436364 480.676878 
L 404.509091 467.349531 
L 409.581818 453.362892 
L 414.654545 438.819833 
L 422.263636 416.225954 
L 447.627273 339.67337 
L 452.7 325.114985 
L 457.772727 311.061086 
L 462.845455 297.589129 
L 467.918182 284.759029 
L 472.990909 272.61362 
L 478.063636 261.179765 
L 483.136364 250.46993 
L 488.209091 240.484046 
L 493.281818 231.211493 
L 498.354545 222.633084 
L 503.427273 214.722949 
L 508.5 207.450265 
L 513.572727 200.780778 
L 518.645455 194.678118 
L 523.718182 189.104892 
L 528.790909 184.023572 
L 533.863636 179.397202 
L 538.936364 175.189927 
L 544.009091 171.367388 
L 549.081818 167.896993 
L 554.154545 164.748086 
L 559.227273 161.89204 
L 564.3 159.302287 
L 569.372727 156.954291 
L 574.445455 154.825502 
L 579.518182 152.895268 
L 584.590909 151.144735 
L 592.2 148.818772 
L 599.809091 146.807501 
L 607.418182 145.066619 
L 615.027273 143.558057 
L 622.636364 142.249182 
L 622.636364 142.249182 
" style="fill:none;stroke:#bcbd22;stroke-linecap:square;stroke-width:1.5;"/>
   </g>
   <g id="line2d_44">
    <path clip-path="url(#p8fb9ffc65d)" d="M 115.363636 605.290909 
L 138.190909 605.137418 
L 143.263636 605.025913 
L 161.018182 604.389921 
L 173.7 604.21165 
L 201.6 603.577724 
L 206.672727 603.387064 
L 211.745455 603.12895 
L 219.354545 602.80063 
L 224.427273 602.397973 
L 232.036364 602.003575 
L 237.109091 601.620191 
L 244.718182 600.941524 
L 252.327273 600.090782 
L 254.863636 599.928342 
L 257.4 599.636502 
L 262.472727 598.818798 
L 270.081818 597.490374 
L 280.227273 595.422024 
L 282.763636 594.623593 
L 287.836364 593.463803 
L 290.372727 592.911096 
L 303.054545 589.048341 
L 305.590909 588.601632 
L 308.127273 587.450102 
L 310.663636 586.44105 
L 315.736364 583.987939 
L 320.809091 581.654593 
L 323.345455 580.653112 
L 325.881818 579.47405 
L 328.418182 577.225364 
L 333.490909 573.659268 
L 336.027273 572.067912 
L 338.563636 570.282455 
L 341.1 568.828759 
L 343.636364 567.156183 
L 348.709091 562.678086 
L 351.245455 560.056341 
L 353.781818 557.095262 
L 356.318182 554.689644 
L 358.854545 552.761708 
L 361.390909 549.954809 
L 363.927273 547.560892 
L 366.463636 544.928134 
L 369 541.510023 
L 371.536364 538.329376 
L 376.609091 532.268182 
L 379.145455 528.353116 
L 381.681818 523.824772 
L 384.218182 519.546971 
L 386.754545 514.584308 
L 391.827273 506.005302 
L 394.363636 501.22504 
L 396.9 495.633268 
L 401.972727 483.387674 
L 404.509091 475.917524 
L 409.581818 463.70428 
L 412.118182 456.72902 
L 414.654545 450.665073 
L 417.190909 441.253221 
L 419.727273 432.754059 
L 422.263636 423.464036 
L 427.336364 407.211832 
L 429.872727 399.987406 
L 434.945455 382.140404 
L 442.554545 354.534646 
L 445.090909 348.13343 
L 447.627273 342.509997 
L 452.7 324.439296 
L 455.236364 314.841603 
L 457.772727 306.441556 
L 460.309091 298.709851 
L 465.381818 288.847849 
L 470.454545 273.424361 
L 472.990909 265.843395 
L 475.527273 258.886719 
L 478.063636 253.246078 
L 480.6 249.545074 
L 483.136364 246.477997 
L 488.209091 234.869083 
L 490.745455 229.849979 
L 493.281818 224.541788 
L 495.818182 219.950121 
L 498.354545 217.376557 
L 500.890909 215.648228 
L 503.427273 213.714098 
L 505.963636 210.998055 
L 508.5 206.678955 
L 511.036364 203.572645 
L 513.572727 201.031431 
L 516.109091 199.282454 
L 518.645455 197.728266 
L 523.718182 192.362258 
L 526.254545 190.023405 
L 528.790909 187.471867 
L 531.327273 185.594177 
L 536.4 183.361323 
L 541.472727 179.734656 
L 544.009091 178.464049 
L 549.081818 175.074846 
L 551.618182 173.708565 
L 554.154545 172.870212 
L 561.763636 168.176676 
L 566.836364 165.809603 
L 569.372727 165.227987 
L 571.909091 164.485308 
L 579.518182 160.385089 
L 582.054545 159.135131 
L 584.590909 158.048301 
L 587.127273 157.390283 
L 589.663636 156.858914 
L 592.2 155.535308 
L 599.809091 151.259571 
L 602.345455 150.18926 
L 604.881818 149.690241 
L 607.418182 148.763785 
L 612.490909 146.170949 
L 615.027273 145.152261 
L 617.563636 144.485295 
L 620.1 143.612527 
L 622.636364 142.99099 
L 622.636364 142.99099 
" style="fill:none;stroke:#17becf;stroke-dasharray:14.8,6.4;stroke-dashoffset:0;stroke-width:4;"/>
   </g>
   <g id="patch_3">
    <path d="M 90 630 
L 90 86.4 
" style="fill:none;stroke:#000000;stroke-linecap:square;stroke-linejoin:miter;stroke-width:0.8;"/>
   </g>
   <g id="patch_4">
    <path d="M 648 630 
L 648 86.4 
" style="fill:none;stroke:#000000;stroke-linecap:square;stroke-linejoin:miter;stroke-width:0.8;"/>
   </g>
   <g id="patch_5">
    <path d="M 90 630 
L 648 630 
" style="fill:none;stroke:#000000;stroke-linecap:square;stroke-linejoin:miter;stroke-width:0.8;"/>
   </g>
   <g id="patch_6">
    <path d="M 90 86.4 
L 648 86.4 
" style="fill:none;stroke:#000000;stroke-linecap:square;stroke-linejoin:miter;stroke-width:0.8;"/>
   </g>
   <g id="text_20">
    <!-- South Africa relative err =  -->
    <g transform="translate(288.7425 80.4)scale(0.12 -0.12)">
     <defs>
      <path d="M 53.515625 70.515625 
L 53.515625 60.890625 
Q 47.90625 63.578125 42.921875 64.890625 
Q 37.9375 66.21875 33.296875 66.21875 
Q 25.25 66.21875 20.875 63.09375 
Q 16.5 59.96875 16.5 54.203125 
Q 16.5 49.359375 19.40625 46.890625 
Q 22.3125 44.4375 30.421875 42.921875 
L 36.375 41.703125 
Q 47.40625 39.59375 52.65625 34.296875 
Q 57.90625 29 57.90625 20.125 
Q 57.90625 9.515625 50.796875 4.046875 
Q 43.703125 -1.421875 29.984375 -1.421875 
Q 24.8125 -1.421875 18.96875 -0.25 
Q 13.140625 0.921875 6.890625 3.21875 
L 6.890625 13.375 
Q 12.890625 10.015625 18.65625 8.296875 
Q 24.421875 6.59375 29.984375 6.59375 
Q 38.421875 6.59375 43.015625 9.90625 
Q 47.609375 13.234375 47.609375 19.390625 
Q 47.609375 24.75 44.3125 27.78125 
Q 41.015625 30.8125 33.5 32.328125 
L 27.484375 33.5 
Q 16.453125 35.6875 11.515625 40.375 
Q 6.59375 45.0625 6.59375 53.421875 
Q 6.59375 63.09375 13.40625 68.65625 
Q 20.21875 74.21875 32.171875 74.21875 
Q 37.3125 74.21875 42.625 73.28125 
Q 47.953125 72.359375 53.515625 70.515625 
z
" id="DejaVuSans-83"/>
      <path d="M 30.609375 48.390625 
Q 23.390625 48.390625 19.1875 42.75 
Q 14.984375 37.109375 14.984375 27.296875 
Q 14.984375 17.484375 19.15625 11.84375 
Q 23.34375 6.203125 30.609375 6.203125 
Q 37.796875 6.203125 41.984375 11.859375 
Q 46.1875 17.53125 46.1875 27.296875 
Q 46.1875 37.015625 41.984375 42.703125 
Q 37.796875 48.390625 30.609375 48.390625 
z
M 30.609375 56 
Q 42.328125 56 49.015625 48.375 
Q 55.71875 40.765625 55.71875 27.296875 
Q 55.71875 13.875 49.015625 6.21875 
Q 42.328125 -1.421875 30.609375 -1.421875 
Q 18.84375 -1.421875 12.171875 6.21875 
Q 5.515625 13.875 5.515625 27.296875 
Q 5.515625 40.765625 12.171875 48.375 
Q 18.84375 56 30.609375 56 
z
" id="DejaVuSans-111"/>
      <path d="M 54.890625 33.015625 
L 54.890625 0 
L 45.90625 0 
L 45.90625 32.71875 
Q 45.90625 40.484375 42.875 44.328125 
Q 39.84375 48.1875 33.796875 48.1875 
Q 26.515625 48.1875 22.3125 43.546875 
Q 18.109375 38.921875 18.109375 30.90625 
L 18.109375 0 
L 9.078125 0 
L 9.078125 75.984375 
L 18.109375 75.984375 
L 18.109375 46.1875 
Q 21.34375 51.125 25.703125 53.5625 
Q 30.078125 56 35.796875 56 
Q 45.21875 56 50.046875 50.171875 
Q 54.890625 44.34375 54.890625 33.015625 
z
" id="DejaVuSans-104"/>
      <path d="M 34.1875 63.1875 
L 20.796875 26.90625 
L 47.609375 26.90625 
z
M 28.609375 72.90625 
L 39.796875 72.90625 
L 67.578125 0 
L 57.328125 0 
L 50.6875 18.703125 
L 17.828125 18.703125 
L 11.1875 0 
L 0.78125 0 
z
" id="DejaVuSans-65"/>
      <path d="M 37.109375 75.984375 
L 37.109375 68.5 
L 28.515625 68.5 
Q 23.6875 68.5 21.796875 66.546875 
Q 19.921875 64.59375 19.921875 59.515625 
L 19.921875 54.6875 
L 34.71875 54.6875 
L 34.71875 47.703125 
L 19.921875 47.703125 
L 19.921875 0 
L 10.890625 0 
L 10.890625 47.703125 
L 2.296875 47.703125 
L 2.296875 54.6875 
L 10.890625 54.6875 
L 10.890625 58.5 
Q 10.890625 67.625 15.140625 71.796875 
Q 19.390625 75.984375 28.609375 75.984375 
z
" id="DejaVuSans-102"/>
      <path d="M 41.109375 46.296875 
Q 39.59375 47.171875 37.8125 47.578125 
Q 36.03125 48 33.890625 48 
Q 26.265625 48 22.1875 43.046875 
Q 18.109375 38.09375 18.109375 28.8125 
L 18.109375 0 
L 9.078125 0 
L 9.078125 54.6875 
L 18.109375 54.6875 
L 18.109375 46.1875 
Q 20.953125 51.171875 25.484375 53.578125 
Q 30.03125 56 36.53125 56 
Q 37.453125 56 38.578125 55.875 
Q 39.703125 55.765625 41.0625 55.515625 
z
" id="DejaVuSans-114"/>
      <path d="M 10.59375 45.40625 
L 73.1875 45.40625 
L 73.1875 37.203125 
L 10.59375 37.203125 
z
M 10.59375 25.484375 
L 73.1875 25.484375 
L 73.1875 17.1875 
L 10.59375 17.1875 
z
" id="DejaVuSans-61"/>
     </defs>
     <use xlink:href="#DejaVuSans-83"/>
     <use x="63.476562" xlink:href="#DejaVuSans-111"/>
     <use x="124.658203" xlink:href="#DejaVuSans-117"/>
     <use x="188.037109" xlink:href="#DejaVuSans-116"/>
     <use x="227.246094" xlink:href="#DejaVuSans-104"/>
     <use x="290.625" xlink:href="#DejaVuSans-32"/>
     <use x="322.412109" xlink:href="#DejaVuSans-65"/>
     <use x="387.195312" xlink:href="#DejaVuSans-102"/>
     <use x="422.400391" xlink:href="#DejaVuSans-114"/>
     <use x="463.513672" xlink:href="#DejaVuSans-105"/>
     <use x="491.296875" xlink:href="#DejaVuSans-99"/>
     <use x="546.277344" xlink:href="#DejaVuSans-97"/>
     <use x="607.556641" xlink:href="#DejaVuSans-32"/>
     <use x="639.34375" xlink:href="#DejaVuSans-114"/>
     <use x="678.207031" xlink:href="#DejaVuSans-101"/>
     <use x="739.730469" xlink:href="#DejaVuSans-108"/>
     <use x="767.513672" xlink:href="#DejaVuSans-97"/>
     <use x="828.792969" xlink:href="#DejaVuSans-116"/>
     <use x="868.001953" xlink:href="#DejaVuSans-105"/>
     <use x="895.785156" xlink:href="#DejaVuSans-118"/>
     <use x="954.964844" xlink:href="#DejaVuSans-101"/>
     <use x="1016.488281" xlink:href="#DejaVuSans-32"/>
     <use x="1048.275391" xlink:href="#DejaVuSans-101"/>
     <use x="1109.798828" xlink:href="#DejaVuSans-114"/>
     <use x="1149.162109" xlink:href="#DejaVuSans-114"/>
     <use x="1190.275391" xlink:href="#DejaVuSans-32"/>
     <use x="1222.0625" xlink:href="#DejaVuSans-61"/>
     <use x="1305.851562" xlink:href="#DejaVuSans-32"/>
    </g>
   </g>
   <g id="legend_1">
    <g id="patch_7">
     <path d="M 97 226.503125 
L 185.6 226.503125 
Q 187.6 226.503125 187.6 224.503125 
L 187.6 93.4 
Q 187.6 91.4 185.6 91.4 
L 97 91.4 
Q 95 91.4 95 93.4 
L 95 224.503125 
Q 95 226.503125 97 226.503125 
z
" style="fill:#ffffff;opacity:0.8;stroke:#cccccc;stroke-linejoin:miter;"/>
    </g>
    <g id="line2d_45">
     <path d="M 99 99.498438 
L 119 99.498438 
" style="fill:none;stroke:#1f77b4;stroke-linecap:square;stroke-width:1.5;"/>
    </g>
    <g id="line2d_46"/>
    <g id="text_21">
     <!-- SI -->
     <g transform="translate(127 102.998438)scale(0.1 -0.1)">
      <defs>
       <path d="M 9.8125 72.90625 
L 19.671875 72.90625 
L 19.671875 0 
L 9.8125 0 
z
" id="DejaVuSans-73"/>
      </defs>
      <use xlink:href="#DejaVuSans-83"/>
      <use x="63.476562" xlink:href="#DejaVuSans-73"/>
     </g>
    </g>
    <g id="line2d_47">
     <path d="M 99 114.176563 
L 119 114.176563 
" style="fill:none;stroke:#ff7f0e;stroke-linecap:square;stroke-width:1.5;"/>
    </g>
    <g id="line2d_48"/>
    <g id="text_22">
     <!-- BD -->
     <g transform="translate(127 117.676563)scale(0.1 -0.1)">
      <defs>
       <path d="M 19.671875 34.8125 
L 19.671875 8.109375 
L 35.5 8.109375 
Q 43.453125 8.109375 47.28125 11.40625 
Q 51.125 14.703125 51.125 21.484375 
Q 51.125 28.328125 47.28125 31.5625 
Q 43.453125 34.8125 35.5 34.8125 
z
M 19.671875 64.796875 
L 19.671875 42.828125 
L 34.28125 42.828125 
Q 41.5 42.828125 45.03125 45.53125 
Q 48.578125 48.25 48.578125 53.8125 
Q 48.578125 59.328125 45.03125 62.0625 
Q 41.5 64.796875 34.28125 64.796875 
z
M 9.8125 72.90625 
L 35.015625 72.90625 
Q 46.296875 72.90625 52.390625 68.21875 
Q 58.5 63.53125 58.5 54.890625 
Q 58.5 48.1875 55.375 44.234375 
Q 52.25 40.28125 46.1875 39.3125 
Q 53.46875 37.75 57.5 32.78125 
Q 61.53125 27.828125 61.53125 20.40625 
Q 61.53125 10.640625 54.890625 5.3125 
Q 48.25 0 35.984375 0 
L 9.8125 0 
z
" id="DejaVuSans-66"/>
      </defs>
      <use xlink:href="#DejaVuSans-66"/>
      <use x="68.603516" xlink:href="#DejaVuSans-68"/>
     </g>
    </g>
    <g id="line2d_49">
     <path d="M 99 128.854688 
L 119 128.854688 
" style="fill:none;stroke:#2ca02c;stroke-linecap:square;stroke-width:1.5;"/>
    </g>
    <g id="line2d_50"/>
    <g id="text_23">
     <!-- SIR -->
     <g transform="translate(127 132.354688)scale(0.1 -0.1)">
      <defs>
       <path d="M 44.390625 34.1875 
Q 47.5625 33.109375 50.5625 29.59375 
Q 53.5625 26.078125 56.59375 19.921875 
L 66.609375 0 
L 56 0 
L 46.6875 18.703125 
Q 43.0625 26.03125 39.671875 28.421875 
Q 36.28125 30.8125 30.421875 30.8125 
L 19.671875 30.8125 
L 19.671875 0 
L 9.8125 0 
L 9.8125 72.90625 
L 32.078125 72.90625 
Q 44.578125 72.90625 50.734375 67.671875 
Q 56.890625 62.453125 56.890625 51.90625 
Q 56.890625 45.015625 53.6875 40.46875 
Q 50.484375 35.9375 44.390625 34.1875 
z
M 19.671875 64.796875 
L 19.671875 38.921875 
L 32.078125 38.921875 
Q 39.203125 38.921875 42.84375 42.21875 
Q 46.484375 45.515625 46.484375 51.90625 
Q 46.484375 58.296875 42.84375 61.546875 
Q 39.203125 64.796875 32.078125 64.796875 
z
" id="DejaVuSans-82"/>
      </defs>
      <use xlink:href="#DejaVuSans-83"/>
      <use x="63.476562" xlink:href="#DejaVuSans-73"/>
      <use x="92.96875" xlink:href="#DejaVuSans-82"/>
     </g>
    </g>
    <g id="line2d_51">
     <path d="M 99 143.532812 
L 119 143.532812 
" style="fill:none;stroke:#d62728;stroke-linecap:square;stroke-width:1.5;"/>
    </g>
    <g id="line2d_52"/>
    <g id="text_24">
     <!-- eSIR -->
     <g transform="translate(127 147.032812)scale(0.1 -0.1)">
      <use xlink:href="#DejaVuSans-101"/>
      <use x="61.523438" xlink:href="#DejaVuSans-83"/>
      <use x="125" xlink:href="#DejaVuSans-73"/>
      <use x="154.492188" xlink:href="#DejaVuSans-82"/>
     </g>
    </g>
    <g id="line2d_53">
     <path d="M 99 158.210938 
L 119 158.210938 
" style="fill:none;stroke:#9467bd;stroke-linecap:square;stroke-width:1.5;"/>
    </g>
    <g id="line2d_54"/>
    <g id="text_25">
     <!-- SEIR -->
     <g transform="translate(127 161.710938)scale(0.1 -0.1)">
      <defs>
       <path d="M 9.8125 72.90625 
L 55.90625 72.90625 
L 55.90625 64.59375 
L 19.671875 64.59375 
L 19.671875 43.015625 
L 54.390625 43.015625 
L 54.390625 34.71875 
L 19.671875 34.71875 
L 19.671875 8.296875 
L 56.78125 8.296875 
L 56.78125 0 
L 9.8125 0 
z
" id="DejaVuSans-69"/>
      </defs>
      <use xlink:href="#DejaVuSans-83"/>
      <use x="63.476562" xlink:href="#DejaVuSans-69"/>
      <use x="126.660156" xlink:href="#DejaVuSans-73"/>
      <use x="156.152344" xlink:href="#DejaVuSans-82"/>
     </g>
    </g>
    <g id="line2d_55">
     <path d="M 99 172.889063 
L 119 172.889063 
" style="fill:none;stroke:#8c564b;stroke-linecap:square;stroke-width:1.5;"/>
    </g>
    <g id="line2d_56"/>
    <g id="text_26">
     <!-- eSEIR -->
     <g transform="translate(127 176.389063)scale(0.1 -0.1)">
      <use xlink:href="#DejaVuSans-101"/>
      <use x="61.523438" xlink:href="#DejaVuSans-83"/>
      <use x="125" xlink:href="#DejaVuSans-69"/>
      <use x="188.183594" xlink:href="#DejaVuSans-73"/>
      <use x="217.675781" xlink:href="#DejaVuSans-82"/>
     </g>
    </g>
    <g id="line2d_57">
     <path d="M 99 187.567188 
L 119 187.567188 
" style="fill:none;stroke:#e377c2;stroke-linecap:square;stroke-width:1.5;"/>
    </g>
    <g id="line2d_58"/>
    <g id="text_27">
     <!-- SEIUR -->
     <g transform="translate(127 191.067188)scale(0.1 -0.1)">
      <defs>
       <path d="M 8.6875 72.90625 
L 18.609375 72.90625 
L 18.609375 28.609375 
Q 18.609375 16.890625 22.84375 11.734375 
Q 27.09375 6.59375 36.625 6.59375 
Q 46.09375 6.59375 50.34375 11.734375 
Q 54.59375 16.890625 54.59375 28.609375 
L 54.59375 72.90625 
L 64.5 72.90625 
L 64.5 27.390625 
Q 64.5 13.140625 57.4375 5.859375 
Q 50.390625 -1.421875 36.625 -1.421875 
Q 22.796875 -1.421875 15.734375 5.859375 
Q 8.6875 13.140625 8.6875 27.390625 
z
" id="DejaVuSans-85"/>
      </defs>
      <use xlink:href="#DejaVuSans-83"/>
      <use x="63.476562" xlink:href="#DejaVuSans-69"/>
      <use x="126.660156" xlink:href="#DejaVuSans-73"/>
      <use x="156.152344" xlink:href="#DejaVuSans-85"/>
      <use x="229.345703" xlink:href="#DejaVuSans-82"/>
     </g>
    </g>
    <g id="line2d_59">
     <path d="M 99 202.245312 
L 119 202.245312 
" style="fill:none;stroke:#7f7f7f;stroke-linecap:square;stroke-width:1.5;"/>
    </g>
    <g id="line2d_60"/>
    <g id="text_28">
     <!-- eSEIUR -->
     <g transform="translate(127 205.745312)scale(0.1 -0.1)">
      <use xlink:href="#DejaVuSans-101"/>
      <use x="61.523438" xlink:href="#DejaVuSans-83"/>
      <use x="125" xlink:href="#DejaVuSans-69"/>
      <use x="188.183594" xlink:href="#DejaVuSans-73"/>
      <use x="217.675781" xlink:href="#DejaVuSans-85"/>
      <use x="290.869141" xlink:href="#DejaVuSans-82"/>
     </g>
    </g>
    <g id="line2d_61">
     <path d="M 99 216.923437 
L 119 216.923437 
" style="fill:none;stroke:#bcbd22;stroke-linecap:square;stroke-width:1.5;"/>
    </g>
    <g id="line2d_62"/>
    <g id="text_29">
     <!-- eSEIUR$^{range}$ -->
     <g transform="translate(127 220.423437)scale(0.1 -0.1)">
      <defs>
       <path d="M 44.578125 46.390625 
Q 43.21875 47.125 41.453125 47.515625 
Q 39.703125 47.90625 37.703125 47.90625 
Q 30.515625 47.90625 25.140625 42.453125 
Q 19.78125 37.015625 18.015625 27.875 
L 12.5 0 
L 3.515625 0 
L 14.203125 54.6875 
L 23.1875 54.6875 
L 21.484375 46.1875 
Q 25.046875 50.921875 30 53.453125 
Q 34.96875 56 40.578125 56 
Q 42.046875 56 43.453125 55.828125 
Q 44.875 55.671875 46.296875 55.28125 
z
" id="DejaVuSans-Oblique-114"/>
       <path d="M 53.71875 31.203125 
L 47.609375 0 
L 38.625 0 
L 40.28125 8.296875 
Q 36.328125 3.421875 31.265625 1 
Q 26.21875 -1.421875 20.015625 -1.421875 
Q 13.03125 -1.421875 8.5625 2.84375 
Q 4.109375 7.125 4.109375 13.8125 
Q 4.109375 23.390625 11.75 28.953125 
Q 19.390625 34.515625 32.8125 34.515625 
L 45.3125 34.515625 
L 45.796875 36.921875 
Q 45.90625 37.3125 45.953125 37.765625 
Q 46 38.234375 46 39.203125 
Q 46 43.5625 42.453125 45.96875 
Q 38.921875 48.390625 32.515625 48.390625 
Q 28.125 48.390625 23.5 47.265625 
Q 18.890625 46.140625 14.015625 43.890625 
L 15.578125 52.203125 
Q 20.65625 54.109375 25.515625 55.046875 
Q 30.375 56 34.90625 56 
Q 44.578125 56 49.625 51.796875 
Q 54.6875 47.609375 54.6875 39.59375 
Q 54.6875 37.984375 54.4375 35.8125 
Q 54.203125 33.640625 53.71875 31.203125 
z
M 44 27.484375 
L 35.015625 27.484375 
Q 23.96875 27.484375 18.671875 24.53125 
Q 13.375 21.578125 13.375 15.375 
Q 13.375 11.078125 16.078125 8.640625 
Q 18.796875 6.203125 23.578125 6.203125 
Q 30.90625 6.203125 36.375 11.453125 
Q 41.84375 16.703125 43.609375 25.484375 
z
" id="DejaVuSans-Oblique-97"/>
       <path d="M 55.71875 33.015625 
L 49.3125 0 
L 40.28125 0 
L 46.6875 32.671875 
Q 47.125 34.96875 47.359375 36.71875 
Q 47.609375 38.484375 47.609375 39.5 
Q 47.609375 43.609375 45.015625 45.890625 
Q 42.4375 48.1875 37.796875 48.1875 
Q 30.5625 48.1875 25.34375 43.375 
Q 20.125 38.578125 18.5 30.328125 
L 12.5 0 
L 3.515625 0 
L 14.109375 54.6875 
L 23.09375 54.6875 
L 21.296875 46.09375 
Q 25.046875 50.828125 30.3125 53.40625 
Q 35.59375 56 41.40625 56 
Q 48.640625 56 52.609375 52.09375 
Q 56.59375 48.1875 56.59375 41.109375 
Q 56.59375 39.359375 56.375 37.359375 
Q 56.15625 35.359375 55.71875 33.015625 
z
" id="DejaVuSans-Oblique-110"/>
       <path d="M 59.625 54.6875 
L 50.296875 6.78125 
Q 47.609375 -7.125 40.015625 -13.953125 
Q 32.421875 -20.796875 19.578125 -20.796875 
Q 14.84375 -20.796875 10.78125 -20.09375 
Q 6.734375 -19.390625 3.21875 -17.921875 
L 4.890625 -9.1875 
Q 8.203125 -11.328125 11.90625 -12.34375 
Q 15.625 -13.375 19.828125 -13.375 
Q 28.375 -13.375 33.859375 -8.703125 
Q 39.359375 -4.046875 41.109375 4.6875 
L 41.890625 8.796875 
Q 38.140625 4.5 33.15625 2.25 
Q 28.171875 0 22.40625 0 
Q 14.109375 0 9.34375 5.484375 
Q 4.59375 10.984375 4.59375 20.609375 
Q 4.59375 28.171875 7.46875 35.421875 
Q 10.359375 42.671875 15.578125 48.296875 
Q 19.046875 52 23.65625 54 
Q 28.265625 56 33.296875 56 
Q 38.8125 56 42.90625 53.4375 
Q 47.015625 50.875 49.03125 46.1875 
L 50.59375 54.6875 
z
M 46.09375 34.625 
Q 46.09375 41.265625 42.96875 44.875 
Q 39.84375 48.484375 34.078125 48.484375 
Q 30.515625 48.484375 27.296875 47.0625 
Q 24.078125 45.65625 21.78125 43.109375 
Q 18.0625 38.921875 15.984375 33.234375 
Q 13.921875 27.546875 13.921875 21.484375 
Q 13.921875 14.75 17.0625 11.125 
Q 20.21875 7.515625 26.125 7.515625 
Q 34.671875 7.515625 40.375 15.25 
Q 46.09375 23 46.09375 34.625 
z
" id="DejaVuSans-Oblique-103"/>
       <path d="M 48.09375 32.234375 
Q 48.25 33.015625 48.3125 33.84375 
Q 48.390625 34.671875 48.390625 35.5 
Q 48.390625 41.453125 44.890625 44.921875 
Q 41.40625 48.390625 35.40625 48.390625 
Q 28.71875 48.390625 23.578125 44.15625 
Q 18.453125 39.9375 15.828125 32.171875 
z
M 55.90625 25.203125 
L 14.109375 25.203125 
Q 13.8125 23.34375 13.71875 22.265625 
Q 13.625 21.1875 13.625 20.40625 
Q 13.625 13.625 17.796875 9.90625 
Q 21.96875 6.203125 29.59375 6.203125 
Q 35.453125 6.203125 40.671875 7.515625 
Q 45.90625 8.84375 50.390625 11.375 
L 48.6875 2.484375 
Q 43.84375 0.53125 38.6875 -0.4375 
Q 33.546875 -1.421875 28.21875 -1.421875 
Q 16.84375 -1.421875 10.71875 4.015625 
Q 4.59375 9.46875 4.59375 19.484375 
Q 4.59375 28.03125 7.640625 35.375 
Q 10.6875 42.71875 16.609375 48.484375 
Q 20.40625 52.09375 25.65625 54.046875 
Q 30.90625 56 36.8125 56 
Q 46.09375 56 51.578125 50.4375 
Q 57.078125 44.875 57.078125 35.5 
Q 57.078125 33.25 56.78125 30.6875 
Q 56.5 28.125 55.90625 25.203125 
z
" id="DejaVuSans-Oblique-101"/>
      </defs>
      <use transform="translate(0 0.51875)" xlink:href="#DejaVuSans-101"/>
      <use transform="translate(61.523438 0.51875)" xlink:href="#DejaVuSans-83"/>
      <use transform="translate(125 0.51875)" xlink:href="#DejaVuSans-69"/>
      <use transform="translate(188.183594 0.51875)" xlink:href="#DejaVuSans-73"/>
      <use transform="translate(217.675781 0.51875)" xlink:href="#DejaVuSans-85"/>
      <use transform="translate(288.619141 0.51875)" xlink:href="#DejaVuSans-82"/>
      <use transform="translate(359.058594 38.8)scale(0.7)" xlink:href="#DejaVuSans-Oblique-114"/>
      <use transform="translate(387.837891 38.8)scale(0.7)" xlink:href="#DejaVuSans-Oblique-97"/>
      <use transform="translate(430.733398 38.8)scale(0.7)" xlink:href="#DejaVuSans-Oblique-110"/>
      <use transform="translate(475.098633 38.8)scale(0.7)" xlink:href="#DejaVuSans-Oblique-103"/>
      <use transform="translate(519.532227 38.8)scale(0.7)" xlink:href="#DejaVuSans-Oblique-101"/>
     </g>
    </g>
   </g>
  </g>
 </g>
 <defs>
  <clipPath id="p8fb9ffc65d">
   <rect height="543.6" width="558" x="90" y="86.4"/>
  </clipPath>
 </defs>
</svg>
